<svg width="101" height="76" viewBox="0 0 101 76" fill="none" xmlns="http://www.w3.org/2000/svg">
<g clip-path="url(#clip0)">
<path opacity="0.1" d="M52.5394 76C70.2752 76 84.653 75.2173 84.653 74.2519C84.653 73.2865 70.2752 72.5039 52.5394 72.5039C34.8035 72.5039 20.4258 73.2865 20.4258 74.2519C20.4258 75.2173 34.8035 76 52.5394 76Z" fill="#715AFF"/>
<path d="M70.7308 67.3987L70.4546 67.8061L68.7469 70.3615L67.297 70.8013L66.2152 69.7365L66.2677 69.0338L66.5374 65.3849C66.5374 65.3849 59.8446 61.425 59.2462 60.6843C58.6478 59.9436 56.3463 59.2723 56.3463 59.2723C56.3463 59.2723 52.825 57.6289 51.5131 54.7587C50.2012 51.8885 53.6996 51.4487 53.6996 51.4487L66.8412 64.0887L70.7308 67.3987Z" fill="#FFC1C7"/>
<path d="M72.3407 68.8802L68.175 72.792C68.175 72.792 65.7814 73.2549 63.641 72.9309C62.2729 72.7235 62.5362 71.9689 62.8962 71.4495L62.9026 71.4402C63.1182 71.1432 63.4335 70.9346 63.7901 70.8532C65.5613 70.4236 66.1726 69.1339 66.1726 69.1339L67.4615 70.2449L69.694 67.6284L71.3446 68.408L72.3407 68.8802Z" fill="#575988"/>
<path opacity="0.1" d="M71.3458 68.4098L70.3654 67.9469L70.4574 67.8062L70.7336 67.3988L66.8413 64.0888L53.6996 51.4507C53.6996 51.4507 50.2012 51.8886 51.5131 54.7588C52.825 57.629 56.3463 59.2724 56.3463 59.2724C56.3463 59.2724 58.6478 59.9437 59.2462 60.6844C59.8446 61.4251 66.5421 65.3832 66.5421 65.3832L66.2723 69.032L66.2594 69.2061L66.1738 69.1329C66.1738 69.1329 65.5625 70.4227 63.7913 70.8523C63.4347 70.9337 63.1194 71.1422 62.9038 71.4393L62.8974 71.4485C62.5291 71.967 62.2741 72.7216 63.6421 72.9299C65.7826 73.254 68.1761 72.7911 68.1761 72.7911L72.3419 68.8793L71.3458 68.4098Z" fill="black"/>
<path opacity="0.1" d="M1.0918 39.8105C2.68997 46.6805 6.07321 52.619 11.4192 55.4994C22.5319 61.4824 47.5917 58.3964 66.2939 54.8513C75.7447 53.0663 84.3232 48.1343 90.6477 40.8494L1.0918 39.8105Z" fill="#715AFF"/>
<path opacity="0.1" d="M99.1677 7.47367H88.9057C88.6753 7.46621 88.457 7.36895 88.2967 7.20247C88.1364 7.03599 88.0468 6.81333 88.0468 6.58159C88.0468 6.34985 88.1364 6.1272 88.2967 5.96072C88.457 5.79424 88.6753 5.69698 88.9057 5.68952H90.6797C90.4445 5.68952 90.219 5.59558 90.0528 5.42837C89.8865 5.26116 89.7931 5.03438 89.7931 4.79791C89.7931 4.56144 89.8865 4.33465 90.0528 4.16744C90.219 4.00023 90.4445 3.90629 90.6797 3.90629H89.4129C89.1826 3.89883 88.9642 3.80157 88.8039 3.63509C88.6436 3.46861 88.554 3.24596 88.554 3.01422C88.554 2.78248 88.6436 2.55982 88.8039 2.39334C88.9642 2.22686 89.1826 2.12961 89.4129 2.12214H94.769C93.5805 1.56662 92.1913 1.17127 90.5904 0.96388C75.9858 -0.922117 70.7715 0.32503 68.9321 1.61199C66.6628 3.19523 64.1311 4.35997 61.4255 4.92105C52.4146 6.79038 35.5628 9.03931 20.289 4.20072C12.6976 1.79346 7.05615 5.85988 3.67383 12.6521H100.949C100.822 10.6781 100.442 8.85599 99.744 7.25979C99.5835 7.39802 99.379 7.47389 99.1677 7.47367Z" fill="#715AFF"/>
<path opacity="0.1" d="M0.218958 25.4707C-0.1752 29.4663 -0.0414698 33.4968 0.616661 37.457L90.7148 40.7707C93.2233 37.8694 95.3291 34.6396 96.9749 31.1694L0.218958 25.4707ZM35.8539 34.0193H34.0799C34.1988 34.0154 34.3172 34.0356 34.4282 34.0787C34.5391 34.1218 34.6403 34.1869 34.7258 34.2701C34.8113 34.3533 34.8792 34.453 34.9256 34.5631C34.972 34.6733 34.9959 34.7917 34.9959 34.9113C34.9959 35.031 34.972 35.1494 34.9256 35.2595C34.8792 35.3697 34.8113 35.4693 34.7258 35.5525C34.6403 35.6358 34.5391 35.7008 34.4282 35.7439C34.3172 35.787 34.1988 35.8073 34.0799 35.8034H23.8178C23.5875 35.7959 23.3692 35.6987 23.2089 35.5322C23.0486 35.3657 22.959 35.1431 22.959 34.9113C22.959 34.6796 23.0486 34.4569 23.2089 34.2905C23.3692 34.124 23.5875 34.0267 23.8178 34.0193H25.5919C25.3567 34.0193 25.1312 33.9253 24.965 33.7581C24.7987 33.5909 24.7053 33.3641 24.7053 33.1276C24.7053 32.8912 24.7987 32.6644 24.965 32.4972C25.1312 32.33 25.3567 32.236 25.5919 32.236H24.3251C24.0948 32.2286 23.8764 32.1313 23.7161 31.9648C23.5558 31.7983 23.4662 31.5757 23.4662 31.344C23.4662 31.1122 23.5558 30.8896 23.7161 30.7231C23.8764 30.5566 24.0948 30.4593 24.3251 30.4519H34.5871C34.8174 30.4593 35.0358 30.5566 35.1961 30.7231C35.3564 30.8896 35.446 31.1122 35.446 31.344C35.446 31.5757 35.3564 31.7983 35.1961 31.9648C35.0358 32.1313 34.8174 32.2286 34.5871 32.236H35.8539C36.089 32.236 36.3145 32.33 36.4808 32.4972C36.647 32.6644 36.7404 32.8912 36.7404 33.1276C36.7404 33.3641 36.647 33.5909 36.4808 33.7581C36.3145 33.9253 36.089 34.0193 35.8539 34.0193Z" fill="#715AFF"/>
<path opacity="0.1" d="M100.954 12.7114L2.58837 15.1187C1.39158 18.212 0.602619 21.7053 0.234375 25.3338H99.2302C99.8763 23.2045 100.354 21.0272 100.66 18.8222C100.954 16.6917 101.072 14.6308 100.954 12.7114ZM20.2042 20.5943H18.4302C18.5491 20.5904 18.6675 20.6106 18.7785 20.6537C18.8895 20.6968 18.9907 20.7619 19.0761 20.8451C19.1616 20.9284 19.2295 21.028 19.2759 21.1382C19.3223 21.2483 19.3463 21.3667 19.3463 21.4864C19.3463 21.606 19.3223 21.7244 19.2759 21.8345C19.2295 21.9447 19.1616 22.0443 19.0761 22.1276C18.9907 22.2108 18.8895 22.2759 18.7785 22.319C18.6675 22.3621 18.5491 22.3823 18.4302 22.3784H8.16818C7.93788 22.371 7.71949 22.2737 7.5592 22.1072C7.39892 21.9407 7.30929 21.7181 7.30929 21.4864C7.30929 21.2546 7.39892 21.032 7.5592 20.8655C7.71949 20.699 7.93788 20.6017 8.16818 20.5943H9.94219C9.70707 20.5943 9.48157 20.5003 9.31531 20.3331C9.14905 20.1659 9.05565 19.9391 9.05565 19.7027C9.05565 19.4662 9.14905 19.2394 9.31531 19.0722C9.48157 18.905 9.70707 18.8111 9.94219 18.8111H8.67544C8.44513 18.8036 8.22675 18.7063 8.06646 18.5399C7.90617 18.3734 7.81655 18.1507 7.81655 17.919C7.81655 17.6872 7.90617 17.4646 8.06646 17.2981C8.22675 17.1316 8.44513 17.0344 8.67544 17.0269H18.9375C19.1678 17.0344 19.3862 17.1316 19.5464 17.2981C19.7067 17.4646 19.7964 17.6872 19.7964 17.919C19.7964 18.1507 19.7067 18.3734 19.5464 18.5399C19.3862 18.7063 19.1678 18.8036 18.9375 18.8111H20.2042C20.4393 18.8111 20.6648 18.905 20.8311 19.0722C20.9974 19.2394 21.0908 19.4662 21.0908 19.7027C21.0908 19.9391 20.9974 20.1659 20.8311 20.3331C20.6648 20.5003 20.4393 20.5943 20.2042 20.5943Z" fill="#715AFF"/>
<g opacity="0.1">
<path opacity="0.1" d="M73.4023 45.7025C73.4023 45.7025 75.9985 39.2677 80.8464 36.8808C82.8863 35.8929 84.5523 34.2658 85.594 32.2441C86.0812 31.2806 86.4796 30.2743 86.7843 29.2378" stroke="#535461" stroke-width="2" stroke-miterlimit="10"/>
<path opacity="0.1" d="M89.8299 27.716C89.3244 28.3549 86.709 29.29 86.709 29.29C86.709 29.29 87.0238 26.517 87.5292 25.8782C87.6445 25.7126 87.7923 25.5725 87.9634 25.4665C88.1346 25.3606 88.3255 25.2909 88.5244 25.2619C88.7233 25.2329 88.926 25.2451 89.12 25.2979C89.314 25.3506 89.4952 25.4427 89.6525 25.5685C89.8098 25.6943 89.9399 25.8511 90.0347 26.0294C90.1294 26.2076 90.1869 26.4035 90.2036 26.6049C90.2203 26.8063 90.1959 27.0091 90.1318 27.2006C90.0676 27.3922 89.9652 27.5685 89.8308 27.7188L89.8299 27.716Z" fill="#715AFF"/>
<path opacity="0.1" d="M88.9317 32.7761C88.1621 33.0362 85.4629 32.389 85.4629 32.389C85.4629 32.389 87.2259 30.2336 87.9955 29.9734C88.1819 29.8966 88.382 29.859 88.5835 29.8631C88.7849 29.8671 88.9833 29.9127 89.1666 29.9969C89.3498 30.0812 89.5139 30.2024 89.6487 30.3529C89.7835 30.5035 89.8862 30.6803 89.9503 30.8724C90.0145 31.0645 90.0388 31.2677 90.0218 31.4696C90.0047 31.6715 89.9466 31.8678 89.8512 32.0462C89.7557 32.2246 89.6248 32.3814 89.4667 32.507C89.3085 32.6325 89.1265 32.7241 88.9317 32.7761Z" fill="#715AFF"/>
<path opacity="0.1" d="M84.0661 38.7576C83.2716 38.5909 81.2656 36.6623 81.2656 36.6623C81.2656 36.6623 83.87 35.6967 84.6645 35.8624C85.0261 35.9619 85.3363 36.1962 85.5321 36.5177C85.7278 36.8392 85.7943 37.2237 85.718 37.5928C85.6417 37.9619 85.4284 38.2878 85.1215 38.5043C84.8145 38.7207 84.4371 38.8113 84.0661 38.7576Z" fill="#715AFF"/>
<path opacity="0.1" d="M79.3723 42.4493C78.5613 42.4215 76.2598 40.8605 76.2598 40.8605C76.2598 40.8605 78.6644 39.4662 79.4755 39.4949C79.677 39.4885 79.8777 39.5239 80.0651 39.5987C80.2526 39.6736 80.4227 39.7864 80.565 39.93C80.7073 40.0737 80.8188 40.2453 80.8925 40.434C80.9662 40.6228 81.0006 40.8248 80.9935 41.0275C80.9865 41.2302 80.9381 41.4292 80.8514 41.6124C80.7647 41.7955 80.6416 41.9587 80.4896 42.092C80.3376 42.2253 80.16 42.3258 79.9678 42.3873C79.7756 42.4487 79.573 42.4698 79.3723 42.4493Z" fill="#715AFF"/>
<path opacity="0.1" d="M82.9501 30.5808C83.0532 31.3909 84.8115 33.5501 84.8115 33.5501C84.8115 33.5501 85.9697 31.0132 85.8656 30.204C85.7937 29.835 85.5849 29.5074 85.2816 29.2875C84.9783 29.0676 84.6033 28.972 84.2325 29.0199C83.8617 29.0678 83.5229 29.2558 83.2847 29.5456C83.0466 29.8355 82.927 30.2055 82.9501 30.5808Z" fill="#715AFF"/>
<path opacity="0.1" d="M77.5132 34.9686C77.8529 35.7093 80.1738 37.2416 80.1738 37.2416C80.1738 37.2416 80.5227 34.4732 80.183 33.7316C80.0044 33.4014 79.7077 33.1518 79.353 33.0334C78.9983 32.915 78.6121 32.9366 78.2727 33.0939C77.9332 33.2512 77.6659 33.5324 77.5249 33.8804C77.3839 34.2285 77.3797 34.6175 77.5132 34.9686Z" fill="#715AFF"/>
<path opacity="0.1" d="M72.8107 39.9626C73.0215 40.7515 75.0505 42.6551 75.0505 42.6551C75.0505 42.6551 75.8607 39.9858 75.6508 39.1969C75.5316 38.8394 75.2813 38.5411 74.9509 38.3627C74.6205 38.1843 74.235 38.1394 73.8728 38.237C73.5107 38.3347 73.1992 38.5676 73.0018 38.8882C72.8044 39.2088 72.7361 39.5931 72.8107 39.9626Z" fill="#715AFF"/>
<path opacity="0.25" d="M89.8299 27.716C89.3244 28.3549 86.709 29.29 86.709 29.29C86.709 29.29 87.0238 26.517 87.5292 25.8782C87.6445 25.7126 87.7923 25.5725 87.9634 25.4665C88.1346 25.3606 88.3255 25.2909 88.5244 25.2619C88.7233 25.2329 88.926 25.2451 89.12 25.2979C89.314 25.3506 89.4952 25.4427 89.6525 25.5685C89.8098 25.6943 89.9399 25.8511 90.0347 26.0294C90.1294 26.2076 90.1869 26.4035 90.2036 26.6049C90.2203 26.8063 90.1959 27.0091 90.1318 27.2006C90.0676 27.3922 89.9652 27.5685 89.8308 27.7188L89.8299 27.716Z" fill="black"/>
<path opacity="0.25" d="M88.9317 32.7761C88.1621 33.0362 85.4629 32.389 85.4629 32.389C85.4629 32.389 87.2259 30.2336 87.9955 29.9734C88.1819 29.8966 88.382 29.859 88.5835 29.8631C88.7849 29.8671 88.9833 29.9127 89.1666 29.9969C89.3498 30.0812 89.5139 30.2024 89.6487 30.3529C89.7835 30.5035 89.8862 30.6803 89.9503 30.8724C90.0145 31.0645 90.0388 31.2677 90.0218 31.4696C90.0047 31.6715 89.9466 31.8678 89.8512 32.0462C89.7557 32.2246 89.6248 32.3814 89.4667 32.507C89.3085 32.6325 89.1265 32.7241 88.9317 32.7761Z" fill="black"/>
<path opacity="0.25" d="M84.0661 38.7576C83.2716 38.5909 81.2656 36.6623 81.2656 36.6623C81.2656 36.6623 83.87 35.6967 84.6645 35.8624C85.0261 35.9619 85.3363 36.1962 85.5321 36.5177C85.7278 36.8392 85.7943 37.2237 85.718 37.5928C85.6417 37.9619 85.4284 38.2878 85.1215 38.5043C84.8145 38.7207 84.4371 38.8113 84.0661 38.7576Z" fill="black"/>
<path opacity="0.25" d="M79.3723 42.4493C78.5613 42.4215 76.2598 40.8605 76.2598 40.8605C76.2598 40.8605 78.6644 39.4662 79.4755 39.4949C79.677 39.4885 79.8777 39.5239 80.0651 39.5987C80.2526 39.6736 80.4227 39.7864 80.565 39.93C80.7073 40.0737 80.8188 40.2453 80.8925 40.434C80.9662 40.6228 81.0006 40.8248 80.9935 41.0275C80.9865 41.2302 80.9381 41.4292 80.8514 41.6124C80.7647 41.7955 80.6416 41.9587 80.4896 42.092C80.3376 42.2253 80.16 42.3258 79.9678 42.3873C79.7756 42.4487 79.573 42.4698 79.3723 42.4493Z" fill="black"/>
<path opacity="0.25" d="M82.9501 30.5808C83.0532 31.3909 84.8115 33.5501 84.8115 33.5501C84.8115 33.5501 85.9697 31.0132 85.8656 30.204C85.7937 29.835 85.5849 29.5074 85.2816 29.2875C84.9783 29.0676 84.6033 28.972 84.2325 29.0199C83.8617 29.0678 83.5229 29.2558 83.2847 29.5456C83.0466 29.8355 82.927 30.2055 82.9501 30.5808Z" fill="black"/>
<path opacity="0.25" d="M77.5132 34.9686C77.8529 35.7093 80.1738 37.2416 80.1738 37.2416C80.1738 37.2416 80.5227 34.4732 80.183 33.7316C80.0044 33.4014 79.7077 33.1518 79.353 33.0334C78.9983 32.915 78.6121 32.9366 78.2727 33.0939C77.9332 33.2512 77.6659 33.5324 77.5249 33.8804C77.3839 34.2285 77.3797 34.6175 77.5132 34.9686Z" fill="black"/>
<path opacity="0.25" d="M72.8107 39.9626C73.0215 40.7515 75.0505 42.6551 75.0505 42.6551C75.0505 42.6551 75.8607 39.9858 75.6508 39.1969C75.5316 38.8394 75.2813 38.5411 74.9509 38.3627C74.6205 38.1843 74.235 38.1394 73.8728 38.237C73.5107 38.3347 73.1992 38.5676 73.0018 38.8882C72.8044 39.2088 72.7361 39.5931 72.8107 39.9626Z" fill="black"/>
</g>
<g opacity="0.1">
<path opacity="0.1" d="M69.2676 35.4075C69.2676 35.4075 69.5953 28.4709 73.3818 24.6016C74.9803 22.9893 76.0156 20.899 76.3323 18.6446C76.4735 17.5722 76.5166 16.489 76.4612 15.4087" stroke="#535461" stroke-width="2" stroke-miterlimit="10"/>
<path opacity="0.1" d="M78.8359 12.9554C78.5698 13.7275 76.4101 15.4793 76.4101 15.4793C76.4101 15.4793 75.7933 12.7581 76.0584 11.9869C76.2037 11.6403 76.4747 11.3623 76.8163 11.2092C77.158 11.0562 77.5448 11.0396 77.8982 11.1628C78.2515 11.286 78.5451 11.5398 78.7192 11.8727C78.8934 12.2056 78.9351 12.5927 78.8359 12.9554Z" fill="#715AFF"/>
<path opacity="0.1" d="M79.6585 18.0289C79.0141 18.5307 76.2578 18.8214 76.2578 18.8214C76.2578 18.8214 77.2106 16.1994 77.8505 15.6975C78.1598 15.4856 78.5377 15.4001 78.9074 15.4582C79.2772 15.5164 79.6111 15.7139 79.8412 16.0107C80.0714 16.3075 80.1806 16.6813 80.1467 17.0561C80.1128 17.431 79.9382 17.7788 79.6585 18.0289Z" fill="#715AFF"/>
<path opacity="0.1" d="M77.0406 25.2952C76.2359 25.4035 73.707 24.2526 73.707 24.2526C73.707 24.2526 75.8456 22.4731 76.653 22.3648C77.0262 22.3391 77.3952 22.4572 77.6851 22.6952C77.9749 22.9331 78.1638 23.2731 78.2135 23.646C78.2632 24.019 78.1699 24.3969 77.9525 24.7032C77.7352 25.0095 77.4101 25.2211 77.0433 25.2952H77.0406Z" fill="#715AFF"/>
<path opacity="0.1" d="M73.8268 30.3439C73.0526 30.5884 70.3672 29.881 70.3672 29.881C70.3672 29.881 72.1753 27.7645 72.9504 27.521C73.1386 27.447 73.34 27.4128 73.5419 27.4205C73.7438 27.4281 73.942 27.4775 74.1241 27.5655C74.3063 27.6535 74.4685 27.7782 74.6006 27.9319C74.7328 28.0856 74.8321 28.2651 74.8923 28.459C74.9526 28.653 74.9725 28.8574 74.9509 29.0594C74.9293 29.2615 74.8665 29.4569 74.7666 29.6335C74.6666 29.8101 74.5316 29.9642 74.37 30.0861C74.2083 30.208 74.0234 30.2951 73.8268 30.3421V30.3439Z" fill="#715AFF"/>
<path opacity="0.1" d="M73.2902 17.9535C73.6584 18.683 76.0262 20.1339 76.0262 20.1339C76.0262 20.1339 76.2812 17.3563 75.9167 16.6258C75.7272 16.3015 75.4222 16.0619 75.0635 15.9555C74.7049 15.8491 74.3194 15.8839 73.9853 16.0528C73.6512 16.2217 73.3935 16.5121 73.2644 16.865C73.1353 17.218 73.1445 17.6071 73.2902 17.9535Z" fill="#715AFF"/>
<path opacity="0.1" d="M69.607 23.9066C70.1722 24.4926 72.8659 25.1639 72.8659 25.1639C72.8659 25.1639 72.2832 22.4344 71.7179 21.8484C71.4408 21.5948 71.078 21.4571 70.7034 21.4631C70.3288 21.4691 69.9706 21.6184 69.7016 21.8807C69.4326 22.1429 69.2731 22.4984 69.2555 22.8748C69.238 23.2511 69.3636 23.6201 69.607 23.9066Z" fill="#715AFF"/>
<path opacity="0.1" d="M66.8179 30.1858C67.2782 30.8598 69.8191 31.9792 69.8191 31.9792C69.8191 31.9792 69.7022 29.1905 69.2446 28.5164C69.0132 28.2228 68.6798 28.0282 68.3114 27.9719C67.9431 27.9156 67.5672 28.0018 67.2595 28.2131C66.9518 28.4244 66.7352 28.7451 66.6533 29.1106C66.5713 29.4762 66.6301 29.8593 66.8179 30.183V30.1858Z" fill="#715AFF"/>
</g>
<path opacity="0.1" d="M39.6794 7.9164C39.6794 7.9164 37.4856 7.78401 37.7461 9.33021C37.7328 9.40866 37.7445 9.48935 37.7795 9.5607C37.8146 9.63205 37.8712 9.69041 37.9413 9.72741C37.9413 9.72741 37.9413 9.6126 38.1659 9.65148C38.2446 9.66525 38.3247 9.66929 38.4043 9.66352C38.5121 9.656 38.6145 9.61343 38.6962 9.54223C38.6962 9.54223 39.313 9.28577 39.5523 8.27194C39.5523 8.27194 39.73 8.05066 39.7226 7.99418L39.3544 8.15343C39.3544 8.15343 39.4805 8.42193 39.3811 8.64506C39.3811 8.64506 39.3691 8.16269 39.2982 8.1738C39.2835 8.1738 39.1058 8.26638 39.1058 8.26638C39.1058 8.26638 39.324 8.73487 39.1592 9.07467C39.1592 9.07467 39.2218 8.49785 39.0377 8.30064L38.7772 8.45341C38.7772 8.45341 39.0313 8.93671 38.8591 9.33113C38.8591 9.33113 38.9033 8.72654 38.7229 8.49044L38.4863 8.67562C38.4863 8.67562 38.7256 9.15244 38.5783 9.47927C38.5783 9.47927 38.5599 8.77469 38.4338 8.72191C38.3445 8.798 38.2647 8.88475 38.1963 8.98023C38.1963 8.98023 38.3592 9.3265 38.258 9.5089C38.258 9.5089 38.1963 9.03948 38.1447 9.03763C38.1447 9.03763 37.9385 9.34872 37.9173 9.56167C37.9272 9.36406 37.9885 9.17252 38.095 9.00615C37.9762 9.02881 37.8665 9.08575 37.7792 9.17003C37.7792 9.17003 37.8115 8.9506 38.1475 8.93116C38.1475 8.93116 38.3178 8.69506 38.3629 8.68117C38.3629 8.68117 38.0306 8.65247 37.8299 8.74321C37.8299 8.74321 38.0066 8.53581 38.4237 8.62932L38.6575 8.4386C38.6575 8.4386 38.2202 8.37841 38.0343 8.44415C38.0343 8.44415 38.2478 8.25898 38.7201 8.39508L38.9742 8.24231C38.7788 8.19879 38.5785 8.18136 38.3786 8.19046C38.3786 8.19046 38.6133 8.06362 39.0488 8.20065L39.2329 8.11917C39.2329 8.11917 38.9567 8.06547 38.8794 8.05621C38.802 8.04695 38.7956 8.02566 38.7956 8.02566C38.9685 7.99666 39.146 8.01653 39.3084 8.08306C39.3084 8.08306 39.6867 7.9414 39.6794 7.9164Z" fill="#715AFF"/>
<path opacity="0.1" d="M33.9177 15.4409C33.9177 15.4409 33.1683 17.5195 34.7159 17.7093C34.787 17.7444 34.8674 17.7559 34.9454 17.7422C35.0234 17.7286 35.0952 17.6905 35.1504 17.6334C35.1504 17.6334 35.0418 17.5973 35.1421 17.3954C35.1763 17.3232 35.2017 17.247 35.2176 17.1686C35.2412 17.0626 35.2299 16.9518 35.1854 16.8529C35.1854 16.8529 35.1164 16.1853 34.2178 15.6668C34.2178 15.6668 34.0567 15.4326 34.0006 15.4233L34.0475 15.8252C34.0475 15.8252 34.3394 15.7798 34.5244 15.9391C34.5244 15.9391 34.0641 15.8141 34.0512 15.8853C34.0512 15.9002 34.0853 16.0974 34.0853 16.0974C34.0853 16.0974 34.5934 16.0205 34.8715 16.2751C34.8715 16.2751 34.3394 16.052 34.0991 16.1724L34.1709 16.4677C34.1709 16.4677 34.7039 16.3594 35.0307 16.6381C35.0307 16.6381 34.4664 16.4233 34.1902 16.5307L34.2998 16.8084C34.2998 16.8084 34.8218 16.7159 35.0924 16.9464C35.0924 16.9464 34.4158 16.7612 34.3292 16.8714C34.3764 16.9794 34.4367 17.0811 34.5088 17.1742C34.5088 17.1742 34.8844 17.1149 35.0298 17.2667C35.0298 17.2667 34.5649 17.1936 34.5483 17.2427C34.5483 17.2427 34.7859 17.5297 34.9829 17.613C34.7982 17.5476 34.6337 17.4346 34.506 17.2853C34.4948 17.4048 34.5181 17.525 34.5732 17.6315C34.5732 17.6315 34.3734 17.539 34.4498 17.2112C34.4498 17.2112 34.2731 16.9797 34.2722 16.9334C34.2722 16.9334 34.1516 17.2464 34.1801 17.4658C34.1801 17.4658 34.0328 17.2362 34.2409 16.8603L34.1249 16.5825C34.1249 16.5825 33.9407 16.9871 33.9536 17.1843C33.9536 17.1843 33.8395 16.927 34.1009 16.5094L34.0273 16.2214C33.9312 16.3964 33.8578 16.5831 33.8091 16.777C33.8091 16.777 33.7548 16.514 34.0098 16.1344L33.9831 15.9353C33.9831 15.9353 33.8542 16.1835 33.8229 16.2585C33.7916 16.3335 33.7695 16.3307 33.7695 16.3307C33.7913 16.1556 33.8608 15.9899 33.9702 15.852C33.9702 15.852 33.9435 15.4419 33.9177 15.4409Z" fill="#715AFF"/>
<path opacity="0.1" d="M48.4669 13.6899C48.4669 13.6899 47.7166 15.7676 49.2651 15.9574C49.336 15.9924 49.4161 16.0041 49.494 15.9906C49.5718 15.9771 49.6435 15.9393 49.6987 15.8824C49.6987 15.8824 49.5909 15.8463 49.6904 15.6435C49.7258 15.5714 49.7523 15.4952 49.7695 15.4167C49.7933 15.3109 49.7817 15.2002 49.7364 15.1019C49.7364 15.1019 49.6674 14.4343 48.7688 13.9149C48.7688 13.9149 48.6087 13.6806 48.5525 13.6714L48.5985 14.0741C48.5985 14.0741 48.8913 14.0278 49.0754 14.1871C49.0754 14.1871 48.6151 14.0621 48.6031 14.1343C48.6031 14.1482 48.6372 14.3463 48.6372 14.3463C48.6372 14.3463 49.1454 14.2686 49.4225 14.5241C49.4225 14.5241 48.8913 14.3001 48.6501 14.4213L48.7219 14.7158C48.7219 14.7158 49.2549 14.6074 49.5827 14.8861C49.5827 14.8861 49.0183 14.6713 48.7421 14.7797L48.8517 15.0574C48.8517 15.0574 49.3737 14.9648 49.6443 15.1954C49.6443 15.1954 48.9677 15.0102 48.8812 15.1194C48.9283 15.2273 48.9883 15.3289 49.0598 15.4222C49.0598 15.4222 49.4363 15.363 49.5817 15.5148C49.5817 15.5148 49.1159 15.4416 49.1003 15.4898C49.1003 15.4898 49.3378 15.7768 49.5348 15.8601C49.3498 15.7943 49.1851 15.681 49.057 15.5315C49.0448 15.6525 49.0682 15.7745 49.1242 15.8824C49.1242 15.8824 48.9235 15.7898 48.9999 15.4611C48.9999 15.4611 48.8241 15.2306 48.8232 15.1833C48.8232 15.1833 48.7016 15.4953 48.7311 15.7157C48.7311 15.7157 48.5838 15.4852 48.7928 15.1102L48.6759 14.8324C48.6759 14.8324 48.4917 15.237 48.5056 15.4352C48.5056 15.4352 48.3914 15.1769 48.6528 14.7593L48.5792 14.4713C48.4829 14.6462 48.4095 14.833 48.361 15.0269C48.361 15.0269 48.3058 14.7648 48.5608 14.3843L48.5341 14.1862C48.5341 14.1862 48.4052 14.4343 48.3748 14.5084C48.3444 14.5824 48.3214 14.5815 48.3214 14.5815C48.3427 14.4063 48.4122 14.2405 48.5221 14.1028C48.5221 14.1028 48.4917 13.6899 48.4669 13.6899Z" fill="#715AFF"/>
<path opacity="0.1" d="M24.6934 11.086C24.6934 11.086 23.9432 13.1645 25.4916 13.3534C25.5625 13.3888 25.6426 13.4006 25.7206 13.3871C25.7985 13.3736 25.8702 13.3355 25.9252 13.2784C25.9252 13.2784 25.8175 13.2423 25.9169 13.0405C25.9519 12.9682 25.9785 12.8921 25.9961 12.8136C26.0194 12.7076 26.0078 12.5967 25.963 12.4979C25.963 12.4979 25.8939 11.8304 24.9954 11.3109C24.9954 11.3109 24.8352 11.0776 24.7791 11.0684L24.8251 11.4702C24.8251 11.4702 25.1169 11.4248 25.302 11.5841C25.302 11.5841 24.8417 11.4582 24.8297 11.5304C24.8297 11.5452 24.8638 11.7424 24.8638 11.7424C24.8638 11.7424 25.3719 11.6655 25.649 11.9202C25.649 11.9202 25.1169 11.6961 24.8766 11.8174L24.9485 12.1127C24.9485 12.1127 25.4815 12.0044 25.8083 12.2831C25.8083 12.2831 25.2449 12.0683 24.9687 12.1757L25.0783 12.4535C25.0783 12.4535 25.6002 12.3609 25.8709 12.5914C25.8709 12.5914 25.1933 12.4062 25.1077 12.5155C25.1548 12.6236 25.2148 12.7256 25.2863 12.8192C25.2863 12.8192 25.6628 12.759 25.8074 12.9118C25.8074 12.9118 25.3425 12.8386 25.3259 12.8877C25.3259 12.8877 25.5643 13.1738 25.7614 13.258C25.5762 13.1926 25.4114 13.0792 25.2836 12.9294C25.2714 13.0504 25.2947 13.1724 25.3508 13.2803C25.3508 13.2803 25.1501 13.1877 25.2265 12.8599C25.2265 12.8599 25.0497 12.6284 25.0497 12.5822C25.0497 12.5822 24.9282 12.8951 24.9577 13.1145C24.9577 13.1145 24.8104 12.8849 25.0184 12.509L24.9024 12.2313C24.9024 12.2313 24.7183 12.6368 24.7312 12.834C24.7312 12.834 24.617 12.5766 24.8785 12.159L24.8058 11.8702C24.7094 12.0451 24.6361 12.2318 24.5876 12.4257C24.5876 12.4257 24.5323 12.1637 24.7874 11.7831L24.7607 11.585C24.7607 11.585 24.6318 11.8331 24.6014 11.9081C24.571 11.9831 24.548 11.9803 24.548 11.9803C24.5692 11.8052 24.6384 11.6395 24.7478 11.5017C24.7478 11.5017 24.722 11.0869 24.6934 11.086Z" fill="#715AFF"/>
<path opacity="0.1" d="M47.7422 25.1855C47.7422 25.1855 48.3213 27.315 49.6948 26.5743C49.7729 26.5619 49.845 26.5249 49.9009 26.4687C49.9568 26.4124 49.9936 26.3399 50.006 26.2614C50.006 26.2614 49.8973 26.2938 49.8624 26.0707C49.8499 25.9915 49.8279 25.9141 49.797 25.8401C49.7554 25.7401 49.6827 25.6563 49.5899 25.6012C49.5899 25.6012 49.1507 25.0967 48.1169 25.1929C48.1169 25.1929 47.8517 25.0948 47.8002 25.1198L48.069 25.4216C48.069 25.4216 48.2807 25.2152 48.5229 25.2365C48.5229 25.2365 48.0727 25.4022 48.1068 25.4661C48.1132 25.479 48.2559 25.6198 48.2559 25.6198C48.2559 25.6198 48.6241 25.2624 48.9997 25.3096C48.9997 25.3096 48.4373 25.4355 48.3093 25.6735L48.5376 25.8735C48.5376 25.8735 48.9114 25.4753 49.3376 25.5133C49.3376 25.5133 48.7539 25.6651 48.5901 25.9133L48.8405 26.079C48.8405 26.079 49.2087 25.6985 49.5668 25.7318C49.5668 25.7318 48.9104 25.9762 48.9003 26.1123C49.0009 26.1733 49.1085 26.2218 49.2207 26.2568C49.2207 26.2568 49.4969 25.9901 49.6976 26.0281C49.6976 26.0281 49.2759 26.2373 49.2907 26.2873C49.2907 26.2873 49.6488 26.3799 49.8568 26.3355C49.6682 26.3892 49.4688 26.392 49.2787 26.3438C49.3379 26.4497 49.4265 26.5359 49.5337 26.5919C49.5337 26.5919 49.3164 26.6317 49.1912 26.3197C49.1912 26.3197 48.915 26.2336 48.8865 26.1947C48.8865 26.1947 48.9666 26.5197 49.1167 26.6827C49.1167 26.6827 48.8644 26.5808 48.8193 26.1531L48.5661 25.9947C48.5661 25.9947 48.649 26.4308 48.7714 26.5864C48.7714 26.5864 48.5302 26.4419 48.5045 25.9494L48.2789 25.7568C48.3013 25.9566 48.3493 26.1526 48.4216 26.3401C48.4216 26.3401 48.2264 26.1549 48.2172 25.6985L48.081 25.5522C48.081 25.5522 48.1178 25.8299 48.1362 25.9086C48.1546 25.9873 48.1362 26.0012 48.1362 26.0012C48.0531 25.8457 48.0145 25.6701 48.0248 25.4939C48.0248 25.4939 47.7634 25.1707 47.7422 25.1855Z" fill="#715AFF"/>
<path d="M75.0737 37.1976C75.2744 37.431 75.496 37.6454 75.7356 37.8383L77.5289 39.3752C77.8484 39.6484 78.1734 39.9308 78.5784 40.0595C78.8181 40.1352 79.0719 40.1547 79.3202 40.1163C79.5686 40.078 79.8049 39.9828 80.0109 39.8382L79.9805 39.828L80.0109 39.8076C79.708 39.7095 79.3978 39.6076 79.1483 39.4104C79.0455 39.333 78.9591 39.2359 78.894 39.1246C78.8289 39.0134 78.7864 38.8902 78.769 38.7623C78.769 38.7493 78.769 38.7373 78.769 38.7243C78.7697 38.6893 78.7731 38.6543 78.7791 38.6197C79.1655 38.5866 79.5372 38.455 79.859 38.2373L79.8277 38.2262L79.859 38.2068C78.9034 37.8985 78.2415 36.9967 77.9414 36.0421C77.6413 35.0875 77.6403 34.0709 77.6081 33.0719C77.5759 32.0729 77.5022 31.0461 77.0732 30.1425C76.9121 29.8036 76.705 29.4814 76.6267 29.1147C76.6052 29.0059 76.595 28.8952 76.5964 28.7842C76.6028 28.4278 76.7059 28.0694 76.8007 27.7213C77.0115 26.9438 77.1799 26.1554 77.3052 25.3594C77.3546 25.0765 77.382 24.7902 77.3872 24.503C77.3958 24.2227 77.3511 23.9433 77.2555 23.6799C76.8339 22.5781 75.3683 22.0587 75.1446 20.9023C75.1183 20.7466 75.1072 20.5888 75.1114 20.431C75.1114 20.344 75.1114 20.2579 75.1114 20.1718C75.1114 20.0857 75.1114 19.9866 75.104 19.9014C75.0405 19.0876 74.5397 18.3811 74.0564 17.721C73.4746 16.9266 72.8596 16.1007 71.9657 15.6776C71.2716 15.3471 70.3436 15.2378 69.516 15.3119C69.1446 14.9896 68.7374 14.7116 68.3026 14.4832C67.6701 14.1295 67.0137 13.7814 66.3132 13.7036C65.4248 13.6055 64.5465 13.9481 63.6554 14.0055C62.4438 14.0842 61.2544 13.6351 60.0429 13.5425C58.8314 13.45 57.4366 13.8601 56.8953 15.0869C56.7684 15.3848 56.6913 15.7017 56.667 16.0248C56.6615 16.0868 56.6578 16.1479 56.655 16.21V16.2165C56.646 16.467 56.6531 16.7178 56.6762 16.9673V16.996C56.6762 17.046 56.6854 17.096 56.691 17.146C56.691 17.1608 56.691 17.1747 56.6956 17.1895C56.6956 17.2358 56.7057 17.2821 56.7112 17.3284L56.7167 17.3719C56.7241 17.4303 56.7324 17.4886 56.7397 17.5469C56.7537 17.667 56.7793 17.7855 56.8162 17.9006C56.8387 17.9671 56.8717 18.0296 56.9137 18.0858C57.0454 18.2543 57.2433 18.3043 57.4477 18.3358L57.6088 18.3589C57.5922 18.3923 57.5747 18.4256 57.5591 18.4598C57.1937 19.2344 57.005 20.0812 57.0067 20.9384C57.0067 23.8512 59.1508 26.2658 61.9522 26.7047L62.1207 26.9158C63.1536 28.2176 64.4498 29.9554 65.0667 31.2063C64.3541 32.096 63.52 33.6737 63.2825 36.3199L62.9299 37.1476C62.1907 38.217 62.0001 39.7595 62.1907 41.1946C61.9826 41.9704 61.7451 42.9454 61.5803 43.7518C60.355 43.4787 56.1726 42.8028 55.1839 42.1464L52.284 40.7724C52.284 40.7724 48.5095 38.1207 46.4786 39.0058C45.7026 38.0466 44.5316 37.042 44.0271 36.6624C43.1617 36.0097 41.0093 33.4599 41.0093 33.4599L37.6371 28.9583C37.6279 28.437 37.5727 27.9917 37.4309 27.8C37.0332 27.2649 34.9278 26.077 34.507 26.3334C34.0863 26.5899 33.7347 25.7779 33.7347 25.7779L33.7024 25.7603C33.6233 25.714 33.3986 25.5863 33.0865 25.4178C33.0701 25.042 33.0794 24.6655 33.1142 24.291C33.1206 24.228 33.1289 24.165 33.1381 24.1058C34.2559 24.0652 35.3299 23.6585 36.1967 22.9475C37.0635 22.2365 37.6757 21.2602 37.94 20.1671C37.9547 20.1088 37.9648 20.0486 37.9768 19.9894C38.1277 20.0246 38.2851 20.0203 38.4339 19.9769C38.5827 19.9334 38.7179 19.8523 38.8265 19.7412C39.1211 19.4227 39.134 18.933 39.0401 18.5108C38.9462 18.0886 38.7639 17.684 38.7179 17.2525C38.6599 16.6646 38.8661 16.0489 38.6765 15.4934C38.5172 15.0193 38.0974 14.6749 37.65 14.4499C37.2026 14.2249 36.7128 14.0934 36.2553 13.8888C35.8189 13.6944 35.4129 13.4333 34.96 13.2796C34.3726 13.0805 33.7411 13.0731 33.1188 13.0879C32.7284 12.9296 32.3307 12.7787 31.9128 12.7315C31.4525 12.6787 30.9461 12.7685 30.5954 13.0768C30.3192 13.3231 30.0946 13.7185 29.7199 13.7314C29.5358 13.7379 29.37 13.6462 29.2062 13.5675C28.7413 13.3435 28.153 13.2166 27.7332 13.5138C27.3963 13.7509 27.2729 14.187 27.2149 14.5934C27.1569 14.9999 27.1468 15.4267 26.9516 15.7906C26.831 16.0146 26.6478 16.197 26.4959 16.4007C26.1114 16.9178 25.9301 17.5593 25.9868 18.2024V18.221C25.9647 18.1284 25.9435 18.0423 25.9279 17.9515C25.9279 18.0201 25.9279 18.0876 25.9371 18.1562C25.9771 18.4738 26.0458 18.7871 26.1424 19.0922L26.5235 20.4347C26.7169 21.1162 26.9148 21.8078 27.283 22.4142C27.4267 22.6532 27.6002 22.8725 27.7995 23.067C28.1133 23.3984 28.5148 23.6326 28.9567 23.7419C29.1119 23.7769 29.2716 23.7866 29.4299 23.7706C29.4299 23.7901 29.4253 23.8086 29.4216 23.828C29.3875 23.8216 29.3526 23.8141 29.3203 23.8095C29.1708 23.7782 29.016 23.7823 28.8683 23.8216C28.141 24.0817 27.9201 24.8733 27.8556 25.1844C27.8409 25.2641 27.8363 25.3122 27.8363 25.3122C27.8363 25.3122 27.8483 25.3585 27.8621 25.4372L27.8556 25.464C27.8409 25.5427 27.8363 25.5918 27.8363 25.5918C27.8363 25.5918 27.8483 25.6381 27.8621 25.7187L27.6724 25.7233L24.5009 26.1399C23.7764 26.0899 23.0869 26.0779 22.7177 26.1668C22.6865 26.1737 22.6557 26.1827 22.6257 26.1936C22.1654 26.3538 20.0562 27.8176 18.1635 29.1647C18.1635 29.1277 18.1635 29.0916 18.158 29.0564L17.6194 29.4416C17.6194 29.4777 17.6194 29.5156 17.6194 29.5536C17.485 29.6462 17.3515 29.7443 17.2226 29.8379C16.6435 30.2545 16.1179 30.6304 15.7266 30.9183C15.2497 31.2628 14.9542 31.4803 14.9542 31.4803C14.9542 31.4803 14.7793 31.5377 14.6633 31.809C14.5142 32.1562 14.4626 32.8543 15.0012 34.2283C15.9605 36.6735 16.1704 38.3272 16.1704 38.3272C15.9101 38.3545 15.6547 38.4168 15.4109 38.5123C15.0785 38.6457 14.7314 38.8716 14.5869 39.253C14.4941 39.5194 14.4919 39.8092 14.5805 40.077C15.0242 41.6603 22.3697 50.6505 22.3697 50.6505L22.4618 50.6588C22.8385 50.6922 23.2174 50.6922 23.5941 50.6588C23.9375 50.6227 24.2588 50.5403 24.4061 50.3662C24.4061 50.3662 26.0347 52.4689 28.4264 51.0366C28.4098 52.9439 28.362 54.3428 28.663 55.0474C29.1316 56.1418 29.1316 58.6333 29.1316 58.6333L29.5772 58.6491C29.5532 58.7417 29.5265 58.8342 29.498 58.9268C29.2927 59.6092 28.9898 60.4341 28.6695 60.6313C28.13 60.9647 28.3859 66.6939 28.408 67.1884C28.408 67.2078 28.408 67.218 28.408 67.218L28.3767 69.5327V69.7178C28.3098 69.6274 28.2498 69.5321 28.1972 69.4327C28.1972 69.4327 27.33 70.2659 27.3143 72.0251C27.2987 73.7842 27.33 73.8435 27.33 73.8435C27.33 73.8435 30.8283 73.7074 31.4847 73.95C32.1411 74.1926 37.6307 73.7389 37.6307 73.7389C37.6307 73.7389 37.8341 73.2074 37.2486 72.7991C38.1821 72.7315 39.2003 72.5519 39.7969 72.1168C41.1087 71.164 37.1501 70.4215 36.8739 70.2706C36.5977 70.1197 35.2297 68.9058 34.6645 68.4512C34.4936 68.3258 34.2916 68.2501 34.0808 68.2327L34.1517 66.1579C34.994 65.2033 35.9064 59.9397 35.9064 59.9397C36.2046 59.6897 36.3345 59.0814 36.3878 58.7102C36.4968 58.6738 36.5921 58.6047 36.6607 58.5121C36.7294 58.4196 36.7682 58.308 36.7717 58.1926C37.7356 58.225 38.9481 58.2176 39.181 57.9852C39.5787 57.5889 39.5317 56.2381 39.5317 56.2381L38.9702 41.939L38.9333 41.8843C39.0262 41.2298 39.028 40.5654 38.9389 39.9104C40.2001 40.2724 41.1815 40.5187 41.1815 40.5187C41.1815 40.5187 43.0798 40.8705 44.4119 41.1668C44.1938 41.3997 44.0292 41.6778 43.9295 41.9816C42.7327 45.4073 49.5203 45.2656 49.5203 45.2656L52.725 46.7563L60.2684 49.2357C57.8445 48.5163 55.0753 47.6701 53.1908 47.0896C53.0052 47.0325 52.8165 46.9864 52.6255 46.9516C50.8966 46.6368 49.1005 47.2701 47.9995 48.6673C47.9866 48.6849 47.9746 48.7006 47.9608 48.7173C47.6972 49.0622 47.5503 49.483 47.5416 49.9181C47.533 50.3531 47.6631 50.7794 47.9129 51.1347C48.2011 51.5449 48.5868 52.0902 49.0389 52.7244C48.0823 53.0151 46.4998 53.8253 47.4618 55.9085C48.7949 58.7963 52.3733 60.4452 52.3733 60.4452C52.3733 60.4452 54.7126 61.1211 55.3192 61.8665C55.4896 62.0757 56.1478 62.5396 57.0086 63.0988C57.5609 63.6867 57.9936 64.071 58.2505 64.1561C59.276 64.4959 61.2728 66.1264 62.6777 67.3495L62.4669 70.2715L62.453 70.4474L62.3665 70.3733C62.3665 70.3733 61.7451 71.6696 59.9444 72.1038C59.5832 72.1855 59.2633 72.3952 59.0431 72.6945L59.0367 72.7028L58.9833 72.7806L58.9428 72.7501C58.5745 73.2713 58.4033 74.0305 59.7934 74.2398C61.9688 74.5657 64.3965 74.1 64.3965 74.1L66.5654 72.0834C66.8064 72.2874 67.0894 72.4351 67.394 72.5158C69.0151 72.8862 73.5685 74.6583 73.5685 74.6583C73.5685 74.1611 77.5925 67.7652 77.5925 67.7652C83.024 57.4251 77.1174 49.6978 76.4647 48.8932L76.4067 48.8228L76.3561 47.9636L76.345 47.7664C76.345 47.7664 79.2763 46.4628 78.1531 45.8424C77.03 45.2221 76.4039 42.2399 75.3462 40.9983C74.5176 40.0298 74.5655 37.7818 74.478 35.8662C74.573 36.3392 74.777 36.7831 75.0737 37.1624C75.0801 37.1707 75.0875 37.1772 75.0939 37.1856L75.0157 37.117C75.035 37.1467 75.0534 37.1726 75.0737 37.1976ZM38.9554 36.4032C39.3329 36.8115 39.992 37.3337 40.4284 37.6652C39.9055 37.4087 39.4986 37.192 39.1847 37.017C39.111 36.8115 39.0337 36.606 38.9554 36.4032ZM27.7894 26.714C27.6992 26.9858 27.5349 27.2267 27.3152 27.4093L27.1311 26.6103C27.3723 26.6492 27.597 26.6853 27.7894 26.714ZM64.5843 48.6673C64.657 48.5099 64.7325 48.3552 64.8089 48.2043C65.1317 48.0987 65.4164 47.8997 65.6273 47.6321C65.7877 48.1922 65.9065 48.7635 65.9827 49.3413C65.9827 49.3681 65.9827 49.383 65.9827 49.383C65.9787 49.6159 65.9437 49.8473 65.8786 50.0709C65.7939 50.3412 65.6393 50.5958 65.3585 50.6264C65.2416 50.6384 64.6662 50.4986 63.8054 50.2625C63.5559 50.194 63.2816 50.1172 62.9888 50.0338C63.4482 50.0033 64.0871 49.7431 64.5843 48.6673ZM71.788 29.1314C71.6159 28.8537 71.2568 28.6759 70.8177 28.5713C70.7376 28.5176 70.6133 28.4324 70.455 28.3166C69.6817 27.7472 68.1378 26.4649 67.4299 24.827C67.6272 24.7717 67.8199 24.7008 68.0062 24.615C68.2953 24.4817 68.5684 24.3155 68.82 24.1197C68.9047 24.053 68.9875 23.9836 69.0667 23.9114C69.2696 23.7273 69.4545 23.5243 69.6191 23.3049C69.6844 23.2123 69.7479 23.1244 69.8032 23.0272C69.8935 22.8846 69.9752 22.7369 70.0481 22.5846C70.2157 22.2291 70.345 21.8567 70.4338 21.4735C70.4697 21.3199 70.501 21.1634 70.5259 21.006C70.5507 20.8486 70.5747 20.6903 70.5921 20.531C70.6493 19.9691 70.6712 19.4041 70.6575 18.8394C70.6575 18.8126 70.6575 18.7848 70.6575 18.758C70.6575 18.7478 70.6575 18.7376 70.6575 18.7283C70.6549 18.1559 70.5931 17.5853 70.4734 17.0257C70.5148 17.0414 70.5562 17.0571 70.5958 17.0757C70.6624 17.1085 70.7258 17.1472 70.7855 17.1914C70.7707 17.1701 70.7542 17.1488 70.7385 17.1275C71.0055 17.3016 71.2043 17.5729 71.3829 17.8432C72.2011 19.126 72.7236 20.5765 72.9122 22.0887C73.1008 23.6008 72.9507 25.1362 72.4729 26.5825C72.3385 26.9797 72.1774 27.375 72.1415 27.7926C72.0117 29.2842 73.4304 30.4221 73.9579 31.8238C74.2221 32.5266 74.2635 33.3052 74.2985 34.0756C73.9008 32.1247 72.4472 30.2045 71.7908 29.1351L71.788 29.1314Z" fill="url(#paint0_linear)"/>
<path d="M36.5982 58.6261C36.5982 58.6261 36.5292 59.7834 36.0919 60.1538C36.0919 60.1538 35.1943 65.3849 34.3658 66.3339L34.2277 66.8663L30.7754 66.4728L31.4658 61.8435L32.1103 57.5845L36.5982 58.6261Z" fill="#FFC1C8"/>
<path opacity="0.03" d="M36.5982 58.6261C36.5982 58.6261 36.5292 59.7834 36.0919 60.1538C36.0919 60.1538 35.1943 65.3849 34.3658 66.3339L34.2277 66.8663L30.7754 66.4728L31.4658 61.8435L32.1103 57.5845L36.5982 58.6261Z" fill="black"/>
<path d="M32.879 66.399L34.3667 66.3333L34.2876 68.6887L33.1488 69.4562L31.0977 69.0044L31.8461 65.8564L32.879 66.399Z" fill="#FF748F"/>
<path opacity="0.03" d="M32.879 66.399L34.3667 66.3333L34.2876 68.6887L33.1488 69.4562L31.0977 69.0044L31.8461 65.8564L32.879 66.399Z" fill="black"/>
<path d="M33.1481 68.5077C33.1481 68.5077 34.3163 68.1614 34.8705 68.6132C35.4247 69.0651 36.7725 70.2696 37.0422 70.4205C37.312 70.5714 41.2016 71.3094 39.9173 72.2574C38.6331 73.2055 35.3354 72.9352 35.3354 72.9352C35.3354 72.9352 33.1784 72.3019 33.1186 72.2723C33.0588 72.2426 31.7377 71.5945 31.6963 71.5492C31.6548 71.5038 32.07 68.4938 32.07 68.4938L33.1481 68.5077Z" fill="#5D618C"/>
<path opacity="0.03" d="M33.1481 68.5077C33.1481 68.5077 34.3163 68.1614 34.8705 68.6132C35.4247 69.0651 36.7725 70.2696 37.0422 70.4205C37.312 70.5714 41.2016 71.3094 39.9173 72.2574C38.6331 73.2055 35.3354 72.9352 35.3354 72.9352C35.3354 72.9352 33.1784 72.3019 33.1186 72.2723C33.0588 72.2426 31.7377 71.5945 31.6963 71.5492C31.6548 71.5038 32.07 68.4938 32.07 68.4938L33.1481 68.5077Z" fill="black"/>
<path d="M29.7632 37.2152L29.6941 41.5186L29.5376 50.6986L29.4456 50.7792C26.7068 53.1633 24.7735 50.6403 24.7735 50.6403C24.628 50.8134 24.3132 50.8958 23.9744 50.931C23.6038 50.9644 23.231 50.9644 22.8605 50.931L22.7684 50.9227C22.7684 50.9227 15.5398 41.9816 15.1025 40.4076C15.0158 40.1414 15.018 39.8539 15.1089 39.5891C15.2516 39.2132 15.5932 38.9892 15.92 38.8568C16.1598 38.7615 16.4112 38.6992 16.6675 38.6716C16.6675 38.6716 16.4604 37.0282 15.5168 34.5978C14.9865 33.2321 15.0381 32.5386 15.1844 32.1905C15.2986 31.9211 15.4707 31.8637 15.4707 31.8637C15.4707 31.8637 15.7617 31.6479 16.2302 31.3082C16.6197 31.0221 17.1324 30.648 17.7032 30.2341L18.2326 29.8527C20.1852 28.4435 22.5383 26.7844 23.0197 26.6121C23.0498 26.6011 23.0805 26.5921 23.1118 26.5853C24.0996 26.3455 27.4147 26.8436 27.4147 26.8436L29.7632 37.2152Z" fill="#715AFF"/>
<path opacity="0.1" d="M29.7637 37.2153L29.6946 41.5187C26.42 40.5475 23.3756 34.1118 22.9742 33.6044C22.6308 33.1637 22.9834 28.2557 23.1132 26.5872C24.101 26.3474 27.4161 26.8456 27.4161 26.8456L29.7637 37.2153Z" fill="black"/>
<path d="M67.3482 28.834C67.3482 28.834 64.7935 30.1534 64.4713 35.3383C64.4713 35.3383 64.057 37.977 63.8269 38.4399C63.5967 38.9029 62.492 43.2776 62.6301 43.81C62.6301 43.81 62.3999 44.3423 61.5484 44.1109C60.6968 43.8794 56.0938 43.1619 55.0581 42.4675L52.2042 41.1018C52.2042 41.1018 46.6345 37.1437 45.4607 40.5463C44.287 43.9488 50.9614 43.8118 50.9614 43.8118L54.1145 45.2932L63.6658 48.4625C63.6658 48.4625 64.9316 49.0411 65.7832 47.1894C66.328 46.0229 66.975 44.9074 67.7165 43.8563C67.7165 43.8563 69.6497 38.3936 69.6267 37.4678C69.6037 36.5419 71.6981 34.343 71.6981 34.343C71.6981 34.343 72.1124 28.51 68.7061 28.6257L67.3482 28.834Z" fill="#FFC1C7"/>
<path opacity="0.03" d="M67.3482 28.834C67.3482 28.834 64.7935 30.1534 64.4713 35.3383C64.4713 35.3383 64.057 37.977 63.8269 38.4399C63.5967 38.9029 62.492 43.2776 62.6301 43.81C62.6301 43.81 62.3999 44.3423 61.5484 44.1109C60.6968 43.8794 56.0938 43.1619 55.0581 42.4675L52.2042 41.1018C52.2042 41.1018 46.6345 37.1437 45.4607 40.5463C44.287 43.9488 50.9614 43.8118 50.9614 43.8118L54.1145 45.2932L63.6658 48.4625C63.6658 48.4625 64.9316 49.0411 65.7832 47.1894C66.328 46.0229 66.975 44.9074 67.7165 43.8563C67.7165 43.8563 69.6497 38.3936 69.6267 37.4678C69.6037 36.5419 71.6981 34.343 71.6981 34.343C71.6981 34.343 72.1124 28.51 68.7061 28.6257L67.3482 28.834Z" fill="black"/>
<path d="M40.3278 33.3379C40.4658 33.4999 41.1103 33.8342 41.1103 33.8342C41.1103 33.8342 43.2277 36.3683 44.0792 37.0164C44.9308 37.6645 47.7156 40.1412 47.1522 41.0791C46.5888 42.017 45.9554 41.8077 45.9554 41.8077L40.9722 38.3357C40.9722 38.3357 39.223 37.0747 38.8668 36.4729C38.5105 35.8711 38.0723 34.611 38.0723 34.611L40.3278 33.3379Z" fill="#FFC1C8"/>
<path opacity="0.03" d="M40.3278 33.3379C40.4658 33.4999 41.1103 33.8342 41.1103 33.8342C41.1103 33.8342 43.2277 36.3683 44.0792 37.0164C44.9308 37.6645 47.7156 40.1412 47.1522 41.0791C46.5888 42.017 45.9554 41.8077 45.9554 41.8077L40.9722 38.3357C40.9722 38.3357 39.223 37.0747 38.8668 36.4729C38.5105 35.8711 38.0723 34.611 38.0723 34.611L40.3278 33.3379Z" fill="black"/>
<path d="M37.5313 29.0093L41.1097 33.8349L37.8876 35.0969L36.5527 31.0573L37.5313 29.0093Z" fill="#DCE6F2"/>
<path opacity="0.03" d="M37.5313 29.0093L41.1097 33.8349L37.8876 35.0969L36.5527 31.0573L37.5313 29.0093Z" fill="black"/>
<path d="M38.4634 41.312L39.1078 42.261L39.6602 56.4731C39.6602 56.4731 39.7062 57.8157 39.315 58.2091C38.9237 58.6026 35.7246 58.348 35.7246 58.348C35.7246 58.348 35.8397 43.8582 35.8857 43.5804C35.9317 43.3026 38.4634 41.312 38.4634 41.312Z" fill="#575988"/>
<path opacity="0.1" d="M38.4634 41.312L39.1078 42.261L39.6602 56.4731C39.6602 56.4731 39.7062 57.8157 39.315 58.2091C38.9237 58.6026 35.7246 58.348 35.7246 58.348C35.7246 58.348 35.8397 43.8582 35.8857 43.5804C35.9317 43.3026 38.4634 41.312 38.4634 41.312Z" fill="black"/>
<path d="M34.1535 59.2778C33.9439 59.796 33.6978 60.2985 33.417 60.7814C33.417 60.7814 32.8186 64.2154 32.5636 64.5321C32.3795 64.7636 32.2948 66.4912 32.2644 67.3921C32.2533 67.718 32.2487 67.9356 32.2487 67.9356L28.7302 69.6225L28.7145 67.393C28.7145 67.393 28.7145 67.3828 28.7145 67.3634C28.6924 66.8718 28.4383 61.1777 28.9714 60.8462C29.2844 60.6508 29.5826 59.8277 29.7843 59.1528C29.938 58.6315 30.0347 58.1954 30.0347 58.1954C30.0347 58.1954 33.9436 57.9399 34.2695 58.3612C34.3891 58.5112 34.3063 58.876 34.1535 59.2778Z" fill="#FFC1C8"/>
<path opacity="0.1" d="M34.154 59.278C32.5687 59.2447 30.5821 59.1771 29.7793 59.1484C29.933 58.6271 30.0297 58.191 30.0297 58.191C30.0297 58.191 33.9386 57.9355 34.2645 58.3568C34.3897 58.5114 34.3068 58.8762 34.154 59.278Z" fill="black"/>
<path d="M29.5337 38.2107C29.5337 38.2107 28.452 43.9973 28.6592 47.724C28.8663 51.4506 28.4981 54.2032 28.9584 55.293C29.4187 56.3827 29.4187 58.8576 29.4187 58.8576C29.4187 58.8576 35.6788 59.089 36.3232 58.9964C36.9677 58.9039 36.9447 58.4178 36.9447 58.4178C36.9447 58.4178 36.5074 54.5736 36.9216 53.3699C37.3359 52.1663 37.2669 48.486 37.2669 48.486L39.016 42.5604C39.016 42.5604 39.5454 39.8985 38.4406 38.8106C37.3359 37.7227 29.5337 38.2107 29.5337 38.2107Z" fill="#575988"/>
<path d="M66.68 68.7874L66.4039 69.1947L64.6961 71.7501L63.2462 72.1899L62.1645 71.1252L62.2169 70.4224L62.4867 66.7736C62.4867 66.7736 55.7938 62.8136 55.1954 62.0729C54.597 61.3323 52.2955 60.661 52.2955 60.661C52.2955 60.661 48.7742 59.0176 47.4623 56.1474C46.1505 53.2772 49.6488 52.8374 49.6488 52.8374L62.7905 65.4774L66.68 68.7874Z" fill="#FFC1C7"/>
<path opacity="0.1" d="M66.4073 69.1941L64.6996 71.7495L63.2497 72.1893L62.168 71.1245L62.2204 70.4218L63.4108 71.4486L65.6432 68.833L66.4073 69.1941Z" fill="black"/>
<path d="M68.2899 70.2689L64.1242 74.1807C64.1242 74.1807 61.7306 74.6436 59.5902 74.3195C58.2221 74.1122 58.4854 73.3576 58.8454 72.8382L58.8518 72.8289C59.0674 72.5318 59.3827 72.3233 59.7393 72.2419C61.5106 71.8123 62.1219 70.5226 62.1219 70.5226L63.4107 71.6336L65.6432 69.0171L67.2938 69.7967L68.2899 70.2689Z" fill="#575988"/>
<path d="M68.2916 70.3132L64.1258 74.2268C64.1258 74.2268 61.7322 74.6898 59.5918 74.3657C58.2238 74.1583 58.395 73.4037 58.755 72.8843C59.1689 73.2143 59.6657 73.4223 60.1902 73.4852C61.364 73.6009 63.1362 73.4852 63.1362 73.4852L67.2955 69.8438L68.2916 70.3132Z" fill="white"/>
<path d="M33.8996 23.4274C33.5608 23.5978 33.4052 24.1237 33.3426 24.7237C33.2367 25.7477 33.408 26.9809 33.408 26.9809C33.408 26.9809 28.8049 25.7153 29.2965 25.4681C29.5791 25.3264 29.7292 24.295 29.8056 23.446C29.8627 22.8182 29.8793 22.2896 29.8793 22.2896C29.8793 22.2896 34.8202 22.9645 33.8996 23.4274Z" fill="#FFC1C8"/>
<path d="M70.5387 29.0448C70.5387 29.0448 64.9534 34.3528 65.1375 32.8103C65.1633 32.5955 65.0896 32.2983 64.9442 31.9474C64.4277 30.6956 62.9998 28.7522 61.8831 27.331C61.0638 26.2885 60.4102 25.5265 60.4102 25.5265C60.4102 25.5265 67.3469 19.663 66.7946 22.9961C66.6795 23.7561 66.7846 24.5334 67.0975 25.2348C67.7888 26.8718 69.3207 28.1597 70.0858 28.7281C70.3619 28.9328 70.5387 29.0448 70.5387 29.0448Z" fill="#FFC1C7"/>
<path opacity="0.1" d="M66.0278 24.0136C65.9275 24.1386 65.5556 24.5775 65.4451 24.6932C64.3956 25.7922 64.2556 27.3782 62.6216 27.3782C62.3753 27.3784 62.1293 27.3626 61.8851 27.331C61.0657 26.2885 60.4121 25.5265 60.4121 25.5265C60.4121 25.5265 67.3471 19.663 66.7947 22.9961C66.664 23.7868 65.736 23.3211 66.0278 24.0136Z" fill="black"/>
<path d="M68.3905 21.3904C68.3907 22.5381 68.0524 23.6601 67.4185 24.6144C66.7846 25.5688 65.8836 26.3126 64.8293 26.7519C63.7751 27.1912 62.6149 27.3062 61.4957 27.0823C60.3764 26.8585 59.3483 26.3058 58.5414 25.4943C57.7345 24.6827 57.185 23.6488 56.9624 22.5231C56.7398 21.3975 56.8541 20.2307 57.2909 19.1704C57.7277 18.1101 58.4673 17.2039 59.4163 16.5664C60.3652 15.9289 61.4808 15.5887 62.6219 15.5889C63.3803 15.586 64.1317 15.734 64.8329 16.0245C65.5341 16.315 66.1712 16.7423 66.7074 17.2816C67.2437 17.8209 67.6685 18.4616 67.9573 19.1668C68.2462 19.872 68.3934 20.6277 68.3905 21.3904Z" fill="#FFC1C7"/>
<path opacity="0.1" d="M70.5398 29.0445C70.5398 29.0445 64.9545 34.3525 65.1386 32.81C65.1644 32.5952 65.0908 32.298 64.9453 31.9471L65.7527 30.0324C66.7419 29.161 68.0105 28.6777 69.3256 28.6714C69.5648 28.6712 69.8038 28.6876 70.0409 28.7205L70.0869 28.7279C70.3631 28.9325 70.5398 29.0445 70.5398 29.0445Z" fill="black"/>
<path d="M77.1052 67.9314C77.1052 67.9314 73.1466 74.2884 73.1466 74.7829C73.1466 74.7829 68.666 73.0237 67.0706 72.6534C65.4752 72.283 63.9709 68.9193 63.9709 68.9193C63.9709 68.9193 59.7361 64.9066 58.079 64.3511C56.6733 63.8798 49.9178 54.2961 47.9054 51.4046C47.659 51.0508 47.5309 50.6273 47.5395 50.1955C47.5481 49.7636 47.693 49.3456 47.9532 49.002L47.991 48.9529C48.5235 48.2791 49.2288 47.7641 50.0309 47.4636C50.8329 47.1631 51.7013 47.0884 52.5425 47.2475C52.7292 47.282 52.9136 47.3278 53.0948 47.3845C55.9929 48.2854 61.0121 49.8334 63.5438 50.5325C64.3907 50.7667 64.9569 50.9028 65.072 50.8945C65.3481 50.8658 65.5 50.6167 65.5838 50.3436C65.6477 50.1214 65.6821 49.8916 65.686 49.6603C65.686 49.6603 65.686 49.6455 65.686 49.6186C65.6084 49.03 65.4865 48.4481 65.3214 47.878C65.0259 46.8595 64.5141 45.6642 63.6644 45.093C62.9592 44.6199 62.3985 43.5764 62.1048 42.3635C61.7099 40.7257 61.801 38.7767 62.6821 37.5009L63.5336 35.4806L64.9578 32.1012L65.7514 30.218C66.7406 29.3465 68.0092 28.8632 69.3243 28.8569C69.5635 28.8567 69.8025 28.8731 70.0396 28.906C70.6499 28.9912 71.1774 29.1754 71.3975 29.5384C72.0723 30.6494 73.6069 32.6863 73.9135 34.7232C74.2201 36.7602 73.8527 40.0933 74.8958 41.3284C75.9388 42.5635 76.5529 45.5254 77.6576 46.1429C78.7623 46.7605 75.8781 48.0558 75.8781 48.0558L75.8891 48.2511L75.9388 49.1057C75.9388 49.1057 75.9591 49.1289 75.9959 49.1751C76.6385 49.9751 82.4448 57.6552 77.1052 67.9314Z" fill="#FF6584"/>
<path d="M76.0002 49.1746C74.7905 49.4292 72.1447 49.9838 70.9645 50.2273L70.7573 50.2699C70.6883 50.2838 70.6109 50.2967 70.5272 50.3088C69.3414 50.4726 66.7693 50.3921 65.5918 50.3439C65.6557 50.1217 65.6901 49.892 65.694 49.6607C65.694 49.6607 65.694 49.6458 65.694 49.619C66.5897 49.5607 68.7127 49.3903 70.5318 49.0144C70.68 48.9838 70.8264 48.9514 70.9691 48.9218C71.1753 48.8737 71.376 48.8227 71.5675 48.769C73.1988 48.3061 74.9212 48.245 75.8943 48.2543L75.944 49.1088C75.944 49.1088 75.9588 49.1283 76.0002 49.1746Z" fill="#575988"/>
<path d="M70.9607 48.9185V50.2276L70.7536 50.2702C70.6845 50.2841 70.6072 50.2971 70.5234 50.3091V49.0185C70.6717 48.9842 70.818 48.9518 70.9607 48.9185Z" fill="#FF6584"/>
<path opacity="0.1" d="M72.0874 51.4258C72.0874 51.4258 69.6247 57.0967 68.1287 57.6523C66.6328 58.2078 62.9043 60.1752 62.9043 60.1752C62.9043 60.1752 65.0447 62.0733 67.2772 59.9901C69.5097 57.9069 72.7318 52.3517 72.0874 51.4258Z" fill="black"/>
<path opacity="0.1" d="M74.7812 50.6636C74.7812 50.6636 75.0113 52.8162 74.6891 53.2097C74.3669 53.6032 74.7812 50.6636 74.7812 50.6636Z" fill="black"/>
<path opacity="0.1" d="M76.1167 52.0737C76.1167 52.0737 77.3595 65.1748 71.1914 65.2442C71.1914 65.2461 76.9682 59.4807 76.1167 52.0737Z" fill="black"/>
<path opacity="0.1" d="M77.6813 55.2217C77.6813 55.2217 79.4534 62.0963 77.1289 62.8833C77.1289 62.8851 78.3487 59.3205 77.6813 55.2217Z" fill="black"/>
<path opacity="0.1" d="M66.6563 53.4624C66.5413 53.4624 61.8692 54.2725 62.8819 54.9206C63.8945 55.5687 66.6563 53.4624 66.6563 53.4624Z" fill="black"/>
<path opacity="0.1" d="M69.8789 44.1826C69.8789 44.1826 73.6994 47.5852 72.9629 47.9555L69.8789 44.1826Z" fill="black"/>
<path opacity="0.1" d="M69.5566 45.2705C69.5566 45.2705 71.7661 48.0018 71.5129 48.1639L69.5566 45.2705Z" fill="black"/>
<path opacity="0.1" d="M74.2754 44.8521C74.2754 44.8521 75.2881 46.1251 75.127 46.4029L74.2754 44.8521Z" fill="black"/>
<path opacity="0.1" d="M75.2871 44.1826C75.2871 44.1826 76.7371 45.3149 76.4149 45.7566L75.2871 44.1826Z" fill="black"/>
<path d="M67.2331 30.3867C67.2331 30.3867 71.9512 30.7571 71.744 34.5763C71.5369 38.3955 68.0156 39.3677 68.0156 39.3677L63.4355 38.0483C63.4355 38.0483 65.4839 30.6413 67.2331 30.3867Z" fill="#FFC1C7"/>
<path opacity="0.1" d="M53.099 47.3841C55.9971 48.285 61.0162 49.833 63.5479 50.5321C63.382 50.6171 63.2002 50.6664 63.0143 50.6767C62.8283 50.6871 62.6423 50.6583 62.468 50.5922L52.9167 47.423L52.543 47.2471C52.7309 47.2815 52.9166 47.3272 53.099 47.3841Z" fill="black"/>
<path opacity="0.1" d="M69.2624 37.9436C68.8141 38.5455 68.4191 39.1936 68.4338 39.5991C68.4412 39.8907 68.2497 40.6342 67.9938 41.5147C67.3345 43.7262 66.4394 45.8594 65.324 47.8773C65.0285 46.8588 64.5167 45.6635 63.6669 45.0923C62.9617 44.6192 62.4011 43.5757 62.1074 42.3628C62.3311 41.4851 62.5438 40.7472 62.6312 40.5713C62.8614 40.1083 63.2757 37.4696 63.2757 37.4696C63.3146 36.8009 63.4017 36.1359 63.5362 35.4799C63.8704 33.8754 64.4384 32.7949 64.9604 32.1005C65.5901 31.2561 66.1572 30.9654 66.1572 30.9654L67.5151 30.7571C69.0801 30.7043 69.835 31.9014 70.1987 33.2134C70.6442 34.8438 70.2714 36.5882 69.2624 37.9436Z" fill="black"/>
<path d="M65.8736 30.5937C65.8736 30.5937 63.3189 31.913 62.9967 37.0979C62.9967 37.0979 62.5824 39.7366 62.3523 40.1996C62.1221 40.6625 61.0174 45.0372 61.1555 45.5696C61.1555 45.5696 60.9253 46.102 60.0738 45.8705C59.2222 45.639 54.6192 44.9215 53.5835 44.2271L50.7296 42.8614C50.7296 42.8614 45.1599 38.9033 43.9861 42.3059C42.8124 45.7085 49.4868 45.5715 49.4868 45.5715L52.6399 47.0528L62.1912 50.2221C62.1912 50.2221 63.457 50.8008 64.3086 48.949C64.5212 48.4861 64.7486 48.0463 64.9705 47.6463C66.1194 45.5882 67.0397 43.4091 67.7148 41.1486C67.9754 40.2681 68.1622 39.5246 68.1549 39.233C68.1448 38.8274 68.5406 38.1784 68.9834 37.5775C69.9961 36.222 70.3643 34.4777 69.9132 32.8463C69.5496 31.5343 68.791 30.3372 67.2297 30.3909L65.8736 30.5937Z" fill="#FFC1C7"/>
<path opacity="0.1" d="M33.8986 23.4272C33.5599 23.5976 33.4043 24.1235 33.3417 24.7235C33.2818 24.7235 33.222 24.7235 33.1622 24.7235C31.9245 24.7258 30.7292 24.2696 29.8047 23.4421C29.8618 22.8143 29.8783 22.2856 29.8783 22.2856C29.8783 22.2856 34.8193 22.9643 33.8986 23.4272Z" fill="black"/>
<path d="M38.2263 19.4458C38.2263 20.453 37.9293 21.4375 37.373 22.2749C36.8166 23.1123 36.0258 23.765 35.1006 24.1504C34.1754 24.5359 33.1573 24.6367 32.1751 24.4402C31.193 24.2437 30.2908 23.7587 29.5826 23.0466C28.8745 22.3344 28.3923 21.4271 28.1969 20.4392C28.0015 19.4514 28.1018 18.4276 28.485 17.4971C28.8683 16.5666 29.5173 15.7713 30.3499 15.2117C31.1826 14.6522 32.1615 14.3535 33.163 14.3535C34.5049 14.3565 35.7911 14.8939 36.7401 15.8483C37.689 16.8026 38.2234 18.0961 38.2263 19.4458Z" fill="#FFC1C8"/>
<path opacity="0.1" d="M39.9352 39.3893C39.9352 39.3893 37.2884 40.454 36.4599 40.8244C35.6313 41.1947 30.8902 40.3383 30.8902 40.3383C30.8902 40.3383 28.4275 39.0883 28.6347 37.8384C28.8418 36.5885 26.6554 32.4934 26.6554 32.4934C26.6554 32.4934 26.5863 28.8593 27.553 28.1649C28.5196 27.4705 28.1514 26.0123 28.1514 26.0123C28.1514 26.0123 28.156 25.9641 28.1707 25.8854C28.2305 25.5762 28.4469 24.7892 29.164 24.5309C29.3092 24.4916 29.4616 24.4875 29.6087 24.5189C30.2964 24.6235 31.426 25.1383 32.3604 25.6132C33.1337 26.0067 33.7735 26.3725 33.9199 26.4576L33.9512 26.4752C33.9512 26.4752 34.2964 27.2854 34.7107 27.0307C35.125 26.7761 37.1964 27.9566 37.5876 28.489C37.9789 29.0214 37.7027 31.5212 37.6336 32.1462C37.5646 32.7711 38.0249 34.6229 38.5312 35.6858C39.0376 36.7487 39.9352 39.3893 39.9352 39.3893Z" fill="black"/>
<path d="M39.9352 39.1114C39.9352 39.1114 37.2884 40.1762 36.4599 40.5465C35.6313 40.9169 30.8902 40.0604 30.8902 40.0604C30.8902 40.0604 28.4275 38.8105 28.6347 37.5606C28.8418 36.3107 26.6554 32.2155 26.6554 32.2155C26.6554 32.2155 26.5863 28.5815 27.553 27.8871C28.5196 27.1927 28.1514 25.7345 28.1514 25.7345C28.1514 25.7345 28.156 25.6863 28.1707 25.6076C28.2305 25.2984 28.4469 24.5114 29.164 24.2531C29.3092 24.2138 29.4616 24.2097 29.6087 24.241C30.2964 24.3457 31.426 24.8604 32.3604 25.3354C33.1337 25.7289 33.7735 26.0946 33.9199 26.1798L33.9512 26.1974C33.9512 26.1974 34.2964 27.0075 34.7107 26.7529C35.125 26.4983 37.1964 27.6788 37.5876 28.2112C37.9789 28.7435 37.7027 31.2434 37.6336 31.8683C37.5646 32.4933 38.0249 34.3451 38.5312 35.4079C39.0376 36.4708 39.9352 39.1114 39.9352 39.1114Z" fill="#DCE6F2"/>
<path d="M31.3679 35.5561C31.3679 35.5561 29.0968 39.2595 28.7285 39.4605L28.8666 40.7567C28.8666 40.7567 32.1044 40.0771 32.3042 39.167C32.5039 38.2568 32.3962 35.5098 32.3962 35.5098L31.3679 35.5561Z" fill="#575988"/>
<path opacity="0.2" d="M31.3679 35.5561C31.3679 35.5561 29.0968 39.2595 28.7285 39.4605L28.8666 40.7567C28.8666 40.7567 32.1044 40.0771 32.3042 39.167C32.5039 38.2568 32.3962 35.5098 32.3962 35.5098L31.3679 35.5561Z" fill="black"/>
<path opacity="0.1" d="M34.5625 30.8379C34.5625 30.8379 34.9648 32.4008 35.5982 32.9331C36.2316 33.4655 34.5625 30.8379 34.5625 30.8379Z" fill="black"/>
<path d="M30.6152 34.9585C30.6732 35.0631 32.6176 37.7249 34.6659 38.7082C36.7143 39.6915 41.2833 40.8498 41.2833 40.8498C41.2833 40.8498 44.9887 41.5442 45.6212 41.8099C46.2536 42.0756 47.0601 40.884 43.0895 39.1832C39.1189 37.4824 38.3484 36.7296 38.3484 36.7296C38.3484 36.7296 34.8961 35.0381 34.3437 34.2048C33.7913 33.3715 30.6152 34.9585 30.6152 34.9585Z" fill="#FFC1C8"/>
<path opacity="0.1" d="M32.0645 47.9076C32.1335 47.8613 33.7906 46.079 33.9977 46.8429C34.2049 47.6067 32.0645 47.9076 32.0645 47.9076Z" fill="black"/>
<path opacity="0.1" d="M33.0319 44.3892C33.0089 44.4586 32.7788 46.4261 32.1113 46.6575L33.0319 44.3892Z" fill="black"/>
<path opacity="0.1" d="M33.7212 44.9229C33.7212 44.9229 33.1228 47.0292 32.3633 47.1662L33.7212 44.9229Z" fill="black"/>
<path opacity="0.1" d="M30.6836 51.2407C30.6836 51.2407 31.6963 51.2638 31.8344 50.6157L30.6836 51.2407Z" fill="black"/>
<path opacity="0.1" d="M32.0645 55.4551C32.2025 55.4782 34.366 56.867 33.8136 57.1448C33.2612 57.4226 32.0645 55.4551 32.0645 55.4551Z" fill="black"/>
<path opacity="0.1" d="M32.2608 67.1787V67.3926C32.2498 67.7185 32.2452 67.9361 32.2452 67.9361L28.7266 69.623L28.7109 67.3935C28.7109 67.3935 28.7109 67.3833 28.7109 67.3639V67.213L30.1195 67.2583L32.2608 67.1787Z" fill="black"/>
<path d="M32.9183 70.42L29.9834 71.5496L28.666 70.7663L28.6798 69.6941L28.7102 67.3924L30.1187 67.4378L32.2601 67.3628V68.9747L32.9183 70.42Z" fill="#FF748F"/>
<path opacity="0.1" d="M32.9164 70.4209L29.9815 71.5504L28.6641 70.7671L28.6779 69.695C28.869 69.9469 29.1133 70.1532 29.3931 70.2988C29.673 70.4445 29.9814 70.526 30.2963 70.5375C30.2963 70.5375 31.3292 69.2413 31.958 68.8654C32.0027 68.8385 32.0523 68.821 32.1039 68.814C32.1555 68.807 32.208 68.8106 32.2581 68.8247V68.9756L32.9164 70.4209Z" fill="black"/>
<path d="M30.2994 70.7222C30.2994 70.7222 29.1026 70.7379 28.5023 69.5926C28.5023 69.5926 27.6489 70.4213 27.6333 72.1684C27.6176 73.9155 27.6489 73.9757 27.6489 73.9757C27.6489 73.9757 31.0929 73.8405 31.7374 74.0812C32.3818 74.322 37.7876 73.8701 37.7876 73.8701C37.7876 73.8701 38.1466 72.9211 36.5144 72.5897C34.8822 72.2582 33.5344 70.5111 33.4893 70.4361C33.4442 70.3611 32.5908 68.6769 31.962 69.0473C31.3332 69.4176 30.2994 70.7222 30.2994 70.7222Z" fill="#5D618C"/>
<path opacity="0.1" d="M33.4742 13.8208L33.1309 13.7736L33.3454 13.7681L33.4742 13.8208Z" fill="black"/>
<path opacity="0.1" d="M38.2262 19.4459C38.2264 19.8409 38.181 20.2346 38.0909 20.619C38.014 20.5991 37.9405 20.5679 37.8727 20.5264C37.7742 20.4625 37.6757 20.3746 37.5597 20.3848C37.4917 20.3955 37.4279 20.425 37.3756 20.4699C36.8306 20.8708 36.4255 21.5301 35.7626 21.6578C35.8291 21.4627 35.838 21.2524 35.7884 21.0523C35.6478 21.1945 35.4754 21.3006 35.2856 21.3619C35.0957 21.4231 34.8941 21.4376 34.6975 21.4041C34.7454 21.2885 34.751 21.1596 34.7132 21.0403C34.2464 21.3032 33.7604 21.5301 33.2595 21.7189C33.242 21.6264 33.2254 21.5412 33.208 21.4523C32.5028 21.7986 32.558 22.9735 31.8528 23.3198C31.433 23.5262 30.8402 23.3781 30.5502 23.7503C30.5391 23.7651 30.529 23.7799 30.5189 23.7957C29.7653 23.3321 29.1455 22.6784 28.7209 21.8994C28.2964 21.1204 28.0818 20.2432 28.0986 19.355C28.1153 18.4668 28.3628 17.5985 28.8165 16.8362C29.2702 16.074 29.9142 15.4444 30.6847 15.0099C31.4552 14.5755 32.3252 14.3513 33.2085 14.3596C34.0918 14.3679 34.9575 14.6085 35.7197 15.0574C36.482 15.5064 37.1142 16.148 37.5535 16.9187C37.9929 17.6893 38.2242 18.5622 38.2244 19.4506L38.2262 19.4459Z" fill="black"/>
<path d="M33.4733 13.6345C33.048 13.4576 32.6162 13.2799 32.1587 13.2271C31.7012 13.1743 31.2077 13.2641 30.8625 13.5706C30.5863 13.815 30.37 14.2076 30.0017 14.2187C29.8222 14.2252 29.6565 14.1345 29.4954 14.0558C29.0351 13.8335 28.4597 13.7076 28.0445 14.0021C27.7131 14.2382 27.5888 14.6715 27.5345 15.0761C27.4802 15.4807 27.4673 15.9093 27.2758 16.2658C27.157 16.488 26.9766 16.6695 26.8275 16.8723C26.4484 17.3874 26.2702 18.0245 26.3266 18.6629C26.3651 18.9786 26.4323 19.29 26.5273 19.5934L26.9029 20.9276C27.0935 21.6053 27.2878 22.2923 27.6505 22.895C28.0132 23.4978 28.5711 24.0163 29.2523 24.1718C29.6629 24.2644 30.1601 24.1885 30.3902 23.8339C30.4491 23.7413 30.4869 23.6422 30.5513 23.5561C30.8367 23.1858 31.4342 23.333 31.854 23.1265C32.5592 22.7802 32.5039 21.6053 33.2091 21.259L33.2616 21.5247C33.762 21.3356 34.2476 21.1091 34.7143 20.847C34.7519 20.9663 34.7467 21.0951 34.6996 21.2109C34.896 21.2438 35.0974 21.2291 35.287 21.1679C35.4766 21.1067 35.6489 21.0008 35.7896 20.859C35.8392 21.0592 35.8302 21.2694 35.7638 21.4646C36.4266 21.3359 36.8317 20.6767 37.3767 20.2757C37.4294 20.2315 37.493 20.2023 37.5608 20.1915C37.6778 20.1813 37.7753 20.2693 37.8738 20.3322C38.0444 20.4364 38.2451 20.4793 38.4431 20.4539C38.6411 20.4285 38.8247 20.3363 38.9638 20.1924C39.2538 19.8758 39.2667 19.3888 39.1737 18.9684C39.0808 18.5481 38.8976 18.1472 38.858 17.7185C38.8 17.1343 39.0025 16.5241 38.8165 15.9686C38.6591 15.4973 38.2467 15.1557 37.8039 14.9316C37.3611 14.7076 36.8833 14.577 36.4312 14.3761C36.0022 14.1826 35.6027 13.9234 35.1571 13.7706C34.5127 13.5493 33.8121 13.5669 33.1318 13.5854" fill="#794F6A"/>
<path d="M33.5602 30.8803C33.5602 30.8803 34.2967 25.8963 27.9906 26.1426L24.8145 26.5676C24.8145 26.5676 27.8442 27.1157 28.5733 27.1963L28.6506 27.2074C29.3254 27.3314 31.6583 27.1768 33.5602 30.8803Z" fill="#715AFF"/>
<path opacity="0.1" d="M29.5332 50.7561V50.6987C32.1192 48.4498 29.5332 50.7561 29.5332 50.7561Z" fill="black"/>
<path d="M23.9702 50.9308C23.5997 50.9642 23.2269 50.9642 22.8563 50.9308L15.1094 39.5908C15.2521 39.2149 15.5936 38.9908 15.9204 38.8584L23.9702 50.9308Z" fill="#575988"/>
<path d="M18.9472 38.7888L18.5789 39.2285C18.5789 39.2285 15.7858 34.5622 15.1855 32.1919C15.2997 31.9225 15.4719 31.8651 15.4719 31.8651C15.4719 31.8651 15.7628 31.6494 16.2314 31.3096C16.4054 32.4243 16.9991 35.1501 18.9472 38.7888Z" fill="#575988"/>
<path d="M20.9949 37.3525L20.2584 37.7692C18.2478 35.4026 18.0765 31.4269 18.0949 29.8428L18.6252 29.4595C18.697 31.5399 20.9949 37.3525 20.9949 37.3525Z" fill="#575988"/>
<path opacity="0.1" d="M22.927 36.9375C22.904 37.2384 22.0524 40.2938 23.2953 40.803C24.5381 41.3122 22.927 36.9375 22.927 36.9375Z" fill="black"/>
<path opacity="0.1" d="M25.5977 42.1917C25.6437 42.3538 26.058 47.6312 26.9556 47.2146C27.8531 46.7979 27.3698 40.7798 27.3698 40.7798L25.5977 42.1917Z" fill="black"/>
<path opacity="0.1" d="M68.3895 21.3904C68.3914 22.889 67.8144 24.3298 66.7802 25.4087C66.359 25.4985 65.9246 25.506 65.5006 25.4309C65.2838 25.4033 65.0778 25.3201 64.9022 25.1893C64.7332 25.0324 64.6008 24.8399 64.5146 24.6254C64.1786 23.8986 64.0065 23.0589 63.5351 22.4367C63.0638 21.8145 62.1072 21.5414 61.6525 22.1793C61.4048 22.5256 61.3634 23.0579 61.0329 23.2977C60.6361 23.5866 60.1123 23.2468 59.8039 22.8348C58.8925 21.6312 59.2046 19.2647 57.4665 18.9323L57.3965 18.9202C57.9538 17.725 58.8998 16.7566 60.0782 16.175C61.2566 15.5934 62.597 15.4333 63.8781 15.7212C65.1592 16.009 66.3043 16.7277 67.1245 17.7584C67.9447 18.7891 68.3909 20.0703 68.3895 21.3904Z" fill="black"/>
<path d="M57.5586 18.8457C57.2769 18.7911 56.9501 18.7985 56.7613 18.5541C56.6499 18.4096 56.6177 18.2096 56.591 18.0198C56.4778 17.1995 56.4161 16.319 56.7411 15.5755C57.2741 14.3562 58.6458 13.9488 59.838 14.0395C61.0302 14.1302 62.2003 14.5774 63.3925 14.5024C64.2689 14.445 65.1333 14.1043 66.007 14.2015C66.6984 14.2793 67.3428 14.6247 67.9642 14.9774C68.546 15.307 69.1407 15.6616 69.5532 16.2338C70.1589 17.0717 70.2731 18.2291 70.2897 19.3151C70.3099 20.59 70.2206 21.914 69.6885 23.0362C68.917 24.6648 67.1964 25.6342 65.5927 25.3425C65.376 25.3149 65.1699 25.2317 64.9943 25.1009C64.8259 24.9437 64.6938 24.7512 64.6077 24.537C64.2707 23.8093 64.0986 22.9704 63.6272 22.3473C63.1559 21.7242 62.1994 21.4529 61.7446 22.0909C61.4969 22.4362 61.4555 22.9695 61.125 23.2093C60.7282 23.4973 60.2044 23.1575 59.896 22.7464C58.9846 21.5418 59.2967 19.1772 57.5586 18.8457Z" fill="#945B79"/>
<path d="M71.5693 16.1546C72.4466 16.5759 73.0552 17.3962 73.6269 18.186C74.1028 18.8424 74.5953 19.5442 74.658 20.3535C74.6828 20.6849 74.634 21.0219 74.6966 21.3478C74.9166 22.4987 76.3537 23.0144 76.7735 24.1106C76.9687 24.6273 76.907 25.2022 76.8214 25.7485C76.6983 26.5387 76.5327 27.3216 76.3252 28.0937C76.2009 28.5567 76.06 29.0381 76.1549 29.5085C76.2276 29.8732 76.431 30.1936 76.5931 30.5269C77.0156 31.4259 77.0884 32.4453 77.1206 33.4388C77.1528 34.4322 77.1519 35.4433 77.4474 36.3914C77.7429 37.3395 78.3947 38.2357 79.3346 38.5422C79.0189 38.7586 78.653 38.8894 78.2723 38.9218C78.2161 39.2319 78.3919 39.5477 78.6405 39.7439C78.8891 39.9402 79.1929 40.0421 79.4893 40.1393C79.287 40.2828 79.0544 40.3773 78.8097 40.4152C78.5649 40.4531 78.3148 40.4335 78.0789 40.3578C77.6858 40.2282 77.3609 39.9504 77.0469 39.6782L75.2821 38.1514C75.0463 37.9595 74.8285 37.7463 74.6313 37.5144C73.4897 36.0877 74.171 33.9258 73.5339 32.212C73.0147 30.8186 71.619 29.6871 71.747 28.2048C71.782 27.79 71.9403 27.3975 72.0729 27.0012C72.5431 25.5635 72.6908 24.0389 72.5053 22.537C72.3199 21.035 71.8059 19.5931 71.0004 18.3147C70.7988 17.9999 70.5649 17.6833 70.2289 17.5212C69.718 17.2759 68.9879 17.3814 68.6979 16.8916C68.5442 16.6333 68.5138 16.1787 68.5 15.8889C69.4372 15.6732 70.6929 15.7334 71.5693 16.1546Z" fill="#945B79"/>
<path opacity="0.1" d="M26.7363 31.8303C27.1672 28.9823 30.7069 27.9537 32.5859 30.1304C33.1291 30.7618 33.6105 31.4534 33.883 32.1451C34.8036 34.4829 34.8727 34.6912 34.8727 34.6912C34.8727 34.6912 29.1879 35.8023 29.234 36.6355L26.6562 32.4923C26.6562 32.4923 26.6756 32.233 26.7363 31.8303Z" fill="black"/>
<path d="M26.7363 31.5529C27.1672 28.705 30.7069 27.6763 32.5859 29.853C33.1291 30.4845 33.6105 31.1761 33.883 31.8677C34.8036 34.2056 34.8727 34.4139 34.8727 34.4139C34.8727 34.4139 29.1879 35.5249 29.234 36.3582L26.6562 32.2149C26.6562 32.2149 26.6756 31.9557 26.7363 31.5529Z" fill="#DCE6F2"/>
<path opacity="0.1" d="M28.3359 27.8984C28.405 28.0142 31.1208 31.3473 32.5477 31.8223C33.9747 32.2972 28.3359 27.8984 28.3359 27.8984Z" fill="black"/>
<path opacity="0.1" d="M16.668 38.6733C16.668 38.6733 23.8487 47.1914 24.7693 50.6402L16.668 38.6733Z" fill="black"/>
<path opacity="0.1" d="M16.9434 30.8037C16.9434 30.8037 18.5084 38.9514 21.5464 42.3771C24.5844 45.8028 27.7145 51.6358 27.7145 51.6358" stroke="black" stroke-width="2" stroke-miterlimit="10"/>
<g opacity="0.1">
<path opacity="0.1" d="M39.1303 18.9502C39.1365 19.221 39.0434 19.4846 38.8689 19.6909C38.7297 19.8348 38.5461 19.927 38.3481 19.9524C38.1502 19.9778 37.9495 19.9349 37.7789 19.8307C37.6803 19.7677 37.5828 19.6798 37.4658 19.69C37.398 19.7008 37.3344 19.7299 37.2817 19.7742C36.7634 20.1557 36.3712 20.7705 35.7627 20.9399C35.7843 21.1035 35.7679 21.2698 35.7148 21.426C36.3777 21.2973 36.7828 20.6381 37.3278 20.2372C37.3804 20.1929 37.4441 20.1637 37.5119 20.1529C37.6288 20.1427 37.7264 20.2307 37.8249 20.2936C37.9955 20.3978 38.1962 20.4407 38.3942 20.4153C38.5922 20.3899 38.7757 20.2977 38.9149 20.1538C39.1994 19.839 39.2168 19.365 39.1303 18.9502Z" fill="black"/>
<path opacity="0.1" d="M38.7631 17.2132C38.7705 17.2891 38.7835 17.3641 38.7984 17.4391C38.7984 16.9762 38.909 16.4947 38.7984 16.0503C38.8003 16.428 38.7241 16.828 38.7631 17.2132Z" fill="black"/>
<path opacity="0.1" d="M35.6966 20.3539C35.5559 20.4957 35.3836 20.6016 35.194 20.6628C35.0044 20.724 34.803 20.7387 34.6066 20.7057C34.6537 20.5899 34.6589 20.4612 34.6213 20.3419C34.1545 20.6039 33.669 20.8305 33.1686 21.0196L33.1161 20.7539C32.4109 21.1002 32.4661 22.2751 31.761 22.6214C31.3412 22.8278 30.7483 22.6788 30.4583 23.051C30.3939 23.1352 30.3561 23.2361 30.2972 23.3287C30.067 23.6833 29.5699 23.7602 29.1593 23.6667C28.4762 23.5111 27.9193 22.9926 27.5575 22.3899C27.1957 21.7872 27.0005 21.1002 26.8099 20.4224L26.4343 19.0882C26.3726 18.866 26.31 18.6438 26.2695 18.417C26.2695 18.4855 26.2695 18.5531 26.2797 18.6207C26.3181 18.9364 26.3853 19.2478 26.4804 19.5512L26.856 20.8854C27.0465 21.5631 27.2408 22.2501 27.6035 22.8528C27.9662 23.4556 28.5241 23.9741 29.2054 24.1296C29.6159 24.2222 30.1131 24.1463 30.3432 23.7917C30.4021 23.6991 30.4399 23.6 30.5043 23.5139C30.7897 23.1436 31.3872 23.2908 31.807 23.0843C32.5122 22.738 32.4569 21.5631 33.1621 21.2168L33.2146 21.4825C33.714 21.2933 34.1987 21.0667 34.6646 20.8048C34.7022 20.9241 34.697 21.0529 34.6498 21.1687C34.8366 21.1998 35.028 21.1877 35.2095 21.1335C35.391 21.0793 35.5579 20.9843 35.6975 20.8557C35.7368 20.6908 35.7364 20.5187 35.6966 20.3539Z" fill="black"/>
</g>
<path opacity="0.1" d="M33.9213 26.4576C33.426 26.7447 32.2753 27.3835 32.0423 27.2743C31.7938 27.1585 29.0817 26.2039 28.1758 25.8854C28.2356 25.5762 28.452 24.7892 29.1691 24.5309C29.3143 24.4916 29.4667 24.4875 29.6138 24.5189L32.3646 25.6132C33.1351 26.0067 33.7749 26.3725 33.9213 26.4576Z" fill="black"/>
<path d="M33.9213 26.1798C33.426 26.4668 32.2753 27.1057 32.0423 26.9964C31.7938 26.8807 29.0817 25.9261 28.1758 25.6076C28.2356 25.2984 28.452 24.5114 29.1691 24.2531C29.3143 24.2138 29.4667 24.2097 29.6138 24.241L32.3646 25.3354C33.1351 25.7289 33.7749 26.0946 33.9213 26.1798Z" fill="#DCE6F2"/>
<path opacity="0.1" d="M70.2938 19.2053C70.2671 20.2487 70.1263 21.2922 69.6945 22.2041C68.923 23.8328 67.2024 24.8021 65.5987 24.5105C65.3819 24.4829 65.1759 24.3997 65.0003 24.2688C64.8318 24.1117 64.6998 23.9192 64.6136 23.705C64.2767 22.9772 64.1045 22.1384 63.6332 21.5153C63.1618 20.8922 62.2053 20.6209 61.7505 21.2588C61.5029 21.6042 61.4615 22.1375 61.131 22.3773C60.7342 22.6652 60.2104 22.3254 59.902 21.9144C58.9906 20.7107 59.3026 18.3433 57.5645 18.0118C57.2828 17.9572 56.956 17.9646 56.7673 17.7202C56.6559 17.5757 56.6237 17.3757 56.597 17.1859C56.5657 16.9628 56.539 16.735 56.5233 16.5063C56.4913 17.0118 56.516 17.5193 56.597 18.0192C56.6237 18.209 56.6559 18.409 56.7673 18.5534C56.956 18.7979 57.2828 18.7905 57.5645 18.8451C59.3026 19.1766 58.9906 21.5412 59.902 22.7476C60.2094 23.1541 60.7305 23.4939 61.131 23.2106C61.4615 22.9708 61.4992 22.4375 61.7505 22.0921C62.2053 21.4542 63.1618 21.7264 63.6332 22.3486C64.1045 22.9708 64.2776 23.8105 64.6136 24.5383C64.6998 24.7525 64.8318 24.945 65.0003 25.1021C65.1759 25.2329 65.3819 25.3162 65.5987 25.3438C67.2024 25.6354 68.923 24.666 69.6945 23.0374C70.2266 21.9153 70.3159 20.5913 70.2956 19.3164C70.2938 19.2756 70.2938 19.2386 70.2938 19.2053Z" fill="black"/>
<g opacity="0.1">
<path opacity="0.1" d="M76.3138 23.6496C76.509 24.1662 76.4473 24.7412 76.3617 25.2875C76.2385 26.077 76.0729 26.8593 75.8655 27.6308C75.7412 28.0938 75.6003 28.5752 75.6952 29.0456C75.7679 29.4103 75.9713 29.7307 76.1334 30.064C76.5559 30.963 76.6287 31.9824 76.6609 32.9759C76.6931 33.9693 76.6922 34.9804 76.9877 35.9285C77.1791 36.5746 77.545 37.1547 78.0446 37.6043C77.7806 37.2487 77.5789 36.8504 77.448 36.4266C77.1525 35.4785 77.1525 34.4674 77.1212 33.474C77.0899 32.4805 77.0162 31.4611 76.5937 30.5631C76.4353 30.227 76.2254 29.9066 76.1555 29.5446C76.0634 29.0743 76.2015 28.5919 76.3258 28.1289C76.5335 27.3553 76.6991 26.5708 76.822 25.7791C76.9076 25.2328 76.9693 24.6569 76.7741 24.1403C76.6167 23.7264 76.3138 23.3996 75.9852 23.082C76.1228 23.2533 76.2336 23.4447 76.3138 23.6496Z" fill="black"/>
<path opacity="0.1" d="M79.3359 38.5794C79.0898 38.4976 78.8585 38.3763 78.651 38.2202C78.3905 38.3565 78.1058 38.4395 77.8132 38.4646C77.7571 38.7748 77.9329 39.0905 78.1815 39.2868C78.2309 39.3268 78.2832 39.363 78.338 39.3951C78.2739 39.2594 78.2524 39.1073 78.2763 38.9591C78.6559 38.9253 79.0206 38.7947 79.3359 38.5794Z" fill="black"/>
<path opacity="0.1" d="M69.7661 17.0657C69.4154 16.8972 68.9615 16.8935 68.6172 16.75C68.6367 16.8143 68.6629 16.8764 68.6954 16.9352C68.9854 17.424 69.7155 17.3185 70.2264 17.5648C70.2909 17.5973 70.3525 17.6354 70.4105 17.6786C70.2509 17.4227 70.0291 17.2118 69.7661 17.0657Z" fill="black"/>
<path opacity="0.1" d="M78.7297 39.8525C78.377 40.0037 77.982 40.0225 77.6167 39.9053C77.2236 39.7757 76.8986 39.4979 76.5847 39.2257L74.8199 37.6989C74.7361 37.6267 74.6533 37.5536 74.5723 37.4795C74.5907 37.5045 74.6091 37.5304 74.6293 37.5554C74.8263 37.7875 75.0442 38.0007 75.2802 38.1924L77.045 39.7201C77.359 39.9914 77.6839 40.2701 78.077 40.3997C78.313 40.4752 78.5631 40.4947 78.8079 40.4567C79.0526 40.4186 79.2852 40.324 79.4874 40.1803C79.221 40.1068 78.966 39.9965 78.7297 39.8525Z" fill="black"/>
<path opacity="0.1" d="M73.1672 17.7244C73.6432 18.3808 74.1357 19.0826 74.1983 19.8918C74.2232 20.2233 74.1744 20.5603 74.237 20.8862C74.3364 21.4075 74.6871 21.7991 75.0793 22.1722C74.8898 21.9436 74.7587 21.6718 74.6973 21.3806C74.6347 21.0538 74.6835 20.7168 74.6586 20.3853C74.596 19.5761 74.1062 18.8743 73.6275 18.2188C73.2814 17.7401 72.9205 17.2512 72.4961 16.8457C72.7327 17.1272 72.9527 17.4271 73.1672 17.7244Z" fill="black"/>
</g>
<path opacity="0.1" d="M69.1278 15.8047C69.1278 15.8047 68.5754 16.7306 70.1405 17.5018L70.2325 17.2546L69.1278 15.8047Z" fill="black"/>
<path d="M69.036 15.8047C69.036 15.8047 68.4836 16.7306 70.0487 17.5018L70.1407 17.2546L69.036 15.8047Z" fill="#FF6584"/>
<path d="M90.8278 68.2075C90.8278 68.2075 91.3342 68.8732 90.5949 69.8741C89.8557 70.8749 89.2462 71.7258 89.4902 72.3526C89.4902 72.3526 90.606 70.487 91.5155 70.4611C92.4251 70.4352 91.8267 69.3297 90.8278 68.2075Z" fill="#715AFF"/>
<path opacity="0.1" d="M90.8274 68.2075C90.8715 68.2717 90.9065 68.3419 90.9314 68.4158C91.817 69.463 92.2884 70.4398 91.4368 70.4639C90.6442 70.487 89.6932 71.9128 89.4648 72.273C89.4722 72.3008 89.4814 72.3276 89.4915 72.3554C89.4915 72.3554 90.6073 70.4898 91.5169 70.4639C92.4265 70.4379 91.8262 69.3297 90.8274 68.2075Z" fill="black"/>
<path d="M91.7673 69.0559C91.7673 69.2902 91.7406 69.48 91.7084 69.48C91.6762 69.48 91.6504 69.2948 91.6504 69.0559C91.6504 68.8171 91.6826 68.9319 91.7148 68.9319C91.747 68.9319 91.7673 68.8217 91.7673 69.0559Z" fill="#FFD037"/>
<path d="M92.0901 69.3358C91.8857 69.4478 91.7071 69.5154 91.6924 69.4867C91.6777 69.458 91.8296 69.3441 92.0339 69.2321C92.2383 69.1201 92.1582 69.2016 92.1739 69.2321C92.1895 69.2627 92.2954 69.2238 92.0901 69.3358Z" fill="#FFD037"/>
<path d="M88.1532 68.2075C88.1532 68.2075 87.6469 68.8732 88.3862 69.8741C89.1254 70.8749 89.7348 71.7258 89.4909 72.3526C89.4909 72.3526 88.376 70.487 87.4655 70.4611C86.5551 70.4352 87.1581 69.3297 88.1532 68.2075Z" fill="#715AFF"/>
<path opacity="0.1" d="M88.1533 68.2075C88.1091 68.2717 88.0741 68.3419 88.0493 68.4158C87.1636 69.463 86.6923 70.4398 87.5438 70.4639C88.3365 70.487 89.2875 71.9128 89.5158 72.273C89.5082 72.301 89.499 72.3285 89.4882 72.3554C89.4882 72.3554 88.3733 70.4898 87.4628 70.4639C86.5524 70.4379 87.1581 69.3297 88.1533 68.2075Z" fill="black"/>
<path d="M87.2148 69.0559C87.2148 69.2902 87.2415 69.48 87.2738 69.48C87.306 69.48 87.3318 69.2948 87.3318 69.0559C87.3318 68.8171 87.2995 68.9319 87.2673 68.9319C87.2351 68.9319 87.2148 68.8217 87.2148 69.0559Z" fill="#FFD037"/>
<path d="M86.8941 69.3358C87.0985 69.4478 87.2762 69.5154 87.2918 69.4867C87.3075 69.458 87.1547 69.3441 86.9503 69.2321C86.7459 69.1201 86.826 69.2016 86.8103 69.2321C86.7947 69.2627 86.6897 69.2238 86.8941 69.3358Z" fill="#FFD037"/>
<path d="M87.377 72.2686C87.377 72.2686 88.791 72.2241 89.2182 71.9195C89.6453 71.6149 91.3935 71.2492 91.4994 71.7344C91.6053 72.2195 93.6242 74.1685 92.0278 74.1814C90.4315 74.1944 88.3187 73.9314 87.8934 73.6713C87.4681 73.4111 87.377 72.2686 87.377 72.2686Z" fill="#A8A8A8"/>
<path opacity="0.2" d="M92.0555 74.0165C90.4591 74.0295 88.3464 73.7666 87.921 73.5064C87.597 73.3073 87.4681 72.5953 87.4248 72.2676H87.377C87.377 72.2676 87.469 73.4147 87.8925 73.6758C88.316 73.9369 90.4306 74.1989 92.0269 74.186C92.4872 74.186 92.6465 74.0175 92.6382 73.773C92.5719 73.9239 92.3979 74.0165 92.0555 74.0165Z" fill="black"/>
<path d="M24.1791 70.6365C24.3481 70.4983 24.4714 70.3117 24.5326 70.1014C24.5777 69.8884 24.4875 69.6329 24.2859 69.5551C24.0594 69.4681 23.8173 69.6264 23.6341 69.7857C23.4509 69.9449 23.2401 70.1273 22.9998 70.0931C23.1233 69.9805 23.2158 69.8377 23.2681 69.6785C23.3203 69.5193 23.3307 69.3492 23.298 69.1848C23.2876 69.1167 23.2589 69.0527 23.2152 68.9996C23.09 68.8644 22.8617 68.9228 22.7107 69.0292C22.232 69.3672 22.0985 70.0218 22.0967 70.6097C22.0479 70.3977 22.0884 70.1764 22.0874 69.9616C22.0865 69.7468 22.0267 69.4986 21.8444 69.3857C21.7318 69.323 21.6048 69.2911 21.4762 69.2931C21.2607 69.2848 21.0214 69.307 20.8741 69.4653C20.69 69.6616 20.7388 69.9921 20.898 70.206C21.0573 70.4199 21.2985 70.5588 21.5204 70.7078C21.6989 70.8146 21.8512 70.9605 21.9659 71.1347C21.9793 71.1592 21.9904 71.1849 21.9991 71.2115H23.3422C23.6457 71.0588 23.9273 70.8654 24.1791 70.6365Z" fill="#715AFF"/>
<path d="M13.4604 72.0962C13.4604 72.0962 12.1716 67.6798 13.7025 64.4282C14.3553 63.0687 14.5523 61.5331 14.2641 60.0516C14.1211 59.3493 13.9146 58.6616 13.6473 57.9971" stroke="#535461" stroke-width="2" stroke-miterlimit="10"/>
<path d="M14.6041 55.9429C14.6041 56.4836 13.6292 58.0539 13.6292 58.0539C13.6292 58.0539 12.6543 56.4799 12.6543 55.9429C12.6543 55.6829 12.757 55.4335 12.9398 55.2496C13.1227 55.0657 13.3707 54.9624 13.6292 54.9624C13.8878 54.9624 14.1358 55.0657 14.3186 55.2496C14.5014 55.4335 14.6041 55.6829 14.6041 55.9429Z" fill="#715AFF"/>
<path d="M16.2149 58.9407C15.9222 59.3953 14.2559 60.1804 14.2559 60.1804C14.2559 60.1804 14.2853 58.3287 14.5781 57.8759C14.7211 57.6638 14.9411 57.5164 15.1909 57.4654C15.4407 57.4144 15.7004 57.4638 15.9144 57.603C16.1284 57.7422 16.2797 57.9602 16.3359 58.2102C16.3921 58.4603 16.3486 58.7225 16.2149 58.9407Z" fill="#715AFF"/>
<path d="M16.1436 64.0655C15.663 64.309 13.8301 64.1405 13.8301 64.1405C13.8301 64.1405 14.7857 62.5591 15.2662 62.3147C15.3808 62.2536 15.5064 62.2162 15.6356 62.2046C15.7647 62.193 15.8949 62.2074 16.0185 62.247C16.1421 62.2866 16.2565 62.3506 16.3552 62.4352C16.4539 62.5198 16.5347 62.6234 16.5931 62.7399C16.6515 62.8564 16.6861 62.9834 16.6951 63.1135C16.704 63.2436 16.6871 63.3742 16.6452 63.4977C16.6034 63.6211 16.5374 63.7349 16.4513 63.8324C16.3652 63.9299 16.2605 64.0092 16.1436 64.0655Z" fill="#715AFF"/>
<path d="M15.2225 67.9301C14.7899 68.2523 12.9551 68.393 12.9551 68.393C12.9551 68.393 13.6308 66.6718 14.0598 66.3496C14.1619 66.2654 14.28 66.203 14.4069 66.1661C14.5338 66.1292 14.6667 66.1185 14.7978 66.1349C14.9289 66.1512 15.0553 66.1942 15.1693 66.2611C15.2834 66.3281 15.3827 66.4177 15.4613 66.5244C15.5399 66.6311 15.5961 66.7528 15.6266 66.8821C15.657 67.0113 15.661 67.1454 15.6383 67.2763C15.6156 67.4071 15.5668 67.532 15.4947 67.6432C15.4226 67.7545 15.3287 67.8499 15.2189 67.9236L15.2225 67.9301Z" fill="#715AFF"/>
<path d="M12.2102 60.2852C12.596 60.6629 14.3949 61.0536 14.3949 61.0536C14.3949 61.0536 13.9539 59.2565 13.5663 58.8788C13.4753 58.7852 13.3666 58.7109 13.2466 58.6603C13.1266 58.6097 12.9977 58.5837 12.8676 58.584C12.7375 58.5842 12.6087 58.6107 12.4889 58.6618C12.3691 58.7128 12.2607 58.7875 12.17 58.8814C12.0794 58.9753 12.0083 59.0865 11.9611 59.2085C11.9138 59.3304 11.8913 59.4606 11.8949 59.5914C11.8985 59.7223 11.9281 59.851 11.9819 59.9702C12.0357 60.0893 12.1128 60.1964 12.2084 60.2852H12.2102Z" fill="#715AFF"/>
<path d="M11.1899 64.8192C11.6705 65.0627 13.5034 64.8951 13.5034 64.8951C13.5034 64.8951 12.5488 63.3128 12.0673 63.0693C11.953 63.0114 11.8286 62.9766 11.701 62.9671C11.5734 62.9575 11.4452 62.9733 11.3236 63.0136C11.2021 63.0539 11.0897 63.1178 10.9927 63.2018C10.8958 63.2858 10.8162 63.3882 10.7586 63.5031C10.701 63.618 10.6665 63.7431 10.657 63.8715C10.6475 63.9998 10.6632 64.1287 10.7033 64.251C10.7433 64.3732 10.8069 64.4863 10.8904 64.5838C10.9739 64.6813 11.0757 64.7612 11.1899 64.8192Z" fill="#715AFF"/>
<path d="M10.7985 69.3634C11.2312 69.6847 13.066 69.8263 13.066 69.8263C13.066 69.8263 12.3902 68.1042 11.9612 67.782C11.753 67.6423 11.4994 67.5885 11.2529 67.6317C11.0063 67.675 10.7857 67.8119 10.6368 68.0141C10.4878 68.2164 10.4219 68.4685 10.4527 68.7183C10.4835 68.9681 10.6086 69.1964 10.8022 69.356L10.7985 69.3634Z" fill="#715AFF"/>
<path d="M14.6041 55.9429C14.6041 56.4836 13.6292 58.0539 13.6292 58.0539C13.6292 58.0539 12.6543 56.4799 12.6543 55.9429C12.6543 55.6829 12.757 55.4335 12.9398 55.2496C13.1227 55.0657 13.3707 54.9624 13.6292 54.9624C13.8878 54.9624 14.1358 55.0657 14.3186 55.2496C14.5014 55.4335 14.6041 55.6829 14.6041 55.9429Z" fill="#715AFF"/>
<path d="M16.2149 58.9407C15.9222 59.3953 14.2559 60.1804 14.2559 60.1804C14.2559 60.1804 14.2853 58.3287 14.5781 57.8759C14.7211 57.6638 14.9411 57.5164 15.1909 57.4654C15.4407 57.4144 15.7004 57.4638 15.9144 57.603C16.1284 57.7422 16.2797 57.9602 16.3359 58.2102C16.3921 58.4603 16.3486 58.7225 16.2149 58.9407Z" fill="#715AFF"/>
<path d="M16.1436 64.0655C15.663 64.309 13.8301 64.1405 13.8301 64.1405C13.8301 64.1405 14.7857 62.5591 15.2662 62.3147C15.3808 62.2536 15.5064 62.2162 15.6356 62.2046C15.7647 62.193 15.8949 62.2074 16.0185 62.247C16.1421 62.2866 16.2565 62.3506 16.3552 62.4352C16.4539 62.5198 16.5347 62.6234 16.5931 62.7399C16.6515 62.8564 16.6861 62.9834 16.6951 63.1135C16.704 63.2436 16.6871 63.3742 16.6452 63.4977C16.6034 63.6211 16.5374 63.7349 16.4513 63.8324C16.3652 63.9299 16.2605 64.0092 16.1436 64.0655Z" fill="#715AFF"/>
<path d="M15.2225 67.9301C14.7899 68.2523 12.9551 68.393 12.9551 68.393C12.9551 68.393 13.6308 66.6718 14.0598 66.3496C14.1619 66.2654 14.28 66.203 14.4069 66.1661C14.5338 66.1292 14.6667 66.1185 14.7978 66.1349C14.9289 66.1512 15.0553 66.1942 15.1693 66.2611C15.2834 66.3281 15.3827 66.4177 15.4613 66.5244C15.5399 66.6311 15.5961 66.7528 15.6266 66.8821C15.657 67.0113 15.661 67.1454 15.6383 67.2763C15.6156 67.4071 15.5668 67.532 15.4947 67.6432C15.4226 67.7545 15.3287 67.8499 15.2189 67.9236L15.2225 67.9301Z" fill="#715AFF"/>
<path d="M12.2102 60.2852C12.596 60.6629 14.3949 61.0536 14.3949 61.0536C14.3949 61.0536 13.9539 59.2565 13.5663 58.8788C13.4753 58.7852 13.3666 58.7109 13.2466 58.6603C13.1266 58.6097 12.9977 58.5837 12.8676 58.584C12.7375 58.5842 12.6087 58.6107 12.4889 58.6618C12.3691 58.7128 12.2607 58.7875 12.17 58.8814C12.0794 58.9753 12.0083 59.0865 11.9611 59.2085C11.9138 59.3304 11.8913 59.4606 11.8949 59.5914C11.8985 59.7223 11.9281 59.851 11.9819 59.9702C12.0357 60.0893 12.1128 60.1964 12.2084 60.2852H12.2102Z" fill="#715AFF"/>
<path d="M11.1899 64.8192C11.6705 65.0627 13.5034 64.8951 13.5034 64.8951C13.5034 64.8951 12.5488 63.3128 12.0673 63.0693C11.953 63.0114 11.8286 62.9766 11.701 62.9671C11.5734 62.9575 11.4452 62.9733 11.3236 63.0136C11.2021 63.0539 11.0897 63.1178 10.9927 63.2018C10.8958 63.2858 10.8162 63.3882 10.7586 63.5031C10.701 63.618 10.6665 63.7431 10.657 63.8715C10.6475 63.9998 10.6632 64.1287 10.7033 64.251C10.7433 64.3732 10.8069 64.4863 10.8904 64.5838C10.9739 64.6813 11.0757 64.7612 11.1899 64.8192Z" fill="#715AFF"/>
<path d="M10.7985 69.3634C11.2312 69.6847 13.066 69.8263 13.066 69.8263C13.066 69.8263 12.3902 68.1042 11.9612 67.782C11.753 67.6423 11.4994 67.5885 11.2529 67.6317C11.0063 67.675 10.7857 67.8119 10.6368 68.0141C10.4878 68.2164 10.4219 68.4685 10.4527 68.7183C10.4835 68.9681 10.6086 69.1964 10.8022 69.356L10.7985 69.3634Z" fill="#715AFF"/>
<path d="M10.4023 71.819C10.4023 71.819 11.9775 71.5042 12.3973 71.0848C12.8171 70.6653 14.708 69.9311 14.9179 70.4552C15.1278 70.9792 17.7534 72.7624 15.9683 73.0772C14.1833 73.392 11.7676 73.4966 11.2419 73.2865C10.7163 73.0763 10.4023 71.819 10.4023 71.819Z" fill="#A8A8A8"/>
<path opacity="0.2" d="M15.9683 72.8816C14.1824 73.1964 11.7676 73.301 11.2419 73.0918C10.8424 72.9316 10.5644 72.1659 10.4548 71.8076L10.4023 71.8187C10.4023 71.8187 10.7172 73.077 11.2419 73.2862C11.7667 73.4955 14.1824 73.3918 15.9683 73.077C16.483 72.9844 16.6303 72.7724 16.575 72.5029C16.529 72.6789 16.3513 72.8131 15.9683 72.8816Z" fill="black"/>
</g>
<defs>
<linearGradient id="paint0_linear" x1="47.2621" y1="74.6583" x2="47.2621" y2="12.7102" gradientUnits="userSpaceOnUse">
<stop stop-color="#808080" stop-opacity="0.25"/>
<stop offset="0.54" stop-color="#808080" stop-opacity="0.12"/>
<stop offset="1" stop-color="#808080" stop-opacity="0.1"/>
</linearGradient>
<clipPath id="clip0">
<rect width="101" height="76" fill="white"/>
</clipPath>
</defs>
</svg>
