<svg width="108" height="73" viewBox="0 0 108 73" fill="none" xmlns="http://www.w3.org/2000/svg">
<g clip-path="url(#clip0)">
<path d="M97.0513 36.8633L96.1426 37.763L97.3498 40.9226L99.034 37.4198L101.793 21.517L97.55 21.3984L97.0513 36.8633Z" fill="#9F616A"/>
<path d="M90.1365 70.1472H87.8383L86.0508 49.7837H90.5195L90.1365 70.1472Z" fill="#9F616A"/>
<path d="M98.8201 70.1472H96.5219L94.7344 49.7837H99.2031L98.8201 70.1472Z" fill="#9F616A"/>
<path d="M97.0392 72.8032L93.6839 72.7853C93.3847 72.6353 93.1515 72.3794 93.0292 72.0671C92.907 71.7548 92.9043 71.4082 93.0217 71.094C93.1051 70.8709 93.2456 70.6737 93.4291 70.5223C93.6125 70.3709 93.8324 70.2706 94.0667 70.2314L94.7005 70.1254L95.2528 69.4204C95.41 69.2153 95.6372 69.0757 95.8907 69.0284C96.1442 68.9811 96.4062 69.0295 96.6264 69.1642C97.1562 69.5015 97.891 69.6138 98.7969 69.5384L99.5021 71.2656C99.6418 72.2 99.0041 72.8164 98.0736 72.9638C97.7206 73.0197 97.3589 72.9636 97.0392 72.8032Z" fill="#2F2E41"/>
<path d="M88.3576 72.8037L85.0022 72.7858C84.703 72.6358 84.4698 72.3799 84.3476 72.0676C84.2253 71.7553 84.2226 71.4086 84.3401 71.0945C84.4235 70.8714 84.564 70.6742 84.7474 70.5228C84.9308 70.3714 85.1508 70.271 85.3851 70.2319L86.0189 70.1259L86.633 69.3419C86.782 69.1533 86.9965 69.0281 87.2336 68.9912C87.4707 68.9544 87.713 69.0087 87.9119 69.1433C88.444 69.4972 89.1905 69.6159 90.1153 69.5389L90.8205 71.2661C90.9602 72.2005 90.3224 72.8169 89.392 72.9643C89.0389 73.0202 88.6773 72.9641 88.3576 72.8037Z" fill="#2F2E41"/>
<path d="M90.7755 10.5932C92.6794 10.5932 94.2228 9.04499 94.2228 7.13521C94.2228 5.22543 92.6794 3.67725 90.7755 3.67725C88.8715 3.67725 87.3281 5.22543 87.3281 7.13521C87.3281 9.04499 88.8715 10.5932 90.7755 10.5932Z" fill="#9F616A"/>
<path d="M95.7556 13.7951L90.1377 14.1793C90.1576 12.3556 90.0782 10.7039 89.627 9.69674L93.585 8.41602C93.623 10.0217 94.4628 11.8465 95.7556 13.7951Z" fill="#9F616A"/>
<path d="M99.2028 38.7691L84.7751 37.6164C86.7001 31.1795 86.0977 22.7505 84.1367 16.4312C84.1367 15.6932 84.3599 14.9727 84.7769 14.3647C85.1938 13.7567 85.7848 13.2899 86.4718 13.0259L90.1376 11.6177L94.7341 12.13L98.6099 14.0739C99.2078 14.3737 99.7088 14.8373 100.055 15.411C100.401 15.9846 100.578 16.6449 100.565 17.3153C99.1086 23.1595 98.9331 30.6741 99.2028 38.7691Z" fill="#715AFF"/>
<path d="M88.3495 23.0165L81.8379 21.8638L82.3984 17.5067C82.5348 16.4461 82.9818 15.45 83.6828 14.6443C84.3839 13.8386 85.3074 13.2596 86.3366 12.9806L87.5835 12.6426L88.3495 23.0165Z" fill="#715AFF"/>
<path d="M84.5197 37.4889L85.2857 38.5135L84.1366 41.7153L82.4768 37.7451L82.0938 21.6079L86.3072 22.1202L84.5197 37.4889Z" fill="#9F616A"/>
<path d="M95.5 23.2723L102.012 22.1197L101.451 17.7626C101.315 16.702 100.868 15.7058 100.167 14.9001C99.4657 14.0945 98.5421 13.5155 97.513 13.2365L96.2661 12.8984L95.5 23.2723Z" fill="#715AFF"/>
<path d="M99.585 50.4239L94.2431 50.68L92.6904 43.1238L90.8049 50.1678L85.1573 50.2958L84.0284 41.1942C83.9413 40.4917 83.9963 39.7787 84.1903 39.0979C84.3843 38.4172 84.7132 37.7827 85.1573 37.2324L99.202 37.8728L99.585 50.4239Z" fill="#2F2E41"/>
<path d="M91.0949 10.9131L93.6727 10.4235L95.2063 7.79548C95.5784 7.15779 95.7395 6.41818 95.6662 5.68294C95.5929 4.9477 95.2891 4.25469 94.7985 3.70351C94.4162 3.274 93.934 2.94593 93.3948 2.74847C92.8555 2.55102 92.276 2.49031 91.7078 2.57174L88.3668 3.05049C88.0787 3.09177 87.8016 3.18982 87.5515 3.33898C87.3013 3.48815 87.0831 3.68548 86.9093 3.91962C86.7355 4.15376 86.6096 4.42008 86.5388 4.70323C86.4681 4.98638 86.4539 5.28078 86.4971 5.56946L88.7474 5.95351L91.0949 10.9131Z" fill="#2F2E41"/>
<path d="M89.5622 8.86451C89.9148 8.86451 90.2006 8.52047 90.2006 8.09607C90.2006 7.67168 89.9148 7.32764 89.5622 7.32764C89.2096 7.32764 88.9238 7.67168 88.9238 8.09607C88.9238 8.52047 89.2096 8.86451 89.5622 8.86451Z" fill="#9F616A"/>
<path d="M16.1486 1.56396C15.7763 1.56439 15.4193 1.71295 15.156 1.97706C14.8927 2.24117 14.7446 2.59926 14.7441 2.97276V28.7153C14.7446 29.0889 14.8927 29.4469 15.156 29.711C15.4193 29.9752 15.7763 30.1237 16.1486 30.1241H16.787C17.1594 30.1237 17.5164 29.9752 17.7796 29.711C18.0429 29.4469 18.1911 29.0889 18.1915 28.7153V2.97276C18.1911 2.59926 18.0429 2.24117 17.7796 1.97706C17.5164 1.71295 17.1594 1.56439 16.787 1.56396H16.1486Z" fill="#E6E6E6"/>
<path d="M16.1483 2.14062C15.9282 2.14088 15.7173 2.22867 15.5617 2.38473C15.4061 2.5408 15.3186 2.75239 15.3184 2.9731V28.7157C15.3186 28.9364 15.4061 29.148 15.5617 29.304C15.7173 29.4601 15.9282 29.5479 16.1483 29.5482H16.7867C17.0067 29.5479 17.2176 29.4601 17.3732 29.304C17.5288 29.148 17.6163 28.9364 17.6166 28.7157V2.9731C17.6163 2.75239 17.5288 2.5408 17.3732 2.38473C17.2176 2.22867 17.0067 2.14088 16.7867 2.14062H16.1483Z" fill="white"/>
<path d="M26.6174 1.56396C26.245 1.56439 25.888 1.71295 25.6247 1.97706C25.3614 2.24117 25.2133 2.59926 25.2129 2.97276V28.7153C25.2133 29.0889 25.3614 29.4469 25.6247 29.711C25.888 29.9752 26.245 30.1237 26.6174 30.1241H27.2558C27.6281 30.1237 27.9851 29.9752 28.2484 29.711C28.5117 29.4469 28.6598 29.0889 28.6602 28.7153V2.97276C28.6598 2.59926 28.5117 2.24117 28.2484 1.97706C27.9851 1.71295 27.6281 1.56439 27.2558 1.56396H26.6174Z" fill="#E6E6E6"/>
<path d="M26.617 2.14062C26.397 2.14088 26.1861 2.22867 26.0305 2.38473C25.8749 2.5408 25.7874 2.75239 25.7871 2.9731V28.7157C25.7874 28.9364 25.8749 29.148 26.0305 29.304C26.1861 29.4601 26.397 29.5479 26.617 29.5482H27.2554C27.4754 29.5479 27.6864 29.4601 27.842 29.304C27.9976 29.148 28.0851 28.9364 28.0853 28.7157V2.9731C28.0851 2.75239 27.9976 2.5408 27.842 2.38473C27.6864 2.22867 27.4754 2.14088 27.2554 2.14062H26.617Z" fill="white"/>
<path d="M37.0861 1.56396C36.7137 1.56439 36.3568 1.71295 36.0935 1.97706C35.8302 2.24117 35.6821 2.59926 35.6816 2.97276V28.7153C35.6821 29.0889 35.8302 29.4469 36.0935 29.711C36.3568 29.9752 36.7137 30.1237 37.0861 30.1241H37.7245C38.0969 30.1237 38.4538 29.9752 38.7171 29.711C38.9804 29.4469 39.1286 29.0889 39.129 28.7153V2.97276C39.1286 2.59926 38.9804 2.24117 38.7171 1.97706C38.4538 1.71295 38.0969 1.56439 37.7245 1.56396H37.0861Z" fill="#E6E6E6"/>
<path d="M37.0858 2.14062C36.8657 2.14088 36.6548 2.22867 36.4992 2.38473C36.3436 2.5408 36.2561 2.75239 36.2559 2.9731V28.7157C36.2561 28.9364 36.3436 29.148 36.4992 29.304C36.6548 29.4601 36.8657 29.5479 37.0858 29.5482H37.7242C37.9442 29.5479 38.1551 29.4601 38.3107 29.304C38.4663 29.148 38.5538 28.9364 38.5541 28.7157V2.9731C38.5538 2.75239 38.4663 2.5408 38.3107 2.38473C38.1551 2.22867 37.9442 2.14088 37.7242 2.14062H37.0858Z" fill="white"/>
<path d="M47.5568 1.56396C47.1845 1.56439 46.8275 1.71295 46.5642 1.97706C46.3009 2.24117 46.1528 2.59926 46.1523 2.97276V28.7153C46.1528 29.0889 46.3009 29.4469 46.5642 29.711C46.8275 29.9752 47.1845 30.1237 47.5568 30.1241H48.1952C48.5676 30.1237 48.9246 29.9752 49.1879 29.711C49.4511 29.4469 49.5993 29.0889 49.5997 28.7153V2.97276C49.5993 2.59926 49.4511 2.24117 49.1879 1.97706C48.9246 1.71295 48.5676 1.56439 48.1952 1.56396H47.5568Z" fill="#E6E6E6"/>
<path d="M47.5565 2.14062C47.3364 2.14088 47.1255 2.22867 46.9699 2.38473C46.8143 2.5408 46.7268 2.75239 46.7266 2.9731V28.7157C46.7268 28.9364 46.8143 29.148 46.9699 29.304C47.1255 29.4601 47.3364 29.5479 47.5565 29.5482H48.1949C48.4149 29.5479 48.6258 29.4601 48.7814 29.304C48.937 29.148 49.0245 28.9364 49.0248 28.7157V2.9731C49.0245 2.75239 48.937 2.5408 48.7814 2.38473C48.6258 2.22867 48.4149 2.14088 48.1949 2.14062H47.5565Z" fill="white"/>
<path d="M58.0256 1.56396C57.6532 1.56439 57.2962 1.71295 57.0329 1.97706C56.7696 2.24117 56.6215 2.59926 56.6211 2.97276V28.7153C56.6215 29.0889 56.7696 29.4469 57.0329 29.711C57.2962 29.9752 57.6532 30.1237 58.0256 30.1241H58.664C59.0363 30.1237 59.3933 29.9752 59.6566 29.711C59.9199 29.4469 60.068 29.0889 60.0684 28.7153V2.97276C60.068 2.59926 59.9199 2.24117 59.6566 1.97706C59.3933 1.71295 59.0363 1.56439 58.664 1.56396H58.0256Z" fill="#E6E6E6"/>
<path d="M58.0272 2.14062C57.8071 2.14088 57.5962 2.22867 57.4406 2.38473C57.285 2.5408 57.1975 2.75239 57.1973 2.9731V28.7157C57.1975 28.9364 57.285 29.148 57.4406 29.304C57.5962 29.4601 57.8071 29.5479 58.0272 29.5482H58.6656C58.8856 29.5479 59.0965 29.4601 59.2521 29.304C59.4077 29.148 59.4952 28.9364 59.4955 28.7157V2.9731C59.4952 2.75239 59.4077 2.5408 59.2521 2.38473C59.0965 2.22867 58.8856 2.14088 58.6656 2.14062H58.0272Z" fill="white"/>
<path d="M18.5425 9.89274H14.5187C14.172 9.89236 13.8396 9.75403 13.5944 9.50811C13.3492 9.26218 13.2113 8.92875 13.2109 8.58097V8.37916C13.2113 8.03137 13.3492 7.69794 13.5944 7.45202C13.8396 7.2061 14.172 7.06777 14.5187 7.06738H18.5425C18.8892 7.06777 19.2216 7.2061 19.4668 7.45202C19.712 7.69794 19.8499 8.03137 19.8502 8.37916V8.58097C19.8499 8.92875 19.712 9.26219 19.4668 9.50811C19.2216 9.75403 18.8892 9.89236 18.5425 9.89274Z" fill="#715AFF"/>
<path d="M29.2671 14.1188H25.2433C24.8966 14.1184 24.5642 13.9801 24.319 13.7342C24.0738 13.4883 23.9359 13.1548 23.9355 12.807V12.6052C23.9359 12.2574 24.0738 11.924 24.319 11.6781C24.5642 11.4322 24.8966 11.2938 25.2433 11.2935H29.2671C29.6138 11.2938 29.9462 11.4322 30.1914 11.6781C30.4366 11.924 30.5745 12.2574 30.5749 12.6052V12.807C30.5745 13.1548 30.4366 13.4883 30.1914 13.7342C29.9462 13.9801 29.6138 14.1184 29.2671 14.1188Z" fill="#715AFF"/>
<path d="M39.482 22.444H35.4581C35.1114 22.4436 34.779 22.3053 34.5338 22.0594C34.2887 21.8135 34.1508 21.48 34.1504 21.1322V20.9304C34.1508 20.5826 34.2887 20.2492 34.5338 20.0033C34.779 19.7574 35.1114 19.619 35.4581 19.6187H39.482C39.8287 19.619 40.1611 19.7574 40.4062 20.0033C40.6514 20.2492 40.7893 20.5826 40.7897 20.9304V21.1322C40.7893 21.48 40.6514 21.8135 40.4062 22.0594C40.1611 22.3053 39.8287 22.4436 39.482 22.444Z" fill="#715AFF"/>
<path d="M49.9507 7.33122H45.9269C45.5802 7.33083 45.2478 7.1925 45.0026 6.94658C44.7574 6.70066 44.6195 6.36723 44.6191 6.01944V5.81763C44.6195 5.46985 44.7574 5.13642 45.0026 4.8905C45.2478 4.64457 45.5802 4.50624 45.9269 4.50586H49.9507C50.2974 4.50624 50.6298 4.64457 50.875 4.89049C51.1202 5.13642 51.2581 5.46985 51.2585 5.81763V6.01944C51.2581 6.36723 51.1202 6.70066 50.875 6.94658C50.6298 7.19251 50.2974 7.33083 49.9507 7.33122Z" fill="#715AFF"/>
<path d="M60.4214 17.321H56.3976C56.0509 17.3206 55.7185 17.1823 55.4733 16.9363C55.2281 16.6904 55.0902 16.357 55.0898 16.0092V15.8074C55.0902 15.4596 55.2281 15.1262 55.4733 14.8802C55.7185 14.6343 56.0509 14.496 56.3976 14.4956H60.4214C60.7681 14.496 61.1005 14.6343 61.3457 14.8802C61.5909 15.1262 61.7288 15.4596 61.7292 15.8074V16.0092C61.7288 16.357 61.5909 16.6904 61.3457 16.9363C61.1005 17.1823 60.7681 17.3206 60.4214 17.321Z" fill="#715AFF"/>
<path d="M107.95 73.0001H73.8086V72.7202H108.001L107.95 73.0001Z" fill="#3F3D56"/>
<path d="M16.5309 36.9119C17.4476 36.9119 18.1907 36.1665 18.1907 35.247C18.1907 34.3275 17.4476 33.582 16.5309 33.582C15.6142 33.582 14.8711 34.3275 14.8711 35.247C14.8711 36.1665 15.6142 36.9119 16.5309 36.9119Z" fill="#E6E6E6"/>
<path d="M26.9997 36.9119C27.9164 36.9119 28.6595 36.1665 28.6595 35.247C28.6595 34.3275 27.9164 33.582 26.9997 33.582C26.083 33.582 25.3398 34.3275 25.3398 35.247C25.3398 36.1665 26.083 36.9119 26.9997 36.9119Z" fill="#E6E6E6"/>
<path d="M37.4704 36.9119C38.3871 36.9119 39.1302 36.1665 39.1302 35.247C39.1302 34.3275 38.3871 33.582 37.4704 33.582C36.5537 33.582 35.8105 34.3275 35.8105 35.247C35.8105 36.1665 36.5537 36.9119 37.4704 36.9119Z" fill="#E6E6E6"/>
<path d="M47.9391 36.9119C48.8558 36.9119 49.599 36.1665 49.599 35.247C49.599 34.3275 48.8558 33.582 47.9391 33.582C47.0224 33.582 46.2793 34.3275 46.2793 35.247C46.2793 36.1665 47.0224 36.9119 47.9391 36.9119Z" fill="#E6E6E6"/>
<path d="M58.4098 36.9119C59.3265 36.9119 60.0697 36.1665 60.0697 35.247C60.0697 34.3275 59.3265 33.582 58.4098 33.582C57.4931 33.582 56.75 34.3275 56.75 35.247C56.75 36.1665 57.4931 36.9119 58.4098 36.9119Z" fill="#E6E6E6"/>
<path d="M3.67669 0C2.94951 2.53306e-07 2.23866 0.216299 1.63403 0.621544C1.0294 1.02679 0.558152 1.60278 0.279873 2.27668C0.00159307 2.95057 -0.0712178 3.69211 0.0706484 4.40752C0.212515 5.12292 0.562685 5.78006 1.07688 6.29584C1.59107 6.81162 2.2462 7.16287 2.9594 7.30517C3.67261 7.44748 4.41187 7.37444 5.0837 7.0953C5.75553 6.81616 6.32975 6.34346 6.73375 5.73697C7.13774 5.13048 7.35338 4.41744 7.35338 3.68802C7.35338 3.2037 7.25828 2.72412 7.07351 2.27667C6.88874 1.82922 6.61791 1.42266 6.2765 1.08019C5.93509 0.73773 5.52977 0.466073 5.0837 0.280733C4.63762 0.0953934 4.15952 -5.0456e-07 3.67669 0ZM3.67669 6.83119C3.05694 6.83119 2.45111 6.64684 1.9358 6.30147C1.4205 5.95609 1.01887 5.46519 0.781703 4.89086C0.544535 4.31652 0.482482 3.68453 0.60339 3.07482C0.724297 2.4651 1.02273 1.90504 1.46096 1.46546C1.89919 1.02588 2.45753 0.726525 3.06537 0.605245C3.67321 0.483965 4.30326 0.546212 4.87583 0.78411C5.44841 1.02201 5.93779 1.42488 6.28211 1.94177C6.62642 2.45866 6.8102 3.06636 6.8102 3.68802C6.8102 4.10078 6.72915 4.50951 6.57168 4.89086C6.4142 5.2722 6.18339 5.6187 5.89242 5.91057C5.60144 6.20245 5.25601 6.43397 4.87583 6.59193C4.49566 6.74989 4.08819 6.83119 3.67669 6.83119Z" fill="#E6E6E6"/>
<path d="M3.47199 4.94936C3.44652 4.94937 3.42129 4.94433 3.39776 4.93455C3.37422 4.92477 3.35284 4.91043 3.33483 4.89236L2.28728 3.84157C2.26927 3.8235 2.25498 3.80205 2.24523 3.77845C2.23549 3.75484 2.23047 3.72954 2.23047 3.70399C2.23047 3.67844 2.23549 3.65314 2.24523 3.62953C2.25498 3.60592 2.26927 3.58448 2.28728 3.56641C2.30529 3.54834 2.32668 3.53401 2.35021 3.52423C2.37374 3.51445 2.39897 3.50942 2.42444 3.50942C2.44991 3.50942 2.47514 3.51445 2.49867 3.52423C2.5222 3.53401 2.54359 3.54834 2.5616 3.56641L3.44926 4.4568L5.02267 2.30462C5.0531 2.263 5.09876 2.23521 5.14962 2.22736C5.20047 2.21951 5.25235 2.23225 5.29384 2.26277C5.33534 2.2933 5.36304 2.3391 5.37086 2.39011C5.37869 2.44112 5.36599 2.49316 5.33556 2.53478L3.62844 4.86985C3.61189 4.89247 3.59066 4.91124 3.56621 4.92487C3.54176 4.9385 3.51466 4.94668 3.48677 4.94883C3.48184 4.94921 3.47688 4.94936 3.47199 4.94936Z" fill="#715AFF"/>
</g>
<defs>
<clipPath id="clip0">
<rect width="108" height="73" fill="white"/>
</clipPath>
</defs>
</svg>
