<svg width="75" height="71" viewBox="0 0 75 71" fill="none" xmlns="http://www.w3.org/2000/svg">
<g clip-path="url(#clip0)">
<path d="M59.7343 50.4443C59.7343 50.4443 69.0128 50.9299 66.8517 53.8864C64.6905 56.843 59.0117 52.1521 59.0117 52.1521L59.7343 50.4443Z" fill="#FFB8B8"/>
<path d="M42.6368 22.2847L44.5253 22.7626C44.5253 22.7626 45.627 26.108 46.4139 29.1347C47.2008 32.1615 48.7747 41.2418 48.7747 41.2418L60.9761 49.8973L59.5208 53.1925L43.2663 46.7081L39.6465 32.3208L42.6368 22.2847Z" fill="#575A89"/>
<path opacity="0.2" d="M44.4127 28.2222L43.7088 43.1426L45.1777 47.5786L40.875 44.3848L44.4127 28.2222Z" fill="black"/>
<path d="M46.9642 54.7028C46.9642 54.7028 49.0101 60.2784 49.3249 64.1017C49.6397 67.925 49.9544 70.9518 49.9544 70.9518H40.3541L38.4655 68.0843V70.9518H27.2913C27.2913 70.9518 24.1437 60.597 25.4027 59.3226C26.6618 58.0482 38.6229 52.6318 38.6229 52.6318L46.9642 54.7028Z" fill="#2F2E41"/>
<path d="M65.2573 70.8066H9.70508V71.0002H65.2573V70.8066Z" fill="#3F3D56"/>
<path d="M34.9239 16.2306C38.2269 16.2306 40.9044 13.5204 40.9044 10.1771C40.9044 6.8338 38.2269 4.12354 34.9239 4.12354C31.6209 4.12354 28.9434 6.8338 28.9434 10.1771C28.9434 13.5204 31.6209 16.2306 34.9239 16.2306Z" fill="#FFB8B8"/>
<path d="M30.3589 12.7256L29.8867 19.735L35.8673 27.8595L38.8575 20.2129C38.8575 20.2129 36.182 18.4605 37.7558 14.7965L30.3589 12.7256Z" fill="#FFB8B8"/>
<path d="M47.8293 56.0565C47.8293 57.4908 43.8948 59.7207 43.8948 59.7207V60.5172L42.321 61.3137L38.8588 54.3047L37.9151 61.9505C37.9151 61.9505 30.9897 63.0664 28.7867 61.9505C26.5828 60.8356 25.4813 61.3137 22.3337 60.1988C19.1861 59.0838 23.5929 44.1087 23.5929 44.1087L20.4453 21.0097L27.3219 17.5295L27.6843 17.3456L28.6299 17.1694L30.0794 16.8984L34.9242 20.2132L35.3143 22.2844L35.5543 23.559L36.8126 22.1247L37.763 18.9609L44.5249 22.7625L42.6365 38.055C42.6365 38.055 47.8293 54.6231 47.8293 56.0565Z" fill="#575A89"/>
<path d="M24.6949 60.9951C24.6949 60.9951 31.9345 66.8894 28.4721 68.0045C25.0097 69.1196 23.1211 61.9509 23.1211 61.9509L24.6949 60.9951Z" fill="#FFB8B8"/>
<path d="M22.018 21.3284L20.4441 21.0098C20.4441 21.0098 18.0834 22.2842 17.926 24.8331C17.7686 27.3819 15.7227 45.224 15.7227 45.224L22.3327 63.2254L27.6837 61.1544L22.4901 44.2682L26.4247 29.6122L22.018 21.3284Z" fill="#575A89"/>
<path d="M35.6167 26.1902C35.9335 26.1902 36.1903 25.9302 36.1903 25.6095C36.1903 25.2888 35.9335 25.0288 35.6167 25.0288C35.2998 25.0288 35.043 25.2888 35.043 25.6095C35.043 25.9302 35.2998 26.1902 35.6167 26.1902Z" fill="#2F2E41"/>
<path d="M35.6167 29.9646C35.9335 29.9646 36.1903 29.7046 36.1903 29.3839C36.1903 29.0632 35.9335 28.8032 35.6167 28.8032C35.2998 28.8032 35.043 29.0632 35.043 29.3839C35.043 29.7046 35.2998 29.9646 35.6167 29.9646Z" fill="#2F2E41"/>
<path d="M38.8667 54.8377C39.1835 54.8377 39.4403 54.5777 39.4403 54.257C39.4403 53.9363 39.1835 53.6763 38.8667 53.6763C38.5498 53.6763 38.293 53.9363 38.293 54.257C38.293 54.5777 38.5498 54.8377 38.8667 54.8377Z" fill="#2F2E41"/>
<path d="M29.8758 3.97552L28.7702 3.52752C28.7702 3.52752 31.0818 0.95154 34.2979 1.17554L33.3934 0.167546C33.3934 0.167546 35.6044 -0.728439 37.6145 1.62354C38.6712 2.85991 39.8937 4.31322 40.6558 5.95034H41.8398L41.3457 7.05166L43.0751 8.15298L41.3 7.95516C41.4058 8.55825 41.422 9.17395 41.3482 9.7819C41.272 10.39 40.9654 10.9444 40.4931 11.3281C40.4931 11.3281 39.122 8.45547 39.122 8.00747V9.12747C39.122 9.12747 38.0165 8.11948 38.0165 7.44749L37.4135 8.23148H33.3934L33.9964 7.22349L31.6848 7.55949L32.5894 6.32749L29.0104 11.4148C29.0104 11.4148 26.9612 5.6555 29.8758 3.97552Z" fill="#2F2E41"/>
<path d="M65.4384 46.7988C70.7191 46.7988 74.9999 42.4657 74.9999 37.1206C74.9999 31.7755 70.7191 27.4424 65.4384 27.4424C60.1578 27.4424 55.877 31.7755 55.877 37.1206C55.877 42.4657 60.1578 46.7988 65.4384 46.7988Z" fill="#3F3D56"/>
<path opacity="0.1" d="M65.4377 45.4439C69.9791 45.4439 73.6606 41.7174 73.6606 37.1206C73.6606 32.5238 69.9791 28.7974 65.4377 28.7974C60.8963 28.7974 57.2148 32.5238 57.2148 37.1206C57.2148 41.7174 60.8963 45.4439 65.4377 45.4439Z" fill="black"/>
<path d="M65.0451 42.0319V40.8205C64.4401 40.8086 63.8143 40.5926 63.4492 40.2928L63.6995 39.4892C64.1334 39.8182 64.6595 39.9989 65.2016 40.0049C65.9422 40.0049 66.4429 39.5131 66.4429 38.8294C66.4429 38.1697 66.0361 37.762 65.2642 37.4021C64.2002 36.9223 63.5431 36.3706 63.5431 35.3271C63.5431 34.3315 64.1585 33.5759 65.1182 33.396V32.1846H65.7649V33.348C66.2471 33.3547 66.7175 33.5003 67.1209 33.7678L66.8601 34.5595C66.4732 34.2914 66.0147 34.1491 65.5458 34.1516C64.7427 34.1516 64.4401 34.7034 64.4401 35.1832C64.4401 35.8068 64.8261 36.1187 65.7336 36.5505C66.8079 37.0543 67.3504 37.678 67.3504 38.7455C67.3504 39.693 66.7767 40.5806 65.7023 40.7844V42.0319H65.0451Z" fill="#715AFF"/>
<path opacity="0.2" d="M23.9043 48.8625L27.7284 60.9538L24.6687 48.3721L23.9043 48.8625Z" fill="black"/>
<path d="M4.40646 25.2406H1.97911C1.87332 25.2405 1.77189 25.1979 1.69708 25.1221C1.62228 25.0464 1.5802 24.9438 1.58008 24.8367V21.3048C1.5802 21.1977 1.62228 21.095 1.69708 21.0193C1.77189 20.9436 1.87332 20.901 1.97911 20.9009H4.40646C4.51225 20.901 4.61368 20.9436 4.68849 21.0193C4.76329 21.095 4.80537 21.1977 4.80549 21.3048V24.8367C4.80537 24.9438 4.76329 25.0464 4.68849 25.1221C4.61368 25.1979 4.51225 25.2405 4.40646 25.2406ZM1.97911 21.0944C1.92402 21.0945 1.8712 21.1167 1.83225 21.1561C1.79329 21.1956 1.77137 21.249 1.77131 21.3048V24.8367C1.77137 24.8924 1.79329 24.9459 1.83225 24.9853C1.8712 25.0248 1.92402 25.0469 1.97911 25.047H4.40646C4.46155 25.0469 4.51437 25.0248 4.55332 24.9853C4.59228 24.9459 4.61419 24.8924 4.61426 24.8367V21.3048C4.61419 21.249 4.59228 21.1956 4.55332 21.1561C4.51437 21.1167 4.46155 21.0945 4.40646 21.0944H1.97911Z" fill="#3F3D56"/>
<path d="M8.84154 25.2408H6.6495C6.51251 25.2406 6.38119 25.1854 6.28432 25.0874C6.18746 24.9893 6.13297 24.8564 6.13281 24.7178V17.585C6.13297 17.4463 6.18746 17.3134 6.28432 17.2154C6.38119 17.1173 6.51251 17.0622 6.6495 17.062H8.84154C8.97852 17.0622 9.10985 17.1173 9.20671 17.2154C9.30358 17.3134 9.35806 17.4463 9.35822 17.585V24.7178C9.35806 24.8564 9.30357 24.9894 9.20671 25.0874C9.10985 25.1854 8.97852 25.2406 8.84154 25.2408ZM6.6495 17.2556C6.56321 17.2557 6.48048 17.2904 6.41947 17.3522C6.35846 17.4139 6.32414 17.4977 6.32404 17.585V24.7178C6.32414 24.8051 6.35846 24.8888 6.41947 24.9506C6.48048 25.0124 6.56321 25.0471 6.6495 25.0472H8.84154C8.92783 25.0471 9.01055 25.0124 9.07157 24.9506C9.13258 24.8888 9.1669 24.8051 9.16699 24.7178V17.585C9.1669 17.4977 9.13258 17.4139 9.07157 17.3522C9.01055 17.2904 8.92783 17.2557 8.84154 17.2556L6.6495 17.2556Z" fill="#3F3D56"/>
<path d="M13.3077 25.2409H11.2849C11.1255 25.2407 10.9727 25.1765 10.8599 25.0624C10.7472 24.9483 10.6838 24.7936 10.6836 24.6322V14.1389C10.6838 13.9776 10.7472 13.8229 10.8599 13.7088C10.9727 13.5946 11.1255 13.5305 11.2849 13.5303H13.3077C13.4671 13.5305 13.6199 13.5946 13.7327 13.7088C13.8454 13.8229 13.9088 13.9776 13.909 14.1389V24.6322C13.9088 24.7936 13.8454 24.9483 13.7327 25.0624C13.6199 25.1765 13.4671 25.2407 13.3077 25.2409ZM11.2849 13.7238C11.1762 13.724 11.072 13.7677 10.9951 13.8456C10.9182 13.9234 10.8749 14.0289 10.8748 14.1389V24.6322C10.8749 24.7423 10.9182 24.8478 10.9951 24.9256C11.072 25.0034 11.1762 25.0472 11.2849 25.0473H13.3077C13.4164 25.0472 13.5206 25.0034 13.5975 24.9256C13.6744 24.8478 13.7177 24.7423 13.7178 24.6322V14.1389C13.7177 14.0289 13.6744 13.9234 13.5975 13.8456C13.5206 13.7677 13.4164 13.724 13.3077 13.7238H11.2849Z" fill="#3F3D56"/>
<path d="M4.10371 21.5742H2.2832V24.5687H4.10371V21.5742Z" fill="#715AFF"/>
<path d="M8.65449 17.7729H6.83398V24.568H8.65449V17.7729Z" fill="#715AFF"/>
<path d="M13.2053 14.2412H11.3848V24.5682H13.2053V14.2412Z" fill="#715AFF"/>
<path d="M69.1288 14.1107H56.412C56.3995 14.1107 56.387 14.1082 56.3754 14.1034C56.3638 14.0985 56.3533 14.0914 56.3444 14.0824C56.3355 14.0734 56.3285 14.0627 56.3237 14.051C56.3189 14.0392 56.3164 14.0266 56.3164 14.0139V0.948345C56.3164 0.922676 56.3265 0.898059 56.3444 0.879909C56.3623 0.861759 56.3867 0.851562 56.412 0.851562C56.4374 0.851562 56.4617 0.861759 56.4796 0.879909C56.4976 0.898059 56.5076 0.922676 56.5076 0.948345V13.9171H69.1288C69.1541 13.9171 69.1785 13.9273 69.1964 13.9455C69.2143 13.9636 69.2244 13.9883 69.2244 14.0139C69.2244 14.0396 69.2143 14.0642 69.1964 14.0824C69.1785 14.1005 69.1541 14.1107 69.1288 14.1107Z" fill="#3F3D56"/>
<path d="M15.2027 26.5959H0.0956148C0.0830575 26.5959 0.070623 26.5934 0.059021 26.5885C0.047419 26.5836 0.0368769 26.5765 0.0279976 26.5675C0.0191183 26.5585 0.0120754 26.5479 0.00727149 26.5361C0.00246755 26.5244 -3.26292e-06 26.5118 3.23389e-09 26.4991V11.3043C3.23389e-09 11.2786 0.0100736 11.254 0.0280048 11.2359C0.0459361 11.2177 0.0702562 11.2075 0.0956148 11.2075C0.120973 11.2075 0.145293 11.2177 0.163225 11.2359C0.181156 11.254 0.19123 11.2786 0.19123 11.3043V26.4023H15.2027C15.2281 26.4023 15.2524 26.4125 15.2704 26.4307C15.2883 26.4488 15.2984 26.4734 15.2984 26.4991C15.2984 26.5248 15.2883 26.5494 15.2704 26.5675C15.2524 26.5857 15.2281 26.5959 15.2027 26.5959Z" fill="#3F3D56"/>
<path d="M60.801 12.8983H58.3737C58.2679 12.8982 58.1664 12.8556 58.0916 12.7799C58.0168 12.7041 57.9747 12.6015 57.9746 12.4944V8.9625C57.9747 8.85541 58.0168 8.75273 58.0916 8.67701C58.1664 8.60129 58.2679 8.5587 58.3737 8.55859H60.801C60.9068 8.55872 61.0082 8.60132 61.083 8.67704C61.1578 8.75276 61.1999 8.85542 61.2 8.9625V12.4944C61.1999 12.6015 61.1578 12.7041 61.083 12.7798C61.0082 12.8556 60.9068 12.8982 60.801 12.8983ZM58.3737 8.75216C58.3186 8.75222 58.2658 8.7744 58.2268 8.81384C58.1878 8.85327 58.1659 8.90673 58.1658 8.9625V12.4944C58.1659 12.5502 58.1878 12.6036 58.2268 12.6431C58.2658 12.6825 58.3186 12.7047 58.3737 12.7047H60.801C60.8561 12.7047 60.9089 12.6825 60.9479 12.643C60.9868 12.6036 61.0087 12.5501 61.0088 12.4944V8.9625C61.0087 8.90674 60.9868 8.85328 60.9479 8.81384C60.9089 8.77441 60.8561 8.75223 60.801 8.75216H58.3737Z" fill="#3F3D56"/>
<path d="M65.7727 12.8977H63.5386C63.4072 12.8976 63.2812 12.8447 63.1883 12.7506C63.0954 12.6566 63.0431 12.529 63.043 12.396V5.99875C63.0431 5.86574 63.0954 5.73822 63.1883 5.64417C63.2812 5.55012 63.4072 5.49722 63.5386 5.49707H65.7727C65.9042 5.49722 66.0301 5.55012 66.1231 5.64417C66.216 5.73822 66.2682 5.86574 66.2684 5.99875V12.396C66.2682 12.529 66.216 12.6566 66.1231 12.7506C66.0301 12.8447 65.9042 12.8976 65.7727 12.8977ZM63.5386 5.69063C63.4579 5.69072 63.3805 5.72321 63.3234 5.78098C63.2664 5.83874 63.2343 5.91706 63.2342 5.99875V12.396C63.2343 12.4777 63.2664 12.556 63.3234 12.6138C63.3805 12.6716 63.4579 12.7041 63.5386 12.7042H65.7727C65.8535 12.7041 65.9308 12.6716 65.9879 12.6138C66.045 12.556 66.0771 12.4777 66.0771 12.396V5.99875C66.0771 5.91706 66.045 5.83874 65.9879 5.78098C65.9308 5.72321 65.8535 5.69072 65.7727 5.69063H63.5386Z" fill="#3F3D56"/>
<path d="M60.4533 9.26514H58.6328V12.2596H60.4533V9.26514Z" fill="#715AFF"/>
<path d="M65.5646 6.30078H63.7441V12.0945H65.5646V6.30078Z" fill="#715AFF"/>
<path d="M59.5676 7.52968C60.0428 7.52968 60.4281 7.1397 60.4281 6.65864C60.4281 6.17758 60.0428 5.7876 59.5676 5.7876C59.0923 5.7876 58.707 6.17758 58.707 6.65864C58.707 7.1397 59.0923 7.52968 59.5676 7.52968Z" fill="#715AFF"/>
<path d="M64.6359 4.23915C65.1112 4.23915 65.4965 3.84917 65.4965 3.36811C65.4965 2.88705 65.1112 2.49707 64.6359 2.49707C64.1607 2.49707 63.7754 2.88705 63.7754 3.36811C63.7754 3.84917 64.1607 4.23915 64.6359 4.23915Z" fill="#715AFF"/>
</g>
<defs>
<clipPath id="clip0">
<rect width="75" height="71" fill="white"/>
</clipPath>
</defs>
</svg>
