<svg width="60" height="60" viewBox="0 0 60 60" fill="none" xmlns="http://www.w3.org/2000/svg">
<circle cx="30" cy="30" r="30" fill="#00A7D8"/>
<g clip-path="url(#clip0)">
<path d="M14.1707 39.1463L11.7927 40.6707L11.9146 40.8536L15.3903 40.9756L16.1829 42.1951L12.4025 41.8293C12.7683 42.7439 12.4634 43.4146 11.9146 44.0853C11.4878 44.6951 11 45.1829 10.6342 45.7927L9.90245 44.6951C10.1464 44.2683 10.5122 43.8414 10.8781 43.4146C11.4878 42.8049 11.7317 42.1951 11.2439 41.4024L11.061 41.1585L8.68294 42.7439L8.01221 41.7683L13.5 38.1707L14.1707 39.1463Z" fill="white"/>
<path d="M18.5001 48.3537C17.0976 50.061 15.2684 50.122 13.8659 48.9634C12.4635 47.7439 12.4635 45.9147 13.744 44.4512C15.0245 42.9268 16.9147 42.622 18.3781 43.8415C19.7806 45.061 19.7196 46.9512 18.5001 48.3537ZM14.7196 45.2439C13.8659 46.2805 13.683 47.5 14.5367 48.2317C15.4513 48.9634 16.6098 48.5976 17.5245 47.561C18.3172 46.5854 18.622 45.3049 17.7074 44.5732C16.7928 43.7805 15.5733 44.2073 14.7196 45.2439Z" fill="white"/>
<path d="M21.9756 46.4024L20.9999 48.8414L23.5609 49.878L24.5365 47.439L25.6341 47.8658L23.1951 53.9634L22.0975 53.5366L23.1951 50.8536L20.6341 49.8171L19.5365 52.5L18.439 52.0731L20.878 45.9756L21.9756 46.4024Z" fill="white"/>
<path d="M27.5245 49.0854L25.6343 48.9024L25.7562 47.9268L30.6953 48.4146L30.5733 49.3902L28.6831 49.2073L28.1343 54.7561L26.9148 54.6341L27.5245 49.0854Z" fill="white"/>
<path d="M32.0976 52.9268L31.7928 54.878L30.5732 55.061L31.7928 48.2927L33.3171 48.1097L36.3049 54.3293L35.0245 54.5122L34.1708 52.7439L32.0976 52.9268ZM33.8049 51.7683L33.0732 50.2439C32.8903 49.878 32.7074 49.4512 32.5854 49.0854C32.5245 49.4512 32.5245 49.939 32.4635 50.3658L32.1586 52.0122L33.8049 51.7683Z" fill="white"/>
<path d="M36.671 47.0732L37.8295 49.6341L38.0124 49.5732L38.7442 46.1585L40.0856 45.5488L39.11 49.2073C40.0856 48.9634 40.6954 49.3902 41.3051 50.061C41.7929 50.6097 42.2807 51.0975 42.7685 51.5854L41.61 52.0732C41.2442 51.7683 40.8783 51.3415 40.5124 50.9146C39.9637 50.3049 39.4149 49.878 38.5612 50.3049L38.3173 50.4268L39.4759 53.0488L38.3783 53.5366L35.7563 47.5L36.671 47.0732Z" fill="white"/>
<path d="M41.9145 45.3049L40.4511 46.4634L39.8413 45.6707L43.6828 42.561L44.2925 43.3537L42.8291 44.5732L46.3657 48.9024L45.4511 49.6341L41.9145 45.3049Z" fill="white"/>
<path d="M44.4149 41.6463L46.3661 42.9268C46.4271 42.7439 46.61 42.439 46.7319 42.2561C47.4637 41.1585 48.6832 40.4878 49.9027 41.2805C50.3905 41.5854 50.6954 42.0122 50.8173 42.5C51.0002 43.2927 50.6344 44.2683 50.0856 45.061C49.7197 45.6098 49.4149 45.9756 49.2319 46.2195L43.7441 42.622L44.4149 41.6463ZM47.2807 37.3171L52.7685 40.9146L52.0978 41.8902L46.61 38.2927L47.2807 37.3171ZM49.171 44.7561C49.2929 44.6341 49.4149 44.5122 49.5368 44.2683C49.9636 43.5976 50.0246 42.8049 49.2929 42.3171C48.5612 41.8293 47.8295 42.3171 47.4637 42.8659C47.3417 43.0488 47.2197 43.2317 47.1588 43.3537L49.171 44.7561Z" fill="white"/>
<path d="M6.42683 22.2561L8.62195 23.1097C9.59756 23.4756 10.5122 23.8414 11.3049 24.2073C10.7561 23.5975 10.1463 22.9268 9.59756 22.2561L7.46341 19.5731L7.89024 18.4146L14.0488 20.7927L13.622 21.8292L11.4268 20.9756C10.4512 20.6097 9.65854 20.3049 8.92683 19.939C9.53659 20.4878 10.1463 21.2195 10.6341 21.8292L12.6463 24.3902L12.1585 25.6097L6 23.2927L6.42683 22.2561Z" fill="white"/>
<path d="M9.53662 16.4634C9.5976 15.9146 9.78052 15.3049 10.3293 14.6341C11.122 13.5975 12.1586 13.3536 12.9513 13.9634C13.622 14.4512 13.683 15.2439 13.3781 15.9756C13.9878 15.3658 14.9025 15.1829 15.5732 15.7317C16.6708 16.5853 16.3049 17.9878 15.5122 18.9634C15.1464 19.4512 14.5976 19.939 13.9878 20.1829L13.4391 19.3902C13.8049 19.2683 14.3537 18.9024 14.7195 18.4146C15.2683 17.7439 15.2074 17.0732 14.7195 16.7073C14.0488 16.2195 13.3781 16.7073 12.9513 17.3171L12.6464 17.7439L11.9147 17.1951L12.2195 16.7683C12.7074 16.1585 12.7074 15.4878 12.2805 15.1219C11.8537 14.8171 11.3659 14.939 10.9391 15.4268C10.6342 15.8536 10.4513 16.4024 10.3903 16.7683L9.53662 16.4634Z" fill="white"/>
<path d="M16.8538 8.71954L17.4635 9.51223L15.1465 11.2195L16.0001 12.3781C16.183 12.1952 16.4269 12.0122 16.6099 11.8293C17.0977 11.4634 17.7684 11.1586 18.3172 11.1586C18.866 11.1586 19.4757 11.3415 19.9026 11.9513C20.2684 12.4391 20.3904 12.9878 20.3294 13.4756C20.2074 14.2683 19.5367 15 18.744 15.6098C18.1952 16.0366 17.7684 16.2805 17.5245 16.4025L13.6221 11.1586L16.8538 8.71954ZM17.9513 15C18.1343 14.9391 18.3172 14.8171 18.5001 14.6342C18.866 14.3903 19.1099 14.0244 19.1709 13.5976C19.2318 13.2927 19.1709 12.9878 18.9269 12.683C18.683 12.3781 18.3782 12.1952 18.0733 12.2561C17.7074 12.2561 17.3416 12.4391 17.0367 12.683C16.9148 12.8049 16.7318 12.9269 16.6099 13.0488L17.9513 15Z" fill="white"/>
<path d="M19.4756 7.37807C19.8414 7.13416 20.3902 6.89026 21.1219 6.58538C21.9146 6.28051 22.5853 6.21953 23.1341 6.40246C23.6219 6.58538 24.0488 6.95124 24.2317 7.56099C24.4756 8.17075 24.4756 8.71953 24.2317 9.14636C23.9268 9.75612 23.317 10.2439 22.5244 10.5488C22.3414 10.6098 22.0975 10.6707 21.9756 10.7317L22.8292 13.0488L21.7317 13.4756L19.4756 7.37807ZM21.6707 9.81709C21.7927 9.81709 22.0366 9.75612 22.2195 9.63416C23.0731 9.32929 23.439 8.71953 23.1341 7.98782C22.8902 7.31709 22.2805 7.13416 21.4878 7.43904C21.1829 7.56099 20.939 7.68294 20.878 7.74392L21.6707 9.81709Z" fill="white"/>
<path d="M26.9755 9.87805L26.6096 11.7683L25.3901 11.8902L26.7926 5.12195L28.317 5L31.1218 11.3415L29.8414 11.4634L29.0487 9.69512L26.9755 9.87805ZM28.7438 8.78049L28.0731 7.19512C27.8901 6.82927 27.7682 6.40244 27.6462 6.03659C27.5853 6.40244 27.5243 6.89024 27.4633 7.31707L27.0975 8.96341L28.7438 8.78049Z" fill="white"/>
<path d="M34.1098 5.2439L33.561 7.80488L36.3049 8.41463L36.8537 5.85366L38.0122 6.09756L36.6098 12.5L35.4513 12.2561L36.061 9.45122L33.3171 8.84146L32.7074 11.6463L31.5488 11.4024L32.9513 5L34.1098 5.2439Z" fill="white"/>
<path d="M41.9147 7.86586L40.5732 10.122L42.9512 11.5854L44.3537 9.32927L45.3903 9.93903L41.9756 15.5488L40.939 14.939L42.4634 12.439L40.0854 10.9756L38.561 13.4756L37.5244 12.8659L40.939 7.2561L41.9147 7.86586Z" fill="white"/>
<path d="M48.5 12.9878L46.6098 14.4512C46.7317 14.5732 46.9756 14.8171 47.0976 15C47.9512 16.0366 48.1951 17.439 46.9756 18.3537C46.4878 18.7195 46 18.8415 45.5732 18.7805C44.7195 18.7195 43.9269 17.9878 43.3781 17.2561C42.9512 16.7683 42.7073 16.2805 42.5244 16.0366L47.7073 12.0122L48.5 12.9878ZM44.0488 16.4634C44.1098 16.5854 44.2317 16.7683 44.3537 16.9512C44.8415 17.561 45.5732 17.8659 46.2439 17.3171C46.9147 16.7683 46.7317 15.9756 46.3049 15.4268C46.183 15.2439 46 15.061 45.939 15L44.0488 16.4634ZM51.6708 17.0732L46.4878 21.0976L45.7561 20.122L50.9391 16.0976L51.6708 17.0732Z" fill="white"/>
<path d="M50.7559 24.5732L49.9632 22.2561L48.1339 22.8659L49.0486 25.4878L48.1339 25.7927L46.7925 22.0732L53.012 19.8781L54.2925 23.4756L53.3778 23.7805L52.5242 21.2805L50.9388 21.8293L51.7315 24.1463L50.7559 24.5732Z" fill="white"/>
</g>
<path d="M35.8333 22.5H35V20.8333H33.3333V22.5H26.6667V20.8333H25V22.5H24.1667C23.2417 22.5 22.5 23.25 22.5 24.1666V35.8333C22.5 36.75 23.2417 37.5 24.1667 37.5H35.8333C36.75 37.5 37.5 36.75 37.5 35.8333V24.1666C37.5 23.25 36.75 22.5 35.8333 22.5ZM30 25C31.3833 25 32.5 26.1166 32.5 27.5C32.5 28.8833 31.3833 30 30 30C28.6167 30 27.5 28.8833 27.5 27.5C27.5 26.1166 28.6167 25 30 25ZM35 35H25V34.1666C25 32.5 28.3333 31.5833 30 31.5833C31.6667 31.5833 35 32.5 35 34.1666V35Z" fill="white"/>
<defs>
<clipPath id="clip0">
<rect width="48.2927" height="50" fill="white" transform="translate(6 5)"/>
</clipPath>
</defs>
</svg>
