<svg width="16" height="10" viewBox="0 0 16 10" fill="none" xmlns="http://www.w3.org/2000/svg">
<path d="M13.2767 5.6855C13.018 5.35883 13.092 5.2135 13.2767 4.9215C13.28 4.91816 15.4153 1.9675 15.6353 0.966829L15.6367 0.966163C15.746 0.601496 15.6367 0.333496 15.108 0.333496H13.3587C12.9133 0.333496 12.708 0.563496 12.598 0.820829C12.598 0.820829 11.7073 2.95283 10.4473 4.33483C10.0407 4.73416 9.85267 4.86216 9.63067 4.86216C9.52133 4.86216 9.35133 4.73416 9.35133 4.3695V0.966163C9.35133 0.528829 9.22667 0.333496 8.858 0.333496H6.10733C5.828 0.333496 5.662 0.537496 5.662 0.727496C5.662 1.14216 6.292 1.2375 6.35733 2.40416V4.9355C6.35733 5.49016 6.25667 5.59216 6.03333 5.59216C5.43867 5.59216 3.99533 3.4515 3.14 1.0015C2.96733 0.526163 2.79867 0.334163 2.35 0.334163H0.6C0.100667 0.334163 0 0.564163 0 0.821496C0 1.27616 0.594666 3.53683 2.76533 6.5235C4.212 8.56216 6.24933 9.66683 8.10267 9.66683C9.21667 9.66683 9.35267 9.4215 9.35267 8.9995C9.35267 7.0515 9.252 6.8675 9.81 6.8675C10.0687 6.8675 10.514 6.9955 11.554 7.97883C12.7427 9.14483 12.938 9.66683 13.6033 9.66683H15.3527C15.8513 9.66683 16.104 9.4215 15.9587 8.9375C15.626 7.9195 13.378 5.8255 13.2767 5.6855Z" fill="white"/>
</svg>
