<svg width="48" height="48" viewBox="0 0 48 48" fill="none" xmlns="http://www.w3.org/2000/svg">
<circle cx="24" cy="24" r="24" fill="#4692D8"/>
<g clip-path="url(#clip0)">
<path d="M29.2767 24.6855C29.018 24.3588 29.092 24.2135 29.2767 23.9215C29.28 23.9182 31.4153 20.9675 31.6353 19.9668L31.6367 19.9662C31.746 19.6015 31.6367 19.3335 31.108 19.3335H29.3587C28.9133 19.3335 28.708 19.5635 28.598 19.8208C28.598 19.8208 27.7073 21.9528 26.4473 23.3348C26.0407 23.7342 25.8527 23.8622 25.6307 23.8622C25.5213 23.8622 25.3513 23.7342 25.3513 23.3695V19.9662C25.3513 19.5288 25.2267 19.3335 24.858 19.3335H22.1073C21.828 19.3335 21.662 19.5375 21.662 19.7275C21.662 20.1422 22.292 20.2375 22.3573 21.4042V23.9355C22.3573 24.4902 22.2567 24.5922 22.0333 24.5922C21.4387 24.5922 19.9953 22.4515 19.14 20.0015C18.9673 19.5262 18.7987 19.3342 18.35 19.3342H16.6C16.1007 19.3342 16 19.5642 16 19.8215C16 20.2762 16.5947 22.5368 18.7653 25.5235C20.212 27.5622 22.2493 28.6668 24.1027 28.6668C25.2167 28.6668 25.3527 28.4215 25.3527 27.9995C25.3527 26.0515 25.252 25.8675 25.81 25.8675C26.0687 25.8675 26.514 25.9955 27.554 26.9788C28.7427 28.1448 28.938 28.6668 29.6033 28.6668H31.3527C31.8513 28.6668 32.104 28.4215 31.9587 27.9375C31.626 26.9195 29.378 24.8255 29.2767 24.6855Z" fill="white"/>
</g>
<defs>
<clipPath id="clip0">
<rect width="16" height="16" fill="white" transform="translate(16 16)"/>
</clipPath>
</defs>
</svg>
