<svg width="95" height="116" viewBox="0 0 95 116" fill="none" xmlns="http://www.w3.org/2000/svg">
<path d="M34.1799 73.1378C34.1799 67.4682 35.4644 62.9326 38.0335 59.5308C40.6026 56.129 45.3498 52.6706 52.2751 49.1554C58.0835 46.2072 61.8812 43.9394 63.6684 42.3519C65.4556 40.7644 66.3492 38.8935 66.3492 36.739V35.2082C66.3492 32.0332 64.7296 29.5953 61.4903 27.8944C58.251 26.0802 53.7831 25.173 48.0864 25.173C41.7196 25.173 36.6931 26.4203 33.0071 28.915C29.4327 31.4096 27.6455 34.8113 27.6455 39.1202V42.3519H0V39.1202C0 31.0694 1.89888 24.1525 5.69665 18.3695C9.60611 12.4731 15.1352 7.93744 22.2839 4.76246C29.4327 1.58749 37.866 0 47.5838 0C56.6314 0 64.7296 1.4174 71.8783 4.25219C79.1387 7.087 84.7795 11.0557 88.8007 16.1584C92.9336 21.1476 95 26.7605 95 32.9971V35.7185C95 40.8211 93.4921 45.3568 90.4762 49.3255C87.4603 53.2942 82.6573 57.0362 76.067 60.5513C71.264 63.0459 67.8571 64.9169 65.8466 66.1642C63.836 67.4115 62.4956 68.5455 61.8254 69.566C61.1552 70.4731 60.8201 71.6637 60.8201 73.1378V75.0088H34.1799V73.1378ZM47.5838 116C42.669 116 38.6479 114.469 35.5203 111.408C32.3927 108.233 30.8289 104.207 30.8289 99.3314C30.8289 94.4555 32.3927 90.5435 35.5203 87.5953C38.6479 84.5337 42.669 83.0029 47.5838 83.0029C52.4985 83.0029 56.5197 84.5337 59.6473 87.5953C62.7748 90.5435 64.3386 94.4555 64.3386 99.3314C64.3386 104.207 62.7748 108.233 59.6473 111.408C56.5197 114.469 52.4985 116 47.5838 116Z" fill="white"/>
</svg>
