<svg width="176" height="146" viewBox="0 0 176 146" fill="none" xmlns="http://www.w3.org/2000/svg">
<path fill-rule="evenodd" clip-rule="evenodd" d="M105 45L88.0001 25L68.5 45H7V145H169V45H105Z" fill="#F0C453"/>
<path d="M106 45H169V145H7V45H68" stroke="#17118B" stroke-width="2" stroke-miterlimit="10"/>
<path d="M0 64.9H48.5L88 24L123 65H176" stroke="#17118B" stroke-width="2" stroke-miterlimit="10"/>
<path d="M113 15H88V1H113L108 8L113 15Z" fill="#F0C453"/>
<path d="M113 15H88V1H113L108 8L113 15Z" stroke="#17118B" stroke-width="2" stroke-miterlimit="10"/>
<path d="M88 24V1" stroke="#17118B" stroke-width="2" stroke-miterlimit="10"/>
<path d="M23 77H13V99H23V77Z" fill="#00A7D8"/>
<path d="M23 77H13V99H23V77Z" stroke="#17118B" stroke-width="2" stroke-miterlimit="10"/>
<path d="M13 93H23" stroke="#17118B" stroke-width="2" stroke-miterlimit="10"/>
<path d="M43 77H33V99H43V77Z" fill="#00A7D8"/>
<path d="M43 77H33V99H43V77Z" stroke="#17118B" stroke-width="2" stroke-miterlimit="10"/>
<path d="M33 93H43" stroke="#17118B" stroke-width="2" stroke-miterlimit="10"/>
<path d="M63 77H53V99H63V77Z" fill="#00A7D8"/>
<path d="M63 77H53V99H63V77Z" stroke="#17118B" stroke-width="2" stroke-miterlimit="10"/>
<path d="M53 93H63" stroke="#17118B" stroke-width="2" stroke-miterlimit="10"/>
<path d="M83 77H73V99H83V77Z" fill="#00A7D8"/>
<path d="M83 77H73V99H83V77Z" stroke="#17118B" stroke-width="2" stroke-miterlimit="10"/>
<path d="M73 93H83" stroke="#17118B" stroke-width="2" stroke-miterlimit="10"/>
<path d="M103 77H93V99H103V77Z" fill="#00A7D8"/>
<path d="M103 77H93V99H103V77Z" stroke="#17118B" stroke-width="2" stroke-miterlimit="10"/>
<path d="M93 93H103" stroke="#17118B" stroke-width="2" stroke-miterlimit="10"/>
<path d="M123 77H113V99H123V77Z" fill="#00A7D8"/>
<path d="M123 77H113V99H123V77Z" stroke="#17118B" stroke-width="2" stroke-miterlimit="10"/>
<path d="M113 93H123" stroke="#17118B" stroke-width="2" stroke-miterlimit="10"/>
<path d="M143 77H133V99H143V77Z" fill="#00A7D8"/>
<path d="M143 77H133V99H143V77Z" stroke="#17118B" stroke-width="2" stroke-miterlimit="10"/>
<path d="M133 93H143" stroke="#17118B" stroke-width="2" stroke-miterlimit="10"/>
<path d="M163 77H153V99H163V77Z" fill="#00A7D8"/>
<path d="M163 77H153V99H163V77Z" stroke="#17118B" stroke-width="2" stroke-miterlimit="10"/>
<path d="M153 93H163" stroke="#17118B" stroke-width="2" stroke-miterlimit="10"/>
<path d="M23 111H13V133H23V111Z" fill="#00A7D8"/>
<path d="M23 111H13V133H23V111Z" stroke="#17118B" stroke-width="2" stroke-miterlimit="10"/>
<path d="M13 127H23" stroke="#17118B" stroke-width="2" stroke-miterlimit="10"/>
<path d="M43 111H33V133H43V111Z" fill="#00A7D8"/>
<path d="M43 111H33V133H43V111Z" stroke="#17118B" stroke-width="2" stroke-miterlimit="10"/>
<path d="M33 127H43" stroke="#17118B" stroke-width="2" stroke-miterlimit="10"/>
<path d="M63 111H53V133H63V111Z" fill="#00A7D8"/>
<path d="M63 111H53V133H63V111Z" stroke="#17118B" stroke-width="2" stroke-miterlimit="10"/>
<path d="M53 127H63" stroke="#17118B" stroke-width="2" stroke-miterlimit="10"/>
<path d="M123 111H113V133H123V111Z" fill="#00A7D8"/>
<path d="M123 111H113V133H123V111Z" stroke="#17118B" stroke-width="2" stroke-miterlimit="10"/>
<path d="M113 127H123" stroke="#17118B" stroke-width="2" stroke-miterlimit="10"/>
<path d="M143 111H133V133H143V111Z" fill="#00A7D8"/>
<path d="M143 111H133V133H143V111Z" stroke="#17118B" stroke-width="2" stroke-miterlimit="10"/>
<path d="M133 127H143" stroke="#17118B" stroke-width="2" stroke-miterlimit="10"/>
<path d="M163 111H153V133H163V111Z" fill="#00A7D8"/>
<path d="M163 111H153V133H163V111Z" stroke="#17118B" stroke-width="2" stroke-miterlimit="10"/>
<path d="M153 127H163" stroke="#17118B" stroke-width="2" stroke-miterlimit="10"/>
<path d="M88 58C92.4183 58 96 54.4183 96 50C96 45.5817 92.4183 42 88 42C83.5817 42 80 45.5817 80 50C80 54.4183 83.5817 58 88 58Z" stroke="#17118B" stroke-width="2" stroke-miterlimit="10"/>
<path d="M88 42V58" stroke="#17118B" stroke-width="2" stroke-miterlimit="10"/>
<path d="M96 50.5H80" stroke="#17118B" stroke-width="2" stroke-miterlimit="10"/>
<path d="M103 111H73V145H103V111Z" stroke="#17118B" stroke-width="2" stroke-miterlimit="10"/>
<path d="M88 145V111" stroke="#17118B" stroke-width="2" stroke-miterlimit="10"/>
</svg>
