<svg width="30" height="22" viewBox="0 0 30 22" fill="none" xmlns="http://www.w3.org/2000/svg">
<path d="M29.2392 0.361816H22.9507C22.5322 0.361816 22.1899 0.704175 22.1899 1.12261V2.07808C22.1899 2.49652 22.5322 2.83887 22.9507 2.83887H24.5446C24.5489 2.84277 19.7253 15.4744 19.7253 15.4744L17.1266 9.63012C17.1266 9.63012 20.5388 2.85723 20.5511 2.83878H21.2705C21.689 2.83878 22.0313 2.49642 22.0313 2.07798V1.12261C22.0313 0.704175 21.689 0.361816 21.2705 0.361816H16.5987C16.1802 0.361816 15.8379 0.704175 15.8379 1.12261V2.07808C15.8379 2.49652 16.1802 2.83887 16.5987 2.83887H17.25C17.2215 2.93207 15.6756 6.36174 15.6756 6.36174C15.6756 6.36174 14.208 3.07377 14.1142 2.83887H14.2776C14.6961 2.83887 15.0384 2.49652 15.0384 2.07808V1.12261C15.0384 0.704175 14.6961 0.361816 14.2776 0.361816H9.32051C8.90208 0.361816 8.55972 0.704175 8.55972 1.12261V2.07808C8.55972 2.49652 8.90208 2.83887 9.32051 2.83887H9.98431C10.1136 3.03173 13.3899 10.2116 13.6402 10.8184L11.505 15.4969C10.2793 12.6389 7.34064 5.74882 6.34485 3.08024C6.30852 2.98523 6.28208 2.9063 6.26154 2.83887H7.63934C8.05778 2.83887 8.40014 2.49652 8.40014 2.07808V1.12261C8.40014 0.704175 8.05778 0.361816 7.63934 0.361816H0.760796C0.342358 0.361816 0 0.704175 0 1.12261V2.07808C0 2.49652 0.342358 2.83887 0.760796 2.83887H1.95857C2.02448 2.91315 4.69421 9.40825 5.99003 12.4462C7.18734 15.2528 8.42525 18.1548 9.22655 20.2324C9.22808 20.2365 9.22969 20.2405 9.23131 20.2445C9.37168 20.5893 9.79858 21.6388 10.7318 21.6388C11.5325 21.6388 12.0338 20.857 12.3413 20.269C12.344 20.2637 12.347 20.2581 12.3496 20.2525C12.9943 18.9375 14.1589 16.3438 15.0729 14.2839C16.2738 17.1778 17.1146 19.1679 17.5757 20.2086C17.7282 20.5552 18.192 21.6102 19.1189 21.6103H19.1191C20.0202 21.6103 20.5031 20.5982 20.6617 20.2658C20.6675 20.2536 20.6728 20.2413 20.6781 20.2289C22.3029 16.2594 27.0733 4.25966 27.1213 4.13888C27.1249 4.12966 27.1285 4.12043 27.1317 4.11102C27.2974 3.63761 27.5176 3.28289 27.802 3.02917C27.8867 2.95432 27.9933 2.89137 28.1184 2.83878H29.2392C29.6576 2.83878 30 2.49642 30 2.07798V1.12261C30 0.704175 29.6576 0.361816 29.2392 0.361816Z" fill="#98B1BE"/>
</svg>
