<svg width="48" height="48" viewBox="0 0 48 48" fill="none" xmlns="http://www.w3.org/2000/svg">
<circle cx="24" cy="24" r="24" fill="#03A9F4"/>
<g clip-path="url(#clip0)">
<path d="M32 19.039C31.405 19.3 30.771 19.473 30.11 19.557C30.79 19.151 31.309 18.513 31.553 17.744C30.919 18.122 30.219 18.389 29.473 18.538C28.871 17.897 28.013 17.5 27.077 17.5C25.261 17.5 23.799 18.974 23.799 20.781C23.799 21.041 23.821 21.291 23.875 21.529C21.148 21.396 18.735 20.089 17.114 18.098C16.831 18.589 16.665 19.151 16.665 19.756C16.665 20.892 17.25 21.899 18.122 22.482C17.595 22.472 17.078 22.319 16.64 22.078C16.64 22.088 16.64 22.101 16.64 22.114C16.64 23.708 17.777 25.032 19.268 25.337C19.001 25.41 18.71 25.445 18.408 25.445C18.198 25.445 17.986 25.433 17.787 25.389C18.212 26.688 19.418 27.643 20.852 27.674C19.736 28.547 18.319 29.073 16.785 29.073C16.516 29.073 16.258 29.061 16 29.028C17.453 29.965 19.175 30.5 21.032 30.5C27.068 30.5 30.368 25.5 30.368 21.166C30.368 21.021 30.363 20.881 30.356 20.742C31.007 20.28 31.554 19.703 32 19.039Z" fill="white"/>
</g>
<defs>
<clipPath id="clip0">
<rect width="16" height="16" fill="white" transform="translate(16 16)"/>
</clipPath>
</defs>
</svg>
