<svg width="48" height="48" viewBox="0 0 48 48" fill="none" xmlns="http://www.w3.org/2000/svg">
<circle cx="24" cy="24" r="24" fill="#007AB9"/>
<path d="M32 25.7291V31.6444H28.5707V26.1253C28.5707 24.7388 28.0747 23.7926 26.8334 23.7926C25.8858 23.7926 25.3219 24.4303 25.0738 25.0471C24.9833 25.2676 24.9601 25.5746 24.9601 25.8833V31.6444H21.5296C21.5296 31.6444 21.5758 22.2968 21.5296 21.3283H24.9597V22.7906C24.9528 22.8015 24.9437 22.8133 24.9372 22.8239H24.9597V22.7906C25.4154 22.0887 26.2293 21.086 28.051 21.086C30.308 21.0859 32 22.5604 32 25.7291ZM17.9412 16.3555C16.7676 16.3555 16 17.1252 16 18.1375C16 19.1277 16.7454 19.9208 17.8956 19.9208H17.9185C19.1148 19.9208 19.8588 19.1278 19.8588 18.1375C19.8363 17.1252 19.1148 16.3555 17.9412 16.3555ZM16.2037 31.6444H19.6329V21.3283H16.2037V31.6444Z" fill="white"/>
</svg>
