<svg width="16" height="16" viewBox="0 0 16 16" fill="none" xmlns="http://www.w3.org/2000/svg">
<path fill-rule="evenodd" clip-rule="evenodd" d="M7.24234 14.2427C7.24234 14.795 7.69005 15.2427 8.24234 15.2427C8.79462 15.2427 9.24234 14.795 9.24234 14.2427L9.24234 9.24267H14.2423C14.7946 9.24267 15.2423 8.79495 15.2423 8.24267C15.2423 7.69038 14.7946 7.24267 14.2423 7.24267H9.24234L9.24234 2.24268C9.24234 1.69039 8.79462 1.24268 8.24234 1.24268C7.69005 1.24268 7.24234 1.69039 7.24234 2.24268L7.24234 7.24267L2.24235 7.24267C1.69006 7.24267 1.24235 7.69038 1.24235 8.24267C1.24235 8.79495 1.69006 9.24267 2.24235 9.24267L7.24234 9.24267L7.24234 14.2427Z" fill="#43B052"/>
</svg>
