<svg width="48" height="48" viewBox="0 0 48 48" fill="none" xmlns="http://www.w3.org/2000/svg">
<circle cx="24" cy="24" r="24" fill="#98B1BE"/>
<g clip-path="url(#clip0)">
<path d="M30.9009 17.0984C29.4364 15.6339 27.0621 15.6339 25.5976 17.0983L22.4634 20.2325C20.9486 21.7474 21.0889 24.1612 22.4634 25.5358C22.6936 25.766 22.9483 25.9537 23.2173 26.1079L23.7893 25.5358C24.1645 25.1606 24.0324 24.7219 24.0257 24.4054C23.9433 24.347 23.8632 24.2839 23.7893 24.21C23.0839 23.5047 23.0522 22.2955 23.7893 21.5583C23.8988 21.4489 26.857 18.4907 26.9234 18.4242C27.6546 17.693 28.8439 17.693 29.5751 18.4242C30.3063 19.1554 30.3063 20.3447 29.5751 21.0759L27.5034 23.1475C27.5633 23.479 27.9229 24.2642 27.7379 25.5594C27.7469 25.5506 27.7578 25.5448 27.7668 25.5359L30.9009 22.4017C32.3654 20.9372 32.3654 18.5629 30.9009 17.0984Z" fill="white"/>
<path d="M25.779 22.2214C25.5489 21.9913 25.2942 21.8036 25.0253 21.6494L24.4533 22.2214C24.078 22.5966 24.2101 23.0353 24.2168 23.3518C24.2992 23.4102 24.3793 23.4733 24.4533 23.5472C25.1587 24.2526 25.1904 25.4618 24.4533 26.1989C24.3435 26.3086 21.1403 29.5119 21.0762 29.5759C20.345 30.3072 19.1558 30.3072 18.4245 29.5759C17.6933 28.8447 17.6933 27.6555 18.4245 26.9243L20.7391 24.6097C20.6792 24.2782 20.3197 23.493 20.5046 22.1978C20.4956 22.2067 20.4847 22.2124 20.4757 22.2214L17.0987 25.5985C15.6343 27.063 15.6343 29.4373 17.0987 30.9018C18.5632 32.3663 20.9375 32.3663 22.402 30.9018L25.779 27.5248C27.2658 26.038 27.1845 23.6269 25.779 22.2214Z" fill="white"/>
</g>
<defs>
<clipPath id="clip0">
<rect width="16" height="16" fill="white" transform="translate(16 16)"/>
</clipPath>
</defs>
</svg>
