<svg width="262" height="113" viewBox="0 0 262 113" fill="none" xmlns="http://www.w3.org/2000/svg">
<rect x="1" y="38" width="142" height="74" fill="#ffffff"/>
<rect width="118" height="68" transform="matrix(-1 0 0 1 261 44)" fill="#ffffff"/>
<path d="M143 39H1V112H143V39Z" stroke="#17118B" stroke-width="2" stroke-miterlimit="10"/>
<path d="M49.9999 50.8H16.3999V72.8H49.9999V50.8Z" fill="#00A7D8"/>
<path d="M49.9999 50.8H16.3999V72.8H49.9999V50.8Z" stroke="#17118B" stroke-width="2" stroke-miterlimit="10"/>
<path d="M16.3999 66.8H49.9999" stroke="#17118B" stroke-width="2" stroke-miterlimit="10"/>
<path d="M89.9999 50.8H56.3999V72.8H89.9999V50.8Z" fill="#00A7D8"/>
<path d="M89.9999 50.8H56.3999V72.8H89.9999V50.8Z" stroke="#17118B" stroke-width="2" stroke-miterlimit="10"/>
<path d="M56.3999 66.8H89.9999" stroke="#17118B" stroke-width="2" stroke-miterlimit="10"/>
<path d="M130 50.8H96.3999V72.8H130V50.8Z" fill="#00A7D8"/>
<path d="M130 50.8H96.3999V72.8H130V50.8Z" stroke="#17118B" stroke-width="2" stroke-miterlimit="10"/>
<path d="M96.3999 66.8H130" stroke="#17118B" stroke-width="2" stroke-miterlimit="10"/>
<path d="M49.9999 80.8H16.3999V102.8H49.9999V80.8Z" fill="#00A7D8"/>
<path d="M49.9999 80.8H16.3999V102.8H49.9999V80.8Z" stroke="#17118B" stroke-width="2" stroke-miterlimit="10"/>
<path d="M16.3999 96.8H49.9999" stroke="#17118B" stroke-width="2" stroke-miterlimit="10"/>
<path d="M89.9999 80.8H56.3999V112H89.9999V80.8Z" stroke="#17118B" stroke-width="2" stroke-miterlimit="10"/>
<path d="M130 80.8H96.3999V102.8H130V80.8Z" fill="#00A7D8"/>
<path d="M130 80.8H96.3999V102.8H130V80.8Z" stroke="#17118B" stroke-width="2" stroke-miterlimit="10"/>
<path d="M96.3999 96.8H130" stroke="#17118B" stroke-width="2" stroke-miterlimit="10"/>
<path d="M73 81V112" stroke="#17118B" stroke-width="2" stroke-miterlimit="10"/>
<path d="M150 112V73" stroke="#17118B" stroke-width="2" stroke-miterlimit="10"/>
<path d="M146 78H153.7C157.1 78 160.1 80.3 160.9 83.6C162.6 90.4 167.5 101.2 181.3 102.8C183.4 103.1 185 104.9 185 107.1V112.1" stroke="#17118B" stroke-width="2" stroke-miterlimit="10"/>
<path d="M150 108H185" stroke="#17118B" stroke-width="2" stroke-miterlimit="10"/>
<path d="M195 112L199 73H203L208 112" stroke="#17118B" stroke-width="2" stroke-miterlimit="10"/>
<path d="M234 112L238 73H242L247 112" stroke="#17118B" stroke-width="2" stroke-miterlimit="10"/>
<path d="M199 77H242" stroke="#17118B" stroke-width="2" stroke-miterlimit="10"/>
<path d="M216 105L218.7 77H222.2L224 105" stroke="#17118B" stroke-width="2" stroke-miterlimit="10"/>
<path d="M214 105H226" stroke="#17118B" stroke-width="2" stroke-miterlimit="10"/>
<path d="M143 44H261" stroke="#17118B" stroke-width="2" stroke-miterlimit="10"/>
<path d="M261 44V113" stroke="#17118B" stroke-width="2" stroke-miterlimit="10"/>
<path d="M148.5 55C146 55 144 53 144 50.5V44H153V50.5C153 53 151 55 148.5 55Z" stroke="#17118B" stroke-width="2" stroke-miterlimit="10"/>
<path d="M157.5 55C155 55 153 53 153 50.5V44H162V50.5C162 53 160 55 157.5 55Z" stroke="#17118B" stroke-width="2" stroke-miterlimit="10"/>
<path d="M166.5 55C164 55 162 53 162 50.5V44H171V50.5C171 53 169 55 166.5 55Z" stroke="#17118B" stroke-width="2" stroke-miterlimit="10"/>
<path d="M175.5 55C173 55 171 53 171 50.5V44H180V50.5C180 53 178 55 175.5 55Z" stroke="#17118B" stroke-width="2" stroke-miterlimit="10"/>
<path d="M184.5 55C182 55 180 53 180 50.5V44H189V50.5C189 53 187 55 184.5 55Z" stroke="#17118B" stroke-width="2" stroke-miterlimit="10"/>
<path d="M193.5 55C191 55 189 53 189 50.5V44H198V50.5C198 53 196 55 193.5 55Z" stroke="#17118B" stroke-width="2" stroke-miterlimit="10"/>
<path d="M202.5 55C200 55 198 53 198 50.5V44H207V50.5C207 53 205 55 202.5 55Z" stroke="#17118B" stroke-width="2" stroke-miterlimit="10"/>
<path d="M211.5 55C209 55 207 53 207 50.5V44H216V50.5C216 53 214 55 211.5 55Z" stroke="#17118B" stroke-width="2" stroke-miterlimit="10"/>
<path d="M220.5 55C218 55 216 53 216 50.5V44H225V50.5C225 53 223 55 220.5 55Z" stroke="#17118B" stroke-width="2" stroke-miterlimit="10"/>
<path d="M229.5 55C227 55 225 53 225 50.5V44H234V50.5C234 53 232 55 229.5 55Z" stroke="#17118B" stroke-width="2" stroke-miterlimit="10"/>
<path d="M238.5 55C236 55 234 53 234 50.5V44H243V50.5C243 53 241 55 238.5 55Z" stroke="#17118B" stroke-width="2" stroke-miterlimit="10"/>
<path d="M247.5 55C245 55 243 53 243 50.5V44H252V50.5C252 53 250 55 247.5 55Z" stroke="#17118B" stroke-width="2" stroke-miterlimit="10"/>
<path d="M256.5 55C254 55 252 53 252 50.5V44H261V50.5C261 53 259 55 256.5 55Z" stroke="#17118B" stroke-width="2" stroke-miterlimit="10"/>
<path d="M50 38.5C50 25.8 60.3 15.5 73 15.5C85.7 15.5 96 25.8 96 38.5" fill="#ffffff"/>
<path d="M50 38.5C50 25.8 60.3 15.5 73 15.5C85.7 15.5 96 25.8 96 38.5" stroke="#17118B" stroke-width="2" stroke-miterlimit="10"/>
<path d="M50 38.5C50 25.8 60.3 15.5 73 15.5C85.7 15.5 96 25.8 96 38.5" stroke="#17118B" stroke-width="2" stroke-miterlimit="10"/>
<path d="M73 2V16" stroke="#17118B" stroke-width="2" stroke-miterlimit="10"/>
<path d="M73 1H87L84 5L87 9H73V1Z" fill="#ffffff" stroke="#17118B" stroke-width="2" stroke-miterlimit="10"/>
<path d="M73 1H87L84 5L87 9H73V1Z" stroke="#17118B" stroke-width="2" stroke-miterlimit="10"/>
<path d="M17 25V39" stroke="#17118B" stroke-width="2" stroke-miterlimit="10"/>
<path d="M17 24H31L28 28L31 32H17V24Z" fill="#ffffff" stroke="#17118B" stroke-width="2" stroke-miterlimit="10"/>
<path d="M17 24H31L28 28L31 32H17V24Z" stroke="#17118B" stroke-width="2" stroke-miterlimit="10"/>
<path d="M120 25V39" stroke="#17118B" stroke-width="2" stroke-miterlimit="10"/>
<path d="M120 24H134L131 28L134 32H120V24Z" fill="#ffffff"/>
<path d="M120 24H134L131 28L134 32H120V24Z" stroke="#17118B" stroke-width="2" stroke-miterlimit="10"/>
<path d="M143 112H261" stroke="#17118B" stroke-width="2" stroke-miterlimit="10"/>
</svg>
