<svg width="239" height="78" viewBox="0 0 239 78" fill="none" xmlns="http://www.w3.org/2000/svg">
<path d="M206.904 76.9998H94.9041V21.9998L152.904 14.9998L206.904 21.9998V76.9998Z" fill="#715AFF"/>
<path d="M206.904 76.9998H94.9041V21.9998L152.904 14.9998L206.904 21.9998V76.9998Z" stroke="#17118B" stroke-width="2" stroke-miterlimit="10"/>
<path d="M31.9041 3.9998C31.9041 3.9998 10.9041 -3.0002 6.90412 8.9998C2.90412 20.9998 -4.09588 25.9998 6.90412 39.9998C17.9041 53.9998 25.9041 45.9998 31.9041 45.9998C37.9041 45.9998 61.9041 31.9998 52.9041 22.9998C43.9041 13.9998 41.9041 -1.0002 31.9041 3.9998Z" fill="#715AFF"/>
<path d="M31.9041 3.9998C31.9041 3.9998 10.9041 -3.0002 6.90412 8.9998C2.90412 20.9998 -4.09588 25.9998 6.90412 39.9998C17.9041 53.9998 25.9041 45.9998 31.9041 45.9998C37.9041 45.9998 61.9041 31.9998 52.9041 22.9998C43.9041 13.9998 41.9041 -1.0002 31.9041 3.9998Z" stroke="#17118B" stroke-width="2" stroke-miterlimit="10"/>
<path d="M27.9041 76.9998V28.9998L17.4041 18.4998" stroke="#17118B" stroke-width="2" stroke-miterlimit="10"/>
<path d="M27.9041 37.9998L38.4041 27.4998" stroke="#17118B" stroke-width="2" stroke-miterlimit="10"/>
<path d="M84.9041 76.9998H36.9041V68.6998C36.9041 59.4998 44.4041 51.9998 53.6041 51.9998H68.204C77.404 51.9998 84.9041 59.4998 84.9041 68.6998V76.9998V76.9998Z" stroke="#17118B" stroke-width="2" stroke-miterlimit="10"/>
<path d="M48.7041 76.9999V62.9999L52.8041 58.8999" stroke="#17118B" stroke-width="2" stroke-miterlimit="10"/>
<path d="M58.7041 76.9999V62.9999L62.8041 58.8999" stroke="#17118B" stroke-width="2" stroke-miterlimit="10"/>
<path d="M68.7041 76.9999V62.9999L72.8041 58.8999" stroke="#17118B" stroke-width="2" stroke-miterlimit="10"/>
<path d="M88.9041 29.9998H212.904" stroke="#17118B" stroke-width="2" stroke-miterlimit="10"/>
<path d="M196.904 47.9998H128.904V76.9998H196.904V47.9998Z" stroke="#17118B" stroke-width="2" stroke-miterlimit="10"/>
<path d="M113.904 47.9998H103.904V65.9998H113.904V47.9998Z" fill="#00A7D8"/>
<path d="M113.904 47.9998H103.904V65.9998H113.904V47.9998Z" stroke="#17118B" stroke-width="2" stroke-miterlimit="10"/>
<path d="M103.904 53.9998H113.904" stroke="#17118B" stroke-width="2" stroke-miterlimit="10"/>
<path d="M128.904 52.9998H196.904" stroke="#17118B" stroke-width="2" stroke-miterlimit="10"/>
<path d="M128.904 57.9998H196.904" stroke="#17118B" stroke-width="2" stroke-miterlimit="10"/>
<path d="M128.904 62.9998H196.904" stroke="#17118B" stroke-width="2" stroke-miterlimit="10"/>
<path d="M128.904 67.9998H196.904" stroke="#17118B" stroke-width="2" stroke-miterlimit="10"/>
<path d="M128.904 72.9998H196.904" stroke="#17118B" stroke-width="2" stroke-miterlimit="10"/>
<path d="M196.904 35.9998H103.904V41.9998H196.904V35.9998Z" fill="#00A7D8"/>
<path d="M196.904 35.9998H103.904V41.9998H196.904V35.9998Z" stroke="#17118B" stroke-width="2" stroke-miterlimit="10"/>
<path d="M113.904 35.9998V41.9998" stroke="#17118B" stroke-width="2" stroke-miterlimit="10"/>
<path d="M186.904 35.9998V41.9998" stroke="#17118B" stroke-width="2" stroke-miterlimit="10"/>
<path d="M231.304 50.6997C235.804 49.3997 238.504 44.4997 236.904 39.9997C235.904 37.0997 233.804 34.3997 229.904 33.9997C220.904 32.9997 215.904 37.9997 218.904 40.9997C221.904 43.9997 214.904 51.9997 222.904 51.9997C226.004 51.9997 228.904 51.3997 231.304 50.6997Z" fill="#715AFF"/>
<path d="M231.304 50.6997C235.804 49.3997 238.504 44.4997 236.904 39.9997C235.904 37.0997 233.804 34.3997 229.904 33.9997C220.904 32.9997 215.904 37.9997 218.904 40.9997C221.904 43.9997 214.904 51.9997 222.904 51.9997C226.004 51.9997 228.904 51.3997 231.304 50.6997Z" stroke="#17118B" stroke-width="2" stroke-miterlimit="10"/>
<path d="M227.904 76.9998V42.9998L231.904 38.9998" stroke="#17118B" stroke-width="2" stroke-miterlimit="10"/>
<line x1="26.9043" y1="77" x2="228.904" y2="77" stroke="#17118B" stroke-width="2"/>
</svg>
