<svg width="16" height="16" viewBox="0 0 16 16" fill="none" xmlns="http://www.w3.org/2000/svg">
<path d="M3.75 8.00012C3.75 7.2074 3.96841 6.4648 4.34784 5.82896V3.13184H1.65072C0.58025 4.52209 0 6.21643 0 8.00012C0 9.7838 0.58025 11.4781 1.65072 12.8684H4.34784V10.1713C3.96841 9.53543 3.75 8.79284 3.75 8.00012V8.00012Z" fill="white"/>
<path d="M8 12.25L6.125 14.125L8 16C9.78372 16 11.478 15.4197 12.8683 14.3493V11.655H10.174C9.53263 12.0358 8.78691 12.25 8 12.25V12.25Z" fill="white"/>
<path d="M4.34782 10.1711L1.6507 12.8683C1.86263 13.1435 2.09341 13.4071 2.34313 13.6569C3.85413 15.1678 5.8631 16 7.99998 16V12.25C6.44923 12.25 5.09007 11.415 4.34782 10.1711Z" fill="white"/>
<path d="M16 8.00013C16 7.51341 15.9559 7.02579 15.869 6.55085L15.7987 6.1665H8V9.9165H11.7954C11.4268 10.6497 10.8601 11.2478 10.174 11.6552L12.8682 14.3494C13.1435 14.1375 13.4071 13.9067 13.6568 13.657C15.1678 12.146 16 10.137 16 8.00013V8.00013Z" fill="white"/>
<path d="M11.0052 4.99478L11.3367 5.32622L13.9883 2.67459L13.6569 2.34316C12.1459 0.832156 10.1369 0 8 0L6.125 1.875L8 3.75C9.13519 3.75 10.2025 4.19206 11.0052 4.99478Z" fill="white"/>
<path d="M7.99995 3.75V0C5.86307 0 3.8541 0.832156 2.34307 2.34313C2.09335 2.59284 1.86257 2.85644 1.65063 3.13172L4.34776 5.82884C5.09004 4.585 6.4492 3.75 7.99995 3.75V3.75Z" fill="white"/>
</svg>
