<svg width="20" height="20" viewBox="0 0 20 20" fill="none" xmlns="http://www.w3.org/2000/svg">
<path d="M19.5381 12.63L17.4281 10.975C17.4681 10.655 17.4981 10.33 17.4981 9.99998C17.4981 9.66998 17.4681 9.34499 17.4281 9.02498L19.5431 7.36996C19.7331 7.21996 19.7881 6.94996 19.6631 6.72998L17.6631 3.26498C17.5381 3.04997 17.2781 2.95997 17.0531 3.04997L14.5631 4.05497C14.0481 3.65995 13.4831 3.32498 12.8731 3.06998L12.4981 0.42C12.4531 0.185015 12.2481 0 11.9981 0H7.99815C7.74816 0 7.54313 0.185015 7.50315 0.42L7.12815 3.06998C6.51816 3.32498 5.95313 3.65498 5.43816 4.05497L2.94817 3.04997C2.72317 2.96498 2.46315 3.04997 2.33818 3.26498L0.338121 6.72998C0.213106 6.94499 0.268137 7.21499 0.458121 7.36996L2.5681 9.02498C2.52812 9.34499 2.49812 9.66998 2.49812 9.99998C2.49812 10.33 2.52812 10.655 2.5681 10.975L0.458121 12.63C0.268137 12.78 0.213106 13.05 0.338121 13.27L2.33814 16.735C2.46315 16.95 2.72312 17.04 2.94812 16.95L5.43812 15.945C5.95313 16.34 6.51812 16.675 7.1281 16.93L7.5031 19.58C7.54308 19.8149 7.74812 20 7.9981 20H11.9981C12.2481 20 12.4531 19.8149 12.4931 19.58L12.8681 16.93C13.4781 16.675 14.0431 16.345 14.5581 15.945L17.0481 16.95C17.2731 17.035 17.5331 16.95 17.658 16.735L19.6581 13.27C19.7831 13.055 19.7281 12.785 19.5381 12.63ZM9.99811 13.5C8.06312 13.5 6.4981 11.935 6.4981 9.99998C6.4981 8.06498 8.06312 6.50001 9.99811 6.50001C11.9331 6.50001 13.4981 8.06503 13.4981 10C13.4981 11.935 11.9331 13.5 9.99811 13.5Z" />
</svg>
