<svg width="48" height="48" viewBox="0 0 48 48" fill="none" xmlns="http://www.w3.org/2000/svg">
<circle cx="24" cy="24" r="24" fill="#007AB9"/>
<path d="M32 25.7293V31.6446H28.5707V26.1255C28.5707 24.7391 28.0747 23.7929 26.8334 23.7929C25.8858 23.7929 25.3219 24.4305 25.0738 25.0474C24.9833 25.2679 24.9601 25.5748 24.9601 25.8835V31.6446H21.5296C21.5296 31.6446 21.5758 22.2971 21.5296 21.3286H24.9597V22.7908C24.9528 22.8018 24.9437 22.8136 24.9372 22.8242H24.9597V22.7908C25.4154 22.0889 26.2293 21.0862 28.051 21.0862C30.308 21.0862 32 22.5606 32 25.7293ZM17.9412 16.3557C16.7676 16.3557 16 17.1255 16 18.1377C16 19.1279 16.7454 19.9211 17.8956 19.9211H17.9185C19.1148 19.9211 19.8588 19.1281 19.8588 18.1377C19.8363 17.1255 19.1148 16.3557 17.9412 16.3557ZM16.2037 31.6446H19.6329V21.3286H16.2037V31.6446Z" fill="white"/>
</svg>
