<svg width="36" height="32" viewBox="0 0 36 32" fill="none" xmlns="http://www.w3.org/2000/svg">
<path d="M32.8359 6.50781H26.7396L25.9538 2.57854C25.7573 1.59599 24.8874 0.882812 23.8854 0.882812H12.1146C11.1127 0.882812 10.2427 1.59599 10.0463 2.57854L9.26037 6.50781H3.16406C1.4194 6.50781 0 7.92721 0 9.67188V27.9531C0 29.6978 1.4194 31.1172 3.16406 31.1172H32.8359C34.5806 31.1172 36 29.6978 36 27.9531V9.67188C36 7.92721 34.5806 6.50781 32.8359 6.50781ZM12.1146 2.99219H23.8854L24.5885 6.50781H11.4115L12.1146 2.99219ZM33.8906 27.9531C33.8906 28.5347 33.4175 29.0078 32.8359 29.0078H3.16406C2.58251 29.0078 2.10938 28.5347 2.10938 27.9531V9.67188C2.10938 9.09032 2.58251 8.61719 3.16406 8.61719H32.8359C33.4175 8.61719 33.8906 9.09032 33.8906 9.67188V27.9531Z" fill="#00A7D8"/>
<path d="M18 11.0078C13.6965 11.0078 10.1953 14.509 10.1953 18.8125C10.1953 23.116 13.6965 26.6172 18 26.6172C22.3035 26.6172 25.8047 23.116 25.8047 18.8125C25.8047 14.509 22.3035 11.0078 18 11.0078ZM18 24.5078C14.8596 24.5078 12.3047 21.9529 12.3047 18.8125C12.3047 15.6721 14.8596 13.1172 18 13.1172C21.1404 13.1172 23.6953 15.6721 23.6953 18.8125C23.6953 21.9529 21.1404 24.5078 18 24.5078Z" fill="#00A7D8"/>
<path d="M9 11.0078H5.625C5.04253 11.0078 4.57031 11.48 4.57031 12.0625C4.57031 12.645 5.04253 13.1172 5.625 13.1172H9C9.58247 13.1172 10.0547 12.645 10.0547 12.0625C10.0547 11.48 9.58247 11.0078 9 11.0078Z" fill="#00A7D8"/>
</svg>
