<?xml version="1.0" encoding="UTF-8"?>
<svg xmlns="http://www.w3.org/2000/svg" width="23" height="22" viewBox="0 0 23 22" fill="none"> <path fill-rule="evenodd" clip-rule="evenodd" d="M22.0743 3.79134C21.7938 3.06878 21.4197 2.45672 20.8077 1.84467C20.1956 1.23261 19.5836 0.858578 18.861 0.578053C18.1639 0.306028 17.3564 0.119011 16.1918 0.0680062L16.172 0.0671466C15.0143 0.0168103 14.6277 0 11.6523 0C8.66007 0 8.28604 0.00850077 7.11293 0.0680062C5.93982 0.119011 5.14075 0.306028 4.44369 0.578053C3.72112 0.858578 3.10907 1.23261 2.49701 1.84467C1.88496 2.45672 1.51092 3.06878 1.2304 3.79134C0.958372 4.48841 0.771355 5.29598 0.72035 6.46059L0.71949 6.48036C0.669154 7.638 0.652344 8.0246 0.652344 11C0.652344 13.9923 0.660845 14.3663 0.72035 15.5394C0.771355 16.7125 0.958372 17.5116 1.2304 18.2087C1.51092 18.9312 1.88496 19.5433 2.49701 20.1553C3.10907 20.7674 3.72112 21.1414 4.44369 21.4219C5.14075 21.694 5.94833 21.881 7.11293 21.932L7.13267 21.9329C8.29033 21.9832 8.67692 22 11.6523 22C14.6446 22 15.0187 21.9915 16.1918 21.932C17.3649 21.881 18.1639 21.694 18.861 21.4219C19.5836 21.1414 20.1956 20.7674 20.8077 20.1553C21.4197 19.5433 21.7938 18.9312 22.0743 18.2087C22.3463 17.5116 22.5333 16.704 22.5843 15.5394L22.5852 15.5197C22.6355 14.362 22.6523 13.9754 22.6523 11C22.6523 8.00773 22.6438 7.63369 22.5843 6.46059C22.5333 5.28748 22.3463 4.48841 22.0743 3.79134ZM19.8409 15.0599C19.7943 16.0387 19.6312 16.5748 19.4914 16.9243C19.3127 17.3904 19.0874 17.7322 18.7378 18.0818C18.3882 18.4314 18.0542 18.6489 17.5803 18.8353C17.223 18.9752 16.6947 19.1383 15.7159 19.1849L15.6653 19.1871C14.6411 19.232 14.2978 19.2471 11.6531 19.2471C8.96522 19.2471 8.64672 19.2393 7.59022 19.1849C6.61141 19.1383 6.07539 18.9752 5.72582 18.8353C5.25971 18.6567 4.91791 18.4314 4.56833 18.0818C4.21875 17.7322 4.00124 17.3982 3.8148 16.9243C3.67497 16.567 3.51183 16.0387 3.46522 15.0599L3.46338 15.0179C3.4182 13.9868 3.40308 13.6415 3.40308 10.9971C3.40308 8.31699 3.41084 7.99071 3.46522 6.93422C3.51183 5.9554 3.67497 5.41939 3.8148 5.06981C3.99347 4.60371 4.21875 4.2619 4.56833 3.91232C4.91791 3.56275 5.25195 3.34523 5.72582 3.15879C6.08316 3.01896 6.61141 2.85583 7.59022 2.80922L7.63226 2.80738H7.63226C8.66337 2.7622 9.00861 2.74707 11.6531 2.74707C14.3332 2.74707 14.6594 2.75484 15.7159 2.80922C16.6947 2.85583 17.2308 3.01896 17.5803 3.15879C18.0464 3.33747 18.3882 3.56275 18.7378 3.91232C19.0874 4.2619 19.3049 4.59594 19.4914 5.06981C19.6312 5.42716 19.7943 5.9554 19.8409 6.93422L19.8428 6.97627C19.8879 8.00737 19.9031 8.35261 19.9031 10.9971C19.9031 13.6516 19.8878 13.997 19.8423 15.0299L19.8409 15.0599ZM18.5271 5.5C18.5271 6.25939 17.9115 6.875 17.1521 6.875C16.3927 6.875 15.7771 6.25939 15.7771 5.5C15.7771 4.74061 16.3927 4.125 17.1521 4.125C17.9115 4.125 18.5271 4.74061 18.5271 5.5ZM11.6533 5.50391C8.61798 5.50391 6.15332 7.96857 6.15332 11.0039C6.15332 14.0392 8.61798 16.5039 11.6533 16.5039C14.6887 16.5039 17.1533 14.0392 17.1533 11.0039C17.1533 7.96857 14.6887 5.50391 11.6533 5.50391ZM8.90186 11.001C8.90186 12.5224 10.1368 13.751 11.6519 13.751C13.1669 13.751 14.4019 12.516 14.4019 11.001C14.4019 9.47956 13.1733 8.25098 11.6519 8.25098C10.1304 8.25098 8.90186 9.48593 8.90186 11.001Z" fill="#00A7D8"/> </svg>