<svg width="18" height="18" viewBox="0 0 18 18" fill="none" xmlns="http://www.w3.org/2000/svg">
<path d="M6.30237 14.6994C6.33047 14.6994 6.33047 14.6994 6.35857 14.6994C6.72388 14.6713 7.00488 14.3335 6.97678 13.9676L6.33047 6.1151C6.30237 5.74922 5.99327 5.46776 5.59986 5.49591C5.23456 5.52405 4.95355 5.8618 4.98165 6.22768L5.62796 14.0802C5.65606 14.4179 5.93707 14.6994 6.30237 14.6994Z" fill="#98B1BE"/>
<path d="M9 14.6994C9.3653 14.6994 9.67441 14.3898 9.67441 14.0239V6.17139C9.67441 5.80551 9.3653 5.49591 9 5.49591C8.63469 5.49591 8.32559 5.80551 8.32559 6.17139V14.0239C8.32559 14.3898 8.63469 14.6994 9 14.6994Z" fill="#98B1BE"/>
<path d="M11.6414 14.6994C11.6695 14.6994 11.6695 14.6994 11.6976 14.6994C12.0349 14.6994 12.344 14.4461 12.3721 14.0802L13.0184 6.22768C13.0465 5.8618 12.7655 5.52405 12.4002 5.49591C12.0349 5.46776 11.6976 5.74922 11.6695 6.1151L11.0232 13.9676C10.9951 14.3335 11.2761 14.6713 11.6414 14.6994Z" fill="#98B1BE"/>
<path d="M17.1491 2.39994H12.2315L11.5852 1.16155C11.2761 0.542358 10.6298 0.17647 9.95541 0.17647H8.07269C7.39828 0.17647 6.75197 0.542358 6.44286 1.16155L5.79655 2.39994H0.85088C0.485575 2.39994 0.17647 2.70954 0.17647 3.07543C0.17647 3.44132 0.485575 3.75091 0.85088 3.75091H1.38479L2.87411 15.6845C3.01461 16.8947 4.05433 17.8235 5.29075 17.8235H12.7374C13.9738 17.8235 14.9854 16.8947 15.154 15.6845L16.6433 3.75091H17.1491C17.5144 3.75091 17.8235 3.44132 17.8235 3.07543C17.8235 2.70954 17.5144 2.39994 17.1491 2.39994ZM7.62308 1.78075C7.70738 1.61188 7.87598 1.52744 8.07269 1.52744H9.95541C10.1521 1.52744 10.3207 1.64002 10.405 1.78075L10.7141 2.39994H7.28587L7.62308 1.78075ZM13.8052 15.5156C13.749 16.0504 13.2713 16.4726 12.7374 16.4726H5.29075C4.75684 16.4726 4.27913 16.0504 4.22293 15.5156L2.76171 3.75091H15.2945L13.8052 15.5156Z" fill="#98B1BE"/>
<path fill-rule="evenodd" clip-rule="evenodd" d="M6.28569 1.08129C6.62717 0.398688 7.33703 0 8.07269 0H9.95541C10.6911 0 11.4009 0.398696 11.7424 1.08131L12.3385 2.22347H17.1491C17.6122 2.22347 18 2.61234 18 3.07543C18 3.53851 17.6122 3.92738 17.1491 3.92738H16.7991L15.3291 15.7063L15.3288 15.7088C15.1486 17.002 14.0661 18 12.7374 18H5.29075C3.96553 18 2.85014 17.005 2.6989 15.7056L1.22897 3.92738H0.850881C0.387848 3.92738 0 3.53851 0 3.07543C0 2.61234 0.387848 2.22347 0.850881 2.22347H5.68959L6.28569 1.08129ZM8.07269 0.352941C7.46004 0.352941 6.87776 0.685467 6.60075 1.24037L6.59933 1.24322L5.90351 2.57641H0.850881C0.583302 2.57641 0.352941 2.80674 0.352941 3.07543C0.352941 3.34412 0.583302 3.57444 0.850881 3.57444H1.5406L3.04941 15.6641C3.17951 16.7849 4.14338 17.6471 5.29075 17.6471H12.7374C13.881 17.6471 14.8215 16.7881 14.979 15.6614L14.9792 15.6601L16.4875 3.57444H17.1491C17.4167 3.57444 17.6471 3.34412 17.6471 3.07543C17.6471 2.80674 17.4167 2.57641 17.1491 2.57641H12.1246L11.4273 1.24039C11.1503 0.685479 10.5681 0.352941 9.95541 0.352941H8.07269ZM8.07269 1.70391C7.92732 1.70391 7.82903 1.76329 7.78097 1.85957L7.77816 1.8652L7.58292 2.22347H10.4288L10.2505 1.86634C10.1943 1.7767 10.0827 1.70391 9.95541 1.70391H8.07269ZM7.46672 1.69889C7.58774 1.45955 7.82569 1.35097 8.07269 1.35097H9.95541C10.2192 1.35097 10.4429 1.50057 10.5564 1.69006L10.5599 1.69587L10.9995 2.57641H6.98883L7.46672 1.69889ZM2.56196 3.57444H15.4947L13.9805 15.536C13.9137 16.1611 13.3595 16.649 12.7374 16.649H5.29075C4.66851 16.649 4.11423 16.1609 4.04761 15.5358L2.56196 3.57444ZM2.96145 3.92738L4.39846 15.4972C4.44508 15.9407 4.84574 16.2961 5.29075 16.2961H12.7374C13.1824 16.2961 13.5831 15.9407 13.6297 15.4972L13.6301 15.4935L15.0943 3.92738H2.96145ZM6.50642 6.10159L7.15274 13.9541C7.18805 14.414 6.83773 14.8395 6.37213 14.8753L6.36536 14.8759H6.30237C5.84146 14.8759 5.48749 14.5202 5.4521 14.0948L4.80578 6.24216L4.8057 6.2412C4.77038 5.78132 5.1207 5.35583 5.5863 5.31996L5.58727 5.31989C6.07817 5.28477 6.47071 5.63996 6.50642 6.10159ZM5.61295 5.67189C5.90843 5.651 6.1338 5.85887 6.15452 6.12862L6.1546 6.12958L6.80083 13.9811C6.82129 14.2507 6.61318 14.4991 6.35123 14.5229H6.30254C6.03289 14.5229 5.82472 14.3158 5.80384 14.0657M5.80384 14.0657L5.1576 6.21417C5.137 5.9426 5.3483 5.69256 5.61295 5.67189M11.4936 6.10109C11.5297 5.63563 11.954 5.28454 12.4137 5.31996C12.8793 5.35583 13.2296 5.78132 13.1943 6.2412L13.1942 6.24216L12.548 14.0937C12.5121 14.558 12.12 14.8759 11.6976 14.8759H11.6347L11.6279 14.8753C11.1623 14.8395 10.812 14.414 10.8473 13.9541L10.8474 13.9531L11.4936 6.10109ZM12.3866 5.67186C12.1158 5.651 11.8659 5.86255 11.8455 6.12862L11.8454 6.12958L11.1992 13.9811C11.1787 14.2507 11.3868 14.4991 11.6488 14.5229H11.6975C11.9494 14.5229 12.1756 14.3339 12.1961 14.0667L12.1962 14.0657L12.8424 6.21417C12.863 5.94244 12.6515 5.69226 12.3866 5.67186ZM8.14912 6.17139C8.14912 5.70831 8.53697 5.31944 9 5.31944C9.46303 5.31944 9.85088 5.70831 9.85088 6.17139V14.0239C9.85088 14.487 9.46303 14.8759 9 14.8759C8.53697 14.8759 8.14912 14.487 8.14912 14.0239V6.17139ZM9 5.67238C8.73242 5.67238 8.50206 5.9027 8.50206 6.17139V14.0239C8.50206 14.2926 8.73242 14.5229 9 14.5229C9.26758 14.5229 9.49794 14.2926 9.49794 14.0239V6.17139C9.49794 5.9027 9.26758 5.67238 9 5.67238Z" fill="#98B1BE"/>
</svg>
