<svg width="16" height="16" viewBox="0 0 16 16" fill="none" xmlns="http://www.w3.org/2000/svg">
<path d="M14.9009 1.09838C13.4364 -0.366121 11.0621 -0.366121 9.59764 1.09835L6.46345 4.23253C4.94861 5.74744 5.08886 8.16119 6.46345 9.53585C6.69364 9.76604 6.94832 9.95372 7.21726 10.1079L7.78929 9.53585C8.16448 9.1606 8.03242 8.72194 8.02567 8.40541C7.94332 8.34703 7.86323 8.28394 7.78929 8.21C7.08389 7.50466 7.05217 6.29547 7.78929 5.55835C7.89876 5.44888 10.857 2.49066 10.9234 2.42422C11.6546 1.693 12.8439 1.693 13.5751 2.42422C14.3063 3.15544 14.3063 4.34466 13.5751 5.07588L11.5034 7.14753C11.5633 7.479 11.9229 8.26419 11.7379 9.55944C11.7469 9.55057 11.7578 9.54485 11.7668 9.53588L14.9009 6.40169C16.3654 4.93719 16.3654 2.56288 14.9009 1.09838Z" fill="#98B1BE"/>
<path d="M9.77904 6.22145C9.54888 5.99126 9.29416 5.80357 9.02529 5.64941L8.45326 6.22145C8.07801 6.59663 8.21007 7.03529 8.21682 7.35182C8.29923 7.4102 8.37932 7.47329 8.45326 7.54723C9.15866 8.25263 9.19038 9.46176 8.45326 10.1989C8.34354 10.3086 5.14029 13.5119 5.07619 13.5759C4.34498 14.3072 3.15576 14.3072 2.42454 13.5759C1.69332 12.8447 1.69332 11.6555 2.42454 10.9243L4.73913 8.6097C4.67923 8.27823 4.31966 7.49304 4.50463 6.19779C4.4956 6.20666 4.48473 6.21245 4.47573 6.22141L1.09869 9.59851C-0.365743 11.063 -0.365743 13.4373 1.09869 14.9018C2.56319 16.3663 4.93748 16.3663 6.40198 14.9018L9.77904 11.5248C11.2658 10.038 11.1845 7.62691 9.77904 6.22145Z" fill="#98B1BE"/>
</svg>
