<svg width="40" height="40" viewBox="0 0 40 40" fill="none" xmlns="http://www.w3.org/2000/svg">
<path d="M20 0C31.0432 0 40 8.95684 40 20C40 31.0432 31.0432 40 20 40C8.95684 40 0 31.0432 0 20C0 8.95684 8.95684 0 20 0ZM5.41823 30.0437C8.34372 25.0319 13.7782 21.6636 20 21.6636C26.2218 21.6636 31.6563 25.0319 34.5818 30.0437C36.5512 27.1902 37.7054 23.7306 37.7054 20C37.7054 10.2202 29.7798 2.29456 20 2.29456C10.2202 2.29456 2.29456 10.2202 2.29456 20C2.29456 23.7306 3.44881 27.1902 5.41823 30.0437Z" fill="white"/>
<path fill-rule="evenodd" clip-rule="evenodd" d="M20 6.60964C23.6996 6.60964 26.6987 9.60867 26.6987 13.3083C26.6987 17.0079 23.6996 20.007 20 20.007C16.3004 20.007 13.3013 17.0079 13.3013 13.3083C13.3013 9.60867 16.3004 6.60964 20 6.60964Z" fill="white"/>
</svg>
