<?xml version="1.0" encoding="UTF-8"?>
<svg xmlns="http://www.w3.org/2000/svg" width="26" height="15" viewBox="0 0 26 15" fill="none"> <path fill-rule="evenodd" clip-rule="evenodd" d="M24.9362 1.01566C25.11 0.430263 24.9362 0 24.109 0H21.374C20.6785 0 20.358 0.371645 20.1841 0.781382C20.1841 0.781382 18.7933 4.20651 16.823 6.43125C16.1855 7.07526 15.8958 7.28033 15.5478 7.28033C15.3742 7.28033 15.1226 7.07526 15.1226 6.48987V1.01566C15.1226 0.313026 14.9206 0 14.3411 0H10.0432C9.60877 0 9.34738 0.326053 9.34738 0.635132C9.34738 1.30125 10.3324 1.4548 10.434 3.32822V7.39717C10.434 8.28947 10.2745 8.45112 9.92681 8.45112C8.99964 8.45112 6.74423 5.01099 5.40661 1.07428C5.14444 0.309079 4.88149 0 4.1825 0H1.44748C0.666052 0 0.509766 0.371645 0.509766 0.781382C0.509766 1.51322 1.43694 5.14322 4.82698 9.94421C7.08708 13.2227 10.2714 15 13.169 15C14.9075 15 15.1226 14.6053 15.1226 13.9253V11.4474C15.1226 10.6579 15.2872 10.5004 15.8378 10.5004C16.2433 10.5004 16.9388 10.7053 18.5614 12.286C20.4158 14.1594 20.7217 15 21.7647 15H24.4997C25.2812 15 25.6719 14.6053 25.4464 13.8263C25.1999 13.0498 24.3143 11.9234 23.1397 10.588C22.5022 9.82697 21.5459 9.0075 21.2562 8.59757C20.8505 8.07079 20.9665 7.83632 21.2562 7.36796C21.2562 7.36796 24.5884 2.62579 24.9362 1.01566Z" fill="#00A7D8"/> </svg>