<svg width="101" height="286" viewBox="0 0 101 286" fill="none" xmlns="http://www.w3.org/2000/svg">
<path d="M67 97H46V138H67V97Z" fill="#00A7D8"/>
<path d="M0 172H8" stroke="#17118B" stroke-width="2" stroke-miterlimit="10"/>
<path d="M46 46H1V285H46V46Z" stroke="#17118B" stroke-width="2" stroke-miterlimit="10"/>
<path d="M23 46V0" stroke="#17118B" stroke-width="2" stroke-miterlimit="10"/>
<path d="M1 54H46" stroke="#17118B" stroke-width="2" stroke-miterlimit="10"/>
<path d="M23 62H46" stroke="#17118B" stroke-width="2" stroke-miterlimit="10"/>
<path d="M23 38H6V46H23V38Z" stroke="#17118B" stroke-width="2" stroke-miterlimit="10"/>
<path d="M23 21H14V38H23V21Z" stroke="#17118B" stroke-width="2" stroke-miterlimit="10"/>
<path d="M67 97H46V285H67V97Z" stroke="#17118B" stroke-width="2" stroke-miterlimit="10"/>
<path d="M53 97V138" stroke="#17118B" stroke-width="2" stroke-miterlimit="10"/>
<path d="M60 97V138" stroke="#17118B" stroke-width="2" stroke-miterlimit="10"/>
<path d="M46 108H67" stroke="#17118B" stroke-width="2" stroke-miterlimit="10"/>
<path d="M46 118H67" stroke="#17118B" stroke-width="2" stroke-miterlimit="10"/>
<path d="M46 128H67" stroke="#17118B" stroke-width="2" stroke-miterlimit="10"/>
<path d="M46 138H67" stroke="#17118B" stroke-width="2" stroke-miterlimit="10"/>
<path d="M46 285L56 138L67 285" stroke="#17118B" stroke-width="2" stroke-miterlimit="10"/>
<path d="M39 72H7V84H39V72Z" fill="#00A7D8"/>
<path d="M39 72H7V84H39V72Z" stroke="#17118B" stroke-width="2" stroke-miterlimit="10"/>
<path d="M39 92H7V104H39V92Z" fill="#00A7D8"/>
<path d="M39 92H7V104H39V92Z" stroke="#17118B" stroke-width="2" stroke-miterlimit="10"/>
<path d="M39 112H7V124H39V112Z" fill="#00A7D8"/>
<path d="M39 112H7V124H39V112Z" stroke="#17118B" stroke-width="2" stroke-miterlimit="10"/>
<path d="M39 132H7V144H39V132Z" fill="#00A7D8"/>
<path d="M39 132H7V144H39V132Z" stroke="#17118B" stroke-width="2" stroke-miterlimit="10"/>
<path d="M39 152H7V164H39V152Z" fill="#00A7D8"/>
<path d="M39 152H7V164H39V152Z" stroke="#17118B" stroke-width="2" stroke-miterlimit="10"/>
<path d="M56.5 97V54H100V285H64.6" stroke="#17118B" stroke-width="2" stroke-miterlimit="10"/>
<path d="M57 62H100" stroke="#17118B" stroke-width="2" stroke-miterlimit="10"/>
<path d="M57 70H79" stroke="#17118B" stroke-width="2" stroke-miterlimit="10"/>
<path d="M68 54V21" stroke="#17118B" stroke-width="2" stroke-miterlimit="10"/>
<path d="M75 54V38" stroke="#17118B" stroke-width="2" stroke-miterlimit="10"/>
<path d="M39 251H8V285H39V251Z" stroke="#17118B" stroke-width="2" stroke-miterlimit="10"/>
<path d="M23 251V285" stroke="#17118B" stroke-width="2" stroke-miterlimit="10"/>
</svg>
