<svg width="80" height="80" viewBox="0 0 80 80" fill="none" xmlns="http://www.w3.org/2000/svg">
<circle cx="40" cy="40" r="39" stroke="#00A7D8" stroke-width="2"/>
<g clip-path="url(#clip0)">
<path d="M52.9393 27.0595C50.1934 24.3135 45.7416 24.3135 42.9956 27.0594L37.119 32.936C34.2787 35.7765 34.5416 40.3022 37.119 42.8797C37.5506 43.3113 38.0282 43.6632 38.5324 43.9523L39.605 42.8797C40.3084 42.1761 40.0608 41.3536 40.0482 40.7601C39.8938 40.6507 39.7436 40.5324 39.605 40.3938C38.2823 39.0712 38.2229 36.804 39.605 35.4219C39.8102 35.2166 45.3569 29.67 45.4815 29.5454C46.8525 28.1744 49.0823 28.1744 50.4533 29.5454C51.8243 30.9165 51.8243 33.1462 50.4533 34.5173L46.569 38.4016C46.6813 39.0231 47.3554 40.4954 47.0086 42.924C47.0256 42.9073 47.0458 42.8966 47.0627 42.8798L52.9393 37.0032C55.6851 34.2572 55.6851 29.8054 52.9393 27.0595Z" fill="#00A7D8"/>
<path d="M43.3357 36.6648C42.9042 36.2332 42.4266 35.8813 41.9225 35.5923L40.8499 36.6648C40.1463 37.3683 40.3939 38.1908 40.4066 38.7843C40.5611 38.8938 40.7113 39.0121 40.8499 39.1507C42.1725 40.4733 42.232 42.7404 40.8499 44.1225C40.6442 44.3283 34.6381 50.3344 34.5179 50.4545C33.1469 51.8256 30.9171 51.8256 29.5461 50.4545C28.175 49.0835 28.175 46.8537 29.5461 45.4827L33.8859 41.1428C33.7736 40.5213 33.0994 39.0491 33.4462 36.6205C33.4293 36.6371 33.4089 36.648 33.392 36.6648L27.0601 42.9968C24.3143 45.7428 24.3143 50.1946 27.0601 52.9405C29.806 55.6864 34.2578 55.6864 37.0037 52.9405L43.3357 46.6086C46.1234 43.8209 45.9711 39.3001 43.3357 36.6648Z" fill="#00A7D8"/>
</g>
<defs>
<clipPath id="clip0">
<rect width="30" height="30" fill="white" transform="translate(25 25)"/>
</clipPath>
</defs>
</svg>
