<svg width="48" height="48" viewBox="0 0 48 48" fill="none" xmlns="http://www.w3.org/2000/svg">
<circle cx="24" cy="24" r="24" fill="#E8294C"/>
<g clip-path="url(#clip0)">
<path d="M31.9844 20.704C31.9469 19.8539 31.8095 19.2694 31.6125 18.763C31.4094 18.2254 31.0968 17.7441 30.6873 17.344C30.2872 16.9377 29.8027 16.6219 29.2714 16.422C28.762 16.225 28.1806 16.0875 27.3304 16.0501C26.4739 16.0094 26.202 16 24.0297 16C21.8575 16 21.5856 16.0094 20.7322 16.0469C19.8821 16.0844 19.2976 16.222 18.7913 16.4188C18.2536 16.6219 17.7723 16.9345 17.3722 17.344C16.9659 17.7441 16.6503 18.2286 16.4502 18.7599C16.2532 19.2694 16.1157 19.8507 16.0783 20.7009C16.0376 21.5574 16.0282 21.8293 16.0282 24.0016C16.0282 26.1739 16.0376 26.4458 16.0751 27.2991C16.1126 28.1492 16.2502 28.7337 16.4471 29.2401C16.6503 29.7777 16.9659 30.259 17.3722 30.6591C17.7723 31.0654 18.2568 31.3812 18.7881 31.5812C19.2976 31.7781 19.8789 31.9156 20.7292 31.9531C21.5824 31.9907 21.8544 32 24.0267 32C26.199 32 26.4709 31.9907 27.3242 31.9531C28.1744 31.9156 28.7588 31.7781 29.2651 31.5812C30.3404 31.1654 31.1906 30.3153 31.6063 29.2401C31.8031 28.7306 31.9407 28.1492 31.9782 27.2991C32.0157 26.4458 32.0251 26.1739 32.0251 24.0016C32.0251 21.8293 32.0219 21.5574 31.9844 20.704ZM30.5436 27.2366C30.5092 28.018 30.3779 28.4399 30.2685 28.7212C29.9997 29.4183 29.4464 29.9715 28.7494 30.2403C28.4681 30.3497 28.0431 30.481 27.2648 30.5153C26.4208 30.5529 26.1677 30.5622 24.0329 30.5622C21.8981 30.5622 21.6418 30.5529 20.801 30.5153C20.0196 30.481 19.5976 30.3497 19.3163 30.2403C18.9694 30.1121 18.6537 29.909 18.3974 29.6433C18.1318 29.3838 17.9286 29.0713 17.8004 28.7244C17.691 28.4431 17.5597 28.018 17.5254 27.2397C17.4878 26.3958 17.4786 26.1426 17.4786 24.0078C17.4786 21.873 17.4878 21.6167 17.5254 20.776C17.5597 19.9946 17.691 19.5726 17.8004 19.2913C17.9286 18.9443 18.1318 18.6287 18.4006 18.3723C18.6599 18.1066 18.9725 17.9034 19.3195 17.7754C19.6008 17.666 20.0259 17.5347 20.8041 17.5003C21.6481 17.4628 21.9013 17.4534 24.036 17.4534C26.174 17.4534 26.4271 17.4628 27.2679 17.5003C28.0493 17.5347 28.4713 17.666 28.7526 17.7754C29.0995 17.9034 29.4152 18.1066 29.6715 18.3723C29.9371 18.6317 30.1403 18.9443 30.2685 19.2913C30.3779 19.5726 30.5092 19.9976 30.5436 20.776C30.5811 21.6199 30.5905 21.873 30.5905 24.0078C30.5905 26.1426 30.5811 26.3927 30.5436 27.2366Z" fill="white"/>
<path d="M24.0297 19.8911C21.7606 19.8911 19.9196 21.732 19.9196 24.0013C19.9196 26.2705 21.7606 28.1115 24.0297 28.1115C26.299 28.1115 28.1399 26.2705 28.1399 24.0013C28.1399 21.732 26.299 19.8911 24.0297 19.8911ZM24.0297 26.6675C22.5576 26.6675 21.3636 25.4735 21.3636 24.0013C21.3636 22.5291 22.5576 21.3351 24.0297 21.3351C25.5019 21.3351 26.6959 22.5291 26.6959 24.0013C26.6959 25.4735 25.5019 26.6675 24.0297 26.6675Z" fill="white"/>
<path d="M29.2623 19.7291C29.2623 20.259 28.8327 20.6886 28.3027 20.6886C27.7728 20.6886 27.3431 20.259 27.3431 19.7291C27.3431 19.1991 27.7728 18.7695 28.3027 18.7695C28.8327 18.7695 29.2623 19.1991 29.2623 19.7291Z" fill="white"/>
</g>
<defs>
<clipPath id="clip0">
<rect width="16" height="16" fill="white" transform="translate(16 16)"/>
</clipPath>
</defs>
</svg>
