<svg width="245" height="185" viewBox="0 0 245 185" fill="none" xmlns="http://www.w3.org/2000/svg">
<path d="M94 71H1V184H94V71Z" stroke="#17118B" stroke-width="2" stroke-miterlimit="10"/>
<path d="M32 90H22V112H32V90Z" fill="#00A7D8"/>
<path d="M32 90H22V112H32V90Z" stroke="#17118B" stroke-width="2" stroke-miterlimit="10"/>
<path d="M22 106H32" stroke="#17118B" stroke-width="2" stroke-miterlimit="10"/>
<path d="M52 90H42V112H52V90Z" fill="#00A7D8"/>
<path d="M52 90H42V112H52V90Z" stroke="#17118B" stroke-width="2" stroke-miterlimit="10"/>
<path d="M42 106H52" stroke="#17118B" stroke-width="2" stroke-miterlimit="10"/>
<path d="M72 90H62V112H72V90Z" fill="#00A7D8"/>
<path d="M72 90H62V112H72V90Z" stroke="#17118B" stroke-width="2" stroke-miterlimit="10"/>
<path d="M62 106H72" stroke="#17118B" stroke-width="2" stroke-miterlimit="10"/>
<path d="M32 120H22V142H32V120Z" fill="#00A7D8"/>
<path d="M32 120H22V142H32V120Z" stroke="#17118B" stroke-width="2" stroke-miterlimit="10"/>
<path d="M22 136H32" stroke="#17118B" stroke-width="2" stroke-miterlimit="10"/>
<path d="M52 120H42V142H52V120Z" fill="#00A7D8"/>
<path d="M52 120H42V142H52V120Z" stroke="#17118B" stroke-width="2" stroke-miterlimit="10"/>
<path d="M42 136H52" stroke="#17118B" stroke-width="2" stroke-miterlimit="10"/>
<path d="M72 120H62V142H72V120Z" fill="#00A7D8"/>
<path d="M72 120H62V142H72V120Z" stroke="#17118B" stroke-width="2" stroke-miterlimit="10"/>
<path d="M62 136H72" stroke="#17118B" stroke-width="2" stroke-miterlimit="10"/>
<path d="M32 150H22V172H32V150Z" fill="#00A7D8"/>
<path d="M32 150H22V172H32V150Z" stroke="#17118B" stroke-width="2" stroke-miterlimit="10"/>
<path d="M22 166H32" stroke="#17118B" stroke-width="2" stroke-miterlimit="10"/>
<path d="M52 150H42V172H52V150Z" fill="#00A7D8"/>
<path d="M52 150H42V172H52V150Z" stroke="#17118B" stroke-width="2" stroke-miterlimit="10"/>
<path d="M42 166H52" stroke="#17118B" stroke-width="2" stroke-miterlimit="10"/>
<path d="M72 150H62V172H72V150Z" fill="#00A7D8"/>
<path d="M72 150H62V172H72V150Z" stroke="#17118B" stroke-width="2" stroke-miterlimit="10"/>
<path d="M62 166H72" stroke="#17118B" stroke-width="2" stroke-miterlimit="10"/>
<path d="M244 71H151V184H244V71Z" stroke="#17118B" stroke-width="2" stroke-miterlimit="10"/>
<path d="M182 90H172V112H182V90Z" fill="#00A7D8"/>
<path d="M182 90H172V112H182V90Z" stroke="#17118B" stroke-width="2" stroke-miterlimit="10"/>
<path d="M172 106H182" stroke="#17118B" stroke-width="2" stroke-miterlimit="10"/>
<path d="M202 90H192V112H202V90Z" fill="#00A7D8"/>
<path d="M202 90H192V112H202V90Z" stroke="#17118B" stroke-width="2" stroke-miterlimit="10"/>
<path d="M192 106H202" stroke="#17118B" stroke-width="2" stroke-miterlimit="10"/>
<path d="M222 90H212V112H222V90Z" fill="#00A7D8"/>
<path d="M222 90H212V112H222V90Z" stroke="#17118B" stroke-width="2" stroke-miterlimit="10"/>
<path d="M212 106H222" stroke="#17118B" stroke-width="2" stroke-miterlimit="10"/>
<path d="M182 120H172V142H182V120Z" fill="#00A7D8"/>
<path d="M182 120H172V142H182V120Z" stroke="#17118B" stroke-width="2" stroke-miterlimit="10"/>
<path d="M172 136H182" stroke="#17118B" stroke-width="2" stroke-miterlimit="10"/>
<path d="M202 120H192V142H202V120Z" fill="#00A7D8"/>
<path d="M202 120H192V142H202V120Z" stroke="#17118B" stroke-width="2" stroke-miterlimit="10"/>
<path d="M192 136H202" stroke="#17118B" stroke-width="2" stroke-miterlimit="10"/>
<path d="M222 120H212V142H222V120Z" fill="#00A7D8"/>
<path d="M222 120H212V142H222V120Z" stroke="#17118B" stroke-width="2" stroke-miterlimit="10"/>
<path d="M212 136H222" stroke="#17118B" stroke-width="2" stroke-miterlimit="10"/>
<path d="M182 150H172V172H182V150Z" fill="#00A7D8"/>
<path d="M182 150H172V172H182V150Z" stroke="#17118B" stroke-width="2" stroke-miterlimit="10"/>
<path d="M172 166H182" stroke="#17118B" stroke-width="2" stroke-miterlimit="10"/>
<path d="M202 150H192V172H202V150Z" fill="#00A7D8"/>
<path d="M202 150H192V172H202V150Z" stroke="#17118B" stroke-width="2" stroke-miterlimit="10"/>
<path d="M192 166H202" stroke="#17118B" stroke-width="2" stroke-miterlimit="10"/>
<path d="M222 150H212V172H222V150Z" fill="#00A7D8"/>
<path d="M222 150H212V172H222V150Z" stroke="#17118B" stroke-width="2" stroke-miterlimit="10"/>
<path d="M212 166H222" stroke="#17118B" stroke-width="2" stroke-miterlimit="10"/>
<path d="M151 39H94V184H151V39Z" stroke="#17118B" stroke-width="2" stroke-miterlimit="10"/>
<path d="M143 176H102V184H143V176Z" stroke="#17118B" stroke-width="2" stroke-miterlimit="10"/>
<path d="M137 142H107V176H137V142Z" stroke="#17118B" stroke-width="2" stroke-miterlimit="10"/>
<path d="M122 176V142" stroke="#17118B" stroke-width="2" stroke-miterlimit="10"/>
<path d="M122.199 66.2998C126.617 66.2998 130.199 62.7181 130.199 58.2998C130.199 53.8815 126.617 50.2998 122.199 50.2998C117.781 50.2998 114.199 53.8815 114.199 58.2998C114.199 62.7181 117.781 66.2998 122.199 66.2998Z" stroke="#17118B" stroke-width="2" stroke-miterlimit="10"/>
<path d="M122.199 50.2998V66.2998" stroke="#17118B" stroke-width="2" stroke-miterlimit="10"/>
<path d="M130.199 58.7998H114.199" stroke="#17118B" stroke-width="2" stroke-miterlimit="10"/>
<path d="M127 79H117V101H127V79Z" fill="#00A7D8"/>
<path d="M127 79H117V101H127V79Z" stroke="#17118B" stroke-width="2" stroke-miterlimit="10"/>
<path d="M117 95H127" stroke="#17118B" stroke-width="2" stroke-miterlimit="10"/>
<path d="M127 108H117V130H127V108Z" fill="#00A7D8"/>
<path d="M127 108H117V130H127V108Z" stroke="#17118B" stroke-width="2" stroke-miterlimit="10"/>
<path d="M117 124H127" stroke="#17118B" stroke-width="2" stroke-miterlimit="10"/>
<path d="M82 39H161" stroke="#17118B" stroke-width="2" stroke-miterlimit="10"/>
<path d="M94 39L122 14L151 39" stroke="#17118B" stroke-width="2" stroke-miterlimit="10"/>
<path d="M122 14V0" stroke="#17118B" stroke-width="2" stroke-miterlimit="10"/>
</svg>
