<svg width="48" height="48" viewBox="0 0 48 48" fill="none" xmlns="http://www.w3.org/2000/svg">
<circle cx="24" cy="24" r="24" fill="#4AAE20"/>
<path d="M24.002 16H23.998C19.587 16 16 19.588 16 24C16 25.75 16.564 27.372 17.523 28.689L16.526 31.661L19.601 30.678C20.866 31.516 22.375 32 24.002 32C28.413 32 32 28.411 32 24C32 19.589 28.413 16 24.002 16ZM28.657 27.297C28.464 27.842 27.698 28.294 27.087 28.426C26.669 28.515 26.123 28.586 24.285 27.824C21.934 26.85 20.42 24.461 20.302 24.306C20.189 24.151 19.352 23.041 19.352 21.893C19.352 20.745 19.935 20.186 20.17 19.946C20.363 19.749 20.682 19.659 20.988 19.659C21.087 19.659 21.176 19.664 21.256 19.668C21.491 19.678 21.609 19.692 21.764 20.063C21.957 20.528 22.427 21.676 22.483 21.794C22.54 21.912 22.597 22.072 22.517 22.227C22.442 22.387 22.376 22.458 22.258 22.594C22.14 22.73 22.028 22.834 21.91 22.98C21.802 23.107 21.68 23.243 21.816 23.478C21.952 23.708 22.422 24.475 23.114 25.091C24.007 25.886 24.731 26.14 24.99 26.248C25.183 26.328 25.413 26.309 25.554 26.159C25.733 25.966 25.954 25.646 26.179 25.331C26.339 25.105 26.541 25.077 26.753 25.157C26.969 25.232 28.112 25.797 28.347 25.914C28.582 26.032 28.737 26.088 28.794 26.187C28.85 26.286 28.85 26.751 28.657 27.297Z" fill="white"/>
</svg>
