<svg width="80" height="80" viewBox="0 0 80 80" fill="none" xmlns="http://www.w3.org/2000/svg">
<circle cx="40" cy="40" r="39" stroke="#00A7D8" stroke-width="2"/>
<path d="M54.2392 29.3618H47.9507C47.5322 29.3618 47.1899 29.7042 47.1899 30.1226V31.0781C47.1899 31.4965 47.5322 31.8389 47.9507 31.8389H49.5446C49.5489 31.8428 44.7253 44.4744 44.7253 44.4744L42.1266 38.6301C42.1266 38.6301 45.5388 31.8572 45.5511 31.8388H46.2705C46.689 31.8388 47.0313 31.4964 47.0313 31.078V30.1226C47.0313 29.7042 46.689 29.3618 46.2705 29.3618H41.5987C41.1802 29.3618 40.8379 29.7042 40.8379 30.1226V31.0781C40.8379 31.4965 41.1802 31.8389 41.5987 31.8389H42.25C42.2215 31.9321 40.6756 35.3617 40.6756 35.3617C40.6756 35.3617 39.208 32.0738 39.1142 31.8389H39.2776C39.6961 31.8389 40.0384 31.4965 40.0384 31.0781V30.1226C40.0384 29.7042 39.6961 29.3618 39.2776 29.3618H34.3205C33.9021 29.3618 33.5597 29.7042 33.5597 30.1226V31.0781C33.5597 31.4965 33.9021 31.8389 34.3205 31.8389H34.9843C35.1136 32.0317 38.3899 39.2116 38.6402 39.8184L36.505 44.4969C35.2793 41.6389 32.3406 34.7488 31.3448 32.0802C31.3085 31.9852 31.2821 31.9063 31.2615 31.8389H32.6393C33.0578 31.8389 33.4001 31.4965 33.4001 31.0781V30.1226C33.4001 29.7042 33.0578 29.3618 32.6393 29.3618H25.7608C25.3424 29.3618 25 29.7042 25 30.1226V31.0781C25 31.4965 25.3424 31.8389 25.7608 31.8389H26.9586C27.0245 31.9131 29.6942 38.4083 30.99 41.4462C32.1873 44.2528 33.4252 47.1548 34.2266 49.2324C34.2281 49.2365 34.2297 49.2405 34.2313 49.2445C34.3717 49.5893 34.7986 50.6388 35.7318 50.6388C36.5325 50.6388 37.0338 49.857 37.3413 49.269C37.344 49.2637 37.347 49.2581 37.3496 49.2525C37.9943 47.9375 39.1589 45.3438 40.0729 43.2839C41.2738 46.1778 42.1146 48.1679 42.5757 49.2086C42.7282 49.5552 43.192 50.6102 44.1189 50.6103H44.1191C45.0202 50.6103 45.5031 49.5982 45.6617 49.2658C45.6675 49.2536 45.6728 49.2413 45.6781 49.2289C47.3029 45.2594 52.0733 33.2597 52.1213 33.1389C52.1249 33.1297 52.1285 33.1204 52.1317 33.111C52.2974 32.6376 52.5176 32.2829 52.802 32.0292C52.8867 31.9543 52.9933 31.8914 53.1184 31.8388H54.2392C54.6576 31.8388 55 31.4964 55 31.078V30.1226C55 29.7042 54.6576 29.3618 54.2392 29.3618Z" fill="#00A7D8"/>
</svg>
