<svg width="11" height="11" viewBox="0 0 11 11" fill="none" xmlns="http://www.w3.org/2000/svg">
<path fill-rule="evenodd" clip-rule="evenodd" d="M0.292893 8.77817C-0.0976311 9.1687 -0.0976311 9.80186 0.292893 10.1924C0.683417 10.5829 1.31658 10.5829 1.70711 10.1924L5.24265 6.65685L8.77819 10.1924C9.16871 10.5829 9.80188 10.5829 10.1924 10.1924C10.5829 9.80186 10.5829 9.1687 10.1924 8.77817L6.65686 5.24263L10.1924 1.70711C10.5829 1.31658 10.5829 0.683417 10.1924 0.292893C9.80186 -0.0976312 9.1687 -0.0976309 8.77817 0.292893L5.24265 3.82842L1.70712 0.292893C1.3166 -0.0976309 0.68343 -0.0976312 0.292906 0.292893C-0.0976182 0.683417 -0.0976182 1.31658 0.292906 1.70711L3.82843 5.24263L0.292893 8.77817Z" fill="#EB5757"/>
</svg>
