<svg xmlns="http://www.w3.org/2000/svg" viewBox="0 0 667.4 383.27"><g id="Layer_2"><g id="Layer_1-2"><path fill="#00a7d8" d="M0,198c0-32.44,24.82-54.91,58.11-54.91a60.22,60.22,0,0,1,27.08,6v26.75c-7.62-4.56-15.23-7.69-26.8-7.69-17.49,0-30.75,12.52-30.75,29.88,0,17.63,13.54,29.87,31.88,29.87,10.15,0,19.18-2,27.64-8.54v26.74c-8.18,4.27-18.33,6.55-28.77,6.55C25.11,252.91,0,230.44,0,198Z"/><path fill="#00a7d8" d="M105.21,145.09h49.08c23.42,0,37.8,13.66,37.8,32.72,0,13.65-7.61,24.47-20.31,29.59l31.6,43.24h-31L143,210.53H132.29v40.39h-26.8V145.09Zm48,43.25c7.33,0,11.84-3.7,11.84-10s-4.51-10.24-11.84-10.24H132.29v20.2Z"/><path fill="#fff" d="M348.92,145.09h22.85l46,58v-58H444V250.64H421.7l-46.26-58.32v58.32H348.92Z"/><path fill="#fff" d="M462.33,198c0-32.44,24.83-54.91,58.11-54.91a60.22,60.22,0,0,1,27.08,6v26.75c-7.62-4.56-15.23-7.69-26.79-7.69C503.24,168.13,490,180.65,490,198c0,17.63,13.54,29.87,31.87,29.87,10.16,0,19.18-2,27.65-8.54v26.74c-8.18,4.27-18.34,6.55-28.77,6.55C487.44,252.91,462.33,230.44,462.33,198Z"/><path fill="#fff" d="M567.55,145.09h27.07v37.55h39.5V145.09h26.79V250.64H634.12V206.83h-39.5v43.81H567.55Z"/><path fill="#00a7d8" d="M260.08,227.88c-10.15,0-18.9-5.69-18.9-19.91V145.09H214.39v61.45c0,30.44,20.59,46.38,46,46.38v-25Z"/><path fill="#fff" d="M284.34,227.88c10.15,0,18.9-5.69,18.9-19.91V145.09H330v61.45c0,30.44-20.6,46.38-46,46.38v-25Z"/><path fill="#00a7d8" d="M104.09,0h41.74C180,0,203.66,21.62,203.66,52.92S180,105.83,145.83,105.83H104.09Zm39.77,81.65c20.31,0,31.87-10.53,31.87-29s-11.56-29-31.87-29h-13v58Z"/><path fill="#00a7d8" d="M6.49,0V105.55H86V81.65H33.28V64.86H86V41H33.28V23.9H86V0Z"/><rect fill="#00a7d8" y="290.58" width="667.4" height="92.69" rx="46.34"/><rect fill="#120990" x="13.42" y="304.18" width="145.94" height="65.49" rx="32.75"/><path fill="#fff" d="M105.1,358.89a23.33,23.33,0,0,1-10.23-8.65,23.58,23.58,0,0,1-3.6-13v-.52a23.7,23.7,0,0,1,3.6-13.09A23.42,23.42,0,0,1,105.1,315a36.54,36.54,0,0,1,15.37-3A36.64,36.64,0,0,1,136,315a23.45,23.45,0,0,1,10.2,8.66,23.7,23.7,0,0,1,3.6,13.09v.52A22.75,22.75,0,0,1,136,358.89a36.64,36.64,0,0,1-15.48,3.05A36.54,36.54,0,0,1,105.1,358.89Zm31.44-21.45v-.89q0-6.15-4.07-9.35c-2.72-2.13-6.71-3.19-12-3.19s-9.14,1.08-11.88,3.23-4.11,5.26-4.11,9.31v.89q0,6.09,4,9.24t12,3.15Q136.54,349.83,136.54,337.44Z"/><path fill="#fff" d="M216.23,312.86V361H204.05L178.81,331.2V361H166.56V312.86h12.18L204,342.57V312.86Z"/><path fill="#fff" d="M293.39,312.86q13.78,0,20.8,6t7,17.79v.66q0,23.7-27.8,23.7H268.74V312.86Zm11.11,33.67q3.5-2.85,3.49-9v-1q0-6.09-3.6-9.06c-2.39-2-6.09-3-11.07-3h-11.6v24.94h11.67Q301,349.39,304.5,346.53Z"/><path fill="#fff" d="M375.73,312.86v11.22H345v7.27h29.27v11.07H345v7.34h30.74V361H332V312.86Z"/><path fill="#fff" d="M454.79,361H442V330.91L428.67,361H415.83l-13.28-29.94V361H389.72V312.86h17.53l15,33.6,14.89-33.6h17.61Z"/><path fill="#fff" d="M519.72,359v2H506.88l-3.74-8.88H480.69L476.94,361H464.11v-2l20.61-46.14H499.1Zm-21.13-17.82-6.68-15.92-6.68,15.92Z"/><path fill="#fff" d="M578.7,312.86V361H566.52L541.28,331.2V361H529V312.86h12.18l25.24,29.71V312.86Z"/><path fill="#fff" d="M617.43,312.86q13.8,0,20.8,6t7,17.79v.66q0,23.7-27.81,23.7H592.78V312.86Zm11.12,33.67q3.48-2.85,3.48-9v-1q0-6.09-3.59-9.06t-11.08-3H605.77v24.94h11.66Q625.07,349.39,628.55,346.53Z"/></g></g></svg>
