<svg width="18" height="18" viewBox="0 0 18 18" fill="none" xmlns="http://www.w3.org/2000/svg">
<path fill-rule="evenodd" clip-rule="evenodd" d="M11.5046 6.75232C11.5046 9.37696 9.37696 11.5046 6.75232 11.5046C4.12769 11.5046 2 9.37696 2 6.75232C2 4.12769 4.12769 2 6.75232 2C9.37696 2 11.5046 4.12769 11.5046 6.75232ZM10.7675 12.1817C9.64523 13.013 8.25619 13.5046 6.75232 13.5046C3.02312 13.5046 0 10.4815 0 6.75232C0 3.02312 3.02312 0 6.75232 0C10.4815 0 13.5046 3.02312 13.5046 6.75232C13.5046 8.25619 13.013 9.64523 12.1817 10.7675L17.5879 16.1737C17.9784 16.5642 17.9784 17.1974 17.5879 17.5879C17.1974 17.9784 16.5642 17.9784 16.1737 17.5879L10.7675 12.1817Z" fill="black"/>
</svg>
