<?xml version="1.0" encoding="UTF-8"?>
<svg xmlns="http://www.w3.org/2000/svg" viewBox="0 0 1170.57 141.42"> <defs> <style>.cls-1{fill:#dcebf3;}.cls-2{fill:#00a7d8;}.cls-3{fill:#17118b;}</style> </defs> <g id="Слой_2" data-name="Слой 2"> <g id="Text"> <rect class="cls-1" width="1167.39" height="140.21"/> <rect class="cls-1" x="3.18" y="1.21" width="1167.39" height="140.21"/> <path class="cls-2" d="M20.73,55c0-6.92,4.32-10.3,13.54-10.88v-3c-11.09.72-16.85,5.4-16.85,13.9v.43h3.31Zm29.52,4.1c3.89-1.44,6.19-4.1,6.19-7.56v-.65c0-6-5.54-9.36-16.27-9.79v3c8.64.36,12.82,2.6,12.82,6.84v.65c0,3.89-3.46,6.12-9.58,6.12H32.18v3H44.27c6.2,0,9.65,2.16,9.65,6v.58c0,4.68-4.32,7-13.75,7.27v3.1c11.52-.43,17.21-3.89,17.21-10.23v-.64C57.38,63.17,54.71,60.37,50.25,59.07ZM20.73,63.82v-.43H17.42v.43c0,8.57,5.69,13.11,16.85,13.83v-3C25.12,74,20.73,70.59,20.73,63.82ZM83.27,44.38V41.14C74,42,67.86,47.12,67.86,54v.58h3.31V54C71.17,48.92,76.07,45.17,83.27,44.38Zm5.9-3.24v3.24c7.92.72,12.17,4.61,12.17,11.23v13.9c0,4.68,3.1,7.49,8.35,7.49h3.82V74h-3.17c-3.6,0-5.69-1.87-5.69-5.11V55.61C104.65,47.19,99,41.93,89.17,41.14Zm6.48,33.34-.21-3.17a22.38,22.38,0,0,1-12.53,3.46C75,74.77,71,72.61,71,68.36s3.24-6.27,10.44-7l14-1.44V57.05L80.82,58.57c-8.93.93-13.18,4.1-13.18,9.79,0,6.19,5.26,9.43,15.34,9.43A23,23,0,0,0,95.65,74.48ZM143.8,64.33v-3.1a61.25,61.25,0,0,1-10.44,1c-8.57,0-13-3.39-13-9.87V41.72H117V52.66c0,8.28,5.54,12.6,16.12,12.6A70.42,70.42,0,0,0,143.8,64.33ZM149.71,77H153V41.72h-3.31ZM187,41.14v3.17c8.06.94,13.1,5.83,13.32,13.25h-33.2c.29-7.42,5.55-12.31,14-13.25V41.14c-10.73,1-17.49,7.56-17.49,17.43v1.65c0,9.79,6.69,16.35,17.49,17.35V74.41c-8.64-.94-14-6-14-14h36.72V58.35C203.83,48.56,197.35,42.15,187,41.14Zm0,33.34v3.09c10-.79,16.56-5.76,16.84-13.17h-3.6C200.09,69.87,194.91,73.76,187,74.48Zm75.66-32.76L240.76,73.33,218.87,41.72h-4L239.25,77h3l24.41-35.28ZM214.84,77h3.24V57l-3.24-4.89Zm48.53,0h3.31V52.09L263.37,57Zm29.74-44.71v-3.1c-9.79.79-15.69,5.9-15.69,13.82v1.52h3.31V43C280.73,37,285.34,33.08,293.11,32.29Zm5.91-3.1v3.1c7.2.72,11.52,4.1,11.52,9.28v.72c0,3.46-2,5.69-8.57,9.44-6.19,3.52-8.14,6.26-8.14,11.52v2.88H297V63.25c0-4.11,1.73-6.34,7.63-9.65,6.84-3.89,9.36-6.91,9.36-11.23V41.5C314,34.81,308,30.05,299,29.19Zm-3.6,48.6a2.56,2.56,0,1,0,0-5.11,2.56,2.56,0,1,0,0,5.11Z"/> <path class="cls-3" d="M359.08,77V29.77h-3.53V77ZM365,51.8V55h30.75V77h3.53V29.77h-3.53v22Zm63.75-7.56v-3.1c-11,1-17.79,7.49-17.79,17.57v1.51c0,9.87,6.77,16.35,17.79,17.35V74.41c-8.86-.94-14.33-6.12-14.33-14.26V58.71C414.4,50.5,419.73,45.25,428.73,44.24Zm5.9-3.1v3.17c8.79.94,14.11,6.34,14.11,14.4v1.44c0,8.06-5.4,13.39-14.11,14.26v3.16c10.87-1,17.57-7.48,17.57-17.35V58.71C452.2,48.7,445.5,42.15,434.63,41.14ZM478.28,77,462,41.72h-3.52v.57l16,34.71Zm32.18,0L494.55,41.72h-3.39L479.79,65.91l1.8,4.18L492.89,46l14,31Zm1.66-10.87,1.65,4,13.47-27.8v-.57h-3.39Zm19.55,21.16h3.24l6-17.2v-.58h-3.81ZM598.11,77,579.24,29.77h-3.6v.57L594.36,77Zm3.31-7.49,14.47-35.14L633.1,77h3.67L617.83,29.77H614l-14.4,34.84Zm36.86-4.9,1.87,4.9,15.92-39.17v-.57h-3.6ZM665.12,77h3.39V26.89h-3.39Zm9.29-33.12v3.31a16.33,16.33,0,0,1,9.72-3.1c10.08,0,15.41,5,15.41,14.26V77h3.38V58.35c0-11.38-6.48-17.42-18.36-17.42A18.15,18.15,0,0,0,674.41,43.88Zm62.35-2.74v3.17c8.06.94,13.1,5.83,13.32,13.25H716.89c.28-7.42,5.54-12.31,14-13.25V41.14c-10.72,1-17.49,7.56-17.49,17.43v1.65c0,9.79,6.69,16.35,17.49,17.35V74.41c-8.64-.94-14-6-14-14h36.72V58.35C753.61,48.56,747.13,42.15,736.76,41.14Zm0,33.34v3.09c10-.79,16.56-5.76,16.85-13.17H750C749.86,69.87,744.68,73.76,736.76,74.48Zm37.14-30.6v3.31a16.36,16.36,0,0,1,9.72-3.1c10.08,0,15.41,5,15.41,14.26V77h3.39V58.35c0-11.38-6.48-17.42-18.36-17.42A18.16,18.16,0,0,0,773.9,43.88ZM764.62,77H768V41.72h-3.38Zm96.21-44.71v-3.1c-8.93.65-14.47,4.46-14.47,10.22V40c0,4,2.09,6.34,8.35,10.44L895.46,77h5v-.58L856.66,47.84c-5-3.31-6.84-5.11-6.84-7.85v-.65C849.82,35.31,853.85,32.79,860.83,32.29ZM869,48.85l3,2c7.13-2.88,9.51-5.69,9.51-10.44V39.7c0-5.76-5.84-9.86-14.76-10.51v3.1c7,.57,11.3,3.45,11.3,7.48v.65C878,44.09,876.1,46.11,869,48.85ZM886.9,60.51l2.8,1.87,11.52-11.23v-.5H897Zm-9.15,12.1-3.24-2.16a21.56,21.56,0,0,1-13,4.17c-10.15,0-16.13-3.24-16.13-8.85v-.72c0-3.32,2-5.12,8.72-7.85l-2.88-2c-6.92,3-9.29,5.76-9.29,9.94v.72c0,7.27,7.56,11.88,19.65,11.88A26.45,26.45,0,0,0,877.75,72.61ZM952.69,77,933.83,29.77h-3.6v.57L949,77ZM956,69.51l14.48-35.14L987.68,77h3.68L972.42,29.77h-3.89l-14.4,34.84Zm36.87-4.9,1.87,4.9,15.92-39.17v-.57h-3.6ZM1019.71,77h3.39V26.89h-3.39ZM1029,43.88v3.31a16.33,16.33,0,0,1,9.72-3.1c10.08,0,15.41,5,15.41,14.26V77h3.38V58.35c0-11.38-6.48-17.42-18.36-17.42A18.15,18.15,0,0,0,1029,43.88Zm52.75,27.43,1.8-3.6-14.18-26h-3.53v.57Zm22.68-29.59-21.31,39c-2.38,4.32-4.39,5.47-9.36,5.47h-5.33v3h5.33c7,0,9.79-2.16,12.6-7.35l21.6-39.6v-.57Zm27.09-9.43v-3.1c-9.79.79-15.69,5.9-15.69,13.82v1.52h3.31V43C1119.14,37,1123.75,33.08,1131.52,32.29Zm5.91-3.1v3.1c7.2.72,11.52,4.1,11.52,9.28v.72c0,3.46-2,5.69-8.57,9.44-6.19,3.52-8.14,6.26-8.14,11.52v2.88h3.17V63.25c0-4.11,1.73-6.34,7.63-9.65,6.84-3.89,9.36-6.91,9.36-11.23V41.5C1152.4,34.81,1146.43,30.05,1137.43,29.19Zm-3.6,48.6a2.56,2.56,0,1,0-2.59-2.59A2.53,2.53,0,0,0,1133.83,77.79Z"/> </g> </g> </svg>