<?xml version="1.0" encoding="UTF-8"?>
<svg xmlns="http://www.w3.org/2000/svg" viewBox="0 0 1167.39 140.21"> <defs> <style>.cls-1{fill:#00a7d8;}.cls-2{fill:#fff;}</style> </defs> <g id="Слой_2" data-name="Слой 2"> <g id="Text"> <rect class="cls-1" width="1167.39" height="140.21"/> <path class="cls-2" d="M1077.87,110V62.3h-7.26V110Zm5.23-47.66v6.47h28.05V62.3Zm0,20.56v6.47h26.6V82.86Zm0,20.64V110h28.05V103.5Zm78.74,6.46V59.39h-7V110Zm-12.2-34.58a19.28,19.28,0,0,0-9.45-2.26c-12.28,0-20.35,7-20.35,18.24v1.16c0,11.27,8.07,18.32,20.35,18.32a20.19,20.19,0,0,0,9.45-2.18v-6.47a15.75,15.75,0,0,1-8.22,2.25c-8.93,0-14.38-4.5-14.38-11.92V91.36c0-7.41,5.38-11.84,14.38-11.84a15.54,15.54,0,0,1,8.22,2.18Z"/> <path class="cls-2" d="M368.71,110V62.3h-7.27V110Zm5.23-47.66v6.47H402V62.3Zm0,20.56v6.47h26.59V82.86Zm0,20.64V110H402V103.5ZM452.68,110V59.39h-7V110ZM440.47,75.38A19.21,19.21,0,0,0,431,73.12c-12.28,0-20.35,7-20.35,18.24v1.16c0,11.27,8.07,18.32,20.35,18.32a20.12,20.12,0,0,0,9.44-2.18v-6.47a15.74,15.74,0,0,1-8.21,2.25c-8.94,0-14.39-4.5-14.39-11.92V91.36c0-7.41,5.38-11.84,14.39-11.84a15.51,15.51,0,0,1,8.21,2.18Zm48,35.31v-6.76c-11.41-.72-17.66-6.83-17.66-17.07V85.48c0-10.18,6.32-16.35,17.66-17.15V61.57c-15.33.87-25,10.1-25,24v1.23C463.5,100.66,473.17,109.82,488.5,110.69Zm5.3-49.12v6.76c9.74.73,16.57,5.88,16.57,12.64v.66h7.34V81C517.71,70.51,507.68,62.44,493.8,61.57Zm0,42.36v6.76c13.88-.87,23.91-8.86,23.91-19.33v-.72h-7.34v.72C510.37,98.12,503.61,103.21,493.8,103.93ZM529.26,74v36h7V74Zm12.21,1.74v6.32a12.35,12.35,0,0,1,7.12-2h7.26V74H549A15.29,15.29,0,0,0,541.47,75.74ZM590,108.44v-6.61a13.12,13.12,0,0,1-7.85,2.61c-8.35,0-12.86-4.29-12.86-12.06V74h-6.9V92.38c0,12.06,6.68,18.46,18.82,18.46A16.62,16.62,0,0,0,590,108.44ZM602.19,74h-7v36h7Zm24.55,1.45v6.61a12.85,12.85,0,0,1,7.85-2.54c8.35,0,12.86,4.21,12.86,12.06V110h6.9V91.58c0-12.13-6.68-18.46-18.82-18.46A17.25,17.25,0,0,0,626.74,75.45ZM614.53,110h7V74h-7Zm67.72-30.15V73.27c-11.63.87-18.82,7.63-18.82,18v1.52c0,10.32,7.19,17.08,18.82,18v-6.54c-7.41-.8-11.63-4.87-11.63-11.41V91.22C670.62,84.68,674.84,80.61,682.25,79.81Zm5.23-6.54v6.54c6.39.73,10.82,4.14,10.82,8.72v.36h7.2v-.36C705.5,80.25,698.09,74.14,687.48,73.27Zm0,30.88v6.54c10.75-.87,18-6.83,18-15.19v-.36h-7.2v.36C698.3,100.08,694,103.5,687.48,104.15ZM714.87,110h7V59.39h-7Zm12.2-34.51v6.61a12.85,12.85,0,0,1,7.85-2.54c8.36,0,12.86,4.21,12.86,12.06V110h6.9V91.58c0-12.13-6.68-18.46-18.82-18.46A17.25,17.25,0,0,0,727.07,75.45Zm92,35.24v-6.76c-11.4-.72-17.65-6.83-17.65-17.07V85.48c0-10.18,6.32-16.35,17.65-17.15V61.57c-15.33.87-25,10.1-25,24v1.23C794.09,100.66,803.75,109.82,819.08,110.69Zm5.31-49.12v6.76C834.12,69.06,841,74.21,841,81v.66h7.34V81C848.29,70.51,838.27,62.44,824.39,61.57Zm0,42.36v6.76c13.88-.87,23.9-8.86,23.9-19.33v-.72H841v.72C841,98.12,834.2,103.21,824.39,103.93Zm50.86-24.19V73.27c-11.77.94-18.89,7.7-18.89,18.17v1.23c0,10.32,7.12,17.08,18.89,18v-6.47c-7.26-.8-11.7-4.94-11.7-11.62v-1C863.55,84.75,867.84,80.54,875.25,79.74Zm5.31-6.47v6.47c7.26.8,11.55,5.16,11.55,11.84v1c0,6.61-4.36,10.82-11.55,11.62v6.47c11.69-.87,18.74-7.63,18.74-18V91.44C899.3,81,892.25,74.14,880.56,73.27Zm40.51,2.18v6.61a12.83,12.83,0,0,1,7.85-2.54c8.35,0,12.86,4.21,12.86,12.06V110h6.9V91.58c0-12.13-6.69-18.46-18.82-18.46A17.25,17.25,0,0,0,921.07,75.45ZM908.86,110h7V74h-7Zm63.68-36V71c0-3.64,2-5.45,5.45-5.45h7.92V59.39h-8.79c-7.12,0-11.56,4.29-11.56,11.26V74H953v6.1h35.82V74Zm-7,36h7V85.19h-7Z"/> <path class="cls-2" d="M256.39,85.18V110h7V85.18Zm7-11.19V71c0-3.64,2-5.45,5.45-5.45h7.92V59.39H268c-7.12,0-11.56,4.29-11.56,11.26V74H243.82V80.1h35.83V74Zm-63.68,0v36h7V74Zm21-.87a17.15,17.15,0,0,0-8.79,2.33v6.61a12.83,12.83,0,0,1,7.85-2.54c8.35,0,12.86,4.21,12.86,12.06V110h6.9V91.58C239.51,79.44,232.83,73.12,220.69,73.12Zm-49.3.15v6.46c7.26.8,11.55,5.16,11.55,11.85v1c0,6.62-4.36,10.83-11.55,11.63v6.47c11.69-.87,18.74-7.63,18.74-18V91.43C190.13,81,183.08,74.14,171.39,73.27Zm-5.31,6.46V73.27c-11.77.94-18.89,7.7-18.89,18.16v1.24c0,10.32,7.12,17.07,18.89,18v-6.47c-7.26-.8-11.7-4.94-11.7-11.63v-1C154.38,84.75,158.67,80.53,166.08,79.73Zm-34.29,10.9v.73c0,6.76-6.76,11.84-16.57,12.57v6.76c13.88-.87,23.9-8.87,23.9-19.33v-.73ZM115.22,61.57v6.76c9.74.72,16.57,5.88,16.57,12.64v.65h7.33V81C139.12,70.51,129.1,62.44,115.22,61.57Zm-5.31,6.76V61.57c-15.33.87-25,10.1-25,24v1.23c0,13.88,9.66,23,25,23.91v-6.76c-11.4-.73-17.65-6.83-17.65-17.08V85.47C92.26,75.3,98.58,69.13,109.91,68.33ZM26.7,73.12a17.19,17.19,0,0,0-8.8,2.33v6.61a12.85,12.85,0,0,1,7.85-2.54c8.36,0,12.86,4.21,12.86,12.06V110h6.9V91.58C45.51,79.44,38.83,73.12,26.7,73.12ZM5.7,59.39V110h7V59.39Z"/> </g> </g> </svg>