<svg width="22" height="14" viewBox="0 0 22 14" fill="none" xmlns="http://www.w3.org/2000/svg">
<path d="M10.1423 13.192H11.8703V0.411999H10.1423V13.192ZM7.19033 6.136V4.624L1.79033 2.608L1.25033 4.156L7.19033 6.136ZM14.8223 6.136L20.7623 4.156L20.2223 2.608L14.8223 4.624V6.136ZM1.79033 10.996L7.19033 8.98V7.468L1.25033 9.448L1.79033 10.996ZM20.2223 10.996L20.7623 9.448L14.8223 7.468V8.98L20.2223 10.996Z" fill="white"/>
<path d="M10.1423 13.192H9.89233V13.442H10.1423V13.192ZM11.8703 13.192V13.442H12.1203V13.192H11.8703ZM11.8703 0.411999H12.1203V0.161999H11.8703V0.411999ZM10.1423 0.411999V0.161999H9.89233V0.411999H10.1423ZM7.19033 6.136L7.11127 6.37317L7.44033 6.48285V6.136H7.19033ZM7.19033 4.624H7.44033V4.45048L7.27777 4.38979L7.19033 4.624ZM1.79033 2.608L1.87777 2.37379L1.63843 2.28443L1.55428 2.52566L1.79033 2.608ZM1.25033 4.156L1.01428 4.07365L0.930784 4.31301L1.17127 4.39317L1.25033 4.156ZM14.8223 6.136H14.5723V6.48285L14.9014 6.37317L14.8223 6.136ZM20.7623 4.156L20.8414 4.39317L21.0819 4.31301L20.9984 4.07365L20.7623 4.156ZM20.2223 2.608L20.4584 2.52566L20.3742 2.28443L20.1349 2.37379L20.2223 2.608ZM14.8223 4.624L14.7349 4.38979L14.5723 4.45048V4.624H14.8223ZM1.79033 10.996L1.55428 11.0783L1.63843 11.3196L1.87777 11.2302L1.79033 10.996ZM7.19033 8.98L7.27777 9.21421L7.44033 9.15352V8.98H7.19033ZM7.19033 7.468H7.44033V7.12114L7.11127 7.23083L7.19033 7.468ZM1.25033 9.448L1.17127 9.21083L0.930784 9.29099L1.01428 9.53034L1.25033 9.448ZM20.2223 10.996L20.1349 11.2302L20.3742 11.3196L20.4584 11.0783L20.2223 10.996ZM20.7623 9.448L20.9984 9.53034L21.0819 9.29099L20.8414 9.21083L20.7623 9.448ZM14.8223 7.468L14.9014 7.23083L14.5723 7.12114V7.468H14.8223ZM14.8223 8.98H14.5723V9.15352L14.7349 9.21421L14.8223 8.98ZM10.1423 13.442H11.8703V12.942H10.1423V13.442ZM12.1203 13.192V0.411999H11.6203V13.192H12.1203ZM11.8703 0.161999H10.1423V0.661999H11.8703V0.161999ZM9.89233 0.411999V13.192H10.3923V0.411999H9.89233ZM7.44033 6.136V4.624H6.94033V6.136H7.44033ZM7.27777 4.38979L1.87777 2.37379L1.70289 2.84221L7.10289 4.85821L7.27777 4.38979ZM1.55428 2.52566L1.01428 4.07365L1.48638 4.23834L2.02638 2.69034L1.55428 2.52566ZM1.17127 4.39317L7.11127 6.37317L7.26939 5.89883L1.32939 3.91883L1.17127 4.39317ZM14.9014 6.37317L20.8414 4.39317L20.6833 3.91883L14.7433 5.89883L14.9014 6.37317ZM20.9984 4.07365L20.4584 2.52566L19.9863 2.69034L20.5263 4.23834L20.9984 4.07365ZM20.1349 2.37379L14.7349 4.38979L14.9098 4.85821L20.3098 2.84221L20.1349 2.37379ZM14.5723 4.624V6.136H15.0723V4.624H14.5723ZM1.87777 11.2302L7.27777 9.21421L7.10289 8.74579L1.70289 10.7618L1.87777 11.2302ZM7.44033 8.98V7.468H6.94033V8.98H7.44033ZM7.11127 7.23083L1.17127 9.21083L1.32939 9.68517L7.26939 7.70517L7.11127 7.23083ZM1.01428 9.53034L1.55428 11.0783L2.02638 10.9137L1.48638 9.36566L1.01428 9.53034ZM20.4584 11.0783L20.9984 9.53034L20.5263 9.36566L19.9863 10.9137L20.4584 11.0783ZM20.8414 9.21083L14.9014 7.23083L14.7433 7.70517L20.6833 9.68517L20.8414 9.21083ZM14.5723 7.468V8.98H15.0723V7.468H14.5723ZM14.7349 9.21421L20.1349 11.2302L20.3098 10.7618L14.9098 8.74579L14.7349 9.21421Z" fill="white"/>
</svg>
