<svg width="1478" height="33" viewBox="0 0 1478 33" fill="none" xmlns="http://www.w3.org/2000/svg">
<path d="M11.2759 25.9998L1.84395 2.38385H0.0439453V2.67185L9.40394 25.9998H11.2759ZM12.9319 22.2558L20.1679 4.68785L28.7719 25.9998H30.6079L21.1399 2.38385H19.1959L11.9959 19.8078L12.9319 22.2558ZM31.3639 19.8078L32.2999 22.2558L40.2559 2.67185V2.38385H38.4559L31.3639 19.8078Z" fill="white"/>
<path d="M44.7849 25.9998H46.4769V0.943848H44.7849V25.9998ZM49.4289 9.43985V11.0958C50.7249 10.1238 52.4529 9.54785 54.2889 9.54785C59.3289 9.54785 61.9929 12.0318 61.9929 16.6758V25.9998H63.6849V16.6758C63.6849 10.9878 60.4449 7.96385 54.5049 7.96385C52.5969 7.96385 50.7969 8.50385 49.4289 9.43985Z" fill="white"/>
<path d="M77.4707 9.69185V8.07185C72.8267 8.50385 69.7667 11.0598 69.7667 14.5158V14.8038H71.4227V14.5158C71.4227 11.9598 73.8707 10.0878 77.4707 9.69185ZM80.4227 8.07185V9.69185C84.3827 10.0518 86.5067 11.9958 86.5067 15.3078V22.2558C86.5067 24.5958 88.0547 25.9998 90.6827 25.9998H92.5907V24.4878H91.0067C89.2067 24.4878 88.1627 23.5518 88.1627 21.9318V15.3078C88.1627 11.0958 85.3547 8.46785 80.4227 8.07185ZM83.6627 24.7398L83.5547 23.1558C81.9707 24.2358 79.7747 24.8838 77.2907 24.8838C73.3307 24.8838 71.3507 23.8038 71.3507 21.6798C71.3507 19.6278 72.9707 18.5478 76.5707 18.1878L83.5547 17.4678V16.0278L76.2467 16.7838C71.7827 17.2518 69.6587 18.8358 69.6587 21.6798C69.6587 24.7758 72.2867 26.3958 77.3267 26.3958C79.8467 26.3958 82.0067 25.8198 83.6627 24.7398Z" fill="white"/>
<path d="M100.502 8.35985V3.57185H98.8459V7.63985C98.8459 8.17985 98.6659 8.35985 98.1259 8.35985H91.5739V9.87185H109.358V8.35985H100.502ZM100.502 20.9958V12.8238H98.8099V21.0318C98.8099 24.1278 100.718 25.9998 103.958 25.9998H108.278V24.4878H104.066C101.798 24.4878 100.502 23.2278 100.502 20.9958Z" fill="white"/>
<path d="M136.283 25.9998L128.147 8.35985H126.383V8.64785L134.375 25.9998H136.283ZM152.375 25.9998L144.419 8.35985H142.727L137.039 20.4558L137.939 22.5438L143.591 10.4838L150.575 25.9998H152.375ZM153.203 20.5638L154.031 22.5438L160.763 8.64785V8.35985H159.071L153.203 20.5638Z" fill="white"/>
<path d="M172.822 9.61985V8.07185C167.314 8.57585 163.93 11.8158 163.93 16.8558V17.6118C163.93 22.5438 167.314 25.7838 172.822 26.2878V24.7038C168.394 24.2358 165.658 21.6438 165.658 17.5758V16.8558C165.658 12.7518 168.322 10.1238 172.822 9.61985ZM175.774 8.07185V9.65585C180.166 10.1238 182.83 12.8238 182.83 16.8558V17.5758C182.83 21.6078 180.13 24.2718 175.774 24.7038V26.2878C181.21 25.7838 184.558 22.5438 184.558 17.6118V16.8558C184.558 11.8518 181.21 8.57585 175.774 8.07185Z" fill="white"/>
<path d="M190.879 8.35985V25.9998H192.535V8.35985H190.879ZM195.487 9.51185V11.0958C196.531 10.3398 197.935 9.87185 199.555 9.87185H203.191V8.35985H199.627C198.043 8.35985 196.603 8.75585 195.487 9.51185Z" fill="white"/>
<path d="M207.066 25.9998H208.758V0.943848H207.066V25.9998ZM211.746 16.9638V18.7998L226.146 8.64785V8.35985H223.95L211.746 16.9638ZM217.938 17.9358L216.606 19.0158L224.526 25.9998H226.65V25.7118L217.938 17.9358Z" fill="white"/>
<path d="M240.816 24.7758V26.3238C245.892 26.0358 249.024 24.2358 249.024 21.3918V21.0318C249.024 18.2958 246.648 16.9638 241.032 16.4238L237.36 16.0998C233.508 15.7758 231.96 14.8758 231.96 13.1118V12.7878C231.96 10.9878 234.12 9.79985 237.828 9.58385V8.03585C233.076 8.32385 230.232 10.0878 230.232 12.8238V13.1838C230.232 15.7758 232.392 17.1438 237.324 17.5758L240.96 17.9358C245.532 18.4038 247.296 19.2318 247.296 21.0678V21.3918C247.296 23.3358 244.884 24.5598 240.816 24.7758ZM240.816 8.03585V9.58385C244.776 9.87185 247.296 11.3838 247.296 13.5078V13.6518H248.988V13.5078C248.988 10.4838 245.784 8.39585 240.816 8.03585ZM237.828 26.3238V24.7758C233.652 24.4878 231.132 23.0478 231.132 20.8518V20.7078H229.44V20.8518C229.44 23.9118 232.752 25.9638 237.828 26.3238Z" fill="white"/>
<path d="M271.195 4.72385C271.987 4.72385 272.563 4.14785 272.563 3.39185C272.563 2.63585 271.987 2.09585 271.195 2.09585C270.403 2.09585 269.827 2.63585 269.827 3.39185C269.827 4.14785 270.439 4.72385 271.195 4.72385ZM270.367 25.9998H272.023V8.35985H270.367V25.9998Z" fill="white"/>
<path d="M284.484 9.43985V11.0958C285.78 10.1238 287.508 9.54785 289.344 9.54785C294.384 9.54785 297.048 12.0318 297.048 16.6758V25.9998H298.74V16.6758C298.74 10.9878 295.5 7.96385 289.56 7.96385C287.652 7.96385 285.852 8.50385 284.484 9.43985ZM279.84 25.9998H281.532V8.35985H279.84V25.9998Z" fill="white"/>
<path d="M330.071 8.07185V9.65585C334.103 10.1238 336.623 12.5718 336.731 16.2798H320.135C320.279 12.5718 322.907 10.1238 327.119 9.65585V8.07185C321.755 8.57585 318.371 11.8518 318.371 16.7838V17.6118C318.371 22.5078 321.719 25.7838 327.119 26.2878V24.7038C322.799 24.2358 320.135 21.6798 320.135 17.7198H338.495V16.6758C338.495 11.7798 335.255 8.57585 330.071 8.07185ZM330.071 24.7398V26.2878C335.075 25.8918 338.351 23.4078 338.495 19.6998H336.695C336.623 22.4358 334.031 24.3798 330.071 24.7398Z" fill="white"/>
<path d="M362.576 25.9998V0.943848H360.884V25.9998H362.576ZM357.932 9.40385C356.492 8.50385 354.62 7.96385 352.64 7.96385C346.448 7.96385 342.524 11.3838 342.524 16.8198V17.5398C342.524 22.9758 346.448 26.3958 352.64 26.3958C354.62 26.3958 356.492 25.8558 357.932 24.9558V23.3358C356.6 24.2718 354.8 24.8118 352.892 24.8118C347.564 24.8118 344.252 22.0758 344.252 17.5398V16.8198C344.252 12.2838 347.564 9.54785 352.892 9.54785C354.8 9.54785 356.6 10.0878 357.932 11.0238V9.40385Z" fill="white"/>
<path d="M383.526 24.9198V23.2638C382.266 24.2358 380.538 24.8118 378.666 24.8118C373.626 24.8118 370.962 22.3278 370.962 17.6838V8.35985H369.27V17.6838C369.27 23.3718 372.51 26.3958 378.45 26.3958C380.358 26.3958 382.158 25.8558 383.526 24.9198ZM388.17 8.35985H386.478V25.9998H388.17V8.35985Z" fill="white"/>
<path d="M402.568 9.65585V8.07185C397.096 8.57585 393.676 11.8518 393.676 16.7838V17.5758C393.676 22.5078 397.096 25.7838 402.568 26.2878V24.6678C398.104 24.2358 395.404 21.6078 395.404 17.5758V16.7838C395.404 12.7518 398.104 10.1238 402.568 9.65585ZM405.52 8.07185V9.65585C409.408 10.0878 412.144 12.2838 412.144 15.1638V15.3798H413.872V15.1638C413.872 11.4198 410.38 8.53985 405.52 8.07185ZM405.52 24.6678V26.2878C410.416 25.8198 413.872 22.9758 413.872 19.2318V19.0158H412.144V19.2318C412.144 22.0758 409.408 24.2718 405.52 24.6678Z" fill="white"/>
<path d="M426.361 9.69185V8.07185C421.717 8.50385 418.657 11.0598 418.657 14.5158V14.8038H420.313V14.5158C420.313 11.9598 422.761 10.0878 426.361 9.69185ZM429.313 8.07185V9.69185C433.273 10.0518 435.397 11.9958 435.397 15.3078V22.2558C435.397 24.5958 436.945 25.9998 439.573 25.9998H441.481V24.4878H439.897C438.097 24.4878 437.053 23.5518 437.053 21.9318V15.3078C437.053 11.0958 434.245 8.46785 429.313 8.07185ZM432.553 24.7398L432.445 23.1558C430.861 24.2358 428.665 24.8838 426.181 24.8838C422.221 24.8838 420.241 23.8038 420.241 21.6798C420.241 19.6278 421.861 18.5478 425.461 18.1878L432.445 17.4678V16.0278L425.137 16.7838C420.673 17.2518 418.549 18.8358 418.549 21.6798C418.549 24.7758 421.177 26.3958 426.217 26.3958C428.737 26.3958 430.897 25.8198 432.553 24.7398Z" fill="white"/>
<path d="M449.393 8.35985V3.57185H447.737V7.63985C447.737 8.17985 447.557 8.35985 447.017 8.35985H440.465V9.87185H458.249V8.35985H449.393ZM449.393 20.9958V12.8238H447.701V21.0318C447.701 24.1278 449.609 25.9998 452.849 25.9998H457.169V24.4878H452.957C450.689 24.4878 449.393 23.2278 449.393 20.9958Z" fill="white"/>
<path d="M463.992 4.72385C464.784 4.72385 465.36 4.14785 465.36 3.39185C465.36 2.63585 464.784 2.09585 463.992 2.09585C463.2 2.09585 462.624 2.63585 462.624 3.39185C462.624 4.14785 463.236 4.72385 463.992 4.72385ZM463.164 25.9998H464.82V8.35985H463.164V25.9998Z" fill="white"/>
<path d="M480.052 9.61985V8.07185C474.544 8.57585 471.16 11.8158 471.16 16.8558V17.6118C471.16 22.5438 474.544 25.7838 480.052 26.2878V24.7038C475.624 24.2358 472.888 21.6438 472.888 17.5758V16.8558C472.888 12.7518 475.552 10.1238 480.052 9.61985ZM483.004 8.07185V9.65585C487.396 10.1238 490.06 12.8238 490.06 16.8558V17.5758C490.06 21.6078 487.36 24.2718 483.004 24.7038V26.2878C488.44 25.7838 491.788 22.5438 491.788 17.6118V16.8558C491.788 11.8518 488.44 8.57585 483.004 8.07185Z" fill="white"/>
<path d="M501.925 9.43985V11.0958C503.221 10.1238 504.949 9.54785 506.785 9.54785C511.825 9.54785 514.489 12.0318 514.489 16.6758V25.9998H516.181V16.6758C516.181 10.9878 512.941 7.96385 507.001 7.96385C505.093 7.96385 503.293 8.50385 501.925 9.43985ZM497.281 25.9998H498.973V8.35985H497.281V25.9998Z" fill="white"/>
<path d="M529.967 9.69185V8.07185C525.323 8.50385 522.263 11.0598 522.263 14.5158V14.8038H523.919V14.5158C523.919 11.9598 526.367 10.0878 529.967 9.69185ZM532.919 8.07185V9.69185C536.879 10.0518 539.003 11.9958 539.003 15.3078V22.2558C539.003 24.5958 540.551 25.9998 543.179 25.9998H545.087V24.4878H543.503C541.703 24.4878 540.659 23.5518 540.659 21.9318V15.3078C540.659 11.0958 537.851 8.46785 532.919 8.07185ZM536.159 24.7398L536.051 23.1558C534.467 24.2358 532.271 24.8838 529.787 24.8838C525.827 24.8838 523.847 23.8038 523.847 21.6798C523.847 19.6278 525.467 18.5478 529.067 18.1878L536.051 17.4678V16.0278L528.743 16.7838C524.279 17.2518 522.155 18.8358 522.155 21.6798C522.155 24.7758 524.783 26.3958 529.823 26.3958C532.343 26.3958 534.503 25.8198 536.159 24.7398Z" fill="white"/>
<path d="M554.08 25.9998H555.844V24.4878H554.332C552.028 24.4878 551.128 23.6598 551.128 21.5358V0.943848H549.472V21.7878C549.472 24.6678 550.912 25.9998 554.08 25.9998Z" fill="white"/>
<path d="M580.314 8.35985V3.57185H578.658V7.63985C578.658 8.17985 578.478 8.35985 577.938 8.35985H571.386V9.87185H589.17V8.35985H580.314ZM580.314 20.9958V12.8238H578.622V21.0318C578.622 24.1278 580.53 25.9998 583.77 25.9998H588.09V24.4878H583.878C581.61 24.4878 580.314 23.2278 580.314 20.9958Z" fill="white"/>
<path d="M602.814 8.07185V9.65585C606.846 10.1238 609.366 12.5718 609.474 16.2798H592.878C593.022 12.5718 595.65 10.1238 599.862 9.65585V8.07185C594.498 8.57585 591.114 11.8518 591.114 16.7838V17.6118C591.114 22.5078 594.462 25.7838 599.862 26.2878V24.7038C595.542 24.2358 592.878 21.6798 592.878 17.7198H611.238V16.6758C611.238 11.7798 607.998 8.57585 602.814 8.07185ZM602.814 24.7398V26.2878C607.818 25.8918 611.094 23.4078 611.238 19.6998H609.438C609.366 22.4358 606.774 24.3798 602.814 24.7398Z" fill="white"/>
<path d="M624.158 9.65585V8.07185C618.686 8.57585 615.266 11.8518 615.266 16.7838V17.5758C615.266 22.5078 618.686 25.7838 624.158 26.2878V24.6678C619.694 24.2358 616.994 21.6078 616.994 17.5758V16.7838C616.994 12.7518 619.694 10.1238 624.158 9.65585ZM627.11 8.07185V9.65585C630.998 10.0878 633.734 12.2838 633.734 15.1638V15.3798H635.462V15.1638C635.462 11.4198 631.97 8.53985 627.11 8.07185ZM627.11 24.6678V26.2878C632.006 25.8198 635.462 22.9758 635.462 19.2318V19.0158H633.734V19.2318C633.734 22.0758 630.998 24.2718 627.11 24.6678Z" fill="white"/>
<path d="M640.859 25.9998H642.551V0.943848H640.859V25.9998ZM645.503 9.43985V11.0958C646.799 10.1238 648.527 9.54785 650.363 9.54785C655.403 9.54785 658.067 12.0318 658.067 16.6758V25.9998H659.759V16.6758C659.759 10.9878 656.519 7.96385 650.579 7.96385C648.671 7.96385 646.871 8.50385 645.503 9.43985Z" fill="white"/>
<path d="M671.097 9.43985V11.0958C672.393 10.1238 674.121 9.54785 675.957 9.54785C680.997 9.54785 683.661 12.0318 683.661 16.6758V25.9998H685.353V16.6758C685.353 10.9878 682.113 7.96385 676.173 7.96385C674.265 7.96385 672.465 8.50385 671.097 9.43985ZM666.453 25.9998H668.145V8.35985H666.453V25.9998Z" fill="white"/>
<path d="M699.463 9.61985V8.07185C693.955 8.57585 690.571 11.8158 690.571 16.8558V17.6118C690.571 22.5438 693.955 25.7838 699.463 26.2878V24.7038C695.035 24.2358 692.299 21.6438 692.299 17.5758V16.8558C692.299 12.7518 694.963 10.1238 699.463 9.61985ZM702.415 8.07185V9.65585C706.807 10.1238 709.471 12.8238 709.471 16.8558V17.5758C709.471 21.6078 706.771 24.2718 702.415 24.7038V26.2878C707.851 25.7838 711.199 22.5438 711.199 17.6118V16.8558C711.199 11.8518 707.851 8.57585 702.415 8.07185Z" fill="white"/>
<path d="M722.127 25.9998H723.891V24.4878H722.379C720.075 24.4878 719.175 23.6598 719.175 21.5358V0.943848H717.519V21.7878C717.519 24.6678 718.959 25.9998 722.127 25.9998Z" fill="white"/>
<path d="M735.603 9.61985V8.07185C730.095 8.57585 726.711 11.8158 726.711 16.8558V17.6118C726.711 22.5438 730.095 25.7838 735.603 26.2878V24.7038C731.175 24.2358 728.439 21.6438 728.439 17.5758V16.8558C728.439 12.7518 731.103 10.1238 735.603 9.61985ZM738.555 8.07185V9.65585C742.947 10.1238 745.611 12.8238 745.611 16.8558V17.5758C745.611 21.6078 742.911 24.2718 738.555 24.7038V26.2878C743.991 25.7838 747.339 22.5438 747.339 17.6118V16.8558C747.339 11.8518 743.991 8.57585 738.555 8.07185Z" fill="white"/>
<path d="M766.728 23.9478V22.3638C765.324 23.3358 763.452 23.9118 761.472 23.9118C756.072 23.9118 753.048 21.4638 753.048 17.1078V16.3878C753.048 12.0318 756.108 9.51185 761.472 9.51185C763.452 9.51185 765.324 10.1238 766.728 11.0958V9.47585C765.252 8.50385 763.308 7.96385 761.292 7.96385C755.1 7.96385 751.32 11.0958 751.32 16.3878V17.1078C751.32 22.3998 755.064 25.4598 761.292 25.4598C763.308 25.4598 765.216 24.8838 766.728 23.9478ZM762.876 30.8598V32.4438C768.312 32.0478 771.372 29.4198 771.372 25.0278V8.35985H769.68V25.0638C769.68 28.4118 767.232 30.4998 762.876 30.8598ZM759.924 32.4438V30.8598C755.82 30.4998 753.084 28.6279 753.084 25.9639V25.6758H751.392V25.9639C751.392 29.5999 754.668 32.0478 759.924 32.4438Z" fill="white"/>
<path d="M780.011 4.72385C780.803 4.72385 781.379 4.14785 781.379 3.39185C781.379 2.63585 780.803 2.09585 780.011 2.09585C779.219 2.09585 778.643 2.63585 778.643 3.39185C778.643 4.14785 779.255 4.72385 780.011 4.72385ZM779.183 25.9998H780.839V8.35985H779.183V25.9998Z" fill="white"/>
<path d="M798.88 8.07185V9.65585C802.912 10.1238 805.432 12.5718 805.54 16.2798H788.944C789.088 12.5718 791.716 10.1238 795.928 9.65585V8.07185C790.564 8.57585 787.18 11.8518 787.18 16.7838V17.6118C787.18 22.5078 790.528 25.7838 795.928 26.2878V24.7038C791.608 24.2358 788.944 21.6798 788.944 17.7198H807.304V16.6758C807.304 11.7798 804.064 8.57585 798.88 8.07185ZM798.88 24.7398V26.2878C803.884 25.8918 807.16 23.4078 807.304 19.6998H805.504C805.432 22.4358 802.84 24.3798 798.88 24.7398Z" fill="white"/>
<path d="M823.284 24.7758V26.3238C828.36 26.0358 831.492 24.2358 831.492 21.3918V21.0318C831.492 18.2958 829.116 16.9638 823.5 16.4238L819.828 16.0998C815.976 15.7758 814.428 14.8758 814.428 13.1118V12.7878C814.428 10.9878 816.588 9.79985 820.296 9.58385V8.03585C815.544 8.32385 812.7 10.0878 812.7 12.8238V13.1838C812.7 15.7758 814.86 17.1438 819.792 17.5758L823.428 17.9358C828 18.4038 829.764 19.2318 829.764 21.0678V21.3918C829.764 23.3358 827.352 24.5598 823.284 24.7758ZM823.284 8.03585V9.58385C827.244 9.87185 829.764 11.3838 829.764 13.5078V13.6518H831.456V13.5078C831.456 10.4838 828.252 8.39585 823.284 8.03585ZM820.296 26.3238V24.7758C816.12 24.4878 813.6 23.0478 813.6 20.8518V20.7078H811.908V20.8518C811.908 23.9118 815.22 25.9638 820.296 26.3238Z" fill="white"/>
<path d="M843.857 3.64385V2.09585C838.961 2.49185 836.01 5.04785 836.01 9.00785V9.76385H837.666V9.00785C837.666 5.98385 839.969 4.03985 843.857 3.64385ZM846.81 2.09585V3.64385C850.41 4.00385 852.57 5.69585 852.57 8.28785V8.64785C852.57 10.3758 851.562 11.4918 848.286 13.3638C845.19 15.1278 844.218 16.4958 844.218 19.1238V20.5638H845.802V19.1238C845.802 17.0718 846.665 15.9558 849.617 14.2998C853.037 12.3558 854.297 10.8438 854.297 8.68385V8.25185C854.297 4.90385 851.31 2.52785 846.81 2.09585ZM845.01 26.3958C845.73 26.3958 846.305 25.8918 846.305 25.0998C846.305 24.3438 845.73 23.8398 845.01 23.8398C844.326 23.8398 843.714 24.3438 843.714 25.0998C843.714 25.8918 844.326 26.3958 845.01 26.3958Z" fill="white"/>
<path d="M876.842 25.9998V2.38385H875.078V25.9998H876.842ZM879.794 13.3998V14.9838H895.166V25.9998H896.93V2.38385H895.166V13.3998H879.794Z" fill="white"/>
<path d="M911.666 9.61985V8.07185C906.158 8.57585 902.774 11.8158 902.774 16.8558V17.6118C902.774 22.5438 906.158 25.7838 911.666 26.2878V24.7038C907.238 24.2358 904.502 21.6438 904.502 17.5758V16.8558C904.502 12.7518 907.166 10.1238 911.666 9.61985ZM914.618 8.07185V9.65585C919.01 10.1238 921.674 12.8238 921.674 16.8558V17.5758C921.674 21.6078 918.974 24.2718 914.618 24.7038V26.2878C920.054 25.7838 923.402 22.5438 923.402 17.6118V16.8558C923.402 11.8518 920.054 8.57585 914.618 8.07185Z" fill="white"/>
<path d="M936.439 25.9998L928.303 8.35985H926.539V8.64785L934.531 25.9998H936.439ZM952.531 25.9998L944.575 8.35985H942.883L937.195 20.4558L938.095 22.5438L943.747 10.4838L950.731 25.9998H952.531ZM953.359 20.5638L954.187 22.5438L960.919 8.64785V8.35985H959.227L953.359 20.5638Z" fill="white"/>
<path d="M987.947 9.69185V8.07185C983.303 8.50385 980.243 11.0598 980.243 14.5158V14.8038H981.899V14.5158C981.899 11.9598 984.347 10.0878 987.947 9.69185ZM990.899 8.07185V9.69185C994.859 10.0518 996.983 11.9958 996.983 15.3078V22.2558C996.983 24.5958 998.531 25.9998 1001.16 25.9998H1003.07V24.4878H1001.48C999.683 24.4878 998.639 23.5518 998.639 21.9318V15.3078C998.639 11.0958 995.831 8.46785 990.899 8.07185ZM994.139 24.7398L994.031 23.1558C992.447 24.2358 990.251 24.8838 987.767 24.8838C983.807 24.8838 981.827 23.8038 981.827 21.6798C981.827 19.6278 983.447 18.5478 987.047 18.1878L994.031 17.4678V16.0278L986.723 16.7838C982.259 17.2518 980.135 18.8358 980.135 21.6798C980.135 24.7758 982.763 26.3958 987.803 26.3958C990.323 26.3958 992.483 25.8198 994.139 24.7398Z" fill="white"/>
<path d="M1011.27 9.43985V11.0958C1012.56 10.1238 1014.29 9.54785 1016.13 9.54785C1021.17 9.54785 1023.83 12.0318 1023.83 16.6758V25.9998H1025.52V16.6758C1025.52 10.9878 1022.28 7.96385 1016.34 7.96385C1014.44 7.96385 1012.64 8.50385 1011.27 9.43985ZM1006.62 25.9998H1008.32V8.35985H1006.62V25.9998Z" fill="white"/>
<path d="M1050.79 25.9998V0.943848H1049.1V25.9998H1050.79ZM1046.15 9.40385C1044.71 8.50385 1042.84 7.96385 1040.86 7.96385C1034.67 7.96385 1030.74 11.3838 1030.74 16.8198V17.5398C1030.74 22.9758 1034.67 26.3958 1040.86 26.3958C1042.84 26.3958 1044.71 25.8558 1046.15 24.9558V23.3358C1044.82 24.2718 1043.02 24.8118 1041.11 24.8118C1035.78 24.8118 1032.47 22.0758 1032.47 17.5398V16.8198C1032.47 12.2838 1035.78 9.54785 1041.11 9.54785C1043.02 9.54785 1044.82 10.0878 1046.15 11.0238V9.40385Z" fill="white"/>
<path d="M1080.62 25.9998L1072.48 8.35985H1070.72V8.64785L1078.71 25.9998H1080.62ZM1096.71 25.9998L1088.75 8.35985H1087.06L1081.37 20.4558L1082.27 22.5438L1087.92 10.4838L1094.91 25.9998H1096.71ZM1097.54 20.5638L1098.36 22.5438L1105.1 8.64785V8.35985H1103.4L1097.54 20.5638Z" fill="white"/>
<path d="M1110.62 25.9998H1112.31V0.943848H1110.62V25.9998ZM1115.26 9.43985V11.0958C1116.56 10.1238 1118.28 9.54785 1120.12 9.54785C1125.16 9.54785 1127.82 12.0318 1127.82 16.6758V25.9998H1129.52V16.6758C1129.52 10.9878 1126.28 7.96385 1120.34 7.96385C1118.43 7.96385 1116.63 8.50385 1115.26 9.43985Z" fill="white"/>
<path d="M1146.43 8.07185V9.65585C1150.47 10.1238 1152.99 12.5718 1153.09 16.2798H1136.5C1136.64 12.5718 1139.27 10.1238 1143.48 9.65585V8.07185C1138.12 8.57585 1134.73 11.8518 1134.73 16.7838V17.6118C1134.73 22.5078 1138.08 25.7838 1143.48 26.2878V24.7038C1139.16 24.2358 1136.5 21.6798 1136.5 17.7198H1154.86V16.6758C1154.86 11.7798 1151.62 8.57585 1146.43 8.07185ZM1146.43 24.7398V26.2878C1151.44 25.8918 1154.71 23.4078 1154.86 19.6998H1153.06C1152.99 22.4358 1150.39 24.3798 1146.43 24.7398Z" fill="white"/>
<path d="M1165.01 9.43985V11.0958C1166.3 10.1238 1168.03 9.54785 1169.87 9.54785C1174.91 9.54785 1177.57 12.0318 1177.57 16.6758V25.9998H1179.26V16.6758C1179.26 10.9878 1176.02 7.96385 1170.08 7.96385C1168.18 7.96385 1166.38 8.50385 1165.01 9.43985ZM1160.36 25.9998H1162.06V8.35985H1160.36V25.9998Z" fill="white"/>
<path d="M1218.95 25.9998V0.943848H1217.25V25.9998H1218.95ZM1214.3 9.40385C1212.86 8.50385 1210.99 7.96385 1209.01 7.96385C1202.82 7.96385 1198.89 11.3838 1198.89 16.8198V17.5398C1198.89 22.9758 1202.82 26.3958 1209.01 26.3958C1210.99 26.3958 1212.86 25.8558 1214.3 24.9558V23.3358C1212.97 24.2718 1211.17 24.8118 1209.26 24.8118C1203.93 24.8118 1200.62 22.0758 1200.62 17.5398V16.8198C1200.62 12.2838 1203.93 9.54785 1209.26 9.54785C1211.17 9.54785 1212.97 10.0878 1214.3 11.0238V9.40385Z" fill="white"/>
<path d="M1233.35 9.61985V8.07185C1227.84 8.57585 1224.45 11.8158 1224.45 16.8558V17.6118C1224.45 22.5438 1227.84 25.7838 1233.35 26.2878V24.7038C1228.92 24.2358 1226.18 21.6438 1226.18 17.5758V16.8558C1226.18 12.7518 1228.85 10.1238 1233.35 9.61985ZM1236.3 8.07185V9.65585C1240.69 10.1238 1243.35 12.8238 1243.35 16.8558V17.5758C1243.35 21.6078 1240.65 24.2718 1236.3 24.7038V26.2878C1241.73 25.7838 1245.08 22.5438 1245.08 17.6118V16.8558C1245.08 11.8518 1241.73 8.57585 1236.3 8.07185Z" fill="white"/>
<path d="M1260.8 8.07185V9.65585C1264.83 10.1238 1267.35 12.5718 1267.46 16.2798H1250.86C1251.01 12.5718 1253.63 10.1238 1257.85 9.65585V8.07185C1252.48 8.57585 1249.1 11.8518 1249.1 16.7838V17.6118C1249.1 22.5078 1252.45 25.7838 1257.85 26.2878V24.7038C1253.53 24.2358 1250.86 21.6798 1250.86 17.7198H1269.22V16.6758C1269.22 11.7798 1265.98 8.57585 1260.8 8.07185ZM1260.8 24.7398V26.2878C1265.8 25.8918 1269.08 23.4078 1269.22 19.6998H1267.42C1267.35 22.4358 1264.76 24.3798 1260.8 24.7398Z" fill="white"/>
<path d="M1285.2 24.7758V26.3238C1290.28 26.0358 1293.41 24.2358 1293.41 21.3918V21.0318C1293.41 18.2958 1291.03 16.9638 1285.42 16.4238L1281.75 16.0998C1277.89 15.7758 1276.35 14.8758 1276.35 13.1118V12.7878C1276.35 10.9878 1278.51 9.79985 1282.21 9.58385V8.03585C1277.46 8.32385 1274.62 10.0878 1274.62 12.8238V13.1838C1274.62 15.7758 1276.78 17.1438 1281.71 17.5758L1285.35 17.9358C1289.92 18.4038 1291.68 19.2318 1291.68 21.0678V21.3918C1291.68 23.3358 1289.27 24.5598 1285.2 24.7758ZM1285.2 8.03585V9.58385C1289.16 9.87185 1291.68 11.3838 1291.68 13.5078V13.6518H1293.37V13.5078C1293.37 10.4838 1290.17 8.39585 1285.2 8.03585ZM1282.21 26.3238V24.7758C1278.04 24.4878 1275.52 23.0478 1275.52 20.8518V20.7078H1273.83V20.8518C1273.83 23.9118 1277.14 25.9638 1282.21 26.3238Z" fill="white"/>
<path d="M1315.58 4.72385C1316.37 4.72385 1316.95 4.14785 1316.95 3.39185C1316.95 2.63585 1316.37 2.09585 1315.58 2.09585C1314.79 2.09585 1314.21 2.63585 1314.21 3.39185C1314.21 4.14785 1314.83 4.72385 1315.58 4.72385ZM1314.75 25.9998H1316.41V8.35985H1314.75V25.9998Z" fill="white"/>
<path d="M1329.99 8.35985V3.57185H1328.33V7.63985C1328.33 8.17985 1328.15 8.35985 1327.61 8.35985H1321.06V9.87185H1338.84V8.35985H1329.99ZM1329.99 20.9958V12.8238H1328.29V21.0318C1328.29 24.1278 1330.2 25.9998 1333.44 25.9998H1337.76V24.4878H1333.55C1331.28 24.4878 1329.99 23.2278 1329.99 20.9958Z" fill="white"/>
<path d="M1365.77 25.9998L1357.63 8.35985H1355.87V8.64785L1363.86 25.9998H1365.77ZM1381.86 25.9998L1373.9 8.35985H1372.21L1366.52 20.4558L1367.42 22.5438L1373.08 10.4838L1380.06 25.9998H1381.86ZM1382.69 20.5638L1383.52 22.5438L1390.25 8.64785V8.35985H1388.56L1382.69 20.5638Z" fill="white"/>
<path d="M1402.31 9.61985V8.07185C1396.8 8.57585 1393.41 11.8158 1393.41 16.8558V17.6118C1393.41 22.5438 1396.8 25.7838 1402.31 26.2878V24.7038C1397.88 24.2358 1395.14 21.6438 1395.14 17.5758V16.8558C1395.14 12.7518 1397.81 10.1238 1402.31 9.61985ZM1405.26 8.07185V9.65585C1409.65 10.1238 1412.31 12.8238 1412.31 16.8558V17.5758C1412.31 21.6078 1409.61 24.2718 1405.26 24.7038V26.2878C1410.69 25.7838 1414.04 22.5438 1414.04 17.6118V16.8558C1414.04 11.8518 1410.69 8.57585 1405.26 8.07185Z" fill="white"/>
<path d="M1420.36 8.35985V25.9998H1422.02V8.35985H1420.36ZM1424.97 9.51185V11.0958C1426.01 10.3398 1427.42 9.87185 1429.04 9.87185H1432.67V8.35985H1429.11C1427.53 8.35985 1426.09 8.75585 1424.97 9.51185Z" fill="white"/>
<path d="M1436.55 25.9998H1438.24V0.943848H1436.55V25.9998ZM1441.23 16.9638V18.7998L1455.63 8.64785V8.35985H1453.43L1441.23 16.9638ZM1447.42 17.9358L1446.09 19.0158L1454.01 25.9998H1456.13V25.7118L1447.42 17.9358Z" fill="white"/>
<path d="M1467.32 3.64385V2.09585C1462.42 2.49185 1459.47 5.04785 1459.47 9.00785V9.76385H1461.13V9.00785C1461.13 5.98385 1463.43 4.03985 1467.32 3.64385ZM1470.27 2.09585V3.64385C1473.87 4.00385 1476.03 5.69585 1476.03 8.28785V8.64785C1476.03 10.3758 1475.02 11.4918 1471.75 13.3638C1468.65 15.1278 1467.68 16.4958 1467.68 19.1238V20.5638H1469.26V19.1238C1469.26 17.0718 1470.13 15.9558 1473.08 14.2998C1476.5 12.3558 1477.76 10.8438 1477.76 8.68385V8.25185C1477.76 4.90385 1474.77 2.52785 1470.27 2.09585ZM1468.47 26.3958C1469.19 26.3958 1469.77 25.8918 1469.77 25.0998C1469.77 24.3438 1469.19 23.8398 1468.47 23.8398C1467.79 23.8398 1467.17 24.3438 1467.17 25.0998C1467.17 25.8918 1467.79 26.3958 1468.47 26.3958Z" fill="white"/>
</svg>
