<svg width="1804" height="33" viewBox="0 0 1804 33" fill="none" xmlns="http://www.w3.org/2000/svg">
<path d="M11.8158 2.38385H10.1238C10.1238 4.68785 8.21581 5.80385 4.39981 5.80385H0.403809V7.45985H4.54381C7.09981 7.45985 8.97181 6.91985 10.1238 5.83985V25.9998H11.8158V2.38385Z" fill="white"/>
<path d="M30.4838 2.38385H28.7918C28.7918 4.68785 26.8838 5.80385 23.0678 5.80385H19.0718V7.45985H23.2118C25.7678 7.45985 27.6398 6.91985 28.7918 5.83985V25.9998H30.4838V2.38385Z" fill="white"/>
<path d="M37.6317 15.3078V16.8558H55.3437V15.3078H37.6317Z" fill="white"/>
<path d="M67.7142 2.38385H66.0222C66.0222 4.68785 64.1142 5.80385 60.2982 5.80385H56.3022V7.45985H60.4422C62.9982 7.45985 64.8702 6.91985 66.0222 5.83985V25.9998H67.7142V2.38385Z" fill="white"/>
<path d="M97.7222 2.38385H77.0222V3.96785H97.7222V2.38385ZM87.8222 11.9958H86.8142L93.7982 6.88385H90.9902L84.2942 11.9598V13.5438H87.6782C93.4382 13.5438 96.4982 15.3438 96.4982 18.7278V19.1958C96.4982 22.5078 93.8702 24.3798 88.9022 24.7038V26.3238C94.9862 25.9638 98.2262 23.5158 98.2262 19.1598V18.6918C98.2262 14.3718 94.5542 11.9958 87.8222 11.9958ZM78.3902 20.2398V19.8078H76.6622V20.2398C76.6622 23.6958 80.2622 25.9638 85.9502 26.3238V24.6678C81.4142 24.3798 78.3902 22.6518 78.3902 20.2398Z" fill="white"/>
<path d="M121.606 25.9998V8.35985H119.914V25.9998H121.606ZM124.558 16.4238V17.9358H137.086V25.9998H138.778V8.35985H137.086V16.4238H124.558Z" fill="white"/>
<path d="M153.17 9.61985V8.07185C147.662 8.57585 144.278 11.8158 144.278 16.8558V17.6118C144.278 22.5438 147.662 25.7838 153.17 26.2878V24.7038C148.742 24.2358 146.006 21.6438 146.006 17.5758V16.8558C146.006 12.7518 148.67 10.1238 153.17 9.61985ZM156.122 8.07185V9.65585C160.514 10.1238 163.178 12.8238 163.178 16.8558V17.5758C163.178 21.6078 160.478 24.2718 156.122 24.7038V26.2878C161.558 25.7838 164.906 22.5438 164.906 17.6118V16.8558C164.906 11.8518 161.558 8.57585 156.122 8.07185Z" fill="white"/>
<path d="M169.462 13.8318V14.0838C169.462 17.3598 171.982 19.2318 176.302 19.2318H178.066L169.57 25.7478V25.9998H171.73L180.55 19.2318H184.51V17.7918H176.41C173.026 17.7918 171.19 16.4958 171.19 14.0838V13.8318C171.19 11.2758 173.026 9.87185 176.41 9.87185H184.51V8.35985H176.302C171.982 8.35985 169.462 10.3758 169.462 13.8318ZM187.462 8.35985V25.9998H189.154V8.35985H187.462Z" fill="white"/>
<path d="M207.22 2.77985V4.36385L211.864 4.00385C214.06 3.82385 214.996 3.03185 214.996 1.33985V0.943848H213.196V1.30385C213.196 2.05985 212.728 2.34785 211.468 2.45585L207.22 2.77985ZM204.268 4.68785V3.10385C198.112 4.03985 195.268 7.38785 195.268 13.6518V15.8838C195.268 22.1478 198.436 25.7838 204.268 26.2878V24.7398C199.48 24.2358 196.96 21.3558 196.96 16.2438V13.0758C196.96 8.14385 199.192 5.47985 204.268 4.68785ZM199.912 10.8078V12.3198C201.424 11.1678 203.44 10.4838 205.708 10.4838C210.892 10.4838 214.24 13.1838 214.24 17.3238V18.0798C214.24 21.7518 211.54 24.2718 207.22 24.7398V26.2878C212.548 25.8198 215.968 22.7238 215.968 18.0798V17.2878C215.968 12.2478 212.008 8.93585 206.032 8.93585C203.656 8.93585 201.496 9.58385 199.912 10.8078Z" fill="white"/>
<path d="M226.124 23.3358V24.9558C227.528 25.8558 229.4 26.3958 231.38 26.3958C237.536 26.3958 241.532 22.9398 241.532 17.5398V16.8198C241.532 11.3838 237.536 7.96385 231.38 7.96385C229.4 7.96385 227.564 8.46785 226.124 9.40385V11.0238C227.456 10.0878 229.256 9.54785 231.164 9.54785C236.492 9.54785 239.804 12.2838 239.804 16.8198V17.5398C239.804 22.0758 236.492 24.8118 231.164 24.8118C229.256 24.8118 227.456 24.2718 226.124 23.3358ZM221.48 32.1198H223.172V8.35985H221.48V32.1198Z" fill="white"/>
<path d="M246.103 13.8318V14.0838C246.103 17.3598 248.623 19.2318 252.943 19.2318H254.707L246.211 25.7478V25.9998H248.371L257.191 19.2318H261.151V17.7918H253.051C249.667 17.7918 247.831 16.4958 247.831 14.0838V13.8318C247.831 11.2758 249.667 9.87185 253.051 9.87185H261.151V8.35985H252.943C248.623 8.35985 246.103 10.3758 246.103 13.8318ZM264.103 8.35985V25.9998H265.795V8.35985H264.103Z" fill="white"/>
<path d="M295.719 3.71585V2.05985C290.319 2.45585 287.295 5.04785 287.295 9.40385V10.1238H289.059V9.40385C289.059 6.05585 291.399 4.07585 295.719 3.71585ZM291.903 21.4998H295.107L298.059 19.7718C305.115 15.5958 306.987 13.5078 306.987 9.72785V9.22385C306.987 5.04785 303.963 2.45585 298.671 2.05985V3.71585C302.919 4.03985 305.223 6.05585 305.223 9.29585V9.76385C305.223 12.9318 303.819 14.5878 296.547 18.8718L291.903 21.4998ZM308.103 24.4158H286.935V25.9998H308.103V24.4158Z" fill="white"/>
<path d="M324.119 26.2878V24.6678C319.079 24.1638 315.947 21.1758 315.947 16.7118V11.7078C315.947 7.20785 319.115 4.21985 324.119 3.71585V2.09585C318.143 2.59985 314.219 6.34385 314.219 11.7438V16.6758C314.219 22.0038 318.143 25.7838 324.119 26.2878ZM327.071 24.6678V26.2878C333.011 25.7838 336.935 22.0398 336.935 16.6758V11.7438C336.935 6.37985 333.011 2.59985 327.071 2.09585V3.71585C332.075 4.21985 335.243 7.27985 335.243 11.7078V16.7118C335.243 21.1398 332.075 24.1638 327.071 24.6678Z" fill="white"/>
<path d="M352.321 3.71585V2.05985C346.921 2.45585 343.897 5.04785 343.897 9.40385V10.1238H345.661V9.40385C345.661 6.05585 348.001 4.07585 352.321 3.71585ZM348.505 21.4998H351.709L354.661 19.7718C361.717 15.5958 363.589 13.5078 363.589 9.72785V9.22385C363.589 5.04785 360.565 2.45585 355.273 2.05985V3.71585C359.521 4.03985 361.825 6.05585 361.825 9.29585V9.76385C361.825 12.9318 360.421 14.5878 353.149 18.8718L348.505 21.4998ZM364.705 24.4158H343.537V25.9998H364.705V24.4158Z" fill="white"/>
<path d="M380.72 26.2878V24.6678C375.68 24.1638 372.548 21.1758 372.548 16.7118V11.7078C372.548 7.20785 375.716 4.21985 380.72 3.71585V2.09585C374.744 2.59985 370.82 6.34385 370.82 11.7438V16.6758C370.82 22.0038 374.744 25.7838 380.72 26.2878ZM383.672 24.6678V26.2878C389.612 25.7838 393.536 22.0398 393.536 16.6758V11.7438C393.536 6.37985 389.612 2.59985 383.672 2.09585V3.71585C388.676 4.21985 391.844 7.27985 391.844 11.7078V16.7118C391.844 21.1398 388.676 24.1638 383.672 24.6678Z" fill="white"/>
<path d="M481.785 2.38385H480.093C480.093 4.68785 478.185 5.80385 474.369 5.80385H470.373V7.45985H474.513C477.069 7.45985 478.941 6.91985 480.093 5.83985V25.9998H481.785V2.38385Z" fill="white"/>
<path d="M500.453 2.38385H498.761C498.761 4.68785 496.853 5.80385 493.037 5.80385H489.041V7.45985H493.181C495.737 7.45985 497.609 6.91985 498.761 5.83985V25.9998H500.453V2.38385Z" fill="white"/>
<path d="M507.6 15.3078V16.8558H525.312V15.3078H507.6Z" fill="white"/>
<path d="M537.683 2.38385H535.991C535.991 4.68785 534.083 5.80385 530.267 5.80385H526.271V7.45985H530.411C532.967 7.45985 534.839 6.91985 535.991 5.83985V25.9998H537.683V2.38385Z" fill="white"/>
<path d="M567.691 2.38385H546.991V3.96785H567.691V2.38385ZM557.791 11.9958H556.783L563.767 6.88385H560.959L554.263 11.9598V13.5438H557.647C563.407 13.5438 566.467 15.3438 566.467 18.7278V19.1958C566.467 22.5078 563.839 24.3798 558.871 24.7038V26.3238C564.955 25.9638 568.195 23.5158 568.195 19.1598V18.6918C568.195 14.3718 564.523 11.9958 557.791 11.9958ZM548.359 20.2398V19.8078H546.631V20.2398C546.631 23.6958 550.231 25.9638 555.919 26.3238V24.6678C551.383 24.3798 548.359 22.6518 548.359 20.2398Z" fill="white"/>
<path d="M591.574 25.9998V8.35985H589.882V25.9998H591.574ZM594.526 16.4238V17.9358H607.054V25.9998H608.746V8.35985H607.054V16.4238H594.526Z" fill="white"/>
<path d="M623.138 9.61985V8.07185C617.63 8.57585 614.246 11.8158 614.246 16.8558V17.6118C614.246 22.5438 617.63 25.7838 623.138 26.2878V24.7038C618.71 24.2358 615.974 21.6438 615.974 17.5758V16.8558C615.974 12.7518 618.638 10.1238 623.138 9.61985ZM626.09 8.07185V9.65585C630.482 10.1238 633.146 12.8238 633.146 16.8558V17.5758C633.146 21.6078 630.446 24.2718 626.09 24.7038V26.2878C631.526 25.7838 634.874 22.5438 634.874 17.6118V16.8558C634.874 11.8518 631.526 8.57585 626.09 8.07185Z" fill="white"/>
<path d="M639.431 13.8318V14.0838C639.431 17.3598 641.951 19.2318 646.271 19.2318H648.035L639.539 25.7478V25.9998H641.699L650.519 19.2318H654.479V17.7918H646.379C642.995 17.7918 641.159 16.4958 641.159 14.0838V13.8318C641.159 11.2758 642.995 9.87185 646.379 9.87185H654.479V8.35985H646.271C641.951 8.35985 639.431 10.3758 639.431 13.8318ZM657.431 8.35985V25.9998H659.123V8.35985H657.431Z" fill="white"/>
<path d="M677.189 2.77985V4.36385L681.833 4.00385C684.029 3.82385 684.965 3.03185 684.965 1.33985V0.943848H683.165V1.30385C683.165 2.05985 682.697 2.34785 681.437 2.45585L677.189 2.77985ZM674.237 4.68785V3.10385C668.081 4.03985 665.237 7.38785 665.237 13.6518V15.8838C665.237 22.1478 668.405 25.7838 674.237 26.2878V24.7398C669.449 24.2358 666.929 21.3558 666.929 16.2438V13.0758C666.929 8.14385 669.161 5.47985 674.237 4.68785ZM669.881 10.8078V12.3198C671.393 11.1678 673.409 10.4838 675.677 10.4838C680.861 10.4838 684.209 13.1838 684.209 17.3238V18.0798C684.209 21.7518 681.509 24.2718 677.189 24.7398V26.2878C682.517 25.8198 685.937 22.7238 685.937 18.0798V17.2878C685.937 12.2478 681.977 8.93585 676.001 8.93585C673.625 8.93585 671.465 9.58385 669.881 10.8078Z" fill="white"/>
<path d="M696.093 23.3358V24.9558C697.497 25.8558 699.369 26.3958 701.349 26.3958C707.505 26.3958 711.501 22.9398 711.501 17.5398V16.8198C711.501 11.3838 707.505 7.96385 701.349 7.96385C699.369 7.96385 697.533 8.46785 696.093 9.40385V11.0238C697.425 10.0878 699.225 9.54785 701.133 9.54785C706.461 9.54785 709.773 12.2838 709.773 16.8198V17.5398C709.773 22.0758 706.461 24.8118 701.133 24.8118C699.225 24.8118 697.425 24.2718 696.093 23.3358ZM691.449 32.1198H693.141V8.35985H691.449V32.1198Z" fill="white"/>
<path d="M716.071 13.8318V14.0838C716.071 17.3598 718.591 19.2318 722.911 19.2318H724.675L716.179 25.7478V25.9998H718.339L727.159 19.2318H731.119V17.7918H723.019C719.635 17.7918 717.799 16.4958 717.799 14.0838V13.8318C717.799 11.2758 719.635 9.87185 723.019 9.87185H731.119V8.35985H722.911C718.591 8.35985 716.071 10.3758 716.071 13.8318ZM734.071 8.35985V25.9998H735.763V8.35985H734.071Z" fill="white"/>
<path d="M765.688 3.71585V2.05985C760.288 2.45585 757.264 5.04785 757.264 9.40385V10.1238H759.028V9.40385C759.028 6.05585 761.368 4.07585 765.688 3.71585ZM761.872 21.4998H765.076L768.028 19.7718C775.084 15.5958 776.956 13.5078 776.956 9.72785V9.22385C776.956 5.04785 773.932 2.45585 768.64 2.05985V3.71585C772.888 4.03985 775.192 6.05585 775.192 9.29585V9.76385C775.192 12.9318 773.788 14.5878 766.516 18.8718L761.872 21.4998ZM778.072 24.4158H756.904V25.9998H778.072V24.4158Z" fill="white"/>
<path d="M794.088 26.2878V24.6678C789.048 24.1638 785.916 21.1758 785.916 16.7118V11.7078C785.916 7.20785 789.084 4.21985 794.088 3.71585V2.09585C788.112 2.59985 784.188 6.34385 784.188 11.7438V16.6758C784.188 22.0038 788.112 25.7838 794.088 26.2878ZM797.04 24.6678V26.2878C802.98 25.7838 806.904 22.0398 806.904 16.6758V11.7438C806.904 6.37985 802.98 2.59985 797.04 2.09585V3.71585C802.044 4.21985 805.212 7.27985 805.212 11.7078V16.7118C805.212 21.1398 802.044 24.1638 797.04 24.6678Z" fill="white"/>
<path d="M822.289 3.71585V2.05985C816.889 2.45585 813.865 5.04785 813.865 9.40385V10.1238H815.629V9.40385C815.629 6.05585 817.969 4.07585 822.289 3.71585ZM818.473 21.4998H821.677L824.629 19.7718C831.685 15.5958 833.557 13.5078 833.557 9.72785V9.22385C833.557 5.04785 830.533 2.45585 825.241 2.05985V3.71585C829.489 4.03985 831.793 6.05585 831.793 9.29585V9.76385C831.793 12.9318 830.389 14.5878 823.117 18.8718L818.473 21.4998ZM834.673 24.4158H813.505V25.9998H834.673V24.4158Z" fill="white"/>
<path d="M850.689 26.2878V24.6678C845.649 24.1638 842.517 21.1758 842.517 16.7118V11.7078C842.517 7.20785 845.685 4.21985 850.689 3.71585V2.09585C844.713 2.59985 840.789 6.34385 840.789 11.7438V16.6758C840.789 22.0038 844.713 25.7838 850.689 26.2878ZM853.641 24.6678V26.2878C859.581 25.7838 863.505 22.0398 863.505 16.6758V11.7438C863.505 6.37985 859.581 2.59985 853.641 2.09585V3.71585C858.645 4.21985 861.813 7.27985 861.813 11.7078V16.7118C861.813 21.1398 858.645 24.1638 853.641 24.6678Z" fill="white"/>
<path d="M951.753 2.38385H950.061C950.061 4.68785 948.153 5.80385 944.337 5.80385H940.341V7.45985H944.481C947.037 7.45985 948.909 6.91985 950.061 5.83985V25.9998H951.753V2.38385Z" fill="white"/>
<path d="M970.421 2.38385H968.729C968.729 4.68785 966.821 5.80385 963.005 5.80385H959.009V7.45985H963.149C965.705 7.45985 967.577 6.91985 968.729 5.83985V25.9998H970.421V2.38385Z" fill="white"/>
<path d="M977.569 15.3078V16.8558H995.281V15.3078H977.569Z" fill="white"/>
<path d="M1007.65 2.38385H1005.96C1005.96 4.68785 1004.05 5.80385 1000.24 5.80385H996.24V7.45985H1000.38C1002.94 7.45985 1004.81 6.91985 1005.96 5.83985V25.9998H1007.65V2.38385Z" fill="white"/>
<path d="M1037.66 2.38385H1016.96V3.96785H1037.66V2.38385ZM1027.76 11.9958H1026.75L1033.74 6.88385H1030.93L1024.23 11.9598V13.5438H1027.62C1033.38 13.5438 1036.44 15.3438 1036.44 18.7278V19.1958C1036.44 22.5078 1033.81 24.3798 1028.84 24.7038V26.3238C1034.92 25.9638 1038.16 23.5158 1038.16 19.1598V18.6918C1038.16 14.3718 1034.49 11.9958 1027.76 11.9958ZM1018.33 20.2398V19.8078H1016.6V20.2398C1016.6 23.6958 1020.2 25.9638 1025.89 26.3238V24.6678C1021.35 24.3798 1018.33 22.6518 1018.33 20.2398Z" fill="white"/>
<path d="M1061.54 25.9998V8.35985H1059.85V25.9998H1061.54ZM1064.5 16.4238V17.9358H1077.02V25.9998H1078.72V8.35985H1077.02V16.4238H1064.5Z" fill="white"/>
<path d="M1093.11 9.61985V8.07185C1087.6 8.57585 1084.22 11.8158 1084.22 16.8558V17.6118C1084.22 22.5438 1087.6 25.7838 1093.11 26.2878V24.7038C1088.68 24.2358 1085.94 21.6438 1085.94 17.5758V16.8558C1085.94 12.7518 1088.61 10.1238 1093.11 9.61985ZM1096.06 8.07185V9.65585C1100.45 10.1238 1103.11 12.8238 1103.11 16.8558V17.5758C1103.11 21.6078 1100.42 24.2718 1096.06 24.7038V26.2878C1101.5 25.7838 1104.84 22.5438 1104.84 17.6118V16.8558C1104.84 11.8518 1101.5 8.57585 1096.06 8.07185Z" fill="white"/>
<path d="M1109.4 13.8318V14.0838C1109.4 17.3598 1111.92 19.2318 1116.24 19.2318H1118L1109.51 25.7478V25.9998H1111.67L1120.49 19.2318H1124.45V17.7918H1116.35C1112.96 17.7918 1111.13 16.4958 1111.13 14.0838V13.8318C1111.13 11.2758 1112.96 9.87185 1116.35 9.87185H1124.45V8.35985H1116.24C1111.92 8.35985 1109.4 10.3758 1109.4 13.8318ZM1127.4 8.35985V25.9998H1129.09V8.35985H1127.4Z" fill="white"/>
<path d="M1147.16 2.77985V4.36385L1151.8 4.00385C1154 3.82385 1154.93 3.03185 1154.93 1.33985V0.943848H1153.13V1.30385C1153.13 2.05985 1152.67 2.34785 1151.41 2.45585L1147.16 2.77985ZM1144.21 4.68785V3.10385C1138.05 4.03985 1135.21 7.38785 1135.21 13.6518V15.8838C1135.21 22.1478 1138.37 25.7838 1144.21 26.2878V24.7398C1139.42 24.2358 1136.9 21.3558 1136.9 16.2438V13.0758C1136.9 8.14385 1139.13 5.47985 1144.21 4.68785ZM1139.85 10.8078V12.3198C1141.36 11.1678 1143.38 10.4838 1145.65 10.4838C1150.83 10.4838 1154.18 13.1838 1154.18 17.3238V18.0798C1154.18 21.7518 1151.48 24.2718 1147.16 24.7398V26.2878C1152.49 25.8198 1155.91 22.7238 1155.91 18.0798V17.2878C1155.91 12.2478 1151.95 8.93585 1145.97 8.93585C1143.59 8.93585 1141.43 9.58385 1139.85 10.8078Z" fill="white"/>
<path d="M1166.06 23.3358V24.9558C1167.47 25.8558 1169.34 26.3958 1171.32 26.3958C1177.47 26.3958 1181.47 22.9398 1181.47 17.5398V16.8198C1181.47 11.3838 1177.47 7.96385 1171.32 7.96385C1169.34 7.96385 1167.5 8.46785 1166.06 9.40385V11.0238C1167.39 10.0878 1169.19 9.54785 1171.1 9.54785C1176.43 9.54785 1179.74 12.2838 1179.74 16.8198V17.5398C1179.74 22.0758 1176.43 24.8118 1171.1 24.8118C1169.19 24.8118 1167.39 24.2718 1166.06 23.3358ZM1161.42 32.1198H1163.11V8.35985H1161.42V32.1198Z" fill="white"/>
<path d="M1186.04 13.8318V14.0838C1186.04 17.3598 1188.56 19.2318 1192.88 19.2318H1194.64L1186.15 25.7478V25.9998H1188.31L1197.13 19.2318H1201.09V17.7918H1192.99C1189.6 17.7918 1187.77 16.4958 1187.77 14.0838V13.8318C1187.77 11.2758 1189.6 9.87185 1192.99 9.87185H1201.09V8.35985H1192.88C1188.56 8.35985 1186.04 10.3758 1186.04 13.8318ZM1204.04 8.35985V25.9998H1205.73V8.35985H1204.04Z" fill="white"/>
<path d="M1235.66 3.71585V2.05985C1230.26 2.45585 1227.23 5.04785 1227.23 9.40385V10.1238H1229V9.40385C1229 6.05585 1231.34 4.07585 1235.66 3.71585ZM1231.84 21.4998H1235.04L1238 19.7718C1245.05 15.5958 1246.92 13.5078 1246.92 9.72785V9.22385C1246.92 5.04785 1243.9 2.45585 1238.61 2.05985V3.71585C1242.86 4.03985 1245.16 6.05585 1245.16 9.29585V9.76385C1245.16 12.9318 1243.76 14.5878 1236.48 18.8718L1231.84 21.4998ZM1248.04 24.4158H1226.87V25.9998H1248.04V24.4158Z" fill="white"/>
<path d="M1264.06 26.2878V24.6678C1259.02 24.1638 1255.88 21.1758 1255.88 16.7118V11.7078C1255.88 7.20785 1259.05 4.21985 1264.06 3.71585V2.09585C1258.08 2.59985 1254.16 6.34385 1254.16 11.7438V16.6758C1254.16 22.0038 1258.08 25.7838 1264.06 26.2878ZM1267.01 24.6678V26.2878C1272.95 25.7838 1276.87 22.0398 1276.87 16.6758V11.7438C1276.87 6.37985 1272.95 2.59985 1267.01 2.09585V3.71585C1272.01 4.21985 1275.18 7.27985 1275.18 11.7078V16.7118C1275.18 21.1398 1272.01 24.1638 1267.01 24.6678Z" fill="white"/>
<path d="M1292.26 3.71585V2.05985C1286.86 2.45585 1283.83 5.04785 1283.83 9.40385V10.1238H1285.6V9.40385C1285.6 6.05585 1287.94 4.07585 1292.26 3.71585ZM1288.44 21.4998H1291.65L1294.6 19.7718C1301.65 15.5958 1303.53 13.5078 1303.53 9.72785V9.22385C1303.53 5.04785 1300.5 2.45585 1295.21 2.05985V3.71585C1299.46 4.03985 1301.76 6.05585 1301.76 9.29585V9.76385C1301.76 12.9318 1300.36 14.5878 1293.09 18.8718L1288.44 21.4998ZM1304.64 24.4158H1283.47V25.9998H1304.64V24.4158Z" fill="white"/>
<path d="M1320.66 26.2878V24.6678C1315.62 24.1638 1312.49 21.1758 1312.49 16.7118V11.7078C1312.49 7.20785 1315.65 4.21985 1320.66 3.71585V2.09585C1314.68 2.59985 1310.76 6.34385 1310.76 11.7438V16.6758C1310.76 22.0038 1314.68 25.7838 1320.66 26.2878ZM1323.61 24.6678V26.2878C1329.55 25.7838 1333.47 22.0398 1333.47 16.6758V11.7438C1333.47 6.37985 1329.55 2.59985 1323.61 2.09585V3.71585C1328.61 4.21985 1331.78 7.27985 1331.78 11.7078V16.7118C1331.78 21.1398 1328.61 24.1638 1323.61 24.6678Z" fill="white"/>
<path d="M1421.72 2.38385H1420.03C1420.03 4.68785 1418.12 5.80385 1414.31 5.80385H1410.31V7.45985H1414.45C1417.01 7.45985 1418.88 6.91985 1420.03 5.83985V25.9998H1421.72V2.38385Z" fill="white"/>
<path d="M1440.39 2.38385H1438.7C1438.7 4.68785 1436.79 5.80385 1432.97 5.80385H1428.98V7.45985H1433.12C1435.67 7.45985 1437.55 6.91985 1438.7 5.83985V25.9998H1440.39V2.38385Z" fill="white"/>
<path d="M1447.54 15.3078V16.8558H1465.25V15.3078H1447.54Z" fill="white"/>
<path d="M1477.62 2.38385H1475.93C1475.93 4.68785 1474.02 5.80385 1470.2 5.80385H1466.21V7.45985H1470.35C1472.9 7.45985 1474.78 6.91985 1475.93 5.83985V25.9998H1477.62V2.38385Z" fill="white"/>
<path d="M1507.63 2.38385H1486.93V3.96785H1507.63V2.38385ZM1497.73 11.9958H1496.72L1503.7 6.88385H1500.9L1494.2 11.9598V13.5438H1497.58C1503.34 13.5438 1506.4 15.3438 1506.4 18.7278V19.1958C1506.4 22.5078 1503.78 24.3798 1498.81 24.7038V26.3238C1504.89 25.9638 1508.13 23.5158 1508.13 19.1598V18.6918C1508.13 14.3718 1504.46 11.9958 1497.73 11.9958ZM1488.3 20.2398V19.8078H1486.57V20.2398C1486.57 23.6958 1490.17 25.9638 1495.86 26.3238V24.6678C1491.32 24.3798 1488.3 22.6518 1488.3 20.2398Z" fill="white"/>
<path d="M1531.51 25.9998V8.35985H1529.82V25.9998H1531.51ZM1534.46 16.4238V17.9358H1546.99V25.9998H1548.68V8.35985H1546.99V16.4238H1534.46Z" fill="white"/>
<path d="M1563.08 9.61985V8.07185C1557.57 8.57585 1554.18 11.8158 1554.18 16.8558V17.6118C1554.18 22.5438 1557.57 25.7838 1563.08 26.2878V24.7038C1558.65 24.2358 1555.91 21.6438 1555.91 17.5758V16.8558C1555.91 12.7518 1558.58 10.1238 1563.08 9.61985ZM1566.03 8.07185V9.65585C1570.42 10.1238 1573.08 12.8238 1573.08 16.8558V17.5758C1573.08 21.6078 1570.38 24.2718 1566.03 24.7038V26.2878C1571.46 25.7838 1574.81 22.5438 1574.81 17.6118V16.8558C1574.81 11.8518 1571.46 8.57585 1566.03 8.07185Z" fill="white"/>
<path d="M1579.37 13.8318V14.0838C1579.37 17.3598 1581.89 19.2318 1586.21 19.2318H1587.97L1579.48 25.7478V25.9998H1581.64L1590.46 19.2318H1594.42V17.7918H1586.32C1582.93 17.7918 1581.1 16.4958 1581.1 14.0838V13.8318C1581.1 11.2758 1582.93 9.87185 1586.32 9.87185H1594.42V8.35985H1586.21C1581.89 8.35985 1579.37 10.3758 1579.37 13.8318ZM1597.37 8.35985V25.9998H1599.06V8.35985H1597.37Z" fill="white"/>
<path d="M1617.13 2.77985V4.36385L1621.77 4.00385C1623.97 3.82385 1624.9 3.03185 1624.9 1.33985V0.943848H1623.1V1.30385C1623.1 2.05985 1622.63 2.34785 1621.37 2.45585L1617.13 2.77985ZM1614.17 4.68785V3.10385C1608.02 4.03985 1605.17 7.38785 1605.17 13.6518V15.8838C1605.17 22.1478 1608.34 25.7838 1614.17 26.2878V24.7398C1609.39 24.2358 1606.87 21.3558 1606.87 16.2438V13.0758C1606.87 8.14385 1609.1 5.47985 1614.17 4.68785ZM1609.82 10.8078V12.3198C1611.33 11.1678 1613.35 10.4838 1615.61 10.4838C1620.8 10.4838 1624.15 13.1838 1624.15 17.3238V18.0798C1624.15 21.7518 1621.45 24.2718 1617.13 24.7398V26.2878C1622.45 25.8198 1625.87 22.7238 1625.87 18.0798V17.2878C1625.87 12.2478 1621.91 8.93585 1615.94 8.93585C1613.56 8.93585 1611.4 9.58385 1609.82 10.8078Z" fill="white"/>
<path d="M1636.03 23.3358V24.9558C1637.43 25.8558 1639.31 26.3958 1641.29 26.3958C1647.44 26.3958 1651.44 22.9398 1651.44 17.5398V16.8198C1651.44 11.3838 1647.44 7.96385 1641.29 7.96385C1639.31 7.96385 1637.47 8.46785 1636.03 9.40385V11.0238C1637.36 10.0878 1639.16 9.54785 1641.07 9.54785C1646.4 9.54785 1649.71 12.2838 1649.71 16.8198V17.5398C1649.71 22.0758 1646.4 24.8118 1641.07 24.8118C1639.16 24.8118 1637.36 24.2718 1636.03 23.3358ZM1631.39 32.1198H1633.08V8.35985H1631.39V32.1198Z" fill="white"/>
<path d="M1656.01 13.8318V14.0838C1656.01 17.3598 1658.53 19.2318 1662.85 19.2318H1664.61L1656.12 25.7478V25.9998H1658.28L1667.1 19.2318H1671.06V17.7918H1662.96C1659.57 17.7918 1657.74 16.4958 1657.74 14.0838V13.8318C1657.74 11.2758 1659.57 9.87185 1662.96 9.87185H1671.06V8.35985H1662.85C1658.53 8.35985 1656.01 10.3758 1656.01 13.8318ZM1674.01 8.35985V25.9998H1675.7V8.35985H1674.01Z" fill="white"/>
<path d="M1705.63 3.71585V2.05985C1700.23 2.45585 1697.2 5.04785 1697.2 9.40385V10.1238H1698.97V9.40385C1698.97 6.05585 1701.31 4.07585 1705.63 3.71585ZM1701.81 21.4998H1705.01L1707.97 19.7718C1715.02 15.5958 1716.89 13.5078 1716.89 9.72785V9.22385C1716.89 5.04785 1713.87 2.45585 1708.58 2.05985V3.71585C1712.83 4.03985 1715.13 6.05585 1715.13 9.29585V9.76385C1715.13 12.9318 1713.73 14.5878 1706.45 18.8718L1701.81 21.4998ZM1718.01 24.4158H1696.84V25.9998H1718.01V24.4158Z" fill="white"/>
<path d="M1734.03 26.2878V24.6678C1728.99 24.1638 1725.85 21.1758 1725.85 16.7118V11.7078C1725.85 7.20785 1729.02 4.21985 1734.03 3.71585V2.09585C1728.05 2.59985 1724.13 6.34385 1724.13 11.7438V16.6758C1724.13 22.0038 1728.05 25.7838 1734.03 26.2878ZM1736.98 24.6678V26.2878C1742.92 25.7838 1746.84 22.0398 1746.84 16.6758V11.7438C1746.84 6.37985 1742.92 2.59985 1736.98 2.09585V3.71585C1741.98 4.21985 1745.15 7.27985 1745.15 11.7078V16.7118C1745.15 21.1398 1741.98 24.1638 1736.98 24.6678Z" fill="white"/>
<path d="M1762.23 3.71585V2.05985C1756.83 2.45585 1753.8 5.04785 1753.8 9.40385V10.1238H1755.57V9.40385C1755.57 6.05585 1757.91 4.07585 1762.23 3.71585ZM1758.41 21.4998H1761.61L1764.57 19.7718C1771.62 15.5958 1773.49 13.5078 1773.49 9.72785V9.22385C1773.49 5.04785 1770.47 2.45585 1765.18 2.05985V3.71585C1769.43 4.03985 1771.73 6.05585 1771.73 9.29585V9.76385C1771.73 12.9318 1770.33 14.5878 1763.05 18.8718L1758.41 21.4998ZM1774.61 24.4158H1753.44V25.9998H1774.61V24.4158Z" fill="white"/>
<path d="M1790.63 26.2878V24.6678C1785.59 24.1638 1782.45 21.1758 1782.45 16.7118V11.7078C1782.45 7.20785 1785.62 4.21985 1790.63 3.71585V2.09585C1784.65 2.59985 1780.73 6.34385 1780.73 11.7438V16.6758C1780.73 22.0038 1784.65 25.7838 1790.63 26.2878ZM1793.58 24.6678V26.2878C1799.52 25.7838 1803.44 22.0398 1803.44 16.6758V11.7438C1803.44 6.37985 1799.52 2.59985 1793.58 2.09585V3.71585C1798.58 4.21985 1801.75 7.27985 1801.75 11.7078V16.7118C1801.75 21.1398 1798.58 24.1638 1793.58 24.6678Z" fill="white"/>
</svg>
