<svg width="1689" height="30" viewBox="0 0 1689 30" fill="none" xmlns="http://www.w3.org/2000/svg">
<path d="M17.2318 14.9642V13.3082C14.9278 13.7042 12.5518 13.9202 10.6438 13.9202C4.66784 13.9202 1.85984 11.7242 1.85984 7.04419V0.384192H0.131836V7.15219C0.131836 12.7322 3.62384 15.5402 10.5358 15.5402C12.5158 15.5402 14.9638 15.3242 17.2318 14.9642ZM21.9478 0.384192H20.1838V24.0002H21.9478V0.384192Z" fill="white"/>
<path d="M26.1536 7.90819H47.1777V6.36019H26.1536V7.90819ZM37.6376 10.7882H35.9456V24.0002H37.6376V10.7882Z" fill="white"/>
<path d="M57.8297 7.62019V6.07219C52.3217 6.57619 48.9377 9.81619 48.9377 14.8562V15.6122C48.9377 20.5442 52.3217 23.7842 57.8297 24.2882V22.7042C53.4017 22.2362 50.6657 19.6442 50.6657 15.5762V14.8562C50.6657 10.7522 53.3297 8.12419 57.8297 7.62019ZM60.7817 6.07219V7.65619C65.1737 8.12419 67.8377 10.8242 67.8377 14.8562V15.5762C67.8377 19.6082 65.1377 22.2722 60.7817 22.7042V24.2882C66.2177 23.7842 69.5657 20.5442 69.5657 15.6122V14.8562C69.5657 9.85219 66.2177 6.57619 60.7817 6.07219Z" fill="white"/>
<path d="M73.8956 29.1482H75.5156L78.5396 20.5442V20.2562H76.6316L73.8956 29.1482Z" fill="white"/>
<path d="M100.441 24.0002H102.133V6.36019H100.441V24.0002ZM109.657 15.1082L119.485 6.64819V6.36019H117.505L108.145 14.3882H105.085V15.9002H108.217L118.045 24.0002H119.989V23.7122L109.657 15.1082Z" fill="white"/>
<path d="M131.193 7.69219V6.07219C126.549 6.50419 123.489 9.06019 123.489 12.5162V12.8042H125.145V12.5162C125.145 9.96019 127.593 8.08819 131.193 7.69219ZM134.145 6.07219V7.69219C138.105 8.05219 140.229 9.99619 140.229 13.3082V20.2562C140.229 22.5962 141.777 24.0002 144.405 24.0002H146.313V22.4882H144.729C142.929 22.4882 141.885 21.5522 141.885 19.9322V13.3082C141.885 9.09619 139.077 6.46819 134.145 6.07219ZM137.385 22.7402L137.277 21.1562C135.693 22.2362 133.497 22.8842 131.013 22.8842C127.053 22.8842 125.073 21.8042 125.073 19.6802C125.073 17.6282 126.693 16.5482 130.293 16.1882L137.277 15.4682V14.0282L129.969 14.7842C125.505 15.2522 123.381 16.8362 123.381 19.6802C123.381 22.7762 126.009 24.3962 131.049 24.3962C133.569 24.3962 135.729 23.8202 137.385 22.7402Z" fill="white"/>
<path d="M149.871 24.0002H151.563V6.36019H149.871V24.0002ZM159.087 15.1082L168.915 6.64819V6.36019H166.935L157.575 14.3882H154.515V15.9002H157.647L167.475 24.0002H169.419V23.7122L159.087 15.1082Z" fill="white"/>
<path d="M205.92 6.36019L189 24.0002H190.764L207.684 6.36019H205.92ZM189 19.4282L190.62 17.5922V6.36019H189V19.4282ZM207.684 10.9322L206.064 12.7682V24.0002H207.684V10.9322Z" fill="white"/>
<path d="M229.078 24.0002H230.77V6.36019H229.078V24.0002ZM238.294 15.1082L248.122 6.64819V6.36019H246.142L236.782 14.3882H233.722V15.9002H236.854L246.682 24.0002H248.626V23.7122L238.294 15.1082Z" fill="white"/>
<path d="M259.802 7.62019V6.07219C254.294 6.57619 250.91 9.81619 250.91 14.8562V15.6122C250.91 20.5442 254.294 23.7842 259.802 24.2882V22.7042C255.374 22.2362 252.638 19.6442 252.638 15.5762V14.8562C252.638 10.7522 255.302 8.12419 259.802 7.62019ZM262.754 6.07219V7.65619C267.146 8.12419 269.81 10.8242 269.81 14.8562V15.5762C269.81 19.6082 267.11 22.2722 262.754 22.7042V24.2882C268.19 23.7842 271.538 20.5442 271.538 15.6122V14.8562C271.538 9.85219 268.19 6.57619 262.754 6.07219Z" fill="white"/>
<path d="M278.723 24.0002V6.36019H277.031V24.0002H278.723ZM281.675 6.36019V7.90819H291.611V6.36019H281.675Z" fill="white"/>
<path d="M308.807 6.36019H296.495L296.315 15.5402C296.243 18.5642 295.451 20.7962 294.227 22.4882H291.563L291.599 28.6082H293.255V24.0002H308.807V22.4882H295.955C297.071 20.7962 297.827 18.6722 297.899 15.5402L298.043 7.87219H308.807V6.36019ZM313.451 22.4882V6.36019H311.759V24.0002H315.467V28.6082H317.123V22.4882H313.451Z" fill="white"/>
<path d="M328.525 7.69219V6.07219C323.881 6.50419 320.821 9.06019 320.821 12.5162V12.8042H322.477V12.5162C322.477 9.96019 324.925 8.08819 328.525 7.69219ZM331.477 6.07219V7.69219C335.437 8.05219 337.561 9.99619 337.561 13.3082V20.2562C337.561 22.5962 339.109 24.0002 341.737 24.0002H343.645V22.4882H342.061C340.261 22.4882 339.217 21.5522 339.217 19.9322V13.3082C339.217 9.09619 336.409 6.46819 331.477 6.07219ZM334.717 22.7402L334.609 21.1562C333.025 22.2362 330.829 22.8842 328.345 22.8842C324.385 22.8842 322.405 21.8042 322.405 19.6802C322.405 17.6282 324.025 16.5482 327.625 16.1882L334.609 15.4682V14.0282L327.301 14.7842C322.837 15.2522 320.713 16.8362 320.713 19.6802C320.713 22.7762 323.341 24.3962 328.381 24.3962C330.901 24.3962 333.061 23.8202 334.717 22.7402Z" fill="white"/>
<path d="M353.467 1.64419V0.0961914C348.571 0.492191 345.619 3.04819 345.619 7.00819V7.76419H347.275V7.00819C347.275 3.98419 349.579 2.04019 353.467 1.64419ZM356.419 0.0961914V1.64419C360.019 2.00419 362.179 3.69619 362.179 6.28819V6.64819C362.179 8.37619 361.171 9.49219 357.895 11.3642C354.799 13.1282 353.827 14.4962 353.827 17.1242V18.5642H355.411V17.1242C355.411 15.0722 356.275 13.9562 359.227 12.3002C362.647 10.3562 363.907 8.84419 363.907 6.68419V6.25219C363.907 2.90419 360.919 0.528192 356.419 0.0961914ZM354.619 24.3962C355.339 24.3962 355.915 23.8922 355.915 23.1002C355.915 22.3442 355.339 21.8402 354.619 21.8402C353.935 21.8402 353.323 22.3442 353.323 23.1002C353.323 23.8922 353.935 24.3962 354.619 24.3962Z" fill="white"/>
<path d="M458.759 14.9642V13.3082C456.455 13.7042 454.079 13.9202 452.171 13.9202C446.195 13.9202 443.387 11.7242 443.387 7.04419V0.384192H441.659V7.15219C441.659 12.7322 445.151 15.5402 452.063 15.5402C454.043 15.5402 456.491 15.3242 458.759 14.9642ZM463.475 0.384192H461.711V24.0002H463.475V0.384192Z" fill="white"/>
<path d="M467.681 7.90819H488.705V6.36019H467.681V7.90819ZM479.165 10.7882H477.473V24.0002H479.165V10.7882Z" fill="white"/>
<path d="M499.357 7.62019V6.07219C493.849 6.57619 490.465 9.81619 490.465 14.8562V15.6122C490.465 20.5442 493.849 23.7842 499.357 24.2882V22.7042C494.929 22.2362 492.193 19.6442 492.193 15.5762V14.8562C492.193 10.7522 494.857 8.12419 499.357 7.62019ZM502.309 6.07219V7.65619C506.701 8.12419 509.365 10.8242 509.365 14.8562V15.5762C509.365 19.6082 506.665 22.2722 502.309 22.7042V24.2882C507.745 23.7842 511.093 20.5442 511.093 15.6122V14.8562C511.093 9.85219 507.745 6.57619 502.309 6.07219Z" fill="white"/>
<path d="M515.423 29.1482H517.043L520.067 20.5442V20.2562H518.159L515.423 29.1482Z" fill="white"/>
<path d="M541.968 24.0002H543.66V6.36019H541.968V24.0002ZM551.184 15.1082L561.012 6.64819V6.36019H559.032L549.672 14.3882H546.612V15.9002H549.744L559.572 24.0002H561.516V23.7122L551.184 15.1082Z" fill="white"/>
<path d="M572.721 7.69219V6.07219C568.077 6.50419 565.017 9.06019 565.017 12.5162V12.8042H566.673V12.5162C566.673 9.96019 569.121 8.08819 572.721 7.69219ZM575.673 6.07219V7.69219C579.633 8.05219 581.757 9.99619 581.757 13.3082V20.2562C581.757 22.5962 583.305 24.0002 585.933 24.0002H587.841V22.4882H586.257C584.457 22.4882 583.413 21.5522 583.413 19.9322V13.3082C583.413 9.09619 580.605 6.46819 575.673 6.07219ZM578.913 22.7402L578.805 21.1562C577.221 22.2362 575.025 22.8842 572.541 22.8842C568.581 22.8842 566.601 21.8042 566.601 19.6802C566.601 17.6282 568.221 16.5482 571.821 16.1882L578.805 15.4682V14.0282L571.497 14.7842C567.033 15.2522 564.909 16.8362 564.909 19.6802C564.909 22.7762 567.537 24.3962 572.577 24.3962C575.097 24.3962 577.257 23.8202 578.913 22.7402Z" fill="white"/>
<path d="M591.398 24.0002H593.09V6.36019H591.398V24.0002ZM600.614 15.1082L610.442 6.64819V6.36019H608.462L599.102 14.3882H596.042V15.9002H599.174L609.002 24.0002H610.946V23.7122L600.614 15.1082Z" fill="white"/>
<path d="M647.447 6.36019L630.527 24.0002H632.291L649.211 6.36019H647.447ZM630.527 19.4282L632.147 17.5922V6.36019H630.527V19.4282ZM649.211 10.9322L647.591 12.7682V24.0002H649.211V10.9322Z" fill="white"/>
<path d="M670.605 24.0002H672.297V6.36019H670.605V24.0002ZM679.821 15.1082L689.649 6.64819V6.36019H687.669L678.309 14.3882H675.249V15.9002H678.381L688.209 24.0002H690.153V23.7122L679.821 15.1082Z" fill="white"/>
<path d="M701.33 7.62019V6.07219C695.822 6.57619 692.438 9.81619 692.438 14.8562V15.6122C692.438 20.5442 695.822 23.7842 701.33 24.2882V22.7042C696.902 22.2362 694.166 19.6442 694.166 15.5762V14.8562C694.166 10.7522 696.83 8.12419 701.33 7.62019ZM704.282 6.07219V7.65619C708.674 8.12419 711.338 10.8242 711.338 14.8562V15.5762C711.338 19.6082 708.638 22.2722 704.282 22.7042V24.2882C709.718 23.7842 713.066 20.5442 713.066 15.6122V14.8562C713.066 9.85219 709.718 6.57619 704.282 6.07219Z" fill="white"/>
<path d="M720.25 24.0002V6.36019H718.558V24.0002H720.25ZM723.202 6.36019V7.90819H733.138V6.36019H723.202Z" fill="white"/>
<path d="M750.335 6.36019H738.023L737.843 15.5402C737.771 18.5642 736.979 20.7962 735.755 22.4882H733.091L733.127 28.6082H734.783V24.0002H750.335V22.4882H737.483C738.599 20.7962 739.355 18.6722 739.427 15.5402L739.571 7.87219H750.335V6.36019ZM754.979 22.4882V6.36019H753.287V24.0002H756.995V28.6082H758.651V22.4882H754.979Z" fill="white"/>
<path d="M770.053 7.69219V6.07219C765.409 6.50419 762.349 9.06019 762.349 12.5162V12.8042H764.005V12.5162C764.005 9.96019 766.453 8.08819 770.053 7.69219ZM773.005 6.07219V7.69219C776.965 8.05219 779.089 9.99619 779.089 13.3082V20.2562C779.089 22.5962 780.637 24.0002 783.265 24.0002H785.173V22.4882H783.589C781.789 22.4882 780.745 21.5522 780.745 19.9322V13.3082C780.745 9.09619 777.937 6.46819 773.005 6.07219ZM776.245 22.7402L776.137 21.1562C774.553 22.2362 772.357 22.8842 769.873 22.8842C765.913 22.8842 763.933 21.8042 763.933 19.6802C763.933 17.6282 765.553 16.5482 769.153 16.1882L776.137 15.4682V14.0282L768.829 14.7842C764.365 15.2522 762.241 16.8362 762.241 19.6802C762.241 22.7762 764.869 24.3962 769.909 24.3962C772.429 24.3962 774.589 23.8202 776.245 22.7402Z" fill="white"/>
<path d="M794.994 1.64419V0.0961914C790.098 0.492191 787.146 3.04819 787.146 7.00819V7.76419H788.802V7.00819C788.802 3.98419 791.106 2.04019 794.994 1.64419ZM797.946 0.0961914V1.64419C801.546 2.00419 803.706 3.69619 803.706 6.28819V6.64819C803.706 8.37619 802.698 9.49219 799.422 11.3642C796.326 13.1282 795.354 14.4962 795.354 17.1242V18.5642H796.938V17.1242C796.938 15.0722 797.802 13.9562 800.754 12.3002C804.174 10.3562 805.434 8.84419 805.434 6.68419V6.25219C805.434 2.90419 802.446 0.528192 797.946 0.0961914ZM796.146 24.3962C796.866 24.3962 797.442 23.8922 797.442 23.1002C797.442 22.3442 796.866 21.8402 796.146 21.8402C795.462 21.8402 794.85 22.3442 794.85 23.1002C794.85 23.8922 795.462 24.3962 796.146 24.3962Z" fill="white"/>
<path d="M900.286 14.9642V13.3082C897.982 13.7042 895.607 13.9202 893.699 13.9202C887.723 13.9202 884.915 11.7242 884.915 7.04419V0.384192H883.187V7.15219C883.187 12.7322 886.679 15.5402 893.591 15.5402C895.571 15.5402 898.018 15.3242 900.286 14.9642ZM905.003 0.384192H903.239V24.0002H905.003V0.384192Z" fill="white"/>
<path d="M909.208 7.90819H930.232V6.36019H909.208V7.90819ZM920.692 10.7882H919V24.0002H920.692V10.7882Z" fill="white"/>
<path d="M940.884 7.62019V6.07219C935.376 6.57619 931.992 9.81619 931.992 14.8562V15.6122C931.992 20.5442 935.376 23.7842 940.884 24.2882V22.7042C936.456 22.2362 933.72 19.6442 933.72 15.5762V14.8562C933.72 10.7522 936.384 8.12419 940.884 7.62019ZM943.836 6.07219V7.65619C948.228 8.12419 950.892 10.8242 950.892 14.8562V15.5762C950.892 19.6082 948.192 22.2722 943.836 22.7042V24.2882C949.272 23.7842 952.62 20.5442 952.62 15.6122V14.8562C952.62 9.85219 949.272 6.57619 943.836 6.07219Z" fill="white"/>
<path d="M956.95 29.1482H958.57L961.594 20.5442V20.2562H959.686L956.95 29.1482Z" fill="white"/>
<path d="M983.496 24.0002H985.188V6.36019H983.496V24.0002ZM992.712 15.1082L1002.54 6.64819V6.36019H1000.56L991.2 14.3882H988.14V15.9002H991.272L1001.1 24.0002H1003.04V23.7122L992.712 15.1082Z" fill="white"/>
<path d="M1014.25 7.69219V6.07219C1009.6 6.50419 1006.54 9.06019 1006.54 12.5162V12.8042H1008.2V12.5162C1008.2 9.96019 1010.65 8.08819 1014.25 7.69219ZM1017.2 6.07219V7.69219C1021.16 8.05219 1023.28 9.99619 1023.28 13.3082V20.2562C1023.28 22.5962 1024.83 24.0002 1027.46 24.0002H1029.37V22.4882H1027.78C1025.98 22.4882 1024.94 21.5522 1024.94 19.9322V13.3082C1024.94 9.09619 1022.13 6.46819 1017.2 6.07219ZM1020.44 22.7402L1020.33 21.1562C1018.75 22.2362 1016.55 22.8842 1014.07 22.8842C1010.11 22.8842 1008.13 21.8042 1008.13 19.6802C1008.13 17.6282 1009.75 16.5482 1013.35 16.1882L1020.33 15.4682V14.0282L1013.02 14.7842C1008.56 15.2522 1006.44 16.8362 1006.44 19.6802C1006.44 22.7762 1009.06 24.3962 1014.1 24.3962C1016.62 24.3962 1018.78 23.8202 1020.44 22.7402Z" fill="white"/>
<path d="M1032.93 24.0002H1034.62V6.36019H1032.93V24.0002ZM1042.14 15.1082L1051.97 6.64819V6.36019H1049.99L1040.63 14.3882H1037.57V15.9002H1040.7L1050.53 24.0002H1052.47V23.7122L1042.14 15.1082Z" fill="white"/>
<path d="M1088.97 6.36019L1072.05 24.0002H1073.82L1090.74 6.36019H1088.97ZM1072.05 19.4282L1073.67 17.5922V6.36019H1072.05V19.4282ZM1090.74 10.9322L1089.12 12.7682V24.0002H1090.74V10.9322Z" fill="white"/>
<path d="M1112.13 24.0002H1113.82V6.36019H1112.13V24.0002ZM1121.35 15.1082L1131.18 6.64819V6.36019H1129.2L1119.84 14.3882H1116.78V15.9002H1119.91L1129.74 24.0002H1131.68V23.7122L1121.35 15.1082Z" fill="white"/>
<path d="M1142.86 7.62019V6.07219C1137.35 6.57619 1133.97 9.81619 1133.97 14.8562V15.6122C1133.97 20.5442 1137.35 23.7842 1142.86 24.2882V22.7042C1138.43 22.2362 1135.69 19.6442 1135.69 15.5762V14.8562C1135.69 10.7522 1138.36 8.12419 1142.86 7.62019ZM1145.81 6.07219V7.65619C1150.2 8.12419 1152.87 10.8242 1152.87 14.8562V15.5762C1152.87 19.6082 1150.17 22.2722 1145.81 22.7042V24.2882C1151.25 23.7842 1154.59 20.5442 1154.59 15.6122V14.8562C1154.59 9.85219 1151.25 6.57619 1145.81 6.07219Z" fill="white"/>
<path d="M1161.78 24.0002V6.36019H1160.09V24.0002H1161.78ZM1164.73 6.36019V7.90819H1174.67V6.36019H1164.73Z" fill="white"/>
<path d="M1191.86 6.36019H1179.55L1179.37 15.5402C1179.3 18.5642 1178.51 20.7962 1177.28 22.4882H1174.62L1174.65 28.6082H1176.31V24.0002H1191.86V22.4882H1179.01C1180.13 20.7962 1180.88 18.6722 1180.95 15.5402L1181.1 7.87219H1191.86V6.36019ZM1196.51 22.4882V6.36019H1194.81V24.0002H1198.52V28.6082H1200.18V22.4882H1196.51Z" fill="white"/>
<path d="M1211.58 7.69219V6.07219C1206.94 6.50419 1203.88 9.06019 1203.88 12.5162V12.8042H1205.53V12.5162C1205.53 9.96019 1207.98 8.08819 1211.58 7.69219ZM1214.53 6.07219V7.69219C1218.49 8.05219 1220.62 9.99619 1220.62 13.3082V20.2562C1220.62 22.5962 1222.16 24.0002 1224.79 24.0002H1226.7V22.4882H1225.12C1223.32 22.4882 1222.27 21.5522 1222.27 19.9322V13.3082C1222.27 9.09619 1219.46 6.46819 1214.53 6.07219ZM1217.77 22.7402L1217.66 21.1562C1216.08 22.2362 1213.88 22.8842 1211.4 22.8842C1207.44 22.8842 1205.46 21.8042 1205.46 19.6802C1205.46 17.6282 1207.08 16.5482 1210.68 16.1882L1217.66 15.4682V14.0282L1210.36 14.7842C1205.89 15.2522 1203.77 16.8362 1203.77 19.6802C1203.77 22.7762 1206.4 24.3962 1211.44 24.3962C1213.96 24.3962 1216.12 23.8202 1217.77 22.7402Z" fill="white"/>
<path d="M1236.52 1.64419V0.0961914C1231.63 0.492191 1228.67 3.04819 1228.67 7.00819V7.76419H1230.33V7.00819C1230.33 3.98419 1232.63 2.04019 1236.52 1.64419ZM1239.47 0.0961914V1.64419C1243.07 2.00419 1245.23 3.69619 1245.23 6.28819V6.64819C1245.23 8.37619 1244.23 9.49219 1240.95 11.3642C1237.85 13.1282 1236.88 14.4962 1236.88 17.1242V18.5642H1238.47V17.1242C1238.47 15.0722 1239.33 13.9562 1242.28 12.3002C1245.7 10.3562 1246.96 8.84419 1246.96 6.68419V6.25219C1246.96 2.90419 1243.97 0.528192 1239.47 0.0961914ZM1237.67 24.3962C1238.39 24.3962 1238.97 23.8922 1238.97 23.1002C1238.97 22.3442 1238.39 21.8402 1237.67 21.8402C1236.99 21.8402 1236.38 22.3442 1236.38 23.1002C1236.38 23.8922 1236.99 24.3962 1237.67 24.3962Z" fill="white"/>
<path d="M1341.81 14.9642V13.3082C1339.51 13.7042 1337.13 13.9202 1335.23 13.9202C1329.25 13.9202 1326.44 11.7242 1326.44 7.04419V0.384192H1324.71V7.15219C1324.71 12.7322 1328.21 15.5402 1335.12 15.5402C1337.1 15.5402 1339.55 15.3242 1341.81 14.9642ZM1346.53 0.384192H1344.77V24.0002H1346.53V0.384192Z" fill="white"/>
<path d="M1350.74 7.90819H1371.76V6.36019H1350.74V7.90819ZM1362.22 10.7882H1360.53V24.0002H1362.22V10.7882Z" fill="white"/>
<path d="M1382.41 7.62019V6.07219C1376.9 6.57619 1373.52 9.81619 1373.52 14.8562V15.6122C1373.52 20.5442 1376.9 23.7842 1382.41 24.2882V22.7042C1377.98 22.2362 1375.25 19.6442 1375.25 15.5762V14.8562C1375.25 10.7522 1377.91 8.12419 1382.41 7.62019ZM1385.36 6.07219V7.65619C1389.76 8.12419 1392.42 10.8242 1392.42 14.8562V15.5762C1392.42 19.6082 1389.72 22.2722 1385.36 22.7042V24.2882C1390.8 23.7842 1394.15 20.5442 1394.15 15.6122V14.8562C1394.15 9.85219 1390.8 6.57619 1385.36 6.07219Z" fill="white"/>
<path d="M1398.48 29.1482H1400.1L1403.12 20.5442V20.2562H1401.21L1398.48 29.1482Z" fill="white"/>
<path d="M1425.02 24.0002H1426.72V6.36019H1425.02V24.0002ZM1434.24 15.1082L1444.07 6.64819V6.36019H1442.09L1432.73 14.3882H1429.67V15.9002H1432.8L1442.63 24.0002H1444.57V23.7122L1434.24 15.1082Z" fill="white"/>
<path d="M1455.78 7.69219V6.07219C1451.13 6.50419 1448.07 9.06019 1448.07 12.5162V12.8042H1449.73V12.5162C1449.73 9.96019 1452.18 8.08819 1455.78 7.69219ZM1458.73 6.07219V7.69219C1462.69 8.05219 1464.81 9.99619 1464.81 13.3082V20.2562C1464.81 22.5962 1466.36 24.0002 1468.99 24.0002H1470.9V22.4882H1469.31C1467.51 22.4882 1466.47 21.5522 1466.47 19.9322V13.3082C1466.47 9.09619 1463.66 6.46819 1458.73 6.07219ZM1461.97 22.7402L1461.86 21.1562C1460.28 22.2362 1458.08 22.8842 1455.6 22.8842C1451.64 22.8842 1449.66 21.8042 1449.66 19.6802C1449.66 17.6282 1451.28 16.5482 1454.88 16.1882L1461.86 15.4682V14.0282L1454.55 14.7842C1450.09 15.2522 1447.96 16.8362 1447.96 19.6802C1447.96 22.7762 1450.59 24.3962 1455.63 24.3962C1458.15 24.3962 1460.31 23.8202 1461.97 22.7402Z" fill="white"/>
<path d="M1474.45 24.0002H1476.14V6.36019H1474.45V24.0002ZM1483.67 15.1082L1493.5 6.64819V6.36019H1491.52L1482.16 14.3882H1479.1V15.9002H1482.23L1492.06 24.0002H1494V23.7122L1483.67 15.1082Z" fill="white"/>
<path d="M1530.5 6.36019L1513.58 24.0002H1515.35L1532.27 6.36019H1530.5ZM1513.58 19.4282L1515.2 17.5922V6.36019H1513.58V19.4282ZM1532.27 10.9322L1530.65 12.7682V24.0002H1532.27V10.9322Z" fill="white"/>
<path d="M1553.66 24.0002H1555.35V6.36019H1553.66V24.0002ZM1562.88 15.1082L1572.7 6.64819V6.36019H1570.72L1561.36 14.3882H1558.3V15.9002H1561.44L1571.26 24.0002H1573.21V23.7122L1562.88 15.1082Z" fill="white"/>
<path d="M1584.38 7.62019V6.07219C1578.88 6.57619 1575.49 9.81619 1575.49 14.8562V15.6122C1575.49 20.5442 1578.88 23.7842 1584.38 24.2882V22.7042C1579.96 22.2362 1577.22 19.6442 1577.22 15.5762V14.8562C1577.22 10.7522 1579.88 8.12419 1584.38 7.62019ZM1587.34 6.07219V7.65619C1591.73 8.12419 1594.39 10.8242 1594.39 14.8562V15.5762C1594.39 19.6082 1591.69 22.2722 1587.34 22.7042V24.2882C1592.77 23.7842 1596.12 20.5442 1596.12 15.6122V14.8562C1596.12 9.85219 1592.77 6.57619 1587.34 6.07219Z" fill="white"/>
<path d="M1603.3 24.0002V6.36019H1601.61V24.0002H1603.3ZM1606.26 6.36019V7.90819H1616.19V6.36019H1606.26Z" fill="white"/>
<path d="M1633.39 6.36019H1621.08L1620.9 15.5402C1620.83 18.5642 1620.03 20.7962 1618.81 22.4882H1616.15L1616.18 28.6082H1617.84V24.0002H1633.39V22.4882H1620.54C1621.65 20.7962 1622.41 18.6722 1622.48 15.5402L1622.63 7.87219H1633.39V6.36019ZM1638.03 22.4882V6.36019H1636.34V24.0002H1640.05V28.6082H1641.71V22.4882H1638.03Z" fill="white"/>
<path d="M1653.11 7.69219V6.07219C1648.46 6.50419 1645.4 9.06019 1645.4 12.5162V12.8042H1647.06V12.5162C1647.06 9.96019 1649.51 8.08819 1653.11 7.69219ZM1656.06 6.07219V7.69219C1660.02 8.05219 1662.14 9.99619 1662.14 13.3082V20.2562C1662.14 22.5962 1663.69 24.0002 1666.32 24.0002H1668.23V22.4882H1666.64C1664.84 22.4882 1663.8 21.5522 1663.8 19.9322V13.3082C1663.8 9.09619 1660.99 6.46819 1656.06 6.07219ZM1659.3 22.7402L1659.19 21.1562C1657.61 22.2362 1655.41 22.8842 1652.93 22.8842C1648.97 22.8842 1646.99 21.8042 1646.99 19.6802C1646.99 17.6282 1648.61 16.5482 1652.21 16.1882L1659.19 15.4682V14.0282L1651.88 14.7842C1647.42 15.2522 1645.3 16.8362 1645.3 19.6802C1645.3 22.7762 1647.92 24.3962 1652.96 24.3962C1655.48 24.3962 1657.64 23.8202 1659.3 22.7402Z" fill="white"/>
<path d="M1678.05 1.64419V0.0961914C1673.15 0.492191 1670.2 3.04819 1670.2 7.00819V7.76419H1671.86V7.00819C1671.86 3.98419 1674.16 2.04019 1678.05 1.64419ZM1681 0.0961914V1.64419C1684.6 2.00419 1686.76 3.69619 1686.76 6.28819V6.64819C1686.76 8.37619 1685.75 9.49219 1682.48 11.3642C1679.38 13.1282 1678.41 14.4962 1678.41 17.1242V18.5642H1679.99V17.1242C1679.99 15.0722 1680.86 13.9562 1683.81 12.3002C1687.23 10.3562 1688.49 8.84419 1688.49 6.68419V6.25219C1688.49 2.90419 1685.5 0.528192 1681 0.0961914ZM1679.2 24.3962C1679.92 24.3962 1680.5 23.8922 1680.5 23.1002C1680.5 22.3442 1679.92 21.8402 1679.2 21.8402C1678.52 21.8402 1677.9 22.3442 1677.9 23.1002C1677.9 23.8922 1678.52 24.3962 1679.2 24.3962Z" fill="white"/>
</svg>
