<svg xmlns="http://www.w3.org/2000/svg" xmlns:xlink="http://www.w3.org/1999/xlink" width="650.612" height="268.317" viewBox="0 0 650.612 268.317">
  <defs>
    <linearGradient id="linear-gradient" x1="-197.148" y1="0.266" x2="-196.494" y2="0.809" gradientUnits="objectBoundingBox">
      <stop offset="0" stop-color="#fff"/>
      <stop offset="1"/>
    </linearGradient>
    <linearGradient id="linear-gradient-2" x1="-182.599" y1="0.254" x2="-181.957" y2="0.791" xlink:href="#linear-gradient"/>
    <linearGradient id="linear-gradient-3" y1="0.5" x2="1" y2="0.5" gradientUnits="objectBoundingBox">
      <stop offset="0.005" stop-color="#ebeaf0"/>
      <stop offset="0.989" stop-color="#e5e4ec"/>
    </linearGradient>
    <linearGradient id="linear-gradient-4" x1="0" y1="0.5" x2="1" y2="0.5" xlink:href="#linear-gradient-3"/>
    <linearGradient id="linear-gradient-5" x1="0" y1="0.5" x2="1" y2="0.5" xlink:href="#linear-gradient-3"/>
    <linearGradient id="linear-gradient-6" x1="-0.082" y1="0.624" x2="0.928" y2="0.624" xlink:href="#linear-gradient-3"/>
  </defs>
  <g id="Group_51" data-name="Group 51" transform="translate(-357.694 -223.983)">
    <g id="Group_50" data-name="Group 50">
      <rect id="Rectangle_2" data-name="Rectangle 2" width="650" height="268.317" rx="30" transform="translate(357.694 223.983)" fill="#1e0692" opacity="0.8"/>
    </g>
    <text id="Развлекательный_канал_который_можно_слушать_в_перерывах_между_выступлениями_чтобы_быть_в_курсе_событий._Розыгрыши_викторины_анонсы_speed_meeting_со_спикерами_известными_личностями_и_лидерами_мнений_в_образовании." data-name="Развлекательный канал, который можно слушать в перерывах между выступлениями, чтобы быть в курсе событий. Розыгрыши, викторины, анонсы, speed meeting со спикерами, известными личностями и лидерами мнений в образовании." transform="translate(586.854 248.688)" fill="#fff" font-size="20" font-family="Montserrat-Regular, Montserrat"><tspan x="0" y="19">Развлекательный канал, который </tspan><tspan x="0" y="43">можно слушать в перерывах между </tspan><tspan x="0" y="67">выступлениями, чтобы быть в курсе </tspan><tspan x="0" y="91">событий. Розыгрыши, викторины, </tspan><tspan x="0" y="115">анонсы, speed meeting со спикерами, </tspan><tspan x="0" y="139">известными личностями и лидерами </tspan><tspan x="0" y="163">мнений в образовании.</tspan></text>
    <rect id="Rectangle_4" data-name="Rectangle 4" width="650.523" height="54.753" rx="27.377" transform="translate(357.783 436.796)" fill="#1e0692"/>
    <g id="Group_49" data-name="Group 49">
      <g id="Group_3" data-name="Group 3" opacity="0.8">
        <g id="Group_2" data-name="Group 2">
          <path id="Path_1" data-name="Path 1" d="M471.353,351.3,424.27,378.479c-2.475,1.429-2.475,3.746,0,5.174l47.083,27.185a9.908,9.908,0,0,0,8.961,0L527.4,383.654c2.475-1.429,2.475-3.746,0-5.174L480.314,351.3A9.9,9.9,0,0,0,471.353,351.3Z" fill="#b4fffa" opacity="0.2"/>
          <path id="Path_2" data-name="Path 2" d="M471.353,388.463,424.27,415.646c-2.475,1.429-2.475,3.745,0,5.174L471.353,448a9.907,9.907,0,0,0,8.961,0L527.4,420.82c2.475-1.429,2.475-3.745,0-5.174l-47.084-27.183A9.9,9.9,0,0,0,471.353,388.463Z" fill="#9bdff5" opacity="0.15" style="mix-blend-mode: multiply;isolation: isolate"/>
          <g id="Group_1" data-name="Group 1">
            <path id="Path_3" data-name="Path 3" d="M529.258,283.987v61.071a9.908,9.908,0,0,1-4.484,7.761l-44.462,25.663a9.268,9.268,0,0,1-4.484,1.069,9.158,9.158,0,0,1-4.468-1.069L426.9,352.819a9.9,9.9,0,0,1-4.484-7.761V283.987Z" fill="#f5ffff"/>
            <path id="Path_4" data-name="Path 4" d="M475.828,283.987v95.564a9.158,9.158,0,0,1-4.468-1.069L426.9,352.819a9.9,9.9,0,0,1-4.484-7.761V283.987Z" fill="#c2ecfb"/>
            <path id="Path_5" data-name="Path 5" d="M471.353,254.223,424.27,281.407c-2.475,1.428-2.475,3.745,0,5.174l47.083,27.184a9.908,9.908,0,0,0,8.961,0L527.4,286.581c2.475-1.429,2.475-3.746,0-5.174l-47.084-27.184A9.9,9.9,0,0,0,471.353,254.223Z" fill="#d9f4ff"/>
            <path id="Path_6" data-name="Path 6" d="M471.353,254.223,424.27,281.407c-2.475,1.428-2.475,3.745,0,5.174l47.083,27.184a9.908,9.908,0,0,0,8.961,0L527.4,286.581c2.475-1.429,2.475-3.746,0-5.174l-47.084-27.184A9.9,9.9,0,0,0,471.353,254.223Z" fill="#d9f4ff"/>
          </g>
        </g>
      </g>
      <g id="Group_6" data-name="Group 6">
        <g id="Group_5" data-name="Group 5">
          <ellipse id="Ellipse_1" data-name="Ellipse 1" cx="6.59" cy="2.839" rx="6.59" ry="2.839" transform="matrix(0.968, -0.251, 0.251, 0.968, 474.44, 429.639)" fill="#0d0506" opacity="0.1"/>
          <path id="Path_7" data-name="Path 7" d="M477.038,427.675a6.508,6.508,0,0,0,1.3.134c.206,0,.408-.011.608-.028l-.906,2.409.407,2.051-1.878-.373.4-2Z" fill="#e9b965"/>
          <path id="Path_8" data-name="Path 8" d="M477.168,406.375c-.025-.245,1.772.005,1.772.005a25.659,25.659,0,0,1-1.519,3.85c-.423.6,1.025.868,1.938,1.87-.191.706-.454,1.392-.646,2.1a.631.631,0,0,0,.006.377l-.039.114-.5-1.947s-2.343-.9-2.374-1.385C475.671,409.253,477.193,406.62,477.168,406.375Z" fill="#e9b965"/>
          <path id="Path_9" data-name="Path 9" d="M481.72,404.69l-.264-1.414s.59.4.776.171a18.175,18.175,0,0,0,.26-2.995s-.028-1.381-1.14-.932-2.454.2-2.161,1.762.476,3.192.063,3.356S481.54,405.888,481.72,404.69Z" fill="#fbcd74"/>
          <g id="Group_4" data-name="Group 4">
            <path id="Path_10" data-name="Path 10" d="M478.388,431.495s-.072.293-.275.213-.418-.733-.823-.6-.837.892-.837.892l-.159.972s.347-.546.679-.386a8.955,8.955,0,0,1,.953.613s1.605.18,1.533-.26,0-.715-.375-.956S478.388,431.495,478.388,431.495Z" fill="#221132"/>
            <path id="Path_11" data-name="Path 11" d="M479.2,433.134a2.774,2.774,0,0,1-1.453.1c-.88-.146-1.452-.263-1.452-.263a.481.481,0,0,1,.525-.414C477.3,432.56,479.038,433.153,479.2,433.134Z" fill="#423432"/>
          </g>
          <path id="Path_12" data-name="Path 12" d="M484.712,419.48v4.473l0,1.525-.226,2.689s.594.518.553.755a1.589,1.589,0,0,1-.711.8c-.293.052-1-.167-1.1-.44s-.426-4.039-.426-4.039v-1.482l-1.473-4.7Z" fill="#fbcd74"/>
          <path id="Path_13" data-name="Path 13" d="M478.893,413.522l-.508.96c-.21.4-.135.209-.149.509l-.358,7.519s-.483,1.645-.623,2.188c-.4,1.583-.961,6.373-.961,6.373.213.447,1.125.928,2.55.279l1.823-7.921.6-5.61.985-4.3Z" fill="#301e62"/>
          <path id="Path_14" data-name="Path 14" d="M484.649,428.318s.135.541.287.583-.5.9-1.04.671-.712-.259-.708-.378-.123.273,0,.336-.3.639-.054.9a1.563,1.563,0,0,0,1.412.189c.249-.2.1-.3.5-.44s1.539-.682,1.6-1.258,0-1.143-.747-.912A9.826,9.826,0,0,1,484.649,428.318Z" fill="#221132"/>
          <path id="Path_15" data-name="Path 15" d="M484.178,414.266l1.064,14.267c-.373,1.161-1.779,1.892-2.608,1.193l-2.669-14.742-.143-2.911Z" fill="#3b1f78"/>
          <path id="Path_16" data-name="Path 16" d="M478.415,408.328a8.949,8.949,0,0,1-1.756-.688c-.272-.247,1.02-3.867,1.779-3.718C479.154,404.063,480.415,403.936,478.415,408.328Z" fill="#d42e28"/>
          <path id="Path_17" data-name="Path 17" d="M483.607,404.54s1.008,3.351.512,4.479a6.962,6.962,0,0,0,.264,4.938c.248.547-.793,1.393-1.851,1.576a15.229,15.229,0,0,1-4.353-.308c-.161.006.4-1.327.482-2.7.1-1.555-1.07-7.558-.445-8.442S482.766,403.914,483.607,404.54Z" fill="#e95857"/>
          <path id="Path_18" data-name="Path 18" d="M484.082,406.514a9.2,9.2,0,0,1,.706,2.933c-.09.973.505,1.423.5,3.871s.651,3.367.431,4.339c-.2.887-1.087,2.11-1.187,1.3a9.635,9.635,0,0,1,.134-2.167l-1.089-4.55,0-1.747s-1.052-3.713-1.082-3.932S484.082,406.514,484.082,406.514Z" fill="#fbcd74"/>
          <path id="Path_19" data-name="Path 19" d="M485.179,408.58a13.479,13.479,0,0,1-2.408.474c-.417-.069-.961-3.7-.25-4.277C482.855,404.507,484.368,403.1,485.179,408.58Z" fill="#f2adae"/>
          <path id="Path_20" data-name="Path 20" d="M481.953,398.539l.808,1.022s-.293-.054-.253.087.4.9.4.9-.3-.225-.3-.109c-.043,1.029-.578.9-.578.9s0-1.2-.415-.638a1.251,1.251,0,0,0-.069,1.235l-.616,1.336-1.115.026a13.9,13.9,0,0,1-1.1-1.506c-.046-.066-.108.4-.108.4l.019-.82-.244.184a10.433,10.433,0,0,1-.371-1.854C478.247,399.018,479.345,396.936,481.953,398.539Z" fill="#573123"/>
        </g>
        <path id="Path_21" data-name="Path 21" d="M479.517,398.271s-1.222.823-1.28,1.382a4.417,4.417,0,0,0,.19,1.377l.169-.243a5.461,5.461,0,0,0,.371.976C478.422,400.8,479.23,398.51,479.517,398.271Z" fill="#814e36"/>
        <path id="Path_22" data-name="Path 22" d="M478.237,406.7a44.069,44.069,0,0,1,.721,5.442c-.133.724-.171,1.49-.267,1.815a6.025,6.025,0,0,0,1.913-2.4C480.891,410.592,478.237,406.7,478.237,406.7Z" fill="#e3534e"/>
        <path id="Path_23" data-name="Path 23" d="M481.546,401.938a3.405,3.405,0,0,1-.846.9c-.383.2-1.982-1.044-1.982-1.044a7.684,7.684,0,0,0,1.1,1.506l1.115-.026Z" fill="#45251c"/>
      </g>
      <g id="Group_8" data-name="Group 8">
        <path id="Path_24" data-name="Path 24" d="M504.342,447.321a4.9,4.9,0,0,0,2.242-1.271l-4.6-2.057-3.39,2.118,4.639,2.455C504.061,448.878,504.342,447.321,504.342,447.321Z" opacity="0.25" fill="url(#linear-gradient)" style="mix-blend-mode: color-burn;isolation: isolate"/>
        <path id="Path_25" data-name="Path 25" d="M508.335,449.127a4.9,4.9,0,0,0,2.242-1.27l-4.6-2.058-4.025,2.466,5.369,2.431C508.149,451.008,508.335,449.127,508.335,449.127Z" opacity="0.25" fill="url(#linear-gradient-2)" style="mix-blend-mode: color-burn;isolation: isolate"/>
        <g id="Group_7" data-name="Group 7">
          <path id="Path_26" data-name="Path 26" d="M516.7,422.886a.8.8,0,0,1-.17.02.3.3,0,0,0-.254.174l-.648,1.326-.132.272-.555-1.091-.249-.486a1.455,1.455,0,0,0,.141-.732,7.484,7.484,0,0,1,.049-1.2.315.315,0,0,1,.093-.195c.321-.343,1.574-1.659,1.647-1.674a.317.317,0,0,1,.2.02.185.185,0,0,1,.059.062.228.228,0,0,1,0,.189,7.242,7.242,0,0,1-.629,1.07l.019.016a5.755,5.755,0,0,1,.595.527.931.931,0,0,1,.21.307C517.128,421.754,516.963,422.845,516.7,422.886Z" fill="#fec9c9"/>
          <path id="Path_27" data-name="Path 27" d="M516.826,419.322l-1.613,1.956v2.212l-.268.1-.249-.486a1.455,1.455,0,0,0,.141-.732,7.484,7.484,0,0,1,.049-1.2.315.315,0,0,1,.093-.195c.321-.343,1.574-1.659,1.647-1.674A.317.317,0,0,1,516.826,419.322Z" fill="#cf3838" opacity="0.15" style="mix-blend-mode: multiply;isolation: isolate"/>
          <path id="Path_28" data-name="Path 28" d="M506.8,450.383a1.262,1.262,0,0,0,.812.361.5.5,0,0,0,.148-.022,9,9,0,0,0,2.5-1.455,3.562,3.562,0,0,0,.3-1.341.461.461,0,0,0-.431-.182,7.557,7.557,0,0,1-1.853.522.629.629,0,0,0-.3.075,4.189,4.189,0,0,0-1.042.87S506.683,450.248,506.8,450.383Z" fill="#110812"/>
          <path id="Path_29" data-name="Path 29" d="M502.863,448.074a.187.187,0,0,0,.016.1.7.7,0,0,0,.594.445,2.1,2.1,0,0,0,.624-.044,1.782,1.782,0,0,0,.62-.327c.224-.17.561-.766.917-1.02s1-.724,1-.724a2.862,2.862,0,0,0-.046-.456,3.606,3.606,0,0,0-1.192.056c-.17.053-.919.472-1.148.6l-.069.038-1.2.443Z" fill="#110812"/>
          <path id="Path_30" data-name="Path 30" d="M501.663,436.778c.041.215,1.2,1.1,1.2,1.1l.106-.229.342-.734-.79-2.148-.6.106-.168.179S501.621,436.562,501.663,436.778Z" fill="#fec9c9"/>
          <path id="Path_31" data-name="Path 31" d="M501.663,436.778c.041.215,1.2,1.1,1.2,1.1l.106-.229.342-.734-.79-2.148-.6.106-.168.179S501.621,436.562,501.663,436.778Z" fill="#cf3838" opacity="0.15" style="mix-blend-mode: multiply;isolation: isolate"/>
          <path id="Path_32" data-name="Path 32" d="M502.667,428.277a6.132,6.132,0,0,0-.536,2.248,11.883,11.883,0,0,0,.443,3.005c.112.43.22.8.293,1.024.014.062.034.113.044.154a.317.317,0,0,1,.034.107.147.147,0,0,1,.005.046.446.446,0,0,1-.254.374,1.1,1.1,0,0,1-.292.118,1.246,1.246,0,0,1-.342.036,1.259,1.259,0,0,1-.594-.154.49.49,0,0,1-.254-.343,37.326,37.326,0,0,1-.585-5.1,24.844,24.844,0,0,1,1.838-5.008,1.919,1.919,0,0,1,.317-.246,1.219,1.219,0,0,1,.258-.122c.005-.006.005,3.164.005,3.164A4.983,4.983,0,0,0,502.667,428.277Z" fill="#277a85"/>
          <path id="Path_33" data-name="Path 33" d="M509.085,442.193l-.249,7.1a.543.543,0,0,1-.3.439,1.178,1.178,0,0,1-.386.147,1.607,1.607,0,0,1-.853-.05,1.074,1.074,0,0,1-.219-.1.54.54,0,0,1-.3-.441l.029-7.02-1.474-4.107c-.185,1.053-.5,2.926-.541,3.458-.052.763-.023,5.509-.023,5.509a.571.571,0,0,1-.309.444,1.308,1.308,0,0,1-.327.127,1.611,1.611,0,0,1-.838-.014,1.055,1.055,0,0,1-.292-.12.555.555,0,0,1-.3-.446s-.122-4.87-.086-5.136a21.014,21.014,0,0,0,.126-2.2c.024-1.2-.191-4.517-.191-4.517a4.209,4.209,0,0,1,.2-1.5c.094-.338.183-.578.183-.578l4.213.67,1.072.169A40.221,40.221,0,0,1,509.085,442.193Z" fill="#3b1f78"/>
          <path id="Path_34" data-name="Path 34" d="M503.343,447.692a1.064,1.064,0,0,1-.292-.118.555.555,0,0,1-.3-.445s-.142-4.869-.107-5.135a21.006,21.006,0,0,0,.117-2.2c.019-1.2-.21-4.516-.21-4.516a4.207,4.207,0,0,1,.195-1.505l.6.778a4.447,4.447,0,0,0-.073,2.166C503.5,437.846,503.368,446.279,503.343,447.692Z" fill="url(#linear-gradient-3)" style="mix-blend-mode: color-burn;isolation: isolate"/>
          <path id="Path_35" data-name="Path 35" d="M508.725,428.748c-.044.19-.1.374-.151.553a15.69,15.69,0,0,0-.487,1.551,20.857,20.857,0,0,0,.4,3.508c-.015.256-.3.583-1.156.763a7.955,7.955,0,0,1-1.652.122,5.6,5.6,0,0,1-2.812-.691,2.223,2.223,0,0,1-.385-.266s.039-.3.092-.758c.078-.7.19-1.756.229-2.678a15,15,0,0,0-.136-2.575c-.054-.491-.117-.988-.161-1.515a4.069,4.069,0,0,1,.458-2.217c.044-.077.073-.123.078-.133a1.143,1.143,0,0,1,.2.005,10.418,10.418,0,0,1,1.6.189,8.585,8.585,0,0,1,1.306.353,6.4,6.4,0,0,1,2.276,1.291,2.241,2.241,0,0,1,.336.665A3.533,3.533,0,0,1,508.725,428.748Z" fill="#277a85"/>
          <path id="Path_36" data-name="Path 36" d="M516.032,424.109a.64.64,0,0,1-.059.292c-.015.021-.024.041-.039.062-.317.507-2.651,4.219-2.944,4.418a27.043,27.043,0,0,1-4.416.42c-.068.005-.126.005-.17.005-.653,0-1.136-.1-1.292-1.044a3.362,3.362,0,0,1-.044-.359,1.538,1.538,0,0,1,.7-1.387,2.25,2.25,0,0,1,.327-.2.617.617,0,0,1,.331-.066.568.568,0,0,1,.239.061,4.642,4.642,0,0,0,2.1.471,3.209,3.209,0,0,0,1.257-.281c.01-.006,2.428-3.646,2.428-3.646.117-.261.419-.317.77-.1a1.714,1.714,0,0,1,.482.455A1.627,1.627,0,0,1,516.032,424.109Z" fill="#277a85"/>
          <path id="Path_37" data-name="Path 37" d="M505.566,424.488a.626.626,0,0,0,.152-.027l.088-.041a1.179,1.179,0,0,0,.628-.8l.019-.082a1.253,1.253,0,0,0,.025-.376,1.986,1.986,0,0,1,0-.222c.02-.432.209-.495.352-.523s.171.438.171.438l.2-.067.029-.672a.3.3,0,0,1,.066-.189c.155-.186.7-.306.7-1.025,0-.327-.332-1.47-1.986-1.487.522.284,1.441.888.992,1.459a3.923,3.923,0,0,0-.771,2.336A1.511,1.511,0,0,1,505.566,424.488Z" fill="#bd221e" opacity="0.25" style="mix-blend-mode: multiply;isolation: isolate"/>
          <path id="Path_38" data-name="Path 38" d="M503.237,424.42a.458.458,0,0,0-.45.114,1.812,1.812,0,0,0-.32.246,24.844,24.844,0,0,0-1.838,5.008,37.326,37.326,0,0,0,.585,5.1.49.49,0,0,0,.254.343,1.259,1.259,0,0,0,.594.154,51.5,51.5,0,0,1-1-5.489,31.642,31.642,0,0,1,1.613-4.637,4.012,4.012,0,0,0-.165,1.5c.044.527.107,1.024.161,1.515a15,15,0,0,1,.136,2.575c-.039.922-.151,1.982-.229,2.678-.053.456-.092.758-.092.758a2.223,2.223,0,0,0,.385.266,22.193,22.193,0,0,0-.078-7.081A4.682,4.682,0,0,1,503,425.13c.113-.342,2.382.23,2.382.23l-.538-.756A10.73,10.73,0,0,0,503.237,424.42Z" fill="url(#linear-gradient-4)" style="mix-blend-mode: color-burn;isolation: isolate"/>
          <path id="Path_39" data-name="Path 39" d="M515.213,422.753s-1.76,3.676-3.2,3.748c.01-.006,2.428-3.646,2.428-3.646C514.56,422.594,514.862,422.538,515.213,422.753Z" fill="#277a85"/>
          <path id="Path_40" data-name="Path 40" d="M512.99,428.881a27.043,27.043,0,0,1-4.416.42c-.068.005-.126.005-.17.005-.653,0-1.136-.1-1.292-1.044A20,20,0,0,0,512.99,428.881Z" fill="url(#linear-gradient-5)" style="mix-blend-mode: color-burn;isolation: isolate"/>
          <path id="Path_41" data-name="Path 41" d="M507.325,442.221l-.032,7.608a1.074,1.074,0,0,1-.219-.1.54.54,0,0,1-.3-.441l.029-7.02-1.474-4.107Z" fill="url(#linear-gradient-6)" style="mix-blend-mode: color-burn;isolation: isolate"/>
          <path id="Path_42" data-name="Path 42" d="M507.59,421.59c0,.006,0,.047-.005.118a10.61,10.61,0,0,1-.224,1.843,1.151,1.151,0,0,1-.722.64.139.139,0,0,0-.092.139c.024.507.039.763.048.8a1.8,1.8,0,0,1-.5.216.947.947,0,0,1-.238.03h-.02a2.485,2.485,0,0,1-1.258-.261.391.391,0,0,1-.219-.338c0,.046-.005.087-.01-.107,0-.159,0-.323,0-.466a16.044,16.044,0,0,1,1.208-1.081c.536-.45,1.136-.942,1.545-1.244.025-.02.054-.041.074-.056a3.192,3.192,0,0,1,.336-.225C507.565,421.57,507.6,421.565,507.59,421.59Z" fill="#fec9c9"/>
          <path id="Path_43" data-name="Path 43" d="M507.989,420.9a.927.927,0,0,1-.4.809,1.431,1.431,0,0,0-.293.215.311.311,0,0,0-.068.19l-.029.676-.2.066s-.024-.471-.171-.44-.331.092-.355.522c0,.087,0,.159,0,.225a1.21,1.21,0,0,1-.024.374l-.019.082a1.189,1.189,0,0,1-.629.8.544.544,0,0,0-.088.041.671.671,0,0,1-.151.025,2.429,2.429,0,0,1-1.223-.281,6.74,6.74,0,0,1-.415-.978c-.048-.256-.282-.814-.341-1.06a2.15,2.15,0,0,1,1.682-2.7,4.248,4.248,0,0,1,.731-.057c1.52.016,1.925.978,1.979,1.388A.4.4,0,0,1,507.989,420.9Z" fill="#110812"/>
          <path id="Path_44" data-name="Path 44" d="M507.98,420.8c-.342.082-1-.128-1.35-.092-.532.056-.97,1.572-1.063,2.212a1.353,1.353,0,0,0-.015.2,4,4,0,0,0,.254,1.3l.029.957a2.485,2.485,0,0,1-1.258-.261.391.391,0,0,1-.219-.338c0,.046-.005.087-.01-.107,0-.159,0-.323,0-.466a6.74,6.74,0,0,1-.415-.978c-.048-.256-.282-.814-.341-1.06a2.15,2.15,0,0,1,1.682-2.7,4.248,4.248,0,0,1,.731-.057C507.521,419.43,507.926,420.392,507.98,420.8Z" fill="#cf3838" opacity="0.15" style="mix-blend-mode: multiply;isolation: isolate"/>
        </g>
      </g>
      <g id="Group_11" data-name="Group 11">
        <ellipse id="Ellipse_2" data-name="Ellipse 2" cx="6.356" cy="3.178" rx="6.356" ry="3.178" transform="translate(458.805 456.329)" fill="#0d0506" opacity="0.1"/>
        <g id="Group_9" data-name="Group 9">
          <path id="Path_45" data-name="Path 45" d="M463.373,448.105l.685,6.115a42.757,42.757,0,0,1,.982,4.767c-.01.181-1.427.914-1.374.981,1.1,1.39,2.2-.715,2.2-.715v-.519s.22-2.776.245-3.25-.245-1.2-.269-1.625.049-4.9.049-4.9Z" fill="#e4c79a"/>
          <path id="Path_46" data-name="Path 46" d="M465.453,460.755s.26-.959.3-1.058.334-.722.1-.948c-.4-.384-.9.768-1.489,1.044s-.609.028-.609.028a5.777,5.777,0,0,0-.825.735c-.053.141.587.353,1.122.321a2.18,2.18,0,0,0,.822-.26l.395-.821A5.021,5.021,0,0,0,465.453,460.755Z" fill="#5c504d"/>
        </g>
        <path id="Path_47" data-name="Path 47" d="M463.463,436.754s.564,1.287,1.038,1.151.7-.9.7-1.151v-.812s.749.06.933-.2a6.569,6.569,0,0,0,.15-2.757c-.145-.5-1.151-.722-1.151-.722l-1.557.451Z" fill="#fbdfb4"/>
        <g id="Group_10" data-name="Group 10">
          <path id="Path_48" data-name="Path 48" d="M461.51,447.879s-1.078,5.043-.784,5.641,1.188,1.648,2,3.126,1.482,2.053,1.347,2.606-.465,1.647-.465,1.647l1.47-1.207.086-1.6a3.687,3.687,0,0,1-.8-1.2,10.751,10.751,0,0,0-.981-2.832c-.477-.519-.833-.993-.833-.993l2.018-4.823Z" fill="#fbdfb4"/>
          <path id="Path_49" data-name="Path 49" d="M466.112,460.073s-.339-.943-.363-1.047-.13-.786-.478-.846c-.588-.1-.35,1.135-.723,1.693a1.69,1.69,0,0,1-.843.691,4.7,4.7,0,0,0-.247.979c.037.146.723.1,1.188-.22a4.834,4.834,0,0,0,.858-1.044l-.135-.9S466.112,460.164,466.112,460.073Z" fill="#a6a09e"/>
        </g>
        <path id="Path_50" data-name="Path 50" d="M465.72,436.869a.419.419,0,0,1,.519,0c.24.165,2.147,3,2.836,4.025a.564.564,0,0,1-.056.7l-2.907,3.252-1.385.3V443.7l1.385-.184,1.241-2.037a.6.6,0,0,0,.009-.756l-1.484-1.9S464.546,437.345,465.72,436.869Z" fill="#e4c79a"/>
        <path id="Path_51" data-name="Path 51" d="M462.425,437.048a13.06,13.06,0,0,0-.827,2.437c-.09.767,1.256,2.55,1.03,2.956s-2.279,10.4-2.279,10.4a5.515,5.515,0,0,0,1.738.749c1.929.453,4.788.669,4.862-.248.069-.853.343-6.925-.153-8.194-.591-1.511-.933-2.019-.873-2.522.281-2.343,1.015-5.4.316-5.758A8.109,8.109,0,0,0,462.425,437.048Z" fill="#1f444d"/>
        <path id="Path_52" data-name="Path 52" d="M460.942,443.023a5.674,5.674,0,0,0,.917-2.827c.055-1.373.227-3.065.74-3.253a.8.8,0,0,1,1.141.871c-.067.561-.727,4.156-.82,4.658a.247.247,0,0,1-.047.106l-2.626,3.44a1.446,1.446,0,0,0-.372,1.126,4.955,4.955,0,0,1,0,1.161c-.038.253-.38-.149-.48-.384l-.439-1.023a.258.258,0,0,1,0-.209,5.019,5.019,0,0,1,.65-1.057C459.878,445.329,460.274,444.065,460.942,443.023Z" fill="#fbdfb4"/>
        <path id="Path_53" data-name="Path 53" d="M462.441,431.767a8.305,8.305,0,0,0-.546,3.883c.184,2.332,3.511,1.292,3.511,1.292l.334-2.295a1.014,1.014,0,0,1-.1-.859c.184-.409.43.061.43.061s.507-1.636-.2-2.168A2.58,2.58,0,0,0,462.441,431.767Z" fill="#d1ae51"/>
      </g>
      <g id="Group_28" data-name="Group 28">
        <g id="Group_14" data-name="Group 14">
          <g id="Group_13" data-name="Group 13">
            <path id="Path_54" data-name="Path 54" d="M428.53,436.022c-2.962,1.482-3.825,3.451-1.927,4.4s5.838.518,8.8-.963,3.825-3.451,1.927-4.4S431.492,434.541,428.53,436.022Z" fill="#0d0506" opacity="0.1"/>
            <path id="Path_55" data-name="Path 55" d="M427.506,434.709a6.482,6.482,0,0,0,1.289.133c.2,0,.4-.011.6-.028l-.9,2.391.4,2.035-1.863-.37.4-1.983Z" fill="#e9b965"/>
            <path id="Path_56" data-name="Path 56" d="M427.635,413.569c-.025-.243,1.758.005,1.758.005a25.477,25.477,0,0,1-1.507,3.821c-.419.591,1.017.862,1.924,1.855-.191.7-.451,1.382-.641,2.085a.622.622,0,0,0,.005.374c-.013.038-.026.075-.038.113l-.5-1.932s-2.325-.892-2.356-1.375C426.149,416.425,427.66,413.812,427.635,413.569Z" fill="#e9b965"/>
            <path id="Path_57" data-name="Path 57" d="M432.153,411.9l-.262-1.4s.585.4.77.17a18,18,0,0,0,.258-2.973s-.028-1.37-1.132-.925-2.435.195-2.144,1.749.472,3.168.062,3.331S431.974,413.085,432.153,411.9Z" fill="#fbcd74"/>
            <g id="Group_12" data-name="Group 12">
              <path id="Path_58" data-name="Path 58" d="M428.845,438.5s-.071.291-.272.212-.415-.727-.817-.6-.831.885-.831.885l-.158.965s.344-.542.674-.383a8.894,8.894,0,0,1,.946.608s1.594.179,1.522-.257,0-.71-.373-.95S428.845,438.5,428.845,438.5Z" fill="#221132"/>
              <path id="Path_59" data-name="Path 59" d="M429.65,440.127a2.749,2.749,0,0,1-1.441.1c-.874-.145-1.442-.261-1.442-.261a.479.479,0,0,1,.521-.411C427.771,439.558,429.491,440.146,429.65,440.127Z" fill="#423432"/>
            </g>
            <path id="Path_60" data-name="Path 60" d="M435.122,426.575v4.439l0,1.515L434.9,435.2s.589.514.549.749a1.581,1.581,0,0,1-.706.791c-.29.051-.989-.167-1.089-.437s-.423-4.009-.423-4.009V430.82l-1.462-4.661Z" fill="#fbcd74"/>
            <path id="Path_61" data-name="Path 61" d="M429.347,420.662l-.5.953c-.209.393-.134.207-.149.505l-.355,7.463s-.479,1.632-.617,2.172c-.4,1.57-.955,6.325-.955,6.325.212.443,1.116.921,2.531.276l1.81-7.861.592-5.569.978-4.264Z" fill="#301e62"/>
            <path id="Path_62" data-name="Path 62" d="M435.06,435.347s.134.537.285.578-.495.9-1.032.666-.707-.257-.7-.374-.123.27,0,.333-.294.634-.054.894a1.551,1.551,0,0,0,1.4.188c.247-.2.093-.3.493-.437s1.527-.677,1.592-1.249,0-1.134-.742-.905A9.628,9.628,0,0,1,435.06,435.347Z" fill="#221132"/>
            <path id="Path_63" data-name="Path 63" d="M434.592,421.4l1.056,14.159c-.37,1.153-1.765,1.878-2.589,1.184l-2.648-14.631-.142-2.889Z" fill="#3b1f78"/>
            <path id="Path_64" data-name="Path 64" d="M428.873,415.507a8.87,8.87,0,0,1-1.743-.683c-.27-.245,1.012-3.837,1.766-3.689C429.605,411.274,430.857,411.148,428.873,415.507Z" fill="#744c9b"/>
            <path id="Path_65" data-name="Path 65" d="M434.025,411.748s1,3.326.509,4.445a6.914,6.914,0,0,0,.262,4.9c.246.543-.788,1.382-1.837,1.564a15.1,15.1,0,0,1-4.321-.306c-.159.006.4-1.317.479-2.678.094-1.544-1.063-7.5-.442-8.379S433.191,411.126,434.025,411.748Z" fill="#9574b2"/>
            <path id="Path_66" data-name="Path 66" d="M434.5,413.707a9.136,9.136,0,0,1,.7,2.91c-.089.967.5,1.413.492,3.842s.646,3.342.427,4.307c-.2.88-1.078,2.094-1.178,1.287a9.633,9.633,0,0,1,.133-2.15l-1.081-4.516,0-1.734s-1.045-3.686-1.074-3.9S434.5,413.707,434.5,413.707Z" fill="#fbcd74"/>
            <path id="Path_67" data-name="Path 67" d="M435.586,415.757a13.332,13.332,0,0,1-2.391.47c-.413-.068-.953-3.676-.248-4.245C433.279,411.715,434.781,410.319,435.586,415.757Z" fill="#b69dc9"/>
            <path id="Path_68" data-name="Path 68" d="M432.384,405.792l.8,1.014s-.29-.054-.25.087.395.889.395.889-.292-.223-.3-.108c-.043,1.021-.573.9-.573.9s0-1.187-.412-.633a1.24,1.24,0,0,0-.069,1.226l-.612,1.326-1.106.025a13.639,13.639,0,0,1-1.089-1.494c-.045-.065-.107.4-.107.4l.019-.813-.242.182a10.4,10.4,0,0,1-.369-1.84C428.706,406.267,429.8,404.2,432.384,405.792Z" fill="#573123"/>
          </g>
          <path id="Path_69" data-name="Path 69" d="M429.966,405.525s-1.212.817-1.27,1.373a4.4,4.4,0,0,0,.189,1.366l.167-.241a5.416,5.416,0,0,0,.368.968C428.88,408.04,429.681,405.762,429.966,405.525Z" fill="#814e36"/>
          <path id="Path_70" data-name="Path 70" d="M428.7,413.893a43.767,43.767,0,0,1,.715,5.4c-.132.719-.169,1.479-.264,1.8a5.976,5.976,0,0,0,1.9-2.382C431.33,417.754,428.7,413.893,428.7,413.893Z" fill="#8e6bac"/>
          <path id="Path_71" data-name="Path 71" d="M431.98,409.165a3.392,3.392,0,0,1-.84.894c-.379.2-1.967-1.037-1.967-1.037a7.593,7.593,0,0,0,1.089,1.494l1.106-.025Z" fill="#45251c"/>
        </g>
        <g id="Group_27" data-name="Group 27">
          <path id="Path_72" data-name="Path 72" d="M411.318,413.514l.063.758.149.447.329.6c.1.166.265.134.261-.021l.161.283c.145.223.354.035.242-.2l-.241-.591.4.738c.159.217.368.079.277-.213l-.323-.822.356.644c.108.147.352.055.284-.215l-.362-1.068a.684.684,0,0,1,.037-.406c.071-.141.618.153.618.153l.5.287c.183.027.262-.019.237-.14l-.378-.395-.425-.372-.186-.163a2.39,2.39,0,0,0-.826-.385l-.023-.078-.046-.155-.412.063-.613.094.03.468-.036.219Z" fill="#ffbaa8"/>
          <path id="Path_73" data-name="Path 73" d="M413.012,413.38l-.832-.192-.446.752.386,1.355c-.014-.361-.03-.793.208-.878l.414-.059-.339-.229.051-.336.721-.114Z" fill="#ffbaa8"/>
          <path id="Path_74" data-name="Path 74" d="M413.171,403.368l-.247,2.965-.2,2.464a14.156,14.156,0,0,0-.257,3.327.525.525,0,0,1-.015.208.83.83,0,0,1-.449.453,2.667,2.667,0,0,1-.627.235,12.729,12.729,0,0,1-.513-4.026l.238-2.911C411.165,404.418,411.561,403.157,413.171,403.368Z" fill="#69b2e6"/>
          <path id="Path_75" data-name="Path 75" d="M413.505,412.981l-1.484-.172a.834.834,0,0,0,.45-.452l.024.078a2.393,2.393,0,0,1,.826.383Z" fill="#ffbaa8"/>
          <path id="Path_76" data-name="Path 76" d="M412.722,408.8a14.156,14.156,0,0,0-.257,3.327.525.525,0,0,1-.015.208.83.83,0,0,1-.449.453c0-.184,0-.365-.009-.546-.094-2.76-.926-5.073.021-6.346l.911.44Z" fill="#69b2e6" style="mix-blend-mode: multiply;isolation: isolate"/>
          <g id="Group_26" data-name="Group 26">
            <g id="Group_25" data-name="Group 25">
              <path id="Path_77" data-name="Path 77" d="M420.3,430.936c0-.545-.42-.754-1.043-.821a12.956,12.956,0,0,0-2.238.465l-1.1.6a2.448,2.448,0,0,0-.08,1.524,1.2,1.2,0,0,0,1.06.334l1.232-.521.089-.178C419.2,432.231,420.3,431.785,420.3,430.936Z" fill="#1d1d1b"/>
              <path id="Path_78" data-name="Path 78" d="M416.3,428.753c0-.444-.4-.521-.993-.567-1.073,0-1.119.537-2.107.514l-.97.59a2.9,2.9,0,0,0-.042,1.633,1.391,1.391,0,0,0,1.08.262l1-.586.085-.181C415.285,430.278,416.3,429.583,416.3,428.753Z" fill="#1d1d1b"/>
              <path id="Path_79" data-name="Path 79" d="M412.781,413.583l3.577,1.495a12.392,12.392,0,0,1-.071,1.674c-.226,1.648-.891,4.139-.891,4.139a43.9,43.9,0,0,0-.783,7.516,1.47,1.47,0,0,1-2.453.928c-.273-3.38-.272-6.665.524-8.84-.381-1.717-.022-3.633.085-5.612C412.676,414.844,412.882,413.625,412.781,413.583Z" fill="#1d1d1b"/>
              <path id="Path_80" data-name="Path 80" d="M415.457,417.135a19.127,19.127,0,0,0,.456,5.287c-.675,2.172-.492,5.406-.03,8.782a1.451,1.451,0,0,0,1.934.265,1.169,1.169,0,0,0,.466-1.146l.365-7.506s.526-2.487.66-4.133a34.709,34.709,0,0,0-.447-5.409,6.739,6.739,0,0,1-.959.189c-2.129.268-4.086-.491-4.694-1.708-.031.089-.06.179-.089.269a8.674,8.674,0,0,0-.4,2.284C412.653,416.046,414.356,416.686,415.457,417.135Z" fill="#3c3c3b"/>
              <path id="Path_81" data-name="Path 81" d="M419.327,406.984a21.405,21.405,0,0,0-.192,3.168c-.006.382-.009.755-.021,1.122a9.9,9.9,0,0,1-.253,2,8.31,8.31,0,0,1-.907.343,3.914,3.914,0,0,1-4.836-1.6,24.747,24.747,0,0,1-1.428-6.194c.006-1.261.416-2.162,1.489-2.461a14.58,14.58,0,0,1,5.839,3.347C419.123,406.8,419.225,406.895,419.327,406.984Z" fill="#69b2e6"/>
              <path id="Path_82" data-name="Path 82" d="M417.28,403.506l-.181,1.722c-1.114-.008-2.857-.78-2.638-1.373l.586-1.124Z" fill="#ffbaa8"/>
              <path id="Path_83" data-name="Path 83" d="M417.812,403.723c-.442.5-1.109.436-1.788.256a2.322,2.322,0,0,1-1.609-2.429c-.079-.937.346-1.92,1.945-1.869,1.017.033,1.884.4,1.945,1.489C418.3,401.17,418.358,403.222,417.812,403.723Z" fill="#ffbaa8"/>
              <path id="Path_84" data-name="Path 84" d="M417.161,404.639l.406.921c-1.906-.215-3.614-.93-3.188-1.811l.348-.4C414.461,403.979,416.338,404.736,417.161,404.639Z" fill="#6bd8eb"/>
              <path id="Path_85" data-name="Path 85" d="M418.3,400.9a1.529,1.529,0,0,1-.648.907,5.3,5.3,0,0,1,.031.859c-.045.015-.486.395-.486.395l-.228.638a1.753,1.753,0,0,1-2.233-.364,4.61,4.61,0,0,1-.365-2.279,1.933,1.933,0,0,1,1.99-1.687C417.62,399.318,418.4,400.051,418.3,400.9Z"/>
              <path id="Path_86" data-name="Path 86" d="M417.544,402.792c.122-.137-.066-.453-.2-.5-.191-.062-.3.214-.315.365a.692.692,0,0,0,.112.526c.13.192.333,0,.4-.151C417.582,402.924,417.466,402.878,417.544,402.792Z" fill="#ffbaa8"/>
              <path id="Path_87" data-name="Path 87" d="M419.308,418.683a41.556,41.556,0,0,1-.66,4.133l-.364,7.508a1.175,1.175,0,0,1-.472,1.147,29.49,29.49,0,0,0,0-8.411c.706-2.6,1.027-5.324.216-7.332a7.948,7.948,0,0,0-.074-2.109,8.31,8.31,0,0,0,.907-.343A34.814,34.814,0,0,1,419.308,418.683Z" opacity="0.25" style="mix-blend-mode: multiply;isolation: isolate"/>
              <g id="Group_24" data-name="Group 24">
                <g id="Group_16" data-name="Group 16">
                  <path id="Path_88" data-name="Path 88" d="M416.235,421.916a.906.906,0,0,1,.372-.731l6.021-3.911c.219-.142.407-.045.421.216l.084,1.6.165,3.151a.9.9,0,0,1-.371.729l-6.021,3.911c-.219.142-.408.047-.422-.214l-.165-3.151Z" fill="#575756"/>
                  <path id="Path_89" data-name="Path 89" d="M422.936,417.244l.454.359-6.339,9.652-.457-.346Z" fill="#575756"/>
                  <path id="Path_90" data-name="Path 90" d="M416.728,422.3l.25,4.749c.013.261.2.356.422.214l6.02-3.911a.905.905,0,0,0,.372-.729l-.25-4.749c-.014-.261-.2-.358-.421-.216l-6.02,3.911A.907.907,0,0,0,416.728,422.3Z" fill="#1d1d1b"/>
                  <path id="Path_91" data-name="Path 91" d="M416.728,422.3l.084,1.6c.027.51.4.7.825.42l5.262-3.418a1.77,1.77,0,0,0,.727-1.428l-.084-1.6c-.014-.261-.2-.358-.421-.216l-6.02,3.911A.907.907,0,0,0,416.728,422.3Z" fill="#444443"/>
                  <g id="Group_15" data-name="Group 15">
                    <path id="Path_92" data-name="Path 92" d="M420.168,423.516l.285-.185a.414.414,0,0,0,.17-.333l-.069-1.314-.647.42.069,1.314C419.982,423.537,420.068,423.581,420.168,423.516Z" fill="#fff"/>
                    <path id="Path_93" data-name="Path 93" d="M419.792,422.761l.936-.609a.285.285,0,0,0,.118-.231l-.014-.263c0-.083-.064-.113-.133-.068l-.937.608a.286.286,0,0,0-.117.231l.013.264C419.663,422.775,419.722,422.806,419.792,422.761Z" fill="#fff"/>
                  </g>
                </g>
                <g id="Group_17" data-name="Group 17">
                  <path id="Path_94" data-name="Path 94" d="M420.675,417.94l.041.772.393-.021-.027-.513a.448.448,0,0,0-.11-.254Z" fill="#1d1d1b"/>
                  <path id="Path_95" data-name="Path 95" d="M420.768,418.622a.086.086,0,0,0,.008.162.308.308,0,0,0,.279-.015.085.085,0,0,0-.008-.161A.308.308,0,0,0,420.768,418.622Z" fill="#382c2d"/>
                </g>
                <g id="Group_18" data-name="Group 18">
                  <path id="Path_96" data-name="Path 96" d="M420.391,418.744l.629-.424-.305-.505-.641.43Z" fill="#382c2d"/>
                  <path id="Path_97" data-name="Path 97" d="M420.016,418.386a.46.46,0,0,0,.228.35c.119.061.21,0,.2-.131a.462.462,0,0,0-.228-.351C420.1,418.193,420.009,418.252,420.016,418.386Z" fill="#3d5a55"/>
                  <path id="Path_98" data-name="Path 98" d="M420.652,417.958a.392.392,0,0,0,.031.127.458.458,0,0,0,.2.224.156.156,0,0,0,.137.013.141.141,0,0,0,.065-.144.448.448,0,0,0-.11-.254.385.385,0,0,0-.118-.1.15.15,0,0,0-.139-.012l-.021.014A.159.159,0,0,0,420.652,417.958Z" fill="#1d1d1b"/>
                </g>
                <g id="Group_19" data-name="Group 19">
                  <path id="Path_99" data-name="Path 99" d="M420.6,417.374l.518,1.083a.752.752,0,0,1-.157.829,3.042,3.042,0,0,1-1.064.639l-.657-.432.069-.625c-.309-.2-.3-.654-.125-1.242A1.364,1.364,0,0,1,420.6,417.374Z" fill="#ffbaa8"/>
                  <path id="Path_100" data-name="Path 100" d="M419.23,418.541l.536.452-.156.431-.207-.149c-.1.158-.19.2-.3.149l-.021-.171Z" fill="#1d1d1b" opacity="0.1"/>
                </g>
                <g id="Group_22" data-name="Group 22">
                  <g id="Group_20" data-name="Group 20">
                    <path id="Path_101" data-name="Path 101" d="M418.936,419.7l.629-.424-.305-.505-.641.43Z" fill="#4d4d4d"/>
                    <path id="Path_102" data-name="Path 102" d="M418.561,419.339a.464.464,0,0,0,.228.351c.119.061.21,0,.2-.132a.46.46,0,0,0-.228-.35C418.645,419.147,418.554,419.206,418.561,419.339Z" fill="#4d4d4d"/>
                    <path id="Path_103" data-name="Path 103" d="M419.2,418.912a.464.464,0,0,0,.228.351c.119.061.209,0,.2-.132a.462.462,0,0,0-.227-.35C419.281,418.72,419.19,418.779,419.2,418.912Z" fill="#1d1d1b"/>
                  </g>
                  <g id="Group_21" data-name="Group 21">
                    <path id="Path_104" data-name="Path 104" d="M418.936,419.7l.629-.424-.305-.505-.641.43Z" fill="#1d1d1b"/>
                    <path id="Path_105" data-name="Path 105" d="M418.561,419.339a.464.464,0,0,0,.228.351c.119.061.21,0,.2-.132a.46.46,0,0,0-.228-.35C418.645,419.147,418.554,419.206,418.561,419.339Z" fill="#1d1d1b"/>
                  </g>
                </g>
                <g id="Group_23" data-name="Group 23">
                  <rect id="Rectangle_5" data-name="Rectangle 5" width="0.394" height="0.773" transform="matrix(0.999, -0.052, 0.052, 0.999, 418.561, 419.339)" fill="#1d1d1b"/>
                  <path id="Path_106" data-name="Path 106" d="M418.653,420.022a.085.085,0,0,0,.009.161.309.309,0,0,0,.279-.014.086.086,0,0,0-.009-.162A.309.309,0,0,0,418.653,420.022Z" fill="#1d1d1b"/>
                </g>
              </g>
              <path id="Path_107" data-name="Path 107" d="M417.017,408.561l-.423,5.32,1.911,2.744.271-4.538Z" fill="#69b2e6" style="mix-blend-mode: multiply;isolation: isolate"/>
              <path id="Path_108" data-name="Path 108" d="M418.561,406.332c.84.52,1.214.818,1.252,2.449l-.207,4.419.994,4.174c-.081.456-1.087.71-1.465.429a23.639,23.639,0,0,1-1.74-3.893l-.4-4.845C416.892,407.285,416.871,406.1,418.561,406.332Z" fill="#69b2e6"/>
            </g>
          </g>
        </g>
      </g>
      <g id="Group_29" data-name="Group 29">
        <path id="Path_109" data-name="Path 109" d="M392.953,379.234a4.318,4.318,0,0,1,.434-.753c.169-.182.942-.607,1.217-.351s-.4.919-.4.919-.28.765-.417.788S392.953,379.234,392.953,379.234Z" fill="#f0c6b4"/>
        <path id="Path_110" data-name="Path 110" d="M394.447,378.989c.037.07-.269.389-.475.49s-.233-.047-.271-.121.1-.218.308-.318S394.411,378.914,394.447,378.989Z" fill="#f0c6b4"/>
        <path id="Path_111" data-name="Path 111" d="M390.446,398.074a1.347,1.347,0,0,1,.855-.157.305.305,0,0,1,.2.456s-.615.823-.8,1.023-.313.652-.547.953c-.205.263-.663.1-.769-.1s.065-.806,0-1.644A6.243,6.243,0,0,1,390.446,398.074Z" fill="#fff"/>
        <path id="Path_112" data-name="Path 112" d="M388.938,385.738c-.238,2.851.364,5.364-.1,7.24-.626,2.528.353,4.077.551,5.625.086.665,1.287.513,1.177-.106-.316-1.791-.037-2.6-.015-5.061-.18-.385,1.17-3.1,1.849-5.813C392.381,387.13,389.128,385.571,388.938,385.738Z" fill="#bcbec0"/>
        <path id="Path_113" data-name="Path 113" d="M393.958,398.6c.949.222,1.622.1,1.839.278s.257.733-.353.913a12.576,12.576,0,0,1-3.257.3c-.242-.137-.161-1.044-.161-1.044A6.9,6.9,0,0,1,393.958,398.6Z" fill="#fff"/>
        <path id="Path_114" data-name="Path 114" d="M394.232,384.887a44.977,44.977,0,0,1-.275,8.312c-.906,3.552,0,5.4,0,5.4a1.552,1.552,0,0,1-1.932.443c-.006-2.085-.85-3.288,0-5.686.05-.341-.742-5.356-.742-5.356s-2.362-.7-2.362-2.051a6.227,6.227,0,0,1,.9-2.349l1.755.8A9.268,9.268,0,0,0,394.232,384.887Z" fill="#fff"/>
        <path id="Path_115" data-name="Path 115" d="M394.153,383.971l.079.916s-1.534,1.279-4.409-1.283c.075-.175.221-.527.221-.527Z" fill="#303033"/>
        <path id="Path_116" data-name="Path 116" d="M388.448,377.178c.71-.354,1.169.469,1.375,1.212a9.435,9.435,0,0,0,.659,1.665c.178.376-.927,1.193-1.161.8s-.7-1.183-1.1-1.832S387.919,377.442,388.448,377.178Z" fill="#0f1734"/>
        <path id="Path_117" data-name="Path 117" d="M393.86,381.288a.91.91,0,0,0,.506-1c-.165-.834-2.031-1.532-2.031-1.532l-.443-1.076-3.138-.406-.155.1s-.441.353-.415,1.572,1.86,4.132,1.86,4.132,3,2.5,4.109.894A25.2,25.2,0,0,1,393.86,381.288Z" fill="#202b57"/>
        <path id="Path_118" data-name="Path 118" d="M391.451,372.9a1.412,1.412,0,0,1,1.654,1.009c.178.486-.4,3.349-.306,4.953-.389.084-1.074-.528-1.074-.528a.479.479,0,0,0-.274.612,2.47,2.47,0,0,1-1.94-.891s-.136.131,0,.489c-1.389-.389-1.158-1.444-1.158-1.444S388.859,372.348,391.451,372.9Z" fill="#6e4826"/>
        <path id="Path_119" data-name="Path 119" d="M390.292,373.422a9.054,9.054,0,0,1,1.159-.523S390.523,373.012,390.292,373.422Z" fill="#3c2415"/>
        <path id="Path_120" data-name="Path 120" d="M394.368,382.384l.132.163a6.909,6.909,0,0,0,.829-1.233,2.918,2.918,0,0,1-.2-.537c-.055-.222-.042-.627.079-.676s.193.376.341.369.321-.452.321-.452-.163-.495,0-.519.6.583.7.963-.557,1.178-.557,1.178a11.529,11.529,0,0,1-.87,2.42,1.037,1.037,0,0,1-1.007.326c-.267-.075-.831-1.312-.831-1.312l.184-.653.6-.191Z" fill="#f0c6b4"/>
        <path id="Path_121" data-name="Path 121" d="M392.366,379.438c.713-.355,1.171.471,1.376,1.212a9.384,9.384,0,0,0,.658,1.666c.18.374-.926,1.193-1.158.8s-.7-1.184-1.1-1.834S391.839,379.7,392.366,379.438Z" fill="#0f1734"/>
      </g>
      <g id="Group_39" data-name="Group 39">
        <path id="Path_122" data-name="Path 122" d="M529.267,400.2s-.422.01-.673.027c-.445.421-4.054.813-4.054.813s-.256.677-.529.785a1.441,1.441,0,0,1-.752.1c-.189-.036-.3-.3-.3-.3s-1.167.368-1.175.2.809-.518.809-.518-.1-.46.077-.622c.329-.3,1.145-.282,1.343-.3,1.365-.573,2.505-1.515,4.279-1.467a1.346,1.346,0,0,0,.58-.169Z" fill="#f0c6b4"/>
        <path id="Path_123" data-name="Path 123" d="M532.262,397.752c-.831-.252-2.58.689-3.668.953a5.539,5.539,0,0,1,.536,1.775,5.829,5.829,0,0,1,2.755-.147C532.091,400.533,532.411,398.008,532.262,397.752Z" fill="#ba6000"/>
        <path id="Path_124" data-name="Path 124" d="M532.328,397.208a2.6,2.6,0,0,0,.092.623l-.253.54.4,1.229.9.3.995-.2.424-.82-.3-.6-.39-.729S532.275,396.836,532.328,397.208Z" fill="#c7a496"/>
        <path id="Path_125" data-name="Path 125" d="M538.421,403.245s.44.717.528.929a1.613,1.613,0,0,1,0,.89l-1.281.53-.321-.982s-.152-.368-.326-.785S538.421,403.245,538.421,403.245Z" fill="#f0c6b4"/>
        <path id="Path_126" data-name="Path 126" d="M537.416,404.3a3.375,3.375,0,0,1,1.222-.191S537.545,403.688,537.416,404.3Z" opacity="0.2"/>
        <path id="Path_127" data-name="Path 127" d="M534.88,415.713a9.647,9.647,0,0,1,.856,4.393c.066.315.208.3.208.3h.458l.7-.3s.2.125.035-.427c-.25-1.351.264-3.241-.2-4.178-.5-.532-.373-.237-.414-.241s-1.342.077-1.342.077A1.2,1.2,0,0,0,534.88,415.713Z" fill="#f0c6b4"/>
        <path id="Path_128" data-name="Path 128" d="M532.411,415.053c.786,1.552-.044,3.649.409,5.053l-.2.485-.883.151s-.433-.1-.557-.364c.249-1.088-.967-5.378-.818-5.7C530.424,414.38,532.256,414.784,532.411,415.053Z" fill="#f0c6b4"/>
        <path id="Path_129" data-name="Path 129" d="M530.727,406.687s-.867,6.273-.847,7.839a2.969,2.969,0,0,0,2.988.545,24.9,24.9,0,0,1,1.209-5.473C534.368,409.218,530.727,406.687,530.727,406.687Z" fill="#0f2034"/>
        <path id="Path_130" data-name="Path 130" d="M535.784,407.359c.959.971,1.15,6.131,1.411,7.826-.394.848-2.559.98-2.994.17a39.17,39.17,0,0,0-1.187-5.065,4.018,4.018,0,0,1-2.3-3.54c-.038-.323,1.167-.532,1.167-.532h1.832A14.607,14.607,0,0,1,535.784,407.359Z" fill="#1d374e"/>
        <path id="Path_131" data-name="Path 131" d="M536.564,402.341a9.769,9.769,0,0,0,.013,5.995c-2.45,2.189-6.13-1-6.13-1s.288-5.11.4-7a3.108,3.108,0,0,1,1.415-2.581.377.377,0,0,0,.158.079s-.108,1.15.5,1.521a1.7,1.7,0,0,0,1.609-.235.829.829,0,0,0,.06-.834c.561.707.95.768,1.881,1.469A14.994,14.994,0,0,1,536.564,402.341Z" fill="#ff8400"/>
        <path id="Path_132" data-name="Path 132" d="M535.426,395.023a4.177,4.177,0,0,1,0,1.176,2.644,2.644,0,0,1-1.182,2.329,1.194,1.194,0,0,1-.915-.022,2.452,2.452,0,0,1-1.073-1.592s-.66-.3-.332-1.318c.14-.253.494-.9.494-.9l1.644-.438.793.2A3.667,3.667,0,0,1,535.426,395.023Z" fill="#f0c6b4"/>
        <path id="Path_133" data-name="Path 133" d="M536.085,406.683c1.568-.867,3.164-2.359,3.992-2.509.171-.01.584.613.584.613s.284,1.114-.2,1.489a14.876,14.876,0,0,1-3.791,1.45,1.725,1.725,0,0,1-.713.533,5.144,5.144,0,0,1-.349-1.427A1.917,1.917,0,0,1,536.085,406.683Z" fill="#f0c6b4"/>
        <path id="Path_134" data-name="Path 134" d="M538.7,404.914l-.48,2.328s.8-.222.917-.718A2.362,2.362,0,0,0,538.7,404.914Z" opacity="0.2"/>
        <path id="Path_135" data-name="Path 135" d="M542.062,398.2c-1.7,0-1.74,1.979-1.74,1.979s-.43,3.221-.528,3.915a3.173,3.173,0,0,0,2.094.51S542.3,398.186,542.062,398.2Z" fill="#9c251f"/>
        <path id="Path_136" data-name="Path 136" d="M545.578,397.658a3.729,3.729,0,0,0,.391,1.441l.082.961-1.32.867-1.416.264-1.109-.225s-.559-1.076-.449-1.15,1.278-1.845,1.278-1.845l2.052-.4S545.6,397.021,545.578,397.658Z" fill="#c7a496"/>
        <path id="Path_137" data-name="Path 137" d="M541.556,423.841c-.322.489-1.966.884-2.175,1.234-.1.174-.1.762.01.8,1.074.4,3.122-.46,3.122-.46.331.064,1.5.074,1.8-.265.242-.277,0-1.507,0-1.507S541.8,423.886,541.556,423.841Z" fill="#121214"/>
        <path id="Path_138" data-name="Path 138" d="M540.5,410.7c-.275,2.513.943,6.63.943,6.63a34.91,34.91,0,0,1,0,6.6c.237.4,2.323.932,3-.233a20.163,20.163,0,0,0-.341-6.333c-.14-.592,0-5.8,0-5.8S540.746,410.091,540.5,410.7Z" fill="#bdaf83"/>
        <path id="Path_139" data-name="Path 139" d="M547.336,426.848a10.389,10.389,0,0,1-1.212,1.811c-.244.3-.367.757-.193.942a1.6,1.6,0,0,0,2.323-.088,7.873,7.873,0,0,0,1.14-1.961,5.927,5.927,0,0,0-.049-.9S547.576,426.762,547.336,426.848Z" fill="#121214"/>
        <path id="Path_140" data-name="Path 140" d="M547.01,410.9a33.439,33.439,0,0,1,1.507,7.18c.66,1.6,1.334,3.768,1.317,8.628a1.724,1.724,0,0,1-2.824.214,25.325,25.325,0,0,0-1.407-8.01c-.665-2.149-2.993-6.156-3.173-6.786s.885-2.184.885-2.184h2.945Z" fill="#e6dab0"/>
        <path id="Path_141" data-name="Path 141" d="M542.816,400.907s-.788,10.5-1.059,10.663a12.177,12.177,0,0,0-.564,1.782,8.009,8.009,0,0,1-1.077-3.1c.388-3.663-.145-6.321-.019-8.01.157-2.107,2.4-3.956,2.342-3.564A4.285,4.285,0,0,0,542.816,400.907Z" fill="#e31b25"/>
        <path id="Path_142" data-name="Path 142" d="M542.816,400.907a5.883,5.883,0,0,0,3.153-1.933l2.3,2.156-.382,3.164-1.175,3.7a19.253,19.253,0,0,1,.877,4.344c-.5-.827-.755-1.23-1.617-1.206s-1.773,1.934-4.185,2.435C541.837,409.5,541.384,403.833,542.816,400.907Z" fill="#e31b25"/>
        <path id="Path_143" data-name="Path 143" d="M542.816,400.907c-1.7,2.91-1.035,10.619-1.035,10.619A41.445,41.445,0,0,1,542.816,400.907Z" fill="#121214" opacity="0.3"/>
        <path id="Path_144" data-name="Path 144" d="M542.532,394.652a2.814,2.814,0,0,0-.884,1.685.5.5,0,0,0,.224.351.632.632,0,0,0-.11.214,10.833,10.833,0,0,0,.21,2.286s.388.4.631.429c1.506.125,2.459-1.6,2.459-1.6a1.3,1.3,0,0,0,.723-.727c.081-.3.184-.841.184-.841l-.29-.99-.766-1.12h-1.357S542.651,394.6,542.532,394.652Z" fill="#f0c6b4"/>
        <path id="Path_145" data-name="Path 145" d="M545.785,397.292s.107-.64-.207-.622-.829.753-.829.753a2.34,2.34,0,0,1-.261-1.185c.032-.313.62-.894.35-1.2-.5-.515-1.6.717-2.34.062-.386-.34,1.234-2.41,2.9-1A2.342,2.342,0,0,1,545.785,397.292Z" fill="#603913"/>
        <g id="Group_33" data-name="Group 33">
          <g id="Group_30" data-name="Group 30">
            <path id="Path_146" data-name="Path 146" d="M540.465,400.458l-1.114-1.633.156-.091a.16.16,0,0,1,.175.013l.78.449a.533.533,0,0,1,.238.411v.605a.166.166,0,0,1-.069.15h0l0,0Z" fill="#303033"/>
            <path id="Path_147" data-name="Path 147" d="M539.284,399.583a.525.525,0,0,0,.234.408l.779.451c.133.077.237.014.237-.138v-.6a.515.515,0,0,0-.237-.408l-.779-.452c-.128-.074-.234-.013-.234.137Z" fill="#121214"/>
          </g>
          <g id="Group_31" data-name="Group 31">
            <path id="Path_148" data-name="Path 148" d="M540.572,401.8l-.784-1.957,2.349-1.355a.231.231,0,0,1,.262.016l.279.159a.792.792,0,0,1,.357.622v.923a.251.251,0,0,1-.1.229v0h-.005Z" fill="#535359"/>
            <path id="Path_149" data-name="Path 149" d="M539.686,401a.8.8,0,0,0,.358.623l.275.158c.2.114.358.02.358-.207v-.924a.792.792,0,0,0-.358-.622l-.275-.157c-.2-.116-.358-.022-.358.2Z" fill="#303033"/>
          </g>
          <g id="Group_32" data-name="Group 32">
            <path id="Path_150" data-name="Path 150" d="M539.821,400.484l-.112-.18.213-.126a.269.269,0,0,1,.26.027.8.8,0,0,1,.362.627.264.264,0,0,1-.089.226h0c-.009.008-.193.114-.193.114l-.082-.127A.819.819,0,0,1,539.821,400.484Z" fill="#535359"/>
            <path id="Path_151" data-name="Path 151" d="M539.628,400.523a.811.811,0,0,0,.361.631c.2.117.364.022.364-.207a.809.809,0,0,0-.364-.634C539.791,400.2,539.628,400.292,539.628,400.523Z" fill="#121214"/>
            <path id="Path_152" data-name="Path 152" d="M539.717,400.576a.611.611,0,0,0,.275.473c.1.055.186.043.23-.023a.215.215,0,0,1-.135-.037.6.6,0,0,1-.273-.466.243.243,0,0,1,.04-.138C539.773,400.394,539.717,400.464,539.717,400.576Z" fill="#303033"/>
            <path id="Path_153" data-name="Path 153" d="M539.814,400.523a.6.6,0,0,0,.273.466.215.215,0,0,0,.135.037.207.207,0,0,0,.04-.135.6.6,0,0,0-.27-.469.283.283,0,0,0-.138-.037A.243.243,0,0,0,539.814,400.523Z" fill="#2b5e85"/>
          </g>
        </g>
        <path id="Path_154" data-name="Path 154" d="M544.109,403.792s-.794.58-.135,1.734c.722,1.266,1.622.75,1.622.75l.618-.965-.543-1.687h-1.1Z" fill="#ff3f4a"/>
        <path id="Path_155" data-name="Path 155" d="M544.45,403.7s-.457.5-.958,1.013a21.571,21.571,0,0,1-1.166-3.041,9.924,9.924,0,0,1,.428-1.592,9.787,9.787,0,0,0-.127-1.082c-.149-.087-.59-.64-1.079-.633s-.829.633-.886.941a5.115,5.115,0,0,0,.358,1.072,2.484,2.484,0,0,0-.152,1.093,1.132,1.132,0,0,0,.263.51c.265,1.237.389,4.237.741,4.728.551.765,1.268,1.106,1.766.9.237-.1,2.331-2.053,2.331-2.053l-.089-1.577Z" fill="#f0c6b4"/>
        <path id="Path_156" data-name="Path 156" d="M543.492,404.714a2.457,2.457,0,0,1,.932,1.5S544.665,404.929,543.492,404.714Z" opacity="0.2"/>
        <path id="Path_157" data-name="Path 157" d="M548.366,401.213c-.979-.625-4.257,2.579-4.257,2.579,1.581.337,1.487,2.484,1.487,2.484s1.472-1.4,2.206-1.922C548.725,403.7,549.522,401.943,548.366,401.213Z" fill="#9c251f"/>
        <path id="Path_158" data-name="Path 158" d="M543.315,400.507a1.416,1.416,0,0,1-.5.4,2.273,2.273,0,0,0,1.143-.271l-.153-.3Z" fill="#9c251f"/>
        <path id="Path_159" data-name="Path 159" d="M546.26,399.09a2.342,2.342,0,0,1-.525-.558,9.72,9.72,0,0,1-2.42,1.975,1.123,1.123,0,0,1,.92.684A8.791,8.791,0,0,0,546.26,399.09Z" fill="#ff3f4a"/>
        <path id="Path_160" data-name="Path 160" d="M537.866,407.359c-1.289.106-.822-1.27-.822-1.27A8.2,8.2,0,0,1,537.866,407.359Z" opacity="0.2"/>
        <path id="Path_161" data-name="Path 161" d="M537.742,404.175a.978.978,0,0,1,.991.853,5.9,5.9,0,0,1,.157,1.543c-.019.353-.735.768-1.024.788-.474,0-.736-.357-.811-1.051a7.243,7.243,0,0,1,.147-1.6S537.263,404.188,537.742,404.175Z" fill="#f0c6b4"/>
        <g id="Group_38" data-name="Group 38">
          <g id="Group_34" data-name="Group 34">
            <path id="Path_162" data-name="Path 162" d="M534.876,408.716a.365.365,0,0,1,.182-.207,1.027,1.027,0,0,1,.926,0,.377.377,0,0,1,.182.207h.01v.058a.333.333,0,0,1-.192.273,1.046,1.046,0,0,1-.926,0,.331.331,0,0,1-.191-.273v-.058Z" fill="#939598"/>
            <path id="Path_163" data-name="Path 163" d="M535.058,408.982a1.027,1.027,0,0,0,.926,0,.28.28,0,0,0,0-.533,1,1,0,0,0-.926,0A.281.281,0,0,0,535.058,408.982Z" fill="#ccc"/>
            <path id="Path_164" data-name="Path 164" d="M535.984,408.982a.326.326,0,0,0,.192-.266.317.317,0,0,0-.192-.267C535.982,408.471,536.4,408.677,535.984,408.982Z" fill="#fff"/>
          </g>
          <g id="Group_35" data-name="Group 35">
            <path id="Path_165" data-name="Path 165" d="M536.3,406.912v1.728a.38.38,0,0,1-.225.318,1.216,1.216,0,0,1-1.105,0,.383.383,0,0,1-.229-.318v-1.762Z" fill="#e31b25"/>
            <path id="Path_166" data-name="Path 166" d="M535.441,407.361c.115.53-.307,1.4-.032,1.724a1.1,1.1,0,0,1-.332-.074c-.187-.418.194-1.078.182-1.674Z" fill="#fff"/>
            <path id="Path_167" data-name="Path 167" d="M536.119,408.245a2.572,2.572,0,0,0,.03.557,3.078,3.078,0,0,0,.027-.557c0-.311-.014-1.046-.027-1.046S536.119,407.934,536.119,408.245Z" fill="#fff" opacity="0.2"/>
            <path id="Path_168" data-name="Path 168" d="M534.741,406.878a.623.623,0,0,1,.277-.372,1.1,1.1,0,0,1,1.007,0,.653.653,0,0,1,.274.362v0h0a.373.373,0,0,1-.224.358,1.235,1.235,0,0,1-1.105,0,.381.381,0,0,1-.227-.334A.07.07,0,0,1,534.741,406.878Z" fill="#ff3f4a"/>
            <path id="Path_169" data-name="Path 169" d="M536.025,406.506a.653.653,0,0,1,.274.362v0h0a.373.373,0,0,1-.224.358C536.514,406.924,536.183,406.654,536.025,406.506Z" fill="#fff"/>
          </g>
          <g id="Group_36" data-name="Group 36">
            <path id="Path_170" data-name="Path 170" d="M534.876,406.687a.355.355,0,0,1,.182-.206,1.015,1.015,0,0,1,.926,0,.366.366,0,0,1,.182.206h.01v.063a.32.32,0,0,1-.192.265,1.015,1.015,0,0,1-.926,0,.318.318,0,0,1-.191-.265v-.063Z" fill="#939598"/>
            <path id="Path_171" data-name="Path 171" d="M535.058,406.954a1.027,1.027,0,0,0,.926,0,.282.282,0,0,0,0-.535,1.009,1.009,0,0,0-.926,0A.283.283,0,0,0,535.058,406.954Z" fill="#bcbec0"/>
            <path id="Path_172" data-name="Path 172" d="M535.984,406.954a.282.282,0,0,0,0-.535C535.982,406.445,536.4,406.651,535.984,406.954Z" fill="#fff"/>
            <path id="Path_173" data-name="Path 173" d="M534.93,406.706a.3.3,0,0,1,.172-.223.909.909,0,0,1,.828,0,.3.3,0,0,1,.172.223.278.278,0,0,0-.172-.261.921.921,0,0,0-.828,0A.278.278,0,0,0,534.93,406.706Z" fill="#535359"/>
            <path id="Path_174" data-name="Path 174" d="M534.93,406.706a.292.292,0,0,0,.172.218.9.9,0,0,0,.828,0,.294.294,0,0,0,.172-.218.3.3,0,0,0-.172-.223.909.909,0,0,0-.828,0A.3.3,0,0,0,534.93,406.706Z" fill="#939598"/>
          </g>
          <g id="Group_37" data-name="Group 37">
            <path id="Path_175" data-name="Path 175" d="M535.15,406.589a.081.081,0,0,1,.019-.018l.116-.065a.146.146,0,0,1,.156.008l.184.151.005.008h.012v.025s0,.021-.03.04l-.033.021a.16.16,0,0,1-.129.007l-.265-.1c-.044-.022-.042-.052-.042-.052v-.02Z" fill="#535359"/>
            <path id="Path_176" data-name="Path 176" d="M535.579,406.729l.033-.017a.043.043,0,0,0,.013-.075l-.184-.154a.16.16,0,0,0-.156,0l-.116.065c-.042.027-.034.065.016.088l.265.106A.143.143,0,0,0,535.579,406.729Z" fill="#bcbec0"/>
            <path id="Path_177" data-name="Path 177" d="M535.485,406.694l.007-.01a.1.1,0,0,1,.064,0,.02.02,0,0,1,.013.01c.008-.011,0-.023-.013-.031a.079.079,0,0,0-.064,0C535.483,406.671,535.476,406.683,535.485,406.694Z" fill="#535359"/>
            <path id="Path_178" data-name="Path 178" d="M535.485,406.694s.006,0,.007.009a.079.079,0,0,0,.064,0l.013-.009a.02.02,0,0,0-.013-.01.1.1,0,0,0-.064,0Z" fill="#9c9c9c"/>
            <path id="Path_179" data-name="Path 179" d="M535.255,406.6a.077.077,0,0,1,.027-.032l.006,0a.146.146,0,0,1,.156.008l.009.008a.1.1,0,0,1,.018.021.037.037,0,0,0-.018-.041l-.009-.01a.152.152,0,0,0-.156-.005h-.006A.051.051,0,0,0,535.255,406.6Z" fill="#535359"/>
            <path id="Path_180" data-name="Path 180" d="M535.255,406.6a.076.076,0,0,0,.041.037l.015.005a.151.151,0,0,0,.13-.006h0a.049.049,0,0,0,.03-.032h0a.1.1,0,0,0-.018-.021l-.009-.008a.146.146,0,0,0-.156-.008l-.006,0A.077.077,0,0,0,535.255,406.6Z" fill="#9c9c9c"/>
          </g>
        </g>
        <path id="Path_181" data-name="Path 181" d="M536.1,407.575c0,.293.1.53.232.53s.229-.237.229-.53-.1-.53-.229-.53S536.1,407.283,536.1,407.575Z" fill="#f0c6b4"/>
        <path id="Path_182" data-name="Path 182" d="M534.741,407.127v.253a1.219,1.219,0,0,1,.344.223.891.891,0,0,1,.159.556c-.033.169-.206.6-.358.643s-.295-.125-.395-.251a2.751,2.751,0,0,1-.085-1.109A.558.558,0,0,1,534.741,407.127Z" fill="#f0c6b4"/>
        <path id="Path_183" data-name="Path 183" d="M535.545,394.655c-.01.862-1.383.7-1.383.7s.369-.383.115-.587a1.853,1.853,0,0,1-1.076.417s.073-.44-.129-.452c-.326.467-.552.5-.622.622s.082.621-.068.9a1.082,1.082,0,0,0-.458-.661s-.285-2.008.753-1.977C534.88,392.683,535.548,394.2,535.545,394.655Z" fill="#603913"/>
        <path id="Path_184" data-name="Path 184" d="M532.677,393.619s.6.16.468.378C532.957,394.135,532.677,393.619,532.677,393.619Z" opacity="0.2"/>
        <path id="Path_185" data-name="Path 185" d="M536.1,399.726c1.112-.323,2.312,3.266,2.452,3.519a2.3,2.3,0,0,1-1.667.7,13.479,13.479,0,0,0-1.055-2.235C535.315,400.934,535.8,399.678,536.1,399.726Z" fill="#ba6000"/>
        <path id="Path_186" data-name="Path 186" d="M532.82,420.106c-.252.544-1.343.386-1.643.272-.8.7-2,1-2.136,1.249s-.121.768,0,.841a1.832,1.832,0,0,0,1.556.025,4.594,4.594,0,0,0,.906-.589s1.292-.087,1.419-.389A2.654,2.654,0,0,0,532.82,420.106Z" fill="#e31b25"/>
        <path id="Path_187" data-name="Path 187" d="M537.139,419.679s-.188.756-1.4.427a4.563,4.563,0,0,1-1.083,1.721c-.179.2-.005.644.159.773,1.523.676,1.939-.42,1.939-.42s.526-1.1.652-1.432A1.552,1.552,0,0,0,537.139,419.679Z" fill="#e31b25"/>
        <path id="Path_188" data-name="Path 188" d="M541.178,400.7a1.276,1.276,0,0,1-.437,0,5.162,5.162,0,0,0,0,.557,2.98,2.98,0,0,0,.371.024Z" fill="#939598"/>
        <path id="Path_189" data-name="Path 189" d="M542.816,400.212c-.154-.154-.6.274-1.64.409-.081-.024-.178.576-.112.725a2.3,2.3,0,0,0,1.518-.32A.617.617,0,0,0,542.816,400.212Z" fill="#121214"/>
      </g>
      <g id="Group_48" data-name="Group 48">
        <g id="Group_47" data-name="Group 47">
          <path id="Path_190" data-name="Path 190" d="M554.739,356.738a5.186,5.186,0,0,1,.128,1.565l2.687-.718-.231-1.438S554.679,356.679,554.739,356.738Z" fill="#c7a496"/>
          <path id="Path_191" data-name="Path 191" d="M556.17,380.721s-.877.08-.86.592c0,.214.489.609.918,1.105.6.7.888,1.414,1.493,1.37.933,0,.378-2,.378-2Z"/>
          <path id="Path_192" data-name="Path 192" d="M557.706,369.353l-3.589,1.109a44.71,44.71,0,0,1,1.608,5.993c.086,1.394.312,4.821.312,5.033,0,1.226,2.408.732,2.408-.021s.464-3.873-.761-6.438C557.686,374.469,557.706,369.353,557.706,369.353Z" fill="#212121"/>
          <path id="Path_193" data-name="Path 193" d="M555.007,373.34a5.337,5.337,0,0,1,.711-1.953,6.794,6.794,0,0,0,1.984-1.641l-2.7,1.109Z"/>
          <path id="Path_194" data-name="Path 194" d="M552.008,384.112s-2.5.528-2.5.9c0,.856.981,1.032,1.336,1.007s2.837-.111,3.465-.243.324-1.425.324-1.425Z"/>
          <path id="Path_195" data-name="Path 195" d="M551.862,370.833s.169,6.286.332,7.356c.137.928.438,5.127-.383,5.937a4.036,4.036,0,0,0,2.975.442s.672-5.348-.116-7.04c.116-1.9.6-7.066.6-7.066Z" fill="#212121"/>
          <path id="Path_196" data-name="Path 196" d="M551.811,371.169a2.434,2.434,0,0,0,3.385.08C555.349,370.97,551.811,371.169,551.811,371.169Z"/>
          <path id="Path_197" data-name="Path 197" d="M557.706,357.585a6.678,6.678,0,0,1-2.967.555s-2.711,1.6-2.928,2.954-.686,9.58-.686,9.58a3.5,3.5,0,0,0,2.661.932,7.641,7.641,0,0,0,4.374-2.383c.241-.593-.837-2.725-.837-4.74,0-1.271,1.841-3.232,1.841-5.231C559.407,358,557.706,357.585,557.706,357.585Z" fill="#212121"/>
          <path id="Path_198" data-name="Path 198" d="M553.849,354.326a10.179,10.179,0,0,0,.011,2.379c.4.4,1.639.018,1.639.018l.19-2.312-1.293-1.2A2.552,2.552,0,0,0,553.849,354.326Z" fill="#f0c6b4"/>
          <g id="Group_46" data-name="Group 46">
            <path id="Path_199" data-name="Path 199" d="M548.829,371.044a1.3,1.3,0,0,0-.551,1.032v3.9l4.957,2.86.882-4.993-4.885-2.8A.334.334,0,0,0,548.829,371.044Z" fill="#915e33"/>
            <path id="Path_200" data-name="Path 200" d="M553.785,373.907a1.3,1.3,0,0,0-.55,1.029v3.9l1.1-.638V374.3C554.334,373.908,554.087,373.728,553.785,373.907Z" fill="#57391e"/>
            <path id="Path_201" data-name="Path 201" d="M548.278,374.012l4.957,2.851V376.7l-4.957-2.853Z" fill="#57391e"/>
            <g id="Group_40" data-name="Group 40">
              <path id="Path_202" data-name="Path 202" d="M549.076,374.255l.389.847.136-.078V374.4l-.393-.223Z" fill="#ff9800"/>
              <path id="Path_203" data-name="Path 203" d="M549.076,374.878l.389.224v-.623l-.389-.224Z" fill="#f5b400"/>
            </g>
            <g id="Group_41" data-name="Group 41">
              <path id="Path_204" data-name="Path 204" d="M551.849,375.859l.386.844.137-.08V376l-.392-.223Z" fill="#ff9800"/>
              <path id="Path_205" data-name="Path 205" d="M551.849,376.477l.386.226v-.622l-.386-.222Z" fill="#f5b400"/>
            </g>
            <g id="Group_45" data-name="Group 45">
              <g id="Group_42" data-name="Group 42">
                <path id="Path_206" data-name="Path 206" d="M550.4,371.293l.158.094.159-.094-.159-.092Z" fill="#c4c4c4"/>
                <path id="Path_207" data-name="Path 207" d="M550.563,372.163l.159-.09v-.78l-.159.094Z" fill="#a6a6a6"/>
                <path id="Path_208" data-name="Path 208" d="M550.4,372.073l.158.09v-.776l-.158-.094Z" fill="#8a8a8a"/>
              </g>
              <g id="Group_43" data-name="Group 43">
                <path id="Path_209" data-name="Path 209" d="M550.635,371.243a.4.4,0,0,0-.186.316.134.134,0,0,0,.055.119l.051.03a.133.133,0,0,1-.053-.12.408.408,0,0,1,.184-.316.123.123,0,0,1,.128-.01l-.053-.03A.12.12,0,0,0,550.635,371.243Z" fill="#57391e"/>
                <path id="Path_210" data-name="Path 210" d="M550.686,371.272a.408.408,0,0,0-.184.316c0,.119.083.166.184.108a.411.411,0,0,0,.182-.316C550.868,371.264,550.784,371.214,550.686,371.272Z" fill="#242424"/>
                <path id="Path_211" data-name="Path 211" d="M552.172,372.046l-1.358-.784a.123.123,0,0,0-.128.01.408.408,0,0,0-.184.316.133.133,0,0,0,.053.12l1.359.784.015-.005a.212.212,0,0,0,.081-.024.411.411,0,0,0,.184-.317.185.185,0,0,0-.02-.084Z" fill="#915e33"/>
                <path id="Path_212" data-name="Path 212" d="M551.993,372.03a.4.4,0,0,0-.182.317.13.13,0,0,0,.052.117l.051.028a.122.122,0,0,1-.052-.118.4.4,0,0,1,.182-.315.124.124,0,0,1,.128-.013l-.05-.033A.144.144,0,0,0,551.993,372.03Z" fill="#57391e"/>
                <path id="Path_213" data-name="Path 213" d="M552.044,372.059a.4.4,0,0,0-.182.315c0,.116.081.162.182.106a.4.4,0,0,0,.181-.317C552.225,372.046,552.145,372,552.044,372.059Z" fill="#57391e"/>
              </g>
              <g id="Group_44" data-name="Group 44">
                <path id="Path_214" data-name="Path 214" d="M551.973,372.2l.161.092.157-.092-.157-.092Z" fill="#c4c4c4"/>
                <path id="Path_215" data-name="Path 215" d="M552.135,373.073l.157-.094V372.2l-.157.092Z" fill="#a6a6a6"/>
                <path id="Path_216" data-name="Path 216" d="M551.973,372.979l.161.094v-.78l-.161-.092Z" fill="#8a8a8a"/>
              </g>
            </g>
          </g>
          <path id="Path_217" data-name="Path 217" d="M551.355,370.462s-1.032.878-1.015,1.269a.78.78,0,0,0,.346.658c.165.147,1,.422,1.228.1-.248-.141-.345-.2-.237-.419.064-.129.134-.108.222-.185a1.447,1.447,0,0,0,.56-1.049C552.459,370.682,551.355,370.462,551.355,370.462Z" fill="#f0c6b4"/>
          <path id="Path_218" data-name="Path 218" d="M551.174,370.5a1.4,1.4,0,0,0,1.354.45l.257-.765-1.4-.473A4.68,4.68,0,0,0,551.174,370.5Z" fill="#fff"/>
          <path id="Path_219" data-name="Path 219" d="M554.561,359.843c-1.887-.5-2.021,1.562-2.021,1.562l-.307,4.481s-1.01,3.321-1.108,3.547c.213,1.178,1.942,1.193,2.069.8s.981-3.066,1.26-3.731.418-4.177.611-4.643S555.573,360.11,554.561,359.843Z" fill="#141414"/>
          <path id="Path_220" data-name="Path 220" d="M554.348,357.862l-.183.647s3.541-.389,3.541-.924c-.02-.295-.02-.295-.09-.367A13,13,0,0,1,554.348,357.862Z" fill="#fff"/>
          <path id="Path_221" data-name="Path 221" d="M554.961,352.443c-.331-.053-.4.157-.608.451-.112.238.128.455,0,.7-.233.442-.064.591-.059.775a2.2,2.2,0,0,0,.1,1.014c.592.052.565.825.565.825v.364c.059,1.3,1.806,1.112,1.806,1.112s1.621-.265,1.373-3.352C558,352.581,555.5,351.347,554.961,352.443Z" fill="#915e33"/>
          <path id="Path_222" data-name="Path 222" d="M555.169,352.479a3.054,3.054,0,0,1,2.154,1.362A2.049,2.049,0,0,0,555.169,352.479Z" fill="#6e4826"/>
        </g>
      </g>
      <path id="Path_223" data-name="Path 223" d="M492.467,321.781l25.116,5.285-25.116,22.9Z" fill="#fff" opacity="0.8"/>
      <path id="Path_224" data-name="Path 224" d="M436.988,316.07l22.779,20.6-22.779,7.586Z" fill="#fff" opacity="0.8"/>
    </g>
  </g>
</svg>
