<svg width="40" height="40" viewBox="0 0 40 40" fill="none" xmlns="http://www.w3.org/2000/svg">
<path d="M35.4715 14.3078H34.511V9.6734C34.511 9.64429 34.5065 9.61541 34.5026 9.58586C34.5011 9.40187 34.4424 9.22109 34.3164 9.0781L26.6044 0.268106C26.602 0.265844 26.5997 0.265042 26.5982 0.26278C26.5522 0.211421 26.4987 0.168524 26.4419 0.131755C26.4251 0.120301 26.4082 0.11089 26.3906 0.101187C26.3416 0.0745589 26.2895 0.0521621 26.2359 0.0360393C26.2213 0.0322457 26.2083 0.0262634 26.1938 0.0223239C26.1355 0.00860857 26.075 0 26.0138 0H7.06003C6.19458 0 5.49145 0.703933 5.49145 1.56866V14.3074H4.53108C3.29298 14.3074 2.28906 15.3109 2.28906 16.5492V28.208C2.28906 29.4458 3.29298 30.4503 4.53108 30.4503H5.49145V38.4314C5.49145 39.2962 6.19458 40 7.06003 40H32.9423C33.8071 40 34.5109 39.2962 34.5109 38.4314V30.4504H35.4714C36.7092 30.4504 37.7132 29.4463 37.7132 28.2085V16.5497C37.7133 15.3114 36.7093 14.3078 35.4715 14.3078ZM7.06003 1.56902H25.2295V9.59439C25.2295 10.0277 25.5809 10.3787 26.0138 10.3787H32.9424V14.3081H7.06003V1.56902ZM26.8152 24.5014C27.3874 24.5014 28.0224 24.3773 28.3959 24.2271L28.6815 25.7082C28.3337 25.8815 27.5501 26.0692 26.5299 26.0692C23.6301 26.0692 22.1378 24.2651 22.1378 21.8764C22.1378 19.0147 24.1782 17.4222 26.7165 17.4222C27.6989 17.4222 28.4459 17.6219 28.7819 17.7957L28.3963 19.3014C28.0106 19.139 27.476 18.9904 26.8036 18.9904C25.2977 18.9904 24.1289 19.8983 24.1289 21.7646C24.1284 23.4428 25.1238 24.5014 26.8152 24.5014ZM21.278 21.6651C21.278 24.4144 19.6107 26.0816 17.1602 26.0816C14.6715 26.0816 13.2159 24.2023 13.2159 21.8141C13.2159 19.3011 14.8205 17.4218 17.2969 17.4218C19.8732 17.4218 21.278 19.3509 21.278 21.6651ZM4.94167 25.9077V17.671C5.63852 17.5592 6.54658 17.4977 7.50454 17.4977C9.09713 17.4977 10.1295 17.7834 10.9374 18.3933C11.8088 19.0399 12.3567 20.0728 12.3567 21.553C12.3567 23.1576 11.7718 24.2655 10.9629 24.9495C10.0794 25.6832 8.73579 26.0322 7.09308 26.0322C6.11105 26.0318 5.41426 25.9693 4.94167 25.9077ZM32.9424 38.0067H7.06003V30.4504H32.9423V38.0067H32.9424ZM34.3804 25.9444L33.621 24.4267C33.31 23.8422 33.1109 23.406 32.8746 22.9212H32.8497C32.6755 23.4068 32.4645 23.8422 32.2033 24.4267L31.5064 25.9444H29.3415L31.7675 21.7015L29.429 17.5588H31.6066L32.3404 19.0896C32.5894 19.5988 32.7754 20.0099 32.9747 20.4825H32.9991C33.1982 19.9476 33.3606 19.5745 33.5713 19.0896L34.2805 17.5588H36.446L34.0818 21.6517L36.5699 25.9444H34.3804Z" fill="#98B1BE"/>
<path d="M10.3398 21.6145C10.3519 19.8732 9.33206 18.9521 7.70256 18.9521C7.27892 18.9521 7.00571 18.9896 6.84375 19.0271V24.5132C7.00614 24.5503 7.26732 24.5503 7.50376 24.5503C9.22065 24.5634 10.3398 23.6183 10.3398 21.6145Z" fill="#98B1BE"/>
<path d="M15.2188 21.7766C15.2188 23.4192 15.9902 24.576 17.2592 24.576C18.5408 24.576 19.274 23.3574 19.274 21.7275C19.274 20.2217 18.5528 18.9277 17.2458 18.9277C15.9646 18.9281 15.2188 20.1475 15.2188 21.7766Z" fill="#98B1BE"/>
</svg>
