<svg width="40" height="40" viewBox="0 0 40 40" fill="none" xmlns="http://www.w3.org/2000/svg">
<path d="M18.3445 18.1943C17.8065 18.1943 17.4413 18.2466 17.25 18.2991V21.7569C17.4764 21.809 17.7544 21.8266 18.1362 21.8266C19.5442 21.8266 20.4133 21.1135 20.4133 19.9152C20.4133 18.8375 19.6655 18.1943 18.3445 18.1943Z" fill="#98B1BE"/>
<path d="M35.4694 14.3078H34.509V9.6734C34.509 9.6445 34.5044 9.61538 34.5005 9.58611C34.499 9.40209 34.4405 9.22133 34.3145 9.07812L26.6023 0.268264C26.6 0.266013 26.5977 0.265214 26.5961 0.262745C26.5501 0.211401 26.4966 0.1687 26.4399 0.131735C26.4231 0.120479 26.4062 0.111038 26.3886 0.101307C26.3395 0.0745097 26.2875 0.0522875 26.2339 0.0362381C26.2194 0.0321713 26.2063 0.0262164 26.1918 0.02244C26.1335 0.00864196 26.073 0 26.0117 0H7.05805C6.19255 0 5.48942 0.70392 5.48942 1.5687V14.3075H4.52915C3.29103 14.3075 2.28711 15.3109 2.28711 16.5495V28.2085C2.28711 29.4462 3.29103 30.4503 4.52915 30.4503H5.4895V38.4313C5.4895 39.296 6.19262 40 7.05812 40H32.9404C33.8051 40 34.509 39.2961 34.509 38.4313V30.4503H35.4695C36.7073 30.4503 37.7114 29.4462 37.7114 28.2085V16.5499C37.7113 15.3114 36.7072 14.3078 35.4694 14.3078ZM7.05805 1.56899H25.2274V9.59461C25.2274 10.0279 25.579 10.3789 26.0117 10.3789H32.9403V14.3083H7.05805V1.56899ZM23.0377 19.8454C23.0377 20.9922 22.6554 21.9653 21.9608 22.6263C21.0566 23.4777 19.7185 23.8594 18.1553 23.8594C17.8075 23.8594 17.4943 23.8427 17.251 23.8077V27.9954H14.6272V16.4401C15.4444 16.3003 16.591 16.1966 18.2071 16.1966C19.8404 16.1966 21.0048 16.509 21.7876 17.135C22.5341 17.7255 23.0377 18.6989 23.0377 19.8454ZM6.31971 27.9086L6.61571 25.7713C6.98085 25.8931 7.4494 25.9803 7.97068 25.9803C9.0836 25.9803 9.77808 25.4756 9.77808 23.6512V16.2831H12.4192V23.6857C12.4192 27.0225 10.8201 28.1863 8.24868 28.1863C7.64098 28.1867 6.84135 28.0832 6.31971 27.9086ZM32.9404 38.0067H7.05805V30.4503H32.9403V38.0067H32.9404ZM34.5082 27.4571C33.6917 27.7351 32.1453 28.1173 30.5973 28.1173C28.4611 28.1173 26.9139 27.5785 25.8371 26.5361C24.7594 25.5285 24.1677 23.9993 24.1857 22.2787C24.2025 18.386 27.035 16.1618 30.8761 16.1618C32.388 16.1618 33.553 16.4567 34.1259 16.735L33.5699 18.8549C32.9265 18.5769 32.1269 18.3509 30.8409 18.3509C28.6342 18.3509 26.9669 19.6025 26.9669 22.1396C26.9669 24.555 28.478 25.98 30.6506 25.98C31.2587 25.98 31.7455 25.9103 31.9538 25.8058V23.3556H30.1461V21.2879H34.5081V27.4571H34.5082Z" fill="#98B1BE"/>
</svg>
