<svg width="40" height="40" viewBox="0 0 40 40" fill="none" xmlns="http://www.w3.org/2000/svg">
<path d="M11.6467 20.4954C11.6467 19.4182 10.8987 18.7754 9.57885 18.7754C9.04044 18.7754 8.67566 18.8273 8.48438 18.8794V22.3381C8.71052 22.3895 8.98851 22.407 9.36978 22.407C10.778 22.407 11.6467 21.6947 11.6467 20.4954Z" fill="#98B1BE"/>
<path d="M19.8168 18.8105C19.2253 18.8105 18.8439 18.8626 18.6172 18.9148V26.578C18.8435 26.6309 19.2085 26.6309 19.5388 26.6309C21.9365 26.6477 23.5006 25.3277 23.5006 22.5297C23.5181 20.0959 22.0928 18.8105 19.8168 18.8105Z" fill="#98B1BE"/>
<path d="M35.4694 14.3078H34.509V9.6734C34.509 9.6445 34.5044 9.61538 34.5005 9.58611C34.499 9.40209 34.4405 9.22133 34.3145 9.07812L26.6023 0.268264C26.6 0.266013 26.5977 0.265214 26.5961 0.262745C26.5501 0.211401 26.4966 0.1687 26.4399 0.131735C26.4231 0.120479 26.4062 0.111038 26.3886 0.101307C26.3395 0.0745097 26.2875 0.0522875 26.2339 0.0362381C26.2194 0.0321713 26.2063 0.0262164 26.1918 0.02244C26.1335 0.00864196 26.073 0 26.0117 0H7.05805C6.19255 0 5.48942 0.70392 5.48942 1.5687V14.3075H4.52915C3.29103 14.3075 2.28711 15.3109 2.28711 16.5495V28.2085C2.28711 29.4462 3.29103 30.4503 4.52915 30.4503H5.4895V38.4313C5.4895 39.296 6.19262 40 7.05812 40H32.9404C33.8051 40 34.509 39.2961 34.509 38.4313V30.4503H35.4695C36.7073 30.4503 37.7114 29.4462 37.7114 28.2085V16.5499C37.7113 15.3114 36.7072 14.3078 35.4694 14.3078ZM7.05805 1.56899H25.2274V9.59461C25.2274 10.0279 25.579 10.3789 26.0117 10.3789H32.9403V14.3083H7.05805V1.56899ZM26.3143 22.4417C26.3143 24.684 25.4978 26.23 24.3666 27.1863C23.1341 28.2115 21.2569 28.6978 18.9638 28.6978C17.5913 28.6978 16.6184 28.6109 15.9572 28.5243V17.0199C16.9303 16.8639 18.1996 16.7769 19.5378 16.7769C21.7608 16.7769 23.2035 17.1769 24.3336 18.0279C25.5495 18.9317 26.3143 20.3737 26.3143 22.4417ZM5.85979 28.5765V17.0199C6.67613 16.8817 7.82362 16.7769 9.43974 16.7769C11.0731 16.7769 12.2376 17.0898 13.0193 17.7158C13.7667 18.3063 14.2695 19.2796 14.2695 20.4266C14.2695 21.574 13.8882 22.547 13.1926 23.2069C12.289 24.0586 10.9511 24.4412 9.38673 24.4412C9.03974 24.4412 8.72587 24.4236 8.48368 24.3887V28.5768H5.85979V28.5765ZM32.9404 38.0067H7.05805V30.4503H32.9403V38.0067H32.9404ZM35.2132 19.0361H30.7115V21.7122H34.9172V23.8672H30.7115V28.5766H28.0541V16.8639H35.2132V19.0361Z" fill="#98B1BE"/>
</svg>
