<svg width="40" height="40" viewBox="0 0 40 40" fill="none" xmlns="http://www.w3.org/2000/svg">
<path d="M10.656 20.0949C10.656 19.0784 9.95073 18.4717 8.70339 18.4717C8.19577 18.4717 7.85183 18.5207 7.67188 18.5701V21.8327C7.8848 21.8818 8.14675 21.8978 8.50847 21.8978C9.83548 21.8987 10.656 21.2258 10.656 20.0949Z" fill="#98B1BE"/>
<path d="M35.4694 14.3078H34.509V9.6734C34.509 9.6445 34.5044 9.61538 34.5005 9.58611C34.499 9.40209 34.4405 9.22133 34.3145 9.07812L26.6023 0.268264C26.6 0.266013 26.5977 0.265214 26.5961 0.262745C26.5501 0.211401 26.4966 0.1687 26.4399 0.131735C26.4231 0.120479 26.4062 0.111038 26.3886 0.101307C26.3395 0.0745097 26.2875 0.0522875 26.2339 0.0362381C26.2194 0.0321713 26.2063 0.0262164 26.1918 0.02244C26.1335 0.00864196 26.073 0 26.0117 0H7.05805C6.19255 0 5.48942 0.70392 5.48942 1.5687V14.3075H4.52915C3.29103 14.3075 2.28711 15.3109 2.28711 16.5495V28.2085C2.28711 29.4462 3.29103 30.4503 4.52915 30.4503H5.4895V38.4313C5.4895 39.296 6.19262 40 7.05812 40H32.9404C33.8051 40 34.509 39.2961 34.509 38.4313V30.4503H35.4695C36.7073 30.4503 37.7114 29.4462 37.7114 28.2085V16.5499C37.7113 15.3114 36.7072 14.3078 35.4694 14.3078ZM7.05805 1.56899H25.2274V9.59461C25.2274 10.0279 25.579 10.3789 26.0117 10.3789H32.9403V14.3083H7.05805V1.56899ZM17.0176 24.3907V27.719H14.7227V16.6684H17.641L19.9366 20.7177C20.592 21.8819 21.2484 23.2582 21.7394 24.5052H21.7884C21.6245 23.0453 21.5754 21.5536 21.5754 19.8981V16.6684H23.8713V27.719H21.2484L18.8871 23.4559C18.2299 22.2756 17.5094 20.8493 16.9671 19.5541L16.9188 19.5703C16.9858 21.0297 17.0176 22.5872 17.0176 24.3907ZM5.19574 27.719V16.8162C5.96647 16.6852 7.04875 16.5868 8.57308 16.5868C10.1137 16.5868 11.2131 16.8817 11.9506 17.4722C12.6549 18.0295 13.1311 18.9474 13.1311 20.0299C13.1311 21.1117 12.771 22.0305 12.1145 22.6532C11.262 23.4566 9.99951 23.8174 8.52398 23.8174C8.19559 23.8174 7.89995 23.8006 7.6717 23.7684V27.7198H5.19574V27.719ZM32.9404 38.0067H7.05805V30.4503H32.9403V38.0067H32.9404ZM35.268 27.2104C34.4975 27.4724 33.0376 27.8339 31.5785 27.8339C29.5626 27.8339 28.1019 27.3253 27.0863 26.3419C26.07 25.3905 25.5116 23.9475 25.5284 22.3246C25.5446 18.6522 28.2176 16.5539 31.8405 16.5539C33.2671 16.5539 34.3665 16.8319 34.9065 17.0946L34.3826 19.0948C33.7748 18.8321 33.0208 18.6191 31.8076 18.6191C29.7265 18.6191 28.1517 19.7997 28.1517 22.1936C28.1517 24.4726 29.5787 25.8168 31.6283 25.8168C32.2016 25.8168 32.6608 25.7514 32.8581 25.6529V23.341H31.152V21.3897H35.2681V27.2104H35.268Z" fill="#98B1BE"/>
</svg>
