<svg width="4151" height="49" viewBox="0 0 4151 49" fill="none" xmlns="http://www.w3.org/2000/svg">
<path d="M5.59993 47.9999V0.767851H0.12793V47.9999H5.59993ZM11.1439 0.767851V5.73585H39.4399V0.767851H11.1439ZM11.1439 21.8639V26.8319H37.9999V21.8639H11.1439ZM11.1439 43.0319V47.9999H39.4399V43.0319H11.1439Z" fill="#E0EAF2"/>
<path d="M57.6312 47.9999V0.767851H52.1592V47.9999H57.6312ZM63.1752 43.0319V47.9999H73.6152C90.3912 47.9999 99.3912 40.0079 99.3912 25.0319V23.8078C99.3912 8.83185 90.3192 0.767851 73.6152 0.767851H63.1752V5.73585H73.5432C86.8632 5.73585 93.7752 11.9278 93.7752 23.7359V25.1039C93.7752 36.9839 86.9352 43.0319 73.6152 43.0319H63.1752Z" fill="#E0EAF2"/>
<path d="M133.748 48.7199V43.5359C121.94 42.6719 115.172 36.0479 115.172 25.1759V23.6639C115.172 12.7919 121.94 6.09585 133.748 5.23185V0.0478516C118.916 1.05585 109.628 10.0559 109.628 23.7359V25.1039C109.628 38.7839 118.916 47.7119 133.748 48.7199ZM139.292 0.119851V5.23185C149.444 6.09585 156.716 11.6399 156.716 18.9119V19.6319H162.26V18.9119C162.26 8.83185 152.612 1.05585 139.292 0.119851ZM139.292 43.5359V48.6479C152.612 47.7839 162.26 40.0079 162.26 29.9279V29.1359H156.716V29.9279C156.716 37.1999 149.516 42.6719 139.292 43.5359Z" fill="#E0EAF2"/>
<path d="M174.573 47.9999H180.045V0.767851H174.573V47.9999ZM219.933 15.3119V14.3759C219.933 5.95185 213.669 0.767851 203.301 0.767851H185.589V5.73585H203.157C210.213 5.73585 214.389 8.83185 214.389 14.2319V15.0959C214.389 20.3519 210.213 23.5199 203.157 23.5199H185.589V28.4159H195.813L213.453 47.9999H219.789V47.1359L202.941 28.4159H203.301C213.669 28.4159 219.933 23.2319 219.933 15.3119Z" fill="#E0EAF2"/>
<path d="M251.229 48.6479V43.4639C242.589 42.5279 237.333 36.9118 237.333 28.5599V0.767851H231.861V28.4879C231.861 39.7919 239.421 47.5679 251.229 48.6479ZM256.701 43.4639V48.6479C268.509 47.6399 276.141 39.7919 276.141 28.4879V0.767851H270.669V28.5599C270.669 36.9118 265.341 42.5279 256.701 43.4639Z" fill="#E0EAF2"/>
<path d="M334.387 47.9999L295.939 0.767851H289.675L328.123 47.9999H334.387ZM328.987 32.3039L334.387 39.2879V0.767851H328.987V32.3039ZM295.075 16.4639L289.675 9.47985V47.9999H295.003L295.075 16.4639Z" fill="#E0EAF2"/>
<path d="M370.771 48.7199V43.5359C358.963 42.6719 352.195 36.0479 352.195 25.1759V23.6639C352.195 12.7919 358.963 6.09585 370.771 5.23185V0.0478516C355.939 1.05585 346.651 10.0559 346.651 23.7359V25.1039C346.651 38.7839 355.939 47.7119 370.771 48.7199ZM376.315 0.119851V5.23185C386.467 6.09585 393.739 11.6399 393.739 18.9119V19.6319H399.283V18.9119C399.283 8.83185 389.635 1.05585 376.315 0.119851ZM376.315 43.5359V48.6479C389.635 47.7839 399.283 40.0079 399.283 29.9279V29.1359H393.739V29.9279C393.739 37.1999 386.539 42.6719 376.315 43.5359Z" fill="#E0EAF2"/>
<path d="M417.069 47.9999V0.767851H411.597V47.9999H417.069ZM422.613 21.9359V26.8319H450.837V47.9999H456.309V0.767851H450.837V21.9359H422.613Z" fill="#E0EAF2"/>
<path d="M521.089 48.6479V43.5359C509.713 42.5999 502.945 35.8319 502.945 25.0319V23.8078C502.945 13.0799 509.713 6.16785 521.089 5.30385V0.119851C506.545 1.12785 497.401 10.1279 497.401 23.8799V24.9599C497.401 38.6399 506.545 47.7119 521.089 48.6479ZM526.633 43.4639V48.6479C541.177 47.6399 550.321 38.6399 550.321 24.9599V23.8799C550.321 10.1279 541.105 1.05585 526.633 0.119851V5.30385C537.937 6.16785 544.705 13.0799 544.705 23.8078V25.0319C544.705 35.4719 537.649 42.5279 526.633 43.4639Z" fill="#E0EAF2"/>
<path d="M607.27 47.9999L568.822 0.767851H562.558L601.006 47.9999H607.27ZM601.87 32.3039L607.27 39.2879V0.767851H601.87V32.3039ZM567.958 16.4639L562.558 9.47985V47.9999H567.886L567.958 16.4639Z" fill="#E0EAF2"/>
<path d="M655.85 47.9999V0.767851H650.378V47.9999H655.85ZM661.394 43.0319V47.9999H671.834C688.61 47.9999 697.61 40.0079 697.61 25.0319V23.8078C697.61 8.83185 688.538 0.767851 671.834 0.767851H661.394V5.73585H671.762C685.082 5.73585 691.994 11.9278 691.994 23.7359V25.1039C691.994 36.9839 685.154 43.0319 671.834 43.0319H661.394Z" fill="#E0EAF2"/>
<path d="M715.334 47.9999V0.767851H709.862V47.9999H715.334ZM720.878 0.767851V5.73585H749.174V0.767851H720.878ZM720.878 21.8639V26.8319H747.734V21.8639H720.878ZM720.878 43.0319V47.9999H749.174V43.0319H720.878Z" fill="#E0EAF2"/>
<path d="M788.894 47.9999H794.654L821.726 0.767851H815.894L791.846 42.5279L767.726 0.767851H761.894L788.894 47.9999ZM761.894 47.9999H767.294V21.5759L761.894 11.7839V47.9999ZM816.326 47.9999H821.726V11.7839L816.326 21.5759V47.9999Z" fill="#E0EAF2"/>
<path d="M853.571 0.767851L876.971 47.9999H882.587V47.1359L859.619 0.767851H853.571ZM830.603 47.9999H836.219L842.771 34.9678H864.227L861.923 29.9999H845.147L853.499 13.3678L850.475 6.95985L830.603 47.1359V47.9999Z" fill="#E0EAF2"/>
<path d="M936.121 47.9999L897.673 0.767851H891.409L929.857 47.9999H936.121ZM930.721 32.3039L936.121 39.2879V0.767851H930.721V32.3039ZM896.809 16.4639L891.409 9.47985V47.9999H896.737L896.809 16.4639Z" fill="#E0EAF2"/>
<path d="M955.873 47.9999V0.767851H950.401V47.9999H955.873ZM961.417 43.0319V47.9999H971.857C988.633 47.9999 997.633 40.0079 997.633 25.0319V23.8078C997.633 8.83185 988.561 0.767851 971.857 0.767851H961.417V5.73585H971.785C985.105 5.73585 992.017 11.9278 992.017 23.7359V25.1039C992.017 36.9839 985.177 43.0319 971.857 43.0319H961.417Z" fill="#E0EAF2"/>
<path d="M1056.47 47.9999V0.767851H1051V47.9999H1056.47ZM1062.02 0.767851V5.73585H1090.31V0.767851H1062.02ZM1062.02 21.8639V26.8319H1088.87V21.8639H1062.02ZM1062.02 43.0319V47.9999H1090.31V43.0319H1062.02Z" fill="#E0EAF2"/>
<path d="M1108.5 47.9999V0.767851H1103.03V47.9999H1108.5ZM1114.05 43.0319V47.9999H1124.49C1141.26 47.9999 1150.26 40.0079 1150.26 25.0319V23.8078C1150.26 8.83185 1141.19 0.767851 1124.49 0.767851H1114.05V5.73585H1124.42C1137.74 5.73585 1144.65 11.9278 1144.65 23.7359V25.1039C1144.65 36.9839 1137.81 43.0319 1124.49 43.0319H1114.05Z" fill="#E0EAF2"/>
<path d="M1184.62 48.7199V43.5359C1172.81 42.6719 1166.04 36.0479 1166.04 25.1759V23.6639C1166.04 12.7919 1172.81 6.09585 1184.62 5.23185V0.0478516C1169.79 1.05585 1160.5 10.0559 1160.5 23.7359V25.1039C1160.5 38.7839 1169.79 47.7119 1184.62 48.7199ZM1190.16 0.119851V5.23185C1200.32 6.09585 1207.59 11.6399 1207.59 18.9119V19.6319H1213.13V18.9119C1213.13 8.83185 1203.48 1.05585 1190.16 0.119851ZM1190.16 43.5359V48.6479C1203.48 47.7839 1213.13 40.0079 1213.13 29.9279V29.1359H1207.59V29.9279C1207.59 37.1999 1200.39 42.6719 1190.16 43.5359Z" fill="#E0EAF2"/>
<path d="M1225.45 47.9999H1230.92V0.767851H1225.45V47.9999ZM1270.81 15.3119V14.3759C1270.81 5.95185 1264.54 0.767851 1254.17 0.767851H1236.46V5.73585H1254.03C1261.09 5.73585 1265.26 8.83185 1265.26 14.2319V15.0959C1265.26 20.3519 1261.09 23.5199 1254.03 23.5199H1236.46V28.4159H1246.69L1264.33 47.9999H1270.66V47.1359L1253.81 28.4159H1254.17C1264.54 28.4159 1270.81 23.2319 1270.81 15.3119Z" fill="#E0EAF2"/>
<path d="M1302.1 48.6479V43.4639C1293.46 42.5279 1288.21 36.9118 1288.21 28.5599V0.767851H1282.73V28.4879C1282.73 39.7919 1290.29 47.5679 1302.1 48.6479ZM1307.57 43.4639V48.6479C1319.38 47.6399 1327.01 39.7919 1327.01 28.4879V0.767851H1321.54V28.5599C1321.54 36.9118 1316.21 42.5279 1307.57 43.4639Z" fill="#E0EAF2"/>
<path d="M1385.26 47.9999L1346.81 0.767851H1340.55L1378.99 47.9999H1385.26ZM1379.86 32.3039L1385.26 39.2879V0.767851H1379.86V32.3039ZM1345.95 16.4639L1340.55 9.47985V47.9999H1345.87L1345.95 16.4639Z" fill="#E0EAF2"/>
<path d="M1421.64 48.7199V43.5359C1409.84 42.6719 1403.07 36.0479 1403.07 25.1759V23.6639C1403.07 12.7919 1409.84 6.09585 1421.64 5.23185V0.0478516C1406.81 1.05585 1397.52 10.0559 1397.52 23.7359V25.1039C1397.52 38.7839 1406.81 47.7119 1421.64 48.7199ZM1427.19 0.119851V5.23185C1437.34 6.09585 1444.61 11.6399 1444.61 18.9119V19.6319H1450.16V18.9119C1450.16 8.83185 1440.51 1.05585 1427.19 0.119851ZM1427.19 43.5359V48.6479C1440.51 47.7839 1450.16 40.0079 1450.16 29.9279V29.1359H1444.61V29.9279C1444.61 37.1999 1437.41 42.6719 1427.19 43.5359Z" fill="#E0EAF2"/>
<path d="M1467.94 47.9999V0.767851H1462.47V47.9999H1467.94ZM1473.48 21.9359V26.8319H1501.71V47.9999H1507.18V0.767851H1501.71V21.9359H1473.48Z" fill="#E0EAF2"/>
<path d="M1571.96 48.6479V43.5359C1560.59 42.5999 1553.82 35.8319 1553.82 25.0319V23.8078C1553.82 13.0799 1560.59 6.16785 1571.96 5.30385V0.119851C1557.42 1.12785 1548.27 10.1279 1548.27 23.8799V24.9599C1548.27 38.6399 1557.42 47.7119 1571.96 48.6479ZM1577.51 43.4639V48.6479C1592.05 47.6399 1601.19 38.6399 1601.19 24.9599V23.8799C1601.19 10.1279 1591.98 1.05585 1577.51 0.119851V5.30385C1588.81 6.16785 1595.58 13.0799 1595.58 23.8078V25.0319C1595.58 35.4719 1588.52 42.5279 1577.51 43.4639Z" fill="#E0EAF2"/>
<path d="M1658.14 47.9999L1619.69 0.767851H1613.43L1651.88 47.9999H1658.14ZM1652.74 32.3039L1658.14 39.2879V0.767851H1652.74V32.3039ZM1618.83 16.4639L1613.43 9.47985V47.9999H1618.76L1618.83 16.4639Z" fill="#E0EAF2"/>
<path d="M1706.72 47.9999V0.767851H1701.25V47.9999H1706.72ZM1712.27 43.0319V47.9999H1722.71C1739.48 47.9999 1748.48 40.0079 1748.48 25.0319V23.8078C1748.48 8.83185 1739.41 0.767851 1722.71 0.767851H1712.27V5.73585H1722.63C1735.95 5.73585 1742.87 11.9278 1742.87 23.7359V25.1039C1742.87 36.9839 1736.03 43.0319 1722.71 43.0319H1712.27Z" fill="#E0EAF2"/>
<path d="M1766.21 47.9999V0.767851H1760.73V47.9999H1766.21ZM1771.75 0.767851V5.73585H1800.05V0.767851H1771.75ZM1771.75 21.8639V26.8319H1798.61V21.8639H1771.75ZM1771.75 43.0319V47.9999H1800.05V43.0319H1771.75Z" fill="#E0EAF2"/>
<path d="M1839.77 47.9999H1845.53L1872.6 0.767851H1866.77L1842.72 42.5279L1818.6 0.767851H1812.77L1839.77 47.9999ZM1812.77 47.9999H1818.17V21.5759L1812.77 11.7839V47.9999ZM1867.2 47.9999H1872.6V11.7839L1867.2 21.5759V47.9999Z" fill="#E0EAF2"/>
<path d="M1904.44 0.767851L1927.84 47.9999H1933.46V47.1359L1910.49 0.767851H1904.44ZM1881.47 47.9999H1887.09L1893.64 34.9678H1915.1L1912.79 29.9999H1896.02L1904.37 13.3678L1901.35 6.95985L1881.47 47.1359V47.9999Z" fill="#E0EAF2"/>
<path d="M1986.99 47.9999L1948.55 0.767851H1942.28L1980.73 47.9999H1986.99ZM1981.59 32.3039L1986.99 39.2879V0.767851H1981.59V32.3039ZM1947.68 16.4639L1942.28 9.47985V47.9999H1947.61L1947.68 16.4639Z" fill="#E0EAF2"/>
<path d="M2006.75 47.9999V0.767851H2001.27V47.9999H2006.75ZM2012.29 43.0319V47.9999H2022.73C2039.51 47.9999 2048.51 40.0079 2048.51 25.0319V23.8078C2048.51 8.83185 2039.43 0.767851 2022.73 0.767851H2012.29V5.73585H2022.66C2035.98 5.73585 2042.89 11.9278 2042.89 23.7359V25.1039C2042.89 36.9839 2036.05 43.0319 2022.73 43.0319H2012.29Z" fill="#E0EAF2"/>
<path d="M2107.47 47.9999V0.767851H2102V47.9999H2107.47ZM2113.02 0.767851V5.73585H2141.31V0.767851H2113.02ZM2113.02 21.8639V26.8319H2139.87V21.8639H2113.02ZM2113.02 43.0319V47.9999H2141.31V43.0319H2113.02Z" fill="#E0EAF2"/>
<path d="M2159.5 47.9999V0.767851H2154.03V47.9999H2159.5ZM2165.05 43.0319V47.9999H2175.49C2192.26 47.9999 2201.26 40.0079 2201.26 25.0319V23.8078C2201.26 8.83185 2192.19 0.767851 2175.49 0.767851H2165.05V5.73585H2175.42C2188.74 5.73585 2195.65 11.9278 2195.65 23.7359V25.1039C2195.65 36.9839 2188.81 43.0319 2175.49 43.0319H2165.05Z" fill="#E0EAF2"/>
<path d="M2235.62 48.7199V43.5359C2223.81 42.6719 2217.04 36.0479 2217.04 25.1759V23.6639C2217.04 12.7919 2223.81 6.09585 2235.62 5.23185V0.0478516C2220.79 1.05585 2211.5 10.0559 2211.5 23.7359V25.1039C2211.5 38.7839 2220.79 47.7119 2235.62 48.7199ZM2241.16 0.119851V5.23185C2251.32 6.09585 2258.59 11.6399 2258.59 18.9119V19.6319H2264.13V18.9119C2264.13 8.83185 2254.48 1.05585 2241.16 0.119851ZM2241.16 43.5359V48.6479C2254.48 47.7839 2264.13 40.0079 2264.13 29.9279V29.1359H2258.59V29.9279C2258.59 37.1999 2251.39 42.6719 2241.16 43.5359Z" fill="#E0EAF2"/>
<path d="M2276.45 47.9999H2281.92V0.767851H2276.45V47.9999ZM2321.81 15.3119V14.3759C2321.81 5.95185 2315.54 0.767851 2305.17 0.767851H2287.46V5.73585H2305.03C2312.09 5.73585 2316.26 8.83185 2316.26 14.2319V15.0959C2316.26 20.3519 2312.09 23.5199 2305.03 23.5199H2287.46V28.4159H2297.69L2315.33 47.9999H2321.66V47.1359L2304.81 28.4159H2305.17C2315.54 28.4159 2321.81 23.2319 2321.81 15.3119Z" fill="#E0EAF2"/>
<path d="M2353.1 48.6479V43.4639C2344.46 42.5279 2339.21 36.9118 2339.21 28.5599V0.767851H2333.73V28.4879C2333.73 39.7919 2341.29 47.5679 2353.1 48.6479ZM2358.57 43.4639V48.6479C2370.38 47.6399 2378.01 39.7919 2378.01 28.4879V0.767851H2372.54V28.5599C2372.54 36.9118 2367.21 42.5279 2358.57 43.4639Z" fill="#E0EAF2"/>
<path d="M2436.26 47.9999L2397.81 0.767851H2391.55L2429.99 47.9999H2436.26ZM2430.86 32.3039L2436.26 39.2879V0.767851H2430.86V32.3039ZM2396.95 16.4639L2391.55 9.47985V47.9999H2396.88L2396.95 16.4639Z" fill="#E0EAF2"/>
<path d="M2472.64 48.7199V43.5359C2460.84 42.6719 2454.07 36.0479 2454.07 25.1759V23.6639C2454.07 12.7919 2460.84 6.09585 2472.64 5.23185V0.0478516C2457.81 1.05585 2448.52 10.0559 2448.52 23.7359V25.1039C2448.52 38.7839 2457.81 47.7119 2472.64 48.7199ZM2478.19 0.119851V5.23185C2488.34 6.09585 2495.61 11.6399 2495.61 18.9119V19.6319H2501.16V18.9119C2501.16 8.83185 2491.51 1.05585 2478.19 0.119851ZM2478.19 43.5359V48.6479C2491.51 47.7839 2501.16 40.0079 2501.16 29.9279V29.1359H2495.61V29.9279C2495.61 37.1999 2488.41 42.6719 2478.19 43.5359Z" fill="#E0EAF2"/>
<path d="M2518.94 47.9999V0.767851H2513.47V47.9999H2518.94ZM2524.48 21.9359V26.8319H2552.71V47.9999H2558.18V0.767851H2552.71V21.9359H2524.48Z" fill="#E0EAF2"/>
<path d="M2622.96 48.6479V43.5359C2611.58 42.5999 2604.82 35.8319 2604.82 25.0319V23.8078C2604.82 13.0799 2611.58 6.16785 2622.96 5.30385V0.119851C2608.42 1.12785 2599.27 10.1279 2599.27 23.8799V24.9599C2599.27 38.6399 2608.42 47.7119 2622.96 48.6479ZM2628.51 43.4639V48.6479C2643.05 47.6399 2652.19 38.6399 2652.19 24.9599V23.8799C2652.19 10.1279 2642.98 1.05585 2628.51 0.119851V5.30385C2639.81 6.16785 2646.58 13.0799 2646.58 23.8078V25.0319C2646.58 35.4719 2639.52 42.5279 2628.51 43.4639Z" fill="#E0EAF2"/>
<path d="M2709.14 47.9999L2670.69 0.767851H2664.43L2702.88 47.9999H2709.14ZM2703.74 32.3039L2709.14 39.2879V0.767851H2703.74V32.3039ZM2669.83 16.4639L2664.43 9.47985V47.9999H2669.76L2669.83 16.4639Z" fill="#E0EAF2"/>
<path d="M2757.72 47.9999V0.767851H2752.25V47.9999H2757.72ZM2763.27 43.0319V47.9999H2773.71C2790.48 47.9999 2799.48 40.0079 2799.48 25.0319V23.8078C2799.48 8.83185 2790.41 0.767851 2773.71 0.767851H2763.27V5.73585H2773.63C2786.95 5.73585 2793.87 11.9278 2793.87 23.7359V25.1039C2793.87 36.9839 2787.03 43.0319 2773.71 43.0319H2763.27Z" fill="#E0EAF2"/>
<path d="M2817.21 47.9999V0.767851H2811.73V47.9999H2817.21ZM2822.75 0.767851V5.73585H2851.05V0.767851H2822.75ZM2822.75 21.8639V26.8319H2849.61V21.8639H2822.75ZM2822.75 43.0319V47.9999H2851.05V43.0319H2822.75Z" fill="#E0EAF2"/>
<path d="M2890.77 47.9999H2896.53L2923.6 0.767851H2917.77L2893.72 42.5279L2869.6 0.767851H2863.77L2890.77 47.9999ZM2863.77 47.9999H2869.17V21.5759L2863.77 11.7839V47.9999ZM2918.2 47.9999H2923.6V11.7839L2918.2 21.5759V47.9999Z" fill="#E0EAF2"/>
<path d="M2955.44 0.767851L2978.84 47.9999H2984.46V47.1359L2961.49 0.767851H2955.44ZM2932.48 47.9999H2938.09L2944.64 34.9678H2966.1L2963.79 29.9999H2947.02L2955.37 13.3678L2952.35 6.95985L2932.48 47.1359V47.9999Z" fill="#E0EAF2"/>
<path d="M3037.99 47.9999L2999.55 0.767851H2993.28L3031.73 47.9999H3037.99ZM3032.59 32.3039L3037.99 39.2879V0.767851H3032.59V32.3039ZM2998.68 16.4639L2993.28 9.47985V47.9999H2998.61L2998.68 16.4639Z" fill="#E0EAF2"/>
<path d="M3057.75 47.9999V0.767851H3052.27V47.9999H3057.75ZM3063.29 43.0319V47.9999H3073.73C3090.51 47.9999 3099.51 40.0079 3099.51 25.0319V23.8078C3099.51 8.83185 3090.43 0.767851 3073.73 0.767851H3063.29V5.73585H3073.66C3086.98 5.73585 3093.89 11.9278 3093.89 23.7359V25.1039C3093.89 36.9839 3087.05 43.0319 3073.73 43.0319H3063.29Z" fill="#E0EAF2"/>
<path d="M3158.47 47.9999V0.767851H3153V47.9999H3158.47ZM3164.02 0.767851V5.73585H3192.31V0.767851H3164.02ZM3164.02 21.8639V26.8319H3190.87V21.8639H3164.02ZM3164.02 43.0319V47.9999H3192.31V43.0319H3164.02Z" fill="#E0EAF2"/>
<path d="M3210.5 47.9999V0.767851H3205.03V47.9999H3210.5ZM3216.05 43.0319V47.9999H3226.49C3243.26 47.9999 3252.26 40.0079 3252.26 25.0319V23.8078C3252.26 8.83185 3243.19 0.767851 3226.49 0.767851H3216.05V5.73585H3226.42C3239.74 5.73585 3246.65 11.9278 3246.65 23.7359V25.1039C3246.65 36.9839 3239.81 43.0319 3226.49 43.0319H3216.05Z" fill="#E0EAF2"/>
<path d="M3286.62 48.7199V43.5359C3274.81 42.6719 3268.04 36.0479 3268.04 25.1759V23.6639C3268.04 12.7919 3274.81 6.09585 3286.62 5.23185V0.0478516C3271.79 1.05585 3262.5 10.0559 3262.5 23.7359V25.1039C3262.5 38.7839 3271.79 47.7119 3286.62 48.7199ZM3292.16 0.119851V5.23185C3302.32 6.09585 3309.59 11.6399 3309.59 18.9119V19.6319H3315.13V18.9119C3315.13 8.83185 3305.48 1.05585 3292.16 0.119851ZM3292.16 43.5359V48.6479C3305.48 47.7839 3315.13 40.0079 3315.13 29.9279V29.1359H3309.59V29.9279C3309.59 37.1999 3302.39 42.6719 3292.16 43.5359Z" fill="#E0EAF2"/>
<path d="M3327.45 47.9999H3332.92V0.767851H3327.45V47.9999ZM3372.81 15.3119V14.3759C3372.81 5.95185 3366.54 0.767851 3356.17 0.767851H3338.46V5.73585H3356.03C3363.09 5.73585 3367.26 8.83185 3367.26 14.2319V15.0959C3367.26 20.3519 3363.09 23.5199 3356.03 23.5199H3338.46V28.4159H3348.69L3366.33 47.9999H3372.66V47.1359L3355.81 28.4159H3356.17C3366.54 28.4159 3372.81 23.2319 3372.81 15.3119Z" fill="#E0EAF2"/>
<path d="M3404.1 48.6479V43.4639C3395.46 42.5279 3390.21 36.9118 3390.21 28.5599V0.767851H3384.73V28.4879C3384.73 39.7919 3392.29 47.5679 3404.1 48.6479ZM3409.57 43.4639V48.6479C3421.38 47.6399 3429.01 39.7919 3429.01 28.4879V0.767851H3423.54V28.5599C3423.54 36.9118 3418.21 42.5279 3409.57 43.4639Z" fill="#E0EAF2"/>
<path d="M3487.26 47.9999L3448.81 0.767851H3442.55L3480.99 47.9999H3487.26ZM3481.86 32.3039L3487.26 39.2879V0.767851H3481.86V32.3039ZM3447.95 16.4639L3442.55 9.47985V47.9999H3447.88L3447.95 16.4639Z" fill="#E0EAF2"/>
<path d="M3523.64 48.7199V43.5359C3511.84 42.6719 3505.07 36.0479 3505.07 25.1759V23.6639C3505.07 12.7919 3511.84 6.09585 3523.64 5.23185V0.0478516C3508.81 1.05585 3499.52 10.0559 3499.52 23.7359V25.1039C3499.52 38.7839 3508.81 47.7119 3523.64 48.7199ZM3529.19 0.119851V5.23185C3539.34 6.09585 3546.61 11.6399 3546.61 18.9119V19.6319H3552.16V18.9119C3552.16 8.83185 3542.51 1.05585 3529.19 0.119851ZM3529.19 43.5359V48.6479C3542.51 47.7839 3552.16 40.0079 3552.16 29.9279V29.1359H3546.61V29.9279C3546.61 37.1999 3539.41 42.6719 3529.19 43.5359Z" fill="#E0EAF2"/>
<path d="M3569.94 47.9999V0.767851H3564.47V47.9999H3569.94ZM3575.48 21.9359V26.8319H3603.71V47.9999H3609.18V0.767851H3603.71V21.9359H3575.48Z" fill="#E0EAF2"/>
<path d="M3673.96 48.6479V43.5359C3662.58 42.5999 3655.82 35.8319 3655.82 25.0319V23.8078C3655.82 13.0799 3662.58 6.16785 3673.96 5.30385V0.119851C3659.42 1.12785 3650.27 10.1279 3650.27 23.8799V24.9599C3650.27 38.6399 3659.42 47.7119 3673.96 48.6479ZM3679.51 43.4639V48.6479C3694.05 47.6399 3703.19 38.6399 3703.19 24.9599V23.8799C3703.19 10.1279 3693.98 1.05585 3679.51 0.119851V5.30385C3690.81 6.16785 3697.58 13.0799 3697.58 23.8078V25.0319C3697.58 35.4719 3690.52 42.5279 3679.51 43.4639Z" fill="#E0EAF2"/>
<path d="M3760.14 47.9999L3721.69 0.767851H3715.43L3753.88 47.9999H3760.14ZM3754.74 32.3039L3760.14 39.2879V0.767851H3754.74V32.3039ZM3720.83 16.4639L3715.43 9.47985V47.9999H3720.76L3720.83 16.4639Z" fill="#E0EAF2"/>
<path d="M3808.72 47.9999V0.767851H3803.25V47.9999H3808.72ZM3814.27 43.0319V47.9999H3824.71C3841.48 47.9999 3850.48 40.0079 3850.48 25.0319V23.8078C3850.48 8.83185 3841.41 0.767851 3824.71 0.767851H3814.27V5.73585H3824.63C3837.95 5.73585 3844.87 11.9278 3844.87 23.7359V25.1039C3844.87 36.9839 3838.03 43.0319 3824.71 43.0319H3814.27Z" fill="#E0EAF2"/>
<path d="M3868.21 47.9999V0.767851H3862.73V47.9999H3868.21ZM3873.75 0.767851V5.73585H3902.05V0.767851H3873.75ZM3873.75 21.8639V26.8319H3900.61V21.8639H3873.75ZM3873.75 43.0319V47.9999H3902.05V43.0319H3873.75Z" fill="#E0EAF2"/>
<path d="M3941.77 47.9999H3947.53L3974.6 0.767851H3968.77L3944.72 42.5279L3920.6 0.767851H3914.77L3941.77 47.9999ZM3914.77 47.9999H3920.17V21.5759L3914.77 11.7839V47.9999ZM3969.2 47.9999H3974.6V11.7839L3969.2 21.5759V47.9999Z" fill="#E0EAF2"/>
<path d="M4006.44 0.767851L4029.84 47.9999H4035.46V47.1359L4012.49 0.767851H4006.44ZM3983.48 47.9999H3989.09L3995.64 34.9678H4017.1L4014.79 29.9999H3998.02L4006.37 13.3678L4003.35 6.95985L3983.48 47.1359V47.9999Z" fill="#E0EAF2"/>
<path d="M4088.99 47.9999L4050.55 0.767851H4044.28L4082.73 47.9999H4088.99ZM4083.59 32.3039L4088.99 39.2879V0.767851H4083.59V32.3039ZM4049.68 16.4639L4044.28 9.47985V47.9999H4049.61L4049.68 16.4639Z" fill="#E0EAF2"/>
<path d="M4108.75 47.9999V0.767851H4103.27V47.9999H4108.75ZM4114.29 43.0319V47.9999H4124.73C4141.51 47.9999 4150.51 40.0079 4150.51 25.0319V23.8078C4150.51 8.83185 4141.43 0.767851 4124.73 0.767851H4114.29V5.73585H4124.66C4137.98 5.73585 4144.89 11.9278 4144.89 23.7359V25.1039C4144.89 36.9839 4138.05 43.0319 4124.73 43.0319H4114.29Z" fill="#E0EAF2"/>
</svg>
