<svg width="2451" height="33" viewBox="0 0 2451 33" fill="none" xmlns="http://www.w3.org/2000/svg">
<path d="M11.2769 26.0003L1.84492 2.38434H0.0449219V2.67234L9.40492 26.0003H11.2769ZM12.9329 22.2563L20.1689 4.68834L28.7729 26.0003H30.6089L21.1409 2.38434H19.1969L11.9969 19.8083L12.9329 22.2563ZM31.3649 19.8083L32.3009 22.2563L40.2569 2.67234V2.38434H38.4569L31.3649 19.8083Z" fill="#17118B"/>
<path d="M44.7859 26.0003H46.4779V0.944336H44.7859V26.0003ZM49.4299 9.44034V11.0963C50.7259 10.1243 52.4539 9.54834 54.2899 9.54834C59.3299 9.54834 61.9939 12.0323 61.9939 16.6763V26.0003H63.6859V16.6763C63.6859 10.9883 60.4459 7.96434 54.5059 7.96434C52.5979 7.96434 50.7979 8.50434 49.4299 9.44034Z" fill="#17118B"/>
<path d="M77.4716 9.69234V8.07234C72.8276 8.50434 69.7676 11.0603 69.7676 14.5163V14.8043H71.4236V14.5163C71.4236 11.9603 73.8716 10.0883 77.4716 9.69234ZM80.4236 8.07234V9.69234C84.3836 10.0523 86.5076 11.9963 86.5076 15.3083V22.2563C86.5076 24.5963 88.0556 26.0003 90.6836 26.0003H92.5916V24.4883H91.0076C89.2076 24.4883 88.1636 23.5523 88.1636 21.9323V15.3083C88.1636 11.0963 85.3556 8.46834 80.4236 8.07234ZM83.6636 24.7403L83.5556 23.1563C81.9716 24.2363 79.7756 24.8843 77.2916 24.8843C73.3316 24.8843 71.3516 23.8043 71.3516 21.6803C71.3516 19.6283 72.9716 18.5483 76.5716 18.1883L83.5556 17.4683V16.0283L76.2476 16.7843C71.7836 17.2523 69.6596 18.8363 69.6596 21.6803C69.6596 24.7763 72.2876 26.3963 77.3276 26.3963C79.8476 26.3963 82.0076 25.8203 83.6636 24.7403Z" fill="#17118B"/>
<path d="M100.503 8.36034V3.57234H98.8469V7.64034C98.8469 8.18034 98.6669 8.36034 98.1269 8.36034H91.5749V9.87234H109.359V8.36034H100.503ZM100.503 20.9963V12.8243H98.8109V21.0323C98.8109 24.1283 100.719 26.0003 103.959 26.0003H108.279V24.4883H104.067C101.799 24.4883 100.503 23.2283 100.503 20.9963Z" fill="#17118B"/>
<path d="M114.006 31.1483H115.626L118.65 22.5443V22.2563H116.742L114.006 31.1483Z" fill="#17118B"/>
<path d="M140.552 26.0003H142.244V0.944336H140.552V26.0003ZM145.196 9.44034V11.0963C146.492 10.1243 148.22 9.54834 150.056 9.54834C155.096 9.54834 157.76 12.0323 157.76 16.6763V26.0003H159.452V16.6763C159.452 10.9883 156.212 7.96434 150.272 7.96434C148.364 7.96434 146.564 8.50434 145.196 9.44034Z" fill="#17118B"/>
<path d="M173.561 9.62034V8.07234C168.053 8.57634 164.669 11.8163 164.669 16.8563V17.6123C164.669 22.5443 168.053 25.7843 173.561 26.2883V24.7043C169.133 24.2363 166.397 21.6443 166.397 17.5763V16.8563C166.397 12.7523 169.061 10.1243 173.561 9.62034ZM176.513 8.07234V9.65634C180.905 10.1243 183.569 12.8243 183.569 16.8563V17.5763C183.569 21.6083 180.869 24.2723 176.513 24.7043V26.2883C181.949 25.7843 185.297 22.5443 185.297 17.6123V16.8563C185.297 11.8523 181.949 8.57634 176.513 8.07234Z" fill="#17118B"/>
<path d="M198.335 26.0003L190.199 8.36034H188.435V8.64834L196.427 26.0003H198.335ZM214.427 26.0003L206.471 8.36034H204.779L199.091 20.4563L199.991 22.5443L205.643 10.4843L212.627 26.0003H214.427ZM215.255 20.5643L216.083 22.5443L222.815 8.64834V8.36034H221.123L215.255 20.5643Z" fill="#17118B"/>
<path d="M249.843 9.69234V8.07234C245.199 8.50434 242.139 11.0603 242.139 14.5163V14.8043H243.795V14.5163C243.795 11.9603 246.243 10.0883 249.843 9.69234ZM252.795 8.07234V9.69234C256.755 10.0523 258.879 11.9963 258.879 15.3083V22.2563C258.879 24.5963 260.427 26.0003 263.055 26.0003H264.963V24.4883H263.379C261.579 24.4883 260.535 23.5523 260.535 21.9323V15.3083C260.535 11.0963 257.727 8.46834 252.795 8.07234ZM256.035 24.7403L255.927 23.1563C254.343 24.2363 252.147 24.8843 249.663 24.8843C245.703 24.8843 243.723 23.8043 243.723 21.6803C243.723 19.6283 245.343 18.5483 248.943 18.1883L255.927 17.4683V16.0283L248.619 16.7843C244.155 17.2523 242.031 18.8363 242.031 21.6803C242.031 24.7763 244.659 26.3963 249.699 26.3963C252.219 26.3963 254.379 25.8203 256.035 24.7403Z" fill="#17118B"/>
<path d="M273.164 9.44034V11.0963C274.46 10.1243 276.188 9.54834 278.024 9.54834C283.064 9.54834 285.728 12.0323 285.728 16.6763V26.0003H287.42V16.6763C287.42 10.9883 284.18 7.96434 278.24 7.96434C276.332 7.96434 274.532 8.50434 273.164 9.44034ZM268.52 26.0003H270.212V8.36034H268.52V26.0003Z" fill="#17118B"/>
<path d="M312.69 26.0003V0.944336H310.998V26.0003H312.69ZM308.046 9.40434C306.606 8.50434 304.734 7.96434 302.754 7.96434C296.562 7.96434 292.638 11.3843 292.638 16.8203V17.5403C292.638 22.9763 296.562 26.3963 302.754 26.3963C304.734 26.3963 306.606 25.8563 308.046 24.9563V23.3363C306.714 24.2723 304.914 24.8123 303.006 24.8123C297.678 24.8123 294.366 22.0763 294.366 17.5403V16.8203C294.366 12.2843 297.678 9.54834 303.006 9.54834C304.914 9.54834 306.714 10.0883 308.046 11.0243V9.40434Z" fill="#17118B"/>
<path d="M342.511 26.0003L334.375 8.36034H332.611V8.64834L340.603 26.0003H342.511ZM358.603 26.0003L350.647 8.36034H348.955L343.267 20.4563L344.167 22.5443L349.819 10.4843L356.803 26.0003H358.603ZM359.431 20.5643L360.259 22.5443L366.991 8.64834V8.36034H365.299L359.431 20.5643Z" fill="#17118B"/>
<path d="M372.512 26.0003H374.204V0.944336H372.512V26.0003ZM377.156 9.44034V11.0963C378.452 10.1243 380.18 9.54834 382.016 9.54834C387.056 9.54834 389.72 12.0323 389.72 16.6763V26.0003H391.412V16.6763C391.412 10.9883 388.172 7.96434 382.232 7.96434C380.324 7.96434 378.524 8.50434 377.156 9.44034Z" fill="#17118B"/>
<path d="M408.33 8.07234V9.65634C412.362 10.1243 414.882 12.5723 414.99 16.2803H398.394C398.538 12.5723 401.166 10.1243 405.378 9.65634V8.07234C400.014 8.57634 396.63 11.8523 396.63 16.7843V17.6123C396.63 22.5083 399.978 25.7843 405.378 26.2883V24.7043C401.058 24.2363 398.394 21.6803 398.394 17.7203H416.754V16.6763C416.754 11.7803 413.514 8.57634 408.33 8.07234ZM408.33 24.7403V26.2883C413.334 25.8923 416.61 23.4083 416.754 19.7003H414.954C414.882 22.4363 412.29 24.3803 408.33 24.7403Z" fill="#17118B"/>
<path d="M426.903 9.44034V11.0963C428.199 10.1243 429.927 9.54834 431.763 9.54834C436.803 9.54834 439.467 12.0323 439.467 16.6763V26.0003H441.159V16.6763C441.159 10.9883 437.919 7.96434 431.979 7.96434C430.071 7.96434 428.271 8.50434 426.903 9.44034ZM422.259 26.0003H423.951V8.36034H422.259V26.0003Z" fill="#17118B"/>
<path d="M470.69 26.0003L462.554 8.36034H460.79V8.64834L468.782 26.0003H470.69ZM486.782 26.0003L478.826 8.36034H477.134L471.446 20.4563L472.346 22.5443L477.998 10.4843L484.982 26.0003H486.782ZM487.61 20.5643L488.438 22.5443L495.17 8.64834V8.36034H493.478L487.61 20.5643Z" fill="#17118B"/>
<path d="M507.229 9.62034V8.07234C501.721 8.57634 498.337 11.8163 498.337 16.8563V17.6123C498.337 22.5443 501.721 25.7843 507.229 26.2883V24.7043C502.801 24.2363 500.065 21.6443 500.065 17.5763V16.8563C500.065 12.7523 502.729 10.1243 507.229 9.62034ZM510.181 8.07234V9.65634C514.573 10.1243 517.237 12.8243 517.237 16.8563V17.5763C517.237 21.6083 514.537 24.2723 510.181 24.7043V26.2883C515.617 25.7843 518.965 22.5443 518.965 17.6123V16.8563C518.965 11.8523 515.617 8.57634 510.181 8.07234Z" fill="#17118B"/>
<path d="M525.286 8.36034V26.0003H526.942V8.36034H525.286ZM529.894 9.51234V11.0963C530.938 10.3403 532.342 9.87234 533.962 9.87234H537.598V8.36034H534.034C532.45 8.36034 531.01 8.75634 529.894 9.51234Z" fill="#17118B"/>
<path d="M541.473 26.0003H543.165V0.944336H541.473V26.0003ZM546.153 16.9643V18.8003L560.553 8.64834V8.36034H558.357L546.153 16.9643ZM552.345 17.9363L551.013 19.0163L558.933 26.0003H561.057V25.7123L552.345 17.9363Z" fill="#17118B"/>
<path d="M575.223 24.7763V26.3243C580.299 26.0363 583.431 24.2363 583.431 21.3923V21.0323C583.431 18.2963 581.055 16.9643 575.439 16.4243L571.767 16.1003C567.915 15.7763 566.367 14.8763 566.367 13.1123V12.7883C566.367 10.9883 568.527 9.80034 572.235 9.58434V8.03634C567.483 8.32434 564.639 10.0883 564.639 12.8243V13.1843C564.639 15.7763 566.799 17.1443 571.731 17.5763L575.367 17.9363C579.939 18.4043 581.703 19.2323 581.703 21.0683V21.3923C581.703 23.3363 579.291 24.5603 575.223 24.7763ZM575.223 8.03634V9.58434C579.183 9.87234 581.703 11.3843 581.703 13.5083V13.6523H583.395V13.5083C583.395 10.4843 580.191 8.39634 575.223 8.03634ZM572.235 26.3243V24.7763C568.059 24.4883 565.539 23.0483 565.539 20.8523V20.7083H563.847V20.8523C563.847 23.9123 567.159 25.9643 572.235 26.3243Z" fill="#17118B"/>
<path d="M605.602 4.72434C606.394 4.72434 606.97 4.14834 606.97 3.39234C606.97 2.63634 606.394 2.09634 605.602 2.09634C604.81 2.09634 604.234 2.63634 604.234 3.39234C604.234 4.14834 604.846 4.72434 605.602 4.72434ZM604.774 26.0003H606.43V8.36034H604.774V26.0003Z" fill="#17118B"/>
<path d="M618.891 9.44034V11.0963C620.187 10.1243 621.915 9.54834 623.751 9.54834C628.791 9.54834 631.455 12.0323 631.455 16.6763V26.0003H633.147V16.6763C633.147 10.9883 629.907 7.96434 623.967 7.96434C622.059 7.96434 620.259 8.50434 618.891 9.44034ZM614.247 26.0003H615.939V8.36034H614.247V26.0003Z" fill="#17118B"/>
<path d="M664.479 8.07234V9.65634C668.511 10.1243 671.031 12.5723 671.139 16.2803H654.543C654.687 12.5723 657.315 10.1243 661.527 9.65634V8.07234C656.163 8.57634 652.779 11.8523 652.779 16.7843V17.6123C652.779 22.5083 656.127 25.7843 661.527 26.2883V24.7043C657.207 24.2363 654.543 21.6803 654.543 17.7203H672.903V16.6763C672.903 11.7803 669.663 8.57634 664.479 8.07234ZM664.479 24.7403V26.2883C669.483 25.8923 672.759 23.4083 672.903 19.7003H671.103C671.031 22.4363 668.439 24.3803 664.479 24.7403Z" fill="#17118B"/>
<path d="M696.983 26.0003V0.944336H695.291V26.0003H696.983ZM692.339 9.40434C690.899 8.50434 689.027 7.96434 687.047 7.96434C680.855 7.96434 676.931 11.3843 676.931 16.8203V17.5403C676.931 22.9763 680.855 26.3963 687.047 26.3963C689.027 26.3963 690.899 25.8563 692.339 24.9563V23.3363C691.007 24.2723 689.207 24.8123 687.299 24.8123C681.971 24.8123 678.659 22.0763 678.659 17.5403V16.8203C678.659 12.2843 681.971 9.54834 687.299 9.54834C689.207 9.54834 691.007 10.0883 692.339 11.0243V9.40434Z" fill="#17118B"/>
<path d="M717.934 24.9203V23.2643C716.674 24.2363 714.946 24.8123 713.074 24.8123C708.034 24.8123 705.37 22.3283 705.37 17.6843V8.36034H703.678V17.6843C703.678 23.3723 706.918 26.3963 712.858 26.3963C714.766 26.3963 716.566 25.8563 717.934 24.9203ZM722.578 8.36034H720.886V26.0003H722.578V8.36034Z" fill="#17118B"/>
<path d="M736.975 9.65634V8.07234C731.503 8.57634 728.083 11.8523 728.083 16.7843V17.5763C728.083 22.5083 731.503 25.7843 736.975 26.2883V24.6683C732.511 24.2363 729.811 21.6083 729.811 17.5763V16.7843C729.811 12.7523 732.511 10.1243 736.975 9.65634ZM739.927 8.07234V9.65634C743.815 10.0883 746.551 12.2843 746.551 15.1643V15.3803H748.279V15.1643C748.279 11.4203 744.787 8.54034 739.927 8.07234ZM739.927 24.6683V26.2883C744.823 25.8203 748.279 22.9763 748.279 19.2323V19.0163H746.551V19.2323C746.551 22.0763 743.815 24.2723 739.927 24.6683Z" fill="#17118B"/>
<path d="M760.768 9.69234V8.07234C756.124 8.50434 753.065 11.0603 753.065 14.5163V14.8043H754.721V14.5163C754.721 11.9603 757.168 10.0883 760.768 9.69234ZM763.721 8.07234V9.69234C767.681 10.0523 769.805 11.9963 769.805 15.3083V22.2563C769.805 24.5963 771.353 26.0003 773.981 26.0003H775.888V24.4883H774.305C772.505 24.4883 771.461 23.5523 771.461 21.9323V15.3083C771.461 11.0963 768.653 8.46834 763.721 8.07234ZM766.961 24.7403L766.853 23.1563C765.269 24.2363 763.073 24.8843 760.589 24.8843C756.629 24.8843 754.648 23.8043 754.648 21.6803C754.648 19.6283 756.269 18.5483 759.869 18.1883L766.853 17.4683V16.0283L759.544 16.7843C755.08 17.2523 752.957 18.8363 752.957 21.6803C752.957 24.7763 755.585 26.3963 760.625 26.3963C763.145 26.3963 765.305 25.8203 766.961 24.7403Z" fill="#17118B"/>
<path d="M783.8 8.36034V3.57234H782.144V7.64034C782.144 8.18034 781.964 8.36034 781.424 8.36034H774.872V9.87234H792.656V8.36034H783.8ZM783.8 20.9963V12.8243H782.108V21.0323C782.108 24.1283 784.016 26.0003 787.256 26.0003H791.576V24.4883H787.364C785.096 24.4883 783.8 23.2283 783.8 20.9963Z" fill="#17118B"/>
<path d="M798.399 4.72434C799.191 4.72434 799.767 4.14834 799.767 3.39234C799.767 2.63634 799.191 2.09634 798.399 2.09634C797.607 2.09634 797.031 2.63634 797.031 3.39234C797.031 4.14834 797.643 4.72434 798.399 4.72434ZM797.571 26.0003H799.227V8.36034H797.571V26.0003Z" fill="#17118B"/>
<path d="M814.46 9.62034V8.07234C808.952 8.57634 805.568 11.8163 805.568 16.8563V17.6123C805.568 22.5443 808.952 25.7843 814.46 26.2883V24.7043C810.032 24.2363 807.296 21.6443 807.296 17.5763V16.8563C807.296 12.7523 809.96 10.1243 814.46 9.62034ZM817.412 8.07234V9.65634C821.804 10.1243 824.468 12.8243 824.468 16.8563V17.5763C824.468 21.6083 821.768 24.2723 817.412 24.7043V26.2883C822.848 25.7843 826.196 22.5443 826.196 17.6123V16.8563C826.196 11.8523 822.848 8.57634 817.412 8.07234Z" fill="#17118B"/>
<path d="M836.332 9.44034V11.0963C837.628 10.1243 839.356 9.54834 841.192 9.54834C846.232 9.54834 848.896 12.0323 848.896 16.6763V26.0003H850.588V16.6763C850.588 10.9883 847.348 7.96434 841.408 7.96434C839.5 7.96434 837.7 8.50434 836.332 9.44034ZM831.688 26.0003H833.38V8.36034H831.688V26.0003Z" fill="#17118B"/>
<path d="M864.374 9.69234V8.07234C859.73 8.50434 856.67 11.0603 856.67 14.5163V14.8043H858.326V14.5163C858.326 11.9603 860.774 10.0883 864.374 9.69234ZM867.326 8.07234V9.69234C871.286 10.0523 873.41 11.9963 873.41 15.3083V22.2563C873.41 24.5963 874.958 26.0003 877.586 26.0003H879.494V24.4883H877.91C876.11 24.4883 875.066 23.5523 875.066 21.9323V15.3083C875.066 11.0963 872.258 8.46834 867.326 8.07234ZM870.566 24.7403L870.458 23.1563C868.874 24.2363 866.678 24.8843 864.194 24.8843C860.234 24.8843 858.254 23.8043 858.254 21.6803C858.254 19.6283 859.874 18.5483 863.474 18.1883L870.458 17.4683V16.0283L863.15 16.7843C858.686 17.2523 856.562 18.8363 856.562 21.6803C856.562 24.7763 859.19 26.3963 864.23 26.3963C866.75 26.3963 868.91 25.8203 870.566 24.7403Z" fill="#17118B"/>
<path d="M888.487 26.0003H890.252V24.4883H888.74C886.436 24.4883 885.536 23.6603 885.536 21.5363V0.944336H883.88V21.7883C883.88 24.6683 885.319 26.0003 888.487 26.0003Z" fill="#17118B"/>
<path d="M914.722 8.36034V3.57234H913.066V7.64034C913.066 8.18034 912.886 8.36034 912.346 8.36034H905.794V9.87234H923.578V8.36034H914.722ZM914.722 20.9963V12.8243H913.03V21.0323C913.03 24.1283 914.938 26.0003 918.178 26.0003H922.498V24.4883H918.286C916.018 24.4883 914.722 23.2283 914.722 20.9963Z" fill="#17118B"/>
<path d="M937.221 8.07234V9.65634C941.253 10.1243 943.773 12.5723 943.881 16.2803H927.285C927.429 12.5723 930.057 10.1243 934.269 9.65634V8.07234C928.905 8.57634 925.521 11.8523 925.521 16.7843V17.6123C925.521 22.5083 928.869 25.7843 934.269 26.2883V24.7043C929.949 24.2363 927.285 21.6803 927.285 17.7203H945.645V16.6763C945.645 11.7803 942.405 8.57634 937.221 8.07234ZM937.221 24.7403V26.2883C942.225 25.8923 945.501 23.4083 945.645 19.7003H943.845C943.773 22.4363 941.181 24.3803 937.221 24.7403Z" fill="#17118B"/>
<path d="M958.565 9.65634V8.07234C953.093 8.57634 949.673 11.8523 949.673 16.7843V17.5763C949.673 22.5083 953.093 25.7843 958.565 26.2883V24.6683C954.101 24.2363 951.401 21.6083 951.401 17.5763V16.7843C951.401 12.7523 954.101 10.1243 958.565 9.65634ZM961.517 8.07234V9.65634C965.405 10.0883 968.141 12.2843 968.141 15.1643V15.3803H969.869V15.1643C969.869 11.4203 966.377 8.54034 961.517 8.07234ZM961.517 24.6683V26.2883C966.413 25.8203 969.869 22.9763 969.869 19.2323V19.0163H968.141V19.2323C968.141 22.0763 965.405 24.2723 961.517 24.6683Z" fill="#17118B"/>
<path d="M975.266 26.0003H976.958V0.944336H975.266V26.0003ZM979.91 9.44034V11.0963C981.206 10.1243 982.934 9.54834 984.77 9.54834C989.81 9.54834 992.474 12.0323 992.474 16.6763V26.0003H994.166V16.6763C994.166 10.9883 990.926 7.96434 984.986 7.96434C983.078 7.96434 981.278 8.50434 979.91 9.44034Z" fill="#17118B"/>
<path d="M1005.5 9.44034V11.0963C1006.8 10.1243 1008.53 9.54834 1010.36 9.54834C1015.4 9.54834 1018.07 12.0323 1018.07 16.6763V26.0003H1019.76V16.6763C1019.76 10.9883 1016.52 7.96434 1010.58 7.96434C1008.67 7.96434 1006.87 8.50434 1005.5 9.44034ZM1000.86 26.0003H1002.55V8.36034H1000.86V26.0003Z" fill="#17118B"/>
<path d="M1033.87 9.62034V8.07234C1028.36 8.57634 1024.98 11.8163 1024.98 16.8563V17.6123C1024.98 22.5443 1028.36 25.7843 1033.87 26.2883V24.7043C1029.44 24.2363 1026.71 21.6443 1026.71 17.5763V16.8563C1026.71 12.7523 1029.37 10.1243 1033.87 9.62034ZM1036.82 8.07234V9.65634C1041.21 10.1243 1043.88 12.8243 1043.88 16.8563V17.5763C1043.88 21.6083 1041.18 24.2723 1036.82 24.7043V26.2883C1042.26 25.7843 1045.61 22.5443 1045.61 17.6123V16.8563C1045.61 11.8523 1042.26 8.57634 1036.82 8.07234Z" fill="#17118B"/>
<path d="M1056.53 26.0003H1058.3V24.4883H1056.79C1054.48 24.4883 1053.58 23.6603 1053.58 21.5363V0.944336H1051.93V21.7883C1051.93 24.6683 1053.37 26.0003 1056.53 26.0003Z" fill="#17118B"/>
<path d="M1070.01 9.62034V8.07234C1064.5 8.57634 1061.12 11.8163 1061.12 16.8563V17.6123C1061.12 22.5443 1064.5 25.7843 1070.01 26.2883V24.7043C1065.58 24.2363 1062.85 21.6443 1062.85 17.5763V16.8563C1062.85 12.7523 1065.51 10.1243 1070.01 9.62034ZM1072.96 8.07234V9.65634C1077.35 10.1243 1080.02 12.8243 1080.02 16.8563V17.5763C1080.02 21.6083 1077.32 24.2723 1072.96 24.7043V26.2883C1078.4 25.7843 1081.75 22.5443 1081.75 17.6123V16.8563C1081.75 11.8523 1078.4 8.57634 1072.96 8.07234Z" fill="#17118B"/>
<path d="M1101.14 23.9483V22.3643C1099.73 23.3363 1097.86 23.9123 1095.88 23.9123C1090.48 23.9123 1087.45 21.4643 1087.45 17.1083V16.3883C1087.45 12.0323 1090.52 9.51234 1095.88 9.51234C1097.86 9.51234 1099.73 10.1243 1101.14 11.0963V9.47634C1099.66 8.50434 1097.71 7.96434 1095.7 7.96434C1089.51 7.96434 1085.73 11.0963 1085.73 16.3883V17.1083C1085.73 22.4003 1089.47 25.4603 1095.7 25.4603C1097.71 25.4603 1099.62 24.8843 1101.14 23.9483ZM1097.28 30.8603V32.4443C1102.72 32.0483 1105.78 29.4203 1105.78 25.0283V8.36034H1104.09V25.0643C1104.09 28.4123 1101.64 30.5003 1097.28 30.8603ZM1094.33 32.4443V30.8603C1090.23 30.5003 1087.49 28.6283 1087.49 25.9643V25.6763H1085.8V25.9643C1085.8 29.6003 1089.08 32.0483 1094.33 32.4443Z" fill="#17118B"/>
<path d="M1114.42 4.72434C1115.21 4.72434 1115.79 4.14834 1115.79 3.39234C1115.79 2.63634 1115.21 2.09634 1114.42 2.09634C1113.63 2.09634 1113.05 2.63634 1113.05 3.39234C1113.05 4.14834 1113.66 4.72434 1114.42 4.72434ZM1113.59 26.0003H1115.25V8.36034H1113.59V26.0003Z" fill="#17118B"/>
<path d="M1133.29 8.07234V9.65634C1137.32 10.1243 1139.84 12.5723 1139.95 16.2803H1123.35C1123.5 12.5723 1126.12 10.1243 1130.34 9.65634V8.07234C1124.97 8.57634 1121.59 11.8523 1121.59 16.7843V17.6123C1121.59 22.5083 1124.94 25.7843 1130.34 26.2883V24.7043C1126.02 24.2363 1123.35 21.6803 1123.35 17.7203H1141.71V16.6763C1141.71 11.7803 1138.47 8.57634 1133.29 8.07234ZM1133.29 24.7403V26.2883C1138.29 25.8923 1141.57 23.4083 1141.71 19.7003H1139.91C1139.84 22.4363 1137.25 24.3803 1133.29 24.7403Z" fill="#17118B"/>
<path d="M1157.69 24.7763V26.3243C1162.77 26.0363 1165.9 24.2363 1165.9 21.3923V21.0323C1165.9 18.2963 1163.52 16.9643 1157.91 16.4243L1154.24 16.1003C1150.38 15.7763 1148.84 14.8763 1148.84 13.1123V12.7883C1148.84 10.9883 1151 9.80034 1154.7 9.58434V8.03634C1149.95 8.32434 1147.11 10.0883 1147.11 12.8243V13.1843C1147.11 15.7763 1149.27 17.1443 1154.2 17.5763L1157.84 17.9363C1162.41 18.4043 1164.17 19.2323 1164.17 21.0683V21.3923C1164.17 23.3363 1161.76 24.5603 1157.69 24.7763ZM1157.69 8.03634V9.58434C1161.65 9.87234 1164.17 11.3843 1164.17 13.5083V13.6523H1165.86V13.5083C1165.86 10.4843 1162.66 8.39634 1157.69 8.03634ZM1154.7 26.3243V24.7763C1150.53 24.4883 1148.01 23.0483 1148.01 20.8523V20.7083H1146.32V20.8523C1146.32 23.9123 1149.63 25.9643 1154.7 26.3243Z" fill="#17118B"/>
<path d="M1178.26 3.64434V2.09634C1173.37 2.49234 1170.42 5.04834 1170.42 9.00834V9.76434H1172.07V9.00834C1172.07 5.98434 1174.38 4.04034 1178.26 3.64434ZM1181.22 2.09634V3.64434C1184.82 4.00434 1186.98 5.69634 1186.98 8.28834V8.64834C1186.98 10.3763 1185.97 11.4923 1182.69 13.3643C1179.6 15.1283 1178.62 16.4963 1178.62 19.1243V20.5643H1180.21V19.1243C1180.21 17.0723 1181.07 15.9563 1184.02 14.3003C1187.44 12.3563 1188.7 10.8443 1188.7 8.68434V8.25234C1188.7 4.90434 1185.72 2.52834 1181.22 2.09634ZM1179.42 26.3963C1180.14 26.3963 1180.71 25.8923 1180.71 25.1003C1180.71 24.3443 1180.14 23.8403 1179.42 23.8403C1178.73 23.8403 1178.12 24.3443 1178.12 25.1003C1178.12 25.8923 1178.73 26.3963 1179.42 26.3963Z" fill="#17118B"/>
<path d="M1273.49 26.0003L1264.06 2.38434H1262.26V2.67234L1271.62 26.0003H1273.49ZM1275.15 22.2563L1282.38 4.68834L1290.99 26.0003H1292.82L1283.36 2.38434H1281.41L1274.21 19.8083L1275.15 22.2563ZM1293.58 19.8083L1294.52 22.2563L1302.47 2.67234V2.38434H1300.67L1293.58 19.8083Z" fill="#17118B"/>
<path d="M1307 26.0003H1308.69V0.944336H1307V26.0003ZM1311.64 9.44034V11.0963C1312.94 10.1243 1314.67 9.54834 1316.5 9.54834C1321.54 9.54834 1324.21 12.0323 1324.21 16.6763V26.0003H1325.9V16.6763C1325.9 10.9883 1322.66 7.96434 1316.72 7.96434C1314.81 7.96434 1313.01 8.50434 1311.64 9.44034Z" fill="#17118B"/>
<path d="M1339.69 9.69234V8.07234C1335.04 8.50434 1331.98 11.0603 1331.98 14.5163V14.8043H1333.64V14.5163C1333.64 11.9603 1336.09 10.0883 1339.69 9.69234ZM1342.64 8.07234V9.69234C1346.6 10.0523 1348.72 11.9963 1348.72 15.3083V22.2563C1348.72 24.5963 1350.27 26.0003 1352.9 26.0003H1354.81V24.4883H1353.22C1351.42 24.4883 1350.38 23.5523 1350.38 21.9323V15.3083C1350.38 11.0963 1347.57 8.46834 1342.64 8.07234ZM1345.88 24.7403L1345.77 23.1563C1344.19 24.2363 1341.99 24.8843 1339.51 24.8843C1335.55 24.8843 1333.57 23.8043 1333.57 21.6803C1333.57 19.6283 1335.19 18.5483 1338.79 18.1883L1345.77 17.4683V16.0283L1338.46 16.7843C1334 17.2523 1331.87 18.8363 1331.87 21.6803C1331.87 24.7763 1334.5 26.3963 1339.54 26.3963C1342.06 26.3963 1344.22 25.8203 1345.88 24.7403Z" fill="#17118B"/>
<path d="M1362.72 8.36034V3.57234H1361.06V7.64034C1361.06 8.18034 1360.88 8.36034 1360.34 8.36034H1353.79V9.87234H1371.57V8.36034H1362.72ZM1362.72 20.9963V12.8243H1361.03V21.0323C1361.03 24.1283 1362.93 26.0003 1366.17 26.0003H1370.49V24.4883H1366.28C1364.01 24.4883 1362.72 23.2283 1362.72 20.9963Z" fill="#17118B"/>
<path d="M1376.22 31.1483H1377.84L1380.86 22.5443V22.2563H1378.96L1376.22 31.1483Z" fill="#17118B"/>
<path d="M1402.77 26.0003H1404.46V0.944336H1402.77V26.0003ZM1407.41 9.44034V11.0963C1408.71 10.1243 1410.43 9.54834 1412.27 9.54834C1417.31 9.54834 1419.97 12.0323 1419.97 16.6763V26.0003H1421.67V16.6763C1421.67 10.9883 1418.43 7.96434 1412.49 7.96434C1410.58 7.96434 1408.78 8.50434 1407.41 9.44034Z" fill="#17118B"/>
<path d="M1435.78 9.62034V8.07234C1430.27 8.57634 1426.88 11.8163 1426.88 16.8563V17.6123C1426.88 22.5443 1430.27 25.7843 1435.78 26.2883V24.7043C1431.35 24.2363 1428.61 21.6443 1428.61 17.5763V16.8563C1428.61 12.7523 1431.28 10.1243 1435.78 9.62034ZM1438.73 8.07234V9.65634C1443.12 10.1243 1445.78 12.8243 1445.78 16.8563V17.5763C1445.78 21.6083 1443.08 24.2723 1438.73 24.7043V26.2883C1444.16 25.7843 1447.51 22.5443 1447.51 17.6123V16.8563C1447.51 11.8523 1444.16 8.57634 1438.73 8.07234Z" fill="#17118B"/>
<path d="M1460.55 26.0003L1452.41 8.36034H1450.65V8.64834L1458.64 26.0003H1460.55ZM1476.64 26.0003L1468.69 8.36034H1466.99L1461.31 20.4563L1462.21 22.5443L1467.86 10.4843L1474.84 26.0003H1476.64ZM1477.47 20.5643L1478.3 22.5443L1485.03 8.64834V8.36034H1483.34L1477.47 20.5643Z" fill="#17118B"/>
<path d="M1512.06 9.69234V8.07234C1507.41 8.50434 1504.35 11.0603 1504.35 14.5163V14.8043H1506.01V14.5163C1506.01 11.9603 1508.46 10.0883 1512.06 9.69234ZM1515.01 8.07234V9.69234C1518.97 10.0523 1521.09 11.9963 1521.09 15.3083V22.2563C1521.09 24.5963 1522.64 26.0003 1525.27 26.0003H1527.18V24.4883H1525.59C1523.79 24.4883 1522.75 23.5523 1522.75 21.9323V15.3083C1522.75 11.0963 1519.94 8.46834 1515.01 8.07234ZM1518.25 24.7403L1518.14 23.1563C1516.56 24.2363 1514.36 24.8843 1511.88 24.8843C1507.92 24.8843 1505.94 23.8043 1505.94 21.6803C1505.94 19.6283 1507.56 18.5483 1511.16 18.1883L1518.14 17.4683V16.0283L1510.83 16.7843C1506.37 17.2523 1504.25 18.8363 1504.25 21.6803C1504.25 24.7763 1506.87 26.3963 1511.91 26.3963C1514.43 26.3963 1516.59 25.8203 1518.25 24.7403Z" fill="#17118B"/>
<path d="M1535.38 9.44034V11.0963C1536.68 10.1243 1538.4 9.54834 1540.24 9.54834C1545.28 9.54834 1547.94 12.0323 1547.94 16.6763V26.0003H1549.64V16.6763C1549.64 10.9883 1546.4 7.96434 1540.46 7.96434C1538.55 7.96434 1536.75 8.50434 1535.38 9.44034ZM1530.74 26.0003H1532.43V8.36034H1530.74V26.0003Z" fill="#17118B"/>
<path d="M1574.9 26.0003V0.944336H1573.21V26.0003H1574.9ZM1570.26 9.40434C1568.82 8.50434 1566.95 7.96434 1564.97 7.96434C1558.78 7.96434 1554.85 11.3843 1554.85 16.8203V17.5403C1554.85 22.9763 1558.78 26.3963 1564.97 26.3963C1566.95 26.3963 1568.82 25.8563 1570.26 24.9563V23.3363C1568.93 24.2723 1567.13 24.8123 1565.22 24.8123C1559.89 24.8123 1556.58 22.0763 1556.58 17.5403V16.8203C1556.58 12.2843 1559.89 9.54834 1565.22 9.54834C1567.13 9.54834 1568.93 10.0883 1570.26 11.0243V9.40434Z" fill="#17118B"/>
<path d="M1604.73 26.0003L1596.59 8.36034H1594.83V8.64834L1602.82 26.0003H1604.73ZM1620.82 26.0003L1612.86 8.36034H1611.17L1605.48 20.4563L1606.38 22.5443L1612.03 10.4843L1619.02 26.0003H1620.82ZM1621.65 20.5643L1622.47 22.5443L1629.21 8.64834V8.36034H1627.51L1621.65 20.5643Z" fill="#17118B"/>
<path d="M1634.73 26.0003H1636.42V0.944336H1634.73V26.0003ZM1639.37 9.44034V11.0963C1640.67 10.1243 1642.4 9.54834 1644.23 9.54834C1649.27 9.54834 1651.94 12.0323 1651.94 16.6763V26.0003H1653.63V16.6763C1653.63 10.9883 1650.39 7.96434 1644.45 7.96434C1642.54 7.96434 1640.74 8.50434 1639.37 9.44034Z" fill="#17118B"/>
<path d="M1670.55 8.07234V9.65634C1674.58 10.1243 1677.1 12.5723 1677.21 16.2803H1660.61C1660.75 12.5723 1663.38 10.1243 1667.59 9.65634V8.07234C1662.23 8.57634 1658.85 11.8523 1658.85 16.7843V17.6123C1658.85 22.5083 1662.19 25.7843 1667.59 26.2883V24.7043C1663.27 24.2363 1660.61 21.6803 1660.61 17.7203H1678.97V16.6763C1678.97 11.7803 1675.73 8.57634 1670.55 8.07234ZM1670.55 24.7403V26.2883C1675.55 25.8923 1678.82 23.4083 1678.97 19.7003H1677.17C1677.1 22.4363 1674.51 24.3803 1670.55 24.7403Z" fill="#17118B"/>
<path d="M1689.12 9.44034V11.0963C1690.41 10.1243 1692.14 9.54834 1693.98 9.54834C1699.02 9.54834 1701.68 12.0323 1701.68 16.6763V26.0003H1703.37V16.6763C1703.37 10.9883 1700.13 7.96434 1694.19 7.96434C1692.29 7.96434 1690.49 8.50434 1689.12 9.44034ZM1684.47 26.0003H1686.17V8.36034H1684.47V26.0003Z" fill="#17118B"/>
<path d="M1732.91 26.0003L1724.77 8.36034H1723.01V8.64834L1731 26.0003H1732.91ZM1749 26.0003L1741.04 8.36034H1739.35L1733.66 20.4563L1734.56 22.5443L1740.21 10.4843L1747.2 26.0003H1749ZM1749.83 20.5643L1750.65 22.5443L1757.39 8.64834V8.36034H1755.69L1749.83 20.5643Z" fill="#17118B"/>
<path d="M1769.44 9.62034V8.07234C1763.94 8.57634 1760.55 11.8163 1760.55 16.8563V17.6123C1760.55 22.5443 1763.94 25.7843 1769.44 26.2883V24.7043C1765.02 24.2363 1762.28 21.6443 1762.28 17.5763V16.8563C1762.28 12.7523 1764.94 10.1243 1769.44 9.62034ZM1772.4 8.07234V9.65634C1776.79 10.1243 1779.45 12.8243 1779.45 16.8563V17.5763C1779.45 21.6083 1776.75 24.2723 1772.4 24.7043V26.2883C1777.83 25.7843 1781.18 22.5443 1781.18 17.6123V16.8563C1781.18 11.8523 1777.83 8.57634 1772.4 8.07234Z" fill="#17118B"/>
<path d="M1787.5 8.36034V26.0003H1789.16V8.36034H1787.5ZM1792.11 9.51234V11.0963C1793.15 10.3403 1794.56 9.87234 1796.18 9.87234H1799.81V8.36034H1796.25C1794.66 8.36034 1793.22 8.75634 1792.11 9.51234Z" fill="#17118B"/>
<path d="M1803.69 26.0003H1805.38V0.944336H1803.69V26.0003ZM1808.37 16.9643V18.8003L1822.77 8.64834V8.36034H1820.57L1808.37 16.9643ZM1814.56 17.9363L1813.23 19.0163L1821.15 26.0003H1823.27V25.7123L1814.56 17.9363Z" fill="#17118B"/>
<path d="M1837.44 24.7763V26.3243C1842.51 26.0363 1845.65 24.2363 1845.65 21.3923V21.0323C1845.65 18.2963 1843.27 16.9643 1837.65 16.4243L1833.98 16.1003C1830.13 15.7763 1828.58 14.8763 1828.58 13.1123V12.7883C1828.58 10.9883 1830.74 9.80034 1834.45 9.58434V8.03634C1829.7 8.32434 1826.85 10.0883 1826.85 12.8243V13.1843C1826.85 15.7763 1829.01 17.1443 1833.95 17.5763L1837.58 17.9363C1842.15 18.4043 1843.92 19.2323 1843.92 21.0683V21.3923C1843.92 23.3363 1841.51 24.5603 1837.44 24.7763ZM1837.44 8.03634V9.58434C1841.4 9.87234 1843.92 11.3843 1843.92 13.5083V13.6523H1845.61V13.5083C1845.61 10.4843 1842.41 8.39634 1837.44 8.03634ZM1834.45 26.3243V24.7763C1830.27 24.4883 1827.75 23.0483 1827.75 20.8523V20.7083H1826.06V20.8523C1826.06 23.9123 1829.37 25.9643 1834.45 26.3243Z" fill="#17118B"/>
<path d="M1867.82 4.72434C1868.61 4.72434 1869.18 4.14834 1869.18 3.39234C1869.18 2.63634 1868.61 2.09634 1867.82 2.09634C1867.02 2.09634 1866.45 2.63634 1866.45 3.39234C1866.45 4.14834 1867.06 4.72434 1867.82 4.72434ZM1866.99 26.0003H1868.64V8.36034H1866.99V26.0003Z" fill="#17118B"/>
<path d="M1881.11 9.44034V11.0963C1882.4 10.1243 1884.13 9.54834 1885.97 9.54834C1891.01 9.54834 1893.67 12.0323 1893.67 16.6763V26.0003H1895.36V16.6763C1895.36 10.9883 1892.12 7.96434 1886.18 7.96434C1884.27 7.96434 1882.47 8.50434 1881.11 9.44034ZM1876.46 26.0003H1878.15V8.36034H1876.46V26.0003Z" fill="#17118B"/>
<path d="M1926.69 8.07234V9.65634C1930.73 10.1243 1933.25 12.5723 1933.35 16.2803H1916.76C1916.9 12.5723 1919.53 10.1243 1923.74 9.65634V8.07234C1918.38 8.57634 1914.99 11.8523 1914.99 16.7843V17.6123C1914.99 22.5083 1918.34 25.7843 1923.74 26.2883V24.7043C1919.42 24.2363 1916.76 21.6803 1916.76 17.7203H1935.12V16.6763C1935.12 11.7803 1931.88 8.57634 1926.69 8.07234ZM1926.69 24.7403V26.2883C1931.7 25.8923 1934.97 23.4083 1935.12 19.7003H1933.32C1933.25 22.4363 1930.65 24.3803 1926.69 24.7403Z" fill="#17118B"/>
<path d="M1959.2 26.0003V0.944336H1957.51V26.0003H1959.2ZM1954.55 9.40434C1953.11 8.50434 1951.24 7.96434 1949.26 7.96434C1943.07 7.96434 1939.15 11.3843 1939.15 16.8203V17.5403C1939.15 22.9763 1943.07 26.3963 1949.26 26.3963C1951.24 26.3963 1953.11 25.8563 1954.55 24.9563V23.3363C1953.22 24.2723 1951.42 24.8123 1949.51 24.8123C1944.19 24.8123 1940.87 22.0763 1940.87 17.5403V16.8203C1940.87 12.2843 1944.19 9.54834 1949.51 9.54834C1951.42 9.54834 1953.22 10.0883 1954.55 11.0243V9.40434Z" fill="#17118B"/>
<path d="M1980.15 24.9203V23.2643C1978.89 24.2363 1977.16 24.8123 1975.29 24.8123C1970.25 24.8123 1967.58 22.3283 1967.58 17.6843V8.36034H1965.89V17.6843C1965.89 23.3723 1969.13 26.3963 1975.07 26.3963C1976.98 26.3963 1978.78 25.8563 1980.15 24.9203ZM1984.79 8.36034H1983.1V26.0003H1984.79V8.36034Z" fill="#17118B"/>
<path d="M1999.19 9.65634V8.07234C1993.72 8.57634 1990.3 11.8523 1990.3 16.7843V17.5763C1990.3 22.5083 1993.72 25.7843 1999.19 26.2883V24.6683C1994.73 24.2363 1992.03 21.6083 1992.03 17.5763V16.7843C1992.03 12.7523 1994.73 10.1243 1999.19 9.65634ZM2002.14 8.07234V9.65634C2006.03 10.0883 2008.77 12.2843 2008.77 15.1643V15.3803H2010.49V15.1643C2010.49 11.4203 2007 8.54034 2002.14 8.07234ZM2002.14 24.6683V26.2883C2007.04 25.8203 2010.49 22.9763 2010.49 19.2323V19.0163H2008.77V19.2323C2008.77 22.0763 2006.03 24.2723 2002.14 24.6683Z" fill="#17118B"/>
<path d="M2022.98 9.69234V8.07234C2018.34 8.50434 2015.28 11.0603 2015.28 14.5163V14.8043H2016.94V14.5163C2016.94 11.9603 2019.38 10.0883 2022.98 9.69234ZM2025.94 8.07234V9.69234C2029.9 10.0523 2032.02 11.9963 2032.02 15.3083V22.2563C2032.02 24.5963 2033.57 26.0003 2036.2 26.0003H2038.1V24.4883H2036.52C2034.72 24.4883 2033.68 23.5523 2033.68 21.9323V15.3083C2033.68 11.0963 2030.87 8.46834 2025.94 8.07234ZM2029.18 24.7403L2029.07 23.1563C2027.48 24.2363 2025.29 24.8843 2022.8 24.8843C2018.84 24.8843 2016.86 23.8043 2016.86 21.6803C2016.86 19.6283 2018.48 18.5483 2022.08 18.1883L2029.07 17.4683V16.0283L2021.76 16.7843C2017.3 17.2523 2015.17 18.8363 2015.17 21.6803C2015.17 24.7763 2017.8 26.3963 2022.84 26.3963C2025.36 26.3963 2027.52 25.8203 2029.18 24.7403Z" fill="#17118B"/>
<path d="M2046.01 8.36034V3.57234H2044.36V7.64034C2044.36 8.18034 2044.18 8.36034 2043.64 8.36034H2037.09V9.87234H2054.87V8.36034H2046.01ZM2046.01 20.9963V12.8243H2044.32V21.0323C2044.32 24.1283 2046.23 26.0003 2049.47 26.0003H2053.79V24.4883H2049.58C2047.31 24.4883 2046.01 23.2283 2046.01 20.9963Z" fill="#17118B"/>
<path d="M2060.61 4.72434C2061.41 4.72434 2061.98 4.14834 2061.98 3.39234C2061.98 2.63634 2061.41 2.09634 2060.61 2.09634C2059.82 2.09634 2059.25 2.63634 2059.25 3.39234C2059.25 4.14834 2059.86 4.72434 2060.61 4.72434ZM2059.79 26.0003H2061.44V8.36034H2059.79V26.0003Z" fill="#17118B"/>
<path d="M2076.67 9.62034V8.07234C2071.17 8.57634 2067.78 11.8163 2067.78 16.8563V17.6123C2067.78 22.5443 2071.17 25.7843 2076.67 26.2883V24.7043C2072.25 24.2363 2069.51 21.6443 2069.51 17.5763V16.8563C2069.51 12.7523 2072.17 10.1243 2076.67 9.62034ZM2079.63 8.07234V9.65634C2084.02 10.1243 2086.68 12.8243 2086.68 16.8563V17.5763C2086.68 21.6083 2083.98 24.2723 2079.63 24.7043V26.2883C2085.06 25.7843 2088.41 22.5443 2088.41 17.6123V16.8563C2088.41 11.8523 2085.06 8.57634 2079.63 8.07234Z" fill="#17118B"/>
<path d="M2098.55 9.44034V11.0963C2099.84 10.1243 2101.57 9.54834 2103.41 9.54834C2108.45 9.54834 2111.11 12.0323 2111.11 16.6763V26.0003H2112.8V16.6763C2112.8 10.9883 2109.56 7.96434 2103.62 7.96434C2101.72 7.96434 2099.92 8.50434 2098.55 9.44034ZM2093.9 26.0003H2095.59V8.36034H2093.9V26.0003Z" fill="#17118B"/>
<path d="M2126.59 9.69234V8.07234C2121.94 8.50434 2118.88 11.0603 2118.88 14.5163V14.8043H2120.54V14.5163C2120.54 11.9603 2122.99 10.0883 2126.59 9.69234ZM2129.54 8.07234V9.69234C2133.5 10.0523 2135.62 11.9963 2135.62 15.3083V22.2563C2135.62 24.5963 2137.17 26.0003 2139.8 26.0003H2141.71V24.4883H2140.12C2138.32 24.4883 2137.28 23.5523 2137.28 21.9323V15.3083C2137.28 11.0963 2134.47 8.46834 2129.54 8.07234ZM2132.78 24.7403L2132.67 23.1563C2131.09 24.2363 2128.89 24.8843 2126.41 24.8843C2122.45 24.8843 2120.47 23.8043 2120.47 21.6803C2120.47 19.6283 2122.09 18.5483 2125.69 18.1883L2132.67 17.4683V16.0283L2125.36 16.7843C2120.9 17.2523 2118.78 18.8363 2118.78 21.6803C2118.78 24.7763 2121.4 26.3963 2126.44 26.3963C2128.96 26.3963 2131.12 25.8203 2132.78 24.7403Z" fill="#17118B"/>
<path d="M2150.7 26.0003H2152.47V24.4883H2150.95C2148.65 24.4883 2147.75 23.6603 2147.75 21.5363V0.944336H2146.09V21.7883C2146.09 24.6683 2147.53 26.0003 2150.7 26.0003Z" fill="#17118B"/>
<path d="M2176.94 8.36034V3.57234H2175.28V7.64034C2175.28 8.18034 2175.1 8.36034 2174.56 8.36034H2168.01V9.87234H2185.79V8.36034H2176.94ZM2176.94 20.9963V12.8243H2175.24V21.0323C2175.24 24.1283 2177.15 26.0003 2180.39 26.0003H2184.71V24.4883H2180.5C2178.23 24.4883 2176.94 23.2283 2176.94 20.9963Z" fill="#17118B"/>
<path d="M2199.44 8.07234V9.65634C2203.47 10.1243 2205.99 12.5723 2206.1 16.2803H2189.5C2189.64 12.5723 2192.27 10.1243 2196.48 9.65634V8.07234C2191.12 8.57634 2187.74 11.8523 2187.74 16.7843V17.6123C2187.74 22.5083 2191.08 25.7843 2196.48 26.2883V24.7043C2192.16 24.2363 2189.5 21.6803 2189.5 17.7203H2207.86V16.6763C2207.86 11.7803 2204.62 8.57634 2199.44 8.07234ZM2199.44 24.7403V26.2883C2204.44 25.8923 2207.72 23.4083 2207.86 19.7003H2206.06C2205.99 22.4363 2203.4 24.3803 2199.44 24.7403Z" fill="#17118B"/>
<path d="M2220.78 9.65634V8.07234C2215.31 8.57634 2211.89 11.8523 2211.89 16.7843V17.5763C2211.89 22.5083 2215.31 25.7843 2220.78 26.2883V24.6683C2216.32 24.2363 2213.62 21.6083 2213.62 17.5763V16.7843C2213.62 12.7523 2216.32 10.1243 2220.78 9.65634ZM2223.73 8.07234V9.65634C2227.62 10.0883 2230.36 12.2843 2230.36 15.1643V15.3803H2232.08V15.1643C2232.08 11.4203 2228.59 8.54034 2223.73 8.07234ZM2223.73 24.6683V26.2883C2228.63 25.8203 2232.08 22.9763 2232.08 19.2323V19.0163H2230.36V19.2323C2230.36 22.0763 2227.62 24.2723 2223.73 24.6683Z" fill="#17118B"/>
<path d="M2237.48 26.0003H2239.17V0.944336H2237.48V26.0003ZM2242.13 9.44034V11.0963C2243.42 10.1243 2245.15 9.54834 2246.99 9.54834C2252.03 9.54834 2254.69 12.0323 2254.69 16.6763V26.0003H2256.38V16.6763C2256.38 10.9883 2253.14 7.96434 2247.2 7.96434C2245.29 7.96434 2243.49 8.50434 2242.13 9.44034Z" fill="#17118B"/>
<path d="M2267.72 9.44034V11.0963C2269.01 10.1243 2270.74 9.54834 2272.58 9.54834C2277.62 9.54834 2280.28 12.0323 2280.28 16.6763V26.0003H2281.97V16.6763C2281.97 10.9883 2278.73 7.96434 2272.79 7.96434C2270.89 7.96434 2269.09 8.50434 2267.72 9.44034ZM2263.07 26.0003H2264.77V8.36034H2263.07V26.0003Z" fill="#17118B"/>
<path d="M2296.08 9.62034V8.07234C2290.58 8.57634 2287.19 11.8163 2287.19 16.8563V17.6123C2287.19 22.5443 2290.58 25.7843 2296.08 26.2883V24.7043C2291.66 24.2363 2288.92 21.6443 2288.92 17.5763V16.8563C2288.92 12.7523 2291.58 10.1243 2296.08 9.62034ZM2299.04 8.07234V9.65634C2303.43 10.1243 2306.09 12.8243 2306.09 16.8563V17.5763C2306.09 21.6083 2303.39 24.2723 2299.04 24.7043V26.2883C2304.47 25.7843 2307.82 22.5443 2307.82 17.6123V16.8563C2307.82 11.8523 2304.47 8.57634 2299.04 8.07234Z" fill="#17118B"/>
<path d="M2318.75 26.0003H2320.51V24.4883H2319C2316.7 24.4883 2315.8 23.6603 2315.8 21.5363V0.944336H2314.14V21.7883C2314.14 24.6683 2315.58 26.0003 2318.75 26.0003Z" fill="#17118B"/>
<path d="M2332.23 9.62034V8.07234C2326.72 8.57634 2323.33 11.8163 2323.33 16.8563V17.6123C2323.33 22.5443 2326.72 25.7843 2332.23 26.2883V24.7043C2327.8 24.2363 2325.06 21.6443 2325.06 17.5763V16.8563C2325.06 12.7523 2327.73 10.1243 2332.23 9.62034ZM2335.18 8.07234V9.65634C2339.57 10.1243 2342.23 12.8243 2342.23 16.8563V17.5763C2342.23 21.6083 2339.53 24.2723 2335.18 24.7043V26.2883C2340.61 25.7843 2343.96 22.5443 2343.96 17.6123V16.8563C2343.96 11.8523 2340.61 8.57634 2335.18 8.07234Z" fill="#17118B"/>
<path d="M2363.35 23.9483V22.3643C2361.95 23.3363 2360.07 23.9123 2358.09 23.9123C2352.69 23.9123 2349.67 21.4643 2349.67 17.1083V16.3883C2349.67 12.0323 2352.73 9.51234 2358.09 9.51234C2360.07 9.51234 2361.95 10.1243 2363.35 11.0963V9.47634C2361.87 8.50434 2359.93 7.96434 2357.91 7.96434C2351.72 7.96434 2347.94 11.0963 2347.94 16.3883V17.1083C2347.94 22.4003 2351.69 25.4603 2357.91 25.4603C2359.93 25.4603 2361.84 24.8843 2363.35 23.9483ZM2359.5 30.8603V32.4443C2364.93 32.0483 2367.99 29.4203 2367.99 25.0283V8.36034H2366.3V25.0643C2366.3 28.4123 2363.85 30.5003 2359.5 30.8603ZM2356.55 32.4443V30.8603C2352.44 30.5003 2349.71 28.6283 2349.71 25.9643V25.6763H2348.01V25.9643C2348.01 29.6003 2351.29 32.0483 2356.55 32.4443Z" fill="#17118B"/>
<path d="M2376.63 4.72434C2377.43 4.72434 2378 4.14834 2378 3.39234C2378 2.63634 2377.43 2.09634 2376.63 2.09634C2375.84 2.09634 2375.27 2.63634 2375.27 3.39234C2375.27 4.14834 2375.88 4.72434 2376.63 4.72434ZM2375.81 26.0003H2377.46V8.36034H2375.81V26.0003Z" fill="#17118B"/>
<path d="M2395.5 8.07234V9.65634C2399.53 10.1243 2402.05 12.5723 2402.16 16.2803H2385.57C2385.71 12.5723 2388.34 10.1243 2392.55 9.65634V8.07234C2387.19 8.57634 2383.8 11.8523 2383.8 16.7843V17.6123C2383.8 22.5083 2387.15 25.7843 2392.55 26.2883V24.7043C2388.23 24.2363 2385.57 21.6803 2385.57 17.7203H2403.93V16.6763C2403.93 11.7803 2400.69 8.57634 2395.5 8.07234ZM2395.5 24.7403V26.2883C2400.51 25.8923 2403.78 23.4083 2403.93 19.7003H2402.13C2402.05 22.4363 2399.46 24.3803 2395.5 24.7403Z" fill="#17118B"/>
<path d="M2419.91 24.7763V26.3243C2424.98 26.0363 2428.11 24.2363 2428.11 21.3923V21.0323C2428.11 18.2963 2425.74 16.9643 2420.12 16.4243L2416.45 16.1003C2412.6 15.7763 2411.05 14.8763 2411.05 13.1123V12.7883C2411.05 10.9883 2413.21 9.80034 2416.92 9.58434V8.03634C2412.17 8.32434 2409.32 10.0883 2409.32 12.8243V13.1843C2409.32 15.7763 2411.48 17.1443 2416.41 17.5763L2420.05 17.9363C2424.62 18.4043 2426.39 19.2323 2426.39 21.0683V21.3923C2426.39 23.3363 2423.97 24.5603 2419.91 24.7763ZM2419.91 8.03634V9.58434C2423.87 9.87234 2426.39 11.3843 2426.39 13.5083V13.6523H2428.08V13.5083C2428.08 10.4843 2424.87 8.39634 2419.91 8.03634ZM2416.92 26.3243V24.7763C2412.74 24.4883 2410.22 23.0483 2410.22 20.8523V20.7083H2408.53V20.8523C2408.53 23.9123 2411.84 25.9643 2416.92 26.3243Z" fill="#17118B"/>
<path d="M2440.48 3.64434V2.09634C2435.58 2.49234 2432.63 5.04834 2432.63 9.00834V9.76434H2434.29V9.00834C2434.29 5.98434 2436.59 4.04034 2440.48 3.64434ZM2443.43 2.09634V3.64434C2447.03 4.00434 2449.19 5.69634 2449.19 8.28834V8.64834C2449.19 10.3763 2448.18 11.4923 2444.91 13.3643C2441.81 15.1283 2440.84 16.4963 2440.84 19.1243V20.5643H2442.42V19.1243C2442.42 17.0723 2443.29 15.9563 2446.24 14.3003C2449.66 12.3563 2450.92 10.8443 2450.92 8.68434V8.25234C2450.92 4.90434 2447.93 2.52834 2443.43 2.09634ZM2441.63 26.3963C2442.35 26.3963 2442.93 25.8923 2442.93 25.1003C2442.93 24.3443 2442.35 23.8403 2441.63 23.8403C2440.95 23.8403 2440.34 24.3443 2440.34 25.1003C2440.34 25.8923 2440.95 26.3963 2441.63 26.3963Z" fill="#17118B"/>
</svg>
