<svg width="1926" height="32" viewBox="0 0 1926 32" fill="none" xmlns="http://www.w3.org/2000/svg">
<path d="M11.2759 25.9998L1.84395 2.38385H0.0439453V2.67185L9.40394 25.9998H11.2759ZM12.9319 22.2558L20.1679 4.68785L28.7719 25.9998H30.6079L21.1399 2.38385H19.1959L11.9959 19.8078L12.9319 22.2558ZM31.3639 19.8078L32.2999 22.2558L40.2559 2.67185V2.38385H38.4559L31.3639 19.8078Z" fill="#17118B"/>
<path d="M44.7849 25.9998H46.4769V0.943848H44.7849V25.9998ZM49.4289 9.43985V11.0958C50.7249 10.1238 52.4529 9.54785 54.2889 9.54785C59.3289 9.54785 61.9929 12.0318 61.9929 16.6758V25.9998H63.6849V16.6758C63.6849 10.9878 60.4449 7.96385 54.5049 7.96385C52.5969 7.96385 50.7969 8.50385 49.4289 9.43985Z" fill="#17118B"/>
<path d="M77.4707 9.69185V8.07185C72.8267 8.50385 69.7667 11.0598 69.7667 14.5158V14.8038H71.4227V14.5158C71.4227 11.9598 73.8707 10.0878 77.4707 9.69185ZM80.4227 8.07185V9.69185C84.3827 10.0518 86.5067 11.9958 86.5067 15.3078V22.2558C86.5067 24.5958 88.0547 25.9998 90.6827 25.9998H92.5907V24.4878H91.0067C89.2067 24.4878 88.1627 23.5518 88.1627 21.9318V15.3078C88.1627 11.0958 85.3547 8.46785 80.4227 8.07185ZM83.6627 24.7398L83.5547 23.1558C81.9707 24.2358 79.7747 24.8838 77.2907 24.8838C73.3307 24.8838 71.3507 23.8038 71.3507 21.6798C71.3507 19.6278 72.9707 18.5478 76.5707 18.1878L83.5547 17.4678V16.0278L76.2467 16.7838C71.7827 17.2518 69.6587 18.8358 69.6587 21.6798C69.6587 24.7758 72.2867 26.3958 77.3267 26.3958C79.8467 26.3958 82.0067 25.8198 83.6627 24.7398Z" fill="#17118B"/>
<path d="M100.502 8.35985V3.57185H98.8459V7.63985C98.8459 8.17985 98.6659 8.35985 98.1259 8.35985H91.5739V9.87185H109.358V8.35985H100.502ZM100.502 20.9958V12.8238H98.8099V21.0318C98.8099 24.1278 100.718 25.9998 103.958 25.9998H108.278V24.4878H104.066C101.798 24.4878 100.502 23.2278 100.502 20.9958Z" fill="#17118B"/>
<path d="M114.005 31.1479H115.625L118.649 22.5438V22.2558H116.741L114.005 31.1479Z" fill="#17118B"/>
<path d="M142.639 25.9998V2.38385H140.875V25.9998H142.639ZM145.591 13.3998V14.9838H160.963V25.9998H162.727V2.38385H160.963V13.3998H145.591Z" fill="#17118B"/>
<path d="M177.463 9.61985V8.07185C171.955 8.57585 168.571 11.8158 168.571 16.8558V17.6118C168.571 22.5438 171.955 25.7838 177.463 26.2878V24.7038C173.035 24.2358 170.299 21.6438 170.299 17.5758V16.8558C170.299 12.7518 172.963 10.1238 177.463 9.61985ZM180.415 8.07185V9.65585C184.807 10.1238 187.471 12.8238 187.471 16.8558V17.5758C187.471 21.6078 184.771 24.2718 180.415 24.7038V26.2878C185.851 25.7838 189.199 22.5438 189.199 17.6118V16.8558C189.199 11.8518 185.851 8.57585 180.415 8.07185Z" fill="#17118B"/>
<path d="M202.236 25.9998L194.1 8.35985H192.336V8.64785L200.328 25.9998H202.236ZM218.328 25.9998L210.372 8.35985H208.68L202.992 20.4558L203.892 22.5438L209.544 10.4838L216.528 25.9998H218.328ZM219.156 20.5638L219.984 22.5438L226.716 8.64785V8.35985H225.024L219.156 20.5638Z" fill="#17118B"/>
<path d="M254.752 3.64385V2.09585C250.288 2.41985 247.516 4.32785 247.516 7.20785V7.49585C247.516 9.51185 248.56 10.6638 251.692 12.7158L272.068 25.9998H274.588V25.7118L252.664 11.4198C250.144 9.76385 249.244 8.86385 249.244 7.49585V7.17185C249.244 5.15585 251.26 3.89585 254.752 3.64385ZM258.856 11.9238L260.332 12.9318C263.896 11.4918 265.084 10.0878 265.084 7.71185V7.35185C265.084 4.47185 262.168 2.41985 257.704 2.09585V3.64385C261.196 3.93185 263.356 5.37185 263.356 7.38785V7.71185C263.356 9.54785 262.384 10.5558 258.856 11.9238ZM267.784 17.7558L269.188 18.6918L274.948 13.0758V12.8238H272.824L267.784 17.7558ZM263.212 23.8038L261.592 22.7238C259.54 24.1638 257.488 24.8118 255.112 24.8118C250.036 24.8118 247.048 23.1918 247.048 20.3838V20.0238C247.048 18.3678 248.02 17.4678 251.404 16.0998L249.964 15.1278C246.508 16.6398 245.32 18.0078 245.32 20.0958V20.4558C245.32 24.0918 249.1 26.3958 255.148 26.3958C258.172 26.3958 260.656 25.6038 263.212 23.8038Z" fill="#17118B"/>
<path d="M300.682 25.9998L291.25 2.38385H289.45V2.67185L298.81 25.9998H300.682ZM302.338 22.2558L309.574 4.68785L318.178 25.9998H320.014L310.546 2.38385H308.602L301.402 19.8078L302.338 22.2558ZM320.77 19.8078L321.706 22.2558L329.662 2.67185V2.38385H327.862L320.77 19.8078Z" fill="#17118B"/>
<path d="M334.191 25.9998H335.883V0.943848H334.191V25.9998ZM338.835 9.43985V11.0958C340.131 10.1238 341.859 9.54785 343.695 9.54785C348.735 9.54785 351.399 12.0318 351.399 16.6758V25.9998H353.091V16.6758C353.091 10.9878 349.851 7.96385 343.911 7.96385C342.003 7.96385 340.203 8.50385 338.835 9.43985Z" fill="#17118B"/>
<path d="M370.009 8.07185V9.65585C374.041 10.1238 376.561 12.5718 376.669 16.2798H360.073C360.217 12.5718 362.845 10.1238 367.057 9.65585V8.07185C361.693 8.57585 358.309 11.8518 358.309 16.7838V17.6118C358.309 22.5078 361.657 25.7838 367.057 26.2878V24.7038C362.737 24.2358 360.073 21.6798 360.073 17.7198H378.433V16.6758C378.433 11.7798 375.193 8.57585 370.009 8.07185ZM370.009 24.7398V26.2878C375.013 25.8918 378.289 23.4078 378.433 19.6998H376.633C376.561 22.4358 373.969 24.3798 370.009 24.7398Z" fill="#17118B"/>
<path d="M388.581 9.43985V11.0958C389.877 10.1238 391.605 9.54785 393.441 9.54785C398.481 9.54785 401.145 12.0318 401.145 16.6758V25.9998H402.837V16.6758C402.837 10.9878 399.597 7.96385 393.657 7.96385C391.749 7.96385 389.949 8.50385 388.581 9.43985ZM383.937 25.9998H385.629V8.35985H383.937V25.9998Z" fill="#17118B"/>
<path d="M415.795 3.64385V2.09585C410.899 2.49185 407.947 5.04785 407.947 9.00785V9.76385H409.603V9.00785C409.603 5.98385 411.907 4.03985 415.795 3.64385ZM418.747 2.09585V3.64385C422.347 4.00385 424.507 5.69585 424.507 8.28785V8.64785C424.507 10.3758 423.499 11.4918 420.223 13.3638C417.127 15.1278 416.155 16.4958 416.155 19.1238V20.5638H417.739V19.1238C417.739 17.0718 418.603 15.9558 421.555 14.2998C424.975 12.3558 426.235 10.8438 426.235 8.68385V8.25185C426.235 4.90385 423.247 2.52785 418.747 2.09585ZM416.947 26.3958C417.667 26.3958 418.243 25.8918 418.243 25.0998C418.243 24.3438 417.667 23.8398 416.947 23.8398C416.263 23.8398 415.651 24.3438 415.651 25.0998C415.651 25.8918 416.263 26.3958 416.947 26.3958Z" fill="#17118B"/>
<path d="M511.022 25.9998L501.59 2.38385H499.79V2.67185L509.15 25.9998H511.022ZM512.678 22.2558L519.914 4.68785L528.518 25.9998H530.354L520.886 2.38385H518.942L511.742 19.8078L512.678 22.2558ZM531.11 19.8078L532.046 22.2558L540.002 2.67185V2.38385H538.202L531.11 19.8078Z" fill="#17118B"/>
<path d="M544.531 25.9998H546.223V0.943848H544.531V25.9998ZM549.175 9.43985V11.0958C550.471 10.1238 552.199 9.54785 554.035 9.54785C559.075 9.54785 561.739 12.0318 561.739 16.6758V25.9998H563.431V16.6758C563.431 10.9878 560.191 7.96385 554.251 7.96385C552.343 7.96385 550.543 8.50385 549.175 9.43985Z" fill="#17118B"/>
<path d="M577.217 9.69185V8.07185C572.573 8.50385 569.513 11.0598 569.513 14.5158V14.8038H571.169V14.5158C571.169 11.9598 573.617 10.0878 577.217 9.69185ZM580.169 8.07185V9.69185C584.129 10.0518 586.253 11.9958 586.253 15.3078V22.2558C586.253 24.5958 587.801 25.9998 590.429 25.9998H592.337V24.4878H590.753C588.953 24.4878 587.909 23.5518 587.909 21.9318V15.3078C587.909 11.0958 585.101 8.46785 580.169 8.07185ZM583.409 24.7398L583.301 23.1558C581.717 24.2358 579.521 24.8838 577.037 24.8838C573.077 24.8838 571.097 23.8038 571.097 21.6798C571.097 19.6278 572.717 18.5478 576.317 18.1878L583.301 17.4678V16.0278L575.993 16.7838C571.529 17.2518 569.405 18.8358 569.405 21.6798C569.405 24.7758 572.033 26.3958 577.073 26.3958C579.593 26.3958 581.753 25.8198 583.409 24.7398Z" fill="#17118B"/>
<path d="M600.248 8.35985V3.57185H598.592V7.63985C598.592 8.17985 598.412 8.35985 597.872 8.35985H591.32V9.87185H609.104V8.35985H600.248ZM600.248 20.9958V12.8238H598.556V21.0318C598.556 24.1278 600.464 25.9998 603.704 25.9998H608.024V24.4878H603.812C601.544 24.4878 600.248 23.2278 600.248 20.9958Z" fill="#17118B"/>
<path d="M613.751 31.1479H615.371L618.395 22.5438V22.2558H616.487L613.751 31.1479Z" fill="#17118B"/>
<path d="M642.385 25.9998V2.38385H640.621V25.9998H642.385ZM645.337 13.3998V14.9838H660.709V25.9998H662.473V2.38385H660.709V13.3998H645.337Z" fill="#17118B"/>
<path d="M677.209 9.61985V8.07185C671.701 8.57585 668.317 11.8158 668.317 16.8558V17.6118C668.317 22.5438 671.701 25.7838 677.209 26.2878V24.7038C672.781 24.2358 670.045 21.6438 670.045 17.5758V16.8558C670.045 12.7518 672.709 10.1238 677.209 9.61985ZM680.161 8.07185V9.65585C684.553 10.1238 687.217 12.8238 687.217 16.8558V17.5758C687.217 21.6078 684.517 24.2718 680.161 24.7038V26.2878C685.597 25.7838 688.945 22.5438 688.945 17.6118V16.8558C688.945 11.8518 685.597 8.57585 680.161 8.07185Z" fill="#17118B"/>
<path d="M701.982 25.9998L693.846 8.35985H692.082V8.64785L700.074 25.9998H701.982ZM718.074 25.9998L710.118 8.35985H708.426L702.738 20.4558L703.638 22.5438L709.29 10.4838L716.274 25.9998H718.074ZM718.902 20.5638L719.73 22.5438L726.462 8.64785V8.35985H724.77L718.902 20.5638Z" fill="#17118B"/>
<path d="M754.498 3.64385V2.09585C750.034 2.41985 747.262 4.32785 747.262 7.20785V7.49585C747.262 9.51185 748.306 10.6638 751.438 12.7158L771.814 25.9998H774.334V25.7118L752.41 11.4198C749.89 9.76385 748.99 8.86385 748.99 7.49585V7.17185C748.99 5.15585 751.006 3.89585 754.498 3.64385ZM758.602 11.9238L760.078 12.9318C763.642 11.4918 764.83 10.0878 764.83 7.71185V7.35185C764.83 4.47185 761.914 2.41985 757.45 2.09585V3.64385C760.942 3.93185 763.102 5.37185 763.102 7.38785V7.71185C763.102 9.54785 762.13 10.5558 758.602 11.9238ZM767.53 17.7558L768.934 18.6918L774.694 13.0758V12.8238H772.57L767.53 17.7558ZM762.958 23.8038L761.338 22.7238C759.286 24.1638 757.234 24.8118 754.858 24.8118C749.782 24.8118 746.794 23.1918 746.794 20.3838V20.0238C746.794 18.3678 747.766 17.4678 751.15 16.0998L749.71 15.1278C746.254 16.6398 745.066 18.0078 745.066 20.0958V20.4558C745.066 24.0918 748.846 26.3958 754.894 26.3958C757.918 26.3958 760.402 25.6038 762.958 23.8038Z" fill="#17118B"/>
<path d="M800.428 25.9998L790.996 2.38385H789.196V2.67185L798.556 25.9998H800.428ZM802.084 22.2558L809.32 4.68785L817.924 25.9998H819.76L810.292 2.38385H808.348L801.148 19.8078L802.084 22.2558ZM820.516 19.8078L821.452 22.2558L829.408 2.67185V2.38385H827.608L820.516 19.8078Z" fill="#17118B"/>
<path d="M833.937 25.9998H835.629V0.943848H833.937V25.9998ZM838.581 9.43985V11.0958C839.877 10.1238 841.605 9.54785 843.441 9.54785C848.481 9.54785 851.145 12.0318 851.145 16.6758V25.9998H852.837V16.6758C852.837 10.9878 849.597 7.96385 843.657 7.96385C841.749 7.96385 839.949 8.50385 838.581 9.43985Z" fill="#17118B"/>
<path d="M869.755 8.07185V9.65585C873.787 10.1238 876.307 12.5718 876.415 16.2798H859.819C859.963 12.5718 862.591 10.1238 866.803 9.65585V8.07185C861.439 8.57585 858.055 11.8518 858.055 16.7838V17.6118C858.055 22.5078 861.403 25.7838 866.803 26.2878V24.7038C862.483 24.2358 859.819 21.6798 859.819 17.7198H878.179V16.6758C878.179 11.7798 874.939 8.57585 869.755 8.07185ZM869.755 24.7398V26.2878C874.759 25.8918 878.035 23.4078 878.179 19.6998H876.379C876.307 22.4358 873.715 24.3798 869.755 24.7398Z" fill="#17118B"/>
<path d="M888.327 9.43985V11.0958C889.623 10.1238 891.351 9.54785 893.187 9.54785C898.227 9.54785 900.891 12.0318 900.891 16.6758V25.9998H902.583V16.6758C902.583 10.9878 899.343 7.96385 893.403 7.96385C891.495 7.96385 889.695 8.50385 888.327 9.43985ZM883.683 25.9998H885.375V8.35985H883.683V25.9998Z" fill="#17118B"/>
<path d="M915.541 3.64385V2.09585C910.645 2.49185 907.693 5.04785 907.693 9.00785V9.76385H909.349V9.00785C909.349 5.98385 911.653 4.03985 915.541 3.64385ZM918.493 2.09585V3.64385C922.093 4.00385 924.253 5.69585 924.253 8.28785V8.64785C924.253 10.3758 923.245 11.4918 919.969 13.3638C916.873 15.1278 915.901 16.4958 915.901 19.1238V20.5638H917.485V19.1238C917.485 17.0718 918.349 15.9558 921.301 14.2998C924.721 12.3558 925.981 10.8438 925.981 8.68385V8.25185C925.981 4.90385 922.993 2.52785 918.493 2.09585ZM916.693 26.3958C917.413 26.3958 917.989 25.8918 917.989 25.0998C917.989 24.3438 917.413 23.8398 916.693 23.8398C916.009 23.8398 915.397 24.3438 915.397 25.0998C915.397 25.8918 916.009 26.3958 916.693 26.3958Z" fill="#17118B"/>
<path d="M1010.77 25.9998L1001.34 2.38385H999.536V2.67185L1008.9 25.9998H1010.77ZM1012.42 22.2558L1019.66 4.68785L1028.26 25.9998H1030.1L1020.63 2.38385H1018.69L1011.49 19.8078L1012.42 22.2558ZM1030.86 19.8078L1031.79 22.2558L1039.75 2.67185V2.38385H1037.95L1030.86 19.8078Z" fill="#17118B"/>
<path d="M1044.28 25.9998H1045.97V0.943848H1044.28V25.9998ZM1048.92 9.43985V11.0958C1050.22 10.1238 1051.95 9.54785 1053.78 9.54785C1058.82 9.54785 1061.49 12.0318 1061.49 16.6758V25.9998H1063.18V16.6758C1063.18 10.9878 1059.94 7.96385 1054 7.96385C1052.09 7.96385 1050.29 8.50385 1048.92 9.43985Z" fill="#17118B"/>
<path d="M1076.96 9.69185V8.07185C1072.32 8.50385 1069.26 11.0598 1069.26 14.5158V14.8038H1070.91V14.5158C1070.91 11.9598 1073.36 10.0878 1076.96 9.69185ZM1079.91 8.07185V9.69185C1083.87 10.0518 1086 11.9958 1086 15.3078V22.2558C1086 24.5958 1087.55 25.9998 1090.17 25.9998H1092.08V24.4878H1090.5C1088.7 24.4878 1087.65 23.5518 1087.65 21.9318V15.3078C1087.65 11.0958 1084.85 8.46785 1079.91 8.07185ZM1083.15 24.7398L1083.05 23.1558C1081.46 24.2358 1079.27 24.8838 1076.78 24.8838C1072.82 24.8838 1070.84 23.8038 1070.84 21.6798C1070.84 19.6278 1072.46 18.5478 1076.06 18.1878L1083.05 17.4678V16.0278L1075.74 16.7838C1071.27 17.2518 1069.15 18.8358 1069.15 21.6798C1069.15 24.7758 1071.78 26.3958 1076.82 26.3958C1079.34 26.3958 1081.5 25.8198 1083.15 24.7398Z" fill="#17118B"/>
<path d="M1099.99 8.35985V3.57185H1098.34V7.63985C1098.34 8.17985 1098.16 8.35985 1097.62 8.35985H1091.07V9.87185H1108.85V8.35985H1099.99ZM1099.99 20.9958V12.8238H1098.3V21.0318C1098.3 24.1278 1100.21 25.9998 1103.45 25.9998H1107.77V24.4878H1103.56C1101.29 24.4878 1099.99 23.2278 1099.99 20.9958Z" fill="#17118B"/>
<path d="M1113.5 31.1479H1115.12L1118.14 22.5438V22.2558H1116.23L1113.5 31.1479Z" fill="#17118B"/>
<path d="M1142.13 25.9998V2.38385H1140.37V25.9998H1142.13ZM1145.08 13.3998V14.9838H1160.45V25.9998H1162.22V2.38385H1160.45V13.3998H1145.08Z" fill="#17118B"/>
<path d="M1176.95 9.61985V8.07185C1171.45 8.57585 1168.06 11.8158 1168.06 16.8558V17.6118C1168.06 22.5438 1171.45 25.7838 1176.95 26.2878V24.7038C1172.53 24.2358 1169.79 21.6438 1169.79 17.5758V16.8558C1169.79 12.7518 1172.45 10.1238 1176.95 9.61985ZM1179.91 8.07185V9.65585C1184.3 10.1238 1186.96 12.8238 1186.96 16.8558V17.5758C1186.96 21.6078 1184.26 24.2718 1179.91 24.7038V26.2878C1185.34 25.7838 1188.69 22.5438 1188.69 17.6118V16.8558C1188.69 11.8518 1185.34 8.57585 1179.91 8.07185Z" fill="#17118B"/>
<path d="M1201.73 25.9998L1193.59 8.35985H1191.83V8.64785L1199.82 25.9998H1201.73ZM1217.82 25.9998L1209.86 8.35985H1208.17L1202.48 20.4558L1203.38 22.5438L1209.04 10.4838L1216.02 25.9998H1217.82ZM1218.65 20.5638L1219.48 22.5438L1226.21 8.64785V8.35985H1224.52L1218.65 20.5638Z" fill="#17118B"/>
<path d="M1254.24 3.64385V2.09585C1249.78 2.41985 1247.01 4.32785 1247.01 7.20785V7.49585C1247.01 9.51185 1248.05 10.6638 1251.18 12.7158L1271.56 25.9998H1274.08V25.7118L1252.16 11.4198C1249.64 9.76385 1248.74 8.86385 1248.74 7.49585V7.17185C1248.74 5.15585 1250.75 3.89585 1254.24 3.64385ZM1258.35 11.9238L1259.82 12.9318C1263.39 11.4918 1264.58 10.0878 1264.58 7.71185V7.35185C1264.58 4.47185 1261.66 2.41985 1257.2 2.09585V3.64385C1260.69 3.93185 1262.85 5.37185 1262.85 7.38785V7.71185C1262.85 9.54785 1261.88 10.5558 1258.35 11.9238ZM1267.28 17.7558L1268.68 18.6918L1274.44 13.0758V12.8238H1272.32L1267.28 17.7558ZM1262.7 23.8038L1261.08 22.7238C1259.03 24.1638 1256.98 24.8118 1254.6 24.8118C1249.53 24.8118 1246.54 23.1918 1246.54 20.3838V20.0238C1246.54 18.3678 1247.51 17.4678 1250.9 16.0998L1249.46 15.1278C1246 16.6398 1244.81 18.0078 1244.81 20.0958V20.4558C1244.81 24.0918 1248.59 26.3958 1254.64 26.3958C1257.66 26.3958 1260.15 25.6038 1262.7 23.8038Z" fill="#17118B"/>
<path d="M1300.17 25.9998L1290.74 2.38385H1288.94V2.67185L1298.3 25.9998H1300.17ZM1301.83 22.2558L1309.07 4.68785L1317.67 25.9998H1319.51L1310.04 2.38385H1308.09L1300.89 19.8078L1301.83 22.2558ZM1320.26 19.8078L1321.2 22.2558L1329.15 2.67185V2.38385H1327.35L1320.26 19.8078Z" fill="#17118B"/>
<path d="M1333.68 25.9998H1335.38V0.943848H1333.68V25.9998ZM1338.33 9.43985V11.0958C1339.62 10.1238 1341.35 9.54785 1343.19 9.54785C1348.23 9.54785 1350.89 12.0318 1350.89 16.6758V25.9998H1352.58V16.6758C1352.58 10.9878 1349.34 7.96385 1343.4 7.96385C1341.5 7.96385 1339.7 8.50385 1338.33 9.43985Z" fill="#17118B"/>
<path d="M1369.5 8.07185V9.65585C1373.53 10.1238 1376.05 12.5718 1376.16 16.2798H1359.57C1359.71 12.5718 1362.34 10.1238 1366.55 9.65585V8.07185C1361.19 8.57585 1357.8 11.8518 1357.8 16.7838V17.6118C1357.8 22.5078 1361.15 25.7838 1366.55 26.2878V24.7038C1362.23 24.2358 1359.57 21.6798 1359.57 17.7198H1377.93V16.6758C1377.93 11.7798 1374.69 8.57585 1369.5 8.07185ZM1369.5 24.7398V26.2878C1374.51 25.8918 1377.78 23.4078 1377.93 19.6998H1376.13C1376.05 22.4358 1373.46 24.3798 1369.5 24.7398Z" fill="#17118B"/>
<path d="M1388.07 9.43985V11.0958C1389.37 10.1238 1391.1 9.54785 1392.93 9.54785C1397.97 9.54785 1400.64 12.0318 1400.64 16.6758V25.9998H1402.33V16.6758C1402.33 10.9878 1399.09 7.96385 1393.15 7.96385C1391.24 7.96385 1389.44 8.50385 1388.07 9.43985ZM1383.43 25.9998H1385.12V8.35985H1383.43V25.9998Z" fill="#17118B"/>
<path d="M1415.29 3.64385V2.09585C1410.39 2.49185 1407.44 5.04785 1407.44 9.00785V9.76385H1409.1V9.00785C1409.1 5.98385 1411.4 4.03985 1415.29 3.64385ZM1418.24 2.09585V3.64385C1421.84 4.00385 1424 5.69585 1424 8.28785V8.64785C1424 10.3758 1422.99 11.4918 1419.72 13.3638C1416.62 15.1278 1415.65 16.4958 1415.65 19.1238V20.5638H1417.23V19.1238C1417.23 17.0718 1418.1 15.9558 1421.05 14.2998C1424.47 12.3558 1425.73 10.8438 1425.73 8.68385V8.25185C1425.73 4.90385 1422.74 2.52785 1418.24 2.09585ZM1416.44 26.3958C1417.16 26.3958 1417.74 25.8918 1417.74 25.0998C1417.74 24.3438 1417.16 23.8398 1416.44 23.8398C1415.76 23.8398 1415.14 24.3438 1415.14 25.0998C1415.14 25.8918 1415.76 26.3958 1416.44 26.3958Z" fill="#17118B"/>
<path d="M1510.51 25.9998L1501.08 2.38385H1499.28V2.67185L1508.64 25.9998H1510.51ZM1512.17 22.2558L1519.41 4.68785L1528.01 25.9998H1529.85L1520.38 2.38385H1518.43L1511.23 19.8078L1512.17 22.2558ZM1530.6 19.8078L1531.54 22.2558L1539.49 2.67185V2.38385H1537.69L1530.6 19.8078Z" fill="#17118B"/>
<path d="M1544.02 25.9998H1545.72V0.943848H1544.02V25.9998ZM1548.67 9.43985V11.0958C1549.96 10.1238 1551.69 9.54785 1553.53 9.54785C1558.57 9.54785 1561.23 12.0318 1561.23 16.6758V25.9998H1562.92V16.6758C1562.92 10.9878 1559.68 7.96385 1553.74 7.96385C1551.84 7.96385 1550.04 8.50385 1548.67 9.43985Z" fill="#17118B"/>
<path d="M1576.71 9.69185V8.07185C1572.06 8.50385 1569.01 11.0598 1569.01 14.5158V14.8038H1570.66V14.5158C1570.66 11.9598 1573.11 10.0878 1576.71 9.69185ZM1579.66 8.07185V9.69185C1583.62 10.0518 1585.74 11.9958 1585.74 15.3078V22.2558C1585.74 24.5958 1587.29 25.9998 1589.92 25.9998H1591.83V24.4878H1590.24C1588.44 24.4878 1587.4 23.5518 1587.4 21.9318V15.3078C1587.4 11.0958 1584.59 8.46785 1579.66 8.07185ZM1582.9 24.7398L1582.79 23.1558C1581.21 24.2358 1579.01 24.8838 1576.53 24.8838C1572.57 24.8838 1570.59 23.8038 1570.59 21.6798C1570.59 19.6278 1572.21 18.5478 1575.81 18.1878L1582.79 17.4678V16.0278L1575.48 16.7838C1571.02 17.2518 1568.9 18.8358 1568.9 21.6798C1568.9 24.7758 1571.52 26.3958 1576.56 26.3958C1579.08 26.3958 1581.25 25.8198 1582.9 24.7398Z" fill="#17118B"/>
<path d="M1599.74 8.35985V3.57185H1598.08V7.63985C1598.08 8.17985 1597.9 8.35985 1597.36 8.35985H1590.81V9.87185H1608.6V8.35985H1599.74ZM1599.74 20.9958V12.8238H1598.05V21.0318C1598.05 24.1278 1599.96 25.9998 1603.2 25.9998H1607.52V24.4878H1603.3C1601.04 24.4878 1599.74 23.2278 1599.74 20.9958Z" fill="#17118B"/>
<path d="M1613.24 31.1479H1614.86L1617.89 22.5438V22.2558H1615.98L1613.24 31.1479Z" fill="#17118B"/>
<path d="M1641.88 25.9998V2.38385H1640.11V25.9998H1641.88ZM1644.83 13.3998V14.9838H1660.2V25.9998H1661.96V2.38385H1660.2V13.3998H1644.83Z" fill="#17118B"/>
<path d="M1676.7 9.61985V8.07185C1671.19 8.57585 1667.81 11.8158 1667.81 16.8558V17.6118C1667.81 22.5438 1671.19 25.7838 1676.7 26.2878V24.7038C1672.27 24.2358 1669.54 21.6438 1669.54 17.5758V16.8558C1669.54 12.7518 1672.2 10.1238 1676.7 9.61985ZM1679.65 8.07185V9.65585C1684.04 10.1238 1686.71 12.8238 1686.71 16.8558V17.5758C1686.71 21.6078 1684.01 24.2718 1679.65 24.7038V26.2878C1685.09 25.7838 1688.44 22.5438 1688.44 17.6118V16.8558C1688.44 11.8518 1685.09 8.57585 1679.65 8.07185Z" fill="#17118B"/>
<path d="M1701.47 25.9998L1693.34 8.35985H1691.57V8.64785L1699.57 25.9998H1701.47ZM1717.57 25.9998L1709.61 8.35985H1707.92L1702.23 20.4558L1703.13 22.5438L1708.78 10.4838L1715.77 25.9998H1717.57ZM1718.39 20.5638L1719.22 22.5438L1725.95 8.64785V8.35985H1724.26L1718.39 20.5638Z" fill="#17118B"/>
<path d="M1753.99 3.64385V2.09585C1749.53 2.41985 1746.75 4.32785 1746.75 7.20785V7.49585C1746.75 9.51185 1747.8 10.6638 1750.93 12.7158L1771.31 25.9998H1773.83V25.7118L1751.9 11.4198C1749.38 9.76385 1748.48 8.86385 1748.48 7.49585V7.17185C1748.48 5.15585 1750.5 3.89585 1753.99 3.64385ZM1758.09 11.9238L1759.57 12.9318C1763.13 11.4918 1764.32 10.0878 1764.32 7.71185V7.35185C1764.32 4.47185 1761.41 2.41985 1756.94 2.09585V3.64385C1760.43 3.93185 1762.59 5.37185 1762.59 7.38785V7.71185C1762.59 9.54785 1761.62 10.5558 1758.09 11.9238ZM1767.02 17.7558L1768.43 18.6918L1774.19 13.0758V12.8238H1772.06L1767.02 17.7558ZM1762.45 23.8038L1760.83 22.7238C1758.78 24.1638 1756.73 24.8118 1754.35 24.8118C1749.27 24.8118 1746.29 23.1918 1746.29 20.3838V20.0238C1746.29 18.3678 1747.26 17.4678 1750.64 16.0998L1749.2 15.1278C1745.75 16.6398 1744.56 18.0078 1744.56 20.0958V20.4558C1744.56 24.0918 1748.34 26.3958 1754.39 26.3958C1757.41 26.3958 1759.89 25.6038 1762.45 23.8038Z" fill="#17118B"/>
<path d="M1799.92 25.9998L1790.49 2.38385H1788.69V2.67185L1798.05 25.9998H1799.92ZM1801.58 22.2558L1808.81 4.68785L1817.42 25.9998H1819.25L1809.78 2.38385H1807.84L1800.64 19.8078L1801.58 22.2558ZM1820.01 19.8078L1820.94 22.2558L1828.9 2.67185V2.38385H1827.1L1820.01 19.8078Z" fill="#17118B"/>
<path d="M1833.43 25.9998H1835.12V0.943848H1833.43V25.9998ZM1838.07 9.43985V11.0958C1839.37 10.1238 1841.1 9.54785 1842.93 9.54785C1847.97 9.54785 1850.64 12.0318 1850.64 16.6758V25.9998H1852.33V16.6758C1852.33 10.9878 1849.09 7.96385 1843.15 7.96385C1841.24 7.96385 1839.44 8.50385 1838.07 9.43985Z" fill="#17118B"/>
<path d="M1869.25 8.07185V9.65585C1873.28 10.1238 1875.8 12.5718 1875.91 16.2798H1859.31C1859.46 12.5718 1862.08 10.1238 1866.3 9.65585V8.07185C1860.93 8.57585 1857.55 11.8518 1857.55 16.7838V17.6118C1857.55 22.5078 1860.9 25.7838 1866.3 26.2878V24.7038C1861.98 24.2358 1859.31 21.6798 1859.31 17.7198H1877.67V16.6758C1877.67 11.7798 1874.43 8.57585 1869.25 8.07185ZM1869.25 24.7398V26.2878C1874.25 25.8918 1877.53 23.4078 1877.67 19.6998H1875.87C1875.8 22.4358 1873.21 24.3798 1869.25 24.7398Z" fill="#17118B"/>
<path d="M1887.82 9.43985V11.0958C1889.12 10.1238 1890.84 9.54785 1892.68 9.54785C1897.72 9.54785 1900.38 12.0318 1900.38 16.6758V25.9998H1902.08V16.6758C1902.08 10.9878 1898.84 7.96385 1892.9 7.96385C1890.99 7.96385 1889.19 8.50385 1887.82 9.43985ZM1883.18 25.9998H1884.87V8.35985H1883.18V25.9998Z" fill="#17118B"/>
<path d="M1915.03 3.64385V2.09585C1910.14 2.49185 1907.19 5.04785 1907.19 9.00785V9.76385H1908.84V9.00785C1908.84 5.98385 1911.15 4.03985 1915.03 3.64385ZM1917.99 2.09585V3.64385C1921.59 4.00385 1923.75 5.69585 1923.75 8.28785V8.64785C1923.75 10.3758 1922.74 11.4918 1919.46 13.3638C1916.37 15.1278 1915.39 16.4958 1915.39 19.1238V20.5638H1916.98V19.1238C1916.98 17.0718 1917.84 15.9558 1920.79 14.2998C1924.21 12.3558 1925.47 10.8438 1925.47 8.68385V8.25185C1925.47 4.90385 1922.49 2.52785 1917.99 2.09585ZM1916.19 26.3958C1916.91 26.3958 1917.48 25.8918 1917.48 25.0998C1917.48 24.3438 1916.91 23.8398 1916.19 23.8398C1915.5 23.8398 1914.89 24.3438 1914.89 25.0998C1914.89 25.8918 1915.5 26.3958 1916.19 26.3958Z" fill="#17118B"/>
</svg>
