<svg width="60" height="60" viewBox="0 0 60 60" fill="none" xmlns="http://www.w3.org/2000/svg">
<circle cx="30" cy="30" r="30" fill="#4AAE20"/>
<path d="M30.0025 20H29.9975C24.4838 20 20 24.485 20 30C20 32.1875 20.705 34.215 21.9037 35.8612L20.6575 39.5763L24.5013 38.3475C26.0825 39.395 27.9688 40 30.0025 40C35.5162 40 40 35.5138 40 30C40 24.4863 35.5162 20 30.0025 20ZM35.8212 34.1213C35.58 34.8025 34.6225 35.3675 33.8587 35.5325C33.3363 35.6437 32.6537 35.7325 30.3562 34.78C27.4175 33.5625 25.525 30.5763 25.3775 30.3825C25.2362 30.1887 24.19 28.8013 24.19 27.3663C24.19 25.9313 24.9188 25.2325 25.2125 24.9325C25.4538 24.6863 25.8525 24.5738 26.235 24.5738C26.3587 24.5738 26.47 24.58 26.57 24.585C26.8637 24.5975 27.0113 24.615 27.205 25.0788C27.4462 25.66 28.0337 27.095 28.1038 27.2425C28.175 27.39 28.2463 27.59 28.1462 27.7838C28.0525 27.9838 27.97 28.0725 27.8225 28.2425C27.675 28.4125 27.535 28.5425 27.3875 28.725C27.2525 28.8837 27.1 29.0538 27.27 29.3475C27.44 29.635 28.0275 30.5937 28.8925 31.3637C30.0087 32.3575 30.9137 32.675 31.2375 32.81C31.4787 32.91 31.7662 32.8863 31.9425 32.6988C32.1663 32.4575 32.4425 32.0575 32.7238 31.6638C32.9237 31.3813 33.1763 31.3462 33.4412 31.4462C33.7113 31.54 35.14 32.2462 35.4338 32.3925C35.7275 32.54 35.9212 32.61 35.9925 32.7338C36.0625 32.8575 36.0625 33.4388 35.8212 34.1213Z" fill="white"/>
</svg>
