<svg width="43" height="47" viewBox="0 0 43 47" fill="none" xmlns="http://www.w3.org/2000/svg">
<path fill-rule="evenodd" clip-rule="evenodd" d="M7.17456 0.297363H35.8333C39.7718 0.297363 43 3.77689 43 8.02209V38.9125C43 43.1577 39.7718 46.6372 35.8333 46.6372H7.17456C3.22816 46.6457 0 43.1662 0 38.9125V8.02209C0 3.77689 3.22816 0.297363 7.17456 0.297363Z" fill="url(#paint0_linear)"/>
<path fill-rule="evenodd" clip-rule="evenodd" d="M31.5076 23.4719C31.5076 17.5167 27.0324 12.6845 21.4996 12.6845C15.9746 12.6845 11.4915 17.5082 11.4915 23.4719C11.4915 29.427 15.9667 34.2592 21.4996 34.2592C27.0245 34.2592 31.5076 29.427 31.5076 23.4719ZM31.3182 11.2213C30.4263 11.2213 29.7081 12.0039 29.7081 12.9568C29.7081 13.9181 30.4263 14.6923 31.3182 14.6923C32.2022 14.6923 32.9283 13.9181 32.9283 12.9568C32.9283 12.0039 32.2022 11.2213 31.3182 11.2213ZM13.3226 8.72859H29.6765C32.7073 8.72859 35.1778 11.3999 35.1778 14.6582V32.2855C35.1778 35.5523 32.7073 38.2151 29.6765 38.2151H13.3226C10.2997 38.2151 7.82136 35.5523 7.82136 32.2855V14.6582C7.82136 11.3999 10.2997 8.72859 13.3226 8.72859ZM29.6765 6.75488H13.3226C9.28942 6.75488 5.99023 10.311 5.99023 14.6582V32.2855C5.99023 36.6413 9.28942 40.1888 13.3226 40.1888H29.6765C33.7176 40.1888 37.0089 36.6413 37.0089 32.2855V14.6582C37.0089 10.311 33.7176 6.75488 29.6765 6.75488ZM13.5673 23.4719C13.5673 18.7503 17.1191 14.922 21.4996 14.922C25.8801 14.922 29.4318 18.7503 29.4318 23.4719C29.4318 28.1935 25.8801 32.0133 21.4996 32.0133C17.1191 32.0133 13.5673 28.1935 13.5673 23.4719Z" fill="white"/>
<defs>
<linearGradient id="paint0_linear" x1="35.9016" y1="37.5343" x2="4.50771" y2="11.1482" gradientUnits="userSpaceOnUse">
<stop stop-color="#FEC053"/>
<stop offset="0.3273" stop-color="#F2203E"/>
<stop offset="0.6485" stop-color="#B729A8"/>
<stop offset="1" stop-color="#5342D6"/>
</linearGradient>
</defs>
</svg>
