<svg width="155" height="98" viewBox="0 0 155 98" fill="none" xmlns="http://www.w3.org/2000/svg">
<g clip-path="url(#clip0)">
<path d="M8.68898 97.7142C6.29779 97.5188 4.18666 95.8 2.98608 93.7361C2.58347 93.0439 2.30761 92.136 2.76354 91.4774C2.89404 91.2888 3.0744 91.1397 3.28473 91.0465C3.49506 90.9533 3.72721 90.9196 3.95559 90.9491C4.18397 90.9786 4.39972 91.0702 4.57907 91.2137C4.75842 91.3573 4.89441 91.5472 4.97205 91.7627C4.8252 90.9541 4.76209 90.1326 4.78373 89.3113C4.8021 88.6158 4.93436 87.8296 5.51636 87.4428C6.19156 86.9942 7.16479 87.3504 7.65591 87.9932C8.14703 88.636 8.28029 89.4722 8.39816 90.2707C8.30193 89.9328 8.29255 89.5762 8.37087 89.2337C8.44919 88.8912 8.61272 88.5737 8.84648 88.3102C9.08025 88.0467 9.37679 87.8457 9.70897 87.7255C10.0412 87.6053 10.3984 87.5698 10.7479 87.6223C11.7369 87.7707 12.5116 88.6214 12.8139 89.5686C13.1161 90.5158 13.0218 91.5429 12.8272 92.5176C12.5991 93.6606 12.2288 94.7945 11.5622 95.7531C10.8956 96.7118 9.9055 97.4847 8.75674 97.7192L8.68898 97.7142Z" fill="#F2F2F2"/>
<path d="M155 20.5563C155 24.8195 153.667 28.9773 151.184 32.4544C148.701 35.9315 145.192 38.5559 141.142 39.9645C141.013 40.0091 140.882 40.0537 140.752 40.0944V19.2066H113.666C113.674 19.0766 113.684 18.9467 113.695 18.8187H140.752V14.7385C140.752 14.4814 140.649 14.2348 140.466 14.053C140.283 13.8711 140.035 13.769 139.776 13.7688H114.777C114.821 13.6389 114.868 13.509 114.919 13.381C116.613 8.8645 119.85 5.08279 124.064 2.69653C128.279 0.31027 133.204 -0.528825 137.978 0.325838C142.752 1.1805 147.072 3.67458 150.183 7.37236C153.295 11.0701 155 15.7365 155 20.5563Z" fill="#F2F2F2"/>
<path d="M139.776 13.3809H44.7218C44.3595 13.3813 44.0122 13.5244 43.7561 13.7789C43.4999 14.0334 43.3559 14.3784 43.3555 14.7383V78.7342C43.3559 79.0941 43.4999 79.4392 43.7561 79.6936C44.0122 79.9481 44.3595 80.0913 44.7218 80.0917H139.776C140.139 80.0913 140.486 79.9481 140.742 79.6936C140.998 79.4392 141.142 79.0941 141.143 78.7342V14.7383C141.142 14.3784 140.998 14.0334 140.742 13.7789C140.486 13.5244 140.139 13.3813 139.776 13.3809ZM140.752 78.7342C140.752 78.9913 140.649 79.2379 140.466 79.4197C140.283 79.6015 140.035 79.7037 139.776 79.7038H44.7218C44.463 79.7037 44.2148 79.6015 44.0318 79.4197C43.8488 79.2379 43.7459 78.9913 43.7458 78.7342V14.7383C43.7459 14.4812 43.8488 14.2346 44.0318 14.0528C44.2148 13.871 44.463 13.7688 44.7218 13.7687H139.776C140.035 13.7688 140.283 13.871 140.466 14.0528C140.649 14.2346 140.752 14.4812 140.752 14.7383V78.7342Z" fill="#3F3D56"/>
<path d="M140.948 18.8188H43.5508V19.2067H140.948V18.8188Z" fill="#3F3D56"/>
<path d="M46.8684 17.4536C47.5152 17.4536 48.0395 16.9326 48.0395 16.29C48.0395 15.6474 47.5152 15.1265 46.8684 15.1265C46.2216 15.1265 45.6973 15.6474 45.6973 16.29C45.6973 16.9326 46.2216 17.4536 46.8684 17.4536Z" fill="#3F3D56"/>
<path d="M50.2356 17.4536C50.8823 17.4536 51.4067 16.9326 51.4067 16.29C51.4067 15.6474 50.8823 15.1265 50.2356 15.1265C49.5888 15.1265 49.0645 15.6474 49.0645 16.29C49.0645 16.9326 49.5888 17.4536 50.2356 17.4536Z" fill="#3F3D56"/>
<path d="M53.6027 17.4536C54.2495 17.4536 54.7738 16.9326 54.7738 16.29C54.7738 15.6474 54.2495 15.1265 53.6027 15.1265C52.956 15.1265 52.4316 15.6474 52.4316 16.29C52.4316 16.9326 52.956 17.4536 53.6027 17.4536Z" fill="#3F3D56"/>
<path d="M70.0952 26.7617H52.919C52.5568 26.7621 52.2095 26.9053 51.9534 27.1598C51.6972 27.4142 51.5531 27.7593 51.5527 28.1192V45.1848C51.5531 45.5447 51.6972 45.8897 51.9534 46.1442C52.2095 46.3987 52.5568 46.5419 52.919 46.5423H70.0952C70.4575 46.5419 70.8047 46.3987 71.0609 46.1442C71.317 45.8897 71.4611 45.5447 71.4615 45.1848V28.1192C71.4611 27.7593 71.317 27.4142 71.0609 27.1598C70.8047 26.9053 70.4575 26.7621 70.0952 26.7617ZM71.0711 45.1848C71.071 45.4419 70.9682 45.6885 70.7852 45.8703C70.6022 46.0521 70.354 46.1543 70.0952 46.1544H52.919C52.6602 46.1543 52.4121 46.0521 52.2291 45.8703C52.0461 45.6885 51.9432 45.4419 51.9431 45.1848V28.1192C51.9432 27.8621 52.0461 27.6155 52.2291 27.4337C52.4121 27.2519 52.6602 27.1497 52.919 27.1496H70.0952C70.354 27.1497 70.6022 27.2519 70.7852 27.4337C70.9682 27.6155 71.071 27.8621 71.0711 28.1192V45.1848Z" fill="#3F3D56"/>
<path d="M100.935 26.8589H83.7589C83.4227 26.8595 83.1003 26.9925 82.8625 27.2288C82.6248 27.4651 82.4909 27.7853 82.4902 28.1194V45.185C82.4909 45.5191 82.6248 45.8393 82.8625 46.0756C83.1003 46.3118 83.4227 46.4449 83.7589 46.4455H100.935C101.271 46.4449 101.594 46.3118 101.832 46.0756C102.069 45.8393 102.203 45.5191 102.204 45.185V28.1194C102.203 27.7853 102.069 27.4651 101.832 27.2288C101.594 26.9925 101.271 26.8595 100.935 26.8589Z" fill="#F0C453"/>
<path d="M131.773 26.8589H114.597C114.261 26.8595 113.938 26.9925 113.7 27.2288C113.463 27.4651 113.329 27.7853 113.328 28.1194V45.185C113.329 45.5191 113.463 45.8393 113.7 46.0756C113.938 46.3118 114.261 46.4449 114.597 46.4455H131.773C132.109 46.4449 132.432 46.3118 132.669 46.0756C132.907 45.8393 133.041 45.5191 133.042 45.185V28.1194C133.041 27.7853 132.907 27.4651 132.669 27.2288C132.432 26.9925 132.109 26.8595 131.773 26.8589Z" fill="#E6E6E6"/>
<path d="M70.0953 52.457H52.9191C52.5828 52.4577 52.2605 52.5907 52.0227 52.8269C51.7849 53.0632 51.651 53.3834 51.6504 53.7176V70.7831C51.651 71.1172 51.7849 71.4375 52.0227 71.6737C52.2605 71.91 52.5828 72.043 52.9191 72.0437H70.0953C70.4316 72.043 70.7539 71.91 70.9917 71.6737C71.2295 71.4375 71.3634 71.1172 71.364 70.7831V53.7176C71.3634 53.3834 71.2295 53.0632 70.9917 52.8269C70.7539 52.5907 70.4316 52.4577 70.0953 52.457Z" fill="#E6E6E6"/>
<path d="M100.935 52.457H83.7589C83.4227 52.4577 83.1003 52.5907 82.8625 52.8269C82.6248 53.0632 82.4909 53.3834 82.4902 53.7176V70.7831C82.4909 71.1172 82.6248 71.4375 82.8625 71.6737C83.1003 71.91 83.4227 72.043 83.7589 72.0437H100.935C101.271 72.043 101.594 71.91 101.832 71.6737C102.069 71.4375 102.203 71.1172 102.204 70.7831V53.7176C102.203 53.3834 102.069 53.0632 101.832 52.8269C101.594 52.5907 101.271 52.4577 100.935 52.457Z" fill="#F0C453"/>
<path d="M131.773 52.457H114.597C114.261 52.4577 113.938 52.5907 113.7 52.8269C113.463 53.0632 113.329 53.3834 113.328 53.7176V70.7831C113.329 71.1172 113.463 71.4375 113.7 71.6737C113.938 71.91 114.261 72.043 114.597 72.0437H131.773C132.109 72.043 132.432 71.91 132.669 71.6737C132.907 71.4375 133.041 71.1172 133.042 70.7831V53.7176C133.041 53.3834 132.907 53.0632 132.669 52.8269C132.432 52.5907 132.109 52.4577 131.773 52.457Z" fill="#E6E6E6"/>
<path d="M65.898 55.2692H48.7218C48.3855 55.2689 48.063 55.1359 47.8251 54.8996C47.5873 54.6633 47.4535 54.3429 47.4531 54.0087V36.9431C47.4535 36.6089 47.5873 36.2885 47.8251 36.0522C48.063 35.8159 48.3855 35.683 48.7218 35.6826H65.898C66.2344 35.683 66.5569 35.8159 66.7947 36.0522C67.0326 36.2886 67.1663 36.6089 67.1667 36.9431V54.0087C67.1663 54.3429 67.0326 54.6633 66.7947 54.8996C66.5569 55.1359 66.2344 55.2689 65.898 55.2692Z" fill="#F0C453"/>
<path d="M39.5732 95.429L41.8608 94.7315L40.2415 85.6328L36.8652 86.6622L39.5732 95.429Z" fill="#A0616A"/>
<path d="M46.9238 95.4966L39.7342 97.6888L38.8817 94.9289L43.2935 93.5837C43.6583 93.4724 44.0416 93.4337 44.4214 93.4696C44.8013 93.5056 45.1703 93.6155 45.5074 93.7931C45.8445 93.9707 46.1431 94.2126 46.3861 94.5049C46.6292 94.7972 46.8119 95.1341 46.9238 95.4966Z" fill="#2F2E41"/>
<path d="M20.0551 95.4812L22.448 95.481L23.5863 86.3105L20.0547 86.3107L20.0551 95.4812Z" fill="#A0616A"/>
<path d="M27.0625 97.689L19.5419 97.6893L19.5418 94.8023L24.1567 94.8021C24.5383 94.8021 24.9161 94.8768 25.2686 95.0218C25.6212 95.1669 25.9415 95.3795 26.2114 95.6476C26.4812 95.9157 26.6952 96.2339 26.8413 96.5842C26.9873 96.9344 27.0625 97.3098 27.0625 97.689L27.0625 97.689Z" fill="#2F2E41"/>
<path d="M19.8829 68.8987C19.6863 68.7275 19.5299 68.5155 19.4247 68.2777C19.3194 68.0399 19.268 67.7821 19.2739 67.5224C19.2798 67.2627 19.343 67.0075 19.4589 66.7746C19.5749 66.5418 19.7408 66.3371 19.945 66.1749L21.8003 42.9629L25.5733 43.8995L22.5523 66.5421C22.8039 66.901 22.9142 67.3391 22.8624 67.7734C22.8105 68.2077 22.6002 68.608 22.2711 68.8985C21.9421 69.1889 21.5172 69.3494 21.077 69.3494C20.6369 69.3495 20.212 69.1891 19.8829 68.8987Z" fill="#A0616A"/>
<path d="M27.4385 33.9597C30.0861 33.9597 32.2324 31.8272 32.2324 29.1966C32.2324 26.5661 30.0861 24.4336 27.4385 24.4336C24.7908 24.4336 22.6445 26.5661 22.6445 29.1966C22.6445 31.8272 24.7908 33.9597 27.4385 33.9597Z" fill="#A0616A"/>
<path d="M23.2706 42.2486C22.1889 40.7732 22.1556 38.7411 23.3208 37.3299C24.0812 36.4089 25.3532 35.6719 27.4768 35.6719C33.1371 35.6719 35.2841 40.1322 35.2841 40.1322C35.2841 40.1322 37.6263 44.3986 36.2601 48.2771C34.8938 52.1557 34.8938 52.5435 34.8938 52.5435L25.9153 51.7678C25.9153 51.7678 27.43 47.9219 23.2706 42.2486Z" fill="#CCCCCC"/>
<path d="M20.502 46.1094L22.4362 39.8221C22.5657 39.4011 22.7867 39.0135 23.0836 38.6867C23.3805 38.36 23.746 38.1019 24.1543 37.9309C24.5626 37.7599 25.0037 37.6801 25.4464 37.6971C25.8892 37.7141 26.3228 37.8274 26.7166 38.0292C27.3998 38.3808 27.9229 38.9774 28.1798 39.6979C28.4367 40.4185 28.4082 41.2092 28.1 41.9097L25.641 47.4737L20.502 46.1094Z" fill="#CCCCCC"/>
<path d="M34.6982 51.5737L42.3104 90.747L38.2115 91.9105L28.2571 66.1182L23.7679 92.4923L19.4738 93.0741C19.4738 93.0741 17.5903 58.1779 25.9149 51.7677L34.6982 51.5737Z" fill="#2F2E41"/>
<path d="M45.6538 49.7375C45.5844 49.8197 45.5215 49.9072 45.4659 49.9992L35.7975 50.4649L33.9357 44.8179L30.7031 46.3444L33.7456 54.7552L45.703 52.4318C45.984 52.7366 46.3517 52.9492 46.7572 53.0413C47.1628 53.1333 47.5869 53.1006 47.9732 52.9473C48.3596 52.7941 48.6898 52.5276 48.92 52.1834C49.1502 51.8391 49.2695 51.4333 49.2619 51.0201C49.2544 50.6069 49.1204 50.2057 48.8778 49.8699C48.6352 49.5342 48.2954 49.2798 47.9038 49.1406C47.5121 49.0013 47.087 48.9839 46.6851 49.0905C46.2832 49.1971 45.9235 49.4228 45.6538 49.7375Z" fill="#A0616A"/>
<path d="M29.3508 40.6952C29.299 40.258 29.3445 39.8148 29.4841 39.397C29.6237 38.9792 29.8539 38.5969 30.1586 38.2772C30.4632 37.9575 30.8348 37.7082 31.2471 37.5469C31.6593 37.3856 32.1022 37.3163 32.5445 37.3438C33.3123 37.3927 34.0327 37.73 34.5595 38.2871C35.0863 38.8443 35.3801 39.5797 35.3814 40.3441V46.4208L30.1239 47.2246L29.3508 40.6952Z" fill="#CCCCCC"/>
<path d="M28.4933 34.0033C27.7738 34.0002 27.2188 33.2475 27.251 32.5333C27.2833 31.8192 27.766 31.1908 28.3477 30.77C28.9293 30.3491 29.6115 30.0928 30.2601 29.7834C30.9087 29.474 31.5517 29.0881 31.9522 28.4941C32.1941 28.1054 32.3386 27.6646 32.3733 27.2089C32.4081 26.7531 32.3321 26.2958 32.1519 25.8753C31.7792 25.0342 31.1393 24.3378 30.3302 23.8925C29.1284 23.1935 27.7055 22.97 26.3452 23.2665C24.9849 23.563 23.7869 24.3578 22.9899 25.4925L22.1686 27.7145C21.3317 28.7144 21.1989 30.1993 21.7134 31.3952C22.2279 32.591 23.3233 33.4907 24.5594 33.9184C25.8135 34.3188 27.156 34.3588 28.4321 34.0338" fill="#2F2E41"/>
<path d="M24.1112 26.6028C23.7581 26.0405 23.1461 25.6829 22.5134 25.473C21.7805 25.2299 21.0009 25.1582 20.2355 25.2634C19.47 25.3686 18.7394 25.6479 18.1004 26.0795C17.4613 26.5112 16.9312 27.0836 16.5513 27.7521C16.1714 28.4207 15.9519 29.1673 15.9099 29.9339C15.8428 31.1584 16.2287 32.3559 16.4555 33.5613C16.6823 34.7668 16.7274 36.0982 16.0584 37.1288C15.5489 37.9138 14.6992 38.408 13.8605 38.8301C13.1615 39.1818 12.4054 39.5119 11.625 39.4418C10.8446 39.3717 10.0603 38.7576 10.081 37.9794C9.81979 38.5373 9.64339 39.1308 9.55762 39.7403C9.50272 40.3523 9.65454 41.0127 10.0995 41.4394C10.7461 42.0597 11.7707 42.0144 12.6594 41.8805C14.5833 41.5908 16.5315 41.0475 18.0515 39.8403C19.5715 38.6332 20.58 36.6454 20.1798 34.7534C20.0126 33.9631 19.6196 33.2415 19.3021 32.4981C18.9845 31.7546 18.7366 30.9414 18.8825 30.1469C18.9688 29.7376 19.1446 29.3521 19.3972 29.0176C19.6499 28.6832 19.9734 28.4079 20.3449 28.2112C21.0962 27.8231 21.9558 27.6936 22.7891 27.8429C23.3355 27.932 24.0176 28.0703 24.3417 27.6243C24.4276 27.483 24.4714 27.3204 24.4682 27.1554C24.4649 26.9904 24.4147 26.8296 24.3234 26.6918C24.1364 26.4191 23.8984 26.1847 23.6222 26.0015" fill="#2F2E41"/>
<path d="M60.212 97.9999H0.23308C0.202503 98 0.172208 97.9941 0.143934 97.9825C0.11566 97.971 0.0899618 97.954 0.0683097 97.9325C0.0466576 97.9111 0.029478 97.8856 0.0177565 97.8575C0.00603493 97.8295 0 97.7994 0 97.769C0 97.7386 0.00603493 97.7085 0.0177565 97.6805C0.029478 97.6524 0.0466576 97.6269 0.0683097 97.6055C0.0899618 97.584 0.11566 97.567 0.143934 97.5555C0.172208 97.5439 0.202503 97.538 0.23308 97.5381H60.212C60.2426 97.538 60.2729 97.5439 60.3012 97.5555C60.3294 97.567 60.3551 97.584 60.3768 97.6055C60.3984 97.6269 60.4156 97.6524 60.4273 97.6805C60.439 97.7085 60.4451 97.7386 60.4451 97.769C60.4451 97.7994 60.439 97.8295 60.4273 97.8575C60.4156 97.8856 60.3984 97.9111 60.3768 97.9325C60.3551 97.954 60.3294 97.971 60.3012 97.9825C60.2729 97.9941 60.2426 98 60.212 97.9999Z" fill="#3F3D56"/>
</g>
<defs>
<clipPath id="clip0">
<rect width="155" height="98" fill="white"/>
</clipPath>
</defs>
</svg>
