<svg width="137" height="92" viewBox="0 0 137 92" fill="none" xmlns="http://www.w3.org/2000/svg">
<path d="M135.161 92H74.9516C74.4642 91.9994 73.997 91.8052 73.6523 91.4599C73.3077 91.1146 73.1138 90.6465 73.1133 90.1582V47.518C73.1138 47.0297 73.3077 46.5616 73.6523 46.2163C73.997 45.871 74.4642 45.6768 74.9516 45.6763H135.161C135.648 45.6768 136.115 45.871 136.46 46.2163C136.805 46.5616 136.998 47.0297 136.999 47.518V90.1582C136.998 90.6465 136.805 91.1146 136.46 91.4599C136.115 91.8052 135.648 91.9994 135.161 92Z" fill="#E6E6E6"/>
<path d="M132.655 48.187H77.4603C76.9727 48.1876 76.5053 48.382 76.1605 48.7274C75.8157 49.0728 75.6217 49.5411 75.6211 50.0296V87.646C75.6217 88.1345 75.8157 88.6028 76.1605 88.9483C76.5053 89.2937 76.9727 89.488 77.4603 89.4886H132.655C133.143 89.488 133.61 89.2936 133.955 88.9481C134.299 88.6027 134.493 88.1344 134.493 87.646V50.0296C134.493 49.5413 134.299 49.073 133.955 48.7275C133.61 48.3821 133.143 48.1877 132.655 48.187Z" fill="white"/>
<path d="M103.09 71.8442C107.183 71.8442 110.502 68.5196 110.502 64.4184C110.502 60.3173 107.183 56.9927 103.09 56.9927C98.9962 56.9927 95.6777 60.3173 95.6777 64.4184C95.6777 68.5196 98.9962 71.8442 103.09 71.8442Z" fill="#A0616A"/>
<path d="M111.693 79.9333L98.457 81.2593C99.6804 75.7417 99.977 70.5867 98.457 66.1426H107.722C107.219 69.8457 109.1 74.7155 111.693 79.9333Z" fill="#A0616A"/>
<path d="M120.829 79.9744C120.664 83.208 120.473 86.3888 120.237 89.489H89.2898C88.9236 87.4421 88.4784 85.3823 87.9541 83.3095C87.7879 82.6608 87.8563 81.9742 88.1469 81.3712C88.4376 80.7682 88.9318 80.2877 89.5422 80.0147L90.5297 79.5742L99.2527 75.6903L99.3554 75.7125L102.959 76.4851L109.313 74.894L109.424 74.9163L118.331 76.7422C118.595 76.7967 118.85 76.8845 119.091 77.0034C119.639 77.2749 120.095 77.7008 120.403 78.2287C120.712 78.7566 120.86 79.3634 120.829 79.9744Z" fill="#F0C453"/>
<path d="M125.661 89.4889H118.974L117.781 76.7505C119.318 76.9039 120.767 77.5434 121.917 78.5764C123.068 79.6094 123.86 80.9823 124.18 82.4965L125.661 89.4889Z" fill="#F0C453"/>
<path d="M91.2911 89.4885H84.8789L85.1091 87.236C85.1424 85.5426 85.673 83.8965 86.6345 82.5034C87.5961 81.1102 88.946 80.0318 90.5158 79.4028L90.5282 79.5738L91.2911 89.4885Z" fill="#F0C453"/>
<path d="M97.2055 60.1878C100.546 58.2728 103.892 59.4963 107.243 64.7214L107.928 70.2873C112.958 65.5136 112.703 58.999 107.063 56.3493C106.509 56.0888 105.971 55.7925 105.368 55.8972C102.759 54.4977 99.6403 55.5488 98.3333 57.7905C97.2912 57.9713 95.7973 60.0455 95.851 61.1037L97.2055 60.1878Z" fill="#2F2E41"/>
<path d="M106.928 66.0099C107.44 66.0099 107.855 65.4756 107.855 64.8165C107.855 64.1574 107.44 63.623 106.928 63.623C106.417 63.623 106.002 64.1574 106.002 64.8165C106.002 65.4756 106.417 66.0099 106.928 66.0099Z" fill="#A0616A"/>
<path d="M79.0011 58.9811H2.34067C1.7201 58.9804 1.12515 58.7331 0.68634 58.2935C0.247531 57.8539 0.000700891 57.2578 0 56.6361V2.34502C0.000701319 1.72329 0.247531 1.12724 0.68634 0.687615C1.12515 0.247991 1.7201 0.000702193 2.34067 0H79.0011C79.6217 0.000702193 80.2167 0.247991 80.6555 0.687615C81.0943 1.12724 81.3411 1.72329 81.3418 2.34502V56.6361C81.3411 57.2578 81.0943 57.8539 80.6555 58.2935C80.2167 58.7331 79.6217 58.9804 79.0011 58.9811Z" fill="#E6E6E6"/>
<path d="M75.8096 3.19727H5.53313C4.91232 3.19806 4.31715 3.44549 3.87817 3.88529C3.43918 4.32509 3.1922 4.92136 3.19141 5.54333V53.438C3.1922 54.06 3.43918 54.6562 3.87816 55.096C4.31715 55.5358 4.91231 55.7833 5.53313 55.7841H75.8096C76.4303 55.7832 77.0252 55.5357 77.4639 55.0958C77.9026 54.656 78.1492 54.0598 78.1496 53.438V5.54333C78.1492 4.92154 77.9026 4.32531 77.4639 3.88547C77.0252 3.44564 76.4303 3.19813 75.8096 3.19727Z" fill="white"/>
<path d="M57.1481 37.2743L35.4727 42.2439L26.3145 24.9389L44.8487 17.6895L57.1481 37.2743Z" fill="#2F2E41"/>
<path d="M38.8396 35.6575C43.1757 35.6575 46.6908 32.1358 46.6908 27.7916C46.6908 23.4474 43.1757 19.9258 38.8396 19.9258C34.5034 19.9258 30.9883 23.4474 30.9883 27.7916C30.9883 32.1358 34.5034 35.6575 38.8396 35.6575Z" fill="#FFB9B9"/>
<path d="M37.9262 53.7115L56.9849 50.955C54.1399 45.7959 51.2066 41.094 47.2644 41.6197C43.7573 39.1606 43.5551 35.2074 44.4421 30.7617L34.9025 33.3165C35.7419 36.057 35.4173 38.4633 33.1816 40.3212C36.3054 44.7266 38.3269 49.1735 37.9262 53.7115Z" fill="#FFB9B9"/>
<path d="M60.9973 55.7838H30.8392C30.4118 55.2088 29.9574 54.6526 29.4758 54.1154C29.4441 54.0782 29.4105 54.0393 29.377 54.0021L30.1875 42.5212L30.2688 41.3606C30.2892 41.0637 30.3947 40.7791 30.5727 40.5409C30.7506 40.3027 30.9934 40.121 31.2719 40.0177H31.2736C31.3189 39.9983 31.3655 39.9824 31.4132 39.9699L33.9138 39.3011L34.1628 39.2339L34.1982 39.2763L35.6021 40.9076L36.5399 41.9993L40.6865 46.8206C41.0588 47.2535 41.513 47.6082 42.0228 47.8645C42.5326 48.1208 43.0879 48.2735 43.6569 48.3139L45.1915 48.4218C47.9077 48.6146 49.8309 46.4119 49.8309 44.0747C49.8315 43.2538 49.5914 42.4509 49.1403 41.7657C49.0279 41.5905 48.9027 41.4238 48.766 41.2668L50.5108 41.5481L53.0114 41.9533L55.83 48.5917C58.6627 50.8422 60.4516 53.2307 60.9973 55.7838Z" fill="#F0C453"/>
<path d="M24.6255 45.8667L28.4171 52.7351L26.2784 54.729L25.1464 55.7836H15.3203L21.21 49.5062L24.6255 45.8667Z" fill="#FFB9B9"/>
<path d="M63.0622 55.7841H53.8118L52.8317 51.5572L50.7425 42.5463L50.5112 41.5484L50.5059 41.5254L52.6939 41.6581C53.9155 41.7326 55.0939 42.1387 56.1027 42.8328C57.1116 43.5269 57.913 44.4828 58.4211 45.5983L63.0622 55.7841Z" fill="#F0C453"/>
<path d="M26.5331 55.1143L35.6317 52.0281L32.4237 41.0937C32.3199 40.7397 32.0935 40.4343 31.7853 40.2324C31.477 40.0305 31.107 39.9453 30.7417 39.992C30.4327 40.0315 30.1428 40.1634 29.9098 40.3705L20.6152 48.6319C22.3933 51.5645 24.2865 51.6382 26.5331 55.1143Z" fill="#F0C453"/>
<path d="M44.0544 15.0214C44.0544 15.0214 48.856 15.9263 49.9665 21.9259C50.1402 22.9377 50.1718 23.9689 50.0605 24.9894C49.9496 26.1443 50.1104 28.5835 52.6134 31.4556C54.2466 33.3185 55.7684 35.2765 57.1708 37.3194L52.1535 38.6575L49.9118 30.3294C48.8249 26.2917 47.1506 22.4363 44.9427 18.8873L44.8966 18.8132C44.8966 18.8132 43.2302 23.2741 38.7638 23.8856L40.141 22.0691C40.141 22.0691 34.9197 25.093 31.9615 26.0167C31.624 26.1222 31.3215 26.318 31.0867 26.5829C30.852 26.8479 30.6938 27.172 30.6293 27.5204C30.5647 27.8687 30.5963 28.2281 30.7206 28.5598C30.8448 28.8915 31.057 29.1829 31.3344 29.4027C31.3553 29.4193 31.3767 29.4358 31.3985 29.4524C33.5742 31.108 38.013 35.0586 36.2594 38.8802C34.5058 42.7018 36.5508 43.3986 36.5508 43.3986L32.7798 41.9614L31.0539 41.2209L31.2283 42.4994L22.8027 42.6762C22.8027 42.6762 20.5259 42.6624 24.5701 36.5736C24.5701 36.5736 25.546 34.2905 24.7449 32.5463C24.1305 31.2088 23.7499 29.7721 23.811 28.301C24.0657 22.1623 26.6468 9.67378 44.0544 15.0214Z" fill="#2F2E41"/>
<path d="M108.538 37.8481C108.501 37.8481 108.465 37.8352 108.436 37.8118C108.408 37.7883 108.388 37.7556 108.38 37.7192C107.611 34.0147 104.951 30.6103 100.89 28.1331C96.7748 25.6234 91.4915 24.2412 86.0131 24.2412C85.9703 24.2412 85.9292 24.2242 85.8989 24.1938C85.8686 24.1635 85.8516 24.1223 85.8516 24.0793C85.8516 24.0364 85.8686 23.9952 85.8989 23.9649C85.9292 23.9345 85.9703 23.9175 86.0131 23.9175C91.5499 23.9175 96.8928 25.3164 101.058 27.8566C105.197 30.3809 107.909 33.8601 108.697 37.6533C108.702 37.6769 108.701 37.7012 108.695 37.7246C108.69 37.748 108.679 37.7698 108.664 37.7884C108.649 37.8071 108.629 37.8221 108.608 37.8324C108.586 37.8428 108.562 37.8481 108.538 37.8481V37.8481Z" fill="#3F3D56"/>
<path d="M106.842 37.4153L108.776 39.997L110.041 37.0278L106.842 37.4153Z" fill="#3F3D56"/>
<path d="M67.1264 78.8C61.5897 78.8 56.2467 77.4011 52.0818 74.8608C47.943 72.3365 45.2301 68.8574 44.443 65.0641C44.4386 65.0432 44.4383 65.0217 44.4422 65.0008C44.4461 64.9798 44.4541 64.9598 44.4658 64.942C44.4774 64.9241 44.4924 64.9088 44.51 64.8968C44.5276 64.8848 44.5473 64.8764 44.5682 64.872C44.589 64.8677 44.6105 64.8675 44.6314 64.8715C44.6523 64.8755 44.6722 64.8837 44.6899 64.8954C44.7077 64.9071 44.723 64.9223 44.7349 64.9399C44.7468 64.9576 44.7551 64.9774 44.7593 64.9983C45.528 68.7028 48.1882 72.1071 52.2499 74.5843C56.3648 77.0941 61.6482 78.4763 67.1264 78.4763C67.1693 78.4763 67.2104 78.4933 67.2407 78.5237C67.271 78.554 67.288 78.5952 67.288 78.6381C67.288 78.6811 67.271 78.7222 67.2407 78.7526C67.2104 78.783 67.1693 78.8 67.1264 78.8Z" fill="#3F3D56"/>
<path d="M46.2988 65.3019L44.3642 62.7202L43.0996 65.6894L46.2988 65.3019Z" fill="#3F3D56"/>
</svg>
