<svg width="176" height="86" viewBox="0 0 176 86" fill="none" xmlns="http://www.w3.org/2000/svg">
<g clip-path="url(#clip0)">
<path d="M175.979 85.173C177.2 86.2761 126.324 86.2761 127.549 85.1728C126.328 84.07 177.204 84.07 175.979 85.173Z" fill="#E6E6E6"/>
<path d="M159.092 52.9766C161.784 56.7675 162.496 78.343 162.654 85.2589C162.658 85.4147 162.662 85.5625 162.664 85.7021H169.48C169.563 85.5544 169.641 85.4087 169.714 85.2589C173.754 77.3168 171.512 67.7941 171.394 67.3123C171.701 68.8263 170.313 73.2142 168.744 77.4646C167.787 64.3958 159.604 53.6364 159.092 52.9766Z" fill="#E6E6E6"/>
<path d="M31.0681 10.8052C25.7322 18.3176 24.3227 61.0739 24.0086 74.7792C24.0006 75.088 23.9925 75.3808 23.9885 75.6575H10.4816C10.3165 75.3648 10.1634 75.076 10.0185 74.7792C2.0126 59.0404 6.4545 40.169 6.68805 39.2144C6.07998 42.2146 8.83047 50.9102 11.9394 59.3331C13.8362 33.4347 30.0533 12.1127 31.0681 10.8052Z" fill="#E6E6E6"/>
<path d="M93.8137 75.2152C96.1781 77.9317 -2.32942 77.9317 0.0421484 75.2146C-2.32225 72.4987 96.1853 72.4987 93.8137 75.2152Z" fill="#E6E6E6"/>
<path d="M144.683 73.6932C144.305 73.6932 144.297 74.8676 144.683 74.8676H158.828C158.993 74.8729 159.13 74.6144 159.132 74.2901C159.136 73.959 158.997 73.6872 158.828 73.6932H144.683Z" fill="#3F3D56"/>
<path d="M149.149 69.3189C148.657 69.319 148.655 70.4934 149.149 70.4933H154.356C154.569 70.4987 154.745 70.2401 154.748 69.9158C154.752 69.5848 154.573 69.313 154.356 69.3189H149.149Z" fill="#F0C453"/>
<path d="M144.683 78.2296C144.305 78.2296 144.297 79.404 144.683 79.404H158.828C158.993 79.4093 159.13 79.1507 159.132 78.8264C159.136 78.4954 158.997 78.2236 158.828 78.2296H144.683Z" fill="#3F3D56"/>
<path d="M161.849 63.5071H141.679C141.463 63.5072 141.256 63.5925 141.104 63.7444C140.951 63.8963 140.865 64.1023 140.865 64.3171V84.4061C140.865 84.6209 140.951 84.8269 141.104 84.9788C141.256 85.1307 141.463 85.216 141.679 85.2161H161.849C162.064 85.216 162.271 85.1307 162.424 84.9788C162.576 84.8269 162.662 84.6209 162.662 84.4061V64.3171C162.662 64.1023 162.576 63.8963 162.424 63.7444C162.271 63.5925 162.064 63.5072 161.849 63.5071ZM162.337 84.4061C162.336 84.5349 162.285 84.6583 162.193 84.7493C162.102 84.8404 161.978 84.8917 161.849 84.8921H141.679C141.549 84.8917 141.425 84.8404 141.334 84.7493C141.242 84.6583 141.191 84.5349 141.191 84.4061V64.3171C141.191 64.1883 141.242 64.0649 141.334 63.9739C141.425 63.8828 141.549 63.8315 141.679 63.8311H161.849C161.978 63.8315 162.102 63.8828 162.193 63.9739C162.285 64.0649 162.336 64.1883 162.337 64.3171V84.4061Z" fill="#3F3D56"/>
<path d="M133.994 47.561L135.63 46.7461L134.267 43.0792L133.907 41.23C133.861 40.9897 133.751 40.7659 133.591 40.5808C133.43 40.3957 133.223 40.2559 132.991 40.1754C132.759 40.0948 132.51 40.0763 132.268 40.1217C132.027 40.1671 131.802 40.2748 131.615 40.434C131.339 40.67 131.165 41.0038 131.131 41.3648C131.097 41.7258 131.205 42.086 131.433 42.3691L132.767 44.0299L133.994 47.561Z" fill="#A0616A"/>
<path d="M133.447 47.1534L133.749 48.0942L135.103 52.3206C135.236 52.7349 135.486 53.1024 135.823 53.3788C136.16 53.6553 136.57 53.8291 137.004 53.8792C137.437 53.9294 137.876 53.8539 138.268 53.6617C138.66 53.4696 138.987 53.1689 139.212 52.7959L143.602 45.3011C143.673 45.1843 143.733 45.0617 143.782 44.9346C143.994 44.3799 143.983 43.7652 143.752 43.2181C143.521 42.671 143.087 42.2337 142.541 41.9969C141.994 41.7602 141.377 41.7423 140.818 41.9469C140.258 42.1515 139.8 42.563 139.537 43.0957L136.856 48.7834L135.63 46.0672L133.447 47.1534Z" fill="#E6E6E6"/>
<path d="M134.078 74.4539L137.078 74.7256L138.714 62.91C144.108 63.8138 149.197 64.1033 153.598 63.01C153.97 62.9189 154.319 62.7522 154.623 62.5204C154.927 62.2885 155.18 61.9965 155.366 61.6628C155.551 61.329 155.665 60.9607 155.701 60.5809C155.737 60.201 155.693 59.818 155.573 59.4557C155.046 57.8899 154.118 56.2119 153.032 54.4897L145.805 57.0702L145.532 58.1566L137.824 57.1848C137.434 57.1357 137.039 57.1678 136.663 57.2791C136.287 57.3903 135.938 57.5783 135.639 57.831C135.34 58.0837 135.096 58.3957 134.925 58.7471C134.753 59.0985 134.656 59.4816 134.641 59.8721L134.078 74.4539Z" fill="#2F2E41"/>
<path d="M130.811 76.7434C130.783 76.5412 130.813 76.3351 130.898 76.1494C130.983 75.9637 131.119 75.8061 131.292 75.6953L134.371 74.1902L136.693 74.4821L137.241 76.4399C137.264 76.5794 137.259 76.7221 137.225 76.8594C137.191 76.9967 137.129 77.1256 137.043 77.2384C136.958 77.3512 136.85 77.4455 136.727 77.5154C136.603 77.5854 136.467 77.6297 136.326 77.6455L131.994 77.6549C131.716 77.686 131.438 77.6081 131.217 77.4379C130.996 77.2677 130.851 77.0186 130.811 76.7434Z" fill="#2F2E41"/>
<path d="M133.32 72.9432L136.32 73.2148L137.957 61.3993C143.35 62.3031 148.439 62.5926 152.84 61.4993C153.212 61.4082 153.561 61.2415 153.865 61.0096C154.17 60.7778 154.422 60.4858 154.608 60.152C154.793 59.8183 154.907 59.4499 154.943 59.0701C154.979 58.6903 154.935 58.3072 154.815 57.945C154.289 56.3791 153.361 54.7012 152.274 52.979L145.047 55.5594L144.774 56.6459L137.066 55.6741C136.677 55.625 136.281 55.6571 135.905 55.7683C135.529 55.8796 135.18 56.0675 134.881 56.3203C134.582 56.573 134.338 56.885 134.167 57.2363C133.995 57.5877 133.898 57.9709 133.883 58.3614L133.32 72.9432Z" fill="#2F2E41"/>
<path d="M130.054 75.2328C130.025 75.0307 130.055 74.8246 130.14 74.6389C130.225 74.4532 130.362 74.2956 130.534 74.1848L133.613 72.6797L135.935 72.9716L136.483 74.9294C136.506 75.0689 136.501 75.2116 136.467 75.3489C136.433 75.4862 136.371 75.6151 136.286 75.7279C136.2 75.8407 136.092 75.935 135.969 76.0049C135.846 76.0749 135.709 76.1191 135.568 76.1349L131.236 76.1444C130.958 76.1754 130.68 76.0976 130.459 75.9274C130.238 75.7572 130.093 75.5081 130.054 75.2328Z" fill="#2F2E41"/>
<path d="M138.775 40.6202C140.809 40.6202 142.457 38.9784 142.457 36.9533C142.457 34.9281 140.809 33.2864 138.775 33.2864C136.742 33.2864 135.094 34.9281 135.094 36.9533C135.094 38.9784 136.742 40.6202 138.775 40.6202Z" fill="#A0616A"/>
<path d="M138.912 44.4229L143.139 43.8797L141.503 38.8547H137.412L138.912 44.4229Z" fill="#A0616A"/>
<path d="M137.761 49.4897C137.975 50.0828 138.286 50.6367 138.681 51.1294C139.244 51.8173 139.92 52.4049 140.681 52.8669C140.813 52.9524 140.95 53.0343 141.093 53.1149L141.905 53.804L144.774 56.2379L152.683 53.2505C150.939 49.3895 148.763 46.3373 146.268 43.879C145.75 43.1221 145.012 42.5415 144.152 42.2156C143.292 41.8896 142.353 41.8339 141.461 42.056L138.502 42.7928C137.449 45.267 137.058 47.5421 137.761 49.4897Z" fill="#E6E6E6"/>
<path d="M131.32 38.9239C131.273 38.8786 131.213 38.8505 131.149 38.8441C131.084 38.8378 131.019 38.8537 130.965 38.8892C130.893 38.9653 128.524 40.3632 128.673 40.5018C128.668 40.5439 128.673 40.5864 128.688 40.6262C128.702 40.6661 128.725 40.7022 128.755 40.732L134.26 46.1909C134.287 46.2175 134.318 46.2385 134.353 46.2527C134.388 46.2668 134.426 46.2739 134.464 46.2735C134.574 46.4145 136.379 44.3667 136.47 44.3275C136.522 44.2735 136.55 44.2012 136.549 44.1263C136.548 44.0514 136.517 43.9799 136.464 43.9275L131.32 38.9239Z" fill="#3F3D56"/>
<path d="M129.225 40.4433L129.449 40.3011C129.427 40.343 129.419 40.3911 129.427 40.4379C129.436 40.4846 129.459 40.5274 129.494 40.5593C129.529 40.5913 129.574 40.6107 129.622 40.6145C129.669 40.6183 129.717 40.6062 129.757 40.5802L131.206 39.5876C131.239 39.5647 131.264 39.5334 131.28 39.497C131.295 39.4606 131.301 39.4206 131.295 39.3814C131.289 39.3423 131.272 39.3055 131.247 39.2752C131.221 39.2449 131.188 39.2223 131.15 39.2098C131.207 39.1904 131.3 39.0743 131.362 39.1474L136.239 43.9205C136.413 44.0047 134.467 45.684 134.466 45.75C134.321 45.9112 129.318 40.567 129.212 40.5633C129.204 40.5551 129.198 40.5452 129.194 40.5342C129.19 40.5233 129.189 40.5116 129.19 40.5001C129.191 40.4886 129.195 40.4775 129.201 40.4677C129.207 40.4579 129.216 40.4495 129.225 40.4433Z" fill="white"/>
<path d="M134.855 42.8667L133.359 44.2715L129.801 40.7702L131.607 39.5994L134.855 42.8667Z" fill="#F0C453"/>
<path d="M129.94 41.6343C130.025 41.5723 129.645 41.2968 129.629 41.2514C129.619 41.242 129.606 41.2368 129.592 41.2368C129.578 41.2368 129.565 41.2421 129.555 41.2514C129.47 41.3134 129.85 41.5889 129.867 41.6343C129.876 41.6437 129.889 41.6489 129.903 41.6489C129.917 41.6489 129.93 41.6436 129.94 41.6343Z" fill="#E6E6E6"/>
<path d="M130.463 42.0833C130.416 42.0661 130.142 41.6895 130.079 41.7734C129.994 41.8354 130.374 42.1109 130.39 42.1563C130.437 42.2041 130.511 42.13 130.463 42.0833Z" fill="#E6E6E6"/>
<path d="M134.471 44.0726C134.464 44.5242 135.176 44.5242 135.17 44.0725C135.176 43.621 134.464 43.621 134.471 44.0726Z" fill="#F0C453"/>
<path opacity="0.2" d="M138.682 51.1295C139.244 51.8174 139.921 52.4049 140.681 52.8669C140.814 52.9524 140.951 53.0343 141.093 53.115L141.906 53.8041C143.518 51.694 143.427 45.283 143.427 45.283L140.973 45.5273L138.682 51.1295Z" fill="black"/>
<path d="M133.867 49.4477L135.503 48.6328L134.14 44.9659L133.78 43.1167C133.734 42.8764 133.624 42.6526 133.464 42.4675C133.303 42.2825 133.096 42.1427 132.864 42.0621C132.632 41.9815 132.383 41.963 132.142 42.0084C131.9 42.0538 131.675 42.1615 131.488 42.3208C131.212 42.5568 131.038 42.8905 131.004 43.2515C130.97 43.6126 131.078 43.9727 131.306 44.2559L132.64 45.9166L133.867 49.4477Z" fill="#A0616A"/>
<path d="M135.502 47.9539L133.32 49.0403L134.976 54.2074C135.095 54.5785 135.308 54.9126 135.595 55.1775C135.882 55.4423 136.232 55.6289 136.612 55.7191C137.082 55.8304 137.574 55.7899 138.018 55.6036C138.463 55.4174 138.836 55.095 139.084 54.6831L143.475 47.1879C143.786 46.6714 143.882 46.0543 143.742 45.4682C143.603 44.8822 143.239 44.3737 142.728 44.0514C142.453 43.8781 142.145 43.7643 141.823 43.7176C141.501 43.6708 141.173 43.692 140.86 43.7799C140.547 43.8677 140.256 44.0203 140.006 44.2276C139.756 44.4348 139.553 44.6922 139.409 44.9829L136.729 50.6701L135.502 47.9539Z" fill="#E6E6E6"/>
<path d="M137.39 35.5249C137.09 35.7741 136.752 35.9731 136.388 36.1143C136.205 36.1835 136.009 36.2122 135.814 36.1983C135.619 36.1843 135.43 36.1281 135.259 36.0336C135.072 35.8995 134.924 35.7178 134.831 35.5075C134.738 35.2971 134.704 35.0658 134.732 34.8378C134.794 34.3815 134.979 33.9502 135.265 33.5888C135.759 32.9042 136.409 32.3458 137.161 31.959C137.914 31.5723 138.747 31.3683 139.594 31.3636C140.44 31.3589 141.276 31.5538 142.032 31.9322C142.789 32.3106 143.445 32.8619 143.947 33.541C144.312 33.9957 144.537 34.5467 144.594 35.1266C144.647 36.1453 143.947 37.0962 144.022 38.1135C144.085 38.974 144.705 39.7111 145.439 40.1686C146.174 40.6261 147.023 40.8581 147.844 41.1328C148.665 41.4075 149.495 41.7466 150.103 42.3613C150.711 42.9761 151.046 43.9301 150.712 44.7263C150.438 45.3806 149.787 45.7967 149.134 46.0784C147.382 46.8254 145.415 46.8989 143.612 46.2849C142.948 46.0554 142.222 45.5962 142.212 44.8957C142.207 44.5917 142.345 44.3062 142.427 44.0135C142.51 43.7207 142.525 43.3715 142.318 43.1479C142.062 42.8706 141.587 42.9345 141.281 43.1557C140.974 43.3768 140.775 43.7122 140.522 43.9928C140.041 44.5254 139.313 44.8657 138.601 44.7654C137.889 44.6651 137.246 44.0611 137.216 43.3457C137.166 42.1167 138.712 41.3472 138.88 40.1286C138.992 39.3147 138.46 38.5701 137.999 37.8889C137.538 37.2077 137.109 36.3542 137.432 35.5981" fill="#2F2E41"/>
<path d="M86.0857 74.7026H25.3378C25.0396 74.7023 24.7537 74.5841 24.5428 74.3741C24.3319 74.164 24.2132 73.8793 24.2129 73.5822V21.8436C24.2132 21.5465 24.3319 21.2617 24.5428 21.0517C24.7537 20.8417 25.0396 20.7235 25.3378 20.7231H86.0857C86.384 20.7235 86.6699 20.8417 86.8808 21.0517C87.0917 21.2617 87.2104 21.5465 87.2107 21.8436V73.5822C87.2104 73.8793 87.0917 74.164 86.8808 74.3741C86.6699 74.5841 86.384 74.7023 86.0857 74.7026ZM25.3378 21.1713C25.1589 21.1715 24.9873 21.2424 24.8608 21.3684C24.7342 21.4945 24.6631 21.6653 24.6629 21.8436V73.5822C24.6631 73.7604 24.7342 73.9313 24.8608 74.0573C24.9873 74.1834 25.1589 74.2543 25.3378 74.2545H86.0857C86.2647 74.2543 86.4363 74.1834 86.5628 74.0573C86.6894 73.9313 86.7605 73.7604 86.7607 73.5822V21.8436C86.7605 21.6653 86.6894 21.4945 86.5628 21.3684C86.4363 21.2424 86.2647 21.1715 86.0857 21.1713H25.3378Z" fill="#3F3D56"/>
<path d="M34.7778 70.0661C37.3086 70.0661 39.3603 68.0227 39.3603 65.5021C39.3603 62.9814 37.3086 60.938 34.7778 60.938C32.247 60.938 30.1953 62.9814 30.1953 65.5021C30.1953 68.0227 32.247 70.0661 34.7778 70.0661Z" fill="#E6E6E6"/>
<path d="M45.3603 62.4592C45.1579 62.4595 44.9639 62.5398 44.821 62.6824C44.678 62.825 44.5977 63.0184 44.5977 63.2199C44.5977 63.4215 44.678 63.6148 44.821 63.7574C44.9639 63.9 45.1579 63.9803 45.3603 63.9806H81.3656C81.5681 63.9806 81.7624 63.9005 81.9056 63.7578C82.0488 63.6151 82.1293 63.4217 82.1293 63.2199C82.1293 63.0182 82.0488 62.8247 81.9056 62.682C81.7624 62.5394 81.5681 62.4592 81.3656 62.4592H45.3603Z" fill="#E6E6E6"/>
<path d="M45.3614 67.0234C45.1588 67.0234 44.9646 67.1036 44.8214 67.2462C44.6781 67.3889 44.5977 67.5824 44.5977 67.7841C44.5977 67.9859 44.6781 68.1794 44.8214 68.322C44.9646 68.4647 45.1588 68.5448 45.3614 68.5448H60.8546C60.955 68.5449 61.0544 68.5254 61.1472 68.4872C61.24 68.4491 61.3243 68.393 61.3953 68.3224C61.4664 68.2517 61.5227 68.1678 61.5612 68.0755C61.5996 67.9831 61.6194 67.8841 61.6194 67.7841C61.6194 67.6841 61.5996 67.5851 61.5612 67.4928C61.5227 67.4004 61.4664 67.3165 61.3953 67.2458C61.3243 67.1752 61.24 67.1192 61.1472 67.081C61.0544 67.0429 60.955 67.0233 60.8546 67.0234H45.3614Z" fill="#E6E6E6"/>
<path d="M100.519 56.6568H39.7714C39.4732 56.6565 39.1873 56.5383 38.9764 56.3282C38.7655 56.1182 38.6468 55.8334 38.6465 55.5364V28.9842C38.6468 28.6872 38.7655 28.4024 38.9764 28.1923C39.1873 27.9823 39.4732 27.8641 39.7714 27.8638H100.519C100.818 27.8641 101.104 27.9823 101.314 28.1923C101.525 28.4024 101.644 28.6872 101.644 28.9842V55.5364C101.644 55.8334 101.525 56.1182 101.314 56.3283C101.104 56.5383 100.818 56.6565 100.519 56.6568Z" fill="#F0C453"/>
<path d="M52.1435 37.1184C51.9411 37.1187 51.7472 37.199 51.6042 37.3416C51.4612 37.4842 51.3809 37.6775 51.3809 37.8791C51.3809 38.0806 51.4612 38.274 51.6042 38.4166C51.7472 38.5592 51.9411 38.6395 52.1435 38.6398H88.1488C88.3511 38.6395 88.5451 38.5592 88.6881 38.4166C88.8311 38.274 88.9114 38.0806 88.9114 37.8791C88.9114 37.6775 88.8311 37.4842 88.6881 37.3416C88.5451 37.199 88.3511 37.1187 88.1488 37.1184H52.1435Z" fill="white"/>
<path d="M52.1435 41.5261C51.9411 41.5264 51.7472 41.6067 51.6042 41.7493C51.4612 41.8919 51.3809 42.0852 51.3809 42.2868C51.3809 42.4884 51.4612 42.6817 51.6042 42.8243C51.7472 42.9669 51.9411 43.0472 52.1435 43.0475H88.1488C88.3511 43.0472 88.5451 42.9669 88.6881 42.8243C88.8311 42.6817 88.9114 42.4884 88.9114 42.2868C88.9114 42.0852 88.8311 41.8919 88.6881 41.7493C88.5451 41.6067 88.3511 41.5264 88.1488 41.5261H52.1435Z" fill="white"/>
<path d="M52.1435 45.8806C51.9411 45.8809 51.7472 45.9612 51.6042 46.1038C51.4612 46.2464 51.3809 46.4397 51.3809 46.6413C51.3809 46.8428 51.4612 47.0362 51.6042 47.1788C51.7472 47.3214 51.9411 47.4017 52.1435 47.402H67.6367C67.7371 47.4021 67.8365 47.3825 67.9293 47.3444C68.0221 47.3062 68.1064 47.2502 68.1774 47.1796C68.2485 47.1089 68.3048 47.025 68.3433 46.9326C68.3817 46.8403 68.4015 46.7413 68.4015 46.6413C68.4015 46.5413 68.3817 46.4423 68.3433 46.3499C68.3048 46.2576 68.2485 46.1737 68.1774 46.103C68.1064 46.0324 68.0221 45.9764 67.9293 45.9382C67.8365 45.9 67.7371 45.8805 67.6367 45.8806H52.1435Z" fill="white"/>
<path d="M100.631 59.5178C103.162 59.5178 105.214 57.4744 105.214 54.9537C105.214 52.4331 103.162 50.3896 100.631 50.3896C98.1005 50.3896 96.0488 52.4331 96.0488 54.9537C96.0488 57.4744 98.1005 59.5178 100.631 59.5178Z" fill="#3F3D56"/>
<path d="M100.249 56.9719L98.7949 55.1095L99.6408 54.4542L100.329 55.3361L102.656 52.8901L103.434 53.6242L100.249 56.9719Z" fill="white"/>
<path d="M93.0691 8.04347L85.6228 9.74067L82.4766 3.83078L88.8438 1.35498L93.0691 8.04347Z" fill="#2F2E41"/>
<path d="M99.256 50.0182L102.047 47.4924L96.0282 33.9714L90.7693 27.5241L99.3614 31.228L100.255 40.6592L104.528 42.1233L103.974 30.3477C103.94 29.6134 103.694 28.9044 103.266 28.3051C102.839 27.7059 102.247 27.2416 101.563 26.9676L94.5134 24.1474L93.2513 18.8708L85.8922 18.7659C83.6053 22.7289 82.5835 26.2169 84.2338 28.7011L91.8911 36.1391L99.256 50.0182Z" fill="#2F2E41"/>
<path d="M100.557 48.2874C100.557 48.2874 100.954 47.1067 101.576 47.3785C102.197 47.6503 103.939 49.027 103.939 49.027C103.939 49.027 106.848 49.4369 105.026 50.4869C103.204 51.5369 102.491 51.4716 102.433 51.3231C102.375 51.1745 101.902 50.8448 101.902 50.8448L101.215 51.283L100.055 51.3914C100.055 51.3914 98.5359 48.8288 99.0247 48.7608C99.5134 48.6929 100.583 48.7909 100.557 48.2874Z" fill="#2F2E41"/>
<path d="M102.392 41.0474C102.392 41.0474 103.601 40.7342 103.712 41.4015C103.823 42.0688 103.615 44.2736 103.615 44.2736C103.615 44.2736 104.857 46.9254 102.98 45.9776C101.102 45.0297 100.768 44.3991 100.861 44.2696C100.954 44.14 100.974 43.5655 100.974 43.5655L100.23 43.2309L99.5059 42.3218C99.5059 42.3218 100.833 39.6557 101.157 40.0266C101.481 40.3975 101.982 41.3433 102.392 41.0474Z" fill="#2F2E41"/>
<path d="M86.7792 7.49136C88.2689 7.49136 89.4764 6.28864 89.4764 4.80501C89.4764 3.32137 88.2689 2.11865 86.7792 2.11865C85.2896 2.11865 84.082 3.32137 84.082 4.80501C84.082 6.28864 85.2896 7.49136 86.7792 7.49136Z" fill="#FFB9B9"/>
<path d="M86.4639 13.6574L93.0113 12.716C92.0339 10.9541 91.0262 9.34828 89.6719 9.52782C88.4671 8.68797 88.3976 7.33786 88.7024 5.81958L85.4252 6.69211C85.7135 7.62802 85.602 8.44983 84.834 9.08433C85.9071 10.5889 86.6016 12.1076 86.4639 13.6574Z" fill="#FFB9B9"/>
<path d="M85.971 19.376C88.2975 22.3929 90.6834 23.585 93.2486 19.2723L93.46 17.348C95.1061 15.2805 94.6241 13.4939 92.6168 11.9087L91.6486 9.64162L90.1897 9.40736C90.3819 9.62842 90.5039 9.90122 90.5404 10.1913C90.577 10.4814 90.5264 10.7758 90.395 11.0373C90.2637 11.2987 90.0575 11.5156 89.8025 11.6604C89.5474 11.8052 89.2551 11.8715 88.9622 11.8509L88.4348 11.8138C88.2393 11.8 88.0485 11.7479 87.8733 11.6604C87.6982 11.5728 87.5422 11.4516 87.4143 11.3038L85.1731 8.71289L84.2288 8.96429C84.1218 8.99278 84.0264 9.05383 83.9559 9.13891C83.8854 9.224 83.8433 9.32888 83.8355 9.43893L83.5293 13.7567C84.8771 15.2438 85.6525 17.1447 85.971 19.376Z" fill="#E6E6E6"/>
<path d="M84.9283 17.538L79.7756 16.496L83.1979 13.3244L81.8954 10.9783L76.3638 16.8382C76.2688 16.9458 76.2052 17.0773 76.1801 17.2185C76.1549 17.3596 76.1691 17.5049 76.2211 17.6385C76.2731 17.7721 76.3609 17.889 76.475 17.9764C76.589 18.0638 76.725 18.1183 76.868 18.1341L84.3594 18.9604L84.6668 20.3107C84.7077 20.4903 84.7914 20.6575 84.9109 20.7981C85.0303 20.9387 85.182 21.0486 85.3531 21.1185C85.5242 21.1884 85.7096 21.2162 85.8938 21.1997C86.0779 21.1831 86.2554 21.1226 86.4112 21.0234C86.5553 20.9315 86.6771 20.8087 86.7677 20.6641C86.8583 20.5194 86.9153 20.3565 86.9348 20.1871C86.9542 20.0178 86.9354 19.8462 86.8799 19.685C86.8244 19.5237 86.7335 19.3768 86.6139 19.2549L84.9283 17.538Z" fill="#FFB9B9"/>
<path d="M92.9395 25.8796L92.2555 27.6533C92.1887 27.8265 92.1596 28.012 92.17 28.1973C92.1805 28.3826 92.2304 28.5636 92.3163 28.7283C92.4022 28.893 92.5222 29.0377 92.6684 29.1528C92.8146 29.2679 92.9837 29.3508 93.1645 29.3959C93.3763 29.4489 93.598 29.4485 93.8097 29.3949C94.0213 29.3413 94.2163 29.2362 94.377 29.0889C94.5377 28.9416 94.6591 28.7568 94.7303 28.5512C94.8014 28.3456 94.8202 28.1255 94.7848 27.9109L94.4953 26.1563L95.4466 19.1388L94.5964 14.5032L92.6573 15.0962L93.3017 19.4114L92.9395 25.8796Z" fill="#FFB9B9"/>
<path d="M92.209 15.5912L95.1407 14.4524L93.5067 10.8864C93.3321 10.5054 93.0567 10.179 92.7101 9.94194C92.3634 9.70493 91.9586 9.56633 91.5389 9.54099L90.7871 9.49561L92.209 15.5912Z" fill="#E6E6E6"/>
<path d="M82.5506 14.1364L85.6763 13.0824L84.5742 9.34804C84.5386 9.22714 84.4608 9.12287 84.3549 9.05391C84.249 8.98496 84.1219 8.95584 83.9964 8.97179C83.8903 8.98528 83.7907 9.03033 83.7106 9.10106L80.5176 11.9225C81.1284 12.9241 81.7788 12.9492 82.5506 14.1364Z" fill="#E6E6E6"/>
<path d="M88.5709 0.44389C88.5709 0.44389 90.2204 0.75292 90.6019 2.80192C90.6616 3.14747 90.6725 3.49963 90.6342 3.84817C90.5961 4.24258 90.6514 5.07562 91.5112 6.05652C92.0723 6.69273 92.5951 7.36142 93.0768 8.05912L91.3532 8.51612L90.5831 5.67188C90.2098 4.29293 89.6346 2.97624 88.8761 1.76417L88.8602 1.73887C88.8602 1.73887 88.2878 3.26235 86.7534 3.4712L87.2265 2.85082C87.2265 2.85082 85.4328 3.88355 84.4166 4.19902C84.3006 4.23505 84.1967 4.30191 84.116 4.3924C84.0354 4.48288 83.9811 4.59357 83.9589 4.71254C83.9367 4.8315 83.9476 4.95424 83.9902 5.06752C84.0329 5.18081 84.1058 5.28034 84.2011 5.35541C84.2083 5.36106 84.2157 5.36671 84.2231 5.37236C84.9706 5.9378 86.4955 7.287 85.893 8.59216C85.2906 9.89732 85.9931 10.1353 85.9931 10.1353L84.6977 9.64443L84.1048 9.39155L84.1647 9.82818L81.2702 9.88858C81.2702 9.88858 80.488 9.88385 81.8774 7.80439C81.8774 7.80439 82.2126 7.02468 81.9374 6.429C81.7165 5.97789 81.6065 5.48093 81.6165 4.97913C81.7041 2.88265 82.5908 -1.38244 88.5709 0.44389Z" fill="#2F2E41"/>
</g>
<defs>
<clipPath id="clip0">
<rect width="176" height="86" fill="white"/>
</clipPath>
</defs>
</svg>
