<svg width="160" height="88" viewBox="0 0 160 88" fill="none" xmlns="http://www.w3.org/2000/svg">
<g clip-path="url(#clip0)">
<path opacity="0.1" d="M158.304 81.6476C157.683 83.1921 156.919 84.6741 156.021 86.0736C155.6 86.7409 155.138 87.3812 154.638 87.9907C154.633 87.9969 154.628 88.0025 154.623 88.0075H0L0.0208695 87.9907C0.16 87.8813 0.976696 87.2151 2.24696 86.0736C3.15826 85.256 4.30191 84.1929 5.58609 82.9139C16.089 72.501 36.2644 47.8536 19.4616 25.2748C3.84139 4.28484 20.6595 0.47589 31.7537 0.0313248C36.0162 -0.136993 40.2686 0.563716 44.256 2.09147C49.3816 4.05485 58.7492 7.06443 70.9537 8.4444C71.3544 8.48928 71.7579 8.53415 72.167 8.57483C78.6284 9.23798 85.1335 9.35713 91.6146 8.93104C91.8052 8.91982 91.9972 8.90579 92.1906 8.89177C98.6021 8.43797 104.965 7.44583 111.213 5.92567C111.617 5.8261 112.017 5.73213 112.415 5.63817C133.233 0.783018 152.424 17.3301 147.626 36.0299C145.852 42.9466 146.303 50.3191 152.217 56.2835C161.901 66.0191 160.728 75.6074 158.304 81.6476Z" fill="#F0C453"/>
<path d="M158.305 81.6458C157.684 83.1904 156.919 84.6723 156.021 86.0719C155.6 86.7392 155.139 87.3795 154.639 87.9889H0.0214844C0.160615 87.8796 0.977311 87.2134 2.24757 86.0719C3.15888 85.2542 4.30253 84.1912 5.5867 82.9122L21.883 79.5184C22.0936 79.4746 22.3081 79.4525 22.5231 79.4525L39.8963 79.4272H39.9144L48.5196 79.416H48.539L55.8017 79.4076H60.5557H65.4253L85.3794 79.3796H85.4114H86.9571H89.673H93.0636H93.9651L97.3919 79.3403H98.5244L108.492 79.3263H111.675H113.205L124.719 79.3108H128.147L139.052 79.2954L148.257 79.2842C148.513 79.2843 148.768 79.3149 149.018 79.3753L158.305 81.6458Z" fill="#454B69"/>
<path opacity="0.4" d="M2.24757 86.0713H156.021C155.6 86.7386 155.139 87.3789 154.639 87.9884H0.0214844C0.157832 87.872 0.974528 87.2058 2.24757 86.0713Z" fill="black"/>
<path d="M102.013 42.4566L101.704 42.5169L87.7412 45.2208C83.6856 46.0061 79.5715 46.7957 75.4518 46.4941C72.4675 46.2754 69.6793 45.3834 66.8118 44.6009C65.191 44.1577 63.4727 43.981 62.9231 42.1523C62.1649 39.6279 63.399 35.8905 63.6897 33.3325C63.968 30.8222 64.1322 28.2488 63.6369 25.7679C63.5268 25.2104 63.3819 24.6605 63.2028 24.1215C62.7061 22.6363 61.9256 21.0922 62.3471 19.5846C62.6797 18.3884 63.6939 17.5343 64.6428 16.7434C66.5016 15.2007 68.3993 13.4715 69.1367 11.159C69.4984 10.037 69.5666 8.82954 69.9562 7.71603C70.695 5.59838 72.551 4.01506 74.6157 3.17642C76.6804 2.33777 78.951 2.15967 81.1784 2.15967C83.1453 2.15978 85.11 2.29143 87.0595 2.55375C89.1854 2.83423 91.3308 3.29562 93.1993 4.35865C95.0678 5.42168 96.6428 7.16348 97.0783 9.28673C97.6946 12.2893 95.9833 15.4868 96.9016 18.4024C97.3635 19.8764 98.432 21.067 99.1736 22.4161C99.7783 23.5447 100.151 24.7843 100.271 26.0612C100.39 27.3382 100.254 28.6263 99.8692 29.8489C98.9816 32.6215 96.8084 35.4263 97.9214 38.1147C98.6296 39.8243 100.438 40.7372 101.699 42.092C101.811 42.2135 101.916 42.3351 102.013 42.4566Z" fill="#454B69"/>
<path opacity="0.1" d="M101.704 42.1029V42.5166L87.7405 45.2205C83.6849 46.0058 79.5708 46.7954 75.4511 46.4939C72.4668 46.2751 69.6786 45.3832 66.8111 44.6006C65.1902 44.1575 63.472 43.9807 62.9224 42.152C62.1642 39.6277 63.3982 35.8902 63.689 33.3322C63.9673 30.8219 68.2511 21.6571 67.7558 19.1763L93.3558 20.2982C93.5283 21.6684 100.294 28.5458 99.8727 29.8599C98.985 32.6324 96.8118 35.4372 97.9249 38.1257C98.6344 39.8352 100.443 40.7482 101.704 42.1029Z" fill="black"/>
<path d="M75.548 35.1641C75.6997 36.0322 75.7804 36.9873 75.3407 37.7446C74.755 38.7599 73.4777 39.0839 72.3355 39.3139L68.3703 40.1133C68.1004 40.1679 67.8138 40.2297 67.612 40.4162C67.3741 40.6307 67.2934 40.9701 67.2586 41.2899C67.0986 42.7372 67.6064 44.1634 68.0698 45.542C69.0061 48.3342 69.7922 51.1853 70.9762 53.8793C72.1602 56.5734 73.7852 59.1454 76.1045 60.9461C78.4238 62.7468 81.4931 63.706 84.3327 63.002C86.8064 62.3892 88.835 60.6292 90.5838 58.7625C92.0266 57.2199 93.3762 55.537 94.076 53.5357C94.5588 52.1614 94.716 50.6973 94.8676 49.2472C95.1023 47.0239 95.337 44.8006 95.5716 42.5773C95.6816 41.5339 95.7539 40.3601 95.0819 39.5593C94.787 39.2073 94.3863 38.9731 93.9772 38.7557C92.4551 37.9409 90.8524 37.2678 89.436 36.2861C88.0197 35.3044 86.7633 33.9525 86.3334 32.2752C86.076 31.2682 86.1219 30.1715 85.6837 29.2333C85.1939 28.1815 84.1532 27.4691 83.0402 27.1564C81.9271 26.8436 80.7529 26.8857 79.6064 27.0161C78.46 27.1465 74.0412 27.4803 73.5668 28.7832C73.3122 29.4844 74.3682 30.9892 74.6186 31.6791C75.0309 32.8106 75.3419 33.9769 75.548 35.1641Z" fill="#EFB7B9"/>
<path opacity="0.1" d="M75.548 35.1641C75.6997 36.0322 75.7804 36.9873 75.3407 37.7446C74.755 38.7599 73.4777 39.0839 72.3355 39.3139L68.3703 40.1133C68.1004 40.1679 67.8138 40.2297 67.612 40.4162C67.3741 40.6307 67.2934 40.9701 67.2586 41.2899C67.0986 42.7372 67.6064 44.1634 68.0698 45.542C69.0061 48.3342 69.7922 51.1853 70.9762 53.8793C72.1602 56.5734 73.7852 59.1454 76.1045 60.9461C78.4238 62.7468 81.4931 63.706 84.3327 63.002C86.8064 62.3892 88.835 60.6292 90.5838 58.7625C92.0266 57.2199 93.3762 55.537 94.076 53.5357C94.5588 52.1614 94.716 50.6973 94.8676 49.2472C95.1023 47.0239 95.337 44.8006 95.5716 42.5773C95.6816 41.5339 95.7539 40.3601 95.0819 39.5593C94.787 39.2073 94.3863 38.9731 93.9772 38.7557C92.4551 37.9409 90.8524 37.2678 89.436 36.2861C88.0197 35.3044 86.7633 33.9525 86.3334 32.2752C86.076 31.2682 86.1219 30.1715 85.6837 29.2333C85.1939 28.1815 84.1532 27.4691 83.0402 27.1564C81.9271 26.8436 80.7529 26.8857 79.6064 27.0161C78.46 27.1465 74.0412 27.4803 73.5668 28.7832C73.3122 29.4844 74.3682 30.9892 74.6186 31.6791C75.0309 32.8106 75.3419 33.9769 75.548 35.1641Z" fill="black"/>
<path d="M85.0919 50.414L87.4167 45.4523C88.5061 43.1271 89.6192 40.6841 89.5037 38.1163C89.4814 37.6058 89.4759 36.9677 89.9211 36.7363C90.1144 36.6567 90.325 36.6296 90.5319 36.6578C92.9794 36.7839 95.3947 37.2764 97.6985 38.1191C98.1451 38.2818 98.6028 38.4697 98.9159 38.8287C99.2289 39.1877 99.3555 39.6701 99.4627 40.1329C99.8276 41.6977 100.094 43.2842 100.26 44.8829C100.677 48.8405 100.47 52.8332 100.26 56.8034L99.6421 68.9245C99.6455 69.0964 99.6108 69.267 99.5406 69.4237C99.3875 69.7042 99.0425 69.7982 98.7322 69.8515C97.5371 70.0576 96.3155 70.0156 95.1051 69.9693C86.5903 69.6439 78.031 69.1447 69.5719 70.1853C69.6099 68.924 69.59 67.6618 69.512 66.3987C69.1767 60.9447 67.7743 55.624 66.3969 50.3397C65.5941 47.2544 64.8164 43.8886 66.1089 40.9814C66.299 40.5223 66.5721 40.1028 66.9145 39.7445C67.464 39.2017 68.214 38.9156 68.9569 38.7109C70.2385 38.3595 71.5659 38.2082 72.8929 38.2621L81.6651 57.513C82.0658 58.3938 82.3955 59.3208 82.7948 60.1903C83.1538 58.6883 82.7225 56.9282 83.1538 55.3C83.6185 53.6101 84.3503 51.9931 85.0919 50.414Z" fill="white"/>
<path d="M84.1745 63.6595C85.7439 63.7591 87.2687 62.9485 88.3484 61.8027C89.428 60.6569 90.1404 59.204 90.7428 57.7357C91.6089 55.6427 92.2972 53.4794 92.8006 51.2692C93.2179 49.3899 93.5143 47.4448 93.2263 45.5403C92.8284 42.9108 91.3522 40.5211 91.1004 37.8733C91.0573 37.4105 91.0851 36.8692 91.4538 36.5901C91.6819 36.4176 91.9825 36.3938 92.2663 36.377C94.8903 36.2199 97.7731 36.2493 99.8058 37.928C100.425 38.4385 100.927 39.0766 101.532 39.6025C102.974 40.8647 105.011 41.507 105.936 43.1829C106.259 43.7663 106.413 44.4268 106.638 45.0551C107.17 46.5416 108.09 47.8487 109.004 49.1347C108.117 52.9044 107.099 56.6769 106.213 60.4466C105.694 62.6582 105.171 64.8782 104.355 66.9958C103.821 68.3842 103.149 69.8007 103.313 71.2872C103.379 71.872 103.572 72.4316 103.74 72.9954C104.331 74.9741 104.607 77.0344 104.56 79.1001L64.8604 79.1982C66.7623 76.4495 67.3202 73.0781 67.1268 69.7333C67.0336 68.1304 66.6746 66.5176 65.8746 65.1306C64.6141 62.9569 62.3964 61.5404 60.2106 60.3274C58.6802 59.4859 57.0371 64.2205 55.3828 63.6777C55.6499 61.7732 55.7724 54.4218 55.6611 52.5047C55.6249 51.8764 55.5692 51.2313 55.7612 50.6311C55.892 50.2202 56.1327 49.8527 56.2955 49.4531C56.948 47.8529 56.3261 45.8068 57.3807 44.445C58.1098 43.4984 59.3884 43.2291 60.4277 42.6457C61.4948 42.0455 62.3199 41.1031 63.2492 40.2981C65.0729 38.7372 67.3012 37.7344 69.6715 37.4077C70.363 38.5071 70.7833 39.7574 70.8973 41.054C70.9682 41.8688 70.9167 42.6948 71.0294 43.5054C71.1839 44.6035 71.6346 45.6343 72.0813 46.6496C73.9414 50.8835 75.8086 55.13 78.1654 59.1059C78.8319 60.2278 79.5567 61.3497 80.5223 62.2234C81.4879 63.0971 82.8778 63.7212 84.1745 63.6595Z" fill="#43B052"/>
<path d="M84.1745 63.6595C85.7439 63.7591 87.2687 62.9485 88.3484 61.8027C89.428 60.6569 90.1404 59.204 90.7428 57.7357C91.6089 55.6427 92.2972 53.4794 92.8006 51.2692C93.2179 49.3899 93.5143 47.4448 93.2263 45.5403C92.8284 42.9108 91.3522 40.5211 91.1004 37.8733C91.0573 37.4105 91.0851 36.8692 91.4538 36.5901C91.6819 36.4176 91.9825 36.3938 92.2663 36.377C94.8903 36.2199 97.7731 36.2493 99.8058 37.928C100.425 38.4385 100.927 39.0766 101.532 39.6025C102.974 40.8647 105.011 41.507 105.936 43.1829C106.259 43.7663 106.413 44.4268 106.638 45.0551C107.17 46.5416 108.09 47.8487 109.004 49.1347C108.117 52.9044 107.099 56.6769 106.213 60.4466C105.694 62.6582 105.171 64.8782 104.355 66.9958C103.821 68.3842 103.149 69.8007 103.313 71.2872C103.379 71.872 103.572 72.4316 103.74 72.9954C104.331 74.9741 104.607 77.0344 104.56 79.1001L64.8604 79.1982C66.7623 76.4495 67.3202 73.0781 67.1268 69.7333C67.0336 68.1304 66.6746 66.5176 65.8746 65.1306C64.6141 62.9569 62.3964 61.5404 60.2106 60.3274C58.6802 59.4859 57.0371 64.2205 55.3828 63.6777C55.6499 61.7732 55.7724 54.4218 55.6611 52.5047C55.6249 51.8764 55.5692 51.2313 55.7612 50.6311C55.892 50.2202 56.1327 49.8527 56.2955 49.4531C56.948 47.8529 56.3261 45.8068 57.3807 44.445C58.1098 43.4984 59.3884 43.2291 60.4277 42.6457C61.4948 42.0455 62.3199 41.1031 63.2492 40.2981C65.0729 38.7372 67.3012 37.7344 69.6715 37.4077C70.363 38.5071 70.7833 39.7574 70.8973 41.054C70.9682 41.8688 70.9167 42.6948 71.0294 43.5054C71.1839 44.6035 71.6346 45.6343 72.0813 46.6496C73.9414 50.8835 75.8086 55.13 78.1654 59.1059C78.8319 60.2278 79.5567 61.3497 80.5223 62.2234C81.4879 63.0971 82.8778 63.7212 84.1745 63.6595Z" fill="#F0C453"/>
<path d="M82.0747 34.8457C88.6614 34.8457 94.001 29.4635 94.001 22.8242C94.001 16.1849 88.6614 10.8027 82.0747 10.8027C75.488 10.8027 70.1484 16.1849 70.1484 22.8242C70.1484 29.4635 75.488 34.8457 82.0747 34.8457Z" fill="#EFB7B9"/>
<path d="M75.8165 38.844C76.1434 35.7335 74.8606 32.6902 73.4081 29.9261C72.7125 28.605 71.9667 27.2881 71.6175 25.8366C71.2683 24.3851 71.3685 22.7415 72.2617 21.5481C73.0213 20.5327 74.2262 19.9844 75.3406 19.3883C78.4864 17.7054 81.3622 15.2316 82.7452 11.9233C81.9632 12.3524 82.1664 13.6328 82.8565 14.198C83.5465 14.7632 84.4871 14.8726 85.3358 15.1418C88.43 16.1235 90.286 19.2341 91.7747 22.1399C92.0182 22.6139 92.2658 23.1146 92.2631 23.6489C92.2603 24.1832 92.0182 24.6572 91.765 25.1116C91.0304 26.4299 90.1316 27.6962 89.7977 29.1702C89.4151 30.8531 89.8185 32.6229 90.3431 34.2736C90.8996 36.0294 91.6384 37.7992 92.974 39.0586C94.3097 40.3179 96.3813 40.9434 98.0245 40.13C96.3841 37.2873 94.6853 34.1109 95.3253 30.8881C95.6342 29.3455 96.4648 27.9431 96.8182 26.4088C97.4916 23.482 96.3702 20.471 95.2697 17.6774L91.9806 9.34006C91.4784 8.06526 90.9065 6.70492 89.7545 5.98268C88.9754 5.49604 88.0321 5.36983 87.1194 5.28147C84.181 5.01782 81.1368 5.10477 78.4015 6.20707C73.4179 8.21392 70.293 13.1616 67.8137 17.9607C67.0707 19.3982 66.3375 20.9254 66.3681 22.5466C66.3848 23.4357 66.6311 24.301 66.8314 25.1677C67.6467 28.6962 67.6912 32.3522 67.733 35.9747C67.765 38.7543 67.6217 41.374 66.4154 43.9053C68.0683 44.2363 70.4655 45.1296 72.1017 44.4761C74.2345 43.6262 75.5479 41.0079 75.8165 38.844Z" fill="#454B69"/>
<g opacity="0.1">
<path opacity="0.1" d="M67.7268 35.9157C67.7324 35.5202 67.7324 35.121 67.7268 34.718C67.6851 31.0956 67.6405 27.4395 66.8252 23.911C66.6431 23.2244 66.5009 22.5276 66.3995 21.8242C66.3709 22.0657 66.3583 22.3089 66.3619 22.5521C66.3786 23.4412 66.6249 24.3065 66.8252 25.1732C67.6364 28.6806 67.6864 32.3143 67.7268 35.9157Z" fill="black"/>
<path opacity="0.1" d="M96.8189 26.4088C97.0016 25.5893 97.0625 24.7471 96.9998 23.9097C96.9725 24.3262 96.912 24.7398 96.8189 25.1466C96.4655 26.6893 95.6349 28.079 95.3261 29.6259C95.193 30.3082 95.1555 31.0059 95.2148 31.6987C95.2369 31.4266 95.2741 31.156 95.3261 30.8881C95.6349 29.3412 96.4655 27.9458 96.8189 26.4088Z" fill="black"/>
<path opacity="0.1" d="M92.1554 23.0051C92.2233 22.8059 92.26 22.5972 92.2639 22.3866C92.2639 21.8523 92.0191 21.3517 91.7756 20.8776C90.2869 17.9718 88.4364 14.8641 85.3366 13.8796C84.4879 13.6103 83.5488 13.501 82.8573 12.9358C82.6794 12.7813 82.5338 12.5926 82.4291 12.3807C82.3245 12.1687 82.2629 11.9379 82.2479 11.7017C80.7397 14.4925 78.1491 16.6269 75.3415 18.1261C74.2284 18.7221 73.0222 19.2705 72.2625 20.2858C71.5488 21.2395 71.3415 22.4806 71.4653 23.6811C71.5355 22.9106 71.8109 22.1736 72.2625 21.548C73.0222 20.5327 74.227 19.9843 75.3415 19.3883C78.1491 17.8891 80.7397 15.7546 82.2479 12.9638C82.2629 13.2001 82.3245 13.4309 82.4291 13.6428C82.5338 13.8548 82.6794 14.0435 82.8573 14.198C83.553 14.7589 84.4879 14.8725 85.3366 15.1418C88.4309 16.1235 90.2869 19.234 91.7756 22.1398C91.9265 22.4168 92.0536 22.7063 92.1554 23.0051Z" fill="black"/>
<path opacity="0.1" d="M92.9742 37.7965C91.6385 36.5343 90.9025 34.7673 90.3432 33.0114C90.0077 32.0251 89.7836 31.0038 89.6754 29.9668C89.546 31.4071 89.9008 32.881 90.3432 34.2736C90.8998 36.0294 91.6385 37.7993 92.9742 39.0586C94.3098 40.318 96.3815 40.9435 98.0246 40.1301C97.827 39.7893 97.6309 39.4429 97.4361 39.0937C95.9098 39.527 94.1568 38.91 92.9742 37.7965Z" fill="black"/>
<path opacity="0.1" d="M75.8168 37.5818C75.5483 39.7457 74.2349 42.364 72.0964 43.2195C70.6119 43.8127 68.4985 43.1311 66.886 42.7539C66.7472 43.1475 66.5884 43.5337 66.4102 43.9109C68.063 44.2418 70.4602 45.1352 72.0964 44.4817C74.2349 43.6262 75.5483 41.0079 75.8168 38.844C75.8721 38.3026 75.8824 37.7575 75.8474 37.2144C75.839 37.3364 75.8265 37.4598 75.8168 37.5818Z" fill="black"/>
</g>
<path d="M92.6749 72.3532C90.5253 72.0096 88.3438 71.3463 86.2123 71.7922C84.9768 72.0503 83.8471 72.6702 82.8203 73.419C83.3852 73.8748 84.0447 74.2815 84.4036 74.9154C84.6264 75.354 84.7938 75.819 84.9017 76.2996C85.1271 77.141 85.3539 77.9993 85.3887 78.8744C85.4234 79.7495 85.2495 80.6611 84.732 81.3665C87.4422 81.6358 90.069 80.9626 92.7125 80.3049C93.0148 80.2514 93.3025 80.1343 93.557 79.9613C93.9744 79.6303 94.0968 79.0413 94.0996 78.5042C94.0996 77.5449 93.8325 76.6095 93.5612 75.6895C93.2384 74.5858 92.9991 73.4499 92.6749 72.3532Z" fill="white"/>
<path d="M107.19 48.6988C108.257 48.839 109.085 49.7071 109.694 50.599C111.404 53.0813 112.142 56.0909 112.963 58.9981C113.983 62.6135 115.183 66.1719 116.562 69.6733C116.859 70.4819 117.22 71.2651 117.642 72.0153C117.985 72.5945 118.403 73.1512 118.554 73.809C118.922 75.3993 117.621 76.8943 116.264 77.7806C115.541 78.2719 114.752 78.6554 113.92 78.9194C113.11 79.1634 112.266 79.2559 111.427 79.3485L103.704 80.1899C100.149 80.5798 96.562 80.9697 93.0058 80.5938C92.7818 79.8085 93.2214 79.2531 93.1894 78.4355C93.1672 77.8507 92.9112 77.3066 92.683 76.7681C92.2623 75.8089 91.9842 74.7924 91.858 73.7515C91.8176 73.3686 91.8037 72.9759 91.659 72.6197C91.5143 72.2635 91.204 71.9438 90.8242 71.9185C92.9112 71.7096 94.4959 71.3127 96.5828 71.1023C97.3578 71.0238 98.1633 70.9354 98.8242 70.5203C99.6437 70.0056 100.103 69.0772 100.467 68.1769C101.37 65.9471 101.952 63.49 101.477 61.1284C101.088 59.1916 100.001 57.3881 100.007 55.4121C100.007 54.2355 100.405 53.0953 100.875 52.0183C101.373 50.8795 102.023 49.7155 103.116 49.1377C104.21 48.5599 105.956 48.5305 107.19 48.6988Z" fill="#43B052"/>
<path d="M107.19 48.6988C108.257 48.839 109.085 49.7071 109.694 50.599C111.404 53.0813 112.142 56.0909 112.963 58.9981C113.983 62.6135 115.183 66.1719 116.562 69.6733C116.859 70.4819 117.22 71.2651 117.642 72.0153C117.985 72.5945 118.403 73.1512 118.554 73.809C118.922 75.3993 117.621 76.8943 116.264 77.7806C115.541 78.2719 114.752 78.6554 113.92 78.9194C113.11 79.1634 112.266 79.2559 111.427 79.3485L103.704 80.1899C100.149 80.5798 96.562 80.9697 93.0058 80.5938C92.7818 79.8085 93.2214 79.2531 93.1894 78.4355C93.1672 77.8507 92.9112 77.3066 92.683 76.7681C92.2623 75.8089 91.9842 74.7924 91.858 73.7515C91.8176 73.3686 91.8037 72.9759 91.659 72.6197C91.5143 72.2635 91.204 71.9438 90.8242 71.9185C92.9112 71.7096 94.4959 71.3127 96.5828 71.1023C97.3578 71.0238 98.1633 70.9354 98.8242 70.5203C99.6437 70.0056 100.103 69.0772 100.467 68.1769C101.37 65.9471 101.952 63.49 101.477 61.1284C101.088 59.1916 100.001 57.3881 100.007 55.4121C100.007 54.2355 100.405 53.0953 100.875 52.0183C101.373 50.8795 102.023 49.7155 103.116 49.1377C104.21 48.5599 105.956 48.5305 107.19 48.6988Z" fill="#F0C453"/>
<path d="M58.8252 46.8774C59.3302 45.6685 59.8436 44.4203 59.8575 43.1091C59.8728 41.6912 59.301 40.3449 58.8641 38.9986C58.3239 37.3514 57.9642 35.6494 57.7914 33.9233C57.7556 33.7579 57.7803 33.5851 57.861 33.4366C57.9765 33.2726 58.1991 33.2389 58.3952 33.1954C59.358 32.9738 60.0857 32.1899 60.6867 31.4003C61.6192 30.1809 62.4065 28.8555 63.0325 27.4511C63.493 26.4176 64.1163 25.1568 65.2405 25.147C64.7879 27.2898 64.2269 29.4078 63.5598 31.4929C64.7354 31.19 65.8526 30.7496 67.0283 30.4467C67.2584 30.3734 67.4995 30.3412 67.7406 30.3513C68.4446 30.4257 68.8759 31.3863 68.4669 31.9683C69.0415 32.6471 69.9973 32.8294 70.7486 33.295C71.5 33.7606 72.0398 34.9134 71.3719 35.4982C71.2412 35.6118 71.0756 35.6917 70.981 35.8376C70.6582 36.3396 71.4485 36.916 71.3831 37.5106C71.3302 37.9973 70.7111 38.2245 70.2422 38.0954C69.7733 37.9664 69.4074 37.613 68.99 37.3536C68.5726 37.0941 68.0273 36.9328 67.6224 37.2021C67.5139 38.5218 67.397 39.8667 66.8307 41.0686C66.6234 41.5075 66.3577 41.9184 66.1907 42.3742C66.031 42.8712 65.932 43.3859 65.8958 43.907L65.3907 48.5617C62.981 49.0483 60.8203 48.3204 58.8252 46.8774Z" fill="#EFB7B9"/>
<path d="M58.2374 51.0492L57.7936 48.0214C57.7512 47.7749 57.7275 47.5255 57.7227 47.2753C57.7227 46.5741 58.0287 45.9052 58.3251 45.2671C60.7807 46.4227 63.4354 46.8336 66.1442 46.835C66.5018 46.835 66.9094 46.8013 67.1321 46.5194C67.5926 47.0538 67.6065 47.9134 67.4103 48.5922C67.2141 49.271 66.8371 49.8824 66.5867 50.5444C66.46 50.8795 66.3571 51.2456 66.115 51.5036C65.7394 51.9117 65.13 51.9818 64.5762 51.979C63.9937 51.9753 63.4126 51.9195 62.8399 51.8121C61.3567 51.5345 59.7206 50.7814 58.2374 51.0492Z" fill="white"/>
<path d="M67.3959 50.9259C65.4898 50.7071 63.5963 50.3986 61.7152 50.0003C60.7928 49.8053 59.862 49.588 58.9215 49.6258C58.3093 49.6511 57.6512 49.7745 57.1128 49.4688C57.6373 51.268 57.6693 53.1641 57.0418 54.9297C56.6703 55.9816 56.1041 56.9618 55.8314 58.0445C55.2637 60.3094 56.0429 62.7791 55.3333 65.0033C55.2583 65.2939 55.1108 65.5604 54.9048 65.7774C54.6877 65.978 54.3914 66.0817 54.191 66.2991C53.8961 66.6189 53.878 67.0999 53.8766 67.536L53.8641 71.3997C53.8557 73.8595 53.8877 76.468 55.1761 78.552C56.6453 80.9361 59.7382 82.1716 62.4303 81.4466C63.1462 81.2621 63.8167 80.9313 64.4004 80.4747C65.3354 79.7258 65.9309 78.6432 66.5138 77.5885C67.2095 76.3264 67.9051 75.0361 68.1291 73.6155C68.2877 72.61 68.1987 71.5834 68.0846 70.5723C67.4557 64.9626 66.0909 59.4006 66.3844 53.7699C66.4284 52.7406 66.7811 51.7489 67.3959 50.9259Z" fill="#F0C453"/>
<path d="M75.3627 74.2059C74.3957 74.262 73.4218 74.3181 72.459 74.2059C71.7634 74.1217 71.0844 73.9492 70.3943 73.8314C68.5097 73.5246 66.5816 73.6325 64.7422 74.1476C62.9028 74.6628 61.1958 75.573 59.7383 76.8158C59.2041 77.2758 58.6643 77.9812 58.9592 78.6249C59.2764 79.3177 60.2462 79.298 60.9933 79.169C60.1869 79.5572 59.4745 80.1187 58.9063 80.814C58.6977 81.0707 58.5001 81.375 58.5404 81.7074C58.6253 82.4016 59.5603 82.5278 60.2517 82.4675C60.0263 82.7115 60.178 83.1434 60.4646 83.3089C60.7512 83.4744 61.1074 83.4408 61.4316 83.3805C62.1482 83.2482 62.8407 83.0065 63.4851 82.6638C63.3543 83.0074 63.5811 83.4099 63.9025 83.581C64.2239 83.7521 64.6149 83.7395 64.9752 83.6806C66.6754 83.4001 68.0945 82.208 69.7529 81.7396C72.4048 80.9921 75.179 82.1842 77.9352 82.2683C78.7978 82.295 79.6827 82.2066 80.4688 81.8476C81.4329 81.4059 82.2107 80.577 83.2291 80.2825C84.3602 79.9572 85.6583 80.3316 86.6935 79.7692C87.4462 79.3611 86.7672 76.2155 86.5752 75.6097C86.2232 74.5018 85.8698 73.7669 84.6969 73.6547C81.7293 73.3616 78.3526 74.032 75.3627 74.2059Z" fill="#EFB7B9"/>
<path d="M82.7656 73.3473C82.7656 73.3473 87.2582 77.1801 84.6661 81.3621L89.6749 79.6189V75.96C89.6749 75.7861 87.7729 73.1734 87.7729 73.1734L85.526 72.8242L82.7656 73.3473Z" fill="white"/>
<path d="M35.7283 73.1104H37.4131C38.3356 73.1104 39.2203 73.4797 39.8726 74.1372C40.5249 74.7948 40.8914 75.6865 40.8914 76.6164V81.8207H32.25V76.6164C32.25 76.156 32.34 75.7001 32.5148 75.2747C32.6896 74.8493 32.9458 74.4628 33.2688 74.1372C33.5917 73.8117 33.9752 73.5534 34.3972 73.3772C34.8192 73.201 35.2715 73.1104 35.7283 73.1104Z" fill="#3F3D56"/>
<path opacity="0.1" d="M35.7283 73.1104H37.4131C38.3356 73.1104 39.2203 73.4797 39.8726 74.1372C40.5249 74.7948 40.8914 75.6865 40.8914 76.6164V81.8207H32.25V76.6164C32.25 76.156 32.34 75.7001 32.5148 75.2747C32.6896 74.8493 32.9458 74.4628 33.2688 74.1372C33.5917 73.8117 33.9752 73.5534 34.3972 73.3772C34.8192 73.201 35.2715 73.1104 35.7283 73.1104Z" fill="black"/>
<path d="M36.2247 75.0263C36.6066 75.0263 36.9162 74.7143 36.9162 74.3293C36.9162 73.9444 36.6066 73.6323 36.2247 73.6323C35.8428 73.6323 35.5332 73.9444 35.5332 74.3293C35.5332 74.7143 35.8428 75.0263 36.2247 75.0263Z" fill="#3F3D56"/>
<path d="M36.2247 74.1552C36.6066 74.1552 36.9162 73.8432 36.9162 73.4582C36.9162 73.0733 36.6066 72.7612 36.2247 72.7612C35.8428 72.7612 35.5332 73.0733 35.5332 73.4582C35.5332 73.8432 35.8428 74.1552 36.2247 74.1552Z" fill="#3F3D56"/>
<path d="M36.2247 73.2846C36.6066 73.2846 36.9162 72.9726 36.9162 72.5876C36.9162 72.2027 36.6066 71.8906 36.2247 71.8906C35.8428 71.8906 35.5332 72.2027 35.5332 72.5876C35.5332 72.9726 35.8428 73.2846 36.2247 73.2846Z" fill="#3F3D56"/>
<path d="M36.2247 72.4135C36.6066 72.4135 36.9162 72.1015 36.9162 71.7165C36.9162 71.3316 36.6066 71.0195 36.2247 71.0195C35.8428 71.0195 35.5332 71.3316 35.5332 71.7165C35.5332 72.1015 35.8428 72.4135 36.2247 72.4135Z" fill="#3F3D56"/>
<path d="M36.2247 71.5424C36.6066 71.5424 36.9162 71.2304 36.9162 70.8454C36.9162 70.4605 36.6066 70.1484 36.2247 70.1484C35.8428 70.1484 35.5332 70.4605 35.5332 70.8454C35.5332 71.2304 35.8428 71.5424 36.2247 71.5424Z" fill="#3F3D56"/>
<path d="M36.2247 70.6718C36.6066 70.6718 36.9162 70.3598 36.9162 69.9748C36.9162 69.5899 36.6066 69.2778 36.2247 69.2778C35.8428 69.2778 35.5332 69.5899 35.5332 69.9748C35.5332 70.3598 35.8428 70.6718 36.2247 70.6718Z" fill="#3F3D56"/>
<path d="M36.2247 69.7997C36.6066 69.7997 36.9162 69.4877 36.9162 69.1028C36.9162 68.7178 36.6066 68.4058 36.2247 68.4058C35.8428 68.4058 35.5332 68.7178 35.5332 69.1028C35.5332 69.4877 35.8428 69.7997 36.2247 69.7997Z" fill="#3F3D56"/>
<path d="M37.2618 70.1489C37.6437 70.1489 37.9533 69.8368 37.9533 69.4519C37.9533 69.0669 37.6437 68.7549 37.2618 68.7549C36.8799 68.7549 36.5703 69.0669 36.5703 69.4519C36.5703 69.8368 36.8799 70.1489 37.2618 70.1489Z" fill="#3F3D56"/>
<path d="M37.9532 69.7997C38.3351 69.7997 38.6447 69.4877 38.6447 69.1028C38.6447 68.7178 38.3351 68.4058 37.9532 68.4058C37.5713 68.4058 37.2617 68.7178 37.2617 69.1028C37.2617 69.4877 37.5713 69.7997 37.9532 69.7997Z" fill="#3F3D56"/>
<path d="M38.6446 69.4516C39.0265 69.4516 39.3361 69.1396 39.3361 68.7546C39.3361 68.3697 39.0265 68.0576 38.6446 68.0576C38.2627 68.0576 37.9531 68.3697 37.9531 68.7546C37.9531 69.1396 38.2627 69.4516 38.6446 69.4516Z" fill="#3F3D56"/>
<path d="M36.2247 68.9287C36.6066 68.9287 36.9162 68.6166 36.9162 68.2317C36.9162 67.8467 36.6066 67.5347 36.2247 67.5347C35.8428 67.5347 35.5332 67.8467 35.5332 68.2317C35.5332 68.6166 35.8428 68.9287 36.2247 68.9287Z" fill="#3F3D56"/>
<path d="M36.2247 68.0581C36.6066 68.0581 36.9162 67.746 36.9162 67.3611C36.9162 66.9761 36.6066 66.6641 36.2247 66.6641C35.8428 66.6641 35.5332 66.9761 35.5332 67.3611C35.5332 67.746 35.8428 68.0581 36.2247 68.0581Z" fill="#3F3D56"/>
<path d="M36.2247 67.187C36.6066 67.187 36.9162 66.8749 36.9162 66.49C36.9162 66.105 36.6066 65.793 36.2247 65.793C35.8428 65.793 35.5332 66.105 35.5332 66.49C35.5332 66.8749 35.8428 67.187 36.2247 67.187Z" fill="#3F3D56"/>
<path d="M36.2247 66.3159C36.6066 66.3159 36.9162 66.0038 36.9162 65.6189C36.9162 65.2339 36.6066 64.9219 36.2247 64.9219C35.8428 64.9219 35.5332 65.2339 35.5332 65.6189C35.5332 66.0038 35.8428 66.3159 36.2247 66.3159Z" fill="#3F3D56"/>
<path d="M39.0958 63.371C38.9233 63.3962 38.7508 63.4144 38.5782 63.4257C38.7386 63.2846 38.8875 63.1308 39.0235 62.9657C38.9277 62.6728 38.7868 62.3969 38.6061 62.1481C38.4347 62.2451 38.2452 62.3053 38.0495 62.3248C37.8784 62.35 37.7059 62.3682 37.5334 62.3809C37.7602 62.1943 37.9716 61.9139 38.1942 61.6797C37.6955 61.224 37.0565 60.9549 36.3844 60.9176C35.7123 60.8802 35.0478 61.0768 34.5024 61.4745C33.957 61.8721 33.5637 62.4466 33.3884 63.1017C33.2131 63.7568 33.2665 64.4527 33.5396 65.0729C33.8128 65.693 34.289 66.1997 34.8886 66.5081C35.4883 66.8164 36.1748 66.9077 36.8332 66.7666C37.4916 66.6255 38.082 66.2606 38.5053 65.733C38.9286 65.2055 39.1592 64.5473 39.1584 63.8688C39.1585 63.6981 39.1436 63.5278 39.1139 63.3597L39.0958 63.371Z" fill="#43B052"/>
<path d="M41.4016 66.8333C41.2253 66.9427 41.0262 67.0094 40.8201 67.0283C40.6489 67.0535 40.4764 67.0731 40.3039 67.0843C40.4872 66.9186 40.6584 66.7395 40.8159 66.5486C40.399 66.4391 39.9565 66.4902 39.575 66.692C39.1935 66.8937 38.9004 67.2317 38.7529 67.6398C38.6055 68.0478 38.6143 68.4966 38.7778 68.8985C38.9412 69.3003 39.2474 69.6263 39.6365 69.8126C40.0257 69.999 40.4698 70.0323 40.8821 69.9061C41.2943 69.78 41.6451 69.5033 41.8658 69.1303C42.0864 68.7574 42.1611 68.3148 42.0753 67.8892C41.9895 67.4637 41.7493 67.0856 41.4016 66.8291V66.8333Z" fill="#43B052"/>
<path d="M35.1876 70.1489C35.5695 70.1489 35.879 69.8368 35.879 69.4519C35.879 69.0669 35.5695 68.7549 35.1876 68.7549C34.8057 68.7549 34.4961 69.0669 34.4961 69.4519C34.4961 69.8368 34.8057 70.1489 35.1876 70.1489Z" fill="#3F3D56"/>
<path d="M34.4962 69.7997C34.8781 69.7997 35.1876 69.4877 35.1876 69.1028C35.1876 68.7178 34.8781 68.4058 34.4962 68.4058C34.1143 68.4058 33.8047 68.7178 33.8047 69.1028C33.8047 69.4877 34.1143 69.7997 34.4962 69.7997Z" fill="#3F3D56"/>
<path d="M33.8048 69.4516C34.1867 69.4516 34.4962 69.1396 34.4962 68.7546C34.4962 68.3697 34.1867 68.0576 33.8048 68.0576C33.4229 68.0576 33.1133 68.3697 33.1133 68.7546C33.1133 69.1396 33.4229 69.4516 33.8048 69.4516Z" fill="#3F3D56"/>
<path d="M31.0482 66.8333C31.2246 66.9427 31.4236 67.0094 31.6298 67.0283C31.8009 67.0535 31.9734 67.0731 32.146 67.0843C31.9623 66.9189 31.7911 66.7398 31.634 66.5486C32.0509 66.4391 32.4933 66.4902 32.8748 66.692C33.2563 66.8937 33.5495 67.2317 33.6969 67.6398C33.8444 68.0478 33.8355 68.4966 33.6721 68.8985C33.5087 69.3003 33.2025 69.6263 32.8133 69.8126C32.4242 69.999 31.98 70.0323 31.5678 69.9061C31.1555 69.78 30.8048 69.5033 30.5841 69.1303C30.3634 68.7574 30.2887 68.3148 30.3745 67.8892C30.4604 67.4637 30.7006 67.0856 31.0482 66.8291V66.8333Z" fill="#43B052"/>
<path d="M35.7266 73.627H37.4114C38.3339 73.627 39.2186 73.9963 39.8709 74.6538C40.5232 75.3114 40.8897 76.2031 40.8897 77.133V81.7427C40.8897 81.9004 40.8275 82.0517 40.7169 82.1632C40.6063 82.2747 40.4562 82.3373 40.2998 82.3373H32.8341C32.6776 82.3373 32.5276 82.2747 32.4169 82.1632C32.3063 82.0517 32.2441 81.9004 32.2441 81.7427V77.133C32.2441 76.6722 32.3342 76.216 32.5093 75.7903C32.6844 75.3647 32.9409 74.978 33.2644 74.6524C33.5878 74.3267 33.9717 74.0686 34.3942 73.8926C34.8167 73.7167 35.2695 73.6264 35.7266 73.627Z" fill="#3F3D56"/>
<g opacity="0.1">
<path opacity="0.1" d="M39.1425 63.562C39.0725 63.6374 38.9982 63.7086 38.9199 63.7752C38.9992 63.7752 39.0771 63.7626 39.1564 63.7542C39.1537 63.6896 39.1495 63.6251 39.1425 63.562Z" fill="black"/>
<path opacity="0.1" d="M37.8828 62.729C38.0567 62.7178 38.2279 62.6996 38.4004 62.6743C38.5552 62.6546 38.7064 62.613 38.8498 62.5509C38.7794 62.4107 38.6985 62.2762 38.6077 62.1484C38.5211 62.2015 38.4274 62.2417 38.3294 62.2676C38.193 62.4332 38.0436 62.5875 37.8828 62.729Z" fill="black"/>
<path opacity="0.1" d="M33.6313 64.2252C33.6303 63.6935 33.7715 63.1714 34.0402 62.7138C34.3088 62.2563 34.6949 61.8802 35.1578 61.6252C35.6207 61.3703 36.1432 61.2458 36.6703 61.2651C37.1975 61.2843 37.7097 61.4465 38.1531 61.7346L38.1976 61.6869C37.9082 61.4274 37.5708 61.2281 37.2047 61.1007C36.8386 60.9732 36.4511 60.92 36.0645 60.9441C35.678 60.9683 35.3 61.0693 34.9523 61.2414C34.6046 61.4135 34.2942 61.6532 34.0388 61.9468C33.7835 62.2403 33.5883 62.5819 33.4645 62.9518C33.3407 63.3218 33.2908 63.7127 33.3176 64.1022C33.3444 64.4917 33.4473 64.872 33.6206 65.2211C33.7938 65.5703 34.0339 65.8815 34.327 66.1367C33.877 65.6032 33.6304 64.9255 33.6313 64.2252Z" fill="black"/>
</g>
<g opacity="0.1">
<path opacity="0.1" d="M40.3027 67.4321C40.4753 67.4209 40.6478 67.4027 40.8189 67.3775C41.0252 67.3581 41.2242 67.2909 41.4005 67.1811C41.5958 67.3261 41.7587 67.511 41.8786 67.7236C41.9984 67.9362 42.0725 68.1719 42.0961 68.4152C42.1029 68.3542 42.1061 68.2929 42.1059 68.2315C42.1072 67.9591 42.0449 67.6903 41.924 67.4466C41.8032 67.203 41.6272 66.9915 41.4102 66.8291C41.2339 66.9385 41.0348 67.0052 40.8286 67.024L40.6895 67.0423C40.5708 67.1821 40.4415 67.3125 40.3027 67.4321Z" fill="black"/>
<path opacity="0.1" d="M40.3725 66.8375C40.4302 66.8382 40.4879 66.8424 40.5451 66.8502C40.6355 66.7534 40.7245 66.6496 40.815 66.5486C40.5592 66.4798 40.2911 66.4712 40.0315 66.5235C39.7719 66.5758 39.5277 66.6877 39.3179 66.8504C39.108 67.0131 38.9381 67.2223 38.8214 67.4618C38.7046 67.7013 38.6441 67.9647 38.6445 68.2315C38.6445 68.2904 38.6445 68.3479 38.6529 68.4054C38.6957 67.9757 38.8953 67.5773 39.2131 67.2876C39.5308 66.9979 39.9441 66.8375 40.3725 66.8375Z" fill="black"/>
</g>
<g opacity="0.1">
<path opacity="0.1" d="M32.1469 67.4321C31.9744 67.4209 31.8019 67.4027 31.6307 67.3775C31.4244 67.3581 31.2254 67.2909 31.0492 67.1811C30.8538 67.3261 30.6909 67.511 30.5711 67.7236C30.4512 67.9362 30.3771 68.1719 30.3535 68.4152C30.3468 68.3542 30.3435 68.2929 30.3438 68.2315C30.3425 67.9591 30.4047 67.6903 30.5256 67.4466C30.6464 67.203 30.8225 66.9915 31.0394 66.8291C31.2158 66.9385 31.4148 67.0052 31.621 67.024L31.7601 67.0423C31.8781 67.1828 32.0075 67.3132 32.1469 67.4321Z" fill="black"/>
<path opacity="0.1" d="M32.0772 66.8375C32.019 66.8383 31.961 66.8425 31.9033 66.8502C31.8142 66.7534 31.7252 66.6496 31.6348 66.5486C31.8905 66.4798 32.1586 66.4712 32.4182 66.5235C32.6778 66.5758 32.922 66.6877 33.1319 66.8504C33.3417 67.0131 33.5116 67.2223 33.6284 67.4618C33.7451 67.7013 33.8056 67.9647 33.8052 68.2315C33.8052 68.2904 33.8052 68.3479 33.7969 68.4054C33.7541 67.9757 33.5544 67.5773 33.2367 67.2876C32.9189 66.9979 32.5057 66.8375 32.0772 66.8375Z" fill="black"/>
</g>
<path d="M27.3872 84.0229H13.7942C13.6411 84.0229 13.4942 83.9616 13.3859 83.8524C13.2776 83.7433 13.2168 83.5953 13.2168 83.4409V76.9562C13.2168 76.858 13.2414 76.7613 13.2884 76.6753C13.3354 76.5893 13.4032 76.5166 13.4856 76.4641C13.5679 76.4116 13.6621 76.381 13.7594 76.3751C13.8567 76.3692 13.9538 76.3881 14.0418 76.4303C17.9472 78.2983 22.1545 78.9392 27.1201 76.4597C27.2081 76.416 27.3057 76.3955 27.4038 76.4002C27.5018 76.4049 27.597 76.4347 27.6805 76.4868C27.764 76.5388 27.833 76.6113 27.881 76.6976C27.929 76.7839 27.9544 76.8811 27.9549 76.98V83.4311C27.9562 83.5075 27.9425 83.5835 27.9147 83.6546C27.8869 83.7257 27.8454 83.7906 27.7927 83.8455C27.74 83.9005 27.677 83.9444 27.6075 83.9749C27.5379 84.0053 27.4631 84.0216 27.3872 84.0229Z" fill="#43B052"/>
<path opacity="0.1" d="M27.3872 84.0229H13.7942C13.6411 84.0229 13.4942 83.9616 13.3859 83.8524C13.2776 83.7433 13.2168 83.5953 13.2168 83.4409V76.9562C13.2168 76.858 13.2414 76.7613 13.2884 76.6753C13.3354 76.5893 13.4032 76.5166 13.4856 76.4641C13.5679 76.4116 13.6621 76.381 13.7594 76.3751C13.8567 76.3692 13.9538 76.3881 14.0418 76.4303C17.9472 78.2983 22.1545 78.9392 27.1201 76.4597C27.2081 76.416 27.3057 76.3955 27.4038 76.4002C27.5018 76.4049 27.597 76.4347 27.6805 76.4868C27.764 76.5388 27.833 76.6113 27.881 76.6976C27.929 76.7839 27.9544 76.8811 27.9549 76.98V83.4311C27.9562 83.5075 27.9425 83.5835 27.9147 83.6546C27.8869 83.7257 27.8454 83.7906 27.7927 83.8455C27.74 83.9005 27.677 83.9444 27.6075 83.9749C27.5379 84.0053 27.4631 84.0216 27.3872 84.0229Z" fill="black"/>
<path d="M20.4975 79.0935C20.9417 79.0935 21.3017 78.6181 21.3017 78.0318C21.3017 77.4455 20.9417 76.9702 20.4975 76.9702C20.0534 76.9702 19.6934 77.4455 19.6934 78.0318C19.6934 78.6181 20.0534 79.0935 20.4975 79.0935Z" fill="#3F3D56"/>
<path d="M20.4975 77.7961C20.9417 77.7961 21.3017 77.3208 21.3017 76.7345C21.3017 76.1481 20.9417 75.6729 20.4975 75.6729C20.0534 75.6729 19.6934 76.1481 19.6934 76.7345C19.6934 77.3208 20.0534 77.7961 20.4975 77.7961Z" fill="#3F3D56"/>
<path d="M20.4975 76.4973C20.9417 76.4973 21.3017 76.022 21.3017 75.4357C21.3017 74.8493 20.9417 74.374 20.4975 74.374C20.0534 74.374 19.6934 74.8493 19.6934 75.4357C19.6934 76.022 20.0534 76.4973 20.4975 76.4973Z" fill="#3F3D56"/>
<path d="M20.4975 75.2004C20.9417 75.2004 21.3017 74.7251 21.3017 74.1388C21.3017 73.5525 20.9417 73.0771 20.4975 73.0771C20.0534 73.0771 19.6934 73.5525 19.6934 74.1388C19.6934 74.7251 20.0534 75.2004 20.4975 75.2004Z" fill="#3F3D56"/>
<path d="M20.4975 73.9016C20.9417 73.9016 21.3017 73.4263 21.3017 72.8399C21.3017 72.2536 20.9417 71.7783 20.4975 71.7783C20.0534 71.7783 19.6934 72.2536 19.6934 72.8399C19.6934 73.4263 20.0534 73.9016 20.4975 73.9016Z" fill="#3F3D56"/>
<path d="M20.4975 72.6032C20.9417 72.6032 21.3017 72.1279 21.3017 71.5416C21.3017 70.9553 20.9417 70.48 20.4975 70.48C20.0534 70.48 19.6934 70.9553 19.6934 71.5416C19.6934 72.1279 20.0534 72.6032 20.4975 72.6032Z" fill="#3F3D56"/>
<path d="M20.4975 71.3059C20.9417 71.3059 21.3017 70.8306 21.3017 70.2442C21.3017 69.6579 20.9417 69.1826 20.4975 69.1826C20.0534 69.1826 19.6934 69.6579 19.6934 70.2442C19.6934 70.8306 20.0534 71.3059 20.4975 71.3059Z" fill="#3F3D56"/>
<path d="M23.5123 61.3613C23.6215 61.2198 23.7214 61.0713 23.8114 60.9167L21.6966 60.5661L23.9839 60.583C24.2046 60.101 24.325 59.5786 24.3377 59.048C24.3504 58.5174 24.2551 57.9897 24.0577 57.4977L20.9898 59.102L23.8198 56.9984C23.5548 56.5365 23.1983 56.1345 22.7724 55.8176C22.3466 55.5006 21.8606 55.2754 21.3447 55.1561C20.8287 55.0367 20.2939 55.0258 19.7736 55.1238C19.2533 55.2219 18.7586 55.4269 18.3203 55.7262C17.882 56.0254 17.5095 56.4124 17.2261 56.863C16.9427 57.3137 16.7544 57.8183 16.6729 58.3455C16.5914 58.8727 16.6185 59.4112 16.7525 59.9274C16.8865 60.4436 17.1245 60.9265 17.4518 61.3459C17.2798 61.565 17.1324 61.8025 17.0121 62.0541L19.7558 63.507L16.834 62.5113C16.6292 63.1233 16.5789 63.7771 16.6874 64.4137C16.796 65.0503 17.0601 65.6496 17.4559 66.1576C17.0086 66.7308 16.7304 67.4193 16.653 68.1444C16.5756 68.8695 16.7022 69.6019 17.0183 70.2579C17.3344 70.9139 17.8273 71.467 18.4405 71.8539C19.0538 72.2409 19.7627 72.4461 20.4862 72.4461C21.2097 72.4461 21.9186 72.2409 22.5319 71.8539C23.1451 71.467 23.638 70.9139 23.9541 70.2579C24.2702 69.6019 24.3968 68.8695 24.3194 68.1444C24.242 67.4193 23.9637 66.7308 23.5165 66.1576C24.0508 65.4726 24.3414 64.6266 24.3414 63.7552C24.3414 62.8839 24.0508 62.0378 23.5165 61.3529L23.5123 61.3613Z" fill="#43B052"/>
<path opacity="0.1" d="M16.625 63.7638C16.6237 64.6354 16.9145 65.4819 17.45 66.1661C17.0028 66.7393 16.7245 67.4279 16.6471 68.1529C16.5697 68.878 16.6963 69.6105 17.0124 70.2664C17.3285 70.9224 17.8214 71.4755 18.4346 71.8625C19.0479 72.2495 19.7568 72.4547 20.4803 72.4547C21.2038 72.4547 21.9127 72.2495 22.526 71.8625C23.1392 71.4755 23.6321 70.9224 23.9482 70.2664C24.2643 69.6105 24.3909 68.878 24.3135 68.1529C24.2361 67.4279 23.9579 66.7393 23.5106 66.1661C24.0267 65.5056 16.625 63.3276 16.625 63.7638Z" fill="black"/>
<path d="M27.3872 84.3665H13.7942C13.6411 84.3665 13.4942 84.3052 13.3859 84.196C13.2776 84.0869 13.2168 83.9389 13.2168 83.7845V76.9562C13.2168 76.858 13.2414 76.7613 13.2884 76.6753C13.3354 76.5893 13.4032 76.5166 13.4856 76.4641C13.5679 76.4116 13.6621 76.381 13.7594 76.3751C13.8567 76.3692 13.9538 76.3881 14.0418 76.4303C17.9472 78.2983 21.0443 80.4762 27.1201 76.4597C27.4804 76.2213 27.9549 76.5467 27.9549 76.98V83.7817C27.9556 83.9348 27.8965 84.0821 27.7902 84.1916C27.6839 84.3011 27.5392 84.3639 27.3872 84.3665Z" fill="#43B052"/>
<path d="M128.254 82.435L108.2 85.1094L107.197 85.2427L97.3926 79.964V78.7285L128.032 75.3599L128.254 82.435Z" fill="#9C9CA1"/>
<path d="M103.074 80.5252L124.799 77.9434L124.577 81.9865L107.654 83.2375L103.074 80.5252Z" fill="#939498"/>
<path opacity="0.4" d="M108.2 83.7814V85.1081L107.197 85.2483L97.3906 79.964V78.7285L106.75 83.7772C106.75 83.7772 107.977 83.8936 108.2 83.7814Z" fill="black"/>
<path d="M112.05 62.7243L107.548 83.7675C107.503 83.9782 107.508 84.1967 107.564 84.4048C107.62 84.6128 107.725 84.8042 107.87 84.9628C108.015 85.1214 108.196 85.2425 108.397 85.3159C108.598 85.3892 108.813 85.4128 109.026 85.3845L137.51 81.5839C137.758 81.551 137.992 81.4482 138.185 81.2875C138.378 81.1268 138.522 80.9146 138.6 80.6752L144.746 61.995C144.814 61.7878 144.831 61.567 144.795 61.3517C144.759 61.1364 144.673 60.933 144.542 60.7591C144.411 60.5852 144.24 60.446 144.044 60.3535C143.848 60.261 143.632 60.2179 143.416 60.228L113.291 61.6697C112.998 61.6837 112.718 61.7945 112.494 61.9852C112.269 62.1758 112.113 62.4355 112.05 62.7243Z" fill="#3F3D56"/>
<path d="M127.701 70.4876C127.771 69.8174 127.481 69.2375 127.054 69.1922C126.627 69.147 126.224 69.6535 126.154 70.3237C126.084 70.9938 126.374 71.5738 126.801 71.6191C127.228 71.6643 127.631 71.1577 127.701 70.4876Z" fill="white"/>
</g>
<defs>
<clipPath id="clip0">
<rect width="160" height="88" fill="white"/>
</clipPath>
</defs>
</svg>
