<svg width="156" height="99" viewBox="0 0 156 99" fill="none" xmlns="http://www.w3.org/2000/svg">
<g clip-path="url(#clip0)">
<path d="M154.83 64.8409H94.6047C94.2942 64.8406 93.9965 64.7168 93.777 64.4969C93.5574 64.2769 93.4339 63.9786 93.4336 63.6676V1.17334C93.4339 0.862257 93.5574 0.564015 93.777 0.344047C93.9965 0.124078 94.2942 0.000347575 94.6047 0H154.83C155.14 0.000347035 155.438 0.124078 155.657 0.344047C155.877 0.564016 156 0.862257 156.001 1.17334V63.6676C156 63.9786 155.877 64.2769 155.657 64.4969C155.438 64.7168 155.14 64.8406 154.83 64.8409ZM94.6047 0.409091C94.4025 0.409323 94.2086 0.489916 94.0656 0.63319C93.9226 0.776464 93.8421 0.970719 93.8419 1.17334V63.6676C93.8421 63.8702 93.9226 64.0644 94.0656 64.2077C94.2086 64.351 94.4025 64.4316 94.6047 64.4318H154.83C155.032 64.4316 155.226 64.351 155.369 64.2077C155.512 64.0644 155.592 63.8702 155.592 63.6676V1.17334C155.592 0.970719 155.512 0.776464 155.369 0.63319C155.226 0.489916 155.032 0.409323 154.83 0.409091H94.6047Z" fill="#3F3D56"/>
<path d="M136.069 26.2652C137.414 28.7551 137.907 31.6187 137.471 34.4163C137.036 37.2139 135.695 39.7909 133.657 41.7517C131.618 43.7124 128.993 44.9485 126.185 45.2702C123.377 45.5919 120.542 44.9814 118.114 43.5325C115.686 42.0835 113.799 39.8762 112.744 37.2493C111.69 34.6225 111.524 31.7214 112.274 28.9914C113.024 26.2614 114.647 23.8535 116.895 22.1372C119.143 20.4209 121.891 19.4913 124.717 19.4909C124.819 19.4909 124.921 19.4924 125.023 19.4948L124.887 13.9709C124.83 13.9704 124.774 13.9688 124.717 13.9688C120.651 13.9699 116.699 15.3197 113.479 17.8074C110.259 20.2951 107.952 23.7808 106.917 27.7206C105.882 31.6604 106.178 35.8325 107.759 39.5861C109.339 43.3396 112.116 46.4633 115.654 48.4697C119.193 50.4761 123.296 51.2524 127.321 50.6774C131.347 50.1024 135.069 48.2084 137.907 45.291C140.745 42.3737 142.54 38.5971 143.01 34.5505C143.481 30.504 142.601 26.4152 140.509 22.9222L136.069 26.2652Z" fill="#F0C453"/>
<path d="M136.069 26.265L140.509 22.922C138.887 20.215 136.599 17.9703 133.864 16.403C131.129 14.8357 128.038 13.9982 124.887 13.9707L125.023 19.4946C127.296 19.5479 129.515 20.2022 131.455 21.3911C133.395 22.5801 134.986 24.2615 136.069 26.265Z" fill="#E6E6E6"/>
<path d="M134.091 48.2587L133.863 48.4849L140.331 55.0257L140.559 54.7995L134.091 48.2587Z" fill="#3F3D56"/>
<path d="M138.243 8.22081L133.748 16.251L134.028 16.4082L138.523 8.37804L138.243 8.22081Z" fill="#3F3D56"/>
<path d="M145.284 57.4393H135.74C135.57 57.4391 135.407 57.3715 135.287 57.2513C135.167 57.1312 135.1 56.9682 135.1 56.7983V55.4515C135.1 55.2816 135.167 55.1186 135.287 54.9985C135.407 54.8783 135.57 54.8107 135.74 54.8105H145.284C145.454 54.8107 145.616 54.8783 145.736 54.9985C145.856 55.1186 145.924 55.2816 145.924 55.4515V56.7983C145.924 56.9682 145.856 57.1312 145.736 57.2513C145.616 57.3715 145.454 57.4391 145.284 57.4393Z" fill="#F0C453"/>
<path d="M142.864 8.41398H133.319C133.15 8.41378 132.987 8.34618 132.867 8.22601C132.747 8.10585 132.68 7.94293 132.68 7.77299V6.42616C132.68 6.25622 132.747 6.0933 132.867 5.97313C132.987 5.85296 133.15 5.78536 133.319 5.78516H142.864C143.034 5.78536 143.196 5.85296 143.316 5.97313C143.436 6.0933 143.504 6.25622 143.504 6.42616V7.77299C143.504 7.94293 143.436 8.10585 143.316 8.22601C143.196 8.34618 143.034 8.41378 142.864 8.41398Z" fill="#E6E6E6"/>
<path d="M83.8065 29.8376H15.7466C15.4508 29.8373 15.1672 29.7194 14.958 29.5098C14.7489 29.3003 14.6312 29.0162 14.6309 28.7198V1.3224C14.6312 1.02604 14.7489 0.741917 14.958 0.53236C15.1672 0.322803 15.4508 0.204926 15.7466 0.20459H83.8065C84.1023 0.204936 84.3859 0.322817 84.595 0.532373C84.8042 0.741929 84.9218 1.02605 84.9221 1.3224V28.7198C84.9218 29.0162 84.8042 29.3003 84.595 29.5098C84.3859 29.7194 84.1023 29.8373 83.8065 29.8376ZM15.7466 0.613681C15.559 0.613884 15.3792 0.688619 15.2466 0.821485C15.114 0.954351 15.0394 1.1345 15.0392 1.3224V28.7198C15.0394 28.9077 15.114 29.0879 15.2466 29.2207C15.3792 29.3536 15.559 29.4283 15.7466 29.4285H83.8065C83.994 29.4283 84.1738 29.3536 84.3064 29.2207C84.439 29.0878 84.5136 28.9077 84.5138 28.7198V1.3224C84.5136 1.13451 84.439 0.954365 84.3064 0.8215C84.1738 0.688635 83.994 0.613895 83.8065 0.613681H15.7466Z" fill="#3F3D56"/>
<path d="M42.2758 23.0379H35.6816C35.5131 23.0376 35.3501 22.9773 35.2218 22.8679C35.0935 22.7585 35.0081 22.607 34.9808 22.4404C34.5507 19.6414 34.5507 16.7929 34.9808 13.9939C35.0081 13.8273 35.0935 13.6759 35.2218 13.5664C35.3501 13.457 35.5131 13.3968 35.6816 13.3965H42.2758C42.3826 13.3962 42.4881 13.4202 42.5843 13.4669C42.6805 13.5136 42.7647 13.5816 42.8307 13.6659C42.8981 13.7513 42.9451 13.851 42.9683 13.9574C42.9914 14.0637 42.99 14.174 42.9643 14.2798C42.3474 16.8683 42.3474 19.566 42.9642 22.1546C42.99 22.2604 42.9914 22.3706 42.9683 22.477C42.9451 22.5834 42.8981 22.6831 42.8307 22.7685C42.7647 22.8527 42.6805 22.9208 42.5843 22.9675C42.4881 23.0141 42.3826 23.0382 42.2758 23.0379Z" fill="#E6E6E6"/>
<path d="M64.3539 23.0379H57.7597C57.5912 23.0376 57.4283 22.9773 57.3 22.8679C57.1716 22.7585 57.0862 22.607 57.0589 22.4404C56.6288 19.6414 56.6288 16.7929 57.0589 13.9939C57.0862 13.8274 57.1716 13.6759 57.3 13.5665C57.4283 13.4571 57.5912 13.3968 57.7597 13.3965H64.3539C64.4608 13.3961 64.5663 13.4202 64.6625 13.4669C64.7587 13.5136 64.8429 13.5817 64.9088 13.666C64.9762 13.7514 65.0233 13.851 65.0464 13.9574C65.0695 14.0638 65.0681 14.174 65.0423 14.2798C64.4255 16.8684 64.4255 19.566 65.0423 22.1546C65.0681 22.2603 65.0695 22.3706 65.0464 22.477C65.0233 22.5833 64.9762 22.683 64.9088 22.7684C64.8429 22.8527 64.7586 22.9207 64.6625 22.9674C64.5663 23.0141 64.4608 23.0382 64.3539 23.0379Z" fill="#E6E6E6"/>
<path d="M31.0609 16.6453H24.4667C24.2982 16.645 24.1353 16.5848 24.007 16.4754C23.8786 16.3659 23.7932 16.2144 23.766 16.0479C23.3358 13.2488 23.3358 10.4004 23.766 7.60137C23.7932 7.43477 23.8786 7.28328 24.007 7.17386C24.1353 7.06445 24.2982 7.00423 24.4667 7.00391H31.0609C31.1678 7.00357 31.2733 7.02766 31.3695 7.07434C31.4656 7.12101 31.5499 7.18905 31.6158 7.27327C31.6832 7.35869 31.7303 7.45839 31.7534 7.56478C31.7766 7.67116 31.7752 7.78144 31.7494 7.88721C31.1325 10.4758 31.1325 13.1734 31.7494 15.762C31.7752 15.8678 31.7766 15.978 31.7534 16.0844C31.7303 16.1908 31.6832 16.2905 31.6158 16.3759C31.5499 16.4602 31.4656 16.5282 31.3695 16.5749C31.2733 16.6216 31.1678 16.6456 31.0609 16.6453Z" fill="#F0C453"/>
<path d="M53.3598 16.6453H46.7655C46.6587 16.6457 46.5531 16.6216 46.457 16.5749C46.3608 16.5282 46.2766 16.4601 46.2106 16.3759C46.1432 16.2905 46.0962 16.1908 46.073 16.0844C46.0499 15.978 46.0513 15.8678 46.0771 15.762C46.694 13.1734 46.6939 10.4758 46.0771 7.88721C46.0513 7.78146 46.0499 7.6712 46.073 7.56483C46.0962 7.45846 46.1432 7.35878 46.2106 7.27337C46.2765 7.18912 46.3608 7.12106 46.457 7.07436C46.5531 7.02767 46.6586 7.00357 46.7655 7.00391H53.3598C53.5283 7.00423 53.6912 7.06445 53.8195 7.17387C53.9478 7.28328 54.0332 7.43477 54.0604 7.60137C54.4906 10.4004 54.4906 13.2488 54.0604 16.0479C54.0332 16.2144 53.9478 16.3659 53.8195 16.4754C53.6912 16.5848 53.5283 16.645 53.3598 16.6453Z" fill="#F0C453"/>
<path d="M75.0844 16.6453H68.4901C68.3833 16.6457 68.2777 16.6216 68.1816 16.5749C68.0854 16.5282 68.0012 16.4601 67.9352 16.3759C67.8678 16.2905 67.8208 16.1908 67.7976 16.0844C67.7745 15.978 67.7759 15.8678 67.8017 15.762C68.4186 13.1734 68.4185 10.4758 67.8017 7.88721C67.7759 7.78146 67.7745 7.6712 67.7976 7.56483C67.8208 7.45846 67.8678 7.35878 67.9352 7.27337C68.0012 7.18912 68.0854 7.12106 68.1816 7.07436C68.2777 7.02767 68.3833 7.00357 68.4901 7.00391H75.0844C75.2529 7.00425 75.4158 7.06448 75.5441 7.17389C75.6724 7.2833 75.7578 7.43478 75.7851 7.60137C76.2152 10.4004 76.2152 13.2488 75.7851 16.0479C75.7578 16.2144 75.6724 16.3659 75.5441 16.4753C75.4158 16.5847 75.2529 16.645 75.0844 16.6453Z" fill="#FF6584"/>
<path d="M38.3691 65.3451C38.0549 65.281 37.7586 65.1486 37.501 64.9574C37.2434 64.7661 37.0308 64.5206 36.8781 64.2381C36.7255 63.9556 36.6365 63.643 36.6175 63.3223C36.5985 63.0016 36.6499 62.6807 36.7681 62.382L27.7168 42.9111L32.3085 41.6182L39.7698 61.1878C40.2573 61.42 40.6429 61.8233 40.8535 62.3213C41.0641 62.8193 41.0851 63.3773 40.9125 63.8898C40.7398 64.4022 40.3855 64.8334 39.9168 65.1016C39.448 65.3699 38.8973 65.4565 38.3691 65.3451Z" fill="#A0616A"/>
<path d="M20.8403 96.4152H23.3432L24.5339 86.7427H20.8398L20.8403 96.4152Z" fill="#A0616A"/>
<path d="M28.1699 98.7437L20.3036 98.744L20.3034 95.699L25.1305 95.6988C25.9366 95.6987 26.7096 96.0195 27.2796 96.5905C27.8496 97.1616 28.1699 97.9361 28.1699 98.7437Z" fill="#2F2E41"/>
<path d="M7.83008 93.7125L10.1307 94.6998L15.0269 86.2785L11.6311 84.8213L7.83008 93.7125Z" fill="#A0616A"/>
<path d="M13.6523 98.7441L6.42135 95.6411L7.61798 92.842L12.0552 94.7462C12.7961 95.0641 13.3807 95.664 13.6802 96.4137C13.9797 97.1635 13.9697 98.0018 13.6523 98.7441Z" fill="#2F2E41"/>
<path d="M27.028 33.7767C29.7973 33.7767 32.0423 31.5274 32.0423 28.7529C32.0423 25.9783 29.7973 23.729 27.028 23.729C24.2587 23.729 22.0137 25.9783 22.0137 28.7529C22.0137 31.5274 24.2587 33.7767 27.028 33.7767Z" fill="#A0616A"/>
<path d="M23.4064 94.0505L20.6511 93.5246C20.4246 93.4826 20.2223 93.3565 20.0847 93.1714C19.9471 92.9864 19.8843 92.756 19.909 92.5266L21.7361 74.6782C21.7536 74.5079 21.7095 74.337 21.612 74.1965C21.5145 74.0559 21.3699 73.955 21.2045 73.9121C21.0391 73.8692 20.8638 73.8871 20.7105 73.9625C20.5571 74.0379 20.4358 74.1659 20.3685 74.3233L12.3918 92.9711C12.3438 93.0831 12.2741 93.1845 12.1868 93.2693C12.0994 93.3541 11.9961 93.4207 11.8828 93.4653C11.7695 93.5098 11.6486 93.5313 11.5269 93.5286C11.4053 93.5259 11.2854 93.499 11.1742 93.4495L8.9332 92.4515C8.72399 92.3593 8.55681 92.1919 8.46456 91.9824C8.37231 91.7729 8.36166 91.5363 8.43472 91.3193L13.8903 74.9215C13.9056 74.8754 13.9162 74.8278 13.922 74.7795L15.6928 59.7971C15.7121 59.6336 15.7749 59.4782 15.8745 59.3472C15.9742 59.2163 16.1071 59.1145 16.2594 59.0525L21.851 56.7767C22.0164 56.7094 22.1978 56.6918 22.3731 56.7261C22.5483 56.7604 22.7098 56.8451 22.8377 56.9699L29.8955 63.8551C30.0055 63.9619 30.087 64.0947 30.1324 64.2412C30.1779 64.3878 30.1859 64.5434 30.1558 64.6938L24.4794 93.3256C24.4374 93.5343 24.3247 93.7221 24.1603 93.8571C23.996 93.9922 23.7902 94.0662 23.5777 94.0667C23.5202 94.0667 23.4628 94.0613 23.4064 94.0505Z" fill="#2F2E41"/>
<path d="M20.2641 60.6234C19.2873 59.4902 18.5744 58.9758 18.0868 59.0569C17.6031 59.1352 17.324 59.8124 17.0285 60.5293C16.6251 61.5079 16.168 62.6171 15.0411 62.7038C14.8657 62.734 14.6853 62.7141 14.5206 62.6465C14.3559 62.5788 14.2135 62.4661 14.1097 62.3212C13.2233 61.0005 15.3494 56.6299 15.5436 56.2372L15.4439 35.5657C15.4425 35.399 15.4865 35.235 15.5712 35.0913C15.6558 34.9477 15.7779 34.8299 15.9243 34.7505C21.7666 31.5941 29.6553 37.0836 31.1774 38.2164C31.2991 38.3068 31.3967 38.426 31.4612 38.5634C31.5257 38.7008 31.5552 38.852 31.547 39.0037C31.3633 42.4657 30.4472 59.9328 30.4472 63.8292C30.4472 64.9078 30.0759 65.5932 29.3435 65.866C29.0962 65.9539 28.8352 65.9968 28.5729 65.9927C26.3382 65.9927 22.6783 63.4239 20.2641 60.6234Z" fill="#CCCCCC"/>
<path d="M28.4183 50.5859C28.2962 50.5064 28.1949 50.3986 28.123 50.2716C28.0511 50.1447 28.0108 50.0023 28.0054 49.8564L27.6096 40.5975C27.5852 40.0275 27.7641 39.4674 28.1142 39.0174C28.4644 38.5674 28.9629 38.2569 29.5206 38.1415C30.0783 38.0261 30.6588 38.1132 31.1582 38.3874C31.6576 38.6616 32.0434 39.1049 32.2464 39.6379L35.2082 47.4141C35.2948 47.6422 35.2876 47.8953 35.1881 48.1181C35.0886 48.3408 34.9049 48.5149 34.6774 48.6022L29.2508 50.677C29.1149 50.7297 28.9683 50.749 28.8235 50.7331C28.6786 50.7173 28.5397 50.6668 28.4183 50.5859V50.5859Z" fill="#CCCCCC"/>
<path d="M14.6283 65.0527C14.3623 64.8734 14.1387 64.6379 13.9734 64.3626C13.808 64.0874 13.7049 63.7792 13.6713 63.4597C13.6377 63.1402 13.6744 62.8173 13.7789 62.5136C13.8833 62.2099 14.053 61.9328 14.2759 61.7019L13.3184 40.2441L18.0552 40.803L17.5053 61.7446C17.8677 62.1454 18.0707 62.6656 18.0759 63.2064C18.0811 63.7472 17.8881 64.2712 17.5334 64.6789C17.1788 65.0867 16.6872 65.35 16.1518 65.4189C15.6163 65.4878 15.0743 65.3575 14.6283 65.0527H14.6283Z" fill="#A0616A"/>
<path d="M11.3386 45.958C11.2527 45.84 11.1964 45.7031 11.1745 45.5588C11.1525 45.4145 11.1655 45.267 11.2123 45.1288L14.1374 36.337C14.3175 35.7957 14.6839 35.3362 15.1712 35.0408C15.6584 34.7455 16.2347 34.6335 16.7968 34.7249C17.359 34.8163 17.8703 35.1051 18.2393 35.5397C18.6084 35.9743 18.811 36.5262 18.811 37.0968V45.4199C18.8107 45.6639 18.7138 45.8978 18.5416 46.0704C18.3693 46.243 18.1358 46.34 17.8922 46.3403H12.0839C11.9382 46.3411 11.7944 46.3068 11.6647 46.2402C11.535 46.1737 11.4232 46.0769 11.3386 45.958Z" fill="#CCCCCC"/>
<path d="M23.7911 32.1319C23.6034 32.2792 23.369 32.3538 23.1308 32.3419C22.8926 32.33 22.6667 32.2325 22.4945 32.0671C21.4199 31.0607 20.5129 29.8572 20.0539 28.4634C19.5279 26.8664 19.6623 24.9958 20.6695 23.6505C21.521 22.5132 22.8687 21.8707 24.1962 21.3684C24.7144 21.1488 25.2619 21.0064 25.8213 20.9455C26.3863 20.8868 26.9525 21.0461 27.4044 21.3909C27.6247 21.5671 27.7868 21.8057 27.8697 22.0756C27.9525 22.3455 27.9523 22.6342 27.869 22.904C28.5497 22.2845 29.3803 21.854 30.2783 21.6552C30.8467 21.5042 31.4474 21.5292 32.0014 21.7267C32.7713 22.0439 33.2714 22.8187 33.5018 23.6201C33.6924 24.2314 33.7078 24.8841 33.5464 25.5038C33.4635 25.8119 33.317 26.0991 33.1163 26.3469C32.9156 26.5947 32.6653 26.7975 32.3815 26.9422C31.6771 27.2747 30.8413 27.1492 30.1048 26.8961C29.3683 26.643 28.6701 26.2695 27.9083 26.1081C27.1466 25.9466 26.2671 26.0408 25.7281 26.6037C25.3485 27.0002 25.1991 27.5578 25.0633 28.0901L24.3572 30.8584C24.2792 31.2616 24.1301 31.6477 23.9169 31.9984C23.8812 32.0484 23.8389 32.0933 23.7911 32.1319Z" fill="#2F2E41"/>
<path d="M44.1254 72.077H37.5311C37.3626 72.0766 37.1997 72.0164 37.0714 71.907C36.9431 71.7976 36.8577 71.6461 36.8304 71.4795C36.4003 68.6805 36.4003 65.832 36.8304 63.033C36.8577 62.8664 36.9431 62.7149 37.0714 62.6055C37.1997 62.4961 37.3626 62.4359 37.5311 62.4356H44.1254C44.2323 62.4352 44.3378 62.4593 44.434 62.506C44.5301 62.5527 44.6144 62.6208 44.6803 62.705C44.7477 62.7904 44.7948 62.8901 44.8179 62.9965C44.841 63.1028 44.8396 63.2131 44.8138 63.3189C44.197 65.9074 44.197 68.6051 44.8138 71.1937C44.8396 71.2994 44.841 71.4097 44.8179 71.516C44.7948 71.6224 44.7477 71.7221 44.6803 71.8075C44.6144 71.8917 44.5301 71.9598 44.434 72.0065C44.3378 72.0532 44.2323 72.0773 44.1254 72.077Z" fill="#F0C453"/>
<path d="M33.0736 98.9999H0.204158C0.150012 98.9999 0.0980834 98.9783 0.0597963 98.94C0.0215093 98.9016 0 98.8496 0 98.7954C0 98.7411 0.0215093 98.6891 0.0597963 98.6507C0.0980834 98.6124 0.150012 98.5908 0.204158 98.5908H33.0736C33.1277 98.5908 33.1797 98.6124 33.2179 98.6507C33.2562 98.6891 33.2777 98.7411 33.2777 98.7954C33.2777 98.8496 33.2562 98.9016 33.2179 98.94C33.1797 98.9783 33.1277 98.9999 33.0736 98.9999Z" fill="#3F3D56"/>
</g>
<defs>
<clipPath id="clip0">
<rect width="156" height="99" fill="white"/>
</clipPath>
</defs>
</svg>
