<svg width="147" height="94" viewBox="0 0 147 94" fill="none" xmlns="http://www.w3.org/2000/svg">
<g clip-path="url(#clip0)">
<path d="M135.553 92.0086H133.491L132.51 75.8491H135.553V92.0086Z" fill="#A0616A"/>
<path d="M132.019 91.4146H135.995V93.9389H129.516C129.516 93.6074 129.58 93.2791 129.706 92.9728C129.832 92.6666 130.016 92.3883 130.249 92.1539C130.481 91.9195 130.757 91.7336 131.061 91.6067C131.365 91.4798 131.69 91.4146 132.019 91.4146Z" fill="#2F2E41"/>
<path d="M145.84 89.8223L143.946 90.6432L135.816 75.4224L138.612 74.2109L145.84 89.8223Z" fill="#A0616A"/>
<path d="M142.359 90.6844L146.011 89.1014L147 91.4206L141.047 94.0004C140.917 93.6958 140.848 93.3684 140.844 93.037C140.84 92.7055 140.9 92.3764 141.022 92.0685C141.144 91.7606 141.324 91.4799 141.554 91.2424C141.783 91.0049 142.057 90.8153 142.359 90.6844Z" fill="#2F2E41"/>
<path d="M115.812 21.3831H80.0938C79.8116 21.3828 79.541 21.2696 79.3415 21.0683C79.1419 20.8671 79.0296 20.5942 79.0293 20.3096V1.07345C79.0296 0.788856 79.1419 0.516008 79.3415 0.314768C79.541 0.113527 79.8116 0.000328175 80.0938 0H115.812C116.094 0.000328176 116.365 0.113527 116.564 0.314768C116.764 0.516008 116.876 0.788856 116.877 1.07345V20.3096C116.876 20.5942 116.764 20.8671 116.564 21.0683C116.365 21.2696 116.094 21.3828 115.812 21.3831Z" fill="#E6E6E6"/>
<path d="M86.197 13.4613C88.3661 13.4613 90.1245 11.6882 90.1245 9.50093C90.1245 7.31366 88.3661 5.54053 86.197 5.54053C84.0279 5.54053 82.2695 7.31366 82.2695 9.50093C82.2695 11.6882 84.0279 13.4613 86.197 13.4613Z" fill="white"/>
<path d="M111.486 5.95474H95.4501C95.2909 5.95474 95.1381 5.89094 95.0255 5.77738C94.9129 5.66382 94.8496 5.5098 94.8496 5.3492C94.8496 5.1886 94.9129 5.03457 95.0255 4.92101C95.1381 4.80745 95.2909 4.74365 95.4501 4.74365H111.486C111.645 4.74365 111.798 4.80745 111.91 4.92101C112.023 5.03457 112.086 5.1886 112.086 5.3492C112.086 5.5098 112.023 5.66382 111.91 5.77738C111.798 5.89094 111.645 5.95474 111.486 5.95474Z" fill="white"/>
<path d="M103.091 8.72232H95.4501C95.2909 8.72232 95.1381 8.65852 95.0255 8.54496C94.9129 8.4314 94.8496 8.27737 94.8496 8.11677C94.8496 7.95617 94.9129 7.80215 95.0255 7.68859C95.1381 7.57503 95.2909 7.51123 95.4501 7.51123H103.091C103.25 7.51123 103.403 7.57503 103.516 7.68859C103.628 7.80215 103.692 7.95617 103.692 8.11677C103.692 8.27737 103.628 8.4314 103.516 8.54496C103.403 8.65852 103.25 8.72232 103.091 8.72232Z" fill="white"/>
<path d="M108.473 11.4899H95.4501C95.2909 11.4899 95.1381 11.4261 95.0255 11.3125C94.9129 11.199 94.8496 11.045 94.8496 10.8844C94.8496 10.7238 94.9129 10.5697 95.0255 10.4562C95.1381 10.3426 95.2909 10.2788 95.4501 10.2788H108.473C108.632 10.2788 108.785 10.3426 108.897 10.4562C109.01 10.5697 109.073 10.7238 109.073 10.8844C109.073 11.045 109.01 11.199 108.897 11.3125C108.785 11.4261 108.632 11.4899 108.473 11.4899Z" fill="white"/>
<path d="M111.486 14.257H95.4501C95.2909 14.257 95.1381 14.1932 95.0255 14.0796C94.9129 13.9661 94.8496 13.812 94.8496 13.6514C94.8496 13.4908 94.9129 13.3368 95.0255 13.2233C95.1381 13.1097 95.2909 13.0459 95.4501 13.0459H111.486C111.645 13.0459 111.798 13.1097 111.91 13.2233C112.023 13.3368 112.086 13.4908 112.086 13.6514C112.086 13.812 112.023 13.9661 111.91 14.0796C111.798 14.1932 111.645 14.257 111.486 14.257Z" fill="white"/>
<path d="M110.984 19.2629H108.329C108.184 19.2632 108.041 19.2346 107.907 19.1788C107.773 19.1231 107.651 19.0412 107.548 18.9379C107.446 18.8346 107.364 18.712 107.309 18.577C107.253 18.4419 107.225 18.2972 107.225 18.151C107.225 18.0048 107.253 17.8601 107.309 17.725C107.364 17.59 107.446 17.4673 107.548 17.3641C107.651 17.2608 107.773 17.1789 107.907 17.1232C108.041 17.0674 108.184 17.0388 108.329 17.0391H110.984C111.277 17.0391 111.557 17.1562 111.764 17.3647C111.971 17.5733 112.087 17.8561 112.087 18.151C112.087 18.4459 111.971 18.7287 111.764 18.9373C111.557 19.1458 111.277 19.2629 110.984 19.2629Z" fill="white"/>
<path d="M62.6885 23.1748H37.7491C37.5521 23.1746 37.3632 23.0956 37.2238 22.9551C37.0845 22.8145 37.0061 22.624 37.0059 22.4253V8.99414C37.0061 8.79543 37.0845 8.60492 37.2238 8.46441C37.3632 8.3239 37.5521 8.24486 37.7491 8.24463H62.6885C62.8856 8.24486 63.0745 8.3239 63.2138 8.46441C63.3532 8.60492 63.4316 8.79543 63.4318 8.99414V22.4253C63.4316 22.624 63.3532 22.8145 63.2138 22.9551C63.0745 23.0956 62.8856 23.1746 62.6885 23.1748Z" fill="#F2F2F2"/>
<path d="M42.0079 17.6433C43.5224 17.6433 44.7502 16.4053 44.7502 14.878C44.7502 13.3508 43.5224 12.1128 42.0079 12.1128C40.4934 12.1128 39.2656 13.3508 39.2656 14.878C39.2656 16.4053 40.4934 17.6433 42.0079 17.6433Z" fill="white"/>
<path d="M59.6665 12.4018H48.4701C48.3589 12.4018 48.2522 12.3572 48.1736 12.2779C48.095 12.1986 48.0508 12.0911 48.0508 11.979C48.0508 11.8668 48.095 11.7593 48.1736 11.68C48.2522 11.6007 48.3589 11.5562 48.4701 11.5562H59.6665C59.7777 11.5562 59.8844 11.6007 59.963 11.68C60.0417 11.7593 60.0858 11.8668 60.0858 11.979C60.0858 12.0911 60.0417 12.1986 59.963 12.2779C59.8844 12.3572 59.7777 12.4018 59.6665 12.4018Z" fill="white"/>
<path d="M53.8043 14.3349H48.4692C48.3582 14.3346 48.2517 14.29 48.1733 14.2107C48.0948 14.1315 48.0508 14.0241 48.0508 13.9121C48.0508 13.8001 48.0948 13.6927 48.1733 13.6134C48.2517 13.5341 48.3582 13.4895 48.4692 13.4893H53.8043C53.9154 13.4895 54.0218 13.5341 54.1002 13.6134C54.1787 13.6927 54.2228 13.8001 54.2228 13.9121C54.2228 14.0241 54.1787 14.1315 54.1002 14.2107C54.0218 14.29 53.9154 14.3346 53.8043 14.3349Z" fill="white"/>
<path d="M57.5618 16.267H48.4692C48.3582 16.2668 48.2517 16.2221 48.1733 16.1429C48.0948 16.0636 48.0508 15.9562 48.0508 15.8442C48.0508 15.7322 48.0948 15.6248 48.1733 15.5455C48.2517 15.4662 48.3582 15.4216 48.4692 15.4214H57.5618C57.6729 15.4216 57.7793 15.4662 57.8577 15.5455C57.9362 15.6248 57.9803 15.7322 57.9803 15.8442C57.9803 15.9562 57.9362 16.0636 57.8577 16.1429C57.7793 16.2221 57.6729 16.2668 57.5618 16.267Z" fill="white"/>
<path d="M59.6657 18.1991H48.4692C48.3582 18.1989 48.2517 18.1543 48.1733 18.075C48.0948 17.9957 48.0508 17.8883 48.0508 17.7763C48.0508 17.6643 48.0948 17.5569 48.1733 17.4776C48.2517 17.3984 48.3582 17.3537 48.4692 17.3535H59.6657C59.7208 17.3534 59.7755 17.3643 59.8264 17.3855C59.8774 17.4067 59.9237 17.4378 59.9627 17.4771C60.0018 17.5163 60.0327 17.563 60.0538 17.6143C60.075 17.6657 60.0858 17.7207 60.0858 17.7763C60.0858 17.8319 60.075 17.887 60.0538 17.9383C60.0327 17.9897 60.0018 18.0363 59.9627 18.0756C59.9237 18.1149 59.8774 18.146 59.8264 18.1672C59.7755 18.1884 59.7208 18.1992 59.6657 18.1991Z" fill="white"/>
<path d="M59.3171 21.6939H57.4633C57.2591 21.6939 57.0633 21.6121 56.9189 21.4665C56.7745 21.3209 56.6934 21.1234 56.6934 20.9175C56.6934 20.7116 56.7745 20.5141 56.9189 20.3685C57.0633 20.2229 57.2591 20.1411 57.4633 20.1411H59.3171C59.5213 20.1411 59.7172 20.2229 59.8616 20.3685C60.006 20.5141 60.0871 20.7116 60.0871 20.9175C60.0871 21.1234 60.006 21.3209 59.8616 21.4665C59.7172 21.6121 59.5213 21.6939 59.3171 21.6939Z" fill="white"/>
<path d="M105.35 43.9726H58.7141C58.3456 43.9722 57.9924 43.8244 57.7318 43.5616C57.4712 43.2989 57.3246 42.9427 57.3242 42.5711V17.4553C57.3246 17.0837 57.4712 16.7274 57.7318 16.4647C57.9924 16.2019 58.3456 16.0541 58.7141 16.0537H105.35C105.718 16.0541 106.072 16.2019 106.332 16.4647C106.593 16.7274 106.739 17.0837 106.74 17.4553V42.5711C106.739 42.9427 106.593 43.2989 106.332 43.5616C106.072 43.8244 105.718 43.9722 105.35 43.9726Z" fill="#F0C453"/>
<path d="M66.6807 33.629C69.5128 33.629 71.8086 31.3139 71.8086 28.458C71.8086 25.6022 69.5128 23.2871 66.6807 23.2871C63.8486 23.2871 61.5527 25.6022 61.5527 28.458C61.5527 31.3139 63.8486 33.629 66.6807 33.629Z" fill="white"/>
<path d="M99.6996 23.8283H78.7626C78.5546 23.8283 78.3552 23.745 78.2082 23.5968C78.0611 23.4485 77.9785 23.2474 77.9785 23.0377C77.9785 22.828 78.0611 22.6269 78.2082 22.4786C78.3552 22.3304 78.5546 22.2471 78.7626 22.2471H99.6996C99.8025 22.2471 99.9045 22.2675 99.9996 22.3073C100.095 22.347 100.181 22.4052 100.254 22.4786C100.327 22.5521 100.385 22.6392 100.424 22.7351C100.463 22.8311 100.484 22.9339 100.484 23.0377C100.484 23.1415 100.463 23.2443 100.424 23.3403C100.385 23.4362 100.327 23.5233 100.254 23.5968C100.181 23.6702 100.095 23.7284 99.9996 23.7681C99.9045 23.8079 99.8025 23.8283 99.6996 23.8283Z" fill="white"/>
<path d="M88.7389 27.4426H78.7626C78.5546 27.4426 78.3552 27.3593 78.2082 27.211C78.0611 27.0627 77.9785 26.8616 77.9785 26.652C77.9785 26.4423 78.0611 26.2412 78.2082 26.0929C78.3552 25.9446 78.5546 25.8613 78.7626 25.8613H88.7389C88.9469 25.8613 89.1463 25.9446 89.2933 26.0929C89.4404 26.2412 89.523 26.4423 89.523 26.652C89.523 26.8616 89.4404 27.0627 89.2933 27.211C89.1463 27.3593 88.9469 27.4426 88.7389 27.4426Z" fill="white"/>
<path d="M95.7653 31.0554H78.7626C78.5546 31.0554 78.3552 30.9721 78.2082 30.8238C78.0611 30.6755 77.9785 30.4744 77.9785 30.2648C77.9785 30.0551 78.0611 29.854 78.2082 29.7057C78.3552 29.5574 78.5546 29.4741 78.7626 29.4741H95.7653C95.9733 29.4741 96.1727 29.5574 96.3197 29.7057C96.4668 29.854 96.5494 30.0551 96.5494 30.2648C96.5494 30.4744 96.4668 30.6755 96.3197 30.8238C96.1727 30.9721 95.9733 31.0554 95.7653 31.0554Z" fill="white"/>
<path d="M99.6996 34.6682H78.7626C78.5546 34.6682 78.3552 34.5849 78.2082 34.4366C78.0611 34.2883 77.9785 34.0872 77.9785 33.8775C77.9785 33.6679 78.0611 33.4668 78.2082 33.3185C78.3552 33.1702 78.5546 33.0869 78.7626 33.0869H99.6996C99.9075 33.0869 100.107 33.1702 100.254 33.3185C100.401 33.4668 100.484 33.6679 100.484 33.8775C100.484 34.0872 100.401 34.2883 100.254 34.4366C100.107 34.5849 99.9075 34.6682 99.6996 34.6682Z" fill="white"/>
<path d="M99.0446 41.2044H95.578C95.3888 41.2046 95.2014 41.1672 95.0266 41.0943C94.8517 41.0214 94.6928 40.9145 94.5589 40.7797C94.4251 40.6449 94.3189 40.4848 94.2465 40.3085C94.174 40.1323 94.1367 39.9434 94.1367 39.7526C94.1367 39.5618 94.174 39.3729 94.2465 39.1966C94.3189 39.0204 94.4251 38.8603 94.5589 38.7255C94.6928 38.5906 94.8517 38.4837 95.0266 38.4109C95.2014 38.338 95.3888 38.3006 95.578 38.3008H99.0446C99.2338 38.3006 99.4212 38.338 99.5961 38.4109C99.7709 38.4837 99.9298 38.5906 100.064 38.7255C100.198 38.8603 100.304 39.0204 100.376 39.1966C100.449 39.3729 100.486 39.5618 100.486 39.7526C100.486 39.9434 100.449 40.1323 100.376 40.3085C100.304 40.4848 100.198 40.6449 100.064 40.7797C99.9298 40.9145 99.7709 41.0214 99.5961 41.0943C99.4212 41.1672 99.2338 41.2046 99.0446 41.2044Z" fill="white"/>
<path d="M146.143 75.8744C146.143 75.8744 142.056 54.8643 141.412 53.0934C141.057 52.1255 140.823 51.4214 140.823 51.4214L128.815 52.1139L128.716 53.0934L127.098 77.6651C127.098 77.6651 127.67 76.1036 128.183 75.8167C128.697 75.5298 128.643 77.6618 128.643 77.6618" fill="#2F2E41"/>
<path d="M128.905 52.105H139.416C139.121 51.04 139.416 50.0529 139.838 49.2956C140.132 48.7636 140.503 48.2782 140.938 47.8552L141.01 47.7901L144.683 46.969L144.88 46.9256C144.88 46.9256 144.909 40.1972 142.548 39.2739C141.25 38.7735 140.031 38.0869 138.928 37.2353C138.819 37.1489 138.686 37.0998 138.548 37.095L133.392 36.9047C133.234 36.8993 133.079 36.9518 132.956 37.0527C132.103 37.7438 129.393 39.1311 127.935 39.8569C127.679 39.9841 127.482 40.2059 127.384 40.4762C127.286 40.7464 127.295 41.0444 127.409 41.3082C127.991 42.6557 128.98 44.9092 129.084 44.9092C129.232 44.9092 128.905 52.105 128.905 52.105Z" fill="#F0C453"/>
<path d="M136.032 41.1925L140.971 54.0728C140.971 54.0728 137.632 54.8494 134.41 50.8796L133.248 48.3211L130.629 38.5698L136.032 41.1925Z" fill="#F6F8FB"/>
<path d="M137.343 34.2968C141.046 34.2968 144.047 31.27 144.047 27.5363C144.047 23.8026 141.046 20.7759 137.343 20.7759C133.64 20.7759 130.639 23.8026 130.639 27.5363C130.639 31.27 133.64 34.2968 137.343 34.2968Z" fill="#2F2E41"/>
<path d="M133.09 50.1869C133.274 50.4187 133.526 50.5847 133.811 50.6603C134.095 50.736 134.396 50.7172 134.669 50.6069L138.26 52.0242L139.457 49.2959L135.41 48.7689C135.332 48.5895 135.216 48.429 135.071 48.2982C134.926 48.1674 134.755 48.0693 134.57 48.0104C134.384 47.9515 134.188 47.9332 133.995 47.9567C133.802 47.9802 133.616 48.0449 133.45 48.1465C133.284 48.2482 133.141 48.3845 133.031 48.5462C132.921 48.708 132.846 48.8916 132.812 49.0847C132.778 49.2778 132.785 49.476 132.833 49.666C132.881 49.8561 132.969 50.0337 133.09 50.1869Z" fill="#A0616A"/>
<path d="M136.326 35.9264C138.695 35.9264 140.616 33.9894 140.616 31.5999C140.616 29.2105 138.695 27.2734 136.326 27.2734C133.956 27.2734 132.035 29.2105 132.035 31.5999C132.035 33.9894 133.956 35.9264 136.326 35.9264Z" fill="#A0616A"/>
<path d="M142.361 28.7345C140.079 29.9872 137.511 30.6129 134.914 30.5489C133.919 30.5229 132.823 30.3404 132.193 29.5637C131.482 28.6872 131.66 27.3179 132.346 26.4213C133.031 25.5247 134.104 25.0193 135.174 24.6765C136.187 24.3522 137.272 24.1433 138.31 24.3701C138.858 24.4897 139.374 24.7269 139.823 25.0656C140.272 25.4043 140.643 25.8365 140.911 26.3328C141.18 26.8291 141.339 27.3779 141.379 27.9419C141.418 28.5058 141.336 29.0717 141.14 29.6011" fill="#2F2E41"/>
<path d="M142.085 26.5473C144.162 26.5473 145.846 24.8494 145.846 22.7549C145.846 20.6603 144.162 18.9624 142.085 18.9624C140.008 18.9624 138.324 20.6603 138.324 22.7549C138.324 24.8494 140.008 26.5473 142.085 26.5473Z" fill="#2F2E41"/>
<path d="M143.433 45.1382L144.88 46.926L145.175 51.7785C145.175 51.7785 145.555 54.2494 142.754 53.6544C139.953 53.0593 136.348 51.9021 136.348 51.9021C136.348 51.9021 138.266 49.0981 137.41 48.2949L141.426 49.6051C141.426 49.6051 142.104 49.4556 141.572 48.8606C141.041 48.2655 140.947 47.1928 140.947 47.1928L143.433 45.1382Z" fill="#F0C453"/>
<path d="M136 49.3391C135.721 49.4334 135.419 49.4347 135.14 49.3427C134.86 49.2506 134.618 49.0703 134.448 48.8282L130.668 48.054L131.131 45.1074L134.814 46.8787C134.976 46.7709 135.16 46.6994 135.352 46.6688C135.544 46.6383 135.74 46.6493 135.928 46.7014C136.115 46.7534 136.29 46.8451 136.439 46.9705C136.589 47.0958 136.71 47.2519 136.795 47.4283C136.88 47.6047 136.927 47.7973 136.932 47.9934C136.938 48.1894 136.902 48.3844 136.826 48.5652C136.751 48.7461 136.638 48.9086 136.496 49.0421C136.353 49.1755 136.184 49.2768 136 49.3391Z" fill="#A0616A"/>
<path d="M131.01 42.5254C131.01 42.5254 130.354 43.3752 129.587 43.5841C128.82 43.793 129.31 44.2899 129.31 44.2899L133.388 45.3861C132.237 45.5925 132.34 48.9974 132.34 48.9974C132.34 48.9974 128.689 47.9973 126.016 46.9647C123.342 45.9322 124.991 44.0643 124.991 44.0643L127.85 40.1494L130.027 39.4395L131.01 42.5254Z" fill="#F0C453"/>
<path d="M5.95508 88.7767L7.9227 89.6293L12.1207 82.3821L9.21679 81.1235L5.95508 88.7767Z" fill="#FFB8B8"/>
<path d="M10.9336 93.1167L4.7496 90.4368L5.77642 88.0275L9.66049 89.7107C10.2705 89.975 10.7513 90.4729 10.9973 91.0948C11.2432 91.7166 11.2341 92.4115 10.972 93.0266L10.9336 93.1167L10.9336 93.1167Z" fill="#2F2E41"/>
<path d="M19.5293 91.2185H21.6711L22.6903 82.8887H19.5293V91.2185Z" fill="#FFB8B8"/>
<path d="M25.8008 93.2241H19.0699V90.6018H23.2974C23.9614 90.6018 24.5981 90.8677 25.0676 91.3411C25.537 91.8145 25.8008 92.4566 25.8008 93.1261V93.2241L25.8008 93.2241Z" fill="#2F2E41"/>
<g opacity="0.1">
<path opacity="0.1" d="M6.49023 27.6676L6.61124 27.6939C6.57589 27.6695 6.53244 27.66 6.49023 27.6676Z" fill="url(#paint0_linear)"/>
</g>
<path d="M23.1458 83.7599L18.2195 83.9568C17.0168 83.1415 13.2831 63.8812 13.2831 63.8812C13.3086 64.0302 12.8159 82.9976 12.8159 82.9976H7.51598L4.91211 53.4199L7.78607 54.5868C7.78607 54.5868 20.9462 53.5107 21.5594 54.2764C21.6885 54.5263 23.1458 83.7599 23.1458 83.7599Z" fill="#2F2E41"/>
<path d="M12.0503 32.4635C14.4199 32.4635 16.3408 30.5265 16.3408 28.137C16.3408 25.7476 14.4199 23.8105 12.0503 23.8105C9.68071 23.8105 7.75977 25.7476 7.75977 28.137C7.75977 30.5265 9.68071 32.4635 12.0503 32.4635Z" fill="#FFB8B8"/>
<path d="M19.3215 62.2911C19.1366 62.0459 19.0349 61.7471 19.0315 61.4391C19.0282 61.131 19.1233 60.8301 19.3028 60.5808L18.7988 56.5727L21.8281 56.0498L21.3271 60.2944C21.4864 60.4198 21.6174 60.5779 21.7112 60.7584C21.8051 60.9388 21.8597 61.1373 21.8714 61.3407C21.8831 61.5441 21.8517 61.7477 21.7793 61.9379C21.7068 62.1281 21.5949 62.3005 21.4511 62.4437C21.3074 62.5868 21.1349 62.6974 20.9454 62.768C20.7559 62.8387 20.5536 62.8677 20.3521 62.8533C20.1505 62.8388 19.9544 62.7812 19.7767 62.6843C19.5989 62.5873 19.4438 62.4533 19.3215 62.2911H19.3215Z" fill="#FFB8B8"/>
<path d="M12.7012 25.2352L12.7958 25.2558C12.768 25.2371 12.7342 25.2297 12.7012 25.2352Z" fill="#E1E7EF"/>
<path d="M10.6738 26.5158C11.6079 26.7216 12.5585 26.9179 13.5125 26.8539C14.4666 26.7899 15.4396 26.4337 16.0591 25.6993C16.6787 24.9649 16.85 23.8118 16.3001 23.023C15.6463 22.0851 14.3351 21.9726 13.1984 21.9489L9.61668 21.874C8.90898 21.8592 8.16641 21.8522 7.53964 22.1839C6.45073 22.7602 6.07482 24.1599 6.09659 25.3998C6.1254 26.5855 6.40816 27.7509 6.92549 28.816C7.44281 29.8812 8.18246 30.8209 9.09371 31.5708C9.57845 31.9642 10.3765 32.2633 10.746 31.7585C10.9071 31.5383 9.33408 29.005 9.32955 28.7315C9.30316 27.1414 10.8519 27.7891 10.8255 26.199" fill="#2F2E41"/>
<path d="M6.54001 54.511C10.6229 57.7308 15.1296 59.3538 20.2311 58.7352C18.0765 51.1067 17.4375 43.536 19.5159 36.0689L15.2247 34.1113L9.40084 33.8022L5.89498 34.842C5.4018 34.9885 4.97004 35.2943 4.66618 35.7125C4.36232 36.1307 4.2032 36.638 4.21335 37.1563C4.33714 43.5244 4.91744 49.484 6.54001 54.511Z" fill="#E6E6E6"/>
<path d="M19.4127 59.3529L22.0692 59.662L21.4472 39.7705C21.4194 38.8817 21.1384 38.0197 20.6377 37.2877C20.1371 36.5557 19.4379 35.9845 18.6239 35.6425L17.6758 35.2441L17.9312 44.5682L19.4127 59.3529Z" fill="#E6E6E6"/>
<path d="M6.39225 58.0119C6.12618 57.8605 5.91556 57.6267 5.79156 57.3451C5.66757 57.0636 5.63682 56.7493 5.70385 56.4487L3.66797 52.9689L6.24474 51.2798L7.45052 55.3778C7.64599 55.4294 7.82831 55.5224 7.98531 55.6506C8.14231 55.7789 8.27039 55.9394 8.36099 56.1215C8.4516 56.3036 8.50264 56.5031 8.51073 56.7067C8.51882 56.9103 8.48376 57.1133 8.40789 57.3021C8.33203 57.4909 8.2171 57.6613 8.07077 57.8018C7.92445 57.9423 7.75009 58.0497 7.55934 58.1169C7.36858 58.1841 7.16581 58.2094 6.96456 58.1913C6.76331 58.1732 6.5682 58.112 6.39225 58.0119Z" fill="#FFB8B8"/>
<path d="M5.31297 56.4688L7.80015 54.619L5.10862 46.578L6.07927 34.7812C3.97076 35.4495 1.70678 37.2445 1.33388 39.4413L0 47.2992L5.31297 56.4688Z" fill="#E6E6E6"/>
<path opacity="0.2" d="M6.36429 44.6836L5.26953 49.099L7.75371 55.3646L5.85902 49.4387L6.36429 44.6836Z" fill="black"/>
<path opacity="0.2" d="M17.2089 46.9727L18.054 56.4342L16.623 47.0386L17.2089 46.9727Z" fill="black"/>
</g>
<defs>
<linearGradient id="paint0_linear" x1="6.55074" y1="27.7005" x2="6.55074" y2="27.6709" gradientUnits="userSpaceOnUse">
<stop stop-color="#808080" stop-opacity="0.25"/>
<stop offset="0.54" stop-color="#808080" stop-opacity="0.12"/>
<stop offset="1" stop-color="#808080" stop-opacity="0.1"/>
</linearGradient>
<clipPath id="clip0">
<rect width="147" height="94" fill="white"/>
</clipPath>
</defs>
</svg>
