<svg width="140" height="97" viewBox="0 0 140 97" fill="none" xmlns="http://www.w3.org/2000/svg">
<g clip-path="url(#clip0)">
<path d="M127.447 50.5778C125.56 55.9139 122.93 60.9575 119.635 65.56C119.559 65.667 119.482 65.7717 119.404 65.8781L109.408 62.6411C109.453 62.5379 109.503 62.4222 109.555 62.296C112.703 54.85 131.65 9.46247 129.638 0C129.83 0.777008 136.107 26.4837 127.447 50.5778Z" fill="#E6E6E6"/>
<path d="M121.563 66.1843C121.441 66.2763 121.315 66.3672 121.188 66.4557L113.689 64.0273C113.779 63.9444 113.883 63.8467 114.004 63.7363C115.967 61.9017 121.798 56.4048 127.447 50.5775C133.516 44.3153 139.376 37.6726 139.999 34.7837C139.882 35.4428 136.183 55.496 121.563 66.1843Z" fill="#E6E6E6"/>
<path d="M132.861 96.9998H4.31036C3.16718 96.9998 2.07082 96.5457 1.26248 95.7375C0.454126 94.9292 0 93.8329 0 92.6899C46.5995 87.2746 92.3231 87.2746 137.171 92.6899C137.171 93.8329 136.717 94.9292 135.909 95.7375C135.1 96.5457 134.004 96.9998 132.861 96.9998Z" fill="#2F2E41"/>
<path d="M137.171 92.9436L0 92.69L15.8976 65.9428L15.9737 65.8161V6.86824C15.9736 6.15274 16.1145 5.44423 16.3884 4.78319C16.6622 4.12214 17.0635 3.5215 17.5695 3.01556C18.0755 2.50963 18.6762 2.10831 19.3373 1.83453C19.9984 1.56074 20.7069 1.41986 21.4225 1.41992H114.988C115.703 1.41986 116.412 1.56075 117.073 1.83453C117.734 2.10831 118.335 2.50963 118.841 3.01557C119.347 3.5215 119.748 4.12214 120.022 4.78319C120.296 5.44423 120.437 6.15274 120.437 6.86824V66.2217L137.171 92.9436Z" fill="#3F3D56"/>
<path d="M21.2983 5.22314C20.8277 5.22367 20.3766 5.41082 20.0439 5.74352C19.7111 6.07623 19.524 6.52732 19.5234 6.99784V60.7458C19.524 61.2163 19.7112 61.6674 20.0439 62.0001C20.3766 62.3328 20.8277 62.52 21.2983 62.5205H115.873C116.343 62.5199 116.794 62.3328 117.127 62.0001C117.46 61.6674 117.647 61.2163 117.648 60.7458V6.99784C117.647 6.52733 117.46 6.07625 117.127 5.74355C116.794 5.41085 116.343 5.22369 115.873 5.22314H21.2983Z" fill="white"/>
<path d="M21.9191 69.6187C21.7736 69.6189 21.6313 69.6607 21.5089 69.7391C21.3865 69.8176 21.289 69.9294 21.228 70.0613L16.3294 80.7095C16.2761 80.8254 16.2528 80.9528 16.2616 81.0801C16.2704 81.2073 16.3111 81.3303 16.3799 81.4377C16.4487 81.5451 16.5435 81.6335 16.6554 81.6947C16.7673 81.7559 16.8928 81.788 17.0204 81.788H120.034C120.164 81.788 120.292 81.7549 120.405 81.6917C120.518 81.6286 120.613 81.5375 120.681 81.4272C120.75 81.3169 120.788 81.1911 120.794 81.0616C120.8 80.932 120.773 80.8032 120.715 80.6872L115.39 70.0391C115.327 69.9125 115.23 69.806 115.11 69.7317C114.99 69.6574 114.851 69.6182 114.71 69.6187L21.9191 69.6187Z" fill="#2F2E41"/>
<path d="M68.2054 4.33546C68.8356 4.33546 69.3464 3.82468 69.3464 3.19459C69.3464 2.5645 68.8356 2.05371 68.2054 2.05371C67.5753 2.05371 67.0645 2.5645 67.0645 3.19459C67.0645 3.82468 67.5753 4.33546 68.2054 4.33546Z" fill="white"/>
<path d="M58.0792 83.8164C57.912 83.8166 57.7495 83.8718 57.6168 83.9735C57.4841 84.0752 57.3885 84.2178 57.3448 84.3792L56.116 88.9427C56.0857 89.0554 56.0816 89.1736 56.1043 89.2881C56.127 89.4027 56.1757 89.5104 56.2467 89.6031C56.3177 89.6958 56.4091 89.7709 56.5138 89.8226C56.6185 89.8742 56.7337 89.9011 56.8505 89.9011H80.2186C80.3399 89.9011 80.4594 89.8721 80.5671 89.8165C80.6749 89.761 80.7678 89.6804 80.8382 89.5816C80.9085 89.4829 80.9542 89.3687 80.9714 89.2487C80.9886 89.1287 80.9769 89.0063 80.9372 88.8917L79.3574 84.3282C79.3056 84.1788 79.2086 84.0492 79.0798 83.9575C78.951 83.8658 78.7968 83.8165 78.6386 83.8164L58.0792 83.8164Z" fill="#2F2E41"/>
<path d="M120.438 64.9287V65.9428H15.8984L15.9772 65.8161V64.9287H120.438Z" fill="#2F2E41"/>
<path d="M87.9366 14.7188H63.2715V15.1692H87.9366C89.1509 15.1692 90.3155 15.6516 91.1742 16.5102C92.0328 17.3687 92.5152 18.5332 92.5152 19.7475C92.5152 20.9617 92.0328 22.1262 91.1742 22.9848C90.3155 23.8433 89.1509 24.3257 87.9366 24.3257H50.6141C49.3998 24.3257 48.2352 23.8433 47.3765 22.9848C46.5178 22.1262 46.0354 20.9617 46.0354 19.7475C46.0354 18.5332 46.5178 17.3687 47.3765 16.5102C48.2352 15.6516 49.3998 15.1692 50.6141 15.1692H52.0088V14.7188H50.6141C49.2808 14.7195 48.0024 15.2497 47.0599 16.1927C46.1173 17.1356 45.5879 18.4143 45.5879 19.7475C45.5879 21.0806 46.1173 22.3593 47.0599 23.3022C48.0024 24.2452 49.2808 24.7754 50.6141 24.7762H87.9366C88.5973 24.7765 89.2515 24.6468 89.8621 24.3942C90.4726 24.1417 91.0273 23.7713 91.4946 23.3043C91.9619 22.8373 92.3327 22.2828 92.5856 21.6725C92.8385 21.0622 92.9687 20.4081 92.9687 19.7475C92.9687 19.0868 92.8385 18.4327 92.5856 17.8224C92.3327 17.2121 91.9619 16.6576 91.4946 16.1906C91.0273 15.7236 90.4726 15.3532 89.8621 15.1007C89.2515 14.8481 88.5973 14.7184 87.9366 14.7188Z" fill="#E6E6E6"/>
<path d="M87.9366 30.2598H63.2715V30.7102H87.9366C89.1504 30.711 90.3143 31.1937 91.1723 32.0522C92.0304 32.9107 92.5124 34.0747 92.5124 35.2885C92.5124 36.5022 92.0304 37.6663 91.1723 38.5248C90.3143 39.3833 89.1504 39.866 87.9366 39.8667H50.6141C49.3998 39.8667 48.2352 39.3844 47.3765 38.5258C46.5178 37.6672 46.0354 36.5027 46.0354 35.2885C46.0354 34.0743 46.5178 32.9098 47.3765 32.0512C48.2352 31.1926 49.3998 30.7102 50.6141 30.7102H52.0088V30.2598H50.6141C49.2808 30.2605 48.0024 30.7907 47.0599 31.7337C46.1173 32.6767 45.5879 33.9553 45.5879 35.2885C45.5879 36.6217 46.1173 37.9003 47.0599 38.8433C48.0024 39.7863 49.2808 40.3164 50.6141 40.3172H87.9366C88.5973 40.3176 89.2515 40.1878 89.8621 39.9352C90.4726 39.6827 91.0273 39.3124 91.4946 38.8454C91.9619 38.3784 92.3327 37.8239 92.5856 37.2136C92.8385 36.6033 92.9687 35.9491 92.9687 35.2885C92.9687 34.6279 92.8385 33.9737 92.5856 33.3634C92.3327 32.7531 91.9619 32.1986 91.4946 31.7316C91.0273 31.2646 90.4726 30.8943 89.8621 30.6417C89.2515 30.3892 88.5973 30.2594 87.9366 30.2598Z" fill="#E6E6E6"/>
<path d="M87.9356 45.8013H63.2706V46.2517H87.9356C89.1499 46.2517 90.3145 46.7341 91.1732 47.5927C92.0319 48.4513 92.5143 49.6158 92.5143 50.83C92.5143 52.0442 92.0319 53.2087 91.1732 54.0673C90.3145 54.9259 89.1499 55.4082 87.9356 55.4082H50.6131C49.3988 55.4082 48.2342 54.9259 47.3756 54.0673C46.5169 53.2087 46.0345 52.0442 46.0345 50.83C46.0345 49.6158 46.5169 48.4513 47.3756 47.5927C48.2342 46.7341 49.3988 46.2517 50.6131 46.2517H52.0079V45.8013H50.6131C49.2793 45.8013 48.0001 46.3311 47.057 47.2741C46.1138 48.2172 45.584 49.4963 45.584 50.83C45.584 52.1637 46.1138 53.4427 47.057 54.3858C48.0001 55.3289 49.2793 55.8587 50.6131 55.8587H87.9356C88.5961 55.8587 89.25 55.7286 89.8602 55.4759C90.4704 55.2232 91.0248 54.8528 91.4918 54.3858C91.9588 53.9189 92.3292 53.3645 92.582 52.7544C92.8347 52.1443 92.9648 51.4904 92.9648 50.83C92.9648 50.1696 92.8347 49.5157 92.582 48.9056C92.3292 48.2955 91.9588 47.7411 91.4918 47.2741C91.0248 46.8072 90.4704 46.4368 89.8602 46.1841C89.25 45.9313 88.5961 45.8013 87.9356 45.8013Z" fill="#E6E6E6"/>
<path d="M54.7924 13.529C54.4409 13.5347 54.1058 13.6783 53.8593 13.9288C53.6128 14.1794 53.4746 14.5168 53.4746 14.8682C53.4746 15.2197 53.6128 15.5571 53.8593 15.8076C54.1058 16.0582 54.4409 16.2018 54.7924 16.2075H60.6683C60.8442 16.2104 61.0189 16.1786 61.1825 16.114C61.3461 16.0493 61.4954 15.9531 61.6218 15.8308C61.7482 15.7085 61.8493 15.5624 61.9193 15.4011C61.9893 15.2397 62.0268 15.0661 62.0297 14.8902C62.0325 14.7144 62.0008 14.5396 61.9361 14.376C61.8715 14.2125 61.7752 14.0632 61.6529 13.9368C61.5306 13.8104 61.3846 13.7093 61.2232 13.6394C61.0618 13.5694 60.8882 13.5319 60.7123 13.529C60.6976 13.5287 60.683 13.5287 60.6683 13.529H54.7924Z" fill="#3F3D56"/>
<path d="M54.7924 29.2956C54.4409 29.3013 54.1058 29.4449 53.8593 29.6954C53.6128 29.946 53.4746 30.2834 53.4746 30.6348C53.4746 30.9863 53.6128 31.3237 53.8593 31.5742C54.1058 31.8248 54.4409 31.9684 54.7924 31.9741H60.6683C61.0235 31.9799 61.3665 31.8444 61.6218 31.5974C61.8771 31.3503 62.0238 31.012 62.0297 30.6568C62.0355 30.3016 61.9 29.9587 61.6529 29.7034C61.4059 29.4481 61.0675 29.3014 60.7123 29.2956C60.6976 29.2953 60.683 29.2953 60.6683 29.2956H54.7924Z" fill="#3F3D56"/>
<path d="M54.7923 44.611C54.4409 44.6168 54.1058 44.7604 53.8593 45.0109C53.6128 45.2614 53.4746 45.5988 53.4746 45.9503C53.4746 46.3017 53.6128 46.6391 53.8593 46.8896C54.1058 47.1402 54.4409 47.2838 54.7923 47.2895H60.6682C61.0234 47.2954 61.3664 47.1598 61.6217 46.9128C61.877 46.6658 62.0237 46.3275 62.0296 45.9723C62.0354 45.6171 61.8999 45.2741 61.6528 45.0188C61.4058 44.7636 61.0674 44.6169 60.7122 44.611C60.6975 44.6108 60.6829 44.6108 60.6682 44.611H54.7923Z" fill="#3F3D56"/>
<path d="M52.4623 18.4089C52.1109 18.4146 51.7757 18.5582 51.5292 18.8087C51.2827 19.0593 51.1445 19.3967 51.1445 19.7481C51.1445 20.0996 51.2827 20.437 51.5292 20.6875C51.7757 20.9381 52.1109 21.0817 52.4623 21.0874H86.0444C86.2203 21.0903 86.395 21.0585 86.5586 20.9938C86.7222 20.9292 86.8715 20.833 86.9979 20.7107C87.1243 20.5883 87.2254 20.4423 87.2954 20.2809C87.3654 20.1196 87.4029 19.946 87.4057 19.7701C87.4086 19.5942 87.3769 19.4195 87.3122 19.2559C87.2476 19.0923 87.1513 18.9431 87.029 18.8167C86.9067 18.6903 86.7606 18.5892 86.5992 18.5192C86.4379 18.4493 86.2643 18.4118 86.0884 18.4089C86.0737 18.4086 86.059 18.4086 86.0444 18.4089H52.4623Z" fill="#43B052"/>
<path d="M52.4622 33.9494C52.1108 33.9551 51.7757 34.0988 51.5292 34.3493C51.2827 34.5998 51.1445 34.9372 51.1445 35.2886C51.1445 35.6401 51.2827 35.9775 51.5292 36.228C51.7757 36.4785 52.1108 36.6222 52.4622 36.6279H86.0443C86.2202 36.6308 86.3949 36.599 86.5585 36.5344C86.7221 36.4697 86.8714 36.3735 86.9978 36.2512C87.1242 36.1289 87.2253 35.9829 87.2953 35.8215C87.3652 35.6601 87.4027 35.4865 87.4056 35.3106C87.4085 35.1348 87.3767 34.96 87.3121 34.7965C87.2475 34.6329 87.1512 34.4836 87.0289 34.3572C86.9066 34.2308 86.7605 34.1297 86.5991 34.0598C86.4377 33.9898 86.2641 33.9523 86.0883 33.9494C86.0736 33.9492 86.0589 33.9492 86.0443 33.9494H52.4622Z" fill="#43B052"/>
<path d="M52.4622 49.4904C52.1108 49.4962 51.7757 49.6398 51.5292 49.8903C51.2827 50.1408 51.1445 50.4782 51.1445 50.8297C51.1445 51.1811 51.2827 51.5185 51.5292 51.769C51.7757 52.0196 52.1108 52.1632 52.4622 52.1689H86.0443C86.2202 52.1718 86.3949 52.14 86.5585 52.0754C86.7221 52.0108 86.8714 51.9145 86.9978 51.7922C87.1242 51.6699 87.2253 51.5239 87.2953 51.3625C87.3652 51.2011 87.4027 51.0275 87.4056 50.8517C87.4085 50.6758 87.3767 50.5011 87.3121 50.3375C87.2475 50.1739 87.1512 50.0246 87.0289 49.8982C86.9066 49.7718 86.7605 49.6708 86.5991 49.6008C86.4377 49.5308 86.2641 49.4933 86.0883 49.4904C86.0736 49.4902 86.0589 49.4902 86.0443 49.4904H52.4622Z" fill="#E6E6E6"/>
<path d="M39.9889 22.3244C41.4702 22.3244 42.6711 21.1237 42.6711 19.6424C42.6711 18.1612 41.4702 16.9604 39.9889 16.9604C38.5075 16.9604 37.3066 18.1612 37.3066 19.6424C37.3066 21.1237 38.5075 22.3244 39.9889 22.3244Z" fill="#43B052"/>
<path d="M39.7404 20.7441L38.959 19.7395L39.4134 19.3861L39.7835 19.8617L41.0333 18.5425L41.4513 18.9385L39.7404 20.7441Z" fill="white"/>
<path d="M39.9889 37.8654C41.4702 37.8654 42.6711 36.6647 42.6711 35.1835C42.6711 33.7022 41.4702 32.5015 39.9889 32.5015C38.5075 32.5015 37.3066 33.7022 37.3066 35.1835C37.3066 36.6647 38.5075 37.8654 39.9889 37.8654Z" fill="#43B052"/>
<path d="M39.7404 36.2851L38.959 35.2806L39.4134 34.9271L39.7835 35.4028L41.0333 34.0835L41.4513 34.4795L39.7404 36.2851Z" fill="white"/>
<path d="M39.9889 53.406C41.4702 53.406 42.6711 52.2052 42.6711 50.724C42.6711 49.2428 41.4702 48.042 39.9889 48.042C38.5075 48.042 37.3066 49.2428 37.3066 50.724C37.3066 52.2052 38.5075 53.406 39.9889 53.406Z" fill="#E6E6E6"/>
<path d="M98.7799 22.3244C100.261 22.3244 101.462 21.1237 101.462 19.6424C101.462 18.1612 100.261 16.9604 98.7799 16.9604C97.2985 16.9604 96.0977 18.1612 96.0977 19.6424C96.0977 21.1237 97.2985 22.3244 98.7799 22.3244Z" fill="#E6E6E6"/>
<path d="M98.7799 37.8654C100.261 37.8654 101.462 36.6647 101.462 35.1835C101.462 33.7022 100.261 32.5015 98.7799 32.5015C97.2985 32.5015 96.0977 33.7022 96.0977 35.1835C96.0977 36.6647 97.2985 37.8654 98.7799 37.8654Z" fill="#E6E6E6"/>
<path d="M98.7799 53.406C100.261 53.406 101.462 52.2052 101.462 50.724C101.462 49.2428 100.261 48.042 98.7799 48.042C97.2985 48.042 96.0977 49.2428 96.0977 50.724C96.0977 52.2052 97.2985 53.406 98.7799 53.406Z" fill="#E6E6E6"/>
<path d="M39.7404 51.8261L38.959 50.8216L39.4134 50.4681L39.7835 50.9438L41.0333 49.6245L41.4513 50.0204L39.7404 51.8261Z" fill="white"/>
<path d="M98.1022 18.7807L97.8789 19.0039L99.3787 20.5036L99.602 20.2804L98.1022 18.7807Z" fill="white"/>
<path d="M99.4588 18.7811L97.959 20.2808L98.1822 20.504L99.6821 19.0043L99.4588 18.7811Z" fill="white"/>
<path d="M98.1022 34.3217L97.8789 34.5449L99.3787 36.0446L99.602 35.8214L98.1022 34.3217Z" fill="white"/>
<path d="M99.4588 34.3221L97.959 35.8218L98.1822 36.045L99.6821 34.5453L99.4588 34.3221Z" fill="white"/>
<path d="M98.1022 49.8627L97.8789 50.0859L99.3787 51.5856L99.602 51.3624L98.1022 49.8627Z" fill="white"/>
<path d="M99.4588 49.8626L97.959 51.3623L98.1822 51.5855L99.6821 50.0858L99.4588 49.8626Z" fill="white"/>
<path d="M40.504 49.6504C40.7376 49.4958 40.9349 49.2925 41.0824 49.0543C41.2298 48.8161 41.3237 48.5488 41.3578 48.2708C41.3919 47.9928 41.3653 47.7108 41.2798 47.444C41.1943 47.1773 41.052 46.9323 40.8626 46.7259L38.2877 43.9194L35.8145 45.1716L37.7074 48.91C37.8309 49.1537 38.0045 49.3686 38.2168 49.5405C38.4292 49.7124 38.6755 49.8374 38.9397 49.9073C39.2038 49.9772 39.4797 49.9905 39.7493 49.9462C40.019 49.9019 40.2762 49.8011 40.504 49.6504Z" fill="#FFB8B8"/>
<path d="M7.21912 57.9851C7.49735 57.9527 7.76525 57.8604 8.00435 57.7145C8.24345 57.5686 8.44806 57.3726 8.60406 57.14C8.76006 56.9074 8.86374 56.6437 8.90796 56.3671C8.95217 56.0905 8.93587 55.8077 8.86017 55.538L7.83077 51.8711H5.05859V56.0614C5.05859 56.3346 5.1164 56.6047 5.22822 56.854C5.34004 57.1032 5.50334 57.326 5.70739 57.5077C5.91145 57.6894 6.15163 57.8259 6.41218 57.9081C6.67272 57.9904 6.94773 58.0166 7.21912 57.9851Z" fill="#FFB8B8"/>
<path d="M23.2324 85.6474L28.4689 84.8261L26.3127 82.5674H23.2324V85.6474Z" fill="#FFB8B8"/>
<path d="M6.39258 85.8525L11.8343 87.2898C10.832 85.2108 10.2148 83.3714 10.6022 82.1566L8.03535 81.8486L6.39258 85.8525Z" fill="#FFB8B8"/>
<path d="M7.52344 82.362L10.7064 82.9781L19.4336 54.8481L23.1298 82.8754H26.5181L26.21 43.2471H13.0678L7.52344 82.362Z" fill="#575A88"/>
<path d="M24.2339 86.8943L29.4135 85.1906C29.5509 85.1454 29.677 85.0711 29.7831 84.9729C29.8893 84.8746 29.973 84.7546 30.0287 84.6211C30.0843 84.4875 30.1105 84.3436 30.1055 84.199C30.1005 84.0545 30.0644 83.9127 29.9997 83.7833C29.9109 83.6057 29.7715 83.4582 29.5991 83.3596C29.4267 83.2609 29.229 83.2154 29.0308 83.2288L27.8559 83.3082L27.3954 83.0491C27.3469 83.0218 27.2911 83.0103 27.2358 83.0161C27.1804 83.022 27.1283 83.045 27.0866 83.0819C27.0449 83.1188 27.0157 83.1677 27.0032 83.222C26.9906 83.2762 26.9952 83.333 27.0164 83.3844L27.441 84.4156L23.1288 84.1076L22.916 85.8096C22.8949 85.9786 22.9168 86.1502 22.9798 86.3084C23.0429 86.4667 23.1449 86.6064 23.2764 86.7146C23.4079 86.8229 23.5646 86.8961 23.7321 86.9275C23.8995 86.9589 24.0721 86.9475 24.2339 86.8943Z" fill="#575A88"/>
<path d="M6.72759 87.6772L12.358 88.0422C12.5074 88.0519 12.6571 88.0293 12.7969 87.976C12.9368 87.9226 13.0635 87.8398 13.1685 87.7331C13.2735 87.6264 13.3543 87.4983 13.4053 87.3576C13.4564 87.2169 13.4765 87.0669 13.4644 86.9177C13.4477 86.7128 13.3709 86.5175 13.2435 86.3562C13.1161 86.1949 12.9439 86.0748 12.7485 86.0111L11.5899 85.6336L11.248 85.207C11.2119 85.162 11.1628 85.1294 11.1074 85.1137C11.052 85.098 10.9931 85.0999 10.9388 85.1192C10.8845 85.1385 10.8376 85.1742 10.8046 85.2214C10.7716 85.2686 10.7541 85.3249 10.7546 85.3825L10.7639 86.5364L6.74315 84.5752L5.88144 86.1269C5.79586 86.2809 5.75065 86.4542 5.75001 86.6304C5.74936 86.8067 5.7933 86.9802 5.87774 87.1349C5.96217 87.2896 6.08437 87.4205 6.23296 87.5153C6.38154 87.6101 6.5517 87.6658 6.72759 87.6772Z" fill="#575A88"/>
<path d="M18.7149 21.0713C20.813 21.0713 22.5138 19.3706 22.5138 17.2727C22.5138 15.1748 20.813 13.4741 18.7149 13.4741C16.6168 13.4741 14.916 15.1748 14.916 17.2727C14.916 19.3706 16.6168 21.0713 18.7149 21.0713Z" fill="#FFB8B8"/>
<path d="M16.25 24.2542H21.4863V19.2236H16.25C16.6827 20.7772 16.6268 22.47 16.25 24.2542Z" fill="#FFB8B8"/>
<path d="M12.348 43.7606L26.7223 43.966L28.1597 28.7813C28.1597 27.7906 27.8494 26.8248 27.2724 26.0195C26.6953 25.2141 25.8805 24.6098 24.9424 24.2912L22.7181 23.5358L21.486 22.0985C19.9304 21.7624 18.2379 21.8439 16.455 22.2012L15.1202 24.1518L13.6829 24.6105C12.7061 24.9222 11.8571 25.543 11.264 26.3792C10.6708 27.2155 10.3657 28.2219 10.3944 29.2467C11.464 34.7706 12.2957 39.9044 12.348 43.7606Z" fill="#43B052"/>
<path d="M4.54492 51.871L8.13849 52.2817L12.2454 35.7527L12.6561 25.0757L12.5349 25.1344C11.5843 25.5943 10.7539 26.2692 10.1094 27.1057C9.46493 27.9422 9.02412 28.9172 8.82188 29.9536L4.54492 51.871Z" fill="#43B052"/>
<path d="M35.9643 45.7111L38.7365 44.3764L30.6054 29.2053C29.4245 27.002 27.5048 25.2853 25.1836 24.3569L26.7237 34.0074L35.9643 45.7111Z" fill="#43B052"/>
<path d="M16.3665 20.6919C16.3665 20.6919 20.0917 20.471 20.1723 19.8267C20.2529 19.1824 20.7968 17.7127 21.4412 17.7934C22.0855 17.874 23.8712 15.7262 23.4888 14.8604C23.1063 13.9945 21.3013 10.8068 17.6162 12.276C13.9311 13.7453 14.3534 17.4299 14.7358 18.2957C15.1183 19.1615 16.3665 20.6919 16.3665 20.6919Z" fill="#2F2E41"/>
<path d="M107.533 67.2515C107.493 67.2515 107.453 67.265 107.421 67.2897C107.388 67.3145 107.365 67.3492 107.354 67.3885L107.055 68.4998C107.048 68.5273 107.047 68.556 107.052 68.5839C107.058 68.6118 107.07 68.6381 107.087 68.6606C107.104 68.6832 107.127 68.7015 107.152 68.7141C107.178 68.7266 107.206 68.7332 107.234 68.7332H112.925C112.954 68.7332 112.983 68.7261 113.009 68.7126C113.036 68.6991 113.058 68.6795 113.075 68.6554C113.093 68.6313 113.104 68.6035 113.108 68.5743C113.112 68.5451 113.109 68.5153 113.1 68.4874L112.715 67.3761C112.702 67.3397 112.679 67.3082 112.647 67.2858C112.616 67.2635 112.578 67.2515 112.54 67.2515H107.533Z" fill="#43B052"/>
<path d="M99.2247 67.2515C99.1839 67.2515 99.1444 67.265 99.1121 67.2897C99.0797 67.3145 99.0565 67.3492 99.0458 67.3885L98.7466 68.4998C98.7392 68.5273 98.7382 68.556 98.7438 68.5839C98.7493 68.6118 98.7611 68.6381 98.7784 68.6606C98.7957 68.6832 98.818 68.7015 98.8435 68.7141C98.869 68.7266 98.897 68.7332 98.9254 68.7332H104.616C104.645 68.7332 104.675 68.7261 104.701 68.7126C104.727 68.6991 104.75 68.6795 104.767 68.6554C104.784 68.6313 104.795 68.6035 104.799 68.5743C104.803 68.5451 104.801 68.5153 104.791 68.4874L104.406 67.3761C104.394 67.3397 104.37 67.3082 104.339 67.2858C104.307 67.2635 104.27 67.2515 104.231 67.2515H99.2247Z" fill="#43B052"/>
</g>
<defs>
<clipPath id="clip0">
<rect width="140" height="97" fill="white"/>
</clipPath>
</defs>
</svg>
