<svg width="105" height="98" viewBox="0 0 105 98" fill="none" xmlns="http://www.w3.org/2000/svg">
<g clip-path="url(#clip0)">
<path d="M52.5 97.9998C81.4949 97.9998 105 96.9349 105 95.6213C105 94.3076 81.4949 93.2427 52.5 93.2427C23.5051 93.2427 0 94.3076 0 95.6213C0 96.9349 23.5051 97.9998 52.5 97.9998Z" fill="#E6E6E6"/>
<path d="M56.3511 22.8539H55.8246V8.37816C55.8246 7.27792 55.6087 6.18846 55.1892 5.17197C54.7696 4.15549 54.1548 3.23188 53.3796 2.4539C52.6045 1.67591 51.6842 1.05878 50.6714 0.637742C49.6586 0.216702 48.5731 -3.8177e-06 47.4769 0H16.9199C15.8237 -3.47063e-06 14.7382 0.216702 13.7254 0.637743C12.7126 1.05878 11.7924 1.67591 11.0172 2.4539C10.2421 3.23188 9.6272 4.15549 9.20769 5.17197C8.78818 6.18846 8.57226 7.27792 8.57227 8.37816V87.7931C8.57226 88.8933 8.78818 89.9828 9.20769 90.9993C9.6272 92.0158 10.2421 92.9394 11.0172 93.7174C11.7924 94.4954 12.7126 95.1125 13.7254 95.5335C14.7382 95.9546 15.8237 96.1713 16.9199 96.1713H47.4769C48.5731 96.1713 49.6586 95.9546 50.6714 95.5335C51.6842 95.1125 52.6045 94.4954 53.3796 93.7174C54.1548 92.9394 54.7696 92.0158 55.1891 90.9993C55.6087 89.9828 55.8246 88.8933 55.8246 87.7931V33.158H56.3511V22.8539Z" fill="#3F3D56"/>
<path d="M47.8131 2.17969H43.8244C44.0078 2.63105 44.0778 3.12075 44.0283 3.60567C43.9787 4.09058 43.8111 4.55582 43.5402 4.9604C43.2693 5.36498 42.9034 5.69649 42.4748 5.92571C42.0462 6.15494 41.5679 6.27486 41.0823 6.27489H23.5765C23.0908 6.27486 22.6126 6.15494 22.184 5.92571C21.7554 5.69649 21.3895 5.36498 21.1186 4.9604C20.8477 4.55582 20.68 4.09058 20.6305 3.60566C20.5809 3.12075 20.6509 2.63104 20.8344 2.17969H17.1089C16.2903 2.17969 15.4796 2.34152 14.7233 2.65595C13.967 2.97038 13.2797 3.43124 12.7009 4.01223C12.122 4.59322 11.6628 5.28295 11.3495 6.04205C11.0362 6.80115 10.875 7.61475 10.875 8.43639V87.7348C10.875 88.5565 11.0362 89.3701 11.3495 90.1292C11.6628 90.8883 12.122 91.578 12.7009 92.159C13.2797 92.74 13.967 93.2009 14.7233 93.5153C15.4796 93.8297 16.2903 93.9915 17.1089 93.9915H47.8131C48.6318 93.9915 49.4424 93.8297 50.1987 93.5153C50.9551 93.2009 51.6423 92.74 52.2212 92.159C52.8 91.578 53.2592 90.8883 53.5725 90.1292C53.8858 89.3701 54.047 88.5565 54.047 87.7348V8.4364C54.047 7.61475 53.8858 6.80116 53.5725 6.04206C53.2592 5.28296 52.8 4.59323 52.2211 4.01224C51.6423 3.43125 50.9551 2.97038 50.1987 2.65595C49.4424 2.34153 48.6318 2.17969 47.8131 2.17969Z" fill="white"/>
<path d="M36.7308 23.4829H25.8477V24.4973H36.7308V23.4829Z" fill="#43B052"/>
<path d="M44.8161 26.9912H25.8477V28.0056H44.8161V26.9912Z" fill="#E6E6E6"/>
<path d="M44.7975 30.501H25.8477V31.5153H44.7975V30.501Z" fill="#E6E6E6"/>
<path d="M23.5931 23.4976H15.5078V31.6124H23.5931V23.4976Z" fill="#43B052"/>
<path d="M36.7308 44.7842H25.8477V45.7985H36.7308V44.7842Z" fill="#43B052"/>
<path d="M44.8161 48.293H25.8477V49.3073H44.8161V48.293Z" fill="#E6E6E6"/>
<path d="M44.7975 51.8018H25.8477V52.8161H44.7975V51.8018Z" fill="#E6E6E6"/>
<path d="M23.5931 44.7993H15.5078V52.9142H23.5931V44.7993Z" fill="#43B052"/>
<path d="M36.7308 66.0854H25.8477V67.0998H36.7308V66.0854Z" fill="#43B052"/>
<path d="M44.8161 69.5947H25.8477V70.6091H44.8161V69.5947Z" fill="#E6E6E6"/>
<path d="M44.7975 73.1035H25.8477V74.1179H44.7975V73.1035Z" fill="#E6E6E6"/>
<path d="M23.5931 66.1006H15.5078V74.2155H23.5931V66.1006Z" fill="#43B052"/>
<path d="M86.7649 43.6988C88.979 43.6988 90.7739 41.8973 90.7739 39.6751C90.7739 37.4528 88.979 35.6514 86.7649 35.6514C84.5508 35.6514 82.7559 37.4528 82.7559 39.6751C82.7559 41.8973 84.5508 43.6988 86.7649 43.6988Z" fill="#2F2E41"/>
<path d="M88.8758 42.3535C88.8758 42.3535 88.8154 44.8372 89.0568 44.8978C89.2983 44.9584 85.7371 45.9277 85.7371 45.9277L85.375 42.5352L88.8758 42.3535Z" fill="#FFB8B8"/>
<path d="M60.7474 63.5559C60.7474 63.5559 58.0917 63.5559 58.0313 63.253C57.9709 62.9501 57.4277 65.7367 57.4277 65.7367L58.5142 66.1002C58.5142 66.1002 60.5663 65.1915 60.7474 65.1915C60.9285 65.1915 60.7474 63.5559 60.7474 63.5559Z" fill="#FFB8B8"/>
<path d="M57.8504 64.6462C57.8504 64.6462 58.3333 63.0106 58.9369 62.95C58.9369 62.95 56.8847 61.6173 56.8243 61.1932C56.764 60.7692 56.0397 59.6788 55.7379 60.0422C55.4361 60.4057 55.4361 66.1607 55.9793 66.7664C56.5225 67.3722 58.9369 65.915 58.9369 65.915C58.9369 65.915 57.4279 65.252 57.8504 64.6462Z" fill="#2F2E41"/>
<path d="M90.6235 87.8481L91.1063 90.453L88.873 90.8165V87.8481H90.6235Z" fill="#FFB8B8"/>
<path d="M90.625 90.1498C90.625 90.1498 90.9871 88.9989 91.2286 89.1806C91.47 89.3623 91.8322 90.5133 91.7718 90.8162C91.7114 91.1191 91.2889 93.4817 91.47 93.9057C91.6511 94.3298 90.5646 96.5106 89.1764 96.3289C87.7882 96.1471 87.9089 94.9355 87.9089 94.9355L88.3918 93.0576L88.5728 90.0893C88.5728 90.0893 90.1421 89.847 90.625 90.1498Z" fill="#2F2E41"/>
<path d="M88.1667 37.1054C89.0829 37.1054 89.8256 36.3599 89.8256 35.4404C89.8256 34.5208 89.0829 33.7754 88.1667 33.7754C87.2505 33.7754 86.5078 34.5208 86.5078 35.4404C86.5078 36.3599 87.2505 37.1054 88.1667 37.1054Z" fill="#2F2E41"/>
<path d="M90.3767 34.538C90.3767 34.1265 90.2248 33.7295 89.9504 33.4237C89.676 33.1179 89.2984 32.925 88.8906 32.882C88.948 32.8761 89.0057 32.8731 89.0634 32.873C89.5034 32.873 89.9254 33.0485 90.2365 33.3607C90.5476 33.673 90.7223 34.0965 90.7223 34.538C90.7223 34.9796 90.5476 35.4031 90.2365 35.7154C89.9254 36.0276 89.5034 36.203 89.0634 36.203C89.0057 36.203 88.948 36.2 88.8906 36.194C89.2984 36.1511 89.676 35.9581 89.9504 35.6523C90.2248 35.3465 90.3767 34.9496 90.3767 34.538Z" fill="#2F2E41"/>
<path d="M86.7616 44.0505C88.1616 44.0505 89.2966 42.9114 89.2966 41.5062C89.2966 40.101 88.1616 38.9619 86.7616 38.9619C85.3615 38.9619 84.2266 40.101 84.2266 41.5062C84.2266 42.9114 85.3615 44.0505 86.7616 44.0505Z" fill="#FFB8B8"/>
<path d="M91.7708 59.1941C91.7708 59.1941 91.6501 62.223 91.1672 63.798C90.6844 65.3731 88.9435 76.5901 89.3057 77.4382C89.6678 78.2863 91.5294 87.6659 91.1069 88.2112C90.6844 88.7564 88.6926 88.5746 88.6926 88.5746L85.986 77.1959C85.986 77.1959 86.5197 64.6461 82.0532 64.3433C77.5867 64.0404 70.2835 63.8586 70.2835 63.8586C70.2835 63.8586 65.5756 65.2519 63.4631 65.1913C61.3505 65.1308 60.1434 65.7366 60.1434 65.7366L59.7812 63.2528L69.1367 61.1932C69.1367 61.1932 77.7075 58.2248 82.4154 59.0123C87.1233 59.7999 91.7708 59.1941 91.7708 59.1941Z" fill="#2F2E41"/>
<path d="M88.3922 44.1103C88.3922 44.1103 89.1165 43.6863 89.2976 44.1103C89.4787 44.5344 90.7462 44.8979 91.229 44.5344C91.7119 44.1709 92.9191 44.6555 92.9191 44.6555L94.2469 48.5931C94.2469 48.5931 93.583 51.9855 92.9794 53.8635C92.3758 55.7414 92.1344 59.6184 92.3758 59.9819C92.6173 60.3454 87.5472 61.7992 85.0726 60.8906C82.5979 59.9819 82.0547 58.9521 82.0547 58.9521C82.0547 58.9521 84.7708 55.075 83.8654 53.2577C82.9601 51.4403 83.6843 49.3807 83.6843 49.3807L83.3222 47.321L85.3744 46.17C85.3744 46.17 85.4951 45.0796 85.9779 45.0796C86.4608 45.0796 88.3922 44.1103 88.3922 44.1103Z" fill="#D0CDE1"/>
<path d="M84.2268 47.3818H83.3215C83.0703 47.6177 82.8831 47.9139 82.7775 48.2424C82.6719 48.5709 82.6514 48.9211 82.7179 49.2598C82.9593 50.4108 84.0481 54.2266 84.0481 54.2266L84.9511 51.8646L84.2268 47.3818Z" fill="#D0CDE1"/>
<path d="M81.6279 57.1104C81.6279 57.1104 79.8216 59.0734 81.1495 60.1032C82.4774 61.1331 82.8046 57.7407 82.8046 57.7407L81.6279 57.1104Z" fill="#FFB8B8"/>
<path d="M84.2269 53.0156L83.8044 54.7118L83.0801 56.0445C83.0801 56.0445 80.6055 57.6801 80.6055 58.2859C80.6055 58.2859 81.6919 56.8926 83.0801 58.2859L84.3175 55.2873L84.2269 53.0156Z" fill="#D0CDE1"/>
<path d="M86.2981 40.4872C87.825 40.4872 89.0629 39.7418 89.0629 38.8222C89.0629 37.9027 87.825 37.1572 86.2981 37.1572C84.7711 37.1572 83.5332 37.9027 83.5332 38.8222C83.5332 39.7418 84.7711 40.4872 86.2981 40.4872Z" fill="#2F2E41"/>
<path d="M91.7717 38.9616C91.7717 38.9616 89.8403 37.8712 89.0556 38.6587C88.271 39.4463 91.4096 40.6578 91.4096 40.6578L91.7717 38.9616Z" fill="#FFB8B8"/>
<path d="M92.4953 44.959L92.9178 44.6561C92.9178 44.6561 93.4007 43.9292 93.8232 44.1715C94.2457 44.4138 96.7203 43.2628 96.7203 43.2628C96.7203 43.2628 95.815 43.6869 95.815 42.9599C95.815 42.233 95.6943 42.3542 95.0907 42.3542C94.4871 42.3542 94.4871 42.6571 94.2457 42.233C94.0043 41.809 94.125 41.5666 93.7025 41.809C93.28 42.0513 92.7971 41.8695 92.6764 41.6878C92.5557 41.5061 90.3828 41.2032 90.3828 41.2032C90.3828 41.2032 91.2278 38.7195 91.4089 38.5377C91.59 38.356 96.2375 40.4157 96.2375 40.4157C96.2375 40.4157 102.092 42.0513 100.583 43.9292C99.0743 45.8071 93.6421 48.6543 93.6421 48.6543L92.4953 44.959Z" fill="#D0CDE1"/>
</g>
<defs>
<clipPath id="clip0">
<rect width="105" height="98" fill="white"/>
</clipPath>
</defs>
</svg>
