<svg width="462" height="318" viewBox="0 0 462 318" fill="none" xmlns="http://www.w3.org/2000/svg">
<g clip-path="url(#clip0)">
<path d="M436.555 300.68C433.794 306.651 430.918 311.801 427.906 315.971C427.837 316.04 427.791 316.131 427.723 316.177L427.677 316.245H12.4616C12.4616 316.245 12.3931 315.994 12.279 315.516C12.279 315.447 12.2562 315.402 12.2333 315.333C12.1877 315.037 12.0964 314.673 12.0051 314.217C11.9367 314.012 11.891 313.761 11.8226 313.51V313.487C11.7769 313.214 11.7085 312.918 11.64 312.576V312.553C9.72298 303.597 4.90762 279.44 2.14621 249.587C2.07775 248.949 2.00928 248.31 1.96364 247.672C1.96364 247.581 1.94082 247.513 1.94082 247.422V247.399C1.84953 246.487 1.78107 245.599 1.7126 244.664C-2.37246 196.602 -0.77495 135.641 25.6753 99.6111C49.8889 66.6352 84.2354 46.5124 120.248 38.8552C156.489 31.1753 194.464 36.1433 225.592 53.3947C295.883 92.4098 299.26 -20.3282 394.312 3.28135C397.758 4.12455 401.067 5.264 404.194 6.65414C409.237 8.91027 413.893 11.7817 418.229 15.2684C479.596 64.8805 467.341 233.953 436.555 300.68Z" fill="#EBF3FA"/>
<path d="M88.7302 243.183V316.268H16.8879C16.8879 316.268 16.6825 315.63 16.3173 314.445C16.1348 313.83 15.9294 313.077 15.6555 312.166C15.5871 311.961 15.5414 311.71 15.4729 311.505C15.1991 310.525 14.9024 309.477 14.5601 308.246C14.5373 308.087 14.4688 307.95 14.446 307.768C13.9895 306.127 13.5103 304.235 12.9626 302.184C11.1368 295.051 8.87751 285.48 6.82357 274.336C6.38996 272.148 6.00199 269.869 5.61403 267.568C5.36299 266.2 5.13477 264.81 4.90656 263.397C4.38166 260.207 3.90241 256.902 3.44598 253.529C3.1493 251.524 2.89826 249.496 2.64722 247.422C2.46465 246.032 2.3049 244.596 2.16797 243.183H88.7302Z" fill="#254975"/>
<path d="M136.474 243.296C136.041 232.859 135.105 223.766 134.01 217.431C132.229 207.335 130.632 201.524 130.632 201.455C130.404 200.567 127.026 196.966 119.518 197.08C112.01 197.194 112.717 201.911 112.717 201.911C112.717 202.071 112.74 202.23 112.763 202.321C112.831 202.572 119.723 227.162 119.427 258.93C119.427 259.385 119.381 260.137 119.404 260.662C119.404 260.662 136.794 261.095 136.794 260.662C137.387 257.881 137.09 250.179 136.474 243.296Z" fill="#D1A586"/>
<path d="M138.665 258.77C138.665 259.203 138.414 259.568 138.14 259.568C137.844 259.568 137.616 259.203 137.616 258.77H122.713C122.713 259.203 122.462 259.568 122.188 259.568C121.892 259.568 121.663 259.203 121.663 258.747C121.755 249.654 121.23 241.154 120.431 233.679C118.445 214.992 114.794 202.504 114.726 202.321C114.703 202.207 114.68 202.071 114.68 201.911C114.68 201.911 113.972 197.194 121.481 197.08C128.989 196.966 132.367 200.567 132.595 201.455C132.618 201.501 133.508 204.783 134.717 210.708C135.105 212.668 135.539 214.924 135.995 217.431C137.114 223.766 138.026 232.859 138.46 243.296C139.031 250.179 139.259 255.99 138.665 258.77Z" fill="#E5BD9E"/>
<path d="M138.664 258.77C138.664 259.203 138.413 259.568 138.139 259.568C137.843 259.568 137.614 259.203 137.614 258.77H122.712C122.712 259.203 122.461 259.568 122.187 259.568C121.89 259.568 121.662 259.203 121.662 258.747C121.753 249.654 121.228 241.154 120.43 233.679C122.894 221.829 132.411 212.759 134.716 210.708C135.104 212.667 135.538 214.924 135.994 217.43C137.112 223.766 138.025 232.859 138.459 243.296C139.029 250.178 139.258 255.99 138.664 258.77Z" fill="#DFB697"/>
<path d="M123.535 258.61V258.519C123.535 258.497 123.535 258.496 123.535 258.474C123.535 258.2 123.124 239.445 122.074 230.534C121.435 225.224 117.579 203.05 117.556 202.936C117.533 202.845 117.51 202.731 117.51 202.595C117.51 202.572 117.35 201.455 118.195 200.452C119.039 199.473 120.523 198.948 122.645 198.926C128.236 198.834 130.792 201.524 130.998 202.23C131.043 202.367 135.311 219.573 136.064 229.167C136.132 230.056 136.292 231.582 136.475 233.52C137.616 244.869 138.689 257.015 137.091 257.289C134.603 257.722 132.116 257.767 130.222 257.767C129.583 257.767 128.989 257.767 128.419 257.744C127.917 257.744 127.437 257.744 126.981 257.744C124.996 257.744 123.763 257.858 123.74 258.451V258.474C123.74 258.519 123.718 258.565 123.649 258.565L123.535 258.61ZM122.896 199.108C122.805 199.108 122.736 199.108 122.645 199.108C120.591 199.131 119.13 199.632 118.332 200.589C117.533 201.524 117.67 202.595 117.67 202.595C117.67 202.709 117.693 202.823 117.715 202.891C117.738 202.959 121.595 225.065 122.234 230.511C123.215 238.875 123.626 255.352 123.695 258.086C124.083 257.676 125.201 257.585 126.958 257.585C127.392 257.585 127.871 257.585 128.396 257.585C128.967 257.585 129.583 257.608 130.199 257.608C132.093 257.608 134.581 257.562 137.045 257.129C138.62 256.856 137.045 241.108 136.292 233.542C136.11 231.605 135.95 230.078 135.881 229.19C135.151 219.527 130.861 202.435 130.838 202.298C130.655 201.615 128.213 199.108 122.896 199.108Z" fill="#D1A586"/>
<path d="M120.522 259.568H178.945C178.945 259.568 177.576 254.144 143.754 254.941C119.814 255.534 120.522 259.568 120.522 259.568Z" fill="#E5BD9E"/>
<path d="M115.775 316.221C122.553 282.448 120.819 261.71 120.796 261.459C120.773 260.935 121.755 260.456 122.28 260.456C122.804 260.456 125.155 260.297 125.429 260.752C125.794 261.345 127.14 286.869 117.053 316.244H115.775V316.221Z" fill="#D1A586"/>
<path d="M170.32 316.221C163.542 282.448 165.276 261.71 165.299 261.459C165.322 260.935 164.341 260.456 163.816 260.456C163.291 260.456 160.94 260.297 160.666 260.752C160.301 261.345 158.955 286.869 169.042 316.244H170.32V316.221Z" fill="#D1A586"/>
<path d="M181.136 316.221C174.358 282.448 176.093 261.71 176.116 261.459C176.138 260.935 175.157 260.456 174.632 260.456C174.107 260.456 171.757 260.297 171.483 260.752C171.118 261.345 169.771 286.869 179.858 316.244H181.136V316.221Z" fill="#A0795F"/>
<path d="M126.662 316.221C133.44 282.448 131.706 261.71 131.683 261.459C131.66 260.935 132.641 260.456 133.166 260.456C133.691 260.456 136.042 260.297 136.316 260.752C136.681 261.345 138.027 286.869 127.94 316.244H126.662V316.221Z" fill="#A0795F"/>
<path d="M178.99 261.3H120.544C119.882 261.3 119.357 260.776 119.357 260.115V259.363C119.357 258.702 119.882 258.178 120.544 258.178H178.99C179.652 258.178 180.177 258.702 180.177 259.363V260.115C180.177 260.753 179.652 261.3 178.99 261.3Z" fill="#D1A586"/>
<path d="M166.941 222.672C166.941 222.672 177.622 234.865 179.813 234.659C182.049 234.454 183.419 233.748 185.358 234.659C186.751 235.32 191.178 238.853 189.991 238.625C188.804 238.397 186.659 238.123 186.089 238.055C185.313 237.987 184.058 237.964 183.213 237.827C182.665 237.736 180.726 237.69 180.087 237.668C177.28 237.576 163.975 229.828 163.975 229.828L166.941 222.672Z" fill="#F4A269"/>
<path d="M159.524 160.823C159.524 160.823 159.044 154.692 150.235 156.288C147.907 156.698 146.31 152.55 142.499 154.032C134.283 157.222 133.804 153.006 131.43 158.908C130.426 161.37 124.127 164.241 126.044 168.525C127.984 172.787 124.744 175.658 127.003 179.008C128.167 180.74 127.71 183.84 133.233 183.931C135.995 183.977 140.285 189.081 143.389 190.016C146.493 190.95 155.781 189.605 155.439 185.367C155.165 182.062 159.022 182.336 161.395 178.53C163.472 175.203 159.775 174.359 161.737 169.004C163.198 165.061 159.41 164.104 159.524 160.823Z" fill="#292A66"/>
<path d="M207.974 311.345C207.791 313.396 210.644 313.897 213.953 314.057C217.262 314.217 216.258 314.9 220.799 315.721C225.318 316.541 227.144 315.31 227.463 314.695C227.76 314.148 225.66 313.305 223.401 312.348C223.127 312.234 222.831 312.097 222.557 311.983C220.024 310.866 218.609 308.61 216.646 306.514C214.775 304.531 213.017 298.173 213.017 298.173L206.855 296.851C206.855 296.851 208.59 302.571 209.183 305.01C209.526 306.445 209.024 308.063 208.544 309.271C208.293 309.932 208.042 310.616 207.974 311.345Z" fill="#FFB27D"/>
<path d="M213.954 314.057C217.263 314.216 216.259 314.9 220.8 315.721C225.319 316.541 227.145 315.31 227.464 314.695C227.761 314.148 225.661 313.305 223.402 312.348L223.356 312.393C223.356 312.393 220.161 313.464 216.487 312.485C213.497 311.664 210.599 309.887 208.522 309.317C208.271 309.978 208.02 310.661 207.952 311.391C207.792 313.396 210.645 313.875 213.954 314.057Z" fill="#C65447"/>
<path d="M148.342 232.062C148.342 232.062 187.595 235.389 195.286 240.243C202.977 245.097 215.323 301.615 215.323 301.615C215.323 301.615 214.57 302.23 212.859 302.412C211.284 302.595 207.792 301.66 207.792 301.66C207.792 301.66 190.037 276.364 188.805 270.006C187.55 263.625 187.869 257.951 185.016 257.791C182.164 257.631 146.676 262.098 141.313 252.663C135.95 243.229 140.377 233.885 140.377 233.885L148.342 232.062Z" fill="#00A7D8"/>
<path d="M193.917 311.573C193.735 313.624 196.587 314.125 199.896 314.285C203.205 314.444 202.201 315.128 206.743 315.948C211.262 316.769 213.087 315.538 213.407 314.923C213.703 314.376 211.604 313.533 209.344 312.576C209.071 312.462 208.774 312.325 208.5 312.211C205.967 311.094 204.552 308.838 202.589 306.742C200.718 304.759 198.961 298.401 198.961 298.401L192.799 297.079C192.799 297.079 194.533 302.799 195.127 305.238C195.469 306.673 194.967 308.291 194.488 309.499C194.237 310.16 193.986 310.844 193.917 311.573Z" fill="#FFB27D"/>
<path d="M199.874 314.285C203.183 314.445 202.179 315.128 206.72 315.949C211.239 316.769 213.065 315.539 213.384 314.923C213.681 314.376 211.581 313.533 209.322 312.576L209.276 312.621C209.276 312.621 206.081 313.693 202.407 312.713C199.417 311.892 196.519 310.115 194.442 309.545C194.191 310.206 193.94 310.889 193.872 311.619C193.712 313.624 196.565 314.126 199.874 314.285Z" fill="#C65447"/>
<path d="M140.262 234.66C140.262 234.66 176.594 236.369 184.102 241.519C191.61 246.67 201.743 303.62 201.743 303.62C201.743 303.62 200.967 304.189 199.255 304.326C197.658 304.44 194.212 303.369 194.212 303.369C194.212 303.369 177.461 277.412 176.457 270.986C175.452 264.582 175.977 258.907 173.147 258.634C170.318 258.36 134.67 261.46 129.695 251.797C124.72 242.135 140.262 234.66 140.262 234.66Z" fill="#00A7D8"/>
<path d="M129.375 188.306C129.398 188.283 129.398 188.261 129.421 188.261C129.718 187.941 130.06 187.645 130.425 187.372H130.448C133.415 185.298 138.709 184.865 138.709 184.865C138.709 184.865 139.28 184.819 140.216 184.774C140.9 182.973 141.699 180.307 141.95 176.41L142.475 176.547L151.307 178.917C151.307 178.917 150.919 181.72 150.736 184.364C150.691 184.933 150.668 185.526 150.645 186.05C150.896 186.141 151.147 186.232 151.353 186.323C151.353 186.323 156.396 186.916 157.606 188.192C158.792 189.468 161.189 198.014 161.805 199.541L127.778 200.088C127.778 200.088 126.933 191.223 129.375 188.306Z" fill="#FFB27D"/>
<path d="M128.121 249.085C132.161 249.473 145.74 241.269 150.258 238.625C150.35 238.579 150.418 238.534 150.487 238.488C152.381 237.372 155.028 236.87 157.538 236.437C160.756 235.913 163.746 235.548 164.704 234.409C165.846 233.042 162.491 231.538 159.798 229.965C158.428 229.168 157.242 228.37 156.877 227.549C156.58 226.911 156.603 225.521 156.808 223.744C156.831 223.402 156.877 223.06 156.922 222.718C157.15 223.174 157.424 223.653 157.721 224.108C158.52 225.293 159.57 226.501 160.597 227.481C161.875 228.689 163.153 229.601 163.951 229.783C164.476 229.92 165.024 229.851 165.549 229.646C166.964 229.099 168.333 227.55 169.406 226.045C169.657 225.704 169.908 225.339 170.113 224.997C170.843 223.88 171.368 222.946 171.574 222.741C172.167 222.08 169.155 220.758 167.899 219.756C166.667 218.753 161.783 199.519 161.783 199.519C161.19 198.015 158.794 189.446 157.584 188.17C157.584 188.17 152.928 193.867 146.881 193.525C140.879 193.206 130.586 187.418 130.426 187.327H130.404L129.331 188.261C126.866 191.178 127.733 200.043 127.733 200.043C127.733 200.043 132.435 220.758 132.435 222.855C132.435 226.684 129.263 235.503 127.756 241.838C126.843 245.918 126.547 248.949 128.121 249.085Z" fill="#292A66"/>
<path d="M151.33 178.894C151.33 178.894 150.942 181.698 150.759 184.341C145.762 183.863 143.411 179.122 142.498 176.524L151.33 178.894Z" fill="#F4A269"/>
<path d="M152.838 181.516C152.838 181.516 140.97 180.923 141.45 173.539C141.929 166.156 140.719 161.119 148.319 161.188C155.919 161.256 157.197 164.173 157.653 166.657C158.087 169.187 155.941 181.493 152.838 181.516Z" fill="#FFB27D"/>
<path d="M153.339 163.831C153.339 163.831 150.51 163.17 149.574 164.537C148.638 165.905 149.3 166.679 147.246 167.272C145.169 167.842 144.462 167.819 144.69 169.255C144.895 170.69 142.613 171.784 142.522 172.924C142.431 174.086 141.472 174.656 140.559 174.747C139.647 174.838 140.057 159.82 143.572 159.159C147.086 158.498 150.487 159.273 151.514 160.116C152.541 160.937 153.339 163.831 153.339 163.831Z" fill="#292A66"/>
<path d="M153.338 163.831C153.338 163.831 156.099 163.649 156.601 165.198C157.103 166.771 156.441 167.135 157.149 168.093C157.856 169.05 157.445 170.736 157.445 170.736C157.445 170.736 162.9 160.709 157.149 160.025C151.375 159.364 151.535 160.549 153.338 163.831Z" fill="#292A66"/>
<path d="M156.807 222.103C156.853 221.556 156.898 220.964 156.944 220.371C157.743 222.741 159.135 225.339 160.618 227.504C161.896 228.712 163.174 229.624 163.973 229.806C164.498 229.943 165.046 229.874 165.571 229.669C166.986 229.122 168.355 227.572 169.428 226.068C169.679 225.727 169.93 225.362 170.135 225.02C166.369 221.989 159.203 215.084 158.473 205.626C157.469 192.705 156.784 222.08 156.807 222.103Z" fill="#292A66"/>
<path d="M165.572 229.669C164.248 227.664 161.578 225.681 157.744 224.131C159.524 226.775 162.537 229.464 163.974 229.806C164.499 229.943 165.047 229.874 165.572 229.669Z" fill="#599DAD"/>
<path d="M134.17 204.783C134.17 204.783 127.78 241.884 150.259 238.625C150.35 238.579 150.419 238.534 150.487 238.488C152.381 237.371 155.028 236.87 157.539 236.437C160.757 235.913 163.746 235.548 164.705 234.409C165.846 233.041 162.491 231.537 159.798 229.965C158.429 229.167 155.165 228.848 154.777 228.028C154.481 227.39 152.039 224.45 152.221 222.672L151.194 221.077C140.126 212.44 134.17 204.783 134.17 204.783Z" fill="#599DAD"/>
<path d="M140.514 196.989C140.514 196.989 135.082 192.295 132.526 198.106C129.97 203.917 139.19 230.102 144.872 232.86C147.976 234.364 173.673 237.531 173.673 237.531L173.856 234.25C173.856 234.25 156.124 227.846 155.005 227.026C153.864 226.182 142.727 196.921 140.514 196.989Z" fill="#FFB27D"/>
<path d="M173.855 234.227C173.855 234.227 179.149 232.928 181.135 234.227C183.12 235.526 185.448 238.716 184.398 238.625C183.371 238.534 174.129 238.602 173.672 237.508C173.216 236.414 173.855 234.227 173.855 234.227Z" fill="#FFB27D"/>
<path d="M130.473 187.349C130.473 187.349 132.709 220.986 137.821 228.962C142.933 236.938 152.587 233.406 152.587 233.406C152.587 233.406 156.444 229.372 155.782 227.367C155.759 227.39 147.452 195.166 130.473 187.349Z" fill="#292A66"/>
<path d="M122.462 312.325C122.188 312.211 121.891 312.074 121.617 311.96C119.084 310.844 117.669 308.588 115.706 306.491C114.862 305.579 114.04 303.802 113.379 302.093C114.063 301.865 114.406 301.614 114.406 301.614C114.406 301.614 102.059 245.097 94.3682 240.243C93.2043 239.514 91.333 238.807 89.0052 238.169C88.1608 237.235 85.4678 235.161 84.4408 234.66C83.0259 233.999 81.9077 234.204 80.5384 234.432C80.4471 234.363 80.333 234.295 80.2417 234.227C79.4658 233.725 78.2106 233.611 76.9554 233.657C74.6732 231.925 71.2043 228.324 68.7852 225.703C68.945 225.476 69.1047 225.248 69.2417 225.02C69.972 223.903 70.4969 222.969 70.7023 222.764C71.2956 222.103 68.2832 220.781 67.028 219.778C65.7956 218.776 60.9118 199.542 60.9118 199.542C60.3184 198.037 57.9222 189.469 56.7126 188.192C56.2562 187.691 55.2292 187.304 54.1338 187.007C54.4305 186.529 54.5674 185.982 54.5218 185.367C54.2479 182.062 58.1047 182.336 60.4782 178.53C62.555 175.203 58.8579 174.359 60.8205 169.004C62.2811 165.061 58.4927 164.104 58.6068 160.823C58.6068 160.823 58.1276 154.692 49.3184 156.288C46.9906 156.698 45.3931 152.55 41.5819 154.032C33.3662 157.222 32.8869 153.006 30.5135 158.908C29.5093 161.37 23.2106 164.241 25.1276 168.525C27.0674 172.787 23.8267 175.658 26.0861 179.008C27.25 180.74 26.7935 183.84 32.3164 183.931C33.1836 183.954 34.2106 184.478 35.306 185.207C33.5259 185.549 31.1753 186.21 29.5321 187.349H29.5093C29.1213 187.623 28.779 187.919 28.5052 188.238C28.4823 188.261 28.4823 188.284 28.4595 188.284C26.7707 190.289 26.6338 195.143 26.7251 197.946C25.1047 197.377 23.028 196.989 20.4948 197.035C20.2894 197.035 20.084 197.035 19.9014 197.057C19.4678 197.035 19.0114 197.035 18.5549 197.035C11.0466 197.149 11.7541 201.866 11.7541 201.866C11.7541 202.026 11.7769 202.185 11.7998 202.276C11.8682 202.527 18.7603 227.116 18.4637 258.884C18.4637 258.907 18.4637 258.953 18.4637 258.976C18.4408 259.09 18.418 259.181 18.418 259.295V260.047C18.418 260.115 18.418 260.183 18.4408 260.252C18.4408 260.366 18.4408 260.48 18.4408 260.594C18.4408 260.594 18.4865 260.594 18.5549 260.594C18.7603 260.981 19.1483 261.232 19.6047 261.232H19.8786C19.8558 261.277 19.8558 261.323 19.8558 261.369C19.8558 261.619 21.4533 280.671 15.6338 312.006C15.6338 312.029 15.6566 312.074 15.6566 312.097C15.9989 313.305 16.2956 314.262 16.501 314.946C25.4014 288.328 24.9678 265.129 24.5798 261.209H30.7645C30.7417 261.255 30.7417 261.3 30.7417 261.346C30.7417 261.596 32.4989 282.335 25.7209 316.108H26.9761C36.2873 289.012 35.8537 265.152 35.4429 261.186H59.6338C59.223 265.152 58.7894 288.989 68.1006 316.108H69.3558C62.5778 282.335 64.3122 261.596 64.335 261.346C64.335 261.3 64.335 261.255 64.3122 261.209H70.4284C70.0176 265.174 69.584 289.012 78.8952 316.131H80.1504C75.2894 291.906 74.8101 274.404 74.9243 266.337C75.0612 267.772 75.2209 269.322 75.472 270.917C76.4761 277.321 93.2272 303.301 93.2272 303.301C93.2272 303.301 93.3869 303.346 93.6608 303.437C93.8433 304.098 94.0031 304.691 94.1172 305.169C94.4595 306.605 93.9575 308.223 93.4782 309.431C93.2272 310.092 92.9761 310.775 92.9077 311.505C92.7251 313.556 95.5778 314.057 98.8869 314.217C102.196 314.376 101.192 315.06 105.733 315.88C110.252 316.701 112.078 315.47 112.397 314.855C112.534 314.604 112.123 314.262 111.416 313.875C111.918 313.92 112.443 313.966 112.968 313.989C116.277 314.148 115.273 314.832 119.814 315.652C124.333 316.473 126.159 315.242 126.478 314.627C126.798 314.148 124.698 313.282 122.462 312.325ZM107.034 311.345C107.011 311.573 107.034 311.801 107.08 311.983C104.821 310.821 103.474 308.702 101.626 306.719C101.055 306.126 100.507 305.101 100.005 304.007C100.553 303.825 100.804 303.642 100.804 303.642C100.804 303.642 99.6172 297.034 97.7915 288.123C102.401 295.279 106.874 301.66 106.874 301.66C106.874 301.66 107.057 301.705 107.377 301.774C107.719 303.004 108.061 304.189 108.267 305.01C108.609 306.445 108.107 308.064 107.628 309.271C107.354 309.932 107.103 310.616 107.034 311.345ZM56.1649 227.937C56.0736 227.823 55.9823 227.686 55.9367 227.549C55.64 226.911 55.6628 225.521 55.8682 223.744C55.8911 223.402 55.9367 223.06 55.9823 222.718C56.2106 223.174 56.4844 223.652 56.7811 224.108C56.8724 224.245 56.9637 224.382 57.055 224.518C57.0778 224.541 57.0778 224.564 57.1006 224.564C57.1919 224.701 57.2832 224.815 57.3745 224.951C57.3973 224.974 57.4201 225.02 57.4429 225.043C57.5342 225.157 57.6255 225.27 57.7168 225.384C57.7396 225.43 57.7852 225.453 57.8081 225.498C57.8994 225.612 57.9906 225.703 58.0819 225.817C58.1276 225.863 58.1732 225.909 58.196 225.954C58.2645 226.023 58.333 226.114 58.4014 226.182C58.4699 226.25 58.5384 226.319 58.6068 226.41C58.6753 226.478 58.7209 226.547 58.7894 226.615C58.835 226.661 58.9035 226.729 58.9491 226.775C59.0404 226.866 59.1089 226.957 59.2002 227.025C59.2458 227.071 59.2915 227.116 59.3371 227.162C59.4284 227.253 59.5425 227.367 59.6338 227.458L59.6566 227.481C59.6794 227.504 59.7023 227.527 59.7251 227.549C59.7707 227.595 59.7935 227.618 59.8392 227.663C59.862 227.686 59.9077 227.732 59.9305 227.755C59.9761 227.8 60.0218 227.846 60.0674 227.891C60.0902 227.914 60.113 227.937 60.1359 227.96C60.1815 228.005 60.25 228.051 60.2956 228.119C60.3184 228.142 60.3413 228.142 60.3413 228.165C60.4097 228.233 60.4782 228.279 60.5467 228.347C60.5467 228.347 60.5467 228.347 60.5695 228.37C60.9574 228.689 61.3454 228.962 61.6877 229.213C61.7562 229.259 61.8247 229.304 61.8931 229.35C61.8931 229.35 61.9159 229.35 61.9159 229.373C61.9844 229.418 62.0301 229.441 62.0985 229.486L62.1213 229.509C62.167 229.532 62.2355 229.578 62.2811 229.6C62.3039 229.6 62.3039 229.623 62.3267 229.623C62.3724 229.646 62.418 229.669 62.4637 229.692C62.4865 229.692 62.4865 229.714 62.5093 229.714C62.555 229.737 62.6006 229.76 62.6462 229.783C62.6691 229.783 62.6691 229.783 62.6919 229.806C62.7375 229.828 62.7832 229.828 62.8288 229.851H62.8516C62.8973 229.874 62.9429 229.874 63.0114 229.897C63.0114 229.897 64.7002 230.877 67.028 232.153C63.3309 230.717 58.7894 229.008 56.1649 227.937Z" fill="#6B819E"/>
<path d="M428.543 72.3101H200.738V228.667H428.543V72.3101Z" fill="#D3E3EF"/>
<path d="M236.909 110.277C231.409 115.633 217.328 131.608 219.748 152.665C219.748 152.665 219.542 167.911 232.413 165.906C245.262 163.9 251.31 159.684 250.694 154.078C250.1 148.449 250.1 134.616 248.092 130.605C246.335 127.096 252.725 110.528 243.847 108.317C241.36 107.702 238.735 108.5 236.909 110.277Z" fill="#00A7D8"/>
<path d="M285.862 152.665C285.862 152.665 286.067 167.911 273.196 165.906C272.306 165.769 271.461 165.609 270.64 165.473C259.526 163.331 254.345 159.32 254.893 154.078C255.326 149.976 255.44 141.521 256.262 135.687C256.559 133.5 256.97 131.699 257.517 130.605C259.275 127.096 252.884 110.528 261.762 108.317C264.25 107.702 266.874 108.5 268.7 110.277C274.223 115.633 288.304 131.608 285.862 152.665Z" fill="#00A7D8"/>
<path d="M263.04 126.48L255.258 114.858V95.6694C255.258 94.5527 254.459 93.5728 253.364 93.4133C252.04 93.2309 250.876 94.2792 250.876 95.5782V114.698L243.619 126.48L249.461 136.758L252.291 126.07C252.656 125.113 254.026 125.113 254.391 126.07L256.08 137.51L263.04 126.48Z" fill="#00A7D8"/>
<path d="M270.663 165.382C259.549 163.239 254.368 159.229 254.916 153.987C255.35 149.885 254.962 141.43 255.783 135.596C255.783 135.596 256.559 141.202 262.196 149.771C266.783 156.767 266.373 162.579 270.663 165.382Z" fill="#292A66"/>
<path d="M235.105 165.382C246.22 163.239 251.4 159.229 250.852 153.987C250.419 149.885 250.305 141.43 249.483 135.596C249.483 135.596 249.803 141.339 243.572 149.771C238.597 156.494 239.396 162.579 235.105 165.382Z" fill="#292A66"/>
<path d="M269.248 116.658L269.043 116.453L271.165 114.333L271.371 114.538L269.248 116.658ZM273.493 112.396L273.288 112.191L275.41 110.072L275.616 110.277L273.493 112.396ZM277.761 108.134L277.555 107.929L279.678 105.81L279.883 106.015L277.761 108.134ZM282.028 103.896L281.823 103.691L283.945 101.571L284.151 101.776L282.028 103.896ZM349.535 99.8392H346.522V99.543H349.535V99.8392ZM343.51 99.8392H340.497V99.543H343.51V99.8392ZM337.485 99.8392H334.472V99.543H337.485V99.8392ZM331.46 99.8392H328.447V99.543H331.46V99.8392ZM325.435 99.8392H322.423V99.543H325.435V99.8392ZM319.41 99.8392H316.398V99.543H319.41V99.8392ZM313.362 99.8392H310.35V99.543H313.362V99.8392ZM307.338 99.8392H304.325V99.543H307.338V99.8392ZM301.313 99.8392H298.3V99.543H301.313V99.8392ZM295.288 99.8392H292.275V99.543H295.288V99.8392ZM289.263 99.8392H286.25V99.543H289.263V99.8392Z" fill="#00A7D8"/>
<path d="M275.752 137.624L275.547 137.419L277.669 135.299L277.875 135.505L275.752 137.624ZM280.02 133.362L279.814 133.157L281.937 131.038L282.142 131.243L280.02 133.362ZM284.288 129.124L284.082 128.918L286.205 126.799L286.41 127.004L284.288 129.124ZM288.532 124.862L288.327 124.657L290.449 122.538L290.655 122.743L288.532 124.862ZM356.061 120.806H353.049V120.509H356.061V120.806ZM350.014 120.806H347.001V120.509H350.014V120.806ZM343.989 120.806H340.976V120.509H343.989V120.806ZM337.964 120.806H334.951V120.509H337.964V120.806ZM331.939 120.806H328.927V120.509H331.939V120.806ZM325.914 120.806H322.902V120.509H325.914V120.806ZM319.889 120.806H316.877V120.509H319.889V120.806ZM313.864 120.806H310.852V120.509H313.864V120.806ZM307.839 120.806H304.827V120.509H307.839V120.806ZM301.815 120.806H298.802V120.509H301.815V120.806ZM295.767 120.806H292.754V120.509H295.767V120.806Z" fill="#00A7D8"/>
<path d="M309.3 179.556H306.288V179.26H309.3V179.556ZM303.275 179.556H300.263V179.26H303.275V179.556ZM297.251 179.556H294.238V179.26H297.251V179.556ZM291.226 179.556H288.213V179.26H291.226V179.556ZM285.201 179.556H282.188V179.26H285.201V179.556ZM279.176 179.556H276.141V179.26H279.153V179.556H279.176ZM273.128 179.556H270.116V179.26H273.128V179.556ZM267.103 179.556H264.091V179.26H267.103V179.556ZM261.078 179.556H258.066V179.26H261.078V179.556ZM255.053 179.556H252.041V179.26H255.053V179.556ZM249.029 179.556H246.016V179.26H249.029V179.556ZM243.711 177.528L241.589 175.408L241.794 175.203L243.916 177.323L243.711 177.528ZM239.443 173.289L237.321 171.17L237.526 170.965L239.649 173.084L239.443 173.289ZM235.176 169.027L233.053 166.908L233.259 166.703L235.381 168.822L235.176 169.027ZM230.931 164.766L228.809 162.647L229.014 162.441L231.136 164.561L230.931 164.766Z" fill="#00A7D8"/>
<path d="M356.108 154.693H354.008V154.396H356.108V154.693ZM350.996 154.693H347.983V154.396H350.996V154.693ZM344.971 154.693H341.958V154.396H344.971V154.693ZM338.946 154.693H335.933V154.396H338.946V154.693ZM332.921 154.693H329.908V154.396H332.921V154.693ZM326.873 154.693H323.861V154.396H326.873V154.693ZM320.848 154.693H317.836V154.396H320.848V154.693ZM314.823 154.693H311.811V154.396H314.823V154.693ZM308.798 154.693H305.786V154.396H308.798V154.693ZM302.774 154.693H299.761V154.396H302.774V154.693ZM296.749 154.693H293.736V154.396H296.749V154.693ZM290.724 154.693H287.711V154.396H290.724V154.693ZM284.699 154.693H281.686V154.396H284.699V154.693ZM278.651 154.693H275.639V154.396H278.651V154.693Z" fill="#00A7D8"/>
<path d="M362.36 98.859H408.574C409.236 98.859 409.783 98.3121 409.783 97.6512C409.783 96.9903 409.236 96.4434 408.574 96.4434H362.36C361.698 96.4434 361.15 96.9903 361.15 97.6512C361.15 98.3121 361.698 98.859 362.36 98.859Z" fill="#00A7D8"/>
<path d="M408.574 101.457H362.36C361.698 101.457 361.15 102.004 361.15 102.665C361.15 103.326 361.698 103.873 362.36 103.873H408.574C409.236 103.873 409.783 103.326 409.783 102.665C409.783 102.004 409.236 101.457 408.574 101.457Z" fill="#00A7D8"/>
<path d="M362.36 119.347H408.574C409.236 119.347 409.783 118.8 409.783 118.139C409.783 117.478 409.236 116.931 408.574 116.931H362.36C361.698 116.931 361.15 117.478 361.15 118.139C361.15 118.8 361.698 119.347 362.36 119.347Z" fill="#00A7D8"/>
<path d="M408.574 121.945H362.36C361.698 121.945 361.15 122.492 361.15 123.153C361.15 123.814 361.698 124.36 362.36 124.36H408.574C409.236 124.36 409.783 123.814 409.783 123.153C409.783 122.492 409.236 121.945 408.574 121.945Z" fill="#00A7D8"/>
<path d="M308.16 183.544H261.946C261.284 183.544 260.736 184.091 260.736 184.752C260.736 185.413 261.284 185.96 261.946 185.96H308.16C308.821 185.96 309.369 185.413 309.369 184.752C309.369 184.091 308.821 183.544 308.16 183.544Z" fill="#00A7D8"/>
<path d="M308.16 188.558H261.946C261.284 188.558 260.736 189.105 260.736 189.766C260.736 190.427 261.284 190.974 261.946 190.974H308.16C308.821 190.974 309.369 190.427 309.369 189.766C309.369 189.105 308.821 188.558 308.16 188.558Z" fill="#00A7D8"/>
<path d="M308.708 162.464H354.921C355.583 162.464 356.131 161.917 356.131 161.256C356.131 160.595 355.583 160.048 354.921 160.048H308.708C308.046 160.048 307.498 160.595 307.498 161.256C307.498 161.94 308.046 162.464 308.708 162.464Z" fill="#00A7D8"/>
<path d="M354.921 165.085H308.708C308.046 165.085 307.498 165.632 307.498 166.293C307.498 166.954 308.046 167.501 308.708 167.501H354.921C355.583 167.501 356.131 166.954 356.131 166.293C356.108 165.632 355.583 165.085 354.921 165.085Z" fill="#AFCCEB"/>
<path d="M247.043 79.124H212.72C211.464 79.124 210.438 80.1495 210.438 81.4029C210.438 82.6563 211.464 83.6819 212.72 83.6819H247.043C248.299 83.6819 249.325 82.6563 249.325 81.4029C249.303 80.1495 248.276 79.124 247.043 79.124Z" fill="#00A7D8"/>
<path d="M292.801 79.124H258.477C257.222 79.124 256.195 80.1495 256.195 81.4029C256.195 82.6563 257.222 83.6819 258.477 83.6819H292.801C294.056 83.6819 295.083 82.6563 295.083 81.4029C295.083 80.1495 294.056 79.124 292.801 79.124Z" fill="#00A7D8"/>
<path d="M371.466 205.626H216.553C215.549 205.626 214.75 206.447 214.75 207.427C214.75 208.43 215.572 209.227 216.553 209.227H371.466C372.47 209.227 373.269 208.407 373.269 207.427C373.269 206.447 372.47 205.626 371.466 205.626Z" fill="#00A7D8"/>
<path d="M326.051 212.349H216.279C215.435 212.349 214.75 213.033 214.75 213.876V214.446C214.75 215.289 215.435 215.973 216.279 215.973H326.051C326.895 215.973 327.58 215.289 327.58 214.446V213.876C327.58 213.033 326.895 212.349 326.051 212.349Z" fill="#00A7D8"/>
<path d="M361.038 209.524C361.038 209.524 360.65 209.41 359.965 209.615C359.326 209.661 358.55 209.661 358.185 209.524C357.478 209.25 356.884 209.911 357.341 210.481C357.5 210.663 357.683 210.823 357.911 210.914C356.839 211.917 355.515 213.603 354.1 216.475C354.1 216.475 352.913 218.639 355.446 217.956C357.135 217.5 357.5 216.657 359.874 215.996C362.247 215.335 364.119 213.626 364.324 211.826L365.328 210.048L362.841 207.564L361.038 209.524Z" fill="#F9C29D"/>
<path d="M366.469 140.609C366.469 140.609 386.141 150.978 383.745 180.969C383.106 189.059 364.826 212.76 364.826 212.76C364.826 212.76 361.38 211.142 361.402 208.612C361.402 208.612 370.28 182.997 372.197 181.311C373.886 179.829 364.095 157.04 363.616 150.773C363.068 144.506 366.469 140.609 366.469 140.609Z" fill="#43B052"/>
<path d="M399.585 300.338C399.585 300.338 403.008 303.46 402.346 305.694C401.685 307.904 398.581 309.386 398.17 312.097C397.759 314.809 396.07 316.291 394.564 316.291C393.058 316.291 387.398 316.291 387.398 316.291C387.398 316.291 386.28 314.376 388.973 313.807C391.643 313.237 392.647 310.046 392.487 307.084C392.328 304.121 392.738 300.179 392.738 300.179L398.421 298.857L399.585 300.338Z" fill="#233862"/>
<path d="M399.584 298.379C398.968 300.225 392.053 302.937 392.053 302.937C392.053 302.937 388.287 297.011 376.238 275.795C375.211 273.971 374.115 271.966 372.997 269.824C361.175 247.149 345.885 209.433 345.885 209.433L375.119 201.297C375.119 201.297 376.489 213.011 376.74 218.936C376.899 222.559 378.953 230.285 381.578 237.03C383.244 241.337 385.138 245.234 386.918 247.422C394.974 257.427 399.584 298.379 399.584 298.379Z" fill="#00A7D8"/>
<path d="M381.578 237.053C379.73 246.351 376.375 261.938 373.02 269.846C361.199 247.171 345.908 209.455 345.908 209.455L375.143 201.319C375.143 201.319 376.512 213.033 376.763 218.958C376.9 222.559 378.954 230.284 381.578 237.053Z" fill="#292A66"/>
<path d="M357.524 308.406C357.524 308.406 358.141 315.516 356.634 316.268L337.373 316.222C337.373 316.222 337.373 314.012 340.477 313.51C343.581 313.009 349.012 311.209 349.925 307.175C350.815 303.164 357.524 308.406 357.524 308.406Z" fill="#233862"/>
<path d="M341.252 207.974C341.252 207.974 342.279 220.439 343.466 235.412C345.086 255.762 347.049 280.762 347.231 285.502C347.574 293.729 348.897 306.878 348.897 306.878C348.897 306.878 352.069 310.001 358.437 308.679C358.437 308.679 364.096 289.901 365.717 270.028C365.739 269.709 365.762 269.367 365.785 269.048C367.291 248.812 369.642 206.219 369.642 206.219L341.252 207.974Z" fill="#00A7D8"/>
<path d="M367.885 139.879C367.885 139.879 356.452 147.4 349.309 145.166C349.309 145.166 351.294 142.158 353.188 139.765C352.937 138.33 352.755 137.099 352.641 136.028C352.344 133.59 352.344 132.222 352.344 132.222L357.114 128.462L361.655 124.861C361.29 134.98 367.885 139.879 367.885 139.879Z" fill="#FFB27D"/>
<path d="M384.02 231.561C369.483 241.36 340.134 238.557 339.906 238.374C339.427 232.13 339.13 221.852 338.993 212.349C338.925 208.384 338.879 204.555 338.856 201.205C338.811 194.574 338.811 189.834 338.811 189.674C338.811 189.674 338.811 189.309 338.833 188.717C338.879 186.803 338.993 182.404 339.13 179.123C339.153 178.507 339.176 177.938 339.199 177.436C339.199 177.413 339.199 177.391 339.199 177.345C339.29 175.864 340.203 171.921 341.458 167.341C341.458 167.318 341.481 167.295 341.481 167.25C343.352 160.527 345.977 152.459 348.008 148.699C349.057 146.762 352.549 141.156 352.549 141.156C355.014 141.635 356.794 140.905 359.418 139.652C362.271 138.285 365.352 136.78 365.854 137.168C369.597 139.903 372.107 146.033 373.477 153.872C374.23 158.339 384.75 231.059 384.02 231.561Z" fill="#43B052"/>
<path d="M361.723 128.759C361.723 128.759 358.596 134.456 352.617 136.051C352.32 133.613 352.32 132.246 352.32 132.246L357.09 128.485L361.723 128.759Z" fill="#ED985F"/>
<path d="M350.153 132.063C350.153 132.063 361.974 134 363.092 126.73C364.211 119.483 366.47 114.834 358.984 113.285C351.476 111.735 349.582 114.287 348.623 116.635C347.642 118.982 347.117 131.379 350.153 132.063Z" fill="#FFB27D"/>
<path d="M367.382 112.442C367.496 112.328 367.747 112.214 368.294 112.191C368.294 112.191 367.861 111.917 367.267 111.895C367.153 111.12 366.743 109.775 365.419 109.456C365.419 109.456 366.126 109.844 366.218 110.641C364.689 109.069 361.425 107.929 352.365 108.659C340.429 109.593 344.355 117.227 345.907 118.139C347.458 119.05 351.338 116.544 354.214 116.772C357.089 116.999 357.637 121.147 358.618 121.717C359.599 122.287 359.211 121.284 360.535 120.691C361.859 120.099 361.973 122.287 361.608 123.699C361.22 125.112 363.046 127.004 363.046 127.004C363.046 127.004 363.046 127.004 364.871 125.021C366.697 123.039 368.431 114.698 367.61 112.897C367.519 112.761 367.45 112.601 367.382 112.442Z" fill="#292A66"/>
<path d="M338.856 201.182C338.811 194.551 338.811 189.811 338.811 189.651C338.811 189.651 338.811 189.287 338.833 188.694C338.879 186.78 338.993 182.381 339.13 179.1C339.153 178.484 339.176 177.915 339.199 177.413C339.199 177.391 339.199 177.368 339.199 177.322C339.29 175.841 340.203 171.898 341.458 167.318C341.458 167.295 341.481 167.272 341.481 167.227C352.275 155.422 364.485 148.95 364.485 148.95C364.485 148.95 367.657 189.97 338.856 201.182Z" fill="#42AB37"/>
<path d="M365.878 137.122C365.878 137.122 364.782 133.932 363.892 133.567C363.892 133.567 351.454 136.438 347.301 150.157C347.301 150.18 352.139 141.748 365.878 137.122Z" fill="#43B052"/>
<path d="M302.364 179.715L301.634 179.875C301.474 179.92 301.315 179.806 301.292 179.647L290.452 130.263C290.406 130.103 290.52 129.944 290.68 129.921C290.84 129.875 290.999 129.989 291.022 130.149L302.57 179.35C302.615 179.51 302.501 179.67 302.364 179.715Z" fill="#2C3A64"/>
<path d="M300.379 165.358C300.379 165.358 297.778 161.051 296.591 160.686C295.404 160.321 294.993 162.737 295.244 164.241C295.518 165.95 296.089 167.637 297.276 168.138C298.462 168.617 299.535 168.776 299.535 168.776L300.379 165.358Z" fill="#F9C29D"/>
<path d="M300.699 165.267C300.699 165.267 300.448 163.74 300.061 163.512C299.673 163.261 298.166 162.851 297.778 162.897C297.39 162.942 299.376 165.7 299.924 165.745C300.471 165.791 300.699 165.267 300.699 165.267Z" fill="#F9C29D"/>
<path d="M367.795 149.815C367.795 149.815 363.664 171.625 334.247 178.165C326.306 179.92 298.258 169.46 298.258 169.46C298.258 169.46 298.783 165.699 301.225 164.97C301.225 164.97 328.359 165.927 330.528 167.249C332.445 168.434 351.386 152.391 357.229 150.066C363.071 147.719 367.795 149.815 367.795 149.815Z" fill="#43B052"/>
<path d="M85.8106 295.507C85.3313 296.053 85.2629 296.692 85.5139 297.352C85.9703 298.583 87.4309 299.95 89.1425 301.318C89.3708 301.5 89.5533 301.66 89.7131 301.796C89.7587 301.842 89.8044 301.865 89.85 301.91C89.8957 301.933 89.9185 301.979 89.9413 302.001C91.5388 303.46 90.9454 303.802 93.7981 306.787C97.0616 310.183 99.2982 310.228 99.9372 309.932C100.485 309.659 99.3894 307.881 98.1571 305.853C98.0886 305.762 98.043 305.648 97.9745 305.557C97.8147 305.283 97.655 305.01 97.4952 304.736C96.0575 302.298 96.4455 301.158 96.765 297.535C97.0388 294.595 101.352 281.104 101.352 281.104L95.099 280.033C95.099 280.033 93.2048 290.789 91.1508 292.43C90.0326 293.319 88.8002 293.319 87.7276 293.98C87.6591 294.025 87.5679 294.071 87.4994 294.116C86.906 294.527 86.2898 294.937 85.8106 295.507Z" fill="#FFB27D"/>
<path d="M85.8106 295.507C85.3313 296.053 85.2629 296.692 85.5139 297.352C86.0616 298.583 87.4994 299.95 89.1425 301.318C89.3479 301.5 89.5533 301.66 89.7131 301.819C89.7587 301.865 89.8044 301.888 89.85 301.933C89.8957 301.956 89.9185 302.001 89.9413 302.024C91.5388 303.483 90.9454 303.825 93.7981 306.81C97.0616 310.206 99.2981 310.251 99.9371 309.955C100.485 309.681 99.3894 307.904 98.1571 305.876C97.5181 305.648 94.5741 304.44 92.3376 301.591C90.3749 299.084 89.0512 295.871 87.7276 294.002C87.6591 294.048 87.5678 294.094 87.4994 294.139C86.906 294.527 86.2898 294.937 85.8106 295.507Z" fill="#C65447"/>
<path d="M136.223 291.61C136.611 293.547 139.372 293.205 142.43 292.476C145.511 291.724 144.781 292.612 149.14 292.134C153.521 291.655 154.845 290.014 154.982 289.376C155.096 288.807 152.928 288.602 150.623 288.328C150.326 288.305 150.03 288.26 149.756 288.214C147.131 287.895 145.214 286.209 142.841 284.819C140.581 283.497 137.227 278.164 137.227 278.164L131.225 278.643C131.225 278.643 134.374 283.428 135.584 285.502C136.291 286.733 136.268 288.328 136.177 289.581C136.131 290.22 136.086 290.926 136.223 291.61Z" fill="#FFB27D"/>
<path d="M142.454 292.453C145.535 291.701 144.805 292.59 149.164 292.111C153.546 291.632 154.869 289.992 155.006 289.353C155.12 288.784 152.952 288.579 150.647 288.305L150.625 288.351C150.625 288.351 148 290.22 144.349 290.288C141.382 290.356 138.232 289.513 136.178 289.536C136.133 290.22 136.087 290.903 136.224 291.587C136.612 293.524 139.373 293.205 142.454 292.453Z" fill="#C65447"/>
<path d="M122.873 203.576C122.873 203.576 124.311 200.089 125.885 199.929C127.46 199.792 132.458 198.995 132.823 199.724C133.188 200.431 132.823 203.006 131.751 203.94C130.678 204.875 124.037 206.379 124.037 206.379L122.873 203.576Z" fill="#FFB27D"/>
<path d="M113.241 253.278L100.301 288.032C100.301 288.032 98.3154 288.214 96.3984 287.667C94.6411 287.166 92.6328 285.844 92.6328 285.844C92.6328 285.844 95.8507 252.481 101.716 245.53C107.627 238.602 113.241 253.278 113.241 253.278Z" fill="#233862"/>
<path d="M62.0761 239.217C62.0761 239.217 99.2297 226.661 107.537 229.35C115.821 232.016 140.719 281.469 140.719 281.469C140.719 281.469 140.149 282.221 138.62 282.79C137.205 283.315 133.736 283.292 133.736 283.292C133.736 283.292 111.279 264.08 108.609 258.452C105.939 252.845 104.867 247.513 102.196 248.037C99.5263 248.561 67.7131 261.118 60.4786 253.643C53.267 246.168 55.1384 236.46 55.1384 236.46L62.0761 239.217Z" fill="#233862"/>
<path d="M83.277 150.75C81.6795 149.838 79.7397 149.747 78.3932 149.816C78.7355 149.451 79.4202 149.337 79.4202 149.337C78.5758 149.223 76.7272 150.043 76.7272 150.043C65.1111 145.577 63.2853 162.646 63.5364 166.611C63.7874 170.577 63.8102 175.134 58.0135 178.712C46.6027 185.709 56.2335 197.946 56.2335 197.946C56.3247 197.992 61.5509 206.834 61.5509 206.834C61.2542 203.621 76.0654 186.711 83.8019 181.652C85.6733 178.895 86.358 173.995 86.4036 173.607C86.0841 177.482 85.4223 179.647 84.8289 180.877C91.3331 174.838 87.5219 153.166 83.277 150.75Z" fill="#F36F21"/>
<path d="M83.3218 181.857C83.3674 181.88 79.579 183.84 76.7491 183.065C74.079 182.336 72.3446 178.895 72.3674 178.872C73.5085 178.644 73.828 177.094 73.8052 170.44L74.3072 170.531L82.8882 172.24C82.8882 172.24 82.6828 174.929 82.6828 177.482C82.6828 179.601 82.8197 181.629 83.3218 181.857Z" fill="#FFB27D"/>
<path d="M82.9129 172.24C82.9129 172.24 82.7075 174.929 82.7075 177.482C77.8922 177.345 75.359 172.969 74.332 170.554L82.9129 172.24Z" fill="#ED975D"/>
<path d="M84.509 174.633C84.509 174.633 73.1438 174.815 73.121 167.751C73.121 160.686 71.6376 155.946 78.8949 155.513C86.1521 155.103 87.5671 157.792 88.1376 160.162C88.731 162.532 87.4529 174.405 84.509 174.633Z" fill="#FFB27D"/>
<path d="M84.0748 155.353C84.0748 155.353 80.971 163.649 76.1785 164.879C71.4088 166.11 69.332 164.834 69.332 164.834C69.332 164.834 73.0063 161.917 73.7594 156.857C73.7594 156.857 81.747 151.411 84.0748 155.353Z" fill="#F36F21"/>
<path d="M83.3223 156.037C83.3223 156.037 85.6501 157.883 86.2206 159.683C86.7911 161.483 87.0422 165.198 88.1148 165.061C88.1148 165.061 90.4654 159.432 87.8181 156.242C85.0339 152.846 83.3223 156.037 83.3223 156.037Z" fill="#F36F21"/>
<path d="M123.009 201.82C123.009 201.82 106.258 208.11 104.592 208.224C100.963 208.475 97.2661 190.996 93.8885 185.184C91.4466 180.968 82.7744 179.829 82.7744 179.829C82.7744 179.829 81.9072 184.523 72.3906 178.872C72.0483 178.667 68.3055 184.227 64.6997 191.064C60.7288 198.607 56.8948 207.723 58.013 212.417C60.1582 221.373 51.6001 234.477 53.3802 239.422C53.9964 241.132 55.8678 241.565 58.401 241.268C63.2163 240.699 70.3367 237.485 75.4943 235.252C83.345 231.857 86.9051 235.047 89.3927 232.882C91.7661 230.831 87.0877 226.41 90.5109 207.016L90.5338 207.039C93.2267 211.392 98.2018 218.753 101.397 219.505C102.972 219.869 106.303 218.57 110.023 216.702C117.03 213.169 125.291 207.632 125.291 207.632C125.793 204.441 123.009 201.82 123.009 201.82Z" fill="#00A7D8"/>
<path d="M81.9766 170.349C81.9766 170.349 82.182 171.237 84.4185 171.101C84.4185 171.101 86.2898 170.987 86.2442 170.007C86.2442 170.007 84.4185 169.3 81.9766 170.349Z" fill="white"/>
<path d="M53.3587 239.423C53.9749 241.132 55.8463 241.565 58.3795 241.269C61.7114 239.81 76.0662 234.273 75.9065 230.49C75.6782 224.906 73.145 224.724 74.9251 217.842C76.3629 212.304 63.0807 202.049 60.9583 199.815C56.9874 207.359 56.8733 207.723 57.9915 212.418C60.1367 221.351 51.5787 234.478 53.3587 239.423Z" fill="#4A75CB"/>
<path d="M90.5117 207.039C93.2047 211.392 98.1798 218.753 101.375 219.505C102.949 219.87 106.281 218.571 110.001 216.702C107.308 217.408 104.684 217.386 102.128 217.135C99.3665 216.861 98.5677 213.489 94.186 208.407C91.3561 205.125 90.6486 205.945 90.5117 207.039Z" fill="#4A75CB"/>
<path d="M77.2065 217.704C77.2065 217.704 79.6027 215.836 81.8849 216.291C84.1671 216.747 85.2625 218.297 85.1712 219.003C85.0799 219.71 83.8704 221.715 82.1359 221.897C80.4015 222.08 75.4492 220.826 75.4492 220.826L77.2065 217.704Z" fill="#FFB27D"/>
<path d="M72.3682 178.872C72.3682 178.872 63.1026 179.441 59.8848 183.908C55.3661 190.198 47.5155 215.881 49.6607 221.738L77.8454 221.624C77.8454 221.624 78.53 218.434 77.5715 216.884C76.613 215.334 61.1628 212.85 60.4553 212.144C59.7478 211.437 69.3786 198.265 69.3786 196.123C69.4014 194.004 72.3682 178.872 72.3682 178.872Z" fill="#00A7D8"/>
<path d="M79.627 229.578H113.745L119.907 208.133H85.8344L79.627 229.578Z" fill="#1C468A"/>
<path d="M69.0225 229.573H113.639V228.729H69.0225V229.573Z" fill="#163560"/>
<path d="M102.928 218.502C103.134 217.75 102.7 217.135 101.947 217.135C101.194 217.135 100.395 217.75 100.19 218.502C99.9842 219.254 100.418 219.87 101.171 219.87C101.924 219.87 102.7 219.254 102.928 218.502Z" fill="#163560"/>
<path d="M111.165 310.684C109.499 309.066 102.812 302.572 102.812 302.572C98.6127 291.997 93.5691 280.739 88.7309 271.077C82.6147 258.907 76.8409 249.313 73.5546 247.012C71.7517 245.758 65.316 244.801 57.1687 244.095C57.1002 244.003 57.0774 243.935 57.0089 243.889C57.3969 243.798 57.6707 243.548 57.8305 243.183C58.0131 242.887 58.0815 242.454 58.0815 241.998C58.0815 240.699 57.4654 239.058 56.5525 238.466C55.3658 237.714 52.1936 238.124 50.4363 238.466C48.6334 238.83 45.1189 238.807 45.1189 238.807C44.8678 238.739 44.3886 238.602 43.6811 238.374C43.0193 238.169 42.1293 237.919 41.1023 237.577C37.8388 235.571 33.343 232.723 31.677 231.264C32.316 229.441 32.5214 227.686 31.6542 227.413C30.2849 226.957 26.7703 220.166 25.2413 217.089C25.2641 214.902 25.401 212.805 25.401 212.623C25.2869 205.604 16.2724 195.622 12.5981 191.907H13.0546C12.3927 191.452 11.7537 190.973 11.1147 190.449C10.4529 189.925 11.5027 188.876 11.1147 188.079C10.955 187.782 10.4757 187.782 9.74545 187.896C9.72262 187.691 9.72262 187.509 9.72262 187.349C9.6998 186.347 9.74545 184.911 9.81391 183.635C10.2019 183.658 10.4529 183.658 10.4529 183.658C12.5297 183.566 13.9218 178.462 14.4923 174.337C14.4923 174.337 15.6562 171.944 15.6562 169.369C15.6562 168.07 15.3596 166.725 14.4467 165.631C13.899 164.971 13.3741 164.56 12.9176 164.332C12.0961 163.421 8.71847 159.775 4.93009 158.134C3.37823 164.902 2.28279 171.807 1.48404 178.781C1.0276 182.883 0.68528 187.008 0.457064 191.132C-0.159118 201.524 -0.0906534 211.962 0.434243 222.08C0.639637 226.114 0.913496 230.102 1.25582 234.022C1.52968 237.121 1.82636 240.152 2.16868 243.16C2.23715 243.639 2.28279 244.163 2.35125 244.641C2.44254 245.576 2.53383 246.487 2.64794 247.399C2.73922 248.105 2.80769 248.789 2.89897 249.496C3.08155 250.863 3.2413 252.207 3.44669 253.506C3.90312 256.879 4.38238 260.184 4.90727 263.374C5.11267 264.764 5.3637 266.177 5.61474 267.545H15.4737C15.4965 267.636 15.9073 271.669 15.5878 278.962V279.053C15.428 282.608 15.1313 286.938 14.4923 291.997C14.1272 295.119 13.6023 298.515 12.9633 302.161C13.511 304.235 13.9903 306.104 14.4467 307.745C14.8347 306.537 15.2454 305.306 15.6106 304.098C16.3637 301.546 17.0483 299.062 17.5961 296.669C21.0649 281.742 20.7911 270.325 20.4944 267.545H34.1645C33.7766 271.009 33.4571 288.123 40.5089 308.679C41.1479 310.502 41.8098 312.348 42.5857 314.194C42.7454 314.627 42.928 315.083 43.1106 315.493C43.1106 315.516 43.1334 315.561 43.1334 315.584H44.4799C44.4799 315.561 44.4799 315.516 44.4571 315.493C44.3658 315.06 44.2517 314.604 44.1604 314.194C43.7039 312.28 43.316 310.434 42.9052 308.611C37.6106 283.11 39.1625 267.727 39.1853 267.545H50.8243C50.4363 270.986 50.1168 288.1 57.1687 308.611C57.1687 308.611 57.1687 308.611 57.1687 308.633C57.7849 310.457 58.4695 312.302 59.2454 314.194C59.3595 314.536 59.5193 314.9 59.6334 315.219C59.7019 315.311 59.7247 315.402 59.7475 315.493C59.7703 315.516 59.7703 315.561 59.7703 315.584H61.1168V315.493C61.0255 315.06 60.9114 314.604 60.8201 314.194C60.3637 312.302 59.9757 310.479 59.6106 308.725V308.702C54.2703 283.132 55.7994 267.727 55.845 267.545H59.1998C59.7247 267.545 60.1355 267.157 60.1355 266.656C60.1355 266.405 60.0442 266.177 59.8616 266.018C59.7019 265.858 59.4737 265.744 59.1998 265.744H58.8575C58.8575 265.744 58.5836 264.673 55.2745 263.556C56.7122 263.488 57.7164 263.443 58.1272 263.374C58.9716 263.283 59.8388 263.215 60.6147 263.192C63.4218 263.078 65.7268 263.283 65.7268 263.283C66.2973 265.494 67.3471 267.886 68.6707 270.416C68.8533 280.306 69.401 293.387 70.8388 302.526C70.8388 302.526 70.3824 305.42 69.1272 307.129C68.7392 307.676 68.6023 308.474 68.5795 309.34C68.5566 311.231 69.1272 313.374 69.1272 313.374L69.3782 314.171L69.9944 316.199H76.0193V314.376C76.8181 314.65 77.4799 314.923 78.0504 315.197C79.2371 315.744 79.899 316.199 79.899 316.199H99.9363V314.376C102.401 315.197 103.839 316.199 103.839 316.199H120.864C119.061 311.55 112.83 312.257 111.165 310.684ZM33.9363 241.998C36.5836 242.157 39.0483 242.203 40.9654 242.271C42.6085 242.727 43.8181 243.069 44.2517 243.183C40.6687 243.001 37.0401 242.818 33.5712 242.659C33.7537 242.476 33.8907 242.249 33.9363 241.998ZM94.7102 302.572C94.7102 302.572 94.2537 305.466 92.9986 307.175C92.0857 308.451 92.4737 311.163 92.7932 312.553C91.3554 312.029 89.872 311.756 88.7081 311.391C88.0691 311.209 87.5442 310.958 87.2247 310.662C85.5815 309.044 78.872 302.549 78.872 302.549L81.4508 288.351C84.0297 291.382 86.5629 294.14 88.7081 296.418C92.1085 300.065 94.5732 302.389 94.6873 302.526C94.7102 302.572 94.7102 302.572 94.7102 302.572Z" fill="#292A66"/>
<path d="M92.6117 316.131L86.4727 316.154C86.7009 315.242 86.8834 314.331 87.0432 313.533C87.1801 312.804 87.2942 312.166 87.3855 311.733C87.454 311.322 87.4996 311.072 87.4996 311.072L91.037 314.559L92.6117 316.131Z" fill="#163560"/>
<path d="M73.0511 316.222L66.9121 316.244C67.0262 315.789 67.1175 315.31 67.2316 314.854C67.6652 312.826 67.9391 311.14 67.9391 311.14L72.298 315.47L73.0511 316.222Z" fill="#163560"/>
<path d="M44.2966 273.469C44.9356 273.629 45.9626 273.766 47.2634 273.902C52.3526 274.427 61.8464 274.791 70.9978 274.86C74.2385 274.882 77.4563 274.86 80.4003 274.791C80.4231 274.791 80.4231 274.791 80.446 274.791C83.002 274.723 85.3526 274.632 87.3837 274.495C89.6202 274.335 91.446 274.153 92.6555 273.88C93.5456 273.697 94.0933 273.469 94.2758 273.219C95.7136 271.122 99.3194 266.883 98.8402 263.716C98.7489 263.055 98.475 262.462 97.9958 261.915C97.9958 261.915 95.5082 260.981 91.5829 259.682C83.8236 257.107 70.4729 253.05 59.7924 251.751C53.4937 250.999 48.1078 251.204 45.3692 253.255C35.6472 260.548 38.0435 271.988 44.2966 273.469Z" fill="#163560"/>
<path d="M87.4299 274.153C87.407 274.267 87.3842 274.381 87.3842 274.495C87.3614 274.586 87.3614 274.7 87.3386 274.791C87.2473 275.338 87.1332 275.885 87.0191 276.478C86.9734 276.774 86.905 277.07 86.8365 277.389C86.768 277.686 86.7224 277.982 86.6539 278.278C85.9921 281.309 85.0336 284.887 83.7099 289.103C81.9299 294.732 79.4879 301.455 76.1788 309.545C75.6996 310.684 75.2203 311.869 74.6954 313.077C74.2618 314.103 73.8054 315.151 73.3489 316.222L69.3095 316.245C68.5564 315.926 67.8261 315.493 67.2328 314.877C66.8904 314.513 66.5709 314.103 66.3655 313.624C65.8407 312.53 65.6809 305.99 66.434 297.854C66.7079 294.914 67.073 291.769 67.6207 288.602C68.1913 285.138 68.9444 281.651 69.9029 278.369C69.9942 278.05 70.0855 277.754 70.1768 277.458C70.268 277.161 70.3593 276.865 70.4506 276.569C70.6332 275.999 70.8386 275.407 71.0212 274.86C71.044 274.769 71.0896 274.677 71.1124 274.586C71.4548 273.675 71.7971 272.763 72.185 271.92C74.0108 267.75 76.3158 264.354 79.2141 262.531C81.2452 261.255 83.573 260.73 86.2203 261.209C86.2888 261.209 86.3344 261.232 86.4029 261.232C86.3572 261.232 89.2328 262.941 87.4299 274.153Z" fill="#163560"/>
<path d="M50.4134 196.442C50.4134 196.442 49.9341 196.51 49.2267 196.693C47.5151 197.103 44.457 198.037 43.3387 199.678C41.764 202.002 33.6167 233.224 34.0731 237.736C34.5296 242.248 43.8636 249.153 47.013 249.677L50.4134 196.442Z" fill="#ED7D2B"/>
<path d="M59.7693 201.342C59.7922 201.364 59.7693 206.105 55.6615 205.102C52.9685 204.441 47.7652 200.02 48.7465 197.787C49.203 196.738 51.8274 194.277 53.5391 187.828L54.0183 188.056L61.8918 191.907C61.8918 191.907 61.0017 194.459 60.3399 196.921C59.7465 199.017 59.3586 201 59.7693 201.342Z" fill="#F4A269"/>
<path d="M65.2467 193.57C65.2467 193.57 53.4479 196.305 51.8504 188.921C50.2757 181.561 47.6741 176.934 55.1367 174.883C62.5994 172.832 64.6761 175.339 65.8172 177.664C66.9355 180.011 68.2819 192.682 65.2467 193.57Z" fill="#FFB27D"/>
<path d="M41.7871 262.69C41.7871 262.69 49.0216 268.524 48.6336 272.603C48.2228 276.683 54.339 271.76 54.339 271.76L51.5091 262.645L41.7871 262.69Z" fill="#1C468A"/>
<path d="M103.883 290.174C101.692 297.101 98.52 305.625 94.0013 316.13L90.0075 316.153C89.3913 315.903 88.798 315.561 88.2731 315.105C87.771 314.695 87.3374 314.171 87.0407 313.532C87.0407 313.51 87.0179 313.51 87.0179 313.487C86.7669 312.94 86.6071 311.094 86.5843 308.405C86.5615 303.688 86.9723 296.349 88.2046 288.852C88.7067 285.73 89.3685 282.562 90.1673 279.554C90.2814 279.121 90.3955 278.711 90.5324 278.278C90.715 277.662 90.8976 277.07 91.0801 276.477C91.0801 276.454 91.0801 276.432 91.103 276.432C91.2855 275.862 91.4681 275.292 91.6735 274.745C90.8063 274.768 89.8934 274.791 88.9806 274.791C88.4328 274.791 87.8851 274.814 87.3374 274.814C85.1009 274.836 82.7731 274.836 80.4453 274.814C80.4225 274.814 80.4225 274.814 80.3996 274.814C77.2503 274.791 74.0781 274.723 71.0884 274.609C68.2586 274.517 65.6113 274.403 63.2835 274.244C62.6216 274.198 61.9826 274.153 61.3893 274.107C58.5822 273.902 56.4598 273.674 55.3872 273.424C54.6569 273.241 53.9723 272.945 53.3561 272.512C53.1279 272.352 52.8996 272.17 52.6943 271.988C50.7316 270.21 49.6362 267.134 50.0013 263.738C50.047 263.396 50.0926 263.032 50.1611 262.667C50.2067 262.462 50.2523 262.257 50.298 262.052C50.4577 261.368 50.686 260.684 50.9826 259.978C51.9868 257.608 53.7669 255.261 56.4826 253.232C57.2357 252.663 58.1943 252.23 59.2897 251.933C59.4723 251.888 59.632 251.842 59.8146 251.797C59.9059 251.774 59.9743 251.751 60.0656 251.751C60.6133 251.637 61.2067 251.523 61.8229 251.455C65.132 251.067 69.2399 251.341 73.6445 252.002C74.1009 252.07 74.5573 252.138 75.0366 252.207C79.3042 252.89 83.7544 253.893 87.9764 254.919H87.9992C89.3001 255.238 90.5781 255.557 91.8104 255.853C92.0843 255.921 92.3582 255.99 92.6548 256.058C94.1382 256.423 95.5532 256.787 96.8996 257.129C97.8125 257.357 98.6797 257.608 99.5013 257.881H99.5241C104.111 259.34 107.055 261.14 107.055 261.14C107.032 261.117 111.711 265.425 103.883 290.174Z" fill="#1C468A"/>
<path d="M38.7275 260.457C39.3437 261.323 40.4163 262.075 41.7856 262.69C51.5989 267.202 74.9682 256.993 73.8271 250.27C73.4163 247.9 71.5678 247.923 70.1072 244.049C68.9661 241.04 68.1445 238.214 68.1674 235.457C68.1674 234.295 68.3499 233.132 68.6923 231.947C69.5595 229.122 70.3582 224.587 70.8375 219.755C71.6819 211.528 69.3769 202.663 67.3914 199.746C67.1176 199.336 52.5118 195.439 39.9827 199.587C39.9827 199.587 39.0699 214.149 42.0138 229.327C42.4018 231.355 42.2421 233.452 41.5118 235.366C39.2752 241.405 34.825 255.056 38.7275 260.457Z" fill="#292A66"/>
<path d="M63.3535 232.198C61.6419 226.934 61.117 220.393 64.5174 213.625C64.5174 213.625 68.0091 215.722 70.839 219.778C70.3597 224.609 69.561 229.144 68.6937 231.97C68.3286 233.155 68.1689 234.363 68.1689 235.571C68.1689 235.639 68.1689 235.708 68.1689 235.776C68.1689 235.936 68.1688 236.095 68.1917 236.255C68.1917 236.323 68.1917 236.391 68.1917 236.46C68.2145 236.665 68.2145 236.87 68.2373 237.075C68.2373 237.143 68.2601 237.212 68.2601 237.28C68.283 237.44 68.3058 237.599 68.3286 237.736C68.3286 237.827 68.3514 237.895 68.3742 237.987C68.3971 238.169 68.4427 238.374 68.4655 238.556C68.4884 238.625 68.4884 238.693 68.5112 238.761C68.534 238.921 68.5796 239.103 68.6253 239.263C68.6481 239.354 68.6709 239.445 68.6937 239.513C68.7394 239.673 68.7622 239.81 68.8079 239.969C68.8307 240.038 68.8535 240.106 68.8535 240.174C68.8991 240.379 68.9676 240.585 69.0361 240.812C69.0589 240.904 69.0817 240.995 69.1045 241.063C69.1502 241.223 69.1958 241.359 69.2415 241.519C69.2643 241.61 69.2871 241.678 69.3099 241.77C69.3784 241.975 69.4469 242.203 69.5153 242.408C69.5381 242.476 69.561 242.544 69.5838 242.613C69.6523 242.772 69.6979 242.955 69.7664 243.114C69.7892 243.183 69.812 243.274 69.8576 243.342C69.9489 243.57 70.0174 243.798 70.1087 244.026C71.5693 247.9 75.061 249.86 75.061 251.82C75.061 256.879 51.6004 267.179 41.7871 262.69C64.6087 266.086 63.3535 232.335 63.3535 232.198Z" fill="#1C468A"/>
<path d="M60.3858 184.66C60.3858 184.66 59.1991 182.267 58.1037 182.745C57.0082 183.224 58.5373 187.075 59.2676 187.03C59.9751 186.984 60.3858 184.66 60.3858 184.66Z" fill="#FFB27D"/>
<path d="M63.763 172.513C61.2526 170.895 58.6053 170.69 58.6053 170.69C56.6655 170.462 54.9995 170.622 53.5618 171.078C53.3336 170.85 53.0825 170.667 52.8543 170.576C45.2319 167.431 37.9518 178.233 40.5078 187.098C41.6033 190.927 36.3087 195.416 31.3107 199.085C27.0887 202.185 26.2672 206.173 26.7236 209.728C27.317 214.468 30.0099 218.593 34.1406 220.006C32.0182 216.861 32.1095 213.739 32.1095 213.739C32.2464 215.289 33.2962 216.861 34.4145 218.16C35.236 219.117 36.2174 219.915 37.3128 220.576C38.317 221.191 39.4352 221.647 40.5763 221.966C40.6904 221.989 40.8045 222.034 40.9186 222.057C44.2734 222.946 46.8066 223.401 48.7236 223.561C49.7049 223.652 50.5037 223.675 51.1883 223.629C53.1966 223.538 54.041 223.014 54.3833 222.627C54.6116 222.376 54.6344 222.194 54.6344 222.194C60.18 213.01 47.6282 212.349 52.6033 203.461C52.9456 202.846 53.3792 202.162 53.9269 201.456C54.5203 200.384 54.9767 199.017 55.2962 197.718C55.7983 195.667 56.0037 193.753 56.0493 193.388C55.958 195.166 55.7983 196.579 55.5929 197.718C55.3647 199.04 55.0908 199.997 54.817 200.658C55.5016 199.906 56.0493 198.926 56.4829 197.764C56.9165 196.579 57.236 195.211 57.4414 193.73C57.624 192.499 57.7153 191.178 57.7381 189.833C57.7609 189.081 57.7609 188.329 57.7381 187.554C58.9477 185.663 59.9062 182.654 61.7091 181.219C61.0244 184.797 59.1302 189.195 59.1302 189.195C65.9995 185.936 67.1862 177.094 67.1862 177.094C67.7568 175.043 65.0638 173.356 63.763 172.513Z" fill="#292A66"/>
<path d="M91.4691 276.455H91.1268C91.0812 276.295 89.5065 271.669 63.2617 271.715C63.0106 256.309 60.8882 242.567 58.2181 233.839C55.0003 223.356 52.1247 217.34 52.0791 217.272C51.8509 216.861 51.1206 216.588 49.911 216.702C48.5417 216.839 48.4961 217.773 48.7243 218.183C48.77 218.274 50.1164 220.941 51.9422 225.612C44.5023 224.359 32.2471 225.772 27.2264 226.456C25.1496 220.667 23.6206 217.454 23.5978 217.408C23.3695 216.998 22.6393 216.725 21.4297 216.839C20.0604 216.975 20.0148 217.91 20.243 218.32C20.3799 218.57 33.2285 243.798 32.909 276.728C32.6808 276.728 32.4754 276.842 32.3156 277.002C32.1559 277.161 32.0646 277.389 32.0646 277.64C32.0646 278.141 32.4754 278.529 32.9546 278.529H33.0231C33.0231 278.734 34.4152 292.818 30.3758 316.427L33.0915 316.404C38.4546 297.284 38.0895 281.788 37.7471 278.506L59.4505 278.392C59.6559 281.332 60.3633 295.005 56.7347 316.29L59.4505 316.268C64.5853 297.831 64.5169 282.699 64.1745 278.369L67.5065 278.346C67.3695 279.759 67.2554 283.383 67.5978 288.579C68.0542 295.37 69.2866 304.85 72.299 315.47C72.3675 315.721 72.4359 315.971 72.5044 316.199L75.2202 316.176C75.0148 315.105 74.855 314.057 74.6725 313.032C71.0438 291.359 72.2077 278.506 72.2077 278.301L83.5501 278.255C83.4131 279.714 83.299 283.565 83.687 289.057C84.0521 294.23 84.8737 300.885 86.5625 308.36C86.8135 309.454 87.0646 310.57 87.3613 311.687C87.6351 312.804 87.9318 313.92 88.2741 315.06C88.3654 315.402 88.4795 315.743 88.5708 316.108L91.2866 316.085C91.1953 315.561 91.104 315.037 91.0127 314.513C89.1185 303.688 88.411 294.983 88.1828 288.784C87.9318 282.038 88.2741 278.324 88.2741 278.21L91.4463 278.187C91.6974 278.187 91.9256 278.073 92.0853 277.913C92.2451 277.754 92.3364 277.526 92.3364 277.275C92.3592 276.865 91.9484 276.455 91.4691 276.455ZM34.7803 276.728L40.7596 276.706L38.2036 276.728H34.7803ZM52.6496 227.481C53.0604 228.598 53.494 229.828 53.9505 231.127C46.3052 229.919 33.8675 231.401 29.1434 232.062C28.687 230.649 28.2534 229.327 27.8198 228.096C33.16 227.39 45.9401 225.977 52.6496 227.481ZM29.7139 233.976C29.6911 233.885 29.6455 233.771 29.6227 233.68C34.6434 233.019 47.5604 231.515 54.521 232.95C57.6247 242.522 60.8654 256.127 61.3218 271.738C59.6102 271.76 57.8073 271.783 55.8903 271.852C53.1973 271.943 50.8239 272.057 48.7243 272.216C40.6911 272.831 36.7202 273.925 34.7575 274.882C34.8032 258.246 32.5666 243.274 29.7139 233.976Z" fill="#292A66"/>
<path d="M92.6563 252.321C92.6563 252.321 96.6272 253.415 97.7683 254.463C98.9094 255.511 99.5027 257.859 99.5027 257.859L91.7891 255.876L92.6563 252.321Z" fill="#FFB27D"/>
<path d="M92.5872 256.081C88.776 255.648 80.3776 252.321 77.2511 248.515C73.6681 244.14 59.359 219.915 61.9606 212.577C62.8963 209.979 64.5851 199.427 66.776 199.587C68.7614 199.746 71.637 203.757 72.2988 206.31C74.9689 216.656 78.6432 236.71 81.4046 238.989C83.915 241.063 89.7801 247.831 92.6328 252.298C93.5457 254.281 93.1349 255.283 92.5872 256.081Z" fill="#292A66"/>
<path d="M288.853 316.724C288.534 316.769 288.26 316.838 287.963 316.906C287.94 316.838 287.917 316.769 287.895 316.724H288.853Z" fill="#163560"/>
<path d="M343.353 316.724C343.216 316.746 343.056 316.769 342.919 316.815C342.85 316.792 342.805 316.746 342.736 316.724H343.353Z" fill="#163560"/>
<path d="M184.217 316.268H167.854C169.588 313.283 171.619 310.935 173.993 309.431C176.366 307.95 179.036 307.335 182.117 307.904C182.208 307.927 182.277 307.927 182.322 307.973C182.345 307.973 184.445 309.226 184.217 316.268Z" fill="#163560"/>
<path d="M140.969 232.495C140.969 232.495 140.421 232.586 139.6 232.768C137.614 233.224 134.031 234.295 132.73 236.209C130.882 238.898 121.251 275.11 121.753 280.375C122.255 285.616 133.05 293.706 136.724 294.322L140.969 232.495Z" fill="#43B052"/>
<path d="M151.81 238.261C151.856 238.283 151.787 243.776 147.017 242.613C143.891 241.838 137.866 236.665 139.007 234.09C139.555 232.86 142.613 230.034 144.621 222.536L145.169 222.81L154.298 227.345C154.298 227.345 153.248 230.307 152.472 233.179C151.787 235.526 151.331 237.85 151.81 238.261Z" fill="#F4A269"/>
<path d="M158.201 229.236C158.201 229.236 144.462 232.335 142.659 223.767C140.856 215.198 137.867 209.82 146.562 207.495C155.257 205.148 157.653 208.065 158.954 210.777C160.255 213.489 161.738 228.211 158.201 229.236Z" fill="#FFB27D"/>
<path d="M147.521 224.086C144.234 225.202 139.214 218.776 137.776 215.016C136.019 210.412 140.058 201.297 150.624 202.641C150.624 202.641 153.683 202.892 156.604 204.783C158.909 206.287 165.071 210.184 155.12 214.332C151.378 215.882 150.373 223.106 147.521 224.086Z" fill="#F36F21"/>
<path d="M206.354 307.95C206.354 307.95 202.954 305.853 197.637 304.121L197.431 304.053C196.541 303.78 195.583 303.483 194.578 303.233C193.027 302.845 191.383 302.412 189.695 301.957C189.352 301.888 189.033 301.797 188.713 301.706C187.344 301.364 185.975 300.999 184.537 300.68C184.537 300.68 184.537 300.68 184.514 300.68C184.423 300.658 184.354 300.658 184.263 300.612C179.379 299.404 174.176 298.219 169.246 297.353H169.224C168.676 297.262 168.151 297.171 167.649 297.102C167.626 297.102 167.626 297.102 167.581 297.102C162.514 296.305 157.699 295.94 153.91 296.396C153.18 296.464 152.518 296.578 151.879 296.692C151.788 296.715 151.697 296.761 151.583 296.761C151.377 296.738 151.149 296.692 150.944 296.692H150.921C148.616 296.419 146.425 296.259 144.394 296.259C140.286 296.259 136.908 296.875 134.854 298.424C131.134 301.159 128.966 304.395 127.917 307.631C126.912 310.708 126.981 313.739 127.825 316.223H140.72H195.354H207.906C208.134 309.545 206.354 307.95 206.354 307.95Z" fill="#292A66"/>
<path d="M127.026 306.788C127.756 307.791 128.965 308.657 130.563 309.409C141.928 314.696 169.131 302.982 167.853 295.143C167.397 292.385 165.252 292.408 163.563 287.896C162.262 284.386 161.326 281.127 161.372 277.914C161.395 276.547 161.6 275.202 162.011 273.857C163.038 270.576 163.974 265.334 164.567 259.728C165.594 250.18 162.97 239.856 160.687 236.46C160.368 235.982 143.434 231.378 128.851 236.119C128.851 236.119 127.71 253.028 131.019 270.667C131.476 273.014 131.248 275.453 130.403 277.686C127.756 284.66 122.53 300.498 127.026 306.788Z" fill="#43B052"/>
<path d="M155.782 274.085C153.819 267.955 153.248 260.366 157.242 252.504C157.242 252.504 161.304 254.965 164.568 259.705C163.975 265.311 163.039 270.576 162.012 273.835C161.578 275.225 161.396 276.615 161.373 278.005C161.373 278.096 161.373 278.165 161.373 278.256C161.373 278.438 161.373 278.62 161.396 278.803C161.396 278.871 161.396 278.962 161.396 279.031C161.419 279.281 161.419 279.509 161.441 279.76C161.441 279.828 161.464 279.919 161.464 279.988C161.487 280.17 161.51 280.352 161.533 280.535C161.555 280.626 161.555 280.717 161.578 280.808C161.601 281.036 161.647 281.241 161.692 281.469C161.715 281.56 161.715 281.628 161.738 281.72C161.784 281.925 161.806 282.107 161.852 282.312C161.875 282.403 161.898 282.517 161.921 282.608C161.966 282.791 162.012 282.973 162.058 283.155C162.08 283.247 162.103 283.315 162.126 283.406C162.194 283.657 162.263 283.885 162.331 284.135C162.354 284.226 162.4 284.34 162.423 284.432C162.468 284.614 162.537 284.773 162.582 284.956C162.605 285.047 162.651 285.138 162.674 285.252C162.742 285.503 162.833 285.753 162.925 286.004C162.948 286.095 162.993 286.164 163.016 286.255C163.084 286.46 163.153 286.642 163.221 286.847C163.244 286.938 163.29 287.03 163.313 287.121C163.404 287.394 163.495 287.645 163.609 287.918C165.298 292.431 169.315 294.732 169.315 296.988C169.292 302.868 141.975 314.718 130.609 309.409C157.06 313.465 155.782 274.268 155.782 274.085Z" fill="#42AB37"/>
<path d="M152.608 218.867C152.608 218.867 151.239 216.087 149.961 216.611C148.683 217.158 150.44 221.648 151.285 221.602C152.129 221.556 152.608 218.867 152.608 218.867Z" fill="#FFB27D"/>
<path d="M147.04 207.381V207.358C146.378 205.444 145.602 203.917 144.78 203.074H144.757V203.051C144.484 202.778 144.21 202.595 143.936 202.482C135.081 198.767 126.569 211.278 129.49 221.602C130.745 226.068 124.56 231.219 118.718 235.48C113.789 239.058 112.83 243.707 113.309 247.809C113.971 253.324 117.075 258.133 121.89 259.796C119.631 256.492 119.54 253.187 119.54 252.595C119.722 254.35 120.932 256.173 122.21 257.654C123.145 258.748 124.241 259.682 125.519 260.457C125.519 260.48 125.542 260.48 125.542 260.48C126.706 261.186 127.984 261.733 129.307 262.098C129.421 262.166 129.581 262.189 129.695 262.212C133.598 263.237 136.542 263.784 138.755 264.012C139.874 264.126 140.832 264.126 141.608 264.103C143.959 264.012 144.917 263.397 145.351 262.987C145.602 262.69 145.625 262.463 145.625 262.463C152.106 251.843 137.546 250.977 143.365 240.699C143.799 239.97 144.278 239.218 144.917 238.397C145.625 237.144 146.127 235.571 146.538 234.067C146.926 232.449 147.199 230.945 147.336 229.988C147.222 231.629 147.085 232.973 146.88 234.067C146.606 235.617 146.264 236.711 145.967 237.508C146.766 236.62 147.405 235.503 147.884 234.136C148.409 232.768 148.797 231.196 149.048 229.464C149.253 228.028 149.39 226.524 149.413 224.952C149.436 224.108 149.436 223.22 149.413 222.376C149.413 222.354 149.413 222.354 149.413 222.308C149.322 216.839 148.386 211.278 147.04 207.381Z" fill="#F36F21"/>
<path d="M154.937 307.084C154.937 306.97 154.914 306.879 154.914 306.788C154.663 303.415 154.366 300.202 153.978 297.125C153.955 296.875 153.91 296.647 153.887 296.419C153.727 295.074 153.544 293.775 153.362 292.522V292.499C152.381 286.073 151.171 280.444 149.802 275.954C148.159 270.576 146.607 266.178 145.397 262.964C143.845 258.931 142.818 256.743 142.773 256.675C142.522 256.196 141.654 255.877 140.239 256.014C139.851 256.037 139.532 256.173 139.304 256.287C138.665 256.675 138.665 257.381 138.847 257.746C138.847 257.769 138.961 257.996 139.19 258.407C139.646 259.341 140.536 261.301 141.654 264.081C141.928 264.81 142.225 265.562 142.567 266.383C133.918 264.902 119.677 266.451 113.835 267.203C111.461 260.458 109.704 256.72 109.659 256.675C109.408 256.196 108.54 255.877 107.125 256.014C105.551 256.173 105.482 257.267 105.733 257.746C105.893 258.019 118.331 282.723 119.951 316.246H122.256C121.777 299.883 119.517 285.389 116.665 275.954C116.642 275.84 116.596 275.704 116.573 275.612C122.416 274.86 137.432 273.197 145.534 274.906C147.428 280.945 149.391 288.306 150.851 296.715H150.874C150.874 296.784 150.897 296.875 150.897 296.966C150.966 297.399 151.057 297.809 151.103 298.242C151.627 301.319 152.038 304.464 152.381 307.768C152.403 307.836 152.403 307.882 152.403 307.95C152.677 310.662 152.883 313.42 153.042 316.246H155.347C155.302 313.146 155.165 310.07 154.937 307.084ZM116.026 273.744C115.478 272.08 114.999 270.553 114.497 269.14C120.727 268.343 135.584 266.793 143.366 268.571C143.845 269.87 144.347 271.305 144.849 272.809C135.972 271.374 121.526 273.014 116.026 273.744Z" fill="#292A66"/>
<path d="M189.693 297.649C189.693 297.649 194.303 298.948 195.627 300.156C196.95 301.387 197.612 304.122 197.612 304.122L188.666 301.774L189.693 297.649Z" fill="#FFB27D"/>
<path d="M189.627 302.025C185.199 301.5 175.454 297.603 171.849 293.137C167.718 288.032 151.218 259.796 154.299 251.296C155.394 248.265 157.425 236.05 159.959 236.255C162.264 236.437 165.596 241.132 166.349 244.094C169.384 256.127 173.537 279.44 176.755 282.13C179.654 284.545 186.432 292.453 189.741 297.672C190.722 299.951 190.243 301.09 189.627 302.025Z" fill="#43B052"/>
<path d="M40.8066 316.45C42.7465 316.61 44.7091 316.701 46.6033 316.746C48.4975 316.815 50.3461 316.838 52.1033 316.838C53.4498 316.838 54.7278 316.838 55.9373 316.815C57.9456 316.792 59.7942 316.724 61.4145 316.655C61.4145 316.633 61.4145 316.564 61.4373 316.541C62.7838 316.541 64.1075 316.473 65.3855 316.45H40.8066Z" fill="#163560"/>
<path d="M212.081 247.946L212.058 248.243H212.013L211.579 251.046V251.068L211.237 253.347L209.799 262.6L209.434 264.97L208.612 270.28L208.27 272.627L201.583 316.223L201.309 317.977H189.876C189.67 317.408 189.488 316.815 189.305 316.223C187.662 310.822 186.567 305.238 186.932 300.498C187.091 298.652 187.594 296.442 188.392 293.935C190.332 287.873 193.892 280.261 197.658 273.014C198.114 272.194 198.548 271.374 198.959 270.576C200.031 268.593 201.058 266.679 202.062 264.879C202.313 264.446 202.542 264.035 202.793 263.625C202.793 263.602 202.793 263.557 202.816 263.534C203.021 263.169 203.203 262.828 203.432 262.509C207.357 255.558 210.689 250.088 211.693 248.448L211.716 248.425C211.739 248.402 211.739 248.402 211.739 248.357C211.99 248.106 212.081 247.946 212.081 247.946Z" fill="#93312C"/>
<path d="M215.824 250.27L223.72 256.104L235.131 253.712C234.972 252.663 234.218 248.356 233.534 244.459C233.488 244.231 233.443 244.003 233.42 243.776C232.826 240.448 232.324 237.6 232.324 237.6L221.667 232.29L217.696 230.307C217.696 230.375 218.015 233.999 218.038 234.523C218.768 243.912 215.824 250.27 215.824 250.27Z" fill="#FFB27D"/>
<path d="M234.332 247.331C234.081 247.217 218.79 242.727 217.147 243.274C215.481 243.821 214.5 247.034 214.5 247.034L239.49 252.686C239.49 252.663 237.527 248.675 234.332 247.331Z" fill="#93312C"/>
<path d="M249.142 318H193.412C193.435 317.43 193.503 316.838 193.526 316.245C194.69 302.093 196.79 286.004 200.099 272.9C200.304 272.08 200.532 271.282 200.738 270.508C201.263 268.571 201.833 266.679 202.404 264.924C202.518 264.491 202.678 264.104 202.837 263.671C202.837 263.648 202.837 263.602 202.86 263.58C202.974 263.238 203.111 262.873 203.225 262.554C205.599 255.991 208.429 250.954 211.738 248.493L211.761 248.47C211.783 248.448 211.783 248.448 211.783 248.402C211.875 248.334 211.943 248.311 211.989 248.288H212.012C212.81 247.718 213.632 247.285 214.476 247.035C215.001 246.875 215.846 246.875 216.918 246.966C221.3 247.354 229.47 249.633 234.674 251.182C236.979 251.889 238.713 252.436 239.261 252.618C239.352 252.641 239.375 252.641 239.42 252.641C239.466 252.641 239.443 252.641 239.443 252.641C239.466 252.664 239.466 252.664 239.466 252.664C239.466 252.664 241.041 256.743 242.73 262.873C243.483 265.676 244.281 268.89 244.943 272.308C245.947 277.435 246.701 283.156 246.769 288.693C246.792 290.858 246.929 293.388 247.111 296.191C247.18 297.125 247.271 298.105 247.317 299.085C247.385 299.723 247.431 300.384 247.476 301.068C247.568 301.911 247.659 302.8 247.727 303.711C247.887 305.284 248.024 306.925 248.184 308.565C248.298 309.659 248.389 310.753 248.526 311.87C248.64 313.328 248.8 314.787 248.96 316.245C249.005 316.815 249.074 317.408 249.142 318Z" fill="#F36F21"/>
<path d="M249.142 318H234.126C233.874 317.43 233.669 316.838 233.464 316.245C229.333 304.531 229.47 291.405 230.428 282.152C231.136 274.928 232.323 270.074 232.323 270.074L245.011 272.33C246.016 277.458 246.769 283.178 246.837 288.716C246.86 290.881 246.997 293.41 247.179 296.213C247.248 297.148 247.339 298.128 247.385 299.108C247.453 299.746 247.499 300.407 247.545 301.09C247.636 301.933 247.727 302.822 247.796 303.734C247.955 305.306 248.092 306.947 248.252 308.588C248.366 309.682 248.458 310.776 248.594 311.892C248.709 313.351 248.868 314.809 249.028 316.268C249.005 316.815 249.074 317.407 249.142 318Z" fill="#93312C"/>
<path d="M218.837 234.705C221.188 239.172 229.906 243.046 233.557 244.482C233.512 244.254 233.466 244.026 233.443 243.798C232.85 240.471 232.348 237.622 232.348 237.622L221.69 232.312C219.294 232.267 217.856 232.859 218.837 234.705Z" fill="#FCA56B"/>
<path d="M235.746 237.851C235.746 237.851 219.954 242.773 217.033 232.905C214.111 223.038 210.118 217.021 220.068 213.466C230.018 209.911 233.099 213.102 234.879 216.155C236.682 219.209 239.786 236.324 235.746 237.851Z" fill="#FFB27D"/>
<path d="M234.286 215.198C234.286 215.198 233.282 226.684 230.909 226.182C228.535 225.681 226.367 225.316 226.732 228.78C227.075 232.244 230.384 236.232 223.058 236.848C215.732 237.463 205.189 218.594 207.22 215.016C212.994 204.715 242.685 202.618 234.286 215.198Z" fill="#292A66"/>
<path d="M267.583 318H241.841C241.59 317.453 241.361 316.838 241.088 316.245C237.505 307.448 233.42 293.228 230.407 282.152C227.942 273.105 226.208 266.132 226.025 265.949C226.025 265.949 227.463 256.013 235.108 253.734C237.368 253.073 240.061 256.948 242.731 262.873C249.212 277.07 255.625 303.005 255.739 305.261C255.853 306.719 260.509 311.459 265.644 316.245C266.305 316.838 266.944 317.407 267.583 318Z" fill="#F36F21"/>
<path d="M230.613 316.222C229.7 299.427 227.213 284.773 224.2 274.815C219.773 260.093 215.779 251.661 215.711 251.57C215.414 250.954 214.364 250.59 212.698 250.749C212.219 250.772 211.854 250.909 211.58 251.045V251.068C210.758 251.524 210.758 252.367 211.009 252.823C211.009 252.846 211.101 253.005 211.26 253.347C211.877 254.555 213.474 257.996 215.482 263.238C205.053 261.437 187.868 263.329 180.816 264.24C177.964 256.105 175.841 251.615 175.796 251.547C175.499 250.932 174.449 250.567 172.76 250.726C170.843 250.909 170.775 252.208 171.094 252.823C171.254 253.119 184.536 279.441 187.754 316.222C187.823 316.792 187.845 317.385 187.868 317.977H190.789C190.789 317.362 190.767 316.792 190.698 316.222C190.265 308.201 189.443 300.68 188.416 293.935C187.252 286.528 185.837 280.033 184.285 274.815C184.262 274.655 184.194 274.518 184.171 274.382C191.2 273.47 209.321 271.487 219.065 273.516C222.557 284.5 226.186 299.222 227.669 316.2C227.738 316.769 227.76 317.362 227.783 317.954H230.727C230.704 317.385 230.682 316.815 230.613 316.222ZM183.464 272.103C182.825 270.097 182.231 268.251 181.615 266.542C189.123 265.585 207.016 263.693 216.418 265.858C216.418 265.858 216.418 265.858 216.418 265.881C217.034 267.454 217.628 269.186 218.244 271.009C207.54 269.231 190.105 271.237 183.464 272.103Z" fill="#292A66"/>
<path d="M58.5373 270.325C58.5373 270.325 69.3775 286.756 72.0248 286.87C74.7406 287.006 76.4979 286.368 78.6887 287.781C80.2634 288.807 84.9875 293.798 83.5954 293.319C82.2032 292.84 79.6701 292.157 79.0082 291.997C78.0725 291.769 76.5891 291.541 75.585 291.222C74.946 291.017 72.6182 290.63 71.8423 290.493C68.4647 289.923 53.7676 278.369 53.7676 278.369L58.5373 270.325Z" fill="#F4A269"/>
<path d="M92.8611 295.689C91.0353 294.527 87.6121 293.433 83.3673 292.476C79.6017 291.587 75.1972 290.812 70.6329 290.106H70.61C66.5706 289.468 62.3943 288.898 58.5146 288.397C55.388 288.009 52.4441 287.667 49.8196 287.394C48.747 287.28 47.7428 287.189 46.83 287.052C42.471 286.619 39.6868 286.391 39.6868 286.391L30.6951 288.419C30.6951 288.419 30.5125 288.784 30.2615 289.445C28.5955 290.334 19.7179 295.188 17.8237 301.865V302.116C17.4586 303.301 17.3445 304.372 17.527 305.671C17.6183 306.24 17.7781 306.856 17.9835 307.494C18.1432 307.927 18.3258 308.337 18.554 308.793C19.0105 309.682 19.6723 310.434 20.5395 311.095C20.5623 311.095 20.5623 311.095 20.5623 311.095C22.137 312.439 24.3735 313.442 26.9752 314.217C30.5125 315.288 34.7573 315.926 39.1619 316.313C39.7096 316.382 40.2573 316.404 40.8051 316.427C42.7449 316.587 44.7075 316.678 46.6017 316.724C48.4959 316.792 50.3445 316.815 52.1017 316.815C53.4482 316.815 54.7262 316.815 55.9358 316.792C57.9441 316.769 59.7926 316.701 61.4129 316.632C61.4129 316.61 61.4129 316.541 61.4358 316.518C62.7822 316.518 64.1059 316.45 65.3839 316.427H82.8424H88.7076H102.72C99.3424 305.99 95.8051 297.535 92.8611 295.689Z" fill="#292A66"/>
<path d="M18.2117 236.825C18.2345 236.802 18.2345 236.779 18.2573 236.756C18.5768 236.392 18.9648 236.05 19.3984 235.754H19.4212C22.776 233.406 28.8009 232.905 28.8009 232.905C28.8009 232.905 29.4627 232.837 30.4897 232.791C31.2884 230.763 32.1785 227.732 32.4523 223.333L33.0457 223.493L43.0644 226.182C43.0644 226.182 42.6307 229.35 42.4025 232.358C42.3569 233.019 42.3341 233.657 42.3112 234.272C42.6079 234.386 42.859 234.477 43.11 234.591C43.11 234.591 48.8382 235.275 50.1847 236.711C51.5312 238.169 54.2469 247.855 54.9316 249.564L16.3859 250.202C16.3859 250.179 15.4274 240.129 18.2117 236.825Z" fill="#FFB27D"/>
<path d="M61.8691 272.49C60.477 271.373 54.9313 249.564 54.9313 249.564C54.2695 247.854 53.5392 238.443 50.1844 236.711C50.1844 236.711 47.6056 237.645 44.1595 238.602C40.3255 239.696 35.3732 240.79 31.7446 240.608C24.9438 240.243 19.5807 235.867 19.3981 235.753L19.3753 235.776L18.1886 236.847C17.4127 237.736 16.9334 239.149 16.6367 240.744C12.8255 248.014 6.59523 261.505 8.37531 269.071C10.1098 276.5 16.7736 279.235 20.6533 280.192H20.6761C20.8131 280.238 20.95 280.261 21.0869 280.283C19.9915 285.252 17.6637 292.202 16.3857 297.558C15.2902 302.138 14.9479 305.534 16.7508 305.716C21.3151 306.149 36.6969 296.874 41.8317 293.843C41.923 293.82 41.9915 293.752 42.0828 293.683C44.2052 292.43 47.2176 291.86 50.0703 291.382C53.7218 290.812 57.0994 290.379 58.1948 289.103C59.4956 287.553 55.7073 285.821 52.6263 284.066C51.0745 283.155 49.728 282.243 49.3172 281.332C48.9749 280.603 49.0205 279.03 49.2259 277.025C49.2487 276.66 49.3172 276.273 49.3857 275.84C49.6367 276.364 49.9334 276.911 50.2985 277.412C51.2114 278.779 52.3981 280.124 53.562 281.241C55.0226 282.608 56.4832 283.633 57.3732 283.861C57.9894 284.021 58.5828 283.953 59.199 283.702C60.8193 283.064 62.3255 281.309 63.5807 279.623C63.8546 279.19 64.1284 278.802 64.3795 278.438C65.2239 277.161 65.84 276.09 66.0454 275.862C66.7072 275.088 63.3068 273.606 61.8691 272.49Z" fill="#00A7D8"/>
<path d="M43.0636 226.182C43.0636 226.182 42.63 229.35 42.4018 232.358C36.742 231.811 34.0719 226.456 33.0449 223.493L43.0636 226.182Z" fill="#F4A269"/>
<path d="M47.3558 227.983C47.3558 227.983 34.1192 230.444 32.7043 222.194C31.2894 213.945 28.6421 208.703 37.0404 206.766C45.4387 204.852 47.6296 207.723 48.7707 210.367C49.8889 213.01 50.7562 227.14 47.3558 227.983Z" fill="#FFB27D"/>
<path d="M47.1943 203.689C47.1943 203.689 46.6466 196.761 36.6736 198.562C34.0263 199.04 32.2234 194.346 27.8873 196.009C18.5761 199.61 18.0284 194.847 15.3354 201.547C14.2172 204.35 7.05118 207.609 9.24205 212.44C11.4329 217.272 7.78147 220.53 10.3375 224.313C11.6611 226.273 11.1362 229.783 17.4122 229.897C20.5387 229.965 25.3997 235.731 28.9142 236.802C32.4288 237.85 42.9495 236.346 42.5616 231.538C42.2421 227.8 39.0927 224.541 41.7856 220.211C44.1362 216.451 49.2026 216.223 51.4391 210.116C53.0595 205.649 47.0574 207.427 47.1943 203.689Z" fill="#43B052"/>
<path d="M66.0447 275.84C55.7065 274.131 56.0717 269.003 52.6256 254.464C50.6401 246.123 46.9431 241.223 44.1816 238.58C47.6277 237.645 50.2065 236.688 50.2065 236.688C53.5613 238.42 54.2916 247.832 54.9534 249.541C54.9534 249.541 60.4763 271.35 61.8912 272.467C63.3061 273.606 66.7065 275.088 66.0447 275.84Z" fill="#00A7D8"/>
<path d="M83.4364 314.216H16.2725C16.1812 314.011 16.1128 313.761 16.0215 313.51V313.487C16.3182 313.1 16.9115 312.598 18.007 312.052C20.2891 310.935 24.8991 309.681 34.2331 309.021C36.675 308.838 39.4364 308.724 42.5402 308.633C44.7538 308.565 46.8991 308.542 48.8617 308.542H51.0754C55.6626 308.542 59.5879 308.702 62.9655 308.907C63.6958 308.975 64.4032 308.998 65.0651 309.066C71.1128 309.545 75.1522 310.32 77.8908 311.14C78.0962 311.208 78.3472 311.254 78.5298 311.322C79.1688 311.527 79.7165 311.71 80.1958 311.938C80.4468 312.029 80.6522 312.143 80.8576 312.234C81.565 312.53 82.0671 312.872 82.4323 313.145C82.5464 313.237 82.6377 313.305 82.7061 313.396C82.7746 313.419 82.8202 313.487 82.8887 313.556C82.9572 313.624 83.0028 313.647 83.0485 313.715C83.368 314.011 83.4364 314.216 83.4364 314.216Z" fill="#163560"/>
<path d="M61.459 316.314C61.459 316.314 61.459 316.382 61.459 316.427V316.519C61.4362 316.541 61.4362 316.61 61.4362 316.633C59.8158 316.701 57.9673 316.746 55.959 316.792V316.519C55.959 316.496 55.9818 316.45 55.9818 316.427V316.314C56.0046 315.858 56.0731 315.607 56.0959 315.561C56.347 315.22 58.0129 315.22 59.0399 315.265H59.7474C60.3635 315.288 61.4818 315.767 61.459 316.314Z" fill="#163560"/>
<path d="M80.1276 316.451H74.6504V316.337C74.6504 316.177 74.6732 316.04 74.6732 315.949C74.696 315.744 74.7417 315.607 74.7645 315.585C75.0612 315.129 77.7769 315.288 78.4159 315.288H78.4388C78.7354 315.288 79.1691 315.448 79.5114 315.63C79.8765 315.812 80.1504 316.086 80.1276 316.359C80.1276 316.314 80.1276 316.382 80.1276 316.451Z" fill="#163560"/>
<path d="M84.8751 315.265C84.8751 315.561 84.761 315.812 84.5784 316.017C84.4643 316.131 84.3046 316.222 84.122 316.268C84.0307 316.336 83.9394 316.336 83.8481 316.336H21.3855C21.3855 316.313 21.3855 316.313 21.3855 316.268H16.8896C16.8896 316.268 16.7983 316.017 16.6386 315.539C16.6386 315.47 16.6158 315.425 16.5701 315.356C16.5017 315.06 16.3875 314.695 16.2734 314.24H83.8253C84.373 314.217 84.8751 314.673 84.8751 315.265Z" fill="#163560"/>
<path d="M32.2949 314.217H83.4381C83.4381 314.217 81.8634 307.676 42.5646 308.656C39.4381 308.725 36.6767 308.861 34.2348 309.044C34.3489 309.841 34.5543 312.508 32.2949 314.217Z" fill="#292A66"/>
<path d="M53.1987 315.265C53.1987 315.561 53.0846 315.812 52.8564 316.017C52.7423 316.131 52.5826 316.222 52.4 316.268C52.3087 316.336 52.2174 316.336 52.1261 316.336H21.3855C21.3855 316.313 21.3855 316.313 21.3855 316.268H16.8896C16.8896 316.268 16.7983 316.017 16.6386 315.539C16.6386 315.47 16.6158 315.425 16.5701 315.356C16.5017 315.06 16.3875 314.695 16.2734 314.24H52.1261C52.6967 314.217 53.1987 314.673 53.1987 315.265Z" fill="#163560"/>
<path d="M18.0072 312.075C18.0072 312.781 18.0072 313.51 17.9843 314.24V314.445C17.9843 314.809 17.7333 315.151 17.3682 315.288H17.3453C17.254 315.311 17.1399 315.356 17.003 315.379H16.9802C16.9574 315.379 16.9117 315.402 16.8889 315.402H16.8661C16.7748 315.402 16.6835 315.379 16.5922 315.334C16.5238 315.037 16.4097 314.673 16.2955 314.217C16.2043 314.012 16.1358 313.761 16.0445 313.51V313.488C15.976 313.214 15.8848 312.918 15.7935 312.576V312.553C15.7935 309.659 15.7022 306.879 15.5881 304.121C15.3827 299.928 14.9719 295.872 14.4698 291.997C13.2603 282.699 11.2976 274.427 9.33496 267.567C8.17106 263.671 7.02999 260.229 5.98019 257.267C4.79347 254.008 3.69804 251.433 2.89928 249.587C2.89928 249.564 2.87646 249.564 2.87646 249.518C2.78517 248.903 2.71671 248.265 2.67106 247.673C2.67106 247.581 2.64824 247.513 2.64824 247.422V247.399C2.53414 246.488 2.44285 245.599 2.35156 244.664C2.46567 244.596 2.62542 244.573 2.80799 244.573C4.20011 244.459 5.09015 244.756 5.34119 245.234C5.36401 245.257 7.14409 249.04 9.51754 255.763C9.72293 256.378 9.95115 256.971 10.1794 257.654C10.6358 259.09 11.1607 260.64 11.6628 262.303C11.8682 262.918 12.0507 263.557 12.2333 264.195C12.3018 264.286 12.3246 264.4 12.3474 264.537C12.6441 265.516 12.918 266.519 13.169 267.567C14.0819 270.917 14.8806 274.769 15.5653 278.985V279.076C16.4553 284.386 17.1171 290.334 17.5736 296.692C17.8702 301.592 18.0528 306.765 18.0072 312.075Z" fill="#163560"/>
<path d="M49.9794 315.402C49.3632 315.402 48.8611 314.947 48.8839 314.422C49.5001 276.091 34.6661 246.602 34.5063 246.306C34.2553 245.804 34.3009 244.71 35.8984 244.574C37.2906 244.46 38.1578 244.756 38.4088 245.257C38.4545 245.326 41.7636 252.345 45.4379 264.537C48.8383 275.772 51.3943 294.186 51.0748 314.445C51.0748 314.969 50.5727 315.402 49.9794 315.402Z" fill="#292A66"/>
<path d="M7.07552 258.065C6.55062 258.065 6.09419 257.723 5.98008 257.244C5.8888 256.72 6.27676 256.219 6.87013 256.128C7.82863 255.991 30.3307 252.618 40.4178 255.421C40.9884 255.581 41.3307 256.128 41.1481 256.652C40.9656 257.176 40.3494 257.449 39.756 257.29C30.1938 254.623 7.46349 258.019 7.23527 258.042C7.18963 258.065 7.12116 258.065 7.07552 258.065Z" fill="#292A66"/>
<path d="M9.65364 264.536C9.12875 264.536 8.67232 264.194 8.55821 263.716C8.46692 263.192 8.85489 262.69 9.44825 262.599C10.4068 262.463 32.9088 259.09 42.996 261.893C43.5665 262.052 43.9088 262.599 43.7263 263.123C43.5437 263.648 42.9275 263.921 42.3341 263.761C32.7491 261.095 10.0416 264.491 9.8134 264.514C9.76775 264.536 9.69929 264.536 9.65364 264.536Z" fill="#292A66"/>
<path d="M16.8897 316.268C16.8897 316.268 16.7984 316.018 16.6387 315.539C16.7071 315.471 16.7528 315.448 16.8441 315.425H16.8897C16.9125 315.425 16.9582 315.402 16.981 315.402H17.0038C17.1179 315.379 17.2549 315.334 17.3461 315.311H17.369C17.4602 315.311 17.5287 315.288 17.62 315.288C18.2362 315.288 20.9291 315.129 21.2715 315.585C21.2943 315.653 21.3399 315.858 21.3856 316.291H16.8897V316.268Z" fill="#163560"/>
<path d="M52.1261 316.838C50.3688 316.838 48.4974 316.815 46.6261 316.747C46.6261 316.633 46.6261 316.542 46.6032 316.451V316.337C46.6032 316.177 46.5804 316.063 46.5804 315.949V315.653C46.5576 315.106 47.6759 314.627 48.292 314.582H48.931C49.5472 314.559 50.4145 314.559 51.0991 314.605C51.5327 314.673 51.8522 314.719 51.9435 314.878C52.012 314.969 52.0576 315.448 52.1261 316.337V316.428C52.1261 316.428 52.1261 316.428 52.1261 316.451C52.1033 316.565 52.1261 316.678 52.1261 316.838Z" fill="#163560"/>
<path d="M439.819 316.952V317.225C439.819 317.658 439.59 317.977 439.317 317.977H2.64856C2.3747 317.977 2.14648 317.636 2.14648 317.225V316.952C2.14648 316.565 2.3747 316.223 2.64856 316.223H439.339C439.613 316.223 439.819 316.565 439.819 316.952Z" fill="#2E3552"/>
</g>
<defs>
<clipPath id="clip0">
<rect width="462" height="318" fill="white"/>
</clipPath>
</defs>
</svg>
