<svg width="143" height="94" viewBox="0 0 143 94" fill="none" xmlns="http://www.w3.org/2000/svg">
<g clip-path="url(#clip0)">
<path d="M98.6249 0.0566406H0.0429688V63.4532H98.6249V0.0566406Z" fill="#E6E6E6"/>
<path d="M95.8054 8.00732H2.86133V59.7018H95.8054V8.00732Z" fill="white"/>
<path d="M98.5819 0H0V4.20539H98.5819V0Z" fill="#43B052"/>
<path d="M3.11217 2.92948C3.54088 2.92948 3.88841 2.58051 3.88841 2.15004C3.88841 1.71957 3.54088 1.37061 3.11217 1.37061C2.68347 1.37061 2.33594 1.71957 2.33594 2.15004C2.33594 2.58051 2.68347 2.92948 3.11217 2.92948Z" fill="white"/>
<path d="M6.05749 2.92948C6.48619 2.92948 6.83372 2.58051 6.83372 2.15004C6.83372 1.71957 6.48619 1.37061 6.05749 1.37061C5.62878 1.37061 5.28125 1.71957 5.28125 2.15004C5.28125 2.58051 5.62878 2.92948 6.05749 2.92948Z" fill="white"/>
<path d="M9.00475 2.92948C9.43345 2.92948 9.78098 2.58051 9.78098 2.15004C9.78098 1.71957 9.43345 1.37061 9.00475 1.37061C8.57605 1.37061 8.22852 1.71957 8.22852 2.15004C8.22852 2.58051 8.57605 2.92948 9.00475 2.92948Z" fill="white"/>
<path d="M63.369 15.9438H10.7695V45.6531H63.369V15.9438Z" fill="#43B052"/>
<path d="M90.7376 15.9438H70.707V27.2575H90.7376V15.9438Z" fill="#E6E6E6"/>
<path d="M90.7376 30.8374H70.707V42.1511H90.7376V30.8374Z" fill="#E6E6E6"/>
<path d="M90.7376 45.7305H70.707V57.0442H90.7376V45.7305Z" fill="#E6E6E6"/>
<path d="M47.0081 50.6431H10.7695V53.0996H47.0081V50.6431Z" fill="#E6E6E6"/>
<path d="M43.9485 30.7992L32.4805 24.1509V37.4474L43.9485 30.7992L32.4805 24.1509V37.4474L43.9485 30.7992Z" fill="white"/>
<path d="M117.769 87.4939L118.24 89.8591L115.885 90.3322L116.238 87.3755L117.769 87.4939Z" fill="#FFB8B8"/>
<path d="M127.411 87.064L126.878 89.7423L124.684 89.7955L125.384 86.5283L127.411 87.064Z" fill="#FFB8B8"/>
<path d="M130.91 59.5483L131.522 63.6938C131.522 63.6938 130.91 72.9059 130.758 73.3665C130.605 73.8271 130.146 76.1302 130.146 76.1302L127.546 87.1847C127.546 87.1847 125.296 87.4918 124.838 86.2635L124.947 79.6615L124.794 72.1382L122.959 63.5402L119.748 75.2089C119.748 75.2089 119.595 79.0473 119.137 80.4292C118.678 81.811 118.066 87.7989 118.066 87.7989C118.066 87.7989 116.122 88.2595 115.969 87.7989C115.816 87.3383 115.008 76.4372 115.008 74.7484C115.008 73.0595 114.109 56.8657 114.109 56.8657L130.91 59.5483Z" fill="#2F2E41"/>
<path d="M125.388 89.5892C125.64 89.6412 125.9 89.6412 126.152 89.5892C126.439 89.4933 126.152 88.918 126.152 88.918H127.203C127.203 88.918 128.349 91.507 128.826 91.6988C129.304 91.8905 130.831 94.0001 129.017 94.0001C127.897 93.9857 126.805 93.6532 125.866 93.0412C125.866 93.0412 125.675 92.1782 124.815 92.0823C123.956 91.9864 123.383 90.9316 123.383 90.9316L124.316 89.2024C124.342 89.1536 124.381 89.1129 124.429 89.0844C124.476 89.056 124.531 89.041 124.586 89.0409C124.642 89.0408 124.696 89.0556 124.744 89.0838C124.791 89.112 124.831 89.1526 124.857 89.2013C124.987 89.4313 125.167 89.6336 125.388 89.5892Z" fill="#2F2E41"/>
<path d="M117.396 89.292C117.396 89.292 117.183 89.7198 116.97 89.5059C116.792 89.2788 116.648 89.0266 116.544 88.7573C116.544 88.7573 115.905 88.4365 115.798 88.7573C115.692 89.0781 115.266 90.7892 115.053 91.003C114.84 91.2169 112.603 93.4626 114.84 93.8904C117.076 94.3181 117.502 93.3557 117.502 93.3557C117.502 93.3557 117.183 92.821 117.822 92.6071C118.461 92.3932 118.567 91.6447 118.567 91.6447L118.246 89.2277C118.239 89.1762 118.217 89.1279 118.183 89.0891C118.148 89.0502 118.103 89.0225 118.053 89.0095C118.003 88.9965 117.95 88.9988 117.901 89.0161C117.852 89.0334 117.81 89.0648 117.779 89.1065C117.655 89.2682 117.518 89.3737 117.396 89.292Z" fill="#2F2E41"/>
<path d="M134.426 48.8013L134.884 56.7851C134.884 56.7851 137.025 61.8518 134.12 61.6983C131.215 61.5447 133.049 56.6316 133.049 56.6316L130.205 49.5061L134.426 48.8013Z" fill="#FFB8B8"/>
<path d="M110.879 46.498L110.42 54.4819C110.42 54.4819 108.279 59.5486 111.184 59.3951C114.09 59.2415 112.255 54.3284 112.255 54.3284L115.099 47.2029L110.879 46.498Z" fill="#FFB8B8"/>
<path d="M123.112 29.1484C125.308 29.1484 127.088 27.3612 127.088 25.1565C127.088 22.9518 125.308 21.1646 123.112 21.1646C120.917 21.1646 119.137 22.9518 119.137 25.1565C119.137 27.3612 120.917 29.1484 123.112 29.1484Z" fill="#FFB8B8"/>
<path d="M126.246 26.7686C126.246 26.7686 125.175 31.0676 127.316 32.1423C129.457 33.2171 120.588 34.7524 119.977 32.1423L120.282 30.914C120.282 30.914 121.506 29.3787 121.2 27.9968L126.246 26.7686Z" fill="#FFB8B8"/>
<path d="M123.876 32.2194C123.876 32.2194 121.238 32.4668 120.417 30.731C120.417 30.731 114.243 31.1446 112.867 36.8255C114.464 36.8713 116.445 55.1199 113.828 56.9387C111.703 58.415 117.494 60.689 125.558 60.7771L131.675 60.47C130.534 59.4835 127.805 46.6445 129.534 46.8053C129.534 46.8053 134.121 39.5891 133.662 38.5144C133.204 37.4396 132.469 33.2019 126.567 31.4823C126.567 31.4823 126.476 32.3729 123.876 32.2194Z" fill="#E6E6E6"/>
<path d="M131.674 35.9038L133.662 38.5139C133.662 38.5139 135.65 49.415 135.038 49.5685C134.427 49.722 130.757 50.9503 130.145 50.4897C129.534 50.0291 126.781 40.9705 126.781 40.9705L131.674 35.9038Z" fill="#E6E6E6"/>
<path d="M115.465 35.1357L112.865 36.8246C112.865 36.8246 109.043 47.5721 110.113 48.0327C111.183 48.4933 117.147 48.1863 117.147 48.1863L115.465 35.1357Z" fill="#E6E6E6"/>
<path d="M127.456 21.5838C127.456 21.5838 126.079 18.588 123.44 19.2794C120.8 19.9707 119.308 21.0077 119.194 22.0447C119.079 23.0818 119.251 24.6373 119.251 24.6373C119.251 24.6373 119.538 22.5056 121.374 22.9665C123.21 23.4274 126.079 23.0818 126.079 23.0818L126.538 27.2298C126.538 27.2298 127.054 26.4809 127.628 26.9418C128.202 27.4027 129.292 22.5056 127.456 21.5838Z" fill="#2F2E41"/>
<path d="M142.943 93.9148H103.533V93.5913H143.001L142.943 93.9148Z" fill="#3F3D56"/>
</g>
<defs>
<clipPath id="clip0">
<rect width="143" height="94" fill="white"/>
</clipPath>
</defs>
</svg>
