<svg width="118" height="99" viewBox="0 0 118 99" fill="none" xmlns="http://www.w3.org/2000/svg">
<g clip-path="url(#clip0)">
<path d="M110.455 0.0610352H1.80469V69.2845H110.455V0.0610352Z" fill="#E6E6E6"/>
<path d="M107.349 8.74316H4.91211V65.189H107.349V8.74316Z" fill="white"/>
<path d="M110.41 0H1.75977V4.59191H110.41V0Z" fill="#43B052"/>
<path d="M5.1895 3.19873C5.66198 3.19873 6.04501 2.81769 6.04501 2.34766C6.04501 1.87762 5.66198 1.49658 5.1895 1.49658C4.71701 1.49658 4.33398 1.87762 4.33398 2.34766C4.33398 2.81769 4.71701 3.19873 5.1895 3.19873Z" fill="white"/>
<path d="M8.43559 3.19873C8.90808 3.19873 9.2911 2.81769 9.2911 2.34766C9.2911 1.87762 8.90808 1.49658 8.43559 1.49658C7.9631 1.49658 7.58008 1.87762 7.58008 2.34766C7.58008 2.81769 7.9631 3.19873 8.43559 3.19873Z" fill="white"/>
<path d="M11.6836 3.19873C12.1561 3.19873 12.5392 2.81769 12.5392 2.34766C12.5392 1.87762 12.1561 1.49658 11.6836 1.49658C11.2112 1.49658 10.8281 1.87762 10.8281 2.34766C10.8281 2.81769 11.2112 3.19873 11.6836 3.19873Z" fill="white"/>
<path d="M116.2 89.1504L116.998 92.3277L113.485 93.2809L113.166 89.9448L116.2 89.1504Z" fill="#A0616A"/>
<path d="M103.425 93.1222V96.1405L99.9121 96.776L99.2734 95.1874L100.551 92.4868L103.425 93.1222Z" fill="#A0616A"/>
<path d="M110.453 60.2383L109.973 64.5275L110.293 72.7883C110.293 72.7883 110.293 73.5826 110.772 73.9003C111.029 74.0739 116.68 89.7863 116.68 89.7863C116.68 89.7863 115.403 91.375 113.008 90.8984L112.529 89.3098C112.529 89.3098 111.89 87.2446 111.57 86.768C111.251 86.2914 106.46 76.6009 106.46 76.6009L104.225 72.6294L103.586 78.0307C103.586 78.0307 104.863 84.8617 104.544 88.0389C104.225 91.2161 103.586 94.5522 103.586 94.5522L99.7534 93.9167C99.736 93.4041 99.5696 92.9074 99.2743 92.487C98.7953 91.8515 98.955 89.6275 98.955 89.6275V89.1509L97.9968 76.9186L96.2402 60.8737L110.453 60.2383Z" fill="#2F2E41"/>
<path d="M99.5929 31.3251C101.974 31.3251 103.904 29.4047 103.904 27.0358C103.904 24.6669 101.974 22.7466 99.5929 22.7466C97.2116 22.7466 95.2812 24.6669 95.2812 27.0358C95.2812 29.4047 97.2116 31.3251 99.5929 31.3251Z" fill="#A0616A"/>
<path d="M103.345 27.1157L105.101 31.4049L100.95 34.4234L98.3945 29.9751L103.345 27.1157Z" fill="#A0616A"/>
<path d="M103.586 30.3724L105.183 29.5781L106.141 31.8022C106.141 31.8022 112.369 33.7085 111.89 42.4458C111.411 51.1832 110.293 54.5192 110.293 54.5192C110.293 54.5192 113.008 60.2382 111.411 60.8737C109.814 61.5091 96.2407 63.892 95.9213 61.668C95.6019 59.4439 97.0391 46.4173 97.0391 46.4173C97.0391 46.4173 96.5601 37.0446 100.552 35.1382L99.7539 33.3908L103.586 30.3724Z" fill="#3F3D56"/>
<path d="M94.8029 61.1909C94.8029 61.1909 91.1301 65.0036 93.206 65.9568C95.282 66.9099 96.5595 61.6675 96.5595 61.6675L94.8029 61.1909Z" fill="#A0616A"/>
<path d="M102.308 95.3463L104.064 94.7109C104.064 94.7109 105.981 99.0001 104.384 99.0001H100.232C100.232 99.0001 97.8366 98.2058 96.5591 98.2058C95.2816 98.2058 92.8862 95.8229 94.6428 94.7109C96.3994 93.5988 98.635 93.9166 98.635 93.9166L99.2738 92.4868L100.072 94.7109C100.072 94.7109 101.03 96.2995 102.308 95.3463Z" fill="#2F2E41"/>
<path d="M115.243 91.8511C115.243 91.8511 116.243 91.2234 116.781 91.4578C117.319 91.6922 117.639 94.234 117.639 94.234C117.639 94.234 119.236 96.1403 115.722 96.4581C112.209 96.7758 111.411 96.1403 111.091 95.1872C110.772 94.234 111.411 93.2809 111.411 93.2809L112.369 92.9631C112.369 92.9631 113.487 92.1688 113.167 91.8511C112.848 91.5334 113.167 90.8979 113.167 90.8979C113.167 90.8979 114.285 93.122 115.243 91.8511Z" fill="#2F2E41"/>
<path d="M101.067 26.9676C101.049 26.8287 101.018 26.692 100.973 26.5594C100.741 26.0758 99.8372 26.2169 99.6761 25.7057C99.6446 25.6056 99.6512 25.4968 99.6203 25.3965C99.5415 25.1409 99.2393 25.0141 98.9708 25.0264C98.7044 25.0629 98.4432 25.1299 98.1923 25.2258C97.5606 25.4041 96.8885 25.336 96.2356 25.2665C95.9444 25.2568 95.6591 25.1829 95.4001 25.0502C95.1529 24.8989 94.9747 24.5942 95.0647 24.3197C95.151 24.0564 95.4406 23.9118 95.5708 23.667C95.7776 23.2784 95.5248 22.7765 95.6926 22.3697C95.9616 21.7171 96.9798 21.8482 97.4972 21.3658C97.6227 21.2488 97.7131 21.0991 97.8335 20.9767C98.1906 20.6136 98.7545 20.5434 99.2626 20.5935C99.7707 20.6435 100.27 20.792 100.781 20.783C101.265 20.7745 101.772 20.6278 102.218 20.8151C102.481 20.9487 102.711 21.1369 102.894 21.3671L104.038 22.6155C104.195 22.7629 104.316 22.9442 104.391 23.1454C104.46 23.3846 104.397 23.6415 104.426 23.8885C104.493 24.4521 105.024 24.8777 105.095 25.4407C105.11 25.6153 105.101 25.791 105.07 25.9634L104.91 27.1391C104.902 27.2537 104.871 27.3656 104.819 27.4685C104.773 27.5477 104.702 27.6103 104.65 27.6858C104.502 27.899 104.515 28.1808 104.442 28.4294C104.368 28.678 104.104 28.924 103.873 28.8042C103.722 28.726 103.623 28.0796 103.44 27.9118C103.185 27.678 103.051 27.7068 102.737 27.7108C102.107 27.7187 101.269 27.7724 101.067 26.9676Z" fill="#2F2E41"/>
<path d="M101.829 36.2502C101.829 36.2502 106.619 38.1565 105.182 42.4458C103.745 46.735 99.9124 59.9204 99.9124 59.9204L97.6768 61.0324L97.038 62.7799L94.0039 61.6679L94.483 59.285L95.6008 56.9021L98.4752 39.1097C98.4752 39.1097 98.4752 36.0913 101.829 36.2502Z" fill="#3F3D56"/>
<path opacity="0.1" d="M105.421 43.3193L100.47 60.1586L98.3945 62.2239L99.5922 60.0791L105.421 43.3193Z" fill="black"/>
<path d="M7.95392 46.043L8.88733 52.6461L12.8284 59.6619C13.9692 60.6936 12.9321 63.1698 12.9321 63.1698L11.895 62.4475L11.6875 61.2095C11.6875 61.2095 7.12424 56.0508 5.98341 54.8127C4.84258 53.5746 4.42773 46.7652 4.42773 46.7652L7.95392 46.043Z" fill="#FBBEBE"/>
<path d="M4.51954 90.8221C4.51954 90.8221 4.72696 93.1951 4.62325 93.8141C4.51954 94.4331 1.4082 93.7109 1.4082 93.7109C1.92676 92.6792 2.23789 89.584 2.23789 89.584L4.51954 90.8221Z" fill="#FBBEBE"/>
<path d="M19.9725 91.4409C19.9725 91.4409 20.2836 94.7424 20.1799 95.3614C20.0762 95.9805 16.9648 95.2583 16.9648 95.2583C17.4834 94.2265 17.7945 91.1313 17.7945 91.1313L19.9725 91.4409Z" fill="#FBBEBE"/>
<path d="M13.618 38.5128C15.7014 38.5128 17.3903 36.8326 17.3903 34.7601C17.3903 32.6875 15.7014 31.0073 13.618 31.0073C11.5346 31.0073 9.8457 32.6875 9.8457 34.7601C9.8457 36.8326 11.5346 38.5128 13.618 38.5128Z" fill="#FBBEBE"/>
<path d="M14.2675 38.3062C13.6452 39.1316 13.9564 40.576 13.9564 40.576C13.9564 40.576 7.62998 47.9013 6.48917 47.9013C5.34836 47.9013 5.55576 42.7426 5.55576 42.7426C5.55576 42.7426 7.21514 40.7824 8.14855 40.3697C9.08196 39.957 10.7413 35.5205 10.7413 35.5205C10.7413 35.5205 14.8898 37.4808 14.2675 38.3062Z" fill="#FBBEBE"/>
<path d="M18.5206 52.3384L22.5803 59.1224C23.3212 60.3351 21.9431 66.4731 21.9431 66.4731L21.3208 79.5762L20.2837 92.7791V94.2235L16.8613 94.1203L15.7204 79.9889L14.061 69.362L11.3646 77.5127L6.90497 87.5205C6.52419 88.755 6.05626 89.9611 5.50466 91.13L4.67497 92.5744L1.56445 92.2127L6.28269 76.3778L7.2161 66.0604C7.31982 60.2827 9.18662 57.0844 9.18662 57.0844V55.8463L18.5206 52.3384Z" fill="#2F2E41"/>
<path d="M4.31198 93.2982C4.31198 93.2982 4.83054 92.4728 4.83054 92.7823C4.83054 93.0919 6.17879 93.9173 6.17879 93.9173C6.17879 93.9173 7.52704 93.7109 7.73446 95.2585C7.94188 96.8061 5.86765 97.1156 5.3491 97.0125C4.83054 96.9093 3.48229 97.1156 3.48229 97.1156C3.48229 97.1156 2.44518 97.322 0.785798 97.1156C-0.873583 96.9093 0.578376 94.1236 0.785798 93.6077C0.993221 93.0919 2.03033 93.5046 2.03033 93.5046C3.89714 94.0204 4.31198 93.2982 4.31198 93.2982Z" fill="#2F2E41"/>
<path d="M19.8686 94.8451C19.8686 94.8451 20.3872 94.0197 20.3872 94.3292C20.3872 94.6387 21.7354 95.4641 21.7354 95.4641C21.7354 95.4641 23.0837 95.2578 23.2911 96.8054C23.4985 98.353 21.4243 98.6625 20.9057 98.5593C20.3872 98.4562 19.0389 98.6625 19.0389 98.6625C19.0389 98.6625 18.0018 98.8688 16.3424 98.6625C14.6831 98.4562 16.135 95.6705 16.3424 95.1546C16.5499 94.6387 17.587 95.0514 17.587 95.0514C19.4538 95.5673 19.8686 94.8451 19.8686 94.8451Z" fill="#2F2E41"/>
<path d="M12.7116 40.4727C15.3043 37.7902 18.1046 44.4965 18.1046 44.4965C18.1046 44.4965 19.038 46.9727 18.312 48.3139C17.586 49.6552 19.038 52.6472 19.038 52.6472C15.4863 55.655 11.947 58.4358 8.66683 56.4646C9.08166 53.9885 7.73342 52.7504 6.80001 50.3774C5.8666 48.0044 4.10352 48.5203 4.10352 48.5203C4.10352 48.5203 4.20723 45.8378 4.51836 43.6711C4.8295 41.5045 7.62971 40.6909 7.62971 40.6909C8.13736 41.5981 10.1188 43.1552 12.7116 40.4727Z" fill="#3F3D56"/>
<path d="M17.2762 44.8066L18.2096 51.4097L22.1506 58.4255C23.2915 59.4573 22.2543 61.9334 22.2543 61.9334L21.2172 61.2112L21.0098 59.9731C21.0098 59.9731 16.4465 54.8144 15.3057 53.5764C14.1648 52.3383 13.75 45.5289 13.75 45.5289L17.2762 44.8066Z" fill="#FBBEBE"/>
<path d="M17.8982 45.8384L13.5423 46.3543C13.5423 46.3543 13.2311 41.2988 13.8889 40.0362C14.5467 38.7736 16.9648 40.1639 16.9648 40.1639C17.587 40.267 17.8982 45.8384 17.8982 45.8384Z" fill="#3F3D56"/>
<path d="M17.8393 32.5873C15.0497 33.9743 16.6592 37.7614 16.3299 39.3504C15.7907 41.9531 7.8383 40.6304 7.8383 40.6304C6.87077 40.4573 6.28111 29.7487 11.5798 29.8434C14.2506 29.8911 20.2287 31.3992 17.8393 32.5873Z" fill="#2F2E41"/>
<path d="M16.1384 35.88C16.3529 35.88 16.5268 35.6032 16.5268 35.2618C16.5268 34.9203 16.3529 34.6436 16.1384 34.6436C15.9239 34.6436 15.75 34.9203 15.75 35.2618C15.75 35.6032 15.9239 35.88 16.1384 35.88Z" fill="#FBBEBE"/>
<path d="M31.4109 22.0342C35.5109 22.7869 39.6932 22.0342 43.7761 21.5242L56.1847 19.9786C56.6865 19.9153 57.4167 19.617 57.7119 20.2275C57.8782 20.569 57.7663 21.3094 57.7787 21.7019C57.8114 22.7838 57.8083 23.8657 57.7787 24.9476C57.7228 27.0155 57.5706 29.0788 57.3764 31.1375C56.9988 35.1668 56.4644 39.1744 56.1972 43.2191C56.0604 45.2777 55.9921 47.3426 56.0527 49.4013C56.0667 49.8928 56.0868 50.3842 56.1164 50.8742C56.149 51.4228 56.396 52.2374 55.7948 52.6036C55.4514 52.8138 54.7756 52.803 54.3825 52.8648C53.7611 52.9622 53.1397 53.0395 52.5058 53.1029C48.3281 53.5186 44.0961 53.3455 39.9029 53.3208L27.241 53.2559L24.1524 53.2389C23.8728 53.2389 22.8645 53.4058 22.6921 53.075C22.619 52.9344 22.8132 52.276 22.8474 52.0998C22.8951 51.8092 22.9468 51.5192 23.0028 51.2297C23.3632 49.1973 23.7889 47.1772 24.2177 45.1587C25.139 40.8312 26.082 36.482 26.4611 32.0617C26.6491 29.8439 26.5248 27.6059 26.7547 25.3927C26.8619 24.3649 26.9893 22.0713 28.3643 21.9801C29.5295 21.9028 30.7289 21.9801 31.8972 21.9801C31.959 21.9801 32.0183 21.9557 32.062 21.9122C32.1057 21.8687 32.1302 21.8098 32.1302 21.7483C32.1302 21.6868 32.1057 21.6278 32.062 21.5844C32.0183 21.5409 31.959 21.5165 31.8972 21.5165C30.7941 21.5165 29.6895 21.4871 28.5864 21.5087C27.8531 21.5226 27.3436 21.6957 26.994 22.3665C26.1007 24.0883 26.1923 26.3849 26.1644 28.2643C26.0976 32.7634 25.4031 37.1667 24.4989 41.5669C24.0437 43.7816 23.5528 45.9887 23.1007 48.205C22.8878 49.2637 22.6843 50.3255 22.4979 51.3904C22.4108 51.8973 21.9712 53.0148 22.358 53.48C22.7449 53.9452 23.9349 53.6948 24.4678 53.6979L28.1747 53.7195L35.2778 53.7597C39.8672 53.786 44.4721 53.9143 49.0599 53.7798C51.2505 53.7149 53.5653 53.6253 55.6984 53.1044C56.3339 52.9498 56.6399 52.6593 56.6648 51.9854C56.7021 50.9406 56.5312 49.8634 56.5094 48.814C56.3541 39.8343 58.4748 30.9799 58.2572 21.9971C58.2433 21.3866 58.4748 19.8473 57.8036 19.4779C57.5022 19.311 57.1107 19.4021 56.7937 19.4392C56.1878 19.5088 55.5835 19.5938 54.9776 19.6649L47.1086 20.6417C44.5933 20.9508 42.0795 21.2846 39.5596 21.569C36.892 21.8781 34.1981 22.062 31.5399 21.569C31.2462 21.5149 31.1204 21.9616 31.4156 22.0157L31.4109 22.0342Z" fill="#E6E6E6"/>
<path d="M26.4626 27.4982L57.5068 25.9836C57.8066 25.9681 57.8082 25.5045 57.5068 25.5199L26.4626 27.0345C26.1643 27.0485 26.1627 27.5121 26.4626 27.4982Z" fill="#E6E6E6"/>
<path d="M36.0282 23.6762C35.9414 23.7677 35.8784 23.8789 35.8446 24.0002C35.8108 24.1215 35.8073 24.2492 35.8344 24.3721C35.8615 24.495 35.9184 24.6095 36.0001 24.7056C36.0818 24.8017 36.1859 24.8764 36.3032 24.9234C36.7211 25.1135 37.2121 24.9543 37.6269 24.8508C38.2483 24.6962 38.8698 24.5587 39.5083 24.4459C40.8981 24.2011 42.3057 24.0708 43.717 24.0564C44.3602 24.0486 44.9988 24.078 45.6419 24.1058C46.108 24.1244 46.6098 24.1615 47.0045 23.874C47.455 23.5463 47.601 22.9065 47.1598 22.5077C46.5384 21.9436 45.1992 22.2713 44.4814 22.33C41.8769 22.5452 39.2893 22.9293 36.7351 23.4799C36.443 23.5417 36.5658 23.9899 36.8594 23.9265C38.5446 23.5649 40.2426 23.2743 41.9537 23.0549C42.7947 22.9518 43.6373 22.8648 44.4814 22.7937C44.8791 22.7612 45.2768 22.7318 45.6746 22.7087C45.8299 22.6994 45.9946 22.6824 46.1531 22.687C46.6456 22.6978 46.7031 22.6097 46.4079 23.2017C46.1453 23.7256 46.2292 23.6654 45.774 23.6483C45.5814 23.6483 45.3887 23.6267 45.1961 23.6174C44.8014 23.601 44.4068 23.5922 44.0122 23.5912C43.1722 23.5912 42.3343 23.6313 41.4985 23.7117C40.79 23.7797 40.0831 23.8755 39.3825 23.9992C38.9443 24.0765 38.5093 24.1661 38.0759 24.265C37.8848 24.3098 37.6921 24.3562 37.501 24.4041C37.4094 24.4288 37.3162 24.4505 37.2245 24.4737C36.8848 24.5911 36.5953 24.4366 36.356 24.01C36.5642 23.7952 36.2364 23.466 36.0267 23.6824L36.0282 23.6762Z" fill="#E6E6E6"/>
<path d="M41.6566 30.2721C39.4085 30.1855 36.9802 30.7898 35.4996 32.5904C34.3406 33.9984 33.6803 36.4141 34.9077 37.9998C36.2267 39.6999 39.1195 39.4001 40.8642 38.6752C42.7099 37.9024 44.7296 36.309 45.2842 34.3152C45.9756 31.8253 43.7306 29.9429 41.3925 29.915C41.3321 29.9172 41.275 29.9426 41.2331 29.9859C41.1912 30.0291 41.1678 30.0868 41.1678 30.1469C41.1678 30.2069 41.1912 30.2647 41.2331 30.3079C41.275 30.3511 41.3321 30.3765 41.3925 30.3787C42.7255 30.3942 44.0336 30.9629 44.655 32.1978C45.306 33.4992 44.7451 34.8654 43.8782 35.9071C42.4893 37.5655 40.3174 38.8159 38.105 38.7803C36.7767 38.7602 35.3085 38.3074 34.8968 36.9133C34.5581 35.7835 34.816 34.5486 35.4064 33.5471C36.6835 31.3833 39.2827 30.6507 41.6659 30.7435C41.9657 30.7543 41.9657 30.2906 41.6659 30.2798L41.6566 30.2721Z" fill="#E6E6E6"/>
<path d="M39.4219 33.7061C39.3261 33.6708 39.2228 33.6601 39.1217 33.6752C39.0206 33.6902 38.925 33.7305 38.8437 33.7922C38.7625 33.8539 38.6982 33.935 38.657 34.0281C38.6157 34.1211 38.5988 34.223 38.6078 34.3243C38.6544 34.9271 39.3225 35.0971 39.8243 35.0615C40.2577 35.0245 40.7642 34.8653 40.612 34.3259C40.584 34.2304 40.5356 34.1421 40.4702 34.0668C40.4048 33.9916 40.3238 33.9313 40.2329 33.89C40.0939 33.8351 39.9431 33.8165 39.7948 33.8359C39.7373 33.8359 39.2106 34.0276 39.4343 33.7973L39.0677 33.7494C39.1084 33.7893 39.1395 33.8378 39.1589 33.8913C39.1783 33.9448 39.1853 34.0019 39.1795 34.0585C39.1802 34.0989 39.1915 34.1384 39.2121 34.1732C39.2328 34.208 39.2622 34.2368 39.2974 34.2569C39.3327 34.277 39.3725 34.2877 39.4131 34.2878C39.4537 34.288 39.4937 34.2777 39.5291 34.2579C39.5824 34.2357 39.6409 34.2287 39.6979 34.2377C39.755 34.2468 39.8084 34.2715 39.8522 34.309C39.8959 34.3466 39.9282 34.3956 39.9455 34.4504C39.9628 34.5053 39.9644 34.5638 39.9501 34.6195C39.9376 34.6731 39.9445 34.7293 39.9696 34.7783C39.9946 34.8272 40.0363 34.8659 40.0872 34.8873C40.1381 34.9087 40.1949 34.9116 40.2477 34.8954C40.3005 34.8792 40.3459 34.845 40.3758 34.7988C40.5312 34.5206 40.7192 33.9673 40.4861 33.6767C40.3308 33.4804 40.0309 33.5392 39.8445 33.6535C39.7294 33.7346 39.6223 33.8261 39.5244 33.9271C39.3365 34.0925 39.2137 34.1698 39.2836 33.8529C39.4002 33.2764 39.9532 32.8174 40.4582 32.5871L40.1164 32.3259C39.9372 32.9958 39.6168 33.6201 39.1764 34.1574L39.5742 34.3212C39.5629 34.109 39.6177 33.8985 39.7311 33.7184C39.8446 33.5384 40.0111 33.3975 40.208 33.3151H39.9797L40.1008 33.5129C40.0558 33.805 40.5048 33.9302 40.5498 33.635C40.6089 33.2533 40.3665 32.7571 39.9175 32.9441C39.3815 33.1667 39.1034 33.7772 39.1143 34.3212C39.1143 34.5067 39.3784 34.6504 39.5136 34.4866C40.0077 33.8895 40.3683 33.1945 40.5716 32.448C40.5824 32.4037 40.58 32.3573 40.5647 32.3143C40.5494 32.2713 40.5219 32.2337 40.4855 32.206C40.4491 32.1783 40.4054 32.1618 40.3597 32.1584C40.3141 32.155 40.2684 32.1648 40.2282 32.1868C39.7628 32.3961 39.3695 32.7369 39.0972 33.1667C38.9077 33.4758 38.67 33.958 38.8626 34.3135C38.894 34.37 38.9362 34.4198 38.9869 34.4601C39.0376 34.5003 39.0958 34.5302 39.1582 34.5481C39.2205 34.566 39.2858 34.5715 39.3503 34.5643C39.4147 34.5571 39.4771 34.5373 39.5339 34.5061L39.5384 34.5036C39.6821 34.4189 39.8133 34.3149 39.9284 34.1945C39.9859 34.1435 40.0496 34.0554 40.1257 34.0399C40.1941 33.9936 40.1909 34.0198 40.1148 34.1219C40.1138 34.282 40.0669 34.4386 39.9797 34.5732L40.4053 34.7509C40.4437 34.6066 40.4392 34.4543 40.3924 34.3125C40.3457 34.1706 40.2586 34.0453 40.1418 33.9517C40.025 33.858 39.8834 33.8 39.7341 33.7847C39.5848 33.7693 39.4343 33.7973 39.3007 33.8653L39.6518 34.0662C39.6592 33.8695 39.5971 33.6765 39.4763 33.5206C39.4579 33.4906 39.4331 33.465 39.4035 33.4458C39.3739 33.4266 39.3403 33.4142 39.3053 33.4096C39.2702 33.405 39.2346 33.4083 39.201 33.4192C39.1674 33.4301 39.1367 33.4484 39.1112 33.4727C38.875 33.7185 38.83 34.1435 39.1267 34.3707C39.3489 34.5392 39.4576 34.3707 39.7016 34.332C40.5296 34.2254 40.0465 34.5963 39.7544 34.6087C39.6238 34.6226 39.4917 34.6132 39.3644 34.5809C39.0402 34.4717 39.02 34.331 39.3038 34.1589C39.5819 34.2718 39.7016 33.8236 39.4281 33.7123L39.4219 33.7061Z" fill="#E6E6E6"/>
<path d="M39.0476 34.5534C39.2387 35.1716 38.4494 35.3756 38.075 35.5889C37.8123 35.7355 37.5832 35.935 37.4023 36.1747C37.0108 36.6971 36.8648 37.3617 36.7358 37.9876C36.6768 38.2797 37.1258 38.4034 37.1864 38.1113C37.2574 37.6513 37.3896 37.2028 37.5794 36.7774C37.8591 36.2241 38.2599 36.0387 38.7819 35.7543C39.3039 35.4699 39.6814 35.0294 39.4966 34.4298C39.4096 34.1454 38.959 34.2675 39.0476 34.5534Z" fill="#E6E6E6"/>
<path d="M39.8245 34.2427C39.7133 34.258 39.6119 34.314 39.5401 34.3997C39.4682 34.4855 39.4312 34.5948 39.4361 34.7063C39.4361 34.8903 39.5588 35.0077 39.6427 35.1546C39.8419 35.455 39.9938 35.7838 40.0933 36.1298C40.1678 36.4621 40.2409 37.0571 40.0669 37.3662C39.7453 37.9396 39.1642 37.8299 38.6686 37.8299C38.2025 37.8299 37.8421 37.9845 37.8576 37.3384C37.867 36.9752 38.1217 36.6074 38.3237 36.3214L37.898 36.2658C37.9878 36.7377 38.0351 37.2167 38.0394 37.697C38.0394 37.9118 38.3703 38.0308 38.4729 37.8129C38.7226 37.2902 38.9209 36.7446 39.0648 36.1839L38.6065 36.1221L38.6873 37.2967C38.6886 37.3468 38.7061 37.3952 38.7373 37.4346C38.7684 37.4741 38.8115 37.5025 38.8601 37.5156C38.9087 37.5288 38.9604 37.5261 39.0073 37.5078C39.0542 37.4895 39.094 37.4567 39.1207 37.4141C39.1751 37.3544 39.215 37.283 39.2372 37.2055C39.2528 37.1329 39.1098 36.6429 39.0524 36.8176L39.5091 36.8794L39.5417 35.7635L39.0757 35.8253C39.1742 36.14 39.2038 36.472 39.1627 36.799C39.1331 37.0571 39.5697 37.1159 39.6287 36.8608L39.9208 35.3617L39.4951 35.4157C39.5963 35.6231 39.6242 35.8583 39.5744 36.0834C39.5402 36.3802 40.0063 36.3771 40.0404 36.0834C40.08 35.7757 40.0304 35.4631 39.8975 35.1824C39.8739 35.1437 39.8395 35.1127 39.7984 35.0931C39.7574 35.0735 39.7116 35.0662 39.6664 35.0721C39.6213 35.078 39.5789 35.0968 39.5443 35.1263C39.5098 35.1557 39.4846 35.1946 39.4718 35.238L39.1782 36.7372L39.6365 36.799C39.6831 36.4306 39.6476 36.0565 39.5324 35.7032C39.5169 35.65 39.4826 35.6041 39.436 35.5738C39.3893 35.5435 39.3332 35.5309 39.278 35.5382C39.2228 35.5455 39.172 35.5722 39.1349 35.6135C39.0977 35.6549 39.0767 35.7081 39.0757 35.7635L39.043 36.8794C39.0443 36.9348 39.0654 36.988 39.1025 37.0294C39.1397 37.0707 39.1904 37.0975 39.2457 37.105C39.3009 37.1124 39.357 37.1 39.4039 37.07C39.4507 37.04 39.4853 36.9943 39.5013 36.9412L39.5262 36.8655C39.537 36.826 39.5372 36.7844 39.5268 36.7449C39.5165 36.7053 39.4959 36.6691 39.4672 36.6398C38.984 36.1174 38.8861 36.9489 38.7183 37.1792L39.1533 37.2967L39.0726 36.1221C39.0555 35.8717 38.6826 35.7944 38.6142 36.0602C38.4829 36.583 38.3008 37.0918 38.0705 37.5795L38.5055 37.697C38.5005 37.1751 38.4485 36.6548 38.3501 36.1422C38.3097 35.9289 38.0285 35.9381 37.9244 36.0865C37.6137 36.5316 37.0762 37.5038 37.491 38.037C37.853 38.5007 38.9918 38.3214 39.478 38.292C40.2455 38.2487 40.5236 37.765 40.6075 37.0448C40.6475 36.6999 40.628 36.3507 40.55 36.0123C40.5081 35.83 40.0839 34.6739 39.9565 34.6971C40.2517 34.643 40.1259 34.1948 39.8323 34.2489L39.8245 34.2427Z" fill="#E6E6E6"/>
<path d="M38.9219 35.2844L37.6495 36.9551L38.0519 37.1885L38.9841 35.847L38.5584 35.6677L38.0939 37.4311C38.0814 37.4847 38.0882 37.5409 38.1133 37.5899C38.1384 37.6389 38.18 37.6775 38.2309 37.6989C38.2818 37.7203 38.3386 37.7232 38.3914 37.707C38.4443 37.6908 38.4896 37.6566 38.5196 37.6104C38.7309 37.262 38.9683 36.9298 39.2296 36.6166L38.8412 36.391C38.7368 36.7903 38.5357 37.158 38.2554 37.462L38.6454 37.6877C38.6693 37.4741 38.7264 37.2656 38.8147 37.0695C38.9344 36.8021 38.5553 36.5656 38.4124 36.8346C38.2809 37.0795 38.1308 37.3141 37.9634 37.5362L38.3891 37.5919L38.4838 37.1514L38.0581 37.0958L38.1265 37.4821C38.1377 37.521 38.1589 37.5563 38.188 37.5846C38.217 37.6129 38.253 37.6331 38.2923 37.6434C38.3316 37.6537 38.373 37.6537 38.4123 37.6433C38.4516 37.6329 38.4875 37.6125 38.5164 37.5841C38.9105 37.1785 39.2264 36.7044 39.4486 36.1854H39.0478C39.1532 36.3787 39.2271 36.5874 39.2668 36.8036C39.3228 37.0818 39.6941 36.9783 39.7236 36.7418C39.7903 36.2241 39.8246 35.7028 39.8261 35.1808H39.3601V36.153C39.3601 36.4049 39.7749 36.4791 39.8184 36.2148C39.8491 35.9803 39.9268 35.7544 40.0468 35.5502H39.6382C39.7366 35.7082 39.7903 35.8898 39.7935 36.0757C39.7935 36.1372 39.8181 36.1961 39.8618 36.2396C39.9055 36.2831 39.9647 36.3075 40.0266 36.3075C40.0884 36.3075 40.1476 36.2831 40.1913 36.2396C40.235 36.1961 40.2596 36.1372 40.2596 36.0757L40.3186 35.7666H39.8696C39.9147 36.0401 40.0856 37.5811 39.4781 37.4002C39.3756 37.3755 39.3461 37.3817 39.3896 37.4172L39.5278 37.1236L39.8526 36.4389L39.4175 36.3214C39.4455 36.6398 39.475 37.0942 39.2824 37.3662C39.127 37.5872 38.6485 37.6753 38.4046 37.5455C38.2436 37.4313 38.1059 37.2876 37.9991 37.122L37.6806 37.4311C37.9385 37.6181 38.3564 38.0772 38.6889 38.1034C38.9421 38.1235 39.155 37.9149 39.3212 37.748C39.5762 37.4858 39.775 37.1749 39.9056 36.8341C40.0362 36.4932 40.0959 36.1295 40.0809 35.765C40.0809 35.7036 40.0564 35.6446 40.0127 35.6011C39.969 35.5576 39.9097 35.5332 39.8479 35.5332C39.7861 35.5332 39.7268 35.5576 39.6831 35.6011C39.6394 35.6446 39.6149 35.7036 39.6149 35.765V36.2936C39.6149 36.3551 39.6394 36.4141 39.6831 36.4575C39.7268 36.501 39.7861 36.5254 39.8479 36.5254C39.9097 36.5254 39.969 36.501 40.0127 36.4575C40.0564 36.4141 40.0809 36.3551 40.0809 36.2936V34.9969C40.0809 34.9354 40.0564 34.8764 40.0127 34.833C39.969 34.7895 39.9097 34.7651 39.8479 34.7651C39.7861 34.7651 39.7268 34.7895 39.6831 34.833C39.6394 34.8764 39.6149 34.9354 39.6149 34.9969C39.614 35.3077 39.587 35.6179 39.5341 35.9242L39.9924 35.9861C39.9559 35.6168 39.9388 35.2459 39.9411 34.8748C39.9404 34.8193 39.9196 34.7658 39.8826 34.7242C39.8456 34.6826 39.7948 34.6556 39.7395 34.6481C39.6842 34.6406 39.628 34.6531 39.5811 34.6834C39.5343 34.7137 39.5 34.7596 39.4843 34.813C39.4144 35.1082 39.329 35.3987 39.2466 35.6878L39.6723 35.6321L39.6397 35.5085C39.618 35.2133 39.1519 35.2117 39.1736 35.5085C39.1787 35.6336 39.2116 35.7561 39.2699 35.867C39.3601 36.0556 39.6413 35.9891 39.6956 35.8114C39.7842 35.5208 39.8634 35.2303 39.9333 34.9366L39.475 34.8748C39.4727 35.2459 39.4898 35.6168 39.5263 35.9861C39.5496 36.2241 39.9349 36.3261 39.9831 36.0479C40.0451 35.6988 40.0779 35.3452 40.0809 34.9907H39.6149V36.2874H40.0809V35.7589H39.6149C39.6423 36.3419 39.4386 36.9124 39.0478 37.3477C38.9872 37.4161 38.9218 37.4802 38.852 37.5393C38.7417 37.6444 38.6407 37.6289 38.5522 37.4914C38.3316 37.4002 38.1032 37.1653 37.9105 37.0277C37.7179 36.8902 37.4538 37.1622 37.5905 37.3446C37.9478 37.8175 38.4807 38.3445 39.1441 38.1173C39.8417 37.8716 39.9364 36.9319 39.8836 36.3137C39.8665 36.1081 39.5574 35.969 39.4502 36.1978C39.2948 36.5239 39.1394 36.8484 38.9841 37.1761C38.9036 37.2982 38.8555 37.4385 38.8443 37.5841C38.8955 37.9319 39.3197 37.8747 39.5807 37.8546C40.5921 37.7789 40.432 36.3523 40.3155 35.6352C40.2767 35.3972 39.9287 35.4343 39.8665 35.6352C39.8172 35.7764 39.7914 35.9247 39.7904 36.0741H40.2565C40.2396 35.8084 40.1649 35.5494 40.0374 35.3153C40.0166 35.2807 39.9871 35.2521 39.9518 35.2322C39.9166 35.2124 39.8768 35.2019 39.8362 35.2019C39.7957 35.2019 39.7559 35.2124 39.7206 35.2322C39.6854 35.2521 39.6559 35.2807 39.635 35.3153C39.4961 35.5539 39.4024 35.8158 39.3585 36.088L39.8246 36.1499V35.1777C39.8246 35.1162 39.8 35.0573 39.7563 35.0138C39.7126 34.9703 39.6534 34.9459 39.5915 34.9459C39.5297 34.9459 39.4705 34.9703 39.4268 35.0138C39.3831 35.0573 39.3585 35.1162 39.3585 35.1777C39.3569 35.6997 39.3227 36.221 39.256 36.7387L39.7143 36.6769C39.6615 36.4242 39.572 36.1805 39.4486 35.9536C39.4278 35.919 39.3983 35.8904 39.363 35.8705C39.3278 35.8507 39.2879 35.8402 39.2474 35.8402C39.2069 35.8402 39.1671 35.8507 39.1318 35.8705C39.0966 35.8904 39.0671 35.919 39.0462 35.9536C38.8436 36.4376 38.5523 36.8799 38.1871 37.258L38.577 37.36L38.5087 36.9736C38.4729 36.7681 38.1809 36.7619 38.083 36.918C38.0058 37.0342 37.9534 37.165 37.9291 37.3021C37.9047 37.4393 37.909 37.58 37.9416 37.7155C37.9805 37.935 38.2601 37.9118 38.3673 37.7711C38.5347 37.5495 38.6848 37.3155 38.8163 37.071L38.4139 36.8361C38.3065 37.067 38.2332 37.3122 38.1964 37.564C38.1684 37.768 38.4124 37.9813 38.5864 37.7897C38.9204 37.4261 39.1622 36.9884 39.2917 36.5131C39.3492 36.3029 39.0571 36.1035 38.9017 36.2874C38.6159 36.6282 38.3563 36.9898 38.1249 37.3693L38.5506 37.5486L39.0245 35.7913C39.037 35.7377 39.0301 35.6815 39.005 35.6325C38.98 35.5836 38.9383 35.5449 38.8874 35.5235C38.8366 35.5021 38.7797 35.4992 38.7269 35.5154C38.6741 35.5316 38.6287 35.5658 38.5988 35.612L37.6666 36.9551C37.4926 37.2039 37.8919 37.4187 38.069 37.1885L39.3368 35.5193C39.517 35.2813 39.113 35.0556 38.9344 35.2843L38.9219 35.2844Z" fill="#E6E6E6"/>
<path d="M58.7442 40.8621C60.6086 39.7277 62.0907 38.0353 63.7375 36.6196C65.5242 35.0849 67.3994 33.6552 69.3305 32.3013C73.0809 29.6739 77.0193 27.3231 80.9546 24.9785C81.0056 24.9464 81.0421 24.8959 81.0564 24.8376C81.0707 24.7793 81.0618 24.7177 81.0314 24.6658C81.001 24.614 80.9515 24.5759 80.8935 24.5595C80.8354 24.5432 80.7732 24.5499 80.72 24.5782C76.7847 26.9228 72.8448 29.269 69.0944 31.901C67.3248 33.1375 65.5972 34.4481 63.9411 35.8391C62.1389 37.3537 60.534 39.2393 58.5034 40.4618C58.2471 40.6164 58.4817 41.0182 58.738 40.8621H58.7442Z" fill="#E6E6E6"/>
<path d="M86.9698 17.7797C84.9501 17.9837 82.775 18.4952 81.5321 20.2525C80.4586 21.7641 80.4819 24.4008 81.4902 25.9525C82.6352 27.716 84.975 27.7794 86.7927 27.2091C88.6104 26.6387 90.4918 25.6388 90.4747 23.4781C90.4654 22.3189 90.0444 21.1119 89.5798 20.0609C89.179 19.1537 88.469 18.3608 87.3939 18.4612C87.0972 18.4891 87.0941 18.9527 87.3939 18.9249C88.8341 18.792 89.2971 20.4936 89.6389 21.5678C89.9496 22.5709 90.237 23.7578 89.7492 24.7547C89.2614 25.7516 88.0853 26.2601 87.0801 26.6248C85.9926 27.0174 84.7978 27.257 83.6621 26.9339C81.4125 26.308 80.7911 23.4719 81.4389 21.4596C82.1847 19.1413 84.8258 18.4597 86.9775 18.2433C87.2727 18.214 87.2758 17.7503 86.9775 17.7797H86.9698Z" fill="#E6E6E6"/>
<path d="M90.0772 35.7079C88.0575 35.9119 85.8825 36.4235 84.6396 38.1808C83.566 39.6923 83.5893 42.329 84.5976 43.8807C85.7426 45.6442 88.0824 45.7076 89.9001 45.1373C91.7178 44.567 93.5992 43.567 93.5821 41.4063C93.5728 40.2472 93.1518 39.0401 92.6873 37.9891C92.2864 37.0819 91.5764 36.289 90.5013 36.3895C90.2046 36.4173 90.2015 36.881 90.5013 36.8531C91.9415 36.7202 92.4045 38.4219 92.7463 39.496C93.057 40.4991 93.3444 41.6861 92.8566 42.6829C92.3688 43.6798 91.1927 44.1883 90.1875 44.5531C89.1 44.9456 87.9053 45.1852 86.7696 44.8622C84.5199 44.2362 83.8985 41.4001 84.5464 39.3878C85.2921 37.0695 87.9332 36.3879 90.085 36.1715C90.3801 36.1422 90.3833 35.6785 90.085 35.7079H90.0772Z" fill="#E6E6E6"/>
<path d="M83.9235 22.294L85.3947 23.9632C85.4239 23.9912 85.4598 24.0111 85.4989 24.0212C85.5381 24.0313 85.5793 24.0311 85.6184 24.0207C85.6575 24.0103 85.6932 23.9899 85.7221 23.9617C85.7509 23.9335 85.772 23.8983 85.7831 23.8596C86.0939 23.0467 86.0348 22.2044 86.1078 21.3497C86.1883 20.4663 86.4113 19.6016 86.7681 18.7887C87.4849 17.1399 88.7002 15.7543 90.2451 14.8244C90.5014 14.6698 90.2668 14.268 90.0105 14.4241C88.4872 15.3366 87.2652 16.6721 86.4947 18.2663C86.1175 19.0421 85.8558 19.8683 85.7179 20.7191C85.5625 21.7221 85.7039 22.7731 85.331 23.736L85.721 23.6324L84.2575 21.9663C84.0586 21.7422 83.7308 22.0714 83.9281 22.294H83.9235Z" fill="#E6E6E6"/>
<path d="M59.493 42.6692C67.5066 42.426 75.5222 42.3745 83.5398 42.5146C83.6001 42.5124 83.6573 42.487 83.6992 42.4438C83.7411 42.4005 83.7645 42.3428 83.7645 42.2828C83.7645 42.2227 83.7411 42.165 83.6992 42.1217C83.6573 42.0785 83.6001 42.0531 83.5398 42.0509C75.5242 41.9087 67.5086 41.9603 59.493 42.2055C59.1932 42.2148 59.1916 42.6784 59.493 42.6692Z" fill="#E6E6E6"/>
<path d="M85.215 38.0976C87.9544 39.1672 90.5895 40.4844 93.0872 42.0326C93.342 42.1871 93.5765 41.7899 93.3217 41.6323C90.7912 40.0649 88.1212 38.7322 85.3455 37.651C85.0674 37.5412 84.9462 37.9894 85.2228 38.0976H85.215Z" fill="#E6E6E6"/>
<path d="M90.1905 35.997C87.4126 39.2186 85.8034 43.2753 85.6213 47.516C85.6089 47.8143 86.075 47.8143 86.0874 47.516C86.2639 43.3971 87.8247 39.4563 90.5199 36.3246C90.7141 36.099 90.3863 35.7698 90.1905 35.997Z" fill="#E6E6E6"/>
<path d="M28.0532 40.9858L45.4178 40.7601L47.4142 40.7339C47.7731 40.7339 48.132 40.7215 48.4909 40.72C48.9958 40.72 49.336 41.1373 49.3267 41.6473C49.3034 42.7292 48.6198 42.6905 47.7249 42.7292L45.567 42.8266L36.7798 43.2114C35.206 43.2809 33.6306 43.3659 32.0568 43.42C30.6368 43.4633 27.9366 43.0027 28.5674 40.9472C28.6544 40.6612 28.2054 40.5391 28.1169 40.8235C27.8061 41.8343 28.3561 42.8606 29.2417 43.3907C30.4985 44.1418 32.1547 43.8868 33.5421 43.825L44.3303 43.3381L46.9497 43.2222C47.6209 43.1913 48.5546 43.3273 49.1714 43.0167C49.8953 42.6534 50.0227 41.2114 49.566 40.604C49.3314 40.2949 49.002 40.2671 48.6338 40.2532C47.6675 40.2161 46.684 40.2795 45.7161 40.2918L40.3375 40.3629L28.047 40.5175C27.9866 40.5197 27.9295 40.5451 27.8876 40.5883C27.8457 40.6315 27.8223 40.6893 27.8223 40.7493C27.8223 40.8094 27.8457 40.8671 27.8876 40.9103C27.9295 40.9536 27.9866 40.979 28.047 40.9812L28.0532 40.9858Z" fill="#E6E6E6"/>
<path d="M79.0672 53.0249L74.0234 50.002L75.4964 55.6738L76.3843 53.6074L77.8652 55.5829L78.3044 55.2571L76.8235 53.2816L79.0672 53.0249Z" fill="#43B052"/>
<path d="M86.5956 56.2812H78.0508V59.2178H86.5956V56.2812Z" fill="#43B052"/>
<path d="M49.2227 29.0693L54.2664 26.0464L52.7935 31.7182L51.9056 29.6518L50.4247 31.6274L49.9855 31.3016L51.4664 29.326L49.2227 29.0693Z" fill="#3F3D56"/>
<path d="M50.2402 32.48H41.6953V35.4165H50.2402V32.48Z" fill="#3F3D56"/>
</g>
<defs>
<clipPath id="clip0">
<rect width="118" height="99" fill="white"/>
</clipPath>
</defs>
</svg>
