<svg width="183" height="100" viewBox="0 0 183 100" fill="none" xmlns="http://www.w3.org/2000/svg">
<g clip-path="url(#clip0)">
<path d="M183 99.167H64.873V99.5531H183V99.167Z" fill="#E6E6E6"/>
<path d="M154.072 68.0083C156.655 71.6243 157.337 92.2042 157.489 98.801C157.493 98.9496 157.497 99.0906 157.499 99.2238H164.035C164.115 99.0828 164.189 98.9438 164.26 98.801C168.134 91.2254 165.984 82.142 165.871 81.6826C166.166 83.1266 164.835 87.3121 163.33 91.3663C162.412 78.9006 154.563 68.6377 154.072 68.0083Z" fill="#E6E6E6"/>
<path d="M9.45489 18.7311C6.9473 18.7311 4.54241 17.7444 2.76927 15.988C0.996138 14.2316 0 11.8495 0 9.36557C0 6.88167 0.996138 4.4995 2.76927 2.74311C4.54241 0.986725 6.9473 0 9.45489 0H95.5081C98.0157 0 100.421 0.986725 102.194 2.74311C103.967 4.4995 104.963 6.88167 104.963 9.36557C104.963 11.8495 103.967 14.2316 102.194 15.988C100.421 17.7444 98.0157 18.7311 95.5081 18.7311H9.45489Z" fill="#E6E6E6"/>
<path d="M35.2846 1.22217H18.4531V17.5101H35.2846V1.22217Z" fill="white"/>
<path d="M95.5079 1.22217H86.8066V17.5101H95.5079C97.6884 17.5101 99.7796 16.6521 101.321 15.1248C102.863 13.5975 103.73 11.5261 103.73 9.36614C103.73 7.20623 102.863 5.13477 101.321 3.60748C99.7796 2.08019 97.6884 1.22217 95.5079 1.22217Z" fill="white"/>
<path d="M69.4048 1.22217H52.6875V17.5101H69.4048V1.22217Z" fill="white"/>
<path d="M52.413 1.22217H35.5586V17.5101H52.413V1.22217Z" fill="#43B052"/>
<path d="M86.5321 1.22217H69.6777V17.5101H86.5321V1.22217Z" fill="#E6E6E6"/>
<path d="M18.1782 1.22217H9.45406C7.27355 1.22217 5.18234 2.08019 3.64049 3.60748C2.09863 5.13477 1.23242 7.20623 1.23242 9.36614C1.23242 11.5261 2.09863 13.5975 3.64049 15.1248C5.18234 16.6521 7.27355 17.5101 9.45406 17.5101H18.1782L18.1782 1.22217Z" fill="#43B052"/>
<path d="M8.84963 12.4978L6.56055 9.58287L7.8917 8.55715L8.97534 9.93751L12.6367 6.10938L13.8609 7.25826L8.84963 12.4978Z" fill="white"/>
<path d="M42.5586 12.4978L40.2695 9.58287L41.6007 8.55715L42.6843 9.93751L46.3457 6.10938L47.5699 7.25826L42.5586 12.4978Z" fill="white"/>
<path d="M75.8003 6.46326L75.041 7.21533L80.1418 12.2679L80.9011 11.5159L75.8003 6.46326Z" fill="white"/>
<path d="M80.4114 6.4635L75.3105 11.5161L76.0698 12.2682L81.1706 7.21557L80.4114 6.4635Z" fill="white"/>
<path d="M26.8353 14.2489C25.8597 14.2489 24.9059 13.9623 24.0947 13.4253C23.2835 12.8884 22.6512 12.1253 22.2778 11.2324C21.9045 10.3395 21.8068 9.35704 21.9971 8.40918C22.1875 7.46131 22.6573 6.59064 23.3472 5.90727C24.0371 5.22389 24.916 4.75851 25.873 4.56997C26.8299 4.38142 27.8217 4.47819 28.7231 4.84803C29.6245 5.21787 30.3949 5.84417 30.937 6.64773C31.479 7.45129 31.7683 8.39603 31.7683 9.36246C31.7668 10.658 31.2466 11.9 30.3219 12.816C29.3971 13.7321 28.1432 14.2474 26.8353 14.2489ZM26.8353 5.56194C26.0765 5.56194 25.3347 5.78483 24.7037 6.20244C24.0728 6.62005 23.581 7.21361 23.2906 7.90807C23.0002 8.60252 22.9242 9.36668 23.0723 10.1039C23.2203 10.8411 23.5857 11.5183 24.1223 12.0499C24.6589 12.5814 25.3425 12.9433 26.0868 13.09C26.8311 13.2366 27.6025 13.1614 28.3036 12.8737C29.0047 12.5861 29.6039 12.0989 30.0255 11.4739C30.4471 10.8489 30.6721 10.1141 30.6721 9.36247C30.671 8.35486 30.2664 7.38884 29.5471 6.67634C28.8278 5.96385 27.8526 5.56307 26.8353 5.56194Z" fill="#E6E6E6"/>
<path d="M61.0931 14.2489C60.1175 14.2489 59.1637 13.9623 58.3525 13.4253C57.5413 12.8884 56.909 12.1253 56.5357 11.2324C56.1623 10.3395 56.0646 9.35704 56.2549 8.40918C56.4453 7.46131 56.9151 6.59064 57.605 5.90727C58.2949 5.22389 59.1739 4.75851 60.1308 4.56997C61.0877 4.38142 62.0795 4.47819 62.9809 4.84803C63.8823 5.21787 64.6527 5.84417 65.1948 6.64773C65.7368 7.45129 66.0261 8.39603 66.0261 9.36246C66.0246 10.658 65.5044 11.9 64.5797 12.816C63.6549 13.7321 62.401 14.2474 61.0931 14.2489ZM61.0931 5.56194C60.3343 5.56194 59.5925 5.78483 58.9615 6.20244C58.3306 6.62005 57.8388 7.21361 57.5484 7.90807C57.258 8.60252 57.182 9.36668 57.3301 10.1039C57.4781 10.8411 57.8435 11.5183 58.3801 12.0499C58.9167 12.5814 59.6003 12.9433 60.3446 13.09C61.0889 13.2366 61.8603 13.1614 62.5614 12.8737C63.2625 12.5861 63.8617 12.0989 64.2833 11.4739C64.7049 10.8489 64.9299 10.1141 64.9299 9.36247C64.9288 8.35486 64.5242 7.38884 63.8049 6.67634C63.0856 5.96385 62.1104 5.56307 61.0931 5.56194Z" fill="#E6E6E6"/>
<path d="M95.2123 14.2489C94.2366 14.2489 93.2829 13.9623 92.4717 13.4253C91.6604 12.8884 91.0282 12.1253 90.6548 11.2324C90.2814 10.3395 90.1837 9.35704 90.3741 8.40918C90.5644 7.46131 91.0342 6.59064 91.7241 5.90727C92.414 5.22389 93.293 4.75851 94.2499 4.56997C95.2068 4.38142 96.1987 4.47819 97.1001 4.84803C98.0014 5.21787 98.7719 5.84417 99.3139 6.64773C99.856 7.45129 100.145 8.39603 100.145 9.36246C100.144 10.658 99.6236 11.9 98.6988 12.816C97.774 13.7321 96.5201 14.2474 95.2123 14.2489ZM95.2123 5.56194C94.4534 5.56194 93.7116 5.78484 93.0807 6.20245C92.4497 6.62005 91.958 7.21362 91.6676 7.90807C91.3772 8.60253 91.3012 9.36669 91.4492 10.1039C91.5973 10.8412 91.9627 11.5183 92.4993 12.0499C93.0359 12.5814 93.7195 12.9433 94.4638 13.09C95.208 13.2366 95.9795 13.1614 96.6806 12.8737C97.3816 12.5861 97.9809 12.0989 98.4025 11.4739C98.8241 10.8489 99.0491 10.1141 99.0491 9.36247C99.0479 8.35485 98.6433 7.38883 97.9241 6.67634C97.2048 5.96384 96.2295 5.56307 95.2123 5.56194Z" fill="#E6E6E6"/>
<path d="M140.494 52.7901L138.423 58.5124C138.266 58.9461 138.265 59.4201 138.421 59.8543C138.576 60.2885 138.878 60.6561 139.276 60.8949C139.566 61.0687 139.895 61.1675 140.233 61.1822C140.571 61.197 140.908 61.1271 141.211 60.9791C141.515 60.8311 141.776 60.6098 141.971 60.3355C142.166 60.0611 142.288 59.7427 142.325 59.4094L142.983 53.6118L147.96 37.3137L143.674 35.2593L140.494 52.7901Z" fill="#A0616A"/>
<path d="M138.766 96.0005H141.808V66.6913L134.895 66.5542L138.766 96.0005Z" fill="#A0616A"/>
<path d="M125.215 96.0005H128.257V66.6913L121.344 66.5542L125.215 96.0005Z" fill="#A0616A"/>
<path d="M142.291 69.7729L134.41 68.9511L132.751 60.3227L129.709 69.0881L120.307 68.1294L124.178 53.6117C131.255 48.8483 137.976 48.9525 144.365 53.6117L142.291 69.7729Z" fill="#2F2E41"/>
<path d="M128.93 97.2495C128.977 97.6214 128.937 97.9989 128.814 98.3531C128.69 98.7073 128.486 99.0285 128.217 99.2922C127.948 99.5558 127.622 99.7547 127.263 99.8735C126.904 99.9924 126.522 100.028 126.147 99.9776L120.544 99.2248C120.043 99.1473 119.593 98.8761 119.293 98.4706C118.994 98.0651 118.869 97.5586 118.946 97.062C119.016 96.6141 119.245 96.2057 119.592 95.9107C119.939 95.6156 120.382 95.4534 120.839 95.4534H121.763L124.803 92.71C124.833 94.5786 126.222 94.1637 128.518 93.9813L128.93 97.2495Z" fill="#2F2E41"/>
<path d="M142.479 97.2495C142.526 97.6214 142.486 97.9989 142.363 98.3531C142.239 98.7073 142.035 99.0285 141.766 99.2922C141.497 99.5558 141.17 99.7547 140.812 99.8735C140.453 99.9924 140.071 100.028 139.696 99.9776L134.092 99.2248C133.591 99.1473 133.142 98.8761 132.842 98.4706C132.543 98.0651 132.418 97.5586 132.495 97.062C132.564 96.6141 132.794 96.2057 133.141 95.9107C133.488 95.6156 133.93 95.4534 134.388 95.4534H135.312L138.352 92.71C138.382 94.5786 139.771 94.1637 142.067 93.9813L142.479 97.2495Z" fill="#2F2E41"/>
<path d="M131.681 19.9198C134.372 19.9198 136.554 17.7583 136.554 15.092C136.554 12.4256 134.372 10.2642 131.681 10.2642C128.989 10.2642 126.807 12.4256 126.807 15.092C126.807 17.7583 128.989 19.9198 131.681 19.9198Z" fill="#A0616A"/>
<path d="M137.869 23.2067L131.785 23.7546V18.4131L134.965 16.4956L137.869 23.2067Z" fill="#A0616A"/>
<path d="M145.058 55.6661C138.937 51.2268 131.588 51.6779 123.488 55.1183C127.158 44.8272 128.721 35.2362 125.839 27.1227C125.839 25.6892 126.321 24.2964 127.208 23.1641C128.096 22.0317 129.338 21.2243 130.74 20.869L131.784 20.6045L136.9 20.8784L141.704 23.6679C142.684 24.2368 143.497 25.0485 144.064 26.0233C144.63 26.998 144.931 28.1022 144.936 29.227L145.058 55.6661Z" fill="#43B052"/>
<path d="M121.414 51.6944L119.343 57.4167C119.186 57.8504 119.185 58.3245 119.341 58.7587C119.496 59.1929 119.798 59.5605 120.196 59.7992C120.486 59.973 120.815 60.0719 121.153 60.0866C121.491 60.1013 121.828 60.0314 122.131 59.8834C122.435 59.7355 122.696 59.5141 122.891 59.2398C123.086 58.9655 123.208 58.647 123.245 58.3138L123.903 52.5162L128.88 36.218L124.594 34.1636L121.414 51.6944Z" fill="#A0616A"/>
<path d="M149.068 40.4635H142.293V24.0283C143.465 24.6731 144.483 25.56 145.278 26.6289C146.073 27.6977 146.627 28.9235 146.902 30.2231L149.068 40.4635Z" fill="#43B052"/>
<path d="M127.964 12.4786C127.666 12.6179 127.338 12.6816 127.009 12.664C126.68 12.6464 126.361 12.548 126.08 12.3776C125.805 12.1978 125.598 11.9335 125.49 11.6254C125.381 11.3172 125.378 10.9824 125.481 10.6725C125.687 10.1491 126.207 9.82132 126.711 9.56525C127.824 9.00076 129.017 8.60608 130.249 8.39455C130.837 8.29387 131.459 8.23852 132.014 8.45361C132.289 8.56003 132.535 8.7286 132.808 8.84002C133.309 9.04491 133.868 9.04581 134.399 9.15694C134.942 9.27447 135.454 9.50622 135.899 9.8365C136.344 10.1668 136.712 10.5879 136.979 11.0714C137.153 11.4003 137.287 11.7489 137.378 12.1095C137.633 13.0963 137.63 14.1313 137.368 15.1164C136.951 16.6769 135.889 18.1107 135.984 19.7222C135.199 19.2692 134.831 18.3469 134.175 17.7237C133.688 17.2633 133.057 16.9803 132.386 16.921C132.203 16.9281 132.021 16.8824 131.864 16.7892C131.749 16.6786 131.67 16.537 131.636 16.3823L130.898 14.0901C130.747 13.6236 130.566 13.1167 130.141 12.8665C129.879 12.735 129.589 12.6654 129.295 12.663C128.593 12.6124 127.887 12.6189 127.185 12.6827" fill="#2F2E41"/>
<path d="M129.571 37.451L121.689 34.4379L125.269 24.8853C125.685 23.7729 126.417 22.8032 127.377 22.0926C128.336 21.382 129.482 20.9605 130.677 20.8789L129.571 37.451Z" fill="#43B052"/>
</g>
<defs>
<clipPath id="clip0">
<rect width="183" height="100" fill="white"/>
</clipPath>
</defs>
</svg>
