<svg width="121" height="91" viewBox="0 0 121 91" fill="none" xmlns="http://www.w3.org/2000/svg">
<g clip-path="url(#clip0)">
<path d="M55.7984 19.4136H25.9492C25.8027 19.4134 25.6622 19.3554 25.5586 19.2521C25.455 19.1489 25.3967 19.009 25.3965 18.863V11.4876C25.3967 11.3416 25.455 11.2017 25.5586 11.0985C25.6622 10.9952 25.8027 10.9372 25.9492 10.937H55.7984C55.945 10.9372 56.0855 10.9952 56.1891 11.0985C56.2927 11.2017 56.351 11.3416 56.3512 11.4876V18.863C56.351 19.009 56.2927 19.1489 56.1891 19.2521C56.0855 19.3554 55.945 19.4134 55.7984 19.4136ZM25.9492 11.1572C25.8613 11.1573 25.777 11.1922 25.7148 11.2541C25.6527 11.316 25.6177 11.4 25.6176 11.4876V18.863C25.6177 18.9506 25.6527 19.0346 25.7148 19.0965C25.777 19.1584 25.8613 19.1933 25.9492 19.1934H55.7984C55.8864 19.1933 55.9707 19.1584 56.0329 19.0965C56.095 19.0346 56.13 18.9506 56.1301 18.863V11.4876C56.13 11.4 56.095 11.3161 56.0329 11.2541C55.9707 11.1922 55.8864 11.1573 55.7984 11.1573L25.9492 11.1572Z" fill="#3F3D56"/>
<path d="M30.5896 17.1346C31.8331 17.1346 32.8412 16.1305 32.8412 14.8918C32.8412 13.6531 31.8331 12.6489 30.5896 12.6489C29.346 12.6489 28.3379 13.6531 28.3379 14.8918C28.3379 16.1305 29.346 17.1346 30.5896 17.1346Z" fill="#43B052"/>
<path d="M35.7893 13.3965C35.6898 13.3965 35.5944 13.4359 35.524 13.506C35.4536 13.5761 35.4141 13.6712 35.4141 13.7703C35.4141 13.8694 35.4536 13.9645 35.524 14.0346C35.5944 14.1047 35.6898 14.1441 35.7893 14.1441H53.4809C53.5805 14.1441 53.6759 14.1047 53.7463 14.0346C53.8167 13.9645 53.8562 13.8694 53.8562 13.7703C53.8562 13.6712 53.8167 13.5761 53.7463 13.506C53.6759 13.4359 53.5805 13.3965 53.4809 13.3965H35.7893Z" fill="#E6E6E6"/>
<path d="M35.7893 15.6396C35.6898 15.6396 35.5944 15.679 35.524 15.7491C35.4536 15.8192 35.4141 15.9143 35.4141 16.0135C35.4141 16.1126 35.4536 16.2077 35.524 16.2778C35.5944 16.3479 35.6898 16.3873 35.7893 16.3873H43.4021C43.4514 16.3874 43.5003 16.3777 43.5459 16.359C43.5915 16.3403 43.633 16.3127 43.6679 16.278C43.7028 16.2433 43.7305 16.2021 43.7494 16.1567C43.7683 16.1113 43.778 16.0626 43.778 16.0135C43.778 15.9643 43.7683 15.9156 43.7494 15.8702C43.7305 15.8249 43.7028 15.7836 43.6679 15.7489C43.633 15.7142 43.5915 15.6867 43.5459 15.6679C43.5003 15.6492 43.4514 15.6396 43.4021 15.6396H35.7893Z" fill="#E6E6E6"/>
<path d="M42.8406 45.7034H29.5742C29.4277 45.7032 29.2872 45.6452 29.1836 45.542C29.0799 45.4387 29.0217 45.2988 29.0215 45.1528V31.3904C29.0217 31.2445 29.0799 31.1045 29.1836 31.0013C29.2872 30.8981 29.4277 30.84 29.5742 30.8398H42.8406C42.9871 30.84 43.1276 30.8981 43.2313 31.0013C43.3349 31.1045 43.3932 31.2445 43.3933 31.3904V45.1528C43.3932 45.2988 43.3349 45.4387 43.2313 45.542C43.1276 45.6452 42.9871 45.7032 42.8406 45.7034ZM29.5742 31.0601C29.4863 31.0602 29.402 31.095 29.3398 31.1569C29.2777 31.2189 29.2427 31.3029 29.2426 31.3904V45.1528C29.2427 45.2404 29.2777 45.3244 29.3398 45.3863C29.402 45.4482 29.4863 45.4831 29.5742 45.4832H42.8406C42.9285 45.4831 43.0128 45.4482 43.075 45.3863C43.1372 45.3244 43.1721 45.2404 43.1722 45.1528V31.3904C43.1721 31.3029 43.1372 31.2189 43.075 31.1569C43.0128 31.095 42.9285 31.0602 42.8406 31.0601H29.5742Z" fill="#3F3D56"/>
<path d="M32.4007 33.6777C32.3011 33.6777 32.2057 33.7171 32.1353 33.7872C32.0649 33.8573 32.0254 33.9524 32.0254 34.0515C32.0254 34.1507 32.0649 34.2458 32.1353 34.3159C32.2057 34.386 32.3011 34.4254 32.4007 34.4254H40.0134C40.1129 34.4254 40.2084 34.386 40.2788 34.3159C40.3492 34.2458 40.3887 34.1507 40.3887 34.0515C40.3887 33.9524 40.3492 33.8573 40.2788 33.7872C40.2084 33.7171 40.1129 33.6777 40.0134 33.6777H32.4007Z" fill="#E6E6E6"/>
<path d="M32.4014 35.8794C32.352 35.8793 32.3031 35.8889 32.2575 35.9077C32.2119 35.9264 32.1705 35.9539 32.1356 35.9886C32.1006 36.0234 32.0729 36.0646 32.054 36.11C32.0351 36.1554 32.0254 36.204 32.0254 36.2532C32.0254 36.3023 32.0351 36.351 32.054 36.3964C32.0729 36.4418 32.1006 36.483 32.1356 36.5178C32.1705 36.5525 32.2119 36.58 32.2575 36.5987C32.3031 36.6175 32.352 36.6271 32.4014 36.627H40.0141C40.1136 36.627 40.2091 36.5876 40.2795 36.5175C40.3498 36.4474 40.3894 36.3523 40.3894 36.2532C40.3894 36.1541 40.3498 36.059 40.2795 35.9889C40.2091 35.9188 40.1136 35.8794 40.0141 35.8794H32.4014Z" fill="#E6E6E6"/>
<path d="M36.2079 42.8656C35.7407 42.8656 35.284 42.7276 34.8955 42.469C34.5071 42.2105 34.2043 41.843 34.0255 41.4131C33.8467 40.9831 33.7999 40.51 33.8911 40.0536C33.9822 39.5972 34.2072 39.1779 34.5376 38.8488C34.8679 38.5198 35.2888 38.2957 35.7471 38.2049C36.2053 38.1141 36.6802 38.1607 37.1119 38.3388C37.5435 38.5169 37.9124 38.8185 38.172 39.2054C38.4316 39.5923 38.5701 40.0473 38.5701 40.5126C38.5694 41.1365 38.3203 41.7345 37.8774 42.1756C37.4346 42.6168 36.8342 42.8649 36.2079 42.8656Z" fill="#43B052"/>
<path d="M64.5742 0H77.8406C77.9871 0.000171409 78.1276 0.058236 78.2313 0.161457C78.3349 0.264678 78.3932 0.404626 78.3933 0.550602V14.313C78.3932 14.4589 78.3349 14.5989 78.2313 14.7021C78.1276 14.8053 77.9871 14.8634 77.8406 14.8636H64.5742C64.4277 14.8634 64.2872 14.8053 64.1836 14.7021C64.08 14.5989 64.0217 14.4589 64.0215 14.313V0.550602C64.0217 0.404626 64.08 0.264678 64.1836 0.161457C64.2872 0.058236 64.4277 0.000171409 64.5742 0ZM77.8406 14.6433C77.9285 14.6432 78.0128 14.6084 78.075 14.5465C78.1372 14.4845 78.1722 14.4006 78.1722 14.313V0.550602C78.1722 0.463015 78.1372 0.379041 78.075 0.317107C78.0128 0.255173 77.9285 0.220336 77.8406 0.220241H64.5742C64.4863 0.220336 64.402 0.255173 64.3398 0.317107C64.2777 0.379041 64.2427 0.463015 64.2426 0.550602V14.313C64.2427 14.4006 64.2777 14.4845 64.3398 14.5465C64.402 14.6084 64.4863 14.6432 64.5742 14.6433H77.8406Z" fill="#3F3D56"/>
<path d="M75.0134 12.025C75.1129 12.025 75.2084 11.9856 75.2788 11.9155C75.3492 11.8454 75.3887 11.7503 75.3887 11.6512C75.3887 11.552 75.3492 11.4569 75.2788 11.3868C75.2084 11.3167 75.1129 11.2773 75.0134 11.2773H67.4007C67.3011 11.2773 67.2057 11.3167 67.1353 11.3868C67.0649 11.4569 67.0254 11.552 67.0254 11.6512C67.0254 11.7503 67.0649 11.8454 67.1353 11.9155C67.2057 11.9856 67.3011 12.025 67.4007 12.025H75.0134Z" fill="#E6E6E6"/>
<path d="M75.0134 9.82331C75.1129 9.82331 75.2084 9.78392 75.2788 9.71382C75.3492 9.64372 75.3887 9.54864 75.3887 9.4495C75.3887 9.35036 75.3492 9.25527 75.2788 9.18517C75.2084 9.11507 75.1129 9.07568 75.0134 9.07568H67.4007C67.3011 9.07568 67.2057 9.11507 67.1353 9.18517C67.0649 9.25527 67.0254 9.35036 67.0254 9.4495C67.0254 9.54864 67.0649 9.64372 67.1353 9.71382C67.2057 9.78392 67.3011 9.82331 67.4007 9.82331H75.0134Z" fill="#E6E6E6"/>
<path d="M71.2079 2.83789C71.6751 2.83789 72.1318 2.97589 72.5203 3.23444C72.9087 3.49298 73.2115 3.86047 73.3903 4.29042C73.5691 4.72036 73.6159 5.19347 73.5247 5.6499C73.4336 6.10633 73.2086 6.52559 72.8782 6.85466C72.5479 7.18372 72.127 7.40782 71.6687 7.49861C71.2105 7.5894 70.7356 7.5428 70.3039 7.36471C69.8723 7.18662 69.5034 6.88504 69.2438 6.49809C68.9842 6.11115 68.8457 5.65623 68.8457 5.19086C68.8464 4.56703 69.0955 3.96895 69.5384 3.52784C69.9812 3.08672 70.5816 2.8386 71.2079 2.83789Z" fill="#43B052"/>
<path d="M25.5668 28.4718C27.9143 26.6606 30.657 25.4256 33.5729 24.8667C36.5119 24.3088 39.5425 24.4639 42.4087 25.3189C43.8494 25.7462 45.2337 26.3437 46.532 27.0986C47.8548 27.8688 49.0501 28.8171 50.2002 29.8211C51.3652 30.8381 52.492 31.9005 53.7082 32.858C57.1804 35.6226 61.491 37.133 65.9362 37.1427C66.3034 37.1433 66.6704 37.1332 67.0371 37.1125C67.2359 37.1016 67.2372 36.7921 67.0371 36.8031C62.506 37.0516 58.0314 35.7048 54.3967 32.9984C53.1362 32.0595 51.9852 30.9859 50.8102 29.9456C49.671 28.937 48.5013 27.9559 47.2088 27.1456C44.0475 25.1618 40.3697 24.1491 36.6343 24.2339C32.8989 24.3187 29.2712 25.4973 26.2039 27.6225C25.9123 27.8245 25.6274 28.0356 25.3471 28.253C25.1895 28.3751 25.4108 28.5927 25.5668 28.4718V28.4718Z" fill="#3F3D56"/>
<path d="M25.4034 29.9676C26.295 29.9676 27.0178 29.2476 27.0178 28.3595C27.0178 27.4714 26.295 26.7515 25.4034 26.7515C24.5118 26.7515 23.7891 27.4714 23.7891 28.3595C23.7891 29.2476 24.5118 29.9676 25.4034 29.9676Z" fill="#3F3D56"/>
<path d="M85.4601 51.3187C86.3516 51.3187 87.0744 50.5987 87.0744 49.7106C87.0744 48.8225 86.3516 48.1025 85.4601 48.1025C84.5685 48.1025 83.8457 48.8225 83.8457 49.7106C83.8457 50.5987 84.5685 51.3187 85.4601 51.3187Z" fill="#3F3D56"/>
<path d="M93.9175 40.5503H67.5762C67.4297 40.5502 67.2892 40.4921 67.1855 40.3889C67.0819 40.2857 67.0236 40.1457 67.0234 39.9997V26.3475C67.0236 26.2015 67.0819 26.0616 67.1855 25.9583C67.2892 25.8551 67.4297 25.797 67.5762 25.7969H93.9175C94.0641 25.797 94.2046 25.8551 94.3082 25.9583C94.4118 26.0616 94.4701 26.2015 94.4703 26.3475V39.9997C94.4701 40.1457 94.4118 40.2857 94.3082 40.3889C94.2046 40.4921 94.0641 40.5502 93.9175 40.5503ZM67.5762 26.0171C67.4883 26.0172 67.404 26.0521 67.3418 26.114C67.2796 26.1759 67.2446 26.2599 67.2445 26.3475V39.9997C67.2446 40.0873 67.2796 40.1713 67.3418 40.2332C67.404 40.2952 67.4883 40.33 67.5762 40.3301H93.9175C94.0054 40.33 94.0897 40.2952 94.1519 40.2332C94.2141 40.1713 94.2491 40.0873 94.2492 39.9997V26.3475C94.2491 26.2599 94.2141 26.1759 94.1519 26.114C94.0897 26.0521 94.0054 26.0172 93.9175 26.0171H67.5762Z" fill="#3F3D56"/>
<path d="M71.9919 32.8754C73.2354 32.8754 74.2436 31.8712 74.2436 30.6325C74.2436 29.3938 73.2354 28.3896 71.9919 28.3896C70.7483 28.3896 69.7402 29.3938 69.7402 30.6325C69.7402 31.8712 70.7483 32.8754 71.9919 32.8754Z" fill="#43B052"/>
<path d="M77.1924 29.1377C77.143 29.1376 77.0942 29.1472 77.0485 29.166C77.0029 29.1847 76.9615 29.2122 76.9266 29.2469C76.8916 29.2817 76.8639 29.3229 76.845 29.3683C76.8261 29.4137 76.8164 29.4624 76.8164 29.5115C76.8164 29.5607 76.8261 29.6093 76.845 29.6547C76.8639 29.7001 76.8916 29.7414 76.9266 29.7761C76.9615 29.8108 77.0029 29.8383 77.0485 29.8571C77.0942 29.8758 77.143 29.8854 77.1924 29.8853H91.3761C91.4756 29.8853 91.5711 29.8459 91.6415 29.7758C91.7118 29.7057 91.7514 29.6106 91.7514 29.5115C91.7514 29.4124 91.7118 29.3173 91.6415 29.2472C91.5711 29.1771 91.4756 29.1377 91.3761 29.1377H77.1924Z" fill="#E6E6E6"/>
<path d="M77.1924 31.3799C77.143 31.3798 77.0942 31.3894 77.0485 31.4081C77.0029 31.4269 76.9615 31.4544 76.9266 31.4891C76.8916 31.5239 76.8639 31.5651 76.845 31.6105C76.8261 31.6559 76.8164 31.7045 76.8164 31.7537C76.8164 31.8028 76.8261 31.8515 76.845 31.8969C76.8639 31.9423 76.8916 31.9835 76.9266 32.0183C76.9615 32.053 77.0029 32.0805 77.0485 32.0993C77.0942 32.118 77.143 32.1276 77.1924 32.1275H84.8051C84.9047 32.1275 85.0001 32.0881 85.0705 32.018C85.1409 31.9479 85.1804 31.8528 85.1804 31.7537C85.1804 31.6546 85.1409 31.5595 85.0705 31.4894C85.0001 31.4193 84.9047 31.3799 84.8051 31.3799H77.1924Z" fill="#E6E6E6"/>
<path d="M70.2658 34.9668C69.9803 34.9668 69.748 35.1345 69.748 35.3406C69.748 35.5467 69.9803 35.7144 70.2658 35.7144H91.1669C91.4524 35.7144 91.6847 35.5467 91.6847 35.3406C91.6847 35.1345 91.4524 34.9668 91.1669 34.9668H70.2658Z" fill="#E6E6E6"/>
<path d="M70.2658 37.2085C69.9803 37.2085 69.748 37.3762 69.748 37.5823C69.748 37.7884 69.9803 37.9561 70.2658 37.9561H91.1669C91.4524 37.9561 91.6847 37.7884 91.6847 37.5823C91.6847 37.3762 91.4524 37.2085 91.1669 37.2085H70.2658Z" fill="#E6E6E6"/>
<path d="M65.4588 51.2076C66.9449 50.5655 68.604 51.1253 70.0047 51.7172C70.7261 52.022 71.4398 52.3473 72.1863 52.588C72.8144 52.79 73.4576 52.9418 74.1098 53.0421C75.4187 53.2418 76.7499 53.2499 78.0612 53.0662C79.3791 52.8831 80.6634 52.5111 81.8744 51.9617C83.0786 51.4181 84.1917 50.6932 85.1746 49.8125C85.2997 49.6999 85.4223 49.5848 85.5425 49.4672C85.6855 49.3276 85.4658 49.1088 85.3228 49.2484C84.3763 50.1674 83.2897 50.9315 82.1034 51.5122C80.9219 52.0909 79.6616 52.4942 78.3628 52.7091C77.0598 52.928 75.7311 52.9508 74.4213 52.7769C73.7678 52.6889 73.1225 52.5492 72.4913 52.359C71.7664 52.1242 71.0553 51.8491 70.3613 51.535C68.9475 50.9302 67.3767 50.338 65.8232 50.7551C65.6452 50.8041 65.471 50.8661 65.302 50.9404C65.1191 51.0195 65.2771 51.2861 65.4588 51.2076V51.2076Z" fill="#3F3D56"/>
<path d="M64.8844 55.0025H52.4395L55.3682 49.9496C55.4207 49.859 55.4962 49.7838 55.5871 49.7315C55.678 49.6792 55.7811 49.6517 55.8861 49.6517C55.9911 49.6517 56.0942 49.6792 56.1852 49.7315C56.2761 49.7838 56.3516 49.859 56.4041 49.9496L57.6552 52.1081L59.7825 48.4379C59.8482 48.3245 59.9427 48.2303 60.0566 48.1649C60.1704 48.0994 60.2995 48.0649 60.431 48.0649C60.5624 48.0649 60.6915 48.0994 60.8054 48.1649C60.9192 48.2303 61.0137 48.3245 61.0794 48.4379L64.8844 55.0025Z" fill="#43B052"/>
<path d="M64.8972 55.0005H51.6309C51.4843 55.0003 51.3438 54.9423 51.2402 54.8391C51.1366 54.7358 51.0783 54.5959 51.0781 54.4499V47.0745C51.0783 46.9286 51.1366 46.7886 51.2402 46.6854C51.3438 46.5822 51.4843 46.5241 51.6309 46.5239H64.8972C65.0438 46.5241 65.1843 46.5822 65.2879 46.6854C65.3915 46.7886 65.4498 46.9286 65.45 47.0745V54.4499C65.4498 54.5959 65.3915 54.7358 65.2879 54.8391C65.1843 54.9423 65.0438 55.0003 64.8972 55.0005ZM51.6309 46.7442C51.5429 46.7443 51.4587 46.7791 51.3965 46.841C51.3343 46.903 51.2993 46.9869 51.2992 47.0745V54.4499C51.2993 54.5375 51.3343 54.6215 51.3965 54.6834C51.4587 54.7453 51.5429 54.7802 51.6309 54.7803H64.8972C64.9851 54.7802 65.0694 54.7453 65.1316 54.6834C65.1938 54.6215 65.2288 54.5375 65.2289 54.4499V47.0745C65.2288 46.9869 65.1938 46.903 65.1316 46.841C65.0694 46.7791 64.9851 46.7443 64.8972 46.7442H51.6309Z" fill="#3F3D56"/>
<path d="M90.9167 48.5098L88.552 49.7059C87.7079 50.1328 86.8934 50.0599 86.5815 49.1696C86.5073 48.9578 86.4798 48.7325 86.5011 48.5091C86.5224 48.2857 86.5919 48.0696 86.7049 47.8754C86.8178 47.6813 86.9716 47.5138 87.1555 47.3843C87.3395 47.2548 87.5494 47.1665 87.7708 47.1253L90.0182 46.7074L99.6436 43.5264L105.474 39.4082L107.612 42.8002L100.874 46.4213L90.9167 48.5098Z" fill="#FFB8B8"/>
<path d="M101.956 88.2113L100.146 87.9109L100.348 84.5068H102.257L101.956 88.2113Z" fill="#FFB8B8"/>
<path d="M119.514 84.8865L117.763 85.4306L116.402 82.3017L118.107 81.4443L119.514 84.8865Z" fill="#FFB8B8"/>
<path d="M118.539 81.9049L116.328 82.806L105.774 68.9895L102.458 85.2088L100.246 84.8084C98.8278 70.8252 97.6711 56.5625 99.0904 49.8167L107.282 49.4663L111.001 61.2804L112.81 69.2899L118.539 81.9049Z" fill="#2F2E41"/>
<path d="M101.855 90.9653C101.524 91.0359 101.18 90.9994 100.871 90.8611L99.7964 90.3794C98.8952 90.3333 98.2816 90.5121 97.7798 89.8599C97.6383 89.6734 97.5494 89.4527 97.5224 89.2205C97.4954 88.9883 97.5313 88.7531 97.6263 88.5394C97.7205 88.3249 97.8703 88.1393 98.0603 88.0016C98.2504 87.8638 98.4738 87.7789 98.7076 87.7557L100.184 86.8291L100.261 87.5237C100.936 87.9044 101.737 87.74 102.586 87.3694L103.049 88.9846C103.109 89.1929 103.125 89.4112 103.097 89.6259C103.068 89.8407 102.996 90.0473 102.884 90.233C102.772 90.4187 102.623 90.5796 102.446 90.7055C102.269 90.8315 102.068 90.9199 101.855 90.9653Z" fill="#2F2E41"/>
<path d="M120.231 87.652C119.941 87.8258 119.603 87.9028 119.266 87.8718L118.093 87.7638C117.225 88.0117 116.703 88.3793 116.016 87.9247C115.821 87.7942 115.665 87.6141 115.564 87.4032C115.463 87.1923 115.42 86.9583 115.44 86.7254C115.46 86.4921 115.541 86.2681 115.676 86.0764C115.81 85.8846 115.994 85.7321 116.208 85.6344L117.302 84.2806L117.602 84.9125C118.364 85.0544 119.068 84.6397 119.75 84.0146L120.714 85.3925C120.839 85.5702 120.925 85.7714 120.968 85.9837C121.012 86.196 121.01 86.4149 120.965 86.6268C120.92 86.8386 120.831 87.0389 120.705 87.2153C120.579 87.3917 120.417 87.5403 120.231 87.652Z" fill="#2F2E41"/>
<path d="M104.267 35.2491C106.265 35.2491 107.885 33.6354 107.885 31.6448C107.885 29.6542 106.265 28.0405 104.267 28.0405C102.268 28.0405 100.648 29.6542 100.648 31.6448C100.648 33.6354 102.268 35.2491 104.267 35.2491Z" fill="#FFB8B8"/>
<path d="M108.69 39.2536L103.966 38.2524L103.363 34.3478L106.68 33.647L108.69 39.2536Z" fill="#FFB8B8"/>
<path d="M107.382 49.9669H98.9395L100.843 45.2076C100.704 43.57 101.401 42.3655 102.398 41.3169L103.664 38.1528C105.708 36.8127 107.249 36.9128 108.89 38.6534C110.836 41.3977 109.489 45.523 107.382 49.9669Z" fill="#43B052"/>
<path d="M103.562 60.0784L103.322 62.7093C103.237 63.6483 102.742 64.2967 101.819 64.0866C101.599 64.0366 101.393 63.9399 101.214 63.8032C101.036 63.6665 100.889 63.493 100.784 63.2945C100.679 63.096 100.618 62.8772 100.606 62.6532C100.594 62.4291 100.63 62.2051 100.713 61.9964L101.552 59.8781L103.964 50.0665L103.562 42.958H107.583L107.08 50.5671L103.562 60.0784Z" fill="#FFB8B8"/>
<path d="M107.885 43.1587H103.262L103.586 40.1544C103.607 39.6348 103.823 39.1419 104.19 38.7725C104.558 38.4031 105.05 38.1838 105.572 38.1579C105.848 38.1441 106.125 38.1851 106.385 38.2784C106.645 38.3717 106.884 38.5155 107.088 38.7015C107.293 38.8875 107.458 39.1119 107.574 39.3619C107.691 39.6119 107.756 39.8824 107.767 40.1577L107.885 43.1587Z" fill="#43B052"/>
<path d="M108.745 27.9385C109.496 27.9385 110.105 27.332 110.105 26.5838C110.105 25.8355 109.496 25.229 108.745 25.229C107.994 25.229 107.385 25.8355 107.385 26.5838C107.385 27.332 107.994 27.9385 108.745 27.9385Z" fill="#2F2E41"/>
<path d="M107.344 26.2523C107.366 25.9086 107.519 25.5863 107.771 25.351C108.024 25.1157 108.357 24.9852 108.703 24.9861C108.675 24.9825 108.647 24.9782 108.618 24.9764C108.259 24.9535 107.904 25.074 107.634 25.3112C107.363 25.5484 107.198 25.883 107.175 26.2415C107.152 26.5999 107.272 26.9528 107.51 27.2226C107.748 27.4924 108.084 27.6571 108.444 27.6803C108.473 27.6821 108.501 27.6814 108.529 27.6815C108.186 27.6382 107.872 27.4663 107.652 27.2007C107.432 26.9352 107.322 26.596 107.344 26.2523Z" fill="#2F2E41"/>
<path d="M107.336 26.8303C106.123 25.828 102.644 27.1019 102.419 27.7757C100.779 27.9984 99.5371 28.9516 99.5371 30.6466V30.6466C100.512 31.0446 101.621 30.9955 102.82 30.6466C104.731 32.198 104.863 34.1483 103.7 36.3884L105.13 36.4169L106.903 33.8365L106.987 36.4539L110.265 36.3884V32.6375C110.276 31.3904 109.988 30.1587 109.425 29.0448C108.914 28.0563 108.121 27.4792 107.336 26.8303Z" fill="#2F2E41"/>
<path d="M104.283 33.458C104.642 33.458 104.934 33.0519 104.934 32.551C104.934 32.0501 104.642 31.644 104.283 31.644C103.924 31.644 103.633 32.0501 103.633 32.551C103.633 33.0519 103.924 33.458 104.283 33.458Z" fill="#FFB8B8"/>
<path d="M22.4492 33.7013C22.4492 33.7013 22.8407 26.9513 24.8732 28.485C26.9057 30.0188 23.9856 34.3273 23.9856 34.3273L22.4492 33.7013Z" fill="#FFB9B9"/>
<path d="M14.8882 53.7241C14.8882 53.7241 19.4031 58.7728 16.8771 59.1199C14.3511 59.4669 13.3574 54.3636 13.3574 54.3636L14.8882 53.7241Z" fill="#FFB9B9"/>
<path d="M8.99681 29.8251C9.56347 29.9736 10.0734 30.2856 10.4627 30.7219C10.8519 31.1582 11.1031 31.6993 11.1846 32.2773L12.6207 42.4592L14.634 50.5812C14.634 50.5812 15.6406 51.4836 15.238 51.985C14.8353 52.4863 15.7413 54.592 15.7413 54.592L13.2247 55.3942C13.2247 55.3942 12.9227 53.2885 12.4194 53.1882C11.9771 53.1001 7.02545 39.9242 5.83191 36.7323C5.66734 36.2922 5.57422 36.0419 5.57422 36.0419C5.57422 36.0419 5.77555 29.3237 8.99681 29.8251Z" fill="#575A89"/>
<path d="M9.45621 82.9233L11.002 85.6519C12.199 88.1976 11.1353 88.66 8.20028 87.3982L7.53125 84.1763L9.45621 82.9233Z" fill="#FFB9B9"/>
<path d="M10.237 86.5499C10.237 86.5499 10.9708 85.3599 11.2362 85.5591C11.5016 85.7583 12.5963 86.6214 12.5963 86.6214L14.0222 87.9818C14.0222 87.9818 18.8397 88.4892 15.7786 90.1705C12.7174 91.8518 11.0257 90.4578 11.0257 90.4578C11.0257 90.4578 6.73831 90.6798 6.80747 89.4883C6.87663 88.2968 8.25935 86.4118 8.25935 86.4118C8.25935 86.4118 10.0021 87.5756 10.237 86.5499Z" fill="#2F2E41"/>
<path d="M2.59766 52.0803L4.04682 69.5466C4.04682 69.5466 4.09512 79.9879 5.64089 82.0088C7.18666 84.0297 7.23496 85.0401 7.23496 85.0401L10.4231 83.4042C10.4231 83.4042 8.78073 80.6782 9.11887 80.2609C9.3273 79.9962 9.47563 79.6897 9.55361 79.3624L8.68412 68.5843L10.3265 49.8188L2.59766 52.0803Z" fill="#2F2E41"/>
<path d="M6.55665 82.9231L5.20411 86.4836L2.13672 85.2063L3.75498 82.5381L6.55665 82.9231Z" fill="#FFB9B9"/>
<path d="M4.30133 85.2847C4.30133 85.2847 5.45176 84.5685 5.59557 84.855C5.73937 85.1415 6.31459 86.359 6.31459 86.359L6.9617 88.1496C6.9617 88.1496 10.9163 90.6563 7.53692 90.7996C4.15753 90.9428 3.29471 89.009 3.29471 89.009C3.29471 89.009 -0.516085 87.3617 0.0591333 86.359C0.634352 85.3563 2.6476 84.3164 2.6476 84.3164C2.6476 84.3164 3.65422 86.0726 4.30133 85.2847Z" fill="#2F2E41"/>
<path d="M14.8672 52.1291L15.6401 68.2C15.6401 68.2 8.58751 82.7313 7.81463 83.1162C7.58432 83.2346 7.38018 83.3979 7.21425 83.5962C7.04832 83.7945 6.92396 84.024 6.84852 84.271L2.59766 83.2124L4.52987 80.133L8.78074 69.836C8.78074 69.836 9.45701 69.5473 9.65023 68.585C9.84346 67.6227 10.2299 67.6226 9.26379 67.4302C8.29769 67.2377 8.29769 66.2754 8.29769 66.2754L5.10953 51.6479L14.8672 52.1291Z" fill="#2F2E41"/>
<path d="M15.2031 23.6831C15.545 21.5846 14.1143 19.6074 12.0076 19.2669C9.90092 18.9263 7.91596 20.3514 7.57409 22.4499C7.23222 24.5484 8.6629 26.5256 10.7696 26.8661C12.8763 27.2066 14.8613 25.7816 15.2031 23.6831Z" fill="#FFB9B9"/>
<path d="M7.95985 23.3066C7.95985 23.3066 7.67002 28.2145 7.28358 28.6957C6.89714 29.1769 11.3412 29.0806 11.3412 29.0806C11.3412 29.0806 11.0514 24.9426 11.3412 24.5577C11.6311 24.1727 7.95985 23.3066 7.95985 23.3066Z" fill="#FFB9B9"/>
<path d="M15.1543 53.1873C15.1543 53.1873 4.23729 52.2252 2.20898 53.1873C2.20898 53.1873 2.95566 50.4282 2.76273 50.1399C2.62241 49.929 3.00953 42.0696 2.88801 37.5359C2.8191 34.9776 2.22652 32.4793 3.94914 30.58C4.53546 29.9348 5.18943 29.3932 5.87973 29.1286C5.87973 29.1286 5.6868 27.3004 6.65272 27.2044C6.65272 27.2044 10.3247 26.8187 11.6765 27.9743C12.1087 28.3412 12.3806 29.4593 12.4094 30.4227C11.7404 33.6998 11.9772 37.3362 12.5911 41.1087C12.6286 41.3483 12.67 41.5891 12.7113 41.83C13.3628 45.5712 14.3475 49.4286 15.1543 53.1873Z" fill="#575A89"/>
<path d="M9.37021 24.2004C9.69702 24.181 10.0161 24.291 10.3407 24.3339C11.5018 24.4874 12.7098 23.6482 12.9661 22.5097C12.9867 22.3581 13.0321 22.2109 13.1004 22.0739C13.2791 21.7833 13.6861 21.7278 14.0216 21.7947C14.3571 21.8615 14.6751 22.0179 15.0168 22.0358C15.5444 22.0633 16.0509 21.7398 16.332 21.2943C16.5977 20.8347 16.7107 20.3032 16.6548 19.7758L16.4019 20.0402C16.2991 19.8236 16.2595 19.5827 16.2874 19.3447C16.1534 19.3092 16.0124 19.3085 15.8781 19.3428C15.7437 19.377 15.6204 19.445 15.52 19.5403C15.297 19.564 15.4653 19.1283 15.2996 18.9778C15.2191 18.9284 15.123 18.9105 15.03 18.9275C14.5556 18.9321 14.1718 18.5706 13.798 18.2797C13.1502 17.7766 12.3928 17.4325 11.5868 17.275C11.0511 17.1709 10.4814 17.1542 9.97338 17.3529C9.56326 17.5363 9.19313 17.7978 8.88382 18.1227C8.08844 18.8846 7.38411 19.7797 7.05321 20.8283C6.7842 21.6871 6.77658 22.6061 7.03131 23.4692C7.16465 23.9175 7.56648 25.4527 8.15476 25.4884C8.89394 25.5333 8.45014 24.2551 9.37021 24.2004Z" fill="#2F2E41"/>
<path d="M10.9695 30.2979L12.354 30.4456C12.354 30.4456 13.7131 33.072 13.6144 33.6199C13.5157 34.1677 13.3007 33.8351 13.9124 34.7116C14.5241 35.5881 16.2599 37.8536 16.4748 38.1862C16.6898 38.5188 22.5496 34.0654 22.1853 32.731C22.1853 32.731 24.036 34.0535 24.8288 34.2296C24.8288 34.2296 18.7899 42.1186 17.9483 43.1283C17.1068 44.1379 16.4295 43.9305 15.2729 43.3319C14.1164 42.7333 8.26562 36.7624 8.26562 36.7624L10.9695 30.2979Z" fill="#575A89"/>
<path opacity="0.1" d="M12.7125 41.8295L7.90039 37.0362L9.11813 36.6406L12.5922 41.1082C12.6298 41.3478 12.6711 41.5886 12.7125 41.8295Z" fill="black"/>
</g>
<defs>
<clipPath id="clip0">
<rect width="121" height="91" fill="white"/>
</clipPath>
</defs>
</svg>
