<svg width="926" height="659" viewBox="0 0 926 659" fill="none" xmlns="http://www.w3.org/2000/svg">
<path d="M57.3371 657.099C57.3371 657.099 -52.1931 500.549 38.8331 331.055C119.57 180.671 213.749 190.947 282.787 251.993C312.202 277.968 397.046 255.185 469.237 102.177C567.648 -106.542 908.934 20.0103 846.701 341.069C816.58 496.438 938.349 502.079 876.324 657.405L57.3371 657.099Z" fill="#74DAEE"/>
<path d="M924.451 658.761H0.912756C0.414892 658.761 0 658.323 0 657.799V657.055C0 656.531 0.414892 656.093 0.912756 656.093H924.41C924.908 656.093 925.322 656.531 925.322 657.055V657.799C925.364 658.323 924.949 658.761 924.451 658.761Z" fill="#4A2C6A"/>
<mask id="mask0" mask-type="alpha" maskUnits="userSpaceOnUse" x="0" y="19" width="926" height="640">
<path d="M57.3371 657.148C57.3371 657.148 -52.1931 505.211 38.8331 340.711C119.57 194.758 213.749 204.731 282.787 263.978C312.202 289.188 397.046 267.077 469.237 118.577C567.648 -83.9916 908.934 38.8313 846.701 350.43C816.58 501.221 938.349 506.696 876.324 657.445L57.3371 657.148Z" fill="white"/>
<path d="M924.451 658.761H0.912756C0.414892 658.761 0 658.336 0 657.827V657.105C0 656.596 0.414892 656.172 0.912756 656.172H924.41C924.908 656.172 925.322 656.596 925.322 657.105V657.827C925.364 658.336 924.949 658.761 924.451 658.761Z" fill="white"/>
</mask>
<g mask="url(#mask0)">
<path d="M893.086 304.38H697.176V656.88H893.086V304.38Z" fill="#9FEAFC"/>
<path d="M659.587 657.186C658.011 654.431 657.803 651.633 659.961 649.053C665.147 642.931 679.751 650.496 690.081 657.186H659.587Z" fill="#A8D29F"/>
<path d="M694.231 657.187C684.398 645.555 668.798 624.259 678.797 616.037C689.003 607.641 709.623 638.864 720.244 656.706C719.539 642.756 720.535 624.215 731.82 628.457C743.519 632.829 733.853 646.123 726.924 657.23H694.231V657.187Z" fill="#A8D29F"/>
<path d="M721.736 341.157V304.949H716.508V242.679H688.337V304.949H662.034V203.454H632.991V269.353H626.353V190.685H597.311V338.139H560.594V424.154H546.861V385.891H515.33V408.499H497.24V307.135H474.878V382.174H452.516V657.099H474.878H494.046H497.24H515.33H525.536H541.924H546.861H560.594H573.455H597.311H604.613H619.134H626.353H632.991H648.176H658.549H662.034H688.337H716.052H716.508H721.736H744.181V341.157H721.736Z" fill="#9FEAFC"/>
<path d="M417.957 412.26H412.522V368.925H383.397V412.26H356.138V341.681H326.101V387.51H319.255V332.804H289.176V435.349H251.172V495.127H236.983V468.539H204.331V484.282H185.62V413.791H162.469V465.959H139.319V471.819H121.852V450.654H117.039V414.272H91.3992V450.654H67.3772V391.358H40.9074V429.839H34.8501V383.88H8.38029V470.07H-25.1011V520.315H-37.6307V497.969H-66.3823V511.175H-82.8533V451.966H-103.266V495.783H-123.637V656.443H-103.266H-85.7575H-82.8533H-66.3823H-57.0474H-42.1114H-37.6307H-25.1011H-13.3598H8.38029H15.06H28.2949H34.8501H40.9074H54.7646H64.1826H67.3772H91.3992H116.624H117.039H121.852H139.319V657.099H162.469H182.301H185.62H204.331H214.911H231.88H236.983H251.172H264.49H289.176H296.727H311.787H319.255H326.101H341.825H352.529H356.138H383.397H412.024H412.522H417.957H441.19V437.448H417.957V412.26Z" fill="#9FEAFC"/>
<path d="M456.872 77.8638H441.189V656.88H456.872V77.8638Z" fill="#DBFAFC"/>
<path d="M152.843 77.8638H137.16V656.88H152.843V77.8638Z" fill="#DBFAFC"/>
<path d="M269.51 586.083H20.619C17.4243 586.083 14.8105 583.328 14.8105 579.961V486.599H269.51C272.704 486.599 275.318 489.354 275.318 492.721V579.917C275.318 583.328 272.704 586.083 269.51 586.083Z" fill="#5D55A4"/>
<path d="M290.047 579.917H32.1944C22.818 579.917 15.1426 588.007 15.1426 597.89V639.738C15.1426 649.621 22.818 657.711 32.1944 657.711H290.047C299.423 657.711 307.098 649.621 307.098 639.738V597.89C307.057 588.007 299.423 579.917 290.047 579.917Z" fill="#5D55A4"/>
<path d="M50.4505 581.317H30.453V500.986C30.453 493.071 24.3126 486.556 16.7617 486.556H14.8532C14.3968 486.556 14.0234 486.949 14.0234 487.43V582.672V600.863V656.268C14.0234 657.012 14.6043 657.668 15.3511 657.668H73.1863C73.8916 657.668 74.514 657.055 74.514 656.268V606.679C74.4725 592.73 63.6854 581.317 50.4505 581.317Z" fill="#292A66"/>
<path d="M894.537 494.121H691.699V657.143H894.537V494.121Z" fill="#292A66"/>
<path d="M658.094 492.765C652.244 492.765 647.473 498.363 647.473 505.141C647.473 511.962 652.244 517.516 658.094 517.516H894.081V492.722H658.094V492.765Z" fill="#EB5757"/>
<path opacity="0.95" d="M455.877 416.589H345.434C336.722 416.589 329.627 409.155 329.627 399.928V283.522C329.627 274.339 336.68 266.861 345.434 266.861H455.877C464.59 266.861 471.684 274.295 471.684 283.522V399.928C471.684 409.111 464.59 416.589 455.877 416.589Z" fill="url(#paint0_linear)"/>
<path d="M433.556 382.48H367.797V385.892H433.556V382.48Z" fill="#00A7D8"/>
<path d="M424.221 393.282H377.09V396.692H424.221V393.282Z" fill="#00A7D8"/>
<path opacity="0.95" d="M670.831 559.277H513.671C503.382 559.277 495.043 550.488 495.043 539.643V338.402C495.043 327.557 503.382 318.767 513.671 318.767H670.831C681.12 318.767 689.459 327.557 689.459 338.402V539.687C689.459 550.531 681.12 559.277 670.831 559.277Z" fill="url(#paint1_linear)"/>
<path d="M598.641 460.668H583.207V463.685H598.641V460.668Z" fill="#4598E6"/>
<path d="M614.365 488.261H524.666V494.077H614.365V488.261Z" fill="#00A7D8"/>
<path d="M597.23 516.248H524.666V522.063H597.23V516.248Z" fill="#00A7D8"/>
<path d="M567.192 502.254H524.666V508.07H567.192V502.254Z" fill="#00A7D8"/>
<path d="M637.846 342.774V345.704H654.275V361.971H657.055V342.774H637.846ZM526.2 361.971H528.979V345.704H545.409V342.774H526.158V361.971H526.2ZM654.275 445.888V462.155H637.846V465.085H657.097V445.888H654.275ZM528.979 445.888H526.2V465.085H545.45V462.155H528.979V445.888Z" fill="#00A7D8"/>
<path d="M648.385 522.501C639.299 522.501 631.955 514.717 631.955 505.184C631.955 495.608 639.34 487.867 648.385 487.867C657.471 487.867 664.814 495.651 664.814 505.184C664.814 514.717 657.429 522.501 648.385 522.501ZM648.385 491.191C641.083 491.191 635.108 497.444 635.108 505.184C635.108 512.881 641.041 519.178 648.385 519.178C655.687 519.178 661.661 512.924 661.661 505.184C661.619 497.444 655.687 491.191 648.385 491.191Z" fill="#00A7D8"/>
<path d="M647.306 511.962L639.838 504.091L642.12 501.73L647.306 507.239L654.649 499.5L656.89 501.905L647.306 511.962Z" fill="#00A7D8"/>
<path opacity="0.95" d="M448.533 272.458H352.777V359.041H448.533V272.458Z" fill="url(#paint2_linear)"/>
<path d="M437.248 325.152C434.095 316.362 426.503 312.339 422.935 311.071C421.648 310.634 419.367 309.846 417.002 309.016C412.687 307.529 407.957 305.955 407.957 305.955H393.063C393.063 305.955 387.918 307.791 382.4 309.803C377.339 311.683 372.028 313.695 370.244 314.657C366.51 316.624 360.204 330.705 358.918 332.323C358.254 333.154 355.35 338.664 352.445 344.786H368.501C370.202 341.725 371.489 339.32 371.489 339.32C371.489 339.32 372.484 341.681 373.729 344.786H425.175C426.005 341.2 426.503 336.652 426.503 336.652C426.503 336.652 429.241 340.588 432.27 344.786H447.081C443.471 338.445 438.991 330.137 437.248 325.152Z" fill="#292A66"/>
<path d="M402.273 262.794C402.273 262.794 413.931 264.718 412.147 283.959C410.363 303.156 400.074 301.581 399.41 301.581C398.705 301.581 389.079 301.931 388.333 278.493C388.333 278.449 388.001 261.132 402.273 262.794Z" fill="#EEA886"/>
<path d="M412.314 278.536C412.314 278.536 413.6 277.093 414.057 278.536C414.513 279.979 412.314 286.495 412.231 286.757C412.231 286.757 411.982 287.326 411.692 287.02C411.401 286.757 412.314 278.536 412.314 278.536Z" fill="#EEA886"/>
<path d="M388.622 278.274C388.622 278.274 387.378 276.831 386.88 278.274C386.382 279.717 388.456 286.233 388.539 286.539C388.539 286.539 388.747 287.107 389.079 286.801C389.411 286.495 388.622 278.274 388.622 278.274Z" fill="#EEA886"/>
<path d="M412.313 281.466L410.654 283.827C410.654 283.827 410.695 278.667 410.446 277.88C410.197 277.093 409.782 274.601 409.533 274.032C409.326 273.464 399.535 270.577 390.905 274.863C390.905 274.863 391.278 278.58 390.449 278.886C389.619 279.236 390.034 284.921 390.034 284.921L388.665 283.303C388.665 283.303 386.549 268.522 387.088 266.992C387.586 265.461 389.245 256.19 407.003 261.7C407.003 261.7 412.521 260.476 413.641 264.499C414.719 268.478 412.313 281.466 412.313 281.466Z" fill="#434343"/>
<path d="M409.368 305.605L407.875 304.817C407.169 303.112 407.709 295.897 407.709 295.897C407.709 295.897 392.856 291.917 393.312 294.978C393.727 298.039 392.026 305.08 392.026 305.08L384.434 309.059C384.434 309.059 392.565 332.017 401.859 329.043C411.194 326.07 414.72 308.228 414.72 308.228L409.368 305.605Z" fill="#EEA886"/>
<path d="M393.52 298.346C393.52 298.346 395.926 301.582 400.075 301.582C402.813 301.582 404.763 300.795 407.501 297.996C407.501 297.996 406.34 303.287 400.116 303.812C400.075 303.812 395.552 304.424 393.52 298.346Z" fill="#A77860"/>
<path d="M350.662 379.376C350.662 379.376 359.209 383.792 357.093 395.818C354.977 407.843 354.023 409.461 356.387 414.14C358.752 418.819 361.532 438.847 359.416 442.652C357.3 446.456 333.029 425.991 329.669 408.805C326.308 391.62 331.785 384.011 333.735 381.168C335.685 378.326 343.111 375.352 350.662 379.376Z" fill="#0E2D3D"/>
<path d="M347.425 658.061H349.375V648.397C349.375 648.397 353.192 651.065 355.557 654.782C357.963 658.498 361.241 658.149 366.219 657.93C371.239 657.711 370.99 655.569 370.534 652.595C370.078 649.622 365.016 648.66 363.356 648.178C361.697 647.697 358.004 640.919 356.801 639.302C355.183 637.071 354.312 634.885 354.312 634.885C354.312 634.885 353.399 630.862 348.752 634.885C344.106 638.908 345.475 646.604 345.973 647.304C346.471 648.004 347.425 658.061 347.425 658.061Z" fill="#163342"/>
<path d="M357.216 648.178C358.917 649.359 363.398 648.178 363.398 648.178C362.111 646.429 354.312 634.885 354.312 634.885C349.582 631.955 347.715 635.978 347.715 635.978C349.665 636.59 355.473 646.997 357.216 648.178Z" fill="#EEA886"/>
<path d="M407.127 470.245C407.127 470.245 410.239 470.857 411.276 469.326C412.189 468.014 414.221 467.009 414.885 466.703C415.715 466.309 417.872 463.991 418.412 465.128C418.91 466.265 415.051 469.108 414.346 469.851C413.641 470.638 418.163 470.944 418.951 471.688C419.739 472.431 418.785 480.302 415.715 479.69C412.645 479.078 409.741 476.279 409.201 476.279C408.62 476.279 406.961 475.929 406.961 475.929L407.127 470.245Z" fill="#EEA886"/>
<path d="M418.205 471.382C418.205 471.382 427.499 473.918 427.997 474.618C428.494 475.317 428.328 475.842 427.457 475.667C426.586 475.449 418.413 473.481 418.413 473.481C418.413 473.481 428.909 478.422 429.449 478.903C429.739 479.209 429.49 480.215 429.034 480.171C428.536 480.128 417.873 475.842 417.873 475.842C417.873 475.842 427.665 480.477 427.997 481.002C428.287 481.483 427.831 482.358 427.084 482.095C426.337 481.789 417.002 478.029 417.002 478.029C417.002 478.029 423.931 481.877 423.931 482.489C423.931 482.882 423.765 483.757 421.981 482.707C420.238 481.658 415.799 479.647 415.799 479.647L418.205 471.382Z" fill="#EEA886"/>
<path d="M322.284 658.717H323.487V651.633C323.487 651.633 325.603 653.95 326.599 657.318C327.553 660.685 331.038 661.691 336.349 661.559C341.659 661.384 341.742 659.198 341.286 655.875C340.829 652.551 336.349 650.846 336.349 650.846C334.316 648.965 329.337 641.138 329.337 641.138C329.337 641.138 326.142 640.219 323.612 642.362C321.081 644.505 321.869 649.359 321.952 650.583C321.994 651.895 322.284 658.717 322.284 658.717Z" fill="#163342"/>
<path d="M325.934 490.098C325.934 490.098 319.628 498.756 317.927 509.033C316.226 519.309 318.922 553.767 318.881 558.84C318.798 563.912 314.317 576.55 315.23 586.083C316.143 595.66 319.669 643.193 319.669 643.193L329.336 641.182C329.336 641.182 328.797 592.686 329.336 588.663C329.875 584.64 331.037 570.035 331.245 568.373C331.452 566.711 345.475 523.332 345.475 515.942C345.434 508.508 341.16 477.985 325.934 490.098Z" fill="#292A66"/>
<path d="M357.674 493.465C357.674 493.465 368.046 535.182 369.291 540.954C370.535 546.727 372.319 551.493 372.319 553.942C372.319 559.627 370.328 568.766 370.328 568.766L357.134 635.19H344.605C344.605 635.19 351.575 595.353 351.782 587.57C351.99 579.742 357.674 568.679 356.553 565.355C355.433 562.032 338.547 523.944 338.547 523.944C338.547 523.944 325.686 481.352 357.674 493.465Z" fill="#292A66"/>
<path d="M336.307 650.846L329.296 641.138L323.57 642.362C323.57 642.362 325.105 646.692 327.885 649.971C331.204 653.863 336.307 650.846 336.307 650.846Z" fill="#EEA886"/>
<path d="M353.4 422.536C353.4 422.536 357.673 422.973 360.909 426.603C364.145 430.232 367.174 436.092 368.004 438.016C368.834 439.984 380.699 458.001 381.322 458.394C381.944 458.788 387.919 460.887 391.86 462.286C397.959 464.429 410.198 469.152 410.198 469.152L407.75 477.241C407.75 477.241 384.765 469.326 378.998 467.84C371.945 466.003 355.765 444.095 355.765 444.095C355.765 444.095 343.692 429.183 353.4 422.536Z" fill="#00A7D8"/>
<path d="M345.933 419.388C345.933 419.388 351.492 422.143 353.4 422.537C355.309 422.93 362.777 433.163 364.105 436.88C365.432 440.597 364.105 446.194 361.408 452.753C358.711 459.313 361.242 461.499 360.039 468.102C358.794 474.662 359.209 499.237 359.416 502.91C359.665 506.54 323.404 512.094 316.227 505.447C316.227 505.447 321.081 483.32 326.806 476.979C328.051 475.624 327.926 466.484 327.055 464.21C326.225 461.936 316.683 444.97 316.683 444.97C316.683 444.97 315.978 427.784 320.127 424.373C323.736 421.4 333.61 420.35 335.353 419.694C337.137 419.082 342.282 418.82 345.933 419.388Z" fill="#EB5757"/>
<path d="M348.547 412.654C348.547 412.654 348.381 414.272 348.173 416.414C348.09 417.289 348.008 418.207 347.966 419.213C347.759 422.143 347.551 425.247 347.676 426.865C347.676 426.865 341.909 432.944 335.354 419.781C335.354 419.781 338.092 414.359 336.017 406.969C333.984 399.535 348.547 412.654 348.547 412.654Z" fill="#EEA886"/>
<path d="M364.684 455.202C364.684 455.202 366.053 445.494 364.601 439.591C364.601 439.591 364.601 444.663 361.945 451.879L364.684 455.202Z" fill="#183C59"/>
<path d="M330.955 420.7C330.955 420.7 334.897 433.031 345.808 432.113C356.678 431.195 350.953 421.705 350.953 421.705C350.953 421.705 348.256 420.087 347.468 419.913C346.721 419.738 335.436 419.606 335.436 419.606L330.955 420.7Z" fill="#EEA886"/>
<path d="M350.951 421.706C350.951 421.706 356.635 438.323 356.635 455.246C356.635 472.169 357.092 499.718 359.083 508.42C361.074 517.122 366.717 544.06 366.717 544.06L371.156 541.654C371.156 541.654 360.494 498.712 359.705 495.608C358.917 492.503 360.328 459.794 361.074 457.039C361.821 454.284 365.099 442.083 364.601 438.716C363.979 434.431 360.162 428.134 354.063 422.711L350.951 421.706Z" fill="#00A7D8"/>
<path d="M333.112 420.175C333.112 420.175 336.638 432.113 338.464 447.418C340.248 462.723 332.946 533.74 328.05 549.832L309.09 546.596C309.09 546.596 313.156 496.395 318.715 487.256C324.275 478.116 326.017 470.026 320.043 450.96C314.068 431.894 322.657 422.449 322.657 422.449C322.657 422.449 331.452 420.35 333.112 420.175Z" fill="#00A7D8"/>
<path d="M353.565 470.813L330.581 512.793L305.023 497.226L327.012 454.677L353.565 470.813Z" fill="#616161"/>
<path d="M350.786 472.256L330.374 509.557L307.68 495.739L327.221 457.913L350.786 472.256Z" fill="#E0CEC7"/>
<path d="M343.277 468.933L344.687 466.309L335.518 460.712L333.734 463.117L343.277 468.933Z" fill="#616161"/>
<path d="M342.157 498.713C342.157 498.713 341.12 498.713 340.664 498.494C340.664 498.494 339.875 498.013 339.253 497.707C339.046 497.619 338.88 497.532 338.797 497.488C338.34 497.313 337.262 497.095 336.224 496.351C335.229 495.608 331.619 491.235 331.619 491.235L333.32 488.524L334.565 485.725C334.565 485.725 342.116 486.25 343.153 486.818C343.236 486.862 343.36 486.949 343.443 486.993C344.273 487.561 344.647 488.349 345.061 488.698C345.227 488.83 346.555 490.229 346.514 490.841C346.431 491.672 346.099 492.241 345.601 492.503C345.601 492.503 345.393 494.121 344.647 494.864C344.647 494.864 344.522 496.351 343.319 497.007C343.319 496.963 343.028 498.494 342.157 498.713Z" fill="#EEA886"/>
<path d="M326.598 422.536C326.598 422.536 319.628 420.437 315.604 428.527C311.621 436.617 311.621 440.115 311.082 444.051C310.584 447.812 308.302 458.001 308.053 459.05C307.804 460.1 302.659 472.694 305.024 477.066C307.389 481.483 331.577 494.471 331.411 495.476C331.245 496.438 335.602 485.637 335.602 485.637C335.602 485.637 325.81 479.909 324.234 478.116C321.62 475.23 316.143 472.125 317.263 468.583C318.591 464.385 322.574 450.26 323.487 448.205C324.441 446.15 332.49 425.16 326.598 422.536Z" fill="#00A7D8"/>
<path d="M349.418 380.731C349.418 380.731 361.864 384.842 355.102 407.45C348.339 430.058 331.37 404.826 333.154 391.051C334.938 377.277 349.418 380.731 349.418 380.731Z" fill="#EEA987"/>
<path d="M356.388 393.894C356.388 393.894 350.206 400.279 339.876 401.066C339.876 401.066 335.893 405.964 335.602 407.888C335.602 407.888 326.392 391.314 337.718 381.388C349.045 371.505 360.537 389.828 356.388 393.894Z" fill="#0E2D3D"/>
<path d="M340 401.546C339.917 399.885 338.962 396.168 336.639 397.217C334.316 398.267 336.763 405.876 338.34 405.438C338.299 405.395 340.166 405.438 340 401.546Z" fill="#EEA987"/>
<path d="M348.214 416.414C348.131 417.289 348.048 418.207 348.007 419.213C348.007 419.213 342.53 418.863 338.838 410.249C339.045 410.642 343.07 416.852 348.214 416.414Z" fill="#A77860"/>
<path opacity="0.95" d="M576.983 310.502H498.611C491.433 310.502 485.625 304.38 485.625 296.815V225.1C485.625 217.534 491.433 211.412 498.611 211.412H576.983C584.161 211.412 589.969 217.534 589.969 225.1V296.771C590.011 304.38 584.161 310.502 576.983 310.502Z" fill="url(#paint3_linear)"/>
<path d="M541.551 291.742H533.295V293.361H541.551V291.742Z" fill="#4598E6"/>
<path d="M544.913 202.754C544.913 202.754 551.593 206.602 549.477 216.092C547.361 225.581 546.573 226.849 548.274 230.653C549.975 234.501 551.51 250.55 549.684 253.48C547.859 256.41 529.23 239.137 527.197 225.318C525.123 211.5 529.77 205.64 531.429 203.41C533.047 201.267 539.022 199.212 544.913 202.754Z" fill="#344052"/>
<path d="M557.442 281.204H550.306C549.974 277.487 549.643 274.907 549.726 274.513C549.85 273.901 542.631 253.961 541.967 252.299C541.303 250.637 538.648 246.221 538.316 242.066C537.984 237.912 543.129 236.207 543.129 236.207C550.099 237.519 552.422 247.664 552.422 247.664C552.422 247.664 555.326 268.216 556.82 273.988C557.11 275.475 557.318 278.099 557.442 281.204Z" fill="#EEA886"/>
<path d="M553.832 252.605L543.211 257.328C543.211 257.328 533.42 231.746 541.634 234.633C549.766 237.475 553.459 242.854 553.832 252.605Z" fill="#EB5757"/>
<path d="M551.467 264.674C551.177 267.21 549.891 276.219 550.181 278.624C550.223 279.017 550.389 279.936 550.637 281.204H524.997C525.661 278.624 526.284 276.35 526.657 275.038C527.902 270.665 526.698 269.528 526.076 266.03C525.827 264.674 524.956 262.094 524.043 259.164C523.711 258.202 523.421 257.153 523.089 256.147C521.969 252.474 521.429 248.713 521.098 246.483C519.562 236.075 527.155 235.07 527.155 235.07C529.976 234.501 534.913 232.927 534.913 232.927L542.63 234.632C542.63 234.632 543.377 234.939 544.414 235.769C544.912 236.163 545.534 236.688 546.157 237.387C546.987 238.306 548.688 240.929 550.347 243.772C550.845 244.646 551.384 245.565 551.841 246.439C553.417 249.282 554.537 251.599 554.496 254.223C554.454 256.759 551.758 262.138 551.467 264.674Z" fill="#EB5757"/>
<path d="M542.589 234.632C542.589 234.632 547.402 243.334 545.618 243.99C543.834 244.646 534.333 242.46 530.641 234.239C530.682 234.239 536.864 231.265 542.589 234.632Z" fill="#EEA886"/>
<path d="M541.925 238.612C541.925 238.612 537.652 240.536 533.752 234.239C533.752 234.239 534.789 227.067 532.59 222.957C530.391 218.802 542.257 227.898 542.257 227.898C542.257 227.898 542.05 228.773 541.884 229.997C541.801 230.653 541.676 231.397 541.593 232.184C541.51 232.84 541.469 233.539 541.469 234.239C541.344 235.857 541.469 237.475 541.925 238.612Z" fill="#EEA886"/>
<path d="M531.263 248.364C530.392 253.174 524.044 259.165 524.044 259.165C523.712 258.202 523.422 257.153 523.09 256.147C527.446 253.217 531.263 248.364 531.263 248.364Z" fill="#393D63"/>
<path d="M529.645 252.168C529.23 253.917 527.405 271.584 527.612 272.196C527.737 272.546 528.608 276.612 529.521 281.16H521.264C520.435 278.23 519.895 275.781 520.02 274.426C520.559 268.479 518.651 249.457 518.651 249.457C518.651 249.457 516.95 237.956 525.994 236.513C525.994 236.513 531.346 237.256 531.678 241.411C531.968 245.609 530.06 250.419 529.645 252.168Z" fill="#EEA886"/>
<path d="M517.945 254.617L529.188 257.372C529.188 257.372 538.108 239.137 530.06 235.813C521.637 232.315 515.912 244.69 517.945 254.617Z" fill="#EB5757"/>
<path d="M543.876 203.76C543.876 203.76 553.625 207.521 547.444 225.318C541.262 243.072 528.608 222.301 530.516 211.369C532.425 200.437 543.876 203.76 543.876 203.76Z" fill="#EEA987"/>
<path d="M548.937 214.561C548.937 214.561 543.792 219.415 535.494 219.634C535.494 219.634 533.544 224.619 533.254 226.106C533.254 226.106 525.081 211.325 534.457 203.848C543.875 196.414 552.422 211.457 548.937 214.561Z" fill="#344052"/>
<path d="M536.615 220.683C536.615 219.371 535.993 216.354 534.084 217.097C532.217 217.841 533.877 224.006 535.122 223.7C535.163 223.7 536.657 223.831 536.615 220.683Z" fill="#EEA987"/>
<path d="M541.427 233.933C536.822 232.577 535.079 227.986 534.996 227.811C538.73 232.883 541.551 232.184 541.551 232.184C541.468 232.883 541.468 233.277 541.427 233.933Z" fill="#A77860"/>
<path d="M562.627 229.341V230.916H571.464V239.661H572.958V229.341H562.627ZM502.676 239.661H504.169V230.916H513.006V229.341H502.676V239.661ZM571.423 284.702V293.448H562.586V295.022H572.916V284.702H571.423ZM504.169 284.702H502.676V295.022H513.006V293.448H504.169V284.702Z" fill="#00A7D8"/>
<path d="M406.175 365.776H395.139V367.919H406.175V365.776Z" fill="#4598E6"/>
<path d="M433.806 282.428V284.527H445.588V296.203H447.58V282.428H433.806ZM353.732 296.203H355.724V284.527H367.507V282.428H353.732V296.203ZM445.588 356.374V368.05H433.806V370.149H447.58V356.374H445.588ZM355.724 356.374H353.732V370.149H367.507V368.05H355.724V356.374Z" fill="#00A7D8"/>
<path d="M647.598 444.532H638.263C638.097 444.138 637.972 443.788 637.848 443.526C635.068 436.617 620.755 420.787 620.755 420.787C620.755 420.787 620.755 420.787 620.755 420.831C620.755 420.874 620.755 420.874 620.713 420.918C620.713 420.962 620.713 421.006 620.672 421.049C620.672 421.093 620.672 421.093 620.672 421.137C620.672 421.181 620.672 421.181 620.63 421.224C620.049 423.542 617.145 435.043 615.734 444.576H552.464C552.298 443.701 552.132 442.87 551.966 442.083C551.386 439.722 551.012 437.36 550.763 435.174C550.763 435.043 550.722 434.955 550.722 434.868C550.68 434.474 550.639 434.081 550.597 433.687C550.058 427.696 550.473 423.105 550.473 422.667C550.307 423.061 549.021 428.002 547.32 434.124C546.407 437.491 545.37 441.165 544.332 444.663H529.396L548.149 387.64C548.564 387.291 553.418 384.798 556.986 383.049C560.596 381.212 564.994 378.545 568.935 376.271C570.968 375.09 572.877 374.041 574.495 373.253L574.744 373.122C577.482 371.81 579.266 370.936 579.266 370.936C579.349 370.936 579.764 370.892 580.428 370.805C584.245 370.411 596.069 369.23 600.01 369.012C600.342 368.968 600.633 368.968 600.84 368.968C601.006 368.968 601.172 368.968 601.255 368.968C601.753 369.012 604.201 369.886 607.395 371.198C607.52 371.242 607.644 371.286 607.769 371.329C607.935 371.373 608.059 371.461 608.225 371.504C608.515 371.635 608.806 371.723 609.055 371.854C609.636 372.073 610.216 372.335 610.797 372.598C611.005 372.685 611.212 372.772 611.42 372.86C617.809 375.527 625.152 378.851 626.895 380.163C628.057 381.037 631.625 388.165 635.815 396.955C640.337 411.997 645.814 433.775 647.598 444.532Z" fill="#DECBC4"/>
<path d="M601.171 366.957C601.005 375.921 584.534 380.819 584.534 380.819C584.534 380.819 577.647 371.723 579.307 370.849C579.971 370.499 580.22 369.143 580.303 367.613C580.386 366.17 580.303 364.552 580.22 363.546C580.178 362.89 580.137 362.496 580.137 362.496C580.137 362.496 582.501 359.873 585.489 356.768C590.716 351.302 597.894 344.349 597.935 347.104C597.935 347.235 597.935 347.41 597.894 347.629C596.566 353.882 601.171 366.957 601.171 366.957Z" fill="#EEA886"/>
<path d="M594.824 353.794C594.782 353.838 594.077 354.931 592.915 356.549C590.384 359.916 585.655 365.426 580.303 367.612C580.386 366.169 580.303 364.551 580.22 363.546C579.68 363.546 579.141 363.458 578.602 363.327C580.054 360.616 582.17 357.817 582.17 357.817L585.489 356.768L594.824 353.794Z" fill="#A77860"/>
<path d="M597.976 347.235C596.565 350.515 595.196 352.876 594.822 353.794C594.574 354.407 593.91 355.412 592.914 356.549C590.217 359.61 585.156 363.677 580.177 363.546C579.638 363.546 579.098 363.458 578.559 363.327C576.567 362.846 574.203 361.884 572.875 359.217C562.586 338.008 570.054 320.692 570.054 320.692C570.054 320.692 598.142 312.339 602.539 321.216C605.61 327.469 601.336 339.539 597.976 347.235Z" fill="#EEA886"/>
<path d="M570.055 320.648C570.055 320.648 567.441 320.516 566.818 315.269C566.196 310.109 567.482 308.71 567.482 308.71C567.482 308.71 579.099 303.593 583.248 302.937C587.397 302.281 597.645 301.625 600.051 304.512C600.051 304.512 605.901 303.069 607.477 313.301C610.008 329.481 598.889 345.223 598.889 345.223C598.889 345.223 598.972 334.641 596.773 333.241C594.574 331.842 592.666 335.166 592.666 335.166L588.144 336.04C588.144 336.04 595.031 320.385 586.775 319.817C578.477 319.205 574.784 321.566 570.055 320.648Z" fill="#E8734D"/>
<path d="M592.748 330.968C593.163 326.289 601.17 324.539 600.631 329.393C600.091 334.291 596.15 338.97 594.324 338.795C592.499 338.664 592.416 334.51 592.748 330.968Z" fill="#EEA886"/>
<path d="M639.548 397.305C636.934 388.515 634.694 381.562 633.698 380.819C631.956 379.507 618.099 375.484 611.502 372.773C611.294 372.685 611.087 372.598 610.879 372.51C610.299 372.248 609.676 372.029 609.137 371.767C608.847 371.636 608.556 371.548 608.307 371.417C608.141 371.373 608.017 371.286 607.851 371.242C607.726 371.198 607.602 371.155 607.477 371.111C607.477 371.111 607.477 371.155 607.436 371.155C606.855 371.854 603.826 375.484 600.175 380.95C593.371 391.139 584.493 407.668 585.862 422.886C586.318 427.784 586.858 434.78 587.729 442.695C587.812 443.308 587.853 443.964 587.936 444.576H618.638C619.011 436.311 619.675 425.466 620.671 421.224C620.671 421.181 620.671 421.181 620.712 421.137C620.712 421.093 620.712 421.093 620.712 421.049C620.712 421.006 620.754 420.962 620.754 420.918C620.754 420.875 620.754 420.875 620.795 420.831C620.795 420.831 628.222 433.075 628.595 444.532H647.929C646.975 433.906 643.987 412.391 639.548 397.305Z" fill="#3C4145"/>
<path d="M574.618 373.254C574.618 373.254 572.295 381.387 569.308 401.678C569.183 402.377 569.1 403.033 569.017 403.777C569.017 403.864 568.976 403.951 568.976 404.039C568.893 404.52 568.851 405.001 568.768 405.482C568.768 405.526 568.768 405.613 568.727 405.657C568.685 405.963 568.644 406.313 568.602 406.619C568.478 407.406 568.395 408.237 568.27 409.068C567.15 417.332 565.657 430.539 564.121 444.576H552.007C551.343 440.684 550.721 437.142 550.762 434.693C550.721 434.737 550.721 434.824 550.721 434.868C549.766 437.71 548.688 440.771 547.609 443.789C547.526 444.051 547.401 444.357 547.318 444.619H526.408L547.236 387.16C547.65 386.81 553.002 383.792 556.57 381.999C560.263 380.119 564.951 377.845 569.1 375.834C571.092 374.872 572.959 373.953 574.535 373.21L574.618 373.254Z" fill="#3C4145"/>
<path d="M602.871 393.325L594.864 398.092L598.307 401.765L590.798 444.532H587.977C586.94 435.873 586.359 428.133 585.861 422.842C583.786 399.272 606.066 372.685 607.477 371.067C608.555 371.504 609.717 371.985 610.92 372.466L602.871 393.325Z" fill="#51565C"/>
<path d="M574.742 373.035C574.742 373.035 571.755 383.355 568.269 409.068C567.149 417.333 565.656 430.539 564.121 444.576H562.959L561.424 404.17L565.241 399.797L561.839 395.337L569.099 375.79C571.091 374.828 572.958 373.91 574.534 373.166L574.742 373.035Z" fill="#51565C"/>
<path d="M607.81 371.198L601.172 366.957C601.172 366.957 601.006 370.805 584.535 380.819L589.223 394.681L607.81 371.198Z" fill="#F5E2D9"/>
<path d="M580.177 368.881C580.177 368.881 580.426 373.035 584.533 380.819L575.406 393.369L574.742 373.035L580.177 368.881Z" fill="#F5E2D9"/>
<path d="M584.575 380.819C584.575 380.819 586.359 388.253 585.695 390.352C585.695 390.352 581.795 391.839 579.016 389.958C579.016 389.958 581.007 384.754 584.575 380.819Z" fill="#EB5757"/>
<path d="M582.418 406.138C580.551 419.519 580.551 433.075 581.257 444.532H573.457C573.332 442.914 573.249 441.208 573.166 439.459C571.714 412.96 580.593 389.302 580.593 389.302L584.576 388.253C584.576 388.253 583.29 399.972 582.418 406.138Z" fill="#EB5757"/>
<path d="M551.011 422.667C550.72 429.008 550.762 434.693 550.762 434.693C550.762 434.736 550.762 434.911 550.72 435.174C550.72 435.086 550.679 434.955 550.679 434.868C549.725 437.71 548.646 440.771 547.567 443.788C547.318 440.334 547.235 437.098 547.318 434.08C547.733 416.239 553.085 406.925 553.085 406.925C551.882 409.942 551.301 416.632 551.011 422.667Z" fill="#2D3133"/>
<path d="M478.197 444.619L453.346 459.05L428.328 417.595L458.573 406.531L478.197 444.619Z" fill="#292C47"/>
<path d="M476.622 443.395L453.346 456.864L429.988 418.12L458.242 407.756L476.622 443.395Z" fill="white"/>
<path d="M485.168 436.136C485.168 436.136 480.853 433.95 478.944 432.813C477.036 431.676 472.14 430.101 471.767 429.752C471.352 429.358 457.287 428.483 456.416 427.696C455.545 426.909 454.715 429.533 458.366 430.364C462.017 431.195 467.12 433.25 467.369 434.78C467.659 436.267 463.635 436.661 463.22 437.885C462.805 439.11 463.345 438.847 463.925 439.11C464.506 439.372 468.738 436.923 470.564 437.623C472.431 438.323 475.252 437.361 476.663 437.885C478.073 438.41 485.002 440.859 485.002 440.859L485.168 436.136Z" fill="#EEA886"/>
<path d="M452.1 453.846C452.1 453.846 448.449 450.392 446.707 448.949C444.964 447.505 441.645 443.264 441.147 443.001C440.65 442.739 434.343 429.095 433.306 428.571C432.269 428.002 434.26 426.166 436.459 429.489C438.617 432.812 442.475 437.054 443.927 436.748C445.379 436.442 444.135 432.288 445.089 431.413C446.043 430.539 446.002 431.151 446.458 431.632C446.914 432.113 446.375 437.229 447.703 438.803C449.03 440.378 449.279 443.57 450.316 444.794C451.312 446.019 456.208 451.922 456.208 451.922L452.1 453.846Z" fill="#EEA886"/>
<path d="M530.473 638.339C530.473 638.339 531.261 644.111 531.344 644.942C531.427 645.817 540.098 644.417 540.098 644.417L540.803 637.552C540.803 637.596 531.551 637.552 530.473 638.339Z" fill="#424773"/>
<path d="M531.261 644.243C531.261 644.243 528.523 647.697 525.868 649.228C523.212 650.758 519.063 651.327 517.487 652.901C516.367 654.038 513.379 658.892 524.374 658.804C535.41 658.717 540.72 659.504 541.882 657.624C543.044 655.743 540.181 643.849 540.181 643.849C540.181 643.849 537.567 644.855 531.261 644.243Z" fill="#292C47"/>
<path d="M468.447 638.339C468.447 638.339 469.236 644.111 469.319 644.942C469.401 645.817 478.073 644.417 478.073 644.417L478.778 637.552C478.778 637.596 469.526 637.552 468.447 638.339Z" fill="#424773"/>
<path d="M469.236 644.243C469.236 644.243 466.497 647.697 463.842 649.228C461.187 650.758 451.437 651.983 449.86 653.557C448.74 654.694 446.832 659.242 462.349 658.804C473.343 658.498 478.695 659.504 479.857 657.624C481.018 655.743 478.156 643.849 478.156 643.849C478.156 643.849 475.708 644.899 469.236 644.243Z" fill="#292C47"/>
<path d="M523.295 490.36C523.295 490.36 531.427 504.004 530.804 516.291C530.182 528.623 533.75 542.048 534.995 554.904C536.364 569.247 541.923 603.181 542.131 610.878C542.338 618.53 541.26 643.062 541.26 643.062L530.099 643.324C530.099 643.324 520.723 583.984 518.316 577.906C515.868 571.871 503.837 528.667 503.463 523.813C503.048 519.003 523.295 490.36 523.295 490.36Z" fill="#292A66"/>
<path d="M480.478 492.24C480.478 492.24 474.338 525.999 473.55 533.521C472.72 541.042 472.181 569.991 471.807 574.714C471.392 579.436 469.111 636.372 466.953 643.368H481.225C481.225 643.368 492.178 602.001 492.178 582.41C492.178 562.819 500.642 539.861 506.118 526.918C511.595 514.017 524.083 513.711 527.444 489.704C527.402 489.66 485.042 484.631 480.478 492.24Z" fill="#292A66"/>
<path d="M509.729 375.834C509.729 375.834 498.818 371.549 493.756 380.295C488.736 389.041 489.192 406.576 494.71 408.762C500.228 410.905 508.485 409.812 511.306 404.302C514.127 398.836 516.658 390.877 516.533 385.586C516.45 380.295 512.592 377.365 509.729 375.834Z" fill="#EEA886"/>
<path d="M495.913 409.155C495.913 409.155 496.37 412.26 495.623 413.79C494.876 415.321 509.77 415.365 509.77 415.365C509.77 415.365 510.974 407.056 513.256 400.016C515.579 392.976 495.913 409.155 495.913 409.155Z" fill="#EEA886"/>
<path d="M513.255 400.016C513.255 400.016 512.218 401.809 508.028 401.109C503.837 400.409 498.693 394.549 496.95 393.894C495.208 393.238 495.166 392.144 495.166 392.144L494.087 393.85L492.22 393.981C492.22 393.981 493.921 388.733 491.349 386.591C488.777 384.448 494.004 369.536 507.488 374.521C507.488 374.521 517.819 377.539 517.445 383.705C517.114 389.87 515.579 396.911 513.255 400.016Z" fill="#3A3F47"/>
<path d="M494.752 413.616C494.752 413.616 494.793 410.686 496.038 410.423C497.283 410.161 509.937 408.849 511.472 409.505V412.916C511.472 412.916 508.485 414.84 494.752 413.616Z" fill="#E2D2CA"/>
<path d="M495.499 389.915C495.748 388.865 498.237 385.891 499.191 389.084C500.145 392.276 497.739 396.561 496.411 396.168C495.042 395.774 494.876 392.538 495.499 389.915Z" fill="#EEA886"/>
<path d="M444.634 448.161C444.592 448.207 444.551 448.207 444.634 448.161V448.161Z" fill="#323657"/>
<path d="M532.507 522.807C532.507 522.807 525.828 524.906 514.377 526.218C502.967 527.53 474.423 525.737 474.257 524.338C474.091 522.895 480.398 471.382 480.024 468.758C479.651 466.091 479.485 456.645 479.485 456.645C479.36 459.225 476.829 469.808 473.801 475.58C472.722 477.679 469.03 484.194 467.287 482.708C458.74 475.536 445.506 448.424 444.676 448.162C445.381 447.856 450.941 445.144 451.729 444.882C452.393 444.62 458.574 451.529 462.308 455.771C463.968 457.651 465.171 459.05 465.171 459.05C466.25 456.47 470.191 440.378 471.394 434.781C474.133 422.187 473.718 421.662 473.718 421.662C482.057 418.994 494.753 413.572 494.753 413.572L511.473 412.872C511.473 412.872 526.823 416.414 532.881 419.3C533.462 419.563 533.462 433.731 535.038 437.448L530.018 448.599C530.018 448.599 527.114 470.682 526.533 480.521C526.242 485.069 532.507 522.807 532.507 522.807Z" fill="#EB5757"/>
<path d="M535.742 455.902C535.286 457.388 533.336 458.657 532.05 459.181C531.22 459.531 530.307 459.662 529.353 459.444L528.689 459.313L517.238 457.082C517.238 457.082 514.749 426.647 532.921 419.344C533.377 419.519 539.725 442.258 535.742 455.902Z" fill="#EB5757"/>
<path d="M532.009 459.181C531.179 459.531 530.267 459.662 529.312 459.487L528.648 459.356L529.769 443.789L532.009 459.181Z" fill="#EB5757"/>
<path d="M465.128 459.05L463.717 465.303C463.717 465.303 462.182 459.006 462.265 455.771C463.966 457.695 465.128 459.05 465.128 459.05Z" fill="#AB9546"/>
<path d="M512.84 376.883C512.84 376.883 527.153 375.003 513.089 400.191L512.84 376.883Z" fill="#3A3F47"/>
<path d="M439.863 415.365L438.369 412.741L449.862 408.587L451.314 411.211L439.863 415.365Z" fill="#292C47"/>
</g>
<defs>
<linearGradient id="paint0_linear" x1="410.803" y1="535.53" x2="398.485" y2="323.702" gradientUnits="userSpaceOnUse">
<stop stop-color="#D1D7E0"/>
<stop offset="1" stop-color="#EBEBFF"/>
</linearGradient>
<linearGradient id="paint1_linear" x1="592.248" y1="594.606" x2="592.248" y2="376.452" gradientUnits="userSpaceOnUse">
<stop stop-color="#D1D7E0"/>
<stop offset="1" stop-color="#EBEBFF"/>
</linearGradient>
<linearGradient id="paint2_linear" x1="400.658" y1="459.89" x2="400.658" y2="300.375" gradientUnits="userSpaceOnUse">
<stop stop-color="#D1D7E0"/>
<stop offset="1" stop-color="#EBEBFF"/>
</linearGradient>
<linearGradient id="paint3_linear" x1="537.812" y1="325.033" x2="537.812" y2="235.176" gradientUnits="userSpaceOnUse">
<stop stop-color="#D1D7E0"/>
<stop offset="1" stop-color="#EBEBFF"/>
</linearGradient>
</defs>
</svg>
