<svg width="87" height="91" viewBox="0 0 87 91" fill="none" xmlns="http://www.w3.org/2000/svg">
<path d="M33.6545 90.9999C52.2414 90.9999 67.3091 88.3391 67.3091 85.0568C67.3091 81.7746 52.2414 79.1138 33.6545 79.1138C15.0677 79.1138 0 81.7746 0 85.0568C0 88.3391 15.0677 90.9999 33.6545 90.9999Z" fill="#3F3D56"/>
<path d="M54.1097 65.7555C72.2748 65.7555 87.0006 51.0357 87.0006 32.8778C87.0006 14.7199 72.2748 0 54.1097 0C35.9445 0 21.2188 14.7199 21.2188 32.8778C21.2188 51.0357 35.9445 65.7555 54.1097 65.7555Z" fill="#3F3D56"/>
<path opacity="0.05" d="M54.1095 60.0194C69.1054 60.0194 81.262 47.8677 81.262 32.8777C81.262 17.8878 69.1054 5.73608 54.1095 5.73608C39.1136 5.73608 26.957 17.8878 26.957 32.8777C26.957 47.8677 39.1136 60.0194 54.1095 60.0194Z" fill="black"/>
<path opacity="0.05" d="M54.1093 55.1227C66.3998 55.1227 76.3632 45.1633 76.3632 32.8778C76.3632 20.5922 66.3998 10.6328 54.1093 10.6328C41.8189 10.6328 31.8555 20.5922 31.8555 32.8778C31.8555 45.1633 41.8189 55.1227 54.1093 55.1227Z" fill="black"/>
<path opacity="0.05" d="M54.1099 48.8271C62.9219 48.8271 70.0655 41.6864 70.0655 32.8779C70.0655 24.0694 62.9219 16.9287 54.1099 16.9287C45.2979 16.9287 38.1543 24.0694 38.1543 32.8779C38.1543 41.6864 45.2979 48.8271 54.1099 48.8271Z" fill="black"/>
<path d="M21.5103 35.8201C21.5103 35.8201 18.9245 43.0959 20.0737 45.6808C21.223 48.2656 23.0427 50.7548 23.0427 50.7548C23.0427 50.7548 22.3723 36.2987 21.5103 35.8201Z" fill="#D0CDE1"/>
<path opacity="0.1" d="M21.5103 35.8201C21.5103 35.8201 18.9245 43.0959 20.0737 45.6808C21.223 48.2656 23.0427 50.7548 23.0427 50.7548C23.0427 50.7548 22.3723 36.2987 21.5103 35.8201Z" fill="black"/>
<path d="M23.3292 52.6697C23.3292 52.6697 23.1376 54.4887 23.0419 54.5844C22.9461 54.6802 23.1376 54.8716 23.0419 55.1589C22.9461 55.4461 22.8503 55.829 23.0419 55.9247C23.2334 56.0205 21.9884 64.4452 21.9884 64.4452C21.9884 64.4452 18.9236 68.4661 20.1687 74.7846L20.5517 81.1989C20.5517 81.1989 23.5207 81.3903 23.5207 80.3372C23.5207 80.3372 23.3292 79.0927 23.3292 78.5183C23.3292 77.9438 23.808 77.9438 23.5207 77.6566C23.2334 77.3694 23.2334 77.178 23.2334 77.178C23.2334 77.178 23.7123 76.795 23.6165 76.6993C23.5207 76.6036 24.4785 69.8064 24.4785 69.8064C24.4785 69.8064 25.532 68.7533 25.532 68.1789V67.6044C25.532 67.6044 26.0108 66.3599 26.0108 66.2641C26.0108 66.1684 28.5967 60.3286 28.5967 60.3286L29.6502 64.5409L30.7995 70.5722C30.7995 70.5722 31.3742 76.0291 32.5234 78.1353C32.5234 78.1353 34.5347 85.0283 34.5347 84.8368C34.5347 84.6453 37.8867 84.1666 37.791 83.305C37.6952 82.4434 35.7797 70.3808 35.7797 70.3808L36.2586 52.4783L23.3292 52.6697Z" fill="#2F2E41"/>
<path d="M20.7436 80.7199C20.7436 80.7199 18.1577 85.7939 19.8817 85.9853C21.6056 86.1768 22.276 86.1768 23.0422 85.4109C23.4611 84.9922 24.3093 84.4304 24.9923 84.0072C25.3969 83.7604 25.7238 83.4046 25.9355 82.9807C26.1471 82.5567 26.2349 82.0817 26.1889 81.6101C26.1384 81.1417 25.9633 80.7558 25.5323 80.7199C24.383 80.6241 23.0422 79.571 23.0422 79.571L20.7436 80.7199Z" fill="#2F2E41"/>
<path d="M35.0132 84.4535C35.0132 84.4535 32.4273 89.5275 34.1512 89.719C35.8751 89.9104 36.5455 89.9104 37.3117 89.1446C37.7306 88.7258 38.5788 88.1641 39.2618 87.7408C39.6664 87.494 39.9933 87.1383 40.205 86.7143C40.4166 86.2903 40.5045 85.8153 40.4584 85.3437C40.4079 84.8754 40.2328 84.4894 39.8018 84.4535C38.6525 84.3578 37.3117 83.3047 37.3117 83.3047L35.0132 84.4535Z" fill="#2F2E41"/>
<path d="M32.2799 27.5165C34.5033 27.5165 36.3058 25.7147 36.3058 23.4921C36.3058 21.2695 34.5033 19.4678 32.2799 19.4678C30.0564 19.4678 28.2539 21.2695 28.2539 23.4921C28.2539 25.7147 30.0564 27.5165 32.2799 27.5165Z" fill="#FFB8B8"/>
<path d="M29.693 24.8147C29.693 24.8147 26.8173 30.1038 26.5872 30.1038C26.3572 30.1038 31.7634 31.8286 31.7634 31.8286C31.7634 31.8286 33.2588 26.7694 33.4889 26.3095L29.693 24.8147Z" fill="#FFB8B8"/>
<path d="M34.1024 30.6025C34.1024 30.6025 28.356 27.4433 27.7813 27.539C27.2067 27.6347 21.0772 32.9959 21.173 35.1978C21.2688 37.3997 22.0349 41.0377 22.0349 41.0377C22.0349 41.0377 22.3223 51.1856 22.8969 51.2813C23.4715 51.3771 22.8011 53.1003 22.9927 53.1003C23.1842 53.1003 36.401 53.1003 36.4967 52.8131C36.5925 52.5259 34.1024 30.6025 34.1024 30.6025Z" fill="#D0CDE1"/>
<path d="M37.312 53.3396C37.312 53.3396 39.1317 58.8923 37.5993 58.7008C36.0669 58.5093 35.3965 53.914 35.3965 53.914L37.312 53.3396Z" fill="#FFB8B8"/>
<path d="M32.4285 30.2676C32.4285 30.2676 28.8849 31.0335 29.4595 35.8202C30.0342 40.607 31.0877 45.3938 31.0877 45.3938L34.6313 53.1483L35.0144 54.5844L37.6003 53.9142L35.6848 42.8089C35.6848 42.8089 35.0144 30.9377 34.1524 30.5548C33.6089 30.3232 33.0178 30.2247 32.4285 30.2676Z" fill="#D0CDE1"/>
<path opacity="0.1" d="M30.2734 45.2502L34.6791 53.1004L30.9673 44.8284L30.2734 45.2502Z" fill="black"/>
<path d="M36.2887 22.3076L36.3021 22.0001L36.9141 22.1523C36.9075 22.0536 36.8796 21.9575 36.8323 21.8706C36.7849 21.7837 36.7193 21.7081 36.6398 21.6491L37.2917 21.6126C36.7447 20.8356 36.0458 20.1774 35.2372 19.6779C34.4287 19.1784 33.5272 18.8479 32.5873 18.7064C31.1772 18.5021 29.6071 18.7977 28.6401 19.8438C28.1711 20.3512 27.8764 20.9964 27.6668 21.6547C27.2807 22.8671 27.202 24.3124 28.0071 25.2979C28.8254 26.2995 30.2546 26.4958 31.5423 26.6197C31.9954 26.6633 32.4702 26.7039 32.8901 26.5282C32.9368 26.0468 32.8752 25.561 32.7096 25.1066C32.6407 24.9659 32.6078 24.8103 32.6138 24.6537C32.671 24.2708 33.182 24.1743 33.5659 24.2261C33.9497 24.2778 34.4113 24.357 34.6636 24.0631C34.8373 23.8607 34.827 23.566 34.8501 23.3002C34.9127 22.5769 36.2822 22.4593 36.2887 22.3076Z" fill="#2F2E41"/>
<path d="M60.9819 85.8746C63.5726 85.8746 65.6728 83.7753 65.6728 81.1856C65.6728 78.5959 63.5726 76.4966 60.9819 76.4966C58.3912 76.4966 56.291 78.5959 56.291 81.1856C56.291 83.7753 58.3912 85.8746 60.9819 85.8746Z" fill="#EB5757"/>
<path d="M5.89013 84.2392C8.48085 84.2392 10.581 82.1398 10.581 79.5501C10.581 76.9604 8.48085 74.8611 5.89013 74.8611C3.29941 74.8611 1.19922 76.9604 1.19922 79.5501C1.19922 82.1398 3.29941 84.2392 5.89013 84.2392Z" fill="#EB5757"/>
<path d="M5.88963 76.7148C7.75736 76.7148 9.27145 75.2013 9.27145 73.3343C9.27145 71.4673 7.75736 69.9539 5.88963 69.9539C4.0219 69.9539 2.50781 71.4673 2.50781 73.3343C2.50781 75.2013 4.0219 76.7148 5.88963 76.7148Z" fill="#EB5757"/>
<path d="M5.89023 70.4993C7.21572 70.4993 8.29023 69.4252 8.29023 68.1002C8.29023 66.7753 7.21572 65.7012 5.89023 65.7012C4.56475 65.7012 3.49023 66.7753 3.49023 68.1002C3.49023 69.4252 4.56475 70.4993 5.89023 70.4993Z" fill="#EB5757"/>
</svg>
