<svg width="89" height="75" viewBox="0 0 89 75" fill="none" xmlns="http://www.w3.org/2000/svg">
<g clip-path="url(#clip0)">
<path opacity="0.1" d="M30.2617 2.87575C33.1047 0.353101 37.5648 -0.161311 41.6256 0.0398653C54.3791 0.670748 65.8927 6.80487 75.8475 13.7428C79.453 16.254 83.0019 18.961 85.3418 22.4199C90.1049 29.461 88.6922 39.2155 82.0648 45.016C79.8117 46.989 77.0795 48.5022 74.271 49.8434C69.2839 52.2257 63.9035 54.1422 58.2406 54.6875C54.2046 55.0757 50.1191 54.7599 46.107 54.2181C34.8963 52.7031 23.892 49.3537 14.6661 43.6237C10.6204 41.1099 6.80764 37.9855 5.14082 33.9178C3.47401 29.8502 4.55452 24.706 8.68524 22.2946C10.3937 21.2993 12.436 20.8493 14.4358 20.4275C17.3789 19.8099 20.3697 19.1922 23.0267 17.9305C25.7723 16.6263 29.0191 14.1028 28.4762 11.2149C27.8925 8.11781 27.4276 5.39575 30.2617 2.87575Z" fill="#EB5757"/>
<path d="M46.9006 75.0003C70.1517 75.0003 89.0005 72.1145 89.0005 68.5547C89.0005 64.9949 70.1517 62.1091 46.9006 62.1091C23.6495 62.1091 4.80078 64.9949 4.80078 68.5547C4.80078 72.1145 23.6495 75.0003 46.9006 75.0003Z" fill="#EB5757"/>
<path d="M69.4661 46.9853C69.4661 46.9853 68.9259 46.8221 68.2076 46.6165C67.8938 46.4516 67.5485 46.3548 67.1944 46.3324C66.3469 46.1003 65.4762 45.8798 65.0051 45.8109C63.89 45.6477 61.9212 45.0283 61.9212 45.0283C61.1666 45.0936 60.3793 44.5386 60.3793 44.5386C60.3793 44.5386 59.5654 43.0703 59.0924 42.7474C59.0739 42.7334 59.054 42.7213 59.0331 42.7112C58.9666 42.6727 58.9043 42.6275 58.8471 42.5762C58.3609 40.9968 57.2989 40.8998 57.244 40.8945C57.0386 40.6624 56.8526 40.4489 56.7126 40.283C57.26 37.3342 58.8976 34.0421 62.6607 31.2592C62.6607 31.2592 64.8961 28.6527 63.5969 25.6368C62.2976 22.6209 61.9336 22.5706 59.7 23.1327L54.6508 25.5353C54.6508 25.5353 53.2267 25.8724 50.4616 26.0277C50.2314 25.568 49.8736 25.1877 49.382 25.0695C48.3458 24.8206 47.4424 25.9015 46.4478 25.6042C45.6888 25.3774 44.7722 24.4853 44.0264 25.3492C43.921 25.4709 43.8493 25.6201 43.7501 25.7453C43.6801 25.8308 43.5977 25.9055 43.5057 25.9668C41.8105 25.8556 39.9285 25.6703 37.864 25.3818L33.395 22.7242C33.395 22.7242 30.6406 21.4465 30.5369 24.8198C30.4333 28.193 30.1729 29.7768 31.3677 30.6971C32.2339 31.3633 35.0627 35.9189 36.1219 39.8356C35.966 40.058 35.8695 40.1983 35.8695 40.1983C35.8695 40.1983 32.8503 44.2774 32.6209 44.3753C32.6058 44.3815 32.5996 44.4036 32.6005 44.4371C32.5562 44.5324 32.4234 44.715 31.9974 44.8324C31.4067 44.9956 28.7825 45.7783 28.4211 45.7783C28.0598 45.7783 26.4204 45.8762 26.2557 46.5292C26.3593 46.5241 26.4632 46.5262 26.5665 46.5353L26.4877 46.6351C26.0396 47.2086 25.285 48.2771 25.2389 49.0086C25.1725 50.0524 25.4683 53.2827 27.175 53.2501C28.8816 53.2174 28.0934 48.4218 28.0934 48.4218L28.2936 47.8359L28.2989 47.8218L28.437 48.7862C28.4672 48.7695 28.4964 48.7527 28.5256 48.7386C28.6806 49.208 29.243 49.6677 30.8336 49.6995C30.8336 49.6995 33.294 49.928 35.1318 53.5818C36.7995 56.8995 42.3348 59.9745 46.385 59.9515V65.3277L45.8279 65.4909L38.5947 65.6145C38.4742 65.6161 38.3589 65.6635 38.2724 65.747C38.1858 65.8305 38.1345 65.9437 38.1288 66.0636L38.0845 66.9918L40.1818 67.1886L33.6545 68.7548C33.6545 68.7548 32.5031 68.6568 32.7024 70.2883H34.3107L34.3435 69.9618L47.4017 69.0486L48.1572 69.2356C48.0518 69.7853 47.9455 70.2336 47.918 70.3509L47.9101 70.3809C47.9101 70.3809 47.9101 70.4021 47.8994 70.4409C47.8224 70.4145 47.779 70.3968 47.779 70.3968C47.6019 70.598 47.5 72.6971 47.4841 72.9098C47.4681 73.1224 48.3042 73.3783 48.3042 73.3783C48.6832 73.5168 50.1543 73.3783 50.1543 73.3783C50.6405 73.3501 51.9451 72.8948 51.9451 72.8948L51.83 70.5945C51.7733 70.613 51.7166 70.6298 51.6599 70.6456C51.6635 70.6133 51.667 70.5798 51.6706 70.5451C51.6821 70.4101 51.6918 70.2653 51.7007 70.1162L57.5407 71.5589H57.7046V71.8527H59.5096C59.5096 71.8527 59.6734 70.613 59.0171 70.2212C58.3609 69.8295 54.9156 68.4918 54.9156 68.4918L55.7411 68.4142L59.0313 68.1027C59.0313 68.1609 59.0313 68.1909 59.0313 68.1909H59.5228L59.5122 68.0542L60.4253 67.9659L61.5076 67.9986C61.5076 67.9986 61.4748 66.6283 60.6547 66.5303C60.513 66.5127 60.0471 66.4659 59.3758 66.3989L59.1624 63.8162C59.6858 62.9339 61.0329 65.6101 61.0329 65.6101C61.0329 65.6101 61.0382 65.6303 61.0462 65.6639C61.1108 65.9383 61.4128 67.1639 61.6174 67.3042H61.6236C61.7379 67.366 61.8562 67.42 61.9779 67.4656C62.5082 67.6613 63.06 67.7931 63.6217 67.8583C64.6721 67.9898 66.9686 67.3042 67.4008 67.0756C67.4727 67.0393 67.5357 66.9874 67.585 66.9239C67.7311 66.7174 67.5593 66.4942 67.5593 66.4942L67.0979 66.4474C67.5035 66.2648 67.5815 65.5862 66.8242 65.4574C66.795 65.4521 66.7649 65.4486 66.7357 65.4451C66.7749 65.3782 66.8206 65.3152 66.872 65.2571C66.4779 65.3321 65.4275 64.8574 65.4275 64.8574C65.2759 64.7922 65.1181 64.7425 64.9564 64.7092L64.9449 64.6889C64.9289 64.6598 64.9139 64.6298 64.8997 64.6006C64.673 64.1268 64.587 63.5418 64.5091 63.1006C64.3453 62.1539 62.426 58.5001 62.426 58.5001C62.426 58.5001 61.7574 56.9789 61.1861 55.3642C61.8654 54.7862 62.3897 54.1403 62.6917 53.423L63.255 52.5601C63.6308 52.0812 63.9642 51.5708 64.2514 51.0345L64.8244 50.1574C65.8925 50.0798 67.6488 49.958 68.5513 49.9289C68.8099 51.3256 69.1234 52.9439 69.2651 53.3833C69.5308 54.1995 70.8735 53.2527 71.3978 51.1651C71.9221 49.0774 69.4661 46.9853 69.4661 46.9853ZM49.2386 64.1992V59.6109C49.5193 59.5668 49.8284 59.5148 50.1605 59.4556C49.9621 60.6265 49.7177 61.6977 49.7177 61.6977C49.7389 62.2703 49.4166 63.5445 49.2386 64.1992ZM59.7487 62.7548L59.9187 62.8112C60.1926 62.9073 60.4401 63.066 60.6414 63.2745C60.3599 63.0752 60.0611 62.9013 59.7487 62.7548ZM58.7045 58.5362C58.7045 58.5362 59.0986 59.2871 58.3113 60.5268C57.7205 61.4568 58.0712 62.0021 58.9215 62.423C58.6417 62.3271 58.3559 62.2495 58.0659 62.1909L58.1076 62.2148C57.415 62.0639 57.7533 62.6798 57.7533 62.6798C58.4414 63.3451 58.7603 65.0259 58.9046 66.3592C57.0979 66.1827 54.2585 65.9065 51.9637 65.6859C52.003 65.4579 52.029 65.2278 52.0417 64.9968C52.0417 64.6051 52.4686 63.0715 52.4686 63.0715C52.4686 63.0715 53.6952 60.2259 54.3718 58.5124C55.6517 58.1646 56.9052 57.7264 58.1226 57.2012C58.4388 57.8921 58.7045 58.5362 58.7045 58.5362Z" fill="url(#paint0_linear)"/>
<path d="M49.2818 58.8203H46.4609V66.8647H49.2818V58.8203Z" fill="#EB5757"/>
<path opacity="0.3" d="M49.2818 58.8203H46.4609V66.8647H49.2818V58.8203Z" fill="black"/>
<path d="M38.3003 65.9452L38.256 66.8646L40.332 67.0588L33.8782 68.6099C33.8782 68.6099 32.7437 68.5129 32.9385 70.1285H34.5274L34.5593 69.8055L47.466 68.9002L57.4864 71.3885H57.6484V71.6788H59.4321C59.4321 71.6788 59.5942 70.4514 58.945 70.0641C58.2958 69.6767 54.8923 68.3514 54.8923 68.3514L60.3399 67.8343L61.4098 67.867C61.4098 67.867 61.3779 66.5099 60.5667 66.4129C59.7554 66.3158 48.3038 65.2173 48.3038 65.2173H46.4608L45.909 65.3823L38.7644 65.4996C38.6446 65.5009 38.5297 65.5477 38.4435 65.6305C38.3572 65.7134 38.306 65.826 38.3003 65.9452Z" fill="#EB5757"/>
<path opacity="0.1" d="M49.2818 58.8203V59.753C48.2659 59.9144 47.6282 59.9832 47.6282 59.9832C47.2431 60.053 46.8524 60.0882 46.4609 60.0882V58.8203H49.2818Z" fill="black"/>
<path d="M71.1875 51.1904C70.6685 53.2578 69.3391 54.1948 69.0787 53.3866C68.8431 52.6498 68.1187 48.5734 67.9956 47.8693C67.984 47.8022 67.977 47.7651 67.977 47.7651L67.8477 46.926L68.9459 47.0248L69.2736 47.0548C69.2736 47.0548 71.7056 49.1222 71.1875 51.1904Z" fill="#C37098"/>
<path d="M28.9498 47.7713C28.9498 47.7713 27.8153 49.6772 31.0904 49.7416C31.0904 49.7416 33.5225 49.9675 35.3416 53.586C37.1608 57.2045 43.611 60.5319 47.6319 59.7889C47.6319 59.7889 61.0939 58.3419 62.7032 53.1025L63.8138 50.2586C63.8138 50.2586 68.4192 49.9057 68.9046 49.9675C69.3899 50.0292 69.0667 48.6439 69.0667 48.6439L67.8666 47.7722L65.013 48.2566L61.7706 51.2283L51.6493 55.9772L41.8884 54.5875C41.8884 54.5875 34.1708 49.6463 34.1061 49.4186C34.0415 49.191 30.993 47.1245 30.993 47.1245L28.9498 47.7713Z" fill="#EB5757"/>
<path d="M28.8369 46.667V47.1523L28.5792 47.897L28.3808 48.4767C28.3808 48.4767 29.1584 53.2264 27.473 53.2581C25.7876 53.2899 25.4962 50.0914 25.5609 49.059C25.6069 48.3346 26.3527 47.2767 26.7955 46.7093C26.9841 46.4658 27.1179 46.3123 27.1179 46.3123L28.8369 46.667Z" fill="#C37098"/>
<path opacity="0.3" d="M38.3003 65.9452L38.256 66.8646L40.332 67.0588L33.8782 68.6099C33.8782 68.6099 32.7437 68.5129 32.9385 70.1285H34.5274L34.5593 69.8055L47.466 68.9002L57.4864 71.3885H57.6484V71.6788H59.4321C59.4321 71.6788 59.5942 70.4514 58.945 70.0641C58.2958 69.6767 54.8923 68.3514 54.8923 68.3514L60.3399 67.8343L61.4098 67.867C61.4098 67.867 61.3779 66.5099 60.5667 66.4129C59.7554 66.3158 48.3038 65.2173 48.3038 65.2173H46.4608L45.909 65.3823L38.7644 65.4996C38.6446 65.5009 38.5297 65.5477 38.4435 65.6305C38.3572 65.7134 38.306 65.826 38.3003 65.9452Z" fill="black"/>
<path opacity="0.4" d="M28.9498 47.7713C28.9498 47.7713 27.8153 49.6772 31.0904 49.7416C31.0904 49.7416 33.5225 49.9675 35.3416 53.586C37.1608 57.2045 43.611 60.5319 47.6319 59.7889C47.6319 59.7889 61.0939 58.3419 62.7032 53.1025L63.8138 50.2586C63.8138 50.2586 68.4192 49.9057 68.9046 49.9675C69.3899 50.0292 69.0667 48.6439 69.0667 48.6439L67.8666 47.7722L65.013 48.2566L61.7706 51.2283L51.6493 55.9772L41.8884 54.5875C41.8884 54.5875 34.1708 49.6463 34.1061 49.4186C34.0415 49.191 30.993 47.1245 30.993 47.1245L28.9498 47.7713Z" fill="black"/>
<path d="M65.9837 47.2732L63.2098 50.3614C56.5833 58.0026 44.1017 55.1685 39.7398 54.5614C35.378 53.9544 33.147 47.3261 33.147 47.3261C33.3124 47.3439 33.4796 47.3371 33.6429 47.3059C34.3772 47.1806 35.7535 46.5753 36.555 43.885C37.6851 40.0908 32.8051 31.8408 31.6236 30.9303C30.4422 30.0197 30.699 28.4508 30.8017 25.1067C30.9045 21.7626 33.6235 23.0297 33.6235 23.0297L38.0411 25.6608C48.879 27.1794 54.6322 25.8126 54.6322 25.8126L59.6141 23.4347C61.8229 22.8779 62.1825 22.9282 63.4667 25.9141C64.7509 28.9 62.542 31.4808 62.542 31.4808C55.0945 36.9964 56.0705 44.5397 57.2511 47.32C58.0482 49.195 61.7308 48.5217 64.0521 47.882C65.1778 47.5758 65.9837 47.2732 65.9837 47.2732Z" fill="#EB5757"/>
<path opacity="0.1" d="M65.9837 47.2732L63.2098 50.3614C56.5833 58.0026 44.1017 55.1685 39.7398 54.5614C35.378 53.9544 33.147 47.3261 33.147 47.3261C33.3124 47.3439 33.4796 47.3371 33.6429 47.3059C34.3772 47.1806 35.7535 46.5753 36.555 43.885C37.6851 40.0908 32.8051 31.8408 31.6236 30.9303C30.4422 30.0197 30.699 28.4508 30.8017 25.1067C30.9045 21.7626 33.6235 23.0297 33.6235 23.0297L38.0411 25.6608C48.879 27.1794 54.6322 25.8126 54.6322 25.8126L59.6141 23.4347C61.8229 22.8779 62.1825 22.9282 63.4667 25.9141C64.7509 28.9 62.542 31.4808 62.542 31.4808C55.0945 36.9964 56.0705 44.5397 57.2511 47.32C58.0482 49.195 61.7308 48.5217 64.0521 47.882C65.1778 47.5758 65.9837 47.2732 65.9837 47.2732Z" fill="black"/>
<path d="M65.0093 47.0764L62.3834 50.0296C56.1085 57.347 44.2884 54.6328 40.1533 54.0514C36.0181 53.4699 33.9112 47.1214 33.9112 47.1214C34.0674 47.1381 34.2253 47.1316 34.3797 47.102C35.0758 46.982 36.3786 46.4022 37.1376 43.8267C38.2075 40.1914 33.587 32.2925 32.4684 31.4208C31.3498 30.549 31.5907 29.049 31.6899 25.8531C31.7891 22.6572 34.3655 23.8661 34.3655 23.8661L38.5485 26.3825C48.8115 27.8358 54.2601 26.5281 54.2601 26.5281L58.978 24.2499C61.0699 23.7205 61.41 23.7655 62.626 26.6243C63.842 29.4831 61.751 31.9555 61.751 31.9555C54.6976 37.2355 55.6213 44.4602 56.7435 47.1249C57.4963 48.9205 60.9849 48.272 63.1831 47.6631C64.2468 47.3667 65.0093 47.0764 65.0093 47.0764Z" fill="#EB5757"/>
<path d="M69.2745 47.0551C69.2745 47.0551 68.1072 46.9581 67.9779 47.7654L59.9034 48.4413L57.8956 48.6054L55.77 41.1716L55.3652 39.7537L56.3705 40.0766C56.3705 40.0766 56.7424 40.5178 57.2074 41.0401C57.861 41.7778 58.6997 42.691 58.9646 42.8225C58.9851 42.8328 59.0046 42.8449 59.023 42.8587C59.4898 43.1781 60.2939 44.6322 60.2939 44.6322C60.2939 44.6322 61.0724 45.1819 61.819 45.1166C61.819 45.1166 63.7675 45.7298 64.8666 45.8922C65.9657 46.0545 69.2745 47.0551 69.2745 47.0551Z" fill="#3F3D56"/>
<path opacity="0.1" d="M65.0103 47.0762L62.3843 50.0294C56.1094 57.3468 44.2894 54.6326 40.1542 54.0512C36.0191 53.4697 33.9121 47.1212 33.9121 47.1212C34.0684 47.1379 34.2263 47.1314 34.3806 47.1018C34.9528 47.5757 35.4797 48.1015 35.9544 48.6723C40.5271 54.0679 47.468 53.7123 47.468 53.7123C47.468 53.7123 57.5203 54.907 61.217 49.2856C61.8274 48.692 62.4846 48.1482 63.1823 47.6594C64.2478 47.3665 65.0103 47.0762 65.0103 47.0762Z" fill="black"/>
<path opacity="0.1" d="M69.2745 47.0551C69.2745 47.0551 68.1072 46.9581 67.9779 47.7654L59.9034 48.4413L57.8956 48.6054L55.77 41.1716L55.3652 39.7537L56.3705 40.0766C56.3705 40.0766 56.7424 40.5178 57.2074 41.0401C57.861 41.7778 58.6997 42.691 58.9646 42.8225C58.9851 42.8328 59.0046 42.8449 59.023 42.8587C59.4898 43.1781 60.2939 44.6322 60.2939 44.6322C60.2939 44.6322 61.0724 45.1819 61.819 45.1166C61.819 45.1166 63.7675 45.7298 64.8666 45.8922C65.9657 46.0545 69.2745 47.0551 69.2745 47.0551Z" fill="black"/>
<path opacity="0.1" d="M69.371 47.1519C69.371 47.1519 68.2037 47.0548 68.0744 47.8622L67.9956 47.8693C67.984 47.8022 67.977 47.7651 67.977 47.7651L67.8477 46.926L68.9459 47.0248L69.371 47.1519Z" fill="black"/>
<path opacity="0.1" d="M62.5817 53.4263C60.6332 55.5669 56.9223 58.041 50.2214 57.8178C50.2214 57.8178 38.1587 59.3372 33.7154 50.1943C33.7154 50.1943 31.9954 47.0531 28.8088 48.7896L28.7202 48.8372L28.5254 47.4802C28.5254 47.4802 31.379 43.6675 35.9508 49.0631C40.5225 54.4587 47.4644 54.1031 47.4644 54.1031C47.4644 54.1031 57.5175 55.2978 61.2142 49.6763C61.2142 49.6763 66.4396 44.4113 68.9 47.6416L69.0337 48.6219L69.063 48.8372C69.063 48.8372 66.4998 47.9963 64.6896 50.1934L62.5817 53.4263Z" fill="black"/>
<path d="M28.5273 47.2864C28.5273 47.2864 31.3809 43.4747 35.9536 48.8694C36.4745 49.4848 37.0502 50.0521 37.6736 50.5644C42.0815 54.1855 47.4654 53.912 47.4654 53.912C47.4654 53.912 57.5177 55.1076 61.2144 49.4861C61.2144 49.4861 66.4398 44.2202 68.9002 47.4505L69.0622 48.6461C69.0622 48.6461 66.3078 47.7355 64.4905 50.2591C64.4905 50.2591 61.8636 58.0123 50.2216 57.625C50.2216 57.625 38.1589 59.1435 33.7155 50.0005C33.7155 50.0005 31.9646 46.802 28.7222 48.6435L28.5273 47.2864Z" fill="#EB5757"/>
<path opacity="0.1" d="M54.812 31.2009L54.5782 31.2194C54.3293 30.7306 54.2665 28.5724 54.3568 26.5332L54.1628 26.5253C54.1203 27.4844 54.0291 30.3353 54.3904 31.2335C52.1001 31.403 41.9274 32.0921 38.298 31.2282C39.5539 28.5865 38.6478 26.3691 38.6381 26.3462L38.461 26.4212C38.4698 26.4432 39.3333 28.5521 38.1501 31.0977C37.5594 30.1765 34.4374 25.5556 31.6582 26.1565L31.6998 26.3462C34.2682 25.7885 37.2839 30.1306 37.9464 31.1391L37.8277 31.1091L38.0846 31.3562L38.1731 31.4947L38.1899 31.4612C38.6576 31.9624 40.7415 34.4074 40.6282 38.0435C40.5963 39.0715 41.2782 39.9935 42.6005 40.7118C44.0849 41.5182 46.1051 41.9382 47.9216 41.9382C49.3785 41.9382 50.7052 41.6682 51.5174 41.1106C52.1719 40.6615 52.465 40.0429 52.3667 39.3203C51.8291 35.3771 54.8891 31.4206 54.9404 31.3553C59.1296 26.3603 62.5846 26.7185 62.6191 26.7221L62.643 26.5297C62.4942 26.5121 59.065 26.1477 54.812 31.2009ZM52.1692 39.3459C52.2578 40.0006 52.0009 40.5406 51.4031 40.9509C49.6601 42.1465 45.2628 41.94 42.6891 40.5424C41.815 40.0668 40.7814 39.2497 40.8186 38.0497C40.9258 34.5979 39.0915 32.1953 38.4468 31.4612C42.3136 32.2747 52.4225 31.575 54.4941 31.4197C54.5195 31.4531 54.553 31.4795 54.5915 31.4965C53.914 32.4556 51.6954 35.8985 52.1692 39.3459Z" fill="black"/>
<path opacity="0.1" d="M51.6172 67.0906L55.7081 68.2729L54.8924 68.3506L51.6172 67.0906Z" fill="black"/>
<path opacity="0.1" d="M40.3326 67.058L43.2836 66.3477L39.5195 66.9821L40.3326 67.058Z" fill="black"/>
<path opacity="0.1" d="M28.8381 46.6669V47.1522L28.5804 47.8969C28.2368 46.958 27.2971 46.7498 26.7949 46.7083C26.9836 46.4648 27.1173 46.3113 27.1173 46.3113L28.8381 46.6669Z" fill="black"/>
<path d="M33.5707 44.6322L32.8578 44.4707C32.8578 44.4707 32.825 44.761 32.2378 44.9225C31.6506 45.0839 29.0601 45.8595 28.7031 45.8595C28.3462 45.8595 26.7246 45.9566 26.5625 46.6025C26.5625 46.6025 28.4764 46.4736 28.7678 48.1536L34.3129 47.8951L33.5707 44.6322Z" fill="#3F3D56"/>
<path opacity="0.1" d="M33.5707 44.6322L32.8578 44.4707C32.8578 44.4707 32.825 44.761 32.2378 44.9225C31.6506 45.0839 29.0601 45.8595 28.7031 45.8595C28.3462 45.8595 26.7246 45.9566 26.5625 46.6025C26.5625 46.6025 28.4764 46.4736 28.7678 48.1536L34.3129 47.8951L33.5707 44.6322Z" fill="black"/>
<path d="M58.0059 62.1099C58.0059 62.1099 59.6346 63.0363 60.2554 63.9328C60.6843 64.5777 61.069 65.2507 61.4068 65.9472C61.4068 65.9472 62.6228 66.4766 61.7354 64.5513C60.8479 62.626 58.0059 62.1099 58.0059 62.1099Z" fill="#3F3D56"/>
<path d="M58.0059 62.1099C58.0059 62.1099 59.6346 63.0363 60.2554 63.9328C60.6843 64.5777 61.069 65.2507 61.4068 65.9472C61.4068 65.9472 62.6228 66.4766 61.7354 64.5513C60.8479 62.626 58.0059 62.1099 58.0059 62.1099Z" fill="#3F3D56"/>
<path opacity="0.1" d="M58.0059 62.1099C58.0059 62.1099 59.6346 63.0363 60.2554 63.9328C60.6843 64.5777 61.069 65.2507 61.4068 65.9472C61.4068 65.9472 62.6228 66.4766 61.7354 64.5513C60.8479 62.626 58.0059 62.1099 58.0059 62.1099Z" fill="black"/>
<path d="M44.1292 25.6325C44.0256 25.7534 43.9521 25.8972 43.8573 26.0242C43.4446 26.5351 42.667 26.5131 42.0754 26.7998C41.2659 27.1925 40.8744 28.1631 40.8974 29.0604C40.9205 29.9578 41.2774 30.8075 41.6122 31.6413C41.9469 32.4751 42.2693 33.3451 42.2215 34.2407C42.1932 34.7701 42.0355 35.2854 41.8788 35.7928C41.7769 36.121 41.6538 36.4784 41.358 36.6548C42.244 36.8129 43.1415 36.8991 44.0415 36.9125C46.6241 36.9522 49.2076 36.3963 51.7778 36.6522C51.4682 36.3725 51.2373 36.0172 51.1079 35.6213C50.9785 35.2254 50.9551 34.8028 51.04 34.3951C51.1117 34.0739 51.249 33.7722 51.3562 33.4607C51.7123 32.414 51.7157 31.2801 51.3659 30.2313C51.2614 29.9216 51.1268 29.6216 51.0382 29.3075C50.8345 28.5769 50.8886 27.7995 50.7433 27.0557C50.5981 26.3119 50.1623 25.5336 49.4228 25.3554C48.399 25.1092 47.5062 26.1786 46.5223 25.8848C45.7721 25.6607 44.867 24.7766 44.1292 25.6325Z" fill="#3F3D56"/>
<g opacity="0.1">
<path opacity="0.1" d="M51.3812 33.4716C51.5691 32.9162 51.659 32.3326 51.6469 31.7466C51.6376 32.2674 51.548 32.7838 51.3812 33.2775C51.274 33.5889 51.1359 33.8951 51.065 34.2119C51.0232 34.4039 51.0068 34.6006 51.0163 34.7969C51.021 34.6654 51.0373 34.5346 51.065 34.406C51.1359 34.0848 51.274 33.7831 51.3812 33.4716Z" fill="black"/>
<path opacity="0.1" d="M42.2497 33.9704C42.2736 33.1048 41.9609 32.263 41.6368 31.4565C41.3047 30.6289 40.9513 29.7845 40.9238 28.8977C40.9238 28.9559 40.9238 29.0151 40.9238 29.0742C40.9469 29.9706 41.3038 30.8212 41.6377 31.6542C41.937 32.398 42.2266 33.1762 42.2497 33.9704Z" fill="black"/>
<path opacity="0.1" d="M51.5945 36.4523C49.0925 36.245 46.579 36.7682 44.0664 36.7303C43.2308 36.7169 42.3975 36.6414 41.5732 36.5044C41.5188 36.568 41.4546 36.6226 41.3828 36.6659C42.2689 36.824 43.1663 36.9101 44.0664 36.9235C46.649 36.9632 49.2315 36.4065 51.8017 36.6588C51.7282 36.5946 51.6589 36.5256 51.5945 36.4523Z" fill="black"/>
</g>
<path d="M48.1987 72.54L50.3367 72.9327L50.1897 73.1868C50.1897 73.1868 48.7354 73.3244 48.3608 73.1868C47.9862 73.0492 48.1987 72.54 48.1987 72.54Z" fill="#3F3D56"/>
<path d="M50.4012 54.4647C50.4012 54.4647 59.2666 51.68 58.9425 49.903C58.6183 48.1259 50.7457 47.6971 50.4012 48.1533C50.0566 48.6094 50.4012 54.4647 50.4012 54.4647Z" fill="#3F3D56"/>
<path opacity="0.2" d="M50.4012 54.4647C50.4012 54.4647 59.2666 51.68 58.9425 49.903C58.6183 48.1259 50.7457 47.6971 50.4012 48.1533C50.0566 48.6094 50.4012 54.4647 50.4012 54.4647Z" fill="black"/>
<path d="M50.4016 37.2009L48.7189 38.6876L46.5782 39.075L42.7194 38.5906L40.5469 37.1038C40.5469 37.1038 40.9304 37.02 42.0064 36.7809L42.8815 36.5876C44.6333 36.1994 43.9195 33.3229 43.9195 33.3229C43.9195 33.3229 48.7189 30.7712 48.1033 34.0015C47.7677 35.7617 48.4806 36.5532 49.1998 36.9132C49.5754 37.0929 49.9851 37.191 50.4016 37.2009Z" fill="#C37098"/>
<path opacity="0.1" d="M46.2792 35.2808C48.3395 35.2808 50.0096 33.6169 50.0096 31.5644C50.0096 29.5118 48.3395 27.8479 46.2792 27.8479C44.219 27.8479 42.5488 29.5118 42.5488 31.5644C42.5488 33.6169 44.219 35.2808 46.2792 35.2808Z" fill="black"/>
<path d="M46.2792 35.1837C48.3395 35.1837 50.0096 33.5198 50.0096 31.4672C50.0096 29.4147 48.3395 27.7507 46.2792 27.7507C44.219 27.7507 42.5488 29.4147 42.5488 31.4672C42.5488 33.5198 44.219 35.1837 46.2792 35.1837Z" fill="#C37098"/>
<path opacity="0.1" d="M50.4016 37.2008L48.7189 38.6875L46.5782 39.0749L42.7194 38.5905L40.5469 37.1037C40.5469 37.1037 40.9304 37.0199 42.0064 36.7808L42.2332 36.9105H49.1998C49.5752 37.0911 49.9849 37.19 50.4016 37.2008Z" fill="black"/>
<path d="M45.6025 37.0079H49.4197C49.4197 37.0079 50.726 36.5226 51.1476 36.8137C51.5692 37.1049 52.7693 37.1367 52.9313 37.0079C53.0934 36.879 55.4927 38.2061 56.3686 40.0767L53.2555 42.5296L39.7332 47.8952C39.7332 47.8952 39.1133 46.8285 39.3435 46.4738C39.5738 46.119 38.922 45.4414 38.922 45.4414C38.922 45.4414 38.6952 44.2458 38.922 43.8911L36.0684 40.337C36.0684 40.337 38.0469 37.4614 38.5013 37.1711C38.5013 37.1711 38.6633 36.6946 38.8254 36.7229C38.9875 36.7511 41.8792 36.8111 41.8792 36.8111L42.2334 37.0105L45.6025 37.0079Z" fill="#3F3D56"/>
<path opacity="0.1" d="M45.6025 37.0079H49.4197C49.4197 37.0079 50.726 36.5226 51.1476 36.8137C51.5692 37.1049 52.7693 37.1367 52.9313 37.0079C53.0934 36.879 55.4927 38.2061 56.3686 40.0767L56.0453 40.3317L53.2555 42.5296L39.7332 47.8952C39.7332 47.8952 39.1133 46.8285 39.3435 46.4738C39.5738 46.119 38.922 45.4414 38.922 45.4414C38.922 45.4414 38.6952 44.2458 38.922 43.8911L36.0684 40.337C36.0684 40.337 38.0469 37.4614 38.5013 37.1711C38.5013 37.1711 38.6633 36.6946 38.8254 36.7229C38.9875 36.7511 41.8792 36.8111 41.8792 36.8111L42.2334 37.0105L45.6025 37.0079Z" fill="black"/>
<path d="M37.2686 39.9797L36.0685 40.3327C36.0685 40.3327 33.0856 44.3738 32.8589 44.4709C32.6321 44.568 34.3176 47.8953 34.3176 47.8953C34.3176 47.8953 34.9012 47.4427 35.1935 47.1524C35.4857 46.8621 38.9221 43.8877 38.9221 43.8877L37.2686 39.9797Z" fill="#3F3D56"/>
<path opacity="0.1" d="M37.2686 39.9797L36.0685 40.3327C36.0685 40.3327 33.0856 44.3738 32.8589 44.4709C32.6321 44.568 34.3176 47.8953 34.3176 47.8953C34.3176 47.8953 34.9012 47.4427 35.1935 47.1524C35.4857 46.8621 38.9221 43.8877 38.9221 43.8877L37.2686 39.9797Z" fill="black"/>
<path opacity="0.1" d="M59.9029 48.4412L57.8951 48.6053L55.7695 41.1715L57.207 41.04C57.8606 41.7777 58.6993 42.6909 58.9641 42.8224C58.9846 42.8327 59.0042 42.8448 59.0226 42.8586C59.1122 43.2134 59.1683 43.5759 59.19 43.9412C59.3848 46.7647 59.6434 47.318 59.6434 47.318C59.6434 47.318 59.755 47.7733 59.9029 48.4412Z" fill="black"/>
<path d="M66.6476 66.3743C66.5927 66.3664 66.5165 66.3584 66.4235 66.3496L66.335 66.3417C65.1544 66.2393 61.9182 66.0831 61.9182 66.0831C61.8557 65.798 61.7779 65.5164 61.6852 65.2396C61.6728 65.1999 61.6587 65.1584 61.6445 65.117C61.3398 64.2346 60.765 63.024 59.8422 62.724C58.3507 62.2396 57.4757 61.6899 58.2542 60.4617C59.0327 59.2334 58.643 58.4914 58.643 58.4914C58.643 58.4914 57.5652 55.8752 57.1967 55.5523C56.9788 55.3608 56.4395 54.287 56.0268 53.2837C55.9869 53.1867 55.9471 53.0887 55.9107 52.9926C55.6787 52.4023 55.5087 51.8728 55.498 51.6099C55.4679 50.9296 54.243 45.2737 54.0349 44.3173C54.0163 44.229 54.0057 44.1796 54.0057 44.1796C54.0057 44.1796 54.0057 44.1637 53.9977 44.1346C53.941 43.7887 53.6311 41.5061 55.2058 41.2061L57.1967 41.0234C57.2631 41.0287 58.8077 41.1708 58.9982 43.9352C59.193 46.7587 59.4516 47.312 59.4516 47.312C59.4516 47.312 60.2629 50.5767 60.3275 52.3193C60.3922 54.062 62.3212 58.4578 62.3212 58.4578C62.3212 58.4578 64.2182 62.0755 64.3812 63.0134C64.4583 63.4546 64.5424 64.0334 64.7665 64.5028C64.7806 64.5328 64.7957 64.562 64.8107 64.5911C65.0632 65.0631 65.4759 65.4028 66.1977 65.3393C66.3079 65.3306 66.4187 65.3306 66.5289 65.3393C66.5761 65.3424 66.6231 65.348 66.6697 65.3561C67.5731 65.5087 67.272 66.4599 66.6476 66.3743Z" fill="#C37098"/>
<path opacity="0.1" d="M56.5666 46.7922C56.5339 49.5098 56.4045 51.8692 56.4045 51.8692C56.4045 51.8692 56.2416 52.4736 56.0255 53.281C55.7368 52.5751 55.5091 51.9125 55.4941 51.6045C55.4595 50.8669 53.9982 44.1795 53.9982 44.1795C53.9982 44.1795 53.9982 44.1636 53.9902 44.1345L54.1922 44.1795C54.1922 44.1795 56.595 44.0745 56.5666 46.7922Z" fill="black"/>
<path d="M56.3676 46.7923C56.3348 49.5099 56.2055 51.8693 56.2055 51.8693C56.2055 51.8693 56.0806 52.3335 55.9052 52.9926C55.5209 54.4335 54.8903 56.8079 54.7787 57.2967C54.6166 58.0026 52.476 62.9817 52.476 62.9817C52.476 62.9817 52.0535 64.5011 52.0535 64.8885C52.0535 65.2758 51.7612 66.8296 51.7612 66.8296V68.2185C51.7612 68.2185 51.7612 69.5164 51.6851 70.3829C51.678 70.4526 51.6709 70.5196 51.6647 70.5823C51.6319 70.8576 51.5903 71.0632 51.5345 71.1258C51.3087 71.3852 50.3353 72.9355 50.3353 72.9355C50.3353 72.9355 50.2096 72.9355 50.0165 72.9311C49.5736 72.9179 48.7695 72.8649 48.3027 72.6532C48.1656 72.6044 48.049 72.5112 47.9715 72.3885C47.7341 71.9164 47.8829 70.7844 47.9467 70.3758C47.9609 70.2805 47.9715 70.2241 47.9715 70.2241C47.9715 70.2241 47.9715 70.2135 47.9795 70.1941C48.0547 69.8791 48.6977 67.1499 48.3612 66.5411C48.0069 65.8952 49.1724 64.5064 49.1724 64.5064C49.1724 64.5064 49.788 62.4055 49.7561 61.6308C49.7561 61.6308 50.632 57.8182 50.4044 56.7523C50.3362 56.4302 50.3911 55.5902 50.5009 54.572C50.6435 53.2741 50.8747 51.6867 51.0545 50.522C51.2006 49.5717 51.3131 48.902 51.3131 48.902C51.3131 48.902 51.2591 48.8852 51.1731 48.8658C50.9482 48.8146 50.5009 48.7467 50.2423 48.9338C49.8881 49.1923 50.0147 46.1879 50.0147 46.1879L52.8975 43.9414L53.9975 44.1796C54.072 44.1775 54.1466 44.1802 54.2207 44.1876C54.8185 44.2405 56.3941 44.5873 56.3676 46.7923Z" fill="#C37098"/>
<path d="M67.4189 66.8058C67.3704 66.869 67.308 66.9203 67.2365 66.9558C66.8096 67.1825 64.5396 67.8611 63.5016 67.7314C62.9475 67.6664 62.4031 67.5358 61.88 67.3423C61.7583 67.2973 61.6399 67.244 61.5257 67.1825H61.5204C61.3176 67.0475 61.0192 65.8299 60.9545 65.559C60.9474 65.5246 60.9421 65.5052 60.9421 65.5052C60.9421 65.5052 59.6136 62.8581 59.0937 63.729L59.448 68.0587H58.9618C58.9618 68.0587 58.8971 63.7608 57.6971 62.5978C57.6971 62.5978 57.3499 61.9643 58.0859 62.1461C58.8218 62.3278 60.5834 63.5031 60.7783 64.1817C60.9142 64.596 61.0923 64.9954 61.3096 65.3737C61.4478 65.6243 61.5541 65.7964 61.5541 65.7964L66.3225 66.2764L67.3915 66.3831C67.3915 66.3831 67.5633 66.6011 67.4189 66.8058Z" fill="#3F3D56"/>
<path opacity="0.1" d="M67.418 66.8052C67.3695 66.8684 67.3071 66.9198 67.2356 66.9552C66.8087 67.182 64.5387 67.8605 63.5007 67.7308C62.9466 67.6659 62.4022 67.5352 61.8791 67.3417C61.7574 67.2968 61.639 67.2434 61.5248 67.182H61.5195C62.562 66.9967 64.8647 66.6226 66.3455 66.6526C66.7998 66.6561 67.178 66.7055 67.418 66.8052Z" fill="black"/>
<path opacity="0.1" d="M66.3238 66.1763C66.3238 66.2292 66.3238 66.2848 66.3291 66.3422C65.1485 66.2398 61.9123 66.0837 61.9123 66.0837C61.8407 65.755 61.7493 65.4309 61.6387 65.1131C62.4907 64.724 63.7111 64.3048 64.7624 64.5007C65.0095 65.0187 65.4275 65.4051 66.1936 65.3372C66.3039 65.3285 66.4146 65.3285 66.5249 65.3372C66.3917 65.5969 66.3227 65.8846 66.3238 66.1763Z" fill="black"/>
<path opacity="0.1" d="M66.4219 66.2724C66.4219 66.2971 66.4219 66.3236 66.4219 66.3491L66.3333 66.3412C65.1527 66.2388 61.9165 66.0827 61.9165 66.0827C61.854 65.7976 61.7763 65.516 61.6836 65.2391C62.5232 64.8491 63.7489 64.415 64.8108 64.5924C65.0633 65.0644 65.476 65.4041 66.1978 65.3406C66.308 65.3319 66.4188 65.3319 66.529 65.3406C66.5762 65.3437 66.6232 65.3492 66.6698 65.3574C66.5073 65.6351 66.4218 65.9509 66.4219 66.2724Z" fill="black"/>
<path d="M66.3248 66.2728C66.3244 66.3982 66.3348 66.5234 66.3558 66.647H66.3452L61.8806 67.3423C61.7589 67.2973 61.6405 67.244 61.5263 67.1825H61.521C61.3182 67.0475 61.0197 65.8299 60.9551 65.559C61.0578 65.5034 61.1783 65.4408 61.3138 65.3737C62.2827 64.8911 64.0088 64.2064 65.2877 64.7631C65.2877 64.7631 66.3257 65.2334 66.7145 65.1593C66.7127 65.1558 66.3284 65.552 66.3248 66.2728Z" fill="#3F3D56"/>
<path opacity="0.1" d="M51.6652 70.5795C51.6324 70.8548 51.5908 71.0604 51.535 71.123C51.3092 71.3825 50.3358 72.9328 50.3358 72.9328C50.3358 72.9328 50.2083 72.9328 50.0126 72.9283C49.9869 72.511 49.8275 71.8228 49.0711 71.8078C48.4733 71.7963 48.3174 72.2445 48.2988 72.6504C48.1617 72.6017 48.0451 72.5084 47.9676 72.3857C47.7302 71.9136 47.879 70.7816 47.9428 70.373C48.3688 70.5204 50.0329 71.0339 51.6652 70.5795Z" fill="black"/>
<path opacity="0.1" d="M51.6856 70.3802C51.6785 70.4499 51.6714 70.517 51.6652 70.5796C51.6324 70.8549 51.5908 71.0605 51.535 71.1232C51.3092 71.3826 50.3358 72.9329 50.3358 72.9329C50.3358 72.9329 50.2101 72.9329 50.017 72.9285C50.0232 72.5879 49.963 71.6323 49.0711 71.6138C48.375 71.6005 48.274 72.2111 48.2988 72.6505C48.1617 72.6018 48.0451 72.5085 47.9676 72.3858C47.7302 71.9138 47.879 70.7817 47.9428 70.3732C47.957 70.2779 47.9676 70.2214 47.9676 70.2214C47.9676 70.2214 47.9676 70.2108 47.9756 70.1914C48.4503 70.3511 50.087 70.8338 51.6856 70.3802Z" fill="black"/>
<path d="M47.8385 70.2354C47.8385 70.2354 49.8976 71.0586 51.8434 70.4286L51.9603 72.7059C51.9603 72.7059 50.0916 73.3589 50.0119 73.1471C50.0119 73.1471 50.1571 71.7353 49.0713 71.7151C47.9855 71.6948 48.3575 73.1912 48.3575 73.1912C48.3575 73.1912 47.5312 72.9371 47.5471 72.7271C47.563 72.5171 47.6658 70.4339 47.8385 70.2354Z" fill="#3F3D56"/>
<path opacity="0.1" d="M57.3862 41.1179C55.5423 40.569 54.4157 43.6202 54.2244 44.1849C54.205 44.2414 54.1952 44.2732 54.1952 44.2732C54.1394 44.2855 54.0836 44.2987 54.0305 44.3137C50.8527 45.144 51.044 48.0196 51.1707 48.857C50.9457 48.8058 50.4985 48.7379 50.2399 48.9249C49.8856 49.1835 50.0122 46.179 50.0122 46.179L52.8986 43.9414L53.9986 44.1796C53.9986 44.1796 53.9986 44.1637 53.9906 44.1346C53.9339 43.7887 53.624 41.5061 55.1987 41.2061L57.1896 41.0234L57.3862 41.1179Z" fill="black"/>
<path d="M40.3814 46.3123L39.7331 47.8952C39.7331 47.8952 37.0416 51.6108 39.5064 53.2582C41.9712 54.9055 50.4 54.4652 50.4 54.4652L51.02 48.9946C51.02 48.9946 50.0777 45.0884 53.9985 44.1796C53.9985 44.1796 55.1578 40.4199 57.1868 41.0243L53.3156 39.0752L48.0017 41.0464L43.4937 43.4693L40.3814 46.3123Z" fill="#3F3D56"/>
<path opacity="0.1" d="M40.3814 46.3123L39.7331 47.8952C39.7331 47.8952 37.0416 51.6108 39.5064 53.2582C41.9712 54.9055 50.4 54.4652 50.4 54.4652L51.02 48.9946C51.02 48.9946 50.0777 45.0884 53.9985 44.1796C53.9985 44.1796 55.1578 40.4199 57.1868 41.0243L53.3156 39.0752L48.0017 41.0464L43.4937 43.4693L40.3814 46.3123Z" fill="black"/>
<path opacity="0.1" d="M40.543 49.2519C40.543 49.2519 41.3542 47.3381 42.3595 46.7919C43.3647 46.2457 40.543 49.2519 40.543 49.2519Z" fill="black"/>
<path opacity="0.1" d="M44.0117 45.794C44.0117 45.794 51.2431 41.1096 53.87 41.2058L44.0117 45.794Z" fill="black"/>
<path opacity="0.1" d="M46.3099 29.372C47.6526 29.5044 48.6241 30.8191 49.9553 31.0335C50.0675 31.0598 50.185 31.0533 50.2936 31.0149C50.6337 30.8658 50.5212 30.362 50.3538 30.032C50.1023 29.5367 49.8505 29.0417 49.5984 28.547C49.4124 28.1817 49.2175 27.8058 48.9031 27.5411C48.6374 27.3205 48.3142 27.1882 47.9882 27.0867C46.7076 26.6729 45.2639 26.5688 44.0479 27.1432C43.3642 27.467 41.522 29.1267 42.4865 29.9252C43.3509 30.6417 45.2958 29.2714 46.3099 29.372Z" fill="black"/>
<path d="M46.3099 29.2748C47.6526 29.4071 48.6241 30.7227 49.9553 30.9362C50.0675 30.9625 50.185 30.9561 50.2936 30.9177C50.6337 30.7686 50.5212 30.2648 50.3538 29.9348C50.1023 29.4395 49.8505 28.9445 49.5984 28.4498C49.4124 28.0845 49.2175 27.7086 48.9031 27.4439C48.6374 27.2233 48.3142 27.0909 47.9882 26.9895C46.7076 26.5765 45.2639 26.4715 44.0479 27.0459C43.3642 27.3698 41.522 29.0295 42.4865 29.828C43.3509 30.5445 45.2958 29.1742 46.3099 29.2748Z" fill="#3F3D56"/>
<path opacity="0.1" d="M40.0391 45.8824C40.86 45.9743 41.6912 45.8839 42.4729 45.6177L40.0391 45.8824Z" fill="black"/>
<path opacity="0.1" d="M32.3516 45.2832C32.3516 45.2832 32.9715 45.3714 32.9715 45.795C32.9715 46.2185 32.3516 45.2832 32.3516 45.2832Z" fill="black"/>
<path opacity="0.1" d="M32.6602 46.9251C32.6602 46.9251 32.7735 46.7284 32.9684 47.1016C33.1632 47.4748 32.6602 46.9251 32.6602 46.9251Z" fill="black"/>
<path opacity="0.1" d="M50.2922 30.7237C50.1835 30.7619 50.0662 30.7686 49.9539 30.7431C48.6254 30.5287 47.6511 29.214 46.3085 29.0808C45.2935 28.9802 43.3495 30.3505 42.4842 29.634C42.411 29.5767 42.3499 29.5056 42.3043 29.4247C42.2587 29.3439 42.2296 29.2549 42.2185 29.1628C42.2002 29.2872 42.2152 29.4142 42.2618 29.5309C42.3085 29.6477 42.3852 29.7502 42.4842 29.8281C43.3495 30.5446 45.2935 29.1743 46.3085 29.2749C47.6503 29.4072 48.6227 30.7228 49.9539 30.9363C50.0661 30.9626 50.1835 30.9562 50.2922 30.9178C50.4844 30.8296 50.5313 30.6346 50.5056 30.4184C50.501 30.4837 50.4787 30.5466 50.4411 30.6003C50.4035 30.654 50.3521 30.6967 50.2922 30.7237Z" fill="black"/>
<path opacity="0.1" d="M48.9648 44.9842C48.9648 44.9842 52.9273 43.9519 54.0007 44.1795L48.9648 44.9842Z" fill="black"/>
<path opacity="0.5" d="M28.8119 69.8874L29.0014 67.5439L30.8728 65.39C30.8728 65.39 28.8305 65.9371 26.332 65.2542L28.2973 67.5483L28.3726 69.8874C27.7748 69.9536 27.3213 70.273 27.3213 70.6577C27.3213 71.09 27.8952 71.4412 28.602 71.4412C29.3087 71.4412 29.8835 71.0883 29.8835 70.6577C29.8835 70.2703 29.4194 69.9483 28.8119 69.8874Z" fill="#D4DFEC"/>
<path opacity="0.5" d="M26.5605 65.3274L28.137 67.0648C28.204 67.1389 28.286 67.1981 28.3776 67.2384C28.4692 67.2787 28.5683 67.2992 28.6684 67.2986C28.7689 67.2987 28.8682 67.2775 28.9598 67.2364C29.0515 67.1953 29.1333 67.1353 29.1998 67.0603L30.6966 65.3839C30.6966 65.3839 28.8358 65.9318 26.5605 65.3274Z" fill="#EB5757"/>
<path opacity="0.5" d="M28.6713 65.858C30.1035 65.858 31.2646 65.414 31.2646 64.8663C31.2646 64.3185 30.1035 63.8745 28.6713 63.8745C27.2391 63.8745 26.0781 64.3185 26.0781 64.8663C26.0781 65.414 27.2391 65.858 28.6713 65.858Z" fill="#D4DFEC"/>
<path d="M28.6339 65.7285C29.9051 65.7285 30.9357 65.3757 30.9357 64.9405C30.9357 64.5054 29.9051 64.1526 28.6339 64.1526C27.3626 64.1526 26.332 64.5054 26.332 64.9405C26.332 65.3757 27.3626 65.7285 28.6339 65.7285Z" fill="#EB5757"/>
<path opacity="0.5" d="M29.2917 65.8298L28.8984 66.8578L29.2598 65.8325" fill="#EB5757"/>
<path opacity="0.5" d="M29.3086 65.694L30.3377 62.7769C30.3404 62.7696 30.3445 62.7629 30.3498 62.7572C30.3551 62.7515 30.3614 62.7469 30.3685 62.7437C30.3756 62.7405 30.3833 62.7388 30.3911 62.7385C30.3989 62.7383 30.4066 62.7397 30.4139 62.7425C30.4277 62.7482 30.4388 62.759 30.4447 62.7727C30.4507 62.7864 30.451 62.8018 30.4458 62.8157L29.3449 65.6904" fill="#3F3D56"/>
<path d="M29.7441 64.4596L30.3375 62.7769C30.3402 62.7696 30.3443 62.7629 30.3496 62.7572C30.3549 62.7515 30.3612 62.7469 30.3683 62.7437C30.3754 62.7405 30.3831 62.7388 30.3909 62.7385C30.3987 62.7383 30.4064 62.7397 30.4137 62.7425C30.4275 62.7482 30.4386 62.759 30.4445 62.7727C30.4505 62.7864 30.4509 62.8018 30.4456 62.8157L29.8123 64.4701" fill="#3F3D56"/>
<path d="M29.918 64.6184C30.1963 64.6184 30.4219 64.3936 30.4219 64.1163C30.4219 63.839 30.1963 63.6143 29.918 63.6143C29.6397 63.6143 29.4141 63.839 29.4141 64.1163C29.4141 64.3936 29.6397 64.6184 29.918 64.6184Z" fill="#EB5757"/>
<path opacity="0.5" d="M29.918 64.6184C30.1963 64.6184 30.4219 64.3936 30.4219 64.1163C30.4219 63.839 30.1963 63.6143 29.918 63.6143C29.6397 63.6143 29.4141 63.839 29.4141 64.1163C29.4141 64.3936 29.6397 64.6184 29.918 64.6184Z" fill="white"/>
<path d="M29.9723 64.2636C30.0897 64.2636 30.1849 64.1688 30.1849 64.0519C30.1849 63.9349 30.0897 63.8401 29.9723 63.8401C29.8549 63.8401 29.7598 63.9349 29.7598 64.0519C29.7598 64.1688 29.8549 64.2636 29.9723 64.2636Z" fill="#EB5757"/>
<path opacity="0.25" d="M29.9723 64.2636C30.0897 64.2636 30.1849 64.1688 30.1849 64.0519C30.1849 63.9349 30.0897 63.8401 29.9723 63.8401C29.8549 63.8401 29.7598 63.9349 29.7598 64.0519C29.7598 64.1688 29.8549 64.2636 29.9723 64.2636Z" fill="black"/>
<path opacity="0.3" d="M29.4258 64.2156C29.4422 64.3136 29.4875 64.4046 29.5558 64.477C29.6242 64.5493 29.7126 64.5999 29.8098 64.6222C29.907 64.6445 30.0087 64.6375 30.1019 64.6022C30.1952 64.5669 30.2758 64.5048 30.3336 64.4238C30.0399 64.3203 29.7353 64.2505 29.4258 64.2156Z" fill="#EB5757"/>
<path d="M10.9054 45.9929H10.4023V57.2782H10.9054V45.9929Z" fill="#535461"/>
<path d="M14.0672 57.2438L14.0353 57.7521L13.991 58.4694L13.9724 58.7685L13.9282 59.4868L13.9087 59.7859L13.8644 60.5032L13.356 68.6632C13.3342 69.0142 13.1788 69.3437 12.9216 69.5845C12.6644 69.8253 12.3247 69.9594 11.9717 69.9594H9.33512C8.98215 69.9594 8.64246 69.8253 8.38526 69.5845C8.12806 69.3437 7.9727 69.0142 7.95083 68.6632L7.44246 60.5032L7.39818 59.7859L7.37958 59.4868L7.33441 58.7685L7.31581 58.4694L7.27153 57.7521L7.23965 57.2438C7.2336 57.1463 7.24767 57.0485 7.28099 56.9566C7.31432 56.8647 7.36619 56.7806 7.4334 56.7094C7.50062 56.6382 7.58175 56.5815 7.67181 56.5428C7.76187 56.504 7.85894 56.4841 7.95703 56.4841H13.3507C13.4487 56.4842 13.5457 56.5042 13.6356 56.543C13.7256 56.5818 13.8066 56.6385 13.8738 56.7097C13.9409 56.7809 13.9927 56.865 14.0259 56.9568C14.0592 57.0487 14.0732 57.1464 14.0672 57.2438Z" fill="#3F3D56"/>
<path d="M14.0372 57.7515L13.9929 58.4688H7.31772L7.27344 57.7515H14.0372Z" fill="#9D9CB5"/>
<path d="M13.972 58.7686L13.9277 59.4868H7.37915L7.33398 58.7686H13.972Z" fill="#9D9CB5"/>
<path d="M13.9089 59.7856L13.8646 60.503H7.44361L7.39844 59.7856H13.9089Z" fill="#9D9CB5"/>
<path d="M6.50386 50.2226C9.43451 52.3349 10.6541 55.6376 10.6541 55.6376C10.6541 55.6376 7.12382 55.5167 4.19317 53.4052C1.26252 51.2938 0.0429688 47.9902 0.0429688 47.9902C0.0429688 47.9902 3.5741 48.1111 6.50386 50.2226Z" fill="#EB5757"/>
<path d="M0.0429688 47.9902C0.0429688 47.9902 3.70783 50.0196 4.88399 51.6961C6.06014 53.3726 10.6541 55.6385 10.6541 55.6385" stroke="#535461" stroke-width="2" stroke-miterlimit="10"/>
<path d="M8.39586 45.9706C9.99005 47.1177 10.6543 48.9177 10.6543 48.9177C10.6543 48.9177 8.7333 48.8524 7.13822 47.7027C5.54315 46.553 4.87891 44.7556 4.87891 44.7556C4.87891 44.7556 6.80079 44.8236 8.39586 45.9706Z" fill="#EB5757"/>
<path d="M4.87891 44.7532C4.87891 44.7532 6.87341 45.8561 7.51375 46.7694C8.15408 47.6826 10.6543 48.9152 10.6543 48.9152" stroke="#535461" stroke-width="2" stroke-miterlimit="10"/>
<path d="M12.9714 48.8239C11.1399 50.8295 10.752 53.4509 10.752 53.4509C10.752 53.4509 13.3345 52.8192 15.167 50.8136C16.9994 48.808 17.3864 46.1865 17.3864 46.1865C17.3864 46.1865 14.8038 46.8174 12.9714 48.8239Z" fill="#EB5757"/>
<path d="M17.3864 46.1865C17.3864 46.1865 14.9996 48.2424 14.3938 49.6595C13.788 51.0765 10.752 53.4536 10.752 53.4536" stroke="#535461" stroke-width="2" stroke-miterlimit="10"/>
<path opacity="0.1" d="M76.699 56.657C76.699 56.657 77.2109 57.3232 76.4625 58.3334C75.7141 59.3437 75.0977 60.1864 75.3475 60.8173C75.3475 60.8173 76.4758 58.9485 77.3942 58.922C78.3126 58.8955 77.7095 57.7811 76.699 56.657Z" fill="black"/>
<path opacity="0.1" d="M76.6973 56.657C76.7422 56.7213 76.7774 56.7917 76.8018 56.8661C77.6981 57.9152 78.1755 58.8955 77.3138 58.9185C76.5113 58.9414 75.5486 60.3708 75.3184 60.7317C75.3256 60.7596 75.3348 60.787 75.3458 60.8137C75.3458 60.8137 76.4741 58.9449 77.3926 58.9185C78.311 58.892 77.7079 57.7811 76.6973 56.657Z" fill="black"/>
<path d="M77.649 57.5067C77.649 57.7414 77.6225 57.9311 77.5897 57.9311C77.5569 57.9311 77.5312 57.7414 77.5312 57.5067C77.5312 57.272 77.564 57.3823 77.5968 57.3823C77.6296 57.3823 77.649 57.272 77.649 57.5067Z" fill="#3F3D56"/>
<path d="M77.9764 57.7864C77.7691 57.8993 77.5893 57.9673 77.5734 57.9381C77.5575 57.909 77.7124 57.7952 77.9197 57.6831C78.1269 57.5711 78.0446 57.6531 78.0605 57.6831C78.0764 57.7131 78.1827 57.6743 77.9764 57.7864Z" fill="#3F3D56"/>
<path d="M73.995 56.657C73.995 56.657 73.4831 57.3232 74.2306 58.3334C74.9781 59.3437 75.5954 60.1864 75.3465 60.8173C75.3465 60.8173 74.2182 58.9485 73.2989 58.922C72.3795 58.8955 72.9845 57.7811 73.995 56.657Z" fill="#3F3D56"/>
<path d="M76.699 56.657C76.699 56.657 77.2109 57.3232 76.4625 58.3334C75.7141 59.3437 75.0977 60.1864 75.3475 60.8173C75.3475 60.8173 76.4758 58.9485 77.3942 58.922C78.3126 58.8955 77.7095 57.7811 76.699 56.657Z" fill="#D4DFEC"/>
<path opacity="0.1" d="M73.995 56.657C73.995 56.657 73.4831 57.3232 74.2306 58.3334C74.9781 59.3437 75.5954 60.1864 75.3465 60.8173C75.3465 60.8173 74.2182 58.9485 73.2989 58.922C72.3795 58.8955 72.9845 57.7811 73.995 56.657Z" fill="black"/>
<path opacity="0.1" d="M73.995 56.657C73.9502 56.7213 73.915 56.7917 73.8905 56.8661C72.9942 57.9152 72.5168 58.8955 73.3777 58.9185C74.1801 58.9414 75.1428 60.3708 75.374 60.7317C75.3663 60.7595 75.3571 60.7869 75.3465 60.8137C75.3465 60.8137 74.2182 58.9414 73.2989 58.9185C72.3796 58.8955 72.9845 57.7811 73.995 56.657Z" fill="black"/>
<path d="M73.0391 57.5067C73.0391 57.7414 73.0656 57.9311 73.0984 57.9311C73.1312 57.9311 73.1577 57.7414 73.1577 57.5067C73.1577 57.272 73.125 57.3823 73.0922 57.3823C73.0594 57.3823 73.0391 57.272 73.0391 57.5067Z" fill="#D4DFEC"/>
<path d="M72.7162 57.7864C72.9225 57.8993 73.1032 57.9673 73.1192 57.9381C73.1351 57.909 72.9792 57.7952 72.7729 57.6831C72.5665 57.5711 72.6471 57.6531 72.6321 57.6831C72.617 57.7131 72.5072 57.6743 72.7162 57.7864Z" fill="#D4DFEC"/>
<path d="M78.1003 59.9121L78.0746 60.1203L78.0392 60.4141L78.0241 60.5368L77.9878 60.8315L77.9728 60.9541L77.9365 61.2479L77.5273 64.5921C77.491 64.8903 77.0012 65.1215 76.4105 65.1215H74.2796C73.6879 65.1215 73.1991 64.8885 73.1627 64.5921L72.7527 61.2479L72.7173 60.9541L72.7022 60.8315L72.665 60.5368L72.6508 60.4141L72.6145 60.1203L72.5968 59.9121C72.5764 59.7435 72.8412 59.6006 73.176 59.6006H77.5273C77.8559 59.6041 78.1216 59.7471 78.1003 59.9121Z" fill="#3F3D56"/>
<path d="M78.0746 60.1233L78.0383 60.4171H72.6535L72.6172 60.1233H78.0746Z" fill="#9D9CB5"/>
<path d="M78.0246 60.5403L77.9892 60.835H72.7062L72.6699 60.5403H78.0246Z" fill="#9D9CB5"/>
<path d="M77.9727 60.9575L77.9372 61.2514H72.7561L72.7207 60.9575H77.9727Z" fill="#9D9CB5"/>
</g>
<defs>
<linearGradient id="paint0_linear" x1="48.3529" y1="73.44" x2="48.3529" y2="22.4868" gradientUnits="userSpaceOnUse">
<stop stop-color="#808080" stop-opacity="0.25"/>
<stop offset="0.54" stop-color="#808080" stop-opacity="0.12"/>
<stop offset="1" stop-color="#808080" stop-opacity="0.1"/>
</linearGradient>
<clipPath id="clip0">
<rect width="89" height="75" fill="white"/>
</clipPath>
</defs>
</svg>
