<svg width="85" height="63" viewBox="0 0 85 63" fill="none" xmlns="http://www.w3.org/2000/svg">
<g clip-path="url(#clip0)">
<path d="M81.5269 55.9587L81.8449 54.7167C82.4089 54.4801 82.9859 54.2751 83.5732 54.1029L83.6133 54.6801L83.7762 54.0442C84.5045 53.8383 85 53.7476 85 53.7476C85 53.7476 84.3307 56.2673 82.9269 58.1936L81.2912 58.4781L82.562 58.6595C82.3853 58.8698 82.1955 59.069 81.9936 59.2558C79.9514 61.1324 77.6769 61.9934 76.9133 61.1789C76.1496 60.3644 77.186 58.1828 79.2281 56.3062C79.8612 55.7244 80.6564 55.2576 81.4525 54.8902L81.5269 55.9587Z" fill="#E6E6E6"/>
<path d="M78.5028 54.6097L78.1266 53.3837C78.4859 52.8925 78.8728 52.4218 79.2856 51.9738L79.6213 52.4473L79.4287 51.8196C79.9447 51.2707 80.3215 50.9395 80.3215 50.9395C80.3215 50.9395 81.0641 53.4389 80.8682 55.8064L79.6165 56.8869L80.799 56.3919C80.7576 56.6624 80.6991 56.9301 80.6238 57.1933C79.8554 59.8448 78.3579 61.7458 77.2789 61.4394C76.1999 61.1329 75.9481 58.735 76.7164 56.0835C76.9546 55.2615 77.3916 54.4549 77.8812 53.733L78.5028 54.6097Z" fill="#E6E6E6"/>
<path d="M84.8079 61.3513H35.416V61.5408H84.8079V61.3513Z" fill="#3F3D56"/>
<path d="M2.31759 24.7697C1.64905 23.7872 1.36166 22.0423 2.60498 21.1824C3.2216 20.7559 3.97015 20.8079 4.61819 20.9956C5.51457 21.2552 6.3117 21.7843 7.00121 22.3764C7.79651 23.0593 8.47743 23.8599 9.14883 24.6609C9.81164 25.4516 10.4834 26.2331 11.188 26.9868C12.5767 28.4714 14.0594 29.8671 15.6271 31.1654C17.1634 32.4393 18.7792 33.6163 20.4647 34.6894C21.3015 35.2217 22.1563 35.7269 23.0289 36.205C23.839 36.6659 24.677 37.0772 25.538 37.4366C26.6832 37.8925 28.6455 38.5297 29.6611 37.2507C30.1996 36.5725 30.2265 35.6523 30.1049 34.8794C29.9579 33.9448 29.5872 33.0727 29.222 32.2209C27.5231 28.2585 25.8045 24.3056 24.0956 20.348C23.6968 19.4244 23.286 18.5042 22.9547 17.5496C22.6446 16.6559 22.3864 15.7136 22.3803 14.7402C22.3749 13.89 22.5615 12.9305 23.2148 12.2756C23.7565 11.7325 24.5156 11.5528 25.2304 11.5569C27.0001 11.5671 28.6629 12.4589 30.0373 13.3989C31.745 14.5667 33.2533 15.9853 34.9543 17.1619C36.3278 18.1119 37.9431 18.9728 39.696 19.0818C40.3681 19.1236 41.0814 19.0349 41.6937 18.6714C42.279 18.3076 42.7052 17.7398 42.8883 17.0801C43.1178 16.3154 43.0892 15.5077 42.9674 14.7539C42.8153 13.8713 42.5392 13.0141 42.1473 12.2072C41.3186 10.4539 40.1861 8.88277 39.2108 7.21875C38.7326 6.40268 38.2655 5.56165 37.9674 4.65145C37.7149 3.88031 37.5094 2.96761 37.7589 2.13153C38.2737 0.406507 40.3666 1.05561 41.4277 1.55357C42.1466 1.90324 42.8396 2.30281 43.5016 2.74929C43.6442 2.84256 43.7828 2.59512 43.6409 2.50227C42.9459 2.03126 42.2152 1.61423 41.4552 1.25493C40.8083 0.96187 40.0961 0.706229 39.3541 0.72028C38.7308 0.732081 38.1026 0.990553 37.7368 1.54262C37.3039 2.19581 37.3338 3.0403 37.4503 3.74108C37.6043 4.66779 37.9721 5.52387 38.3962 6.33842C38.8428 7.1963 39.3524 8.01654 39.865 8.83313C40.8894 10.4649 42.0116 12.1156 42.5225 14.0206C42.8799 15.3532 43.1057 17.4345 41.651 18.3855C41.0053 18.8077 40.214 18.8688 39.4995 18.7892C38.6359 18.6931 37.8134 18.409 37.0453 18.0521C33.4633 16.3877 31.0772 12.9317 27.2584 11.6537C25.9601 11.2192 24.1431 10.9417 23.0005 12.1168C22.407 12.7272 22.1689 13.5747 22.1155 14.371C22.0514 15.3248 22.2525 16.2635 22.5259 17.1468C22.8291 18.0725 23.1817 18.9816 23.5824 19.8702C24.0105 20.8633 24.4392 21.8561 24.8684 22.8486L27.4704 28.8746L28.7633 31.8687C29.1578 32.7825 29.5808 33.7008 29.7864 34.6914C29.9548 35.5025 30.0026 36.6186 29.281 37.2712C28.7078 37.7894 27.8705 37.7654 27.1996 37.6451C26.3308 37.4892 25.5135 37.1486 24.7357 36.7729C23.8385 36.3395 22.9651 35.8588 22.1076 35.3587C20.3425 34.3278 18.6483 33.1824 17.0359 31.9302C15.4172 30.6749 13.8812 29.3186 12.437 27.8697C11.707 27.1372 11.0017 26.3814 10.3208 25.6022C9.61928 24.7988 8.96043 23.9575 8.2338 23.1763C7.57655 22.4698 6.85702 21.8148 6.02052 21.3165C5.32207 20.9004 4.49637 20.5525 3.63735 20.5799C3.33434 20.5882 3.0365 20.6597 2.76321 20.7895C2.48991 20.9193 2.24728 21.1047 2.05108 21.3334C1.66663 21.8066 1.45889 22.3967 1.46295 23.004C1.46738 23.6894 1.681 24.3574 2.0758 24.9205C2.1713 25.0608 2.41352 24.9106 2.31759 24.7697V24.7697Z" fill="#E6E6E6"/>
<path d="M13.268 1.9082H1.79883V11.9901H13.268V1.9082Z" fill="#E6E6E6"/>
<path d="M13.268 20.0554H1.79883V30.1373H13.268V20.0554Z" fill="#EB5757"/>
<path d="M50.1196 1.9082H38.6504V11.9901H50.1196V1.9082Z" fill="#EB5757"/>
<path d="M50.1196 20.0554H38.6504V30.1373H50.1196V20.0554Z" fill="#E6E6E6"/>
<path d="M31.8247 1.9082H20.3555V11.9901H31.8247V1.9082Z" fill="#EB5757"/>
<path d="M31.8247 20.0554H20.3555V30.1373H31.8247V20.0554Z" fill="#EB5757"/>
<path d="M20.389 3.79064C21.4463 3.79064 22.3034 2.94208 22.3034 1.89532C22.3034 0.848564 21.4463 0 20.389 0C19.3317 0 18.4746 0.848564 18.4746 1.89532C18.4746 2.94208 19.3317 3.79064 20.389 3.79064Z" fill="#3F3D56"/>
<path d="M38.8636 3.79064C39.9209 3.79064 40.778 2.94208 40.778 1.89532C40.778 0.848564 39.9209 0 38.8636 0C37.8063 0 36.9492 0.848564 36.9492 1.89532C36.9492 2.94208 37.8063 3.79064 38.8636 3.79064Z" fill="#3F3D56"/>
<path d="M1.91441 21.9857C2.97172 21.9857 3.82883 21.1372 3.82883 20.0904C3.82883 19.0436 2.97172 18.1951 1.91441 18.1951C0.857113 18.1951 0 19.0436 0 20.0904C0 21.1372 0.857113 21.9857 1.91441 21.9857Z" fill="#3F3D56"/>
<path d="M20.389 21.9857C21.4463 21.9857 22.3034 21.1372 22.3034 20.0904C22.3034 19.0436 21.4463 18.1951 20.389 18.1951C19.3317 18.1951 18.4746 19.0436 18.4746 20.0904C18.4746 21.1372 19.3317 21.9857 20.389 21.9857Z" fill="#3F3D56"/>
<path d="M65.0225 60.3792C65.0225 60.3792 62.3469 60.5829 62.6213 61.5338C62.8957 62.4847 65.0225 62.3488 65.0225 62.3488C65.0225 62.3488 66.669 62.213 67.5608 62.4847C68.4527 62.7564 69.4818 62.4847 69.5504 62.0092C69.619 61.5338 69.0701 61.1942 69.0701 61.1942L68.7271 60.515L65.0225 60.3792Z" fill="#2F2E41"/>
<path d="M57.9904 39.1536L57.716 40.2403C57.716 40.2403 56.4811 42.7533 57.9904 42.7533C59.4997 42.7533 58.9509 40.444 58.9509 40.444L59.0881 39.3573L57.9904 39.1536Z" fill="#9F616A"/>
<path d="M71.2324 38.2708L71.5069 39.3575C71.5069 39.3575 72.7417 41.8705 71.2324 41.8705C69.7231 41.8705 70.272 39.5612 70.272 39.5612L70.1348 38.4745L71.2324 38.2708Z" fill="#9F616A"/>
<path d="M64.0965 19.7967C65.7257 19.7967 67.0465 18.4891 67.0465 16.8761C67.0465 15.2632 65.7257 13.9556 64.0965 13.9556C62.4672 13.9556 61.1465 15.2632 61.1465 16.8761C61.1465 18.4891 62.4672 19.7967 64.0965 19.7967Z" fill="#9F616A"/>
<path d="M63.2051 19.1175C63.2051 19.1175 63.5481 20.6797 63.3423 21.4268C63.1365 22.1739 67.5958 21.291 67.5958 21.291C67.5958 21.291 66.0179 18.71 66.0865 18.6421L63.2051 19.1175Z" fill="#9F616A"/>
<path d="M63.8909 20.8833C63.8909 20.8833 62.656 20.5437 62.2444 20.9512C61.8328 21.3587 59.4316 22.5133 59.4316 22.5133L61.0781 32.4976L68.213 30.9355L69.4479 21.4945C69.4479 21.4945 67.5024 20.3651 67.1717 20.5902C66.8409 20.8153 63.8909 20.8833 63.8909 20.8833Z" fill="#D0CDE1"/>
<path d="M59.9807 22.5813L59.6515 22.4065C59.6515 22.4065 58.4028 22.6492 58.4714 23.6001C58.54 24.551 58.8145 29.8488 58.8145 29.8488L57.7168 39.4255L59.7063 39.7651L61.6959 31.7506L59.9807 22.5813Z" fill="#D0CDE1"/>
<path d="M69.2425 21.6983L69.5717 21.5234C69.5717 21.5234 70.8204 21.7662 70.7517 22.7171C70.6831 23.668 70.4087 28.9657 70.4087 28.9657L71.5064 38.5425L69.5169 38.8821L67.5273 30.8675L69.2425 21.6983Z" fill="#D0CDE1"/>
<path d="M61.1467 31.479L60.8723 35.6221L59.9805 43.9084L61.284 61.0922L65.8119 61.228L64.4398 44.8592L65.8119 39.2219L70.2968 39.0574C70.2968 39.0574 70.6142 32.5657 68.0758 30.5281L61.1467 31.479Z" fill="#2F2E41"/>
<path d="M66.0855 38.2709L65.3652 53.2473L65.125 60.8205L69.1727 61.228L70.194 38.9563L68.6239 37.3879L66.0855 38.2709Z" fill="#2F2E41"/>
<path d="M65.4007 13.0045C65.4007 13.0045 62.7251 12.6649 61.9704 13.9554C61.9704 13.9554 61.7646 14.9063 61.0786 15.2459C60.3925 15.5855 61.2158 16.7401 61.4216 17.0797C61.6274 17.4193 62.1762 19.389 61.5588 19.8644C60.9414 20.3399 62.6565 21.6983 62.6565 21.6983C62.6565 21.6983 63.4797 22.785 62.7937 23.6C62.1076 24.4151 63.6855 24.6868 63.6855 24.6868C63.6855 24.6868 63.3425 26.9961 63.96 26.3848C63.96 26.3848 64.2344 31.6146 66.8414 28.3545C69.4483 25.0943 70.546 23.5321 69.4483 22.2416C68.3507 20.9512 69.1739 19.7965 69.1739 19.7965C69.1739 19.7965 69.5169 19.1173 68.7623 18.0985C68.0076 17.0797 68.0076 13.0045 65.4007 13.0045Z" fill="#2F2E41"/>
<path d="M61.5244 60.7866C61.5244 60.7866 58.8488 60.9904 59.1233 61.9413C59.3977 62.8921 61.5244 62.7563 61.5244 62.7563C61.5244 62.7563 63.1709 62.6205 64.0628 62.8921C64.9546 63.1638 65.9837 62.8921 66.0523 62.4167C66.1209 61.9413 65.5721 61.6017 65.5721 61.6017L65.2291 60.9225L61.5244 60.7866Z" fill="#2F2E41"/>
</g>
<defs>
<clipPath id="clip0">
<rect width="85" height="63" fill="white"/>
</clipPath>
</defs>
</svg>
