<svg width="55" height="55" viewBox="0 0 55 55" fill="none" xmlns="http://www.w3.org/2000/svg">
<path d="M27.5 55C12.2964 55 0 42.7036 0 27.5C0 12.2964 12.2964 0 27.5 0C42.7036 0 55 12.2964 55 27.5C55 42.7036 42.7036 55 27.5 55Z" fill="black"/>
<path d="M43.8417 18.9751C39.2453 18.9751 35.5131 15.2429 35.5131 10.6465H29.306V34.7679C29.306 37.5572 27.0274 39.8358 24.2381 39.8358C21.4488 39.8358 19.1703 37.5572 19.1703 34.7679C19.1703 31.9786 21.4488 29.7001 24.2381 29.7001C24.7488 29.7001 25.3774 29.7786 25.8488 29.9358V23.6108C25.3381 23.5322 24.7881 23.4929 24.2381 23.4929C17.9917 23.4929 12.9238 28.5608 12.9238 34.8072C12.9238 41.0536 17.9917 46.1215 24.2381 46.1215C30.4845 46.1215 35.5524 41.0536 35.5524 34.8072V22.0393C37.831 23.8858 40.6988 24.9858 43.881 24.9858V18.9751H43.8417Z" fill="#FF1352"/>
<path d="M42.0741 17.2073C37.517 17.2073 33.7848 13.4751 33.7848 8.91797H27.5384V33.0394C27.5384 35.8287 25.2598 38.1073 22.4705 38.1073C19.6812 38.1073 17.4027 35.8287 17.4027 33.0394C17.4027 30.2501 19.642 27.9323 22.4705 27.9323C22.9812 27.9323 23.6098 28.0108 24.0812 28.168V21.843C23.5705 21.7644 23.0205 21.7251 22.4705 21.7251C16.2241 21.7251 11.1562 26.793 11.1562 33.0394C11.1562 39.2858 16.2241 44.3537 22.4705 44.3537C28.717 44.3537 33.7848 39.2858 33.7848 33.0394V20.2715C36.0634 22.118 38.9312 23.218 42.1134 23.218V17.2073H42.0741Z" fill="#00F1EA"/>
<path d="M42.0738 18.7789C40.0703 18.3467 38.3417 17.1682 37.1631 15.5967C35.5524 14.4182 34.4131 12.6896 33.981 10.686H29.306V34.8075C29.306 37.5967 27.0274 39.8753 24.2381 39.8753C22.3917 39.8753 20.7417 38.8932 19.8774 37.4003C18.3845 36.4967 17.4024 34.886 17.4024 33.0396C17.4024 30.2503 19.681 27.9717 22.4703 27.9717C22.981 27.9717 23.6095 28.0503 24.081 28.2075V23.4932C17.9131 23.5717 12.9238 28.6003 12.9238 34.8075C12.9238 37.4789 13.8667 39.9539 15.3988 41.8789C17.3238 43.411 19.7988 44.3539 22.4703 44.3539C28.7167 44.3539 33.7845 39.286 33.7845 33.0396V20.2717C36.0631 22.1182 38.931 23.2182 42.1131 23.2182V18.7789H42.0738Z" fill="white"/>
</svg>
