<svg width="133" height="111" viewBox="0 0 133 111" fill="none" xmlns="http://www.w3.org/2000/svg">
<g clip-path="url(#clip0)">
<path d="M28.871 69.3665L31.142 70.6701C31.3718 70.802 31.6277 70.8823 31.8917 70.9052C32.1557 70.9282 32.4216 70.8934 32.6708 70.8032C32.92 70.713 33.1464 70.5696 33.3344 70.383C33.5224 70.1964 33.6674 69.9711 33.7593 69.7227C33.8581 69.4555 33.8928 69.1687 33.8605 68.8856C33.8282 68.6025 33.7298 68.331 33.5733 68.0928C33.4167 67.8546 33.2064 67.6564 32.9592 67.5143C32.712 67.3721 32.4348 67.2899 32.15 67.2742L29.3998 67.1232L21.1153 64.6183L19.7797 59.6228L16.2871 61.5825L18.6885 67.2618L28.871 69.3665Z" fill="#FFB8B8"/>
<path d="M18.0434 43.4384C17.5181 44.0334 17.6129 44.749 17.9955 45.33C18.3782 45.9109 19.0149 46.3943 19.5721 46.9069C19.9301 47.2362 20.2612 47.5857 20.4216 47.9819C20.5099 48.1845 20.5388 48.408 20.5049 48.6263C20.471 48.8447 20.3757 49.0489 20.2301 49.2153C19.8652 49.6464 19.1855 49.9385 18.5224 50.1887C16.6259 50.8995 14.6691 51.4377 12.6758 51.797C14.3551 49.8369 15.1957 47.6296 15.0725 45.5033C15.0467 45.057 14.9803 44.6067 15.1363 44.1594C15.2435 43.891 15.4129 43.6517 15.6306 43.4614C15.8484 43.2711 16.1082 43.1351 16.3888 43.0647C17.0563 42.8732 17.9355 43.0626 18.0378 43.4995" fill="#2F2E41"/>
<path d="M3.65625 106.338L6.05924 106.442L10.8021 84.5583L6.68611 84.735L3.65625 106.338Z" fill="#FFB8B8"/>
<path d="M27.6852 101.641L25.7 102.685L13.2832 84.2825L17.2376 82.543L27.6852 101.641Z" fill="#FFB8B8"/>
<path d="M13.8459 50.3274C15.9451 50.3274 17.6468 48.6274 17.6468 46.5305C17.6468 44.4336 15.9451 42.7336 13.8459 42.7336C11.7467 42.7336 10.0449 44.4336 10.0449 46.5305C10.0449 48.6274 11.7467 50.3274 13.8459 50.3274Z" fill="#FFB8B8"/>
<path d="M11.9106 48.5208C11.9106 48.5208 10.5524 51.3385 8.67188 51.2342C8.67188 51.2342 5.11972 49.7731 3.9705 53.7389L2.7168 56.8698L19.3284 59.6875C19.3284 59.6875 18.3881 53.9476 16.1941 53.8432C16.1941 53.8432 13.6867 53.6345 14.0001 52.6953C14.3135 51.756 15.4628 49.5644 15.4628 49.5644L11.9106 48.5208Z" fill="#FFB8B8"/>
<path d="M17.4482 62.9231L14.9408 68.35L17.0072 77.1216L27.0713 95.9887C27.0713 95.9887 22.4364 100.143 21.281 100.809C20.2788 101.387 11.9351 85.7213 11.6304 82.4925C11.5299 81.4269 9.70033 103.012 9.70033 103.012C9.70033 103.012 2.80299 101.875 0.876953 101.497C0.876953 101.497 2.26459 91.6795 3.0828 82.4925C3.71349 75.411 3.14 68.9933 6.68721 65.9496L6.37379 59.8966L14.7318 59.5835L17.4482 62.9231Z" fill="#2F2E41"/>
<path d="M4.46554 110.363L8.30175 110.919C8.59902 111.03 8.92688 111.026 9.22145 110.908C9.51602 110.791 9.75621 110.568 9.89521 110.283C10.0081 110.052 10.0483 109.791 10.0105 109.537C9.97261 109.282 9.8585 109.045 9.68315 108.856L8.05488 107.105L6.88299 104.579C6.18211 103.864 5.70302 104.117 5.43518 105.291L3.5618 104.704L3.07061 108.002C2.9971 108.496 3.09555 108.999 3.34948 109.429C3.60341 109.859 3.99741 110.189 4.46554 110.363Z" fill="#2F2E41"/>
<path d="M26.331 106.912L30.2074 106.898C30.5178 106.964 30.8415 106.912 31.1155 106.753C31.3896 106.593 31.5943 106.337 31.6898 106.035C31.7674 105.789 31.7689 105.526 31.6939 105.28C31.619 105.034 31.4712 104.816 31.2699 104.655L29.4014 103.162L27.8701 100.836C27.0716 100.231 26.6349 100.552 26.5431 101.753L24.6035 101.447V104.782C24.6035 105.281 24.7751 105.765 25.0896 106.153C25.4041 106.54 25.8423 106.808 26.331 106.912Z" fill="#2F2E41"/>
<path d="M11.9263 40.6939C11.2807 40.4121 10.5124 40.5226 9.8891 40.8507C9.26577 41.1789 8.76775 41.7022 8.33186 42.2552C6.83099 44.1687 5.9558 46.4971 5.82505 48.9244C5.79091 49.588 5.82294 50.2893 6.16876 50.8568C6.54878 51.4805 7.24437 51.8385 7.93337 52.0822C10.2433 52.8863 12.7776 52.747 14.9853 51.6947C13.8245 50.7545 12.7504 49.7122 11.7759 48.5803C11.5933 48.3681 11.4024 48.0958 11.4952 47.8318C11.5537 47.7034 11.6444 47.5922 11.7585 47.509L13.9963 45.5677L13.94 46.3531C14.385 46.3271 14.8127 46.1714 15.1701 45.9053C15.5276 45.6391 15.7991 45.2742 15.9511 44.8556C15.8432 45.0731 16.0492 45.3403 16.2873 45.3892C16.5254 45.4382 16.7664 45.3401 16.9896 45.2442C17.5311 45.0114 18.1192 44.7343 18.3594 44.1966C18.435 44.007 18.4712 43.804 18.4658 43.6001C18.4603 43.3961 18.4133 43.1954 18.3277 43.0101C18.154 42.6404 17.9061 42.3102 17.5994 42.0401C16.8467 41.346 15.931 40.8527 14.9369 40.6058C13.9428 40.3589 12.9024 40.3664 11.9119 40.6276" fill="#2F2E41"/>
<path d="M11.1659 68.8232L12.8349 70.8398C13.0037 71.0438 13.2151 71.2086 13.4543 71.3227C13.6935 71.4367 13.9547 71.4973 14.2197 71.5001C14.4847 71.503 14.7472 71.448 14.9888 71.3392C15.2303 71.2303 15.4452 71.0701 15.6185 70.8697C15.8049 70.6541 15.9381 70.3977 16.0072 70.1213C16.0764 69.8448 16.0796 69.5561 16.0167 69.2781C15.9537 69.0002 15.8263 68.741 15.6448 68.5212C15.4632 68.3015 15.2325 68.1274 14.9713 68.0129L12.4489 66.9077L5.57053 61.659L6.07404 56.5129L2.11523 57.1243L2.36965 63.2842L11.1659 68.8232Z" fill="#FFB8B8"/>
<path d="M21.5219 64.2796C21.5219 64.2796 19.8952 58.3281 19.0369 58.3295C18.1787 58.3309 17.0295 58.2266 17.0295 58.2266C17.0295 58.2266 15.6713 54.2608 8.67145 55.5131C1.67161 56.7655 4.70139 54.3651 2.71636 55.3044C0.731326 56.2437 0 62.8185 0 62.8185C0 62.8185 10.7609 59.2702 13.0594 61.2531C14.3793 62.4062 15.8148 63.4204 17.3429 64.2796C17.3429 64.2796 16.2981 66.8887 21.5219 64.2796Z" fill="#2F2E41"/>
<path d="M58.8274 106.585H16.6406V106.861H58.8274V106.585Z" fill="#3F3D56"/>
<path d="M91.2258 59.0733C105.312 59.0733 116.731 47.6666 116.731 33.5957C116.731 19.5249 105.312 8.11816 91.2258 8.11816C77.1397 8.11816 65.7207 19.5249 65.7207 33.5957C65.7207 47.6666 77.1397 59.0733 91.2258 59.0733Z" fill="#E6E6E6"/>
<path d="M86.3997 19.4109H44.2129V19.6863H86.3997V19.4109Z" fill="#3F3D56"/>
<path d="M127.07 26.9854H44.2129V27.2608H127.07V26.9854Z" fill="#3F3D56"/>
<path d="M101.565 54.1154C87.4253 54.1154 75.9219 42.6244 75.9219 28.5001C75.9219 14.3758 87.4253 2.88477 101.565 2.88477C115.704 2.88477 127.208 14.3758 127.208 28.5001C127.208 42.6244 115.704 54.1154 101.565 54.1154ZM101.565 3.1602C87.5773 3.1602 76.1976 14.5276 76.1976 28.5001C76.1976 42.4725 87.5773 53.8399 101.565 53.8399C115.552 53.8399 126.932 42.4725 126.932 28.5001C126.932 14.5276 115.552 3.1602 101.565 3.1602Z" fill="#3F3D56"/>
<path d="M99.2007 6.7262C101.06 6.7262 102.567 5.22049 102.567 3.3631C102.567 1.50571 101.06 0 99.2007 0C97.3413 0 95.834 1.50571 95.834 3.3631C95.834 5.22049 97.3413 6.7262 99.2007 6.7262Z" fill="#F0C453"/>
<path d="M76.0183 28.8737C77.2215 28.8737 78.1968 27.8994 78.1968 26.6976C78.1968 25.4958 77.2215 24.5215 76.0183 24.5215C74.8152 24.5215 73.8398 25.4958 73.8398 26.6976C73.8398 27.8994 74.8152 28.8737 76.0183 28.8737Z" fill="#FF6584"/>
<path d="M128.026 31.7031C130.774 31.7031 133.001 29.478 133.001 26.7333C133.001 23.9885 130.774 21.7634 128.026 21.7634C125.278 21.7634 123.051 23.9885 123.051 26.7333C123.051 29.478 125.278 31.7031 128.026 31.7031Z" fill="#F0C453"/>
<path d="M58.093 46.343H42.9968V46.6185H58.093C58.8362 46.6185 59.549 46.9134 60.0745 47.4384C60.6001 47.9633 60.8953 48.6753 60.8953 49.4178C60.8953 50.1602 60.6001 50.8722 60.0745 51.3972C59.549 51.9222 58.8362 52.2171 58.093 52.2171H35.2499C34.5067 52.2171 33.7939 51.9222 33.2684 51.3972C32.7429 50.8722 32.4476 50.1602 32.4476 49.4178C32.4476 48.6753 32.7429 47.9633 33.2684 47.4384C33.7939 46.9134 34.5067 46.6185 35.2499 46.6185H36.1036V46.343H35.2499C34.4336 46.343 33.6507 46.667 33.0734 47.2436C32.4962 47.8202 32.1719 48.6023 32.1719 49.4178C32.1719 50.2332 32.4962 51.0153 33.0734 51.5919C33.6507 52.1686 34.4336 52.4925 35.2499 52.4925H58.093C58.9093 52.4925 59.6922 52.1686 60.2695 51.5919C60.8467 51.0153 61.171 50.2332 61.171 49.4178C61.171 48.6023 60.8467 47.8202 60.2695 47.2436C59.6922 46.667 58.9093 46.343 58.093 46.343Z" fill="#3F3D56"/>
<path d="M58.093 55.8455H42.9968V56.1209H58.093C58.8362 56.1209 59.549 56.4158 60.0745 56.9408C60.6001 57.4658 60.8953 58.1778 60.8953 58.9202C60.8953 59.6626 60.6001 60.3747 60.0745 60.8996C59.549 61.4246 58.8362 61.7195 58.093 61.7195H35.2499C34.5067 61.7195 33.7939 61.4246 33.2684 60.8996C32.7429 60.3747 32.4476 59.6626 32.4476 58.9202C32.4476 58.1778 32.7429 57.4658 33.2684 56.9408C33.7939 56.4158 34.5067 56.1209 35.2499 56.1209H36.1036V55.8455H35.2499C34.4336 55.8455 33.6507 56.1694 33.0734 56.746C32.4962 57.3227 32.1719 58.1047 32.1719 58.9202C32.1719 59.7357 32.4962 60.5178 33.0734 61.0944C33.6507 61.671 34.4336 61.995 35.2499 61.995H58.093C58.9093 61.995 59.6922 61.671 60.2695 61.0944C60.8467 60.5178 61.171 59.7357 61.171 58.9202C61.171 58.1047 60.8467 57.3227 60.2695 56.746C59.6922 56.1694 58.9093 55.8455 58.093 55.8455Z" fill="#3F3D56"/>
<path d="M58.093 65.3479H42.9968V65.6233H58.093C58.8362 65.6233 59.549 65.9183 60.0745 66.4432C60.6001 66.9682 60.8953 67.6802 60.8953 68.4227C60.8953 69.1651 60.6001 69.8771 60.0745 70.4021C59.549 70.9271 58.8362 71.222 58.093 71.222H35.2499C34.5067 71.222 33.7939 70.9271 33.2684 70.4021C32.7429 69.8771 32.4476 69.1651 32.4476 68.4227C32.4476 67.6802 32.7429 66.9682 33.2684 66.4432C33.7939 65.9183 34.5067 65.6233 35.2499 65.6233H36.1036V65.3479H35.2499C34.4336 65.3479 33.6507 65.6718 33.0734 66.2485C32.4962 66.8251 32.1719 67.6072 32.1719 68.4227C32.1719 69.2381 32.4962 70.0202 33.0734 70.5968C33.6507 71.1735 34.4336 71.4974 35.2499 71.4974H58.093C58.9093 71.4974 59.6922 71.1735 60.2695 70.5968C60.8467 70.0202 61.171 69.2381 61.171 68.4227C61.171 67.6072 60.8467 66.8251 60.2695 66.2485C59.6922 65.6718 58.9093 65.3479 58.093 65.3479Z" fill="#3F3D56"/>
<path d="M37.8062 45.6153C37.5911 45.6189 37.3861 45.7068 37.2353 45.86C37.0845 46.0131 37 46.2194 37 46.4342C37 46.649 37.0845 46.8553 37.2353 47.0085C37.3861 47.1616 37.5911 47.2495 37.8062 47.2531H41.4025C41.6195 47.256 41.8287 47.1728 41.9844 47.0218C42.1402 46.8708 42.2296 46.6644 42.2332 46.4476C42.2367 46.2309 42.1541 46.0216 42.0035 45.8656C41.8528 45.7096 41.6464 45.6196 41.4294 45.6153C41.4204 45.6152 41.4115 45.6152 41.4025 45.6153H37.8062Z" fill="#F0C453"/>
<path d="M37.8062 55.2555C37.5911 55.2591 37.3861 55.3469 37.2353 55.5001C37.0845 55.6533 37 55.8595 37 56.0743C37 56.2892 37.0845 56.4954 37.2353 56.6486C37.3861 56.8018 37.5911 56.8896 37.8062 56.8932H41.4025C41.6195 56.8961 41.8287 56.8129 41.9844 56.662C42.1402 56.511 42.2296 56.3045 42.2332 56.0878C42.2367 55.871 42.1541 55.6617 42.0035 55.5057C41.8528 55.3497 41.6464 55.2597 41.4294 55.2555C41.4204 55.2553 41.4115 55.2553 41.4025 55.2555H37.8062Z" fill="#FF6584"/>
<path d="M37.8064 64.62C37.5913 64.6235 37.3862 64.7114 37.2354 64.8645C37.0845 65.0177 37 65.224 37 65.4389C37 65.6537 37.0845 65.86 37.2354 66.0132C37.3862 66.1664 37.5913 66.2542 37.8064 66.2578H41.4027C41.6199 66.2611 41.8296 66.1781 41.9857 66.0271C42.1418 65.8761 42.2314 65.6693 42.235 65.4523C42.2386 65.2353 42.1557 65.0257 42.0047 64.8696C41.8537 64.7136 41.6469 64.6238 41.4296 64.62C41.4206 64.6198 41.4117 64.6198 41.4027 64.62H37.8064Z" fill="#3F3D56"/>
<path d="M36.3805 48.5987C36.1654 48.6023 35.9604 48.6902 35.8096 48.8433C35.6587 48.9965 35.5742 49.2028 35.5742 49.4176C35.5742 49.6325 35.6587 49.8387 35.8096 49.9919C35.9604 50.1451 36.1654 50.2329 36.3805 50.2365H56.9342C57.042 50.2385 57.1492 50.2193 57.2495 50.1799C57.3499 50.1405 57.4415 50.0817 57.5191 50.0069C57.5967 49.9321 57.6588 49.8427 57.7017 49.7439C57.7447 49.6451 57.7677 49.5388 57.7695 49.4311C57.7712 49.3234 57.7517 49.2164 57.712 49.1162C57.6723 49.0161 57.6133 48.9247 57.5382 48.8474C57.4631 48.7701 57.3735 48.7083 57.2744 48.6656C57.1754 48.623 57.069 48.6002 56.9611 48.5987C56.9522 48.5986 56.9432 48.5986 56.9342 48.5987H36.3805Z" fill="#E6E6E6"/>
<path d="M36.3805 58.1012C36.1654 58.1048 35.9604 58.1926 35.8096 58.3458C35.6587 58.499 35.5742 58.7052 35.5742 58.92C35.5742 59.1349 35.6587 59.3411 35.8096 59.4943C35.9604 59.6475 36.1654 59.7353 36.3805 59.7389H56.9342C57.042 59.7409 57.1492 59.7217 57.2495 59.6823C57.3499 59.6429 57.4415 59.5841 57.5191 59.5093C57.5967 59.4345 57.6588 59.3451 57.7017 59.2463C57.7447 59.1475 57.7677 59.0412 57.7695 58.9335C57.7712 58.8258 57.7517 58.7188 57.712 58.6187C57.6723 58.5185 57.6133 58.4271 57.5382 58.3498C57.4631 58.2725 57.3735 58.2108 57.2744 58.1681C57.1754 58.1254 57.069 58.1027 56.9611 58.1012C56.9522 58.101 56.9432 58.101 56.9342 58.1012H36.3805Z" fill="#E6E6E6"/>
<path d="M36.3805 67.6039C36.1654 67.6074 35.9604 67.6953 35.8096 67.8485C35.6587 68.0016 35.5742 68.2079 35.5742 68.4227C35.5742 68.6376 35.6587 68.8438 35.8096 68.997C35.9604 69.1502 36.1654 69.238 36.3805 69.2416H56.9342C57.042 69.2436 57.1492 69.2244 57.2495 69.185C57.3499 69.1456 57.4415 69.0868 57.5191 69.012C57.5967 68.9372 57.6588 68.8478 57.7017 68.749C57.7447 68.6502 57.7677 68.5439 57.7695 68.4362C57.7712 68.3285 57.7517 68.2215 57.712 68.1213C57.6723 68.0212 57.6133 67.9298 57.5382 67.8525C57.4631 67.7752 57.3735 67.7134 57.2744 67.6708C57.1754 67.6281 57.069 67.6054 56.9611 67.6039C56.9522 67.6037 56.9432 67.6037 56.9342 67.6039H36.3805Z" fill="#E6E6E6"/>
<path d="M57.263 98.3648C57.0487 96.9847 56.6306 95.6441 56.0225 94.3866L55.9338 94.2035L55.2753 94.9328L55.7632 93.8465L55.7313 93.7834C55.3008 92.932 54.8236 92.105 54.302 91.3061L54.2052 91.1581L54.0762 91.301L54.1665 91.0998L54.1213 91.032C53.4753 90.064 52.9789 89.4518 52.974 89.4457L52.8336 89.2732L52.7434 89.4789C52.7268 89.5166 51.0864 93.2926 50.8691 97.0238L50.8656 97.082L51.9697 98.4151L50.8438 97.709L50.8457 97.9653C50.8491 98.4038 50.879 98.8418 50.9352 99.2767C50.9848 99.6508 51.0431 100.016 51.1103 100.372C51.2167 100.376 51.3202 100.408 51.4097 100.466C51.3319 100.068 51.2648 99.6582 51.2084 99.2379C51.1649 98.9023 51.1375 98.5614 51.1266 98.2214L53.3045 99.5873L51.1477 96.9832C51.3441 93.8285 52.5629 90.6502 52.9051 89.8113C53.0887 90.0492 53.4351 90.511 53.8495 91.128L53.0962 92.8056L54.1702 91.616C54.6359 92.3401 55.0648 93.0871 55.4554 93.8542L54.2953 96.4374L55.8638 94.7001C56.4116 95.8769 56.7908 97.1249 56.9903 98.4074C57.2648 100.479 57.2112 102.469 56.8393 104.011C56.4832 105.488 55.8554 106.395 55.117 106.501C54.9651 106.522 54.8104 106.513 54.662 106.474C54.543 106.559 54.3998 106.603 54.2538 106.599H54.2136C54.4426 106.726 54.6994 106.795 54.9613 106.8C55.026 106.8 55.0907 106.795 55.1547 106.786C56.0229 106.661 56.7162 105.7 57.1068 104.08C57.487 102.504 57.5427 100.475 57.263 98.3648Z" fill="#3F3D56"/>
<path d="M54.8332 106.691C53.6976 106.691 52.0603 106.067 50.4364 104.931C50.1973 104.762 49.9691 104.579 49.753 104.382L49.5711 104.216L50.2588 104.018L49.3431 103.985L49.3045 103.944C47.588 102.148 46.5199 99.6119 46.5093 99.5866L46.4258 99.3862L46.6428 99.396C46.6644 99.397 47.1804 99.4213 47.9559 99.5312L48.0042 99.5381V99.5377L48.1743 99.5635C48.8075 99.6596 49.4349 99.7913 50.0533 99.9579L50.1193 99.9758L50.3256 100.484L50.2943 100.028L50.4836 100.083C51.3808 100.341 52.233 100.736 53.0104 101.253C55.48 102.98 56.8466 105.14 56.1242 106.17C55.8773 106.522 55.4227 106.69 54.8332 106.691ZM50.1261 104.343C50.2769 104.47 50.4339 104.592 50.5949 104.705C52.8568 106.288 55.2855 106.886 55.8983 106.012C56.5109 105.138 55.1172 103.063 52.8549 101.48C52.157 101.017 51.3966 100.654 50.5966 100.404L50.7189 102.183L49.9154 100.206C49.3862 100.066 48.8449 99.9505 48.3029 99.8624L48.3917 101.154L47.8387 99.7929C47.4102 99.7341 47.0648 99.7023 46.8547 99.686C47.1411 100.314 48.0876 102.255 49.4654 103.713L51.9925 103.806L50.1261 104.343Z" fill="#3F3D56"/>
</g>
<defs>
<clipPath id="clip0">
<rect width="133" height="111" fill="white"/>
</clipPath>
</defs>
</svg>
