<svg width="497" height="254" viewBox="0 0 497 254" fill="none" xmlns="http://www.w3.org/2000/svg">
<path d="M21.8107 250.674C21.8107 250.674 -11.2242 223.311 5.92916 145.939C23.0825 68.5671 14.3707 -2.88231 101.934 0.0947503C189.497 3.07181 202.787 44.5764 249.001 44.4181C295.215 44.2597 330.682 39.9208 371.268 43.9588C422.076 49.0103 477.86 89.1373 491.834 139.431C505.808 189.724 486.97 249.788 486.97 249.788L21.8107 250.674Z" fill="#E4F0FF"/>
<path d="M215.346 156.897H22.5263C20.412 156.897 18.7109 155.203 18.7109 153.097V36.5007C18.7109 34.3946 20.412 32.7002 22.5263 32.7002H217.175C218.271 32.7002 219.162 33.587 219.162 34.6796V153.081C219.162 155.187 217.461 156.897 215.346 156.897Z" fill="#09083C"/>
<path d="M214.774 152.115H23.0036C22.5744 152.115 22.2246 151.767 22.2246 151.339V38.2427C22.2246 37.8152 22.5744 37.4668 23.0036 37.4668H214.774C215.204 37.4668 215.553 37.8152 215.553 38.2427V151.339C215.553 151.767 215.204 152.115 214.774 152.115Z" fill="#00A7D8"/>
<path opacity="0.5" d="M215.553 51.1169V38.797C215.553 38.0685 215.06 37.4668 214.44 37.4668H23.3374C22.7333 37.4668 22.2246 38.0527 22.2246 38.797V116.311L215.553 51.1169Z" fill="#97CEF7"/>
<path d="M45.3217 148.963H29.8535V152.115H45.3217V148.963Z" fill="white"/>
<path d="M94.0179 90.8953L94.0338 92.4788L94.2087 96.3743L86.4984 95.3609L85.6558 94.2207L85.5922 91.2595L85.3379 88.4883H90.4728L94.0179 90.8953Z" fill="#FFC0BB"/>
<path d="M101.123 186.13C101.123 186.13 101.505 187.856 101.123 190.073C100.742 192.289 90.7266 244.831 90.7266 244.831L96.0045 245.607C96.0045 245.607 113.237 196.818 114.207 193.54C115.177 190.278 116.226 185.67 112.951 182.107C109.692 178.544 101.123 186.13 101.123 186.13Z" fill="#FFC0BB"/>
<path d="M103.904 246.335L97.5772 238.734L91.25 241.347L92.8397 243.533L99.7233 246.985C99.7233 246.985 102.664 247.571 102.823 247.539C102.982 247.491 103.904 246.335 103.904 246.335Z" fill="#FFC0BB"/>
<path d="M103.905 246.336L105.272 248.046C105.908 248.822 105.129 249.962 104.175 249.645L90.9168 245.259C90.4558 245.1 90.2014 244.594 90.3445 244.134L91.2666 241.363C99.1676 247.08 102.506 247.238 103.905 246.336Z" fill="#07085B"/>
<path d="M82.0471 69.8185C82.0471 69.8185 78.7405 67.6649 74.9887 69.8185C71.2369 71.9721 71.2369 79.2406 72.7154 80.9825C74.1938 82.7244 72.6359 85.0838 75.5928 87.3483C78.5497 89.6128 83.2553 90.452 85.9579 87.8075C88.6445 85.1472 86.6733 79.2406 86.6733 79.2406L82.0471 69.8185Z" fill="#07085B"/>
<path d="M94.9866 246.7L87.7214 242.187L81.4102 245.956L83.604 247.524L91.2189 248.632C91.2189 248.632 94.1917 248.268 94.3348 248.173C94.4778 248.078 94.9866 246.7 94.9866 246.7Z" fill="#FFC0BB"/>
<path d="M77.4844 181.141C77.4844 181.141 78.5177 206.177 78.6131 210.5C78.7085 214.823 80.9182 246.906 81.888 249.693L87.2772 249.313C87.2772 249.313 90.9495 187.19 89.8049 181.141C88.6444 175.092 77.4844 181.141 77.4844 181.141Z" fill="#FFC0BB"/>
<path d="M65.9272 160.698C64.0672 160.318 63.6062 161.505 61.7303 161.125L62.1754 164.007C61.921 164.561 61.3646 166.066 61.3646 166.066C59.2662 172.115 59.3934 171.466 59.6 171.577C59.8067 171.687 61.3805 169.455 61.5554 169.66C61.7303 169.866 60.6492 173.461 60.9831 173.366C61.301 173.271 62.7 170.072 62.8908 170.183C63.0657 170.31 61.9846 173.762 62.4457 173.888C62.9226 174.015 63.9877 170.183 64.3216 170.436C64.6554 170.69 63.4631 174.585 63.9082 174.617C64.2898 174.649 65.7205 170.326 66.1816 168.948C66.2452 168.774 66.4677 168.726 66.5949 168.869C68.3913 171.117 68.6616 171.181 68.8682 170.927C69.0113 170.753 68.0893 168.299 67.3421 165.971L66.3564 163.12L65.9272 160.698Z" fill="#FFC0BB"/>
<path d="M94.9883 246.7L96.8324 247.887C97.6909 248.426 97.2934 249.74 96.2919 249.74H82.318C81.8252 249.74 81.4277 249.344 81.4277 248.853V245.939C90.7278 248.901 93.9391 247.998 94.9883 246.7Z" fill="#07085B"/>
<path d="M139.723 93.9992C139.755 94.1733 139.978 94.2367 140.105 94.11C141.09 93.144 144.175 90.1037 144.493 90.2937C144.858 90.5154 142.156 93.3024 142.33 93.6666C142.505 94.015 145.081 91.2438 145.415 91.5447C145.764 91.8455 143.332 94.3159 143.443 94.4901C143.539 94.6642 146.114 92.5581 146.432 92.6215C146.75 92.6848 144.27 95.266 144.334 95.5194C144.397 95.7727 146.702 94.5534 146.829 94.7434C146.957 94.9334 147.068 95.0285 142.68 99.2565L140.884 100.84L138.706 101.347L137.18 99.1457C137.18 99.1457 138.436 91.4022 138.722 91.2755C138.976 91.133 139.167 91.3071 139.723 93.9992Z" fill="#FFC0BB"/>
<path d="M81.0462 181.141L85.5134 197.658C95.8308 197.642 111.235 196.692 118.898 191.593C118.898 191.593 108.899 145.195 102.253 133.572L79.4406 132.321C79.4406 132.321 63.6226 154.316 75.1801 197.341C75.1801 197.341 77.1513 197.484 80.299 197.579L81.0462 181.141Z" fill="#07085B"/>
<path d="M100.521 78.5438C100.044 79.8264 100.505 81.1725 101.522 81.5367C102.556 81.9167 103.764 81.1883 104.241 79.9056C104.718 78.623 104.257 77.2769 103.239 76.9127C102.206 76.5327 100.982 77.2611 100.521 78.5438Z" fill="#F99893"/>
<path d="M85.2578 87.7759C85.2578 87.7759 85.4645 89.3594 85.5917 91.2597C87.3086 92.6532 89.5501 93.3658 91.8712 93.0649C92.6343 92.9699 93.3655 92.764 94.0332 92.479C93.9855 91.228 94.0014 90.0879 94.1922 89.5336C94.7168 88.0134 85.2578 87.7759 85.2578 87.7759Z" fill="#F99893"/>
<path d="M101.666 95.8042L123.27 112.146L137.101 97.9895C137.101 97.9895 141.234 101.172 141.234 101.125C141.234 101.062 128.23 121.363 125.035 122.424C121.839 123.485 101.236 109.153 101.236 109.153L101.666 95.8042Z" fill="white"/>
<path d="M100.407 85.9387C100.709 85.3845 100.948 84.7986 101.138 84.181C101.695 82.5341 101.933 80.808 102.029 79.2878C102.044 78.9711 102.092 78.6386 102.14 78.3219C102.315 77.0234 102.267 75.6615 101.917 74.268C100.789 69.7866 96.7506 66.5087 92.1245 66.3187C85.8768 66.0653 80.9009 71.1485 81.1076 77.2134C80.4399 76.865 79.6927 76.8175 79.0409 77.1184C77.8009 77.7201 77.4194 79.462 78.1665 80.9981C78.9137 82.5341 80.5353 83.2942 81.7594 82.6925C81.9342 82.6133 82.0773 82.5024 82.2204 82.3757C82.9199 87.5223 87.2917 91.3544 92.3788 91.101C94.8588 90.9744 97.0845 89.8817 98.7219 88.2032C98.8332 88.1082 98.9445 87.9973 99.0716 87.8548C99.6121 87.3006 100.041 86.6355 100.407 85.9387Z" fill="#FFC0BB"/>
<path d="M90.901 78.686C90.9327 79.2402 90.5035 79.6995 89.963 79.7311C89.4225 79.7628 88.9456 79.3353 88.9138 78.7968C88.882 78.2426 89.3112 77.7834 89.8517 77.7517C90.4081 77.72 90.8692 78.1318 90.901 78.686Z" fill="#333333"/>
<path d="M99.0572 78.686C99.089 79.2402 98.6598 79.6995 98.1193 79.7311C97.5787 79.7628 97.1018 79.3353 97.07 78.7968C97.0382 78.2426 97.4675 77.7834 98.008 77.7517C98.5644 77.72 99.0254 78.1318 99.0572 78.686Z" fill="#333333"/>
<path d="M93.9373 76.7861C93.9373 77.1028 93.9214 77.4196 93.9373 77.7363C93.9532 78.053 93.9691 78.3697 94.0009 78.6864C94.0327 79.0031 94.0804 79.3198 94.1599 79.6207C94.2394 79.9216 94.3348 80.2225 94.5096 80.46C94.5255 80.4917 94.5573 80.5233 94.5732 80.5392C94.605 80.5708 94.6209 80.5867 94.6527 80.6183C94.6845 80.65 94.7163 80.6817 94.7481 80.7134C94.7799 80.745 94.7958 80.7767 94.8276 80.8084C94.923 80.9509 95.0025 81.1092 95.0184 81.2834C95.066 81.6318 94.923 81.9802 94.7004 82.2177C94.4778 82.4711 94.1917 82.6453 93.8738 82.7561C93.5717 82.867 93.2379 82.9145 92.9199 82.9145C93.0789 82.8987 93.2379 82.867 93.3968 82.8353C93.5558 82.8036 93.6989 82.7403 93.842 82.677C94.1281 82.5503 94.3984 82.3761 94.5891 82.1386C94.7799 81.901 94.8912 81.6001 94.8435 81.3151C94.8276 81.1726 94.764 81.0301 94.6686 80.9192C94.6527 80.8875 94.6209 80.8559 94.605 80.84C94.5891 80.8084 94.5573 80.7925 94.5255 80.7609L94.4302 80.6658C94.3984 80.6342 94.3666 80.6025 94.3507 80.5708C94.2553 80.4283 94.1758 80.2858 94.1122 80.1274C94.0486 79.9691 94.0009 79.8107 93.9691 79.6524C93.9055 79.3357 93.8579 79.0189 93.842 78.6864C93.8261 78.0688 93.8579 77.4196 93.9373 76.7861Z" fill="#F99893"/>
<path d="M104.527 117.15C104.607 117.071 107.913 113.54 107.278 106.921C106.928 103.326 105.068 100.048 103.43 97.7836C101.968 95.7725 99.6627 94.569 97.1827 94.5215C92.6519 94.4423 85.4186 94.3315 85.4186 94.3315C85.4186 94.3315 76.0868 93.3022 73.1298 96.9443C70.1729 100.586 60.1575 125.812 59.5852 137.863C59.0129 149.914 61.9699 164.118 61.9699 164.118C61.9699 164.118 65.2765 164.34 66.755 164.118C68.2334 163.896 66.4211 140.824 68.0109 137.071C69.6006 133.318 76.7704 115.361 77.2314 113.666L79.0119 123.073C79.3457 124.799 79.1868 126.588 78.5668 128.251C77.0565 132.305 74.1473 140.096 72.9709 142.978C72.9709 142.978 95.3862 146.572 106.435 141.125L106.34 140.698C104.48 132.986 103.891 125.036 104.527 117.15Z" fill="white"/>
<path d="M91.7452 77.0237C91.3001 76.7862 90.8231 76.612 90.3462 76.4853C89.8693 76.3744 89.3765 76.3269 88.8996 76.3744C88.6611 76.3903 88.4226 76.4378 88.1842 76.5011C88.0729 76.5328 87.9457 76.5803 87.8344 76.612C87.7708 76.6278 87.7231 76.6595 87.6596 76.6753C87.596 76.6911 87.5483 76.7228 87.4847 76.7545C87.0396 76.9603 86.6262 77.2454 86.2129 77.5462C86.5149 77.1345 86.8965 76.7862 87.3575 76.5011C87.5801 76.3586 87.8185 76.2478 88.0729 76.1686C88.3273 76.0894 88.5816 76.0261 88.8519 76.0102C89.3765 75.9627 89.917 76.0261 90.4098 76.2161C90.6642 76.2953 90.8867 76.4219 91.1093 76.5486C91.3478 76.6911 91.5544 76.8495 91.7452 77.0237Z" fill="#07085B"/>
<path d="M95.7344 77.0236C95.9092 76.8336 96.1318 76.6911 96.3544 76.5486C96.5769 76.4219 96.8154 76.311 97.0539 76.216C97.5467 76.0418 98.0872 75.9627 98.6118 76.0102C98.8821 76.026 99.1364 76.0893 99.3908 76.1685C99.6451 76.2477 99.8836 76.3585 100.106 76.5011C100.551 76.7703 100.949 77.1345 101.251 77.5462C100.837 77.2453 100.424 76.9603 99.979 76.7544C99.9313 76.7228 99.8677 76.7069 99.8041 76.6753C99.7405 76.6594 99.6928 76.6277 99.6292 76.6119C99.518 76.5802 99.4067 76.5327 99.2795 76.5011C99.041 76.4377 98.8026 76.3902 98.5641 76.3744C98.0872 76.3269 97.5944 76.3744 97.1174 76.4852C96.6564 76.6119 96.1954 76.7861 95.7344 77.0236Z" fill="#07085B"/>
<path d="M83.6523 94.2207C83.6523 94.2207 90.7903 103.247 92.3005 106.493C92.3005 106.493 96.4816 101.014 96.6723 94.4741L83.6523 94.2207Z" fill="#FFC0BB"/>
<path d="M92.3005 106.509C92.4913 109.644 92.6185 112.764 92.6821 115.899C92.7297 117.467 92.7297 119.035 92.7615 120.602C92.7615 122.17 92.7774 123.738 92.7615 125.305C92.7615 126.097 92.7456 126.873 92.7297 127.649C92.7138 128.425 92.698 129.217 92.6821 129.993C92.6344 131.56 92.5867 133.128 92.4913 134.696C92.3323 137.831 92.0938 140.967 91.6328 144.07L91.7123 142.899L91.8077 141.727C91.8554 140.951 91.8872 140.159 91.9349 139.383L91.9667 138.797L91.9826 138.211L92.0303 137.039L92.078 135.868L92.1097 134.696C92.2051 131.56 92.2528 128.441 92.2687 125.305C92.3005 122.17 92.3005 119.035 92.3164 115.915L92.3005 106.509Z" fill="#81CAEF"/>
<path d="M77.9765 110.689C77.9288 110.943 77.897 111.196 77.8334 111.449C77.7857 111.703 77.738 111.956 77.6585 112.194C77.5314 112.684 77.3883 113.191 77.1816 113.65C77.3247 113.16 77.436 112.669 77.5314 112.162C77.6268 111.655 77.6903 111.164 77.7539 110.658C77.8811 109.644 77.9447 108.631 77.9606 107.617L77.9765 106.857V106.097C77.9924 105.59 77.9447 105.083 77.9447 104.577C77.9447 104.323 77.9129 104.07 77.9129 103.817L77.8811 103.057C77.8493 102.55 77.8016 102.043 77.7698 101.521C77.8493 102.027 77.9288 102.534 77.9924 103.041C78.0401 103.547 78.1037 104.054 78.1355 104.577L78.1831 105.337C78.199 105.59 78.199 105.844 78.2149 106.113L78.2308 106.889L77.9765 110.689Z" fill="#81CAEF"/>
<path d="M101.536 68.8524C99.581 62.154 90.6626 61.9165 90.6626 61.9165C76.8636 62.8666 79.0415 74.9491 79.5026 76.9443C79.9 76.8493 80.4564 76.8652 81.1241 77.2294C81.4103 77.3877 81.6328 77.5461 81.8236 77.7044C83.4451 77.2135 83.938 74.5215 84.7805 73.223C85.9251 71.4653 90.9487 72.3679 92.8564 71.1169C94.7641 69.8659 94.9549 67.934 94.9549 67.934C102.315 69.1058 102.204 76.8652 102.204 76.8652C102.522 76.8018 102.919 76.8335 102.919 76.8335C102.919 76.8335 103.285 74.8382 101.536 68.8524Z" fill="#07085B"/>
<path d="M96.6413 84.1016C96.3869 85.1309 95.1946 85.9226 93.732 85.9385C92.2695 85.9543 91.0613 85.1942 90.791 84.1649L96.6413 84.1016Z" fill="white"/>
<path d="M460.85 191.165L464.967 249.724H462.901L456.383 191.798L460.85 191.165Z" fill="#07085B"/>
<path d="M417.641 191.165L413.523 249.724H415.59L422.092 191.798L417.641 191.165Z" fill="#07085B"/>
<path d="M478.798 127.808C478.798 127.808 445.922 126.842 443.791 126.984C441.661 127.142 439.69 133.952 439.69 133.952C439.69 133.952 430.088 169.439 430.279 170.421C430.469 171.402 421.312 194.269 421.312 194.269C421.312 194.269 429.214 194.063 429.563 194.269C429.913 194.475 460.086 191.688 460.515 191.403C460.929 191.117 462.471 185.892 462.534 185.623C462.598 185.338 464.903 164.989 464.903 164.989L466.095 153.762C466.095 153.762 470.642 144.134 470.706 144.102C470.769 144.07 474.966 135.63 475.252 135.218C475.539 134.807 479.863 130.135 480.006 129.708C480.149 129.296 478.798 127.808 478.798 127.808Z" fill="#57ACE5"/>
<path opacity="0.3" d="M478.799 127.808C478.799 127.808 467.464 127.475 457.672 127.222C461.471 129.454 463.617 135.694 462.027 146.794C460.676 156.232 459.182 166.462 453.22 178.734C450.152 185.053 436.925 181.521 426.099 182.139C423.762 188.172 421.33 194.269 421.33 194.269C421.33 194.269 429.231 194.063 429.581 194.269C429.931 194.475 460.104 191.688 460.533 191.403C460.946 191.118 462.488 185.892 462.552 185.623C462.616 185.338 464.921 164.989 464.921 164.989L466.113 153.762C466.113 153.762 470.66 144.134 470.723 144.102C470.787 144.071 474.984 135.63 475.27 135.219C475.556 134.807 479.88 130.135 480.023 129.708C480.15 129.296 478.799 127.808 478.799 127.808Z" fill="#57ACE5"/>
<path d="M415.32 195.536C415.256 194.411 416.099 193.445 417.212 193.366C420.725 193.129 428.324 192.59 436.145 191.846C451.121 190.437 456.542 189.265 458.481 188.663C459.149 188.457 459.658 187.919 459.833 187.238C460.357 185.147 460.659 180.824 460.929 177.198C461.915 163.453 463.521 140.793 477.701 128.346C478.592 127.57 479.943 127.712 480.658 128.647C481.31 129.502 481.199 130.705 480.388 131.418C467.479 142.709 465.985 163.548 464.999 177.499C464.427 185.448 464.077 189.36 462.344 191.165C461.502 192.036 459.944 193.667 437.163 195.852C429.087 196.628 421.122 197.198 417.498 197.436C416.353 197.515 415.383 196.66 415.32 195.536Z" fill="#026EAF"/>
<path d="M416.941 114.157C418.594 107.728 421.233 105.179 425.812 102.788C429.325 100.951 433.458 100.365 437.719 101.727C446.383 104.529 448.624 113.983 449.499 118.892C452.487 135.583 466.493 149.771 461.39 161.189C456.287 172.606 432.361 171.387 432.361 171.387L421.392 163.501C421.392 163.501 420.422 144.324 420.422 142.756C420.422 141.188 416.257 141.299 416.257 133.461C416.257 127.206 415.001 121.711 416.941 114.157Z" fill="#07085B"/>
<path d="M387.881 137.752C387.865 137.942 387.642 138.053 387.483 137.926C386.291 137.008 382.539 134.11 382.237 134.363C381.871 134.664 385.178 137.325 385.019 137.736C384.876 138.148 381.728 135.472 381.394 135.852C381.061 136.232 384.017 138.576 383.922 138.781C383.843 138.987 380.759 137.039 380.441 137.15C380.107 137.261 383.127 139.732 383.095 140.017C383.064 140.302 380.409 139.288 380.297 139.494C380.186 139.7 380.075 139.842 385.401 143.833L387.563 145.321L389.979 145.575L391.346 142.994C391.346 142.994 388.978 134.775 388.628 134.664C388.31 134.553 388.119 134.775 387.881 137.752Z" fill="#FFC0BB"/>
<path d="M424.112 133.983C424.112 133.983 405.56 154.949 404.781 155.045C404.002 155.14 391.57 140.634 391.57 140.634C391.57 140.634 387.119 144.324 386.34 145.607C386.34 145.607 399.63 167.665 403.032 168.916C406.45 170.167 429.104 148.869 429.104 148.869L424.112 133.983Z" fill="#F0C453"/>
<path d="M421.949 160.967L422.172 161.078C422.172 161.078 422.188 160.903 422.235 160.603C422.124 160.729 422.045 160.856 421.949 160.967Z" fill="#F4A640"/>
<path d="M439.135 134.189C438.181 135.123 437.545 136.327 437.179 137.609C435.923 142.122 431.695 156.754 429.93 157.752C427.832 158.94 401.251 164.609 398.612 164.371C395.989 164.134 393.509 166.746 392.984 168.757H402.73H403.413H437.545C437.545 168.757 446.463 157.815 447.449 146.303C448.339 136.057 443.538 129.818 439.135 134.189Z" fill="#FFC0BB"/>
<path d="M435.732 125.638V133.033C435.732 133.445 435.494 133.825 435.128 133.999C433.999 134.521 431.456 135.392 429.087 134.015C428.769 133.825 428.578 133.476 428.578 133.112V126.429L435.732 125.638Z" fill="#FFC0BB"/>
<path d="M435.732 129.597V125.638L428.578 126.414V129.771C429.914 130.182 432.409 130.594 435.732 129.597Z" fill="#F99893"/>
<path d="M423.873 124.371C423.619 123.864 423.412 123.326 423.269 122.756C422.824 121.251 422.649 119.668 422.617 118.306C422.601 118.005 422.585 117.72 422.553 117.435C422.426 116.263 422.522 115.028 422.887 113.761C424.048 109.739 427.8 106.889 431.997 106.873C437.656 106.841 441.996 111.592 441.63 117.087C442.25 116.802 442.934 116.77 443.506 117.071C444.603 117.657 444.905 119.24 444.174 120.602C443.443 121.98 441.964 122.613 440.867 122.027C440.708 121.948 440.581 121.837 440.454 121.726C439.659 126.366 435.573 129.692 430.995 129.311C428.753 129.121 426.782 128.076 425.351 126.493C425.256 126.398 425.161 126.287 425.049 126.176C424.557 125.638 424.191 125.02 423.873 124.371Z" fill="#FFC0BB"/>
<path d="M432.504 118.497C432.472 118.924 432.775 119.289 433.204 119.32C433.633 119.352 433.999 119.051 434.03 118.623C434.062 118.196 433.76 117.832 433.331 117.8C432.918 117.768 432.552 118.085 432.504 118.497Z" fill="#333333"/>
<path d="M425.893 118.37C425.861 118.798 426.163 119.162 426.592 119.193C427.022 119.225 427.387 118.924 427.419 118.497C427.451 118.069 427.149 117.705 426.72 117.673C426.306 117.642 425.941 117.942 425.893 118.37Z" fill="#333333"/>
<path d="M431.711 116.913C432.092 116.786 432.474 116.691 432.84 116.643C433.205 116.596 433.571 116.58 433.921 116.628C434.27 116.675 434.62 116.77 434.954 116.929L435.081 116.976C435.129 116.992 435.161 117.024 435.208 117.039L435.463 117.166C435.638 117.261 435.797 117.372 435.971 117.467C435.876 117.293 435.765 117.119 435.638 116.96C435.495 116.818 435.351 116.643 435.177 116.548C434.843 116.295 434.429 116.137 434 116.073C433.571 116.01 433.142 116.073 432.744 116.216C432.347 116.358 431.981 116.596 431.711 116.913Z" fill="#333333"/>
<path d="M428.626 116.802C428.388 116.47 428.038 116.216 427.657 116.042C427.275 115.868 426.846 115.789 426.417 115.82C425.987 115.852 425.558 115.979 425.208 116.216C425.018 116.311 424.875 116.47 424.716 116.596C424.572 116.739 424.445 116.913 424.334 117.087C424.525 117.008 424.7 116.913 424.875 116.818L425.129 116.707C425.177 116.691 425.208 116.66 425.256 116.644L425.383 116.596C425.733 116.454 426.083 116.406 426.432 116.375C426.782 116.343 427.148 116.375 427.498 116.454C427.879 116.533 428.245 116.66 428.626 116.802Z" fill="#333333"/>
<path d="M430.074 117.594C429.756 117.974 429.486 118.386 429.216 118.797C428.961 119.209 428.723 119.652 428.516 120.112C428.421 120.349 428.325 120.571 428.278 120.84C428.262 120.903 428.262 120.967 428.262 121.046C428.262 121.078 428.262 121.125 428.262 121.157C428.278 121.204 428.278 121.236 428.294 121.283C428.309 121.299 428.325 121.331 428.325 121.347L428.357 121.378C428.373 121.41 428.405 121.426 428.421 121.458C428.468 121.505 428.516 121.553 428.564 121.584C428.77 121.743 428.977 121.869 429.2 121.98C429.422 122.091 429.645 122.186 429.883 122.265C429.47 121.996 429.057 121.727 428.723 121.41C428.675 121.363 428.643 121.331 428.611 121.283L428.564 121.22L428.532 121.188V121.173C428.516 121.125 428.516 120.998 428.548 120.888C428.596 120.666 428.691 120.444 428.786 120.222C428.977 119.779 429.2 119.351 429.406 118.908C429.645 118.465 429.867 118.037 430.074 117.594Z" fill="#F99893"/>
<path d="M411.473 232.258L411.918 243.232L406.624 243.263L406.115 232.907L411.473 232.258Z" fill="#FFC0BB"/>
<path d="M397.991 249.534L413.189 249.629C413.523 249.629 413.793 249.376 413.793 249.043V248.6C413.793 248.283 413.523 248.014 413.189 248.014L397.991 247.919C397.657 247.919 397.387 248.172 397.387 248.505V248.948C397.387 249.265 397.657 249.534 397.991 249.534Z" fill="white"/>
<path d="M412.982 243.121L413.57 247.602C413.649 248.156 413.331 248.647 412.918 248.647L398.451 248.552C398.07 248.552 397.704 248.315 397.498 247.887C397.291 247.444 397.243 246.779 397.879 245.892C399.151 244.118 403.411 243.707 405.478 242.202L412.219 242.25C412.584 242.265 412.918 242.63 412.982 243.121Z" fill="#09083C"/>
<path d="M406.528 244.815C406.639 244.752 406.671 244.577 406.607 244.451C406.321 243.833 405.415 242.329 403.618 242.63C403.507 242.646 403.444 242.788 403.459 242.915C403.475 243.057 403.571 243.136 403.666 243.121C405.288 242.867 406.051 244.182 406.289 244.704C406.337 244.831 406.432 244.878 406.528 244.815Z" fill="white"/>
<path d="M405.034 245.385C405.145 245.322 405.177 245.148 405.113 245.021C404.827 244.403 403.921 242.899 402.124 243.2C402.013 243.216 401.949 243.358 401.965 243.485C401.981 243.628 402.077 243.707 402.172 243.691C403.794 243.438 404.557 244.752 404.795 245.274C404.843 245.401 404.938 245.433 405.034 245.385Z" fill="white"/>
<path d="M403.633 245.908C403.745 245.844 403.776 245.67 403.713 245.544C403.427 244.926 402.52 243.422 400.724 243.722C400.613 243.738 400.549 243.881 400.565 244.007C400.581 244.15 400.676 244.229 400.772 244.213C402.393 243.96 403.156 245.274 403.395 245.797C403.442 245.924 403.554 245.971 403.633 245.908Z" fill="white"/>
<path opacity="0.3" d="M409.055 248.631C410.167 245.021 412.123 244.625 413.188 244.72L413.569 247.602C413.649 248.156 413.331 248.647 412.918 248.647L409.055 248.631Z" fill="#E87B50"/>
<path d="M386.578 232.258L387.023 242.757L381.729 242.788L381.236 232.907L386.578 232.258Z" fill="#FFC0BB"/>
<path d="M373.096 249.534L388.294 249.629C388.628 249.629 388.898 249.376 388.898 249.043V248.6C388.898 248.283 388.628 248.014 388.294 248.014L373.096 247.919C372.762 247.919 372.492 248.172 372.492 248.505V248.948C372.492 249.265 372.762 249.534 373.096 249.534Z" fill="white"/>
<path d="M388.089 243.121L388.677 247.602C388.757 248.156 388.439 248.647 388.026 248.647L373.559 248.552C373.177 248.552 372.812 248.315 372.605 247.887C372.398 247.444 372.351 246.779 372.986 245.892C374.258 244.118 378.519 243.707 380.586 242.202L387.326 242.25C387.708 242.265 388.026 242.63 388.089 243.121Z" fill="#09083C"/>
<path d="M381.635 244.815C381.746 244.752 381.778 244.577 381.714 244.451C381.428 243.833 380.522 242.329 378.726 242.63C378.615 242.646 378.551 242.788 378.567 242.915C378.583 243.057 378.678 243.136 378.774 243.121C380.395 242.867 381.158 244.182 381.396 244.704C381.444 244.831 381.555 244.878 381.635 244.815Z" fill="white"/>
<path d="M380.141 245.385C380.252 245.322 380.284 245.148 380.22 245.021C379.934 244.403 379.028 242.899 377.232 243.2C377.12 243.216 377.057 243.358 377.073 243.485C377.089 243.628 377.184 243.707 377.279 243.691C378.901 243.438 379.664 244.752 379.903 245.274C379.95 245.401 380.061 245.433 380.141 245.385Z" fill="white"/>
<path d="M378.74 245.908C378.852 245.844 378.883 245.67 378.82 245.544C378.534 244.926 377.628 243.422 375.831 243.722C375.72 243.738 375.656 243.881 375.672 244.007C375.688 244.15 375.784 244.229 375.879 244.213C377.5 243.96 378.264 245.274 378.502 245.797C378.566 245.924 378.661 245.971 378.74 245.908Z" fill="white"/>
<path opacity="0.3" d="M384.162 248.631C385.275 245.021 387.23 244.625 388.296 244.72L388.677 247.602C388.757 248.156 388.439 248.647 388.025 248.647L384.162 248.631Z" fill="#E87B50"/>
<path d="M408.467 174.997C408.467 174.997 382.157 175.092 378.087 180.365C374.033 185.638 370.933 221.221 378.087 236.787C378.087 236.787 387.339 237.104 389.454 235.821C389.454 235.821 388.802 209.55 389.136 202.582C389.47 195.615 394.334 194.633 394.986 193.984C395.622 193.334 408.467 174.997 408.467 174.997Z" fill="#07085B"/>
<path d="M411.441 213.176C411.203 210.991 410.901 208.141 410.567 204.91C409.979 198.576 409.216 194.791 410.01 194.871C416.354 195.488 433.586 192.416 443.777 190.437C449.977 189.233 453.522 182.487 450.771 176.818C450.422 176.106 450.008 175.488 449.516 174.981C444.762 170.246 434.938 171.767 434.954 171.102C379.392 175.726 391.633 185.227 396.847 218.022C396.879 218.164 396.911 218.307 396.943 218.449C399.2 229.297 401.33 238.228 401.33 238.228C401.33 238.228 409.454 238.545 414.16 237.42C414.16 237.484 412.681 224.673 411.441 213.176Z" fill="#07085B"/>
<path d="M445.699 132.875C443.887 131.164 439.594 130.784 435.636 130.832C435.683 130.864 435.731 130.864 435.731 130.864C432.25 134.727 428.577 131.323 428.577 131.323C427.862 131.402 427.449 131.465 427.449 131.465C427.449 131.465 424.81 132.716 421.964 136.232C421.916 136.279 418.864 139.541 418.578 143.405C418.371 146.161 421.916 150.183 421.916 151.75C421.916 153.318 420.279 164.736 420.279 164.736L420.899 164.656C420.899 164.688 420.899 164.72 420.899 164.736C420.899 164.878 419.627 165.084 418.021 165.274C417.958 167.317 417.91 168.584 417.91 168.584V172.558C439.054 176.058 451.708 181.949 451.708 181.949C452.757 140.887 445.985 133.144 445.699 132.875Z" fill="#F0C453"/>
<path d="M439.134 134.189C438.18 135.123 437.544 136.326 437.178 137.609C435.922 142.122 431.694 156.754 429.929 157.752C428.26 158.686 411.107 162.471 402.84 163.864C402.84 163.864 403.444 166.319 403.984 168.773H437.544C437.544 168.773 446.462 157.831 447.448 146.319C448.338 136.057 443.537 129.818 439.134 134.189Z" fill="#F0C453"/>
<path d="M336.342 137.372H376.34L387.691 165.005H406.958C407.499 165.005 407.928 165.448 407.928 165.987C407.928 166.525 407.499 166.969 406.958 166.969H349.632L336.342 137.372Z" fill="#07085B"/>
<path d="M356.182 153.144C356.42 154.316 357.454 155.107 358.487 154.902C359.52 154.696 360.172 153.571 359.934 152.4C359.695 151.228 358.662 150.436 357.629 150.642C356.595 150.832 355.944 151.956 356.182 153.144Z" fill="#DAEEF7"/>
<path d="M425.796 106.081C425.796 106.081 436.543 115.963 441.614 117.087C441.614 117.087 442.298 109.423 442.218 109.169C442.155 108.9 435.78 102.882 435.382 102.946C434.985 103.009 423.427 104.656 423.427 104.656L420.264 112.463L425.796 106.081Z" fill="#07085B"/>
<path d="M419.707 108.187L422.505 116.105C422.505 116.105 428.149 112.114 430.327 108.187C432.504 104.26 424.683 105.701 424.683 105.701L419.707 108.187Z" fill="#07085B"/>
<path opacity="0.3" d="M432.408 123.611C432.408 123.611 431.343 123.31 430.405 124.023C430.405 124.023 429.309 123.437 428.514 124.133C428.514 124.133 429.006 125.67 430.739 125.448C432.472 125.21 432.408 123.611 432.408 123.611Z" fill="#F99893"/>
<path d="M433.285 122.978C433.094 123.152 432.904 123.31 432.697 123.453C432.49 123.595 432.284 123.738 432.061 123.848C431.616 124.086 431.155 124.26 430.662 124.324C430.169 124.403 429.676 124.371 429.199 124.26C428.723 124.149 428.262 123.943 427.816 123.69C428.023 123.848 428.23 123.991 428.452 124.102C428.675 124.229 428.913 124.324 429.168 124.403C429.422 124.482 429.676 124.529 429.931 124.545C430.185 124.561 430.455 124.545 430.71 124.514C431.218 124.434 431.711 124.244 432.156 123.975C432.57 123.706 432.967 123.373 433.285 122.978Z" fill="#F99893"/>
<path d="M289.605 45.9854H282.133V76.1676H289.605V45.9854Z" fill="#292A66"/>
<path d="M355.221 75.8043V69.8818H324.984V75.8043H355.221Z" fill="#00A7D8"/>
<path d="M359.232 69.8541V63.9316L328.995 63.9316V69.8541H359.232Z" fill="#292A66"/>
<path d="M352.984 64.0485V58.126L322.748 58.126V64.0485H352.984Z" fill="white"/>
<path d="M298.252 33.8242H290.605V75.7247H298.252V33.8242Z" fill="white"/>
<path d="M281.242 38.4482H274.199V75.7248H281.242V38.4482Z" fill="#00A7D8"/>
<path d="M320.953 72.2883L314.626 75.3762L298.252 41.8685L304.579 38.7964L320.953 72.2883Z" fill="#00A7D8"/>
<path d="M389.503 75.5029H268.604V78.9076H389.503V75.5029Z" fill="#292A66"/>
<path d="M374.291 55.7088C374.18 54.727 374.052 53.7135 373.591 52.8426C373.035 51.7658 372.049 51.0057 371.191 50.1506C369.585 48.567 368.361 46.6034 367.614 44.4815C367.042 42.8346 366.755 41.0769 365.976 39.525C365.5 38.5749 364.832 37.7198 364.291 36.8172C363.004 34.6635 362.288 32.114 360.54 30.293C360.206 32.4783 360.873 34.8061 362.32 36.4846C362.749 36.9913 363.258 37.4347 363.576 38.0048C364.18 39.0499 364.117 40.3168 364.196 41.5203C364.323 43.7689 364.959 45.9859 366.04 47.9653C367.185 50.0714 368.854 51.94 369.458 54.2519C369.919 55.9938 369.776 57.9416 370.762 59.4301C370.873 59.5885 370.984 59.7627 371.016 59.9527C371.032 60.0635 371.016 60.1744 371 60.2852C370.984 60.4277 370.952 60.5703 370.936 60.6969C370.714 62.1221 370.475 63.9274 371.7 64.9883C372.542 65.7326 373.639 65.7484 374.259 64.7666C374.879 63.7848 374.815 62.3438 374.768 61.2353C374.688 59.3984 374.497 57.5457 374.291 55.7088Z" fill="#292A66"/>
<path d="M376.501 54.5685C376.024 52.9216 375.276 51.3539 374.911 49.6912C374.545 48.076 374.545 46.3974 374.545 44.7347C374.545 42.9136 374.545 41.0926 374.545 39.2715C374.545 38.1313 374.545 37.007 374.354 35.8827C373.957 33.4757 372.701 31.2588 372.478 28.836C372.383 27.7908 372.494 26.7298 372.383 25.6847C372.32 25.083 372.161 24.4812 371.89 23.9428C371.588 23.3727 370.762 23.4044 370.491 23.9745C369.887 25.2888 369.49 26.714 369.744 28.1234C369.887 28.9626 370.253 29.7544 370.539 30.562C371.763 34.1883 371.111 38.1947 372.049 41.8843C372.335 43.0087 372.765 44.1013 372.812 45.2414C372.94 47.9968 370.873 50.5146 371.048 53.27C371.207 55.5345 372.828 57.3872 373.512 59.5567C373.893 60.7602 373.973 62.0587 374.386 63.2463C374.704 64.1806 375.451 65.3049 376.596 65.0199C377.693 64.7507 377.359 63.8639 377.311 63.0088C377.152 60.1584 377.311 57.3714 376.501 54.5685Z" fill="#00A7D8"/>
<path d="M378.995 56.0726C378.948 55.2175 378.804 54.3624 378.916 53.5072C379.011 52.7946 379.297 52.1137 379.504 51.417C379.885 50.1185 379.981 48.7566 380.076 47.4106C380.251 44.9561 380.41 42.5016 380.585 40.0471C380.839 36.2308 381.11 32.3986 381.825 28.6456C382.032 27.6005 382.254 26.4762 381.777 25.5261C381.682 25.3202 381.475 25.1143 381.269 25.1777C381.11 25.2252 381.046 25.3994 380.982 25.5419C379.409 29.7858 378.82 34.3464 377.072 38.5111C376.658 39.5087 376.165 40.4905 375.943 41.5515C375.689 42.8183 375.832 44.1485 375.863 45.447C375.911 47.3156 375.736 49.1842 375.212 50.9736C374.941 51.9079 374.576 52.8263 374.433 53.7923C374.242 54.9958 374.401 56.2151 374.512 57.4344C374.735 59.7622 374.814 62.1059 374.735 64.4337C374.687 65.8114 375.863 65.7797 376.627 64.9246C377.167 64.3387 377.167 63.6894 377.342 62.9451C377.978 60.5382 379.138 58.6854 378.995 56.0726Z" fill="#292A66"/>
<path d="M371.715 59.7941C370.682 58.1473 368.631 57.213 367.979 55.3761C367.805 54.9168 367.741 54.4101 367.534 53.9667C367.073 52.9691 366.04 52.399 365.038 51.9398C364.895 51.8764 364.736 51.9714 364.736 52.1298C364.736 52.3832 364.848 52.6049 365.054 52.7474C365.833 53.2699 366.437 54.0775 366.692 54.9802C367.01 56.057 366.867 57.2288 367.264 58.2739C367.598 59.1449 368.266 59.8733 368.584 60.7443C368.87 61.5519 368.838 62.4387 368.981 63.2779C369.124 64.1172 369.49 65.0198 370.269 65.384C373.083 66.6825 372.383 60.8551 371.715 59.7941Z" fill="#00A7D8"/>
<path d="M383.446 59.2557C383.399 60.0474 383.526 60.8867 383.208 61.6151C383.001 62.0902 382.652 62.4703 382.35 62.882C381.316 64.3388 380.935 66.4133 379.345 67.2367C379.234 67.2842 379.122 67.3476 379.011 67.3159C378.852 67.2842 378.741 67.1259 378.677 66.9833C378.28 66.0807 378.725 65.0514 378.979 64.1013C379.027 63.9271 379.059 63.7529 378.979 63.5946C378.884 63.4204 378.693 63.357 378.55 63.2145C378.28 62.9453 378.296 62.5178 378.359 62.1377C378.502 61.2034 378.677 60.2691 378.932 59.3507C379.075 58.8281 379.234 58.3055 379.536 57.8621C379.87 57.3712 380.347 57.007 380.792 56.627C382.779 54.9326 384.305 52.684 385.148 50.2136C385.338 49.6752 385.497 49.121 385.879 48.6934C386.26 48.2817 386.944 48.06 387.405 48.3767C387.739 48.6143 386.388 50.7679 386.229 51.0371C385.783 51.7813 385.768 52.4306 385.513 53.254C384.893 55.281 383.574 57.0862 383.446 59.2557Z" fill="#292A66"/>
<path d="M381.874 60.1739C382.176 59.4138 382.463 58.6379 382.558 57.8303C382.669 56.9277 382.526 56.0092 382.669 55.1224C382.86 53.9823 383.544 52.9688 383.877 51.8445C384.116 51.0369 384.18 50.1976 384.323 49.3583C384.736 46.983 385.849 44.6711 385.531 42.2957C385.467 41.7732 385.229 41.1714 384.704 41.0764C384.243 40.9972 383.814 41.4248 383.687 41.884C383.56 42.3432 383.655 42.8183 383.687 43.2934C383.782 44.6077 383.401 45.9537 382.637 47.0305C381.906 48.0598 380.841 48.8516 380.173 49.9284C379.363 51.2586 379.251 52.8738 378.838 54.3782C378.011 57.3711 375.945 59.9681 375.579 63.0401C375.436 64.2595 375.722 65.748 376.851 66.2389C380.142 67.6641 381.143 62.09 381.874 60.1739Z" fill="#00A7D8"/>
<path d="M376.15 62.4229H375.625H368.63C368.122 62.4229 367.74 62.8979 367.851 63.4046L370.586 74.917C370.665 75.2812 370.999 75.5346 371.365 75.5346H375.625H376.15H380.411C380.776 75.5346 381.094 75.2812 381.19 74.917L383.924 63.4046C384.035 62.8979 383.67 62.4229 383.145 62.4229H376.15Z" fill="white"/>
<path d="M281.242 41.3774H274.199V43.8003H281.242V41.3774Z" fill="white"/>
<path d="M287.966 48.5352H283.77V60.0475H287.966V48.5352Z" fill="#00A7D8"/>
<path d="M298.252 38.4482H290.605V40.2693H298.252V38.4482Z" fill="#00A7D8"/>
<path d="M298.252 69.8652H290.605V72.2563H298.252V69.8652Z" fill="#00A7D8"/>
<path d="M280.414 191.086L284.532 249.645H282.465L275.947 191.719L280.414 191.086Z" fill="#07085B"/>
<path d="M237.205 191.086L233.088 249.645H235.155L241.657 191.719L237.205 191.086Z" fill="#07085B"/>
<path d="M298.362 127.728C298.362 127.728 265.486 126.762 263.356 126.905C261.226 127.063 259.254 133.873 259.254 133.873C259.254 133.873 249.652 169.36 249.843 170.341C250.034 171.323 240.877 194.19 240.877 194.19C240.877 194.19 248.778 193.984 249.128 194.19C249.477 194.395 279.651 191.608 280.08 191.323C280.493 191.038 282.035 185.813 282.099 185.543C282.163 185.258 284.468 164.91 284.468 164.91L285.66 153.683C285.66 153.683 290.207 144.055 290.27 144.023C290.334 143.991 294.531 135.551 294.817 135.139C295.103 134.728 299.427 130.056 299.57 129.629C299.713 129.217 298.362 127.728 298.362 127.728Z" fill="#57ACE5"/>
<path opacity="0.3" d="M298.364 127.728C298.364 127.728 287.029 127.396 277.236 127.143C281.036 129.375 283.182 135.615 281.592 146.715C280.241 156.153 278.746 166.383 272.785 178.655C269.717 184.974 256.49 181.442 245.664 182.06C243.327 188.093 240.895 194.19 240.895 194.19C240.895 194.19 248.796 193.984 249.145 194.19C249.495 194.396 279.668 191.609 280.098 191.324C280.527 191.038 282.053 185.813 282.117 185.544C282.18 185.259 284.485 164.91 284.485 164.91L285.678 153.683C285.678 153.683 290.224 144.055 290.288 144.023C290.351 143.991 294.548 135.551 294.835 135.139C295.121 134.728 299.445 130.056 299.588 129.629C299.715 129.217 298.364 127.728 298.364 127.728Z" fill="#57ACE5"/>
<path d="M234.884 195.456C234.821 194.332 235.663 193.366 236.776 193.287C240.289 193.049 247.888 192.511 255.71 191.767C270.685 190.357 276.106 189.186 278.046 188.584C278.713 188.378 279.222 187.84 279.397 187.159C279.922 185.068 280.224 180.745 280.494 177.119C281.48 163.374 283.085 140.713 297.266 128.267C298.156 127.491 299.507 127.633 300.223 128.568C300.874 129.423 300.763 130.626 299.952 131.339C287.044 142.629 285.549 163.469 284.564 177.42C283.991 185.369 283.642 189.281 281.909 191.086C281.066 191.957 279.508 193.588 256.727 195.773C248.651 196.549 240.687 197.119 237.062 197.357C235.918 197.436 234.948 196.581 234.884 195.456Z" fill="#026EAF"/>
<path d="M208.462 231.751L207.222 241.727L200.514 242.25L200.625 232.986L208.462 231.751Z" fill="#FFC0BB"/>
<path d="M190.323 249.55L208.637 249.677C209.034 249.677 209.352 249.36 209.352 248.98V248.457C209.352 248.062 209.018 247.745 208.621 247.745L190.307 247.618C189.91 247.618 189.592 247.935 189.592 248.315V248.838C189.608 249.233 189.926 249.55 190.323 249.55Z" fill="white"/>
<path d="M208.399 241.838L209.099 247.238C209.178 247.903 208.813 248.505 208.304 248.505L190.88 248.394C190.435 248.394 189.974 248.109 189.736 247.586C189.481 247.048 189.434 246.256 190.197 245.179C191.739 243.041 196.858 242.551 199.338 240.729L207.446 240.777C207.922 240.793 208.32 241.236 208.399 241.838Z" fill="#EA426E"/>
<path d="M200.626 243.881C200.753 243.801 200.801 243.596 200.721 243.437C200.372 242.693 199.291 240.888 197.113 241.236C196.986 241.252 196.906 241.426 196.922 241.584C196.938 241.743 197.065 241.854 197.176 241.838C199.116 241.521 200.038 243.12 200.324 243.738C200.388 243.881 200.515 243.928 200.626 243.881Z" fill="white"/>
<path d="M198.814 244.562C198.941 244.483 198.988 244.277 198.909 244.118C198.559 243.374 197.478 241.569 195.3 241.917C195.173 241.933 195.094 242.107 195.109 242.266C195.125 242.424 195.253 242.535 195.364 242.519C197.303 242.202 198.225 243.802 198.512 244.419C198.591 244.562 198.718 244.625 198.814 244.562Z" fill="white"/>
<path d="M197.146 245.195C197.273 245.116 197.32 244.91 197.241 244.752C196.891 244.007 195.81 242.202 193.632 242.55C193.505 242.566 193.426 242.741 193.441 242.899C193.457 243.057 193.585 243.168 193.696 243.152C195.635 242.836 196.557 244.435 196.844 245.052C196.923 245.195 197.034 245.258 197.146 245.195Z" fill="white"/>
<path opacity="0.3" d="M203.662 248.473C204.997 244.118 207.35 243.659 208.654 243.77L209.099 247.238C209.179 247.903 208.813 248.505 208.304 248.505L203.662 248.473Z" fill="#E87B50"/>
<path d="M239.398 149.645L238.301 161.157L242.704 161.996L245.121 157.436L244.723 151.387L241.305 149.011L239.398 149.645Z" fill="#F9B5B2"/>
<path d="M243.866 131.513C243.866 131.513 239.398 143.121 239.398 149.645C239.398 149.645 241.735 151.181 245.122 150.753C248.492 150.342 245.662 137.087 245.789 136.739C245.916 136.406 243.866 131.513 243.866 131.513Z" fill="#F0C453"/>
<path d="M218.764 231.957L215.791 241.585L208.971 241.632L210.163 234.602L218.764 231.957Z" fill="#FFC0BB"/>
<path d="M258.205 158.021L250.002 170.373L239.096 168.219L220.592 154.443L223.835 149.645C223.835 149.645 241.163 160.017 242.642 160.302C244.12 160.587 248.142 151.212 248.142 151.212L258.205 158.021Z" fill="#F9B5B2"/>
<path d="M199.177 249.724L217.49 249.851C217.888 249.851 218.206 249.534 218.206 249.154V248.631C218.206 248.235 217.872 247.919 217.475 247.919L199.161 247.792C198.763 247.792 198.445 248.109 198.445 248.489V249.011C198.445 249.407 198.763 249.724 199.177 249.724Z" fill="white"/>
<path d="M217.237 242.012L217.937 247.412C218.016 248.077 217.651 248.679 217.142 248.679L199.718 248.568C199.273 248.568 198.812 248.283 198.574 247.761C198.319 247.222 198.272 246.43 199.035 245.354C200.577 243.216 205.696 242.725 208.176 240.904L216.283 240.951C216.76 240.967 217.158 241.411 217.237 242.012Z" fill="#F76390"/>
<path d="M209.464 244.055C209.591 243.976 209.639 243.77 209.559 243.611C209.21 242.867 208.129 241.062 205.951 241.41C205.823 241.426 205.744 241.6 205.76 241.759C205.776 241.917 205.903 242.028 206.014 242.012C207.954 241.695 208.876 243.295 209.162 243.912C209.241 244.055 209.353 244.118 209.464 244.055Z" fill="white"/>
<path d="M207.651 244.736C207.779 244.657 207.826 244.451 207.747 244.293C207.397 243.548 206.316 241.743 204.138 242.092C204.011 242.107 203.931 242.282 203.947 242.44C203.963 242.598 204.09 242.709 204.202 242.693C206.141 242.377 207.063 243.976 207.349 244.593C207.429 244.752 207.556 244.799 207.651 244.736Z" fill="white"/>
<path d="M205.984 245.369C206.111 245.29 206.158 245.084 206.079 244.926C205.729 244.182 204.648 242.376 202.47 242.725C202.343 242.741 202.263 242.915 202.279 243.073C202.295 243.232 202.422 243.342 202.534 243.327C204.473 243.01 205.395 244.609 205.681 245.227C205.761 245.385 205.872 245.433 205.984 245.369Z" fill="white"/>
<path opacity="0.3" d="M212.5 248.647C213.835 244.293 216.188 243.833 217.492 243.944L217.937 247.412C218.016 248.077 217.651 248.679 217.142 248.679L212.5 248.647Z" fill="#E87B50"/>
<path d="M277.029 181.87C276.091 173.223 265.821 173.081 265.821 173.081L260.289 172.606L260.162 171.434C260.162 171.434 222.024 166.905 216.81 184.15C211.595 201.379 207.637 235.488 207.637 235.488C207.637 235.488 212.676 238.545 219.512 235.488C219.512 235.488 229.178 198.877 232.802 195.282C236.427 191.688 262.435 191.102 262.435 191.102C262.435 191.102 277.951 190.516 277.029 181.87Z" fill="#07085B"/>
<path d="M241.307 166.667C241.307 166.667 242.213 135.155 243.882 131.529C245.551 127.902 251.465 127.206 251.465 127.206C251.465 127.206 266.87 124.925 270.876 128.694C271.178 128.979 278.141 138.18 277.028 181.869C277.028 181.869 263.802 174.617 241.307 170.895V166.667Z" fill="#F0C453"/>
<path d="M260.258 120.935V128.805C260.258 129.248 260.003 129.644 259.606 129.818C258.398 130.388 255.711 131.307 253.183 129.834C252.849 129.628 252.643 129.264 252.643 128.868V121.774L260.258 120.935Z" fill="#FFC0BB"/>
<path d="M260.255 126.984V122.771L252.656 123.611V127.19C254.071 127.601 256.742 128.045 260.255 126.984Z" fill="#F99893"/>
<path d="M203.662 160.951H161.279V166.81H203.662V160.951Z" fill="white"/>
<path d="M198.541 155.092H156.158V160.951H198.541V155.092Z" fill="#70C0FD"/>
<path d="M234.851 172.289C234.851 172.289 206.363 171.386 199.893 177.499C193.422 183.611 197.762 229.534 198.843 233.746C198.843 233.746 204.757 236.549 209.431 235.108C214.105 233.667 212.309 213.572 212.309 213.572C212.309 213.572 211.768 194.364 212.483 191.672C213.199 188.98 223.087 187 223.087 187C223.087 187 238.364 176.406 237.474 176.406C236.584 176.406 234.851 172.289 234.851 172.289Z" fill="#07085B"/>
<path d="M227.254 145.337L222.691 132.796C222.517 132.321 221.976 132.099 221.515 132.321L212.899 136.549C212.438 136.77 212.231 137.325 212.438 137.8L219.893 154.854C220.116 155.377 220.72 155.63 221.245 155.425L228.812 152.638L227.254 145.337Z" fill="#07085B"/>
<path d="M219.543 146.224C219.543 146.192 219.559 146.16 219.559 146.129C219.766 145.305 220.004 145.21 220.163 145.21C220.131 145.084 220.131 144.957 220.179 144.846C220.561 143.674 221.006 144.735 221.006 144.735C222.103 146.35 225.473 147.807 225.473 147.807L226.634 148.061C226.57 147.871 227.269 145.321 227.269 145.321C227.269 145.321 229.686 149.676 229.702 149.739C229.781 149.945 228.509 151.719 227.969 152.305C227.444 152.891 226.395 154.316 226.331 154.427C226.331 154.427 223.82 152.843 222.929 152.067C221.88 151.212 220.259 149.834 219.607 149.106C219.146 148.583 219.13 148.077 219.241 147.681C218.955 147.126 219.241 146.604 219.543 146.224Z" fill="#FFC0BB"/>
<path d="M219.559 146.161C219.606 146.494 219.733 146.795 219.892 147.095C220.051 147.38 220.258 147.65 220.481 147.903C220.703 148.141 220.958 148.362 221.228 148.552C221.355 148.647 221.514 148.726 221.641 148.821C221.784 148.901 221.927 148.98 222.086 149.043C221.816 148.853 221.546 148.663 221.291 148.457C221.037 148.251 220.799 148.03 220.576 147.792C220.353 147.555 220.163 147.301 219.972 147.032C219.813 146.763 219.67 146.478 219.559 146.161Z" fill="#F99893"/>
<path d="M219.225 147.681C219.304 147.998 219.463 148.299 219.638 148.584C219.813 148.869 220.051 149.106 220.29 149.344C220.544 149.566 220.798 149.771 221.085 149.93C221.228 150.025 221.371 150.088 221.514 150.167C221.673 150.231 221.816 150.294 221.975 150.357C221.689 150.183 221.403 150.025 221.148 149.835C220.878 149.645 220.624 149.455 220.385 149.233C220.147 149.011 219.924 148.774 219.733 148.52C219.527 148.267 219.352 147.982 219.225 147.681Z" fill="#F99893"/>
<path d="M220.162 145.211C220.21 145.543 220.337 145.844 220.496 146.145C220.655 146.43 220.862 146.699 221.084 146.953C221.307 147.19 221.561 147.412 221.831 147.602C221.959 147.697 222.118 147.776 222.245 147.871C222.388 147.95 222.531 148.03 222.69 148.093C222.42 147.903 222.149 147.729 221.895 147.507C221.641 147.301 221.402 147.08 221.18 146.842C220.957 146.604 220.766 146.351 220.575 146.082C220.416 145.813 220.257 145.528 220.162 145.211Z" fill="#F99893"/>
<path d="M263.93 158.021L255.727 170.373L244.821 168.219L226.316 154.443L229.559 149.645C229.559 149.645 246.888 160.017 248.366 160.302C249.845 160.587 253.867 151.212 253.867 151.212L263.93 158.021Z" fill="#FFC0BB"/>
<path d="M270.955 137.087C270.065 141.98 267.712 153.318 264.31 158.56C264.31 158.56 256.091 157.958 251.449 152.352C251.449 152.352 257.776 136.77 259.43 133.587C260.765 131.022 267.156 123.389 270.32 130.959C271.13 132.89 271.337 135.028 270.955 137.087Z" fill="#F0C453"/>
<path d="M159.054 170.896H156.16V249.645H159.054V170.896Z" fill="#183658"/>
<path d="M186.302 170.896H183.408V249.645H186.302V170.896Z" fill="#183658"/>
<path d="M268.696 170.896H265.803V249.645H268.696V170.896Z" fill="#183658"/>
<path d="M295.946 170.896H293.053V249.645H295.946V170.896Z" fill="#183658"/>
<path d="M302.798 171.829H149.705C149.006 171.829 148.434 171.259 148.434 170.563V168.076C148.434 167.38 149.006 166.81 149.705 166.81H302.814C303.513 166.81 304.085 167.38 304.085 168.076V170.563C304.07 171.259 303.497 171.829 302.798 171.829Z" fill="#FEE4CB"/>
<path d="M266.997 114.142C266.997 114.142 269.62 104.751 264.517 100.951C259.413 97.1504 253.818 97.2929 249.923 99.2407C246.028 101.188 243.421 108.504 244.931 112.827L257.728 109.359L266.997 114.142Z" fill="#07085B"/>
<path d="M247.46 114.046C247.937 115.266 247.524 116.548 246.554 116.928C245.584 117.308 244.408 116.628 243.947 115.408C243.47 114.189 243.883 112.906 244.853 112.526C245.823 112.146 246.983 112.827 247.46 114.046Z" fill="#F99893"/>
<path d="M247.666 121.11C247.38 120.587 247.125 120.033 246.935 119.447C246.378 117.879 246.124 116.232 246.013 114.791C245.981 114.475 245.949 114.174 245.901 113.873C245.71 112.638 245.742 111.323 246.06 109.993C247.078 105.686 250.877 102.503 255.297 102.265C261.258 101.933 266.091 106.715 265.98 112.511C266.616 112.178 267.331 112.099 267.951 112.4C269.143 112.954 269.541 114.617 268.841 116.09C268.142 117.578 266.616 118.323 265.423 117.768C265.264 117.689 265.105 117.594 264.978 117.467C264.374 122.392 260.257 126.114 255.408 125.955C253.039 125.876 250.909 124.863 249.319 123.279C249.208 123.184 249.097 123.073 248.985 122.946C248.461 122.392 248.032 121.775 247.666 121.11Z" fill="#FFC0BB"/>
<path d="M253.628 112.178C253.565 112.748 253.517 113.318 253.438 113.857C253.358 114.395 253.247 114.965 253.008 115.329L252.961 115.393C252.945 115.409 252.945 115.424 252.897 115.456C252.833 115.519 252.77 115.583 252.722 115.662C252.627 115.805 252.547 115.995 252.531 116.185C252.484 116.565 252.659 116.929 252.897 117.151C253.374 117.626 254.042 117.721 254.598 117.626C254.042 117.483 253.517 117.246 253.231 116.85C253.104 116.66 253.024 116.438 253.072 116.248C253.088 116.153 253.135 116.058 253.199 115.979C253.215 115.931 253.263 115.9 253.31 115.852L253.39 115.757L253.485 115.646C253.692 115.361 253.771 115.044 253.835 114.744C253.883 114.443 253.914 114.158 253.899 113.857C253.867 113.303 253.787 112.732 253.628 112.178Z" fill="#F99893"/>
<path d="M256.903 113.208C256.887 113.699 257.268 114.094 257.745 114.11C258.238 114.126 258.636 113.746 258.652 113.255C258.668 112.764 258.286 112.368 257.809 112.353C257.316 112.353 256.919 112.733 256.903 113.208Z" fill="#333333"/>
<path d="M249.319 113.429C249.303 113.92 249.685 114.316 250.161 114.332C250.654 114.348 251.052 113.968 251.068 113.477C251.084 112.986 250.702 112.59 250.225 112.574C249.748 112.574 249.335 112.954 249.319 113.429Z" fill="#333333"/>
<path d="M255.965 111.133C256.426 111.038 256.855 110.959 257.268 110.928C257.682 110.896 258.095 110.928 258.492 111.007C258.89 111.086 259.271 111.213 259.637 111.418C259.828 111.498 260.003 111.64 260.193 111.735C260.384 111.846 260.559 111.989 260.766 112.099C260.67 111.894 260.559 111.672 260.432 111.482C260.273 111.308 260.13 111.102 259.939 110.959C259.573 110.627 259.112 110.421 258.62 110.326C258.127 110.231 257.618 110.262 257.157 110.405C256.712 110.547 256.283 110.785 255.965 111.133Z" fill="#07085B"/>
<path d="M252.055 111.26C251.721 110.911 251.291 110.69 250.83 110.563C250.369 110.436 249.861 110.42 249.368 110.531C248.891 110.642 248.43 110.864 248.064 111.212C247.874 111.355 247.731 111.56 247.587 111.751C247.46 111.956 247.349 112.162 247.27 112.384C247.476 112.257 247.651 112.115 247.826 112.004C248.017 111.893 248.176 111.751 248.382 111.671C248.748 111.45 249.129 111.323 249.511 111.228C249.908 111.133 250.306 111.101 250.735 111.117C251.164 111.117 251.594 111.165 252.055 111.26Z" fill="#07085B"/>
<path d="M265.822 112.638C266.426 112.163 266.871 112.226 266.871 112.226L266.744 109.154L265.869 107.27C265.869 107.27 262.34 102.139 262.213 102.012C262.086 101.886 259.304 100.144 259.129 100.064C258.954 99.9694 254.932 100.397 254.932 100.397C254.932 100.397 247.969 98.6551 248.986 102.376C250.02 106.098 255.059 108.251 255.329 108.093C254.535 107.238 254.55 104.894 254.55 104.894C258.016 108.98 264.772 112.163 265.822 112.638Z" fill="#07085B"/>
<path d="M251.148 118.75C251.307 119.858 252.293 120.761 253.549 120.84C254.805 120.919 255.902 120.159 256.204 119.083L251.148 118.75Z" fill="white"/>
<path opacity="0.5" d="M302.798 171.829H260.494C259.795 171.829 259.223 171.259 259.223 170.563V168.076C259.223 167.38 259.795 166.81 260.494 166.81H302.798C303.497 166.81 304.069 167.38 304.069 168.076V170.563C304.069 171.259 303.497 171.829 302.798 171.829Z" fill="#E0A689"/>
<path d="M178.209 155.995H158.162V159.906H178.209V155.995Z" fill="#97CEF7"/>
<path d="M194.695 160.951H192.533V166.81H194.695V160.951Z" fill="#C9EAFD"/>
<path d="M495.553 254H12.1439C11.3491 254 10.6973 253.351 10.6973 252.559V252.131C10.6973 251.34 11.3491 250.69 12.1439 250.69H495.537C496.332 250.69 496.984 251.34 496.984 252.131V252.559C497 253.351 496.348 254 495.553 254Z" fill="#70C0FD"/>
<path d="M334.593 170.896H331.699V249.645H334.593V170.896Z" fill="#183658"/>
<path d="M361.841 170.896H358.947V249.645H361.841V170.896Z" fill="#183658"/>
<path d="M444.253 170.896H441.359V249.645H444.253V170.896Z" fill="#183658"/>
<path d="M471.503 170.896H468.609V249.645H471.503V170.896Z" fill="#183658"/>
<path d="M478.353 171.829H325.244C324.545 171.829 323.973 171.259 323.973 170.563V168.076C323.973 167.38 324.545 166.81 325.244 166.81H478.353C479.052 166.81 479.625 167.38 479.625 168.076V170.563C479.625 171.259 479.052 171.829 478.353 171.829Z" fill="#FEE4CB"/>
<path opacity="0.5" d="M478.163 171.829H435.86C435.16 171.829 434.588 171.259 434.588 170.563V168.076C434.588 167.38 435.16 166.81 435.86 166.81H478.163C478.862 166.81 479.435 167.38 479.435 168.076V170.563C479.435 171.259 478.862 171.829 478.163 171.829Z" fill="#E0A689"/>
</svg>
