<svg width="444" height="337" viewBox="0 0 444 337" fill="none" xmlns="http://www.w3.org/2000/svg">
<path d="M17.9243 336.195C17.9243 336.195 -22.7925 271.139 18.5092 190.299C56.8027 115.326 116.071 151.299 153.445 82.485C248.124 -91.909 450.245 42.1487 419.911 190.341C405.246 262.057 464.577 264.667 434.347 336.341L17.9243 336.195Z" fill="#EBF3FA"/>
<path d="M368.455 192.199L234.397 316.82L165.372 251.493C152.462 264.145 132.49 283.645 112.413 303.228C98.688 316.611 87.5948 327.426 78.5907 336.174L15.8965 336.111C33.2779 319.659 103.284 251.305 150.456 205.102L164.871 190.967L234.647 257.005L337.077 161.801L368.455 192.199Z" fill="#D5E5FB"/>
<path d="M320.467 146.811L383.642 213.244L396.281 137.416L320.467 146.811Z" fill="#D5E5FB"/>
<path d="M436.436 336.821H12.6835C12.4154 336.821 12.1855 336.657 12.1855 336.467V336.304C12.1855 336.113 12.4154 335.95 12.6835 335.95H436.417C436.685 335.95 436.915 336.113 436.915 336.304V336.467C436.934 336.657 436.704 336.821 436.436 336.821Z" fill="#2E3552"/>
<path d="M234.042 142.217L224.85 159.629L220.149 157.917L221.674 162.573L212.461 190.299C212.482 190.278 207.385 155.078 234.042 142.217Z" fill="#233862"/>
<path d="M218.729 157.625C218.729 157.625 208.576 195.038 207.594 230.74C207.594 230.74 216.013 233.684 229.258 231.345C242.545 229.007 218.729 157.625 218.729 157.625Z" fill="#292A66"/>
<path d="M170.115 209.486C172.831 209.445 176.675 209.779 177.95 208.38C179.391 206.814 181.083 207.044 181.083 207.044L180.749 205.248L180.331 203.098C180.331 203.098 180.185 202.91 179.621 202.91C179.621 202.91 177.636 202.993 176.696 202.659C174.398 201.845 165.269 207.315 165.582 208.818C165.687 209.403 168.946 209.528 170.115 209.486Z" fill="#E2915A"/>
<path d="M219.879 156.874C219.879 156.874 204.461 188.712 199.677 192.136C194.893 195.56 177.888 202.951 177.888 202.951C177.888 202.951 177.449 204.016 177.846 205.561C178.285 207.169 179.12 207.628 179.12 207.628C179.12 207.628 202.915 205.498 208.451 202.074C213.988 198.63 226.188 184.913 226.188 184.913L219.879 156.874Z" fill="#292A66"/>
<path d="M265.022 335.422H274.151C275.3 334.796 276.324 333.376 276.658 331.247C277.097 328.303 280.397 326.695 281.108 324.294C281.818 321.893 278.162 318.511 278.162 318.511L277.556 317.718L276.93 316.903L270.871 318.323C270.871 318.323 270.725 319.764 270.62 321.601C270.558 322.916 270.516 324.461 270.6 325.797C270.788 329.013 269.701 332.457 266.86 333.084C264.729 333.543 264.834 334.796 265.022 335.422Z" fill="#1C164B"/>
<path d="M212.043 335.422H232.913C233.916 334.19 233.54 329.68 233.394 328.198C233.352 327.906 233.331 327.718 233.331 327.718C233.331 327.718 226.207 322.018 225.225 326.381C225.204 326.528 225.163 326.653 225.121 326.778C223.888 330.87 218.352 332.708 215.156 333.229C213.088 333.584 212.335 334.67 212.043 335.422Z" fill="#1C164B"/>
<path d="M216.012 218.943C216.012 218.943 217.098 232.452 218.372 248.674C220.106 270.721 222.175 297.8 222.384 302.915C222.739 311.83 224.159 326.069 224.159 326.069C224.159 326.069 227.544 329.451 234.312 328.031C234.312 328.031 240.35 307.696 242.063 286.171C242.084 285.816 242.126 285.461 242.147 285.106C243.755 263.205 246.241 217.064 246.241 217.064L216.012 218.943Z" fill="#715AFF"/>
<path d="M216.012 218.943C216.012 218.943 217.098 232.452 218.372 248.674L242.084 286.171C242.105 285.816 242.147 285.461 242.167 285.106C243.776 263.205 246.262 217.064 246.262 217.064L216.012 218.943Z" fill="#5D55A4"/>
<path d="M220.965 220.551C220.965 220.551 240.477 269.447 253.304 292.413C266.131 315.379 270.143 321.789 270.143 321.789C270.143 321.789 277.496 318.845 278.165 316.841C278.165 316.841 273.255 272.496 264.669 261.681C259.822 255.564 254.119 237.233 253.847 230.823C253.576 224.414 252.114 211.72 252.114 211.72L220.965 220.551Z" fill="#715AFF"/>
<path d="M225.832 149.274C233.457 151.675 246.66 145.182 246.66 145.182C246.66 145.182 239.62 139.899 239.996 128.938L234.105 133.678L230.094 136.893C230.094 136.893 230.115 138.793 230.553 142.133C230.637 142.739 230.721 143.407 230.846 144.096C230.929 144.66 230.679 145.223 230.198 145.516C227.399 147.269 225.832 149.274 225.832 149.274Z" fill="#FFB27D"/>
<path d="M215.178 220.071C215.407 220.259 215.679 220.384 215.972 220.384C218.834 220.342 227.19 221.929 234.251 221.219C240.205 220.656 245.47 218.881 251.131 216.355C251.883 216.021 253.617 215.102 253.576 214.246C253.555 213.327 253.45 211.991 253.346 210.321C252.949 204.475 252.239 194.433 252.928 182.846C253.053 180.695 253.116 178.545 253.116 176.436C253.179 160.736 250.066 146.914 243.799 142.238C243.799 142.238 239.432 144.681 236.403 145.641C233.437 146.58 231.911 146.393 230.386 145.369C230.386 145.369 227.399 146.852 226.125 148.251C223.158 151.466 220.86 155.746 219.335 161.905C218.04 167.124 216.828 174.745 216.389 184.516C216.222 188.942 214.99 219.925 215.178 220.071Z" fill="white"/>
<path d="M252.217 168.168L243.819 142.217C243.819 142.217 223.659 149.816 222.74 178.252C222.364 184.724 220.818 211.281 223.638 233.287C223.638 233.287 239.348 239.404 258.589 227.336L252.217 168.168Z" fill="#292A66"/>
<path d="M230.072 136.935C230.072 136.935 230.093 138.835 230.532 142.176C234.961 141.424 239.996 134.242 239.996 134.242C237.739 133.595 235.755 133.469 234.083 133.72L230.072 136.935Z" fill="#ED975D"/>
<path d="M226.773 136.726C226.773 136.726 240.498 139.002 241.793 130.442C243.088 121.882 245.721 116.391 237.009 114.574C228.298 112.758 226.104 115.764 224.976 118.52C223.848 121.276 223.242 135.912 226.773 136.726Z" fill="#FFB27D"/>
<path d="M287.044 247.589L259.008 251.576C255.352 252.098 251.947 249.53 251.424 245.898L249.69 233.747C249.168 230.093 251.738 226.69 255.373 226.168L283.409 222.18C287.065 221.658 290.47 224.226 290.992 227.859L292.726 240.01C293.248 243.664 290.7 247.067 287.044 247.589Z" fill="#1C164B"/>
<path d="M253.389 233.225L255.144 245.501C255.478 247.881 257.045 249.802 259.113 250.7C259.803 250.992 260.534 251.201 261.307 251.242C261.787 251.284 262.268 251.263 262.769 251.201L290.763 247.213C294.419 246.691 296.989 243.267 296.467 239.613L294.712 227.337C294.189 223.683 290.763 221.115 287.107 221.637L277.477 223.015L277.101 220.385C276.933 219.174 275.805 218.339 274.594 218.506L273.528 218.652L267.658 219.487L266.195 219.696C265.61 219.779 265.088 220.092 264.733 220.552C264.378 221.032 264.232 221.616 264.315 222.201L264.691 224.832L259.113 225.625C258.883 225.667 258.675 225.709 258.466 225.75C256.314 226.272 254.601 227.838 253.828 229.801C253.368 230.845 253.222 232.014 253.389 233.225ZM276.077 223.203L266.07 224.623L265.694 221.992C265.631 221.533 265.945 221.115 266.404 221.053L268.911 220.698L273.528 220.03L274.782 219.863C274.865 219.842 274.949 219.863 275.032 219.863C275.387 219.925 275.659 220.197 275.722 220.573L276.077 223.203Z" fill="#00A7D8"/>
<path d="M265.713 211.428C265.713 211.428 267.175 213.391 267.238 214.163C267.635 219.466 265.211 220.197 271.5 223.161C271.5 223.161 274.174 224.184 274.236 222.097C274.278 220.009 272.377 219.988 272.732 217.065C273.129 213.704 273.087 213.662 270.894 211.908L269.432 209.486L265.713 211.428Z" fill="#FFB27D"/>
<path d="M269.474 212.931C267.113 213.39 264.543 213.202 264.543 213.202C264.543 213.202 257.524 191.51 256.605 189.526C255.706 187.543 235.734 164.076 235.734 164.076L243.84 142.217C243.84 142.217 248.582 144.994 253.617 153.658C259.822 164.368 266.653 181.593 267.865 184.39C271.5 192.762 272.753 211.532 272.753 211.532C272.753 211.532 271.333 212.576 269.474 212.931Z" fill="#292A66"/>
<path d="M241.815 129.607C241.815 129.607 240.416 129.377 240.625 127.435C240.854 125.494 240.854 122.967 239.267 123.427C237.679 123.907 237.616 125.16 236.969 124.429C236.321 123.698 236.3 120.587 231.621 120.358C226.92 120.149 225.019 121.777 222.825 120.817C220.632 119.857 220.527 116.558 220.527 116.558C220.527 116.558 221.154 117.748 222.094 118.103C222.094 118.103 218.459 113.113 222.679 109.71C226.899 106.286 231.203 108.541 233.647 108.687C239.016 109.021 242.505 109.334 244.26 112.863C245.994 116.412 245.262 126.224 241.815 129.607Z" fill="#00A7D8"/>
<path d="M268.032 213.766C268.032 213.766 266.611 215.248 266.527 215.854C266.235 217.837 265.587 218.672 265.922 218.902C266.611 219.341 267.509 217.879 267.948 216.585C268.387 215.269 268.032 213.766 268.032 213.766Z" fill="#FFB27D"/>
<path d="M243.82 142.217L234.628 159.629L229.928 157.917L231.453 162.573L222.24 190.299C222.24 190.278 217.163 155.078 243.82 142.217Z" fill="#1C164B"/>
<path d="M225.832 131.862C225.832 131.862 226.375 133.282 227.712 133.303C229.049 133.344 230.073 132.05 230.073 132.05C230.073 132.05 227.169 131.382 225.832 131.862Z" fill="white"/>
<path d="M154.154 263.247L182.043 256.795C185.678 255.96 187.955 252.307 187.12 248.674L184.32 236.606C183.485 232.974 179.829 230.698 176.194 231.533L148.304 237.984C144.669 238.819 142.392 242.473 143.227 246.106L146.027 258.173C146.862 261.806 150.518 264.082 154.154 263.247Z" fill="#5D55A4"/>
<path d="M178.993 234.352C177.531 232.786 175.358 231.93 173.144 232.222C172.935 232.243 172.705 232.285 172.496 232.348L166.918 233.621L166.312 231.011C166.187 230.427 165.832 229.926 165.309 229.613C164.808 229.299 164.202 229.195 163.617 229.32L162.176 229.654L156.347 231.011L155.302 231.262C154.091 231.533 153.339 232.744 153.631 233.955L154.237 236.565L144.648 238.778C141.013 239.613 138.715 243.288 139.551 246.941L142.392 259.155C143.227 262.788 146.904 265.084 150.539 264.249L178.366 257.798C178.868 257.693 179.327 257.526 179.766 257.318C180.476 256.984 181.082 256.545 181.625 256.002C183.234 254.395 184.007 252.015 183.464 249.655L180.623 237.442C180.351 236.231 179.787 235.187 178.993 234.352ZM154.989 233.642C154.906 233.287 155.073 232.911 155.386 232.723C155.449 232.682 155.532 232.64 155.616 232.619L156.848 232.327L161.444 231.262L163.951 230.677C164.411 230.573 164.85 230.844 164.954 231.304L165.56 233.913L155.595 236.21L154.989 233.642Z" fill="#715AFF"/>
<path d="M160.714 218.631C160.714 218.631 159.879 221.616 160.171 222.577C162.135 229.028 165.519 233.245 156.411 232.16C156.411 232.16 156.787 231.784 155.053 228.506C153.047 224.727 153.068 224.664 154.886 221.595L155.513 218.088L160.714 218.631Z" fill="#FFB27D"/>
<path d="M172.163 210.969C169.406 210.802 166.063 210.092 164.851 208.631C163.473 206.981 162.094 206.543 162.094 206.543L162.512 204.748L163.013 202.597C163.013 202.597 163.18 202.409 163.744 202.43C163.744 202.43 165.896 202.91 166.711 202.305C167.505 201.678 168.967 202.054 169.865 202.66C171.014 203.411 172.56 203.307 172.518 203.662C172.518 203.662 170.241 204.768 170.45 204.956C172.539 206.794 178.013 207.545 177.658 208.986C177.511 209.549 173.333 211.032 172.163 210.969Z" fill="#FFB27D"/>
<path d="M133.871 140.777V142.28C133.871 142.28 134.268 146.957 128.523 147.625C122.778 148.314 118.056 148.209 118.203 144.618C118.725 141.821 119.644 137.499 119.686 135.182C119.707 134.326 119.644 133.407 119.477 132.384L130.633 132.154L133.913 132.697L133.871 140.777Z" fill="#FFB27D"/>
<path d="M133.91 132.697L133.869 140.777C132.678 141.32 131.341 141.654 129.857 141.654C124.739 141.654 121.417 137.896 119.684 135.182C119.704 134.326 119.642 133.407 119.475 132.384L130.63 132.154L133.91 132.697Z" fill="#E2915A"/>
<path d="M118.619 130.588C119.914 137.541 128.897 137.311 132.783 136.873C133.869 136.747 134.559 136.622 134.559 136.622C135.791 136.288 136.481 134.346 136.794 131.82C137.421 126.789 136.627 119.419 135.77 117.519C134.496 114.679 132.073 111.61 123.027 113.823C113.981 116.036 116.947 121.673 118.619 130.588Z" fill="#FFB27D"/>
<path d="M111.266 336.613H123.988C123.884 335.945 123.57 333.92 122.965 332.041C122.756 331.394 122.526 330.767 122.233 330.204C121.001 327.74 113.125 329.306 113.125 329.306C113.125 329.306 112.394 329.932 111.83 332.312C111.6 333.377 111.37 334.776 111.266 336.613Z" fill="#1C164B"/>
<path d="M149.726 332.604C149.768 334.337 149.977 335.966 150.604 336.613H175.778C175.464 335.694 174.545 334.337 171.975 333.92C169.03 333.439 164.455 332.041 161.78 329.201C160.819 328.199 160.109 327.009 159.817 325.631C158.626 320.349 150.019 327.239 150.019 327.239C150.019 327.239 149.684 330.036 149.726 332.604Z" fill="#1C164B"/>
<path d="M132.992 275.608C133.347 277.529 133.556 279.115 133.619 280.264C134.413 295.88 146.759 331.561 148.974 332.396C152.4 333.69 157.769 330.955 160.589 330.058C161.759 329.682 162.553 328.513 162.281 327.323C156.16 299.242 153.925 258.801 153.11 234.854C152.692 222.786 150.624 214.456 150.624 214.456C150.624 214.456 120.52 206.418 120.332 216.586C120.165 225.542 130.297 260.784 132.992 275.608Z" fill="#292A66"/>
<path d="M132.992 275.607L153.11 234.811C152.693 222.744 150.624 214.414 150.624 214.414C150.624 214.414 120.52 206.376 120.332 216.543C120.165 225.542 130.297 260.784 132.992 275.607Z" fill="#1C164B"/>
<path d="M139.677 216.586L123.758 331.874C123.758 331.874 116.759 333.565 111.328 332.208C111.328 332.208 106.669 270.889 107.066 256.066C107.463 241.243 103.723 216.398 107.923 213.663C112.122 210.928 139.677 216.586 139.677 216.586Z" fill="#292A66"/>
<path d="M136.125 118.605C133.639 119.377 128.375 118.584 126.181 120.358C123.987 122.133 126.077 125.056 123.57 126.121C123.068 126.33 122.462 126.183 122.128 125.766C121.439 124.889 120.478 124.033 119.6 124.388C118.869 124.68 118.848 125.62 119.162 126.517C119.433 127.269 119.35 128.125 118.89 128.793C118.681 129.085 118.556 129.399 118.618 129.712C118.827 130.86 119.391 132.363 119.6 133.115L119.663 133.908C119.663 133.908 115.464 129.357 113.688 125.536C112.476 122.906 112.497 113.093 118.451 110.212C118.43 110.191 118.41 110.17 118.389 110.149C118.263 109.919 117.908 109.961 117.908 109.961C118.41 109.732 119.203 109.878 119.203 109.878C119.182 109.857 119.224 109.836 119.287 109.773C119.391 109.084 120.081 108.583 120.081 108.583C119.851 108.917 119.747 109.272 119.705 109.523C121.272 108.709 126.077 106.871 129.9 108.542C132.469 109.669 134.851 110.254 136.459 110.567C137.776 110.817 138.716 112.007 138.674 113.343C138.569 115.243 137.901 117.958 136.125 118.605Z" fill="#292A66"/>
<path d="M116.822 146.602L120.478 225.187C120.478 225.187 151.063 225.688 150.185 218.777C149.308 211.867 139.155 149.024 139.155 149.024" fill="#E9F3FE"/>
<path d="M126.912 195.832C126.912 195.832 125.366 216.815 122.379 229.989C122.379 229.989 104.538 230.928 100.297 224.039C100.297 224.039 103.66 195.686 103.66 189.945C103.66 187.92 103.514 185.185 103.263 182.095C102.887 177.439 102.323 172.052 101.78 167.355C101.028 160.82 100.318 155.621 100.318 155.621L115.025 143.679L126.912 195.832Z" fill="#715AFF"/>
<path d="M162.323 220.656C162.323 220.656 159.001 222.744 153.757 222.034C151.856 226.711 147.344 228.298 147.344 227.88C147.344 227.838 146.341 219.049 145.129 208.693C145.004 207.649 144.9 206.605 144.774 205.562C144.774 205.478 144.753 205.374 144.733 205.29C144.524 203.557 144.336 201.804 144.127 200.05C142.685 187.586 141.306 175.643 141.306 175.643C138.173 156.498 135.52 143.846 135.52 143.846C142.205 144.535 146.696 146.915 148.493 150.026C153.82 159.254 157.685 182.345 159.941 199.632C159.941 199.674 159.941 199.716 159.962 199.758C160.359 202.743 160.693 205.541 160.986 208.088C161.007 208.255 161.028 208.401 161.048 208.547C161.905 215.792 162.323 220.656 162.323 220.656Z" fill="#715AFF"/>
<path d="M131.363 131.716C131.363 131.716 131.656 132.614 133.912 132.28C133.912 132.28 135.813 132.008 135.667 131.006C135.688 131.027 133.766 130.463 131.363 131.716Z" fill="white"/>
<path d="M115.965 143.596C115.923 142.844 119.475 141.8 119.475 141.8C119.475 141.8 123.549 147.437 130.255 147.542C130.255 147.542 128.354 151.258 126.097 152.218C126.076 152.218 116.174 148.043 115.965 143.596Z" fill="#D9E9F9"/>
<path d="M130.256 147.416C130.256 147.416 133.807 145.307 133.828 143.032C133.828 143.032 136.126 142.739 137.129 143.846C137.129 143.846 137.965 147.75 136.857 150.026C136.837 150.026 131.718 149.253 130.256 147.416Z" fill="#D9E9F9"/>
<path d="M127.83 147.061L132.635 145.913C132.635 145.913 133.262 145.976 133.241 146.748C133.22 147.542 131.883 149.817 131.298 150.005C130.713 150.193 126.702 148.648 127.83 147.061Z" fill="#00A7D8"/>
<path d="M116.53 143.199C116.488 142.447 118.891 140.902 118.891 140.902C118.891 140.902 123.549 146.331 130.255 146.435C130.255 146.435 128.354 150.151 126.098 151.112C126.077 151.112 116.739 147.646 116.53 143.199Z" fill="#E9F3FE"/>
<path d="M130.256 146.435C130.256 146.435 133.849 144.535 133.849 142.259C133.849 142.259 136.022 143.22 137.025 144.326C137.025 144.326 137.944 146.79 136.837 149.066C136.837 149.066 131.718 148.293 130.256 146.435Z" fill="#E9F3FE"/>
<path d="M139.049 212.327C138.861 214.581 138.005 216.69 136.626 218.235L134.474 220.678C133.931 221.283 133.095 221.221 132.657 220.511L130.045 216.439C129.356 215.354 129.022 213.955 129.147 212.556C129.419 209.445 129.941 203.432 130.359 197.649C130.714 192.952 130.985 188.4 131.027 185.624C131.173 176.771 130.004 148.586 130.004 148.586L131.737 148.669C131.737 148.669 135.937 159.568 138.047 174.454C138.569 178.107 138.966 182.012 139.133 186.062C139.133 186.041 139.885 202.159 139.049 212.327Z" fill="#00A7D8"/>
<path d="M139.049 212.326C138.861 214.581 138.005 216.689 136.626 218.234L134.474 220.677C133.931 221.283 133.095 221.22 132.657 220.51L130.045 216.439C129.356 215.353 129.022 213.954 129.147 212.556C129.419 209.445 129.941 203.432 130.359 197.649C135.205 191.009 137.232 181.886 138.047 174.453C138.569 178.107 138.966 182.011 139.133 186.061C139.133 186.04 139.885 202.158 139.049 212.326Z" fill="#00A7D8"/>
<path d="M118.891 140.902C118.891 140.902 128.417 180.8 126.913 195.832C126.913 195.832 123.403 179.777 114.984 166.624C114.984 166.624 118.055 163.91 117.888 162.929C117.888 162.929 115.611 162.261 113.396 162.699C113.396 162.699 113.647 145.496 115.026 143.679C116.384 141.863 118.891 140.902 118.891 140.902Z" fill="#1C164B"/>
<path d="M133.849 142.26C132.428 142.385 143.291 181.239 144.106 193.703C144.106 193.703 143.145 171.468 143.25 165.059C143.25 165.059 139.28 162.971 139.28 162.219C139.28 161.488 143.5 159.505 143.5 159.505C143.5 159.505 140.826 145.809 139.364 144.306C137.922 142.803 133.849 142.26 133.849 142.26Z" fill="#1C164B"/>
<path d="M153.757 223.621C153.757 223.621 153.089 224.519 153.507 226.753C153.924 228.987 153.695 230.239 154.279 229.843C154.864 229.446 156.055 226.753 156.055 226.753L153.757 223.621Z" fill="#FFB27D"/>
<path d="M125.743 201.97C114.65 200.321 107.233 189.945 103.243 182.094C102.867 177.439 102.303 172.052 101.76 167.355L104.35 159.943L125.743 201.97Z" fill="#233862"/>
<path d="M161.069 208.547C158.855 209.048 152.149 210.301 145.129 208.693C145.004 207.649 144.9 206.605 144.774 205.561C144.774 205.478 144.753 205.373 144.732 205.29C144.962 204.392 145.192 203.494 145.422 202.597C149.391 204.016 158.27 207.127 161.007 208.088C161.028 208.234 161.048 208.401 161.069 208.547Z" fill="#233862"/>
<path d="M115.005 143.679C115.005 143.679 105.249 144.911 100.799 151.112C96.3492 157.313 105.896 191.135 125.743 201.971C135.29 207.19 162.825 208.359 162.825 208.359C162.825 208.359 164.329 208.505 164.935 205.457C165.144 204.392 164.935 202.576 164.935 202.576C164.935 202.576 133.598 190.822 130.84 188.567C128.083 186.333 115.005 143.679 115.005 143.679Z" fill="#715AFF"/>
<path d="M176.674 202.679C176.674 202.679 173.394 201.865 172.454 201.656C171.347 201.427 170.344 200.591 170.031 200.988C169.446 201.719 171.953 202.972 172.935 205.206C173.415 206.291 174.397 206.897 176.361 206.082C177.364 205.686 178.157 203.64 176.674 202.679Z" fill="#E2915A"/>
<path d="M284.781 136.806C292.635 136.317 298.606 129.557 298.118 121.708C297.63 113.859 290.867 107.893 283.014 108.383C275.16 108.872 269.189 115.632 269.677 123.481C270.165 131.33 276.927 137.296 284.781 136.806Z" fill="#D5E5FB"/>
<path d="M279.314 116.893C279.314 114.366 281.362 112.32 283.89 112.32C286.418 112.32 288.465 114.366 288.465 116.893C288.465 119.419 286.418 121.465 283.89 121.465C281.362 121.465 279.314 119.419 279.314 116.893Z" fill="white"/>
<path d="M283.89 121.464C279.482 121.464 275.889 125.034 275.889 129.461H291.891C291.891 125.034 288.298 121.464 283.89 121.464Z" fill="white"/>
<path d="M187.987 86.9634C189.205 81.8009 186.005 76.6261 180.841 75.4051C175.676 74.1841 170.502 77.3793 169.285 82.5417C168.067 87.7042 171.267 92.879 176.432 94.1C181.596 95.321 186.77 92.1258 187.987 86.9634Z" fill="#C6DCF7"/>
<path d="M175.549 80.8985C175.549 79.1865 176.928 77.8086 178.641 77.8086C180.354 77.8086 181.733 79.1865 181.733 80.8985C181.733 82.6105 180.354 83.9885 178.641 83.9885C176.928 83.9676 175.549 82.5896 175.549 80.8985Z" fill="white"/>
<path d="M178.64 83.9678C175.652 83.9678 173.25 86.3896 173.25 89.3543H184.051C184.03 86.3896 181.627 83.9678 178.64 83.9678Z" fill="white"/>
<path d="M247.143 36.5324C247.29 36.0939 247.749 35.8434 248.188 35.9895C248.627 36.1148 248.877 36.595 248.731 37.0334C248.606 37.4719 248.125 37.7224 247.687 37.5763C247.248 37.451 246.997 36.9708 247.143 36.5324Z" fill="#D5E5FB"/>
<path d="M250.843 37.6813C250.989 37.2429 251.448 36.9923 251.887 37.1385C252.326 37.2637 252.577 37.7439 252.43 38.1824C252.284 38.6208 251.825 38.8713 251.386 38.7252C250.947 38.5791 250.696 38.1197 250.843 37.6813Z" fill="#D5E5FB"/>
<path d="M255.122 39.8727C254.683 39.7265 254.433 39.2672 254.579 38.8288C254.725 38.3903 255.185 38.1398 255.623 38.2859C256.062 38.4112 256.313 38.8914 256.167 39.3298C256.041 39.7683 255.582 40.0188 255.122 39.8727Z" fill="#D5E5FB"/>
<path d="M258.319 39.9772C258.445 39.5388 258.925 39.2882 259.364 39.4344C259.803 39.5596 260.053 40.0398 259.907 40.4783C259.761 40.9167 259.301 41.1673 258.863 41.0211C258.445 40.8958 258.194 40.4156 258.319 39.9772Z" fill="#D5E5FB"/>
<path d="M262.019 41.1256C262.165 40.6872 262.625 40.4367 263.063 40.5828C263.502 40.7081 263.753 41.1883 263.606 41.6267C263.481 42.0651 263.001 42.3157 262.562 42.1695C262.144 42.0234 261.893 41.5641 262.019 41.1256Z" fill="#D5E5FB"/>
<path d="M266.321 43.318C265.883 43.1927 265.632 42.7125 265.778 42.2741C265.903 41.8356 266.384 41.5851 266.823 41.7312C267.261 41.8565 267.512 42.3367 267.366 42.7751C267.24 43.2136 266.76 43.4432 266.321 43.318Z" fill="#D5E5FB"/>
<path d="M269.37 43.3805C269.516 42.9421 269.976 42.6915 270.415 42.8377C270.853 42.963 271.104 43.4432 270.958 43.8816C270.811 44.32 270.352 44.5706 269.913 44.4244C269.474 44.2783 269.224 43.819 269.37 43.3805Z" fill="#D5E5FB"/>
<path d="M273.069 44.508C273.215 44.0695 273.675 43.819 274.114 43.9651C274.552 44.0904 274.803 44.5706 274.657 45.009C274.532 45.4475 274.051 45.698 273.612 45.5519C273.174 45.4266 272.944 44.9464 273.069 44.508Z" fill="#D5E5FB"/>
<path d="M277.372 46.7208C276.933 46.5747 276.683 46.1153 276.829 45.6769C276.954 45.2385 277.435 44.9879 277.873 45.1341C278.312 45.2593 278.563 45.7395 278.417 46.178C278.27 46.5955 277.811 46.8461 277.372 46.7208Z" fill="#D5E5FB"/>
<path d="M280.567 46.8253C280.693 46.3869 281.173 46.1364 281.612 46.2825C282.05 46.4078 282.301 46.888 282.155 47.3264C282.009 47.7648 281.549 48.0154 281.11 47.8692C280.672 47.7231 280.421 47.2638 280.567 46.8253Z" fill="#D5E5FB"/>
<path d="M284.264 47.9528C284.39 47.5143 284.87 47.2638 285.309 47.41C285.748 47.5352 285.999 48.0154 285.852 48.4538C285.727 48.8923 285.246 49.1428 284.808 48.9967C284.369 48.8714 284.118 48.3912 284.264 47.9528Z" fill="#D5E5FB"/>
<path d="M288.569 50.1446C288.131 50.0194 287.88 49.5392 288.026 49.1007C288.172 48.6623 288.632 48.4118 289.071 48.5579C289.509 48.6832 289.76 49.1634 289.614 49.6018C289.468 50.0402 289.008 50.2908 288.569 50.1446Z" fill="#D5E5FB"/>
<path d="M291.766 50.2702C291.913 49.8317 292.372 49.5812 292.811 49.7273C293.25 49.8735 293.5 50.3328 293.354 50.7712C293.208 51.2097 292.748 51.4602 292.31 51.3141C291.871 51.1679 291.641 50.7086 291.766 50.2702Z" fill="#D5E5FB"/>
<path d="M295.464 51.3981C295.61 50.9597 296.07 50.7091 296.508 50.8553C296.947 51.0014 297.198 51.4607 297.051 51.8992C296.905 52.3376 296.446 52.5881 296.007 52.442C295.568 52.3167 295.338 51.8365 295.464 51.3981Z" fill="#D5E5FB"/>
<path d="M299.767 53.5895C299.328 53.4433 299.077 52.984 299.223 52.5456C299.37 52.1071 299.829 51.8566 300.268 52.0027C300.707 52.1489 300.957 52.6082 300.811 53.0466C300.665 53.4851 300.205 53.7356 299.767 53.5895Z" fill="#D5E5FB"/>
<path d="M302.962 53.715C303.108 53.2766 303.568 53.026 304.006 53.1722C304.445 53.2974 304.696 53.7776 304.549 54.2161C304.403 54.6545 303.944 54.905 303.505 54.7589C303.066 54.6127 302.816 54.1534 302.962 53.715Z" fill="#D5E5FB"/>
<path d="M306.661 54.8429C306.786 54.4045 307.267 54.1539 307.706 54.3001C308.144 54.4462 308.395 54.9056 308.249 55.344C308.102 55.7824 307.643 56.033 307.204 55.8868C306.765 55.7616 306.515 55.2814 306.661 54.8429Z" fill="#D5E5FB"/>
<path d="M310.964 57.0343C310.525 56.8881 310.274 56.4288 310.421 55.9904C310.567 55.5519 311.027 55.3014 311.465 55.4476C311.904 55.5728 312.155 56.053 312.009 56.4915C311.862 56.9299 311.403 57.1804 310.964 57.0343Z" fill="#D5E5FB"/>
<path d="M313.993 57.0968C314.14 56.6584 314.599 56.4079 315.038 56.554C315.477 56.7001 315.727 57.1595 315.581 57.5979C315.435 58.0363 314.975 58.2869 314.536 58.1407C314.119 58.0155 313.868 57.5353 313.993 57.0968Z" fill="#D5E5FB"/>
<path d="M317.693 58.2453C317.839 57.8068 318.298 57.5563 318.737 57.7024C319.176 57.8486 319.426 58.3079 319.28 58.7463C319.155 59.1848 318.674 59.4353 318.236 59.2892C317.818 59.143 317.567 58.6837 317.693 58.2453Z" fill="#D5E5FB"/>
<path d="M321.995 60.4371C321.556 60.291 321.306 59.8317 321.452 59.3932C321.598 58.9548 322.058 58.7042 322.497 58.8504C322.935 58.9757 323.186 59.4558 323.04 59.8943C322.914 60.3118 322.434 60.5624 321.995 60.4371Z" fill="#D5E5FB"/>
<path d="M325.191 60.5417C325.316 60.1032 325.796 59.8527 326.235 59.9988C326.674 60.1241 326.925 60.6043 326.778 61.0427C326.632 61.4812 326.172 61.7317 325.734 61.5855C325.316 61.4603 325.065 60.9801 325.191 60.5417Z" fill="#D5E5FB"/>
<path d="M328.89 61.6691C329.036 61.2307 329.496 60.9801 329.934 61.1263C330.373 61.2515 330.624 61.7317 330.477 62.1702C330.331 62.6086 329.872 62.8591 329.433 62.713C329.015 62.5877 328.764 62.1284 328.89 61.6691Z" fill="#D5E5FB"/>
<path d="M333.192 63.8824C332.754 63.7363 332.503 63.277 332.649 62.8385C332.795 62.4001 333.255 62.1496 333.694 62.2957C334.133 62.421 334.383 62.9012 334.237 63.3396C334.091 63.778 333.631 64.0077 333.192 63.8824Z" fill="#D5E5FB"/>
<path d="M293.873 108.039C293.497 107.768 293.413 107.246 293.685 106.87C293.956 106.494 294.479 106.411 294.855 106.682C295.231 106.954 295.314 107.476 295.043 107.851C294.75 108.227 294.228 108.311 293.873 108.039Z" fill="#D5E5FB"/>
<path d="M296.148 104.928C295.772 104.657 295.689 104.135 295.96 103.759C296.232 103.383 296.754 103.3 297.13 103.571C297.506 103.842 297.59 104.364 297.318 104.74C297.047 105.116 296.524 105.199 296.148 104.928Z" fill="#D5E5FB"/>
<path d="M299.639 101.588C299.367 101.964 298.845 102.047 298.469 101.776C298.093 101.504 298.009 100.982 298.281 100.607C298.552 100.231 299.074 100.147 299.451 100.419C299.827 100.69 299.91 101.212 299.639 101.588Z" fill="#D5E5FB"/>
<path d="M300.789 98.6023C300.413 98.3309 300.329 97.809 300.601 97.4332C300.872 97.0574 301.395 96.9739 301.771 97.2453C302.147 97.5167 302.23 98.0386 301.959 98.4144C301.687 98.7902 301.165 98.8738 300.789 98.6023Z" fill="#D5E5FB"/>
<path d="M303.064 95.4705C302.688 95.1991 302.605 94.6772 302.876 94.3014C303.148 93.9256 303.67 93.842 304.046 94.1135C304.422 94.3849 304.506 94.9068 304.234 95.2826C303.963 95.6793 303.44 95.7419 303.064 95.4705Z" fill="#D5E5FB"/>
<path d="M306.554 92.1303C306.283 92.5061 305.761 92.5896 305.385 92.3182C305.009 92.0468 304.925 91.5248 305.197 91.149C305.468 90.7732 305.99 90.6897 306.366 90.9611C306.742 91.2325 306.826 91.7753 306.554 92.1303Z" fill="#D5E5FB"/>
<path d="M307.703 89.1453C307.327 88.8739 307.243 88.352 307.515 87.9762C307.787 87.6004 308.309 87.5168 308.685 87.7883C309.061 88.0597 309.145 88.5816 308.873 88.9574C308.601 89.3332 308.079 89.4167 307.703 89.1453Z" fill="#D5E5FB"/>
<path d="M310.002 86.0345C309.626 85.7631 309.542 85.2411 309.814 84.8653C310.085 84.4895 310.608 84.406 310.984 84.6774C311.36 84.9488 311.443 85.4708 311.172 85.8466C310.9 86.2224 310.378 86.3059 310.002 86.0345Z" fill="#D5E5FB"/>
<path d="M313.49 82.6942C313.218 83.07 312.696 83.1536 312.32 82.8821C311.944 82.6107 311.861 82.0888 312.132 81.713C312.404 81.3372 312.926 81.2537 313.302 81.5251C313.678 81.7965 313.762 82.3184 313.49 82.6942Z" fill="#D5E5FB"/>
<path d="M314.64 79.7083C314.264 79.4369 314.181 78.915 314.452 78.5392C314.724 78.1634 315.246 78.0798 315.622 78.3512C315.998 78.6227 316.082 79.1446 315.81 79.5204C315.539 79.8962 315.017 79.9797 314.64 79.7083Z" fill="#D5E5FB"/>
<path d="M316.916 76.5975C316.54 76.3261 316.456 75.8041 316.728 75.4283C316.999 75.0525 317.522 74.969 317.898 75.2404C318.274 75.5118 318.357 76.0338 318.086 76.4096C317.814 76.7854 317.292 76.8689 316.916 76.5975Z" fill="#D5E5FB"/>
<path d="M320.406 73.2572C320.134 73.633 319.612 73.7165 319.236 73.4451C318.86 73.1737 318.777 72.6518 319.048 72.276C319.32 71.9002 319.842 71.8167 320.218 72.0881C320.594 72.3595 320.678 72.8814 320.406 73.2572Z" fill="#D5E5FB"/>
<path d="M321.471 70.3968C321.094 70.1254 321.011 69.6034 321.282 69.2276C321.554 68.8518 322.076 68.7683 322.452 69.0397C322.828 69.3111 322.912 69.8331 322.64 70.2089C322.348 70.5847 321.826 70.6682 321.471 70.3968Z" fill="#D5E5FB"/>
<path d="M323.746 67.265C323.37 66.9936 323.286 66.4716 323.558 66.0958C323.829 65.72 324.352 65.6365 324.728 65.9079C325.104 66.1793 325.187 66.7013 324.916 67.0771C324.644 67.4737 324.122 67.5364 323.746 67.265Z" fill="#D5E5FB"/>
<path d="M327.236 63.9247C326.965 64.3005 326.442 64.384 326.066 64.1126C325.69 63.8412 325.607 63.3192 325.878 62.9434C326.15 62.5676 326.672 62.4841 327.048 62.7555C327.424 63.027 327.508 63.5698 327.236 63.9247Z" fill="#D5E5FB"/>
<path d="M328.387 60.9603C328.011 60.6889 327.927 60.1669 328.199 59.7911C328.47 59.4153 328.992 59.3318 329.368 59.6032C329.744 59.8746 329.828 60.3966 329.556 60.7724C329.285 61.1482 328.763 61.2317 328.387 60.9603Z" fill="#D5E5FB"/>
<path d="M330.662 57.8279C330.286 57.5565 330.202 57.0346 330.474 56.6588C330.745 56.283 331.268 56.1995 331.644 56.4709C332.02 56.7423 332.103 57.2642 331.832 57.64C331.56 58.0158 331.038 58.0994 330.662 57.8279Z" fill="#D5E5FB"/>
<path d="M334.152 54.4877C333.881 54.8635 333.358 54.947 332.982 54.6756C332.606 54.4042 332.523 53.8822 332.794 53.5064C333.066 53.1306 333.588 53.0471 333.964 53.3185C334.34 53.5899 334.424 54.1119 334.152 54.4877Z" fill="#D5E5FB"/>
<path d="M300.789 121.131C300.705 120.671 301.019 120.254 301.478 120.17C301.938 120.087 302.356 120.4 302.439 120.859C302.523 121.319 302.209 121.736 301.75 121.82C301.29 121.903 300.852 121.59 300.789 121.131Z" fill="#D5E5FB"/>
<path d="M304.611 120.504C304.528 120.044 304.841 119.627 305.301 119.543C305.76 119.46 306.178 119.773 306.262 120.232C306.345 120.692 306.032 121.109 305.572 121.193C305.113 121.276 304.674 120.963 304.611 120.504Z" fill="#D5E5FB"/>
<path d="M309.437 120.567C308.978 120.65 308.56 120.337 308.476 119.878C308.393 119.418 308.706 119.001 309.166 118.917C309.625 118.834 310.043 119.147 310.127 119.606C310.19 120.066 309.897 120.483 309.437 120.567Z" fill="#D5E5FB"/>
<path d="M312.342 119.252C312.258 118.793 312.571 118.375 313.031 118.292C313.491 118.208 313.908 118.521 313.992 118.981C314.076 119.44 313.762 119.858 313.303 119.941C312.843 120.004 312.425 119.691 312.342 119.252Z" fill="#D5E5FB"/>
<path d="M316.164 118.625C316.08 118.166 316.394 117.748 316.853 117.665C317.313 117.581 317.731 117.895 317.814 118.354C317.898 118.813 317.585 119.231 317.125 119.314C316.665 119.377 316.227 119.064 316.164 118.625Z" fill="#D5E5FB"/>
<path d="M320.99 118.667C320.53 118.751 320.113 118.438 320.029 117.978C319.946 117.519 320.259 117.101 320.719 117.018C321.178 116.934 321.596 117.248 321.679 117.707C321.763 118.166 321.45 118.605 320.99 118.667Z" fill="#D5E5FB"/>
<path d="M323.916 117.352C323.832 116.892 324.146 116.475 324.605 116.391C325.065 116.308 325.483 116.621 325.566 117.08C325.65 117.54 325.336 117.957 324.877 118.041C324.417 118.103 323.979 117.811 323.916 117.352Z" fill="#D5E5FB"/>
<path d="M327.738 116.725C327.655 116.266 327.968 115.848 328.427 115.764C328.887 115.681 329.305 115.994 329.388 116.453C329.472 116.913 329.159 117.33 328.699 117.414C328.239 117.497 327.801 117.184 327.738 116.725Z" fill="#D5E5FB"/>
<path d="M332.564 116.788C332.105 116.871 331.687 116.558 331.603 116.099C331.52 115.64 331.833 115.222 332.293 115.138C332.752 115.055 333.17 115.368 333.254 115.827C333.316 116.266 333.024 116.704 332.564 116.788Z" fill="#D5E5FB"/>
<path d="M335.469 115.452C335.385 114.993 335.698 114.576 336.158 114.492C336.618 114.408 337.035 114.722 337.119 115.181C337.203 115.64 336.889 116.058 336.43 116.141C335.97 116.225 335.552 115.912 335.469 115.452Z" fill="#D5E5FB"/>
<path d="M339.291 114.826C339.207 114.367 339.521 113.949 339.98 113.866C340.44 113.782 340.858 114.095 340.941 114.555C341.025 115.014 340.711 115.431 340.252 115.515C339.792 115.598 339.354 115.285 339.291 114.826Z" fill="#D5E5FB"/>
<path d="M344.117 114.888C343.657 114.972 343.24 114.659 343.156 114.199C343.073 113.74 343.386 113.323 343.845 113.239C344.305 113.156 344.723 113.469 344.806 113.928C344.89 114.387 344.577 114.805 344.117 114.888Z" fill="#D5E5FB"/>
<path d="M346.875 113.594C346.791 113.135 347.105 112.717 347.564 112.634C348.024 112.55 348.442 112.863 348.525 113.323C348.609 113.782 348.295 114.199 347.836 114.283C347.376 114.346 346.938 114.053 346.875 113.594Z" fill="#D5E5FB"/>
<path d="M350.697 112.967C350.614 112.508 350.927 112.09 351.387 112.007C351.846 111.923 352.264 112.236 352.347 112.696C352.431 113.155 352.118 113.572 351.658 113.656C351.199 113.719 350.76 113.426 350.697 112.967Z" fill="#D5E5FB"/>
<path d="M355.523 113.009C355.064 113.093 354.646 112.779 354.562 112.32C354.479 111.861 354.792 111.443 355.252 111.36C355.711 111.276 356.129 111.589 356.213 112.049C356.275 112.508 355.962 112.946 355.523 113.009Z" fill="#D5E5FB"/>
<path d="M358.428 111.694C358.344 111.234 358.657 110.817 359.117 110.733C359.577 110.65 359.994 110.963 360.078 111.422C360.161 111.882 359.848 112.299 359.389 112.383C358.929 112.466 358.49 112.153 358.428 111.694Z" fill="#D5E5FB"/>
<path d="M362.25 111.067C362.166 110.607 362.48 110.19 362.939 110.106C363.399 110.023 363.817 110.336 363.9 110.795C363.984 111.255 363.67 111.672 363.211 111.756C362.751 111.839 362.313 111.526 362.25 111.067Z" fill="#D5E5FB"/>
<path d="M367.076 111.13C366.616 111.213 366.199 110.9 366.115 110.441C366.031 109.981 366.345 109.564 366.804 109.48C367.264 109.397 367.682 109.71 367.765 110.169C367.828 110.629 367.536 111.046 367.076 111.13Z" fill="#D5E5FB"/>
<path d="M278.813 105.889C278.374 106.035 277.894 105.784 277.768 105.346C277.622 104.908 277.873 104.427 278.312 104.302C278.75 104.156 279.231 104.406 279.356 104.845C279.482 105.283 279.252 105.743 278.813 105.889Z" fill="#D5E5FB"/>
<path d="M277.623 102.214C277.185 102.361 276.704 102.11 276.579 101.672C276.433 101.233 276.683 100.753 277.122 100.628C277.561 100.482 278.041 100.732 278.167 101.171C278.313 101.588 278.062 102.068 277.623 102.214Z" fill="#D5E5FB"/>
<path d="M276.973 97.4333C277.119 97.8717 276.869 98.3519 276.43 98.4772C275.991 98.6233 275.511 98.3728 275.386 97.9343C275.239 97.4959 275.49 97.0157 275.929 96.8904C276.367 96.7443 276.827 96.9948 276.973 97.4333Z" fill="#D5E5FB"/>
<path d="M275.241 94.7399C274.802 94.886 274.321 94.6355 274.196 94.197C274.05 93.7586 274.301 93.2784 274.739 93.1531C275.178 93.007 275.659 93.2575 275.784 93.6959C275.93 94.1344 275.679 94.5937 275.241 94.7399Z" fill="#D5E5FB"/>
<path d="M274.071 91.0655C273.632 91.2117 273.152 90.9611 273.026 90.5227C272.88 90.0843 273.131 89.6041 273.569 89.4788C274.008 89.3327 274.489 89.5832 274.614 90.0216C274.739 90.4601 274.509 90.9194 274.071 91.0655Z" fill="#D5E5FB"/>
<path d="M273.403 86.2843C273.549 86.7228 273.298 87.203 272.86 87.3282C272.421 87.4744 271.941 87.2238 271.815 86.7854C271.669 86.347 271.92 85.8668 272.358 85.7415C272.797 85.5954 273.278 85.8459 273.403 86.2843Z" fill="#D5E5FB"/>
<path d="M271.666 83.5909C271.228 83.7371 270.747 83.4865 270.622 83.0481C270.476 82.6097 270.726 82.1295 271.165 82.0042C271.604 81.858 272.084 82.1086 272.21 82.547C272.356 82.9855 272.105 83.4448 271.666 83.5909Z" fill="#D5E5FB"/>
<path d="M270.497 79.8961C270.058 80.0422 269.577 79.7917 269.452 79.3533C269.306 78.9148 269.556 78.4346 269.995 78.3094C270.434 78.1632 270.914 78.4138 271.04 78.8522C271.165 79.2906 270.935 79.7708 270.497 79.8961Z" fill="#D5E5FB"/>
<path d="M269.85 75.1149C269.996 75.5534 269.746 76.0335 269.307 76.1588C268.868 76.305 268.388 76.0544 268.263 75.616C268.116 75.1776 268.367 74.6974 268.806 74.5721C269.224 74.4468 269.704 74.6765 269.85 75.1149Z" fill="#D5E5FB"/>
<path d="M268.118 72.442C267.679 72.5881 267.198 72.3376 267.073 71.8992C266.927 71.4607 267.178 70.9805 267.616 70.8553C268.055 70.7091 268.535 70.9597 268.661 71.3981C268.786 71.8365 268.556 72.2958 268.118 72.442Z" fill="#D5E5FB"/>
<path d="M266.926 68.7477C266.487 68.8938 266.007 68.6433 265.882 68.2048C265.735 67.7664 265.986 67.2862 266.425 67.1609C266.864 67.0148 267.344 67.2653 267.469 67.7038C267.616 68.1422 267.365 68.6224 266.926 68.7477Z" fill="#D5E5FB"/>
<path d="M266.278 63.9655C266.424 64.404 266.174 64.8841 265.735 65.0094C265.296 65.1556 264.816 64.905 264.69 64.4666C264.544 64.0281 264.795 63.5479 265.233 63.4227C265.672 63.2974 266.132 63.5271 266.278 63.9655Z" fill="#D5E5FB"/>
<path d="M264.586 61.4395C264.148 61.5857 263.667 61.3352 263.542 60.8967C263.396 60.4583 263.646 59.9781 264.085 59.8528C264.524 59.7067 265.004 59.9572 265.13 60.3956C265.276 60.8341 265.025 61.2934 264.586 61.4395Z" fill="#D5E5FB"/>
<path d="M263.414 57.7652C262.976 57.9114 262.495 57.6608 262.37 57.2224C262.224 56.784 262.474 56.3038 262.913 56.1785C263.352 56.0324 263.832 56.2829 263.958 56.7213C264.083 57.1389 263.853 57.6191 263.414 57.7652Z" fill="#D5E5FB"/>
<path d="M262.749 52.9841C262.895 53.4225 262.644 53.9027 262.206 54.028C261.767 54.1741 261.286 53.9236 261.161 53.4851C261.015 53.0467 261.265 52.5665 261.704 52.4412C262.143 52.2951 262.623 52.5247 262.749 52.9841Z" fill="#D5E5FB"/>
<path d="M261.012 50.2911C260.573 50.4373 260.093 50.1867 259.968 49.7483C259.821 49.3098 260.072 48.8297 260.511 48.7044C260.949 48.5582 261.43 48.8088 261.555 49.2472C261.701 49.6856 261.451 50.145 261.012 50.2911Z" fill="#D5E5FB"/>
<path d="M259.844 46.6163C259.405 46.7625 258.925 46.5119 258.8 46.0735C258.653 45.635 258.904 45.1549 259.343 45.0296C259.782 44.8834 260.262 45.134 260.387 45.5724C260.534 45.99 260.283 46.4702 259.844 46.6163Z" fill="#D5E5FB"/>
<path d="M259.196 41.8351C259.342 42.2735 259.091 42.7537 258.653 42.879C258.214 43.0252 257.734 42.7746 257.608 42.3362C257.462 41.8977 257.713 41.4175 258.151 41.2923C258.59 41.1461 259.05 41.3967 259.196 41.8351Z" fill="#D5E5FB"/>
<path d="M183.986 80.0627C183.715 79.6869 183.819 79.165 184.195 78.8936C184.571 78.6221 185.094 78.7265 185.365 79.1023C185.637 79.4781 185.532 80.0001 185.156 80.2715C184.759 80.522 184.258 80.4385 183.986 80.0627Z" fill="#D5E5FB"/>
<path d="M187.162 77.8503C186.891 77.4745 186.995 76.9526 187.371 76.6812C187.747 76.4097 188.269 76.5141 188.541 76.8899C188.813 77.2657 188.708 77.7877 188.332 78.0591C187.956 78.3305 187.434 78.2261 187.162 77.8503Z" fill="#D5E5FB"/>
<path d="M191.57 75.8457C191.194 76.1171 190.672 76.0127 190.4 75.6369C190.129 75.2611 190.233 74.7392 190.609 74.4678C190.985 74.1964 191.508 74.3007 191.779 74.6766C192.03 75.0524 191.946 75.5743 191.57 75.8457Z" fill="#D5E5FB"/>
<path d="M193.617 73.4031C193.346 73.0273 193.45 72.5053 193.826 72.2339C194.202 71.9625 194.725 72.0669 194.996 72.4427C195.268 72.8185 195.163 73.3404 194.787 73.6118C194.411 73.8833 193.889 73.7789 193.617 73.4031Z" fill="#D5E5FB"/>
<path d="M196.813 71.2112C196.541 70.8354 196.645 70.3134 197.022 70.042C197.398 69.7706 197.92 69.875 198.191 70.2508C198.463 70.6266 198.359 71.1485 197.983 71.42C197.586 71.6914 197.063 71.587 196.813 71.2112Z" fill="#D5E5FB"/>
<path d="M201.201 69.1856C200.825 69.457 200.303 69.3526 200.031 68.9768C199.76 68.601 199.864 68.079 200.24 67.8076C200.616 67.5362 201.139 67.6406 201.41 68.0164C201.682 68.4131 201.577 68.935 201.201 69.1856Z" fill="#D5E5FB"/>
<path d="M203.27 66.7429C202.998 66.3671 203.102 65.8451 203.479 65.5737C203.855 65.3023 204.377 65.4067 204.648 65.7825C204.92 66.1583 204.816 66.6803 204.44 66.9517C204.063 67.2231 203.541 67.1396 203.27 66.7429Z" fill="#D5E5FB"/>
<path d="M206.445 64.5515C206.174 64.1757 206.278 63.6537 206.654 63.3823C207.03 63.1109 207.553 63.2153 207.824 63.5911C208.096 63.9669 207.991 64.4889 207.615 64.7603C207.239 65.0317 206.717 64.9273 206.445 64.5515Z" fill="#D5E5FB"/>
<path d="M210.854 62.5469C210.478 62.8183 209.955 62.7139 209.684 62.3381C209.412 61.9623 209.517 61.4404 209.893 61.1689C210.269 60.8975 210.791 61.0019 211.062 61.3777C211.313 61.7535 211.23 62.2755 210.854 62.5469Z" fill="#D5E5FB"/>
<path d="M212.899 60.1042C212.627 59.7284 212.731 59.2065 213.107 58.9351C213.484 58.6636 214.006 58.768 214.277 59.1438C214.549 59.5196 214.445 60.0416 214.068 60.313C213.692 60.5844 213.17 60.48 212.899 60.1042Z" fill="#D5E5FB"/>
<path d="M216.094 57.9123C215.822 57.5365 215.927 57.0146 216.303 56.7432C216.679 56.4717 217.201 56.5761 217.473 56.9519C217.744 57.3277 217.64 57.8497 217.264 58.1211C216.867 58.3717 216.345 58.2881 216.094 57.9123Z" fill="#D5E5FB"/>
<path d="M220.483 55.8867C220.106 56.1582 219.584 56.0538 219.313 55.678C219.041 55.3022 219.145 54.7802 219.522 54.5088C219.898 54.2374 220.42 54.3418 220.691 54.7176C220.963 55.1143 220.859 55.6362 220.483 55.8867Z" fill="#D5E5FB"/>
<path d="M222.426 53.5491C222.154 53.1732 222.259 52.6513 222.635 52.3799C223.011 52.1085 223.533 52.2129 223.805 52.5887C224.076 52.9645 223.972 53.4864 223.596 53.7578C223.199 54.0292 222.677 53.9249 222.426 53.5491Z" fill="#D5E5FB"/>
<path d="M225.602 51.3562C225.33 50.9804 225.435 50.4584 225.811 50.187C226.187 49.9156 226.709 50.02 226.98 50.3958C227.252 50.7716 227.148 51.2935 226.772 51.565C226.396 51.8155 225.873 51.732 225.602 51.3562Z" fill="#D5E5FB"/>
<path d="M229.988 49.3311C229.612 49.6025 229.09 49.4981 228.818 49.1223C228.547 48.7465 228.651 48.2245 229.027 47.9531C229.403 47.6817 229.926 47.7861 230.197 48.1619C230.469 48.5586 230.364 49.0805 229.988 49.3311Z" fill="#D5E5FB"/>
<path d="M232.055 46.8889C231.783 46.5131 231.888 45.9911 232.264 45.7197C232.64 45.4483 233.162 45.5527 233.434 45.9285C233.705 46.3043 233.601 46.8263 233.225 47.0977C232.828 47.3691 232.305 47.2856 232.055 46.8889Z" fill="#D5E5FB"/>
<path d="M235.231 44.697C234.959 44.3212 235.063 43.7992 235.439 43.5278C235.816 43.2564 236.338 43.3608 236.609 43.7366C236.881 44.1124 236.777 44.6344 236.4 44.9058C236.024 45.1772 235.502 45.0728 235.231 44.697Z" fill="#D5E5FB"/>
<path d="M239.617 42.6924C239.241 42.9638 238.719 42.8594 238.447 42.4836C238.176 42.1078 238.28 41.5859 238.656 41.3145C239.032 41.043 239.555 41.1474 239.826 41.5232C240.098 41.899 240.014 42.421 239.617 42.6924Z" fill="#D5E5FB"/>
<path d="M343.869 68.622C344.203 68.3088 344.725 68.3088 345.059 68.6429C345.373 68.9769 345.373 69.4989 345.039 69.8329C344.704 70.1461 344.182 70.1461 343.848 69.812C343.534 69.478 343.534 68.9352 343.869 68.622Z" fill="#D5E5FB"/>
<path d="M346.562 71.4193C346.896 71.1062 347.419 71.1062 347.753 71.4402C348.066 71.7743 348.066 72.2962 347.732 72.6303C347.398 72.9434 346.876 72.9434 346.541 72.6094C346.207 72.2545 346.228 71.7325 346.562 71.4193Z" fill="#D5E5FB"/>
<path d="M349.236 75.4282C348.923 75.0942 348.923 74.5722 349.257 74.2382C349.592 73.925 350.114 73.925 350.448 74.2591C350.761 74.5931 350.761 75.1151 350.427 75.4491C350.093 75.7832 349.571 75.7623 349.236 75.4282Z" fill="#D5E5FB"/>
<path d="M351.972 77.0775C352.306 76.7644 352.829 76.7644 353.163 77.0984C353.476 77.4325 353.476 77.9544 353.142 78.2885C352.808 78.6016 352.285 78.6016 351.951 78.2676C351.638 77.9127 351.638 77.3907 351.972 77.0775Z" fill="#D5E5FB"/>
<path d="M354.646 79.8749C354.98 79.5617 355.502 79.5617 355.837 79.8958C356.171 80.2298 356.15 80.7518 355.816 81.0858C355.482 81.399 354.959 81.399 354.625 81.065C354.312 80.71 354.312 80.1881 354.646 79.8749Z" fill="#D5E5FB"/>
<path d="M357.342 83.8843C357.028 83.5502 357.028 83.0283 357.363 82.6942C357.697 82.3811 358.219 82.3811 358.554 82.7151C358.888 83.0492 358.867 83.5711 358.533 83.9052C358.198 84.2392 357.655 84.2183 357.342 83.8843Z" fill="#D5E5FB"/>
<path d="M360.078 85.5331C360.412 85.2199 360.934 85.2199 361.268 85.554C361.582 85.888 361.582 86.41 361.247 86.744C360.913 87.0572 360.391 87.0572 360.057 86.7231C359.743 86.3891 359.743 85.8463 360.078 85.5331Z" fill="#D5E5FB"/>
<path d="M362.773 88.3305C363.107 88.0173 363.63 88.0173 363.964 88.3514C364.298 88.6854 364.277 89.2073 363.943 89.5414C363.609 89.8754 363.086 89.8546 362.752 89.5205C362.418 89.1656 362.439 88.6436 362.773 88.3305Z" fill="#D5E5FB"/>
<path d="M365.447 92.3399C365.134 92.0058 365.134 91.4839 365.468 91.1498C365.802 90.8366 366.325 90.8366 366.659 91.1707C366.972 91.5047 366.972 92.0267 366.638 92.3607C366.304 92.6948 365.761 92.6739 365.447 92.3399Z" fill="#D5E5FB"/>
<path d="M368.183 93.9892C368.517 93.676 369.04 93.676 369.374 94.01C369.687 94.3441 369.687 94.8661 369.353 95.2001C369.019 95.5342 368.496 95.5133 368.162 95.1792C367.849 94.8243 367.849 94.3023 368.183 93.9892Z" fill="#D5E5FB"/>
<path d="M370.857 96.7865C371.191 96.4734 371.713 96.4734 372.048 96.8074C372.361 97.1415 372.361 97.6634 372.027 97.9975C371.693 98.3106 371.17 98.3106 370.836 97.9766C370.523 97.6217 370.523 97.0997 370.857 96.7865Z" fill="#D5E5FB"/>
<path d="M373.553 100.795C373.239 100.461 373.239 99.9394 373.574 99.6054C373.908 99.2922 374.43 99.2922 374.765 99.6263C375.078 99.9603 375.078 100.482 374.744 100.816C374.409 101.129 373.866 101.129 373.553 100.795Z" fill="#D5E5FB"/>
<path d="M265.593 39.5104C266.639 33.0566 262.252 26.9742 255.795 25.9249C249.338 24.8757 243.255 29.257 242.209 35.7108C241.163 42.1646 245.549 48.2471 252.006 49.2963C258.464 50.3455 264.546 45.9642 265.593 39.5104Z" fill="#D5E5FB"/>
<path d="M250.107 32.8794C250.107 30.7916 251.8 29.0796 253.91 29.0796C256.02 29.0796 257.712 30.7707 257.712 32.8794C257.712 34.9672 256.02 36.6792 253.91 36.6792C251.8 36.6792 250.107 34.9672 250.107 32.8794Z" fill="white"/>
<path d="M253.911 36.6787C250.234 36.6787 247.268 39.6434 247.268 43.3179H260.554C260.554 39.6434 257.567 36.6787 253.911 36.6787Z" fill="white"/>
<path d="M353.968 60.9597C355.326 50.9857 348.337 41.7958 338.358 40.4334C328.378 39.071 319.187 46.0521 317.829 56.026C316.47 66 323.459 75.1899 333.439 76.5523C343.418 77.9147 352.609 70.9336 353.968 60.9597Z" fill="#C6DCF7"/>
<path d="M335.908 57.014C339.139 57.014 341.758 54.3967 341.758 51.1681C341.758 47.9395 339.139 45.3223 335.908 45.3223C332.678 45.3223 330.059 47.9395 330.059 51.1681C330.059 54.3967 332.678 57.014 335.908 57.014Z" fill="white"/>
<path d="M335.909 57.0142C330.247 57.0142 325.672 61.6073 325.672 67.2444H346.166C346.145 61.6073 341.549 57.0142 335.909 57.0142Z" fill="white"/>
<path d="M393.784 109.648C394.453 102.889 389.514 96.8681 382.752 96.1989C375.989 95.5297 369.964 100.466 369.295 107.224C368.625 113.982 373.564 120.003 380.327 120.673C387.089 121.342 393.114 116.406 393.784 109.648Z" fill="#D5E5FB"/>
<path d="M383.016 111.359C383.016 111.109 382.995 110.879 382.912 110.691C382.849 110.503 382.724 110.315 382.577 110.169C382.41 110.002 382.222 109.856 381.951 109.731C381.7 109.605 381.387 109.459 381.031 109.334C380.405 109.104 379.841 108.854 379.318 108.603C378.796 108.353 378.357 108.06 378.002 107.747C377.647 107.434 377.355 107.058 377.167 106.62C376.979 106.181 376.874 105.68 376.874 105.096C376.874 104.595 376.979 104.115 377.167 103.697C377.355 103.279 377.626 102.924 377.96 102.611C378.295 102.298 378.712 102.048 379.172 101.86C379.653 101.672 380.175 101.547 380.76 101.505L380.781 99.584L382.327 99.6049L382.306 101.547C382.87 101.63 383.371 101.776 383.81 102.006C384.249 102.235 384.646 102.528 384.959 102.883C385.272 103.238 385.502 103.655 385.669 104.156C385.836 104.636 385.92 105.179 385.899 105.785L383.1 105.743C383.1 105.033 382.953 104.49 382.64 104.115C382.327 103.76 381.909 103.572 381.366 103.551C381.073 103.551 380.822 103.593 380.614 103.655C380.405 103.739 380.238 103.843 380.091 103.989C379.945 104.135 379.862 104.302 379.778 104.49C379.715 104.678 379.673 104.887 379.673 105.117C379.673 105.346 379.694 105.534 379.757 105.722C379.82 105.91 379.924 106.077 380.091 106.223C380.238 106.369 380.446 106.515 380.718 106.662C380.969 106.808 381.303 106.954 381.679 107.1C382.306 107.351 382.87 107.601 383.371 107.852C383.873 108.102 384.311 108.395 384.687 108.729C385.042 109.063 385.335 109.438 385.523 109.856C385.711 110.294 385.815 110.795 385.815 111.38C385.815 111.902 385.711 112.382 385.523 112.8C385.335 113.217 385.063 113.572 384.729 113.885C384.395 114.178 383.977 114.428 383.497 114.595C383.016 114.783 382.494 114.888 381.909 114.929L381.888 116.725L380.342 116.704L380.363 114.929C379.82 114.867 379.318 114.741 378.817 114.554C378.316 114.366 377.877 114.094 377.501 113.76C377.125 113.426 376.811 112.988 376.582 112.466C376.352 111.944 376.247 111.338 376.268 110.608L379.068 110.649C379.068 111.067 379.109 111.422 379.235 111.714C379.36 112.006 379.506 112.236 379.694 112.403C379.882 112.57 380.112 112.695 380.363 112.779C380.614 112.842 380.885 112.883 381.136 112.883C381.449 112.883 381.7 112.862 381.93 112.779C382.159 112.695 382.348 112.591 382.515 112.466C382.682 112.34 382.786 112.173 382.87 111.986C382.974 111.777 383.016 111.568 383.016 111.359Z" fill="white"/>
</svg>
