<svg width="138" height="85" viewBox="0 0 138 85" fill="none" xmlns="http://www.w3.org/2000/svg">
<g clip-path="url(#clip0)">
<path d="M39.7111 2.01709C39.462 2.01737 39.2232 2.11635 39.047 2.29233C38.8709 2.4683 38.7718 2.70689 38.7715 2.95576V42.648C38.7718 42.8969 38.8709 43.1355 39.047 43.3114C39.2232 43.4874 39.462 43.5864 39.7111 43.5866H97.9699C98.219 43.5864 98.4578 43.4874 98.634 43.3114C98.8102 43.1355 98.9093 42.8969 98.9096 42.648V2.95576C98.9093 2.7069 98.8102 2.46831 98.634 2.29234C98.4579 2.11637 98.219 2.01738 97.9699 2.01709H39.7111Z" fill="#E6E6E6"/>
<path d="M41.0529 3.35791C40.8038 3.35819 40.565 3.45717 40.3888 3.63315C40.2126 3.80912 40.1136 4.04771 40.1133 4.29658V41.3069C40.1136 41.5558 40.2126 41.7943 40.3888 41.9703C40.565 42.1463 40.8038 42.2453 41.0529 42.2456H96.627C96.8761 42.2453 97.1149 42.1463 97.2911 41.9703C97.4672 41.7943 97.5663 41.5557 97.5666 41.3069V4.29658C97.5663 4.04772 97.4672 3.80913 97.2911 3.63316C97.1149 3.45719 96.8761 3.3582 96.627 3.35791H41.0529Z" fill="white"/>
<path opacity="0.2" d="M44.2598 34.1943L47.1989 32.0473L58.8153 30.2068L65.9532 28.3665L69.872 29.9152L75.1903 22.3854L78.8292 23.1522L84.2876 17.1711L87.0867 18.0913L93.5247 7.50928V34.1796L44.2598 34.1943Z" fill="#715AFF"/>
<path d="M44.5946 34.1275C44.5234 34.1275 44.4552 34.0992 44.4048 34.0489C44.3545 33.9986 44.3262 33.9304 44.3262 33.8593C44.3262 33.7882 44.3545 33.7199 44.4048 33.6696C44.4552 33.6193 44.5234 33.5911 44.5946 33.5911C57.0001 33.5911 68.8311 31.1098 77.9082 26.6042C86.4198 22.3793 91.8438 16.6501 92.7892 10.8856C92.7949 10.8508 92.8074 10.8175 92.826 10.7876C92.8445 10.7576 92.8688 10.7316 92.8975 10.7111C92.9261 10.6905 92.9585 10.6758 92.9929 10.6677C93.0272 10.6597 93.0628 10.6585 93.0976 10.6642C93.1324 10.6699 93.1657 10.6824 93.1957 10.7009C93.2256 10.7195 93.2517 10.7438 93.2722 10.7724C93.2928 10.801 93.3075 10.8334 93.3156 10.8677C93.3236 10.902 93.3248 10.9375 93.3191 10.9723C92.828 13.9667 91.2338 16.9041 88.5811 19.7028C85.9648 22.4631 82.4543 24.9467 78.1472 27.0846C68.9973 31.6263 57.0814 34.1275 44.5946 34.1275Z" fill="#715AFF"/>
<path d="M95.5538 34.1816H44.2754V8.87402H44.5439V33.9134H95.5538V34.1816Z" fill="#E6E6E6"/>
</g>
<path d="M123.936 10.4902C123.936 10.4902 125.235 13.5694 122.312 15.028C119.388 16.4866 130.108 19.2416 131.245 15.6762C131.245 15.6762 128.321 14.5418 129.621 11.1385L123.936 10.4902Z" fill="#FFB9B9"/>
<path d="M127.432 74.0991L127.27 77.5025L130.031 77.9887V74.5854L127.432 74.0991Z" fill="#FFB9B9"/>
<path d="M117.036 74.0991L117.199 77.5025L114.438 77.9887V74.5854L117.036 74.0991Z" fill="#FFB9B9"/>
<path d="M127.106 12.3529C129.618 12.3529 131.654 10.3212 131.654 7.8151C131.654 5.30897 129.618 3.27734 127.106 3.27734C124.595 3.27734 122.559 5.30897 122.559 7.8151C122.559 10.3212 124.595 12.3529 127.106 12.3529Z" fill="#FFB9B9"/>
<path d="M133.44 40.7148L133.277 42.0112L134.09 45.0905L135.226 42.3355L133.44 40.7148Z" fill="#FFB9B9"/>
<path d="M115.411 41.201L114.436 52.7075C114.436 52.7075 113.299 54.8143 113.949 56.597C113.949 56.597 112.975 59.028 113.299 59.8383C113.624 60.6486 113.787 61.4589 113.462 61.783C113.137 62.1072 112.975 71.1827 113.462 71.993C113.949 72.8033 114.274 74.7481 114.274 74.7481C114.274 74.7481 117.035 75.3963 117.685 73.6136C118.334 71.8309 118.009 71.6689 118.659 71.1827C119.309 70.6965 119.309 63.8898 119.309 63.8898C119.309 63.8898 118.497 63.0795 118.984 62.7554C119.471 62.4313 119.796 62.7554 119.309 61.9451C118.822 61.1348 118.009 61.1348 118.822 60.8106C119.274 60.6357 119.709 60.4186 120.121 60.1624L124.831 47.8456C124.831 47.8456 126.618 61.6209 126.942 62.2692C127.267 62.9175 127.754 62.1071 127.267 62.9174C126.78 63.7278 126.618 63.2416 126.78 63.7278C126.942 64.214 125.805 71.1827 126.455 72.6412C126.834 73.4842 127.16 74.3503 127.43 75.2342C127.43 75.2342 130.028 76.3687 130.353 75.5584C130.678 74.748 130.516 73.2895 131.003 73.1274C131.49 72.9654 131.977 72.6412 131.977 71.3447C131.977 70.0482 132.952 63.7278 132.952 63.7278C132.952 63.7278 131.815 63.2416 132.14 62.4313C132.465 61.621 132.465 61.783 132.302 61.1348C132.14 60.4865 131.815 60.3245 132.14 59.8383C132.465 59.3521 132.465 57.8935 132.465 57.8935L134.414 45.0905L132.908 40.7148L115.411 41.201Z" fill="#2F2E41"/>
<path d="M127.593 76.6932C127.593 76.6932 127.106 76.207 126.944 76.6932C126.781 77.1793 126.781 81.7171 126.781 81.7171C126.781 81.7171 128.081 82.6895 128.081 83.1757C128.081 83.6619 129.055 85.2825 131.329 84.9584C131.352 84.9551 131.374 84.9517 131.396 84.9482C131.726 84.8949 132.038 84.766 132.309 84.5716C132.579 84.3772 132.801 84.1226 132.956 83.828C133.111 83.5334 133.195 83.2069 133.202 82.8742C133.209 82.5415 133.138 82.2118 132.995 81.9111L130.679 77.0173C130.679 77.0173 129.055 75.3967 127.593 76.6932Z" fill="#2F2E41"/>
<path d="M116.873 76.6932C116.873 76.6932 117.36 76.207 117.523 76.6932C117.685 77.1793 117.685 81.7171 117.685 81.7171C117.685 81.7171 116.386 82.6895 116.386 83.1757C116.386 83.6619 115.411 85.2825 113.137 84.9584C113.115 84.9551 113.092 84.9517 113.07 84.9482C112.741 84.8949 112.428 84.766 112.158 84.5716C111.887 84.3772 111.665 84.1226 111.51 83.828C111.355 83.5334 111.271 83.2069 111.264 82.8742C111.257 82.5415 111.328 82.2118 111.471 81.9111L113.787 77.0173C113.787 77.0173 115.411 75.3967 116.873 76.6932Z" fill="#2F2E41"/>
<path d="M123.637 2.9008L122.825 2.57622C122.825 2.57622 124.524 0.709909 126.887 0.872205L126.223 0.141896C126.223 0.141896 127.848 -0.507252 129.325 1.19677C130.102 2.09254 131 3.14547 131.56 4.33158H132.43L132.067 5.12949L133.338 5.92741L132.034 5.78408C132.157 6.47295 132.115 7.18125 131.91 7.8506L131.945 8.48127C131.945 8.48127 130.433 6.14657 130.433 5.82199V6.63343C130.433 6.63343 129.62 5.90313 129.62 5.41627L129.177 5.98428L128.956 5.09168L126.223 5.98428L126.666 5.25399L124.967 5.49741L125.632 4.60482C125.632 4.60482 123.711 5.6597 123.637 6.55229C123.563 7.44487 122.603 8.58089 122.603 8.58089L122.16 7.76945C122.16 7.76945 121.495 4.11796 123.637 2.9008Z" fill="#2F2E41"/>
<path d="M134.091 17.8633H135.9C136.033 17.8632 136.162 17.9083 136.266 17.9911C136.37 18.074 136.443 18.1896 136.472 18.3191C136.751 19.5528 137.471 23.0501 137.339 25.8044C137.177 29.2077 137.502 31.6386 137.339 32.1248C137.177 32.611 137.339 32.7731 137.339 33.2593C137.339 33.7454 137.826 33.4213 137.339 34.0696C136.852 34.7178 136.852 34.5558 136.852 35.0419C136.852 35.5281 135.228 42.983 135.228 42.983C135.228 42.983 134.111 41.1518 132.883 41.5002L133.116 34.8799L133.441 32.1248L132.954 27.2629L134.091 17.8633Z" fill="#3F3D56"/>
<path d="M126.213 16.1625C126.213 16.1625 123.452 16.0624 122.558 14.897C122.558 14.897 116.793 16.8108 116.143 18.4314C115.493 20.052 118.417 27.3449 118.417 27.3449C118.417 27.3449 113.382 42.2546 115.818 42.2546C118.254 42.2546 123.776 44.1994 127.025 43.065C129.038 42.3684 131.101 41.8266 133.197 41.4443C133.197 41.4443 133.521 37.0686 133.197 36.2583C132.872 35.448 132.06 35.9342 132.547 34.7998C133.034 33.6653 132.872 33.5032 132.709 33.0171C132.547 32.5309 133.034 31.8826 133.034 31.2344C133.034 30.5861 132.872 29.1275 132.872 29.1275C132.872 29.1275 137.257 18.9176 136.283 17.9452C135.308 16.9728 130.348 15.0992 130.348 15.0992C130.348 15.0992 128.974 16.8108 126.213 16.1625Z" fill="#3F3D56"/>
<path d="M113.462 42.335C113.462 42.335 112 49.9519 114.437 49.3037C116.873 48.6554 115.736 42.335 115.736 42.335H113.462Z" fill="#FFB9B9"/>
<path d="M117.198 17.8633L116.622 18.1511C116.397 18.2631 116.202 18.4254 116.05 18.6254C115.899 18.8254 115.796 19.0576 115.75 19.3038L113.463 31.4766C113.463 31.4766 112.813 32.9351 112.813 33.0972C112.813 33.2592 113.138 33.2592 112.813 33.7454C112.488 34.2316 112.001 34.0696 112.326 34.3937C112.511 34.5619 112.627 34.793 112.651 35.0419L112.976 42.983C112.976 42.983 115.737 42.1727 116.549 42.983C116.549 42.983 115.737 40.5521 116.224 39.7418C116.711 38.9314 116.711 37.797 116.711 37.797C116.711 37.797 116.386 37.797 117.198 36.9867C118.01 36.1764 118.173 35.8523 118.01 35.6902C117.848 35.5281 117.686 34.0696 117.686 33.9075C117.686 33.7454 119.31 22.8872 119.31 22.8872L117.198 17.8633Z" fill="#3F3D56"/>
<defs>
<clipPath id="clip0">
<rect width="98.9092" height="85.0001" fill="white"/>
</clipPath>
</defs>
</svg>
