<svg width="100" height="57" viewBox="0 0 100 57" fill="none" xmlns="http://www.w3.org/2000/svg">
<path d="M70.2838 29.8188L63.9072 32.8051L69.5508 28.6294C68.6335 27.2127 67.6031 25.871 66.4694 24.6172L38.8146 31.4187L63.7947 21.9898C62.6532 20.9932 61.4409 20.0789 60.1672 19.2539L18.0279 25.9701C13.5538 31.5062 11.1148 38.383 11.1113 45.4716H74.5424C74.5399 39.9741 73.0708 34.5746 70.2838 29.8188Z" fill="#F2F2F2"/>
<path d="M56.7162 17.3156C50.3364 14.2452 43.1008 13.3784 36.1648 14.8537C29.2288 16.329 22.9924 20.0612 18.4512 25.4545C28.4134 23.2946 45.7586 19.5557 56.7162 17.3156Z" fill="#F2F2F2"/>
<path d="M50.9674 17.9209C49.8818 21.1012 48.2173 23.9989 44.8248 23.9989C41.4324 23.9989 38.8734 21.2724 38.6823 17.9209C38.438 13.6384 41.3541 11.8252 44.8248 11.8429C48.9249 11.8639 52.2557 14.1467 50.9674 17.9209Z" fill="#2F2E41"/>
<path d="M49.805 17.1128H39.7578V31.6012H49.805V17.1128Z" fill="#2F2E41"/>
<path d="M43.2827 25.4317C43.2827 25.4317 43.6041 29.9896 42.8542 30.7315C42.1044 31.4735 49.4957 32.1095 49.3886 31.2615C49.2815 30.4135 47.8889 24.9018 48.3174 23.7358C48.7459 22.5699 43.2827 25.4317 43.2827 25.4317Z" fill="#FFB8B8"/>
<path opacity="0.1" d="M43.2827 25.4317C43.2827 25.4317 43.6041 29.9896 42.8542 30.7315C42.1044 31.4735 49.4957 32.1095 49.3886 31.2615C49.2815 30.4135 47.8889 24.9018 48.3174 23.7358C48.7459 22.5699 43.2827 25.4317 43.2827 25.4317Z" fill="black"/>
<path d="M36.2125 37.0921L32.3635 49.9705L32.2092 50.4892H25.7324C28.3095 42.5957 34.6806 30.9555 34.6806 30.9555L35.6752 30.7324L36.2125 37.0921Z" fill="#715AFF"/>
<path opacity="0.1" d="M36.2125 37.0921L32.3635 49.9705L32.2092 50.4892H25.7324C28.3095 42.5957 34.6806 30.9555 34.6806 30.9555L35.6752 30.7324L36.2125 37.0921Z" fill="black"/>
<path d="M44.5685 27.0215C47.2307 27.0215 49.3889 24.886 49.3889 22.2517C49.3889 19.6174 47.2307 17.4819 44.5685 17.4819C41.9062 17.4819 39.748 19.6174 39.748 22.2517C39.748 24.886 41.9062 27.0215 44.5685 27.0215Z" fill="#FFB8B8"/>
<path d="M49.7096 29.8833C49.7096 29.8833 47.9957 31.4732 46.0675 31.1552C44.1393 30.8372 43.3298 28.5171 43.3298 28.5171L41.4613 29.8833C41.4613 29.8833 40.9257 33.6991 43.3895 34.1231C45.8532 34.5471 49.3882 34.6531 50.1381 34.1231C50.8879 33.5931 49.7096 29.8833 49.7096 29.8833Z" fill="#3F3D56"/>
<path d="M55.6001 35.4999L55.2927 36.4884L50.9528 50.4886H32.2754C32.3151 50.3176 32.3443 50.1443 32.3628 49.9698C32.6044 47.977 32.462 42.9494 32.462 42.6036C32.462 42.1787 34.2819 31.686 34.7123 30.9431C34.779 30.8533 34.8667 30.7807 34.9679 30.7318C35.4674 30.4478 36.5721 30.1297 37.763 29.849C37.7641 29.848 37.7641 29.848 37.7651 29.848C38.4307 29.6878 39.1254 29.5405 39.7554 29.4156H39.7565C40.3746 29.2929 40.9291 29.1926 41.3347 29.1264C41.5534 29.0849 41.7741 29.0546 41.996 29.0356C42.0952 29.0356 42.1675 29.152 42.2161 29.3303C42.379 29.9109 42.3164 31.1545 42.3164 31.1545C42.4611 31.3189 42.6223 31.4684 42.7975 31.6006C43.2093 31.9209 43.6611 32.1875 44.1416 32.3937C44.5536 32.5725 44.9802 32.7164 45.4167 32.8239H45.4178C45.8766 32.939 46.3436 33.0192 46.8148 33.0641C47.1988 33.1078 47.587 33.1003 47.969 33.0417H47.9712C49.1071 32.8559 49.5235 32.1578 49.7177 31.6006C49.7522 31.4992 49.7792 31.4021 49.8029 31.3135C49.8029 31.3124 49.804 31.3103 49.804 31.3092C49.8752 31.0371 49.9054 30.846 49.9809 30.8492H49.982C50.1772 30.8673 52.64 32.9563 54.2398 34.3279C54.9992 34.978 55.5634 35.469 55.5979 35.4989L55.6001 35.4999Z" fill="#715AFF"/>
<path opacity="0.1" d="M55.2946 36.4881L50.9548 50.4883H49.1953C49.3535 50.259 49.4221 49.9805 49.3884 49.7048C49.3323 49.3142 50.5545 45.3338 51.7315 41.6299C52.8016 38.2643 53.8339 35.1304 53.8339 35.1304L54.8512 35.6064C54.8512 35.6064 55.0335 35.9469 55.2946 36.4881Z" fill="black"/>
<path d="M58.3865 49.1738C58.1751 49.2261 58.1977 49.8473 58.1859 50.4888H49.873C49.9742 50.365 50.0497 50.2226 50.0952 50.0698C50.1408 49.9171 50.1554 49.757 50.1384 49.5986C50.0834 49.2239 50.9033 45.361 51.7307 41.6304C52.3811 38.68 53.037 35.8119 53.2646 34.8138C53.3207 34.5726 53.3509 34.4424 53.3509 34.4424L53.4491 34.4883L53.4512 34.4893L55.599 35.4991L55.6012 35.5002C55.6012 35.5002 58.9216 41.7552 57.8515 43.239C56.7792 44.7227 56.7792 44.7227 57.2074 45.4656C57.6357 46.2064 58.8137 49.0681 58.3865 49.1738Z" fill="#715AFF"/>
<path d="M44.8251 13.1231C46.1642 13.1231 47.2498 12.049 47.2498 10.7239C47.2498 9.39887 46.1642 8.32471 44.8251 8.32471C43.486 8.32471 42.4004 9.39887 42.4004 10.7239C42.4004 12.049 43.486 13.1231 44.8251 13.1231Z" fill="#2F2E41"/>
<path d="M41.9166 9.44414C41.9166 8.84938 42.1399 8.27585 42.5431 7.83478C42.9463 7.3937 43.5007 7.11654 44.0988 7.05704C44.019 7.0492 43.9382 7.04492 43.8563 7.04492C43.2133 7.04492 42.5965 7.2977 42.1418 7.74764C41.6871 8.19758 41.4316 8.80782 41.4316 9.44414C41.4316 10.0804 41.6871 10.6907 42.1418 11.1406C42.5965 11.5906 43.2133 11.8434 43.8563 11.8434C43.9382 11.8434 44.019 11.8391 44.0988 11.8312C43.5007 11.7717 42.9463 11.4946 42.5431 11.0535C42.1399 10.6124 41.9166 10.0389 41.9166 9.44414Z" fill="#2F2E41"/>
<path d="M43.0408 16.242C43.0408 16.242 42.9901 15.9632 41.01 16.6979C39.0299 17.4326 37.843 22.8547 38.833 26.0386C39.232 27.3217 38.9074 28.2468 38.3777 28.8941C36.3898 31.3231 37.1723 34.9714 40.0679 36.2205C40.1496 36.2557 40.233 36.2906 40.3181 36.325L41.5557 37.0598C41.5557 37.0598 39.978 35.0057 40.7675 32.3783C41.4532 30.1395 41.5378 27.7627 41.0132 25.4818C40.9226 25.097 40.8198 24.7004 40.7029 24.2956C39.7128 20.8668 40.1943 21.2628 43.6595 17.834C43.6595 17.834 45.6397 19.3035 47.3723 20.0382C49.1049 20.773 50.59 21.5077 49.3524 23.9568C48.1148 26.406 45.1446 28.6102 47.1248 31.7941C49.1049 34.978 49.3524 33.7534 49.1049 34.978L48.8574 36.2026L50.3425 34.7331L49.3524 36.6924C49.3524 36.6924 52.5701 36.6924 53.5601 34.2432L54.0552 34.7331C54.0552 34.7331 56.0353 31.3043 52.3226 28.1204C52.3226 28.1204 51.085 27.3857 52.8176 24.9365C54.5502 22.4874 53.2195 17.2217 50.9919 16.242C48.7643 15.2624 43.0408 16.242 43.0408 16.242Z" fill="#2F2E41"/>
<path d="M44.5675 31.6655L40.4434 38.7337H41.4074V39.6877L46.0946 31.6655H44.5675Z" fill="#3F3D56"/>
<path d="M98.3827 45.7925H81.6621V52.3037H98.3827V45.7925Z" fill="#F2F2F2"/>
<path d="M96.2772 54.1182H83.7637V55.1856H96.2772V54.1182Z" fill="#F2F2F2"/>
<path d="M96.2772 56.0396H83.7637V56.8935H96.2772V56.0396Z" fill="#F2F2F2"/>
<path d="M1.72447 1.70794C1.96278 1.70794 2.15597 1.51678 2.15597 1.28097C2.15597 1.04516 1.96278 0.854004 1.72447 0.854004C1.48616 0.854004 1.29297 1.04516 1.29297 1.28097C1.29297 1.51678 1.48616 1.70794 1.72447 1.70794Z" fill="#715AFF"/>
<path d="M2.91197 1.70794C3.15028 1.70794 3.34347 1.51678 3.34347 1.28097C3.34347 1.04516 3.15028 0.854004 2.91197 0.854004C2.67366 0.854004 2.48047 1.04516 2.48047 1.28097C2.48047 1.51678 2.67366 1.70794 2.91197 1.70794Z" fill="#715AFF"/>
<path d="M4.09947 1.70794C4.33778 1.70794 4.53097 1.51678 4.53097 1.28097C4.53097 1.04516 4.33778 0.854004 4.09947 0.854004C3.86116 0.854004 3.66797 1.04516 3.66797 1.28097C3.66797 1.51678 3.86116 1.70794 4.09947 1.70794Z" fill="#715AFF"/>
<path d="M100 57H0V0H100V57ZM0.21575 56.7865H99.7842V0.213483H0.21575V56.7865Z" fill="#2F2E41"/>
<path d="M99.8917 2.14404H0.107422V2.35753H99.8917V2.14404Z" fill="#2F2E41"/>
<path d="M4.52921 3.94922H1.29297V4.1627H4.52921V3.94922Z" fill="#2F2E41"/>
<path d="M4.52921 4.80322H1.29297V5.0167H4.52921V4.80322Z" fill="#2F2E41"/>
<path d="M4.52921 5.65723H1.29297V5.87071H4.52921V5.65723Z" fill="#2F2E41"/>
<path d="M68.9322 5.87057H28.8027V3.94922H68.9322V5.87057ZM29.0185 5.65709H68.7164V4.1627H29.0185V5.65709Z" fill="#2F2E41"/>
<path d="M67.3143 5.17669C67.229 5.17669 67.1455 5.15165 67.0746 5.10473C67.0036 5.05781 66.9483 4.99113 66.9157 4.91311C66.883 4.8351 66.8745 4.74925 66.8911 4.66642C66.9078 4.5836 66.9489 4.50752 67.0092 4.44781C67.0695 4.3881 67.1464 4.34743 67.2301 4.33096C67.3138 4.31448 67.4006 4.32294 67.4794 4.35526C67.5583 4.38757 67.6257 4.4423 67.6731 4.51251C67.7205 4.58273 67.7458 4.66527 67.7458 4.74972C67.7457 4.86292 67.7002 4.97145 67.6193 5.0515C67.5384 5.13154 67.4287 5.17657 67.3143 5.17669ZM67.3143 4.53624C67.2716 4.53624 67.2299 4.54876 67.1945 4.57222C67.159 4.59567 67.1313 4.62902 67.115 4.66802C67.0987 4.70703 67.0944 4.74996 67.1027 4.79137C67.111 4.83278 67.1316 4.87082 67.1618 4.90068C67.1919 4.93053 67.2304 4.95086 67.2722 4.9591C67.3141 4.96734 67.3575 4.96311 67.3969 4.94695C67.4363 4.9308 67.47 4.90343 67.4937 4.86833C67.5174 4.83322 67.5301 4.79194 67.5301 4.74972C67.53 4.69312 67.5073 4.63886 67.4668 4.59884C67.4264 4.55881 67.3715 4.5363 67.3143 4.53624Z" fill="#2F2E41"/>
<path d="M67.6112 4.90586L67.4609 5.05908L67.886 5.46713L68.0362 5.3139L67.6112 4.90586Z" fill="#2F2E41"/>
<path d="M93.095 5.87057H90.9375V3.94922H93.095V5.87057ZM91.1533 5.65709H92.8793V4.1627H91.1533V5.65709Z" fill="#2F2E41"/>
<path d="M95.7923 5.87057H93.6348V3.94922H95.7923V5.87057ZM93.8505 5.65709H95.5765V4.1627H93.8505V5.65709Z" fill="#2F2E41"/>
<path d="M98.4895 5.87057H96.332V3.94922H98.4895V5.87057ZM96.5478 5.65709H98.2738V4.1627H96.5478V5.65709Z" fill="#2F2E41"/>
<path d="M73.6781 51.7695H71.7363V53.4774H73.6781V51.7695Z" fill="#FF6584"/>
<path d="M76.3753 51.7695H74.4336V53.4774H76.3753V51.7695Z" fill="#F2F2F2"/>
<path d="M79.0726 51.7695H77.1309V53.4774H79.0726V51.7695Z" fill="#F2F2F2"/>
<path d="M78.9652 50.5954H5.39453V9.17969H78.9652V50.5954ZM5.61028 50.3819H78.7494V9.39317H5.61028V50.3819Z" fill="#2F2E41"/>
<path d="M16.5714 46.7928V47.7957L14.8878 46.779C14.8789 46.7737 14.8687 46.771 14.8583 46.7709C14.8479 46.7708 14.8377 46.7735 14.8286 46.7786C14.8196 46.7837 14.8121 46.791 14.8069 46.7999C14.8016 46.8088 14.7989 46.8189 14.7988 46.8292V49.0271C14.7989 49.0374 14.8016 49.0475 14.8069 49.0563C14.8121 49.0652 14.8196 49.0726 14.8286 49.0777C14.8377 49.0828 14.8479 49.0854 14.8583 49.0854C14.8687 49.0853 14.8789 49.0825 14.8878 49.0773L16.5714 48.0606V49.0635C16.5714 49.0712 16.5745 49.0786 16.5801 49.084C16.5856 49.0895 16.593 49.0926 16.6008 49.0926H17.123C17.1308 49.0926 17.1383 49.0895 17.1438 49.084C17.1493 49.0786 17.1524 49.0712 17.1525 49.0635V46.7928C17.1524 46.7851 17.1493 46.7777 17.1438 46.7722C17.1383 46.7668 17.1308 46.7637 17.123 46.7637H16.6008C16.593 46.7637 16.5856 46.7668 16.5801 46.7722C16.5745 46.7777 16.5714 46.7851 16.5714 46.7928Z" fill="#3F3D56"/>
<path d="M12.0816 49.0926H11.6123C11.6045 49.0926 11.5968 49.0912 11.5896 49.0883C11.5824 49.0854 11.5759 49.0811 11.5703 49.0757C11.5648 49.0703 11.5604 49.0638 11.5574 49.0568C11.5544 49.0497 11.5528 49.0421 11.5527 49.0344V46.8219C11.5528 46.8142 11.5544 46.8066 11.5574 46.7995C11.5604 46.7924 11.5648 46.786 11.5703 46.7806C11.5759 46.7752 11.5824 46.7709 11.5896 46.768C11.5968 46.7651 11.6045 46.7636 11.6123 46.7637H12.0816C12.0893 46.7636 12.0971 46.7651 12.1043 46.768C12.1115 46.7709 12.118 46.7752 12.1236 46.7806C12.1291 46.786 12.1335 46.7924 12.1365 46.7995C12.1395 46.8066 12.1411 46.8142 12.1411 46.8219V49.0344C12.1411 49.0421 12.1395 49.0497 12.1365 49.0568C12.1335 49.0638 12.1291 49.0703 12.1236 49.0757C12.118 49.0811 12.1115 49.0854 12.1043 49.0883C12.0971 49.0912 12.0893 49.0926 12.0816 49.0926ZM13.3761 49.0926H12.9068C12.899 49.0926 12.8913 49.0912 12.8841 49.0883C12.8769 49.0854 12.8704 49.0811 12.8648 49.0757C12.8593 49.0703 12.8549 49.0638 12.8519 49.0568C12.8489 49.0497 12.8473 49.0421 12.8472 49.0344V46.8219C12.8473 46.8142 12.8489 46.8066 12.8519 46.7995C12.8549 46.7924 12.8593 46.786 12.8648 46.7806C12.8704 46.7752 12.8769 46.7709 12.8841 46.768C12.8913 46.7651 12.899 46.7636 12.9068 46.7637H13.3761C13.3838 46.7636 13.3916 46.7651 13.3988 46.768C13.406 46.7709 13.4125 46.7752 13.4181 46.7806C13.4236 46.786 13.428 46.7924 13.431 46.7995C13.434 46.8066 13.4356 46.8142 13.4356 46.8219V49.0344C13.4356 49.0421 13.434 49.0497 13.431 49.0568C13.428 49.0638 13.4236 49.0703 13.4181 49.0757C13.4125 49.0811 13.406 49.0854 13.3988 49.0883C13.3916 49.0912 13.3838 49.0926 13.3761 49.0926Z" fill="#3F3D56"/>
<path d="M8.52158 46.8238V49.0319C8.52101 49.0422 8.52324 49.0523 8.52804 49.0614C8.53284 49.0705 8.54003 49.0781 8.54884 49.0835C8.55766 49.0889 8.56777 49.0918 8.57812 49.0919C8.58847 49.0921 8.59867 49.0894 8.60764 49.0843L10.3765 47.9803C10.3852 47.9746 10.3923 47.9668 10.3972 47.9578C10.4021 47.9487 10.4047 47.9385 10.4047 47.9282C10.4047 47.9179 10.4021 47.9078 10.3972 47.8987C10.3923 47.8897 10.3852 47.8819 10.3765 47.8762L8.60764 46.7722C8.59876 46.7669 8.58859 46.7641 8.57823 46.7642C8.56788 46.7642 8.55773 46.767 8.54888 46.7723C8.54002 46.7776 8.53281 46.7852 8.528 46.7943C8.52319 46.8034 8.52097 46.8136 8.52158 46.8238Z" fill="#715AFF"/>
<path d="M75.4592 45.2588H8.90039V45.6858H75.4592V45.2588Z" fill="#2F2E41"/>
<path d="M20.4969 45.2588H8.90039V45.6858H20.4969V45.2588Z" fill="#715AFF"/>
<path d="M36.0305 51.9834H5.50195V53.1576H36.0305V51.9834Z" fill="#F2F2F2"/>
<path d="M12.1902 54.6519H5.50195V55.826H12.1902V54.6519Z" fill="#F2F2F2"/>
<path d="M98.3827 11.4214H81.6621V17.9326H98.3827V11.4214Z" fill="#F2F2F2"/>
<path d="M96.2772 19.7476H83.7637V20.815H96.2772V19.7476Z" fill="#F2F2F2"/>
<path d="M96.2772 21.6685H83.7637V22.7359H96.2772V21.6685Z" fill="#F2F2F2"/>
<path d="M96.2772 23.5898H83.7637V24.6573H96.2772V23.5898Z" fill="#F2F2F2"/>
<path d="M98.3827 28.6069H81.6621V35.1182H98.3827V28.6069Z" fill="#F2F2F2"/>
<path d="M96.2772 36.9326H83.7637V38H96.2772V36.9326Z" fill="#F2F2F2"/>
<path d="M96.2772 38.8535H83.7637V39.9209H96.2772V38.8535Z" fill="#F2F2F2"/>
<path d="M96.2772 40.7749H83.7637V41.8423H96.2772V40.7749Z" fill="#F2F2F2"/>
<path d="M71.3989 45.4539L71.1763 45.2875C70.3845 44.6852 69.8624 44.2949 69.8148 43.7565C69.8039 43.6543 69.8139 43.5509 69.8441 43.4525C69.8744 43.3541 69.9242 43.2627 69.9908 43.1837C70.0574 43.1048 70.1393 43.0398 70.2317 42.9927C70.324 42.9456 70.425 42.9173 70.5287 42.9095C70.6509 42.8996 70.7738 42.9161 70.889 42.9579C71.0041 42.9997 71.1087 43.0658 71.1954 43.1516C71.2657 43.0522 71.3571 42.9692 71.4632 42.9082C71.5692 42.8473 71.6874 42.8099 71.8095 42.7987C71.9129 42.7885 72.0174 42.799 72.1166 42.8295C72.2158 42.86 72.3079 42.9099 72.3873 42.9763C72.4667 43.0426 72.5319 43.1241 72.5789 43.2158C72.6259 43.3074 72.6539 43.4076 72.6612 43.5101C72.7087 44.0485 72.2631 44.5225 71.589 45.2518L71.3989 45.4539Z" fill="#FF6584"/>
<path d="M74.0341 42.7095L73.912 42.4612C73.483 41.5688 73.1969 40.9865 73.4016 40.4855C73.4388 40.3895 73.4951 40.3018 73.5672 40.2277C73.6393 40.1537 73.7257 40.0947 73.8212 40.0542C73.9167 40.0137 74.0195 39.9926 74.1234 39.9922C74.2274 39.9917 74.3303 40.0119 74.4262 40.0515C74.5397 40.0976 74.6417 40.1676 74.7251 40.2565C74.8085 40.3455 74.8713 40.4514 74.9092 40.5668C75.0175 40.5098 75.137 40.4769 75.2594 40.4702C75.3819 40.4636 75.5044 40.4834 75.6183 40.5282C75.7151 40.5657 75.8033 40.6219 75.8777 40.6937C75.9522 40.7655 76.0113 40.8513 76.0516 40.9461C76.0919 41.0409 76.1126 41.1427 76.1124 41.2455C76.1122 41.3483 76.0912 41.4501 76.0506 41.5448C75.846 42.0458 75.2314 42.2679 74.2962 42.6148L74.0341 42.7095Z" fill="#FF6584"/>
<path d="M72.954 49.8614L72.8319 49.6131C72.4029 48.7206 72.1168 48.1383 72.3215 47.6373C72.3587 47.5413 72.415 47.4537 72.4871 47.3796C72.5592 47.3055 72.6456 47.2465 72.7411 47.206C72.8367 47.1656 72.9394 47.1445 73.0434 47.1441C73.1473 47.1436 73.2503 47.1638 73.3462 47.2034C73.4596 47.2495 73.5616 47.3194 73.645 47.4084C73.7284 47.4974 73.7912 47.6032 73.8291 47.7187C73.9374 47.6617 74.0569 47.6287 74.1794 47.6221C74.3018 47.6154 74.4243 47.6352 74.5382 47.6801C74.635 47.7175 74.7232 47.7738 74.7977 47.8456C74.8721 47.9173 74.9312 48.0032 74.9715 48.0979C75.0118 48.1927 75.0325 48.2945 75.0323 48.3974C75.0322 48.5002 75.0112 48.602 74.9705 48.6966C74.7659 49.1977 74.1513 49.4198 73.2161 49.7667L72.954 49.8614Z" fill="#FF6584"/>
</svg>
