<svg width="137" height="84" viewBox="0 0 137 84" fill="none" xmlns="http://www.w3.org/2000/svg">
<g clip-path="url(#clip0)">
<path d="M1.47591 55.1378H96.8371C97.2283 55.1373 97.6033 54.9826 97.8799 54.7074C98.1565 54.4322 98.3121 54.0591 98.3125 53.6699V1.46789C98.3121 1.07872 98.1565 0.705608 97.8799 0.43042C97.6033 0.155233 97.2283 0.000439451 96.8371 0H1.47591C1.08476 0.000439451 0.709755 0.155233 0.433167 0.43042C0.156578 0.705608 0.00100708 1.07872 0.000564575 1.46789V53.6699C0.00100708 54.0591 0.156578 54.4322 0.433167 54.7074C0.709755 54.9826 1.08476 55.1373 1.47591 55.1378Z" fill="#E6E6E6"/>
<path d="M3.48786 53.1359H94.8254C95.2166 53.1355 95.5916 52.9807 95.8682 52.7055C96.1448 52.4303 96.3003 52.0572 96.3008 51.668V3.46936C96.3003 3.08018 96.1448 2.70708 95.8682 2.43189C95.5916 2.1567 95.2166 2.0019 94.8254 2.00146H3.48786C3.09671 2.0019 2.7217 2.1567 2.44511 2.43189C2.16853 2.70708 2.01295 3.08018 2.01251 3.46936V51.668C2.01295 52.0572 2.16853 52.4303 2.44511 52.7055C2.7217 52.9807 3.09671 53.1355 3.48786 53.1359Z" fill="white"/>
<path d="M69.2663 31.7411H86.45C86.6399 31.7409 86.8218 31.6658 86.9561 31.5323C87.0903 31.3987 87.1658 31.2176 87.166 31.0288V13.2231C87.1658 13.0342 87.0903 12.8532 86.9561 12.7196C86.8218 12.5861 86.6399 12.511 86.45 12.5107H69.2663C69.0765 12.511 68.8945 12.5861 68.7603 12.7196C68.6261 12.8532 68.5506 13.0342 68.5503 13.2231V31.0288C68.5506 31.2176 68.6261 31.3987 68.7603 31.5323C68.8945 31.6658 69.0765 31.7409 69.2663 31.7411ZM86.45 12.7957C86.5639 12.7958 86.6731 12.8409 86.7537 12.921C86.8342 13.0011 86.8795 13.1098 86.8796 13.2231V31.0288C86.8795 31.1421 86.8342 31.2507 86.7537 31.3309C86.6731 31.411 86.5639 31.4561 86.45 31.4562H69.2663C69.1524 31.4561 69.0432 31.411 68.9627 31.3309C68.8821 31.2507 68.8368 31.1421 68.8367 31.0288V13.2231C68.8368 13.1098 68.8821 13.0011 68.9627 12.921C69.0432 12.8409 69.1524 12.7958 69.2663 12.7957H86.45Z" fill="#3F3D56"/>
<path d="M40.5652 31.7411H57.7489C57.9387 31.7409 58.1207 31.6658 58.2549 31.5323C58.3891 31.3987 58.4646 31.2176 58.4648 31.0288V13.2231C58.4646 13.0342 58.3891 12.8532 58.2549 12.7196C58.1207 12.5861 57.9387 12.511 57.7489 12.5107H40.5652C40.3753 12.511 40.1934 12.5861 40.0591 12.7196C39.9249 12.8532 39.8494 13.0342 39.8492 13.2231V31.0288C39.8494 31.2176 39.9249 31.3987 40.0591 31.5323C40.1934 31.6658 40.3753 31.7409 40.5652 31.7411ZM57.7489 12.7957C57.8628 12.7958 57.972 12.8409 58.0525 12.921C58.133 13.0011 58.1783 13.1098 58.1785 13.2231V31.0288C58.1783 31.1421 58.133 31.2507 58.0525 31.3309C57.972 31.411 57.8628 31.4561 57.7489 31.4562H40.5652C40.4513 31.4561 40.3421 31.411 40.2615 31.3309C40.181 31.2507 40.1357 31.1421 40.1356 31.0288V13.2231C40.1357 13.1098 40.181 13.0011 40.2615 12.921C40.3421 12.8409 40.4513 12.7958 40.5652 12.7957H57.7489Z" fill="#3F3D56"/>
<path d="M11.862 31.7411H29.0457C29.2356 31.7409 29.4175 31.6658 29.5518 31.5323C29.686 31.3987 29.7615 31.2176 29.7617 31.0288V13.2231C29.7615 13.0342 29.686 12.8532 29.5518 12.7196C29.4175 12.5861 29.2356 12.511 29.0457 12.5107H11.862C11.6722 12.511 11.4902 12.5861 11.356 12.7196C11.2218 12.8532 11.1462 13.0342 11.146 13.2231V31.0288C11.1462 31.2176 11.2218 31.3987 11.356 31.5323C11.4902 31.6658 11.6722 31.7409 11.862 31.7411ZM29.0457 12.7957C29.1596 12.7958 29.2688 12.8409 29.3494 12.921C29.4299 13.0011 29.4752 13.1098 29.4753 13.2231V31.0288C29.4752 31.1421 29.4299 31.2507 29.3494 31.3309C29.2688 31.411 29.1596 31.4561 29.0457 31.4562H11.862C11.7481 31.4561 11.6389 31.411 11.5584 31.3309C11.4778 31.2507 11.4325 31.1421 11.4324 31.0288V13.2231C11.4325 13.1098 11.4778 13.0011 11.5584 12.921C11.6389 12.8409 11.7481 12.7958 11.862 12.7957H29.0457Z" fill="#3F3D56"/>
<path d="M81.1757 42.6269C81.1118 42.627 81.0485 42.6146 80.9894 42.5904C80.9303 42.5661 80.8766 42.5305 80.8314 42.4856C80.7862 42.4407 80.7503 42.3873 80.7258 42.3286C80.7013 42.2698 80.6887 42.2069 80.6887 42.1433C80.6887 42.0797 80.7013 42.0168 80.7258 41.958C80.7503 41.8993 80.7862 41.8459 80.8314 41.801C80.8766 41.7561 80.9303 41.7205 80.9894 41.6962C81.0485 41.672 81.1118 41.6596 81.1757 41.6597H85.5374C85.6663 41.6597 85.7899 41.7106 85.8811 41.8013C85.9722 41.892 86.0234 42.015 86.0234 42.1433C86.0234 42.2716 85.9722 42.3946 85.8811 42.4853C85.7899 42.576 85.6663 42.6269 85.5374 42.6269H81.1757Z" fill="#E6E6E6"/>
<path d="M70.1776 39.7778C70.0487 39.7778 69.9251 39.7269 69.8339 39.6362C69.7427 39.5455 69.6915 39.4224 69.6915 39.2942C69.6915 39.1659 69.7427 39.0429 69.8339 38.9522C69.9251 38.8615 70.0487 38.8105 70.1776 38.8105H85.5374C85.6663 38.8105 85.7899 38.8615 85.8811 38.9522C85.9722 39.0429 86.0234 39.1659 86.0234 39.2942C86.0234 39.4224 85.9722 39.5455 85.8811 39.6362C85.7899 39.7269 85.6663 39.7778 85.5374 39.7778H70.1776Z" fill="#E6E6E6"/>
<path d="M52.4745 42.6269C52.3457 42.6267 52.2223 42.5757 52.1313 42.485C52.0404 42.3943 51.9893 42.2714 51.9893 42.1433C51.9893 42.0152 52.0404 41.8923 52.1313 41.8016C52.2223 41.7109 52.3457 41.6599 52.4745 41.6597H56.8362C56.9651 41.6597 57.0887 41.7106 57.1799 41.8013C57.2711 41.892 57.3223 42.015 57.3223 42.1433C57.3223 42.2716 57.2711 42.3946 57.1799 42.4853C57.0887 42.576 56.9651 42.6269 56.8362 42.6269H52.4745Z" fill="#E6E6E6"/>
<path d="M41.4764 39.7778C41.3475 39.7778 41.2239 39.7269 41.1327 39.6362C41.0416 39.5455 40.9904 39.4224 40.9904 39.2942C40.9904 39.1659 41.0416 39.0429 41.1327 38.9522C41.2239 38.8615 41.3475 38.8105 41.4764 38.8105H56.8362C56.9651 38.8105 57.0887 38.8615 57.1799 38.9522C57.2711 39.0429 57.3223 39.1659 57.3223 39.2942C57.3223 39.4224 57.2711 39.5455 57.1799 39.6362C57.0887 39.7269 56.9651 39.7778 56.8362 39.7778H41.4764Z" fill="#E6E6E6"/>
<path d="M23.7725 42.6269C23.6437 42.6267 23.5203 42.5757 23.4293 42.485C23.3383 42.3943 23.2872 42.2714 23.2872 42.1433C23.2872 42.0152 23.3383 41.8923 23.4293 41.8016C23.5203 41.7109 23.6437 41.6599 23.7725 41.6597H28.1342C28.1981 41.6596 28.2614 41.672 28.3204 41.6962C28.3795 41.7205 28.4332 41.7561 28.4784 41.801C28.5237 41.8459 28.5595 41.8993 28.584 41.958C28.6085 42.0168 28.6211 42.0797 28.6211 42.1433C28.6211 42.2069 28.6085 42.2698 28.584 42.3286C28.5595 42.3873 28.5237 42.4407 28.4784 42.4856C28.4332 42.5305 28.3795 42.5661 28.3204 42.5904C28.2614 42.6146 28.1981 42.627 28.1342 42.6269H23.7725Z" fill="#E6E6E6"/>
<path d="M12.7733 39.7778C12.6444 39.7778 12.5208 39.7269 12.4296 39.6362C12.3384 39.5455 12.2872 39.4224 12.2872 39.2942C12.2872 39.1659 12.3384 39.0429 12.4296 38.9522C12.5208 38.8615 12.6444 38.8105 12.7733 38.8105H28.1331C28.262 38.8105 28.3856 38.8615 28.4768 38.9522C28.5679 39.0429 28.6191 39.1659 28.6191 39.2942C28.6191 39.4224 28.5679 39.5455 28.4768 39.6362C28.3856 39.7269 28.262 39.7778 28.1331 39.7778H12.7733Z" fill="#E6E6E6"/>
<path d="M70.1776 36.9751C70.1137 36.9752 70.0504 36.9628 69.9913 36.9385C69.9323 36.9142 69.8786 36.8786 69.8333 36.8337C69.7881 36.7888 69.7522 36.7354 69.7278 36.6767C69.7033 36.618 69.6907 36.555 69.6907 36.4914C69.6907 36.4279 69.7033 36.3649 69.7278 36.3062C69.7522 36.2474 69.7881 36.1941 69.8333 36.1492C69.8786 36.1042 69.9323 36.0686 69.9913 36.0444C70.0504 36.0201 70.1137 36.0077 70.1776 36.0078H85.5374C85.6663 36.0078 85.7899 36.0588 85.8811 36.1495C85.9722 36.2402 86.0234 36.3632 86.0234 36.4914C86.0234 36.6197 85.9722 36.7427 85.8811 36.8334C85.7899 36.9241 85.6663 36.9751 85.5374 36.9751H70.1776Z" fill="#715AFF"/>
<path d="M41.4764 36.9751C41.3477 36.9748 41.2242 36.9238 41.1333 36.8331C41.0423 36.7424 40.9912 36.6196 40.9912 36.4914C40.9912 36.3633 41.0423 36.2404 41.1333 36.1498C41.2242 36.0591 41.3477 36.008 41.4764 36.0078H56.8362C56.9651 36.0078 57.0887 36.0588 57.1799 36.1495C57.2711 36.2402 57.3223 36.3632 57.3223 36.4914C57.3223 36.6197 57.2711 36.7427 57.1799 36.8334C57.0887 36.9241 56.9651 36.9751 56.8362 36.9751H41.4764Z" fill="#715AFF"/>
<path d="M12.7744 36.9751C12.6455 36.9751 12.5219 36.9241 12.4307 36.8334C12.3395 36.7427 12.2883 36.6197 12.2883 36.4914C12.2883 36.3632 12.3395 36.2402 12.4307 36.1495C12.5219 36.0588 12.6455 36.0078 12.7744 36.0078H28.1342C28.1981 36.0077 28.2614 36.0201 28.3204 36.0444C28.3795 36.0686 28.4332 36.1042 28.4784 36.1492C28.5237 36.1941 28.5595 36.2474 28.584 36.3062C28.6085 36.3649 28.6211 36.4279 28.6211 36.4914C28.6211 36.555 28.6085 36.618 28.584 36.6767C28.5595 36.7354 28.5237 36.7888 28.4784 36.8337C28.4332 36.8786 28.3795 36.9142 28.3204 36.9385C28.2614 36.9628 28.1981 36.9752 28.1342 36.9751H12.7744Z" fill="#715AFF"/>
<path d="M72.9286 28.2905C72.7997 28.2905 72.676 28.2396 72.5849 28.1489C72.4937 28.0582 72.4425 27.9352 72.4425 27.8069C72.4425 27.6786 72.4937 27.5556 72.5849 27.4649C72.676 27.3742 72.7997 27.3232 72.9286 27.3232H82.7893C82.9182 27.3232 83.0419 27.3742 83.133 27.4649C83.2242 27.5556 83.2754 27.6786 83.2754 27.8069C83.2754 27.9352 83.2242 28.0582 83.133 28.1489C83.0419 28.2396 82.9182 28.2905 82.7893 28.2905H72.9286Z" fill="#E6E6E6"/>
<path d="M72.9286 25.4409C72.7997 25.4409 72.676 25.3899 72.5849 25.2992C72.4937 25.2085 72.4425 25.0855 72.4425 24.9573C72.4425 24.829 72.4937 24.706 72.5849 24.6153C72.676 24.5246 72.7997 24.4736 72.9286 24.4736H82.7893C82.9182 24.4736 83.0419 24.5246 83.133 24.6153C83.2242 24.706 83.2754 24.829 83.2754 24.9573C83.2754 25.0855 83.2242 25.2085 83.133 25.2992C83.0419 25.3899 82.9182 25.4409 82.7893 25.4409H72.9286Z" fill="#E6E6E6"/>
<path d="M77.8585 22.0999C76.1548 22.0999 74.7737 20.7257 74.7737 19.0307C74.7737 17.3356 76.1548 15.9614 77.8585 15.9614C79.5622 15.9614 80.9434 17.3356 80.9434 19.0307C80.9434 20.7257 79.5622 22.0999 77.8585 22.0999Z" fill="#715AFF"/>
<path d="M44.2255 28.2905C44.0966 28.2905 43.9729 28.2396 43.8817 28.1489C43.7906 28.0582 43.7394 27.9352 43.7394 27.8069C43.7394 27.6786 43.7906 27.5556 43.8817 27.4649C43.9729 27.3742 44.0966 27.3232 44.2255 27.3232H54.0862C54.2151 27.3232 54.3387 27.3742 54.4299 27.4649C54.521 27.5556 54.5723 27.6786 54.5723 27.8069C54.5723 27.9352 54.521 28.0582 54.4299 28.1489C54.3387 28.2396 54.2151 28.2905 54.0862 28.2905H44.2255Z" fill="#E6E6E6"/>
<path d="M44.2255 25.4409C44.0966 25.4409 43.9729 25.3899 43.8817 25.2992C43.7906 25.2085 43.7394 25.0855 43.7394 24.9573C43.7394 24.829 43.7906 24.706 43.8817 24.6153C43.9729 24.5246 44.0966 24.4736 44.2255 24.4736H54.0862C54.2151 24.4736 54.3387 24.5246 54.4299 24.6153C54.521 24.706 54.5723 24.829 54.5723 24.9573C54.5723 25.0855 54.521 25.2085 54.4299 25.2992C54.3387 25.3899 54.2151 25.4409 54.0862 25.4409H44.2255Z" fill="#E6E6E6"/>
<path d="M49.1554 22.0999C47.4517 22.0999 46.0706 20.7257 46.0706 19.0307C46.0706 17.3356 47.4517 15.9614 49.1554 15.9614C50.8591 15.9614 52.2402 17.3356 52.2402 19.0307C52.2402 20.7257 50.8591 22.0999 49.1554 22.0999Z" fill="#715AFF"/>
<path d="M15.5224 28.2905C15.3934 28.2905 15.2698 28.2396 15.1786 28.1489C15.0875 28.0582 15.0363 27.9352 15.0363 27.8069C15.0363 27.6786 15.0875 27.5556 15.1786 27.4649C15.2698 27.3742 15.3934 27.3232 15.5224 27.3232H25.383C25.512 27.3232 25.6356 27.3742 25.7268 27.4649C25.8179 27.5556 25.8691 27.6786 25.8691 27.8069C25.8691 27.9352 25.8179 28.0582 25.7268 28.1489C25.6356 28.2396 25.512 28.2905 25.383 28.2905H15.5224Z" fill="#E6E6E6"/>
<path d="M15.5224 25.4409C15.3934 25.4409 15.2698 25.3899 15.1786 25.2992C15.0875 25.2085 15.0363 25.0855 15.0363 24.9573C15.0363 24.829 15.0875 24.706 15.1786 24.6153C15.2698 24.5246 15.3934 24.4736 15.5224 24.4736H25.383C25.512 24.4736 25.6356 24.5246 25.7268 24.6153C25.8179 24.706 25.8691 24.829 25.8691 24.9573C25.8691 25.0855 25.8179 25.2085 25.7268 25.2992C25.6356 25.3899 25.512 25.4409 25.383 25.4409H15.5224Z" fill="#E6E6E6"/>
<path d="M20.4542 22.0999C18.7505 22.0999 17.3694 20.7257 17.3694 19.0307C17.3694 17.3356 18.7505 15.9614 20.4542 15.9614C22.1579 15.9614 23.5391 17.3356 23.5391 19.0307C23.5391 20.7257 22.1579 22.0999 20.4542 22.0999Z" fill="#715AFF"/>
<path d="M114.082 71.3188L112.429 72.2157L113.481 75.6538L115.134 75.8033L116.035 73.86L114.082 71.3188Z" fill="#FFB9B9"/>
<path d="M119.19 78.1948V79.839L121.744 79.6896L121.709 78.3354L119.19 78.1948Z" fill="#FFB9B9"/>
<path d="M113.481 51.5874L114.382 62.7986L117.237 79.2415L121.744 78.6436L120.242 65.6387L120.843 53.6802L113.481 51.5874Z" fill="#2F2E41"/>
<path d="M125.5 43.2163L114.682 43.3658L113.48 51.5873L120.842 55.0254L122.645 61.6026L113.48 71.3189L117.086 75.8033C117.086 75.8033 122.194 68.9272 125.95 65.0406C129.706 61.1541 127.903 49.3451 127.903 49.3451L125.5 43.2163Z" fill="#2F2E41"/>
<path d="M119.04 21.9893C117.215 21.9893 115.735 20.5169 115.735 18.7007C115.735 16.8845 117.215 15.4121 119.04 15.4121C120.866 15.4121 122.346 16.8845 122.346 18.7007C122.346 20.5169 120.866 21.9893 119.04 21.9893Z" fill="#FFB9B9"/>
<path d="M117.838 20.9436V24.2322L120.091 27.8197C120.091 27.8197 123.547 25.2785 122.795 24.6806C122.044 24.0827 121.894 19.4487 121.894 19.4487L117.838 20.9436Z" fill="#FFB9B9"/>
<path d="M117.839 23.634L115.585 26.3246L116.487 45.0098L123.548 44.8603L124.75 28.5669L123.248 24.3814L122.217 22.9863L120.393 25.7267L117.839 23.634Z" fill="white"/>
<path d="M114.232 33.3507L112.58 39.6289L114.232 45.9072L111.528 49.4947L109.124 38.1341C109.124 38.1341 110.927 28.8663 111.077 27.8199C111.228 26.7735 111.528 26.624 111.528 26.624L112.73 26.7735L114.232 33.3507Z" fill="#2F2E41"/>
<path d="M126.251 35.7419L127.303 37.6853L127.603 40.9739L127.002 44.7109L129.106 48.149L131.209 38.7316L128.955 26.6235H128.054L126.251 35.7419Z" fill="#2F2E41"/>
<path d="M113.481 71.1694C113.481 71.1694 111.377 71.7674 110.626 71.9168C109.875 72.0663 111.077 74.9065 111.077 74.9065C111.077 74.9065 111.828 78.793 111.978 79.5404C112.128 80.2878 113.18 82.829 114.532 83.128C115.884 83.4269 114.983 77.8961 114.983 77.8961C114.983 77.8961 115.584 76.1023 115.584 75.5044C115.584 74.9065 114.683 75.2054 114.683 75.2054C112.279 74.9065 113.481 71.1694 113.481 71.1694Z" fill="#2F2E41"/>
<path d="M118.439 82.679C118.589 83.5759 118.289 83.5759 120.693 83.8749C123.097 84.1738 122.496 82.2305 122.496 82.2305C122.395 81.3144 122.194 80.4121 121.895 79.5399C121.444 78.344 119.04 79.8388 119.04 79.8388C119.04 79.8388 118.289 81.7821 118.439 82.679Z" fill="#2F2E41"/>
<path d="M121.899 19.553L121.977 20.8824C121.977 20.8824 122.947 18.7011 123.097 16.4589C123.247 14.2167 120.693 13.7683 119.191 13.6188C117.688 13.4693 115.134 14.5157 115.134 15.7115C115.134 16.9074 117.839 16.6084 118.89 16.3094C119.942 16.0105 120.393 18.5517 120.393 18.5517L120.994 18.7012L121.899 19.553Z" fill="#2F2E41"/>
<path d="M116.952 24.6928L117.839 23.6343L120.393 25.727L117.839 27.5208L116.952 24.6928Z" fill="white"/>
<path d="M123.248 24.3814L122.196 23.0361L120.393 25.7267L122.647 27.3711L123.248 24.3814Z" fill="white"/>
<path d="M113.781 35.4429L114.382 41.1233L113.18 44.5613L112.429 47.8499C112.429 47.8499 112.429 50.9891 115.434 51.1385C118.439 51.288 120.993 41.7212 120.993 41.7212C120.993 41.7212 121.444 43.8139 121.744 45.0098C122.045 46.2056 127.153 50.9891 127.153 50.9891C127.153 50.9891 128.355 50.8396 129.406 48.4479C130.458 46.0562 127.303 43.8139 127.303 43.8139L126.402 40.6748L126.702 36.7883L128.806 26.6235L122.57 23.4097L123.247 32.0049L120.993 38.7315L117.613 23.8581L116.486 24.6803L111.678 26.6235L113.781 35.4429Z" fill="#2F2E41"/>
<path d="M98.6318 83.9999H137V83.688H98.575L98.6318 83.9999Z" fill="#3F3D56"/>
</g>
<defs>
<clipPath id="clip0">
<rect width="137" height="84" fill="white" transform="matrix(-1 0 0 1 137 0)"/>
</clipPath>
</defs>
</svg>
