<svg width="90" height="74" viewBox="0 0 90 74" fill="none" xmlns="http://www.w3.org/2000/svg">
<g clip-path="url(#clip0)">
<path opacity="0.1" d="M87.8114 42.8991C87.8114 42.9553 87.8114 43.0115 87.8114 43.0668C87.8017 44.0362 87.7446 45.0032 87.6402 45.9677C87.6407 45.9735 87.6407 45.9794 87.6402 45.9852C87.632 46.0654 87.6228 46.1446 87.6136 46.2248C87.5981 46.3603 87.5816 46.4948 87.5633 46.6303C87.3498 48.2792 86.9966 49.9066 86.5075 51.4949C85.8523 53.6412 84.926 55.6939 83.7514 57.6027C83.39 58.1863 83.0051 58.7512 82.5967 59.2974C82.3788 59.5867 82.1563 59.8696 81.9264 60.1479C81.7653 60.3427 81.6011 60.5343 81.4338 60.7229L81.3294 60.839C80.4493 61.8115 79.5007 62.7188 78.4908 63.5538C76.8426 64.9287 75.0681 66.1248 73.2651 67.2343C73.1626 67.2979 73.0591 67.3606 72.9556 67.4186C72.9484 67.4239 72.9408 67.4285 72.9327 67.4324C70.4824 68.9234 67.9414 70.2688 65.3235 71.3461C62.4575 72.5284 59.4981 73.3882 56.4617 73.7641C52.2295 74.2876 47.946 73.8618 43.7394 73.1301C40.2409 72.5252 36.7848 71.6941 33.3924 70.6421L32.8339 70.466C32.5445 70.3733 32.2555 70.2787 31.9667 70.1822C30.2227 69.6017 28.4982 68.9566 26.7932 68.2471C22.5111 66.4721 18.4203 64.2616 14.5846 61.65C14.0963 61.3195 13.6149 60.9816 13.1406 60.6363C12.4777 60.1559 11.8227 59.6614 11.1756 59.1527L10.7764 58.8412C9.08296 57.5068 7.49642 56.0404 6.03137 54.4557C4.06085 52.2976 2.37694 49.8629 1.2699 47.0837C1.09531 46.6469 0.935375 46.2018 0.790089 45.7484L0.776354 45.7032C0.703101 45.4729 0.635341 45.2425 0.573076 45.0029C0.481509 44.6601 0.401236 44.313 0.332256 43.9616C0.317605 43.8943 0.304786 43.8271 0.292882 43.7589C0.0740271 42.5763 -0.0226329 41.374 0.00444667 40.1714C0.027348 39.1177 0.149991 38.0686 0.370713 37.0383C0.596628 35.9702 0.944767 34.9322 1.40816 33.9448C1.82694 33.0569 2.36051 32.2287 2.99501 31.4816C3.44088 30.9593 3.9423 30.4877 4.4903 30.0754C5.4838 29.3308 6.58535 28.812 7.72718 28.4019C8.26376 28.2084 8.80767 28.0388 9.35432 27.8812C9.74165 27.7688 10.1308 27.6619 10.5181 27.5569L11.6609 27.2463C12.3934 27.0454 13.126 26.839 13.8475 26.616C15.8144 26.0115 17.7418 25.2798 19.5246 24.1888C19.8067 24.0164 20.0942 23.8275 20.3817 23.6248C20.748 23.3686 21.1087 23.0903 21.4659 22.7899C21.8266 22.4858 22.1801 22.1605 22.517 21.8159C22.5692 21.7624 22.6205 21.709 22.6718 21.6546C22.9465 21.3634 23.2129 21.0584 23.4602 20.7414C23.581 20.5866 23.6982 20.429 23.81 20.2687C23.9647 20.0466 24.1112 19.8208 24.2467 19.5886C24.9262 18.4275 25.3455 17.1466 25.2961 15.7966C25.2889 15.5741 25.269 15.3523 25.2366 15.1322C25.1175 14.3185 25.0031 13.5241 24.9188 12.7473C24.5654 9.53399 24.7146 6.62017 27.1109 3.88237C30.0905 0.479232 34.7668 -0.214665 39.0238 0.0571802C51.3312 0.840463 62.5353 7.91213 72.3815 16.331C73.2331 17.0584 74.0743 17.7956 74.9051 18.5427C75.1145 18.7307 75.3242 18.9199 75.5341 19.1103C77.0908 20.5211 78.6236 21.9845 80.0511 23.552C80.1665 23.6792 80.2819 23.8063 80.3954 23.9344C80.465 24.0137 80.5355 24.092 80.6042 24.1722C81.0492 24.679 81.4811 25.1981 81.8999 25.7295C83.0217 27.1403 84.0123 28.6518 84.8593 30.2449C86.1562 32.7452 87.0342 35.4437 87.458 38.2316C87.6173 39.2441 87.7221 40.2645 87.772 41.2883C87.7876 41.5896 87.7977 41.8919 87.8032 42.1932C87.8032 42.29 87.8032 42.3858 87.8032 42.4826C87.8123 42.6226 87.8123 42.759 87.8114 42.8991Z" fill="#715AFF"/>
<path d="M36.0744 41.352L34.6094 67.5957L36.0744 67.615L37.2648 40.9834L36.0744 41.352Z" fill="#3F3D56"/>
<path d="M30.6732 54.6484H12.543V58.6109H30.6732V54.6484Z" fill="#715AFF"/>
<path d="M31.8631 58.1494V60.6375H13.1349C12.472 60.1571 11.817 59.6625 11.1699 59.1539V58.1494H31.8631Z" fill="#3F3D56"/>
<path d="M35.6027 52.486C35.5514 52.7247 35.4846 52.9606 35.4141 53.1956C35.2062 53.8748 34.9563 54.5447 34.9077 55.2506C34.8427 56.1831 35.0909 57.2678 34.4499 57.9451C34.2851 58.1201 34.0699 58.251 33.9225 58.4381C33.8998 58.4674 33.879 58.4982 33.8602 58.5302C33.7283 58.7495 33.7128 59.0168 33.7109 59.2674C33.7125 59.802 33.747 60.336 33.8144 60.8663C34.0314 62.6908 34.46 64.5191 33.8968 66.2414C33.7948 66.5401 33.6759 66.8327 33.5406 67.1178C33.2659 67.726 32.9665 68.3259 32.8768 68.9848C32.8108 69.4732 32.831 69.9763 32.8273 70.473C32.538 70.3802 32.2489 70.2856 31.9602 70.1892C30.2162 69.6086 28.4916 68.9636 26.7867 68.254C26.7913 68.2291 26.7958 68.2033 26.7995 68.1784C26.9304 67.3583 26.751 66.5197 26.533 65.7198C26.0752 64.0252 25.4269 62.3471 25.0432 60.6405C24.8887 59.9739 24.7874 59.296 24.7402 58.6132C24.7292 58.4602 24.7228 58.3063 24.7218 58.1524C24.7173 57.9515 24.7218 57.7506 24.7301 57.5479C24.7493 57.1433 24.7667 56.6632 24.4453 56.4172C24.2686 56.2836 24.0351 56.2605 23.8291 56.1795C23.4317 56.0237 23.1597 55.6625 22.8447 55.3731C22.6945 55.2264 22.511 55.1187 22.3102 55.0593C22.1093 54.9999 21.8971 54.9906 21.6919 55.0322C19.6335 55.5067 18.1208 57.2641 16.2052 58.1524C16.1311 58.1874 16.0569 58.2206 15.9818 58.2519C15.734 58.3432 15.4982 58.4645 15.2795 58.6132C15.1258 58.7205 15.0144 58.8786 14.9645 59.0601C14.916 59.2555 14.9581 59.46 14.9819 59.6609C15.0204 59.9875 15.0065 60.3183 14.9407 60.6405C14.9159 60.7653 14.8831 60.8884 14.8427 61.0091C14.7695 61.2275 14.6715 61.4413 14.5781 61.6541C14.0897 61.3236 13.6084 60.9857 13.1341 60.6405C12.4711 60.1601 11.8161 59.6655 11.1691 59.1569L10.7762 58.8389C9.08285 57.5045 7.4963 56.0381 6.03125 54.4535C6.22629 53.9006 6.50831 53.3864 6.64383 52.8196C6.72075 52.4943 6.74913 52.1561 6.85535 51.8401C6.97784 51.5124 7.1482 51.2049 7.3608 50.9278C8.13943 49.835 9.0902 48.8775 10.1756 48.0932C11.3101 47.2749 12.6204 46.6188 13.6414 45.6899C14.0557 45.3248 14.4129 44.8989 14.7008 44.4265C14.7182 44.3979 14.7347 44.3675 14.7493 44.3344C14.829 44.1676 14.8842 43.99 14.9132 43.8073C14.9865 43.3944 14.9755 42.941 15.0121 42.5448C16.2559 42.7615 17.5238 42.7999 18.7783 42.6591C20.2387 42.4941 21.6672 42.0859 23.1277 41.9274C23.2376 41.9145 23.3483 41.9043 23.4591 41.8951C23.927 41.8573 24.3959 41.849 24.8656 41.8546C25.2584 41.8546 25.6512 41.8721 26.0441 41.885L30.3688 42.0324C30.8477 42.049 31.3366 42.0674 31.7826 42.2435C32.3118 42.4526 32.7358 42.8692 33.0755 43.3271C33.1185 43.3861 33.1615 43.4451 33.2018 43.5059C33.4814 43.9163 33.7055 44.3622 33.8684 44.832C33.8858 44.8799 33.9023 44.9241 33.9179 44.9767C33.9591 45.1047 33.9948 45.2338 34.0269 45.3646C34.0516 45.4669 34.0736 45.5692 34.0937 45.6724C34.1944 46.1829 34.2539 46.7045 34.4133 47.1975C34.4243 47.2334 34.4362 47.2694 34.449 47.3044C34.6403 47.8444 34.9581 48.3282 35.198 48.847C35.371 49.2226 35.503 49.6159 35.5917 50.0201C35.7711 50.8318 35.7748 51.6728 35.6027 52.486Z" fill="#35323E"/>
<path d="M22.4584 19.5081C22.072 19.1985 21.5116 19.4252 21.0593 19.6252C20.6801 19.7937 20.2897 19.9357 19.8909 20.05C19.8093 20.0816 19.7208 20.0908 19.6345 20.0767C19.4514 20.0325 19.3745 19.8141 19.238 19.6814C19.0009 19.4519 18.6126 19.5063 18.3068 19.6307C18.001 19.7551 17.6988 19.9348 17.371 19.9071C17.0212 19.8795 16.7172 19.6196 16.3638 19.6113C15.7411 19.5966 15.2183 20.3688 14.6295 20.1642C14.2706 20.0398 13.9885 19.5699 13.6351 19.7035C13.3604 19.8085 13.3357 20.191 13.1699 20.4407C12.9749 20.7319 12.5949 20.8139 12.2698 20.9429C11.2452 21.3502 10.5667 22.4994 10.7004 23.5996C10.7745 24.2069 11.0666 24.7635 11.2598 25.3431C11.833 27.0286 11.6362 28.9296 12.3586 30.5552C12.4502 30.4686 12.5015 30.4363 12.5903 30.3506C12.3619 30.8274 12.3178 31.3727 12.4667 31.8803C12.5427 32.1356 12.6663 32.3733 12.7597 32.6231C12.8567 32.9032 12.935 33.1895 12.9941 33.4801L13.7907 37.0168C14.1021 38.3991 14.4143 39.7813 14.4683 41.1968C14.502 42.1171 14.4319 43.0384 14.2596 43.9429C15.7027 43.7024 17.0231 43.0582 18.4854 43.0665C19.022 43.0665 19.554 43.1587 20.086 43.2324C21.637 43.4508 23.2016 43.5577 24.7678 43.5522C25.0113 43.5661 25.2553 43.5317 25.4856 43.4508C25.6871 43.3642 25.8519 43.2103 26.0424 43.0988C26.415 42.8776 26.8665 42.8223 27.2959 42.8223C29.2545 42.7864 31.1417 43.5079 33.0875 43.7623C33.8558 42.1395 33.9015 40.1951 33.3119 38.4986C33.137 37.9945 32.9016 37.5034 32.832 36.9735C32.8041 36.6478 32.7968 36.3206 32.8101 35.9939C32.807 35.1577 32.6573 34.3285 32.3678 33.5446C32.2543 33.2377 32.1178 32.9253 32.1297 32.5982C32.1416 32.271 32.3019 31.966 32.4594 31.6767C32.7789 31.0869 33.1003 30.4916 33.5518 29.994C34.0142 29.4798 34.5929 29.0881 35.1652 28.7039L36.578 27.7492C36.3848 26.5208 36.1358 25.227 35.6184 24.0972C35.1011 22.9675 34.3273 21.9289 33.2807 21.2682C32.9279 21.0546 32.5586 20.8697 32.1764 20.7153C31.6417 20.4886 31.0849 20.2887 30.5053 20.2546C29.8461 20.2168 29.1968 20.3946 28.5458 20.5052C26.4965 20.8526 24.0847 20.8102 22.4584 19.5081Z" fill="#715AFF"/>
<path d="M37.907 40.8249L37.2349 41.6792L35.9676 43.2891L34.5025 45.1496L34.0932 45.6693H33.2993L13.6409 45.6923L1.32975 45.7062H0.780347C0.707094 45.4758 0.639334 45.2454 0.577069 45.0058C0.485502 44.663 0.405229 44.3159 0.336249 43.9645C0.321598 43.8973 0.308779 43.83 0.296875 43.7618L4.7635 40.8231L6.44283 40.8139L11.5797 40.7844L14.4485 40.7678H14.9723H15.301L17.2129 40.7577L31.7848 40.6738L32.5302 40.6692H32.8534L33.7096 40.6646L36.8952 40.6462L37.5068 40.4121L37.5517 40.46L37.907 40.8249Z" fill="#3F3D56"/>
<path d="M37.632 40.364L37.556 40.4562L37.056 41.0487L36.0268 42.2716L33.8686 44.8324L14.7494 44.3413L0.332256 43.9727C0.317605 43.9054 0.304786 43.8381 0.292882 43.7699C0.0740271 42.5873 -0.0226329 41.3851 0.00444667 40.1825L1.6032 39.3587L1.96947 39.1688L4.81994 37.6944L7.32154 36.4043L13.8466 37.2576L15.2915 37.4465L15.9453 37.5313L16.9022 37.6566L16.9827 37.6677L31.9878 39.6259L33.6461 39.8425L34.6194 39.9696L37.6191 40.3622L37.632 40.364Z" fill="#504F60"/>
<path d="M34.5202 44.7876L34.5047 45.1498L34.4131 47.1946L33.9205 58.437L33.8161 60.867L33.5414 67.1185L33.3866 70.6498L32.8281 70.4738C32.5387 70.381 32.2497 70.2864 31.9609 70.1899L33.3006 45.6778L33.3289 45.1636L33.9186 44.9793L34.5202 44.7876Z" fill="#3F3D56"/>
<path d="M1.37073 44.7603L1.32952 45.7066L1.26909 47.0889C1.0945 46.6521 0.934565 46.207 0.789279 45.7536L0.775544 45.7085C0.70229 45.4781 0.634531 45.2477 0.572266 45.0081L1.37073 44.7603Z" fill="#3F3D56"/>
<path d="M25.3156 30.8271C27.6418 30.8271 29.5276 28.2692 29.5276 25.1138C29.5276 21.9583 27.6418 19.4004 25.3156 19.4004C22.9893 19.4004 21.1035 21.9583 21.1035 25.1138C21.1035 28.2692 22.9893 30.8271 25.3156 30.8271Z" fill="#A1616A"/>
<path opacity="0.1" d="M25.3156 30.8271C27.6418 30.8271 29.5276 28.2692 29.5276 25.1138C29.5276 21.9583 27.6418 19.4004 25.3156 19.4004C22.9893 19.4004 21.1035 21.9583 21.1035 25.1138C21.1035 28.2692 22.9893 30.8271 25.3156 30.8271Z" fill="black"/>
<path d="M25.911 27.5561C29.1476 27.5561 31.7713 24.9156 31.7713 21.6584C31.7713 18.4012 29.1476 15.7607 25.911 15.7607C22.6745 15.7607 20.0508 18.4012 20.0508 21.6584C20.0508 24.9156 22.6745 27.5561 25.911 27.5561Z" fill="#A1616A"/>
<path d="M26.0267 12.5683C25.6689 12.597 25.3136 12.6515 24.9636 12.7314C24.0369 12.9581 23.2357 13.4612 22.4556 13.9551C22.1058 14.1772 21.7459 14.4085 21.5289 14.7347C21.1388 15.3199 21.2899 16.0645 21.0711 16.7141C20.9575 17.0477 20.7488 17.3472 20.5721 17.6578C20.0858 18.5092 19.8313 19.4446 19.5813 20.3707C19.53 20.5624 19.5154 20.8222 19.7232 20.8959C19.8429 20.921 19.9674 20.9068 20.0785 20.8554C20.735 20.637 21.5692 20.5743 22.0563 21.0176C22.5435 21.4608 22.5023 22.2469 23.0819 22.5842C23.7458 22.974 24.7823 22.5031 25.3848 22.9629C25.643 23.1601 25.7364 23.4762 25.9479 23.7139C26.4406 24.2668 27.3883 24.2401 28.1767 24.1286C28.629 24.0641 29.1839 24.0208 29.4586 24.3405C29.5905 24.4917 29.628 24.699 29.7809 24.8354C30.0556 25.0824 30.5583 24.957 30.8266 24.7036C31.0949 24.4502 31.2231 24.1074 31.4465 23.8227C31.8815 23.2698 32.646 22.9684 33.0947 22.422C33.4701 21.9612 33.5837 21.3843 33.6862 20.8278L34.0681 18.7645C34.2228 17.9278 34.3638 17.0136 33.8959 16.2764C33.7293 16.011 33.4903 15.7825 33.3465 15.5079C33.2504 15.3236 33.1964 15.1291 33.0847 14.955C32.9522 14.7735 32.7939 14.6127 32.6149 14.4776L31.7112 13.7248C31.4021 13.4526 31.0717 13.206 30.7231 12.9875C29.433 12.231 27.5009 12.43 26.0267 12.5683Z" fill="#464353"/>
<path d="M6.72656 27.7607C6.50955 27.9929 6.30902 28.2435 6.07644 28.461C5.87184 28.6441 5.6579 28.8164 5.43547 28.9771C5.07653 29.2474 4.72552 29.5272 4.38245 29.8166C4.02454 30.1013 3.70067 30.427 3.41734 30.7869C2.92838 31.4476 2.69671 32.2696 2.23888 32.9525C1.83415 33.5579 1.26369 34.0361 0.852559 34.637C0.672193 34.8896 0.538224 35.1727 0.45699 35.4728C0.396355 35.7633 0.369012 36.0598 0.375496 36.3565C0.367255 36.8431 0.35993 37.3352 0.458822 37.8116C0.557714 38.288 0.774727 38.7561 1.14649 39.0685C1.49169 39.3588 1.93762 39.4924 2.3744 39.603C2.59965 39.6592 2.84322 39.7117 3.05748 39.6223C3.21427 39.5426 3.35036 39.4271 3.45488 39.2851L4.56925 37.995C5.3146 37.1287 6.08926 36.2441 7.11206 35.7373C7.43254 35.5797 7.77042 35.4608 8.09182 35.3078C9.45434 34.6471 10.4176 33.2943 10.7912 31.8199C10.8828 31.4596 10.9414 31.0919 11.0009 30.7242L11.1621 29.7161C11.1744 29.6656 11.1744 29.6128 11.1621 29.5622C11.1368 29.5054 11.0962 29.4569 11.0448 29.4222C10.2686 28.7913 9.5419 28.1012 8.87105 27.358C8.71173 27.181 8.56248 26.9387 8.37843 26.7903C8.14768 26.606 8.16508 26.6198 7.88763 26.7903C7.46083 27.0623 7.0706 27.3884 6.72656 27.7607Z" fill="#A1616A"/>
<path d="M14.3483 34.4693C14.3391 34.4479 14.3256 34.4286 14.3087 34.4125C14.2919 34.3965 14.272 34.3841 14.2502 34.376C14.2284 34.3679 14.2053 34.3643 14.1821 34.3654C14.1589 34.3666 14.1362 34.3724 14.1154 34.3826C14.0945 34.3928 14.0759 34.4071 14.0607 34.4247C14.0454 34.4424 14.0339 34.4629 14.0267 34.4851C14.0196 34.5073 14.017 34.5307 14.0191 34.554C14.0211 34.5772 14.0279 34.5998 14.0388 34.6204L13.9473 34.6656L16.6778 40.2978L17.1713 40.0555L14.4408 34.4195L14.3483 34.4693Z" fill="#3F3D56"/>
<path opacity="0.04" d="M6.72656 27.7607C6.50955 27.9929 6.30902 28.2435 6.07644 28.461C5.87184 28.6441 5.6579 28.8164 5.43547 28.9771C5.07653 29.2474 4.72552 29.5272 4.38245 29.8166C4.02454 30.1013 3.70067 30.427 3.41734 30.7869C2.92838 31.4476 2.69671 32.2696 2.23888 32.9525C1.83415 33.5579 1.26369 34.0361 0.852559 34.637C0.672193 34.8896 0.538224 35.1727 0.45699 35.4728C0.396355 35.7633 0.369012 36.0598 0.375496 36.3565C0.367255 36.8431 0.35993 37.3352 0.458822 37.8116C0.557714 38.288 0.774727 38.7561 1.14649 39.0685C1.49169 39.3588 1.93762 39.4924 2.3744 39.603C2.59965 39.6592 2.84322 39.7117 3.05748 39.6223C3.21427 39.5426 3.35036 39.4271 3.45488 39.2851L4.56925 37.995C5.3146 37.1287 6.08926 36.2441 7.11206 35.7373C7.43254 35.5797 7.77042 35.4608 8.09182 35.3078C9.45434 34.6471 10.4176 33.2943 10.7912 31.8199C10.8828 31.4596 10.9414 31.0919 11.0009 30.7242L11.1621 29.7161C11.1744 29.6656 11.1744 29.6128 11.1621 29.5622C11.1368 29.5054 11.0962 29.4569 11.0448 29.4222C10.2686 28.7913 9.5419 28.1012 8.87105 27.358C8.71173 27.181 8.56248 26.9387 8.37843 26.7903C8.14768 26.606 8.16508 26.6198 7.88763 26.7903C7.46083 27.0623 7.0706 27.3884 6.72656 27.7607Z" fill="black"/>
<path d="M38.2925 38.1404C38.2834 38.7284 38.2605 39.3338 38.0178 39.8701C37.9134 40.1023 37.7514 40.3309 37.5087 40.4073C37.3619 40.4415 37.2099 40.4471 37.0609 40.4239C35.2645 40.265 33.4543 40.4095 31.7052 40.8515C32.1722 39.9116 31.9039 38.7846 32.033 37.7414C32.0687 37.4567 32.1337 37.1765 32.1585 36.8909C32.25 35.8772 31.8187 34.893 31.621 33.8923C31.4493 33.026 31.4493 32.1341 31.621 31.2678C31.6546 31.0448 31.7308 30.8305 31.8453 30.6366C31.9794 30.4479 32.1557 30.2936 32.3599 30.186C33.1016 29.7611 33.9761 29.7123 34.8093 29.7685C35.3706 29.8063 36.496 29.7529 36.9639 30.1003C37.4757 30.4808 37.6378 31.759 37.7761 32.3497C37.9831 33.2556 38.1239 34.1756 38.1973 35.1022C38.287 36.1122 38.3062 37.1268 38.2925 38.1404Z" fill="#A1616A"/>
<path d="M5.49219 40.1807L8.78859 42.3923L23.6224 41.8394L13.8248 40.1807H5.49219Z" fill="white"/>
<path d="M9.83835 22.6085C9.29719 23.0886 8.83844 23.6544 8.32567 24.1658C7.62243 24.868 6.82306 25.4652 6.02734 26.0595C6.31264 26.1398 6.57234 26.2932 6.78101 26.5048C6.98968 26.7165 7.14015 26.979 7.21771 27.2667C7.25251 27.4022 7.2699 27.5432 7.30928 27.6759C7.40084 27.9901 7.60229 28.261 7.81839 28.5052C8.74687 29.5585 10.0462 30.3381 10.5938 31.6383C10.6116 31.7016 10.6504 31.7569 10.7037 31.795C10.7482 31.8149 10.7977 31.8206 10.8456 31.8116C11.341 31.7591 11.72 31.3573 12.0359 30.9666C12.6952 30.1372 13.2675 29.2212 13.5926 28.2094C13.9176 27.1976 13.9698 26.0789 13.6155 25.0763C13.4387 24.5768 13.1659 24.1179 12.8948 23.6636C12.6574 23.2661 12.4205 22.8693 12.1843 22.473C12.0607 22.2638 11.9032 21.839 11.6605 21.7358C11.1368 21.5091 10.1744 22.2703 9.83835 22.6085Z" fill="#715AFF"/>
<path d="M36.8093 28.5639L37.5885 30.4069C36.7403 30.1086 35.8336 30.0178 34.9436 30.142C34.0535 30.2662 33.2056 30.6018 32.47 31.1211C32.0259 31.4408 31.6184 31.8426 31.4178 32.3531C31.3189 32.3721 31.2166 32.3625 31.1228 32.3255C31.029 32.2885 30.9475 32.2255 30.8877 32.144C30.7705 31.9785 30.7025 31.7829 30.6917 31.58C30.6194 30.8723 30.8858 30.1784 31.1496 29.5167C31.2723 29.2071 31.3986 28.891 31.6165 28.6395C31.8345 28.3879 32.1238 28.222 32.4132 28.0654C33.3363 27.5516 34.3031 27.1217 35.3021 26.7808C35.7233 26.6435 36.1647 26.6462 36.4009 27.0425C36.6747 27.5152 36.595 28.0608 36.8093 28.5639Z" fill="#715AFF"/>
<path d="M5.51046 34.0941C5.7055 34.2507 5.87672 34.4359 6.07725 34.5852C6.28933 34.7334 6.515 34.8609 6.75119 34.9658L7.65403 35.4026C7.93381 35.5489 8.22657 35.6686 8.5285 35.7601C8.91491 35.8643 9.32055 35.8744 9.70879 35.9712C10.1987 36.0928 10.6464 36.3462 11.129 36.4927C11.6115 36.6393 12.1765 36.6632 12.5794 36.3582C12.8312 36.1674 13.0217 35.8523 13.3339 35.8053C13.5354 35.7786 13.7295 35.8763 13.909 35.9712L16.2586 37.2143C16.5754 37.382 16.9105 37.5681 17.0762 37.8879C17.242 38.2077 17.1303 38.6933 16.7814 38.7762C16.6598 38.7903 16.5375 38.7974 16.4151 38.7974C16.2943 38.8122 16.1624 38.8841 16.1459 39.0066C16.1453 39.0827 16.1653 39.1576 16.2036 39.2232C16.3089 39.4665 16.3401 39.7576 16.2174 39.9936C16.0947 40.2295 15.7934 40.376 15.5526 40.27C15.5938 40.6266 15.2083 40.8764 14.8649 40.9713C13.9987 41.21 13.0803 41.0634 12.1948 40.9123C11.8469 40.8533 11.4934 40.7925 11.1766 40.6358C11.0246 40.5612 10.8836 40.4654 10.7298 40.3963C10.3076 40.2073 9.82783 40.2322 9.36633 40.2405C7.23191 40.2783 5.1158 39.8802 3.0171 39.484C2.62794 39.4102 2.22779 39.3319 1.8954 39.1154C1.25444 38.6951 1.01636 37.8326 1.12167 37.0696C1.22697 36.3066 1.61155 35.6155 1.98972 34.9446L2.4796 34.0756C2.54364 33.9425 2.63327 33.8235 2.74331 33.7254C3.46394 33.1716 4.8933 33.5946 5.51046 34.0941Z" fill="#A1616A"/>
<path opacity="0.04" d="M5.51046 34.0941C5.7055 34.2507 5.87672 34.4359 6.07725 34.5852C6.28933 34.7334 6.515 34.8609 6.75119 34.9658L7.65403 35.4026C7.93381 35.5489 8.22657 35.6686 8.5285 35.7601C8.91491 35.8643 9.32055 35.8744 9.70879 35.9712C10.1987 36.0928 10.6464 36.3462 11.129 36.4927C11.6115 36.6393 12.1765 36.6632 12.5794 36.3582C12.8312 36.1674 13.0217 35.8523 13.3339 35.8053C13.5354 35.7786 13.7295 35.8763 13.909 35.9712L16.2586 37.2143C16.5754 37.382 16.9105 37.5681 17.0762 37.8879C17.242 38.2077 17.1303 38.6933 16.7814 38.7762C16.6598 38.7903 16.5375 38.7974 16.4151 38.7974C16.2943 38.8122 16.1624 38.8841 16.1459 39.0066C16.1453 39.0827 16.1653 39.1576 16.2036 39.2232C16.3089 39.4665 16.3401 39.7576 16.2174 39.9936C16.0947 40.2295 15.7934 40.376 15.5526 40.27C15.5938 40.6266 15.2083 40.8764 14.8649 40.9713C13.9987 41.21 13.0803 41.0634 12.1948 40.9123C11.8469 40.8533 11.4934 40.7925 11.1766 40.6358C11.0246 40.5612 10.8836 40.4654 10.7298 40.3963C10.3076 40.2073 9.82783 40.2322 9.36633 40.2405C7.23191 40.2783 5.1158 39.8802 3.0171 39.484C2.62794 39.4102 2.22779 39.3319 1.8954 39.1154C1.25444 38.6951 1.01636 37.8326 1.12167 37.0696C1.22697 36.3066 1.61155 35.6155 1.98972 34.9446L2.4796 34.0756C2.54364 33.9425 2.63327 33.8235 2.74331 33.7254C3.46394 33.1716 4.8933 33.5946 5.51046 34.0941Z" fill="black"/>
<path d="M33.4633 35.6864C32.9862 35.9131 32.4386 35.9352 31.9405 36.1094C31.4424 36.2836 31.0193 36.5969 30.5624 36.8521C29.3721 37.5212 27.9986 37.7737 26.6498 38.0142C25.8321 38.1616 25.0016 38.309 24.1775 38.274C23.0622 38.2261 21.9909 37.852 20.9104 37.57C19.8299 37.288 18.6771 37.0982 17.6066 37.4152C17.0477 37.5865 16.5367 37.8879 16.1151 38.295C15.6935 38.7022 15.3732 39.2036 15.1801 39.7586C14.9558 40.4211 14.9247 41.1353 14.9677 41.8338C15.193 42.0006 15.5079 41.7693 15.6306 41.5159C15.7533 41.2625 15.8202 40.9519 16.0583 40.8045C16.4712 40.9455 16.5719 41.4993 16.9126 41.773C17.125 41.9444 17.4089 41.9896 17.679 42.0283L19.0708 42.2273C19.4059 42.2752 19.7951 42.3075 20.0377 42.0697C20.1559 41.9545 20.2209 41.7933 20.3289 41.6698C20.5505 41.4228 20.9204 41.3804 21.2501 41.4136C22.2793 41.5168 23.2444 42.1886 24.2663 42.0292C24.6179 41.9748 24.9448 41.8237 25.2799 41.7048C27.266 40.9989 29.4728 41.4284 31.5394 41.0238C32.3278 40.8699 33.0869 40.5972 33.8368 40.3096C34.2443 40.1539 34.6564 39.9908 35.0043 39.7272C35.334 39.4722 35.5939 39.1371 35.7598 38.7533C35.9257 38.3696 35.9922 37.9498 35.953 37.5331C35.8763 36.8982 35.5615 36.3167 35.073 35.9076C34.9118 35.7694 34.7003 35.5049 34.5071 35.4183C34.1381 35.2552 33.7764 35.5381 33.4633 35.6864Z" fill="#A1616A"/>
<g opacity="0.1">
<path opacity="0.1" d="M30.7868 23.9143C30.6338 23.7779 30.5963 23.5705 30.4644 23.4194C30.1897 23.0996 29.6349 23.143 29.1825 23.2075C28.3941 23.319 27.4428 23.3448 26.9538 22.7928C26.7423 22.555 26.6489 22.2399 26.3907 22.0417C25.7881 21.581 24.7516 22.0528 24.0878 21.663C23.5081 21.323 23.5457 20.5342 23.0622 20.0964C22.5787 19.6587 21.7409 19.7159 21.0844 19.9343C20.9733 19.9856 20.8488 19.9998 20.7291 19.9748C20.5212 19.9011 20.5359 19.6412 20.5872 19.4495C20.8371 18.5234 21.0917 17.5881 21.5779 16.7366C21.7546 16.4261 21.9634 16.1266 22.0769 15.793C22.2756 15.2087 22.174 14.548 22.435 13.9951C22.1548 14.1794 21.8856 14.3803 21.7125 14.6402C21.3224 15.2253 21.4735 15.9699 21.2547 16.6196C21.1411 16.9532 20.9324 17.2527 20.7556 17.5632C20.2694 18.4147 20.0149 19.35 19.7649 20.2761C19.7136 20.4678 19.699 20.7277 19.9068 20.8014C20.0265 20.8264 20.151 20.8122 20.2621 20.7608C20.9186 20.5424 21.7528 20.4798 22.2399 20.923C22.7271 21.3663 22.6859 22.1523 23.2655 22.4896C23.9293 22.8794 24.9659 22.4085 25.5684 22.8683C25.8266 23.0655 25.92 23.3816 26.1315 23.6194C26.6241 24.1723 27.5719 24.1456 28.3602 24.0341C28.8126 23.9695 29.3675 23.9262 29.6422 24.246C29.774 24.3971 29.8116 24.6045 29.9645 24.7409C30.2392 24.9878 30.7419 24.8625 31.0102 24.6091C31.1822 24.4288 31.3294 24.2261 31.4479 24.0064C31.2098 24.0792 30.9562 24.0681 30.7868 23.9143Z" fill="black"/>
<path opacity="0.1" d="M32.4549 22.9007C32.3959 22.9771 32.3412 23.0568 32.291 23.1394C32.6426 22.8869 33.0153 22.651 33.2781 22.3294C33.3463 22.2461 33.4076 22.1574 33.4612 22.064C33.0959 22.3275 32.715 22.5699 32.4549 22.9007Z" fill="black"/>
</g>
<path d="M50.9551 41.1479L51.2298 67.5953L52.5117 67.411L52.237 41.1479H50.9551Z" fill="#3F3D56"/>
<path d="M58.6465 45.9399L58.9212 72.3873L60.2031 72.203L59.9284 45.9399H58.6465Z" fill="#3F3D56"/>
<path d="M82.5947 59.3004L82.5892 58.7926V58.4904L82.5407 53.8386L82.4647 46.566L82.4519 45.9385H81.1699L81.1763 46.543L81.2166 50.4382L81.234 52.1246L81.2487 53.4902L81.2725 55.8512L81.2871 57.2436V57.391L81.3064 59.2211L81.3228 60.8347L81.4272 60.7186C81.5951 60.53 81.7593 60.3383 81.9199 60.1435L82.5947 59.3004Z" fill="#3F3D56"/>
<path d="M57.2267 50.2251L56.4941 51.3272L57.2267 56.3485L63.4532 58.0635H73.5256L79.569 58.4311L82.4478 56.4481L81.9497 53.0421L79.7521 50.2251H57.2267Z" fill="#715AFF"/>
<path d="M56.4952 51.3271L56.1289 54.3884C56.1289 54.3884 54.206 60.3902 69.6808 60.0225C85.1556 59.6549 82.5001 58.4302 82.5001 58.4302L82.4086 54.8787C82.4086 54.8787 82.9479 56.5595 75.0832 56.3319C67.2186 56.1043 59.8832 55.3689 59.8832 55.3689C59.8832 55.3689 57.1362 55.8582 56.4952 51.3271Z" fill="#3F3D56"/>
<path d="M69.3873 23.8886C68.5046 24.2932 67.8362 25.0774 67.3884 25.9445C66.9407 26.8117 66.6889 27.7636 66.4407 28.709C66.1788 29.7061 65.916 30.706 65.7805 31.7279C65.5388 33.5451 65.7201 35.4554 66.5497 37.0874C67.3793 38.7194 68.9121 40.0362 70.7068 40.3505C71.4 40.473 72.1124 40.4482 72.8128 40.3754C74.079 40.2404 75.3262 39.9638 76.5314 39.5506C77.7904 39.1221 79.1007 38.4623 79.6611 37.2468C79.9862 36.5419 80.0136 35.7383 79.9981 34.9624C79.9549 32.8476 79.6375 30.7476 79.054 28.7155C78.8846 28.1257 78.6878 27.5314 78.3288 27.0347C77.9699 26.538 77.4791 26.174 76.9782 25.8367C74.8365 24.3853 72.0217 22.6833 69.3873 23.8886Z" fill="#FBBEBE"/>
<path opacity="0.05" d="M69.3873 23.8886C68.5046 24.2932 67.8362 25.0774 67.3884 25.9445C66.9407 26.8117 66.6889 27.7636 66.4407 28.709C66.1788 29.7061 65.916 30.706 65.7805 31.7279C65.5388 33.5451 65.7201 35.4554 66.5497 37.0874C67.3793 38.7194 68.9121 40.0362 70.7068 40.3505C71.4 40.473 72.1124 40.4482 72.8128 40.3754C74.079 40.2404 75.3262 39.9638 76.5314 39.5506C77.7904 39.1221 79.1007 38.4623 79.6611 37.2468C79.9862 36.5419 80.0136 35.7383 79.9981 34.9624C79.9549 32.8476 79.6375 30.7476 79.054 28.7155C78.8846 28.1257 78.6878 27.5314 78.3288 27.0347C77.9699 26.538 77.4791 26.174 76.9782 25.8367C74.8365 24.3853 72.0217 22.6833 69.3873 23.8886Z" fill="black"/>
<path d="M68.3955 35.4872C68.651 35.8406 68.96 36.1515 69.3112 36.4087C70.1829 37.015 71.3018 37.097 72.3604 37.1302C73.2101 37.156 74.1844 37.1072 74.7173 36.44C74.9572 36.1396 75.0652 35.7562 75.1623 35.383C75.7613 33.0913 76.1868 30.7572 76.4351 28.4007L78.8598 28.409C79.9091 32.9309 79.823 37.6315 79.7315 42.275L79.5987 49.0463L78.0366 48.8795C74.3272 48.4841 70.6123 48.0888 66.8828 48.0206C64.6976 47.9802 62.5118 48.0528 60.334 48.2381L63.7357 38.0591C64.177 36.7358 64.623 35.395 64.7264 34.0044C64.8757 31.9873 64.3135 29.8577 65.0927 27.9916C65.155 27.8414 65.2337 27.6857 65.3756 27.6073C65.5176 27.529 65.697 27.5483 65.86 27.5695C66.1677 27.611 67.1081 27.5695 67.3315 27.7677C67.6612 28.0552 67.4432 28.0985 67.3269 28.562C67.1191 29.3914 66.9222 30.159 66.925 31.0234C66.9277 32.5927 67.4112 34.2496 68.3955 35.4872Z" fill="#715AFF"/>
<path d="M82.5949 59.2997C83.0033 58.7542 83.3882 58.1893 83.7495 57.6051C83.5664 57.2107 83.365 56.8255 83.2047 56.4228C82.9593 55.8054 82.8183 55.1511 82.6791 54.5014C82.6315 54.2803 82.5842 54.0591 82.5372 53.8379C82.0244 51.4319 81.5428 48.9917 81.443 46.5525C81.4338 46.3498 81.428 46.147 81.4256 45.9443C81.4256 45.9148 81.4256 45.8862 81.4256 45.8521C81.4256 45.6301 81.4256 45.408 81.4256 45.1868C81.4366 44.6339 81.4714 44.0764 81.5345 43.5216C81.5465 43.4129 81.5602 43.3042 81.5748 43.1954C81.5748 43.1715 81.5803 43.1484 81.584 43.1245L87.8105 42.8959L88.3343 42.8766C88.6942 42.8637 89.0751 42.8434 89.3717 42.6379C89.8708 42.2933 89.9294 41.5865 89.9211 40.9792C89.8908 39.4443 89.718 37.9156 89.4047 36.4131C89.1685 35.2833 88.8315 34.1287 88.0752 33.2606C87.4543 32.5474 86.5552 32.0286 86.2319 31.1412C86.112 30.8113 86.0817 30.4491 85.9261 30.1339C85.7704 29.8188 85.5131 29.5875 85.2705 29.3442C84.4165 28.4926 83.708 27.505 83.1736 26.4212C82.8027 25.6692 82.4008 24.8399 81.9164 24.3201C81.8926 24.2934 81.8688 24.2685 81.844 24.2446C81.432 23.8345 80.9604 23.6548 80.4019 23.934C80.3014 23.9848 80.2058 24.0446 80.1162 24.1128C79.9171 24.2659 79.7351 24.4401 79.5732 24.6325C79.009 25.2854 78.514 25.9957 78.0962 26.752C77.8025 27.2845 77.5502 27.839 77.3417 28.4107C77.1771 28.8624 77.041 29.3241 76.9342 29.793C76.8555 30.1404 76.7932 30.4915 76.7438 30.8435C76.5606 32.1668 76.5606 33.5159 76.5863 34.8558C76.6138 36.0869 76.6678 37.3208 76.7786 38.5473C76.806 38.8441 76.8366 39.1405 76.8701 39.4366C76.9373 40.0221 77.0203 40.6057 77.1192 41.1875C77.1586 41.4095 77.1989 41.6316 77.2437 41.8528C77.2547 41.9118 77.2666 41.9707 77.2785 42.0288L77.284 42.0537C77.405 42.5677 77.4988 43.0879 77.5651 43.6119C77.5725 43.6777 77.5779 43.7431 77.5816 43.8082C77.597 44.1094 77.5946 44.4113 77.5743 44.7122C77.5532 45.0679 77.5203 45.4227 77.5038 45.7784C77.5038 45.8411 77.5038 45.9028 77.4974 45.9627C77.4928 46.1424 77.4974 46.3221 77.4974 46.5018C77.5159 46.9317 77.5667 47.3596 77.6494 47.7818C77.8038 48.5671 78.0706 49.3257 78.4414 50.0339C78.4762 50.1003 78.5119 50.1657 78.5476 50.2302C79.0119 51.0651 79.5979 51.8309 80.0274 52.6851C80.3978 53.4538 80.6745 54.2648 80.8515 55.1004C80.9125 55.3762 80.9705 55.6527 81.0254 55.9298C81.1106 56.3721 81.1866 56.8181 81.2644 57.2641C81.2718 57.3083 81.28 57.3563 81.2882 57.3968C81.3917 57.9884 81.5007 58.5773 81.6408 59.155C81.7223 59.4914 81.8138 59.8231 81.921 60.1494L82.5949 59.2997Z" fill="#464353"/>
<path d="M81.3712 52.0369C81.3712 52.1199 81.3657 52.2028 81.362 52.2867C81.3457 52.691 81.3087 53.0942 81.2512 53.4948C81.1753 54.0415 81.0424 54.5786 80.8547 55.0973C80.7303 55.4383 80.572 55.7659 80.3822 56.075C80.2139 56.3495 80.0169 56.6049 79.7944 56.8371C79.245 57.4121 78.4538 57.5955 77.6883 57.8378C77.3361 57.9405 76.9957 58.0804 76.6729 58.2553C76.6152 58.2875 76.5584 58.3226 76.5035 58.3594L75.5457 58.998C75.2472 59.1961 74.9423 59.4016 74.7372 59.6956C74.7036 59.7456 74.673 59.7976 74.6456 59.8513C74.516 60.1219 74.4212 60.4081 74.3636 60.7028C73.8654 62.791 73.3664 64.8809 73.0249 67.0004C73.002 67.1405 72.98 67.2815 72.9562 67.4225L72.9479 67.4667C72.9438 67.4562 72.9389 67.446 72.9333 67.4363C70.483 68.9273 67.942 70.2727 65.3241 71.3499L64.7555 66.5581C64.6962 66.1686 64.6766 65.7739 64.6969 65.3804C64.7509 64.7602 65.0018 64.1723 65.0695 63.554C65.1337 62.9486 65.0201 62.3376 64.7427 61.7967C64.6346 61.5865 64.4991 61.3801 64.4744 61.1451C64.4496 60.9102 64.5842 60.6954 64.8187 60.6715C65.0018 60.4669 65.0164 60.1877 64.9624 59.9112C64.9337 59.7669 64.8908 59.6258 64.8342 59.4901C64.6786 59.1049 64.4817 58.6856 64.6154 58.2921C64.6507 58.2208 64.6665 58.1413 64.6612 58.0618C64.6621 58.0569 64.6621 58.0519 64.6612 58.047C64.63 57.9438 64.5082 57.8987 64.4451 57.8111C64.326 57.648 64.4451 57.4259 64.5183 57.2379C64.5896 57.0359 64.6309 56.8245 64.641 56.6104C64.6511 56.4915 64.6584 56.3717 64.6712 56.2538C64.6891 56.0941 64.7175 55.9359 64.7564 55.7801C64.9788 54.8974 65.5138 54.1267 66.2608 53.6127C66.617 53.3713 67.0135 53.1953 67.377 52.9677C67.7494 52.715 68.1048 52.438 68.441 52.1383C69.2474 51.4625 70.0859 50.8255 70.9564 50.2271C71.8924 49.5838 72.8619 48.9913 73.8609 48.4523C74.0745 48.3362 74.2882 48.2231 74.5018 48.1131C74.7344 47.9903 74.9685 47.8739 75.2041 47.7639C75.9587 47.4017 76.8148 47.5372 77.649 47.7786C77.9988 47.8791 78.344 47.9989 78.6773 48.1076C79.0028 48.2141 79.3159 48.3556 79.6112 48.5297C80.3502 48.9665 80.9609 49.6115 81.2146 50.4261C81.215 50.4314 81.215 50.4366 81.2146 50.4418C81.3757 50.9523 81.3858 51.4997 81.3712 52.0369Z" fill="#F86D70"/>
<path opacity="0.1" d="M81.3712 52.0369C81.3712 52.1199 81.3657 52.2028 81.362 52.2867C81.3457 52.691 81.3087 53.0942 81.2512 53.4948C81.1753 54.0415 81.0424 54.5786 80.8547 55.0973C80.7303 55.4383 80.572 55.7659 80.3822 56.075C80.2139 56.3495 80.0169 56.6049 79.7944 56.8371C79.245 57.4121 78.4538 57.5955 77.6883 57.8378C77.3361 57.9405 76.9957 58.0804 76.6729 58.2553C76.6152 58.2875 76.5584 58.3226 76.5035 58.3594L75.5457 58.998C75.2472 59.1961 74.9423 59.4016 74.7372 59.6956C74.7036 59.7456 74.673 59.7976 74.6456 59.8513C74.516 60.1219 74.4212 60.4081 74.3636 60.7028C73.8654 62.791 73.3664 64.8809 73.0249 67.0004C73.002 67.1405 72.98 67.2815 72.9562 67.4225L72.9479 67.4667C72.9438 67.4562 72.9389 67.446 72.9333 67.4363C70.483 68.9273 67.942 70.2727 65.3241 71.3499L64.7555 66.5581C64.6962 66.1686 64.6766 65.7739 64.6969 65.3804C64.7509 64.7602 65.0018 64.1723 65.0695 63.554C65.1337 62.9486 65.0201 62.3376 64.7427 61.7967C64.6346 61.5865 64.4991 61.3801 64.4744 61.1451C64.4496 60.9102 64.5842 60.6954 64.8187 60.6715C65.0018 60.4669 65.0164 60.1877 64.9624 59.9112C64.9337 59.7669 64.8908 59.6258 64.8342 59.4901C64.6786 59.1049 64.4817 58.6856 64.6154 58.2921C64.6507 58.2208 64.6665 58.1413 64.6612 58.0618C64.6621 58.0569 64.6621 58.0519 64.6612 58.047C64.63 57.9438 64.5082 57.8987 64.4451 57.8111C64.326 57.648 64.4451 57.4259 64.5183 57.2379C64.5896 57.0359 64.6309 56.8245 64.641 56.6104C64.6511 56.4915 64.6584 56.3717 64.6712 56.2538C64.6891 56.0941 64.7175 55.9359 64.7564 55.7801C64.9788 54.8974 65.5138 54.1267 66.2608 53.6127C66.617 53.3713 67.0135 53.1953 67.377 52.9677C67.7494 52.715 68.1048 52.438 68.441 52.1383C69.2474 51.4625 70.0859 50.8255 70.9564 50.2271C71.8924 49.5838 72.8619 48.9913 73.8609 48.4523C74.0745 48.3362 74.2882 48.2231 74.5018 48.1131C74.7344 47.9903 74.9685 47.8739 75.2041 47.7639C75.9587 47.4017 76.8148 47.5372 77.649 47.7786C77.9988 47.8791 78.344 47.9989 78.6773 48.1076C79.0028 48.2141 79.3159 48.3556 79.6112 48.5297C80.3502 48.9665 80.9609 49.6115 81.2146 50.4261C81.215 50.4314 81.215 50.4366 81.2146 50.4418C81.3757 50.9523 81.3858 51.4997 81.3712 52.0369Z" fill="black"/>
<path d="M72.6765 36.773C72.6672 36.7516 72.6537 36.7323 72.6369 36.7163C72.62 36.7002 72.6001 36.6878 72.5783 36.6797C72.5566 36.6716 72.5334 36.668 72.5102 36.6692C72.4871 36.6703 72.4644 36.6761 72.4435 36.6863C72.4226 36.6965 72.404 36.7108 72.3888 36.7285C72.3735 36.7461 72.362 36.7666 72.3549 36.7888C72.3477 36.811 72.3451 36.8345 72.3472 36.8577C72.3493 36.881 72.356 36.9035 72.367 36.9241L72.2754 36.9693L75.0059 42.6015L75.4995 42.3592L72.7689 36.7232L72.6765 36.773Z" fill="#3F3D56"/>
<path d="M76.0907 30.873C79.3273 30.873 81.951 28.2325 81.951 24.9753C81.951 21.7181 79.3273 19.0776 76.0907 19.0776C72.8542 19.0776 70.2305 21.7181 70.2305 24.9753C70.2305 28.2325 72.8542 30.873 76.0907 30.873Z" fill="#FBBEBE"/>
<path d="M83.8237 21.3243C83.7963 20.8555 83.727 20.3901 83.6168 19.9338C83.2725 18.4437 82.6434 16.9766 81.5602 15.9068C81.4934 15.6452 81.4137 15.3872 81.3212 15.1336C81.3195 15.1273 81.3173 15.1212 81.3148 15.1152C80.9917 14.2221 80.5245 13.3886 79.9321 12.6483C79.5887 12.2189 79.1437 11.795 78.5962 11.7784C78.4423 11.7729 78.2793 11.7996 78.1383 11.7287C78.0346 11.6612 77.9473 11.5711 77.8829 11.4651C77.6117 11.1203 77.2521 10.8565 76.8428 10.7024C76.4336 10.5483 75.9902 10.5096 75.5607 10.5906L75.504 10.6026C75.4719 10.609 75.4399 10.6164 75.4124 10.6247C75.3849 10.633 75.3355 10.6468 75.297 10.6588C75.3391 10.7288 75.3803 10.7998 75.4206 10.8716C75.5293 11.0664 75.63 11.2654 75.7228 11.4688C75.7997 11.6383 75.8708 11.8107 75.9362 11.9858C74.9985 12.0936 74.2348 12.7635 73.5371 13.4012L71.8944 14.9014C71.8914 14.9039 71.8887 14.9067 71.8862 14.9097L71.8385 14.9558C71.8266 14.9678 71.8147 14.9797 71.8037 14.9926C71.7993 14.9965 71.7953 15.0008 71.7918 15.0055C71.7781 15.0203 71.7653 15.0359 71.7525 15.0516C71.7296 15.0806 71.7091 15.1114 71.6911 15.1438C71.6821 15.1576 71.6742 15.1721 71.6673 15.1871C71.6648 15.1915 71.6627 15.1961 71.6609 15.2009C71.6549 15.2135 71.6497 15.2264 71.6453 15.2396C71.6449 15.2414 71.6449 15.2433 71.6453 15.2451C71.6428 15.2527 71.6406 15.2604 71.6389 15.2682C71.6202 15.333 71.6258 15.4025 71.6545 15.4635L72.7377 15.4755H72.865C72.8705 15.6211 72.8751 15.7676 72.8806 15.9132C72.7087 16.0427 72.5437 16.1811 72.3861 16.3279C72.2143 16.4879 72.0531 16.6591 71.9036 16.8403C70.9265 18.0281 70.4165 19.5624 70.3652 21.1068C70.3652 21.1548 70.3652 21.199 70.3652 21.2488C70.3652 21.3897 70.3652 21.5307 70.3652 21.6708C70.3652 21.763 70.3735 21.8551 70.3808 21.9473C70.3813 22.0673 70.4128 22.1851 70.4724 22.2891C70.4802 22.3008 70.4887 22.3118 70.498 22.3223C70.5529 22.3823 70.6189 22.4311 70.6921 22.4661L70.7709 22.5048C70.8102 22.5241 70.8478 22.5426 70.8844 22.5638C71.2296 22.76 71.4338 23.1388 71.7479 23.3821C71.7662 23.3959 71.7845 23.4097 71.8028 23.4217L71.844 23.4493L71.8697 23.4659L71.9045 23.4862C71.9273 23.5 71.9508 23.5126 71.975 23.524L72.0189 23.5461H72.0263C72.0629 23.5627 72.0995 23.5783 72.137 23.5922L72.1892 23.6106L72.2048 23.6161C72.2195 23.6207 72.235 23.6263 72.2506 23.6299C72.2817 23.6392 72.3122 23.6474 72.3422 23.6548L72.4337 23.6751C72.4694 23.6815 72.5061 23.688 72.5427 23.6926L72.5967 23.7L72.6517 23.7055C72.7389 23.7135 72.8269 23.7181 72.9154 23.7193C73.1931 23.7176 73.4705 23.6982 73.7459 23.6613L76.0827 23.3848C76.6128 23.3231 77.154 23.2613 77.6768 23.3701C78.12 23.4622 78.5284 23.6742 78.9588 23.8244C79.0558 23.8585 79.1529 23.8898 79.2509 23.9165C79.2866 23.9267 79.3232 23.9377 79.3598 23.9469L79.4102 23.9598L79.5274 23.9884C79.5695 23.9985 79.6116 24.0087 79.6538 24.017C79.7133 24.0299 79.7719 24.0409 79.8314 24.052C79.8717 24.0603 79.9129 24.0667 79.9541 24.0741H79.9623L80.0795 24.0925H80.1079L80.1949 24.1045C80.237 24.111 80.2792 24.1165 80.3222 24.1211C80.4156 24.1328 80.509 24.1429 80.6024 24.1515C80.7535 24.1663 80.9055 24.1773 81.0602 24.1865L81.2122 24.1957L81.3642 24.2031L81.8221 24.2234H81.8422H81.9063C82.0966 24.2367 82.2879 24.2268 82.4759 24.1939C82.5088 24.1875 82.5409 24.1801 82.5729 24.1709C82.605 24.1617 82.6315 24.1524 82.6645 24.1414C83.0079 24.0087 83.2587 23.7037 83.4327 23.3774C83.4693 23.3083 83.5032 23.2392 83.5344 23.1683C83.5655 23.0973 83.5939 23.0254 83.6195 22.9536C83.6516 22.8614 83.679 22.7739 83.7028 22.6817C83.7102 22.6568 83.7166 22.6319 83.7221 22.6061C83.7276 22.5803 83.7404 22.5297 83.7477 22.491C83.7706 22.385 83.788 22.2781 83.8008 22.1703C83.8008 22.1362 83.8091 22.1012 83.8127 22.0671C83.821 21.9749 83.8274 21.8892 83.831 21.7989C83.831 21.7307 83.831 21.6616 83.831 21.5925C83.8301 21.5178 83.8237 21.4192 83.8237 21.3243ZM81.4759 15.8229C81.4018 15.7529 81.3258 15.6856 81.2489 15.622C81.3344 15.6764 81.4108 15.7442 81.475 15.8229H81.4759Z" fill="#464353"/>
<path d="M64.8438 24.6511C64.1543 24.5654 63.4703 24.2613 62.79 24.4106C62.3642 24.5028 61.9979 24.7691 61.6573 25.0428C60.3897 26.0652 59.3118 27.3053 58.4735 28.7058C58.3314 28.9151 58.2315 29.1506 58.1796 29.3987C58.1356 29.6862 58.2135 29.9784 58.3059 30.2539C58.9323 32.1163 60.2719 33.6718 60.8817 35.5397C61.5227 37.5043 61.3002 39.6514 60.8277 41.664C60.242 44.1486 59.2901 46.531 58.0038 48.732C57.8291 49.0593 57.6103 49.3607 57.3537 49.6277C57.0204 49.9502 56.5726 50.1806 56.3748 50.6027C56.2832 50.787 56.2567 50.9971 56.1917 51.1943C56.0085 51.7472 55.5654 52.2208 55.5223 52.8042C55.4903 53.2492 55.7 53.6704 55.8272 54.0943C56.0419 54.8225 56.0191 55.6008 55.7622 56.3151C55.298 57.596 54.0838 58.7608 54.4363 60.0776C55.2229 59.85 56.0946 59.5542 56.4655 58.8198C56.5964 58.5599 56.6614 58.2503 56.8821 58.0604C57.3225 57.6835 58.0724 58.0245 58.5404 57.678C58.8938 57.4145 58.9066 56.8745 58.7491 56.4598C58.5916 56.0451 58.3206 55.6802 58.1997 55.2535C57.9891 54.4841 58.3261 53.6704 58.2638 52.8751C58.2345 52.5065 58.1219 52.1536 58.1137 51.7868C58.0981 51.0745 58.49 50.4045 59.011 49.9207C59.532 49.437 60.1757 49.1163 60.8094 48.8002L63.2048 47.6022C64.0737 47.1691 65.026 46.6411 65.3108 45.7085C65.4188 45.3593 65.4198 44.987 65.4252 44.6221C65.5067 39.046 66.8949 33.5824 68.2748 28.1814C68.4891 27.3447 68.707 26.5043 69.0256 25.7007C69.3443 24.8972 69.9679 24.2521 70.2856 23.5057C68.4424 23.2882 66.7585 24.8926 64.8438 24.6511Z" fill="#464353"/>
<path d="M78.0487 59.6324C78.2602 60.9226 78.3893 62.2403 78.49 63.5516C76.8418 64.9265 75.0673 66.1226 73.2643 67.2321C73.1618 67.2957 73.0583 67.3584 72.9548 67.4164L72.9466 67.4607C72.9425 67.4502 72.9376 67.44 72.932 67.4303C72.7921 67.1261 72.5475 66.8832 72.2434 66.7465C71.5676 65.3182 70.8925 63.8898 70.2179 62.4615C69.8517 61.6902 69.4854 60.9115 69.3023 60.0794C69.3023 60.0619 69.294 60.0434 69.2913 60.0259C69.1521 59.3809 69.12 58.7109 69.0276 58.0576C68.9807 57.6834 68.897 57.3148 68.7776 56.9573C68.6677 56.6394 68.5166 56.3307 68.3829 56.0201C68.2181 55.6368 68.0798 55.2488 68.0734 54.8351C68.0734 54.7033 68.0817 54.5586 68.0176 54.448C67.949 54.3528 67.8644 54.2705 67.7676 54.2048C67.6467 54.0969 67.5551 53.9599 67.5013 53.8066C67.4474 53.6533 67.4332 53.4887 67.4599 53.3284C66.9105 53.357 66.601 53.9513 66.3804 54.4554C66.1797 54.9484 65.9163 55.4131 65.5965 55.8377C65.3635 56.141 65.0672 56.3892 64.7285 56.5647C64.6983 56.5795 64.6681 56.5942 64.6369 56.6071C63.8724 56.9462 62.9796 56.8264 62.1509 56.6735C61.4266 56.5399 60.6776 56.374 60.0952 55.9206L60.033 55.8708C59.8606 55.7267 59.7068 55.5613 59.5751 55.3788C59.0871 54.7079 58.871 53.8242 58.751 52.9828C58.74 52.9036 58.7291 52.8243 58.719 52.7451C58.6357 52.1506 58.6127 51.5491 58.6503 50.95C58.6613 50.8025 58.6769 50.6551 58.6961 50.5086C58.7089 50.4164 58.7226 50.3169 58.7382 50.2211C58.7378 50.2183 58.7378 50.2155 58.7382 50.2128C58.762 50.0607 58.7877 49.9078 58.8133 49.752C58.9049 49.2295 58.9964 48.6932 59.2711 48.2435C59.4519 47.9637 59.68 47.7179 59.9451 47.5174C60.044 47.439 60.1456 47.3644 60.2481 47.2925C60.4148 47.1764 60.586 47.0658 60.76 46.9617C61.1977 46.698 61.6573 46.4729 62.1335 46.289C62.247 46.2447 62.3624 46.2033 62.4778 46.1637C62.9263 46.0031 63.4089 45.9646 63.8769 46.0522C64.2916 46.1126 64.7107 46.1372 65.1296 46.1259C66.2036 46.1047 67.2823 45.8983 68.3545 45.7646C69.8434 45.5803 71.4431 45.5582 72.7415 46.3175C72.8038 46.3535 72.8642 46.3913 72.9246 46.4309C73.5656 46.8529 74.082 47.4446 74.4987 48.1053C74.5902 48.2444 74.6699 48.3873 74.7486 48.5319C74.9301 48.864 75.0943 49.2055 75.2403 49.5548C75.3268 49.7264 75.3734 49.9154 75.3768 50.1077C75.3747 50.1443 75.3698 50.1806 75.3621 50.2165C75.3374 50.3473 75.288 50.4745 75.2706 50.6072C75.2129 51.1094 75.6368 51.5287 75.7952 52.0069C75.8978 52.3184 75.8868 52.652 75.9445 52.9801C76.0278 53.4408 76.2522 53.8555 76.4536 54.2702C76.7719 54.9377 77.0442 55.6264 77.2685 56.3316C77.4279 56.8228 77.5643 57.3213 77.6843 57.8244C77.7233 57.986 77.7603 58.1479 77.7951 58.3101C77.8949 58.7561 77.9764 59.1929 78.0487 59.6324Z" fill="#F86D70"/>
<path d="M87.8111 45.9858V46.6308L87.693 46.629L87.5611 46.6272L86.0887 46.6087L82.4608 46.5608L81.4426 46.5479L81.1789 46.5442L79.6506 46.5249L77.497 46.4963L72.9278 46.4364L64.9991 46.3332L62.1376 46.2963L60.9894 46.2816L59.9327 46.2678L59.2743 46.2586L58.6507 46.2503L54.0275 46.1904L52.7456 46.1738L52.4663 46.1701L52.285 45.6992L50.9674 42.2795L50.7266 41.6547L50.9097 40.9175L51.7338 41.4704L52.2411 41.534L60.5929 42.579L62.1605 42.7752L65.4844 43.1918L68.7405 43.5991L70.0169 43.7585L77.5703 44.704L79.6809 44.9684L81.428 45.1868L87.6398 45.9646L87.8111 45.9858Z" fill="#3F3D56"/>
<path d="M50.9082 40.9175L52.5564 45.2486L87.8096 45.9858V41.2861L50.9082 40.9175Z" fill="#504F60"/>
<path d="M52.7402 45.7095L53.0149 72.1568L54.2969 71.9725L54.0222 45.7095H52.7402Z" fill="#3F3D56"/>
<path d="M87.692 46.6282H87.5601C87.3466 48.2771 86.9934 49.9046 86.5043 51.4929L86.0877 46.6089L86.0703 46.4006L87.6105 46.2218L87.6617 46.2163L87.692 46.6282Z" fill="#3F3D56"/>
<path d="M82.6824 43.498L69.2678 43.7744L65.1016 42.3921L76.2727 41.7471L82.6824 43.498Z" fill="white"/>
<path d="M65.8554 38.124C65.7132 38.1789 65.5871 38.2692 65.4891 38.3866C65.4125 38.5137 65.3658 38.6569 65.3527 38.805L65.1274 40.1568C65.0931 40.2805 65.0992 40.412 65.1448 40.5319C65.2034 40.6452 65.3737 40.7042 65.4589 40.6102C65.4479 40.8747 65.4708 41.1567 65.6237 41.3723C65.7766 41.5879 66.0971 41.7013 66.3132 41.5511C66.3471 41.6066 66.3926 41.6541 66.4465 41.6903C66.5005 41.7264 66.5616 41.7503 66.6256 41.7602C66.6896 41.7702 66.755 41.7661 66.8173 41.7481C66.8796 41.7301 66.9372 41.6988 66.9862 41.6561C66.8562 41.7004 66.847 41.9003 66.9395 42.0017C67.0431 42.0937 67.1751 42.1468 67.3131 42.1519C68.9222 42.3802 70.5627 42.1724 72.0654 41.5501C72.2074 41.4912 71.8338 39.7302 71.7962 39.5496C71.7047 39.1247 71.6589 38.6059 71.3027 38.3203C70.4511 37.6365 68.9384 37.502 67.901 37.583C67.1922 37.637 66.499 37.8203 65.8554 38.124Z" fill="#FBBEBE"/>
<path opacity="0.1" d="M79.5057 38.3279C76.1938 38.3914 72.8131 38.4458 69.6522 37.4478C69.9542 38.6253 69.9333 39.8632 69.5918 41.0297L85.0776 42.3198C85.7341 42.3742 88.4564 42.6838 89.0964 42.5281C89.7365 42.3724 83.726 40.3801 83.9687 39.7636C84.6362 38.0652 86.8723 37.07 85.2616 37.0064C83.2288 36.9253 81.5541 38.2891 79.5057 38.3279Z" fill="black"/>
<path d="M79.5956 38.5124C76.2836 38.576 72.903 38.6304 69.7421 37.6324C70.044 38.8099 70.0231 40.0478 69.6816 41.2143L85.1674 42.5044C85.8239 42.5588 88.5462 42.873 89.1863 42.7127C89.8263 42.5523 89.6762 41.7626 89.9188 41.1461C90.5863 39.4478 86.9621 37.2546 85.3515 37.191C83.3187 37.1099 81.6439 38.4737 79.5956 38.5124Z" fill="#464353"/>
<path d="M74.3291 38.769C74.4714 38.8238 74.5974 38.9142 74.6954 39.0316C74.7719 39.1589 74.8188 39.3019 74.8327 39.45L75.058 40.8018C75.0919 40.9256 75.0858 41.0569 75.0406 41.1769C74.982 41.2902 74.8107 41.3492 74.7265 41.2552C74.7366 41.5197 74.7146 41.8017 74.5617 42.0173C74.4088 42.233 74.0883 42.3463 73.8713 42.1961C73.8374 42.2517 73.7919 42.2992 73.7379 42.3353C73.684 42.3714 73.6229 42.3953 73.5589 42.4053C73.4949 42.4153 73.4295 42.4111 73.3672 42.3931C73.3049 42.3752 73.2473 42.3438 73.1982 42.3011C73.3283 42.3454 73.3383 42.5453 73.2459 42.6467C73.1419 42.7387 73.0097 42.7918 72.8714 42.7969C71.2626 43.0252 69.6224 42.8175 68.12 42.1952C67.978 42.1362 68.3507 40.3752 68.3892 40.1946C68.4807 39.7698 68.5265 39.2509 68.8827 38.9653C69.7334 38.2815 71.247 38.147 72.2844 38.2281C72.9929 38.2821 73.6858 38.4654 74.3291 38.769Z" fill="#FBBEBE"/>
<path d="M52.4448 35.8338C52.1408 36.2282 51.8359 36.6309 51.6399 37.0907C51.2654 37.968 51.3204 38.9614 51.3826 39.9142C51.4 40.1907 51.422 40.4727 51.5658 40.7021C51.69 40.8755 51.854 41.0161 52.0437 41.1122C52.8367 41.5656 53.7652 41.701 54.6717 41.8024C56.0598 41.9572 57.4529 42.0515 58.8508 42.0853C62.3139 42.1701 65.83 41.8854 69.2033 42.6751C68.7858 42.0365 68.7867 41.1915 69.0202 40.4635C69.2537 39.7355 69.7033 39.1015 70.1437 38.4776C68.5999 37.9855 66.9444 38.7541 65.3273 38.6776C63.6672 38.5992 62.1307 37.6335 60.4688 37.6344C60.1117 37.6344 59.7482 37.6796 59.4011 37.593C59.0541 37.5063 58.718 37.2428 58.686 36.8843C59.1292 36.9848 59.5495 36.6033 59.7326 36.1849C59.9157 35.7665 59.9487 35.2938 60.1263 34.8727C60.5686 33.8249 61.7635 33.3393 62.5071 32.4767C62.6243 32.3403 62.7351 32.1791 62.7314 31.9985C62.7139 31.8455 62.65 31.7016 62.5483 31.5865C61.9302 30.7572 60.999 30.2964 60.2252 29.6514C59.956 29.4265 59.413 28.5787 59.1109 28.5004C58.5505 28.3557 58.0752 29.1703 57.7108 29.5675C55.8709 31.5795 54.1156 33.6682 52.4448 35.8338Z" fill="#464353"/>
<path opacity="0.07" d="M70.8574 35.5996C71.0895 35.7728 71.2958 35.9786 71.47 36.2106C71.5568 36.3271 71.6186 36.4605 71.6516 36.6023C71.6845 36.7441 71.6879 36.8912 71.6614 37.0344C71.633 36.7673 71.6921 36.4982 71.8298 36.2681C71.9675 36.038 72.1762 35.8596 72.4241 35.76L70.8574 35.5996Z" fill="black"/>
<g opacity="0.1">
<path opacity="0.1" d="M75.936 11.434C75.8283 11.146 75.7042 10.8645 75.5642 10.5908C75.4738 10.6083 75.3845 10.6314 75.2969 10.6599C75.454 10.9225 75.5955 11.1942 75.7208 11.4736C75.7913 11.4552 75.8628 11.4423 75.936 11.434Z" fill="black"/>
<path opacity="0.1" d="M81.248 15.0674C81.2732 15.0878 81.2974 15.1111 81.3216 15.1325C81.3198 15.1264 81.3176 15.1205 81.3151 15.1148C81.294 15.0993 81.2716 15.0835 81.248 15.0674Z" fill="black"/>
<path opacity="0.1" d="M72.737 15.4728C72.7846 15.435 72.8285 15.3954 72.8798 15.3585L72.8652 14.9208L71.8872 14.9106C71.7288 15.0572 71.5603 15.2673 71.6537 15.4636L72.737 15.4728Z" fill="black"/>
<path opacity="0.1" d="M83.4286 22.8412C83.2546 23.1674 83.0038 23.4734 82.6604 23.6051C82.3958 23.7065 82.1046 23.6973 81.8216 23.6844C80.8565 23.6448 79.8749 23.6014 78.9629 23.2798C78.5362 23.1287 78.1278 22.9177 77.681 22.8246C77.1581 22.7159 76.617 22.7776 76.0868 22.8403L73.75 23.1167C73.0605 23.1978 72.2923 23.2586 71.742 22.8329C71.427 22.5896 71.2237 22.2109 70.8785 22.0155C70.7329 21.9326 70.5598 21.8792 70.4655 21.7391C70.406 21.6351 70.3744 21.5172 70.374 21.3972C70.3666 21.3004 70.3621 21.2037 70.3584 21.1069C70.3485 21.3881 70.3537 21.6695 70.374 21.9501C70.3744 22.0701 70.406 22.188 70.4655 22.292C70.5571 22.4311 70.7329 22.4846 70.8785 22.5684C71.2237 22.7638 71.4279 23.1425 71.742 23.3858C72.2914 23.8116 73.0605 23.7544 73.75 23.6696L76.0868 23.3932C76.617 23.3305 77.1581 23.2688 77.681 23.3775C78.1242 23.4697 78.5326 23.6816 78.9629 23.8327C79.8786 24.1544 80.8565 24.2013 81.8216 24.2373C82.1046 24.2493 82.3958 24.2594 82.6604 24.158C83.0038 24.0263 83.2546 23.7203 83.4286 23.3941C83.7656 22.7629 83.8599 22.0469 83.8242 21.3253C83.8046 21.8537 83.6695 22.3713 83.4286 22.8412Z" fill="black"/>
</g>
<path opacity="0.1" d="M75.9102 12.0269L77.1921 13.2248C77.1921 13.2248 76.0933 12.7641 75.9102 12.0269Z" fill="black"/>
</g>
<defs>
<clipPath id="clip0">
<rect width="90" height="74" fill="white"/>
</clipPath>
</defs>
</svg>
