<svg width="118" height="97" viewBox="0 0 118 97" fill="none" xmlns="http://www.w3.org/2000/svg">
<path opacity="0.1" d="M68.6178 19.7165C61.2147 19.4591 54.1627 17.07 47.4298 14.4555C40.697 11.8411 34.0282 8.9441 26.8024 7.55909C22.1548 6.66816 16.8392 6.54235 13.0953 9.0333C9.49099 11.435 8.32652 15.5695 7.70082 19.41C7.22955 22.2989 6.95273 25.3388 8.24416 28.0437C9.13982 29.9216 10.7309 31.4999 11.8302 33.3046C15.6588 39.5629 12.9535 47.2805 8.80466 53.3912C6.86008 56.2584 4.60092 58.9952 3.10016 62.0443C1.5994 65.0934 0.903924 68.5919 2.21709 71.705C3.51996 74.793 6.62329 77.1078 9.984 78.7376C16.8118 82.0485 24.8544 82.9955 32.7025 83.5319C50.0699 84.7202 67.5289 84.2055 84.9421 83.6909C91.3866 83.4999 97.8587 83.3066 104.198 82.3104C107.719 81.7569 111.353 80.8797 113.91 78.7593C117.154 76.0682 117.958 71.5106 115.784 68.1367C112.137 62.4766 102.058 61.071 99.5047 54.9958C98.1023 51.6528 99.5436 47.9289 101.582 44.8273C105.956 38.1756 113.287 32.3393 113.674 24.7361C113.939 19.5129 110.414 14.284 104.964 11.8125C99.2531 9.21286 91.3306 9.54224 87.1188 13.8299C82.779 18.248 75.1539 19.9429 68.6178 19.7165Z" fill="#1482D1"/>
<path d="M49.8104 82.971L10.6579 82.78L6.76758 73.6568L20.5238 72.6584L18.1262 62.6557L45.3344 59.1297L19.2804 50.074L21.5819 49.5273L63.4763 56.3609L61.1691 71.9711L57.8713 80.5498L49.8104 82.971Z" fill="#1482D1"/>
<path d="M11.2578 78.9592C11.2578 78.9592 13.6599 78.5749 15.1012 80.2722C15.1012 80.2722 14.0443 81.1048 11.7703 79.9519L11.2578 78.9592Z" fill="#1482D1"/>
<path d="M11.0064 78.9219C11.0064 78.9219 9.47361 80.8078 10.2286 82.9076C10.2286 82.9076 11.4777 82.4078 11.6138 79.862L11.0064 78.9219Z" fill="#1482D1"/>
<path d="M9.62891 75.8209C9.62891 75.8209 10.5898 74.0584 14.4332 76.5254C14.4332 76.5254 13.9207 77.7102 12.2232 77.6142C10.5257 77.5181 10.0773 76.7495 9.62891 75.8209Z" fill="#1482D1"/>
<path d="M9.3824 75.6943C9.3824 75.6943 7.38863 75.4655 7.19531 80.0289C7.19531 80.0289 8.45929 80.2908 9.35723 78.8474C10.2552 77.4041 9.88685 76.5944 9.3824 75.6943Z" fill="#1482D1"/>
<path d="M8.21875 72.0534C8.21875 72.0534 9.33975 68.9472 13.4074 71.1568C13.4074 71.1568 12.4785 74.0069 8.63512 73.1102L8.21875 72.0534Z" fill="#1482D1"/>
<path d="M6.9707 67.4104C6.9707 67.4104 9.08458 64.2721 12.8319 67.1817C12.8319 67.1817 11.5187 70.1278 7.29099 68.5267L6.9707 67.4104Z" fill="#1482D1"/>
<path d="M6.52344 62.9914C6.52344 62.9914 8.98963 60.1082 12.7004 62.9914C12.7004 62.9914 10.3623 65.5213 6.52344 63.7279V62.9914Z" fill="#1482D1"/>
<path d="M6.13672 58.6991C6.13672 58.6991 8.63494 55.6889 12.1901 58.539C12.1901 58.539 9.37159 61.1969 6.13672 59.4036V58.6991Z" fill="#1482D1"/>
<path d="M6.36328 54.8882C6.36328 54.8882 8.99419 51.0134 12.3206 53.6393C12.3206 53.6393 9.50207 56.9697 6.36328 55.6248V54.8882Z" fill="#1482D1"/>
<path d="M6.9707 50.4368C6.9707 50.4368 9.75718 46.5941 12.9921 49.5402C12.9921 49.5402 9.69312 52.8706 6.9707 51.1414V50.4368Z" fill="#1482D1"/>
<path d="M7.89803 46.4579C7.89803 46.4579 11.197 42.8461 14.075 44.2849C14.075 44.2849 10.6376 48.1208 7.75391 47.4163L7.89803 46.4579Z" fill="#1482D1"/>
<path d="M9.05316 42.6867C9.05316 42.6867 12.86 38.2629 15.0745 39.7405C15.0745 39.7405 12.2697 43.1716 8.7832 43.5147L9.05316 42.6867Z" fill="#1482D1"/>
<path d="M10.7168 38.3113C10.7168 38.3113 14.0489 34.6995 16.4831 35.5962C16.4831 35.5962 13.6325 39.3429 10.2695 39.439L10.7168 38.3113Z" fill="#1482D1"/>
<path d="M12.2226 34.2197C12.2226 34.2197 15.9059 30.7612 17.5073 31.3697C17.5073 31.3697 14.849 35.2124 12.0625 34.9883L12.2226 34.2197Z" fill="#1482D1"/>
<path d="M13.6953 30.4409C13.6953 30.4409 16.8661 26.3088 18.5968 26.629C18.5968 26.629 16.674 30.3128 13.6953 30.8607V30.4409Z" fill="#1482D1"/>
<path d="M15.2952 25.3456C15.2952 25.3456 18.0977 22.1787 19.6122 22.1856C19.6122 22.1856 17.3999 26.4172 15.1797 26.3783L15.2952 25.3456Z" fill="#1482D1"/>
<path d="M16.2427 21.9532L18.9503 15.3564C18.9503 15.3564 19.0853 21.3196 15.8984 23.177L16.2427 21.9532Z" fill="#1482D1"/>
<path d="M17.3425 14.6782C17.3425 14.6782 17.7909 9.16903 17.5027 8.7207C17.5027 8.7207 19.4381 13.3012 17.3242 17.1119L17.3425 14.6782Z" fill="#1482D1"/>
<path d="M8.11492 71.9809C8.11492 71.9809 5.30785 70.2413 3.49023 74.497C3.49023 74.497 5.98846 76.1553 8.4455 73.0662L8.11492 71.9809Z" fill="#1482D1"/>
<path d="M6.88069 67.2332C6.88069 67.2332 3.43763 65.6629 1.76758 70.1061C1.76758 70.1061 4.42708 71.936 7.19412 68.3563L6.88069 67.2332Z" fill="#1482D1"/>
<path d="M6.36247 63.2561C6.36247 63.2561 3.89627 60.3728 0.185547 63.2561C0.185547 63.2561 2.52363 65.7859 6.36247 63.9926V63.2561Z" fill="#1482D1"/>
<path d="M6.05338 58.6991C6.05338 58.6991 3.55516 55.6889 0 58.539C0 58.539 2.81851 61.1969 6.05338 59.4036V58.6991Z" fill="#1482D1"/>
<path d="M6.3623 54.9977C6.3623 54.9977 4.60988 50.6574 0.800781 52.5239C0.800781 52.5239 2.85975 56.3724 6.20673 55.7182L6.3623 54.9977Z" fill="#1482D1"/>
<path d="M7.19092 50.4151C7.19092 50.4151 5.4488 45.9993 1.58594 48.0465C1.58594 48.0465 3.95147 52.094 7.01934 51.0967L7.19092 50.4151Z" fill="#1482D1"/>
<path d="M8.27198 46.4798C8.27198 46.4798 7.58566 41.6385 4.38281 41.2051C4.38281 41.2051 5.06227 46.3105 7.84074 47.3524L8.27198 46.4798Z" fill="#1482D1"/>
<path d="M9.13448 42.6956C9.13448 42.6956 8.86682 36.8628 6.21875 36.6592C6.21875 36.6592 6.30797 41.0864 8.83593 43.5213L9.13448 42.6956Z" fill="#1482D1"/>
<path d="M10.9911 38.1479C10.9911 38.1479 10.2018 33.2975 7.67383 32.7051C7.67383 32.7051 7.98725 37.4022 10.7406 39.3385L10.9911 38.1479Z" fill="#1482D1"/>
<path d="M12.5248 34.2599C12.5248 34.2599 12.4985 29.2071 10.9543 28.4648C10.9543 28.4648 9.99685 33.0396 12.0776 34.9049L12.5248 34.2599Z" fill="#1482D1"/>
<path d="M13.8141 30.384C13.8141 30.384 13.5979 25.1813 11.9987 24.4482C11.9987 24.4482 11.452 28.5655 13.575 30.7248L13.8141 30.384Z" fill="#1482D1"/>
<path d="M15.5197 25.7605C15.5197 25.7605 15.5106 21.5289 14.369 20.5361C14.369 20.5361 13.2343 25.1715 14.9238 26.6114L15.5197 25.7605Z" fill="#1482D1"/>
<path d="M16.1093 21.745L14.9986 14.7021C14.9986 14.7021 13.4898 20.4732 16.1619 23.0167L16.1093 21.745Z" fill="#1482D1"/>
<path d="M16.3243 14.7453C16.3243 14.7453 13.4738 10.0105 13.5321 9.48438C13.5321 9.48438 13.8353 14.4468 17.4213 16.9183L16.3243 14.7453Z" fill="#1482D1"/>
<path d="M16.6594 13.3464C16.6594 13.3464 13.969 6.62154 12.752 6.07715C12.752 6.07715 16.5954 8.03056 16.8836 13.1543L16.6594 13.3464Z" fill="#1482D1"/>
<path d="M15.1666 26.4184L14.9824 26.3623C17.253 18.9593 17.8192 14.2393 16.5781 13.0555L16.7097 12.916C18.0263 14.1649 17.4921 18.8334 15.1666 26.4184Z" fill="#444053"/>
<path d="M8.91287 43.7516L8.64062 43.6544C8.88198 42.9762 9.14164 42.2877 9.41388 41.6095C11.784 35.7035 13.8018 30.2092 15.0955 25.9913L15.3323 25.877C14.0363 30.1029 12.0539 35.8076 9.68155 41.7216C9.41045 42.3872 9.15194 43.0723 8.91287 43.7516Z" fill="#444053"/>
<path d="M14.6418 84.4994C14.6052 84.4594 10.9254 80.3158 8.35969 73.2421C6.85633 69.1007 6.01967 64.7471 5.88091 60.3436C5.70475 54.839 6.86007 48.6929 8.83897 43.1094L9.05402 43.361C4.61121 55.8924 6.37621 66.6304 8.71772 73.0968C11.256 80.1065 14.8946 84.2043 14.9301 84.2455L14.6418 84.4994Z" fill="#444053"/>
<path d="M72.1481 75.7021C72.1481 75.7021 69.555 78.8667 71.6139 83.6508L50.9098 92.6287L48.9229 93.045L48.0078 89.0421L48.6198 83.9904V81.2296L72.1481 75.7021Z" fill="#D5D6DB"/>
<path d="M6.76758 73.6568L35.4239 68.4336L73.3948 74.4814L49.8104 82.971L6.76758 73.6568Z" fill="#1482D1"/>
<path d="M6.76758 73.6568L35.4239 68.4336L73.3948 74.4814L49.8104 82.971L6.76758 73.6568Z" fill="#1482D1"/>
<path d="M6.76629 73.6562C6.76629 73.6562 4.08619 78.7331 7.17465 83.4222L49.6696 92.6289C49.6696 92.6289 47.0318 88.5848 49.8057 82.9716L6.76629 73.6562Z" fill="#1482D1"/>
<path opacity="0.1" d="M6.76629 73.6562C6.76629 73.6562 4.08619 78.7331 7.17465 83.4222L49.6696 92.6289C49.6696 92.6289 47.0318 88.5848 49.8057 82.9716L6.76629 73.6562Z" fill="black"/>
<path opacity="0.1" d="M8.03229 75.416C8.03229 75.416 6.50065 79.1307 8.03229 81.5347V75.416Z" fill="black"/>
<path d="M49.6707 92.6285L73.3946 82.5068C73.3946 82.5068 74.7215 82.7928 73.8636 83.7649C73.0057 84.737 50.1282 93.6006 50.1282 93.6006L7.17578 83.4218L49.6707 92.6285Z" fill="#1482D1"/>
<path opacity="0.1" d="M49.6707 92.6285L73.3946 82.5068C73.3946 82.5068 74.7215 82.7928 73.8636 83.7649C73.0057 84.737 50.1282 93.6006 50.1282 93.6006L7.17578 83.4218L49.6707 92.6285Z" fill="black"/>
<path opacity="0.1" d="M47.7258 83.9941C47.7258 83.9941 45.438 86.739 47.7258 90.8563V83.9941Z" fill="black"/>
<path opacity="0.1" d="M58.8006 83.9481L48.5391 87.3711L48.5753 87.4796L58.8368 84.0566L58.8006 83.9481Z" fill="black"/>
<path opacity="0.1" d="M60.8573 83.6069L48.5371 88.291L48.5778 88.3979L60.8979 83.7138L60.8573 83.6069Z" fill="black"/>
<path opacity="0.1" d="M62.7445 83.5906L48.6055 89.377L48.6488 89.4828L62.7878 83.6964L62.7445 83.5906Z" fill="black"/>
<path opacity="0.1" d="M64.7961 83.0945L48.7695 90.333L48.8166 90.4372L64.8432 83.1988L64.7961 83.0945Z" fill="black"/>
<path opacity="0.1" d="M66.5226 83.0976L48.8984 90.7998L48.9443 90.9046L66.5684 83.2024L66.5226 83.0976Z" fill="black"/>
<path opacity="0.1" d="M70.2944 82.4571L49.1641 91.582L49.2094 91.687L70.3398 82.5621L70.2944 82.4571Z" fill="black"/>
<path opacity="0.3" d="M17.4141 74.215L37.5462 69.9834L49.8109 72.328L33.3139 77.6461L17.4141 74.215Z" fill="white"/>
<path d="M73.3945 74.4814C73.3945 74.4814 74.4354 74.9012 73.8246 75.5497C73.2137 76.1981 49.8066 82.971 49.8066 82.971L73.3945 74.4814Z" fill="#1482D1"/>
<path d="M83.5044 64.7021C83.5044 64.7021 80.9124 67.8656 82.9714 72.6508L62.2672 81.6287L60.2803 82.0473L59.3652 78.0444L59.9864 72.9939V70.2296L83.5044 64.7021Z" fill="#D5D6DB"/>
<path d="M18.125 62.6566L46.7802 57.4346L84.7522 63.4824L61.1678 71.972L18.125 62.6566Z" fill="#3A3768"/>
<path d="M18.1226 62.6562C18.1226 62.6562 15.4413 67.7331 18.5298 72.4222L61.0247 81.6289C61.0247 81.6289 58.3881 77.5814 61.1654 71.9704L18.1226 62.6562Z" fill="#3A3768"/>
<path opacity="0.1" d="M18.1226 62.6562C18.1226 62.6562 15.4413 67.7331 18.5298 72.4222L61.0247 81.6289C61.0247 81.6289 58.3881 77.5814 61.1654 71.9704L47.7272 69.062L18.1226 62.6562Z" fill="black"/>
<path opacity="0.1" d="M19.3912 64.416C19.3912 64.416 17.8607 68.1296 19.3912 70.5347V64.416Z" fill="black"/>
<path d="M61.0281 81.6294L84.7532 71.5078C84.7532 71.5078 86.079 71.7937 85.2211 72.7659C84.3632 73.738 61.4857 82.6016 61.4857 82.6016L18.5332 72.4228L61.0281 81.6294Z" fill="#3A3768"/>
<path opacity="0.1" d="M61.0281 81.6294L84.7532 71.5078C84.7532 71.5078 86.079 71.7937 85.2211 72.7659C84.3632 73.738 61.4857 82.6016 61.4857 82.6016L18.5332 72.4228L61.0281 81.6294Z" fill="black"/>
<path opacity="0.1" d="M59.0832 72.9941C59.0832 72.9941 56.7954 75.739 59.0832 79.8563V72.9941Z" fill="black"/>
<path opacity="0.1" d="M70.16 72.9491L59.8984 76.3721L59.9346 76.4806L70.1962 73.0576L70.16 72.9491Z" fill="black"/>
<path opacity="0.1" d="M72.2167 72.6078L59.8965 77.292L59.9371 77.3989L72.2573 72.7147L72.2167 72.6078Z" fill="black"/>
<path opacity="0.1" d="M74.1038 72.5896L59.9648 78.376L60.0082 78.4818L74.1472 72.6955L74.1038 72.5896Z" fill="black"/>
<path opacity="0.1" d="M76.1575 72.0945L60.1309 79.333L60.1779 79.4372L76.2045 72.1988L76.1575 72.0945Z" fill="black"/>
<path opacity="0.1" d="M77.8781 72.0956L60.2539 79.7979L60.2997 79.9026L77.9239 72.2004L77.8781 72.0956Z" fill="black"/>
<path opacity="0.1" d="M81.6518 71.4552L60.5215 80.5801L60.5668 80.6851L81.6972 71.5601L81.6518 71.4552Z" fill="black"/>
<path opacity="0.45" d="M28.7734 63.215L48.9056 58.9834L61.1702 61.328L44.6733 66.6461L28.7734 63.215Z" fill="white"/>
<path d="M84.7524 63.4824C84.7524 63.4824 85.7921 63.9022 85.1825 64.5495C84.5728 65.1968 61.168 71.9709 61.168 71.9709L84.7524 63.4824Z" fill="#3A3768"/>
<path d="M84.581 52.1182C84.581 52.1182 81.9879 57.7989 84.0469 62.5829L63.3427 69.0447L61.3604 69.4645L60.4453 65.4615L61.0573 60.4099V57.6456L84.581 52.1182Z" fill="#D5D6DB"/>
<path d="M19.2031 50.0738L47.8594 44.8506L85.8315 50.8984L62.2459 59.388L19.2031 50.0738Z" fill="#1482D1"/>
<path d="M19.205 50.0723C19.205 50.0723 16.5204 55.1491 19.6088 59.8382L62.1037 69.0449C62.1037 69.0449 59.4659 64.9974 62.2433 59.3876L19.205 50.0723Z" fill="#1482D1"/>
<path opacity="0.1" d="M19.205 50.0723C19.205 50.0723 16.5204 55.1491 19.6088 59.8382L62.1037 69.0449C62.1037 69.0449 59.4659 64.9974 62.2433 59.3876L19.205 50.0723Z" fill="black"/>
<path opacity="0.1" d="M20.4698 51.832C20.4698 51.832 18.9381 55.5467 20.4698 57.9508V51.832Z" fill="black"/>
<path d="M62.1082 69.0446L85.8321 61.4391C85.8321 61.4391 87.159 61.725 86.3011 62.6971C85.4432 63.6692 62.5657 70.0167 62.5657 70.0167L19.6133 59.8379L62.1082 69.0446Z" fill="#1482D1"/>
<path opacity="0.1" d="M62.1082 69.0446L85.8321 61.4391C85.8321 61.4391 87.159 61.725 86.3011 62.6971C85.4432 63.6692 62.5657 70.0167 62.5657 70.0167L19.6133 59.8379L62.1082 69.0446Z" fill="black"/>
<path opacity="0.1" d="M60.1633 60.4102C60.1633 60.4102 57.8755 63.155 60.1633 67.2723V60.4102Z" fill="black"/>
<path opacity="0.1" d="M71.2401 60.3651L60.9785 63.7881L61.0147 63.8966L71.2763 60.4736L71.2401 60.3651Z" fill="black"/>
<path opacity="0.1" d="M73.2967 60.0238L60.9766 64.708L61.0172 64.8149L73.3374 60.1307L73.2967 60.0238Z" fill="black"/>
<path opacity="0.1" d="M75.182 60.0066L61.043 65.793L61.0863 65.8988L75.2253 60.1124L75.182 60.0066Z" fill="black"/>
<path opacity="0.1" d="M77.2375 59.5106L61.2109 66.749L61.258 66.8533L77.2846 59.6148L77.2375 59.5106Z" fill="black"/>
<path opacity="0.1" d="M78.9601 59.5116L61.3359 67.2139L61.3818 67.3187L79.0059 59.6164L78.9601 59.5116Z" fill="black"/>
<path opacity="0.1" d="M82.7319 58.8731L61.6016 67.998L61.6469 68.103L82.7773 58.9781L82.7319 58.8731Z" fill="black"/>
<path opacity="0.3" d="M29.8516 50.6311L49.9837 46.3994L62.2483 48.744L45.7514 54.0621L29.8516 50.6311Z" fill="white"/>
<path d="M85.8305 50.8975C85.8305 50.8975 86.8714 51.3172 86.2606 51.9657C85.6498 52.6141 62.2461 59.3871 62.2461 59.3871L85.8305 50.8975Z" fill="#1482D1"/>
<path d="M35.509 16.1804C35.509 16.1804 31.1623 15.9185 31.6702 18.9676C31.6702 18.9676 31.5684 19.5063 32.0568 19.751C32.0568 19.751 32.0648 19.5223 32.5029 19.6012C32.6593 19.6281 32.8183 19.6357 32.9765 19.6241C33.1897 19.6095 33.3925 19.526 33.5541 19.3862C33.5541 19.3862 34.7769 18.8807 35.2528 16.8815C35.2528 16.8815 35.6051 16.4458 35.596 16.3337L34.8593 16.6471C34.8593 16.6471 35.1098 17.1766 34.9131 17.6169C34.9131 17.6169 34.889 16.6665 34.7472 16.6882C34.7186 16.6882 34.3663 16.8724 34.3663 16.8724C34.3663 16.8724 34.7975 17.7953 34.4715 18.4655C34.4715 18.4655 34.5951 17.3287 34.2313 16.9387L33.7143 17.2406C33.7143 17.2406 34.2187 18.1933 33.8767 18.971C33.8767 18.971 33.9648 17.7782 33.6056 17.3138L33.1366 17.6798C33.1366 17.6798 33.6113 18.6188 33.3219 19.2638C33.3219 19.2638 33.2842 17.8754 33.036 17.7702C33.036 17.7702 32.6253 18.1316 32.5635 18.2802C32.5635 18.2802 32.8884 18.9665 32.6859 19.3221C32.6859 19.3221 32.5635 18.3969 32.4572 18.3923C32.4572 18.3923 32.0488 19.0053 32.0065 19.4216C32.0263 19.0335 32.1473 18.6574 32.3577 18.3306C32.1223 18.3751 31.9052 18.4876 31.7331 18.6542C31.7331 18.6542 31.796 18.2208 32.4595 18.183C32.4595 18.183 32.7969 17.7175 32.8873 17.6901C32.8873 17.6901 32.2273 17.6341 31.828 17.8113C31.828 17.8113 32.1804 17.403 33.0074 17.5826L33.4649 17.2052C33.4649 17.2052 32.5979 17.0908 32.2295 17.2178C32.2295 17.2178 32.6539 16.8564 33.5896 17.1194L34.0941 16.8186C34.0941 16.8186 33.354 16.6596 32.9136 16.7168C32.9136 16.7168 33.378 16.4664 34.2416 16.7374L34.6008 16.5762C34.6008 16.5762 34.0597 16.4698 33.9007 16.4526C33.7417 16.4355 33.7337 16.392 33.7337 16.392C34.0771 16.3356 34.4295 16.3752 34.7518 16.5064C34.7518 16.5064 35.5239 16.2285 35.509 16.1804Z" fill="#1482D1"/>
<path opacity="0.1" d="M96.6594 28.7127C96.6594 28.7127 92.3127 28.4508 92.8206 31.4998C92.8206 31.4998 92.7188 32.0385 93.2072 32.2832C93.2072 32.2832 93.2152 32.0545 93.6533 32.1334C93.8097 32.1597 93.9687 32.1673 94.1269 32.1563C94.3382 32.1407 94.5388 32.0573 94.6988 31.9184C94.6988 31.9184 95.9228 31.4129 96.3975 29.4137C96.3975 29.4137 96.7498 28.978 96.7406 28.8659L96.0063 29.1793C96.0063 29.1793 96.2568 29.7088 96.06 30.1491C96.06 30.1491 96.036 29.1987 95.8953 29.2205C95.8667 29.2205 95.5133 29.4046 95.5133 29.4046C95.5133 29.4046 95.9445 30.3275 95.6196 30.9977C95.6196 30.9977 95.7432 29.8609 95.3783 29.4709L94.8612 29.7729C94.8612 29.7729 95.3657 30.7255 95.0237 31.5033C95.0237 31.5033 95.1118 30.3104 94.7526 29.8461L94.2847 30.212C94.2847 30.212 94.7583 31.151 94.4689 31.796C94.4689 31.796 94.4312 30.4076 94.1829 30.3024C94.1829 30.3024 93.7734 30.6638 93.7105 30.8125C93.7105 30.8125 94.0354 31.4987 93.8341 31.8544C93.8341 31.8544 93.7105 30.9291 93.6053 30.9245C93.6053 30.9245 93.1969 31.5376 93.1546 31.9539C93.1744 31.5656 93.2959 31.1893 93.5069 30.8628C93.2712 30.9074 93.0538 31.0199 92.8812 31.1865C92.8812 31.1865 92.9453 30.753 93.6076 30.7153C93.6076 30.7153 93.945 30.2498 94.0354 30.2212C94.0354 30.2212 93.3765 30.1663 92.9761 30.3436C92.9761 30.3436 93.3285 29.9353 94.1555 30.1148L94.613 29.7374C94.613 29.7374 93.7448 29.623 93.3776 29.75C93.3776 29.75 93.8009 29.3886 94.7377 29.6516L95.241 29.3508C95.241 29.3508 94.5009 29.1919 94.0605 29.249C94.0605 29.249 94.5249 28.9986 95.3886 29.2696L95.7489 29.1084C95.7489 29.1084 95.2067 29.002 95.0477 28.9849C94.8887 28.9677 94.8807 28.9242 94.8807 28.9242C95.2241 28.8671 95.5766 28.9067 95.8987 29.0386C95.8987 29.0386 96.6731 28.7607 96.6594 28.7127Z" fill="#1482D1"/>
<path opacity="0.1" d="M42.8291 35.0165C42.8291 35.0165 40.9348 31.0902 38.5235 33.0253C38.5235 33.0253 38.0031 33.1992 38.0282 33.7447C38.0282 33.7447 38.2284 33.6406 38.3714 34.0615C38.4248 34.2103 38.4954 34.3523 38.5819 34.4847C38.6989 34.6641 38.8711 34.8006 39.0726 34.8735C39.0726 34.8735 40.1101 35.6947 42.0878 35.1343C42.0878 35.1343 42.6403 35.2292 42.7307 35.1629L42.0993 34.6745C42.0993 34.6745 41.7561 35.1514 41.278 35.1938C41.278 35.1938 42.097 34.71 42.0089 34.5979C41.9906 34.575 41.6657 34.3543 41.6657 34.3543C41.6657 34.3543 41.0698 35.1812 40.3263 35.2235C40.3263 35.2235 41.3786 34.7775 41.5411 34.2685L41.0263 33.9643C41.0263 33.9643 40.4395 34.8701 39.5942 34.9502C39.5942 34.9502 40.6786 34.4458 40.9085 33.906L40.3617 33.6772C40.3617 33.6772 39.7726 34.5487 39.068 34.6116C39.068 34.6116 40.2622 33.9014 40.2325 33.6326C40.2325 33.6326 39.7166 33.4519 39.5564 33.4691C39.5564 33.4691 39.1195 34.0855 38.7077 34.0855C38.7077 34.0855 39.4546 33.5263 39.4089 33.4359C39.4089 33.4359 38.6745 33.3787 38.2879 33.5503C38.6363 33.3771 39.024 33.2983 39.4123 33.3215C39.2582 33.1378 39.0539 33.0031 38.8244 32.9338C38.8244 32.9338 39.2339 32.7783 39.5896 33.3376C39.5896 33.3376 40.1616 33.405 40.229 33.4702C40.229 33.4702 39.9557 32.8686 39.6068 32.6067C39.6068 32.6067 40.1352 32.7131 40.3766 33.5217L40.9314 33.7413C40.9314 33.7413 40.6122 32.927 40.3183 32.6696C40.3183 32.6696 40.8399 32.8629 41.0675 33.8133L41.5754 34.1061C41.5754 34.1061 41.3546 33.3822 41.0892 33.0265C41.0892 33.0265 41.5342 33.3101 41.7184 34.1953L42.0352 34.4309C42.0352 34.4309 41.8636 33.906 41.8064 33.7596C41.7493 33.6132 41.7778 33.5834 41.7778 33.5834C41.9955 33.855 42.1333 34.1817 42.1759 34.527C42.1759 34.527 42.7879 35.0508 42.8291 35.0165Z" fill="#1482D1"/>
<path opacity="0.1" d="M86.7294 23.1659C86.7294 23.1659 84.8363 19.2396 82.4238 21.1747C82.4238 21.1747 81.9045 21.3486 81.9285 21.8941C81.9285 21.8941 82.1299 21.7912 82.2717 22.2109C82.325 22.3603 82.3961 22.5028 82.4833 22.6352C82.5999 22.8143 82.7718 22.9504 82.9729 23.0229C82.9729 23.0229 84.0115 23.8441 85.9881 23.2848C85.9881 23.2848 86.5406 23.3786 86.6321 23.3123L86.0042 22.8228C86.0042 22.8228 85.661 23.3009 85.184 23.3432C85.184 23.3432 86.0019 22.8582 85.9138 22.7462C85.8955 22.7233 85.5706 22.5026 85.5706 22.5026C85.5706 22.5026 84.9758 23.3294 84.2312 23.3718C84.2312 23.3718 85.2847 22.9257 85.4471 22.4179L84.9243 22.116C84.9243 22.116 84.3387 23.0207 83.4922 23.1019C83.4922 23.1019 84.5766 22.5963 84.8077 22.0565L84.2598 21.8278C84.2598 21.8278 83.6707 22.7004 82.9672 22.7622C82.9672 22.7622 84.1602 22.0519 84.1305 21.7843C84.1305 21.7843 83.6158 21.6025 83.4556 21.6208C83.4556 21.6208 83.0187 22.2361 82.6057 22.2361C82.6057 22.2361 83.3538 21.6768 83.3081 21.5865C83.3081 21.5865 82.5737 21.5293 82.1859 21.7008C82.5343 21.5277 82.922 21.4488 83.3103 21.4721C83.1568 21.2883 82.9528 21.1535 82.7235 21.0844C82.7235 21.0844 83.133 20.9288 83.4888 21.4881C83.4888 21.4881 84.0607 21.5567 84.1282 21.6219C84.1282 21.6219 83.8548 21.0192 83.5048 20.7573C83.5048 20.7573 84.0333 20.8648 84.2746 21.678L84.8305 21.8975C84.8305 21.8975 84.5114 21.0821 84.2174 20.8248C84.2174 20.8248 84.739 21.0181 84.9655 21.9685L85.4745 22.2612C85.4745 22.2612 85.2526 21.5384 84.9873 21.1816C84.9873 21.1816 85.4334 21.4652 85.6164 22.3504L85.9332 22.586C85.9332 22.586 85.7628 22.0611 85.7045 21.9147C85.6461 21.7683 85.6759 21.7397 85.6759 21.7397C85.8929 22.0115 86.0302 22.3381 86.0728 22.6833C86.0728 22.6833 86.6939 23.2025 86.7294 23.1659Z" fill="#1482D1"/>
<path opacity="0.1" d="M92.7777 42.5868C92.7777 42.5868 90.8846 38.6594 88.4688 40.5945C88.4688 40.5945 87.9494 40.7684 87.9735 41.3139C87.9735 41.3139 88.1748 41.211 88.3166 41.6307C88.3696 41.7801 88.4402 41.9225 88.5271 42.055C88.6437 42.2341 88.8156 42.3702 89.0167 42.4427C89.0167 42.4427 90.0553 43.265 92.0331 42.7046C92.0331 42.7046 92.5844 42.7996 92.6759 42.7321L92.0445 42.2437C92.0445 42.2437 91.7014 42.7218 91.2232 42.7641C91.2232 42.7641 92.0411 42.2792 91.953 42.1671C91.9347 42.1442 91.6099 41.9235 91.6099 41.9235C91.6099 41.9235 91.015 42.7504 90.2704 42.7939C90.2704 42.7939 91.3239 42.3467 91.4863 41.8389L90.9704 41.5347C90.9704 41.5347 90.3848 42.4405 89.5383 42.5205C89.5383 42.5205 90.6227 42.015 90.8537 41.4752L90.3058 41.2464C90.3058 41.2464 89.7167 42.1179 89.0133 42.1808C89.0133 42.1808 90.2075 41.4706 90.1777 41.2018C90.1777 41.2018 89.6618 41.02 89.5017 41.0383C89.5017 41.0383 89.0647 41.6536 88.6518 41.6536C88.6518 41.6536 89.3999 41.0943 89.3541 41.004C89.3541 41.004 88.6198 40.9468 88.232 41.1184C88.5808 40.9453 88.9688 40.8664 89.3576 40.8896C89.2038 40.7055 88.9994 40.5707 88.7696 40.5019C88.7696 40.5019 89.1791 40.3452 89.5349 40.9056C89.5349 40.9056 90.1068 40.9731 90.1743 41.0383C90.1743 41.0383 89.9009 40.4367 89.552 40.1737C89.552 40.1737 90.0805 40.2812 90.3218 41.0943L90.8766 41.3139C90.8766 41.3139 90.5575 40.4985 90.2635 40.2423C90.2635 40.2423 90.7851 40.4344 91.0116 41.386L91.5206 41.6776C91.5206 41.6776 91.2987 40.9548 91.0333 40.598C91.0333 40.598 91.4794 40.8816 91.6636 41.768L91.9805 41.9967C91.9805 41.9967 91.8089 41.4717 91.7517 41.3254C91.6945 41.179 91.7231 41.1504 91.7231 41.1504C91.9406 41.4219 92.0781 41.7486 92.12 42.0939C92.12 42.0939 92.7423 42.6212 92.7777 42.5868Z" fill="#1482D1"/>
<path opacity="0.1" d="M23.1005 93.6835C24.5528 93.6835 25.7302 93.552 25.7302 93.3896C25.7302 93.2273 24.5528 93.0957 23.1005 93.0957C21.6481 93.0957 20.4707 93.2273 20.4707 93.3896C20.4707 93.552 21.6481 93.6835 23.1005 93.6835Z" fill="#1482D1"/>
<path opacity="0.1" d="M5.86023 88.6875C7.31261 88.6875 8.49 88.5559 8.49 88.3935C8.49 88.2312 7.31261 88.0996 5.86023 88.0996C4.40786 88.0996 3.23047 88.2312 3.23047 88.3935C3.23047 88.5559 4.40786 88.6875 5.86023 88.6875Z" fill="#1482D1"/>
<path opacity="0.1" d="M36.243 97.0009C37.6954 97.0009 38.8728 96.8693 38.8728 96.707C38.8728 96.5447 37.6954 96.4131 36.243 96.4131C34.7907 96.4131 33.6133 96.5447 33.6133 96.707C33.6133 96.8693 34.7907 97.0009 36.243 97.0009Z" fill="#1482D1"/>
<path opacity="0.1" d="M103.581 89.7744C105.033 89.7744 106.211 89.6428 106.211 89.4804C106.211 89.3181 105.033 89.1865 103.581 89.1865C102.129 89.1865 100.951 89.3181 100.951 89.4804C100.951 89.6428 102.129 89.7744 103.581 89.7744Z" fill="#1482D1"/>
<path opacity="0.1" d="M81.6981 88.3486C83.1505 88.3486 84.3279 88.217 84.3279 88.0547C84.3279 87.8923 83.1505 87.7607 81.6981 87.7607C80.2457 87.7607 79.0684 87.8923 79.0684 88.0547C79.0684 88.217 80.2457 88.3486 81.6981 88.3486Z" fill="#1482D1"/>
<path opacity="0.1" d="M67.5418 95.3036C69.2596 95.3036 70.652 95.0644 70.652 94.7695C70.652 94.4745 69.2596 94.2354 67.5418 94.2354C65.8241 94.2354 64.4316 94.4745 64.4316 94.7695C64.4316 95.0644 65.8241 95.3036 67.5418 95.3036Z" fill="#1482D1"/>
<path d="M68.9285 89.4014C68.9285 89.4014 64.5978 91.6384 66.8352 94.2735C66.8352 94.2735 67.0457 94.8453 67.6542 94.8053C67.6542 94.8053 67.533 94.5834 67.9974 94.4061C68.1626 94.3423 68.3197 94.2589 68.4652 94.1579C68.6619 94.022 68.8089 93.8257 68.8839 93.5987C68.8839 93.5987 69.7692 92.4138 69.0829 90.2214C69.0829 90.2214 69.1721 89.6015 69.0943 89.5009L68.5682 90.2225C68.5682 90.2225 69.1115 90.5874 69.1744 91.1238C69.1744 91.1238 68.6025 90.2237 68.4881 90.3232C68.4629 90.3438 68.2273 90.7177 68.2273 90.7177C68.2273 90.7177 69.1698 91.3571 69.2396 92.1874C69.2396 92.1874 68.7088 91.0243 68.1358 90.8584L67.8075 91.444C67.8075 91.444 68.837 92.0707 68.9514 93.0131C68.9514 93.0131 68.3531 91.818 67.7423 91.5766L67.5009 92.1954C67.5009 92.1954 68.4938 92.8267 68.5853 93.6113C68.5853 93.6113 67.7549 92.2995 67.4563 92.3406C67.4563 92.3406 67.2687 92.9216 67.2939 93.1012C67.2939 93.1012 67.9951 93.5701 68.0077 94.031C68.0077 94.031 67.3602 93.2133 67.2607 93.267C67.2607 93.267 67.2195 94.0893 67.4186 94.5171C67.4186 94.5171 67.0754 93.9063 67.1315 93.267C66.9308 93.4444 66.7865 93.6766 66.7162 93.9349C66.7162 93.9349 66.5298 93.4832 67.144 93.0669C67.144 93.0669 67.2024 92.4276 67.2733 92.3486C67.2733 92.3486 66.6087 92.6734 66.3262 93.0714C66.3262 93.0714 66.4303 92.4779 67.3316 92.1828L67.5604 91.5561C67.5604 91.5561 66.659 91.9381 66.3811 92.2743C66.3811 92.2743 66.5813 91.6853 67.6313 91.4028L67.9425 90.831C67.9425 90.831 67.1417 91.1009 66.7505 91.4028C66.7505 91.4028 67.0537 90.8962 68.0385 90.6628L68.2913 90.3026C68.2913 90.3026 67.7102 90.5096 67.5478 90.5839C67.3854 90.6583 67.3534 90.6217 67.3534 90.6217C67.6503 90.3706 68.011 90.2067 68.3954 90.1482C68.3954 90.1482 68.9685 89.4403 68.9285 89.4014Z" fill="#1482D1"/>
<path d="M81.7814 47.1503C81.0333 45.1179 76.9154 44.9269 75.1286 45.445C73.8589 45.8144 71.1823 46.2307 69.7524 46.44L69.6598 46.352C69.8451 46.2971 69.8497 46.1621 69.8268 45.962C69.8135 45.6982 69.8173 45.4338 69.8382 45.1705C70.7144 45.4427 71.4945 44.7988 71.4945 44.7988C72.524 44.3414 72.2472 42.3834 72.444 41.8481C72.5915 41.4478 72.7505 39.0896 72.8214 37.9138H72.8363L72.8443 37.5193C72.8546 37.3489 72.8592 37.2494 72.8592 37.2494C72.8592 37.2494 72.9598 34.3741 73.1566 33.792C73.3396 33.2568 73.4883 30.5599 73.5112 30.1322C73.5112 30.0956 73.5112 30.0762 73.5112 30.0762L73.4963 29.8268C73.5066 29.645 73.5112 29.4426 73.51 29.2298C73.51 28.252 73.4082 27.0202 73.3957 26.8212C73.3957 26.7926 73.3957 26.7583 73.3957 26.7172C73.4037 26.2997 73.351 24.2091 71.5723 23.4188C70.9169 23.126 70.1288 22.7772 69.3658 22.4375C69.169 20.7391 68.7195 19.0499 68.7584 17.3389C68.7584 17.0816 68.7813 16.8243 68.8064 16.5681C68.8064 16.6424 68.7984 16.7179 68.7973 16.7968C68.7973 16.9627 68.7973 17.1296 68.7973 17.2955C68.8648 15.1556 69.6735 13.0044 69.598 10.9103C69.5911 11.115 69.5763 11.3209 69.5568 11.5267C69.5963 10.8184 69.5222 10.1083 69.3372 9.42348C69.2686 9.18216 69.1759 8.93283 68.978 8.77157C68.791 8.6417 68.5765 8.55677 68.3512 8.52339C67.8099 8.38487 67.26 8.28247 66.7051 8.21689C66.6208 7.95884 66.4957 7.71597 66.3345 7.49751C65.1746 5.9055 63.4565 4.40955 61.425 4.06645C60.4058 3.8949 59.2334 4.03786 58.5402 4.76638C58.4678 4.83038 58.3998 4.89916 58.3366 4.97225C57.9637 5.41714 57.8035 6.00157 57.4215 6.44532C57.3963 6.47505 57.3677 6.5025 57.3402 6.53109C56.5922 7.20015 55.4265 7.33968 54.595 7.94011C54.4484 8.0479 54.3111 8.16764 54.1843 8.29809C53.8492 8.63009 53.5487 8.99528 53.2875 9.38802C52.9135 9.91412 52.5291 10.4619 52.4102 11.0898C52.1711 12.3479 53.0278 13.5407 53.1868 14.8068C53.5414 17.6397 50.4061 20.1535 50.9998 22.9487C51.1582 23.6354 51.508 24.2631 52.0087 24.7592C50.7859 25.8663 49.7449 26.9402 49.7449 26.9402V27.0042H49.5516L49.5711 27.233H49.5516L49.658 28.4739L49.5516 30.2809C49.5516 30.2809 49.5516 30.3003 49.5516 30.3369V30.3461V30.3953C49.5516 30.3953 49.5516 30.4147 49.5516 30.4513H49.5585C49.5939 31.1135 49.7346 33.4946 49.9016 33.9967C50.0984 34.5789 50.1979 37.4541 50.1979 37.4541C50.1979 37.4541 50.4152 41.5176 50.6143 42.0551C50.8133 42.5927 50.5308 44.5449 51.5637 45.0058C51.8659 45.2376 52.2236 45.3859 52.6012 45.4359C52.5486 45.8636 52.5817 46.1735 52.7522 46.2708C52.8251 46.3136 52.9078 46.3373 52.9924 46.3394C52.9223 46.4433 52.86 46.5522 52.8059 46.6653C52.3959 46.6225 51.9931 46.5276 51.6072 46.3828C50.4976 45.9254 46.8155 44.896 45.7459 45.62C44.6764 46.344 42.1027 47.0004 43.2912 49.9145C44.4797 52.8287 45.0333 52.9019 45.0333 52.9019C45.3991 53.1674 45.7201 53.4898 45.9839 53.8568C46.3408 54.3932 49.666 55.6204 50.4976 55.6204C50.8511 55.615 51.2045 55.6325 51.5557 55.673C51.5557 55.673 50.6532 56.4644 50.7733 56.9242C50.8934 57.384 50.4987 61.0643 50.4987 61.0643C50.4987 61.0643 51.4138 61.9862 51.805 60.7773L51.8188 60.7956C51.892 60.8951 52.2878 61.3445 53.0324 60.7773C53.3372 60.5461 53.6609 60.341 54.0001 60.1643L57.6056 59.6542C57.9815 59.6307 58.3584 59.628 58.7346 59.6462C59.3066 59.6931 59.8682 59.3545 60.2217 59.0926C60.9686 59.3763 61.8082 59.6862 62.2074 59.7994C63.0173 60.0282 66.7395 61.0266 67.61 60.7144C67.7909 60.6424 67.9518 60.5279 68.0789 60.3804L68.9094 60.4067L68.5205 60.4845C68.5205 60.4845 69.2777 60.4971 70.3072 60.5108L70.2637 60.536L71.5552 60.5245C73.4449 60.5417 75.5679 60.5474 75.847 60.4845C76.2839 60.3873 78.5545 60.4559 79.2237 60.4845H79.4101C79.4101 60.4845 81.9049 59.987 80.8755 57.456C80.0839 55.5117 77.6509 54.9468 76.5711 54.7912C76.8753 54.7306 77.1373 54.6837 77.3111 54.6563C78.065 54.5419 79.5291 53.8557 79.6481 53.6212C79.767 53.3868 80.9944 52.7063 81.3113 52.3186C81.6281 51.9309 82.5329 49.1826 81.7814 47.1503ZM61.1173 52.8378L60.9949 52.8778L60.9126 52.9053L60.7547 53.0608C60.6289 52.9762 60.4939 52.887 60.3532 52.7955C60.6014 52.8104 60.8565 52.8252 61.1173 52.8378Z" fill="url(#paint0_linear)"/>
<path d="M68.4102 40.7789C68.4102 40.7789 70.1603 45.3537 71.1555 44.8962C72.1507 44.4387 71.8807 42.4944 72.0706 41.9615C72.2605 41.4285 72.4709 37.3867 72.4709 37.3867C72.4709 37.3867 72.567 34.5275 72.7569 33.9488C72.9331 33.417 73.0761 30.7351 73.1001 30.313C73.1001 30.2764 73.1001 30.257 73.1001 30.257L72.9113 26.9403L71.8429 26.6738L69.3653 27.5888L69.0221 29.5479L68.8883 30.313L68.8311 30.639L68.4102 40.7789Z" fill="#BE6F72"/>
<path opacity="0.1" d="M68.9883 40.0127C68.9883 40.0127 70.6583 41.3794 71.1616 41.4995C71.6649 41.6196 71.9738 42.6855 71.9738 42.6855" fill="black"/>
<path d="M54.725 40.9781C54.725 40.9781 52.9749 45.5529 51.9797 45.0954C50.9846 44.6379 51.2545 42.6937 51.0646 42.1607C50.8748 41.6277 50.6643 37.586 50.6643 37.586C50.6643 37.586 50.5682 34.7267 50.3783 34.148C50.2022 33.6162 50.0592 30.9343 50.0352 30.5123C50.0352 30.4757 50.0352 30.4562 50.0352 30.4562L50.225 27.1395L51.2934 26.873L53.771 27.788L54.1142 29.7471L54.2481 30.5123L54.3052 30.8382L54.725 40.9781Z" fill="#BE6F72"/>
<path d="M66.1212 16.4971H62.2148V22.5849H66.1212V16.4971Z" fill="#3E373A"/>
<path opacity="0.1" d="M66.1212 16.4971H62.2148V22.5849H66.1212V16.4971Z" fill="black"/>
<path d="M54.0396 45.5348C54.0396 45.5348 52.7047 47.0022 53.2 47.2687C53.6953 47.5352 56.8993 52.5296 56.8993 52.5296C56.8993 52.5296 67.423 53.8254 69.4076 51.8812C71.3922 49.9369 71.3522 46.4635 71.3522 46.4635C71.3522 46.4635 69.7576 46.8066 69.5837 46.6202C69.4099 46.4338 68.4547 45.5348 68.4547 45.5348C68.4547 45.5348 54.9547 44.716 54.0396 45.5348Z" fill="#4B4B5B"/>
<path opacity="0.02" d="M54.0396 45.5348C54.0396 45.5348 52.7047 47.0022 53.2 47.2687C53.6953 47.5352 56.8993 52.5296 56.8993 52.5296C56.8993 52.5296 67.423 53.8254 69.4076 51.8812C71.3922 49.9369 71.3522 46.4635 71.3522 46.4635C71.3522 46.4635 69.7576 46.8066 69.5837 46.6202C69.4099 46.4338 68.4547 45.5348 68.4547 45.5348C68.4547 45.5348 54.9547 44.716 54.0396 45.5348Z" fill="black"/>
<path d="M72.9831 26.9882L69.5515 29.7331L68.514 29.8085L68.1331 29.836L61.7354 30.3049L55.1009 29.82L54.1138 29.7479L52.8555 29.6564L50.2246 27.1403C50.2246 27.1403 52.0868 25.1457 53.718 23.7996C54.3609 23.2678 54.9683 22.8378 55.4109 22.6685L55.4864 22.6422C55.7649 22.5336 56.0135 22.3604 56.2117 22.1367C57.4997 20.8089 58.6904 17.5322 58.6904 17.5322C58.6904 17.5322 64.3721 14.5975 63.6857 18.4472C62.9994 22.2968 66.24 21.3453 66.24 21.3453L67.3084 21.8325L67.7305 22.0258L68.8068 22.5187L71.2353 23.6326C73.141 24.5098 72.9831 26.9882 72.9831 26.9882Z" fill="#BE6F72"/>
<path opacity="0.1" d="M61.4691 20.6669C64.2911 20.6669 66.5788 18.3796 66.5788 15.5581C66.5788 12.7365 64.2911 10.4492 61.4691 10.4492C58.6471 10.4492 56.3594 12.7365 56.3594 15.5581C56.3594 18.3796 58.6471 20.6669 61.4691 20.6669Z" fill="black"/>
<path opacity="0.1" d="M72.9916 30.6268H50.0352C50.0352 30.5902 50.0352 30.5708 50.0352 30.5708L50.225 27.2541C50.225 27.2541 52.0873 25.2595 53.7184 23.9134L68.1312 23.3416L68.8015 22.6348L71.23 23.7487C73.1368 24.6248 72.9835 27.1031 72.9835 27.1031C72.9835 27.1031 73.2443 29.9749 72.9916 30.6268Z" fill="black"/>
<path d="M72.9916 30.5126H50.0352C50.0352 30.476 50.0352 30.4565 50.0352 30.4565L50.225 27.1399C50.225 27.1399 52.0873 25.1453 53.7184 23.7991L68.1312 23.2273L68.8015 22.5205L71.23 23.6345C73.1368 24.5105 72.9835 26.9889 72.9835 26.9889C72.9835 26.9889 73.2443 29.8607 72.9916 30.5126Z" fill="#E7C7CA"/>
<path opacity="0.1" d="M57.7892 21.2122C57.7892 21.2122 61.4107 25.8258 66.2344 21.1172C71.0581 16.4087 66.7686 31.6197 66.7686 31.6197L56.3594 32.8549L57.7892 21.2122Z" fill="black"/>
<path d="M57.7892 21.4416C57.7892 21.4416 61.4107 26.0553 66.2344 21.3467C71.0581 16.6382 66.7686 31.8492 66.7686 31.8492L56.3594 33.0844L57.7892 21.4416Z" fill="#E7C7CA"/>
<path opacity="0.1" d="M67.7258 22.2512L68.109 28.0943L68.5197 30.0386L68.8331 31.5254C68.8331 31.5254 69.6338 42.9622 69.405 43.5341C69.1763 44.1059 69.5194 44.5634 69.5675 44.8676C69.6155 45.1718 69.5194 45.9358 69.5572 46.2789C69.5949 46.622 69.5572 46.7741 68.681 46.6518C67.8048 46.5294 66.5831 46.3167 66.5831 46.3167C66.5831 46.3167 63.4946 46.5454 62.4274 46.1645C61.3602 45.7837 59.339 45.7826 59.339 45.7826C59.339 45.7826 56.2882 45.8592 55.2976 45.7448C54.3071 45.6304 53.7717 46.9651 53.1243 46.5831C52.4769 46.2011 53.8861 42.5048 54.3437 41.4366C54.8012 40.3683 53.734 37.6624 53.734 37.6624L55.1066 30.0489L55.412 28.323V22.8974L55.4875 22.8711C55.766 22.7625 56.0146 22.5892 56.2127 22.3656L56.5559 27.8255L67.3083 28.2075V22.0625" fill="black"/>
<path d="M67.7258 22.0227L68.109 27.8658L68.5197 29.8101L68.8331 31.2968C68.8331 31.2968 69.6338 42.7337 69.405 43.3055C69.1763 43.8774 69.5194 44.3349 69.5675 44.6391C69.6155 44.9433 69.5194 45.7073 69.5572 46.0504C69.5949 46.3935 69.5572 46.5456 68.681 46.4232C67.8048 46.3009 66.5831 46.0881 66.5831 46.0881C66.5831 46.0881 63.4946 46.3169 62.4274 45.936C61.3602 45.5552 59.339 45.554 59.339 45.554C59.339 45.554 56.2882 45.6307 55.2976 45.5163C54.3071 45.4019 53.7717 46.7366 53.1243 46.3546C52.4769 45.9726 53.8861 42.2762 54.3437 41.208C54.8012 40.1398 53.734 37.4339 53.734 37.4339L55.1066 29.8203L55.412 28.0945V22.6689L55.4875 22.6426C55.766 22.534 56.0146 22.3607 56.2127 22.1371L56.5559 27.597L67.3083 27.979V21.834" fill="#E7C7CA"/>
<path opacity="0.1" d="M68.9608 9.82759C68.8956 9.58856 68.8052 9.34038 68.6176 9.18026C68.4385 9.05166 68.2316 8.96703 68.0137 8.93323C67.4919 8.79605 66.9615 8.69441 66.426 8.62901C66.3495 8.37505 66.2337 8.13464 66.0828 7.91649C64.9618 6.33363 63.3032 4.84112 61.3517 4.50373C60.3303 4.32646 59.1464 4.48543 58.4921 5.29059C58.1329 5.73319 57.9785 6.31991 57.6159 6.75451C56.917 7.59855 55.6553 7.70262 54.7745 8.35567C54.3043 8.69877 53.9635 9.19628 53.6306 9.67891C53.2703 10.2016 52.8997 10.746 52.7853 11.3704C52.5565 12.6182 53.3812 13.8076 53.5334 15.0668C53.8765 17.8837 50.8567 20.3827 51.4275 23.1618C51.7604 24.7824 53.2577 25.9238 54.8065 26.5025C55.3521 26.7073 55.9755 26.9108 56.2306 27.4346C56.345 27.6634 56.3645 27.9276 56.472 28.1586C56.8334 28.9294 58.0219 28.9592 58.6602 28.3976C59.2985 27.8361 59.4998 26.928 59.5753 26.0805C59.8819 22.3795 58.3994 18.7232 58.5721 15.0131C58.6236 13.8911 58.9393 12.6182 59.9448 12.1104C61.298 11.4242 62.9257 12.5679 64.415 12.3494C65.1198 14.064 65.2694 15.9562 64.8429 17.7602C64.6061 18.7472 64.1966 19.7045 64.1668 20.7223C64.1222 22.272 64.9584 23.6879 65.6813 25.0581C65.8364 25.3143 65.9402 25.5982 65.9867 25.8941C65.9981 26.1943 65.9422 26.4932 65.8232 26.769C65.4148 27.8681 64.7102 28.8883 64.6301 30.0583C64.6066 30.1948 64.6374 30.3352 64.7159 30.4494C64.7965 30.5256 64.9005 30.5724 65.011 30.5821C66.2464 30.7936 67.3148 29.6991 67.9176 28.6001C68.5897 27.3861 68.9813 26.0371 69.0637 24.6521C69.1884 22.3235 68.3534 20.0327 68.4049 17.7019C68.4644 15.0519 69.662 12.3837 68.9608 9.82759Z" fill="black"/>
<path d="M66.5508 60.3533L71.0885 60.4985L70.4377 57.1338L66.9614 57.4643L66.5508 60.3533Z" fill="#C3C7D9"/>
<path d="M80.6104 52.3783C80.305 52.7591 79.1234 53.4454 79.009 53.6741C78.8946 53.9028 77.4842 54.589 76.759 54.7034C76.0338 54.8178 73.7472 55.3141 73.3274 55.5806C73.0265 55.7728 70.6118 56.3812 69.0253 56.7186C68.5955 56.8202 68.1606 56.8985 67.7224 56.953C67.0361 56.9908 59.5254 54.4369 59.5254 54.4369L60.9735 52.9501L61.0536 52.9227C61.4631 52.7843 63.3551 52.145 64.4052 51.8408C65.5879 51.4977 66.9606 50.0875 66.9606 50.0875C66.9606 50.0875 68.9807 49.4013 69.2483 49.3247C69.516 49.248 68.562 46.6564 68.562 46.6564C68.562 46.6564 72.9465 46.048 74.6623 45.5322C76.3781 45.0164 80.3439 45.2074 81.068 47.2283C81.792 49.2492 80.9204 51.9974 80.6104 52.3783Z" fill="#4B4B5B"/>
<path d="M60.6293 58.8199C60.6293 58.8199 59.7531 59.7349 58.8758 59.6594C57.9984 59.5839 54.9306 59.8881 54.9306 59.8881C54.3746 60.1099 53.854 60.4116 53.3852 60.7836C52.668 61.3486 52.2871 60.898 52.2162 60.802L52.2036 60.7836C51.8215 61.9857 50.9453 61.0696 50.9453 61.0696C50.9453 61.0696 51.3262 57.4098 51.2095 56.9523C51.0929 56.4948 51.9634 55.7091 51.9634 55.7091L52.9928 55.4472L55.6009 54.7793L59.3379 56.0751L60.6293 58.8199Z" fill="#E7C7CA"/>
<path opacity="0.1" d="M52.9883 55.4482L52.2162 60.803L52.2036 60.7847C51.8215 61.9867 50.9453 61.0706 50.9453 61.0706C50.9453 61.0706 51.3262 57.4108 51.2095 56.9533C51.0929 56.4959 51.9634 55.7101 51.9634 55.7101L52.9883 55.4482Z" fill="black"/>
<path opacity="0.1" d="M58.3867 40.2158C58.3867 40.2158 60.4068 40.902 62.1615 40.2158H58.3867Z" fill="black"/>
<path opacity="0.1" d="M65.2812 41.5127C65.2812 41.5127 66.1197 41.9313 66.7683 41.5127H65.2812Z" fill="black"/>
<path opacity="0.1" d="M65.2812 42.5056C65.2812 42.5056 66.6917 42.6943 66.9593 42.3135L65.2812 42.5056Z" fill="black"/>
<path opacity="0.1" d="M64.8242 44.6385C64.8242 44.6385 67.4734 44.2954 68.1312 43.8379L64.8242 44.6385Z" fill="black"/>
<path opacity="0.1" d="M56.7402 43.8379C56.7402 43.8379 58.2273 44.6762 59.3334 44.6385L56.7402 43.8379Z" fill="black"/>
<path opacity="0.1" d="M69.0233 56.7178C68.5936 56.8194 68.1586 56.8977 67.7204 56.9522C67.0341 56.99 59.5234 54.4361 59.5234 54.4361L60.9716 52.9493L61.0517 52.9219C61.2804 53.0831 61.468 53.2215 61.6019 53.3267C62.2321 53.8231 62.8407 53.1746 63.0694 53.1746C63.2982 53.1746 65.2806 54.8135 65.2806 54.8135C65.2806 54.8135 67.1108 55.2333 67.4162 55.6141C67.7216 55.995 68.7888 55.9195 68.9787 56.186C69.0359 56.2683 69.0428 56.4707 69.0233 56.7178Z" fill="black"/>
<path d="M54.9312 46.8115C54.9312 46.8115 53.0804 46.9179 52.0132 46.4684C50.946 46.0189 47.4 44.9816 46.3705 45.7101C45.341 46.4386 42.8622 47.0825 44.0061 49.9806C45.15 52.8787 45.6842 52.9542 45.6842 52.9542C46.0381 53.2196 46.347 53.5401 46.5993 53.9035C46.9424 54.4376 50.1453 55.6568 50.946 55.6568C51.7467 55.6568 53.1571 55.6568 55.1394 57.0292C57.1217 58.4016 58.9142 58.5549 58.9142 58.5549C58.9142 58.5549 61.4307 59.5842 62.2143 59.8129C62.9978 60.0417 66.5782 61.0321 67.4178 60.7279C68.2574 60.4237 68.7904 58.516 68.7904 58.516C68.7904 58.516 69.1713 56.8005 68.9803 56.534C68.7893 56.2675 67.722 56.343 67.4178 55.9621C67.1135 55.5813 65.2821 55.1615 65.2821 55.1615C65.2821 55.1615 63.3044 53.5215 63.0756 53.5215C62.8468 53.5215 62.2383 54.1688 61.608 53.6736C60.3525 52.7438 59.0335 51.9031 57.6605 51.1575C56.2124 50.3947 54.9312 46.8115 54.9312 46.8115Z" fill="#4B4B5B"/>
<path opacity="0.1" d="M51.2109 47.9182C51.5405 47.8509 51.8811 47.8606 52.2063 47.9465C52.5315 48.0324 52.8325 48.1922 53.0857 48.4134C54.0008 49.1763 57.0802 50.7077 57.0802 50.7077" fill="black"/>
<path opacity="0.1" d="M74.0901 47.8691C74.0901 47.8691 70.0099 48.4867 69.248 49.3251L74.0901 47.8691Z" fill="black"/>
<path d="M78.7789 60.4977H78.5993C77.9541 60.4749 75.7682 60.4062 75.3472 60.4977C74.8519 60.6121 68.293 60.4977 68.293 60.4977L69.5753 60.2313C69.5753 60.2313 69.0994 58.5638 69.4014 58.4254C69.4014 58.4254 67.6856 57.2954 68.9793 56.5326C70.273 55.7697 71.6674 56.0911 71.6674 56.0911L74.9149 54.9909L75.5383 54.7793C75.5383 54.7793 79.1987 54.9703 80.1893 57.4864C81.1799 60.0025 78.7789 60.4977 78.7789 60.4977Z" fill="#E7C7CA"/>
<path opacity="0.1" d="M78.78 60.4979H78.6004C79.6654 59.6195 82.0744 56.9456 74.916 54.9967L75.5394 54.7852C75.5394 54.7852 79.1998 54.9762 80.1904 57.4923C81.181 60.0084 78.78 60.4979 78.78 60.4979Z" fill="black"/>
<path d="M72.0517 57.5341C72.1623 57.5341 72.2519 57.4445 72.2519 57.3339C72.2519 57.2234 72.1623 57.1338 72.0517 57.1338C71.9412 57.1338 71.8516 57.2234 71.8516 57.3339C71.8516 57.4445 71.9412 57.5341 72.0517 57.5341Z" fill="#4B4B5B"/>
<path d="M70.8877 57.8642C70.9982 57.8642 71.0879 57.7746 71.0879 57.664C71.0879 57.5535 70.9982 57.4639 70.8877 57.4639C70.7771 57.4639 70.6875 57.5535 70.6875 57.664C70.6875 57.7746 70.7771 57.8642 70.8877 57.8642Z" fill="#4B4B5B"/>
<g opacity="0.1">
<path opacity="0.1" d="M65.2197 15.3689C65.2641 14.1109 65.0403 12.8579 64.5632 11.6931C63.0761 11.9149 61.4472 10.7678 60.0929 11.454C59.0909 11.9618 58.7763 13.2347 58.7202 14.3567C58.7065 14.6529 58.7042 14.9491 58.71 15.2453C58.71 15.1401 58.71 15.0338 58.7202 14.9285C58.7729 13.8066 59.0874 12.5337 60.0929 12.0259C61.4472 11.3397 63.0738 12.4833 64.5632 12.2649C64.9672 13.2516 65.1897 14.3031 65.2197 15.3689Z" fill="black"/>
<path opacity="0.1" d="M53.695 15.1595C53.7146 14.9102 53.7096 14.6597 53.6801 14.4115C53.5588 13.405 53.0086 12.4432 52.9091 11.4619C52.781 12.6456 53.5348 13.7825 53.6801 14.9833C53.695 15.0451 53.695 15.1 53.695 15.1595Z" fill="black"/>
<path opacity="0.1" d="M59.7226 25.4236C59.6517 26.2723 59.4515 27.1792 58.8075 27.7419C58.1635 28.3046 56.9773 28.2737 56.6193 27.5029C56.5049 27.2741 56.4878 27.0076 56.3768 26.7789C56.1229 26.2551 55.4983 26.0515 54.9527 25.8468C53.4027 25.267 51.9077 24.1313 51.5748 22.5061C51.5451 22.3589 51.5248 22.2099 51.5142 22.0601C51.4861 22.4005 51.5065 22.7432 51.5748 23.0779C51.9077 24.6985 53.405 25.8388 54.9527 26.4186C55.4983 26.6234 56.1229 26.8269 56.3768 27.3508C56.4912 27.5795 56.5106 27.8437 56.6193 28.0747C56.9796 28.8455 58.1681 28.8753 58.8075 28.3137C59.447 27.7522 59.646 26.8441 59.7226 25.9955C59.7575 25.5488 59.7693 25.1007 59.7581 24.6528C59.7581 24.9124 59.7432 25.1686 59.7226 25.4236Z" fill="black"/>
<path opacity="0.1" d="M68.5586 17.0458C68.5586 17.2116 68.5586 17.3763 68.5586 17.541C68.6227 15.4137 69.4028 13.275 69.3261 11.1924C69.2667 13.1184 68.6021 15.0878 68.5586 17.0458Z" fill="black"/>
<path opacity="0.1" d="M66.1028 25.6507C66.131 25.515 66.1398 25.376 66.1292 25.2378C66.0831 24.9418 65.9793 24.6578 65.8237 24.4018C65.1626 23.1437 64.4088 21.8559 64.3195 20.4595C64.3195 20.5189 64.3115 20.5738 64.3104 20.6379C64.2646 22.1864 65.1008 23.6035 65.8237 24.9736C65.9466 25.1858 66.0405 25.4135 66.1028 25.6507Z" fill="black"/>
<path opacity="0.1" d="M69.2162 23.9963C69.1308 25.3819 68.7365 26.7309 68.062 27.9443C67.4581 29.0434 66.3908 30.1379 65.1543 29.9263C65.0435 29.9168 64.9394 29.8696 64.8592 29.7925C64.836 29.7663 64.8177 29.7361 64.8054 29.7033C64.7917 29.7925 64.7803 29.8829 64.7734 29.9744C64.7497 30.1106 64.7806 30.2506 64.8592 30.3644C64.9394 30.4414 65.0435 30.4886 65.1543 30.4982C66.3908 30.7098 67.4581 29.6152 68.062 28.5162C68.7365 27.3027 69.1308 25.9538 69.2162 24.5682C69.2299 24.3005 69.2311 24.0341 69.2231 23.7676C69.2208 23.8442 69.2208 23.9197 69.2162 23.9963Z" fill="black"/>
</g>
<path opacity="0.1" d="M69.4023 58.4262C69.4023 58.4262 72.2975 59.6408 74.2066 56.9531" stroke="black" stroke-miterlimit="10"/>
<path opacity="0.1" d="M69.9727 60.5489C69.9727 60.5489 72.337 59.0118 75.3489 60.4986" stroke="black" stroke-miterlimit="10"/>
<path opacity="0.1" d="M54.1445 60.2001C54.1445 60.2001 55.1374 57.9608 57.7889 59.6683" stroke="black" stroke-miterlimit="10"/>
<path opacity="0.1" d="M50.9258 27.0833L52.9504 25.2534C52.9504 25.2534 60.8008 24.7388 61.1257 27.407C61.1257 27.407 63.9088 24.2435 69.762 24.948L72.2384 26.9198L65.3935 29.9231L58.7419 32.2299L53.8427 30.0375L50.9258 27.0833Z" fill="black"/>
<path d="M50.9258 27.1976L52.9504 25.3677C52.9504 25.3677 60.8008 24.853 61.1257 27.5212C61.1257 27.5212 63.9088 24.3578 69.762 25.0623L72.2384 27.034L65.3935 30.0373L58.7419 32.3442L53.8427 30.1517L50.9258 27.1976Z" fill="#D5D6DB"/>
<path opacity="0.1" d="M50.0312 27.4258L50.9269 38.1387L60.4211 38.6156L60.0093 27.9484L60.0013 27.7689L50.0312 27.4258Z" fill="black"/>
<path d="M50.0312 27.1973L50.9269 37.9102L60.4211 38.3871L60.0093 27.7199L60.0013 27.5404L50.0312 27.1973Z" fill="#1482D1"/>
<path opacity="0.1" d="M72.6728 27.1973L62.8789 28.6658V39.4267L72.4497 38.044L72.6728 27.1973Z" fill="black"/>
<path d="M72.6728 26.9688L62.8789 28.4372V39.1982L72.4497 37.8155L72.6728 26.9688Z" fill="#1482D1"/>
<path opacity="0.3" d="M70.3646 29.5938L65.0742 30.1816L65.1898 31.9841L70.3612 31.4191L70.3646 29.5938Z" fill="white"/>
<path d="M51.4408 43.6472L51.9796 45.0962C51.9796 45.0962 52.7803 45.7824 53.6565 45.4393C54.5327 45.0962 55.2968 44.9258 55.6777 44.5918C56.0587 44.2579 56.5928 42.5801 56.5928 42.5801C56.5928 42.5801 57.127 40.7502 57.6601 40.2927C58.1931 39.8352 59.6047 33.5324 57.6601 34.1488C55.7155 34.7653 54.2284 40.4837 54.2284 40.4837C54.2284 40.4837 53.8853 40.9023 53.39 40.9412C52.8947 40.9801 51.903 40.8646 51.7119 41.2843C51.5209 41.704 50.8689 42.8088 51.4408 43.6472Z" fill="#BE6F72"/>
<path opacity="0.1" d="M62.8801 28.6652C62.3786 28.7781 61.8577 28.7722 61.359 28.6479C60.8603 28.5236 60.3975 28.2843 60.0078 27.9492L60.4207 38.6152C60.4207 38.6152 61.393 39.6674 62.8801 39.4273V28.6652Z" fill="black"/>
<path d="M62.8801 28.4357C62.3786 28.5486 61.8577 28.5427 61.359 28.4184C60.8603 28.2941 60.3975 28.0548 60.0078 27.7197L60.4207 38.3857C60.4207 38.3857 61.393 39.4379 62.8801 39.1978V28.4357Z" fill="#1482D1"/>
<path opacity="0.1" d="M62.8801 28.4357C62.3786 28.5486 61.8577 28.5427 61.359 28.4184C60.8603 28.2941 60.3975 28.0548 60.0078 27.7197L60.4207 38.3857C60.4207 38.3857 61.393 39.4379 62.8801 39.1978V28.4357Z" fill="black"/>
<path opacity="0.1" d="M63.1094 27.2339C63.1094 27.2339 67.0935 26.0159 68.1321 26.1875L63.1094 27.2339Z" fill="black"/>
<path opacity="0.1" d="M58.6514 26.7027C58.6514 26.7027 54.7897 25.7877 54.1445 26.0474L58.6514 26.7027Z" fill="black"/>
<path opacity="0.1" d="M65.6211 27.3866C65.6211 27.3866 68.2852 26.4099 69.2483 26.8742L65.6211 27.3866Z" fill="black"/>
<path opacity="0.1" d="M64.2793 51.8875C64.6921 51.5775 65.1316 51.3047 65.5925 51.0721C66.2788 50.7416 67.537 49.8838 67.537 49.8838" fill="black"/>
<path opacity="0.1" d="M54.1457 40.2158C54.1457 40.2158 52.4745 41.5825 51.9723 41.7026C51.4701 41.8227 51.1602 42.8886 51.1602 42.8886" fill="black"/>
<path d="M71.6908 43.4435L71.1577 44.896C71.1577 44.896 70.357 45.5822 69.4797 45.2391C68.6023 44.896 67.8405 44.7256 67.4584 44.3916C67.0764 44.0577 66.5433 42.3799 66.5433 42.3799C66.5433 42.3799 66.0103 40.55 65.4761 40.0925C64.9419 39.635 63.5315 33.3322 65.4761 33.9486C67.4207 34.5651 68.9077 40.2835 68.9077 40.2835C68.9077 40.2835 69.2509 40.7021 69.7462 40.741C70.2415 40.7799 71.2332 40.6644 71.4243 41.0841C71.6153 41.5038 72.2627 42.6086 71.6908 43.4435Z" fill="#BE6F72"/>
<path opacity="0.1" d="M70.7559 40.7715C70.7559 40.7715 71.8483 41.4737 71.8437 42.3132L70.7559 40.7715Z" fill="black"/>
<path d="M70.7168 7.00151C70.6326 6.69097 70.516 6.36853 70.274 6.16051C70.0428 5.99343 69.7758 5.88348 69.4946 5.83956C68.8214 5.66135 68.137 5.5293 67.446 5.44432C67.3473 5.11438 67.1979 4.80204 67.0032 4.51862C65.5567 2.46217 63.4166 0.523111 60.8985 0.0847791C59.5805 -0.145531 58.0528 0.0610048 57.2086 1.10706C56.7451 1.68209 56.5459 2.44434 56.078 3.00898C55.1762 4.10555 53.5482 4.24076 52.4117 5.0892C51.805 5.53496 51.3652 6.18131 50.9357 6.80835C50.4707 7.4874 49.9925 8.19467 49.8449 9.00596C49.5497 10.627 50.6139 12.1724 50.8102 13.8083C51.253 17.468 47.3564 20.7146 48.0929 24.3253C48.5224 26.4308 50.4545 27.9137 52.453 28.6655C53.157 28.9315 53.9614 29.196 54.2906 29.8765C54.4382 30.1737 54.4633 30.5169 54.602 30.8171C55.0684 31.8186 56.602 31.8572 57.4256 31.1276C58.2491 30.3981 58.5089 29.2183 58.6063 28.1172C59.0019 23.309 57.089 18.5586 57.3119 13.7385C57.3783 12.2808 57.7857 10.627 59.0831 9.96732C60.8292 9.07579 62.9295 10.5617 64.8512 10.2779C65.7606 12.5054 65.9536 14.9638 65.4032 17.3075C65.0977 18.5898 64.5693 19.8335 64.5309 21.1559C64.4734 23.1693 65.5523 25.0088 66.4851 26.7889C66.6853 27.1217 66.8191 27.4907 66.8792 27.8751C66.8939 28.265 66.8218 28.6534 66.6681 29.0117C66.1412 30.4397 65.232 31.7651 65.1287 33.2851C65.0984 33.4626 65.1381 33.6449 65.2394 33.7933C65.3434 33.8923 65.4776 33.9531 65.6202 33.9656C67.2143 34.2405 68.5928 32.8185 69.3707 31.3906C70.2379 29.8135 70.7432 28.0609 70.8496 26.2614C71.0105 23.2362 69.933 20.26 69.9994 17.2317C70.0762 13.789 71.6215 10.3224 70.7168 7.00151Z" fill="#3E373A"/>
<path d="M61 21C64.866 21 68 18.0899 68 14.5C68 10.9101 64.866 8 61 8C57.134 8 54 10.9101 54 14.5C54 18.0899 57.134 21 61 21Z" fill="#BE6F72"/>
<path d="M57.2837 12.9785C58.0884 12.8525 58.7936 12.3858 59.5626 12.1176C61.2832 11.5145 63.1864 11.9279 64.9278 12.4717C65.5959 12.6806 66.2744 12.9162 66.9751 12.9162C67.6758 12.9162 68.4196 12.6303 68.7774 12.0272C69.1069 11.473 69.0431 10.7528 68.7655 10.1705C68.4879 9.58814 68.0232 9.11989 67.5541 8.67832C66.0101 7.2232 64.095 5.86291 61.9765 6.01109C61.1244 6.07184 60.3093 6.37561 59.5255 6.71198C58.5385 7.13651 57.5777 7.61945 56.6483 8.15821C55.9343 8.57163 54.6115 9.12434 54.2003 9.88005C53.265 11.5826 55.8289 13.2067 57.2837 12.9785Z" fill="#3E373A"/>
<path opacity="0.1" d="M68.7765 11.355C68.4188 12.0513 67.6751 12.3815 66.9744 12.3815C66.2738 12.3815 65.5954 12.1197 64.9259 11.8785C63.1847 11.2506 61.2831 10.7716 59.5612 11.4696C58.7937 11.7793 58.0871 12.325 57.2825 12.4619C56.1098 12.6741 54.2216 11.497 54.0168 10C53.7867 11.7297 55.9762 13.2113 57.2825 12.9752C58.0871 12.8297 58.7937 12.2908 59.5612 11.9829C61.2831 11.2848 63.1847 11.7639 64.9259 12.3918C65.5954 12.633 66.2723 12.905 66.9744 12.8948C67.6766 12.8845 68.4188 12.5663 68.7765 11.8682C68.962 11.4885 69.035 11.0494 68.9844 10.6176C68.9612 10.8776 68.8904 11.1289 68.7765 11.355Z" fill="black"/>
<path d="M108.601 74.7041C108.601 74.7041 109.279 75.5905 108.288 76.9297C107.296 78.269 106.479 79.3989 106.809 80.2338C106.809 80.2338 108.305 77.7474 109.522 77.712C110.739 77.6765 109.938 76.1989 108.601 74.7041Z" fill="#1482D1"/>
<path opacity="0.1" d="M108.601 74.7041C108.66 74.7897 108.707 74.8833 108.74 74.982C109.927 76.3773 110.561 77.68 109.418 77.712C108.354 77.7429 107.079 79.6448 106.773 80.124C106.783 80.1628 106.795 80.2009 106.809 80.2384C106.809 80.2384 108.305 77.752 109.522 77.7166C110.739 77.6811 109.939 76.1989 108.601 74.7041Z" fill="black"/>
<path d="M109.86 75.8333C109.86 76.1455 109.824 76.3983 109.782 76.3983C109.74 76.3983 109.703 76.1455 109.703 75.8333C109.703 75.5211 109.747 75.6686 109.79 75.6686C109.834 75.6686 109.86 75.5211 109.86 75.8333Z" fill="#FFD037"/>
<path d="M110.294 76.2064C110.021 76.355 109.782 76.4454 109.761 76.4076C109.741 76.3699 109.945 76.2178 110.219 76.0645C110.492 75.9113 110.385 76.0234 110.405 76.0645C110.426 76.1057 110.569 76.0565 110.294 76.2064Z" fill="#FFD037"/>
<path d="M105.017 74.7041C105.017 74.7041 104.339 75.5905 105.331 76.9297C106.323 78.269 107.139 79.3989 106.809 80.2338C106.809 80.2338 105.314 77.7474 104.095 77.712C102.877 77.6765 103.684 76.1989 105.017 74.7041Z" fill="#1482D1"/>
<path opacity="0.1" d="M105.017 74.7041C104.958 74.7897 104.912 74.8833 104.879 74.982C103.692 76.3773 103.058 77.68 104.201 77.712C105.263 77.7429 106.54 79.6448 106.845 80.124C106.836 80.1629 106.824 80.2012 106.809 80.2384C106.809 80.2384 105.314 77.752 104.095 77.7166C102.877 77.6811 103.684 76.1989 105.017 74.7041Z" fill="black"/>
<path d="M103.756 75.8333C103.756 76.1455 103.79 76.3983 103.834 76.3983C103.877 76.3983 103.913 76.1455 103.913 75.8333C103.913 75.5211 103.868 75.6686 103.826 75.6686C103.783 75.6686 103.756 75.5211 103.756 75.8333Z" fill="#FFD037"/>
<path d="M103.323 76.2064C103.596 76.355 103.835 76.4454 103.856 76.4076C103.876 76.3699 103.672 76.2178 103.398 76.0645C103.125 75.9113 103.232 76.0234 103.212 76.0645C103.191 76.1057 103.048 76.0565 103.323 76.2064Z" fill="#FFD037"/>
<path opacity="0.1" d="M106.809 87.0181C110.726 87.0181 113.901 86.5311 113.901 85.9304C113.901 85.3297 110.726 84.8428 106.809 84.8428C102.892 84.8428 99.7168 85.3297 99.7168 85.9304C99.7168 86.5311 102.892 87.0181 106.809 87.0181Z" fill="#1482D1"/>
<path d="M110.459 79.038L110.425 79.3148L110.377 79.706L110.357 79.8695L110.309 80.2606L110.289 80.4242L110.242 80.8142L109.698 85.2631C109.65 85.66 109.002 85.9699 108.218 85.9699H105.398C104.615 85.9699 103.968 85.66 103.918 85.2631L103.375 80.8142L103.327 80.4242L103.307 80.2606L103.259 79.8695L103.239 79.706L103.192 79.3148L103.158 79.038C103.131 78.8093 103.481 78.624 103.925 78.624H109.693C110.135 78.624 110.486 78.8127 110.459 79.038Z" fill="#65617D"/>
<path d="M110.426 79.3154L110.379 79.7066H103.241L103.193 79.3154H110.426Z" fill="#9D9CB5"/>
<path d="M110.357 79.8701L110.311 80.2613H103.308L103.26 79.8701H110.357Z" fill="#9D9CB5"/>
<path d="M110.29 80.4238L110.242 80.815H103.375L103.328 80.4238H110.29Z" fill="#9D9CB5"/>
<defs>
<linearGradient id="paint0_linear" x1="62.5277" y1="61.404" x2="62.5277" y2="4.00011" gradientUnits="userSpaceOnUse">
<stop stop-color="#808080" stop-opacity="0.25"/>
<stop offset="0.54" stop-color="#808080" stop-opacity="0.12"/>
<stop offset="1" stop-color="#808080" stop-opacity="0.1"/>
</linearGradient>
</defs>
</svg>
