<svg width="151" height="97" viewBox="0 0 151 97" fill="none" xmlns="http://www.w3.org/2000/svg">
<g clip-path="url(#clip0)">
<path d="M141.049 96.6465C139.093 95.3348 138.108 92.8395 138.069 90.4809C138.056 89.69 138.255 88.773 138.962 88.4212C139.164 88.3205 139.391 88.2778 139.616 88.2977C139.841 88.3176 140.056 88.3994 140.238 88.534C140.419 88.6687 140.56 88.8509 140.645 89.0608C140.73 89.2706 140.755 89.4999 140.719 89.7233C140.981 88.9538 141.321 88.2133 141.734 87.5133C142.083 86.9207 142.574 86.3039 143.258 86.2475C144.053 86.1822 144.716 86.9553 144.829 87.7459C144.941 88.5365 144.654 89.3234 144.372 90.0703C144.452 89.732 144.615 89.4191 144.846 89.1604C145.078 88.9016 145.37 88.7051 145.697 88.5889C146.024 88.4728 146.375 88.4406 146.717 88.4954C147.06 88.5502 147.383 88.6902 147.657 88.9026C148.434 89.5035 148.69 90.6094 148.495 91.5731C148.299 92.5367 147.725 93.3799 147.091 94.1299C146.347 95.0093 145.485 95.813 144.454 96.3235C143.422 96.8341 142.202 97.0293 141.105 96.6832L141.049 96.6465Z" fill="#F2F2F2"/>
<path d="M114.291 65.059C114.56 64.9247 114.796 64.7329 114.984 64.4971C115.171 64.2613 115.304 63.9872 115.374 63.6941C115.445 63.401 115.45 63.0961 115.39 62.8008C115.329 62.5055 115.205 62.227 115.026 61.985L119.819 38.6611L115.346 38.6021L112.018 61.63C111.632 61.9586 111.38 62.4177 111.309 62.9201C111.239 63.4226 111.354 63.9336 111.635 64.3562C111.915 64.7789 112.34 65.0839 112.829 65.2134C113.319 65.3429 113.839 65.288 114.291 65.059V65.059Z" fill="#FFB8B8"/>
<path d="M136.079 63.8481C136.298 63.6423 136.47 63.3907 136.583 63.1111C136.695 62.8315 136.744 62.5306 136.728 62.2297C136.712 61.9287 136.63 61.6351 136.488 61.3693C136.346 61.1036 136.148 60.8723 135.907 60.6917L133.848 36.9678L129.545 38.1925L132.923 61.2133C132.647 61.6387 132.536 62.1508 132.612 62.6526C132.687 63.1543 132.944 63.6108 133.333 63.9356C133.722 64.2603 134.216 64.4308 134.722 64.4147C135.229 64.3986 135.711 64.197 136.079 63.8481Z" fill="#FFB8B8"/>
<path d="M122.275 94.446L119.927 94.4458L118.811 85.3711L122.275 85.3713L122.275 94.446Z" fill="#FFB8B8"/>
<path d="M118.251 93.7739H122.778V96.6308H115.4C115.4 95.8731 115.701 95.1464 116.235 94.6107C116.77 94.0749 117.495 93.7739 118.251 93.7739Z" fill="#2F2E41"/>
<path d="M132.806 94.446L130.458 94.4458L129.342 85.3711L132.806 85.3713L132.806 94.446Z" fill="#FFB8B8"/>
<path d="M128.782 93.7739H133.309V96.6308H125.932C125.932 95.8731 126.232 95.1464 126.767 94.6107C127.301 94.0749 128.026 93.7739 128.782 93.7739Z" fill="#2F2E41"/>
<path d="M124 30C127.866 30 131 26.866 131 23C131 19.134 127.866 16 124 16C120.134 16 117 19.134 117 23C117 26.866 120.134 30 124 30Z" fill="#FFB8B8"/>
<path d="M129.496 88.7203C129.305 88.7194 129.12 88.6522 128.972 88.5302C128.824 88.4082 128.723 88.2387 128.686 88.0506L125.507 71.5649C125.478 71.4139 125.395 71.2784 125.275 71.183C125.155 71.0875 125.005 71.0384 124.851 71.0446C124.698 71.0508 124.552 71.1118 124.44 71.2167C124.328 71.3215 124.257 71.4632 124.24 71.616L122.459 87.674C122.438 87.8699 122.348 88.0519 122.204 88.1866C122.061 88.3213 121.874 88.3999 121.677 88.408L119.007 88.5296C118.899 88.5354 118.79 88.5192 118.688 88.482C118.586 88.4449 118.492 88.3875 118.412 88.3133C118.332 88.24 118.267 88.1514 118.221 88.0527C118.176 87.954 118.15 87.8471 118.146 87.7383L117.122 62.9332C117.116 62.808 117.14 62.6831 117.19 62.5682C117.24 62.4533 117.315 62.3514 117.411 62.2703L118.003 61.764C118.152 61.6365 118.342 61.5665 118.538 61.5664H132.378C132.596 61.5667 132.806 61.6538 132.96 61.8087C133.115 61.9637 133.202 62.1737 133.202 62.3929V87.7681C133.203 87.9812 133.121 88.1862 132.974 88.3401C132.827 88.494 132.626 88.585 132.413 88.5938L129.531 88.7196C129.52 88.7199 129.508 88.7203 129.496 88.7203Z" fill="#2F2E41"/>
<path d="M122.407 65.1753C120.17 65.1755 118.198 64.5779 117.202 62.8352C117.119 62.6916 117.08 62.5266 117.09 62.3608L118.341 43.1942C118.351 43.0393 118.305 42.8858 118.211 42.7624L114.7 38.1493C114.634 38.0629 114.586 37.9643 114.559 37.8591C114.531 37.754 114.524 37.6444 114.539 37.5367C114.553 37.4289 114.589 37.3252 114.644 37.2313C114.699 37.1374 114.771 37.0553 114.858 36.9897L120.124 32.9913C120.234 32.9071 120.315 32.7893 120.353 32.6555L120.507 32.1175C120.554 31.9499 120.653 31.8017 120.79 31.6941C120.927 31.5865 121.094 31.5251 121.268 31.5186L125.132 31.3696C125.261 31.3653 125.389 31.391 125.506 31.4447C125.623 31.4985 125.727 31.5788 125.808 31.6793L126.219 32.1944C126.271 32.2602 126.336 32.315 126.41 32.3557L132.872 35.9347C132.999 36.0056 133.106 36.109 133.181 36.2345C133.255 36.36 133.296 36.5031 133.297 36.6493L133.298 36.6607L133.295 36.6717C131.789 42.9666 131.873 50.9232 133.562 61.7121C133.566 61.8766 133.521 62.0388 133.433 62.1777C133.345 62.3166 133.218 62.4261 133.067 62.4919C131.669 63.099 126.578 65.1753 122.407 65.1753Z" fill="#1482D1"/>
<path d="M118.471 45.405H114.094C113.982 45.4051 113.871 45.3823 113.768 45.3378C113.665 45.2934 113.572 45.2283 113.494 45.1465C113.417 45.0647 113.358 44.968 113.319 44.8622C113.281 44.7565 113.264 44.644 113.271 44.5317C113.336 43.4142 113.465 41.2889 113.593 39.6129C113.778 37.201 116.136 36.0139 116.16 36.0021L116.206 35.9795L117.798 36.9923L119.28 44.4166C119.304 44.5365 119.301 44.6602 119.271 44.7788C119.241 44.8974 119.186 45.008 119.109 45.1025C119.031 45.197 118.934 45.2732 118.824 45.3255C118.714 45.3778 118.593 45.405 118.471 45.405H118.471Z" fill="#1482D1"/>
<path d="M130.465 44.9956C130.35 44.9949 130.236 44.9699 130.13 44.9222C130.025 44.8746 129.931 44.8053 129.854 44.719C129.777 44.6326 129.719 44.531 129.684 44.4208C129.649 44.3106 129.637 44.1942 129.649 44.0791L130.457 36.6313L132.018 35.4858L132.053 35.4898C132.07 35.4918 133.732 35.6998 134.477 37.5657C135.007 38.8945 135.817 41.3504 136.253 42.696C136.288 42.8041 136.3 42.9184 136.289 43.0315C136.278 43.1446 136.244 43.2542 136.188 43.3534C136.133 43.4526 136.058 43.5393 135.967 43.608C135.877 43.6767 135.773 43.726 135.663 43.7527L130.664 44.9714C130.599 44.9874 130.532 44.9956 130.465 44.9956Z" fill="#1482D1"/>
<path d="M124.125 30C125.597 27.6595 123.759 21.2168 119.756 21.0487C118.832 21.0099 118.477 19.6579 118.162 18.7833C118.002 18.2763 117.96 17.7391 118.038 17.213C118.116 16.6869 118.313 16.1857 118.614 15.7478C119.225 14.8751 120.067 14.1915 121.044 13.7741C122.143 13.2665 123.339 13.0025 124.548 13C125.758 12.9976 126.954 13.2568 128.056 13.76C129.157 14.2632 130.138 14.9987 130.931 15.9165C131.725 16.8344 132.313 17.9131 132.655 19.0795C132.998 20.2459 133.086 21.4726 132.915 22.6765C132.744 23.8804 132.318 25.0332 131.665 26.0567C131.011 27.0802 130.147 27.9505 129.129 28.6085C128.112 29.2665 126.965 29.6968 125.768 29.8702L124.125 30Z" fill="#2F2E41"/>
<path d="M94.5897 0H1.34034C0.98498 0.000395176 0.644288 0.142052 0.393011 0.393887C0.141734 0.645723 0.000394299 0.98717 0 1.34332V64.6712C0.000394805 65.0274 0.141734 65.3688 0.393011 65.6206C0.644287 65.8725 0.98498 66.0141 1.34034 66.0145H94.5897C94.945 66.0141 95.2857 65.8725 95.537 65.6206C95.7883 65.3688 95.9296 65.0274 95.93 64.6712V1.34332C95.9296 0.98717 95.7883 0.645723 95.537 0.393887C95.2857 0.142052 94.945 0.000395176 94.5897 0ZM95.547 64.6712C95.5469 64.9256 95.446 65.1696 95.2665 65.3496C95.087 65.5295 94.8435 65.6306 94.5897 65.6307H1.34034C1.08646 65.6306 0.842999 65.5295 0.663476 65.3496C0.483953 65.1696 0.383056 64.9256 0.382954 64.6712V1.34332C0.383056 1.08887 0.483953 0.844875 0.663476 0.664954C0.842999 0.485032 1.08646 0.383907 1.34034 0.383805H94.5897C94.8435 0.383907 95.087 0.485032 95.2665 0.664954C95.446 0.844875 95.5469 1.08887 95.547 1.34332V64.6712Z" fill="#3F3D56"/>
<path d="M95.7384 5.38086H0.191406V5.76466H95.7384V5.38086Z" fill="#3F3D56"/>
<path d="M3.44574 4.03037C4.08024 4.03037 4.5946 3.51486 4.5946 2.87896C4.5946 2.24305 4.08024 1.72754 3.44574 1.72754C2.81124 1.72754 2.29688 2.24305 2.29688 2.87896C2.29688 3.51486 2.81124 4.03037 3.44574 4.03037Z" fill="#3F3D56"/>
<path d="M6.74847 4.03037C7.38297 4.03037 7.89733 3.51486 7.89733 2.87896C7.89733 2.24305 7.38297 1.72754 6.74847 1.72754C6.11397 1.72754 5.59961 2.24305 5.59961 2.87896C5.59961 3.51486 6.11397 4.03037 6.74847 4.03037Z" fill="#3F3D56"/>
<path d="M10.0512 4.03037C10.6857 4.03037 11.2001 3.51486 11.2001 2.87896C11.2001 2.24305 10.6857 1.72754 10.0512 1.72754C9.41671 1.72754 8.90234 2.24305 8.90234 2.87896C8.90234 3.51486 9.41671 4.03037 10.0512 4.03037Z" fill="#3F3D56"/>
<path d="M77.3238 18.512H17.9659C17.1788 18.512 16.4239 18.1986 15.8673 17.6408C15.3107 17.0829 14.998 16.3264 14.998 15.5375C14.998 14.7486 15.3107 13.992 15.8673 13.4342C16.4239 12.8764 17.1788 12.563 17.9659 12.563H77.3238C78.111 12.563 78.8659 12.8764 79.4225 13.4342C79.979 13.992 80.2917 14.7486 80.2917 15.5375C80.2917 16.3264 79.979 17.0829 79.4225 17.6408C78.8659 18.1986 78.111 18.512 77.3238 18.512ZM17.9659 12.9468C17.2804 12.9468 16.6229 13.2197 16.1381 13.7056C15.6533 14.1914 15.381 14.8504 15.381 15.5375C15.381 16.2246 15.6533 16.8835 16.1381 17.3694C16.6229 17.8552 17.2804 18.1282 17.9659 18.1282H77.3238C78.0094 18.1282 78.6669 17.8552 79.1517 17.3694C79.6364 16.8835 79.9088 16.2246 79.9088 15.5375C79.9088 14.8504 79.6364 14.1914 79.1517 13.7056C78.6669 13.2197 78.0094 12.9468 77.3238 12.9468H17.9659Z" fill="#3F3D56"/>
<path d="M33.2846 33.6721H21.796C21.0089 33.6721 20.254 33.3587 19.6974 32.8009C19.1408 32.2431 18.8281 31.4865 18.8281 30.6976C18.8281 29.9088 19.1408 29.1522 19.6974 28.5944C20.254 28.0365 21.0089 27.7231 21.796 27.7231H33.2846C34.0718 27.7231 34.8267 28.0365 35.3833 28.5944C35.9398 29.1522 36.2525 29.9088 36.2525 30.6976C36.2525 31.4865 35.9398 32.2431 35.3833 32.8009C34.8267 33.3587 34.0718 33.6721 33.2846 33.6721ZM21.796 28.1069C21.1105 28.1069 20.453 28.3799 19.9682 28.8657C19.4834 29.3516 19.2111 30.0105 19.2111 30.6976C19.2111 31.3847 19.4834 32.0437 19.9682 32.5295C20.453 33.0154 21.1105 33.2883 21.796 33.2883H33.2846C33.9702 33.2883 34.6277 33.0154 35.1125 32.5295C35.5972 32.0437 35.8696 31.3847 35.8696 30.6976C35.8696 30.0105 35.5972 29.3516 35.1125 28.8657C34.6277 28.3799 33.9702 28.1069 33.2846 28.1069H21.796Z" fill="#3F3D56"/>
<path d="M33.2846 43.6511H21.796C21.0089 43.6511 20.254 43.3378 19.6974 42.7799C19.1408 42.2221 18.8281 41.4655 18.8281 40.6766C18.8281 39.8878 19.1408 39.1312 19.6974 38.5734C20.254 38.0155 21.0089 37.7021 21.796 37.7021H33.2846C34.0718 37.7021 34.8267 38.0155 35.3833 38.5734C35.9398 39.1312 36.2525 39.8878 36.2525 40.6766C36.2525 41.4655 35.9398 42.2221 35.3833 42.7799C34.8267 43.3378 34.0718 43.6511 33.2846 43.6511ZM21.796 38.086C21.1105 38.086 20.453 38.3589 19.9682 38.8448C19.4834 39.3306 19.2111 39.9895 19.2111 40.6766C19.2111 41.3637 19.4834 42.0227 19.9682 42.5085C20.453 42.9944 21.1105 43.2673 21.796 43.2673H33.2846C33.9702 43.2673 34.6277 42.9944 35.1125 42.5085C35.5972 42.0227 35.8696 41.3637 35.8696 40.6766C35.8696 39.9895 35.5972 39.3306 35.1125 38.8448C34.6277 38.3589 33.9702 38.086 33.2846 38.086H21.796Z" fill="#3F3D56"/>
<path d="M33.2846 53.6301H21.796C21.0089 53.6301 20.254 53.3167 19.6974 52.7589C19.1408 52.2011 18.8281 51.4445 18.8281 50.6556C18.8281 49.8668 19.1408 49.1102 19.6974 48.5524C20.254 47.9945 21.0089 47.6812 21.796 47.6812H33.2846C34.0718 47.6812 34.8267 47.9945 35.3833 48.5524C35.9398 49.1102 36.2525 49.8668 36.2525 50.6556C36.2525 51.4445 35.9398 52.2011 35.3833 52.7589C34.8267 53.3167 34.0718 53.6301 33.2846 53.6301ZM21.796 48.065C21.1105 48.065 20.453 48.3379 19.9682 48.8238C19.4834 49.3096 19.2111 49.9685 19.2111 50.6556C19.2111 51.3427 19.4834 52.0017 19.9682 52.4875C20.453 52.9734 21.1105 53.2463 21.796 53.2463H33.2846C33.9702 53.2463 34.6277 52.9734 35.1125 52.4875C35.5972 52.0017 35.8696 51.3427 35.8696 50.6556C35.8696 49.9685 35.5972 49.3096 35.1125 48.8238C34.6277 48.3379 33.9702 48.065 33.2846 48.065H21.796Z" fill="#3F3D56"/>
<path d="M35.0084 16.8805H18.9243C18.5688 16.8805 18.2279 16.739 17.9766 16.487C17.7252 16.2351 17.584 15.8934 17.584 15.5372C17.584 15.1809 17.7252 14.8392 17.9766 14.5873C18.2279 14.3354 18.5688 14.1938 18.9243 14.1938H35.0084C35.3639 14.1938 35.7048 14.3354 35.9562 14.5873C36.2075 14.8392 36.3487 15.1809 36.3487 15.5372C36.3487 15.8934 36.2075 16.2351 35.9562 16.487C35.7048 16.739 35.3639 16.8805 35.0084 16.8805Z" fill="#1482D1"/>
<path d="M75.313 16.2086C75.0479 16.2086 74.7888 16.1298 74.5683 15.9822C74.3479 15.8346 74.1761 15.6248 74.0747 15.3794C73.9732 15.1339 73.9467 14.8638 73.9984 14.6032C74.0501 14.3426 74.1778 14.1033 74.3652 13.9154C74.5527 13.7276 74.7915 13.5996 75.0515 13.5478C75.3115 13.496 75.581 13.5226 75.8259 13.6242C76.0708 13.7259 76.2802 13.8981 76.4274 14.119C76.5747 14.3399 76.6533 14.5996 76.6533 14.8653C76.6529 15.2214 76.5116 15.5629 76.2603 15.8147C76.009 16.0666 75.6683 16.2082 75.313 16.2086ZM75.313 13.9058C75.1236 13.9058 74.9385 13.962 74.7811 14.0675C74.6237 14.1729 74.5009 14.3228 74.4285 14.4981C74.356 14.6734 74.3371 14.8664 74.374 15.0525C74.4109 15.2386 74.5021 15.4096 74.636 15.5438C74.7699 15.678 74.9405 15.7693 75.1262 15.8064C75.3119 15.8434 75.5044 15.8244 75.6794 15.7518C75.8543 15.6791 76.0038 15.5562 76.109 15.3984C76.2142 15.2406 76.2704 15.0551 76.2704 14.8653C76.2701 14.6109 76.1691 14.367 75.9896 14.1871C75.8102 14.0073 75.5668 13.9061 75.313 13.9058Z" fill="#3F3D56"/>
<path d="M77.3864 17.4245C77.3612 17.4246 77.3363 17.4196 77.3131 17.41C77.2899 17.4003 77.2688 17.3862 77.251 17.3683L75.9057 16.0199C75.8879 16.0021 75.8738 15.981 75.8642 15.9577C75.8546 15.9344 75.8496 15.9095 75.8496 15.8843C75.8496 15.8591 75.8546 15.8341 75.8642 15.8108C75.8738 15.7876 75.8879 15.7664 75.9057 15.7486C75.9235 15.7308 75.9446 15.7166 75.9678 15.707C75.991 15.6973 76.0159 15.6924 76.0411 15.6924C76.0662 15.6924 76.0911 15.6973 76.1143 15.707C76.1376 15.7166 76.1587 15.7308 76.1765 15.7486L77.5218 17.097C77.5486 17.1238 77.5668 17.158 77.5742 17.1952C77.5815 17.2324 77.5778 17.271 77.5633 17.3061C77.5488 17.3411 77.5242 17.3711 77.4928 17.3922C77.4613 17.4133 77.4243 17.4245 77.3864 17.4245L77.3864 17.4245Z" fill="#3F3D56"/>
<path d="M74.548 32.5207H68.0378C67.5553 32.5207 67.0927 32.3286 66.7515 31.9867C66.4104 31.6448 66.2188 31.1811 66.2188 30.6976C66.2188 30.2141 66.4104 29.7504 66.7515 29.4085C67.0927 29.0666 67.5553 28.8745 68.0378 28.8745H74.548C75.0305 28.8745 75.4931 29.0666 75.8343 29.4085C76.1754 29.7504 76.3671 30.2141 76.3671 30.6976C76.3671 31.1811 76.1754 31.6448 75.8343 31.9867C75.4931 32.3286 75.0305 32.5207 74.548 32.5207Z" fill="#1482D1"/>
<path d="M74.548 42.4997H68.0378C67.5553 42.4997 67.0927 42.3076 66.7515 41.9657C66.4104 41.6238 66.2188 41.1601 66.2188 40.6766C66.2188 40.1931 66.4104 39.7294 66.7515 39.3875C67.0927 39.0456 67.5553 38.8535 68.0378 38.8535H74.548C75.0305 38.8535 75.4931 39.0456 75.8343 39.3875C76.1754 39.7294 76.3671 40.1931 76.3671 40.6766C76.3671 41.1601 76.1754 41.6238 75.8343 41.9657C75.4931 42.3076 75.0305 42.4997 74.548 42.4997Z" fill="#1482D1"/>
<path d="M74.548 52.4787H68.0378C67.5553 52.4787 67.0927 52.2866 66.7515 51.9447C66.4104 51.6028 66.2188 51.1391 66.2188 50.6556C66.2188 50.1721 66.4104 49.7084 66.7515 49.3665C67.0927 49.0246 67.5553 48.8325 68.0378 48.8325H74.548C75.0305 48.8325 75.4931 49.0246 75.8343 49.3665C76.1754 49.7084 76.3671 50.1721 76.3671 50.6556C76.3671 51.1391 76.1754 51.6028 75.8343 51.9447C75.4931 52.2866 75.0305 52.4787 74.548 52.4787Z" fill="#1482D1"/>
<path d="M150.809 97H103.322C103.272 97 103.223 96.9798 103.187 96.9438C103.151 96.9078 103.131 96.859 103.131 96.8081C103.131 96.7572 103.151 96.7084 103.187 96.6724C103.223 96.6364 103.272 96.6162 103.322 96.6162H150.809C150.859 96.6162 150.908 96.6364 150.944 96.6724C150.98 96.7084 151 96.7572 151 96.8081C151 96.859 150.98 96.9078 150.944 96.9438C150.908 96.9798 150.859 97 150.809 97Z" fill="#3F3D56"/>
</g>
<defs>
<clipPath id="clip0">
<rect width="151" height="97" fill="white"/>
</clipPath>
</defs>
</svg>
