<svg width="153" height="107" viewBox="0 0 153 107" fill="none" xmlns="http://www.w3.org/2000/svg">
<g clip-path="url(#clip0)">
<path d="M105.461 45.5782L108.47 41.8431C108.47 41.8431 109.53 37.928 111.064 38.1264C112.599 38.3249 110.458 42.8217 110.458 42.8217L107.468 46.9561L105.461 45.5782Z" fill="#FBBEBE"/>
<path d="M113.214 49.9679L112.522 49.7014L109.336 49.435C109.336 49.435 108.229 49.1685 108.506 48.6355C108.783 48.1026 109.059 47.9693 108.506 47.8361C107.952 47.7029 107.813 47.5696 107.952 47.1699C108.09 46.7702 108.921 45.9708 108.921 45.9708L106.567 44.1055C106.567 44.1055 106.439 44.1922 106.233 44.3526C105.064 45.2631 101.366 48.5482 104.074 51.8332C107.259 55.6971 110.998 57.9621 114.045 57.1627L113.214 49.9679Z" fill="#1482D1"/>
<path d="M98.2216 33.6392C99.7828 34.0372 101.134 34.9812 102.01 36.2865L102.463 36.9615L102.485 36.9894L110.433 39.2266C110.579 39.2676 110.702 39.362 110.776 39.4895C110.85 39.6169 110.869 39.7673 110.829 39.9081L110.212 42.0846C110.192 42.1555 110.158 42.2218 110.111 42.2799C110.064 42.3379 110.006 42.3864 109.939 42.4227C109.873 42.4589 109.799 42.4822 109.724 42.4911C109.648 42.5 109.571 42.4945 109.497 42.4747L101.548 40.337L101.548 40.3373L100.749 40.6276C99.2791 41.1624 97.6666 41.2151 96.1621 40.7776L98.2216 33.6392Z" fill="#3F3D56"/>
<path d="M106.592 39.9508C106.667 39.7033 106.337 39.3926 105.855 39.2569C105.373 39.1211 104.921 39.2116 104.845 39.4591C104.77 39.7066 105.1 40.0173 105.582 40.1531C106.065 40.2889 106.517 40.1983 106.592 39.9508Z" fill="#575A89"/>
<path d="M106.185 40.1797C106.369 40.1797 106.519 40.0358 106.519 39.8584C106.519 39.6809 106.369 39.5371 106.185 39.5371C106.001 39.5371 105.852 39.6809 105.852 39.8584C105.852 40.0358 106.001 40.1797 106.185 40.1797Z" fill="#3F3D56"/>
<path d="M98.8868 37.7612C99.5495 35.795 99.3375 33.9673 98.4133 33.679C97.489 33.3907 96.2025 34.7509 95.5398 36.7171C94.8771 38.6834 95.0891 40.5111 96.0133 40.7994C96.9376 41.0877 98.224 39.7275 98.8868 37.7612Z" fill="#1482D1"/>
<path opacity="0.4" d="M98.6386 37.6924C99.2771 35.7978 99.1035 34.0321 98.2631 33.6479C98.3137 33.654 98.3636 33.6646 98.4121 33.6797C99.3363 33.968 99.5483 35.7957 98.8856 37.7619C98.2229 39.7282 96.9364 41.0884 96.0121 40.8001C95.9786 40.7895 95.9459 40.7769 95.9141 40.7622C96.8232 40.8736 98.0107 39.5551 98.6386 37.6924Z" fill="black"/>
<path d="M98.3261 33.6462L80.289 20.1859C77.0995 17.7885 74.0387 15.2365 71.1187 12.54C65.977 7.82502 58.9972 4.05533 50.8707 2.04831C31.1269 -2.82786 15.4858 5.81818 8.37175 18.5135C-2.49924 37.9134 -10.8304 69.3941 37.3715 52.6369C47.9132 48.9721 58.5838 48.5826 66.6748 46.6522L95.9717 40.841L98.3261 33.6462Z" fill="#1482D1"/>
<path d="M44.1745 10.9957C44.7099 10.9957 45.144 10.5781 45.144 10.063C45.144 9.54794 44.7099 9.13037 44.1745 9.13037C43.6391 9.13037 43.2051 9.54794 43.2051 10.063C43.2051 10.5781 43.6391 10.9957 44.1745 10.9957Z" fill="#F2F2F2"/>
<path d="M63.0071 12.2195H62.7548V11.9766H62.7055V12.2195H62.4531V12.267H62.7055V12.51H62.7548V12.267H63.0071V12.2195Z" fill="#F2F2F2"/>
<path d="M88.3528 32.471H88.1005V32.228H88.0512V32.471H87.7988V32.5185H88.0512V32.7615H88.1005V32.5185H88.3528V32.471Z" fill="#F2F2F2"/>
<path d="M86.552 38.7337H86.2997V38.4907H86.2504V38.7337H85.998V38.7812H86.2504V39.0241H86.2997V38.7812H86.552V38.7337Z" fill="#F2F2F2"/>
<path d="M9.13405 44.0628H8.88172V43.8198H8.83241V44.0628H8.58008V44.1103H8.83241V44.3533H8.88172V44.1103H9.13405V44.0628Z" fill="#F2F2F2"/>
<path d="M20.2122 15.0174H19.9598V14.7744H19.9105V15.0174H19.6582V15.0649H19.9105V15.3078H19.9598V15.0649H20.2122V15.0174Z" fill="#F2F2F2"/>
<path d="M63.2845 39.7991H63.0321V39.5562H62.9828V39.7991H62.7305V39.8466H62.9828V40.0896H63.0321V39.8466H63.2845V39.7991Z" fill="#F2F2F2"/>
<path d="M36.8313 6.49005H36.579V6.24707H36.5297V6.49005H36.2773V6.53752H36.5297V6.7805H36.579V6.53752H36.8313V6.49005Z" fill="#F2F2F2"/>
<path d="M36.9296 25.6729L36.6152 25.7195C36.7136 26.3244 36.7911 26.9426 36.8479 27.5542L37.1651 27.5275C37.1083 26.908 37.0293 26.2844 36.9296 25.6729Z" fill="#E6E6E6"/>
<path d="M36.0684 22.0303L35.7637 22.1195C35.9479 22.7058 36.1127 23.3067 36.2526 23.9049L36.5642 23.837C36.4215 23.2321 36.2539 22.6245 36.0684 22.0303Z" fill="#E6E6E6"/>
<path d="M34.6977 18.5371L34.4082 18.6651C34.6741 19.2237 34.9234 19.7969 35.1491 20.3701L35.4469 20.2621C35.2184 19.6822 34.9677 19.101 34.6977 18.5371Z" fill="#E6E6E6"/>
<path d="M32.8409 15.2617L32.5723 15.4257C32.9143 15.9429 33.2426 16.4788 33.5473 17.0161L33.827 16.8694C33.5196 16.3255 33.1872 15.7843 32.8409 15.2617Z" fill="#E6E6E6"/>
<path d="M30.5334 12.2603L30.291 12.4589C30.7037 12.9255 31.1054 13.4134 31.4848 13.9066L31.7397 13.724C31.3574 13.2254 30.9516 12.7322 30.5334 12.2603Z" fill="#E6E6E6"/>
<path d="M27.8213 9.58691L27.6094 9.81487C28.0858 10.2241 28.5525 10.6547 28.9971 11.0933L29.2256 10.8787C28.7755 10.4348 28.3032 10.0002 27.8213 9.58691Z" fill="#E6E6E6"/>
<path d="M24.7587 7.29297L24.5801 7.54626C25.1091 7.88886 25.6326 8.25413 26.1354 8.6314L26.332 8.3901C25.8224 8.00884 25.2933 7.63958 24.7587 7.29297Z" fill="#E6E6E6"/>
<path d="M21.9707 5.69971V6.04612C22.3017 6.21267 22.6299 6.38721 22.9512 6.56575L23.1105 6.30061C22.7366 6.09275 22.3566 5.89245 21.9707 5.69971Z" fill="#E6E6E6"/>
<path d="M36.9512 29.4445L37.2695 29.439C37.2754 29.7482 37.2758 30.0591 37.2708 30.3631L36.9525 30.3583C36.9573 30.0578 36.9569 29.7503 36.9512 29.4445Z" fill="#E6E6E6"/>
<path d="M18.2323 51.9209L17.918 51.9675C18.0163 52.5724 18.0939 53.1906 18.1506 53.8022L18.4678 53.7756C18.411 53.156 18.3321 52.5325 18.2323 51.9209Z" fill="#E6E6E6"/>
<path d="M17.373 48.2778L17.0684 48.3671C17.2526 48.9533 17.4174 49.5542 17.5572 50.1525L17.8689 50.0845C17.7262 49.4796 17.5586 48.8721 17.373 48.2778Z" fill="#E6E6E6"/>
<path d="M16.0004 44.7847L15.7109 44.9126C15.9768 45.4712 16.2261 46.0444 16.4519 46.6177L16.7496 46.5097C16.5211 45.9298 16.2705 45.3486 16.0004 44.7847Z" fill="#E6E6E6"/>
<path d="M14.1437 41.5098L13.875 41.6737C14.2171 42.191 14.5453 42.7269 14.85 43.2641L15.1298 43.1175C14.8223 42.5736 14.4899 42.0323 14.1437 41.5098Z" fill="#E6E6E6"/>
<path d="M11.8361 38.5078L11.5938 38.7064C12.0065 39.173 12.4081 39.6609 12.7876 40.1542L13.0424 39.9716C12.6601 39.473 12.2544 38.9797 11.8361 38.5078Z" fill="#E6E6E6"/>
<path d="M9.12596 35.835L8.91406 36.0629C9.39048 36.4722 9.8572 36.9028 10.3018 37.3414L10.5303 37.1267C10.0802 36.6828 9.60791 36.2482 9.12596 35.835Z" fill="#E6E6E6"/>
<path d="M6.06147 33.5405L5.88281 33.7938C6.41185 34.1364 6.93536 34.5017 7.4381 34.8789L7.63476 34.6376C7.1251 34.2564 6.59605 33.8871 6.06147 33.5405Z" fill="#E6E6E6"/>
<path d="M3.27344 31.9473V32.2937C3.60444 32.4602 3.93267 32.6348 4.25397 32.8133L4.41324 32.5482C4.0393 32.3403 3.65937 32.14 3.27344 31.9473Z" fill="#E6E6E6"/>
<path d="M18.2539 55.6921L18.5723 55.6865C18.5781 55.9958 18.5785 56.3067 18.5736 56.6107L18.2552 56.6059C18.2601 56.3054 18.2597 55.9979 18.2539 55.6921Z" fill="#E6E6E6"/>
<path d="M82.2167 38.7305L81.9023 38.7771C82.0007 39.382 82.0782 40.0002 82.135 40.6118L82.4522 40.5851C82.3954 39.9656 82.3164 39.342 82.2167 38.7305Z" fill="#E6E6E6"/>
<path d="M81.3574 35.0879L81.0527 35.1772C81.2369 35.7634 81.4017 36.3643 81.5416 36.9625L81.8532 36.8946C81.7106 36.2897 81.543 35.6821 81.3574 35.0879Z" fill="#E6E6E6"/>
<path d="M79.9848 31.5938L79.6953 31.7217C79.9612 32.2803 80.2105 32.8535 80.4362 33.4268L80.734 33.3188C80.5055 32.7389 80.2548 32.1576 79.9848 31.5938Z" fill="#E6E6E6"/>
<path d="M78.1281 28.3188L77.8594 28.4828C78.2015 29 78.5297 29.536 78.8344 30.0732L79.1142 29.9266C78.8067 29.3827 78.4743 28.8414 78.1281 28.3188Z" fill="#E6E6E6"/>
<path d="M75.8205 25.3169L75.5781 25.5155C75.9908 25.9821 76.3925 26.47 76.7719 26.9633L77.0268 26.7806C76.6445 26.2821 76.2387 25.7888 75.8205 25.3169Z" fill="#E6E6E6"/>
<path d="M73.1084 22.6445L72.8965 22.8725C73.3729 23.2817 73.8396 23.7123 74.2842 24.1509L74.5127 23.9363C74.0626 23.4924 73.5903 23.0578 73.1084 22.6445Z" fill="#E6E6E6"/>
<path d="M70.0458 20.3501L69.8672 20.6034C70.3962 20.946 70.9197 21.3113 71.4225 21.6885L71.6191 21.4472C71.1095 21.066 70.5804 20.6967 70.0458 20.3501Z" fill="#E6E6E6"/>
<path d="M67.2578 18.7563V19.1028C67.5888 19.2693 67.917 19.4438 68.2384 19.6224L68.3976 19.3572C68.0237 19.1494 67.6437 18.9491 67.2578 18.7563Z" fill="#E6E6E6"/>
<path d="M82.2383 42.5017L82.5566 42.4961C82.5625 42.8054 82.5629 43.1163 82.5579 43.4202L82.2396 43.4155C82.2445 43.1149 82.244 42.8075 82.2383 42.5017Z" fill="#E6E6E6"/>
<path d="M20.6756 27.3019H20.4409V27.0757H20.395V27.3019H20.1602V27.3459H20.395V27.572H20.4409V27.3459H20.6756V27.3019Z" fill="#F2F2F2"/>
<path d="M17.9706 40.9396H17.7358V40.7134H17.69V40.9396H17.4551V40.9837H17.69V41.2097H17.7358V40.9837H17.9706V40.9396Z" fill="#F2F2F2"/>
<path d="M10.0291 52.8916H9.79426V52.6655H9.74842V52.8916H9.51367V52.9357H9.74842V53.1619H9.79426V52.9357H10.0291V52.8916Z" fill="#F2F2F2"/>
<path d="M32.1189 37.7324C29.8485 34.4857 28.8628 30.5637 29.3403 26.6777C29.8179 22.7917 31.7272 19.199 34.722 16.5511C37.7167 13.9032 41.5987 12.3755 45.6639 12.245C49.7291 12.1144 53.7083 13.3898 56.8799 15.8396C60.0516 18.2895 62.2056 21.7518 62.9514 25.5985C63.6973 29.4452 62.9855 33.4217 60.9451 36.8069C58.9048 40.192 55.6711 42.7617 51.8304 44.0498C47.9896 45.338 43.7962 45.2594 40.0105 43.8282C39.7651 44.671 39.3063 45.442 38.6752 46.0723C38.044 46.7027 37.2603 47.1726 36.394 47.44C35.5278 47.7075 34.6062 47.7641 33.7116 47.6049C32.8171 47.4456 31.9775 47.0755 31.2682 46.5275C30.5588 45.9796 30.0017 45.2709 29.6468 44.4651C29.292 43.6592 29.1503 42.7813 29.2346 41.9098C29.3189 41.0384 29.6265 40.2006 30.1299 39.4716C30.6332 38.7426 31.3166 38.145 32.1189 37.7324Z" fill="#3F3D56"/>
<path d="M46.1356 19.2461C50.0348 19.2461 52.7174 21.3267 52.7174 24.3177C52.7174 26.2983 51.7192 27.6687 49.7956 28.759C47.9864 29.7694 47.373 30.5096 47.373 31.79C47.373 31.8937 47.3517 31.9965 47.3104 32.0924C47.2691 32.1883 47.2086 32.2754 47.1324 32.3488C47.0561 32.4221 46.9655 32.4803 46.8659 32.5201C46.7662 32.5598 46.6594 32.5802 46.5515 32.5802H44.5582C44.3453 32.5802 44.1407 32.5007 43.9876 32.3584C43.8344 32.2161 43.7447 32.0222 43.7373 31.8175L43.7337 31.7199C43.557 29.6593 44.3056 28.3789 46.1876 27.3186C47.9448 26.3083 48.6831 25.6681 48.6831 24.4277C48.6831 23.1873 47.4353 22.277 45.8861 22.277C44.7085 22.277 43.7766 22.8285 43.3492 23.7287C43.199 24.0335 42.9611 24.2905 42.6639 24.4693C42.3666 24.6481 42.0223 24.7413 41.6717 24.7378C40.3212 24.7378 39.4289 23.356 40.0606 22.2076C41.0597 20.3908 43.1678 19.2461 46.1356 19.2461ZM43.401 36.3914C43.401 35.241 44.3992 34.3308 45.6261 34.3308C46.8635 34.3308 47.8616 35.231 47.8616 36.3914C47.8616 37.5517 46.8634 38.452 45.6261 38.452C44.3888 38.452 43.401 37.5518 43.401 36.3914Z" fill="#1482D1"/>
<g clip-path="url(#clip1)">
<path d="M149.968 105.126H95.7641C95.7163 105.126 95.6705 105.108 95.6367 105.075C95.6029 105.043 95.584 104.999 95.584 104.952C95.584 104.906 95.6029 104.862 95.6367 104.83C95.6705 104.797 95.7163 104.779 95.7641 104.779H149.968C150.016 104.779 150.062 104.797 150.095 104.83C150.129 104.862 150.148 104.906 150.148 104.952C150.148 104.999 150.129 105.043 150.095 105.075C150.062 105.108 150.016 105.126 149.968 105.126Z" fill="#3F3D56"/>
<path d="M116.125 103.139H113.918L112.867 94.9341L116.126 94.9343L116.125 103.139Z" fill="#FFB8B8"/>
<path d="M112.341 102.531H116.599V105.114H109.66C109.66 104.775 109.729 104.439 109.864 104.126C109.999 103.812 110.196 103.528 110.445 103.288C110.694 103.048 110.99 102.858 111.315 102.728C111.64 102.598 111.989 102.531 112.341 102.531Z" fill="#2F2E41"/>
<path d="M132.144 100.729L130.136 101.613L125.643 94.5704L128.606 93.2661L132.144 100.729Z" fill="#FFB8B8"/>
<path d="M128.438 101.692L132.311 99.9871L133.425 102.337L127.114 105.114C126.968 104.806 126.886 104.472 126.873 104.133C126.861 103.794 126.917 103.456 127.04 103.138C127.163 102.821 127.35 102.529 127.59 102.281C127.83 102.033 128.118 101.832 128.438 101.692Z" fill="#2F2E41"/>
<path d="M125.714 75.4743C125.925 75.3209 126.099 75.1247 126.224 74.8995C126.348 74.6743 126.42 74.4256 126.433 74.1709C126.447 73.9161 126.403 73.6616 126.303 73.4252C126.204 73.1888 126.052 72.9762 125.858 72.8025L128.453 67.1289L125.156 67.6673L123.197 72.9725C122.916 73.3057 122.771 73.7266 122.791 74.1557C122.81 74.5847 122.992 74.992 123.302 75.3004C123.613 75.6087 124.029 75.7968 124.474 75.8288C124.918 75.8609 125.36 75.7347 125.714 75.4743Z" fill="#FFB8B8"/>
<path d="M115.984 100.976H113.875C113.67 100.975 113.474 100.9 113.324 100.766C113.174 100.632 113.082 100.448 113.067 100.252L110.836 70.6586C110.828 70.5452 110.845 70.4314 110.887 70.3251C110.929 70.2188 110.994 70.1226 111.078 70.0432C111.163 69.9638 111.264 69.9031 111.376 69.8654C111.487 69.8277 111.606 69.8139 111.723 69.825L125.001 71.0731C125.199 71.0917 125.383 71.1796 125.517 71.3202C125.652 71.4607 125.729 71.644 125.733 71.8354L125.988 84.8892C125.99 84.96 126.004 85.0301 126.03 85.0962L131.034 97.5978C131.073 97.6944 131.091 97.7975 131.088 97.9009C131.085 98.0044 131.061 98.1062 131.016 98.2006C130.972 98.2949 130.909 98.3798 130.83 98.4503C130.751 98.5208 130.659 98.5755 130.558 98.6113L128.421 99.37C128.235 99.4359 128.031 99.434 127.847 99.3649C127.662 99.2957 127.511 99.164 127.42 98.9945L121.273 87.4791C121.24 87.4165 121.215 87.3498 121.201 87.2808L120.151 82.4064C120.12 82.2651 120.038 82.1388 119.92 82.0502C119.802 81.9617 119.655 81.9166 119.505 81.9231C119.355 81.9297 119.213 81.9874 119.103 82.0859C118.994 82.1843 118.924 82.3172 118.907 82.4606L116.789 100.284C116.767 100.474 116.672 100.65 116.524 100.778C116.375 100.905 116.183 100.976 115.984 100.976Z" fill="#2F2E41"/>
<path d="M117.772 49.2948C121.14 49.2948 123.871 46.6743 123.871 43.4416C123.871 40.209 121.14 37.5884 117.772 37.5884C114.403 37.5884 111.672 40.209 111.672 43.4416C111.672 46.6743 114.403 49.2948 117.772 49.2948Z" fill="#FFB8B8"/>
<path d="M110.734 71.1703C111.332 71.5462 118.07 75.5913 125.749 72.3739C125.65 71.5925 124.691 63.7474 125.528 57.9641C125.925 55.2202 124.726 52.6781 122.238 50.9897C120.887 50.0771 119.293 49.5093 117.621 49.3447C115.948 49.1802 114.258 49.4249 112.724 50.0537H112.724C112.598 50.1051 112.471 50.1587 112.343 50.2143L110.734 71.1703Z" fill="#1482D1"/>
<path d="M125.962 71.9701C125.85 71.9701 125.739 71.9476 125.637 71.9039C125.534 71.8603 125.442 71.7966 125.366 71.7168L124.398 70.6998C124.304 70.6003 124.238 70.4792 124.207 70.3481C124.175 70.2169 124.18 70.0802 124.219 69.951L126.435 62.7249L123.063 55.9033C122.915 55.6034 122.879 55.2636 122.961 54.9411C123.032 54.6579 123.192 54.4024 123.417 54.2082C123.643 54.0141 123.924 53.8904 124.224 53.8534C124.525 53.8165 124.829 53.8681 125.098 54.0013C125.367 54.1346 125.588 54.3433 125.732 54.6L130.289 61.7254C130.467 62.0022 130.571 62.3168 130.592 62.6414C130.614 62.966 130.552 63.2908 130.413 63.5872L126.702 71.5104C126.647 71.6283 126.562 71.7311 126.456 71.8096C126.349 71.8881 126.224 71.9398 126.092 71.9601C126.049 71.9667 126.006 71.97 125.962 71.9701Z" fill="#1482D1"/>
<path d="M122.585 48.3858C121.959 48.491 121.444 47.6369 121.366 47.0361C121.289 46.4353 121.512 45.8602 121.536 45.2633C121.561 44.6664 121.274 43.941 120.641 43.7641C119.979 43.5785 119.364 44.0998 118.686 44.0372C117.74 43.9498 117.266 42.8649 117.151 41.9872C117.037 41.1095 116.947 40.0702 116.128 39.5697C115.312 39.0707 114.302 39.4338 113.364 39.4493C111.779 39.4756 110.165 38.2902 109.795 36.8274C109.987 36.8818 110.193 36.8717 110.378 36.7987C110.564 36.7258 110.72 36.5941 110.821 36.4247C110.9 36.2438 110.916 36.0423 110.867 35.8515C110.817 35.6608 110.705 35.4914 110.547 35.3698L112.344 36.2326C112.098 35.7425 112.469 35.1843 112.979 34.9987C113.49 34.8131 114.084 34.8964 114.647 34.9823C117.46 35.4109 120.719 35.1996 122.585 37.3031C123.878 38.76 124.942 41.5324 124.796 43.3263C124.651 45.1202 122.585 48.3858 122.585 48.3858Z" fill="#2F2E41"/>
</g>
</g>
<defs>
<clipPath id="clip0">
<rect width="152.962" height="106.259" fill="white" transform="translate(0 0.667969)"/>
</clipPath>
<clipPath id="clip1">
<rect width="130.44" height="90.0497" fill="white" transform="translate(19.707 15.0762)"/>
</clipPath>
</defs>
</svg>
