<svg width="456" height="321" viewBox="0 0 456 321" fill="none" xmlns="http://www.w3.org/2000/svg">
<g clip-path="url(#clip0)">
<path d="M228.157 320.081C353.769 320.081 455.598 299.053 455.598 273.113C455.598 247.174 353.769 226.146 228.157 226.146C102.545 226.146 0.716797 247.174 0.716797 273.113C0.716797 299.053 102.545 320.081 228.157 320.081Z" fill="#CBF7F2"/>
<path d="M228.158 295.839C322.412 295.839 398.82 282.854 398.82 266.836C398.82 250.819 322.412 237.833 228.158 237.833C133.904 237.833 57.4961 250.819 57.4961 266.836C57.4961 282.854 133.904 295.839 228.158 295.839Z" fill="#67D6C6"/>
<path opacity="0.6" d="M369.346 269.326C369.346 277.875 346.591 284.801 318.635 284.801C295.446 284.801 275.834 280.04 269.766 273.546C257.413 274.52 243.218 275.061 228.157 275.061C214.179 275.061 200.959 274.629 189.257 273.763C190.015 274.953 190.34 276.252 190.34 277.551C190.34 290.645 152.091 301.251 104.955 301.251C57.8202 301.251 19.5703 290.645 19.5703 277.551C19.5703 264.456 57.8202 253.85 104.955 253.85C120.234 253.85 134.428 254.933 146.889 256.881C160.434 252.227 191.749 248.98 228.157 248.98C258.714 248.98 285.694 251.253 301.514 254.716C306.824 254.175 312.567 253.85 318.635 253.85C346.591 253.742 369.346 260.776 369.346 269.326Z" fill="#2EC4B6"/>
<path d="M338.249 64.3569H117.418C102.031 64.3569 89.5703 76.8022 89.5703 92.1695V135.566H366.205V92.1695C366.097 76.8022 353.635 64.3569 338.249 64.3569Z" fill="#3BE0CC"/>
<path opacity="0.38" d="M171.922 64.3569C171.922 64.3569 181.783 123.12 228.376 123.12C274.969 123.12 284.505 64.3569 284.505 64.3569H335.649L350.602 135.566H119.369V64.3569H171.922Z" fill="#34B7A4"/>
<path d="M354.827 149.417H103.873V211.211H354.827V149.417Z" fill="#34B7A4"/>
<path opacity="0.57" d="M256.115 149.417L234.985 211.211H218.298L203.128 149.417H110.592L124.57 211.211H309.643L329.364 149.417H256.115Z" fill="#34B7A4"/>
<path d="M354.827 129.289H103.873V149.418H354.827V129.289Z" fill="#2EC4B6"/>
<path opacity="0.44" d="M225.559 141.734C225.559 144.44 223.283 147.037 219.166 149.31H104.958C104.524 149.093 104.199 148.877 103.766 148.66V134.808C107.125 132.644 112.001 130.804 117.96 129.181H206.054C218.19 132.427 225.559 136.864 225.559 141.734Z" fill="#34B7A4"/>
<path opacity="0.44" d="M354.721 129.289V149.418H254.491C250.373 147.145 248.098 144.548 248.098 141.843C248.098 136.973 255.574 132.427 267.602 129.289H354.721Z" fill="#34B7A4"/>
<path d="M103.873 136.107H75.1582V211.212H103.873V136.107Z" fill="#3BE0CC"/>
<path d="M103.982 137.406H73.6418C72.5583 137.406 71.6914 136.54 71.6914 135.458V124.852C71.6914 121.389 74.5087 118.684 77.8677 118.684H99.7558C103.223 118.684 105.932 121.497 105.932 124.852V135.458C105.824 136.54 104.957 137.406 103.982 137.406Z" fill="#34B7A4"/>
<path d="M383.433 136.107H354.719V211.212H383.433V136.107Z" fill="#3BE0CC"/>
<path d="M383.542 137.406H353.202C352.119 137.406 351.252 136.54 351.252 135.458V124.852C351.252 121.389 354.069 118.684 357.428 118.684H379.316C382.784 118.684 385.493 121.497 385.493 124.852V135.458C385.493 136.54 384.626 137.406 383.542 137.406Z" fill="#34B7A4"/>
<path d="M183.515 202.986C183.515 202.986 180.373 215.54 181.781 218.462C183.19 221.384 203.886 220.843 206.053 218.462C208.22 216.081 199.552 213.375 199.552 213.375C199.552 213.375 196.409 210.67 196.084 205.151V198.549H183.732L183.515 202.986Z" fill="#F2A5B9"/>
<path d="M141.906 118.899C141.906 118.899 131.612 145.954 150.466 149.417C169.212 152.88 178.097 150.175 178.097 150.175L179.506 203.095H199.877C199.877 203.095 205.728 155.478 202.261 138.271C198.794 121.064 159.135 121.064 159.135 121.064L141.906 118.899Z" fill="#292A66"/>
<path d="M146.132 202.986C146.132 202.986 142.99 215.54 144.398 218.462C145.807 221.384 166.503 220.843 168.67 218.462C170.837 216.081 162.169 213.375 162.169 213.375C162.169 213.375 159.027 210.67 158.702 205.151V198.549H146.349L146.132 202.986Z" fill="#FFBDCB"/>
<path d="M104.414 118.899C104.414 118.899 99.3217 143.79 118.067 147.253C136.813 150.716 140.497 150.175 140.497 150.175L141.906 203.095H162.277C162.277 203.095 168.128 155.478 164.661 138.271C161.193 121.064 128.903 122.038 128.903 122.038L104.414 118.899Z" fill="url(#paint0_linear)"/>
<path d="M208.979 112.515H203.669C201.069 112.515 199.01 110.458 199.01 107.861V92.9268H213.746V107.753C213.638 110.458 211.579 112.515 208.979 112.515Z" fill="#292A66"/>
<path d="M193.158 98.6625C193.158 98.6625 195.867 96.4981 200.418 96.4981C204.969 96.3899 206.161 97.0392 205.727 98.0132C205.402 98.8789 199.009 100.827 199.009 100.827V109.484C199.009 109.484 194.567 111.432 190.232 108.943C186.006 106.238 193.158 98.6625 193.158 98.6625Z" fill="#F2A5B9"/>
<path d="M193.266 96.4985L192.508 111.974C192.508 111.974 190.449 112.19 187.307 112.515C178.855 113.273 162.601 114.138 157.509 110.567C150.465 105.589 144.506 86.7587 144.506 86.7587V49.0981C144.506 49.0981 154.583 51.0461 160.326 67.1709C166.069 83.2956 166.069 91.3039 166.069 91.3039L187.74 95.4163L193.266 96.4985Z" fill="#F36F21"/>
<path d="M193.266 96.4977L192.508 111.973C192.508 111.973 190.449 112.19 187.307 112.514L187.632 95.4155L193.266 96.4977Z" fill="#F36F21"/>
<path d="M162.276 121.28C162.276 121.28 159.892 123.769 154.691 125.393C148.732 127.232 138.98 127.99 125.002 122.254L103.655 118.683L98.5625 117.817L99.7544 105.264L100.405 98.4459L103.98 60.136C103.98 60.136 112.541 45.4181 145.156 48.9894C145.156 48.9894 153.608 53.2099 155.775 66.6292C157.942 80.0485 153.283 97.039 153.283 97.039C153.283 97.039 161.734 111.54 162.276 121.28Z" fill="#F36F21"/>
<path opacity="0.5" d="M154.691 125.284C148.732 127.124 138.98 127.882 125.002 122.146L103.655 118.683L99.7544 105.372L98.5625 101.368L100.405 98.5541L119.15 70.0923C119.15 70.0923 113.407 98.4459 130.419 101.693C145.264 104.614 153.066 115.978 154.691 125.284Z" fill="#F36F21"/>
<path d="M132.261 113.921C132.261 113.921 139.521 115.111 144.072 118.791C148.623 122.47 149.599 126.258 147.323 127.773C144.939 129.288 131.611 125.176 131.611 125.176L132.261 113.921Z" fill="#FFBDCB"/>
<path d="M133.02 111.865L132.045 125.934C132.045 125.934 129.661 125.825 125.977 125.501C115.575 124.635 95.2038 122.362 90.4361 117.709C83.9347 111.432 93.145 80.5893 96.9375 69.8756C100.622 59.1618 111.024 54.0755 117.634 64.2481C124.243 74.4208 108.423 103.965 108.423 103.965L126.736 109.809L133.02 111.865Z" fill="#F36F21"/>
<path d="M133.02 111.865L132.045 125.934C132.045 125.934 129.661 125.825 125.977 125.501L126.735 109.917L133.02 111.865Z" fill="#F36F21"/>
<path d="M142.989 56.7815C137.138 59.5952 125.652 49.5307 125.652 49.5307C127.278 41.7389 126.844 31.458 126.844 31.458C126.844 31.458 147.107 39.7909 145.048 41.9553C142.989 44.1197 142.881 49.2061 142.881 49.2061C142.881 49.2061 148.841 53.9678 142.989 56.7815Z" fill="#FFBDCB"/>
<path opacity="0.4" d="M145.156 41.9553C143.097 44.1197 142.988 49.2061 142.988 49.2061C142.988 49.2061 128.577 49.5307 126.952 31.458C126.843 31.458 147.106 39.7909 145.156 41.9553Z" fill="#F48CAC"/>
<path d="M152.09 27.8864C152.09 27.8864 155.557 25.0727 156.208 18.0384C156.858 11.0041 154.149 11.1124 154.149 11.1124C154.149 11.1124 156.316 6.02602 150.681 2.88764C145.155 -0.358961 128.143 -0.683622 124.784 7.54109C121.642 15.2247 125.109 16.6316 125.109 16.6316C125.109 16.6316 119.366 19.0124 125.434 29.7262L152.09 27.8864Z" fill="#292A66"/>
<path d="M151.225 17.9304C151.225 17.9304 154.042 41.0895 146.782 44.0114C139.522 46.9334 132.371 42.0635 129.987 39.2498C127.603 36.4361 126.953 31.4579 126.953 31.4579C126.953 31.4579 124.352 31.0251 125.436 25.5058C126.194 21.8264 130.312 22.9086 130.312 27.6702C130.312 27.6702 134.321 25.073 133.346 18.7962C133.346 18.7962 133.671 16.9565 138.872 17.9304C143.965 18.9044 147.649 21.0688 151.225 17.9304Z" fill="#FFBDCB"/>
<path d="M126.194 46.1758C126.194 46.1758 132.153 54.9416 140.28 57.3224C140.28 57.3224 135.946 62.4088 135.512 65.98C135.512 65.98 125.869 59.2704 121.859 50.721C121.859 50.6128 125.11 46.1758 126.194 46.1758Z" fill="#FFE1A6"/>
<path d="M142.988 49.0978C142.988 49.0978 148.731 53.9677 142.555 56.8896C142.555 56.8896 145.372 59.2704 146.672 64.2486C146.672 64.2486 150.681 61.4348 149.706 55.0499C148.731 48.7731 143.205 47.6909 143.205 47.6909L142.988 49.0978Z" fill="#FFE1A6"/>
<path d="M139.846 57.2144V72.6898C139.846 73.6638 140.604 74.4213 141.579 74.4213C142.555 74.4213 143.313 73.6638 143.313 72.6898L143.096 57.2144H139.846Z" fill="#FFE1A6"/>
<path d="M254.379 156.344C254.379 156.344 255.896 203.203 255.571 204.393C255.138 205.584 249.937 213.159 246.361 213.809C242.894 214.35 238.559 217.704 240.726 219.22C242.894 220.735 263.156 219.977 266.732 219.22C270.199 218.462 267.274 208.289 266.732 204.61C266.19 200.93 273.017 175.39 272.042 160.348L254.379 156.344Z" fill="#F2A5B9"/>
<path d="M282.769 156.344C282.769 156.344 284.286 203.203 283.961 204.393C283.528 205.584 281.252 211.211 278.327 213.159C274.534 215.648 271.5 219.111 274.318 219.544C276.918 219.869 291.546 220.085 295.122 219.22C298.589 218.462 295.664 208.289 295.122 204.61C294.58 200.93 301.407 175.39 300.432 160.348L282.769 156.344Z" fill="#F2A5B9"/>
<path d="M330.771 142.275C317.118 150.5 306.716 151.041 306.716 151.041L303.357 176.364C303.357 176.364 298.047 177.663 289.812 178.204C280.168 178.853 266.515 178.42 252.104 173.659C252.104 173.659 249.72 139.353 270.308 131.128C290.896 122.904 292.087 117.817 292.087 117.817L335.43 115.22L336.622 115.112C336.514 115.22 344.532 134.05 330.771 142.275Z" fill="#292A66"/>
<path opacity="0.27" d="M330.772 142.275C317.119 150.5 306.716 151.041 306.716 151.041L303.357 176.364C303.357 176.364 298.048 177.663 289.813 178.204C287.862 160.023 264.241 153.097 286.779 143.899C312.676 133.401 324.379 122.471 324.379 122.471L335.323 115.328L336.514 115.22C336.514 115.22 344.533 134.05 330.772 142.275Z" fill="#292A66"/>
<path d="M335.212 84.1608C334.887 84.7019 334.671 84.9183 334.671 84.9183L332.937 117.601C304.981 130.154 292.086 117.925 292.086 117.925C292.628 116.519 293.17 114.354 293.495 111.757C294.47 105.264 294.904 96.9307 294.904 96.9307C294.904 96.9307 294.904 96.9307 294.904 97.0389C294.362 97.7965 290.569 102.991 284.718 103.532C283.851 103.64 282.984 103.64 282.118 103.424C279.084 102.991 274.966 99.528 271.065 95.3074C264.672 88.5978 258.712 80.2649 258.712 80.2649C258.712 80.2649 251.453 78.7498 248.527 76.8018C245.601 74.7456 244.301 66.0881 244.951 64.0319C245.601 61.9757 259.254 70.8497 259.254 70.8497C259.254 70.8497 259.363 61.651 261.421 63.1661C263.372 64.6812 264.78 72.2566 264.78 72.2566L279.084 83.0786L282.876 85.8923C282.876 85.8923 291.111 67.2785 297.504 63.2743C304.006 59.2702 308.99 61.4346 308.99 61.4346L323.618 59.3784C346.156 65.547 337.705 80.4813 335.212 84.1608Z" fill="#00A7D8"/>
<path opacity="0.41" d="M335.212 84.1606C334.887 84.7017 334.67 84.9182 334.67 84.9182L332.936 117.601C304.98 130.154 292.086 117.925 292.086 117.925C292.628 116.518 293.17 114.354 293.495 111.757C297.612 111.54 303.03 110.566 309.748 108.402C328.494 102.125 323.834 77.3428 323.834 77.3428C323.834 77.3428 329.036 80.4812 335.212 84.1606Z" fill="#496DEC"/>
<path opacity="0.41" d="M294.036 90.2213C294.795 93.1433 294.903 95.4159 294.795 97.0392C294.253 97.7967 290.46 102.991 284.609 103.532C282.55 84.7021 295.987 72.2568 295.987 72.2568C290.894 81.7802 292.302 83.187 294.036 90.2213Z" fill="#496DEC"/>
<path d="M278.868 83.0792C278.759 86.1094 277.026 90.4382 270.958 95.4163C264.565 88.7067 258.605 80.3737 258.605 80.3737C258.605 80.3737 251.345 78.8587 248.42 76.9107C245.494 74.8545 244.194 66.1969 244.844 64.1407C245.494 62.0846 259.147 70.9586 259.147 70.9586C259.147 70.9586 259.255 61.7599 261.314 63.275C263.264 64.7901 264.673 72.3654 264.673 72.3654L278.868 83.0792Z" fill="#FFBDCB"/>
<path d="M343.883 112.948C342.907 114.246 340.957 115.978 338.682 117.817C330.338 124.419 316.36 132.86 316.36 132.86C316.36 132.86 313.326 136.215 309.425 137.946C305.633 139.678 303.682 141.409 299.023 141.193C294.364 140.977 293.822 136.756 301.082 131.561C306.066 128.098 309.534 127.774 309.534 127.774L327.304 106.454L330.988 102.017C330.988 102.017 320.261 80.4816 324.487 68.2527C328.713 55.9157 339.007 66.6294 343.016 76.1528C347.133 85.5679 348.542 106.779 343.883 112.948Z" fill="#00A7D8"/>
<path d="M338.682 117.817C330.338 124.419 316.36 132.86 316.36 132.86C316.36 132.86 313.326 136.215 309.425 137.946C305.633 139.678 303.682 141.409 299.023 141.193C294.364 140.976 293.822 136.756 301.082 131.561C306.066 128.098 309.534 127.773 309.534 127.773L327.304 106.454C331.53 108.186 335.973 111.54 338.682 117.817Z" fill="#FFBDCB"/>
<path d="M311.592 15.9821C311.592 15.9821 315.818 4.61902 326.437 8.73138C337.056 12.952 336.622 25.5055 334.455 31.674C332.288 37.8425 331.638 44.444 331.638 44.444C331.638 44.444 335.972 37.5179 338.898 41.3056C341.823 45.0933 340.198 53.1016 331.421 53.6427C322.753 54.1838 318.202 46.1755 318.202 46.1755L311.592 15.9821Z" fill="#F36F21"/>
<path d="M312.566 14.7916C312.566 14.7916 314.95 12.8436 320.043 15.4409C325.136 18.0382 323.402 26.2629 323.402 26.2629L312.566 14.7916Z" fill="#F4E9EB"/>
<path d="M298.697 44.8766C298.697 44.8766 293.387 39.7902 291.762 32.8641C290.245 25.9381 295.229 24.5312 295.229 24.5312C295.229 24.5312 296.313 14.3585 307.474 14.2503C321.127 14.1421 330.445 25.0723 320.368 47.2574L298.697 44.8766Z" fill="#F36F21"/>
<path d="M323.402 59.378C323.402 59.378 311.375 73.8795 307.474 72.0397C304.44 70.7411 306.824 64.4643 308.124 61.6506C308.557 60.7849 308.774 60.2438 308.774 60.2438L307.582 51.5862L319.935 41.9546C319.935 41.9546 319.935 42.6039 320.043 43.7943C320.368 47.0409 321.235 53.8588 323.402 59.378Z" fill="#FFBDCB"/>
<path opacity="0.4" d="M308.016 61.6506C308.45 60.7849 308.667 60.2438 308.667 60.2438L307.475 51.5862L319.827 41.9546C319.827 41.9546 319.936 42.6039 319.936 43.7943C320.152 48.1231 319.394 58.7287 308.016 61.6506Z" fill="#F48CAC"/>
<path d="M295.988 31.1328C295.988 31.1328 298.914 58.5125 308.558 56.7809C318.201 55.0494 320.585 47.5822 319.827 41.9548C319.827 41.9548 322.319 40.9808 321.127 37.0849C319.935 33.2972 315.818 35.7863 317.66 41.7384C317.66 41.7384 315.059 38.9246 313.434 34.2712C313.434 34.3794 302.273 37.8424 295.988 31.1328Z" fill="#FFBDCB"/>
<path d="M77.6506 251.469C77.6506 251.469 73.208 249.846 70.7158 249.304C68.1152 248.763 65.623 255.798 58.6882 258.07C50.5614 260.668 44.9269 271.165 51.5366 272.572C53.7038 273.005 55.8709 274.412 57.713 274.195C63.3475 273.654 67.14 269.542 69.7406 269.758C73.0996 269.974 75.1584 270.624 75.1584 270.624L77.6506 251.469Z" fill="#F2A5B9"/>
<path d="M96.7223 253.525L77.6515 248.979C77.6515 248.979 71.6919 258.719 72.9922 266.728C72.9922 266.728 119.152 275.06 117.418 274.519C115.685 273.978 96.7223 253.525 96.7223 253.525Z" fill="#5D55A4"/>
<path d="M139.74 249.846C142.666 250.711 158.378 250.82 163.579 253.85C168.888 256.88 173.873 264.78 171.164 275.169C168.346 285.45 143.641 284.909 143.641 284.909L139.74 249.846Z" fill="#5D55A4"/>
<path d="M70.9319 266.187C70.9319 266.187 66.381 265.213 63.672 264.996C61.0715 264.78 59.5545 272.139 52.9447 275.385C45.2514 279.065 41.1339 290.212 47.852 290.753C50.0191 290.861 52.403 291.943 54.245 291.51C59.7712 290.212 63.0219 285.558 65.5141 285.45C68.8732 285.233 70.9319 285.558 70.9319 285.558V266.187Z" fill="#FFBDCB"/>
<path d="M158.701 292.701C156.968 293.566 145.482 293.458 131.179 292.809C107.99 291.835 77.6506 289.67 71.3659 289.238C70.6074 289.238 70.174 289.129 70.174 289.129C70.174 289.129 64.3227 273.546 71.691 264.888L103.114 266.403C103.114 266.403 102.464 266.187 101.381 265.754C97.1548 263.806 86.7526 257.096 90.8701 239.673L144.723 249.088C144.723 249.088 149.274 252.118 153.934 256.663C158.485 260.992 163.144 266.62 164.336 272.247C166.828 283.935 163.577 290.212 158.701 292.701Z" fill="#5D55A4"/>
<g opacity="0.32">
<path opacity="0.32" d="M135.946 267.377L71.4733 289.346C70.7148 289.346 70.2814 289.237 70.2814 289.237C70.2814 289.237 64.4302 273.654 71.7984 264.996L103.222 266.511C103.222 266.511 102.572 266.295 101.488 265.862L104.197 266.511L135.946 267.377Z" fill="#5D55A4"/>
<path opacity="0.32" d="M158.7 292.7C156.967 293.566 145.481 293.458 131.178 292.809C160.001 282.42 155.558 261.75 154.041 256.771C158.592 261.1 163.251 266.728 164.443 272.355C166.827 283.935 163.576 290.211 158.7 292.7Z" fill="#5D55A4"/>
</g>
<path d="M220.681 210.454C220.681 210.454 218.839 212.293 216.022 214.999C208.87 221.6 195.326 233.072 187.307 233.072C175.93 233.072 158.268 215.54 158.268 215.54L164.01 175.607C164.01 175.607 170.837 178.204 176.146 188.81C181.456 199.307 188.282 212.185 188.282 212.185C188.282 212.185 199.335 204.718 206.161 200.498C208.979 198.766 211.037 197.576 211.362 197.684C212.554 198.117 220.681 210.454 220.681 210.454Z" fill="#00A7D8"/>
<path d="M220.682 210.454C220.682 210.454 218.84 212.293 216.023 214.999L206.162 200.497C208.979 198.766 211.038 197.575 211.363 197.684C212.555 198.116 220.682 210.454 220.682 210.454Z" fill="#8BEFEF"/>
<path d="M214.83 173.443L226.099 193.464L253.838 179.828L214.83 173.443Z" fill="#D7E0E2"/>
<path d="M212.881 199.307L215.59 196.494C215.59 196.494 216.24 192.165 217.757 188.485C218.84 185.563 220.791 183.615 224.908 182.209C228.918 180.694 230.11 182.317 227.401 186.646C224.692 191.083 225.884 193.139 225.884 193.139L238.453 187.728C238.453 187.728 237.478 193.68 234.444 199.632C231.41 205.584 222.741 206.342 222.741 206.342L219.491 208.506L212.881 199.307Z" fill="#FFBDCB"/>
<path d="M253.839 179.828L214.831 184.481L211.363 175.499L253.839 179.828Z" fill="#EAEEEF"/>
<path d="M253.839 179.828L212.014 173.01L217.757 170.413L253.839 179.828Z" fill="#EAEEEF"/>
<path d="M168.994 195.519C168.452 202.446 164.443 213.051 159.675 223.548C154.149 235.561 147.865 247.249 145.047 252.227C144.18 253.85 143.639 254.716 143.639 254.716C143.639 254.716 142.772 254.824 141.146 254.932C137.896 255.04 131.611 255.149 124.46 254.175C119.258 253.525 113.624 252.227 108.206 250.171C91.6275 243.677 90.4355 238.699 90.4355 238.699C90.4355 238.699 118.175 181.234 133.453 170.954C146.673 162.079 158.809 166.841 162.926 171.278C162.818 171.278 170.294 178.204 168.994 195.519Z" fill="#00A7D8"/>
<path opacity="0.4" d="M159.675 223.548C154.149 235.561 147.864 247.249 145.047 252.227L141.146 254.932C137.896 255.04 131.611 255.149 124.459 254.175C121.642 244.651 118.391 230.042 119.692 217.813C121.859 197.9 133.128 179.828 133.128 179.828C153.607 180.369 150.032 199.632 152.849 208.506C154.041 212.294 156.858 218.138 159.675 223.548Z" fill="#18BAD8"/>
<path d="M149.273 265.213C149.273 265.213 151.766 272.896 155.775 275.061C155.775 275.061 154.366 282.528 155.775 283.069C157.183 283.61 160.217 282.528 162.71 281.987C165.202 281.446 168.127 279.281 168.127 277.874C168.127 276.468 168.127 273.113 168.127 273.113C168.127 273.113 168.127 271.381 168.127 269.974C168.127 268.568 160.976 261.533 160.976 261.533L149.273 265.213Z" fill="#FFBDCB"/>
<path d="M161.951 261.317L146.24 266.187C146.24 266.187 145.156 263.481 143.531 259.585C139.413 249.304 131.828 230.474 130.528 227.552C128.794 223.44 127.385 220.518 127.602 197.467C127.819 174.416 140.497 175.823 146.131 180.152C151.766 184.481 149.274 215.107 149.274 215.107L160.109 254.824L161.951 261.317Z" fill="#00A7D8"/>
<path d="M161.952 261.317L146.24 266.187C146.24 266.187 145.157 263.481 143.531 259.585L160.11 254.715L161.952 261.317Z" fill="#8BEFEF"/>
<path d="M154.909 157.101C154.909 157.101 153.175 139.57 156.209 136.864C159.243 134.267 163.144 136.323 163.144 136.323C163.144 136.323 162.928 130.263 168.562 129.289C177.122 127.774 180.265 135.457 185.249 136.215C192.184 137.297 195.868 136.431 196.518 139.678C197.06 143.033 192.292 144.439 192.292 144.439C192.292 144.439 197.71 143.682 197.818 147.794C197.927 151.907 188.391 153.097 188.391 153.097C188.391 153.097 184.816 160.023 179.181 158.941C173.655 157.967 154.909 157.101 154.909 157.101Z" fill="#F36F21"/>
<path d="M168.67 171.17C165.852 171.711 164.119 175.607 164.119 175.607C164.119 175.607 169.536 184.806 162.06 184.914C155.233 185.022 147.648 168.248 147.648 168.248C152.524 162.729 156.75 153.963 157.292 152.881V152.772C157.184 152.556 171.487 170.629 168.67 171.17Z" fill="#FFBDCB"/>
<path opacity="0.4" d="M168.669 171.17C165.852 171.711 164.118 175.607 164.118 175.607C164.118 175.607 149.49 172.685 157.183 152.772V152.664C157.183 152.556 171.486 170.629 168.669 171.17Z" fill="#F48CAC"/>
<path d="M184.814 151.474C184.814 151.474 178.421 172.469 170.511 173.443C162.709 174.417 158.917 167.058 157.075 162.296C155.233 157.534 157.291 152.664 157.291 152.664C157.291 152.664 155.666 145.738 158.808 145.089C164.226 144.007 161.517 151.149 161.517 151.149C161.517 151.149 166.935 150.175 167.585 143.249C167.585 143.249 172.028 142.167 175.387 146.712C178.746 151.041 184.814 151.474 184.814 151.474Z" fill="#FFBDCB"/>
<path d="M288.296 187.944C288.296 187.944 276.81 183.94 267.167 172.685C267.167 172.685 267.167 166.084 266.083 163.162C265 160.24 263.157 169.222 263.157 169.222C263.157 169.222 259.69 156.128 257.306 157.534C254.922 158.941 252.972 168.465 254.706 172.685C256.331 176.906 262.399 181.126 262.399 181.126C262.399 181.126 271.501 196.277 285.045 202.987L288.296 187.944Z" fill="#FFBDCB"/>
<path d="M351.252 187.944C351.252 187.944 362.738 183.94 372.382 172.685C372.382 172.685 372.382 166.084 373.465 163.162C374.549 160.24 376.391 169.222 376.391 169.222C376.391 169.222 379.858 156.128 382.242 157.534C384.626 158.941 386.576 168.465 384.843 172.685C383.217 176.906 377.149 181.126 377.149 181.126C377.149 181.126 368.047 196.277 354.503 202.987L351.252 187.944Z" fill="#FFBDCB"/>
<path d="M356.886 205.692L356.777 205.801C353.96 211.103 347.35 213.701 343.449 214.891C342.582 215.108 341.824 215.324 341.282 215.432C340.632 215.54 340.307 215.649 340.307 215.649L339.874 220.519L339.115 229.609L338.682 235.02C338.898 235.128 339.115 235.128 339.44 235.236C343.883 236.86 345.508 242.487 345.508 242.487C343.233 242.812 341.065 243.461 338.898 244.327C335.106 245.842 331.638 247.898 328.604 249.954C323.62 253.417 320.261 256.772 320.261 256.772C317.335 254.067 313.543 251.794 309.642 249.954C303.682 247.141 297.506 245.301 293.714 244.327C291.33 243.678 289.813 243.461 289.813 243.461C289.488 237.617 293.172 235.994 295.339 235.561C296.206 235.345 296.856 235.453 296.856 235.453V235.236L296.531 229.609L295.881 220.519L295.772 218.679V218.571L295.664 217.597C293.714 216.839 291.872 215.865 290.138 214.783C284.395 211.212 280.277 206.666 280.277 206.666C280.277 206.342 280.277 206.017 280.277 205.692C280.277 203.744 280.602 201.796 281.036 200.065C282.878 192.814 287.212 187.187 287.212 187.187C291.546 190.325 297.073 192.273 301.949 193.464C304.441 194.113 306.716 194.438 308.558 194.762C311.484 195.195 313.435 195.303 313.435 195.303L322.32 194.546C323.728 194.654 325.137 194.546 326.437 194.546C328.93 194.438 331.422 194.113 333.697 193.572C344.316 191.407 352.443 186.754 352.443 186.754L355.477 200.173L356.886 205.692Z" fill="#EE2849"/>
<g opacity="0.46">
<path opacity="0.46" d="M356.886 205.693V205.801H280.277C280.277 203.853 280.602 201.905 281.036 200.173H355.585L356.886 205.693Z" fill="#EE2849"/>
<path opacity="0.46" d="M343.448 214.891C341.606 215.433 340.306 215.649 340.306 215.649L339.872 220.519H295.88L295.771 218.679V218.571L295.663 217.597C293.712 216.839 291.87 215.865 290.137 214.783H343.448V214.891Z" fill="#EE2849"/>
<path opacity="0.46" d="M339.332 235.345H296.856L296.531 229.717H339.115L338.682 235.128C338.899 235.237 339.115 235.237 339.332 235.345Z" fill="#EE2849"/>
<path opacity="0.46" d="M338.79 244.436C334.998 245.951 331.53 248.007 328.496 250.063H309.534C303.574 247.249 297.398 245.41 293.605 244.436H338.79Z" fill="#EE2849"/>
</g>
<path d="M287.321 187.188C291.655 190.326 297.182 192.274 302.058 193.464C302.058 193.464 295.773 204.07 295.881 218.68L295.773 217.706C287.43 214.567 280.278 206.775 280.278 206.775C279.953 196.603 287.321 187.188 287.321 187.188Z" fill="#5D55A4"/>
<path d="M356.886 205.693C352.768 213.593 340.307 215.757 340.307 215.757C340.307 215.757 338.682 202.879 333.914 193.68C344.533 191.516 352.66 186.862 352.66 186.862L356.886 205.693Z" fill="#5D55A4"/>
<path d="M314.735 208.723C306.175 207.424 307.259 199.308 308.667 194.762C311.593 195.195 313.543 195.303 313.543 195.303L322.429 194.546C323.837 194.654 325.246 194.546 326.546 194.546C326.98 196.277 327.413 198.225 327.738 200.282C328.605 205.476 326.655 210.454 314.735 208.723Z" fill="#5D55A4"/>
<path opacity="0.36" d="M345.401 242.595C343.126 242.92 340.958 243.569 338.791 244.435C334.999 245.95 331.531 248.006 328.497 250.063C323.513 253.526 320.154 256.88 320.154 256.88C317.228 254.175 313.436 251.902 309.535 250.063C303.575 247.249 297.399 245.409 293.607 244.435C291.223 243.786 289.706 243.569 289.706 243.569C289.381 237.725 293.065 236.102 295.232 235.669C327.739 243.136 339.983 214.566 339.983 214.566C339.983 214.566 340.417 214.891 341.067 215.432C340.417 215.54 340.092 215.649 340.092 215.649L339.875 220.518L339.116 229.609L338.683 235.02C338.9 235.128 339.116 235.128 339.441 235.236C343.776 236.968 345.401 242.595 345.401 242.595Z" fill="#D563E5"/>
<path d="M312.243 193.572L311.593 201.58C311.485 202.987 312.352 204.286 313.652 204.827C316.469 205.909 319.503 206.017 322.537 204.935C323.946 204.394 324.813 202.987 324.596 201.472L323.296 193.247L312.243 193.572Z" fill="#FFBDCB"/>
<path opacity="0.4" d="M311.701 194.33C311.701 194.33 313.977 199.416 318.203 198.983C322.428 198.659 323.404 193.681 323.404 193.681L311.701 194.33Z" fill="#F48CAC"/>
<path d="M332.722 175.823C332.614 176.256 332.505 176.473 332.505 176.473C333.264 181.667 330.013 182.75 330.013 182.75C329.146 187.728 325.029 195.736 316.685 195.844C308.342 195.952 304.441 183.615 304.441 183.615C299.131 182.858 301.19 176.906 301.19 176.906C299.565 173.876 299.348 166.3 302.274 160.132C305.199 153.963 310.834 156.993 310.834 156.993C316.36 149.31 329.688 153.855 332.614 161.322C334.998 167.491 333.372 173.767 332.722 175.823Z" fill="#FFBDCB"/>
<path d="M302.707 159.374C302.707 159.374 298.048 154.18 291.655 156.669C285.262 159.158 286.995 167.491 289.704 171.711C292.521 175.932 290.246 180.802 290.246 180.802C290.246 180.802 299.239 183.291 301.298 174.525C303.249 165.651 302.707 159.374 302.707 159.374Z" fill="#292A66"/>
<path d="M303.248 159.916C303.248 159.916 299.997 157.859 298.806 161.539C297.614 165.218 296.205 176.257 301.839 174.85C307.582 173.443 303.248 159.916 303.248 159.916Z" fill="#F4E9EB"/>
<path d="M331.53 159.374C331.53 159.374 336.189 154.18 342.582 156.669C348.975 159.158 347.242 167.491 344.533 171.711C341.716 175.932 343.991 180.802 343.991 180.802C343.991 180.802 334.997 183.291 332.939 174.525C330.988 165.651 331.53 159.374 331.53 159.374Z" fill="#292A66"/>
<path d="M330.988 159.916C330.988 159.916 334.239 157.859 335.431 161.539C336.623 165.218 338.031 176.257 332.397 174.85C326.654 173.443 330.988 159.916 330.988 159.916Z" fill="#F4E9EB"/>
<path d="M332.722 175.823C330.772 179.395 327.738 180.802 327.738 180.802C328.388 178.421 327.954 174.417 327.954 174.417C320.261 175.391 311.051 169.871 311.051 169.871C309.75 172.902 305.199 174.417 305.199 174.417C304.549 178.637 305.524 181.776 305.524 181.776C303.032 180.261 300.973 176.906 300.973 176.906C299.348 173.876 299.131 166.3 302.057 160.132C304.983 153.963 310.617 156.993 310.617 156.993C316.143 149.31 329.471 153.855 332.397 161.322C334.998 167.491 333.372 173.767 332.722 175.823Z" fill="#292A66"/>
<path d="M285.696 272.572C283.963 277.983 286.13 281.23 287.864 281.771C289.706 282.312 298.699 278.091 298.699 278.091C298.699 278.091 319.612 275.927 333.59 272.572C337.491 271.706 340.742 270.624 342.909 269.65C352.986 264.78 354.069 253.742 352.552 248.331C351.035 242.92 346.376 239.673 331.315 246.275C328.606 247.465 325.788 248.98 322.971 250.712C310.185 258.395 297.832 269.65 297.832 269.65C297.832 269.65 286.347 266.187 284.504 268.351C282.771 270.624 285.913 271.814 285.696 272.572Z" fill="#F2A5B9"/>
<path d="M333.59 272.572C337.49 271.706 340.741 270.624 342.908 269.65C352.985 264.78 354.069 253.742 352.552 248.331C351.035 242.92 346.376 239.673 331.314 246.275C328.605 247.465 325.788 248.98 322.971 250.712C328.063 253.092 334.89 258.828 333.59 272.572Z" fill="#5D55A4"/>
<path d="M349.735 273.546C351.468 278.957 349.301 282.204 347.567 282.745C345.725 283.286 336.732 279.065 336.732 279.065C336.732 279.065 315.819 276.901 301.841 273.546C297.94 272.68 294.689 271.598 292.522 270.624C282.445 265.754 281.362 254.716 282.879 249.305C284.396 243.894 289.055 240.647 304.116 247.249C306.825 248.439 309.643 249.954 312.46 251.686C325.246 259.369 337.599 270.624 337.599 270.624C337.599 270.624 349.084 267.161 350.927 269.326C352.552 271.598 349.41 272.789 349.735 273.546Z" fill="#FFBDCB"/>
<path d="M301.841 273.546C297.94 272.68 294.689 271.598 292.522 270.624C282.445 265.754 281.362 254.716 282.879 249.305C284.396 243.894 289.055 240.647 304.116 247.249C306.825 248.439 309.643 249.954 312.46 251.686C307.259 253.958 300.432 259.694 301.841 273.546Z" fill="#5D55A4"/>
<path opacity="0.6" d="M266.841 293.783C257.197 293.783 249.504 296.164 249.504 298.977C249.504 301.899 257.306 304.172 266.841 304.172C276.485 304.172 284.178 301.791 284.178 298.977C284.178 296.055 276.376 293.783 266.841 293.783Z" fill="#67C1C6"/>
<path d="M276.205 295.55C277.434 290.374 274.228 285.184 269.046 283.957C263.864 282.73 258.667 285.932 257.439 291.107C256.21 296.283 259.416 301.473 264.598 302.7C269.78 303.927 274.977 300.725 276.205 295.55Z" fill="#5D55A4"/>
<path opacity="0.6" d="M239.751 282.852C249.326 282.852 257.088 280.527 257.088 277.658C257.088 274.789 249.326 272.463 239.751 272.463C230.176 272.463 222.414 274.789 222.414 277.658C222.414 280.527 230.176 282.852 239.751 282.852Z" fill="#67C1C6"/>
<path d="M238.343 278.524C245.165 278.524 250.696 273 250.696 266.187C250.696 259.373 245.165 253.85 238.343 253.85C231.521 253.85 225.99 259.373 225.99 266.187C225.99 273 231.521 278.524 238.343 278.524Z" fill="#EE2849"/>
<path opacity="0.6" d="M305.957 298.978C293.821 298.978 283.961 301.899 283.961 305.363C283.961 308.934 293.821 311.747 305.957 311.747C318.093 311.747 327.954 308.826 327.954 305.363C327.954 301.791 318.093 298.978 305.957 298.978Z" fill="#67C1C6"/>
<path d="M312.349 293.35H296.529V309.15H312.349V293.35Z" fill="url(#paint1_linear)"/>
<path d="M312.35 293.35L320.585 288.805V305.362L313.108 309.15H312.35V293.35Z" fill="url(#paint2_linear)"/>
<path d="M296.529 293.35H312.349L320.585 288.805H304.439L296.529 293.35Z" fill="url(#paint3_linear)"/>
<path opacity="0.6" d="M348.758 291.078C335.539 291.078 324.92 294.541 324.92 298.761C324.92 302.982 335.647 306.445 348.758 306.445C361.978 306.445 372.597 302.982 372.597 298.761C372.705 294.541 361.978 291.078 348.758 291.078Z" fill="#67C1C6"/>
<path d="M354.176 279.823H332.613V301.359H354.176V279.823Z" fill="#00A7D8"/>
<path d="M354.285 279.823L365.446 273.546V296.164L355.26 301.358H354.285V279.823Z" fill="#292A66"/>
<path d="M332.613 279.823H354.285L365.445 273.546H343.449L332.613 279.823Z" fill="#9FE4F4"/>
</g>
<defs>
<linearGradient id="paint0_linear" x1="103.837" y1="160.945" x2="165.765" y2="160.945" gradientUnits="userSpaceOnUse">
<stop stop-color="#2F3C81"/>
<stop offset="1" stop-color="#30489C"/>
</linearGradient>
<linearGradient id="paint1_linear" x1="312.618" y1="309.718" x2="298.37" y2="294.91" gradientUnits="userSpaceOnUse">
<stop stop-color="#FAA92F"/>
<stop offset="1" stop-color="#FFD140"/>
</linearGradient>
<linearGradient id="paint2_linear" x1="313.745" y1="299.507" x2="325.392" y2="297.473" gradientUnits="userSpaceOnUse">
<stop stop-color="#FAA92F"/>
<stop offset="1" stop-color="#FFD140"/>
</linearGradient>
<linearGradient id="paint3_linear" x1="296.528" y1="291.057" x2="320.606" y2="291.057" gradientUnits="userSpaceOnUse">
<stop stop-color="#FAA92F"/>
<stop offset="1" stop-color="#FFD140"/>
</linearGradient>
<clipPath id="clip0">
<rect width="454.881" height="319.249" fill="white" transform="translate(0.716797 0.831543)"/>
</clipPath>
</defs>
</svg>
