<svg width="146" height="128" viewBox="0 0 146 128" fill="none" xmlns="http://www.w3.org/2000/svg">
<g clip-path="url(#clip0)">
<path d="M66.9493 40.5546H66.2116V23.3136C66.2116 20.6671 64.9793 18.129 62.7856 16.2576C60.592 14.3863 57.6169 13.335 54.5146 13.335H11.697C10.1609 13.335 8.63991 13.5931 7.22077 14.0945C5.80162 14.596 4.51216 15.331 3.42599 16.2576C2.33982 17.1842 1.47822 18.2842 0.89039 19.4949C0.302558 20.7056 3.39185e-06 22.0031 0 23.3135V117.899C-1.21137e-06 119.209 0.302548 120.507 0.890376 121.718C1.4782 122.928 2.3398 124.028 3.42596 124.955C4.51213 125.882 5.80159 126.617 7.22074 127.118C8.63988 127.619 10.1609 127.878 11.697 127.878H54.5146C57.6168 127.878 60.592 126.826 62.7856 124.955C64.9792 123.084 66.2116 120.545 66.2116 117.899V52.827H66.9493V40.5546Z" fill="#455A64"/>
<path d="M54.8015 15.9829H49.2603C49.5151 16.52 49.6124 17.1027 49.5435 17.6797C49.4747 18.2567 49.2418 18.8102 48.8655 19.2917C48.4891 19.7731 47.9808 20.1675 47.3854 20.4403C46.7899 20.713 46.1256 20.8557 45.4508 20.8558H21.1315C20.4568 20.8557 19.7925 20.713 19.197 20.4403C18.6015 20.1675 18.0932 19.7731 17.7169 19.2916C17.3405 18.8102 17.1077 18.2567 17.0388 17.6797C16.97 17.1027 17.0673 16.52 17.3221 15.9829H12.1466C9.84977 15.9829 7.64699 16.7673 6.02287 18.1634C4.39875 19.5596 3.48633 21.4532 3.48633 23.4277V117.784C3.48633 118.762 3.71033 119.73 4.14555 120.633C4.58077 121.536 5.21868 122.357 6.02286 123.048C6.82704 123.74 7.78174 124.288 8.83245 124.662C9.88317 125.036 11.0093 125.229 12.1466 125.229H54.8015C55.9388 125.229 57.0649 125.036 58.1156 124.662C59.1663 124.288 60.121 123.74 60.9252 123.048C61.7294 122.357 62.3673 121.536 62.8025 120.633C63.2378 119.73 63.4618 118.762 63.4618 117.784V23.4277C63.4618 22.45 63.2378 21.4819 62.8025 20.5787C62.3673 19.6755 61.7294 18.8548 60.9252 18.1634C60.121 17.4721 59.1663 16.9238 58.1156 16.5496C57.0649 16.1755 55.9388 15.9829 54.8015 15.9829Z" fill="black"/>
<path d="M139.927 93.0544C139.791 93.0544 139.659 93.0033 139.562 92.9122C139.465 92.8211 139.409 92.6973 139.407 92.5676L139.326 86.0916C139.324 86.0029 139.348 85.9153 139.394 85.8382C139.441 85.7611 139.508 85.6973 139.589 85.6535C139.67 85.6098 139.763 85.5876 139.856 85.5895C139.95 85.5913 140.041 85.6171 140.12 85.664L145.509 88.843C145.583 88.8867 145.644 88.9475 145.687 89.0197C145.731 89.0919 145.754 89.1733 145.755 89.2563C145.756 89.3393 145.735 89.4212 145.694 89.4945C145.653 89.5677 145.593 89.63 145.52 89.6756L140.211 92.9743C140.129 93.0254 140.033 93.0532 139.935 93.0544H139.927Z" fill="#F2F2F2"/>
<path d="M113.73 71.2614C112.238 70.6106 111.257 68.7501 111.313 66.9153C111.369 65.0804 112.386 63.3644 113.788 62.4894C114.472 62.0734 115.254 61.8252 116.064 61.7671C116.874 61.709 117.686 61.8429 118.428 62.1566C119.933 62.765 121.954 62.9307 122.859 64.4428C123.555 65.6049 123.304 68.1973 122.812 69.4895C122.386 70.6063 121.346 71.2356 120.331 71.5878C119.208 71.974 118.011 72.1268 116.82 72.0358C115.63 71.9447 114.474 71.612 113.43 71.06" fill="#2F2E41"/>
<path d="M130.232 122.572L128.118 123.319L124.078 115.933L127.198 114.831L130.232 122.572Z" fill="#FFB8B8"/>
<path d="M126.383 123.279L130.46 121.838L131.415 124.275L124.772 126.623C124.646 126.303 124.588 125.963 124.602 125.621C124.615 125.28 124.698 124.945 124.848 124.634C124.998 124.324 125.21 124.044 125.474 123.812C125.737 123.579 126.046 123.398 126.383 123.279Z" fill="#2F2E41"/>
<path d="M109.955 124.634H107.7L106.627 116.375H109.956L109.955 124.634Z" fill="#FFB8B8"/>
<path d="M106.088 124.022H110.438V126.623H103.35C103.35 126.281 103.42 125.943 103.558 125.628C103.696 125.312 103.897 125.026 104.152 124.784C104.406 124.543 104.708 124.351 105.04 124.22C105.373 124.09 105.729 124.022 106.088 124.022Z" fill="#2F2E41"/>
<path d="M103.097 94.8609C103.384 94.8316 103.661 94.7428 103.908 94.6009C104.156 94.4589 104.367 94.2672 104.528 94.0393C104.689 93.8114 104.795 93.5528 104.839 93.2816C104.883 93.0105 104.864 92.7335 104.783 92.4702L112.202 80.3178L109.607 79.3325L102.191 91.2141C101.734 91.3723 101.354 91.6843 101.123 92.0907C100.892 92.4972 100.826 92.97 100.938 93.4195C101.05 93.8691 101.331 94.2641 101.729 94.5297C102.127 94.7954 102.614 94.9132 103.097 94.8609V94.8609Z" fill="#FFB8B8"/>
<path d="M110.537 84.6379L106.594 82.3117L110.312 75.8788C110.476 75.5957 110.697 75.3467 110.964 75.1465C111.231 74.9462 111.537 74.7988 111.865 74.7129C112.193 74.6271 112.535 74.6045 112.873 74.6465C113.21 74.6886 113.535 74.7944 113.828 74.9577C114.121 75.1211 114.377 75.3386 114.58 75.5975C114.784 75.8563 114.93 76.1513 115.011 76.4648C115.092 76.7784 115.106 77.1042 115.053 77.423C114.999 77.7418 114.878 78.0471 114.698 78.3209L110.537 84.6379Z" fill="#2F2E41"/>
<path d="M125.593 119.029C125.44 119.029 125.29 118.989 125.159 118.912C125.029 118.836 124.924 118.727 124.856 118.597L115.046 99.4258C114.986 99.3128 114.89 99.2204 114.772 99.1613C114.654 99.1023 114.519 99.0795 114.387 99.0961C114.255 99.1128 114.131 99.168 114.034 99.2542C113.936 99.3404 113.869 99.4533 113.841 99.5773L110.347 117.849C110.308 118.026 110.206 118.185 110.058 118.299C109.911 118.413 109.726 118.476 109.536 118.477H107.309C107.103 118.478 106.903 118.405 106.75 118.272C106.597 118.14 106.503 117.958 106.485 117.762C105.117 103.512 105.857 93.1415 108.685 86.9399C108.765 86.7676 108.907 86.628 109.086 86.5464C109.264 86.4648 109.468 86.4464 109.66 86.4946L120.963 89.3777C121.105 89.4141 121.235 89.4858 121.338 89.5856C121.441 89.6853 121.515 89.8094 121.551 89.945L128.635 117.381C128.686 117.575 128.658 117.781 128.555 117.955C128.452 118.13 128.283 118.261 128.082 118.322L125.844 118.992C125.763 119.017 125.678 119.029 125.593 119.029Z" fill="#2F2E41"/>
<path d="M116.812 73.0007C119.307 73.0007 121.33 71.0799 121.33 68.7105C121.33 66.3412 119.307 64.4204 116.812 64.4204C114.316 64.4204 112.293 66.3412 112.293 68.7105C112.293 71.0799 114.316 73.0007 116.812 73.0007Z" fill="#FFB8B8"/>
<path d="M121.08 74.9835C121.08 74.9835 117.032 72.8874 113.905 75.1581C113.905 75.1581 109.949 78.9136 111.237 82.5817L108.018 91.228C110.565 95.8142 118.023 95.0717 121.631 91.228L121.356 82.9311L121.08 74.9835Z" fill="#2EC4B6"/>
<path d="M123.642 98.0795C122.938 98.0977 122.24 97.9505 121.611 97.6507C120.617 97.1446 120.006 96.1926 119.793 94.8214C119.439 92.531 119.731 89.3826 120.04 86.0495C120.443 81.7145 120.859 77.2319 119.745 74.7651C119.687 74.6352 119.666 74.4929 119.686 74.3531C119.706 74.2133 119.766 74.0811 119.858 73.9706C119.95 73.8601 120.072 73.7753 120.211 73.7251C120.35 73.6749 120.501 73.6613 120.647 73.6855L123.816 74.2042C123.981 74.2319 124.133 74.3061 124.253 74.4172C124.373 74.5283 124.455 74.6711 124.488 74.827L128.881 96.0158C128.917 96.1875 128.891 96.3656 128.808 96.5219C128.725 96.6782 128.59 96.8036 128.423 96.8782C127.466 97.3058 125.48 98.0795 123.642 98.0795Z" fill="#2F2E41"/>
<path d="M107.048 97.7983C106.934 97.7983 106.821 97.7761 106.717 97.7333C106.196 97.5193 105.475 97.2086 104.575 96.8097C102.089 95.7082 108.645 80.4905 109.985 77.4512C110.031 77.3454 110.102 77.2506 110.191 77.1736L113.78 74.0722C113.919 73.9698 114.088 73.9119 114.263 73.9066C114.438 73.9014 114.611 73.9492 114.756 74.0432C114.901 74.1371 115.01 74.2723 115.069 74.4292C115.128 74.5862 115.132 74.7568 115.082 74.9164C114.453 76.9204 113.337 80.2799 112.156 83.8367C110.292 89.4498 108.364 95.2541 107.849 97.2048C107.804 97.3744 107.701 97.5249 107.556 97.6324C107.411 97.74 107.232 97.7984 107.048 97.7983L107.048 97.7983Z" fill="#2F2E41"/>
<path d="M132.273 94.1172C132.422 93.8818 132.514 93.6184 132.544 93.3456C132.573 93.0727 132.54 92.797 132.445 92.5378C132.35 92.2786 132.197 92.0424 131.995 91.8456C131.794 91.6488 131.55 91.4964 131.28 91.399L125.534 78.4551L123.143 79.8279L128.662 92.6065C128.52 93.0482 128.553 93.5241 128.756 93.944C128.958 94.3639 129.316 94.6987 129.761 94.8849C130.206 95.0711 130.708 95.0958 131.171 94.9543C131.634 94.8128 132.026 94.515 132.273 94.1172Z" fill="#FFB8B8"/>
<path d="M123.832 83.9077L120.665 77.2143C120.525 76.9198 120.45 76.6017 120.442 76.2789C120.434 75.9561 120.495 75.6351 120.62 75.335C120.746 75.0348 120.933 74.7615 121.172 74.5314C121.41 74.3012 121.695 74.1188 122.009 73.9949C122.323 73.871 122.66 73.8082 123 73.8101C123.34 73.812 123.676 73.8787 123.989 74.0062C124.301 74.1337 124.584 74.3194 124.819 74.5523C125.055 74.7851 125.239 75.0605 125.36 75.3621L128.163 82.3212L123.832 83.9077Z" fill="#2F2E41"/>
<path d="M120.025 63.3709C120.188 63.3934 120.354 63.3644 120.498 63.2883C120.641 63.2122 120.754 63.0933 120.82 62.95C120.88 62.8048 120.904 62.6484 120.891 62.4929C120.878 62.3373 120.827 62.1867 120.743 62.0526C120.572 61.7853 120.333 61.563 120.049 61.4057C119.721 61.1976 119.341 61.0738 118.948 61.0463C118.752 61.034 118.555 61.062 118.371 61.1283C118.187 61.1946 118.02 61.2976 117.882 61.4304C117.747 61.5665 117.658 61.7377 117.626 61.9222C117.594 62.1066 117.621 62.2959 117.703 62.4658C117.869 62.7683 118.215 62.9379 118.553 63.0531C119.223 63.281 119.937 63.37 120.646 63.3141" fill="#2F2E41"/>
<path d="M121.632 67.9969C120.928 68.1916 120.966 67.8314 120.58 67.2394C120.194 66.6474 119.693 65.9508 118.96 65.9879C118.36 66.0183 117.942 66.5358 117.515 66.9366C116.752 67.651 115.645 68.1033 114.599 67.8852C113.553 67.6672 112.69 66.6424 112.92 65.6491C112.997 65.373 113.133 65.1148 113.319 64.8904C113.505 64.6661 113.737 64.4804 114.002 64.3449C114.534 64.0769 115.117 63.9149 115.718 63.8687C117.045 63.7238 118.391 63.8574 119.658 64.2601C120.533 64.5388 121.413 64.9896 121.848 65.7622C122.284 66.5347 122.665 67.6527 121.816 67.9969L121.632 67.9969Z" fill="#2F2E41"/>
<path d="M119.404 61.1577C118.808 60.4397 119.032 59.3084 119.728 58.6754C120.423 58.0425 121.457 57.8452 122.416 57.9257C123.367 58.0167 124.276 58.3433 125.052 58.8729C125.827 59.4025 126.443 60.1165 126.836 60.9432C127.443 62.2601 127.438 63.7664 127.986 65.106C128.278 65.8201 128.721 66.4699 129.288 67.0152C129.855 67.5606 130.533 67.99 131.281 68.2771C132.03 68.5641 132.832 68.7027 133.638 68.6843C134.445 68.666 135.239 68.491 135.972 68.1702C136.927 67.7524 137.835 66.9342 137.781 65.9376C138.384 68.1466 137.298 70.6734 135.238 71.8498C134.032 72.5388 132.603 72.7727 131.205 72.9337C130.295 73.0386 129.358 73.1166 128.47 72.9005C127.226 72.5982 126.185 71.7268 125.555 70.6651C124.924 69.6035 124.676 68.3664 124.667 67.1476C124.659 66.1983 124.79 65.2484 124.721 64.3012C124.652 63.3541 124.352 62.3744 123.629 61.7186C122.906 61.0629 121.685 60.847 120.892 61.4246C120.573 61.6568 120.339 61.9958 119.98 62.167C119.621 62.3383 119.053 62.2051 119.029 61.8242L119.404 61.1577Z" fill="#2F2E41"/>
<path d="M143.553 126.875H87.0192C86.9612 126.875 86.9057 126.853 86.8647 126.814C86.8238 126.774 86.8008 126.722 86.8008 126.666C86.8008 126.611 86.8238 126.558 86.8647 126.519C86.9057 126.48 86.9612 126.458 87.0192 126.458H143.553C143.611 126.458 143.666 126.48 143.707 126.519C143.748 126.558 143.771 126.611 143.771 126.666C143.771 126.722 143.748 126.774 143.707 126.814C143.666 126.853 143.611 126.875 143.553 126.875Z" fill="#3F3D56"/>
<g clip-path="url(#clip1)">
<path d="M33.5457 117.947H33.4311C29.6486 117.947 27.6427 116.076 25.6941 114.258C23.9748 112.658 22.3415 111.139 19.5333 111.139H3.48633V110.597H19.5333C22.5707 110.597 24.3474 112.278 26.0953 113.879C27.9579 115.615 29.8778 117.405 33.4311 117.405H33.5457C37.0989 117.405 39.0188 115.615 40.8814 113.879C42.6007 112.251 44.406 110.597 47.4435 110.597H63.4331V111.139H47.4435C44.6353 111.139 43.0019 112.658 41.2826 114.258C39.3627 116.076 37.3568 117.947 33.5457 117.947Z" fill="white"/>
<path d="M33.8222 114.636C36.7109 114.636 39.0526 112.412 39.0526 109.67C39.0526 106.927 36.7109 104.704 33.8222 104.704C30.9335 104.704 28.5918 106.927 28.5918 109.67C28.5918 112.412 30.9335 114.636 33.8222 114.636Z" fill="url(#paint0_linear)"/>
<path d="M37.6576 109.67C37.6576 111.673 35.9316 113.311 33.822 113.311C31.7124 113.311 29.9863 111.673 29.9863 109.67C29.9863 107.667 31.7124 106.028 33.822 106.028C35.9316 106.028 37.6576 107.641 37.6576 109.67Z" fill="white"/>
<path d="M33.8208 111.048C33.6565 111.048 33.5469 110.944 33.5469 110.788V108.525C33.5469 108.369 33.6565 108.265 33.8208 108.265C33.9852 108.265 34.0948 108.369 34.0948 108.525V110.788C34.0948 110.944 33.9852 111.048 33.8208 111.048Z" fill="black"/>
<path d="M34.9994 109.932H32.6158C32.4514 109.932 32.3418 109.828 32.3418 109.671C32.3418 109.515 32.4514 109.411 32.6158 109.411H34.9994C35.1637 109.411 35.2733 109.515 35.2733 109.671C35.2733 109.828 35.1637 109.932 34.9994 109.932Z" fill="black"/>
<path d="M19.7344 117.893C18.5882 117.893 17.6426 116.998 17.6426 115.913C17.6426 114.828 18.5882 113.933 19.7344 113.933C20.8806 113.933 21.8262 114.828 21.8262 115.913C21.8262 116.998 20.8806 117.893 19.7344 117.893ZM19.7344 114.475C18.9034 114.475 18.2157 115.126 18.2157 115.913C18.2157 116.699 18.9034 117.35 19.7344 117.35C20.5654 117.35 21.2531 116.699 21.2531 115.913C21.2531 115.126 20.5654 114.475 19.7344 114.475Z" fill="#50565B"/>
<path d="M21.9985 118.436C21.9125 118.436 21.8552 118.409 21.7979 118.355L20.795 117.405C20.6803 117.296 20.6803 117.133 20.795 117.025C20.9096 116.916 21.0815 116.916 21.1961 117.025L22.1991 117.975C22.3137 118.083 22.3137 118.246 22.1991 118.355C22.1704 118.409 22.0844 118.436 21.9985 118.436Z" fill="#50565B"/>
<path d="M18.9602 115.67C18.9315 115.67 18.8742 115.67 18.8455 115.643C18.7023 115.589 18.6163 115.426 18.7023 115.291C18.9029 114.802 19.3327 114.721 19.5619 114.748C19.7052 114.775 19.8198 114.911 19.8198 115.046C19.7912 115.182 19.6765 115.291 19.5046 115.291C19.4473 115.291 19.3327 115.291 19.2467 115.508C19.1894 115.616 19.0748 115.67 18.9602 115.67Z" fill="#50565B"/>
<path d="M11.5662 118.3H8.98722C8.58605 118.3 8.24219 117.974 8.24219 117.595V115.479C8.24219 115.397 8.27084 115.343 8.32815 115.289L9.70361 113.96C10.1907 113.553 10.506 113.661 10.8785 113.96C10.8785 113.96 10.8785 113.96 10.9071 113.987L12.2539 115.289C12.3112 115.343 12.3399 115.397 12.3399 115.479V117.595C12.3112 117.974 11.9674 118.3 11.5662 118.3ZM8.78664 115.56V117.567C8.78664 117.649 8.8726 117.73 8.95857 117.73H11.5375C11.6235 117.73 11.7095 117.649 11.7095 117.567V115.56L10.4773 114.34C10.2767 114.177 10.2481 114.177 10.0761 114.34L8.78664 115.56Z" fill="white"/>
<path d="M12.112 121.257H8.41546C8.24353 121.257 8.12891 121.148 8.12891 120.985C8.12891 120.822 8.24353 120.714 8.41546 120.714H12.112C12.2839 120.714 12.3985 120.822 12.3985 120.985C12.3985 121.148 12.2839 121.257 12.112 121.257Z" fill="white"/>
<path d="M47.1856 117.269C46.0394 117.269 45.0938 116.51 45.0938 115.533C45.0938 114.584 46.0394 113.797 47.1856 113.797C48.3318 113.797 49.2774 114.584 49.2774 115.533C49.2774 116.483 48.3318 117.269 47.1856 117.269ZM47.1856 114.367C46.3546 114.367 45.6669 114.909 45.6669 115.56C45.6669 116.211 46.3546 116.754 47.1856 116.754C48.0166 116.754 48.7043 116.211 48.7043 115.56C48.7043 114.882 48.0166 114.367 47.1856 114.367Z" fill="#50565B"/>
<path d="M47.0132 118.002C46.8986 118.002 46.784 117.92 46.7267 117.812C46.6694 117.676 46.7553 117.513 46.9273 117.486C48.7325 116.971 48.7039 115.587 48.7039 115.56C48.7039 115.398 48.8185 115.289 48.9904 115.289C49.1337 115.262 49.277 115.398 49.277 115.56C49.277 115.587 49.3057 117.405 47.0992 118.029C47.0705 118.002 47.0419 118.002 47.0132 118.002Z" fill="#50565B"/>
<path d="M56.2699 115.94C55.6109 115.94 55.0664 115.425 55.0664 114.801C55.0664 114.177 55.6109 113.662 56.2699 113.662C56.929 113.662 57.4734 114.177 57.4734 114.801C57.4734 115.425 56.929 115.94 56.2699 115.94ZM56.2699 114.231C55.9261 114.231 55.6395 114.502 55.6395 114.828C55.6395 115.153 55.9261 115.425 56.2699 115.425C56.6138 115.425 56.9003 115.153 56.9003 114.828C56.9003 114.502 56.6138 114.231 56.2699 114.231Z" fill="#50565B"/>
<path d="M58.4186 117.921C58.304 117.921 58.218 117.866 58.1607 117.758L57.6449 116.727H54.9227L54.4069 117.758C54.3496 117.894 54.1777 117.948 54.0344 117.894C53.8911 117.839 53.8338 117.676 53.8911 117.541L54.4929 116.374C54.5502 116.292 54.6361 116.211 54.7508 116.211H57.8169C57.9315 116.211 58.0175 116.265 58.0748 116.374L58.6765 117.541C58.7338 117.676 58.6765 117.839 58.5333 117.894C58.5046 117.921 58.4473 117.921 58.4186 117.921Z" fill="#50565B"/>
<path d="M49.3628 114.258C49.3628 114.909 48.8183 115.425 48.1306 115.425C47.4429 115.425 46.8984 114.909 46.8984 114.258C46.8984 113.607 47.4429 113.092 48.1306 113.092C48.8183 113.092 49.3628 113.634 49.3628 114.258Z" fill="black"/>
<path d="M48.7328 114.259C48.7328 114.585 48.4463 114.829 48.1311 114.829C47.7872 114.829 47.5293 114.558 47.5293 114.259C47.5293 113.933 47.8159 113.689 48.1311 113.689C48.4463 113.689 48.7328 113.961 48.7328 114.259Z" fill="#FF224E"/>
<path d="M54.177 70.3167C54.1484 70.3167 54.0911 70.3167 54.0624 70.2896C52.9162 69.503 52.3145 68.7978 52.3145 68.1468C52.3145 67.7942 52.4577 67.4958 52.7729 67.2517C52.9735 67.116 53.1741 67.0347 53.432 67.0347C53.7472 67.0347 54.0338 67.1974 54.177 67.3059C54.349 67.1974 54.6069 67.0347 54.9221 67.0347C55.1513 67.0347 55.3806 67.116 55.5525 67.2517C55.8677 67.4958 56.0396 67.7942 56.011 68.1468C55.9823 68.7978 55.4092 69.503 54.263 70.2896C54.263 70.3167 54.2057 70.3167 54.177 70.3167Z" fill="#FF224E"/>
<path d="M52.8015 68.0124C52.7155 68.0124 52.6582 67.9582 52.6582 67.8768C52.6582 67.6868 52.7442 67.5511 52.8588 67.4426C53.0594 67.2797 53.3459 67.3069 53.3746 67.3069C53.4606 67.3069 53.5179 67.3883 53.4892 67.4426C53.4892 67.524 53.4032 67.5782 53.3459 67.5511C53.3459 67.5511 53.1453 67.524 53.0307 67.6325C52.9734 67.6868 52.9161 67.7682 52.9161 67.8768C52.9448 67.9582 52.8874 68.0124 52.8015 68.0124Z" fill="white"/>
<path d="M56.6141 84.9094L55.4392 83.6075C55.2673 83.4176 55.0667 83.3091 54.8661 83.3091C54.5795 83.3091 54.2643 83.5261 54.2643 84.0143V84.2042C52.3444 84.4754 51.8573 86.2114 51.8859 87.1065C51.8859 87.2964 52.0292 87.4863 52.2585 87.5134C52.459 87.5405 52.6596 87.432 52.7456 87.2421C53.1754 86.1843 53.8345 85.8859 54.293 85.8317V86.8895C54.293 87.3778 54.5795 87.5948 54.8947 87.5948C55.0953 87.5948 55.2959 87.4863 55.4679 87.2964L56.6141 86.0215C56.8433 85.7503 57.0439 85.3977 56.6141 84.9094ZM55.9263 85.2349C55.8977 85.262 55.8404 85.2892 55.8117 85.2892C55.7544 85.2892 55.7258 85.262 55.6684 85.2349L55.038 84.5568C54.9807 84.4754 54.9807 84.3941 55.038 84.3127C55.124 84.2584 55.21 84.2584 55.2959 84.3127L55.9263 84.9908C55.9836 85.0722 55.9836 85.1807 55.9263 85.2349Z" fill="white"/>
<path d="M54.1495 61.8531C51.1981 61.8531 48.791 59.5746 48.791 56.7808C48.791 53.987 51.1981 51.7085 54.1495 51.7085C57.101 51.7085 59.5081 53.987 59.5081 56.7808C59.5081 59.6017 57.101 61.8531 54.1495 61.8531ZM54.1495 52.2781C51.5133 52.2781 49.3641 54.3124 49.3641 56.8079C49.3641 59.3034 51.5133 61.3377 54.1495 61.3377C56.7858 61.3377 58.935 59.3034 58.935 56.8079C58.935 54.3124 56.7858 52.2781 54.1495 52.2781Z" fill="#50565B"/>
<path d="M54.1504 53.0664C56.3282 53.0664 58.1048 54.7481 58.1048 56.8096C58.1048 58.8711 56.3282 60.5256 54.1504 60.5256C51.9726 60.5256 50.2246 58.8439 50.2246 56.8096C50.2246 54.7481 51.9726 53.0664 54.1504 53.0664Z" fill="black"/>
<path d="M54.1502 62.2601C54.8782 62.2601 55.4683 61.7015 55.4683 61.0124C55.4683 60.3233 54.8782 59.7646 54.1502 59.7646C53.4222 59.7646 52.832 60.3233 52.832 61.0124C52.832 61.7015 53.4222 62.2601 54.1502 62.2601Z" fill="#FF224E"/>
<path d="M54.723 60.959H54.3219V60.5788C54.3219 60.5245 54.2646 60.4702 54.2072 60.4702C54.1499 60.4702 54.0926 60.5245 54.0926 60.5788V60.959H53.6341C53.5768 60.959 53.5195 61.0133 53.5195 61.0676C53.5195 61.1219 53.5768 61.1762 53.6341 61.1762H54.0353V61.5564C54.0353 61.6107 54.0926 61.665 54.1499 61.665C54.2072 61.665 54.2646 61.6107 54.2646 61.5564V61.1762H54.6657C54.723 61.1762 54.7803 61.1219 54.7803 61.0676C54.8377 61.0133 54.7803 60.959 54.723 60.959Z" fill="white"/>
<path d="M54.1497 75.1719C53.1181 75.1719 52.2871 75.85 52.2871 76.6637C52.2871 77.0977 52.5163 77.4775 52.8889 77.7758L52.459 78.1827C52.4304 78.2098 52.4017 78.2641 52.4304 78.3183C52.459 78.3454 52.4877 78.3726 52.545 78.3726H52.5737L53.8058 78.1284C53.9205 78.1556 54.0351 78.1556 54.1783 78.1556C55.2099 78.1556 56.0409 77.4775 56.0409 76.6637C55.9836 75.85 55.1526 75.1719 54.1497 75.1719ZM53.8345 75.8771C53.3473 75.9585 53.2041 76.3111 53.2041 76.3111C53.1754 76.3653 53.1468 76.3925 53.0895 76.3925H53.0608C53.0035 76.3654 52.9748 76.3111 52.9748 76.2569C52.9748 76.2297 53.1754 75.7957 53.8058 75.6872C53.8631 75.6872 53.9491 75.7144 53.9491 75.7686C53.9491 75.8229 53.8918 75.8771 53.8345 75.8771Z" fill="white"/>
<path d="M54.7437 99.4071C56.4769 99.4071 57.882 98.0732 57.882 96.4277C57.882 94.7822 56.4769 93.4482 54.7437 93.4482C53.0105 93.4482 51.6055 94.7822 51.6055 96.4277C51.6055 98.0732 53.0105 99.4071 54.7437 99.4071Z" fill="url(#paint1_linear)"/>
<path d="M56.2562 95.1078C56.2562 95.0535 56.2276 95.0264 56.1989 94.9993C56.1703 94.9722 56.113 94.9722 56.0843 94.9722L54.1931 95.3248C54.1358 95.3248 54.0785 95.4062 54.0785 95.4604V97.115C53.9638 97.0608 53.8492 97.0608 53.7059 97.0608C53.3334 97.0608 53.0469 97.2235 53.0469 97.4405C53.0469 97.6575 53.3334 97.8203 53.7059 97.8203C54.0785 97.8203 54.365 97.6575 54.365 97.4405C54.365 97.4405 54.365 97.4405 54.365 97.4134V97.3863V95.5689L55.9697 95.2705V96.9251C55.8551 96.8709 55.7405 96.8709 55.5972 96.8709C55.2247 96.8709 54.9381 97.0336 54.9381 97.2506C54.9381 97.4676 55.2247 97.6304 55.5972 97.6304C55.9697 97.6304 56.2562 97.4676 56.2562 97.2506V97.2235V95.1078Z" fill="black"/>
<path d="M54.7098 100.641C52.2168 100.641 50.2109 98.7424 50.2109 96.3826C50.2109 94.0227 52.2168 92.124 54.7098 92.124C57.2028 92.124 59.2087 94.0227 59.2087 96.3826C59.2087 98.7424 57.2028 100.641 54.7098 100.641ZM54.7098 92.6665C52.532 92.6665 50.784 94.3211 50.784 96.3826C50.784 98.444 52.532 100.099 54.7098 100.099C56.8876 100.099 58.6356 98.444 58.6356 96.3826C58.6356 94.3211 56.8876 92.6665 54.7098 92.6665Z" fill="#50565B"/>
</g>
</g>
<defs>
<linearGradient id="paint0_linear" x1="28.5808" y1="109.661" x2="39.0416" y2="109.661" gradientUnits="userSpaceOnUse">
<stop stop-color="#00EAE8"/>
<stop offset="1" stop-color="#FF224E"/>
</linearGradient>
<linearGradient id="paint1_linear" x1="51.6056" y1="96.4277" x2="57.8802" y2="96.4277" gradientUnits="userSpaceOnUse">
<stop stop-color="#00EAE8"/>
<stop offset="1" stop-color="#FF224E"/>
</linearGradient>
<clipPath id="clip0">
<rect width="145.754" height="127.122" fill="white" transform="translate(0 0.754883)"/>
</clipPath>
<clipPath id="clip1">
<rect width="59.9754" height="69.5201" fill="white" transform="translate(3.48633 51.7363)"/>
</clipPath>
</defs>
</svg>
