<svg width="153" height="107" viewBox="0 0 153 107" fill="none" xmlns="http://www.w3.org/2000/svg">
<g clip-path="url(#clip0)">
<path d="M105.461 44.9581L108.47 41.223C108.47 41.223 109.53 37.3078 111.064 37.5063C112.599 37.7048 110.458 42.2016 110.458 42.2016L107.468 46.336L105.461 44.9581Z" fill="#FBBEBE"/>
<path d="M113.214 49.3478L112.522 49.0813L109.336 48.8148C109.336 48.8148 108.229 48.5484 108.506 48.0154C108.783 47.4825 109.059 47.3492 108.506 47.216C107.952 47.0828 107.813 46.9495 107.952 46.5498C108.09 46.1501 108.921 45.3507 108.921 45.3507L106.567 43.4854C106.567 43.4854 106.439 43.5721 106.233 43.7325C105.064 44.643 101.366 47.9281 104.074 51.2131C107.259 55.077 110.998 57.342 114.045 56.5426L113.214 49.3478Z" fill="#2EC4B6"/>
<path d="M98.2216 33.019C99.7828 33.417 101.134 34.361 102.01 35.6664L102.463 36.3414L102.485 36.3693L110.433 38.6065C110.579 38.6475 110.702 38.7419 110.776 38.8694C110.85 38.9968 110.869 39.1471 110.829 39.288L110.212 41.4645C110.192 41.5354 110.158 41.6017 110.111 41.6597C110.064 41.7178 110.006 41.7663 109.939 41.8026C109.873 41.8388 109.799 41.8621 109.724 41.871C109.648 41.8799 109.571 41.8743 109.497 41.8546L101.548 39.7169L101.548 39.7171L100.749 40.0075C99.2791 40.5422 97.6666 40.595 96.1621 40.1575L98.2216 33.019Z" fill="#3F3D56"/>
<path d="M106.592 39.3307C106.667 39.0832 106.337 38.7725 105.855 38.6367C105.373 38.501 104.921 38.5915 104.845 38.839C104.77 39.0865 105.1 39.3972 105.582 39.533C106.065 39.6687 106.517 39.5782 106.592 39.3307Z" fill="#575A89"/>
<path d="M106.185 39.5595C106.369 39.5595 106.519 39.4157 106.519 39.2383C106.519 39.0608 106.369 38.917 106.185 38.917C106.001 38.917 105.852 39.0608 105.852 39.2383C105.852 39.4157 106.001 39.5595 106.185 39.5595Z" fill="#3F3D56"/>
<path d="M98.8868 37.1411C99.5495 35.1749 99.3375 33.3472 98.4133 33.0589C97.489 32.7706 96.2025 34.1308 95.5398 36.097C94.8771 38.0633 95.0891 39.891 96.0133 40.1793C96.9376 40.4676 98.224 39.1074 98.8868 37.1411Z" fill="#2EC4B6"/>
<path opacity="0.4" d="M98.6386 37.0723C99.2771 35.1777 99.1035 33.4119 98.2631 33.0278C98.3137 33.0339 98.3636 33.0445 98.4121 33.0595C99.3363 33.3479 99.5483 35.1755 98.8856 37.1418C98.2229 39.1081 96.9364 40.4683 96.0121 40.18C95.9786 40.1694 95.9459 40.1568 95.9141 40.1421C96.8232 40.2535 98.0107 38.9349 98.6386 37.0723Z" fill="black"/>
<path d="M98.3261 33.0261L80.289 19.5657C77.0995 17.1683 74.0387 14.6164 71.1187 11.9199C65.977 7.2049 58.9972 3.43521 50.8707 1.42819C31.1269 -3.44797 15.4858 5.19807 8.37175 17.8934C-2.49924 37.2933 -10.8304 68.7739 37.3715 52.0168C47.9132 48.352 58.5838 47.9625 66.6748 46.0321L95.9717 40.2209L98.3261 33.0261Z" fill="#2EC4B6"/>
<path d="M44.1745 10.3756C44.7099 10.3756 45.144 9.95801 45.144 9.44291C45.144 8.92782 44.7099 8.51025 44.1745 8.51025C43.6391 8.51025 43.2051 8.92782 43.2051 9.44291C43.2051 9.95801 43.6391 10.3756 44.1745 10.3756Z" fill="#F2F2F2"/>
<path d="M63.0071 11.5994H62.7548V11.3564H62.7055V11.5994H62.4531V11.6469H62.7055V11.8899H62.7548V11.6469H63.0071V11.5994Z" fill="#F2F2F2"/>
<path d="M88.3528 31.8509H88.1005V31.6079H88.0512V31.8509H87.7988V31.8984H88.0512V32.1413H88.1005V31.8984H88.3528V31.8509Z" fill="#F2F2F2"/>
<path d="M86.552 38.1136H86.2997V37.8706H86.2504V38.1136H85.998V38.1611H86.2504V38.404H86.2997V38.1611H86.552V38.1136Z" fill="#F2F2F2"/>
<path d="M9.13405 43.4427H8.88172V43.1997H8.83241V43.4427H8.58008V43.4902H8.83241V43.7331H8.88172V43.4902H9.13405V43.4427Z" fill="#F2F2F2"/>
<path d="M20.2122 14.3973H19.9598V14.1543H19.9105V14.3973H19.6582V14.4448H19.9105V14.6877H19.9598V14.4448H20.2122V14.3973Z" fill="#F2F2F2"/>
<path d="M63.2845 39.179H63.0321V38.936H62.9828V39.179H62.7305V39.2265H62.9828V39.4695H63.0321V39.2265H63.2845V39.179Z" fill="#F2F2F2"/>
<path d="M36.8313 5.86993H36.579V5.62695H36.5297V5.86993H36.2773V5.91741H36.5297V6.16039H36.579V5.91741H36.8313V5.86993Z" fill="#F2F2F2"/>
<path d="M36.9296 25.0527L36.6152 25.0994C36.7136 25.7043 36.7911 26.3225 36.8479 26.934L37.1651 26.9074C37.1083 26.2878 37.0293 25.6643 36.9296 25.0527Z" fill="#E6E6E6"/>
<path d="M36.0684 21.4102L35.7637 21.4994C35.9479 22.0857 36.1127 22.6866 36.2526 23.2848L36.5642 23.2169C36.4215 22.612 36.2539 22.0044 36.0684 21.4102Z" fill="#E6E6E6"/>
<path d="M34.6977 17.917L34.4082 18.045C34.6741 18.6035 34.9234 19.1768 35.1491 19.75L35.4469 19.642C35.2184 19.0621 34.9677 18.4809 34.6977 17.917Z" fill="#E6E6E6"/>
<path d="M32.8409 14.6416L32.5723 14.8056C32.9143 15.3228 33.2426 15.8587 33.5473 16.396L33.827 16.2493C33.5196 15.7054 33.1872 15.1642 32.8409 14.6416Z" fill="#E6E6E6"/>
<path d="M30.5334 11.6401L30.291 11.8388C30.7037 12.3054 31.1054 12.7933 31.4848 13.2865L31.7397 13.1039C31.3574 12.6053 30.9516 12.112 30.5334 11.6401Z" fill="#E6E6E6"/>
<path d="M27.8213 8.9668L27.6094 9.19476C28.0858 9.60402 28.5525 10.0346 28.9971 10.4732L29.2256 10.2586C28.7755 9.81464 28.3032 9.38005 27.8213 8.9668Z" fill="#E6E6E6"/>
<path d="M24.7587 6.67285L24.5801 6.92614C25.1091 7.26875 25.6326 7.63401 26.1354 8.01128L26.332 7.76998C25.8224 7.38872 25.2933 7.01946 24.7587 6.67285Z" fill="#E6E6E6"/>
<path d="M21.9707 5.07959V5.42601C22.3017 5.59255 22.6299 5.76709 22.9512 5.94563L23.1105 5.68049C22.7366 5.47263 22.3566 5.27234 21.9707 5.07959Z" fill="#E6E6E6"/>
<path d="M36.9512 28.8244L37.2695 28.8188C37.2754 29.1281 37.2758 29.439 37.2708 29.743L36.9525 29.7382C36.9573 29.4377 36.9569 29.1302 36.9512 28.8244Z" fill="#E6E6E6"/>
<path d="M18.2323 51.3008L17.918 51.3474C18.0163 51.9523 18.0939 52.5705 18.1506 53.1821L18.4678 53.1554C18.411 52.5359 18.3321 51.9123 18.2323 51.3008Z" fill="#E6E6E6"/>
<path d="M17.373 47.6577L17.0684 47.747C17.2526 48.3332 17.4174 48.9341 17.5572 49.5324L17.8689 49.4644C17.7262 48.8595 17.5586 48.252 17.373 47.6577Z" fill="#E6E6E6"/>
<path d="M16.0004 44.1646L15.7109 44.2925C15.9768 44.8511 16.2261 45.4243 16.4519 45.9976L16.7496 45.8896C16.5211 45.3097 16.2705 44.7284 16.0004 44.1646Z" fill="#E6E6E6"/>
<path d="M14.1437 40.8896L13.875 41.0536C14.2171 41.5709 14.5453 42.1068 14.85 42.644L15.1298 42.4974C14.8223 41.9535 14.4899 41.4122 14.1437 40.8896Z" fill="#E6E6E6"/>
<path d="M11.8361 37.8877L11.5938 38.0863C12.0065 38.5529 12.4081 39.0408 12.7876 39.5341L13.0424 39.3514C12.6601 38.8529 12.2544 38.3596 11.8361 37.8877Z" fill="#E6E6E6"/>
<path d="M9.12596 35.2148L8.91406 35.4428C9.39048 35.8521 9.8572 36.2827 10.3018 36.7212L10.5303 36.5066C10.0802 36.0627 9.60791 35.6281 9.12596 35.2148Z" fill="#E6E6E6"/>
<path d="M6.06147 32.9204L5.88281 33.1737C6.41185 33.5163 6.93536 33.8816 7.4381 34.2588L7.63476 34.0175C7.1251 33.6363 6.59605 33.267 6.06147 32.9204Z" fill="#E6E6E6"/>
<path d="M3.27344 31.3271V31.6736C3.60444 31.8401 3.93267 32.0147 4.25397 32.1932L4.41324 31.9281C4.0393 31.7202 3.65937 31.5199 3.27344 31.3271Z" fill="#E6E6E6"/>
<path d="M18.2539 55.072L18.5723 55.0664C18.5781 55.3757 18.5785 55.6866 18.5736 55.9905L18.2552 55.9858C18.2601 55.6852 18.2597 55.3778 18.2539 55.072Z" fill="#E6E6E6"/>
<path d="M82.2167 38.1104L81.9023 38.157C82.0007 38.7619 82.0782 39.3801 82.135 39.9917L82.4522 39.965C82.3954 39.3455 82.3164 38.7219 82.2167 38.1104Z" fill="#E6E6E6"/>
<path d="M81.3574 34.4678L81.0527 34.557C81.2369 35.1433 81.4017 35.7442 81.5416 36.3424L81.8532 36.2745C81.7106 35.6696 81.543 35.062 81.3574 34.4678Z" fill="#E6E6E6"/>
<path d="M79.9848 30.9736L79.6953 31.1016C79.9612 31.6602 80.2105 32.2334 80.4362 32.8066L80.734 32.6987C80.5055 32.1188 80.2548 31.5375 79.9848 30.9736Z" fill="#E6E6E6"/>
<path d="M78.1281 27.6987L77.8594 27.8627C78.2015 28.3799 78.5297 28.9158 78.8344 29.4531L79.1142 29.3064C78.8067 28.7625 78.4743 28.2213 78.1281 27.6987Z" fill="#E6E6E6"/>
<path d="M75.8205 24.6968L75.5781 24.8954C75.9908 25.362 76.3925 25.8499 76.7719 26.3431L77.0268 26.1605C76.6445 25.6619 76.2387 25.1687 75.8205 24.6968Z" fill="#E6E6E6"/>
<path d="M73.1084 22.0244L72.8965 22.2524C73.3729 22.6616 73.8396 23.0922 74.2842 23.5308L74.5127 23.3162C74.0626 22.8723 73.5903 22.4377 73.1084 22.0244Z" fill="#E6E6E6"/>
<path d="M70.0458 19.73L69.8672 19.9833C70.3962 20.3259 70.9197 20.6911 71.4225 21.0684L71.6191 20.8271C71.1095 20.4459 70.5804 20.0766 70.0458 19.73Z" fill="#E6E6E6"/>
<path d="M67.2578 18.1362V18.4826C67.5888 18.6492 67.917 18.8237 68.2384 19.0023L68.3976 18.7371C68.0237 18.5293 67.6437 18.329 67.2578 18.1362Z" fill="#E6E6E6"/>
<path d="M82.2383 41.8815L82.5566 41.876C82.5625 42.1852 82.5629 42.4961 82.5579 42.8001L82.2396 42.7953C82.2445 42.4948 82.244 42.1874 82.2383 41.8815Z" fill="#E6E6E6"/>
<path d="M20.6756 26.6817H20.4409V26.4556H20.395V26.6817H20.1602V26.7258H20.395V26.9519H20.4409V26.7258H20.6756V26.6817Z" fill="#F2F2F2"/>
<path d="M17.9706 40.3194H17.7358V40.0933H17.69V40.3194H17.4551V40.3636H17.69V40.5896H17.7358V40.3636H17.9706V40.3194Z" fill="#F2F2F2"/>
<path d="M10.0291 52.2714H9.79426V52.0454H9.74842V52.2714H9.51367V52.3156H9.74842V52.5418H9.79426V52.3156H10.0291V52.2714Z" fill="#F2F2F2"/>
<path d="M32.1189 37.1123C29.8485 33.8655 28.8628 29.9436 29.3403 26.0575C29.8179 22.1715 31.7272 18.5788 34.722 15.931C37.7167 13.2831 41.5987 11.7554 45.6639 11.6248C49.7291 11.4943 53.7083 12.7696 56.8799 15.2195C60.0516 17.6694 62.2056 21.1317 62.9514 24.9784C63.6973 28.8251 62.9855 32.8016 60.9451 36.1868C58.9048 39.5719 55.6711 42.1416 51.8304 43.4297C47.9896 44.7179 43.7962 44.6392 40.0105 43.2081C39.7651 44.0508 39.3063 44.8219 38.6752 45.4522C38.044 46.0825 37.2603 46.5525 36.394 46.8199C35.5278 47.0874 34.6062 47.144 33.7116 46.9848C32.8171 46.8255 31.9775 46.4553 31.2682 45.9074C30.5588 45.3594 30.0017 44.6508 29.6468 43.845C29.292 43.0391 29.1503 42.1611 29.2346 41.2897C29.3189 40.4183 29.6265 39.5805 30.1299 38.8515C30.6332 38.1225 31.3166 37.5249 32.1189 37.1123Z" fill="#3F3D56"/>
<path d="M46.1356 18.626C50.0348 18.626 52.7174 20.7066 52.7174 23.6975C52.7174 25.6782 51.7192 27.0486 49.7956 28.1389C47.9864 29.1492 47.373 29.8895 47.373 31.1699C47.373 31.2736 47.3517 31.3764 47.3104 31.4723C47.2691 31.5681 47.2086 31.6553 47.1324 31.7286C47.0561 31.802 46.9655 31.8602 46.8659 31.8999C46.7662 31.9397 46.6594 31.9601 46.5515 31.9601H44.5582C44.3453 31.9601 44.1407 31.8806 43.9876 31.7383C43.8344 31.596 43.7447 31.4021 43.7373 31.1974L43.7337 31.0998C43.557 29.0392 44.3056 27.7588 46.1876 26.6985C47.9448 25.6882 48.6831 25.048 48.6831 23.8076C48.6831 22.5672 47.4353 21.6569 45.8861 21.6569C44.7085 21.6569 43.7766 22.2083 43.3492 23.1086C43.199 23.4134 42.9611 23.6704 42.6639 23.8492C42.3666 24.028 42.0223 24.1212 41.6717 24.1177C40.3212 24.1177 39.4289 22.7359 40.0606 21.5874C41.0597 19.7707 43.1678 18.626 46.1356 18.626ZM43.401 35.7713C43.401 34.6209 44.3992 33.7106 45.6261 33.7106C46.8635 33.7106 47.8616 34.6109 47.8616 35.7713C47.8616 36.9316 46.8634 37.8319 45.6261 37.8319C44.3888 37.8319 43.401 36.9316 43.401 35.7713Z" fill="#2EC4B6"/>
<g clip-path="url(#clip1)">
<path d="M149.968 104.506H95.7641C95.7163 104.506 95.6705 104.488 95.6367 104.455C95.6029 104.423 95.584 104.378 95.584 104.332C95.584 104.286 95.6029 104.242 95.6367 104.21C95.6705 104.177 95.7163 104.159 95.7641 104.159H149.968C150.016 104.159 150.062 104.177 150.095 104.21C150.129 104.242 150.148 104.286 150.148 104.332C150.148 104.378 150.129 104.423 150.095 104.455C150.062 104.488 150.016 104.506 149.968 104.506Z" fill="#3F3D56"/>
<path d="M116.125 102.519H113.918L112.867 94.314L116.126 94.3141L116.125 102.519Z" fill="#FFB8B8"/>
<path d="M112.341 101.911H116.599V104.494H109.66C109.66 104.155 109.729 103.819 109.864 103.506C109.999 103.192 110.196 102.908 110.445 102.668C110.694 102.428 110.99 102.238 111.315 102.108C111.64 101.978 111.989 101.911 112.341 101.911Z" fill="#2F2E41"/>
<path d="M132.144 100.109L130.136 100.993L125.643 93.9502L128.606 92.646L132.144 100.109Z" fill="#FFB8B8"/>
<path d="M128.438 101.071L132.311 99.367L133.425 101.717L127.114 104.494C126.968 104.185 126.886 103.852 126.873 103.513C126.861 103.174 126.917 102.836 127.04 102.518C127.163 102.201 127.35 101.909 127.59 101.661C127.83 101.413 128.118 101.212 128.438 101.071Z" fill="#2F2E41"/>
<path d="M125.714 74.8542C125.925 74.7008 126.099 74.5046 126.224 74.2794C126.348 74.0542 126.42 73.8055 126.433 73.5508C126.447 73.296 126.403 73.0415 126.303 72.8051C126.204 72.5687 126.052 72.3561 125.858 72.1824L128.453 66.5088L125.156 67.0471L123.197 72.3524C122.916 72.6855 122.771 73.1065 122.791 73.5355C122.81 73.9646 122.992 74.3719 123.302 74.6803C123.613 74.9886 124.029 75.1767 124.474 75.2087C124.918 75.2408 125.36 75.1146 125.714 74.8542Z" fill="#FFB8B8"/>
<path d="M115.984 100.356H113.875C113.67 100.355 113.474 100.28 113.324 100.146C113.174 100.012 113.082 99.828 113.067 99.6315L110.836 70.0385C110.828 69.9251 110.845 69.8113 110.887 69.705C110.929 69.5987 110.994 69.5024 111.078 69.423C111.163 69.3437 111.264 69.283 111.376 69.2453C111.487 69.2076 111.606 69.1938 111.723 69.2049L125.001 70.453C125.199 70.4716 125.383 70.5595 125.517 70.7C125.652 70.8406 125.729 71.0239 125.733 71.2153L125.988 84.2691C125.99 84.3399 126.004 84.41 126.03 84.4761L131.034 96.9777C131.073 97.0743 131.091 97.1773 131.088 97.2808C131.085 97.3843 131.061 97.4861 131.016 97.5804C130.972 97.6747 130.909 97.7596 130.83 97.8301C130.751 97.9007 130.659 97.9554 130.558 97.9911L128.421 98.7499C128.235 98.8157 128.031 98.8139 127.847 98.7448C127.662 98.6756 127.511 98.5439 127.42 98.3744L121.273 86.859C121.24 86.7964 121.215 86.7297 121.201 86.6607L120.151 81.7863C120.12 81.6449 120.038 81.5187 119.92 81.4301C119.802 81.3416 119.655 81.2965 119.505 81.303C119.355 81.3096 119.213 81.3672 119.103 81.4657C118.994 81.5642 118.924 81.6971 118.907 81.8405L116.789 99.6637C116.767 99.8542 116.672 100.03 116.524 100.158C116.375 100.285 116.183 100.356 115.984 100.356Z" fill="#2F2E41"/>
<path d="M117.772 48.6747C121.14 48.6747 123.871 46.0541 123.871 42.8215C123.871 39.5888 121.14 36.9683 117.772 36.9683C114.403 36.9683 111.672 39.5888 111.672 42.8215C111.672 46.0541 114.403 48.6747 117.772 48.6747Z" fill="#FFB8B8"/>
<path d="M110.734 70.5502C111.332 70.926 118.07 74.9712 125.749 71.7538C125.65 70.9724 124.691 63.1273 125.528 57.344C125.925 54.6 124.726 52.058 122.238 50.3696C120.887 49.457 119.293 48.8891 117.621 48.7246C115.948 48.5601 114.258 48.8048 112.724 49.4336H112.724C112.598 49.485 112.471 49.5385 112.343 49.5942L110.734 70.5502Z" fill="#2EC4B6"/>
<path d="M125.962 71.35C125.85 71.35 125.739 71.3274 125.637 71.2838C125.534 71.2402 125.442 71.1765 125.366 71.0966L124.398 70.0797C124.304 69.9802 124.238 69.8591 124.207 69.7279C124.175 69.5968 124.18 69.4601 124.219 69.3309L126.435 62.1048L123.063 55.2832C122.915 54.9833 122.879 54.6435 122.961 54.3209C123.032 54.0378 123.192 53.7823 123.417 53.5881C123.643 53.394 123.924 53.2702 124.224 53.2333C124.525 53.1964 124.829 53.2479 125.098 53.3812C125.367 53.5145 125.588 53.7232 125.732 53.9799L130.289 61.1053C130.467 61.3821 130.571 61.6967 130.592 62.0213C130.614 62.3459 130.552 62.6707 130.413 62.9671L126.702 70.8903C126.647 71.0081 126.562 71.111 126.456 71.1895C126.349 71.268 126.224 71.3197 126.092 71.34C126.049 71.3466 126.006 71.3499 125.962 71.35Z" fill="#2EC4B6"/>
<path d="M122.585 47.7657C121.959 47.8709 121.444 47.0167 121.366 46.416C121.289 45.8152 121.512 45.2401 121.536 44.6432C121.561 44.0463 121.274 43.3209 120.641 43.1439C119.979 42.9584 119.364 43.4797 118.686 43.417C117.74 43.3297 117.266 42.2447 117.151 41.3671C117.037 40.4894 116.947 39.4501 116.128 38.9496C115.312 38.4506 114.302 38.8137 113.364 38.8292C111.779 38.8554 110.165 37.6701 109.795 36.2073C109.987 36.2617 110.193 36.2516 110.378 36.1786C110.564 36.1057 110.72 35.974 110.821 35.8045C110.9 35.6237 110.916 35.4222 110.867 35.2314C110.817 35.0406 110.705 34.8713 110.547 34.7497L112.344 35.6125C112.098 35.1224 112.469 34.5642 112.979 34.3786C113.49 34.193 114.084 34.2763 114.647 34.3621C117.46 34.7907 120.719 34.5795 122.585 36.6829C123.878 38.1399 124.942 40.9123 124.796 42.7062C124.651 44.5 122.585 47.7657 122.585 47.7657Z" fill="#2F2E41"/>
</g>
</g>
<defs>
<clipPath id="clip0">
<rect width="152.962" height="106.259" fill="white" transform="translate(0 0.0478516)"/>
</clipPath>
<clipPath id="clip1">
<rect width="130.44" height="90.0497" fill="white" transform="translate(19.707 14.4561)"/>
</clipPath>
</defs>
</svg>
