<svg width="228" height="90" viewBox="0 0 228 90" fill="none" xmlns="http://www.w3.org/2000/svg">
<g clip-path="url(#clip0)">
<rect x="8.42773" y="14.9199" width="98.073" height="62.6036" rx="2" fill="white"/>
<path d="M101.423 72.7628H13.6756C13.1619 72.7623 12.6695 72.566 12.3063 72.217C11.9432 71.868 11.7389 71.3949 11.7383 70.9014V21.8166C11.7389 21.323 11.9431 20.8499 12.3063 20.5009C12.6695 20.1519 13.1619 19.9556 13.6756 19.9551H101.423C101.936 19.9556 102.429 20.152 102.792 20.5009C103.155 20.8499 103.359 21.323 103.36 21.8166V70.9014C103.359 71.3949 103.155 71.868 102.792 72.217C102.429 72.566 101.936 72.7623 101.423 72.7628Z" fill="#E6E6E6"/>
<path d="M106.892 79.6325H8.20508V16.8891C8.20573 16.3375 8.43406 15.8087 8.83997 15.4186C9.24588 15.0286 9.79622 14.8092 10.3703 14.8086H104.727C105.301 14.8092 105.851 15.0286 106.257 15.4186C106.663 15.8087 106.891 16.3375 106.892 16.8891V79.6325ZM8.66091 79.1945H106.436V16.8891C106.436 16.4536 106.256 16.0361 105.935 15.7282C105.615 15.4203 105.18 15.2471 104.727 15.2466H10.3703C9.91707 15.2471 9.48257 15.4203 9.16211 15.7282C8.84165 16.0361 8.6614 16.4536 8.66091 16.8891V79.1945Z" fill="#CCCCCC"/>
<path d="M57.5484 18.4234C58.0519 18.4234 58.46 18.0309 58.46 17.5469C58.46 17.0628 58.0519 16.6704 57.5484 16.6704C57.0449 16.6704 56.6367 17.0628 56.6367 17.5469C56.6367 18.0309 57.0449 18.4234 57.5484 18.4234Z" fill="#E6E6E6"/>
<path d="M79.542 62.346H35.5545C35.0408 62.3455 34.5484 62.1492 34.1853 61.8002C33.8221 61.4512 33.6178 60.9781 33.6172 60.4845V32.2336C33.6178 31.74 33.8221 31.2669 34.1853 30.9179C34.5484 30.5689 35.0408 30.3726 35.5545 30.3721H79.542C80.0556 30.3727 80.548 30.569 80.9112 30.9179C81.2743 31.2669 81.4786 31.74 81.4793 32.2336V60.4845C81.4786 60.978 81.2743 61.4512 80.9112 61.8002C80.548 62.1491 80.0556 62.3454 79.542 62.346Z" fill="white"/>
<path d="M42.7901 42.4171C42.4295 42.4171 42.077 42.3143 41.7771 42.1218C41.4773 41.9293 41.2436 41.6557 41.1056 41.3355C40.9676 41.0154 40.9315 40.6631 41.0018 40.3233C41.0722 39.9834 41.2458 39.6713 41.5008 39.4262C41.7558 39.1812 42.0807 39.0144 42.4344 38.9468C42.7881 38.8792 43.1547 38.9138 43.4879 39.0464C43.821 39.179 44.1058 39.4036 44.3062 39.6917C44.5065 39.9798 44.6134 40.3186 44.6134 40.6651C44.6129 41.1296 44.4206 41.5749 44.0788 41.9033C43.737 42.2318 43.2735 42.4165 42.7901 42.4171Z" fill="#CCCCCC"/>
<path d="M42.7901 48.1109C42.4295 48.1109 42.077 48.0082 41.7771 47.8157C41.4773 47.6231 41.2436 47.3495 41.1056 47.0294C40.9676 46.7093 40.9315 46.357 41.0018 46.0171C41.0722 45.6773 41.2458 45.3651 41.5008 45.1201C41.7558 44.8751 42.0807 44.7082 42.4344 44.6406C42.7881 44.573 43.1547 44.6077 43.4879 44.7403C43.821 44.8729 44.1058 45.0975 44.3062 45.3856C44.5065 45.6737 44.6134 46.0124 44.6134 46.3589C44.6129 46.8234 44.4206 47.2687 44.0788 47.5972C43.737 47.9256 43.2735 48.1104 42.7901 48.1109Z" fill="#00A7D8"/>
<path d="M42.7901 53.8048C42.4295 53.8048 42.077 53.702 41.7771 53.5095C41.4773 53.317 41.2436 53.0434 41.1056 52.7232C40.9676 52.4031 40.9315 52.0508 41.0018 51.711C41.0722 51.3711 41.2458 51.0589 41.5008 50.8139C41.7558 50.5689 42.0807 50.402 42.4344 50.3344C42.7881 50.2668 43.1547 50.3015 43.4879 50.4341C43.821 50.5667 44.1058 50.7913 44.3062 51.0794C44.5065 51.3675 44.6134 51.7063 44.6134 52.0528C44.6129 52.5173 44.4206 52.9626 44.0788 53.291C43.737 53.6195 43.2735 53.8042 42.7901 53.8048Z" fill="#00A7D8"/>
<path d="M51.4521 39.2417C51.0592 39.2417 50.6824 39.3917 50.4046 39.6586C50.1268 39.9256 49.9707 40.2877 49.9707 40.6652C49.9707 41.0427 50.1268 41.4048 50.4046 41.6718C50.6824 41.9387 51.0592 42.0887 51.4521 42.0887H72.6482C73.0411 42.0887 73.4179 41.9387 73.6958 41.6718C73.9736 41.4048 74.1297 41.0427 74.1297 40.6652C74.1297 40.2877 73.9736 39.9256 73.6958 39.6586C73.4179 39.3917 73.0411 39.2417 72.6482 39.2417H51.4521Z" fill="#CCCCCC"/>
<path d="M51.4521 44.9355C51.0592 44.9355 50.6824 45.0855 50.4046 45.3525C50.1268 45.6194 49.9707 45.9815 49.9707 46.359C49.9707 46.7366 50.1268 47.0987 50.4046 47.3656C50.6824 47.6326 51.0592 47.7825 51.4521 47.7825H72.6482C73.0411 47.7825 73.4179 47.6326 73.6958 47.3656C73.9736 47.0987 74.1297 46.7366 74.1297 46.359C74.1297 45.9815 73.9736 45.6194 73.6958 45.3525C73.4179 45.0855 73.0411 44.9355 72.6482 44.9355H51.4521Z" fill="#00A7D8"/>
<path d="M51.4521 50.6294C51.0592 50.6294 50.6824 50.7794 50.4046 51.0463C50.1268 51.3133 49.9707 51.6754 49.9707 52.0529C49.9707 52.4304 50.1268 52.7925 50.4046 53.0595C50.6824 53.3264 51.0592 53.4764 51.4521 53.4764H72.6482C73.0411 53.4764 73.4179 53.3264 73.6958 53.0595C73.9736 52.7925 74.1297 52.4304 74.1297 52.0529C74.1297 51.6754 73.9736 51.3133 73.6958 51.0463C73.4179 50.7794 73.0411 50.6294 72.6482 50.6294H51.4521Z" fill="#00A7D8"/>
<path d="M108.601 76.7854H104.613V76.1284C104.613 75.8961 104.517 75.6733 104.346 75.509C104.175 75.3447 103.943 75.2524 103.701 75.2524H98.9149C98.6731 75.2524 98.4413 75.3447 98.2703 75.509C98.0993 75.6733 98.0033 75.8961 98.0033 76.1284V76.7854H97.3195V76.1284C97.3195 75.8961 97.2235 75.6733 97.0525 75.509C96.8815 75.3447 96.6497 75.2524 96.4079 75.2524H91.6217C91.3799 75.2524 91.148 75.3447 90.977 75.509C90.806 75.6733 90.71 75.8961 90.71 76.1284V76.7854H90.0263V76.1284C90.0263 75.8961 89.9302 75.6733 89.7592 75.509C89.5883 75.3447 89.3564 75.2524 89.1146 75.2524H84.3284C84.0866 75.2524 83.8547 75.3447 83.6838 75.509C83.5128 75.6733 83.4167 75.8961 83.4167 76.1284V76.7854H82.733V76.1284C82.733 75.8961 82.6369 75.6733 82.466 75.509C82.295 75.3447 82.0631 75.2524 81.8213 75.2524H77.0351C76.7933 75.2524 76.5615 75.3447 76.3905 75.509C76.2195 75.6733 76.1235 75.8961 76.1235 76.1284V76.7854H75.4397V76.1284C75.4397 75.8961 75.3437 75.6733 75.1727 75.509C75.0017 75.3447 74.7699 75.2524 74.5281 75.2524H69.7419C69.5001 75.2524 69.2682 75.3447 69.0972 75.509C68.9262 75.6733 68.8302 75.8961 68.8302 76.1284V76.7854H68.1465V76.1284C68.1465 75.8961 68.0504 75.6733 67.8794 75.509C67.7085 75.3447 67.4766 75.2524 67.2348 75.2524H62.4486C62.2068 75.2524 61.9749 75.3447 61.804 75.509C61.633 75.6733 61.5369 75.8961 61.5369 76.1284V76.7854H60.8532V76.1284C60.8532 75.8961 60.7571 75.6733 60.5862 75.509C60.4152 75.3447 60.1833 75.2524 59.9415 75.2524H55.1553C54.9135 75.2524 54.6817 75.3447 54.5107 75.509C54.3397 75.6733 54.2437 75.8961 54.2437 76.1284V76.7854H53.5599V76.1284C53.5599 75.8961 53.4639 75.6733 53.2929 75.509C53.1219 75.3447 52.8901 75.2524 52.6483 75.2524H47.8621C47.6203 75.2524 47.3884 75.3447 47.2174 75.509C47.0465 75.6733 46.9504 75.8961 46.9504 76.1284V76.7854H46.2667V76.1284C46.2667 75.8961 46.1706 75.6733 45.9996 75.509C45.8287 75.3447 45.5968 75.2524 45.355 75.2524H40.5688C40.327 75.2524 40.0951 75.3447 39.9242 75.509C39.7532 75.6733 39.6571 75.8961 39.6571 76.1284V76.7854H38.9734V76.1284C38.9734 75.8961 38.8773 75.6733 38.7064 75.509C38.5354 75.3447 38.3035 75.2524 38.0617 75.2524H33.2755C33.0337 75.2524 32.8019 75.3447 32.6309 75.509C32.4599 75.6733 32.3639 75.8961 32.3639 76.1284V76.7854H31.6801V76.1284C31.6801 75.8961 31.5841 75.6733 31.4131 75.509C31.2421 75.3447 31.0103 75.2524 30.7685 75.2524H25.9823C25.7405 75.2524 25.5086 75.3447 25.3376 75.509C25.1667 75.6733 25.0706 75.8961 25.0706 76.1284V76.7854H24.3869V76.1284C24.3869 75.8961 24.2908 75.6733 24.1198 75.509C23.9489 75.3447 23.717 75.2524 23.4752 75.2524H18.689C18.4472 75.2524 18.2153 75.3447 18.0444 75.509C17.8734 75.6733 17.7773 75.8961 17.7773 76.1284V76.7854H17.0936V76.1284C17.0936 75.8961 16.9975 75.6733 16.8266 75.509C16.6556 75.3447 16.4237 75.2524 16.1819 75.2524H11.3957C11.1539 75.2524 10.9221 75.3447 10.7511 75.509C10.5801 75.6733 10.4841 75.8961 10.4841 76.1284V76.7854H6.49555C4.77282 76.7854 3.12066 77.443 1.9025 78.6135C0.684352 79.784 0 81.3716 0 83.0269V83.0269C0 83.5206 0.204105 83.9941 0.567415 84.3432C0.930724 84.6923 1.42348 84.8884 1.93727 84.8884H113.16C113.673 84.8884 114.166 84.6923 114.529 84.3432C114.893 83.9941 115.097 83.5206 115.097 83.0269V83.0269C115.097 81.3716 114.413 79.784 113.194 78.6135C111.976 77.443 110.324 76.7854 108.601 76.7854Z" fill="#3F3D56"/>
<path d="M101.917 72.3676H13.0111C12.1757 72.3676 11.4922 71.6779 11.4922 70.8349V21.6079C11.4922 20.7649 12.1757 20.0752 13.0111 20.0752H101.917C102.752 20.0752 103.436 20.7649 103.436 21.6079V70.8349C103.41 71.7034 102.727 72.3676 101.917 72.3676Z" fill="#1E1F21"/>
<path d="M101.942 68.587H12.9604C12.8591 68.587 12.7832 68.5103 12.7832 68.408C12.7832 68.3057 12.8591 68.229 12.9604 68.229H101.942C102.043 68.229 102.119 68.3057 102.119 68.408C102.119 68.5103 102.043 68.587 101.942 68.587Z" fill="#58595B"/>
<path d="M61.7421 68.587H12.9604C12.8591 68.587 12.7832 68.5103 12.7832 68.408C12.7832 68.3057 12.8591 68.229 12.9604 68.229H61.7421C61.8433 68.229 61.9193 68.3057 61.9193 68.408C61.9193 68.5103 61.8433 68.587 61.7421 68.587Z" fill="#BCBEC0"/>
<path d="M48.8062 68.587H12.9604C12.8591 68.587 12.7832 68.5103 12.7832 68.408C12.7832 68.3057 12.8591 68.229 12.9604 68.229H48.8062C48.9075 68.229 48.9834 68.3057 48.9834 68.408C48.9834 68.5103 48.9075 68.587 48.8062 68.587Z" fill="#ED1C24"/>
<path d="M18.9102 70.5029V70.043C18.9102 69.992 18.9608 69.9664 18.9861 69.992L19.3911 70.2219L19.7962 70.4518C19.8215 70.4773 19.8215 70.5284 19.7962 70.554L19.3911 70.7839L18.9861 71.0138C18.9608 71.0393 18.9102 71.0138 18.9102 70.9627V70.5029Z" fill="#F1F2F2"/>
<path d="M22.655 70.1452H22.3006C22.2753 70.1452 22.25 70.1707 22.25 70.1963V70.503V70.8097C22.25 70.8353 22.2753 70.8608 22.3006 70.8608H22.655L23.1866 71.3976V70.503V69.6084L22.655 70.1452Z" fill="#F1F2F2"/>
<path d="M20.0993 71.0652C20.0487 71.0652 19.998 71.0141 19.998 70.963V70.0173C19.998 69.9662 20.0487 69.915 20.0993 69.915C20.1499 69.915 20.2006 69.9662 20.2006 70.0173V70.963C20.2006 71.0141 20.1499 71.0652 20.0993 71.0652Z" fill="#F1F2F2"/>
<path d="M23.4141 69.9409V70.0943C23.566 70.1709 23.6672 70.3243 23.6672 70.5032C23.6672 70.6821 23.566 70.8355 23.4141 70.9122V71.0655C23.6419 70.9888 23.7938 70.7588 23.7938 70.5032C23.7938 70.2476 23.6419 70.0176 23.4141 69.9409Z" fill="#F1F2F2"/>
<path d="M23.4141 69.5063V69.7363C23.7432 69.8384 23.9963 70.145 23.9963 70.5026C23.9963 70.8603 23.7432 71.1668 23.4141 71.269V71.4989C23.8697 71.3968 24.1988 70.988 24.1988 70.5026C24.1988 70.0173 23.8697 69.6085 23.4141 69.5063Z" fill="#F1F2F2"/>
<path d="M26.4277 70.8848H25.7695V70.7571L26.0227 70.5016C26.0986 70.425 26.1493 70.3739 26.1746 70.3483C26.1999 70.3228 26.2252 70.2973 26.2252 70.2717C26.2252 70.2462 26.2505 70.2206 26.2505 70.1695C26.2505 70.1184 26.2252 70.0929 26.1999 70.0673C26.1746 70.0418 26.1493 70.0418 26.0986 70.0418C26.0733 70.0418 26.0227 70.0418 25.9974 70.0673C25.972 70.0929 25.9214 70.1184 25.8708 70.144L25.7948 70.0418C25.8455 69.9907 25.8961 69.9652 25.9467 69.9396C25.9974 69.9141 26.048 69.9141 26.0986 69.9141C26.1999 69.9141 26.2505 69.9396 26.3011 69.9907C26.3518 70.0418 26.3771 70.0929 26.3771 70.1695C26.3771 70.2206 26.3771 70.2462 26.3518 70.2973C26.3265 70.3483 26.3011 70.3739 26.2758 70.425C26.2505 70.4761 26.1999 70.5272 26.1239 70.6038L25.9467 70.7571H26.4024V70.8848H26.4277Z" fill="#F1F2F2"/>
<path d="M26.5801 70.2473C26.5801 70.1706 26.6054 70.145 26.6813 70.145C26.7067 70.145 26.732 70.145 26.7573 70.1706C26.7826 70.1962 26.7826 70.2217 26.7826 70.2473C26.7826 70.2729 26.7826 70.2984 26.7573 70.324C26.732 70.3496 26.7067 70.3496 26.6813 70.3496C26.656 70.3496 26.6307 70.3496 26.6054 70.324C26.5801 70.2984 26.5801 70.2729 26.5801 70.2473ZM26.5801 70.8098C26.5801 70.7842 26.5801 70.7587 26.6054 70.7331C26.6307 70.7075 26.656 70.7075 26.6813 70.7075C26.7067 70.7075 26.732 70.7075 26.7573 70.7331C26.7826 70.7587 26.7826 70.7842 26.7826 70.8098C26.7826 70.8354 26.7826 70.8609 26.7573 70.8865C26.732 70.9121 26.7067 70.9121 26.6813 70.9121C26.656 70.9121 26.6307 70.9121 26.6054 70.8865C26.5801 70.8609 26.5801 70.8354 26.5801 70.8098Z" fill="#F1F2F2"/>
<path d="M27.9199 70.8872H27.2617V70.7595L27.5149 70.5041C27.5908 70.4274 27.6414 70.3763 27.6668 70.3508C27.6921 70.3252 27.7174 70.2997 27.7174 70.2741C27.7174 70.2486 27.7427 70.2231 27.7427 70.172C27.7427 70.1209 27.7174 70.0953 27.6921 70.0698C27.6668 70.0442 27.6414 70.0442 27.5908 70.0442C27.5655 70.0442 27.5149 70.0442 27.4896 70.0698C27.4642 70.0953 27.4136 70.1209 27.363 70.1464L27.287 70.0442C27.3377 69.9931 27.3883 69.9676 27.4389 69.9421C27.4896 69.9165 27.5402 69.9165 27.5908 69.9165C27.6921 69.9165 27.7427 69.9421 27.7933 69.9931C27.844 70.0442 27.8693 70.0953 27.8693 70.172C27.8693 70.2231 27.8693 70.2486 27.844 70.2997C27.8186 70.3508 27.7933 70.3763 27.768 70.4274C27.7427 70.4785 27.6921 70.5296 27.6161 70.6062L27.4389 70.7595H27.8946V70.8872H27.9199Z" fill="#F1F2F2"/>
<path d="M28.0488 70.4785C28.0488 70.0953 28.2007 69.9165 28.5045 69.9165C28.5551 69.9165 28.6058 69.9165 28.6311 69.9165V70.0442C28.6058 70.0442 28.5551 70.0187 28.5045 70.0187C28.4032 70.0187 28.3273 70.0442 28.2767 70.0953C28.226 70.1464 28.2007 70.2486 28.2007 70.3508C28.226 70.3252 28.2513 70.2997 28.2767 70.2741C28.302 70.2486 28.3526 70.2486 28.4032 70.2486C28.4792 70.2486 28.5551 70.2741 28.6058 70.3252C28.6564 70.3763 28.6817 70.453 28.6817 70.5551C28.6817 70.6573 28.6564 70.734 28.6058 70.7851C28.5551 70.8362 28.4792 70.8617 28.3779 70.8617C28.302 70.8617 28.2513 70.8361 28.2007 70.8106C28.1501 70.7851 28.0995 70.734 28.0741 70.6573C28.0488 70.6573 28.0488 70.5807 28.0488 70.4785ZM28.3779 70.7851C28.4286 70.7851 28.4792 70.7595 28.5045 70.734C28.5298 70.7084 28.5551 70.6573 28.5551 70.5807C28.5551 70.5296 28.5298 70.4785 28.5045 70.453C28.4792 70.4274 28.4286 70.4019 28.3779 70.4019C28.3526 70.4019 28.302 70.4019 28.2767 70.4274C28.2513 70.453 28.226 70.453 28.2007 70.4785C28.1754 70.5041 28.1754 70.5296 28.1754 70.5551C28.1754 70.6062 28.2007 70.6829 28.226 70.7084C28.2767 70.7595 28.3273 70.7851 28.3779 70.7851Z" fill="#F1F2F2"/>
<path d="M29.6176 69.9165L29.2632 70.8872H29.1113L29.4657 69.9165H29.6176Z" fill="#F1F2F2"/>
<path d="M30.4793 70.8855H30.3274V70.2468C30.3274 70.1702 30.3274 70.1191 30.3274 70.068L30.3021 70.0935C30.2767 70.0935 30.2261 70.1446 30.1502 70.2213L30.0742 70.1191L30.3527 69.8892H30.4793V70.8855Z" fill="#F1F2F2"/>
<path d="M30.8066 70.4785C30.8066 70.0953 30.9585 69.9165 31.2623 69.9165C31.3129 69.9165 31.3636 69.9165 31.3889 69.9165V70.0442C31.3636 70.0442 31.3129 70.0187 31.2623 70.0187C31.161 70.0187 31.0851 70.0442 31.0345 70.0953C30.9838 70.1464 30.9585 70.2486 30.9585 70.3508C30.9838 70.3252 31.0092 70.2997 31.0345 70.2741C31.0598 70.2486 31.1104 70.2486 31.161 70.2486C31.237 70.2486 31.3129 70.2741 31.3636 70.3252C31.4142 70.3763 31.4395 70.453 31.4395 70.5551C31.4395 70.6573 31.4142 70.734 31.3636 70.7851C31.3129 70.8362 31.237 70.8617 31.1357 70.8617C31.0598 70.8617 31.0092 70.8361 30.9585 70.8106C30.9079 70.7851 30.8573 70.734 30.832 70.6573C30.8066 70.6573 30.8066 70.5807 30.8066 70.4785ZM31.1357 70.7851C31.1864 70.7851 31.237 70.7595 31.2623 70.734C31.2876 70.7084 31.3129 70.6573 31.3129 70.5807C31.3129 70.5296 31.2876 70.4785 31.2623 70.453C31.237 70.4274 31.1864 70.4019 31.1357 70.4019C31.1104 70.4019 31.0598 70.4019 31.0345 70.4274C31.0092 70.453 30.9838 70.453 30.9585 70.4785C30.9332 70.5041 30.9332 70.5296 30.9332 70.5551C30.9332 70.6062 30.9585 70.6829 30.9838 70.7084C31.0345 70.7595 31.0851 70.7851 31.1357 70.7851Z" fill="#F1F2F2"/>
<path d="M31.9473 70.2473C31.9473 70.1706 31.9726 70.145 32.0485 70.145C32.0738 70.145 32.0992 70.145 32.1245 70.1706C32.1498 70.1962 32.1498 70.2217 32.1498 70.2473C32.1498 70.2729 32.1498 70.2984 32.1245 70.324C32.0992 70.3496 32.0738 70.3496 32.0485 70.3496C32.0232 70.3496 31.9979 70.3496 31.9726 70.324C31.9473 70.2984 31.9473 70.2729 31.9473 70.2473ZM31.9473 70.8098C31.9473 70.7842 31.9473 70.7587 31.9726 70.7331C31.9979 70.7075 32.0232 70.7075 32.0485 70.7075C32.0738 70.7075 32.0992 70.7075 32.1245 70.7331C32.1498 70.7587 32.1498 70.7842 32.1498 70.8098C32.1498 70.8354 32.1498 70.8609 32.1245 70.8865C32.0992 70.9121 32.0738 70.9121 32.0485 70.9121C32.0232 70.9121 31.9979 70.9121 31.9726 70.8865C31.9473 70.8609 31.9473 70.8354 31.9473 70.8098Z" fill="#F1F2F2"/>
<path d="M33.3396 70.6829H33.1877V70.8872H33.0358V70.6829H32.6055V70.5551L33.0358 69.9165H33.1877V70.5551H33.3143V70.6829H33.3396ZM33.0358 70.5551V70.2997C33.0358 70.2231 33.0358 70.1464 33.0358 70.0953C33.0358 70.1209 33.0105 70.172 32.9852 70.1975L32.7574 70.5551H33.0358Z" fill="#F1F2F2"/>
<path d="M33.416 70.4785C33.416 70.0953 33.5679 69.9165 33.8717 69.9165C33.9223 69.9165 33.9729 69.9165 33.9983 69.9165V70.0442C33.9729 70.0442 33.9223 70.0187 33.8717 70.0187C33.7704 70.0187 33.6945 70.0442 33.6439 70.0953C33.5932 70.1464 33.5679 70.2486 33.5679 70.3508C33.5932 70.3252 33.6185 70.2997 33.6439 70.2741C33.6692 70.2486 33.7198 70.2486 33.7704 70.2486C33.8464 70.2486 33.9223 70.2741 33.9729 70.3252C34.0236 70.3763 34.0489 70.453 34.0489 70.5551C34.0489 70.6573 34.0236 70.734 33.9729 70.7851C33.9223 70.8362 33.8464 70.8617 33.7451 70.8617C33.6692 70.8617 33.6185 70.8361 33.5679 70.8106C33.5173 70.7851 33.4666 70.734 33.4413 70.6573C33.416 70.6573 33.416 70.5807 33.416 70.4785ZM33.7451 70.7851C33.7957 70.7851 33.8464 70.7595 33.8717 70.734C33.897 70.7084 33.9223 70.6573 33.9223 70.5807C33.9223 70.5296 33.897 70.4785 33.8717 70.453C33.8464 70.4274 33.7957 70.4019 33.7451 70.4019C33.7198 70.4019 33.6692 70.4019 33.6439 70.4274C33.6185 70.453 33.5932 70.453 33.5679 70.4785C33.5426 70.5041 33.5426 70.5296 33.5426 70.5551C33.5426 70.6062 33.5679 70.6829 33.5932 70.7084C33.6439 70.7595 33.6945 70.7851 33.7451 70.7851Z" fill="#F1F2F2"/>
<path d="M89.8169 70.4268L89.6144 70.3757C89.6144 70.3501 89.589 70.3246 89.589 70.299L89.7409 70.1456C89.7409 70.1456 89.7409 70.1456 89.7409 70.1201L89.665 69.9923C89.665 69.9923 89.665 69.9923 89.6397 69.9923L89.4372 70.069C89.4118 70.0434 89.3865 70.0178 89.3865 70.0178L89.4625 69.8134V69.7878L89.3359 69.7111H89.3106L89.1587 69.8645C89.1334 69.8645 89.1081 69.8389 89.0827 69.8389L89.0321 69.6344C89.0321 69.6344 89.0321 69.6089 89.0068 69.6089H88.8549C88.8549 69.6089 88.8296 69.6089 88.8296 69.6344L88.779 69.8389C88.7537 69.8389 88.7283 69.8645 88.703 69.8645L88.5511 69.7111C88.5511 69.7111 88.5511 69.7111 88.5258 69.7111L88.3993 69.7878C88.3993 69.7878 88.3993 69.7878 88.3993 69.8134L88.4752 70.0178C88.4499 70.0434 88.4246 70.069 88.4246 70.069L88.222 69.9923H88.1967L88.1208 70.1201V70.1456L88.2727 70.299C88.2727 70.3246 88.2474 70.3501 88.2474 70.3757L88.0448 70.4268C88.0448 70.4268 88.0195 70.4268 88.0195 70.4524V70.6057C88.0195 70.6057 88.0195 70.6313 88.0448 70.6313L88.2474 70.6824C88.2474 70.708 88.2727 70.7335 88.2727 70.7591L88.1208 70.9124C88.1208 70.9124 88.1208 70.9124 88.1208 70.938L88.1967 71.0658C88.1967 71.0658 88.1967 71.0658 88.222 71.0658L88.4246 70.9891C88.4499 71.0147 88.4752 71.0402 88.4752 71.0402L88.3993 71.2447V71.2703L88.5258 71.347H88.5511L88.703 71.1936C88.7283 71.1936 88.7537 71.2192 88.779 71.2192L88.8296 71.4236C88.8296 71.4236 88.8296 71.4492 88.8549 71.4492H89.0068C89.0068 71.4492 89.0321 71.4492 89.0321 71.4236L89.0827 71.2192C89.1081 71.2192 89.1334 71.1936 89.1587 71.1936L89.3106 71.347C89.3106 71.347 89.3106 71.347 89.3359 71.347L89.4625 71.2703C89.4625 71.2703 89.4625 71.2703 89.4625 71.2447L89.3865 71.0402C89.4118 71.0147 89.4372 70.9891 89.4372 70.9891L89.6397 71.0658H89.665L89.7409 70.938V70.9124L89.589 70.7591C89.589 70.7335 89.6144 70.708 89.6144 70.6824L89.8169 70.6313C89.8169 70.6313 89.8422 70.6313 89.8422 70.6057L89.8169 70.4268ZM88.9309 70.6568C88.8296 70.6568 88.779 70.5802 88.779 70.5035C88.779 70.4012 88.8549 70.3501 88.9309 70.3501C89.0068 70.3501 89.0827 70.4268 89.0827 70.5035C89.0827 70.6057 89.0068 70.6568 88.9309 70.6568Z" fill="#F1F2F2"/>
<path d="M90.246 70.5027H89.0056C88.955 70.5027 88.9297 70.4771 88.9297 70.426V69.6596C88.9297 69.6086 88.955 69.583 89.0056 69.583H90.246C90.2967 69.583 90.322 69.6086 90.322 69.6596V70.426C90.322 70.4771 90.2967 70.5027 90.246 70.5027Z" fill="#ED1C24"/>
<path d="M89.6141 70.2734H89.5381V70.0433H89.3103V70.2734H89.2344V69.7876H89.3103V69.9921H89.5381V69.7876H89.6141V70.2734Z" fill="white"/>
<path d="M90.1199 70.0431C90.1199 70.1198 90.0946 70.1965 90.0439 70.2221C89.9933 70.2732 89.9427 70.2988 89.8414 70.2988H89.7148V69.813H89.8667C89.9427 69.813 90.0186 69.8386 90.0439 69.8641C90.1199 69.8897 90.1199 69.9664 90.1199 70.0431ZM90.0439 70.0431C90.0439 69.9153 89.9933 69.8641 89.8667 69.8641H89.7908V70.2221H89.8414C89.9933 70.2221 90.0439 70.1454 90.0439 70.0431Z" fill="white"/>
<path d="M93.361 71.014H92.7028C92.6522 71.014 92.6016 70.9629 92.6016 70.9118V70.5027C92.6016 70.4515 92.6522 70.4004 92.7028 70.4004H93.361C93.4116 70.4004 93.4623 70.4515 93.4623 70.5027V70.9118C93.4623 70.9629 93.4116 71.014 93.361 71.014Z" fill="#F1F2F2"/>
<path d="M49.8192 68.4094C49.8192 68.8695 49.4395 69.2529 48.9838 69.2529C48.5282 69.2529 48.1484 68.8695 48.1484 68.4094C48.1484 67.9493 48.5282 67.5659 48.9838 67.5659C49.4395 67.5659 49.8192 67.9493 49.8192 68.4094Z" fill="#ED1C24"/>
<path d="M61.7004 55.9331C67.4302 53.5717 70.1782 46.97 67.8381 41.1879C65.498 35.4058 58.9561 32.6328 53.2263 34.9943C47.4965 37.3557 44.7486 43.9573 47.0886 49.7394C49.4287 55.5215 55.9706 58.2946 61.7004 55.9331Z" fill="#414042"/>
<path d="M53.332 45.4627V39.6371C53.332 39.123 53.898 38.7804 54.3508 39.0659L59.3313 41.9787L64.3119 44.8915C64.7647 45.1771 64.7647 45.8053 64.3119 46.0909L59.3313 49.0037L54.3508 51.9165C53.898 52.2021 53.332 51.8594 53.332 51.3454V45.4627Z" fill="#F1F2F2"/>
<path d="M93.5371 69.7878C93.613 69.7878 93.6636 69.8389 93.6636 69.9156V71.0914C93.6636 71.168 93.613 71.2192 93.5371 71.2192H91.8916C91.8156 71.2192 91.765 71.168 91.765 71.0914V69.9156C91.765 69.8389 91.8156 69.7878 91.8916 69.7878H93.5371ZM93.5371 69.6089H91.8916C91.7144 69.6089 91.5625 69.7622 91.5625 69.9412V71.1169C91.5625 71.2958 91.7144 71.4492 91.8916 71.4492H93.5371C93.7143 71.4492 93.8662 71.2958 93.8662 71.1169V69.9412C93.8662 69.7367 93.7143 69.6089 93.5371 69.6089Z" fill="#F1F2F2"/>
</g>
<g clip-path="url(#clip1)">
<path d="M163.054 76.5001L125.535 76.323L121.807 67.8631L134.989 66.9372L132.691 57.6617L158.764 54.3921L133.797 45.9947L136.003 45.4878L176.149 51.8245L173.938 66.2999L170.778 74.255L163.054 76.5001Z" fill="#2EC4B6"/>
<path d="M184.459 69.7593C184.459 69.7593 181.974 72.6938 183.947 77.13L164.107 85.4553L162.203 85.8413L161.326 82.1294L161.913 77.445V74.8849L184.459 69.7593Z" fill="#D5D6DB"/>
<path d="M121.807 67.863L149.267 63.0195L185.654 68.6277L163.054 76.5001L121.807 67.863Z" fill="#2EC4B6"/>
<path d="M121.807 67.863L149.267 63.0195L185.654 68.6277L163.054 76.5001L121.807 67.863Z" fill="#2EC4B6"/>
<path d="M121.807 67.8618C121.807 67.8618 119.239 72.5696 122.199 76.9178L162.921 85.4551C162.921 85.4551 160.393 81.705 163.051 76.4999L121.807 67.8618Z" fill="#2EC4B6"/>
<path opacity="0.1" d="M121.807 67.8618C121.807 67.8618 119.239 72.5696 122.199 76.9178L162.921 85.4551C162.921 85.4551 160.393 81.705 163.051 76.4999L121.807 67.8618Z" fill="black"/>
<path opacity="0.1" d="M123.021 69.4941C123.021 69.4941 121.554 72.9388 123.021 75.168V69.4941Z" fill="black"/>
<path d="M162.921 85.4551L185.655 76.0693C185.655 76.0693 186.927 76.3345 186.105 77.2359C185.283 78.1374 163.36 86.3566 163.36 86.3566L122.199 76.9178L162.921 85.4551Z" fill="#2EC4B6"/>
<path opacity="0.1" d="M162.921 85.4551L185.655 76.0693C185.655 76.0693 186.927 76.3345 186.105 77.2359C185.283 78.1374 163.36 86.3566 163.36 86.3566L122.199 76.9178L162.921 85.4551Z" fill="black"/>
<path opacity="0.1" d="M161.056 77.4478C161.056 77.4478 158.864 79.9931 161.056 83.811V77.4478Z" fill="black"/>
<path opacity="0.1" d="M171.671 77.405L161.838 80.5791L161.873 80.6797L171.706 77.5056L171.671 77.405Z" fill="black"/>
<path opacity="0.1" d="M173.641 77.0892L161.834 81.4331L161.873 81.5323L173.68 77.1884L173.641 77.0892Z" fill="black"/>
<path opacity="0.1" d="M175.45 77.0742L161.9 82.4399L161.942 82.5381L175.491 77.1724L175.45 77.0742Z" fill="black"/>
<path opacity="0.1" d="M177.417 76.6149L162.059 83.3271L162.104 83.4238L177.462 76.7116L177.417 76.6149Z" fill="black"/>
<path opacity="0.1" d="M179.069 76.6165L162.18 83.7588L162.224 83.856L179.112 76.7137L179.069 76.6165Z" fill="black"/>
<path opacity="0.1" d="M182.682 76.0228L162.434 84.4844L162.477 84.5817L182.726 76.1202L182.682 76.0228Z" fill="black"/>
<path opacity="0.3" d="M132.008 68.3801L151.3 64.4561L163.053 66.6302L147.244 71.5617L132.008 68.3801Z" fill="white"/>
<path d="M185.655 68.6274C185.655 68.6274 186.652 69.0167 186.067 69.618C185.481 70.2193 163.051 76.4998 163.051 76.4998L185.655 68.6274Z" fill="#2EC4B6"/>
<path d="M195.343 59.5591C195.343 59.5591 192.859 62.4925 194.832 66.9298L174.992 75.2551L173.088 75.6433L172.211 71.9314L172.806 67.248V64.6847L195.343 59.5591Z" fill="#D5D6DB"/>
<path d="M132.691 57.6618L160.151 52.8193L196.539 58.4275L173.938 66.2999L132.691 57.6618Z" fill="#3A3768"/>
<path d="M132.687 57.6611C132.687 57.6611 130.118 62.3689 133.077 66.7171L173.799 75.2545C173.799 75.2545 171.272 71.5012 173.934 66.2982L132.687 57.6611Z" fill="#3A3768"/>
<path opacity="0.1" d="M132.687 57.6611C132.687 57.6611 130.118 62.3689 133.077 66.7171L173.799 75.2545C173.799 75.2545 171.272 71.5012 173.934 66.2982L161.056 63.6012L132.687 57.6611Z" fill="black"/>
<path opacity="0.1" d="M133.904 59.2935C133.904 59.2935 132.437 62.737 133.904 64.9674V59.2935Z" fill="black"/>
<path d="M173.804 75.2544L196.539 65.8687C196.539 65.8687 197.81 66.1338 196.988 67.0352C196.165 67.9367 174.242 76.1559 174.242 76.1559L133.082 66.7171L173.804 75.2544Z" fill="#3A3768"/>
<path opacity="0.1" d="M173.804 75.2544L196.539 65.8687C196.539 65.8687 197.81 66.1338 196.988 67.0352C196.165 67.9367 174.242 76.1559 174.242 76.1559L133.082 66.7171L173.804 75.2544Z" fill="black"/>
<path opacity="0.1" d="M171.941 67.2476C171.941 67.2476 169.749 69.7929 171.941 73.6108V67.2476Z" fill="black"/>
<path opacity="0.1" d="M182.556 67.2058L172.723 70.3799L172.757 70.4805L182.591 67.3064L182.556 67.2058Z" fill="black"/>
<path opacity="0.1" d="M184.526 66.8895L172.719 71.2334L172.758 71.3326L184.565 66.9887L184.526 66.8895Z" fill="black"/>
<path opacity="0.1" d="M186.334 66.8726L172.785 72.2383L172.827 72.3364L186.376 66.9708L186.334 66.8726Z" fill="black"/>
<path opacity="0.1" d="M188.301 66.4132L172.943 73.1255L172.988 73.2221L188.346 66.5099L188.301 66.4132Z" fill="black"/>
<path opacity="0.1" d="M189.951 66.4144L173.062 73.5566L173.106 73.6538L189.995 66.5115L189.951 66.4144Z" fill="black"/>
<path opacity="0.1" d="M193.567 65.8202L173.318 74.2817L173.362 74.3791L193.611 65.9176L193.567 65.8202Z" fill="black"/>
<path opacity="0.45" d="M142.893 58.1803L162.185 54.2563L173.938 56.4305L158.129 61.362L142.893 58.1803Z" fill="white"/>
<path d="M196.54 58.4272C196.54 58.4272 197.536 58.8165 196.952 59.4167C196.368 60.017 173.939 66.2986 173.939 66.2986L196.54 58.4272Z" fill="#3A3768"/>
<path d="M196.373 47.8896C196.373 47.8896 193.888 53.1574 195.861 57.5936L176.021 63.5856L174.121 63.9749L173.244 60.263L173.831 55.5786V53.0152L196.373 47.8896Z" fill="#D5D6DB"/>
<path d="M133.727 45.9934L161.187 41.1499L197.575 46.758L174.974 54.6304L133.727 45.9934Z" fill="#2EC4B6"/>
<path d="M133.726 45.9922C133.726 45.9922 131.154 50.6999 134.113 55.0481L174.835 63.5855C174.835 63.5855 172.307 59.8322 174.969 54.6303L133.726 45.9922Z" fill="#2EC4B6"/>
<path opacity="0.1" d="M133.726 45.9922C133.726 45.9922 131.154 50.6999 134.113 55.0481L174.835 63.5855C174.835 63.5855 172.307 59.8322 174.969 54.6303L133.726 45.9922Z" fill="black"/>
<path opacity="0.1" d="M134.939 47.6245C134.939 47.6245 133.472 51.0692 134.939 53.2984V47.6245Z" fill="black"/>
<path d="M174.839 63.5852L197.573 56.5326C197.573 56.5326 198.845 56.7977 198.023 57.6992C197.201 58.6007 175.278 64.4867 175.278 64.4867L134.117 55.0479L174.839 63.5852Z" fill="#2EC4B6"/>
<path opacity="0.1" d="M174.839 63.5852L197.573 56.5326C197.573 56.5326 198.845 56.7977 198.023 57.6992C197.201 58.6007 175.278 64.4867 175.278 64.4867L134.117 55.0479L174.839 63.5852Z" fill="black"/>
<path opacity="0.1" d="M172.976 55.5786C172.976 55.5786 170.784 58.1239 172.976 61.9419V55.5786Z" fill="black"/>
<path opacity="0.1" d="M183.591 55.5363L173.758 58.7104L173.793 58.8111L183.626 55.6369L183.591 55.5363Z" fill="black"/>
<path opacity="0.1" d="M185.561 55.2205L173.754 59.5645L173.793 59.6636L185.6 55.3197L185.561 55.2205Z" fill="black"/>
<path opacity="0.1" d="M187.367 55.2046L173.818 60.5703L173.86 60.6685L187.409 55.3028L187.367 55.2046Z" fill="black"/>
<path opacity="0.1" d="M189.336 54.7443L173.979 61.4565L174.024 61.5532L189.382 54.8409L189.336 54.7443Z" fill="black"/>
<path opacity="0.1" d="M190.989 54.7464L174.1 61.8887L174.144 61.9858L191.032 54.8436L190.989 54.7464Z" fill="black"/>
<path opacity="0.1" d="M194.602 54.1527L174.354 62.6143L174.397 62.7116L194.646 54.2501L194.602 54.1527Z" fill="black"/>
<path opacity="0.3" d="M143.928 46.5109L163.22 42.5869L174.973 44.761L159.164 49.6925L143.928 46.5109Z" fill="white"/>
<path d="M197.573 46.7583C197.573 46.7583 198.571 47.1475 197.985 47.7488C197.4 48.3502 174.973 54.6307 174.973 54.6307L197.573 46.7583Z" fill="#2EC4B6"/>
<path opacity="0.1" d="M137.46 86.4333C138.851 86.4333 139.98 86.3112 139.98 86.1605C139.98 86.0098 138.851 85.8877 137.46 85.8877C136.068 85.8877 134.939 86.0098 134.939 86.1605C134.939 86.3112 136.068 86.4333 137.46 86.4333Z" fill="#2EC4B6"/>
<path opacity="0.1" d="M120.94 81.801C122.332 81.801 123.46 81.6788 123.46 81.5282C123.46 81.3775 122.332 81.2554 120.94 81.2554C119.548 81.2554 118.42 81.3775 118.42 81.5282C118.42 81.6788 119.548 81.801 120.94 81.801Z" fill="#2EC4B6"/>
<path opacity="0.1" d="M150.051 89.5095C151.443 89.5095 152.571 89.3873 152.571 89.2367C152.571 89.086 151.443 88.9639 150.051 88.9639C148.66 88.9639 147.531 89.086 147.531 89.2367C147.531 89.3873 148.66 89.5095 150.051 89.5095Z" fill="#2EC4B6"/>
<path d="M153.802 15.514C152.682 16.3377 152.024 17.6472 151.804 18.9859C151.739 19.3754 151.709 19.7804 151.643 20.1757C151.365 21.8014 150.493 23.2788 149.185 24.3428C149.377 24.434 149.589 24.4788 149.804 24.4732C150.018 24.4676 150.228 24.4118 150.414 24.3106C150.129 25.4185 149.601 26.4552 148.867 27.3522C149.709 26.9423 150.447 26.3601 151.029 25.6464C151.138 26.3501 151.097 27.0678 150.908 27.7557C150.719 28.4436 150.386 29.0871 149.929 29.647C150.489 29.3911 150.986 29.0229 151.386 28.5671C151.786 28.1114 152.08 27.5786 152.248 27.0046L151.282 29.4543C151.89 29.2878 152.325 28.7922 152.675 28.2859C153.97 26.4105 154.529 24.1536 154.252 21.9185C154.132 20.9809 153.866 20.0598 153.822 19.1164C153.779 18.1729 153.998 17.1594 154.701 16.4983C155.232 15.9979 155.973 15.7681 156.701 15.7194C157.159 15.6883 158.345 16.0397 157.896 15.2472C157.21 14.037 154.601 14.9269 153.802 15.514Z" fill="#3F3D56"/>
<path d="M157.473 14.7796L156.893 16.1115C156.64 16.3062 156.509 15.9245 156.419 16.0073C156.305 16.118 156.204 16.2397 156.116 16.3705L156.084 16.3539L156.934 14.5293C157.227 14.283 157.371 14.6326 157.473 14.7796Z" fill="#00A7D8"/>
<path d="M160.665 25.4017C157.227 25.4017 154.44 22.8229 154.44 19.6418C154.44 16.4606 157.227 13.8818 160.665 13.8818C164.103 13.8818 166.891 16.4606 166.891 19.6418C166.891 22.8229 164.103 25.4017 160.665 25.4017Z" fill="#3F3D56"/>
<path d="M170.644 50.3587C171.893 50.2701 173.176 50.1844 174.369 50.5612C174.812 50.7014 175.263 50.9068 175.722 50.8319C176.209 50.753 176.577 50.3791 176.907 50.0267C177.266 49.644 177.637 49.238 177.759 48.7356C177.844 48.347 177.792 47.9421 177.609 47.5858C177.583 47.5257 177.545 47.4714 177.497 47.4261C177.395 47.3405 177.245 47.3385 177.109 47.3434C175.938 47.3911 174.76 47.6686 173.607 47.4719C172.932 47.357 171.602 46.8799 171.208 47.6997C171.041 48.0395 171.32 50.311 170.644 50.3587Z" fill="#575A89"/>
<path d="M182.99 42.653C184.547 43.061 186.037 43.6763 187.521 44.2897L190.82 45.6527L189.845 47.9738C189.761 48.1686 189.92 48.1569 189.717 48.2445C189.493 48.3419 188.974 48.4762 188.743 48.3915C186.52 47.5746 183.963 48.042 181.727 47.2582C180.904 46.9661 180.134 46.5134 179.268 46.382C178.255 46.2252 177.183 46.5261 176.202 46.2291C176.097 46.2056 176.001 46.1499 175.931 46.0704C175.876 45.9748 175.857 45.8646 175.874 45.7569C175.925 44.9556 176.24 44.1991 176.649 43.5108C176.917 43.0551 177.346 42.1477 177.879 41.9257C178.482 41.6775 179.659 42.0406 180.287 42.1302C181.198 42.2528 182.1 42.4273 182.99 42.653Z" fill="#FFC1C7"/>
<path d="M188.382 48.351C189.607 48.5953 190.869 48.8553 191.904 49.532C192.29 49.7841 192.664 50.1006 193.128 50.1502C193.618 50.2028 194.079 49.9419 194.497 49.6897C194.952 49.4171 195.426 49.125 195.686 48.6742C195.879 48.3228 195.944 47.9194 195.871 47.5282C195.864 47.4642 195.843 47.4022 195.809 47.3462C195.721 47.245 195.596 47.1799 195.459 47.1641C194.32 46.8993 192.778 46.4242 191.726 45.9296C191.11 45.6375 190.298 45.2597 189.684 45.9432C189.43 46.2265 189.047 48.4882 188.382 48.351Z" fill="#575A89"/>
<path d="M162.745 26.7767C162.825 27.0053 162.858 27.2467 162.842 27.4874V29.2847C162.856 29.5431 162.824 29.802 162.747 30.05C162.629 30.3645 162.372 30.6098 162.109 30.8289C161.265 31.532 160.288 32.0733 159.232 32.4237C158.645 32.6184 158.002 32.7566 157.403 32.5901C157.06 32.4793 156.738 32.3119 156.454 32.0955C155.666 31.5429 154.96 30.8894 154.355 30.1532C153.747 29.4064 153.22 28.4425 153.523 27.538C154.091 27.4227 154.618 27.1657 155.05 26.7928C155.482 26.4199 155.804 25.9442 155.984 25.4136C156.101 25.0572 156.158 24.6659 156.402 24.3757C156.924 23.7545 157.937 23.9288 158.731 24.1615C159.502 24.3864 160.84 24.5169 161.412 25.0816C161.638 25.3045 161.724 25.6706 161.944 25.914C162.21 26.211 162.583 26.396 162.745 26.7767Z" fill="#FFC1C7"/>
<path opacity="0.1" d="M162.745 26.7767C162.825 27.0053 162.858 27.2467 162.842 27.4874V29.2847C162.856 29.5431 162.824 29.802 162.747 30.05C162.629 30.3645 162.372 30.6098 162.109 30.8289C161.265 31.532 160.288 32.0733 159.232 32.4237C158.645 32.6184 158.002 32.7566 157.403 32.5901C157.06 32.4793 156.738 32.3119 156.454 32.0955C155.666 31.5429 154.96 30.8894 154.355 30.1532C153.747 29.4064 153.22 28.4425 153.523 27.538C154.091 27.4227 154.618 27.1657 155.05 26.7928C155.482 26.4199 155.804 25.9442 155.984 25.4136C156.101 25.0572 156.158 24.6659 156.402 24.3757C156.924 23.7545 157.937 23.9288 158.731 24.1615C159.502 24.3864 160.84 24.5169 161.412 25.0816C161.638 25.3045 161.724 25.6706 161.944 25.914C162.21 26.211 162.583 26.396 162.745 26.7767Z" fill="black"/>
<path d="M159.091 26.7204C156.319 26.7204 154.071 24.5596 154.071 21.8941C154.071 19.2287 156.319 17.0679 159.091 17.0679C161.864 17.0679 164.111 19.2287 164.111 21.8941C164.111 24.5596 161.864 26.7204 159.091 26.7204Z" fill="#FFC1C7"/>
<path d="M145.855 39.1559C145.593 39.5142 145.367 39.8949 145.094 40.2454C144.534 40.9649 143.795 41.5354 143.069 42.0953L138.925 45.2848C137.768 46.1757 136.547 47.0958 135.089 47.3538C134.592 47.4424 134.004 47.4171 133.685 47.0413C133.312 46.6002 133.532 45.905 133.966 45.5205C134.401 45.1359 134.986 44.9635 135.522 44.725C137.786 43.7134 139.157 41.5121 140.752 39.6622C142.152 38.0392 143.798 36.6294 145.325 35.1164C146.946 33.5079 148.228 31.6415 149.774 29.9951C150.513 30.5871 151.356 31.7885 151.522 32.7213C151.671 33.5547 151.175 34.1651 150.611 34.7444C149.112 36.2993 147.133 37.4073 145.855 39.1559Z" fill="#FFC1C7"/>
<path d="M148.523 27.7695C148.541 29.1453 149.757 30.2396 150.07 31.5812C150.108 31.803 150.163 32.0217 150.234 32.2355C150.363 32.5481 150.612 32.8002 150.868 33.029C151.292 33.4078 151.774 33.7612 152.341 33.8693C152.409 33.8819 152.138 29.3585 152.043 28.9388C151.748 27.5797 149.702 27.8912 148.523 27.7695Z" fill="#EF4454"/>
<path d="M161.768 27.0933C161.779 27.9044 161.706 28.7329 161.372 29.4777C161.039 30.2225 160.417 30.8788 159.607 31.1085C159.18 31.2302 158.727 31.2293 158.281 31.2234C157.922 31.2176 157.555 31.2088 157.216 31.0959C156.534 30.87 156.064 30.2605 155.79 29.6199C155.517 28.9792 155.4 28.288 155.175 27.6308C155.058 27.2851 154.84 26.8976 154.466 26.8655C154.228 26.846 154.01 26.9804 153.812 27.1089L151.787 28.4282C151.382 30.6529 151.797 32.9672 152.636 35.076C152.889 35.7079 153.195 36.3281 153.311 36.995C153.547 38.3679 152.948 39.729 152.465 41.0414C152.113 41.9975 151.817 42.9721 151.52 43.9457L150.774 46.4002C150.601 46.9717 150.426 47.5686 150.553 48.1527C150.681 48.7369 151.223 49.2812 151.837 49.213C152.009 49.1945 152.194 49.1332 152.344 49.213C152.709 49.4077 152.302 49.9364 152.336 50.3385C152.378 50.8584 153.11 50.9704 153.652 50.9587C156.344 50.9013 159.002 51.4591 161.67 51.7989C164.339 52.1387 167.129 52.2487 169.649 51.3384C170.727 50.949 171.726 50.3804 172.718 49.8166C174.597 48.7457 176.583 47.5695 177.505 45.6671C177.91 44.8346 178.086 43.9009 178.602 43.1289C178.886 42.7024 179.278 42.3139 179.363 41.8145C179.482 41.1115 178.921 40.4368 178.249 40.1408C177.576 39.8448 176.808 39.8341 176.067 39.7981C175.327 39.7621 174.548 39.6822 173.941 39.2782C173.279 38.843 172.874 38.0709 172.139 37.7632C171.825 37.6337 171.478 37.6036 171.146 37.5227C170.695 37.4013 170.266 37.2159 169.871 36.9727C166.806 35.1773 165.036 31.5321 165.575 28.1205C165.635 27.7793 165.669 27.4344 165.677 27.0885C165.682 27.0294 165.67 26.9699 165.642 26.9171C165.605 26.8723 165.554 26.8399 165.496 26.8246C165.028 26.6591 164.498 26.7477 164.024 26.5987C163.665 26.4858 163.365 26.2453 163.02 26.0993C162.675 25.9532 162.22 25.925 161.966 26.1966C161.734 26.4391 161.763 26.7594 161.768 27.0933Z" fill="#EF4454"/>
<path d="M162.365 22.4674C162.723 21.2407 164.346 20.5105 164.585 19.2633C164.711 18.6051 164.4 17.9372 163.918 17.4465C163.436 16.9558 162.796 16.6179 162.155 16.3083C161.215 15.8537 160.189 15.4321 159.117 15.5246C158.011 15.6219 156.598 15.8098 155.739 16.4631C155.131 16.9246 154.963 17.8846 154.776 18.5739C154.689 18.9191 154.714 19.2815 154.848 19.6124C154.983 19.9432 155.219 20.2264 155.526 20.4238C156.235 20.8775 157.193 20.8444 158.075 20.8473C158.958 20.8503 159.942 20.9544 160.486 21.5688C160.784 21.9047 160.898 22.3418 161.114 22.7255C161.329 23.1091 161.727 23.4712 162.208 23.4333L162.365 22.4674Z" fill="#3F3D56"/>
<path d="M170.633 34.7963C170.956 35.2948 171.285 35.803 171.443 36.3716C171.69 37.2751 171.463 38.2672 170.926 39.0452C170.388 39.8231 169.559 40.3927 168.651 40.7256C168.291 40.8581 167.917 40.9554 167.56 41.0976C165.976 41.7294 164.801 43.2191 163.113 43.519C162.876 43.5751 162.627 43.5635 162.396 43.4858C161.858 43.2658 161.761 42.5843 161.745 42.0254C161.737 41.745 161.731 41.452 161.861 41.2008C161.975 41.0067 162.134 40.8402 162.326 40.714C163.533 39.825 165.077 39.4872 166.4 38.7667C167.021 38.4298 167.639 37.9304 167.722 37.2498C167.813 36.505 167.239 35.8595 166.784 35.25C165.664 33.7516 164.712 31.3273 165.249 29.4618C166.007 26.8331 167.872 30.5445 168.371 31.3117C169.123 32.4723 169.878 33.6338 170.633 34.7963Z" fill="#FFC1C7"/>
<path d="M166.931 27.5965C167.219 27.9159 167.414 28.3024 167.66 28.6539C168.007 29.1492 168.455 29.5718 168.977 29.8962C168.393 29.8378 167.734 29.7988 167.299 30.1795C166.932 30.4979 166.847 31.0129 166.608 31.4296C166.428 31.7589 166.131 32.0145 165.77 32.1491C165.59 32.2141 165.396 32.2351 165.206 32.2103C165.015 32.1855 164.834 32.1156 164.678 32.007C164.21 31.6565 164.158 31.0051 164.146 30.4336L164.124 29.4055C164.116 29.0229 164.125 28.6032 164.38 28.3121C164.539 28.133 164.771 28.0327 164.979 27.909C165.783 27.4329 166.026 26.5985 166.931 27.5965Z" fill="#FF6584"/>
<path d="M163.455 24.2622C163.318 23.719 163.701 23.1543 163.599 22.6071C163.572 22.4687 163.515 22.3372 163.432 22.2211C163.349 22.1049 163.242 22.0066 163.118 21.9324C162.977 21.8496 162.814 21.8 162.671 21.724C162.395 21.5674 162.185 21.3208 162.081 21.0289C161.977 20.737 161.985 20.4189 162.104 20.1322C162.313 19.6716 162.783 19.3776 163.245 19.1468C163.737 18.9005 164.335 18.6951 164.825 18.9424C165.421 19.2432 165.505 20.0134 165.513 20.6637C165.52 21.1953 165.525 21.7347 165.364 22.2449C165.178 22.7925 164.878 23.2979 164.483 23.7306C164.413 23.8017 163.547 24.6342 163.455 24.2622Z" fill="#3F3D56"/>
<path d="M163.387 31.0776C163.843 32.4057 165.412 32.9577 166.51 33.9011C166.455 33.7508 166.427 33.5923 166.428 33.4328C166.428 33.0434 166.529 32.6539 166.414 32.2801C167.018 32.9767 167.832 33.4772 168.743 33.7132L169.187 29.4166C169.412 30.0977 169.788 30.724 170.288 31.2531C170.788 31.7821 171.4 32.2015 172.084 32.4826C170.826 30.3163 170.443 27.7985 170.038 25.3489C169.94 24.66 169.799 23.9773 169.617 23.3043C169.364 22.4336 168.978 21.6036 168.474 20.841C168.166 20.3708 167.791 19.9447 167.36 19.5753C166.925 19.2248 166.434 18.9814 165.954 19.0671C165.125 19.217 165.459 19.6074 165.954 19.9657C166.347 20.2481 166.843 20.5119 166.961 20.6249C167.094 20.7538 167.193 20.9113 167.251 21.0844C167.442 21.6423 167.237 22.3501 166.988 22.9265C166.351 24.4066 165.575 25.8281 164.671 27.1734C164.266 27.7673 163.842 28.3515 163.557 29.0067C163.271 29.662 163.152 30.4058 163.387 31.0776Z" fill="#3F3D56"/>
<path d="M166.757 19.2647L166.623 20.7028C166.754 20.9851 167.053 20.7096 167.092 20.8235C167.142 20.9725 167.176 21.1262 167.193 21.2821H167.229L167.363 19.2871C167.214 18.9357 166.917 19.182 166.757 19.2647Z" fill="#00A7D8"/>
</g>
<defs>
<clipPath id="clip0">
<rect width="159.369" height="84.699" fill="white" transform="translate(0 0.189453)"/>
</clipPath>
<clipPath id="clip1">
<rect width="112.119" height="86.239" fill="white" transform="translate(115.322 3.26953)"/>
</clipPath>
</defs>
</svg>
