<svg width="157" height="62" viewBox="0 0 157 62" fill="none" xmlns="http://www.w3.org/2000/svg">
<g clip-path="url(#clip0)">
<path d="M131.043 10.4394H140.826V5.75779C140.826 5.7158 140.825 5.67471 140.824 5.63122C140.808 4.39235 140.287 3.20929 139.372 2.33775C138.457 1.46621 137.222 0.9762 135.935 0.973637C135.29 0.972795 134.652 1.09631 134.058 1.33688C133.464 1.57745 132.927 1.93019 132.477 2.37424C132.302 2.54448 132.142 2.72721 131.996 2.92086C131.373 3.74501 131.039 4.73872 131.043 5.75779V10.4394Z" fill="#2F2E41"/>
<path d="M85.3836 60.7501C87.5749 60.7501 89.3512 59.0405 89.3512 56.9315C89.3512 54.8225 87.5749 53.1128 85.3836 53.1128C83.1924 53.1128 81.416 54.8225 81.416 56.9315C81.416 59.0405 83.1924 60.7501 85.3836 60.7501Z" fill="#3F3D56"/>
<path d="M99.3485 60.7501C101.54 60.7501 103.316 59.0405 103.316 56.9315C103.316 54.8225 101.54 53.1128 99.3485 53.1128C97.1572 53.1128 95.3809 54.8225 95.3809 56.9315C95.3809 59.0405 97.1572 60.7501 99.3485 60.7501Z" fill="#3F3D56"/>
<path d="M113.315 60.7501C115.507 60.7501 117.283 59.0405 117.283 56.9315C117.283 54.8225 115.507 53.1128 113.315 53.1128C111.124 53.1128 109.348 54.8225 109.348 56.9315C109.348 59.0405 111.124 60.7501 113.315 60.7501Z" fill="#3F3D56"/>
<path d="M33.3241 51.677H13.9939L9.99449 60.6051H2.77344L20.6595 22.5405H26.4919L44.4335 60.6051H37.2679L33.3241 51.677ZM30.9356 46.3308L23.659 30.0251L16.3823 46.3308H30.9356Z" fill="#2EC4B6"/>
<path d="M75.0385 33.6071V60.6051H68.2063V56.2746C67.3654 57.7611 66.0911 58.9783 64.5403 59.7765C62.9477 60.6134 61.1332 61.0322 59.0968 61.0327C56.6527 61.0327 54.4864 60.4625 52.5978 59.3221C50.7092 58.1819 49.2464 56.5602 48.2096 54.457C47.1724 52.3545 46.654 49.9131 46.6543 47.1328C46.6543 44.3529 47.182 41.8848 48.2373 39.7284C49.2928 37.5724 50.7648 35.8972 52.6533 34.703C54.5419 33.5094 56.6898 32.9124 59.0968 32.9121C61.1328 32.9121 62.9473 33.3309 64.5403 34.1684C66.0909 34.9667 67.3652 36.1839 68.2063 37.6702V33.6071H75.0385ZM66.3178 53.4947C67.5763 51.9628 68.2058 49.8065 68.2063 47.026C68.2063 44.1748 67.5768 41.9828 66.3178 40.4501C65.0584 38.9182 63.2624 38.1519 60.9298 38.1513C58.6332 38.1513 56.8465 38.9443 55.5695 40.5304C54.292 42.1166 53.6532 44.3174 53.6531 47.1328C53.6531 49.9128 54.2919 52.0513 55.5695 53.5481C56.847 55.0452 58.6523 55.7937 60.9853 55.7936C63.2809 55.7936 65.0584 55.0273 66.3178 53.4947Z" fill="#2EC4B6"/>
<path d="M156.165 60.4448H0V60.751H156.165V60.4448Z" fill="#3F3D56"/>
<path d="M142.773 29.0296C143.152 29.4135 143.729 34.1335 145.437 33.4162C146.817 31.9166 144.498 28.9376 144.262 28.3052L142.773 29.0296Z" fill="#FFB8B8"/>
<path d="M140.619 22.9385L144.818 28.3575L142.814 29.827L139.855 25.7857L140.619 22.9385Z" fill="#2EC4B6"/>
<path d="M134.033 23.7646C134.033 23.7646 131.17 28.9999 133.46 32.0308C135.751 35.0618 140.522 41.6747 140.522 41.6747C141.215 47.3496 142.534 52.7567 146.166 57.337L148.57 56.7027L145.103 40.3889C145.103 40.3889 143.194 30.8368 140.999 28.4488L140.612 23.8855L134.033 23.7646Z" fill="#2F2E41"/>
<path d="M133.938 31.48L132.029 40.5728C130.401 41.5567 127.017 51.3473 125.693 54.7406L128.275 55.6646C131.122 51.3379 137.68 39.978 139.186 35.1538L133.938 31.48Z" fill="#2F2E41"/>
<path d="M140.428 5.39604C140.353 9.62167 133.822 9.62101 133.748 5.39591C133.823 1.17041 140.354 1.17107 140.428 5.39604Z" fill="#FFB8B8"/>
<path d="M138.042 7.59952C136.355 10.0339 136.4 10.8772 138.423 13.1103L135.37 10.9978C135.37 10.9978 133.175 10.9978 133.652 9.98753C134.129 8.97722 135.083 6.86475 135.083 6.86475L138.042 7.59952Z" fill="#FFB8B8"/>
<path d="M136.323 11.1819C136.323 11.1819 134.128 9.62048 133.078 10.6308C132.035 12.5538 133.085 20.9793 133.46 21.6524C133.937 22.3872 134.033 21.7442 133.937 22.5708C133.842 23.3975 133.46 24.0404 133.555 24.1322C133.651 24.2241 140.999 24.9589 140.999 24.9589C140.999 24.9589 140.426 22.3872 140.617 21.3768C140.808 20.3665 140.426 19.3562 140.426 18.9888C140.426 18.6214 140.999 17.0601 140.426 15.866C139.854 14.672 137.709 12.2162 137.709 12.2162L137.564 12.3759L136.323 11.1819Z" fill="#2EC4B6"/>
<path d="M130.788 30.9288C130.999 31.5003 129.321 36.701 131.456 36.7152C133.626 35.7632 132.639 31.6049 132.697 30.8369L130.788 30.9288Z" fill="#FFB8B8"/>
<path d="M133.461 10.7227C133.461 10.7227 130.98 10.8145 130.98 13.6618C130.98 16.509 130.121 21.5606 130.121 21.5606V31.3882H133.366L132.889 22.1116L134.893 16.0498C134.893 16.0498 137.469 12.1922 133.461 10.7227Z" fill="#2EC4B6"/>
<path d="M152.779 59.5302C152.812 59.3029 152.778 59.0711 152.679 58.8622C152.58 58.6533 152.42 58.4761 152.22 58.3515L148.636 56.6587L145.934 56.987L145.296 59.1889C145.269 59.3458 145.275 59.5063 145.315 59.6608C145.354 59.8152 145.426 59.9602 145.526 60.087C145.625 60.2139 145.751 60.3199 145.894 60.3986C146.038 60.4773 146.197 60.527 146.361 60.5448L151.403 60.5554C151.726 60.5904 152.05 60.5029 152.307 60.3114C152.564 60.12 152.733 59.8398 152.779 59.5302Z" fill="#2F2E41"/>
<path d="M129.342 60.2766C129.533 60.1387 129.679 59.9511 129.762 59.736C129.846 59.5209 129.863 59.2873 129.813 59.0629L128.523 55.4267L126.371 53.8198L124.302 54.9425C124.167 55.0351 124.054 55.153 123.969 55.2891C123.883 55.4252 123.827 55.5766 123.805 55.7341C123.782 55.8916 123.793 56.0519 123.836 56.2053C123.88 56.3586 123.956 56.5018 124.059 56.6261L127.616 60.0652C127.819 60.3096 128.113 60.4684 128.435 60.5079C128.757 60.5474 129.083 60.4644 129.342 60.2766Z" fill="#2F2E41"/>
<path d="M133.277 2.84025L134.169 5.56956L141.875 5.43774C141.848 4.48282 141.513 3.55967 140.915 2.79724C140.317 2.0348 139.486 1.47117 138.539 1.18507C137.593 0.898971 136.576 0.904693 135.633 1.20144C134.69 1.49818 133.866 2.07113 133.277 2.84024L133.277 2.84025Z" fill="#2F2E41"/>
</g>
<defs>
<clipPath id="clip0">
<rect width="156.165" height="60.0593" fill="white" transform="translate(0 0.973633)"/>
</clipPath>
</defs>
</svg>
