<svg width="140" height="96" viewBox="0 0 140 96" fill="none" xmlns="http://www.w3.org/2000/svg">
<g clip-path="url(#clip0)">
<path d="M14.6368 95.7686H140.149" stroke="#3F3D56" stroke-width="2" stroke-miterlimit="10"/>
<path d="M82.2976 22.082H81.488C81.3091 22.082 81.1641 22.2214 81.1641 22.3933V33.3172C81.1641 33.489 81.3091 33.6284 81.488 33.6284H82.2976C82.4765 33.6284 82.6216 33.489 82.6216 33.3172V22.3933C82.6216 22.2214 82.4765 22.082 82.2976 22.082Z" fill="#3F3D56"/>
<path d="M33.3164 13.0361H32.9234C32.8061 13.0361 32.7109 13.1275 32.7109 13.2403V16.6331C32.7109 16.7459 32.8061 16.8373 32.9234 16.8373H33.3164C33.4338 16.8373 33.5289 16.7459 33.5289 16.6331V13.2403C33.5289 13.1275 33.4338 13.0361 33.3164 13.0361Z" fill="#3F3D56"/>
<path d="M33.3623 19.9956H32.9192C32.7869 19.9956 32.6797 20.0986 32.6797 20.2257V26.3818C32.6797 26.5089 32.7869 26.6119 32.9192 26.6119H33.3623C33.4945 26.6119 33.6018 26.5089 33.6018 26.3818V20.2257C33.6018 20.0986 33.4945 19.9956 33.3623 19.9956Z" fill="#3F3D56"/>
<path d="M33.3449 28.9268H32.9232C32.7974 28.9268 32.6953 29.0248 32.6953 29.1458V35.3812C32.6953 35.5021 32.7974 35.6002 32.9232 35.6002H33.3449C33.4707 35.6002 33.5728 35.5021 33.5728 35.3812V29.1458C33.5728 29.0248 33.4707 28.9268 33.3449 28.9268Z" fill="#3F3D56"/>
<path d="M76.9068 0.474609H38.2189C35.4326 0.474609 33.1738 2.64491 33.1738 5.3221V90.8787C33.1738 93.5559 35.4326 95.7262 38.2189 95.7262H76.9068C79.6931 95.7262 81.9519 93.5559 81.9519 90.8787V5.3221C81.9519 2.64491 79.6931 0.474609 76.9068 0.474609Z" fill="#3F3D56"/>
<path d="M59.3098 3.31934H53.2167C53.0183 3.31934 52.8574 3.47397 52.8574 3.66473V4.30364C52.8574 4.49439 53.0183 4.64903 53.2167 4.64903H59.3098C59.5082 4.64903 59.669 4.49439 59.669 4.30364V3.66473C59.669 3.47397 59.5082 3.31934 59.3098 3.31934Z" fill="#E6E8EC"/>
<path d="M61.4837 4.7384C61.917 4.7384 62.2683 4.40073 62.2683 3.98419C62.2683 3.56765 61.917 3.22998 61.4837 3.22998C61.0505 3.22998 60.6992 3.56765 60.6992 3.98419C60.6992 4.40073 61.0505 4.7384 61.4837 4.7384Z" fill="#E6E8EC"/>
<path d="M78.9389 6.67853V89.5236C78.9387 90.5107 78.5304 91.4573 77.8039 92.1551C77.0773 92.853 76.092 93.2449 75.0647 93.2447H40.0598C39.0324 93.2449 38.0471 92.853 37.3206 92.1551C36.594 91.4573 36.1858 90.5107 36.1855 89.5236V6.67853C36.1855 6.18968 36.2857 5.7056 36.4804 5.25395C36.675 4.8023 36.9604 4.39192 37.3202 4.04625C37.6799 3.70058 38.107 3.42638 38.5771 3.23933C39.0472 3.05227 39.551 2.95601 40.0598 2.95605H45.2979V3.6025C45.2982 4.41536 45.6343 5.19486 46.2326 5.76964C46.8308 6.34442 47.642 6.66743 48.488 6.66767H66.2902C67.1362 6.66766 67.9476 6.34472 68.5459 5.76989C69.1442 5.19506 69.4803 4.41543 69.4803 3.6025V2.95605H75.0647C75.5735 2.95601 76.0773 3.05227 76.5474 3.23933C77.0174 3.42638 77.4445 3.70058 77.8043 4.04625C78.1641 4.39192 78.4494 4.8023 78.6441 5.25395C78.8388 5.7056 78.939 6.18968 78.9389 6.67853Z" fill="white"/>
<path d="M78.9636 22.1611H36.1367V69.422H78.9636V22.1611Z" fill="#F2F2F2"/>
<path d="M39.2463 75.9616L39.0208 75.7662C38.2201 75.0598 37.6915 74.6014 37.6915 74.0303C37.6896 73.9216 37.7103 73.8137 37.7525 73.7129C37.7947 73.612 37.8575 73.5204 37.9373 73.4433C38.017 73.3662 38.112 73.3053 38.2167 73.2641C38.3214 73.223 38.4336 73.2024 38.5467 73.2037C38.6801 73.2043 38.8118 73.2329 38.9327 73.2874C39.0535 73.3419 39.1605 73.4211 39.2463 73.5193C39.3321 73.4211 39.4391 73.3419 39.56 73.2874C39.6808 73.2329 39.8125 73.2043 39.946 73.2037C40.0591 73.2024 40.1713 73.223 40.2759 73.2641C40.3806 73.3053 40.4756 73.3662 40.5554 73.4433C40.6351 73.5204 40.6979 73.612 40.7401 73.7129C40.7823 73.8137 40.8031 73.9216 40.8011 74.0303C40.8011 74.6014 40.2725 75.0598 39.4718 75.7662L39.2463 75.9616Z" fill="#FF6584"/>
<path d="M104.211 82.9051L103.606 82.8216C101.444 82.5048 100.025 82.3086 99.4037 81.3659C99.282 81.1886 99.2006 80.9885 99.1643 80.7773C99.1281 80.5661 99.1377 80.3482 99.1925 80.1364C99.2474 79.9246 99.3464 79.7233 99.4838 79.5444C99.6212 79.3654 99.794 79.2125 99.9922 79.0946C100.225 78.9542 100.485 78.8617 100.755 78.8236C101.025 78.7854 101.297 78.8025 101.553 78.8737C101.595 78.6206 101.696 78.3765 101.847 78.1584C101.997 77.9403 102.196 77.7534 102.427 77.6108C102.623 77.4888 102.84 77.4037 103.067 77.3607C103.294 77.3176 103.526 77.3174 103.748 77.3601C103.971 77.4028 104.18 77.4875 104.363 77.6091C104.546 77.7308 104.7 77.887 104.815 78.0685C105.436 79.0111 105.015 80.3285 104.39 82.3434L104.211 82.9051Z" fill="#FF6584"/>
<path d="M47.4199 75.2399L47.8557 75.3596C47.9335 75.1426 48.0651 74.9471 48.2391 74.79C48.4131 74.6329 48.6243 74.5188 48.8544 74.4578C49.0845 74.3967 49.3267 74.3904 49.5599 74.4394C49.7931 74.4885 50.0104 74.5914 50.1929 74.7392L49.5274 75.3596H51.1891V73.8066L50.5194 74.4238C50.28 74.2219 49.9922 74.0803 49.6819 74.0116C49.3716 73.9429 49.0484 73.9492 48.7412 74.0301C48.4341 74.111 48.1526 74.2638 47.922 74.475C47.6914 74.6861 47.5189 74.9489 47.4199 75.2399L47.4199 75.2399Z" fill="#F2F2F2"/>
<path d="M38.9632 18.6302C40.056 18.6302 40.942 17.779 40.942 16.7289C40.942 15.6789 40.056 14.8276 38.9632 14.8276C37.8703 14.8276 36.9844 15.6789 36.9844 16.7289C36.9844 17.779 37.8703 18.6302 38.9632 18.6302Z" fill="#2EC4B6"/>
<path d="M60.8707 15.6426H42.4961V17.8155H60.8707V15.6426Z" fill="#2EC4B6"/>
<path d="M56.066 79.2002H37.6914V81.3731H56.066V79.2002Z" fill="#F2F2F2"/>
<path d="M76.5607 83.9375H37.6914V86.1104H76.5607V83.9375Z" fill="#F2F2F2"/>
<path d="M45.6055 75.8243L45.1186 75.0056C45.235 74.737 45.2466 74.437 45.1512 74.1608C45.0558 73.8846 44.8598 73.6508 44.5993 73.5024C44.3388 73.354 44.0312 73.3009 43.7333 73.353C43.4353 73.4051 43.1669 73.5587 42.9774 73.7858C42.788 74.0128 42.6902 74.298 42.7021 74.5887C42.714 74.8795 42.8348 75.1564 43.0422 75.3684C43.2497 75.5805 43.5298 75.7134 43.8311 75.7429C44.1324 75.7723 44.4346 75.6962 44.6822 75.5286L45.6055 75.8243Z" fill="#F2F2F2"/>
<path d="M53.9265 33.2455H53.9265C53.1991 33.3886 52.5082 33.6678 51.8931 34.0674C51.2781 34.467 50.7509 34.9791 50.3419 35.5744C49.9328 36.1697 49.6497 36.8367 49.5089 37.5371C49.3681 38.2375 49.3722 38.9577 49.521 39.6566L50.6879 45.1352L51.9943 44.8783L52.0865 44.2977L52.3601 44.8064L60.3027 43.2446L60.3949 42.6641L60.6685 43.1727L61.7657 42.957L60.5989 37.4784C60.45 36.7795 60.1594 36.1157 59.7435 35.5247C59.3276 34.9337 58.7947 34.4273 58.1751 34.0342C57.5555 33.6412 56.8614 33.3692 56.1324 33.2339C55.4034 33.0986 54.6539 33.1025 53.9265 33.2455Z" fill="#2F2E41"/>
<path d="M63.7678 50.0532L70.5522 53.9916L69.7042 55.8929L63.3438 53.041L63.7678 50.0532Z" fill="#9F616A"/>
<path d="M55.1468 54.5355C55.1468 54.5355 41.4365 54.5355 39.175 57.9306C36.9135 61.3258 38.751 66.0791 45.8181 67.1655C52.8853 68.252 74.3694 68.7952 76.0655 64.721C77.7616 60.6468 76.4895 58.3381 76.4895 58.3381C76.4895 58.3381 69.1397 53.449 55.1468 54.5355Z" fill="#2EC4B6"/>
<path d="M67.3031 57.7945L74.7942 60.5107C74.7942 60.5107 77.9038 58.3378 76.349 55.8932C74.7942 53.4487 67.7271 39.3247 67.7271 39.3247C67.7271 39.3247 65.7483 36.6086 68.2925 35.1147C70.8366 33.6208 71.826 36.0654 71.826 36.0654C71.826 36.0654 71.6847 36.6086 72.6741 36.2012C73.6635 35.7938 75.5009 37.1518 74.5115 39.3247C73.5221 41.4977 72.8154 42.0409 74.9356 41.9051C75.7012 41.856 76.3746 41.3289 76.9226 40.6752C77.973 39.4224 77.5041 38.4134 77.4246 36.8064C77.2885 34.0537 77.0659 32.2588 76.349 31.1763C75.3596 29.6824 73.9462 28.4602 70.2713 29.1392C66.5963 29.8182 61.2253 33.2134 62.4974 38.1025C63.7695 42.9915 66.5963 48.4238 66.5963 48.4238C66.5963 48.4238 68.5751 56.029 67.3031 57.7945Z" fill="#2EC4B6"/>
<path opacity="0.1" d="M67.3021 57.7944C66.0809 58.1176 64.5473 58.2752 62.8965 58.3241C60.0159 58.4096 56.7735 58.1652 54.1841 57.8881C51.3869 57.588 49.3516 57.2512 49.3516 57.2512C50.2971 56.4038 51.7501 56.0683 53.4576 55.9461C55.5777 55.794 58.0908 55.9678 60.5177 55.8931C61.4123 55.863 62.3077 55.9277 63.1876 56.086C65.8647 56.5762 67.3021 57.7944 67.3021 57.7944Z" fill="black"/>
<path d="M55.0767 43.195C57.2625 43.195 59.0343 41.4926 59.0343 39.3924C59.0343 37.2923 57.2625 35.5898 55.0767 35.5898C52.891 35.5898 51.1191 37.2923 51.1191 39.3924C51.1191 41.4926 52.891 43.195 55.0767 43.195Z" fill="#9F616A"/>
<path d="M54.5806 42.448C54.5806 42.448 55.2873 45.0283 54.5806 45.1641C53.8738 45.2999 52.1777 45.979 52.1777 45.979L54.2979 46.7938L58.2555 50.3248L61.6477 51.9545L63.3438 51.4113V48.4235L60.7997 44.6209C60.7997 44.6209 59.1035 45.1641 58.6795 43.3986C58.2555 41.6331 57.4074 40.9541 57.4074 40.9541L54.5806 42.448Z" fill="#9F616A"/>
<path d="M53.5916 46.1152H51.8955C51.8955 46.1152 48.9273 47.0659 47.2312 49.2388C45.5351 51.4117 42.8496 53.5846 42.8496 53.5846C42.8496 53.5846 41.0121 56.0292 42.0015 59.4243C42.9909 62.8195 44.4044 65.264 45.6764 64.585C46.9485 63.906 43.839 59.0169 43.839 59.0169L44.687 56.0292C44.687 56.0292 49.0687 51.1401 50.9061 51.2759C52.7436 51.4117 52.8849 52.9056 52.8849 52.9056L56.8425 53.992L58.1146 51.4117L57.4079 48.6956L53.5916 46.1152Z" fill="#9F616A"/>
<path d="M63.7689 54.6709C63.5016 55.1116 63.3057 55.5887 63.188 56.086C63.0115 56.8205 62.914 57.5705 62.8968 58.3241C60.0162 58.4097 56.7739 58.1652 54.1844 57.8882C53.9555 57.3015 53.7039 56.6265 53.458 55.9461C52.7951 54.1073 52.1788 52.2305 52.1788 51.9548C52.1788 51.4115 55.147 52.3622 55.8537 52.2264C56.5604 52.0906 56.8431 49.9177 55.8537 48.8312C54.8643 47.7448 51.9668 45.9114 51.9668 45.9114L52.9562 45.6397C52.9562 45.6397 55.147 47.2015 59.67 49.7819C64.1929 52.3622 62.3555 48.288 62.3555 48.288L59.7406 44.4175H60.8714C60.8714 44.4175 63.0622 48.0164 64.1929 49.6461C65.3237 51.2757 64.8996 52.9054 63.7689 54.6709Z" fill="#3F3D56"/>
<path d="M57.877 34.2625L50.709 35.6719L51.6091 39.8982L58.7771 38.4888L57.877 34.2625Z" fill="#2F2E41"/>
<path d="M73.3096 34.7754C74.4805 34.7754 75.4297 33.8633 75.4297 32.7383C75.4297 31.6132 74.4805 30.7012 73.3096 30.7012C72.1387 30.7012 71.1895 31.6132 71.1895 32.7383C71.1895 33.8633 72.1387 34.7754 73.3096 34.7754Z" fill="#3F3D56"/>
<path d="M73.3085 33.8243C73.933 33.8243 74.4392 33.3379 74.4392 32.7378C74.4392 32.1378 73.933 31.6514 73.3085 31.6514C72.684 31.6514 72.1777 32.1378 72.1777 32.7378C72.1777 33.3379 72.684 33.8243 73.3085 33.8243Z" fill="white"/>
<g opacity="0.1">
<path opacity="0.1" d="M92.0098 63.1523C92.0127 63.2126 92.0145 63.2733 92.015 63.3343C92.0121 63.2742 92.0105 63.2135 92.0098 63.1523Z" fill="black"/>
<path opacity="0.1" d="M81.7569 65.4383C81.9128 65.8306 81.9068 66.2627 81.8987 66.6826C81.8965 66.7922 81.8944 66.9018 81.8923 67.0114C81.8824 66.785 81.8367 66.5613 81.7569 66.3481C81.6924 66.1858 81.6013 66.0338 81.543 65.8694C81.4431 65.5819 81.4468 65.2706 81.5534 64.9854C81.6117 65.1399 81.6958 65.2846 81.7569 65.4383Z" fill="black"/>
</g>
<g opacity="0.1">
<path opacity="0.1" d="M81.6446 43.6549L81.6423 43.6558C81.6207 43.5381 81.5764 43.4252 81.5117 43.3232C81.5519 43.3075 81.5915 43.2908 81.6308 43.2734C81.6619 43.3984 81.6666 43.5282 81.6446 43.6549Z" fill="black"/>
</g>
<path d="M119.072 93.7502L117.472 93.7243L116.814 87.7817L119.176 87.8199L119.072 93.7502Z" fill="#FFB8B8"/>
<path d="M116.337 93.2667L119.423 93.3166L119.391 95.1835L114.362 95.1023C114.366 94.8571 114.421 94.6152 114.522 94.3902C114.624 94.1653 114.771 93.9618 114.954 93.7914C115.137 93.6209 115.354 93.4868 115.591 93.3968C115.829 93.3068 116.082 93.2626 116.337 93.2667Z" fill="#2F2E41"/>
<path d="M103.192 93.7361L101.709 93.1591L103.319 87.3867L105.508 88.2384L103.192 93.7361Z" fill="#FFB8B8"/>
<path d="M100.821 92.3398L103.682 93.4526L102.952 95.1842L98.2901 93.3707C98.4835 92.9115 98.8589 92.5449 99.3335 92.3515C99.8081 92.1582 100.343 92.154 100.821 92.3398Z" fill="#2F2E41"/>
<path d="M108.542 71.499L103.843 83.4146L101.885 91.6927L103.973 92.6962L113.502 74.8856L117.027 92.7589H119.115C119.115 92.7589 120.07 71.5599 118.679 69.8989L108.542 71.499Z" fill="#2F2E41"/>
<path d="M110.116 55.1441C113.433 55.1441 116.122 52.3862 116.122 48.9841C116.122 45.5821 113.433 42.8242 110.116 42.8242C106.799 42.8242 104.109 45.5821 104.109 48.9841C104.109 52.3862 106.799 55.1441 110.116 55.1441Z" fill="#2F2E41"/>
<path d="M104.814 79.0323C104.997 78.9445 105.159 78.8192 105.286 78.665C105.414 78.5109 105.505 78.3318 105.553 78.1402C105.6 77.9486 105.604 77.7494 105.563 77.5564C105.522 77.3634 105.437 77.1813 105.315 77.0231L108.583 59.6465L105.534 59.6079L103.264 76.7911C103.001 77.0059 102.83 77.3059 102.781 77.6343C102.733 77.9627 102.812 78.2967 103.003 78.573C103.194 78.8492 103.484 79.0486 103.818 79.1332C104.151 79.2179 104.506 79.182 104.814 79.0323H104.814Z" fill="#FFB8B8"/>
<path d="M123.539 75.6386C123.655 75.47 123.729 75.2787 123.757 75.0788C123.785 74.8789 123.766 74.6755 123.701 74.4836C123.636 74.2918 123.528 74.1163 123.383 73.9702C123.238 73.8241 123.061 73.711 122.865 73.6393L117.03 60.0205C116.887 59.6872 116.671 59.3878 116.395 59.1431C116.12 58.8985 115.792 58.7144 115.435 58.6037C115.078 58.4931 114.7 58.4585 114.328 58.5023C113.956 58.5462 113.598 58.6675 113.279 58.8578L121.008 74.5061C120.908 74.8187 120.929 75.1553 121.068 75.4539C121.206 75.7525 121.452 75.993 121.761 76.1309C122.069 76.2689 122.419 76.295 122.746 76.2045C123.073 76.114 123.355 75.913 123.539 75.6386V75.6386Z" fill="#FFB8B8"/>
<path d="M110.116 55.9142C112.991 55.9142 115.321 53.6734 115.321 50.9092C115.321 48.1451 112.991 45.9043 110.116 45.9043C107.241 45.9043 104.91 48.1451 104.91 50.9092C104.91 53.6734 107.241 55.9142 110.116 55.9142Z" fill="#FFB8B8"/>
<path d="M107.013 57.2971C108.862 56.5574 112.055 55.8264 115.6 57.4198C116.015 57.6056 116.384 57.8736 116.683 58.2062C116.983 58.5388 117.206 58.9285 117.337 59.3497L118.854 64.2248L116.896 66.1062L118.723 69.9944C118.723 69.9944 111.74 74.0708 108.607 71.5623L106.714 65.1028L104.234 64.4756L105.08 59.6454C105.17 59.1289 105.394 58.6426 105.732 58.2319C106.07 57.8212 106.511 57.4996 107.013 57.2971Z" fill="#2EC4B6"/>
<path d="M105.711 47.7825C107.468 48.8913 109.448 49.5661 111.498 49.7542L110.888 48.9984C111.332 49.1683 111.799 49.2642 112.272 49.2828C112.509 49.2899 112.745 49.2395 112.959 49.1356C113.174 49.0317 113.362 48.8772 113.509 48.6845C113.628 48.4844 113.699 48.2574 113.716 48.0228C113.732 47.7882 113.693 47.553 113.603 47.3371C113.417 46.9067 113.128 46.5326 112.763 46.2504C112.115 45.7209 111.351 45.3652 110.539 45.215C109.726 45.0648 108.89 45.1249 108.105 45.3898C107.567 45.5561 107.085 45.8759 106.714 46.3124C106.532 46.5323 106.406 46.7956 106.346 47.0785C106.287 47.3615 106.296 47.6553 106.373 47.9336" fill="#2F2E41"/>
<path d="M105.314 43.9408C105.231 43.1379 104.162 42.6436 103.325 42.8862C102.488 43.1287 101.939 43.9031 101.773 44.6951C101.693 45.0286 101.686 45.3733 101.751 45.7095C101.816 46.0457 101.953 46.3667 102.154 46.6542C102.361 46.938 102.653 47.1611 102.994 47.297C103.335 47.4329 103.711 47.4759 104.078 47.4209C104.906 47.2587 105.479 46.5159 105.643 45.7529C105.807 44.9898 105.644 44.2031 105.482 43.4398" fill="#2F2E41"/>
<path d="M117.407 43.9408C117.341 43.1379 116.485 42.6436 115.816 42.8862C115.147 43.1287 114.707 43.9031 114.574 44.6951C114.51 45.0286 114.504 45.3733 114.557 45.7095C114.609 46.0457 114.718 46.3667 114.879 46.6542C115.045 46.938 115.278 47.1611 115.551 47.297C115.824 47.4329 116.125 47.4759 116.419 47.4209C117.081 47.2587 117.539 46.5159 117.67 45.7529C117.802 44.9898 117.671 44.2031 117.541 43.4398" fill="#2F2E41"/>
</g>
<defs>
<clipPath id="clip0">
<rect width="138.547" height="95.4789" fill="white" transform="translate(0.800781 0.474609)"/>
</clipPath>
</defs>
</svg>
