<svg width="134" height="98" viewBox="0 0 134 98" fill="none" xmlns="http://www.w3.org/2000/svg">
<g clip-path="url(#clip0)">
<path d="M132.879 87.9527H0.123047V87.6372H132.939L132.879 87.9527Z" fill="#3F3D56"/>
<path d="M104.395 36.5941V64.474H28.8262V36.5941C28.8261 27.3419 32.5132 18.4397 39.1324 11.7111C45.7516 4.98256 54.8018 0.9368 64.4293 0.402574C65.1507 0.362218 65.8778 0.342288 66.6106 0.342782C67.0282 0.342782 67.4442 0.348758 67.8571 0.363708C77.4443 0.654781 86.5543 4.4451 93.3278 10.9611C93.5319 11.1569 93.7329 11.3542 93.9339 11.5545C100.651 18.2979 104.398 27.2668 104.395 36.5941Z" fill="#C4C4C4"/>
<path d="M67.8556 0.363715V64.474H64.4277V0.402574C65.1491 0.362218 65.8763 0.342288 66.6091 0.342782C67.0267 0.342782 67.4427 0.348759 67.8556 0.363715Z" fill="white"/>
<path d="M96.8391 14.8435H36.3809C37.2808 13.693 38.2512 12.5948 39.2868 11.5547H93.9332C94.9688 12.5948 95.9391 13.693 96.8391 14.8435Z" fill="white"/>
<path d="M98.6439 24.2617H71.8613V67.7633H98.6439V24.2617Z" fill="white"/>
<path d="M81.2016 31.6104H77.1504V35.4972H81.2016V31.6104Z" fill="#C4C4C4"/>
<path d="M87.727 31.6104H83.6758V35.4972H87.727V31.6104Z" fill="#C4C4C4"/>
<path d="M94.2543 31.6104H90.2031V35.4972H94.2543V31.6104Z" fill="#C4C4C4"/>
<path d="M81.3129 40.4639H77.2617V44.3507H81.3129V40.4639Z" fill="#C4C4C4"/>
<path d="M87.8403 40.4639H83.7891V44.3507H87.8403V40.4639Z" fill="#C4C4C4"/>
<path d="M94.3676 40.4639H90.3164V44.3507H94.3676V40.4639Z" fill="#C4C4C4"/>
<path d="M81.4262 49.3169H77.375V53.2037H81.4262V49.3169Z" fill="#C4C4C4"/>
<path d="M87.9516 49.3169H83.9004V53.2037H87.9516V49.3169Z" fill="#C4C4C4"/>
<path d="M94.4789 49.3169H90.4277V53.2037H94.4789V49.3169Z" fill="#C4C4C4"/>
<path d="M81.5375 58.1704H77.4863V62.0572H81.5375V58.1704Z" fill="#C4C4C4"/>
<path d="M88.0649 58.1704H84.0137V62.0572H88.0649V58.1704Z" fill="#C4C4C4"/>
<path d="M94.5922 58.1704H90.541V62.0572H94.5922V58.1704Z" fill="#C4C4C4"/>
<path d="M81.5375 58.1704H77.4863V62.0572H81.5375V58.1704Z" fill="#C4C4C4"/>
<path d="M88.0649 58.1704H84.0137V62.0572H88.0649V58.1704Z" fill="#C4C4C4"/>
<path d="M94.5922 58.1704H90.541V62.0572H94.5922V58.1704Z" fill="#C4C4C4"/>
<path d="M37.8082 55.6286C40.8919 55.6286 43.3918 53.2302 43.3918 50.2716C43.3918 47.313 40.8919 44.9146 37.8082 44.9146C34.7245 44.9146 32.2246 47.313 32.2246 50.2716C32.2246 53.2302 34.7245 55.6286 37.8082 55.6286Z" fill="white"/>
<path d="M37.8226 50.2715H37.838L38.1142 65.4595H37.5312L37.8226 50.2715Z" fill="white"/>
<path d="M38.8393 58.5441L38.7109 58.3101L37.7884 58.7761L37.9168 59.0101L38.8393 58.5441Z" fill="white"/>
<path d="M54.2232 50.5099C58.9126 50.5099 62.714 46.8626 62.714 42.3636C62.714 37.8645 58.9126 34.2173 54.2232 34.2173C49.5339 34.2173 45.7324 37.8645 45.7324 42.3636C45.7324 46.8626 49.5339 50.5099 54.2232 50.5099Z" fill="white"/>
<path d="M54.2478 42.3633H54.2711L54.691 65.4594H53.8047L54.2478 42.3633Z" fill="white"/>
<path d="M55.7934 54.9441L55.5977 54.5874L54.1938 55.2965L54.3896 55.6532L55.7934 54.9441Z" fill="white"/>
<path d="M36.7117 34.5848L38.1461 33.4842C37.0318 33.3662 36.5739 33.9493 36.3866 34.4108C35.516 34.0639 34.5684 34.5185 34.5684 34.5185L37.4383 35.5181C37.2935 35.147 37.0414 34.8233 36.7117 34.5848Z" fill="white"/>
<path d="M51.825 25.6151L53.2594 24.5144C52.1451 24.3965 51.6872 24.9795 51.4999 25.441C50.6293 25.0942 49.6816 25.5487 49.6816 25.5487L52.5515 26.5483C52.4068 26.1773 52.1547 25.8536 51.825 25.6151Z" fill="white"/>
<path d="M46.0594 34.1366L47.4937 33.0359C46.3794 32.918 45.9216 33.501 45.7342 33.9625C44.8637 33.6157 43.916 34.0702 43.916 34.0702L46.7859 35.0698C46.6411 34.6988 46.3891 34.3751 46.0594 34.1366Z" fill="white"/>
<path d="M108.367 61.1855H24.8516V67.7631H108.367V61.1855Z" fill="#C4C4C4"/>
<path d="M12.3788 78.3068C12.3788 78.3068 -4.5146 70.8454 1.42002 65.6713C7.35464 60.4972 12.3788 78.3068 12.3788 78.3068Z" fill="#C4C4C4"/>
<path d="M12.0835 80.0482C12.0835 80.0482 4.31871 55.5708 15.7527 56.7414C27.1867 57.912 12.0835 80.0482 12.0835 80.0482Z" fill="#C4C4C4"/>
<path d="M6.42188 77.877L6.74778 81.9715L6.75295 82.0422C6.75264 82.6816 6.78631 83.3206 6.85383 83.9567C7.29611 88.1332 9.19719 90.0365 11.419 90.0365C13.6408 90.0365 15.4591 88.1332 15.9014 83.9567C15.9689 83.3206 16.0026 82.6816 16.0023 82.0422L16.0049 81.9852L16.0062 81.9715L16.3334 77.877H6.42188Z" fill="#C4C4C4"/>
<path d="M16.0064 81.9717L16.0051 81.9853L16.0025 82.0424C16.0029 82.6818 15.9692 83.3208 15.9017 83.9569H6.8541C6.78658 83.3208 6.75291 82.6818 6.75322 82.0424L6.74805 81.9717H16.0064Z" fill="white"/>
<path d="M125.41 78.3068C125.41 78.3068 108.517 70.8454 114.451 65.6713C120.386 60.4972 125.41 78.3068 125.41 78.3068Z" fill="#C4C4C4"/>
<path d="M125.115 80.0482C125.115 80.0482 117.35 55.5708 128.784 56.7414C140.218 57.912 125.115 80.0482 125.115 80.0482Z" fill="#C4C4C4"/>
<path d="M119.455 77.877L119.781 81.9715L119.786 82.0422C119.786 82.6816 119.82 83.3206 119.887 83.9567C120.329 88.1332 122.23 90.0365 124.452 90.0365C126.674 90.0365 128.492 88.1332 128.935 83.9567C129.002 83.3206 129.036 82.6816 129.035 82.0422L129.038 81.9852L129.039 81.9715L129.367 77.877H119.455Z" fill="#C4C4C4"/>
<path d="M129.038 81.9717L129.036 81.9853L129.034 82.0424C129.034 82.6818 129 83.3208 128.933 83.9569H119.885C119.818 83.3208 119.784 82.6818 119.784 82.0424L119.779 81.9717H129.038Z" fill="white"/>
<path d="M102.979 93.1297L101.871 93.2545C100.996 93.7606 99.9694 93.9511 98.8322 93.9123C98.6735 93.9077 98.5187 93.8634 98.3833 93.7838C98.2479 93.7042 98.1365 93.592 98.0602 93.4584C97.994 93.3412 97.9569 93.2108 97.9518 93.0776C97.9467 92.9443 97.9736 92.8118 98.0307 92.6902C98.0877 92.5686 98.1732 92.4612 98.2805 92.3765C98.3878 92.2918 98.5141 92.232 98.6494 92.2017L99.491 92.0137L101.522 90.1082L102.747 87.981L104.526 88.1768L104.897 90.8787C104.944 91.4193 104.77 91.9563 104.412 92.3763C104.054 92.7963 103.54 93.0664 102.979 93.1297Z" fill="#FFB8B8"/>
<path d="M85.7293 91.7632L84.6438 92.0083C83.8348 92.6067 82.8373 92.9082 81.7029 92.994C81.5446 93.0068 81.3856 92.9797 81.2416 92.9154C81.0976 92.8511 80.9737 92.7519 80.882 92.6275C80.8023 92.5182 80.75 92.3928 80.729 92.261C80.7081 92.1292 80.7192 91.9945 80.7614 91.8674C80.8036 91.7404 80.8758 91.6244 80.9724 91.5285C81.0689 91.4326 81.1872 91.3594 81.3181 91.3145L82.1319 91.0357L83.9231 88.9206L84.8875 86.6733H86.6787L87.3676 89.3172C87.4785 89.8492 87.3697 90.4016 87.064 90.858C86.7583 91.3144 86.2798 91.639 85.7293 91.7632Z" fill="#FFB8B8"/>
<path d="M84.8394 86.8225L86.8649 87.1215L90.0591 71.6493L95.5904 62.6052L102.29 88.9154L104.783 89.3639C104.504 74.5476 105.868 55.8945 102.758 53.6357L89.2021 55.1306L83.2812 70.3786L84.8394 86.8225Z" fill="#2F2E41"/>
<path d="M94.6568 30.6149C97.2384 30.6149 99.3311 28.607 99.3311 26.1302C99.3311 23.6534 97.2384 21.6455 94.6568 21.6455C92.0752 21.6455 89.9824 23.6534 89.9824 26.1302C89.9824 28.607 92.0752 30.6149 94.6568 30.6149Z" fill="#FFB8B8"/>
<path d="M101.201 33.0065L95.5917 33.9034L94.1895 29.1197L98.2405 27.9238L101.201 33.0065Z" fill="#FFB8B8"/>
<path d="M103.538 54.2338L88.5801 55.5792C89.7792 51.5786 90.8779 47.5921 89.9824 43.62C88.8452 40.0739 89.9428 37.9651 92.9428 36.295L94.9684 31.9598L100.422 31.3618C101.866 33.5896 102.457 36.2302 102.093 38.8303C101.316 44.4845 101.525 49.7313 103.538 54.2338Z" fill="#2EC4B6"/>
<path d="M94.5509 20.833C92.9909 21.1749 91.2153 21.6594 91.1157 22.1097C89.511 22.4977 88.2997 23.427 88.0524 24.8438C88.0317 24.9663 88.0393 25.0916 88.0746 25.2109C88.1098 25.3303 88.172 25.4407 88.2566 25.5346C88.3411 25.6284 88.4461 25.7032 88.5642 25.7539C88.6822 25.8046 88.8103 25.8298 88.9396 25.8278C89.8123 25.817 91.1224 25.7368 91.9875 25.3902C94.5006 26.9437 94.9225 30.9844 93.825 33.7348L95.552 33.5829L97.3387 28.5647L97.7951 33.3857L101.736 32.8857L101.229 26.7381C101.073 25.2892 100.559 23.8969 99.7294 22.6767C99.6432 22.5542 99.549 22.437 99.4473 22.3261C98.8477 21.6762 98.0759 21.1942 97.2138 20.9313C96.3517 20.6685 95.4315 20.6345 94.5509 20.833Z" fill="#2F2E41"/>
<path d="M84.6518 94.6718C84.6433 94.745 84.6509 94.819 84.6741 94.8892C84.6973 94.9594 84.7356 95.0241 84.7865 95.0792C84.8374 95.1343 84.8997 95.1786 84.9695 95.2092C85.0393 95.2397 85.115 95.2559 85.1918 95.2566L86.9446 95.2739C87.039 95.2676 87.1274 95.2272 87.1919 95.1608C87.2565 95.0944 87.2924 95.007 87.2924 94.9162C87.2924 94.8445 87.27 94.7745 87.2281 94.7151C87.1862 94.6558 87.1268 94.6098 87.0574 94.5832L86.5402 94.3847L85.7881 93.3745H85.1864C84.891 93.7525 84.7065 94.1994 84.6521 94.669L84.6518 94.6718H84.6518Z" fill="#FFB8B8"/>
<path d="M80.4569 94.6718C80.4654 94.745 80.4578 94.819 80.4346 94.8892C80.4114 94.9594 80.3731 95.0241 80.3223 95.0792C80.2714 95.1343 80.209 95.1786 80.1392 95.2092C80.0694 95.2397 79.9937 95.2559 79.917 95.2566L78.1642 95.2739C78.0698 95.2676 77.9814 95.2272 77.9168 95.1608C77.8523 95.0944 77.8164 95.007 77.8164 94.9162C77.8164 94.8445 77.8388 94.7745 77.8807 94.7151C77.9226 94.6558 77.982 94.6098 78.0514 94.5832L78.5685 94.3847L79.3206 93.3745H79.9223C80.2177 93.7525 80.4022 94.1994 80.4566 94.669L80.4569 94.6718Z" fill="#FFB8B8"/>
<path d="M79.1699 93.3744H80.0725L83.2313 80.2413L84.886 93.5187H85.9389L87.3679 76.4169L80.0725 76.3447L79.1699 93.3744Z" fill="#3F3D56"/>
<path d="M75.1074 69.2738H76.3108V66.5318L76.5846 66.0065C76.6395 65.9011 76.6677 65.7847 76.6669 65.6668C76.6661 65.549 76.6362 65.433 76.5798 65.3283C76.5234 65.2236 76.442 65.1332 76.3422 65.0644C76.2424 64.9956 76.1272 64.9504 76.0057 64.9325C75.8946 64.9161 75.7811 64.923 75.673 64.9526C75.5649 64.9822 75.4648 65.0339 75.3795 65.1041C75.2941 65.1744 75.2256 65.2615 75.1787 65.3595C75.1317 65.4575 75.1074 65.5641 75.1074 65.6719V69.2738Z" fill="#FFB8B8"/>
<path d="M82.2535 62.4907C83.7904 62.4907 85.0364 61.2953 85.0364 59.8208C85.0364 58.3462 83.7904 57.1509 82.2535 57.1509C80.7166 57.1509 79.4707 58.3462 79.4707 59.8208C79.4707 61.2953 80.7166 62.4907 82.2535 62.4907Z" fill="#FFB8B8"/>
<path d="M81.1263 64.3667H83.9844V61.1917H81.1263V64.3667Z" fill="#FFB8B8"/>
<path d="M79.7716 76.7781C82.3014 78.2759 84.976 78.1295 87.744 76.9224L87.1424 63.5008L83.9835 63.3564L80.6742 63.7894L79.0195 65.0883L79.7716 76.7781Z" fill="#2EC4B6"/>
<path d="M76.7641 72.0157L80.0734 69.5623L79.0204 65.0884L77.065 68.552L76.4633 67.9748L74.6582 69.2736L76.7641 72.0157Z" fill="#2EC4B6"/>
<path d="M91.4535 63.7312L90.4009 64.2908L89.0155 61.8925L88.5106 61.5604C88.4093 61.4937 88.3259 61.4051 88.2671 61.3016C88.2082 61.1981 88.1757 61.0828 88.1722 60.965C88.1687 60.8472 88.1942 60.7302 88.2467 60.6237C88.2992 60.5171 88.3772 60.424 88.4743 60.3518C88.5632 60.2858 88.6659 60.239 88.7754 60.2147C88.885 60.1903 88.9987 60.1889 89.1088 60.2107C89.2189 60.2324 89.3228 60.2767 89.4134 60.3406C89.504 60.4045 89.5791 60.4864 89.6336 60.5808L90.068 61.3328L91.4535 63.7312Z" fill="#FFB8B8"/>
<path d="M85.5625 67.7581L89.5564 65.7239L91.6546 64.6552L91.9554 62.9234L90.6016 61.6245L88.947 62.6347L89.0974 63.7893L87.1419 63.5007L85.5625 67.7581Z" fill="#2EC4B6"/>
<path d="M82.8562 61.9853C84.6838 61.9853 86.1655 60.5638 86.1655 58.8103C86.1655 57.0568 84.6838 55.6353 82.8562 55.6353C81.0285 55.6353 79.5469 57.0568 79.5469 58.8103C79.5469 60.5638 81.0285 61.9853 82.8562 61.9853Z" fill="#2F2E41"/>
<path d="M84.6605 56.6452C85.4912 56.6452 86.1647 55.9991 86.1647 55.202C86.1647 54.4049 85.4912 53.7588 84.6605 53.7588C83.8297 53.7588 83.1562 54.4049 83.1562 55.202C83.1562 55.9991 83.8297 56.6452 84.6605 56.6452Z" fill="#2F2E41"/>
<path d="M84.5874 56.4089C84.8857 56.5582 85.2274 56.6074 85.5582 56.5484C85.8889 56.4894 86.1895 56.3257 86.4118 56.0836C86.6342 55.8414 86.7655 55.5347 86.7847 55.2124C86.804 54.8902 86.7101 54.5711 86.518 54.3062C86.692 54.4317 86.8354 54.592 86.9384 54.7759C87.0415 54.9598 87.1017 55.163 87.1148 55.3715C87.128 55.5799 87.0939 55.7886 87.0147 55.9831C86.9356 56.1776 86.8134 56.3534 86.6566 56.4981C86.4997 56.6429 86.312 56.7533 86.1063 56.8217C85.9007 56.89 85.682 56.9147 85.4654 56.894C85.2488 56.8734 85.0395 56.8078 84.8519 56.7019C84.6643 56.596 84.5029 56.4523 84.3789 56.2808C84.4446 56.3289 84.5144 56.3717 84.5874 56.4089Z" fill="#2F2E41"/>
<path d="M93.8776 58.7189L93.9809 62.1894C93.9952 62.6678 93.8199 63.1336 93.4905 63.4931C93.1611 63.8525 92.702 64.0788 92.2057 64.1264C91.8878 64.1569 91.5669 64.1128 91.2706 63.998C90.9744 63.8832 90.7117 63.701 90.5051 63.4672C90.2984 63.2334 90.1541 62.955 90.0845 62.6558C90.0149 62.3566 90.0221 62.0457 90.1054 61.7498L90.9171 58.8684L93.2543 46.6102L93.0985 39.4346L98.0845 39.2852L97.1496 47.3576L93.8776 58.7189Z" fill="#FFB8B8"/>
<path d="M98.3964 40.0326C96.5899 39.3724 94.5936 39.3724 92.7871 40.0326L93.0987 34.053C93.0987 33.4186 93.3614 32.8102 93.8289 32.3617C94.2964 31.9131 94.9305 31.6611 95.5917 31.6611C96.2529 31.6611 96.887 31.9131 97.3545 32.3617C97.8221 32.8102 98.0847 33.4186 98.0847 34.053L98.3964 40.0326Z" fill="#2EC4B6"/>
</g>
<defs>
<clipPath id="clip0">
<rect width="132.941" height="97.019" fill="white" transform="translate(0.123047 0.342773)"/>
</clipPath>
</defs>
</svg>
