<svg width="196" height="103" viewBox="0 0 196 103" fill="none" xmlns="http://www.w3.org/2000/svg">
<g clip-path="url(#clip0)">
<path opacity="0.1" d="M69.9125 24.8364H65.375C65.1215 24.8364 64.916 25.0339 64.916 25.2775V26.7453C64.916 26.9889 65.1215 27.1864 65.375 27.1864H69.9125C70.1661 27.1864 70.3716 26.9889 70.3716 26.7453V25.2775C70.3716 25.0339 70.1661 24.8364 69.9125 24.8364Z" fill="black"/>
<path d="M100.033 73.3045V75.9942H39.8789V73.3045C39.8789 73.0965 39.965 72.8969 40.1184 72.7498C40.2717 72.6027 40.4797 72.52 40.6965 72.52H99.2155C99.4324 72.52 99.6404 72.6027 99.7937 72.7498C99.947 72.8969 100.033 73.0965 100.033 73.3045Z" fill="#3F3D56"/>
<path d="M77.2304 33.3287C77.6766 33.7691 78.1052 34.2779 78.1893 34.8864C77.2386 35.1251 76.2656 34.6769 75.3767 34.2768C72.626 33.0357 69.7213 32.1367 66.7332 31.6017C66.4996 31.5602 66.2496 31.5143 66.0732 31.3596C65.7403 31.0671 65.8011 30.3297 66.1106 30.026C66.4447 29.6987 67.0626 29.7458 67.5123 29.7223C69.3059 29.6351 71.0986 29.9111 72.7738 30.5325C74.4489 31.1538 75.9689 32.1065 77.235 33.3287H77.2304Z" fill="#192534"/>
<path d="M97.0362 75.9891H73.1438C72.825 75.2911 72.574 74.5663 72.3939 73.8239C72.3332 73.5931 72.2771 73.36 72.2211 73.128C72.172 72.924 72.1253 72.7189 72.0809 72.515C71.9454 71.9016 71.8286 71.2856 71.7305 70.6669C71.6363 70.0842 71.5584 69.4995 71.4969 68.913C71.4361 68.352 71.389 67.789 71.3555 67.2242C71.3555 67.2085 71.3555 67.1928 71.3555 67.176C71.3415 66.9081 71.3555 66.6156 71.5471 66.4262C71.7153 66.2637 71.9723 66.2279 72.2117 66.2122C74.1974 66.0822 76.127 66.7725 78.108 66.6705C78.6453 66.6403 79.0775 66.5585 79.5774 66.6571C79.6565 66.6713 79.7345 66.6904 79.811 66.7142C79.9278 66.749 80.0365 66.786 80.1474 66.8263C80.9078 67.0874 81.6168 67.4169 82.4344 67.5637C83.8268 67.8159 85.2553 67.7666 86.6686 67.8641C86.7854 67.8708 86.9022 67.8798 87.019 67.891C87.1627 67.9022 87.3064 67.9168 87.4489 67.9336C88.66 68.0876 89.8489 68.3734 90.9927 68.7853C91.6094 68.9993 92.2168 69.2414 92.816 69.498C92.9877 69.572 93.1583 69.646 93.3288 69.7222C93.6325 69.8578 93.9408 70.0012 94.2422 70.157C94.359 70.2164 94.4758 70.2769 94.5856 70.3408C95.4932 70.8462 96.3131 71.4738 96.7909 72.3256C96.8271 72.3883 96.8598 72.4522 96.8913 72.5172C96.9229 72.5822 96.9462 72.6371 96.9719 72.6988C97.3889 73.7376 97.2429 74.8583 97.0362 75.9891Z" fill="#202F42"/>
<path opacity="0.1" d="M97.0362 75.9891H73.1438C72.825 75.2911 72.574 74.5663 72.3939 73.8239C72.3332 73.5931 72.2771 73.36 72.2211 73.128C72.172 72.924 72.1253 72.7189 72.0809 72.515C71.9454 71.9016 71.8286 71.2856 71.7305 70.6669C71.6363 70.0842 71.5584 69.4995 71.4969 68.913C71.4361 68.352 71.389 67.789 71.3555 67.2242C71.3555 67.2085 71.3555 67.1928 71.3555 67.176C71.3415 66.9081 71.3555 66.6156 71.5471 66.4262C71.7153 66.2637 71.9723 66.2279 72.2117 66.2122C74.1974 66.0822 76.127 66.7725 78.108 66.6705C78.6453 66.6403 79.0775 66.5585 79.5774 66.6571C79.6565 66.6713 79.7345 66.6904 79.811 66.7142C79.9278 66.749 80.0365 66.786 80.1474 66.8263C80.9078 67.0874 81.6168 67.4169 82.4344 67.5637C83.8268 67.8159 85.2553 67.7666 86.6686 67.8641C86.7854 67.8708 86.9022 67.8798 87.019 67.891C87.1627 67.9022 87.3064 67.9168 87.4489 67.9336C88.66 68.0876 89.8489 68.3734 90.9927 68.7853C91.6094 68.9993 92.2168 69.2414 92.816 69.498C92.9877 69.572 93.1583 69.646 93.3288 69.7222C93.6325 69.8578 93.9408 70.0012 94.2422 70.157C94.359 70.2164 94.4758 70.2769 94.5856 70.3408C95.4932 70.8462 96.3131 71.4738 96.7909 72.3256C96.8271 72.3883 96.8598 72.4522 96.8913 72.5172C96.9229 72.5822 96.9462 72.6371 96.9719 72.6988C97.3889 73.7376 97.2429 74.8583 97.0362 75.9891Z" fill="black"/>
<path d="M75.2299 75.9894H48.3006C47.6956 75.3506 47.2996 74.518 47.3977 73.6696C47.4329 73.3169 47.4946 72.9671 47.5823 72.6229C47.5916 72.5859 47.6021 72.55 47.6126 72.5108C47.7852 71.8592 48.2138 71.297 48.8087 70.9418C49.8693 70.2884 51.1448 70.0329 52.3128 69.6093C52.9401 69.3852 53.5451 69.1016 54.1724 68.8764C55.0745 68.5643 56.0058 68.3361 56.9535 68.195C57.0586 68.1782 57.1649 68.1614 57.27 68.1468C57.3752 68.1322 57.4861 68.1143 57.5947 68.0997C58.1788 68.019 58.7628 67.9529 59.3527 67.8879C60.6375 67.7433 61.9422 67.5999 63.2352 67.7097C64.2683 67.8127 65.2852 68.0316 66.2651 68.362C67.0033 68.5984 67.7322 68.873 68.4564 69.1465C69.5859 69.5746 70.7247 70.0128 71.7328 70.6549C71.8204 70.7109 71.9056 70.767 71.9909 70.8264C72.6617 71.2937 73.2501 71.8613 73.7336 72.5074C74.0141 72.8778 74.2607 73.2708 74.4707 73.6819C74.842 74.4106 75.0979 75.1883 75.2299 75.9894Z" fill="#202F42"/>
<path d="M67.5512 30.8069C67.1097 31.736 66.361 32.5776 65.3576 32.9195C64.8238 33.101 64.248 33.1335 63.7037 33.2826C63.1593 33.4316 62.6104 33.7398 62.4188 34.2497C62.3485 34.4731 62.3146 34.7056 62.3184 34.939C62.2354 37.1299 62.1677 39.4072 63.0799 41.4177C63.8683 43.1525 65.3132 44.5232 66.7406 45.8299C68.4109 47.3585 70.1793 48.9084 72.3764 49.5921C73.6612 49.9899 75.1739 50.0336 76.2368 49.2413C76.6736 48.9152 76.9983 48.4747 77.3172 48.0399C78.018 47.0817 78.7305 46.1101 79.1721 45.014C80.0773 42.7726 79.7724 40.2757 79.4536 37.8942C79.4517 37.7528 79.396 37.6169 79.297 37.5121C79.1732 37.4123 78.9922 37.4258 78.8298 37.4347C77.6933 37.4998 76.4529 36.9405 76.0721 35.9117C75.9085 35.4634 75.9132 34.9838 75.9214 34.5131L75.9658 31.7988C75.9658 31.5063 75.974 31.2037 75.8595 30.9313C75.6598 30.4584 75.1587 30.1816 74.6786 29.953C73.1306 29.21 71.5171 28.6002 69.8569 28.1307C69.1304 27.9256 68.5779 27.5838 68.2544 28.3324C67.9121 29.1113 67.9273 30.0146 67.5512 30.8069Z" fill="#FBBEBE"/>
<path opacity="0.1" d="M67.5512 30.8069C67.1097 31.736 66.361 32.5776 65.3576 32.9195C64.8238 33.101 64.248 33.1335 63.7037 33.2826C63.1593 33.4316 62.6104 33.7398 62.4188 34.2497C62.3485 34.4731 62.3146 34.7056 62.3184 34.939C62.2354 37.1299 62.1677 39.4072 63.0799 41.4177C63.8683 43.1525 65.3132 44.5232 66.7406 45.8299C68.4109 47.3585 70.1793 48.9084 72.3764 49.5921C73.6612 49.9899 75.1739 50.0336 76.2368 49.2413C76.6736 48.9152 76.9983 48.4747 77.3172 48.0399C78.018 47.0817 78.7305 46.1101 79.1721 45.014C80.0773 42.7726 79.7724 40.2757 79.4536 37.8942C79.4517 37.7528 79.396 37.6169 79.297 37.5121C79.1732 37.4123 78.9922 37.4258 78.8298 37.4347C77.6933 37.4998 76.4529 36.9405 76.0721 35.9117C75.9085 35.4634 75.9132 34.9838 75.9214 34.5131L75.9658 31.7988C75.9658 31.5063 75.974 31.2037 75.8595 30.9313C75.6598 30.4584 75.1587 30.1816 74.6786 29.953C73.1306 29.21 71.5171 28.6002 69.8569 28.1307C69.1304 27.9256 68.5779 27.5838 68.2544 28.3324C67.9121 29.1113 67.9273 30.0146 67.5512 30.8069Z" fill="black"/>
<path d="M73.2124 32.9212C78.9938 32.9212 83.6806 28.4219 83.6806 22.8717C83.6806 17.3216 78.9938 12.8223 73.2124 12.8223C67.4309 12.8223 62.7441 17.3216 62.7441 22.8717C62.7441 28.4219 67.4309 32.9212 73.2124 32.9212Z" fill="#FBBEBE"/>
<path d="M76.0327 37.7206L75.0668 40.0214C74.8483 40.5414 74.6264 41.067 74.29 41.5253C73.3614 42.7884 71.5323 43.3666 70.0068 42.8803C68.5666 42.4241 67.2888 41.1309 65.8018 41.4413C65.0309 41.6027 64.4165 42.1966 64.0731 42.878C63.7297 43.5594 63.6199 44.326 63.5464 45.0802C63.2065 48.5688 63.5532 52.0876 64.5684 55.4534C64.6735 55.8008 64.802 56.165 65.0812 56.4048C65.4222 56.6917 65.9116 56.7343 66.366 56.759C68.4685 56.8793 70.5749 56.9502 72.6851 56.9719C73.9816 56.9865 75.284 56.982 76.5642 56.7892C77.8444 56.5965 79.0696 56.2289 80.3323 55.9868C81.5132 55.7627 82.7221 55.6584 83.8761 55.3323C84.0642 55.2796 84.2628 55.2124 84.3784 55.0622C84.4679 54.9189 84.5087 54.7525 84.4952 54.5859C84.4952 53.9404 84.2861 53.3128 84.0595 52.7054C83.4755 51.1555 82.7934 49.6302 82.4687 48.013C82.0213 45.7885 82.2841 43.4966 82.235 41.2306C82.2187 40.4192 82.1603 39.5944 81.8694 38.8312C81.5786 38.068 81.0285 37.3664 80.254 37.0381C78.919 36.4676 76.6717 36.2121 76.0327 37.7206Z" fill="#2EC4B6"/>
<path d="M71.59 48.6084C70.9733 48.1063 71.006 47.2108 70.9324 46.4376C70.7981 44.9874 70.1405 43.6358 69.4934 42.3179L67.5603 38.3775C66.752 36.7346 65.925 34.8641 66.592 33.1618C66.8151 32.588 67.197 32.077 67.3933 31.4942C67.5895 30.9114 67.5498 30.183 67.0522 29.7986C66.4191 29.31 65.4835 29.6428 64.7675 30.0138C63.4511 30.6989 62.182 31.4644 60.9679 32.3056C60.6385 32.5297 60.2927 32.7953 60.1853 33.1719C60.1187 33.4061 60.1537 33.6627 60.0603 33.8891C59.8781 34.3374 59.3104 34.4719 58.8257 34.5772C56.8278 35.0191 54.9449 35.8472 53.292 37.0111C51.6391 38.175 50.2511 39.6501 49.2127 41.3462C48.8681 41.8967 48.5936 42.4848 48.395 43.0979C48.1614 43.8824 48.1007 44.6971 48.0446 45.5074C47.8951 47.5919 47.751 49.6753 47.6124 51.7575C47.5505 52.6798 47.4898 53.6246 47.7526 54.5133C47.922 55.0849 48.2198 55.6194 48.346 56.2022C48.6018 57.4137 48.0621 58.6509 47.3882 59.7044C46.7142 60.7578 45.8849 61.7463 45.4621 62.9084C45.2136 63.648 45.0859 64.4199 45.0836 65.1969C45.0214 67.8191 45.7789 70.3992 47.2585 72.6047C48.694 72.8076 49.7686 71.4381 51.0874 70.8564C53.0205 70.0058 55.4617 70.6872 57.278 69.636C57.7219 69.3793 58.1061 69.0297 58.5757 68.8179C59.002 68.6262 59.4751 68.5579 59.9411 68.4929C61.6628 68.2542 63.4067 68.0334 65.1366 68.2127C67.5895 68.4671 70.1253 69.5127 72.4322 68.6688C73.001 68.4604 73.522 68.1455 74.0932 67.9426C76.1956 67.1951 78.5317 68.0883 80.7709 67.9236C80.4205 67.9056 80.2639 67.5246 80.1985 67.1895C80.0514 66.4461 79.9213 65.699 79.8084 64.9481C79.7091 64.297 79.6238 63.6279 79.7792 62.988C79.9217 62.394 80.2628 61.8673 80.5489 61.3227C81.4518 59.608 81.8338 57.6849 82.6082 55.9119C82.9761 55.0669 83.4258 54.26 83.8627 53.4464C85.6263 50.1067 87.0001 46.5903 87.959 42.9612C86.9393 41.205 86.0154 39.3749 84.9957 37.6199C84.7002 37.1111 84.3965 36.5934 83.9444 36.2C83.2974 35.6307 82.4201 35.383 81.5756 35.1533C80.8503 34.9549 80.1144 34.7554 79.3564 34.7543C78.5983 34.7532 76.4655 33.9934 75.9539 34.5234C75.4259 35.0703 76.6138 36.8366 76.5869 37.5807C76.5601 38.3248 76.6453 39.078 76.5169 39.8131C76.33 40.8856 75.6992 41.8416 75.413 42.8928C75.2999 43.3903 75.2129 43.8931 75.1526 44.399C74.9618 45.5305 74.6531 46.6407 74.231 47.7129C74.154 47.9387 74.04 48.1513 73.8934 48.3428C73.3398 48.9928 72.4497 48.7462 71.59 48.6084Z" fill="#192534"/>
<path d="M88.7516 60.4169C88.9735 60.6769 89.2772 60.8551 89.5517 61.0625C90.6322 61.875 91.2676 63.1111 92.2219 64.0581C92.7031 64.5366 93.2626 64.9367 93.7754 65.3839C94.9679 66.4261 95.8919 67.7138 96.8053 68.9891C97.0389 69.3141 97.2725 69.647 97.3893 70.0247C97.5937 70.6691 97.4278 71.3874 97.0552 71.959C96.6826 72.5305 96.1208 72.9676 95.5146 73.3105C95.1981 73.4906 94.8682 73.6479 94.5276 73.7812C93.8268 74.0547 93.1586 73.3139 93.5534 72.6953C93.8041 72.3074 94.0334 71.9071 94.2402 71.4961C94.3723 71.2683 94.4482 71.0145 94.4622 70.7542C94.4528 70.297 94.0767 69.9092 93.6445 69.7176C93.2124 69.526 92.7253 69.4935 92.2522 69.4374C89.577 69.1272 87.0317 68.1556 84.8655 66.6177C83.6391 65.7436 82.457 64.4626 82.6521 63.0091C82.7969 61.9243 83.6916 61.0613 84.674 60.5055C85.4719 60.0563 86.3494 59.7523 87.2624 59.6089C87.5193 59.5686 88.1641 59.3993 88.3942 59.5697C88.5986 59.7154 88.56 60.1928 88.7516 60.4169Z" fill="#FBBEBE"/>
<path opacity="0.1" d="M88.7516 60.4169C88.9735 60.6769 89.2772 60.8551 89.5517 61.0625C90.6322 61.875 91.2676 63.1111 92.2219 64.0581C92.7031 64.5366 93.2626 64.9367 93.7754 65.3839C94.9679 66.4261 95.8919 67.7138 96.8053 68.9891C97.0389 69.3141 97.2725 69.647 97.3893 70.0247C97.5937 70.6691 97.4278 71.3874 97.0552 71.959C96.6826 72.5305 96.1208 72.9676 95.5146 73.3105C95.1981 73.4906 94.8682 73.6479 94.5276 73.7812C93.8268 74.0547 93.1586 73.3139 93.5534 72.6953C93.8041 72.3074 94.0334 71.9071 94.2402 71.4961C94.3723 71.2683 94.4482 71.0145 94.4622 70.7542C94.4528 70.297 94.0767 69.9092 93.6445 69.7176C93.2124 69.526 92.7253 69.4935 92.2522 69.4374C89.577 69.1272 87.0317 68.1556 84.8655 66.6177C83.6391 65.7436 82.457 64.4626 82.6521 63.0091C82.7969 61.9243 83.6916 61.0613 84.674 60.5055C85.4719 60.0563 86.3494 59.7523 87.2624 59.6089C87.5193 59.5686 88.1641 59.3993 88.3942 59.5697C88.5986 59.7154 88.56 60.1928 88.7516 60.4169Z" fill="black"/>
<path d="M78.2372 16.9245C76.8072 18.3072 74.5106 18.3652 72.4629 18.3315L72.5301 17.574L69.6501 18.5489C70.3967 18.0249 71.0371 17.3782 71.5406 16.6396C71.1673 16.3304 70.5825 16.3398 70.1392 16.5532C69.6959 16.7665 69.3699 17.1432 69.091 17.5321C68.2741 18.6875 67.7541 20.007 67.5723 21.3856C67.3906 22.7643 67.5522 24.1639 68.0443 25.4731C67.4723 25.7729 66.743 25.6851 66.1939 25.3584C65.6448 25.0316 65.2615 24.4996 65.0013 23.9379C64.8311 23.5706 64.6538 23.1358 64.2477 23.021C63.9073 22.9251 63.5327 23.1209 63.3439 23.4058C63.1745 23.7033 63.1062 24.0427 63.148 24.378C63.2009 25.1639 63.8087 25.9093 63.9302 26.687C64.0518 27.4648 65.2815 28.0697 64.6452 28.5774C64.4622 28.7246 62.5846 29.1256 62.3472 29.0905C62.0255 29.0433 61.8124 28.7503 61.678 28.4707C61.0374 27.1421 61.2676 25.5893 60.8886 24.1742C60.5841 23.0359 59.8977 22.0259 59.2213 21.0401C59.0396 20.7529 58.8253 20.4854 58.5821 20.2421C58.3576 20.0342 58.0802 19.8546 57.9715 19.5764C57.8628 19.2983 58.063 18.9013 58.3733 18.9459C57.8725 18.4886 57.3335 18.07 56.7617 17.6942C57.328 17.0172 57.8819 16.3317 58.4234 15.6377C58.6093 15.4 58.8023 15.0976 58.6665 14.8275C58.5871 14.7038 58.4753 14.6015 58.3418 14.5304L56.8632 13.5852C56.8304 12.9439 58.2132 13.1802 58.4262 12.5739C58.4637 12.4128 58.4508 12.2448 58.389 12.0905L57.8857 10.3567L59.7976 11.175C60.0292 11.2749 60.2766 11.3762 60.5297 11.3411C61.0345 11.2722 61.2776 10.7078 61.3033 10.2257C61.3291 9.74369 61.2476 9.22519 61.5007 8.80525C62.3663 8.77284 63.2314 8.77869 64.0961 8.8228C64.1507 8.41192 64.0354 7.99698 63.7743 7.66426L70.1635 7.32939C71.2546 7.27268 72.3757 7.22002 73.4124 7.54409C73.7642 7.65481 74.1188 7.81414 74.4878 7.77498C74.8567 7.73583 75.2285 7.41446 75.1227 7.07959C76.0802 7.59009 76.9561 8.22659 77.7238 8.96998C77.931 9.20305 78.1816 9.39844 78.4631 9.54655C78.7491 9.67348 79.1409 9.66808 79.3583 9.44393C79.5327 9.26434 79.62 8.95108 79.8774 8.94028C80.0375 8.94028 80.1633 9.0591 80.2649 9.17928C80.6301 9.62058 80.9277 10.1083 81.1486 10.6281C81.6071 10.5698 82.0561 10.4582 82.4856 10.296C82.0395 10.6511 82.028 11.3127 82.2411 11.8258C82.4542 12.3389 82.8403 12.771 83.0991 13.2625C83.3566 13.7904 83.5297 14.3515 83.6125 14.9274C83.7426 15.6485 83.744 16.5572 83.0662 16.911C82.4771 17.2189 81.7463 16.8907 81.2072 16.5059C79.7229 15.4554 79.4398 15.7632 78.2372 16.9245Z" fill="#01E7C0"/>
<path d="M85.1215 72.9809L93.2148 72.2805C93.5401 72.2525 93.8415 72.1045 94.0554 71.8677C94.2693 71.6309 94.3792 71.3237 94.3618 71.0107L94.356 70.8987C94.3426 70.6495 94.2492 70.4104 94.0886 70.2142C93.928 70.018 93.708 69.8742 93.4589 69.8026L92.1507 69.4261C92.0329 69.3921 91.9105 69.3747 91.7875 69.3745H88.8195C88.7383 69.3748 88.6574 69.3823 88.5777 69.3969C87.9504 69.5146 85.0642 70.0593 84.9568 70.159C84.8995 70.215 84.5561 70.4616 84.2244 70.6969C84.0259 70.8376 83.8748 71.0311 83.7899 71.2535C83.7049 71.4758 83.6899 71.7172 83.7467 71.9476L83.7712 72.0507C83.8405 72.3365 84.0157 72.5883 84.2641 72.7594C84.5124 72.9305 84.8171 73.0092 85.1215 72.9809Z" fill="#464A5F"/>
<path d="M81.1699 70.5542L84.4405 69.6577L90.5143 68.8732C90.5143 68.8732 94.3688 67.8646 94.7193 71.0025L94.3922 71.5337C94.3922 71.5337 94.7193 69.5456 90.7479 70.106C90.7479 70.106 83.6076 69.8762 83.9078 72.5715C83.9078 72.5693 81.4035 72.1232 81.1699 70.5542Z" fill="#2EC4B6"/>
<path d="M85.6067 68.6504C86.0583 68.6504 86.4243 68.6001 86.4243 68.5381C86.4243 68.4761 86.0583 68.4258 85.6067 68.4258C85.1551 68.4258 84.7891 68.4761 84.7891 68.5381C84.7891 68.6001 85.1551 68.6504 85.6067 68.6504Z" fill="#2EC4B6"/>
<path d="M92.9082 68.5933H92.3242V69.6019H92.9082V68.5933Z" fill="#2EC4B6"/>
<path d="M85.8985 68.5933H85.3145V69.6019H85.8985V68.5933Z" fill="#2EC4B6"/>
<path d="M93.3695 68.6853C93.4272 68.5407 93.0833 68.2799 92.6013 68.1027C92.1193 67.9256 91.6818 67.8992 91.6241 68.0438C91.5663 68.1884 91.9103 68.4493 92.3922 68.6264C92.8742 68.8036 93.3117 68.8299 93.3695 68.6853Z" fill="#2EC4B6"/>
<path d="M59.4465 70.3883C59.6964 70.6382 59.9511 70.8926 60.2723 71.0495C60.5901 71.1849 60.9284 71.2708 61.2745 71.3039C64.8129 71.8269 68.3388 72.4119 71.8523 73.0589C72.8416 73.2427 73.8379 73.4333 74.7724 73.802C75.2489 73.9914 75.7068 74.2267 76.174 74.4251C78.8605 75.5559 81.8975 75.483 84.8281 75.3889C85.4016 75.3709 85.9961 75.3485 86.5136 75.1188C86.9002 74.9496 87.2541 74.6279 87.2891 74.2222C87.3499 73.5173 86.5147 73.1015 85.8478 72.7978C84.2557 72.0772 82.8681 70.905 82.0294 69.4189C81.8799 69.1567 81.7585 68.8037 81.9687 68.5818C82.1264 68.4159 82.3939 68.4148 82.6286 68.4237C83.6098 68.4604 84.591 68.4506 85.5721 68.3946C86.0802 68.3643 86.753 68.1335 86.6724 67.6527C86.6374 67.4465 86.4598 67.293 86.2916 67.1585C85.4074 66.4457 84.4041 65.7117 83.2489 65.733C82.6427 65.7442 82.0645 65.9661 81.4968 66.1532C78.4389 67.1484 75.1462 67.2033 71.9189 67.1831C71.1293 67.1831 70.3338 67.1686 69.5606 67.0139C68.9255 66.8698 68.3033 66.6776 67.6999 66.439C65.7422 65.7229 63.7764 65.0023 61.9636 63.997C61.2429 63.598 60.4393 63.1363 59.6357 63.3414C59.2752 63.4537 58.9471 63.6457 58.6779 63.9017C57.7213 64.731 56.9142 65.7464 57.1863 67.0195C57.4631 68.3576 58.4957 69.4357 59.4465 70.3883Z" fill="#FBBEBE"/>
<path d="M58.9265 48.7459C59.2279 49.6817 59.4042 50.6724 59.9228 51.5163C60.473 52.4129 61.3887 53.1077 61.7064 54.1017C61.9307 54.8055 61.8232 55.5587 61.8232 56.2972C61.8232 57.1344 61.9879 57.9973 62.4703 58.6944C62.7133 59.0463 63.0298 59.3444 63.3067 59.6727C64.5343 61.1296 64.9127 63.0752 65.0657 64.94C63.8977 64.3057 62.5311 63.6512 61.2661 64.0872C60.7545 64.2642 60.3223 64.6049 59.9205 64.9579C59.1408 65.641 58.428 66.3913 57.7912 67.1993C57.4571 67.6218 57.1289 68.1385 57.2737 68.6495C56.5822 67.6857 55.8814 66.7152 55.3441 65.655C54.9633 64.8974 54.6678 64.0972 54.2111 63.3778C53.6364 62.4733 52.827 61.7303 52.146 60.8965C50.6159 59.0227 49.7573 56.7029 49.3404 54.3617C48.9234 52.0206 48.9058 49.6223 48.9187 47.242C48.9187 46.4575 48.9362 45.6416 49.2808 44.9277C49.4852 44.503 49.7971 44.1354 50.1066 43.7734C50.4991 43.3128 50.9032 42.8432 51.437 42.5406C53.1353 41.5813 54.9575 43.1716 56.0928 44.2598C57.4023 45.5128 58.3747 47.0524 58.9265 48.7459Z" fill="#192534"/>
<path d="M88.2032 43.3664C88.3606 43.5041 88.4876 43.6706 88.5769 43.8561C88.6657 44.0802 88.6424 44.3268 88.6237 44.5655C88.513 45.9869 88.618 47.4161 88.9355 48.8085C89.1259 49.6501 89.3665 50.624 88.8071 51.2975C88.7206 51.386 88.6424 51.4817 88.5734 51.5833C88.3141 52.0495 88.793 52.5572 89.1575 52.9573C90.2648 54.19 90.4423 56.1188 89.5838 57.5252C89.4214 57.7931 89.2229 58.0464 89.1318 58.3422C89.0702 58.5856 89.0458 58.8363 89.0594 59.0864L89.064 60.9613C87.8364 60.8033 86.464 60.68 85.477 61.3984C84.6441 62.0035 84.3148 63.057 83.6081 63.7899C82.9224 64.496 81.856 64.951 81.5885 65.8812L81.6025 62.0069C81.62 61.4922 81.5911 60.977 81.5161 60.4671C81.3759 59.6658 81.0127 58.916 80.8001 58.1293C80.5221 57.1005 80.5046 56.0257 80.4882 54.9622C80.4614 53.2061 80.4357 51.4309 80.8153 49.7129C80.9706 49.0135 81.1914 48.3288 81.3619 47.6328C81.6715 46.3777 81.8291 45.0709 82.3723 43.892C82.9154 42.713 83.9819 41.6438 85.3204 41.5172C86.7303 41.3816 87.3283 42.4889 88.2032 43.3664Z" fill="#192534"/>
<path d="M93.4336 68.5091C93.8246 68.2925 93.8018 67.552 93.3824 66.8552C92.9631 66.1583 92.3062 65.7691 91.9151 65.9857C91.5241 66.2023 91.5469 66.9428 91.9663 67.6396C92.3856 68.3365 93.0425 68.7257 93.4336 68.5091Z" fill="#FBBEBE"/>
<path opacity="0.1" d="M93.4336 68.5091C93.8246 68.2925 93.8018 67.552 93.3824 66.8552C92.9631 66.1583 92.3062 65.7691 91.9151 65.9857C91.5241 66.2023 91.5469 66.9428 91.9663 67.6396C92.3856 68.3365 93.0425 68.7257 93.4336 68.5091Z" fill="black"/>
<path d="M83.7413 18.5645H68.7971C68.2436 18.5645 67.7949 18.9758 67.7949 19.4833V25.3024C67.7949 25.8098 68.2436 26.2212 68.7971 26.2212H83.7413C84.2948 26.2212 84.7435 25.8098 84.7435 25.3024V19.4833C84.7435 18.9758 84.2948 18.5645 83.7413 18.5645Z" fill="#7679B4"/>
<path d="M83.7415 19.5215H70.7913C70.2378 19.5215 69.7891 19.9294 69.7891 20.4326V25.31C69.7891 25.8132 70.2378 26.2211 70.7913 26.2211H83.7415C84.295 26.2211 84.7437 25.8132 84.7437 25.31V20.4326C84.7437 19.9294 84.295 19.5215 83.7415 19.5215Z" fill="#565388"/>
<path d="M68.2041 21.436H62.3997C62.0754 21.436 61.8125 21.6773 61.8125 21.975V23.7684C61.8125 24.066 62.0754 24.3073 62.3997 24.3073H68.2041C68.5284 24.3073 68.7913 24.066 68.7913 23.7684V21.975C68.7913 21.6773 68.5284 21.436 68.2041 21.436Z" fill="#565388"/>
<path opacity="0.2" d="M195.406 42.5441L113.574 56.5988V14.4346L195.406 0.379883V42.5441Z" fill="#2EC4B6"/>
<path opacity="0.2" d="M178.452 5.24456L193.587 2.7373L193.807 9.254L178.271 11.7504L178.452 5.24456Z" fill="#2EC4B6"/>
<g opacity="0.2">
<path opacity="0.1" d="M149.013 41.628C149.526 41.5165 150.053 41.4745 150.578 41.5032C153.673 41.5557 156.884 41.8467 159.921 40.9609C161.533 40.4945 162.979 39.7245 164.642 39.3937C167.464 38.8351 170.286 39.6504 173.061 38.9707C173.625 38.8315 174.316 38.6362 174.716 38.8459C175.181 39.0882 174.852 39.7172 175.418 39.8763C175.597 39.8977 175.774 39.9364 175.945 39.992C176.152 40.1077 176.022 40.3535 175.815 40.5108C174.557 41.4924 171.996 40.8398 170.42 41.6334C170.07 41.8142 169.806 42.0419 169.479 42.2299C168.961 42.4866 168.412 42.6809 167.844 42.8084L159.091 45.1584C156.995 45.7206 154.871 46.29 152.704 46.5376C150.537 46.7853 148.289 46.6841 146.701 45.9773C146.361 45.8254 146.045 45.6392 145.915 45.3861C145.298 44.1931 146.833 42.1847 149.013 41.628Z" fill="#252223"/>
<path opacity="0.3" d="M141.291 24.9756L148.614 30.5396L155.938 36.1019L143.909 38.2874L131.881 40.471L136.586 32.7233L141.291 24.9756Z" fill="#2EC4B6"/>
<path opacity="0.3" d="M148.906 23.6885L156.23 29.2507L163.553 34.8148L151.525 36.9984L139.496 39.1839L144.201 31.4362L148.906 23.6885Z" fill="#2EC4B6"/>
<path opacity="0.2" d="M160.233 12.1138L146.1 37.9853L172.903 32.9726L182.808 31.174L160.233 12.1138Z" fill="#2EC4B6"/>
<path opacity="0.1" d="M182.807 31.174L172.902 32.9726L160.232 12.1138L182.807 31.174Z" fill="black"/>
<path opacity="0.2" d="M167.685 24.1077C167.637 23.9392 167.529 23.7924 167.38 23.6931C167.23 23.5939 167.049 23.5486 166.868 23.5654C166.868 23.5654 167.056 22.1445 164.009 22.7176C163.956 22.6151 163.88 22.5255 163.786 22.4558C163.692 22.386 163.582 22.3379 163.466 22.3152C163.349 22.2926 163.229 22.2958 163.114 22.3248C162.999 22.3538 162.893 22.4078 162.803 22.4826L162.673 21.8228C162.673 21.8228 161.003 22.7429 162.773 24.0552L162.985 25.1399C162.991 25.1673 163 25.194 163.012 25.2194C163.021 25.2391 163.029 25.2597 163.034 25.2808C163.115 25.5972 163.71 28.1045 162.359 28.9613C160.912 29.8922 160.084 27.0235 160.084 27.0235C159.144 23.2761 157.353 23.2906 156.928 23.3502C156.877 23.3502 156.824 23.3611 156.772 23.3647C156.572 23.3756 155.953 23.5889 155.716 25.749C155.432 28.3413 154.399 27.6941 154.399 27.6941C152.084 26.4812 150.449 27.5423 150.449 27.5423C146.431 29.8127 149.847 34.0716 150.552 34.8796C150.287 36.1649 149.751 38.4299 149.235 38.5239C148.506 38.6559 147.14 41.118 150.838 44.9466L151.822 44.7659C151.822 44.7659 148.78 40.948 151.175 39.0482C151.123 39.1881 151.06 39.324 150.987 39.4549C149.646 41.6584 154.209 44.3139 154.209 44.3139L155.304 44.1151L152.776 41.0547C151.771 39.7893 153.645 38.7553 153.645 38.7553C155.863 36.9729 154.721 34.8218 154.721 34.8218L159.898 33.8818C159.259 35.2412 158.318 38.5818 161.445 42.9817L162.175 42.8497L161.578 37.5134C161.578 37.5134 161.766 36.3656 163.034 34.6338C163.538 36.803 164.607 40.5467 166.221 42.114L167.278 41.9224C167.278 41.9224 165.99 38.3703 165.961 37.0416C165.948 36.4993 165.924 35.9661 165.873 35.431L165.61 32.6327C166.037 32.3725 166.372 31.9938 166.57 31.5468C166.768 31.0997 166.82 30.6053 166.72 30.1291L165.747 25.2736C165.733 25.2053 165.734 25.135 165.75 25.067C165.765 24.999 165.795 24.9348 165.837 24.8783C165.88 24.8218 165.933 24.7741 165.996 24.7383C166.058 24.7025 166.127 24.6792 166.198 24.6699L167.446 24.5072C167.491 24.4996 167.534 24.4825 167.571 24.4573C167.608 24.4321 167.64 24.3992 167.662 24.3611C167.685 24.323 167.699 24.2806 167.703 24.2368C167.707 24.193 167.7 24.1489 167.685 24.1077Z" fill="url(#paint0_linear)"/>
<path opacity="0.2" d="M162.605 33.0302C162.605 33.0302 163.776 39.7295 166.065 41.9493L167.104 41.7685C167.104 41.7685 165.839 38.2815 165.805 36.9818C165.792 36.4539 165.77 35.9261 165.719 35.4001L165.294 30.8809L162.605 33.0302Z" fill="#535461"/>
<path opacity="0.05" d="M162.605 33.0302C162.605 33.0302 163.776 39.7295 166.065 41.9493L167.104 41.7685C167.104 41.7685 165.839 38.2815 165.805 36.9818C165.792 36.4539 165.77 35.9261 165.719 35.4001L165.294 30.8809L162.605 33.0302Z" fill="black"/>
<path opacity="0.2" d="M150.849 33.9907C150.849 33.9907 150.097 38.2948 149.386 38.425C148.675 38.5551 147.328 40.972 150.96 44.7302L151.927 44.5494C151.927 44.5494 148.579 40.3483 151.764 38.6292C151.762 38.6347 152.317 35.041 150.849 33.9907Z" fill="#535461"/>
<path opacity="0.05" d="M150.849 33.9907C150.849 33.9907 150.097 38.2948 149.386 38.425C148.675 38.5551 147.328 40.972 150.96 44.7302L151.927 44.5494C151.927 44.5494 148.579 40.3483 151.764 38.6292C151.762 38.6347 152.317 35.041 150.849 33.9907Z" fill="black"/>
<path opacity="0.2" d="M162.893 25.2937L162.684 24.2344C160.948 22.9473 162.586 22.0435 162.586 22.0435L162.81 23.1787C166.924 22.0398 166.704 23.7535 166.704 23.7535C166.881 23.7362 167.058 23.7795 167.205 23.8758C167.352 23.9721 167.458 24.1151 167.505 24.2796C167.521 24.3209 167.526 24.365 167.521 24.4086C167.517 24.4522 167.502 24.4942 167.478 24.5316C167.454 24.569 167.422 24.6009 167.384 24.6248C167.346 24.6488 167.302 24.6642 167.257 24.67L166.032 24.8309C165.962 24.84 165.894 24.8628 165.833 24.898C165.772 24.9332 165.719 24.98 165.678 25.0355C165.636 25.091 165.607 25.154 165.591 25.2208C165.576 25.2876 165.575 25.3567 165.589 25.4238L166.542 30.1907C166.612 30.5318 166.603 30.8833 166.516 31.2208C166.43 31.5582 166.268 31.8736 166.042 32.1448C165.688 32.5624 165.122 32.9384 164.219 33.0757L154.768 34.793C154.768 34.793 155.896 36.9062 153.71 38.6542C153.71 38.6542 151.871 39.6647 152.856 40.912L155.338 43.9164L154.264 44.1116C154.264 44.1116 149.784 41.505 151.101 39.3412C151.459 38.6535 151.619 37.8868 151.566 37.1198C151.513 36.3528 151.248 35.6133 150.798 34.9774C150.798 34.9774 146.208 30.1111 150.578 27.6418C150.578 27.6418 152.19 26.6006 154.463 27.7919C154.463 27.7919 155.477 28.4264 155.755 25.883C155.987 23.7626 156.594 23.5529 156.79 23.542C156.841 23.542 156.892 23.542 156.942 23.5276C157.36 23.4697 159.123 23.4553 160.043 27.1339C160.043 27.1339 160.855 29.943 162.272 29.0446C163.598 28.204 163.024 25.742 162.936 25.4292C162.93 25.4087 162.923 25.3888 162.913 25.3696C162.903 25.3452 162.897 25.3197 162.893 25.2937Z" fill="#535461"/>
<path opacity="0.2" d="M160.225 33.213C160.225 33.213 157.316 37.0905 161.37 42.7937L162.087 42.6636L161.502 37.4213C161.502 37.4213 161.848 35.2213 164.988 32.3345L160.225 33.213Z" fill="#535461"/>
<path opacity="0.2" d="M163.355 23.9809C163.771 23.9055 164.044 23.5205 163.965 23.121C163.887 22.7215 163.486 22.4589 163.071 22.5343C162.655 22.6097 162.382 22.9947 162.461 23.3942C162.539 23.7937 162.94 24.0564 163.355 23.9809Z" fill="#535461"/>
<path opacity="0.2" d="M159.989 28.0739C160.873 26.7814 160.347 26.6964 160.004 26.3566C159.771 26.1252 157.811 26.0366 156.59 26.0041C156.564 25.9137 156.522 25.7618 156.473 25.5775C156.473 25.5775 156.375 25.2376 156.33 24.999H156.407L156.396 24.9285L157.901 24.8508C159.186 24.8002 159.248 24.3085 159.248 24.3085C159.278 23.4643 157.828 24.2741 157.828 24.2741C157.54 24.4097 156.776 24.3085 156.18 24.1964C156.163 24.0765 156.154 23.9558 156.152 23.8349C156.159 23.6479 156.146 23.4607 156.114 23.2763C156.093 23.117 156.028 22.966 155.926 22.8388C155.485 22.3321 154.975 21.8846 154.41 21.5084C154.376 21.1894 154.407 20.8672 154.5 20.5593C154.728 20.4467 154.913 20.2667 155.026 20.0457C155.14 19.8248 155.177 19.5746 155.132 19.3319C155.11 19.2208 155.071 19.1135 155.015 19.0138C155.284 18.6703 155.158 18.0828 154.786 17.761C154.746 17.7267 154.703 17.6958 154.658 17.6689C154.416 17.5136 154.124 17.4493 153.836 17.4881C153.515 17.5385 153.21 17.6584 152.944 17.8388C152.626 18.0412 152.318 18.2979 151.938 18.3377C151.663 18.3666 151.373 18.2762 151.116 18.3576C150.775 18.4624 150.6 18.8113 150.491 19.1313C150.382 19.4512 150.277 19.8037 149.981 19.9953C149.723 20.1616 149.39 20.1598 149.088 20.2303C148.876 20.2731 148.679 20.3652 148.513 20.4986C148.347 20.6319 148.218 20.8024 148.138 20.995C148.078 21.1684 148.079 21.3559 148.141 21.5286C148.203 21.7013 148.322 21.8498 148.48 21.9513C148.53 21.9864 148.584 22.0149 148.642 22.0362C148.706 22.0553 148.769 22.0788 148.83 22.1067C148.847 22.1185 148.861 22.1334 148.871 22.1504C148.882 22.1675 148.889 22.1864 148.892 22.2061C148.893 22.2555 148.882 22.3043 148.86 22.3489C148.825 22.4486 148.812 22.5542 148.821 22.659C148.831 22.7638 148.862 22.8657 148.915 22.9581C148.949 23.0256 149.003 23.0821 149.071 23.1208C149.09 23.136 149.11 23.1488 149.133 23.1588C149.353 23.251 149.626 23.0431 149.844 23.1371H149.861C149.946 23.2252 150.019 23.323 150.079 23.4281C150.131 23.4902 150.195 23.5418 150.267 23.58C150.459 23.7005 150.69 23.7481 150.916 23.7137C151.203 23.6606 151.477 23.555 151.723 23.4028C152.056 23.2221 152.419 22.9708 152.446 22.6129C152.461 22.3941 152.342 22.1826 152.37 21.9657C152.386 21.8621 152.429 21.7642 152.496 21.6819C152.459 21.8651 152.446 22.0522 152.457 22.2387C152.464 22.3899 152.483 22.5404 152.513 22.6888C152.585 23.0768 152.73 23.4488 152.942 23.786C153.227 24.2249 153.436 24.7054 153.561 25.2087C153.606 25.4305 153.609 25.6581 153.572 25.8812C153.452 26.5283 153.465 26.8067 153.499 26.9242C153.52 27.0833 153.574 27.0851 153.574 27.0851H153.588C153.593 27.1947 153.623 27.302 153.673 27.4006C153.723 27.4991 153.794 27.5867 153.881 27.6581C155.583 28.3342 159.047 27.3761 159.047 27.3761C158.347 27.6129 157.847 29.4549 157.847 29.4549C157.77 29.8559 157.596 30.2338 157.339 30.5576C156.962 30.5034 156.518 30.9083 156.184 31.1451L156.155 31.1632C156.123 31.1846 156.095 31.2125 156.075 31.2449C156.054 31.2774 156.041 31.3137 156.037 31.3514C156.032 31.389 156.036 31.4272 156.048 31.4634C156.06 31.4995 156.08 31.5328 156.106 31.5609L157.438 32.9636C158.206 33.4861 158.648 33.5204 158.772 33.3722C158.853 33.2746 158.799 33.101 158.61 32.9329C158.155 32.5262 158.221 31.2066 158.234 31.0945C158.443 30.6426 159.246 29.1603 159.989 28.0739Z" fill="url(#paint1_linear)"/>
<path opacity="0.2" d="M154.606 20.3932C154.606 20.3932 154.218 21.2482 154.474 21.9839L153.031 21.2482C153.031 21.2482 153.49 21.1289 153.394 20.0786L154.606 20.3932Z" fill="#F9D5C6"/>
<path opacity="0.2" d="M155.573 26.0599C155.573 26.0599 159.402 26.1124 159.727 26.445C160.053 26.7776 160.551 26.8662 159.727 28.1207C158.903 29.3752 157.993 31.1793 157.993 31.1793L157.018 30.7509C157.372 30.3921 157.605 29.9402 157.69 29.453C157.69 29.453 158.153 27.6579 158.819 27.432C158.819 27.432 155.551 28.3467 153.927 27.6778C153.927 27.6778 153.495 27.3651 153.696 26.6872C153.897 26.0093 155.573 26.0599 155.573 26.0599Z" fill="#353535"/>
<path opacity="0.1" d="M153.446 21.2804C153.446 21.2804 152.491 21.0545 152.56 22.4627C152.588 22.973 152.744 23.4693 153.016 23.9088C153.326 24.4186 153.768 25.2953 153.638 26.0238C153.45 27.1265 153.638 27.1283 153.638 27.1283L154.127 26.8427C154.786 26.4559 155.543 26.2497 156.315 26.2461H156.543C156.543 26.2461 156.084 24.6626 156.074 23.9612C156.074 23.6286 156.074 23.3195 155.866 23.0574C155.213 22.2475 153.903 21.2786 153.446 21.2804Z" fill="black"/>
<path opacity="0.2" d="M153.435 21.2155C153.435 21.2155 152.479 20.9895 152.549 22.3977C152.576 22.9081 152.732 23.4044 153.004 23.8439C153.314 24.3536 153.756 25.2303 153.626 25.9588C153.438 27.0615 153.626 27.0633 153.626 27.0633L154.116 26.7777C154.775 26.391 155.531 26.1847 156.303 26.1812H156.531C156.531 26.1812 156.072 24.5977 156.063 23.8963C156.063 23.5637 156.063 23.2545 155.854 22.9924C155.201 22.179 153.892 21.2155 153.435 21.2155Z" fill="#409CD6"/>
<path opacity="0.1" d="M153.078 22.3431C153.118 22.2392 153.184 22.1464 153.27 22.0733C153.356 22.0002 153.46 21.949 153.573 21.9246C153.685 21.9001 153.802 21.9031 153.913 21.9333C154.023 21.9634 154.125 22.0198 154.207 22.0973C154.354 22.2462 154.472 22.4203 154.553 22.6106C155.006 23.5976 155.351 24.2122 155.351 24.2122C155.642 24.2538 155.93 24.3179 156.21 24.4039C156.254 24.7419 156.31 25.0926 156.31 25.0926L155.089 25.1504L153.417 23.2451C153.417 23.2451 152.907 22.842 153.078 22.3431Z" fill="black"/>
<path opacity="0.2" d="M153.064 22.2733C153.103 22.1693 153.169 22.0766 153.256 22.0035C153.342 21.9303 153.446 21.8792 153.558 21.8547C153.671 21.8303 153.788 21.8333 153.898 21.8635C154.009 21.8936 154.11 21.95 154.192 22.0274C154.34 22.1764 154.457 22.3505 154.539 22.5408C154.992 23.5278 155.336 24.1424 155.336 24.1424C155.336 24.1424 157.174 24.6287 157.648 24.3991C157.648 24.3991 159.014 23.6164 158.991 24.4407C158.991 24.4407 158.937 24.9143 157.722 24.9559L155.077 25.0806L153.404 23.1753C153.404 23.1753 152.894 22.765 153.064 22.2733Z" fill="#F9D5C6"/>
<path opacity="0.1" d="M153.283 20.5432C153.319 20.3785 153.4 20.4418 153.373 20.1523L154.585 20.4672C154.535 20.5848 154.493 20.7057 154.461 20.829C154.34 20.869 154.213 20.8916 154.085 20.896C153.817 20.9466 153.511 20.6644 153.283 20.5432Z" fill="black"/>
<path opacity="0.2" d="M154.144 20.8782C154.777 20.7633 155.193 20.1771 155.073 19.5689C154.954 18.9607 154.344 18.5608 153.711 18.6757C153.078 18.7906 152.661 19.3768 152.781 19.9851C152.901 20.5933 153.511 20.9932 154.144 20.8782Z" fill="#F9D5C6"/>
<path opacity="0.1" d="M154.405 19.5092C154.198 19.52 153.972 19.4567 153.797 19.5616C153.622 19.6664 153.571 19.9539 153.609 20.178C153.647 20.4022 153.744 20.6281 153.69 20.8505C153.616 21.1415 153.314 21.3205 153.05 21.4741C152.787 21.6278 152.486 21.8356 152.458 22.1285C152.433 22.34 152.546 22.5479 152.533 22.7612C152.51 23.1101 152.17 23.3505 151.854 23.5276C151.626 23.6732 151.37 23.7746 151.101 23.8259C150.965 23.8493 150.824 23.8375 150.693 23.7918C150.563 23.7461 150.447 23.6681 150.358 23.5656C150.274 23.4535 150.223 23.3035 150.091 23.2456C149.884 23.1516 149.626 23.3541 149.419 23.2637C149.347 23.2266 149.288 23.1676 149.254 23.0956C149.204 23.0052 149.174 22.9062 149.164 22.8044C149.155 22.7026 149.167 22.6 149.199 22.5027C149.22 22.4589 149.229 22.4113 149.228 22.3635C149.211 22.2496 149.066 22.2116 148.953 22.1701C148.767 22.0847 148.62 21.9372 148.539 21.7553C148.458 21.5734 148.449 21.3693 148.513 21.1813C148.585 20.9957 148.705 20.8307 148.861 20.7012C149.017 20.5717 149.205 20.4819 149.406 20.4401C149.692 20.3714 150.008 20.375 150.249 20.216C150.528 20.0352 150.625 19.6863 150.725 19.3754C150.825 19.0645 150.988 18.7246 151.31 18.6252C151.558 18.5475 151.827 18.6361 152.087 18.6107C152.446 18.5746 152.736 18.3251 153.028 18.1299C153.277 17.9555 153.565 17.8397 153.869 17.7919C154.021 17.7692 154.176 17.7785 154.324 17.8191C154.472 17.8596 154.61 17.9305 154.726 18.0269C155.246 18.4806 155.278 19.464 154.405 19.5092Z" fill="black"/>
<path opacity="0.2" d="M154.362 19.4821C154.155 19.493 153.929 19.4297 153.754 19.5345C153.579 19.6394 153.528 19.9268 153.566 20.1509C153.604 20.3751 153.702 20.6011 153.647 20.8234C153.574 21.1144 153.271 21.2934 153.007 21.4471C152.744 21.6007 152.443 21.8086 152.415 22.1014C152.39 22.3129 152.503 22.5208 152.49 22.7341C152.467 23.083 152.127 23.3234 151.811 23.5006C151.583 23.6462 151.327 23.7475 151.058 23.7989C150.922 23.8223 150.782 23.8109 150.652 23.7659C150.522 23.7208 150.406 23.6437 150.317 23.5422C150.233 23.4301 150.182 23.2801 150.05 23.2222C149.843 23.1282 149.585 23.3307 149.378 23.2403C149.306 23.2032 149.247 23.1441 149.213 23.0722C149.163 22.9818 149.133 22.8828 149.123 22.781C149.114 22.6792 149.126 22.5766 149.158 22.4792C149.179 22.4355 149.188 22.3879 149.187 22.3401C149.17 22.2262 149.025 22.1882 148.912 22.1466C148.726 22.0612 148.579 21.9138 148.498 21.7319C148.417 21.5499 148.408 21.3459 148.472 21.1578C148.544 20.9723 148.664 20.8072 148.82 20.6777C148.976 20.5483 149.164 20.4585 149.365 20.4167C149.651 20.348 149.967 20.3516 150.208 20.1925C150.486 20.0118 150.584 19.6629 150.684 19.352C150.784 19.041 150.947 18.7012 151.269 18.6018C151.517 18.524 151.786 18.6126 152.046 18.5873C152.405 18.5512 152.695 18.3017 152.987 18.1065C153.236 17.9321 153.524 17.8163 153.828 17.7684C153.98 17.7458 154.135 17.7551 154.283 17.7956C154.431 17.8362 154.569 17.9071 154.685 18.0034C155.203 18.4535 155.235 19.4351 154.362 19.4821Z" fill="#2F302F"/>
<path opacity="0.1" d="M154.705 22.3166C154.705 22.3166 153.2 22.4106 153.328 23.4211C153.456 24.4316 152.805 22.2696 152.805 22.2696L153.39 21.6641L154.225 21.7617L154.705 22.3166Z" fill="black"/>
<path opacity="0.2" d="M154.664 22.2873C154.664 22.2873 153.159 22.3813 153.287 23.3918C153.415 24.4023 152.764 22.2403 152.764 22.2403L153.349 21.6348L154.184 21.7324L154.664 22.2873Z" fill="#409CD6"/>
<path opacity="0.2" d="M156.053 31.4923L157.321 32.868C158.05 33.3813 158.468 33.4103 158.585 33.2747C158.66 33.1807 158.607 33.0108 158.429 32.8463C157.975 32.4305 158.052 31.0386 158.052 31.0386C157.873 31.044 157.696 30.9967 157.545 30.9031C157.394 30.8094 157.276 30.6738 157.208 30.5144C156.848 30.4601 156.434 30.8524 156.118 31.0802L156.092 31.0982C156.061 31.1202 156.034 31.1484 156.015 31.1809C155.995 31.2134 155.984 31.2494 155.98 31.2867C155.976 31.324 155.981 31.3616 155.993 31.397C156.006 31.4325 156.026 31.465 156.053 31.4923Z" fill="#409CD6"/>
<path opacity="0.1" d="M158.054 31.0428C158.054 31.0428 157.331 31.1387 157.209 30.5181C157.28 30.6759 157.398 30.81 157.549 30.9033C157.699 30.9967 157.875 31.0452 158.054 31.0428Z" fill="black"/>
<path opacity="0.1" d="M156.054 31.4922L157.322 32.8678C158.052 33.3812 158.469 33.4101 158.586 33.2745C158.221 33.1661 157.188 32.7322 156.123 31.0854L156.097 31.1035C156.066 31.1252 156.04 31.1529 156.021 31.1848C156.002 31.2167 155.99 31.252 155.986 31.2886C155.982 31.3252 155.986 31.3623 155.997 31.3973C156.009 31.4324 156.028 31.4647 156.054 31.4922Z" fill="black"/>
<path opacity="0.2" d="M135.295 42.2591C135.295 42.2591 131.941 45.1405 139.585 47.2465C139.585 47.2465 140.582 44.224 138.443 42.297C138.027 41.921 137.482 41.7044 136.912 41.6885C136.341 41.6725 135.784 41.8581 135.346 42.2103L135.295 42.2591Z" fill="#2EC4B6"/>
<path opacity="0.2" d="M135.328 42.2046C135.328 42.2046 139.04 43.9924 139.585 47.2462" stroke="#535461" stroke-miterlimit="10"/>
<path opacity="0.2" d="M139.375 47.2768C139.375 47.2768 137.428 43.6216 138.276 40.5178C138.642 39.2151 138.558 37.8333 138.035 36.5807C137.783 35.9891 137.475 35.4209 137.115 34.8833" stroke="#535461" stroke-width="2" stroke-miterlimit="10"/>
<path opacity="0.2" d="M137.637 32.9324C137.731 33.406 137.107 34.9444 137.107 34.9444C137.107 34.9444 135.942 33.7314 135.85 33.2578C135.805 33.0301 135.856 32.7945 135.992 32.603C136.128 32.4115 136.337 32.2796 136.574 32.2365C136.811 32.1933 137.056 32.2424 137.256 32.3729C137.455 32.5034 137.592 32.7047 137.637 32.9324Z" fill="#2EC4B6"/>
<path opacity="0.2" d="M139.631 35.292C139.443 35.7385 138.049 36.7038 138.049 36.7038C138.049 36.7038 137.757 35.0768 137.947 34.6304C137.992 34.5235 138.059 34.4263 138.143 34.3442C138.228 34.2622 138.328 34.1969 138.439 34.152C138.549 34.1072 138.668 34.0838 138.788 34.083C138.908 34.0823 139.027 34.1043 139.138 34.1477C139.249 34.1911 139.35 34.2552 139.436 34.3362C139.521 34.4172 139.589 34.5136 139.636 34.6199C139.682 34.7261 139.707 34.8402 139.708 34.9555C139.708 35.0708 139.685 35.1851 139.64 35.292H139.631Z" fill="#2EC4B6"/>
<path opacity="0.2" d="M140.451 39.7928C140.052 40.0857 138.342 40.2448 138.342 40.2448C138.342 40.2448 138.946 38.6992 139.343 38.4064C139.534 38.2654 139.776 38.2033 140.015 38.2336C140.254 38.2639 140.47 38.3843 140.617 38.5681C140.764 38.752 140.829 38.9843 140.797 39.214C140.765 39.4437 140.64 39.6519 140.449 39.7928H140.451Z" fill="#2EC4B6"/>
<path opacity="0.2" d="M140.271 43.3322C139.931 43.6938 138.273 44.1186 138.273 44.1186C138.273 44.1186 138.595 42.4917 138.938 42.1446C139.019 42.0604 139.116 41.9925 139.225 41.9445C139.333 41.8966 139.451 41.8697 139.57 41.8654C139.689 41.861 139.808 41.8793 139.92 41.9191C140.032 41.959 140.135 42.0196 140.222 42.0976C140.31 42.1756 140.381 42.2694 140.431 42.3736C140.48 42.4779 140.508 42.5905 140.513 42.7052C140.517 42.8198 140.498 42.9342 140.457 43.0418C140.416 43.1494 140.352 43.2481 140.271 43.3322Z" fill="#2EC4B6"/>
<path opacity="0.2" d="M136.192 37.1358C136.611 37.4015 138.327 37.4449 138.327 37.4449C138.327 37.4449 137.614 35.9445 137.198 35.677C137.098 35.6137 136.987 35.5699 136.87 35.5481C136.752 35.5263 136.632 35.527 136.515 35.5499C136.398 35.5729 136.286 35.6179 136.187 35.6822C136.088 35.7464 136.004 35.8288 135.938 35.9246C135.872 36.0204 135.826 36.1277 135.804 36.2404C135.781 36.3531 135.782 36.469 135.806 36.5815C135.829 36.6939 135.876 36.8008 135.943 36.8959C136.01 36.991 136.096 37.0725 136.195 37.1358H136.192Z" fill="#2EC4B6"/>
<path opacity="0.2" d="M136.037 41.2815C136.52 41.4153 138.17 40.9614 138.17 40.9614C138.17 40.9614 137.023 39.7333 136.539 39.5994C136.307 39.5354 136.059 39.5625 135.848 39.6748C135.637 39.787 135.481 39.9753 135.414 40.1981C135.348 40.4209 135.376 40.66 135.493 40.8629C135.609 41.0657 135.805 41.2156 136.037 41.2797V41.2815Z" fill="#2EC4B6"/>
<path opacity="0.2" d="M136.455 45.3253C136.907 45.5351 138.615 45.3578 138.615 45.3578C138.615 45.3578 137.699 43.9615 137.247 43.7517C137.03 43.6508 136.78 43.6369 136.552 43.7132C136.324 43.7895 136.137 43.9498 136.032 44.1587C135.927 44.3676 135.913 44.608 135.992 44.8272C136.071 45.0463 136.238 45.2261 136.455 45.3271V45.3253Z" fill="#2EC4B6"/>
<path opacity="0.25" d="M137.637 32.9324C137.731 33.406 137.107 34.9444 137.107 34.9444C137.107 34.9444 135.942 33.7314 135.85 33.2578C135.805 33.0301 135.856 32.7945 135.992 32.603C136.128 32.4115 136.337 32.2796 136.574 32.2365C136.811 32.1933 137.056 32.2424 137.256 32.3729C137.455 32.5034 137.592 32.7047 137.637 32.9324Z" fill="black"/>
<path opacity="0.25" d="M139.631 35.292C139.443 35.7385 138.049 36.7038 138.049 36.7038C138.049 36.7038 137.757 35.0768 137.947 34.6304C137.992 34.5235 138.059 34.4263 138.143 34.3442C138.228 34.2622 138.328 34.1969 138.439 34.152C138.549 34.1072 138.668 34.0838 138.788 34.083C138.908 34.0823 139.027 34.1043 139.138 34.1477C139.249 34.1911 139.35 34.2552 139.436 34.3362C139.521 34.4172 139.589 34.5136 139.636 34.6199C139.682 34.7261 139.707 34.8402 139.708 34.9555C139.708 35.0708 139.685 35.1851 139.64 35.292H139.631Z" fill="black"/>
<path opacity="0.25" d="M140.451 39.7928C140.052 40.0857 138.342 40.2448 138.342 40.2448C138.342 40.2448 138.946 38.6992 139.343 38.4064C139.534 38.2654 139.776 38.2033 140.015 38.2336C140.254 38.2639 140.47 38.3843 140.617 38.5681C140.764 38.752 140.829 38.9843 140.797 39.214C140.765 39.4437 140.64 39.6519 140.449 39.7928H140.451Z" fill="black"/>
<path opacity="0.25" d="M140.271 43.3322C139.931 43.6938 138.273 44.1186 138.273 44.1186C138.273 44.1186 138.595 42.4917 138.938 42.1446C139.019 42.0604 139.116 41.9925 139.225 41.9445C139.333 41.8966 139.451 41.8697 139.57 41.8654C139.689 41.861 139.808 41.8793 139.92 41.9191C140.032 41.959 140.135 42.0196 140.222 42.0976C140.31 42.1756 140.381 42.2694 140.431 42.3736C140.48 42.4779 140.508 42.5905 140.513 42.7052C140.517 42.8198 140.498 42.9342 140.457 43.0418C140.416 43.1494 140.352 43.2481 140.271 43.3322Z" fill="black"/>
<path opacity="0.25" d="M136.192 37.1358C136.611 37.4015 138.327 37.4449 138.327 37.4449C138.327 37.4449 137.614 35.9445 137.198 35.677C137.098 35.6137 136.987 35.5699 136.87 35.5481C136.752 35.5263 136.632 35.527 136.515 35.5499C136.398 35.5729 136.286 35.6179 136.187 35.6822C136.088 35.7464 136.004 35.8288 135.938 35.9246C135.872 36.0204 135.826 36.1277 135.804 36.2404C135.781 36.3531 135.782 36.469 135.806 36.5815C135.829 36.6939 135.876 36.8008 135.943 36.8959C136.01 36.991 136.096 37.0725 136.195 37.1358H136.192Z" fill="black"/>
<path opacity="0.25" d="M136.037 41.2815C136.52 41.4153 138.17 40.9614 138.17 40.9614C138.17 40.9614 137.023 39.7333 136.539 39.5994C136.307 39.5354 136.059 39.5625 135.848 39.6748C135.637 39.787 135.481 39.9753 135.414 40.1981C135.348 40.4209 135.376 40.66 135.493 40.8629C135.609 41.0657 135.805 41.2156 136.037 41.2797V41.2815Z" fill="black"/>
<path opacity="0.25" d="M136.455 45.3253C136.907 45.5351 138.615 45.3578 138.615 45.3578C138.615 45.3578 137.699 43.9615 137.247 43.7517C137.03 43.6508 136.78 43.6369 136.552 43.7132C136.324 43.7895 136.137 43.9498 136.032 44.1587C135.927 44.3676 135.913 44.608 135.992 44.8272C136.071 45.0463 136.238 45.2261 136.455 45.3271V45.3253Z" fill="black"/>
<path opacity="0.2" d="M143.041 47.9694C143.041 47.9694 141.094 44.3143 141.942 41.2105C142.307 39.9108 142.223 38.5324 141.703 37.2824C141.451 36.6908 141.143 36.1226 140.783 35.585" stroke="#535461" stroke-width="2" stroke-miterlimit="10"/>
<path opacity="0.2" d="M141.311 33.6233C141.405 34.097 140.78 35.6353 140.78 35.6353C140.78 35.6353 139.616 34.4223 139.524 33.9487C139.479 33.721 139.53 33.4855 139.666 33.2939C139.802 33.1024 140.011 32.9705 140.248 32.9274C140.485 32.8842 140.73 32.9333 140.929 33.0638C141.129 33.1944 141.266 33.3956 141.311 33.6233Z" fill="#2EC4B6"/>
<path opacity="0.2" d="M143.305 35.9819C143.117 36.4284 141.723 37.3937 141.723 37.3937C141.723 37.3937 141.431 35.7668 141.621 35.3203C141.712 35.1046 141.889 34.9325 142.112 34.842C142.336 34.7515 142.587 34.7499 142.812 34.8376C143.036 34.9254 143.215 35.0952 143.31 35.3098C143.404 35.5244 143.405 35.7662 143.314 35.9819H143.305Z" fill="#2EC4B6"/>
<path opacity="0.2" d="M144.124 40.4833C143.726 40.7761 142.016 40.9352 142.016 40.9352C142.016 40.9352 142.619 39.3896 143.016 39.0968C143.208 38.9558 143.45 38.8937 143.689 38.924C143.928 38.9544 144.144 39.0747 144.291 39.2586C144.438 39.4424 144.502 39.6748 144.471 39.9044C144.439 40.1341 144.314 40.3423 144.123 40.4833H144.124Z" fill="#2EC4B6"/>
<path opacity="0.2" d="M143.945 44.0232C143.605 44.3847 141.947 44.8095 141.947 44.8095C141.947 44.8095 142.269 43.1826 142.611 42.8355C142.775 42.6655 143.003 42.5651 143.244 42.5563C143.485 42.5475 143.719 42.631 143.896 42.7885C144.073 42.946 144.178 43.1646 144.187 43.3961C144.196 43.6276 144.109 43.8532 143.945 44.0232Z" fill="#2EC4B6"/>
<path opacity="0.2" d="M139.866 37.8267C140.285 38.0924 142.001 38.1358 142.001 38.1358C142.001 38.1358 141.288 36.6354 140.872 36.3679C140.772 36.3046 140.661 36.2608 140.543 36.239C140.426 36.2173 140.305 36.2179 140.188 36.2409C140.071 36.2639 139.96 36.3088 139.861 36.3731C139.762 36.4374 139.677 36.5197 139.612 36.6155C139.546 36.7113 139.5 36.8186 139.477 36.9313C139.455 37.044 139.455 37.1599 139.479 37.2724C139.503 37.3849 139.55 37.4917 139.617 37.5868C139.684 37.6819 139.77 37.7634 139.869 37.8267H139.866Z" fill="#2EC4B6"/>
<path opacity="0.2" d="M139.711 41.9704C140.194 42.1043 141.844 41.6503 141.844 41.6503C141.844 41.6503 140.697 40.4222 140.213 40.2884C139.981 40.2244 139.733 40.2515 139.522 40.3637C139.311 40.476 139.155 40.6643 139.088 40.8871C139.022 41.1099 139.05 41.349 139.166 41.5518C139.283 41.7547 139.479 41.9046 139.711 41.9686V41.9704Z" fill="#2EC4B6"/>
<path opacity="0.2" d="M140.135 46.0157C140.587 46.2255 142.295 46.0483 142.295 46.0483C142.295 46.0483 141.379 44.652 140.927 44.4422C140.819 44.3922 140.703 44.363 140.583 44.3564C140.464 44.3498 140.345 44.3659 140.232 44.4037C140.119 44.4414 140.015 44.5002 139.926 44.5767C139.836 44.6531 139.764 44.7457 139.712 44.8491C139.66 44.9526 139.629 45.0648 139.623 45.1795C139.616 45.2942 139.632 45.4091 139.672 45.5176C139.711 45.6261 139.772 45.7261 139.852 45.8119C139.931 45.8976 140.027 45.9675 140.135 46.0175V46.0157Z" fill="#2EC4B6"/>
<path opacity="0.1" d="M150.813 14.5634L150.482 14.623C150.543 14.6118 150.598 14.5775 150.633 14.5279C150.668 14.4782 150.681 14.4172 150.669 14.3582C150.657 14.2992 150.622 14.2472 150.57 14.2134C150.518 14.1797 150.455 14.1671 150.394 14.1783L147.713 14.6646C147.651 14.6759 147.597 14.7101 147.562 14.7598C147.527 14.8094 147.514 14.8705 147.526 14.9294C147.537 14.9884 147.573 15.0405 147.625 15.0742C147.676 15.1079 147.74 15.1206 147.801 15.1093L148.132 15.0496C148.102 15.0552 148.073 15.0665 148.047 15.0828C148.021 15.0992 147.999 15.1202 147.982 15.1448C147.964 15.1694 147.952 15.197 147.946 15.2261C147.94 15.2553 147.939 15.2853 147.945 15.3145C147.951 15.3437 147.963 15.3715 147.98 15.3963C147.997 15.4212 148.019 15.4425 148.044 15.4592C148.07 15.476 148.099 15.4876 148.129 15.4937C148.159 15.4997 148.19 15.4999 148.221 15.4943L147.758 15.5793C147.697 15.5906 147.642 15.6248 147.607 15.6745C147.572 15.7241 147.559 15.7852 147.571 15.8441C147.583 15.9031 147.618 15.9552 147.67 15.9889C147.722 16.0226 147.785 16.0353 147.846 16.024L150.527 15.5377C150.558 15.5321 150.587 15.5209 150.612 15.5045C150.638 15.4882 150.66 15.4671 150.678 15.4426C150.695 15.418 150.707 15.3903 150.714 15.3612C150.72 15.3321 150.72 15.3021 150.714 15.2729C150.709 15.2437 150.697 15.2159 150.68 15.191C150.663 15.1662 150.641 15.1448 150.615 15.1281C150.59 15.1114 150.561 15.0997 150.531 15.0937C150.5 15.0877 150.469 15.0874 150.439 15.093L150.902 15.0081C150.932 15.0025 150.961 14.9912 150.987 14.9749C151.013 14.9586 151.035 14.9375 151.052 14.9129C151.07 14.8883 151.082 14.8607 151.088 14.8316C151.094 14.8025 151.095 14.7724 151.089 14.7432C151.083 14.714 151.071 14.6862 151.054 14.6614C151.037 14.6365 151.015 14.6152 150.99 14.5985C150.964 14.5818 150.935 14.5701 150.905 14.564C150.875 14.558 150.844 14.5578 150.813 14.5634Z" fill="#252223"/>
<path opacity="0.1" d="M145.957 18.9867L145.626 19.0464C145.657 19.0408 145.686 19.0295 145.712 19.0132C145.737 18.9969 145.76 18.9758 145.777 18.9512C145.794 18.9266 145.807 18.899 145.813 18.8699C145.819 18.8408 145.819 18.8107 145.814 18.7815C145.808 18.7523 145.796 18.7245 145.779 18.6997C145.762 18.6748 145.74 18.6535 145.714 18.6368C145.689 18.6201 145.66 18.6084 145.63 18.6023C145.6 18.5963 145.568 18.5961 145.538 18.6017L142.852 19.0879C142.79 19.0992 142.736 19.1334 142.701 19.1831C142.666 19.2328 142.653 19.2938 142.664 19.3528C142.676 19.4117 142.712 19.4638 142.763 19.4975C142.815 19.5313 142.879 19.5439 142.94 19.5326L143.271 19.473C143.241 19.4786 143.212 19.4898 143.186 19.5062C143.16 19.5225 143.138 19.5435 143.12 19.5681C143.103 19.5927 143.091 19.6204 143.085 19.6495C143.078 19.6786 143.078 19.7086 143.084 19.7378C143.09 19.767 143.101 19.7948 143.118 19.8197C143.135 19.8445 143.157 19.8659 143.183 19.8826C143.208 19.8993 143.237 19.911 143.268 19.917C143.298 19.923 143.329 19.9232 143.359 19.9177L142.897 20.0026C142.866 20.0082 142.837 20.0195 142.811 20.0358C142.786 20.0521 142.763 20.0732 142.746 20.0978C142.729 20.1224 142.716 20.15 142.71 20.1791C142.704 20.2082 142.704 20.2383 142.709 20.2675C142.715 20.2967 142.727 20.3245 142.744 20.3493C142.761 20.3742 142.783 20.3955 142.809 20.4122C142.834 20.4289 142.863 20.4406 142.893 20.4467C142.923 20.4527 142.955 20.4529 142.985 20.4473L145.673 19.9611C145.704 19.9555 145.733 19.9442 145.759 19.9279C145.784 19.9115 145.807 19.8905 145.824 19.8659C145.841 19.8413 145.854 19.8137 145.86 19.7845C145.866 19.7554 145.866 19.7254 145.861 19.6962C145.855 19.667 145.843 19.6392 145.826 19.6144C145.809 19.5895 145.787 19.5682 145.762 19.5515C145.736 19.5347 145.707 19.5231 145.677 19.517C145.647 19.511 145.615 19.5108 145.585 19.5164L146.048 19.4314C146.078 19.4258 146.107 19.4145 146.133 19.3982C146.159 19.3819 146.181 19.3608 146.198 19.3362C146.216 19.3117 146.228 19.284 146.234 19.2549C146.24 19.2258 146.241 19.1958 146.235 19.1666C146.229 19.1374 146.217 19.1096 146.2 19.0847C146.183 19.0599 146.161 19.0385 146.136 19.0218C146.11 19.0051 146.082 18.9934 146.051 18.9874C146.021 18.9814 145.99 18.9811 145.959 18.9867H145.957Z" fill="#252223"/>
<path opacity="0.1" d="M173.382 13.3368L173.05 13.3965C173.081 13.3909 173.11 13.3796 173.136 13.3633C173.162 13.347 173.184 13.3259 173.201 13.3013C173.219 13.2767 173.231 13.2491 173.237 13.22C173.243 13.1909 173.243 13.1608 173.238 13.1316C173.232 13.1024 173.22 13.0746 173.203 13.0498C173.186 13.0249 173.164 13.0036 173.139 12.9869C173.113 12.9702 173.084 12.9585 173.054 12.9524C173.024 12.9464 172.992 12.9462 172.962 12.9518L170.283 13.4435C170.222 13.4547 170.168 13.489 170.132 13.5386C170.097 13.5883 170.084 13.6493 170.096 13.7083C170.108 13.7673 170.143 13.8193 170.195 13.8531C170.247 13.8868 170.31 13.8994 170.372 13.8882L170.703 13.8285C170.672 13.8341 170.643 13.8454 170.617 13.8617C170.592 13.878 170.569 13.8991 170.552 13.9237C170.535 13.9483 170.522 13.9759 170.516 14.005C170.51 14.0341 170.51 14.0641 170.515 14.0933C170.521 14.1225 170.533 14.1503 170.55 14.1752C170.567 14.2 170.589 14.2214 170.615 14.2381C170.64 14.2548 170.669 14.2665 170.699 14.2725C170.729 14.2785 170.761 14.2788 170.791 14.2732L170.319 14.3473C170.258 14.3586 170.203 14.3928 170.168 14.4425C170.133 14.4921 170.12 14.5532 170.132 14.6121C170.143 14.6711 170.179 14.7232 170.231 14.7569C170.282 14.7906 170.346 14.8033 170.407 14.792L173.088 14.3057C173.118 14.3002 173.147 14.2889 173.173 14.2725C173.199 14.2562 173.221 14.2352 173.239 14.2106C173.256 14.186 173.268 14.1583 173.275 14.1292C173.281 14.1001 173.281 14.0701 173.275 14.0409C173.269 14.0117 173.258 13.9839 173.241 13.959C173.224 13.9342 173.202 13.9128 173.176 13.8961C173.151 13.8794 173.122 13.8677 173.092 13.8617C173.061 13.8557 173.03 13.8555 173 13.861L173.462 13.7761C173.493 13.7705 173.522 13.7592 173.548 13.7429C173.573 13.7266 173.596 13.7055 173.613 13.6809C173.631 13.6563 173.643 13.6287 173.649 13.5996C173.655 13.5705 173.655 13.5405 173.65 13.5113C173.644 13.4821 173.632 13.4542 173.615 13.4294C173.598 13.4046 173.576 13.3832 173.551 13.3665C173.525 13.3498 173.496 13.3381 173.466 13.3321C173.436 13.326 173.404 13.3258 173.374 13.3314L173.382 13.3368Z" fill="#252223"/>
<path opacity="0.3" d="M138.036 21.322C139.391 21.076 140.282 19.8213 140.026 18.5196C139.77 17.2178 138.464 16.3619 137.109 16.6078C135.754 16.8538 134.864 18.1085 135.12 19.4103C135.376 20.7121 136.681 21.568 138.036 21.322Z" fill="#2EC4B6"/>
<path opacity="0.05" d="M152.469 31.373C152.469 31.373 153.724 32.4378 154.309 33.3832C154.894 34.3286 154.707 34.6486 154.707 34.6486" fill="black"/>
</g>
</g>
<defs>
<linearGradient id="paint0_linear" x1="160.164" y1="43.2594" x2="156.48" y2="22.9708" gradientUnits="userSpaceOnUse">
<stop stop-color="#808080" stop-opacity="0.25"/>
<stop offset="0.54" stop-color="#808080" stop-opacity="0.12"/>
<stop offset="1" stop-color="#808080" stop-opacity="0.1"/>
</linearGradient>
<linearGradient id="paint1_linear" x1="11295.2" y1="5613.99" x2="11295.2" y2="4154.21" gradientUnits="userSpaceOnUse">
<stop stop-color="#808080" stop-opacity="0.25"/>
<stop offset="0.54" stop-color="#808080" stop-opacity="0.12"/>
<stop offset="1" stop-color="#808080" stop-opacity="0.1"/>
</linearGradient>
<clipPath id="clip0">
<rect width="195.407" height="102.409" fill="white" transform="translate(0 0.379883)"/>
</clipPath>
</defs>
</svg>
