<svg width="142" height="69" viewBox="0 0 142 69" fill="none" xmlns="http://www.w3.org/2000/svg">
<path d="M104.021 50.8099L102.52 47.8829C102.445 47.8079 102.295 47.7328 102.145 47.8079C100.944 48.6335 99.3681 49.1588 97.5668 49.1588C93.7392 49.1588 91.0374 46.0817 91.0374 42.179C91.0374 38.2764 93.7392 35.1993 97.5668 35.1993C99.3681 35.1993 100.944 35.7246 102.145 36.5502C102.295 36.6252 102.445 36.6252 102.52 36.4751L104.021 33.5481C104.096 33.398 104.096 33.2479 103.946 33.1729C102.145 31.897 99.9685 31.1465 97.5668 31.1465C91.4877 31.1465 86.5343 36.0999 86.5343 42.179C86.5343 48.2582 91.4877 53.2116 97.5668 53.2116C99.9685 53.2116 102.145 52.4611 103.946 51.1852C104.096 51.1102 104.096 50.9601 104.021 50.8099ZM65.0696 50.8099L63.5685 47.8829C63.4935 47.8079 63.3434 47.7328 63.1933 47.8079C61.9925 48.6335 60.4164 49.1588 58.6151 49.1588C54.7875 49.1588 52.0857 46.0817 52.0857 42.179C52.0857 38.2764 54.7875 35.1993 58.6151 35.1993C60.4164 35.1993 61.9925 35.7246 63.1933 36.5502C63.3434 36.6252 63.4935 36.6252 63.5685 36.4751L65.0696 33.5481C65.1446 33.398 65.1446 33.2479 64.9945 33.1729C63.1933 31.897 61.0168 31.1465 58.6151 31.1465C52.536 31.1465 47.5826 36.0999 47.5826 42.179C47.5826 48.2582 52.536 53.2116 58.6151 53.2116C61.0168 53.2116 63.1933 52.4611 64.9945 51.1852C65.1446 51.1102 65.1446 50.9601 65.0696 50.8099ZM82.9318 36.325H79.7046C79.5545 36.325 79.4044 36.4001 79.2543 36.5502L72.1244 46.8322H71.8242L72.1244 40.5279V36.5502C72.1244 36.4001 71.9743 36.25 71.8242 36.25H68.672C68.5219 36.25 68.4469 36.4001 68.3718 36.4751V52.311C68.3718 52.4611 68.5219 52.5361 68.597 52.5361H71.8242C71.9743 52.5361 72.1995 52.4611 72.2745 52.311L79.4044 42.0289H79.7046L79.4044 48.3333V52.311C79.4044 52.4611 79.5545 52.5361 79.7046 52.5361H82.8568C83.0069 52.5361 83.0819 52.386 83.0819 52.311V36.6252C83.232 36.4751 83.0819 36.325 82.9318 36.325ZM43.9801 31.5968H40.2276C40.0774 31.5968 39.8523 31.6718 39.7772 31.8219L30.5459 45.106H30.2457L30.5459 37.9011V31.8219C30.5459 31.6718 30.3958 31.5217 30.3208 31.5217H26.6432C26.4931 31.5217 26.4181 31.6718 26.4181 31.8219V52.386C26.4181 52.5361 26.5682 52.6112 26.6432 52.6112H29.6453C29.7954 52.6112 29.9455 52.5361 30.0956 52.386L40.0774 38.0512H40.3777L40.0774 45.2561V52.386C40.0774 52.5361 40.2276 52.6112 40.3026 52.6112H43.9801C44.1302 52.6112 44.2053 52.4611 44.2803 52.386V31.897C44.2053 31.7469 44.1302 31.5968 43.9801 31.5968ZM21.0894 31.897V52.4611C21.0894 52.6112 20.9393 52.6862 20.8643 52.6862H17.1868C17.0367 52.6862 16.8866 52.5361 16.8866 52.4611V45.3312L17.1868 38.2764H16.8866L10.8825 46.8322H10.207L4.20288 38.2764H3.90267L4.20288 45.3312V52.4611C4.20288 52.6112 4.05278 52.6862 3.90267 52.6862H0.300206C0.150103 52.6862 0 52.5361 0 52.386V31.897C0 31.7469 0.150103 31.5968 0.300206 31.5968H3.97772C4.12783 31.5968 4.27793 31.6718 4.42803 31.8219L10.5072 40.603L16.6614 31.8219C16.7365 31.6718 16.8866 31.5968 17.1117 31.5968H20.7892C20.9393 31.5968 21.0894 31.7469 21.0894 31.897Z" fill="white"/>
<path d="M119.032 12.6086C115.354 12.6086 111.977 14.0346 109.575 16.4363C109.5 16.5113 109.5 16.7365 109.575 16.8115L112.202 19.4383C112.277 19.5134 112.502 19.5134 112.577 19.4383C114.303 17.8622 116.555 16.8115 119.107 16.8115C124.36 16.8115 128.563 21.0894 128.563 26.268C128.563 31.4465 124.285 35.7245 119.107 35.7245C116.555 35.7245 114.303 34.7488 112.577 33.0977C112.427 33.0226 112.277 33.0226 112.202 33.0977L109.575 35.7245C109.5 35.7995 109.5 36.0247 109.575 36.0997C112.052 38.5014 115.354 39.9273 119.032 39.9273C126.612 39.9273 132.691 33.7731 132.691 26.268C132.691 18.7628 126.612 12.6086 119.032 12.6086ZM119.032 4.20288V8.1806C119.032 8.3307 119.107 8.48081 119.332 8.48081C129.089 8.63091 136.969 16.5864 136.969 26.4181C136.969 36.2498 129.089 44.0552 119.257 44.2053C119.107 44.2053 118.957 44.3554 118.957 44.5055V48.183C118.957 48.3331 119.032 48.4081 119.182 48.4081C131.265 48.258 141.022 38.4263 141.022 26.268C141.172 14.1097 131.265 4.20288 119.032 4.20288ZM119.032 0.225154C119.032 0.0750514 118.882 0 118.807 0C104.472 0.150103 92.8387 11.708 92.7637 26.0428C92.7637 26.1929 92.9138 26.268 92.9888 26.268H96.6663C96.8165 26.268 96.8915 26.1179 96.8915 25.9678C97.0416 13.8845 106.873 4.12783 119.032 4.12783V0.225154ZM124.285 26.343C124.285 29.27 121.959 31.5966 119.032 31.5966C116.105 31.5966 113.778 29.27 113.778 26.343C113.778 23.416 116.105 21.0894 119.032 21.0894C121.959 21.0894 124.285 23.416 124.285 26.343Z" fill="white"/>
<path d="M5.85473 59.5907C5.92978 59.5907 5.92978 59.5907 5.92978 59.6657V59.7408L3.60319 64.6942C3.30298 65.2946 3.00278 65.7449 2.70257 66.0451C2.40236 66.3453 2.10216 66.4204 1.65185 66.4204C1.4267 66.4204 1.20154 66.4204 1.05144 66.3453C0.976388 66.3453 0.976388 66.2703 0.976388 66.2703V65.5948C0.976388 65.5197 0.976388 65.5197 1.05144 65.5197C1.20154 65.5948 1.35164 65.5948 1.4267 65.5948H1.50175C1.7269 65.5948 1.95206 65.5197 2.10216 65.3696C2.25226 65.2195 2.40236 64.9944 2.62752 64.6191V64.5441L0.375977 59.6657V59.5907V59.5156H0.451028H1.27659C1.35164 59.5156 1.4267 59.5156 1.4267 59.5907L2.62752 62.2175L3.15288 63.5684L3.67824 62.2175L4.87906 59.5907C4.87906 59.5156 4.95411 59.5156 5.02916 59.5156H5.85473V59.5907Z" fill="white"/>
<path d="M10.057 61.542C10.132 61.542 10.132 61.542 10.132 61.617V66.2702C10.132 66.3453 10.132 66.3453 10.057 66.3453H9.30646C9.2314 66.3453 9.2314 66.3453 9.2314 66.2702V64.3189H7.05491V66.2702C7.05491 66.3453 7.05491 66.3453 6.97986 66.3453H6.22935C6.1543 66.3453 6.1543 66.3453 6.1543 66.2702V61.617C6.1543 61.542 6.1543 61.542 6.22935 61.542H6.97986C7.05491 61.542 7.05491 61.542 7.05491 61.617V63.4933H9.2314V61.617C9.2314 61.542 9.2314 61.542 9.30646 61.542H10.057Z" fill="white"/>
<path d="M15.3106 61.542C15.3856 61.542 15.3856 61.542 15.3856 61.617V66.2702C15.3856 66.3453 15.3856 66.3453 15.3106 66.3453H14.5601C14.485 66.3453 14.485 66.3453 14.485 66.2702V64.3189V62.8929H14.41L13.5844 64.2438L12.3836 66.2702C12.3836 66.3453 12.3085 66.3453 12.2335 66.3453H11.3329C11.2578 66.3453 11.2578 66.3453 11.2578 66.2702V61.617C11.2578 61.542 11.2578 61.542 11.3329 61.542H12.0834C12.1584 61.542 12.1584 61.542 12.1584 61.617V63.4933V65.0694H12.2335L13.1341 63.5684L14.2599 61.6921C14.3349 61.617 14.3349 61.617 14.41 61.617H15.3106V61.542Z" fill="white"/>
<path d="M17.4115 65.6698H18.4622C18.7624 65.6698 18.9876 65.5948 19.1377 65.4447C19.2878 65.2946 19.3628 65.1445 19.3628 64.9944V64.9193C19.3628 64.469 19.0626 64.2438 18.4622 64.2438H17.4115V65.6698ZM17.4115 63.6434H18.3121C18.6123 63.6434 18.8375 63.5684 18.9876 63.4183C19.1377 63.2682 19.2127 63.1181 19.2127 62.8929V62.8179C19.2127 62.3676 18.9125 62.2175 18.3121 62.2175H17.4115V63.6434ZM18.4622 61.542C19.0626 61.542 19.5129 61.617 19.7381 61.8422C20.0383 62.0674 20.1884 62.3676 20.1884 62.7428V62.8179C20.1884 63.043 20.1134 63.1931 20.0383 63.4183C19.9633 63.5684 19.7381 63.7185 19.588 63.8686C19.7381 63.9436 19.8882 64.0187 20.0383 64.0937C20.1884 64.1688 20.2635 64.3189 20.3385 64.469C20.4136 64.6191 20.4136 64.7692 20.4136 64.9193V64.9944C20.4136 65.3696 20.2635 65.7449 19.9633 65.97C19.663 66.1952 19.2127 66.3453 18.6874 66.3453H16.661C16.5859 66.3453 16.5859 66.3453 16.5859 66.2702V61.617C16.5859 61.542 16.5859 61.542 16.661 61.542H18.4622Z" fill="white"/>
<path d="M23.2662 62.1426C23.041 62.1426 22.8159 62.2177 22.6658 62.2927C22.5157 62.3678 22.3656 62.5929 22.2905 62.743C22.2155 62.9682 22.1404 63.1933 22.1404 63.4935H24.392C24.392 62.5929 24.0167 62.1426 23.2662 62.1426ZM23.3412 61.3921C23.7165 61.3921 24.0918 61.4671 24.3169 61.6172C24.6171 61.7673 24.8423 61.9925 24.9924 62.3678C25.1425 62.668 25.2175 63.1183 25.2175 63.5686V63.9438C25.2175 64.0189 25.2175 64.0189 25.1425 64.0189L25.0674 64.0939H22.0654V64.3941C22.0654 64.6944 22.1404 64.9195 22.2155 65.0696C22.3656 65.2948 22.5157 65.4449 22.6658 65.5199C22.8909 65.595 23.1161 65.67 23.3412 65.67H23.4163C23.7916 65.67 24.3169 65.5199 24.8423 65.2948C24.8423 65.2948 24.8423 65.2948 24.9173 65.2948C24.9173 65.2948 24.9173 65.2948 24.9173 65.3698V66.0453C24.9173 66.1203 24.9173 66.1954 24.8423 66.1954C24.6922 66.2704 24.392 66.3455 24.0918 66.4205C23.7915 66.4956 23.4913 66.4956 23.2662 66.4956H23.1911C22.8159 66.4956 22.4406 66.4205 22.0654 66.2704C21.7652 66.1203 21.465 65.8952 21.3149 65.5199C21.0897 65.2197 21.0146 64.7694 21.0146 64.3191V63.7187C21.0146 63.0432 21.2398 62.4428 21.6151 62.0675C21.9903 61.6923 22.5157 61.4671 23.1161 61.4671H23.3412V61.3921Z" fill="white"/>
<path d="M28.3692 62.2177C27.9939 62.2177 27.5436 62.3678 27.2434 62.743V65.1447C27.6186 65.5199 27.9939 65.7451 28.3692 65.7451C28.5943 65.7451 28.8195 65.67 28.9696 65.595C29.1197 65.5199 29.2698 65.3698 29.3448 65.1447C29.4199 64.9195 29.4949 64.6944 29.4949 64.3941V63.5686C29.4949 63.1183 29.4199 62.8181 29.1947 62.5179C29.0446 62.2927 28.8195 62.2177 28.3692 62.2177ZM28.7444 61.3921C29.3448 61.3921 29.7951 61.6172 30.0953 61.9925C30.3955 62.3678 30.5457 62.8931 30.5457 63.5686V64.3191C30.5457 64.9946 30.3956 65.5199 30.0203 65.8952C29.645 66.2704 29.1947 66.4956 28.6694 66.4956H28.5193C27.9939 66.4956 27.5436 66.3455 27.2434 65.9702V67.9216C27.2434 67.9966 27.2434 67.9966 27.1683 67.9966H26.4178C26.3428 67.9966 26.3428 67.9966 26.3428 67.9216V61.6923C26.3428 61.6172 26.3428 61.6172 26.4178 61.6172H27.0933C27.1683 61.6172 27.1683 61.6172 27.1683 61.6923L27.2434 62.1426C27.3935 61.9174 27.6186 61.7673 27.9189 61.6172C28.144 61.4671 28.4442 61.4671 28.6694 61.4671H28.7444V61.3921Z" fill="white"/>
<path d="M33.698 61.3921C33.9231 61.3921 34.1483 61.3921 34.3734 61.4671C34.5986 61.5422 34.8237 61.6172 34.9738 61.6923C35.0489 61.6923 35.0489 61.7673 35.0489 61.8424V62.4428V62.5179H34.9738C34.5235 62.2927 34.0732 62.1426 33.773 62.1426C33.3978 62.1426 33.0225 62.2927 32.7974 62.5179C32.5722 62.743 32.4221 63.1183 32.4221 63.6436V64.169C32.4221 64.4692 32.4972 64.7694 32.5722 64.9946C32.7223 65.2197 32.8724 65.3698 33.0976 65.5199C33.3227 65.595 33.5479 65.67 33.773 65.67H33.8481C34.1483 65.67 34.5235 65.5199 35.0489 65.2948H35.124C35.124 65.2948 35.124 65.2948 35.124 65.3698V66.0453C35.124 66.1203 35.124 66.1954 35.0489 66.1954C34.8988 66.2704 34.6736 66.3455 34.4485 66.4205C34.2233 66.4956 33.9982 66.4956 33.773 66.4956H33.698C33.0976 66.4956 32.5722 66.2704 32.1219 65.8952C31.6716 65.5199 31.5215 64.9195 31.5215 64.244V63.6436C31.5215 62.8931 31.7466 62.3678 32.1219 61.9925C32.5722 61.6172 33.0225 61.3921 33.698 61.3921Z" fill="white"/>
<path d="M40.1534 61.542C40.2284 61.542 40.2284 61.542 40.2284 61.617V66.2702C40.2284 66.3453 40.2284 66.3453 40.1534 66.3453H39.4028C39.3278 66.3453 39.3278 66.3453 39.3278 66.2702V64.3189V62.8929H39.2527L38.4272 64.2438L37.2264 66.2702C37.2264 66.3453 37.1513 66.3453 37.0763 66.3453H36.1756C36.1006 66.3453 36.1006 66.3453 36.1006 66.2702V61.617C36.1006 61.542 36.1006 61.542 36.1756 61.542H36.9262C37.0012 61.542 37.0012 61.542 37.0012 61.617V63.4933V65.0694H37.0763L37.9769 63.5684L39.1026 61.6921C39.1777 61.617 39.1777 61.617 39.2527 61.617H40.1534V61.542Z" fill="white"/>
<path d="M44.9553 61.542C45.0303 61.542 45.0303 61.542 45.0303 61.617V62.2175C45.0303 62.2925 45.0303 62.2925 44.9553 62.2925H43.4542V66.2702C43.4542 66.3453 43.4542 66.3453 43.3792 66.3453H42.6287C42.5536 66.3453 42.5536 66.3453 42.5536 66.2702V62.2925H41.0526C40.9775 62.2925 40.9775 62.2925 40.9775 62.2175V61.617C40.9775 61.542 40.9775 61.542 41.0526 61.542H44.9553Z" fill="white"/>
<path d="M47.7333 62.1426C47.5081 62.1426 47.283 62.2177 47.1329 62.2927C46.9828 62.3678 46.8327 62.5929 46.7576 62.743C46.6826 62.9682 46.6075 63.1933 46.6075 63.4935H48.859C48.859 62.5929 48.5588 62.1426 47.7333 62.1426ZM47.8834 61.3921C48.2586 61.3921 48.6339 61.4671 48.859 61.6172C49.1593 61.7673 49.3844 61.9925 49.5345 62.3678C49.6846 62.668 49.7597 63.1183 49.7597 63.5686V63.9438C49.7597 64.0189 49.7597 64.0189 49.6846 64.0189L49.6096 64.0939H46.6075V64.3941C46.6075 64.6944 46.6826 64.9195 46.7576 65.0696C46.9077 65.2948 47.0578 65.4449 47.2079 65.5199C47.4331 65.595 47.6582 65.67 47.8834 65.67H48.0335C48.4087 65.67 48.9341 65.5199 49.4595 65.2948C49.4595 65.2948 49.4595 65.2948 49.5345 65.2948C49.5345 65.2948 49.5345 65.2948 49.5345 65.3698V66.0453C49.5345 66.1203 49.5345 66.1954 49.4595 66.1954C49.3094 66.2704 49.0092 66.3455 48.7089 66.4205C48.4087 66.4956 48.1085 66.4956 47.8834 66.4956H47.8083C47.4331 66.4956 47.0578 66.4205 46.6826 66.2704C46.3824 66.1203 46.0821 65.8952 45.932 65.5199C45.7069 65.2197 45.6318 64.7694 45.6318 64.3191V63.7187C45.6318 63.0432 45.857 62.4428 46.2322 62.0675C46.6075 61.6923 47.1329 61.4671 47.7333 61.4671H47.8834V61.3921Z" fill="white"/>
<path d="M54.2619 61.542C54.337 61.542 54.337 61.542 54.337 61.617V62.2175C54.337 62.2925 54.337 62.2925 54.2619 62.2925H52.7609V66.2702C52.7609 66.3453 52.7609 66.3453 52.6858 66.3453H51.9353C51.8603 66.3453 51.8603 66.3453 51.8603 66.2702V62.2925H50.3592C50.2842 62.2925 50.2842 62.2925 50.2842 62.2175V61.617C50.2842 61.542 50.2842 61.542 50.3592 61.542H54.2619Z" fill="white"/>
<path d="M61.0921 61.542C61.1672 61.542 61.1672 61.542 61.1672 61.617V66.2702C61.1672 66.3453 61.1672 66.3453 61.0921 66.3453H60.3416C60.2666 66.3453 60.2666 66.3453 60.2666 66.2702V64.3189H58.0901V66.2702C58.0901 66.3453 58.0901 66.3453 58.015 66.3453H57.2645C57.1895 66.3453 57.1895 66.3453 57.1895 66.2702V61.617C57.1895 61.542 57.1895 61.542 57.2645 61.542H58.015C58.0901 61.542 58.0901 61.542 58.0901 61.617V63.4933H60.2666V61.617C60.2666 61.542 60.2666 61.542 60.3416 61.542H61.0921Z" fill="white"/>
<path d="M64.2437 64.0939C63.4182 64.0939 63.0429 64.3941 63.0429 64.9946V65.0696C63.0429 65.2948 63.118 65.5199 63.2681 65.67C63.4182 65.8201 63.6433 65.8952 63.8685 65.8952H63.9435C64.3188 65.8952 64.694 65.7451 65.0693 65.3698V64.244L64.2437 64.0939ZM64.1687 61.3921C64.5439 61.3921 64.8441 61.4671 65.0693 61.5422C65.2944 61.6923 65.5196 61.8424 65.6697 62.1426C65.8198 62.4428 65.8949 62.743 65.8949 63.1933V66.1954C65.8949 66.2704 65.8949 66.2704 65.8198 66.2704H65.1443C65.0693 66.2704 65.0693 66.2704 65.0693 66.1954L64.9942 65.67C64.8441 65.8201 64.694 65.9702 64.5439 66.0453C64.3938 66.1203 64.2437 66.2704 64.0186 66.2704C63.8685 66.3455 63.6433 66.3455 63.4932 66.3455H63.4182C62.9679 66.3455 62.5926 66.1954 62.3674 65.9702C62.1423 65.7451 61.9922 65.3698 61.9922 64.9946V64.9195C61.9922 64.6943 62.0672 64.4692 62.1423 64.244C62.2173 64.0939 62.3674 63.8688 62.5176 63.7937C62.6677 63.6436 62.8928 63.5686 63.193 63.4935C63.4932 63.4185 63.7934 63.3434 64.1687 63.3434L64.9942 63.2684V63.1183C64.9942 62.743 64.9192 62.4428 64.7691 62.2927C64.619 62.1426 64.3938 62.0675 64.0186 62.0675C63.6433 62.0675 63.193 62.2177 62.5176 62.4428C62.4425 62.4428 62.4425 62.4428 62.4425 62.3678V61.8424C62.4425 61.7673 62.4425 61.6923 62.5176 61.6923C63.0429 61.5422 63.6433 61.3921 64.1687 61.3921Z" fill="white"/>
<path d="M71.0742 61.542C71.0742 61.542 71.1493 61.542 71.1493 61.617V61.6921L69.348 66.7205C69.1979 67.1708 68.9728 67.5461 68.7476 67.7713C68.5225 67.9964 68.2223 68.1465 67.772 68.1465H67.6969C67.5468 68.1465 67.3967 68.1465 67.2466 68.0715C67.0965 68.0715 66.9464 67.9964 66.8714 67.9964C66.7963 67.9964 66.7963 67.9214 66.7963 67.8463V67.3209C66.7963 67.3209 66.7963 67.3209 66.7963 67.2459C66.7963 67.2459 66.7963 67.2459 66.8714 67.2459C67.0965 67.3209 67.3217 67.396 67.5468 67.396C67.6969 67.396 67.847 67.3209 67.9971 67.2459C68.0722 67.1708 68.2223 66.9457 68.2973 66.7205L68.4474 66.4203H68.2973C68.2223 66.4203 68.2223 66.4203 68.1472 66.3453L66.4961 61.7671V61.6921L66.5711 61.617H67.3217C67.3967 61.617 67.3967 61.617 67.4718 61.6921L68.2973 63.9436L68.7476 65.6698L69.1979 63.9436L70.0235 61.6921C70.0235 61.617 70.0986 61.617 70.1736 61.617H71.0742V61.542Z" fill="white"/>
<path d="M75.9514 66.2702V66.3453L75.8763 66.4203H75.0507C74.9757 66.4203 74.9757 66.4203 74.9006 66.3453L73.5497 64.2438H72.8742V66.2702C72.8742 66.3453 72.8742 66.3453 72.7992 66.3453H72.0487C71.9736 66.3453 71.9736 66.3453 71.9736 66.2702V61.617C71.9736 61.542 71.9736 61.542 72.0487 61.542H72.7992C72.8742 61.542 72.8742 61.542 72.8742 61.617V63.4933H73.5497L74.7505 61.617C74.7505 61.542 74.8256 61.542 74.9006 61.542H75.7262C75.8013 61.542 75.8013 61.542 75.8013 61.617V61.6921L74.4503 63.8686L75.9514 66.2702Z" fill="white"/>
<path d="M80.7549 61.542C80.83 61.542 80.83 61.542 80.83 61.617V66.2702C80.83 66.3453 80.83 66.3453 80.7549 66.3453H80.0044C79.9294 66.3453 79.9294 66.3453 79.9294 66.2702V64.3189V62.8929H79.8543L79.0287 64.2438L77.8279 66.2702C77.8279 66.3453 77.7529 66.3453 77.6778 66.3453H76.7772C76.7022 66.3453 76.7021 66.3453 76.7021 66.2702V61.617C76.7021 61.542 76.7022 61.542 76.7772 61.542H77.5277C77.6028 61.542 77.6028 61.542 77.6028 61.617V63.4933V65.0694H77.6778L78.5784 63.5684L79.7042 61.6921C79.7793 61.617 79.7793 61.617 79.8543 61.617H80.7549V61.542Z" fill="white"/>
<path d="M87.961 61.542C88.036 61.542 88.036 61.542 88.036 61.617V66.2702C88.036 66.3453 88.036 66.3453 87.961 66.3453H87.2105C87.1354 66.3453 87.1354 66.3453 87.1354 66.2702V64.3189V62.8929H87.0604L86.2348 64.2438L85.034 66.2702C85.034 66.3453 84.9589 66.3453 84.8839 66.3453H83.9833C83.9082 66.3453 83.9082 66.3453 83.9082 66.2702V61.617C83.9082 61.542 83.9082 61.542 83.9833 61.542H84.7338C84.8088 61.542 84.8088 61.542 84.8088 61.617V63.4933V65.0694H84.8839L85.7845 63.5684L86.9103 61.6921C86.9853 61.617 86.9853 61.617 87.0604 61.617H87.961V61.542Z" fill="white"/>
<path d="M94.7892 61.542C94.8643 61.542 94.8643 61.542 94.8643 61.617V62.2175C94.8643 62.2925 94.8643 62.2925 94.7892 62.2925H93.2882V66.2702C93.2882 66.3453 93.2882 66.3453 93.2132 66.3453H92.4627C92.3876 66.3453 92.3876 66.3453 92.3876 66.2702V62.2925H90.8866C90.8115 62.2925 90.8115 62.2925 90.8115 62.2175V61.617C90.8115 61.542 90.8115 61.542 90.8866 61.542H94.7892Z" fill="white"/>
<path d="M97.567 62.1426C97.3418 62.1426 97.1167 62.2177 96.9666 62.2927C96.8165 62.3678 96.6664 62.5929 96.5913 62.743C96.5162 62.8931 96.4412 63.1933 96.4412 63.4935H98.6927C98.6927 62.5929 98.3175 62.1426 97.567 62.1426ZM97.642 61.3921C98.0173 61.3921 98.3925 61.4671 98.6177 61.6172C98.9179 61.7673 99.1431 61.9925 99.2932 62.3678C99.4433 62.668 99.5183 63.1183 99.5183 63.5686V63.9438C99.5183 64.0189 99.5183 64.0189 99.4433 64.0189L99.3682 64.0939H96.3661V64.3941C96.3661 64.6944 96.4412 64.9195 96.5163 65.0696C96.6664 65.2948 96.8165 65.4449 96.9666 65.5199C97.1917 65.595 97.4169 65.67 97.642 65.67H97.7171C98.0923 65.67 98.6177 65.5199 99.1431 65.2948C99.1431 65.2948 99.143 65.2948 99.2181 65.2948C99.2932 65.2948 99.2181 65.2948 99.2181 65.2948C99.2181 65.2948 99.2181 65.2948 99.2181 65.3698V66.0453C99.2181 66.1203 99.2181 66.1954 99.1431 66.1954C98.993 66.2704 98.6927 66.3455 98.3925 66.4205C98.0923 66.4956 97.7921 66.4956 97.567 66.4956H97.4919C97.1167 66.4956 96.7414 66.4205 96.3661 66.2704C95.9909 66.1203 95.7657 65.8952 95.6156 65.5199C95.3905 65.2197 95.3154 64.7694 95.3154 64.3191V63.7187C95.3154 63.0432 95.5406 62.4428 95.9158 62.0675C96.2911 61.6923 96.8165 61.4671 97.4169 61.4671H97.642V61.3921Z" fill="white"/>
<path d="M104.247 61.542C104.322 61.542 104.322 61.542 104.322 61.617V61.6921L102.896 63.9436L104.397 66.2702V66.3453L104.322 66.4203H103.496C103.421 66.4203 103.421 66.4203 103.346 66.3453L102.521 64.9944L102.296 64.469H102.221L101.995 64.9944L101.17 66.3453C101.17 66.4203 101.095 66.4203 101.02 66.4203H100.194C100.119 66.4203 100.119 66.4203 100.119 66.3453C100.119 66.2702 100.119 66.2702 100.119 66.2702L101.62 63.9436L100.194 61.6921V61.617L100.269 61.542H101.095C101.17 61.542 101.17 61.542 101.245 61.617L102.07 62.8929L102.296 63.4183H102.371L102.596 62.8929L103.421 61.617C103.421 61.542 103.496 61.542 103.572 61.542H104.247Z" fill="white"/>
<path d="M109.124 61.542C109.199 61.542 109.199 61.542 109.199 61.617V66.2702C109.199 66.3453 109.199 66.3453 109.124 66.3453H108.374C108.299 66.3453 108.299 66.3453 108.299 66.2702V64.3189H106.122V66.2702C106.122 66.3453 106.122 66.3453 106.047 66.3453H105.297C105.222 66.3453 105.222 66.3453 105.222 66.2702V61.617C105.222 61.542 105.222 61.542 105.297 61.542H106.047C106.122 61.542 106.122 61.542 106.122 61.617V63.4933H108.299V61.617C108.299 61.542 108.299 61.542 108.374 61.542H109.124Z" fill="white"/>
<path d="M112.428 62.2177C112.202 62.2177 111.977 62.2927 111.827 62.3678C111.677 62.4428 111.527 62.5929 111.377 62.8181C111.302 63.0432 111.227 63.2684 111.227 63.5686V64.3941C111.227 64.8445 111.302 65.1447 111.527 65.3698C111.752 65.595 112.052 65.7451 112.428 65.7451H112.503C112.878 65.7451 113.178 65.595 113.403 65.3698C113.628 65.1447 113.703 64.7694 113.703 64.3941V63.5686C113.703 63.1183 113.628 62.8181 113.403 62.5929C113.103 62.2927 112.803 62.2177 112.428 62.2177ZM112.503 61.3921C113.103 61.3921 113.628 61.6172 114.004 61.9925C114.379 62.3678 114.604 62.8931 114.604 63.5686V64.3191C114.604 64.9946 114.379 65.5199 114.004 65.8952C113.628 66.2704 113.103 66.4956 112.503 66.4956H112.428C112.052 66.4956 111.677 66.4205 111.377 66.2704C111.077 66.1203 110.776 65.8201 110.626 65.5199C110.401 65.2197 110.326 64.7694 110.326 64.3191V63.5686C110.326 62.8931 110.551 62.3678 110.927 61.9925C111.302 61.6172 111.827 61.3921 112.428 61.3921H112.503Z" fill="white"/>
<path d="M119.707 61.542C119.782 61.542 119.782 61.542 119.782 61.617V66.2702C119.782 66.3453 119.782 66.3453 119.707 66.3453H118.957C118.881 66.3453 118.881 66.3453 118.881 66.2702V62.2925H117.23L117.005 65.1445C116.93 66.0451 116.555 66.4954 115.804 66.4954H115.729C115.504 66.4954 115.354 66.4203 115.204 66.3453C115.129 66.3453 115.129 66.2702 115.129 66.1952V65.6698V65.5948H115.204C115.279 65.6698 115.429 65.6698 115.504 65.6698H115.579C115.879 65.6698 116.03 65.4447 116.03 64.9944L116.33 61.617C116.33 61.542 116.33 61.542 116.405 61.542H119.707Z" fill="white"/>
<path d="M123.009 62.2177C122.784 62.2177 122.558 62.2927 122.408 62.3678C122.258 62.4428 122.108 62.5929 121.958 62.8181C121.883 63.0432 121.808 63.2684 121.808 63.5686V64.3941C121.808 64.8445 121.883 65.1447 122.108 65.3698C122.333 65.595 122.633 65.7451 123.009 65.7451H123.084C123.459 65.7451 123.759 65.595 123.984 65.3698C124.209 65.1447 124.285 64.7694 124.285 64.3941V63.5686C124.285 63.1183 124.209 62.8181 123.984 62.5929C123.684 62.2927 123.384 62.2177 123.009 62.2177ZM123.084 61.3921C123.684 61.3921 124.209 61.6172 124.585 61.9925C124.96 62.3678 125.185 62.8931 125.185 63.5686V64.3191C125.185 64.9946 124.96 65.5199 124.585 65.8952C124.209 66.2704 123.684 66.4956 123.084 66.4956H123.009C122.633 66.4956 122.258 66.4205 121.958 66.2704C121.658 66.1203 121.358 65.8201 121.207 65.5199C120.982 65.2197 120.907 64.7694 120.907 64.3191V63.5686C120.907 62.8931 121.132 62.3678 121.508 61.9925C121.883 61.6172 122.408 61.3921 123.009 61.3921H123.084Z" fill="white"/>
<path d="M129.314 61.542C129.389 61.542 129.389 61.542 129.389 61.617V62.2175C129.389 62.2925 129.389 62.2925 129.314 62.2925H127.212V66.2702C127.212 66.3453 127.212 66.3453 127.137 66.3453H126.387C126.312 66.3453 126.312 66.3453 126.312 66.2702V61.617C126.312 61.542 126.312 61.542 126.387 61.542H129.314Z" fill="white"/>
<path d="M134.191 61.542C134.267 61.542 134.266 61.542 134.266 61.617V66.2702C134.266 66.3453 134.267 66.3453 134.191 66.3453H133.441C133.366 66.3453 133.366 66.3453 133.366 66.2702V64.3189V62.8929H133.291L132.465 64.2438L131.264 66.2702C131.264 66.3453 131.189 66.3453 131.114 66.3453H130.214C130.139 66.3453 130.139 66.3453 130.139 66.2702V61.617C130.139 61.542 130.139 61.542 130.214 61.542H130.964C131.039 61.542 131.039 61.542 131.039 61.617V63.4933V65.0694H131.114L132.015 63.5684L133.141 61.6921C133.216 61.617 133.216 61.617 133.291 61.617H134.191V61.542Z" fill="white"/>
<path d="M138.77 59.8164L138.845 59.8915V60.3418C138.845 60.4168 138.845 60.4168 138.77 60.4919C138.695 60.5669 138.62 60.642 138.47 60.642C138.394 60.717 138.244 60.717 138.019 60.7921C137.869 60.8671 137.644 60.8671 137.494 60.8671C137.194 60.8671 136.969 60.7921 136.743 60.717C136.518 60.642 136.368 60.5669 136.218 60.4919C136.143 60.4919 136.143 60.4168 136.143 60.3418V59.8915C136.143 59.8164 136.143 59.8164 136.143 59.8164H136.218C136.368 59.8915 136.518 59.9665 136.593 59.9665C136.668 59.9665 136.818 60.0416 136.969 60.1166C137.119 60.1917 137.269 60.1917 137.419 60.1917C137.569 60.1917 137.644 60.1917 137.794 60.1917C137.869 60.1917 138.019 60.1166 138.094 60.1166C138.169 60.0416 138.319 60.0416 138.319 60.0416C138.394 60.0416 138.47 59.9665 138.545 59.8915C138.695 59.8164 138.695 59.8164 138.77 59.8164ZM139.37 61.5426C139.445 61.5426 139.445 61.5426 139.445 61.6176V66.2708C139.445 66.3459 139.445 66.3459 139.37 66.3459H138.62C138.545 66.3459 138.545 66.3459 138.545 66.2708V64.3195V62.8935H138.47L137.644 64.2444L136.443 66.2708C136.443 66.3459 136.368 66.3459 136.293 66.3459H135.392C135.317 66.3459 135.317 66.3459 135.317 66.2708V61.6176C135.317 61.5426 135.317 61.5426 135.392 61.5426H136.143C136.218 61.5426 136.218 61.5426 136.218 61.6176V63.4939V65.07H136.293L137.194 63.569L138.319 61.6927C138.394 61.6176 138.394 61.6176 138.47 61.6176H139.37V61.5426Z" fill="white"/>
</svg>
