<svg width="150" height="21" viewBox="0 0 150 21" fill="none" xmlns="http://www.w3.org/2000/svg">
<g clip-path="url(#clip0)">
<path d="M25.125 4.00293H28.3393V8.99842H33.8426V4.00293H37.0569V16.9181H33.8426V11.6789H28.3393V16.9181H25.125V4.00293Z" fill="white"/>
<path d="M45.8319 17.2104C44.9553 17.2104 44.1193 17.0805 43.3237 16.8205C42.5445 16.5444 41.8627 16.1382 41.2783 15.6021C40.6938 15.0498 40.2311 14.3594 39.8902 13.5308C39.5493 12.6861 39.3789 11.7032 39.3789 10.5823V10.0949C39.3789 9.02272 39.5413 8.08859 39.8658 7.29258C40.1906 6.49655 40.637 5.83859 41.2052 5.31875C41.7735 4.78265 42.4308 4.38462 43.1777 4.12471C43.9245 3.84852 44.7279 3.71045 45.5883 3.71045C47.6177 3.71045 49.1599 4.24655 50.2151 5.31875C51.2704 6.39095 51.798 7.9424 51.798 9.97308V11.3377H42.6663C42.6825 11.9063 42.78 12.4018 42.9585 12.8242C43.137 13.2303 43.3725 13.5633 43.6646 13.8233C43.9569 14.0832 44.2897 14.2781 44.663 14.4081C45.0527 14.5218 45.4423 14.5787 45.8319 14.5787C46.6599 14.5787 47.2849 14.4568 47.7069 14.2131C48.129 13.9695 48.4294 13.6121 48.6079 13.1409H51.5544C51.2947 14.4893 50.6535 15.5047 49.6307 16.187C48.6079 16.8693 47.3417 17.2104 45.8319 17.2104ZM45.7102 6.34222C45.3367 6.34222 44.9634 6.39095 44.5901 6.48841C44.2329 6.58589 43.9162 6.74022 43.6402 6.95142C43.3644 7.16261 43.137 7.44691 42.9585 7.80431C42.78 8.1617 42.6825 8.59222 42.6663 9.09582H48.681C48.6647 8.55972 48.5754 8.11297 48.413 7.75557C48.267 7.39816 48.056 7.11387 47.78 6.90267C47.5202 6.69149 47.2117 6.54528 46.8547 6.46406C46.4975 6.38283 46.116 6.34222 45.7102 6.34222Z" fill="white"/>
<path d="M57.0166 6.68345H52.9014V4.00293H64.3462V6.68345H60.2309V16.9181H57.0166V6.68345Z" fill="white"/>
<path d="M71.8944 17.2104C71.0176 17.2104 70.1816 17.0805 69.3862 16.8205C68.607 16.5444 67.9252 16.1301 67.3408 15.5778C66.7563 15.0254 66.2936 14.335 65.9527 13.5065C65.6118 12.678 65.4414 11.7032 65.4414 10.5823V10.0949C65.4414 9.03896 65.6118 8.11297 65.9527 7.31694C66.2936 6.52091 66.7563 5.85485 67.3408 5.31875C67.9252 4.78265 68.607 4.38462 69.3862 4.12471C70.1816 3.84852 71.0176 3.71045 71.8944 3.71045C72.771 3.71045 73.599 3.84852 74.3782 4.12471C75.1574 4.38462 75.8392 4.78265 76.4236 5.31875C77.0244 5.85485 77.495 6.52091 77.8361 7.31694C78.1769 8.11297 78.3474 9.03896 78.3474 10.0949V10.5823C78.3474 11.687 78.1769 12.6536 77.8361 13.4821C77.495 14.3106 77.0244 15.0011 76.4236 15.5534C75.8392 16.1058 75.1574 16.52 74.3782 16.7962C73.599 17.0724 72.771 17.2104 71.8944 17.2104ZM71.8944 14.4812C72.8034 14.4812 73.5583 14.1563 74.159 13.5065C74.7759 12.8567 75.0843 11.8819 75.0843 10.5823V10.0949C75.0843 8.909 74.7759 8.00737 74.159 7.39004C73.5583 6.75648 72.8034 6.43968 71.8944 6.43968C70.9691 6.43968 70.206 6.75648 69.6054 7.39004C69.0047 8.00737 68.7045 8.909 68.7045 10.0949V10.5823C68.7045 11.8982 69.0047 12.881 69.6054 13.5308C70.206 14.1644 70.9691 14.4812 71.8944 14.4812Z" fill="white"/>
<path d="M80.5356 17.2105C80.4056 17.2105 80.2435 17.2024 80.0487 17.1861C79.8538 17.1861 79.6915 17.1699 79.5615 17.1374V14.2376C79.6427 14.2538 79.7646 14.262 79.9268 14.262C80.2352 14.262 80.5031 14.1726 80.7304 13.9939C80.9576 13.799 81.1444 13.4741 81.2905 13.0192C81.4528 12.5643 81.5665 11.9632 81.6313 11.2159C81.7125 10.4524 81.7532 9.51016 81.7532 8.38921V4.00293H91.9806V16.9181H88.7663V6.68345H84.724V8.87658C84.724 10.5499 84.6347 11.9307 84.4562 13.0192C84.2938 14.0914 84.034 14.9361 83.677 15.5535C83.3359 16.1708 82.8977 16.6013 82.362 16.845C81.8425 17.0887 81.2336 17.2105 80.5356 17.2105Z" fill="white"/>
<path d="M100.74 17.2104C99.8635 17.2104 99.0275 17.0805 98.2321 16.8205C97.4529 16.5444 96.7709 16.1301 96.1865 15.5778C95.602 15.0254 95.1395 14.335 94.7986 13.5065C94.4575 12.678 94.2871 11.7032 94.2871 10.5823V10.0949C94.2871 9.03896 94.4575 8.11297 94.7986 7.31694C95.1395 6.52091 95.602 5.85485 96.1865 5.31875C96.7709 4.78265 97.4529 4.38462 98.2321 4.12471C99.0275 3.84852 99.8635 3.71045 100.74 3.71045C101.617 3.71045 102.445 3.84852 103.224 4.12471C104.003 4.38462 104.685 4.78265 105.27 5.31875C105.87 5.85485 106.341 6.52091 106.682 7.31694C107.023 8.11297 107.193 9.03896 107.193 10.0949V10.5823C107.193 11.687 107.023 12.6536 106.682 13.4821C106.341 14.3106 105.87 15.0011 105.27 15.5534C104.685 16.1058 104.003 16.52 103.224 16.7962C102.445 17.0724 101.617 17.2104 100.74 17.2104ZM100.74 14.4812C101.649 14.4812 102.404 14.1563 103.005 13.5065C103.622 12.8567 103.93 11.8819 103.93 10.5823V10.0949C103.93 8.909 103.622 8.00737 103.005 7.39004C102.404 6.75648 101.649 6.43968 100.74 6.43968C99.8148 6.43968 99.0519 6.75648 98.4513 7.39004C97.8505 8.00737 97.5502 8.909 97.5502 10.0949V10.5823C97.5502 11.8982 97.8505 12.881 98.4513 13.5308C99.0519 14.1644 99.8148 14.4812 100.74 14.4812Z" fill="white"/>
<path d="M109.741 4.00293H118.995V6.68345H112.956V16.9181H109.741V4.00293Z" fill="white"/>
<path d="M120.936 4.00293H124.15V12.2881L129.897 4.00293H132.867V16.9181H129.653V8.63291L123.906 16.9181H120.936V4.00293Z" fill="white"/>
<path d="M138.403 12.0688C137.413 11.7439 136.691 11.2566 136.236 10.6067C135.782 9.9569 135.554 9.19336 135.554 8.3161C135.554 7.68254 135.66 7.10583 135.871 6.58597C136.098 6.04987 136.431 5.59499 136.869 5.22134C137.308 4.83145 137.86 4.53091 138.525 4.31973C139.207 4.10853 140.002 4.00293 140.912 4.00293H146.999V16.9181H143.785V12.4587H141.472L138.671 16.9181H135.067L138.403 12.0688ZM138.769 8.3161C138.769 8.86846 138.947 9.2746 139.304 9.53452C139.678 9.79445 140.173 9.92442 140.79 9.92442H143.785V6.68345H140.79C140.173 6.68345 139.678 6.82152 139.304 7.09769C138.947 7.35762 138.769 7.76377 138.769 8.3161Z" fill="white"/>
<path fill-rule="evenodd" clip-rule="evenodd" d="M4.15483 10.6999C4.05221 10.6917 3.94847 10.6875 3.84375 10.6875C1.7209 10.6875 0 12.4084 0 14.5312C0 16.6541 1.7209 18.375 3.84375 18.375C5.96659 18.375 7.6875 16.6541 7.6875 14.5312C7.6875 14.3683 7.67736 14.2077 7.65767 14.0501C5.83997 13.9045 4.37891 12.4944 4.15483 10.6999Z" fill="white"/>
<path fill-rule="evenodd" clip-rule="evenodd" d="M7.6875 6.09375C7.6875 3.97091 5.96659 2.25 3.84375 2.25C1.7209 2.25 2.109e-07 3.97091 0 6.09375C-3.81868e-07 8.21659 1.7209 9.9375 3.84375 9.9375C3.94206 9.9375 4.0395 9.93381 4.13593 9.92657C4.278 8.03666 5.78666 6.528 7.67657 6.38593C7.68381 6.2895 7.6875 6.19206 7.6875 6.09375Z" fill="white"/>
<path fill-rule="evenodd" clip-rule="evenodd" d="M11.8001 9.90767C11.9577 9.92736 12.1183 9.9375 12.2812 9.9375C14.4041 9.9375 16.125 8.21659 16.125 6.09375C16.125 3.97091 14.4041 2.25 12.2812 2.25C10.1584 2.25 8.4375 3.97091 8.4375 6.09375C8.4375 6.19847 8.44168 6.30221 8.44991 6.40483C10.2444 6.62891 11.6545 8.08997 11.8001 9.90767Z" fill="white"/>
<path fill-rule="evenodd" clip-rule="evenodd" d="M8.46986 14.0301C8.44851 14.1941 8.4375 14.3614 8.4375 14.5312C8.4375 16.6541 10.1584 18.375 12.2812 18.375C14.4041 18.375 16.125 16.6541 16.125 14.5312C16.125 12.4084 14.4041 10.6875 12.2812 10.6875C12.1114 10.6875 11.9441 10.6985 11.7801 10.7199C11.5559 12.4419 10.1919 13.8059 8.46986 14.0301Z" fill="white"/>
</g>
<defs>
<clipPath id="clip0">
<rect width="150" height="20.625" fill="white"/>
</clipPath>
</defs>
</svg>
