<svg width="104" height="54" viewBox="0 0 104 54" fill="none" xmlns="http://www.w3.org/2000/svg">
<path d="M12.5339 15.0129C13.732 13.6739 14.1548 11.2778 14.1548 9.93876C14.1548 7.75407 13.591 6.27412 11.3359 6.27412C9.29214 6.27412 8.30551 7.82454 8.30551 12.1939H0.694336C0.694336 5.56938 3.79518 0.00195312 11.6883 0.00195312C17.6081 0.00195312 21.9774 3.52564 21.9774 9.65686C21.9774 14.2377 20.2861 16.9861 18.1718 19.5937C16.1986 21.9193 10.2788 26.2182 9.92641 28.9667H22.6117V35.3093H0.694336C0.694336 24.5268 8.8693 19.1708 12.5339 15.0129Z" fill="white"/>
<path d="M35.8618 0C44.4596 0 46.5033 4.79222 46.5033 9.65491V26.2163C46.5033 31.1494 44.4596 35.9416 35.8618 35.9416C27.6868 35.9416 25.4316 31.1494 25.4316 26.2163V9.65491C25.4316 4.72175 27.6868 0 35.8618 0ZM33.1838 9.51396V26.4277C33.1838 28.7533 33.6066 30.0218 35.7208 30.0218C37.976 30.0218 38.6807 28.7533 38.6807 26.4277V9.51396C38.6807 7.18833 37.976 5.9198 35.7208 5.9198C33.6066 5.9198 33.1838 7.18833 33.1838 9.51396Z" fill="white"/>
<path d="M58.6242 11.2053V10.2187C58.6242 4.86269 61.725 0 69.1248 0C75.0446 0 79.0616 3.52369 79.0616 8.80923C79.0616 12.1215 78.2864 15.1519 74.1284 16.2794C79.0616 18.1822 79.7663 20.8602 79.7663 25.582C79.7663 32.9113 75.6788 36.0121 68.9838 36.0121C62.9231 36.0121 58.5537 32.6998 58.5537 25.0182V23.2564H66.0944V24.5954C66.0944 27.2734 66.7991 29.6695 69.0543 29.6695C71.3799 29.6695 72.0142 28.26 72.0142 24.4544C72.0142 20.7898 70.7457 19.8736 67.0106 19.8736H65.3192V14.3062H66.5172C70.3228 14.3062 71.6618 13.6014 71.6618 9.65491C71.6618 7.82259 70.9571 5.99027 68.9838 5.99027C67.222 5.99027 66.0944 7.32928 66.0944 9.37302V11.2053H58.6242Z" fill="white"/>
<path d="M89.492 14.0946C90.7606 12.6147 92.2405 11.3461 95.5528 11.3461C100.768 11.3461 103.446 15.2927 103.446 22.9743C103.446 32.9111 99.7812 36.012 93.1567 36.012C85.8274 36.012 82.7266 32.6997 82.7266 24.6657H90.1263C90.1968 28.8236 91.0425 30.0922 92.9453 30.0922C94.8481 30.0922 95.6233 28.8236 95.6233 23.2562C95.6233 18.5345 94.8481 17.1955 92.8043 17.1955C91.0425 17.1955 90.4082 18.2526 90.1263 19.7325H83.0789L84.0656 0.70459H102.107V6.62439H90.0558L89.492 14.0946Z" fill="white"/>
<path d="M55.7352 28.8921H49.3926V35.2347H55.7352V28.8921Z" fill="white"/>
<path d="M6.47351 46.3766C6.05067 47.5747 5.76877 48.4908 5.55735 49.1251C5.34593 49.7593 4.99356 50.605 4.57072 51.6621C4.3593 52.085 4.21835 52.4374 4.00693 52.7193C3.79551 53.0011 3.58408 53.2126 3.23172 53.424C2.94982 53.6354 2.52698 53.7059 2.17461 53.7059H1.75177C1.54034 53.7059 1.32892 53.6354 1.18798 53.4945C1.04703 53.3535 0.976554 53.2126 0.976554 52.9307C0.976554 52.7192 1.04703 52.5078 1.18798 52.3669C1.32892 52.2259 1.54034 52.1555 1.75177 52.1555H1.89271C2.10413 52.1555 2.31556 52.085 2.4565 52.0145C2.59745 51.944 2.7384 51.7326 2.94982 51.4507L0.624185 46.3766C0.553711 46.3061 0.553711 46.1652 0.553711 46.0242C0.553711 45.8128 0.624185 45.6014 0.765132 45.4604C0.90608 45.3195 1.1175 45.249 1.32892 45.249C1.68129 45.249 1.89271 45.39 2.03366 45.7423L3.72503 49.7593C3.86598 49.3365 4.0774 48.6318 4.42977 47.7156C4.71167 46.7994 4.92309 46.1652 5.06403 45.8128C5.20498 45.4604 5.4164 45.249 5.83925 45.249C6.12114 45.249 6.26209 45.3195 6.40304 45.4604C6.54398 45.6014 6.61446 45.7423 6.61446 45.9538C6.54398 46.0947 6.47351 46.2357 6.47351 46.3766Z" fill="white"/>
<path d="M11.9713 46.0208C11.9713 45.8094 12.0417 45.598 12.1827 45.457C12.3236 45.3161 12.5351 45.2456 12.7465 45.2456C12.9579 45.2456 13.1693 45.3161 13.3103 45.457C13.4512 45.598 13.5217 45.8094 13.5217 46.0208V52.9273C13.5217 53.1387 13.4512 53.3501 13.3103 53.491C13.1693 53.632 12.9579 53.7025 12.7465 53.7025C12.5351 53.7025 12.3236 53.632 12.1827 53.491C12.0417 53.3501 11.9713 53.1387 11.9713 52.9273V50.2493H9.01136V52.9273C9.01136 53.1387 8.94089 53.3501 8.79994 53.491C8.65899 53.632 8.44757 53.7025 8.23615 53.7025C8.02473 53.7025 7.81331 53.632 7.67236 53.491C7.53141 53.3501 7.46094 53.1387 7.46094 52.9273V46.0208C7.46094 45.8094 7.53141 45.598 7.67236 45.457C7.81331 45.3161 8.02473 45.2456 8.23615 45.2456C8.44757 45.2456 8.65899 45.3161 8.79994 45.457C8.94089 45.598 9.01136 45.8094 9.01136 46.0208V48.8398H11.9713V46.0208Z" fill="white"/>
<path d="M16.7633 52.9273C16.7633 53.1387 16.6928 53.3501 16.5519 53.491C16.4109 53.632 16.1995 53.7025 15.9881 53.7025C15.7767 53.7025 15.5653 53.632 15.4243 53.491C15.2834 53.3501 15.2129 53.1387 15.2129 52.9273V46.0208C15.2129 45.8094 15.2834 45.598 15.4243 45.457C15.5653 45.3161 15.7767 45.2456 15.9881 45.2456C16.1995 45.2456 16.4109 45.3161 16.5519 45.457C16.6928 45.598 16.7633 45.8094 16.7633 46.0208V50.1788L19.8642 46.6551V46.0208C19.8642 45.8094 19.9346 45.598 20.0756 45.457C20.2165 45.3161 20.428 45.2456 20.6394 45.2456C20.8508 45.2456 21.0622 45.3161 21.2032 45.457C21.3441 45.598 21.4146 45.8094 21.4146 46.0208V52.9273C21.4146 53.1387 21.3441 53.3501 21.2032 53.491C21.0622 53.632 20.8508 53.7025 20.6394 53.7025C20.428 53.7025 20.2165 53.632 20.0756 53.491C19.9346 53.3501 19.8642 53.1387 19.8642 52.9273V48.7693L16.7633 52.293V52.9273Z" fill="white"/>
<path d="M27.0527 47.6438C27.0527 47.3619 26.9822 47.1505 26.7708 47.0096C26.6298 46.8686 26.3479 46.7981 26.066 46.7981H24.727V48.7714H25.7841C26.6298 48.7714 27.0527 48.4895 27.0527 47.9257V47.6438ZM27.405 51.0266C27.405 50.7447 27.3346 50.5333 27.1231 50.3923C26.9117 50.2514 26.6298 50.1809 26.2774 50.1809H24.727V52.1542H26.3479C26.7003 52.1542 26.9822 52.0837 27.1231 51.8723C27.2641 51.7313 27.405 51.5199 27.405 51.238V51.0266ZM28.9554 51.5199C28.9554 52.1542 28.744 52.6475 28.3212 53.0703C27.8983 53.4227 27.2641 53.6341 26.4184 53.6341H24.0223C23.8109 53.6341 23.5994 53.5636 23.4585 53.4227C23.3175 53.2817 23.2471 53.0703 23.2471 52.8589V46.1639C23.2471 45.9525 23.3175 45.741 23.4585 45.6001C23.5994 45.4591 23.8109 45.3887 24.0223 45.3887H26.1365C26.9822 45.3887 27.6164 45.6001 28.0393 45.9525C28.4621 46.3753 28.6736 46.7981 28.6736 47.4324V47.7143C28.6736 48.4895 28.3212 49.0533 27.6869 49.3352C28.1098 49.4762 28.4621 49.6876 28.6736 50.0399C28.885 50.3923 29.0259 50.7447 29.0259 51.097L28.9554 51.5199Z" fill="white"/>
<path d="M35.58 52.86C35.58 53.0715 35.5095 53.2829 35.3686 53.4238C35.2276 53.5648 35.0867 53.6352 34.8752 53.6352H31.2106C30.9992 53.6352 30.8582 53.5648 30.7173 53.4238C30.5763 53.2829 30.5059 53.0715 30.5059 52.86V46.0945C30.5059 45.8831 30.5763 45.7422 30.7173 45.5308C30.8582 45.3898 30.9992 45.3193 31.2106 45.3193H34.7343C34.9457 45.3193 35.1571 45.3898 35.2981 45.5308C35.439 45.6717 35.5095 45.8127 35.5095 46.0241C35.5095 46.2355 35.439 46.3764 35.2981 46.5174C35.1571 46.6583 34.9457 46.7288 34.7343 46.7288H32.0563V48.6316H34.5229C34.7343 48.6316 34.8752 48.7021 35.0162 48.843C35.1571 48.984 35.2276 49.1249 35.2276 49.3363C35.2276 49.5478 35.1571 49.6887 35.0162 49.8297C34.8752 49.9706 34.7343 50.0411 34.5229 50.0411H32.0563V51.9439H34.8752C35.0867 51.9439 35.2276 52.0143 35.3686 52.1553C35.5095 52.4372 35.58 52.6486 35.58 52.86Z" fill="white"/>
<path d="M40.795 47.7154C40.795 47.1517 40.4426 46.7993 39.597 46.7993H38.3989V49.1249H39.7379C40.0903 49.1249 40.3722 49.0544 40.5131 48.843C40.6541 48.7021 40.7245 48.4907 40.7245 48.2088L40.795 47.7154ZM42.3454 48.2088C42.3454 48.9135 42.134 49.4773 41.7112 49.9001C41.2883 50.323 40.6541 50.5344 39.8788 50.5344H38.4694V52.86C38.4694 53.0715 38.3989 53.2829 38.2579 53.4238C38.117 53.5648 37.9056 53.6352 37.6942 53.6352C37.4827 53.6352 37.2713 53.5648 37.1304 53.4238C36.9894 53.2829 36.9189 53.0715 36.9189 52.86V46.0945C36.9189 45.8831 36.9894 45.6717 37.1304 45.5308C37.2713 45.3898 37.4827 45.3193 37.6942 45.3193H39.8084C40.7245 45.3193 41.3588 45.5308 41.7816 46.0241C42.2045 46.4469 42.4159 47.0107 42.4159 47.645L42.3454 48.2088Z" fill="white"/>
<path d="M47.3486 46.8681C47.1371 46.7272 46.8552 46.6567 46.5029 46.6567C46.0096 46.6567 45.6572 46.8681 45.3753 47.2205C45.1639 47.5729 45.0229 48.1367 45.0229 48.9119V50.0395C45.0229 50.8147 45.1639 51.3785 45.3753 51.7308C45.5867 52.0832 45.9391 52.2241 46.4324 52.2241C46.8552 52.2241 47.1371 52.1537 47.419 51.9422C47.6305 51.8718 47.8419 51.8013 47.9123 51.8013C48.1238 51.8013 48.2647 51.8718 48.4057 52.0127C48.5466 52.1537 48.6171 52.2946 48.6171 52.506C48.6171 52.7175 48.5466 52.9289 48.3352 53.0698C48.1238 53.2812 47.8419 53.4222 47.4895 53.4927C47.1371 53.5631 46.8552 53.6336 46.5029 53.6336C45.4458 53.6336 44.741 53.3517 44.2477 52.7175C43.7544 52.0832 43.543 51.2375 43.543 50.0395V48.7709C43.543 47.6433 43.8249 46.7977 44.2477 46.1634C44.741 45.5291 45.5162 45.1768 46.5733 45.1768C47.3486 45.1768 47.9123 45.3177 48.3352 45.6701C48.5466 45.811 48.6876 46.0224 48.6876 46.3043C48.6876 46.4453 48.6171 46.6567 48.4761 46.7977C48.3352 46.9386 48.1942 47.0091 47.9828 47.0091C47.7714 47.0795 47.56 47.0091 47.3486 46.8681Z" fill="white"/>
<path d="M51.5065 52.9273C51.5065 53.1387 51.436 53.3501 51.2951 53.491C51.1541 53.632 50.9427 53.7025 50.7313 53.7025C50.5198 53.7025 50.3084 53.632 50.1675 53.491C50.0265 53.3501 49.9561 53.1387 49.9561 52.9273V46.0208C49.9561 45.8094 50.0265 45.598 50.1675 45.457C50.3084 45.3161 50.5198 45.2456 50.7313 45.2456C50.9427 45.2456 51.1541 45.3161 51.2951 45.457C51.436 45.598 51.5065 45.8094 51.5065 46.0208V50.1788L54.6073 46.6551V46.0208C54.6073 45.8094 54.6778 45.598 54.8187 45.457C54.9597 45.3161 55.1711 45.2456 55.3825 45.2456C55.594 45.2456 55.8054 45.3161 55.9463 45.457C56.0873 45.598 56.1578 45.8094 56.1578 46.0208V52.9273C56.1578 53.1387 56.0873 53.3501 55.9463 53.491C55.8054 53.632 55.594 53.7025 55.3825 53.7025C55.1711 53.7025 54.9597 53.632 54.8187 53.491C54.6778 53.3501 54.6073 53.1387 54.6073 52.9273V48.7693L51.5065 52.293V52.9273Z" fill="white"/>
<path d="M61.232 46.8698V52.9305C61.232 53.1419 61.1615 53.3534 61.0206 53.4943C60.8796 53.6352 60.6682 53.7057 60.4568 53.7057C60.2454 53.7057 60.034 53.6352 59.893 53.4943C59.7521 53.3534 59.6816 53.1419 59.6816 52.9305V46.8698H57.9197C57.7083 46.8698 57.4969 46.7993 57.3559 46.6583C57.215 46.5174 57.1445 46.306 57.1445 46.0945C57.1445 45.8831 57.215 45.6717 57.3559 45.5308C57.4969 45.3898 57.7083 45.3193 57.9197 45.3193H62.9234C63.1348 45.3193 63.3462 45.3898 63.4872 45.5308C63.6281 45.6717 63.6986 45.8831 63.6986 46.0945C63.6986 46.306 63.6281 46.5174 63.4872 46.6583C63.3462 46.7993 63.1348 46.8698 62.9234 46.8698H61.232Z" fill="white"/>
<path d="M69.9003 52.86C69.9003 53.0715 69.8298 53.2829 69.6889 53.4238C69.5479 53.5648 69.407 53.6352 69.1956 53.6352H65.5309C65.3195 53.6352 65.1785 53.5648 65.0376 53.4238C64.8966 53.2829 64.8262 53.0715 64.8262 52.86V46.0945C64.8262 45.8831 64.8966 45.7422 65.0376 45.5308C65.1785 45.3898 65.3195 45.3193 65.5309 45.3193H69.0546C69.266 45.3193 69.4774 45.3898 69.6184 45.5308C69.7593 45.6717 69.8298 45.8127 69.8298 46.0241C69.8298 46.2355 69.7593 46.3764 69.6184 46.5174C69.4774 46.6583 69.266 46.7288 69.0546 46.7288H66.3766V48.6316H68.8432C69.0546 48.6316 69.1955 48.7021 69.3365 48.843C69.4774 48.984 69.5479 49.1249 69.5479 49.3363C69.5479 49.5478 69.4774 49.6887 69.3365 49.8297C69.1955 49.9706 69.0546 50.0411 68.8432 50.0411H66.3766V51.9439H69.1956C69.407 51.9439 69.5479 52.0143 69.6889 52.1553C69.8298 52.4372 69.9003 52.6486 69.9003 52.86Z" fill="white"/>
<path d="M74.4107 46.8698V52.9305C74.4107 53.1419 74.3402 53.3534 74.1993 53.4943C74.0584 53.6352 73.8469 53.7057 73.6355 53.7057C73.4241 53.7057 73.2127 53.6352 73.0717 53.4943C72.9308 53.3534 72.8603 53.1419 72.8603 52.9305V46.8698H71.0985C70.887 46.8698 70.6756 46.7993 70.5347 46.6583C70.3937 46.5174 70.3232 46.306 70.3232 46.0945C70.3232 45.8831 70.3937 45.6717 70.5347 45.5308C70.6756 45.3898 70.887 45.3193 71.0985 45.3193H76.1021C76.3135 45.3193 76.5249 45.3898 76.6659 45.5308C76.8068 45.6717 76.8773 45.8831 76.8773 46.0945C76.8773 46.306 76.8068 46.5174 76.6659 46.6583C76.5249 46.7993 76.3135 46.8698 76.1021 46.8698H74.4107Z" fill="white"/>
<path d="M85.9683 46.0208C85.9683 45.8094 86.0388 45.598 86.1798 45.457C86.3207 45.3161 86.5321 45.2456 86.7435 45.2456C86.955 45.2456 87.1664 45.3161 87.3073 45.457C87.4483 45.598 87.5188 45.8094 87.5188 46.0208V52.9273C87.5188 53.1387 87.4483 53.3501 87.3073 53.491C87.1664 53.632 86.955 53.7025 86.7435 53.7025C86.5321 53.7025 86.3207 53.632 86.1798 53.491C86.0388 53.3501 85.9683 53.1387 85.9683 52.9273V50.2493H83.0084V52.9273C83.0084 53.1387 82.938 53.3501 82.797 53.491C82.6561 53.632 82.4446 53.7025 82.2332 53.7025C82.0218 53.7025 81.8104 53.632 81.6694 53.491C81.5285 53.3501 81.458 53.1387 81.458 52.9273V46.0208C81.458 45.8094 81.5285 45.598 81.6694 45.457C81.8104 45.3161 82.0218 45.2456 82.2332 45.2456C82.4446 45.2456 82.6561 45.3161 82.797 45.457C82.938 45.598 83.0084 45.8094 83.0084 46.0208V48.8398H85.9683V46.0208Z" fill="white"/>
<path d="M92.5221 46.8698V52.9305C92.5221 53.1419 92.4516 53.3534 92.3106 53.4943C92.1697 53.6352 91.9583 53.7057 91.7468 53.7057C91.5354 53.7057 91.324 53.6352 91.1831 53.4943C91.0421 53.3534 90.9716 53.1419 90.9716 52.9305V46.8698H89.2098C88.9984 46.8698 88.7869 46.7993 88.646 46.6583C88.505 46.5174 88.4346 46.306 88.4346 46.0945C88.4346 45.8831 88.505 45.6717 88.646 45.5308C88.7869 45.3898 88.9984 45.3193 89.2098 45.3193H94.2134C94.4248 45.3193 94.6363 45.3898 94.7772 45.5308C94.9182 45.6717 94.9886 45.8831 94.9886 46.0945C94.9886 46.306 94.9182 46.5174 94.7772 46.6583C94.6363 46.7993 94.4248 46.8698 94.2134 46.8698H92.5221Z" fill="white"/>
<path d="M97.5973 52.9273C97.5973 53.1387 97.5268 53.3501 97.3859 53.491C97.2449 53.632 97.0335 53.7025 96.8221 53.7025C96.6107 53.7025 96.3992 53.632 96.2583 53.491C96.1174 53.3501 96.0469 53.1387 96.0469 52.9273V46.0208C96.0469 45.8094 96.1174 45.598 96.2583 45.457C96.3992 45.3161 96.6107 45.2456 96.8221 45.2456C97.0335 45.2456 97.2449 45.3161 97.3859 45.457C97.5268 45.598 97.5973 45.8094 97.5973 46.0208V50.1788L100.698 46.6551V46.0208C100.698 45.8094 100.769 45.598 100.91 45.457C101.051 45.3161 101.262 45.2456 101.473 45.2456C101.685 45.2456 101.896 45.3161 102.037 45.457C102.178 45.598 102.249 45.8094 102.249 46.0208V52.9273C102.249 53.1387 102.178 53.3501 102.037 53.491C101.896 53.632 101.685 53.7025 101.473 53.7025C101.262 53.7025 101.051 53.632 100.91 53.491C100.769 53.3501 100.698 53.1387 100.698 52.9273V48.7693L97.5973 52.293V52.9273Z" fill="white"/>
</svg>
