<svg width="152" height="43" viewBox="0 0 152 43" fill="none" xmlns="http://www.w3.org/2000/svg">
<path d="M1.83643 27.317C1.83643 27.317 4.47336 30.8951 9.13605 30.8951C11.773 30.8951 14.1274 29.6246 14.1274 27.1276C14.1274 21.9474 0.847582 22.8893 0.847582 15.2592C0.847582 10.9727 4.52045 8.85352 9.27731 8.85352C11.6788 8.85352 16.4818 9.79538 16.4818 13.14V15.165H13.4681V14.0347C13.4681 12.2923 10.9254 11.633 9.37149 11.633C6.07533 11.633 4.09763 12.7632 4.09763 15.0708C4.09763 20.3933 17.3774 19.1689 17.3774 27.0335C17.3774 30.9893 13.7987 33.6746 9.08896 33.6746C2.91945 33.6746 0 29.5294 0 29.5294L1.83643 27.317ZM23.3076 3.81553C23.3076 3.15622 22.9309 2.77948 22.2716 2.77948H20.2939V0H23.6372C25.662 0 26.5105 0.706398 26.5105 2.73141V18.4625H28.9591C29.8538 18.4625 30.9839 18.1799 31.6431 17.3323L37.7175 9.4206H41.6258L34.797 18.0867C33.6198 19.5466 33.0077 19.7831 33.0077 19.7831V19.8772C33.0077 19.8772 33.714 20.2069 34.4674 21.6197L38.7534 29.2969C39.1772 30.0965 39.6481 30.3329 40.9195 30.3329H42.1908V33.1114H39.9777C37.6233 33.1114 36.9641 32.7347 35.881 30.7568L31.1713 22.279C30.6533 21.3371 29.5232 21.243 28.6756 21.243H26.5096V33.1114H23.3066V3.81553H23.3076ZM47.7001 40.1263C49.772 40.1263 51.1846 38.431 52.0793 36.2637L53.4919 33.0143L45.1564 13.2813C44.7797 12.4336 44.3559 12.1981 43.5083 12.1981H43.0374V9.41962H44.4972C46.6161 9.41962 47.2754 9.89055 48.1229 12.0097L54.1973 26.798C54.6682 27.9753 55.0449 29.341 55.0449 29.341H55.139C55.139 29.341 55.4687 27.9753 55.9395 26.798L61.7784 12.0097C62.5789 9.89055 63.2853 9.41962 65.4523 9.41962H66.912V12.1981H66.4411C65.5936 12.1981 65.1227 12.4336 64.7931 13.2813L54.574 38.0542C53.3487 41.0682 50.9482 43 47.7923 43C44.4962 43 42.6588 40.6915 42.6588 40.6915L44.1656 38.3368C44.1675 38.3849 45.6744 40.1263 47.7001 40.1263ZM81.368 8.52485C88.2429 8.52485 92.0109 13.5638 92.0109 19.9224C92.0109 20.6288 91.8686 22.1358 91.8686 22.1358H75.2927C75.7636 26.3751 78.8714 28.5885 82.4972 28.5885C86.3594 28.5885 89.2317 25.9042 89.2317 25.9042L91.7274 30.0494C91.7274 30.0494 88.0545 33.6756 82.0734 33.6756C74.1145 33.6756 69.1703 27.9302 69.1703 21.1007C69.1703 13.7051 74.1626 8.52485 81.368 8.52485ZM85.8875 17.9916C85.7933 15.1189 83.8166 13.141 81.368 13.141C78.3063 13.141 76.1403 14.9776 75.481 17.9916H85.8875ZM97.7998 15.2121C97.7998 14.5057 97.4231 14.176 96.7638 14.176H94.8793V9.08996H100.39C102.509 9.08996 103.545 10.0789 103.545 11.7743V12.4807C103.545 12.9987 103.45 13.5167 103.45 13.5167H103.545C104.58 11.4917 107.17 8.52485 112.021 8.52485C117.343 8.52485 120.404 11.3033 120.404 17.6619V27.0344C120.404 27.6937 120.781 28.0715 121.44 28.0715H123.324V33.1104H117.626C115.365 33.1104 114.423 32.1686 114.423 29.9071V18.8863C114.423 15.9656 113.669 13.9877 110.656 13.9877C107.453 13.9877 105.051 16.0127 104.204 18.8863C103.874 19.8753 103.734 20.9584 103.734 22.0887V33.1095H97.7998V15.2121ZM136.319 8.52485C141.876 8.52485 143.713 11.9156 143.713 11.9156H143.807V11.3033C143.807 10.2202 144.561 9.08996 146.444 9.08996H152V14.176H150.164C149.551 14.176 149.128 14.5057 149.128 15.1179V31.6486C149.128 39.8899 142.724 42.999 136.46 42.999C133.446 42.999 130.243 42.1513 127.936 40.9269L129.773 36.2166C129.773 36.2166 132.739 37.8188 136.414 37.8188C140.04 37.8188 143.195 36.2637 143.195 31.9311V30.8009C143.195 30.2358 143.242 29.5294 143.242 29.5294H143.147C141.735 31.5544 139.662 32.6385 136.461 32.6385C129.585 32.6385 125.677 27.0805 125.677 20.4865C125.677 13.8925 129.396 8.52485 136.319 8.52485ZM143.336 20.5346C143.336 15.0708 140.605 13.6109 137.355 13.6109C133.729 13.6109 131.75 16.2481 131.75 20.2981C131.75 24.4904 133.869 27.5986 137.731 27.5986C140.605 27.5996 143.336 25.9503 143.336 20.5346Z" fill="#00C1FF"/>
</svg>
