<svg xmlns="http://www.w3.org/2000/svg" xmlns:xlink="http://www.w3.org/1999/xlink" width="155.825" height="168.508" viewBox="0 0 155.825 168.508"><defs><clipPath id="a"><path d="M7886.244,366.96l.193-67.932c.023-8.318,3.68-16.451,10.932-24.269l-.193,67.932C7889.925,350.508,7886.268,358.642,7886.244,366.96Z" fill="none"/></clipPath><clipPath id="b"><path d="M7883.741,366.948l.193-67.932a31.072,31.072,0,0,0,1.253,8.729l-.193,67.932A31.077,31.077,0,0,1,7883.741,366.948Z" fill="none"/></clipPath><clipPath id="c"><path d="M7860.156,358.885l.193-67.931a33.955,33.955,0,0,1,2.363-12.081l-.193,67.931A33.975,33.975,0,0,0,7860.156,358.885Z" fill="none"/></clipPath><clipPath id="d"><path d="M7857.654,358.881l.193-67.932c-.022,7.5,2.676,14.745,8.077,21.635l-.192,67.931C7860.331,373.626,7857.633,366.385,7857.654,358.881Z" fill="none"/></clipPath><clipPath id="e"><path d="M7843.717,322.263l-.193,67.932c-12.778-8.878-19.955-19.611-21.334-31.9l.192-67.931C7823.761,302.652,7830.939,313.386,7843.717,322.263Z" fill="none"/></clipPath><clipPath id="f"><path d="M7814.6,336.867l-.193,67.932c-.9-.482-1.787-.97-2.655-1.471-13.067-7.545-21.8-17.111-25.972-28.474l.193-67.931c4.174,11.363,12.9,20.928,25.972,28.473C7812.815,335.9,7813.7,336.385,7814.6,336.867Z" fill="none"/></clipPath><linearGradient id="g" x1="0.619" y1="-0.03" x2="0.315" y2="1.244" gradientUnits="objectBoundingBox"><stop offset="0" stop-color="#fff"/><stop offset="0.201" stop-color="#f8fbfc"/><stop offset="0.48" stop-color="#e6f0f6"/><stop offset="0.803" stop-color="#c9deec"/><stop offset="1" stop-color="#b4d1e5"/></linearGradient><linearGradient id="h" x1="0.812" y1="-0.251" x2="0.266" y2="1.33" xlink:href="#g"/><linearGradient id="i" x1="0.685" y1="-0.003" x2="-0.187" y2="1.753" xlink:href="#g"/><clipPath id="j"><path d="M7932.135,277.849l-.193,67.932c-14.143,8.515-22.259,18.65-24.114,30.126l.192-67.931C7909.876,296.5,7917.991,286.365,7932.135,277.849Z" fill="none"/></clipPath></defs><g transform="translate(-7785.783 -274.071)"><g opacity="0.8"><g style="isolation:isolate"><g clip-path="url(#a)"><g style="isolation:isolate"><path d="M7897.369,274.759l-.193,67.932q-1.572,1.693-2.918,3.407l.193-67.931q1.345-1.715,2.918-3.408" fill="#bbe8f6"/><path d="M7894.451,278.167l-.193,67.931a44.076,44.076,0,0,0-3.747,5.56l.192-67.932a44.06,44.06,0,0,1,3.748-5.559" fill="#b7e6f6"/><path d="M7890.7,283.726l-.192,67.932a35.5,35.5,0,0,0-2.336,4.978l.193-67.932a35.541,35.541,0,0,1,2.335-4.978" fill="#b3e5f5"/><path d="M7888.368,288.7l-.193,67.932a30.8,30.8,0,0,0-1.368,4.762l.193-67.932a30.637,30.637,0,0,1,1.368-4.762" fill="#ade3f5"/><path d="M7887,293.466l-.193,67.932a28.706,28.706,0,0,0-.551,4.813l.193-67.932a28.616,28.616,0,0,1,.551-4.813" fill="#a9e2f4"/><path d="M7886.449,298.279l-.193,67.932q-.01.373-.012.749l.193-67.932c0-.25,0-.5.012-.749" fill="#a5e0f4"/></g></g></g><path d="M7887.657,307.512l-.192,67.932-2.47.233.193-67.932Z" fill="#c5ebf8"/><g style="isolation:isolate"><g clip-path="url(#b)"><g style="isolation:isolate"><path d="M7885.187,307.745l-.193,67.932a31.077,31.077,0,0,1-1.253-8.729l.193-67.932a31.072,31.072,0,0,0,1.253,8.729" fill="#99dcf2"/></g></g></g><path d="M7897.369,274.759c-9.7,10.457-12.968,21.479-9.712,32.753l-2.47.233c-3.343-11.6.009-22.928,9.972-33.674Z" fill="#e1f5fb"/></g><g opacity="0.8"><g style="isolation:isolate"><g clip-path="url(#c)"><g style="isolation:isolate"><path d="M7862.712,278.873l-.193,67.931-.09.238.193-67.931c.029-.08.06-.159.09-.238" fill="#b3e5f5"/><path d="M7862.622,279.111l-.193,67.931a36.848,36.848,0,0,0-1.642,5.693l.193-67.932a36.7,36.7,0,0,1,1.642-5.692" fill="#ade3f5"/><path d="M7860.98,284.8l-.193,67.932a31.967,31.967,0,0,0-.618,5.348l.192-67.932a31.918,31.918,0,0,1,.619-5.348" fill="#a9e2f4"/><path d="M7860.361,290.151l-.192,67.932c-.008.268-.012.535-.013.8l.193-67.931c0-.267,0-.535.012-.8" fill="#a5e0f4"/></g></g></g><g style="isolation:isolate"><g clip-path="url(#d)"><g style="isolation:isolate"><path d="M7865.924,312.584l-.192,67.931c-5.4-6.889-8.1-14.13-8.078-21.634l.193-67.932c-.022,7.5,2.676,14.745,8.077,21.635" fill="#99dcf2"/></g></g></g><path d="M7862.712,278.873c-4.453,11.648-2.608,22.793,5.49,33.115l-2.278.6c-8.322-10.617-10.227-22.066-5.653-34.031Z" fill="#e1f5fb"/><path d="M7868.2,311.988l-.192,67.932-2.277.6.192-67.932Z" fill="#cceef9"/></g><g opacity="0.8" style="isolation:isolate"><path d="M7824.874,290.27c1.346,11.983,8.331,22.434,20.758,31.066l-1.915.927c-12.778-8.877-19.956-19.611-21.335-31.9Z" fill="#e1f5fb"/><path d="M7845.632,321.336l-.193,67.932-1.915.928.193-67.932Z" fill="#ceeef9"/><g style="isolation:isolate"><g clip-path="url(#e)"><g style="isolation:isolate"><path d="M7843.717,322.263l-.193,67.932c-12.778-8.878-19.955-19.611-21.334-31.9l.192-67.931c1.379,12.29,8.557,23.024,21.335,31.9" fill="#99dcf2"/></g></g></g></g><g opacity="0.8" style="isolation:isolate"><path d="M7788.419,306.625c4.079,11.083,12.588,20.411,25.308,27.755q1.254.725,2.561,1.421l-1.685,1.066c-.9-.482-1.788-.97-2.655-1.471-13.068-7.545-21.8-17.11-25.972-28.473Z" fill="#e1f5fb"/><path d="M7816.288,335.8l-.192,67.932-1.686,1.066.192-67.932Z" fill="#ceeef9"/><g style="isolation:isolate"><g clip-path="url(#f)"><g style="isolation:isolate"><path d="M7814.6,336.867l-.193,67.932c-.9-.482-1.787-.97-2.655-1.471-13.067-7.545-21.8-17.111-25.972-28.474l.193-67.931c4.174,11.363,12.9,20.928,25.972,28.473.867.5,1.756.989,2.655,1.471" fill="#99dcf2"/></g></g></g></g><path d="M7843.292,432.208l.873.271a1.454,1.454,0,0,1,.781.694,1.147,1.147,0,0,1-.221,1.321c-.563,1.272-1.124,2.622-1.977,2.6-1.072-.023-.5-.92-.27-1.5a10.556,10.556,0,0,0,.546-1.988.591.591,0,0,0-.249-.514l-.4-.726Z"/><path d="M7838.3,439.037l-.159,1.044a1.755,1.755,0,0,1-.127.959,1.157,1.157,0,0,1-.728.495,3.262,3.262,0,0,1-2.381,1.028c-.58-.166-.752-.418-.651-.729a6.934,6.934,0,0,1,1.652-1.34,4.066,4.066,0,0,0,1.035-.967l.321-.848Z"/><path d="M7838.221,428.053c.146.361.287.737.418,1.141.02.054.035.107.053.162.639.529,1.254,1.049,1.843,1.586q.172.153.338.312a18.859,18.859,0,0,1,2.051,2.23c.2.188-.394,1.916.073,1.914.761-.005,1.489-2.449,1.013-2.932a9.935,9.935,0,0,1-1.42-2.07,11.716,11.716,0,0,0-.954-1.553,2.754,2.754,0,0,0-.214-.248,2.019,2.019,0,0,0-.753-.513l.808-5-1.723-1.854-.255-.274-2.34.564C7836.623,424.648,7837.453,426.146,7838.221,428.053Z" fill="#ffbaa8"/><path d="M7835.531,441.187c.119.4,1.437.035,2.61-1.106,1.093-3.279,2.763-5.261,1.947-8.336.068-.122.137-.243.2-.363.082-.148.164-.294.244-.44.4-.719.767-1.422,1.1-2.1.058-.111.111-.221.164-.33a19.122,19.122,0,0,0,1.168-2.9c1.055-1.906.726-3.3-.445-4.38-.1-.093-.205-.183-.318-.272l-2.451.274-2.595.29c.526,1.533,1.148,2.865,2.272,3.153a16,16,0,0,0-1.21,3.38c-.1.42-.2.852-.279,1.292-.095.506-.182,1.029-.266,1.573l0,.018c-.093.645.093,1.307.018,2.3a29.065,29.065,0,0,1-.858,6.431C7836.265,440.446,7835.46,440.948,7835.531,441.187Z" fill="#ffbaa8"/><path d="M7837.674,430.936a3.225,3.225,0,0,0,2.617.446c.082-.148.164-.294.244-.44q.172.153.338.312a3.252,3.252,0,0,0,1.717-.858,11.716,11.716,0,0,0-.954-1.553c.058-.111.111-.221.164-.33l-.378.082-2.783.6-.7.151c-.095.506-.182,1.029-.266,1.573Z" fill="#ffbaa8" opacity="0.5" style="mix-blend-mode:multiply;isolation:isolate"/><path d="M7838.325,411.243a1.734,1.734,0,0,1,1.747-.171l4.27,2.482a1.718,1.718,0,0,1,.716,1.575l.008,2.606a3.977,3.977,0,0,1-1.806,3.126l-.864.5-4.27-2.482-.021-7.508Z" fill="#3b254a"/><path d="M7835.526,428.177a3.975,3.975,0,0,0,2.883,2.071,6.332,6.332,0,0,0,1.632.115c1.73-.093,3.347-.848,3.757-1.9-1.058-2.622,1.261-4.745-1.04-6.995l-.454,0-5.145.053C7836.148,424.808,7836.794,425.673,7835.526,428.177Z" fill="#924fc2"/><path d="M7840.035,430.363c1.736-.093,3.353-.848,3.763-1.9-1.058-2.622,1.261-4.745-1.04-6.995l-.454,0-2.172,1.381a2.415,2.415,0,0,1,2.754,1.849C7843.012,427.956,7842.444,429.343,7840.035,430.363Z" fill="#a263c7" opacity="0.5" style="mix-blend-mode:multiply;isolation:isolate"/><path d="M7838.8,412.307c.218,1.06-.75,2.626-1.365,4.536a10.156,10.156,0,0,1-2.063,3.865l-.626-.164c.517-1.552.666-2.625,1.234-3.964l.4-3.138C7836.554,411.727,7838.111,411.142,7838.8,412.307Z" fill="#ffbaa8"/><path d="M7847.265,422.4l.4.67.286.632.053.549c.022.125-.085.217-.11.067l.095.58c.041.166-.109.245-.17.1l-.219-.718.044,1.115c0,.167-.157.264-.21.062l-.209-1.13-.033.692-.116.513c-.061.185-.256.2-.257.008l.062-.664s-.062-.463-.106-.673a4.156,4.156,0,0,0-.269-.347l-.527.735c-.162.161-.324.032-.215-.181l.4-1,.318-.512.027-.043-.062-.382.709-.295Z" fill="#ffbaa8"/><path d="M7839.96,409.6a2.179,2.179,0,0,1,2.531,1.97,3.273,3.273,0,0,1-.514,2.688,9.671,9.671,0,0,1-1.261,1.392c-.651-2.667.616-4.293.1-5.074a1.859,1.859,0,0,0-.859-.6Z"/><path d="M7837.364,418.478a6.05,6.05,0,0,1-.2,3.042,1.5,1.5,0,0,0,1.4,1.292,4.267,4.267,0,0,0,4.2-1.349,2.184,2.184,0,0,1-.292-2.6,5.739,5.739,0,0,0,.639-1.819,9.049,9.049,0,0,0,.062-2.552,11.269,11.269,0,0,0-2.6-2.2c-.17-.093-.354-.183-.553-.272a3.779,3.779,0,0,0-.721-.243,3.162,3.162,0,0,0-2.086.17,1.983,1.983,0,0,0-.567,1.94,2.431,2.431,0,0,0,.1.3,4.488,4.488,0,0,1-.259,1.353,5.252,5.252,0,0,0-.5,1.693C7835.993,417.972,7836.5,418.436,7837.364,418.478Z" fill="#eb347a"/><path d="M7837.159,421.521a1.5,1.5,0,0,0,1.4,1.29,4.261,4.261,0,0,0,4.2-1.349,2.187,2.187,0,0,1-.293-2.594,5.77,5.77,0,0,0,.641-1.819H7842c-.635,1.48-.889,2.929-2.33,2.706-1-.158-1.338-.976-1.13-1.992a1.8,1.8,0,0,1-1.172.716A6.057,6.057,0,0,1,7837.159,421.521Z" fill="#eb347a" opacity="0.5" style="mix-blend-mode:multiply;isolation:isolate"/><path d="M7843.167,414.5c.925.56,1.9,2.216,2.889,3.965a10.506,10.506,0,0,1,1.284,4.2l-.729.59c-.661-1.469-1.277-2.837-1.873-4.164l-2.169-2.037C7841.762,416.554,7841.84,414.215,7843.167,414.5Z" fill="#ffbaa8"/><path d="M7835.366,420.725c.114.26.224.514.33.756a3.977,3.977,0,0,0,.437,1.021c.061.235-.058.246-.285.12l-.469-.692a1.185,1.185,0,0,0-.3.534l.128,1.063c-.034.2-.116.185-.219.068l-.188-.964-.017,1.033c-.073.088-.134.058-.183-.082l-.061-.3c-.052.108-.1.088-.158-.022,0,0-.038-1.245-.038-1.265s.406-1.454.406-1.454l.157-.308.619.173Z" fill="#ffbaa8"/><path d="M7842.482,420.435l.532-.4c-1.732-2.321-1.827-4.183-1.381-5.073a1.541,1.541,0,0,1,1.474-.86v-.664a2.2,2.2,0,0,0-2.067,1.227C7840.331,416.083,7840.883,418.293,7842.482,420.435Z" fill="#3b254a"/><path d="M7836.482,415.538a5.953,5.953,0,0,0,.639-1.108c.524-1.09,1.015-2.121,3.447-2.075l0-.062.011-.6a6.41,6.41,0,0,0-1.285.087,3.319,3.319,0,0,0-2.653,2.11A5.144,5.144,0,0,1,7836.482,415.538Z" fill="#3b254a"/><path d="M7841.265,413.042a3.758,3.758,0,0,1-.535-1.676l-1.891.209.061,1.352C7838.249,414.9,7841.112,414.3,7841.265,413.042Z" fill="#ffbaa8"/><path d="M7840.035,411.818c-.1,1.121-.451,2.8-1.473,2.307-.6-.29-.412-1.233-.312-2.041Z" fill="#ffbaa8" opacity="0.5" style="mix-blend-mode:multiply;isolation:isolate"/><path d="M7840.778,411.714c1.009-1.813.421-3.349-1.037-3.644a2.091,2.091,0,0,0-2.584,2.238c0,1.467.4,2.494.954,2.568a1.613,1.613,0,0,0,1.821-.927Z" fill="#ffbaa8"/><path d="M7840.823,411.949a.408.408,0,0,1-.531-.314l-.082-.459-.582.178a.574.574,0,0,1-.565-.13,6.747,6.747,0,0,0-1.863-1.471,2.121,2.121,0,0,1,4.224.3A4.149,4.149,0,0,1,7840.823,411.949Z"/><path d="M7839.8,411.849a.542.542,0,0,1-.035-.485.464.464,0,0,1,.392-.276.316.316,0,0,1,.3.153.5.5,0,0,1-.037.4.913.913,0,0,1-.139.263.3.3,0,0,1-.262.114A.325.325,0,0,1,7839.8,411.849Z" fill="#ffbaa8"/><path d="M7835.526,428.177a3.975,3.975,0,0,0,2.883,2.071,10.983,10.983,0,0,0,1.309-3.989,9.657,9.657,0,0,1-1.482,2.964,9.537,9.537,0,0,0,1.009-5.3C7838.836,426.642,7837.592,429.394,7835.526,428.177Z" fill="#a263c7" opacity="0.5" style="mix-blend-mode:multiply;isolation:isolate"/><ellipse cx="6.813" cy="3.934" rx="6.813" ry="3.934" transform="translate(7871.95 385.092)" fill="#924fc2" opacity="0.3" style="mix-blend-mode:multiply;isolation:isolate"/><path d="M7878.609,355.85c1.087-.092,1.67.663,2.061,1.738a3.579,3.579,0,0,1-.49,2.173l-1.337.585a2.994,2.994,0,0,1-1.181.217c-.831-.2-.822-1.65-.837-2.808C7876.94,356.759,7877.323,355.966,7878.609,355.85Z" fill="#ffbaa8"/><path d="M7878.018,362.279l-.356-2.019,2.3-.811.713,1.894Z" fill="#ffbaa8"/><path d="M7877.477,389.126l.522.991a1.446,1.446,0,0,1,.108,1.348c-.391.524-1.171.438-2,.268-1.064-.32-1.608-.572-2.265-.769-.986-.334-.81-1.128.251-1.2l1.73-.117.568-.05.05-.569Z" fill="#291933"/><path d="M7883.623,386.6l.569.368a1.632,1.632,0,0,1,.11,1.437c-.444.293-.913.3-1.692-.134-.959-.8-1.355-.769-1.739-1.315-.446-.69.21-.987.757-.909l1.092.152Z" fill="#291933"/><path d="M7878.274,369.956l.6,4.127c.142.475.294.959.451,1.435a25.9,25.9,0,0,0,1.4,3.547,4.044,4.044,0,0,0,.291.484l.435.836c.043.339.1.676.162,1.008.334,1.738.9,3.356,1.108,4.808l-.25-.035c-.666.136-.769.344-.41.711a2.976,2.976,0,0,0,1.128.594c.579.1,1.026-.031,1-.435-.1-2.631.089-5.068-.384-6.915a4.87,4.87,0,0,0-.619-1.474l-.309-.773c.016-.216.03-.433.038-.654a31.054,31.054,0,0,0-.13-4.256,7.337,7.337,0,0,0-1.135-4.312l-1.171.435-1.019.4Z" fill="#ffbaa8"/><path d="M7875.218,390.346l1.653.367a1,1,0,0,0,1.136-.535c-.442-3.322.88-5.348,0-8.222v-1.137l.333-1.684.636-3.229.351-.388.92-1.016-.6-5.014h-3.376l-.635,3.81a16.874,16.874,0,0,0-.571,5.476,12.263,12.263,0,0,0,.27,1.778l.144,1.323.057.515a52.94,52.94,0,0,1,.636,6.326.9.9,0,0,1-.751.928C7874.588,389.771,7874.334,390.056,7875.218,390.346Z" fill="#ffbaa8"/><path d="M7874.664,365.2a1.634,1.634,0,0,0,1.141,1.528,1.84,1.84,0,0,0,1.546-.171,1.6,1.6,0,0,0,.779-1.357,1.684,1.684,0,0,0-1.733-1.628,1.811,1.811,0,0,0-1.052.333,1.7,1.7,0,0,0-.451.484A1.554,1.554,0,0,0,7874.664,365.2Z" fill="#a263c7"/><path d="M7875.1,380.462c1,.758,6.919,1.159,8.49-1.983l-.468-5.281c-.256-1.951-.247-2.626-1.25-4.209-.068-.108-.142-.219-.219-.337-.518-1.511.63-2.731,1.051-4.955a8.177,8.177,0,0,0,.117-.861,2.264,2.264,0,0,0-.312-1.523,1.551,1.551,0,0,0-1.48-.7,11.028,11.028,0,0,0-4.409,1.564l-.5.319-.779,1.412-.083.645-.1.754a14.143,14.143,0,0,1,.639,1.424,5.373,5.373,0,0,1,.364,2.761c-.236.726-.443,1.442-.621,2.155A21.173,21.173,0,0,0,7875.1,380.462Z" fill="#ffb645"/><path d="M7880.247,359.895a2.919,2.919,0,0,0,.651-2.09,2.238,2.238,0,0,0-1.972-2.222c-1.821-.1-2.7,1.327-2.085,2.981.585.584,1.009,1.19,1.367,1.548C7879.129,360.8,7879.778,360.633,7880.247,359.895Z" fill="#0b1017"/><path d="M7880.029,359.449a5.259,5.259,0,0,1,1.17,1.95c.4,1.771-1,3.951-1,3.951s-1.118-2.423-.87-3.45a8.539,8.539,0,0,0,.045-2.451Z" fill="#0b1017"/><path d="M7877.305,358.608c.284.167.242,1.061.242,1.061l-.334.234-.167-.994S7876.981,358.417,7877.305,358.608Z" fill="#ffbaa8"/><path d="M7875.805,366.727a5.373,5.373,0,0,1,.364,2.761c-.236.726-.587,1.442-.765,2.155,1.863-1.9,4.843-1.642,6.467-2.654-.068-.108-.142-.219-.219-.337-.518-1.511.63-2.731,1.051-4.955-1.129,2.791-3.741,4.081-5.352,2.859a3.144,3.144,0,0,1-1.034-1.545l-1.055-.462-.368-.161a1.554,1.554,0,0,0-.23.811A1.634,1.634,0,0,0,7875.805,366.727Z" fill="#ffb645" opacity="0.5" style="mix-blend-mode:multiply;isolation:isolate"/><path d="M7874.393,363.711l1.318.253.21-.589-.446-.589-.723.205Z" fill="#ffbaa8"/><path d="M7876.387,365.672l-2.544-4.173-2.671,1.294,2.544,4.173Z" fill="#291933"/><path d="M7873.583,366.471,7876,365.3l-2.214-3.62-2.422,1.173Z" fill="#fff"/><path d="M7873.758,362.576l.483-.091a1.084,1.084,0,0,0,.765.619l.253.086a1.775,1.775,0,0,1,.216-.4.851.851,0,0,0-.426-.692l-.737-.133-.9.324C7873.389,362.483,7873.467,362.573,7873.758,362.576Z" fill="#ffbaa8"/><path d="M7873.473,366.327a.14.14,0,0,0,.054,0,.153.153,0,0,0,.118-.182l-.79-3.677a.153.153,0,1,0-.3.064l.789,3.677A.154.154,0,0,0,7873.473,366.327Z" fill="#291933"/><path d="M7871.815,364.535c-.021.142.073.245.071.346,0,.039-.009.113-.016.18,0,.048-.007.092-.006.12.008.239.544.587.719.7l.7.332.829.736.168-.281.4-.618-.62-.752a2.26,2.26,0,0,0-.056-1.052l-.322-.388-.594-.29.06.256a5.425,5.425,0,0,0-.486-.289c-.114-.059-.315-.094-.4.008-.041.049-.022.157-.057.211s-.187.127-.218.2.018.228-.009.293S7871.836,364.383,7871.815,364.535Z" fill="#ffbaa8"/><path d="M7873.108,363.642l.6.508-.563-.331Z" fill="#ffbaa8"/><path d="M7871.87,365.061c0,.048-.007.092-.006.12.008.239.544.587.719.7l.7.332.829.736.168-.281a3.309,3.309,0,0,1-.866-.872A1.738,1.738,0,0,1,7871.87,365.061Z" fill="#ffbaa8"/><path d="M7876.124,362.492c-.823.4-.93,1.02-.929,2.441l-.076,1.464-1.058-1.1c-.68-.044-.848.075-.78.915a10.061,10.061,0,0,0,1.936,3.586c.488.452,1.286-.061,1.6-1.294l.538-3.181C7877.667,363.554,7877.414,362.169,7876.124,362.492Z" fill="#ffbaa8"/><path d="M7856.786,389.233a5.309,5.309,0,0,0-.09,1.387c.09.418,1.194.686,1.194.686s1.55,1.459,2.864,1.358c.776-.06,1.038-.265,1.159-.492a.733.733,0,0,0-.144-.731c-.153-.213-1.761-.9-2.163-1.537-.2-.312-.523-.97-.523-.97l-.134-1.223-2.133-.089.106,1.447Z" fill="#0b1017"/><path d="M7854.907,373.908l1.357,6.822a20.726,20.726,0,0,0,.3,8.514c.418,1.122,1.907.807,2.835,0a54.439,54.439,0,0,1-.269-7.5l.269-1.784a23.35,23.35,0,0,0,.208-4.363,33.616,33.616,0,0,0-1.014-5.634Z" fill="#201c3d"/><path d="M7852.087,391.62a4.154,4.154,0,0,0-.176,1.579,1.654,1.654,0,0,0,.892.882,2.774,2.774,0,0,0,2.446,1.626c1.693.042,1.68-.644,1.671-.641a1.01,1.01,0,0,0-.388-.716,22.342,22.342,0,0,1-1.715-1.492,3.66,3.66,0,0,1-.4-.746l-.076-1.223h-2.282Z" fill="#0b1017"/><path d="M7856.04,375.376c0,3.455.127,5.5-.782,7.248a20.081,20.081,0,0,1-.448,2.327,43.639,43.639,0,0,0-.112,7.317,1.661,1.661,0,0,1-2.319.4,1.546,1.546,0,0,1-.612-.849c-.6-3.734-1.008-6.69.469-9.441a29.209,29.209,0,0,1-.268-7.41,7.516,7.516,0,0,1,.5-3.936,7.074,7.074,0,0,1,.4-.784l6.143,1.457C7858.367,373.908,7857.256,375.106,7856.04,375.376Z" fill="#2d2856"/><path d="M7853.24,382.61c-1.885,1.935-1.341,5.689-.861,10.057a1.534,1.534,0,0,1-.612-.847c-.6-3.734-1.008-6.69.469-9.441a29.209,29.209,0,0,1-.268-7.41,7.516,7.516,0,0,1,.5-3.936l2.129,2.4C7852.474,374.762,7852.077,379.389,7853.24,382.61Z" fill="#2d2856" opacity="0.5" style="mix-blend-mode:multiply;isolation:isolate"/><path d="M7860.453,371.275c-.175.4-.344.789-.507,1.161a6.115,6.115,0,0,1-.671,1.569c-.094.362.089.378.438.185l.72-1.064a1.822,1.822,0,0,1,.459.822l-.2,1.631c.051.316.178.285.336.106l.289-1.481.026,1.587c.113.134.206.088.281-.126l.094-.457c.079.166.16.135.242-.034,0,0,.059-1.913.059-1.943S7861.4,371,7861.4,371l-.24-.473-.952.265Z" fill="#ffae80"/><path d="M7857.363,362.112c.339,1.284.251,2.856.7,4.717.6,1.866.885,2.852,1.739,4.972.133.205,1.777-.135,1.729-.354-.889-4.081-.368-2.747-.935-4.509-.255-1.352-.273-3.078-.432-4.72a2.06,2.06,0,0,0-1.068-1.909C7857.822,359.894,7856.649,360.9,7857.363,362.112Z" fill="#fff"/><path d="M7859.1,369.191l-.011.1c-.032.385-.074.791-.116,1.214-.018.166-.036.325-.053.484.169.858-1.1,1.572-2.5,1.995a6.885,6.885,0,0,1-3.2.364,2.667,2.667,0,0,1-1.512-1.5l-.247-4.478-.021-.378L7851,363.46a9.343,9.343,0,0,1,2.423-2.112,5.858,5.858,0,0,1,5.3-1.02C7859.394,362.549,7859.521,364.692,7859.1,369.191Z" fill="#fff"/><path d="M7856.293,362.72l.782.533s.568-2.035.027-2.566S7856.293,362.72,7856.293,362.72Z" fill="#c8e6e2"/><path d="M7853.9,361.081l.965-2,2.472,1.235-.342,1.557C7856.511,363.685,7853.6,362.619,7853.9,361.081Z" fill="#ffae80"/><path d="M7856.7,363.8V363l-.407-.278-.223.518.223.708a44.093,44.093,0,0,1,.179,5.489l.663.632.458-1.036A37.62,37.62,0,0,0,7856.7,363.8Z" fill="#ff4555"/><path d="M7854.139,360.6l-.506.616s.835,2.359,2.33,2.359c.2-.467.33-.854.33-.854A2.7,2.7,0,0,1,7854.139,360.6Z" fill="#c8e6e2"/><path d="M7859.094,369.294c-.032.385-.074.791-.116,1.214-.018.166-.036.325-.053.484.169.858-1.1,1.572-2.5,1.995a6.885,6.885,0,0,1-3.2.364,2.667,2.667,0,0,1-1.512-1.5l-.247-4.478,2.4-1.78c.392,1.664.261,1.886.643,3.133.642.377,3.513-.223,4.594.469C7859.084,369.209,7859.084,369.241,7859.094,369.294Z" fill="#d6eeeb" style="mix-blend-mode:multiply;isolation:isolate"/><path d="M7857.8,361.113c.219,1.06.356,2.585-.3,2.65-.428,0-1.226-.755-1.609-2.052a5.115,5.115,0,0,1-.23-1.8Z" fill="#ffae80" opacity="0.5" style="mix-blend-mode:multiply;isolation:isolate"/><path d="M7855.568,360.147l.627.9a.856.856,0,0,0,.575.443,3.507,3.507,0,0,0,1.4.024.607.607,0,0,0,.454-.375,10.87,10.87,0,0,0,.145-1.2.565.565,0,0,0,.228-.207.261.261,0,0,0-.03-.3c-.078-.083-.46-.783-.46-.783l.164-.734c-.057-1.164-.753-1.993-2.355-2.349a2.028,2.028,0,0,0-2.537,1.852C7853.567,359.247,7854.118,359.933,7855.568,360.147Z" fill="#ffae80"/><path d="M7854.188,359.886a.99.99,0,0,0,.646.248.292.292,0,0,0,.272-.2l.248-.683.612-.035a.2.2,0,0,0,.184-.2l-.009-.267a.393.393,0,0,1,.31-.4,4.247,4.247,0,0,0,2.186-.844.221.221,0,0,0,.039-.157c-.3-1.882-4.2-2.99-4.946-.192A3.029,3.029,0,0,0,7854.188,359.886Z" fill="#0b1017"/><path d="M7855.2,358.884a.445.445,0,0,0-.269.441,1.3,1.3,0,0,0,.169.523.894.894,0,0,0,.178.272.3.3,0,0,0,.3.083.3.3,0,0,0,.176-.2.891.891,0,0,0,.03-.274,1.27,1.27,0,0,0-.092-.589A.444.444,0,0,0,7855.2,358.884Z" fill="#ffae80"/><path d="M7861.123,367.2a1.678,1.678,0,0,0,1.195-.048l.6-.311c.173.107.422-.053.674-.22.148-.165.157-.309.03-.43.055-.205.047-.376-.12-.461a.337.337,0,0,0-.181-.441.4.4,0,0,0-.249-.447l1.362-.888c.293-.19.174-.519-.253-.3l-2.657,1.5a2.673,2.673,0,0,0-.982.821l-.621.861.844.916Z" fill="#ffae80"/><path d="M7861.342,367.5c-.72.989-4.6,3.237-5.988,3.215a20.39,20.39,0,0,1-3.974-3.559c-1.9-2.819-.107-5.58,2.041-3.08a23.389,23.389,0,0,1,2.684,3.557c1.919-.742,4.31-1.513,4.326-1.517C7860.274,366.471,7860.968,367.449,7861.342,367.5Z" fill="#fff"/><path d="M7909.266,335.118l.051,0,.058.006.063.007.344.037.378.133c.141.08.281.16.245.253-.06.158-.182.127-.331.03a.862.862,0,0,1-.348-.057.959.959,0,0,1-.357-.007,1.488,1.488,0,0,1-.148-.037l.011-.083,0-.047.013-.105.016-.128Z" fill="#ffae80"/><path d="M7910.175,336.523c-.053.074-.175.062-.3.012a.915.915,0,0,1-.349-.008,1.214,1.214,0,0,1-.454.107l-.053,0v-.062l0-.337.277-.029.215-.023.379.048c.153.025.337.12.322.214A.14.14,0,0,1,7910.175,336.523Z" fill="#ffae80"/><path d="M7909.267,335.5l.519.013.388.1c.147.068.293.135.265.231-.036.164-.164.145-.327.057a.882.882,0,0,1-.352-.027,1.058,1.058,0,0,1-.507,0Z" fill="#ffae80"/><path d="M7910.288,336.287c-.06.03-.15,0-.254-.054-.032,0-.064.005-.1.005a.778.778,0,0,1-.255-.033,1.06,1.06,0,0,1-.507,0l.014-.372.519.012.228.035.091.014.079.012c.149.061.283.176.254.271A.146.146,0,0,1,7910.288,336.287Z" fill="#ffae80"/><path d="M7909.313,335.112a1.1,1.1,0,0,1,.046.222,1.609,1.609,0,0,1,.01.191,2.8,2.8,0,0,1-.082.679,1.109,1.109,0,0,1-.15.371.16.16,0,0,1-.069.059,2.159,2.159,0,0,1-1.151.264.773.773,0,0,1-.417-.189l-.627.037a.355.355,0,0,0,.246-.2.655.655,0,0,0-.172-.879l.547-.1.792-.2.98-.248Z" fill="#ffae80"/><path d="M7909.893,336.479a.327.327,0,0,1-.323-.042.834.834,0,0,1-.433.138.847.847,0,0,1-.123-.005c-.012,0,.154-.9.142-.9-.029.021-.238.934-.272.95a1.753,1.753,0,0,1-.593.142.873.873,0,0,1-.721-.265l-.451.054a.357.357,0,0,1-.246.2l.627-.037a.788.788,0,0,0,.416.189,2.165,2.165,0,0,0,1.152-.264,1.214,1.214,0,0,0,.454-.107.915.915,0,0,0,.349.008c.129.05.251.062.3-.012A.273.273,0,0,1,7909.893,336.479Z" fill="#ffae80"/><path d="M7909.375,335.129l-1.089.244c-.059.122-.113.255-.159.379-.036.1-.013.314-.107.364.055.026.215-.042.274-.07a.362.362,0,0,0,.157-.175c.059-.112.119-.3.233-.367C7909.049,335.28,7909.267,335.5,7909.375,335.129Z" fill="#ffae80"/><path d="M7909.25,335.254a.425.425,0,0,1-.245.037l-.25,0-.217.1a1.116,1.116,0,0,1-.47.775.324.324,0,0,1-.165.028c-.21-.021-.359-.274-.464-.6.01-.016.168-.175.168-.175l.589-.459.55-.057a1.282,1.282,0,0,0,.525.083c.075.007.11.044.112.091a.119.119,0,0,1-.008.051A.256.256,0,0,1,7909.25,335.254Z" fill="#ffae80"/><path d="M7909.266,335.118l.051,0,.058.006.063.007.344.037.378.133c.141.08.281.16.245.253-.06.158-.182.127-.331.03a.862.862,0,0,1-.348-.057.959.959,0,0,1-.357-.007,1.488,1.488,0,0,1-.148-.037l.011-.083,0-.047.013-.105.016-.128Z" fill="#ffae80"/><path d="M7910.175,336.523c-.053.074-.175.062-.3.012a.915.915,0,0,1-.349-.008,1.214,1.214,0,0,1-.454.107l-.053,0v-.062l0-.337.277-.029.215-.023.379.048c.153.025.337.12.322.214A.14.14,0,0,1,7910.175,336.523Z" fill="#ffae80"/><path d="M7909.267,335.5l.519.013.388.1c.147.068.293.135.265.231-.036.164-.164.145-.327.057a.882.882,0,0,1-.352-.027,1.058,1.058,0,0,1-.507,0Z" fill="#ffae80"/><path d="M7910.288,336.287c-.06.03-.15,0-.254-.054-.032,0-.064.005-.1.005a.778.778,0,0,1-.255-.033,1.06,1.06,0,0,1-.507,0l.014-.372.519.012.228.035.091.014.079.012c.149.061.283.176.254.271A.146.146,0,0,1,7910.288,336.287Z" fill="#ffae80"/><path d="M7909.313,335.112a1.1,1.1,0,0,1,.046.222,1.609,1.609,0,0,1,.01.191,2.8,2.8,0,0,1-.082.679,1.109,1.109,0,0,1-.15.371.16.16,0,0,1-.069.059,2.159,2.159,0,0,1-1.151.264.773.773,0,0,1-.417-.189l-.627.037a.355.355,0,0,0,.246-.2.655.655,0,0,0-.172-.879l.547-.1.792-.2.98-.248Z" fill="#ffae80"/><path d="M7909.893,336.479a.327.327,0,0,1-.323-.042.834.834,0,0,1-.433.138.847.847,0,0,1-.123-.005c-.012,0,.154-.9.142-.9-.029.021-.238.934-.272.95a1.753,1.753,0,0,1-.593.142.873.873,0,0,1-.721-.265l-.451.054a.357.357,0,0,1-.246.2l.627-.037a.788.788,0,0,0,.416.189,2.165,2.165,0,0,0,1.152-.264,1.214,1.214,0,0,0,.454-.107.915.915,0,0,0,.349.008c.129.05.251.062.3-.012A.273.273,0,0,1,7909.893,336.479Z" fill="#ffbf86" opacity="0.5" style="mix-blend-mode:multiply;isolation:isolate"/><path d="M7909.375,335.129l-1.089.244c-.059.122-.113.255-.159.379-.036.1-.013.314-.107.364.055.026.215-.042.274-.07a.362.362,0,0,0,.157-.175c.059-.112.119-.3.233-.367C7909.049,335.28,7909.267,335.5,7909.375,335.129Z" fill="#ffbf86" opacity="0.5" style="mix-blend-mode:multiply;isolation:isolate"/><path d="M7909.25,335.254a.425.425,0,0,1-.245.037l-.25,0-.217.1a1.116,1.116,0,0,1-.47.775.324.324,0,0,1-.165.028c-.21-.021-.359-.274-.464-.6.01-.016.168-.175.168-.175l.589-.459.55-.057a1.282,1.282,0,0,0,.525.083c.075.007.11.044.112.091a.119.119,0,0,1-.008.051A.256.256,0,0,1,7909.25,335.254Z" fill="#ffae80"/><path d="M7894.916,364.8c1.107-.069.863-1.95.563-2.973a.722.722,0,0,0-.918-.429c-.366.12-.591.815-.58,1.2C7893.992,362.956,7893.607,364.879,7894.916,364.8Z" fill="#ff4555"/><path d="M7895.522,362.842c.186-1.587-1.547-1.718-1.312.01.062.459.351.8.642.807C7895.305,363.679,7895.483,363.173,7895.522,362.842Z" fill="#ffae80"/><path d="M7900.665,362.217a2.626,2.626,0,0,0,1.7.575.292.292,0,0,0,.229-.079c.082-.1.024-.254-.044-.365-.558-.911-1.608-1.687-2.067-2.656a.831.831,0,0,0-.195-.308c-.145-.115-.347-.089-.524-.135s-.337-.147-.485-.066-.163.259-.2.413-.119.574-.172.735a.859.859,0,0,0-.038.5.794.794,0,0,0,.41.448c.181.1.378.156.558.256A6.549,6.549,0,0,1,7900.665,362.217Z" fill="#ffae80"/><path d="M7902.594,362.714a.3.3,0,0,1-.229.077,2.62,2.62,0,0,1-1.7-.573,6.48,6.48,0,0,0-.833-.682c-.18-.1-.378-.159-.558-.254a.8.8,0,0,1-.409-.451.853.853,0,0,1,.036-.5c.046-.139.108-.53.151-.671a.445.445,0,0,0,.021-.064c.041-.152.069-.337.206-.412s.321.023.483.067c.178.044.381.018.525.134a.856.856,0,0,1,.195.308,3.54,3.54,0,0,0,.754.99,9.594,9.594,0,0,1,1.314,1.667C7902.617,362.459,7902.676,362.614,7902.594,362.714Z" fill="#ff4555"/><path d="M7901.562,361.212a.173.173,0,0,1-.064.165.278.278,0,0,1-.149.023,2.68,2.68,0,0,1-1.435-.71,3.776,3.776,0,0,1-.6-.586,1.942,1.942,0,0,1-.263-.445.445.445,0,0,0,.021-.064c.041-.152.047-.475.183-.55s.344,0,.506.049c.178.043.443-.057.587.059.095.077.053.334.107.445a4.074,4.074,0,0,0,.78,1.084c.092.126.18.247.252.363A.442.442,0,0,1,7901.562,361.212Z" fill="#ffae80"/><path d="M7901.055,350.223c-.015.248-.034.534-.054.85-.019.3-.04.621-.062.963q-.026.415-.054.86c-.19,2.969-.426,6.7-.426,6.7-.28.523-1.293.635-1.386,0a49.308,49.308,0,0,0-.7-5.243c-.084-.537-.155-1.055-.2-1.563a11.388,11.388,0,0,1-.052-1.275v-.062a7.637,7.637,0,0,1,.091-1.076c.017-.107.039-.211.06-.316l2.286-1.485C7900.556,348.641,7901.055,350.155,7901.055,350.223Z" fill="#ffae80"/><path d="M7898.371,346.948c-.38,1.943-.6,3.48-.827,4.657-.017.089-.035.176-.052.261a9.956,9.956,0,0,1-.31,1.185c-.025.077-.05.151-.079.219l-.19.909-.083.4-1.467,7.034-.053.25-.048.23c0,.554-.848.366-.9-.1l-.012-.107c-.011-.1-.023-.207-.033-.31-.455-4.248-.329-5.959-.042-7.566.035-.2.073-.41.114-.617.058-.3.12-.6.182-.928-.016-.1-.025-.209-.037-.313,0-.027-.006-.054-.008-.081s0-.03,0-.045a30.064,30.064,0,0,1-.13-5.075Z" fill="#ffae80"/><path d="M7898.371,346.948c-.38,1.943-.6,3.48-.827,4.657-.017.089-.035.176-.052.261a9.956,9.956,0,0,1-.31,1.185c-.025.077-.05.151-.079.219l-.19.909-.083.4-1.467,7.034-.053.25-.048.23c0,.554-.848.366-.9-.1l-.012-.107c-.011-.1-.023-.207-.033-.31-.455-4.248-.329-5.959-.042-7.566.035-.2.073-.41.114-.617.058-.3.12-.6.182-.928-.016-.1-.025-.209-.037-.313,0-.027-.006-.054-.008-.081s0-.03,0-.045a30.064,30.064,0,0,1-.13-5.075Z" fill="#ffae80"/><path d="M7897.544,351.605c-.017.089-.035.176-.052.261a9.956,9.956,0,0,1-.31,1.185c-.025.077-.05.151-.079.219l-.19.909-.083.4a5.53,5.53,0,0,1-2.553-.569c.035-.2.073-.41.114-.617.058-.3.12-.6.182-.928-.016-.1-.025-.209-.037-.313,0-.027-.006-.054-.008-.081Z" fill="#ffae80" opacity="0.5" style="mix-blend-mode:multiply;isolation:isolate"/><path d="M7901,351.073c-.019.3-.04.621-.062.963q-.026.415-.054.86a5.324,5.324,0,0,1-2.514,1.458c-.084-.537-.155-1.055-.2-1.563a11.388,11.388,0,0,1-.052-1.275Z" fill="#ffae80" opacity="0.5" style="mix-blend-mode:multiply;isolation:isolate"/><path d="M7900.951,351.853c-.347.943-5.04,2.836-6.527,1.366l-.436-6.486c-.4-2.129-.05-3.227,1.055-4.257.134-.124.277-.246.432-.369l3.3-.134,1.292-.052A25.941,25.941,0,0,1,7900.951,351.853Z" fill="#2d2856"/><path d="M7900.064,341.921a2.3,2.3,0,0,1-1.567,1.55,3.9,3.9,0,0,1-3.454-.995c-1.1,1.03-1.457,2.128-1.055,4.257l.436,6.486a1.977,1.977,0,0,0,.726.419,35.579,35.579,0,0,1,.522-9.257c2.732.106,3.887-.534,4.524-2.04Z" fill="#2d2856" opacity="0.5" style="mix-blend-mode:multiply;isolation:isolate"/><path d="M7907.358,335.553c.686.063.58,1.155.138,1.273-.254.062-3.169,1.288-5.236.471l-2.7-1.409-1.066.174.374-3.284a41.068,41.068,0,0,1,4.637,3.032Z" fill="#d6eeeb"/><path d="M7901.448,338.627a1.228,1.228,0,0,1-1.418,1.167c0,.066,0,.117,0,.165-.02.409-.092.9-.085,1.335,0,.048,0,.093,0,.134a2.26,2.26,0,0,0,.045.34,1.325,1.325,0,0,0,.041.154,2.347,2.347,0,0,1-1.6,1.576,3.025,3.025,0,0,1-.769.079,3.88,3.88,0,0,1-2.746-1.092,9.911,9.911,0,0,0-.662-3.995c-.323-.988-.659-1.829-.749-2.255a12.679,12.679,0,0,1,2.705-2.478c1-.693,1.452-1.576,2.588-1.15s1.27,2.688,1.685,3.58A5.773,5.773,0,0,1,7901.448,338.627Z" fill="#ff4555"/><path d="M7899.989,341.768a1.325,1.325,0,0,0,.041.154,2.1,2.1,0,0,1-2.365,1.655,3.88,3.88,0,0,1-2.746-1.092,9.911,9.911,0,0,0-.662-3.995l1.029-.261,1.116,1.785c.868,1.462,3.12,1.174,3.216-.319l.412.113c0,.052,0,.1,0,.151-.01.587-.078.985-.085,1.335,0,.048,0,.093,0,.134A1.475,1.475,0,0,0,7899.989,341.768Z" fill="#9e2e3b" opacity="0.5" style="mix-blend-mode:multiply;isolation:isolate"/><path d="M7893.5,336.246a13.034,13.034,0,0,0-1.627,5.5,11.6,11.6,0,0,0,.692,5.61.983.983,0,0,1,.935-.243,22.6,22.6,0,0,0,0-4.937l1.5-3.272C7896.025,336.656,7894.343,335.177,7893.5,336.246Z" fill="#d6eeeb"/><path d="M7895.32,348.652a.271.271,0,0,1-.318-.042c-.25-.26-.512-.467-.85-.351a.626.626,0,0,0-.028.428l.009.038a6.485,6.485,0,0,0,.6,1.323.147.147,0,0,1-.035.177.2.2,0,0,1-.232.006c.014.134-.159.185-.275.063l-.174-.19c-.019.155-.2.112-.26,0l-.328-.406a3.074,3.074,0,0,1-.567-.77c-.021-.042-.043-.084-.064-.128a4.564,4.564,0,0,1-.228-1.447c.113-.4.472-.46.935-.243l.555.288a7.506,7.506,0,0,1,1.332,1.065C7895.433,348.524,7895.4,348.607,7895.32,348.652Z" fill="#ffae80"/><path d="M7894.693,350.225a.2.2,0,0,1-.232.006c.014.134-.159.185-.275.063l-.174-.19c-.019.155-.2.112-.26,0l-.328-.406a3.074,3.074,0,0,1-.567-.77.968.968,0,0,0,.829-.115C7893.925,349.369,7894.356,350.122,7894.693,350.225Z" fill="#ffae80"/><path d="M7895.318,348.652a.268.268,0,0,1-.316-.042c-.25-.26-.512-.467-.85-.351a.626.626,0,0,0-.028.428l-.139-.59C7894.6,347.954,7895.028,348.535,7895.318,348.652Z" fill="#ffae80"/><path d="M7900.74,339.707a1.907,1.907,0,0,0,.47-.327A1.152,1.152,0,0,1,7900.74,339.707Z" fill="#1d1d1b" opacity="0.1"/><path d="M7898.172,333.969l.226,1,.882,3.991-3.054-4.288Z" fill="#ffae80"/><path d="M7898.06,333.764l1.2,5.126-.333-4.986Z" fill="#d6eeeb"/><path d="M7897,332.454a1.385,1.385,0,1,1-1.385-1.385A1.385,1.385,0,0,1,7897,332.454Z" fill="#1d1d1b"/><path d="M7896.341,332.3c-.15.517-.108,1.039-.3,1.573-.113.608.872,1.236,1.623,1.181.531-.1.487-.357.566-.985Z" fill="#ffae80"/><path d="M7896.669,332.536c.008,1.765.667,3.344,1.491,3.044.321-.117.346-1.029.35-2.242Z" fill="#ffae80" opacity="0.5" style="mix-blend-mode:multiply;isolation:isolate"/><path d="M7896.517,333.132a2.161,2.161,0,0,0,2.043,1.1c.347-.05.67-.568.643-2.644a3.529,3.529,0,0,0-.709-1.92,2,2,0,0,0-1.994-.593,1.784,1.784,0,0,0-1.45,2.092C7895.293,332.567,7895.9,333.087,7896.517,333.132Z" fill="#ffae80"/><path d="M7896.165,333a.832.832,0,0,0,.451-.384,2.57,2.57,0,0,0,.282-1.148c.97-.1,2-.807,2-1.135-.044-.45-.32-.861-1.147-1.188a2.054,2.054,0,0,0-2.4.582c-1.026,1.115-.1,3.084.772,3.442Z" fill="#0b1017"/><path d="M7899.334,331.246c-.086-.229-.274.1-.523.345a.316.316,0,0,0-.079.166.352.352,0,0,0-.2.152c-.024-.042-.131-.011-.171.013-.33.2-.75.276-.752.557,0,.662,1.131.434.957-.482a.23.23,0,0,1,.158-.141c.066.5.374.412.555.1A.915.915,0,0,0,7899.334,331.246Zm-.88,1.268a.561.561,0,0,1-.318.263.39.39,0,0,1-.372-.049.323.323,0,0,1-.107-.258c0-.138.152-.217.4-.331.108-.05.215-.11.322-.166s.125-.012.137.045A.732.732,0,0,1,7898.454,332.514Zm.8-.617a.5.5,0,0,1-.246.252c-.16.052-.234-.158-.238-.344a.255.255,0,0,1,.068-.171c.067-.063.129-.131.189-.2.1-.106.143-.176.205-.2.018-.006.041-.01.055.037A.856.856,0,0,1,7899.255,331.9Z" fill="#1d1d1b"/><path d="M7897.642,332.5l-1.488.036-.036-.072,1.546-.093Z" fill="#1d1d1b"/><path d="M7896.385,332.74a1.156,1.156,0,0,0-.233-.284.49.49,0,0,0-.339-.122.229.229,0,0,0-.094.026.22.22,0,0,0-.1.187.5.5,0,0,0,.052.217.991.991,0,0,0,.239.349.6.6,0,0,0,.385.161.225.225,0,0,0,.156-.046.193.193,0,0,0,.057-.113A.548.548,0,0,0,7896.385,332.74Z" fill="#ffae80"/><path d="M7896.063,333.764l3.59,5.748-3.7-3.622.178-.735-.6-.318,0-.575Z" fill="#d6eeeb"/><path d="M7836.565,369.592l-.062-1.186c.012-.475-.322-.575-.322-.287v-.288c-.009-.41-.36-.458-.383,0l-.1,1.491a1.709,1.709,0,0,0-.489-.559,2.331,2.331,0,0,0-.678,0l-.351.387a.2.2,0,0,0-.05.163.339.339,0,0,0-.1.151l-.217.56a3.611,3.611,0,0,0,.468,1.15,1.794,1.794,0,0,0,.527.607l-.048.841,1.209.108.042-.332.031-.23.383-.515.387-1.1.067-.188v-.7C7836.85,369.146,7836.547,369.186,7836.565,369.592Zm-2.07.656-.207-.217.048-.379a.612.612,0,0,0,.009-.163l-.009-.05a.275.275,0,0,0,.12-.054l.234-.228.316.052.152.295A2.422,2.422,0,0,1,7834.5,370.248Z" fill="#ffae80"/><path d="M7836.453,374a1.657,1.657,0,0,1-.086.529,1,1,0,0,1-1.014.669,10.194,10.194,0,0,1-3.566-1.627c-.09-.067-.177-.138-.261-.211-.021-.017-.044-.036-.065-.055l-1.054-3.067.4-1.063a3.36,3.36,0,0,1,2.448,1.784l1.535,1.226.021-.354a1.38,1.38,0,0,0,1.228.4C7836.145,373.1,7836.524,373.379,7836.453,374Z" fill="#ff4555"/><path d="M7836.368,374.529a1,1,0,0,1-1.013.668,10.185,10.185,0,0,1-3.568-1.625v-.436C7833.657,374.325,7835.21,374.846,7836.368,374.529Z" fill="#9e2e3b" opacity="0.5" style="mix-blend-mode:multiply;isolation:isolate"/><path d="M7833.821,371.409a3.948,3.948,0,0,1,.759,1.746l.212-.969Z" fill="#9e2e3b" opacity="0.5" style="mix-blend-mode:multiply;isolation:isolate"/><path d="M7835.353,371.354c-.207-.612-.4-.985-.858-1.106a2.422,2.422,0,0,0,.663-.744l-.152-.295-.316-.052-.234.228a.275.275,0,0,1-.12.054l.339-.4.467.133.211.354A2.361,2.361,0,0,1,7835.353,371.354Z" fill="#ffae80" opacity="0.5" style="mix-blend-mode:multiply;isolation:isolate"/><path d="M7836.883,369.939s-.027.267-.064.619l-.387,1.1-.383.515-.031.23-.285.04-.127-.157.027-.3c.213-.1.527-.276.583-.486a2.769,2.769,0,0,0,.4-.771c.015-.036-.814-.952-.8-.991s.876.8.891.769l.063-.142Z" fill="#ffae80" opacity="0.5" style="mix-blend-mode:multiply;isolation:isolate"/><path d="M7828.792,398.176a5.244,5.244,0,0,0-.089,1.384c.089.417,1.191.685,1.191.685s1.546,1.456,2.858,1.355c.774-.06,1.035-.264,1.156-.492a.729.729,0,0,0-.144-.729c-.152-.212-1.757-.893-2.158-1.533-.195-.312-.522-.968-.522-.968l-.133-1.221-2.129-.089.1,1.444Z" fill="#0b1017"/><path d="M7826.917,382.884l1.354,6.807a20.673,20.673,0,0,0,.3,8.5c.417,1.12,1.9.806,2.828,0a54.364,54.364,0,0,1-.268-7.484l.268-1.78a23.294,23.294,0,0,0,.209-4.354,33.619,33.619,0,0,0-1.013-5.622Z" fill="#201c3d"/><path d="M7824.1,400.558a4.15,4.15,0,0,0-.176,1.576,1.655,1.655,0,0,0,.89.88,2.771,2.771,0,0,0,2.442,1.623c1.688.041,1.676-.644,1.667-.641a1.011,1.011,0,0,0-.387-.714,22.161,22.161,0,0,1-1.712-1.489,3.654,3.654,0,0,1-.4-.744l-.075-1.221h-2.278Z" fill="#0b1017"/><path d="M7828.048,384.348c0,3.448.127,5.486-.781,7.233a19.839,19.839,0,0,1-.447,2.323,43.758,43.758,0,0,0-.112,7.3,1.654,1.654,0,0,1-2.313.4,1.537,1.537,0,0,1-.611-.846c-.6-3.726-1.006-6.676.468-9.421a29.108,29.108,0,0,1-.268-7.394,7.5,7.5,0,0,1,.5-3.928,6.884,6.884,0,0,1,.4-.783l6.131,1.454C7830.37,382.883,7829.261,384.079,7828.048,384.348Z" fill="#2d2856"/><path d="M7825.254,391.567c-1.881,1.931-1.338,5.677-.859,10.036a1.531,1.531,0,0,1-.611-.845c-.6-3.726-1.006-6.676.468-9.421a29.108,29.108,0,0,1-.268-7.394,7.5,7.5,0,0,1,.5-3.928l2.124,2.395C7824.489,383.736,7824.093,388.353,7825.254,391.567Z" fill="#2d2856" opacity="0.5" style="mix-blend-mode:multiply;isolation:isolate"/><path d="M7831.151,379.864a11.364,11.364,0,0,0,.213,2.6c-1.165,1.175-5.445,2.888-7.445.389.021-1.142.057-1.867.057-1.867l-.123-5.547-.5-3.394a8.947,8.947,0,0,1,2.375-1.948,5.677,5.677,0,0,1,5.085-.92,22.385,22.385,0,0,1,.8,2.95,4.7,4.7,0,0,1,.05.7c0,.124,0,.261,0,.4C7831.615,375.706,7831.16,379.193,7831.151,379.864Z" fill="#ff4555"/><path d="M7829.356,370.766c.033.135,0,.259-.081.279s-.168-.075-.2-.21,0-.26.081-.279S7829.323,370.631,7829.356,370.766Z" fill="#575756"/><path d="M7825.468,374.478l-1.615.959.123,5.547s-.036.725-.057,1.867c2,2.5,6.28.786,7.445-.389-1.786,1.091-3.631-3.3-5.152-4.42Z" fill="#9e2e3b" opacity="0.5" style="mix-blend-mode:multiply;isolation:isolate"/><path d="M7826.091,370.07l.913-1.9,2.539,1.268-.542,1.425C7828.544,372.585,7825.806,371.525,7826.091,370.07Z" fill="#ffae80"/><path d="M7826.468,369.288a1.825,1.825,0,0,0,1.951,1.977c.541-.351.587-1.021.584-1.694l.369.982-.039,1.13-.677-.016-.662.828-1.3-1.1a1.713,1.713,0,0,1-.7-1.53C7826.19,369.622,7826.305,369.474,7826.468,369.288Z" fill="#d43947"/><path d="M7829.543,369.787c0,1.03,0,2.4-1.17,2.454-.777.009-1.683-2.27-1.387-2.988l-.016-.845Z" fill="#ffae80" opacity="0.5" style="mix-blend-mode:multiply;isolation:isolate"/><path d="M7828.2,364.792a1.788,1.788,0,0,0-1.99,1.947,3.879,3.879,0,0,0,1.6,3.3,2.116,2.116,0,0,0,1.736.528c.752.03.884-1.84.991-3.188A2.727,2.727,0,0,0,7828.2,364.792Z" fill="#ffae80"/><path d="M7830.534,366.841a2.385,2.385,0,0,1-2.727.851l-.14,1.112-.535-.279-.492.546-.183-.267c-.923-1.881-.651-3.263.761-4.012C7829.058,364.065,7830.912,365.836,7830.534,366.841Z" fill="#0b1017"/><path d="M7826.959,369a1.094,1.094,0,0,1-.3-.362.517.517,0,0,1-.006-.457.343.343,0,0,1,.4-.172.383.383,0,0,1,.213.236,1.115,1.115,0,0,1,.051.322c.006.1.012.2.018.3a.266.266,0,0,1-.041.2.176.176,0,0,1-.175.038A.45.45,0,0,1,7826.959,369Z" fill="#ffae80"/><path d="M7831.135,383.089a.264.264,0,0,1-.055.323l-.12.049a.235.235,0,0,1-.111.313.2.2,0,0,1-.012.118.343.343,0,0,1-.12.152.715.715,0,0,1-.518.284,7.026,7.026,0,0,1-1.588-1.07l-.164-.115-.464-.327.1-.279.278-.823.607.175a2.734,2.734,0,0,1,.709-.762c.2-.3.181-.614.312-.705.3-.02.356.294.282.7-.081.187-.247.333-.239.485a1.238,1.238,0,0,0,.129.5c.03.066.064.133.1.2a1.771,1.771,0,0,1,.3-.032.942.942,0,0,1,.295.032,1.147,1.147,0,0,1,.422.537C7831.275,382.965,7831.242,383.058,7831.135,383.089Z" fill="#ffae80"/><path d="M7828.4,382.754a.464.464,0,0,0,.2.469l-.15-.08a14.4,14.4,0,0,1-4.867-3.648c-.071-.1-.138-.2-.2-.3a28.445,28.445,0,0,1-.71-5.791c.416-2.516,2.743-1.743,2.8,1.07a23.036,23.036,0,0,1,.019,3.9c1.385,1.44,2.616,3.118,3.477,3.508l.035.017A.938.938,0,0,0,7828.4,382.754Z" fill="#ff4555"/><path d="M7830.837,383.892a.343.343,0,0,1-.12.152.715.715,0,0,1-.518.284,7.026,7.026,0,0,1-1.588-1.07l-.164-.115a14.4,14.4,0,0,1-4.867-3.648,31.088,31.088,0,0,0,4.5,3.042l.323.217a4.7,4.7,0,0,0,1.7.77.389.389,0,0,0,.37.2l-.345.156a.256.256,0,0,0,.256.231A.647.647,0,0,0,7830.837,383.892Z" fill="#ffae80" opacity="0.5" style="mix-blend-mode:multiply;isolation:isolate"/><path d="M7830.791,382.374l-.1.253h-.141a.621.621,0,0,1-.391-.52c.03.066.064.133.1.2a1.771,1.771,0,0,1,.3-.032Z" fill="#ffae80" opacity="0.5" style="mix-blend-mode:multiply;isolation:isolate"/><path d="M7830.407,383.331a.938.938,0,0,1,.761-.3c-.042.026-.045.076,0,.15A2,2,0,0,0,7830.407,383.331Z" fill="#ffae80" opacity="0.5" style="mix-blend-mode:multiply;isolation:isolate"/><path d="M7928.085,429.8s-2.316-1.5-2.378-1.87.5-.76.888-.746,2.028.151,2.028.151l.525.6S7930.086,430.168,7928.085,429.8Z" fill="#103450"/><path d="M7933.149,427.9s-2.316-1.5-2.378-1.869.5-.761.888-.746,2.027.15,2.027.15l.526.6S7935.15,428.275,7933.149,427.9Z" fill="#103450"/><path d="M7927.324,408.758l-.067,19.044a2.341,2.341,0,0,0,2.275-.05s2.156-16.451,2.192-16.842c.034-.36.3,15.02.3,15.02a2,2,0,0,0,2.353-.275l1.2-18.219Z" fill="#103450"/><path d="M7929.222,394.528a6.027,6.027,0,0,0-2.237,1.246l.339,12.984s1.64,1.2,4.991.323c2.73-.715,3.447-1.864,3.447-1.864s.249-6.228-.007-8.861a11.753,11.753,0,0,0-1.326-4.443,7.8,7.8,0,0,0-1.909-.1Z" fill="url(#g)"/><path d="M7932.244,393.735l.075-2.537a.593.593,0,0,0,.529-.748c-.11-.7-.764-.239-.879-.033,0,0-.147-2.408-1.423-2.639s-1.8-.047-1.837.574-.074,2.792,0,3.6,0,1.226,1.164,1.194l.1.844s.528.493,2.16.094Z" fill="#ffc6a0"/><path d="M7929.222,394.528c.008-.5.087-.766,1.24-.9s2.088-.44,2.206,0-.116.713-1.269.81S7929.222,394.528,7929.222,394.528Z" fill="#fff"/><path d="M7930.729,390.523a.381.381,0,0,0-.221-.51.423.423,0,0,0-.432.182,3.387,3.387,0,0,0-.42.864c-.117-.1-.239-.2-.362-.292l.016-.229a1.874,1.874,0,0,0-.02-.563c-.079-.326-.359-.438-.582-.652a2.432,2.432,0,0,1-.6-.86,1.129,1.129,0,0,1,.48-1.492,2.024,2.024,0,0,1,1.018-.143c.916.071,2.2.13,2.71,1.059a.74.74,0,0,1,.876.458,1.749,1.749,0,0,1-.017,1.246c-.254,1.062-.625,2.092-.9,3.148-.036.138-.352.193-.488.15a.974.974,0,0,1-.356-.234,5.634,5.634,0,0,1-1.22-1.6C7930.24,391.117,7930.7,390.6,7930.729,390.523Z" fill="#62280c"/><path d="M7927.038,409.355a.365.365,0,0,0,.31.323c.187,0,.308-.189.391-.357l.156-.317a.52.52,0,0,0,.076-.275c-.01-.093-.069-.175-.073-.268-.008-.179.185-.3.235-.476.06-.2-.093-.406-.235-.565a1.6,1.6,0,0,0-.321-.3c-.49-.313-.931.245-.836.723.042.215.186.408.248.618A7.442,7.442,0,0,1,7927.038,409.355Z" fill="#ffc6a0"/><path d="M7926.985,395.774c-1.193.538-3.987,8.786-3.75,9.574s3.035,2.948,3.376,2.994,1.261-1.238.978-2c-.068-.184-1.39-1.792-1.39-1.792.016-.328,1.766-3.145,1.947-4.778A6.3,6.3,0,0,0,7926.985,395.774Z" fill="url(#h)"/><path d="M7934.429,393.913c.846.284,3.03,6.115,3.1,8.146s-2.661,3.175-2.661,3.175Z" fill="url(#i)"/><ellipse cx="8.613" cy="4.142" rx="8.613" ry="4.142" transform="translate(7865.327 432.764)" fill="#0d0506" opacity="0.1"/><path d="M7876.363,422.045l-.927,7.971a53.46,53.46,0,0,0-1.331,6.214c.013.235,1.933,1.19,1.861,1.278-1.489,1.812-2.982-.932-2.982-.932V435.9s-.3-3.618-.331-4.236a20.591,20.591,0,0,1,.364-2.118c.033-.558-.066-6.383-.066-6.383Z" fill="#e4c79a"/><path d="M7873.545,438.534s-.353-1.25-.4-1.379-.452-.941-.135-1.236c.536-.5,1.213,1,2.018,1.361s.825.037.825.037a7.776,7.776,0,0,1,1.119.957c.071.184-.8.46-1.521.419a3.045,3.045,0,0,1-1.115-.338l-.534-1.071A6.382,6.382,0,0,1,7873.545,438.534Z" fill="#5c504d"/><path d="M7876.241,407.249s-.765,1.677-1.407,1.5-.948-1.176-.948-1.5V406.19s-1.016.078-1.264-.259a8.228,8.228,0,0,1-.2-3.594c.2-.652,1.56-.941,1.56-.941l2.11.588Z" fill="#fbdfb4"/><path d="M7878.889,421.75s1.461,6.574,1.062,7.354-1.61,2.147-2.706,4.074-2.01,2.676-1.827,3.4.631,2.147.631,2.147l-1.992-1.573-.117-2.089a4.812,4.812,0,0,0,1.08-1.559c.3-.823.68-3.015,1.328-3.691s1.129-1.295,1.129-1.295l-2.735-6.286Z" fill="#fbdfb4"/><path d="M7872.651,437.645s.459-1.229.492-1.364.177-1.025.648-1.1c.8-.133.475,1.479.98,2.206a2.285,2.285,0,0,0,1.143.9,5.94,5.94,0,0,1,.334,1.275c-.049.191-.979.132-1.611-.287a6.343,6.343,0,0,1-1.162-1.361l.183-1.176S7872.651,437.763,7872.651,437.645Z" fill="#a6a09e"/><path d="M7873.183,407.4a.586.586,0,0,0-.7,0c-.325.215-2.909,3.9-3.844,5.246a.718.718,0,0,0,.076.912l3.94,4.239,1.877.4v-1.882l-1.877-.24-1.682-2.656a.762.762,0,0,1-.012-.984l2.012-2.474S7874.773,408.018,7873.183,407.4Z" fill="#e4c79a"/><path d="M7877.648,407.631a16.594,16.594,0,0,1,1.121,3.177c.122,1-1.7,3.324-1.4,3.854s3.089,13.557,3.089,13.557a7.581,7.581,0,0,1-2.355.977c-2.614.591-6.489.871-6.589-.324-.093-1.111-.465-9.026.208-10.681.8-1.969,1.264-2.632,1.182-3.287-.38-3.054-1.376-7.033-.428-7.506S7877.189,407.337,7877.648,407.631Z" fill="#634095"/><path d="M7879.658,415.42a7.2,7.2,0,0,1-1.243-3.685c-.074-1.79-.308-4-1-4.241a1.069,1.069,0,0,0-1.547,1.136c.09.732.986,5.418,1.111,6.072a.309.309,0,0,0,.065.138l3.558,4.484a1.846,1.846,0,0,1,.5,1.468,6.224,6.224,0,0,0,0,1.513c.052.33.515-.194.651-.5l.594-1.333a.319.319,0,0,0,0-.272,6.518,6.518,0,0,0-.88-1.378C7881.1,418.427,7880.563,416.778,7879.658,415.42Z" fill="#fbdfb4"/><path d="M7877.626,400.748a10.46,10.46,0,0,1,.741,5.061c-.249,3.04-4.759,1.685-4.759,1.685l-.453-2.992a1.28,1.28,0,0,0,.139-1.12c-.25-.533-.583.08-.583.08s-.687-2.133.278-2.826A3.6,3.6,0,0,1,7877.626,400.748Z" fill="#2b1c10"/><g opacity="0.8"><path d="M7932.135,277.849c-14.144,8.516-22.259,18.65-24.115,30.127l-2.493-.142c1.917-11.808,10.259-22.234,24.8-30.992Z" fill="#e1f5fb"/><g style="isolation:isolate"><g clip-path="url(#j)"><g style="isolation:isolate"><path d="M7932.135,277.849l-.193,67.932-.188.114.192-67.932.189-.114" fill="#c4ebf7"/><path d="M7931.946,277.963l-.192,67.932a70.853,70.853,0,0,0-11.471,8.494l.193-67.932a70.862,70.862,0,0,1,11.47-8.494" fill="#c0e9f7"/><path d="M7920.476,286.457l-.193,67.932a48.747,48.747,0,0,0-5.251,5.653l.193-67.932a48.911,48.911,0,0,1,5.251-5.653" fill="#bbe8f6"/><path d="M7915.225,292.11l-.193,67.932A39.306,39.306,0,0,0,7911.7,365l.193-67.932a39.254,39.254,0,0,1,3.334-4.957" fill="#b7e6f6"/><path d="M7911.891,297.067,7911.7,365a34.3,34.3,0,0,0-2.245,4.8l.193-67.931a34.153,34.153,0,0,1,2.245-4.8" fill="#b3e5f5"/><path d="M7909.646,301.866l-.193,67.931a31.983,31.983,0,0,0-1.414,4.942l.193-67.932a31.939,31.939,0,0,1,1.414-4.941" fill="#ade3f5"/><path d="M7908.232,306.807l-.193,67.932q-.116.582-.211,1.168l.192-67.931c.064-.391.134-.781.212-1.169" fill="#a9e2f4"/></g></g></g><path d="M7908.021,307.976l-.192,67.932-2.494-.141.193-67.932Z" fill="#bbe8f6"/></g><path d="M7931.234,354.746l-1.172-.111.163-.336.746-.561Z" fill="#ffbaa8"/><path d="M7929.281,356.666l2.491-4.085,2.615,1.266-2.491,4.085Z" fill="#291933"/><path d="M7932.026,357.448l-2.37-1.148,2.167-3.544,2.371,1.148Z" fill="#fff"/><path d="M7931.855,353.634l-.473-.088a1.062,1.062,0,0,1-.749.606l-.248.084a1.751,1.751,0,0,0-.211-.4.832.832,0,0,1,.417-.677l.722-.13.878.317C7932.216,353.544,7932.139,353.632,7931.855,353.634Z" fill="#ffbaa8"/><path d="M7932.134,357.307a.158.158,0,0,1-.053,0,.149.149,0,0,1-.115-.178l.773-3.6a.151.151,0,0,1,.294.063l-.773,3.6A.151.151,0,0,1,7932.134,357.307Z" fill="#291933"/><path d="M7933.757,355.552c.02.14-.072.24-.07.339,0,.039.009.111.015.177a.942.942,0,0,1,.007.117c-.008.233-.533.575-.7.68l-.683.325-.812.721-.165-.276-.394-.6.607-.737a2.211,2.211,0,0,1,.055-1.029l.315-.381.581-.283-.058.251c.008-.005.244-.164.475-.284.112-.057.309-.091.392.008.04.048.022.154.056.207s.183.124.213.191-.017.223.009.287S7933.736,355.4,7933.757,355.552Z" fill="#ffbaa8"/><path d="M7932.491,354.679l-.591.5.551-.324Z" fill="#ffbaa8"/><path d="M7933.7,356.068a1.136,1.136,0,0,1,.006.117c-.008.233-.533.575-.7.68l-.683.325-.812.721-.165-.276a3.257,3.257,0,0,0,.849-.853A1.7,1.7,0,0,0,7933.7,356.068Z" fill="#ffbaa8"/><path d="M7929.117,357.835c-1.435.78-6.6,1.29-7.032-.273-1.312-4.3-.1-6.731.914-7.2C7923,350.364,7929.591,357.978,7929.117,357.835Z" fill="#eb347a"/><path d="M7930.989,379.392c0-.581-.447-.8-1.11-.874a13.816,13.816,0,0,0-2.383.494l-1.167.639a2.613,2.613,0,0,0-.085,1.622,1.276,1.276,0,0,0,1.129.355l1.311-.555.095-.189C7929.824,380.77,7930.99,380.3,7930.989,379.392Z" fill="#291933"/><path d="M7926.729,377.067c0-.473-.424-.555-1.056-.6-1.143,0-1.192.572-2.243.547l-1.034.628a3.09,3.09,0,0,0-.044,1.738,1.48,1.48,0,0,0,1.149.28l1.062-.625.091-.192C7925.651,378.692,7926.729,377.951,7926.729,377.067Z" fill="#291933"/><path d="M7922.985,360.916l3.809,1.593a13.194,13.194,0,0,1-.076,1.782c-.241,1.754-.948,4.406-.948,4.406a46.694,46.694,0,0,0-.835,8,1.564,1.564,0,0,1-2.611.989c-.291-3.6-.289-7.1.557-9.412-.4-1.828-.03-3.9.084-6.009C7922.941,361.994,7923.092,360.962,7922.985,360.916Z" fill="#201c3d"/><path d="M7929.934,366.348a44.487,44.487,0,0,1-.7,4.4l-.388,7.991a1.251,1.251,0,0,1-.5,1.222,1.547,1.547,0,0,1-2.058-.283c-.493-3.594-.687-7.038.032-9.35a20.312,20.312,0,0,1-.485-5.629c-1.172-.478-2.986-1.16-2.912-3.009a9.245,9.245,0,0,1,.312-2.053c.032-.127.069-.254.109-.378.032-.1.062-.192.1-.286.647,1.3,2.73,2.105,5,1.819.1-.013.2-.028.3-.045.241-.04.483-.092.727-.157,0,0,.019.13.052.351.025.182.06.423.1.707A29.049,29.049,0,0,1,7929.934,366.348Z" fill="#2d2856"/><path d="M7929.934,366.347a44.16,44.16,0,0,1-.7,4.4l-.388,7.993a1.248,1.248,0,0,1-.5,1.221,31.4,31.4,0,0,0,0-8.955,13.7,13.7,0,0,0-.064-8.084c.01-.853.4-1.347.215-1.968a8.77,8.77,0,0,0,.965-.364A36.993,36.993,0,0,1,7929.934,366.347Z" fill="#a263c7" style="mix-blend-mode:multiply;isolation:isolate"/><path d="M7923.07,359.073a2.6,2.6,0,0,1,0,1.235,3.631,3.631,0,0,0-.132,1.125,5.016,5.016,0,0,0,4.656,1.686c.107-.039.373-.11.685-.2a.237.237,0,0,0,.05-.014c.223-.06.465-.128.692-.188.032-.007.06-.018.088-.025l.228-.067c.092-.028.181-.057.259-.082.035-.014.067-.025.1-.035s.05-.018.074-.029-.106-1.65-.088-1.657c.128-1.43.12-2.037.206-3.832,0-.064,0-.128.007-.2a2.939,2.939,0,0,1,.032-.585c.61-2.452.2-2.711-.451-3.123-2.1-1.334-3.751-3.041-6.476-2.725C7920.924,352.351,7923.026,358.888,7923.07,359.073Z" fill="#ffb645"/><path d="M7928.358,349.529c.133-.149-.071-.494-.221-.543-.209-.068-.323.234-.344.4a.764.764,0,0,0,.122.576c.142.21.365,0,.434-.166C7928.4,349.674,7928.273,349.624,7928.358,349.529Z" fill="#ffbaa8"/><path d="M7925.228,350.543l.931-1.61,2.53,1.242-.978,1.814C7926.795,351.989,7924.915,351.145,7925.228,350.543Z" fill="#ffbaa8"/><path d="M7927.854,350.955a.5.5,0,0,0,.835.127,4.148,4.148,0,0,0,1.1-3.318c-.287-1.266-2.412.451-2.412.451Z" fill="#ffbaa8"/><path d="M7925.625,349.912a8.95,8.95,0,0,1,1.8.825.545.545,0,0,0,.624-.027l.329-.249.231-.7.509-.205-.036-.525a1.683,1.683,0,0,0,.762-.549c.683-1.182-.75-2.483-2.3-2.376C7925.562,346.212,7925.072,348.337,7925.625,349.912Z" fill="#0b1017"/><path d="M7928.935,349.731a.713.713,0,0,0,.016-.225.269.269,0,0,0-.107-.191.282.282,0,0,0-.368.107.816.816,0,0,0-.1.407l-.022.307a.623.623,0,0,0,.017.255.217.217,0,0,0,.187.152.212.212,0,0,0,.159-.09.573.573,0,0,0,.079-.17A4.562,4.562,0,0,0,7928.935,349.731Z" fill="#ffbaa8"/><path d="M7928.279,362.923a.237.237,0,0,0,.05-.014c.238-.064.475-.124.692-.188.032-.007.06-.018.088-.025l.228-.067c.092-.028.181-.057.259-.082.035-.014.067-.025.1-.035s.05-.018.074-.029-.106-1.65-.088-1.657c.128-1.43.12-2.037.206-3.832l-1.8-1.53A14.233,14.233,0,0,0,7928.279,362.923Z" fill="#a263c7" opacity="0.5" style="mix-blend-mode:multiply;isolation:isolate"/><path d="M7930,353.514c.894.553.966,1.183.965,2.574l-.061.818.656-.612c.666-.043.965.3.9,1.118-.235,1.377-.918,2.9-2.029,3.288-.615.216-1.259-.059-1.57-1.266l-.753-3.091C7927.993,354.284,7928.41,353.173,7930,353.514Z" fill="#eb347a"/><path d="M7925.161,350.582l.252-.359c.163.4,1.015.926,2.535,1.326l-.027.482C7926.538,352.276,7924.848,351.184,7925.161,350.582Z" fill="#eb347a"/><path d="M7939.135,333.95c-.573,1.148-.507,3.428-.386,5.8a10.981,10.981,0,0,0,1.391,4.632l.592,2.694a6.31,6.31,0,0,0,.426-2.635c-.267-1.89-.451-3.192-.693-4.9l.452-3.323C7941.44,334.793,7940.286,332.829,7939.135,333.95Z" fill="#ffae80"/><path d="M7936.963,331.112c-1.256.188-1.489,1.707-1.952,2.6C7933.154,332.333,7934.445,329.546,7936.963,331.112Z" fill="#0b1017"/><path d="M7936.593,360a3.978,3.978,0,0,0,1.133,1.526,2.446,2.446,0,0,0,1.677.722c.469-.182.441-.575.253-1.114a4.4,4.4,0,0,0-1.531-1.511s-.728-.617-.73-.645S7936.593,360,7936.593,360Z" fill="#ff4555"/><path d="M7939.958,353.625a45.968,45.968,0,0,1-2.439,5.478s1.3,1.112.771,1.52c-.78.607-1.8-1.277-1.8-1.277l1.453-5.22Z" fill="#fc9f6a"/><path d="M7935.6,360.984l-.026.075c-.227.012-.507.763-.4,1.338.33.855,0,1.529.138,2.494a1.675,1.675,0,0,0,.766,1.325c.791.465,1.372.547,1.46-.119a3.232,3.232,0,0,0-.219-1.6l-.39-1.851Z" fill="#ff4555"/><path d="M7936.748,364.657c-1.073.14-1.259-1.176-1.276-2.348-.006-.35,0-.686.009-.968.938-2.4-.762-4.543.374-6.635l-.153-.854-.409-2.279,2.758-.351.511,2.527.185,1.5c-.29,2.016-1.621,4.286-1.882,6.436C7936.816,362.682,7937.389,364.574,7936.748,364.657Z" fill="#ffae80"/><path d="M7936.973,355.069c-1.271,1.025-.107,5.266-1.5,7.24-.006-.35,0-.686.009-.968.938-2.4-.762-4.543.374-6.635l-.153-.854C7936.263,354.381,7936.973,355.069,7936.973,355.069Z" fill="#ffae80"/><path d="M7940.752,347.358c.107,2.953-.744,3.366-.654,5.425a1.847,1.847,0,0,1-.048.507,2.59,2.59,0,0,1-1.245,1.729,1.166,1.166,0,0,1-.184.067,5.243,5.243,0,0,1-1.709-.005,1.69,1.69,0,0,1-1.278-1.015c0-2.188-1.668-3.72-1.872-6.618a4.309,4.309,0,0,1,.981-3.269l.968-.022,4.81-.112Z" fill="#60c1d2"/><path d="M7936.973,355.069l-.061.012a1.69,1.69,0,0,1-1.278-1.015c0-2.188-1.668-3.72-1.872-6.618a4.309,4.309,0,0,1,.981-3.269l.968-.022,2.684,1.424c-1.462.368-2.75.936-3.259,2.4A13.98,13.98,0,0,0,7936.973,355.069Z" fill="#60c1d2" style="mix-blend-mode:multiply;isolation:isolate"/><path d="M7940.183,340.806a6.462,6.462,0,0,0,.338,3.239,1.605,1.605,0,0,1-1.445,1.432c-2.029.394-3.735-.019-4.555-1.077a2.648,2.648,0,0,0,.233-2.98A6.157,6.157,0,0,1,7934,339.5a8.935,8.935,0,0,1-.19-2.624,7.033,7.033,0,0,1,3.148-2.186l2.542-.985c.76.1,1.38,1.466,1.184,2.49.113,1.582.9,2.239.925,3.221C7941.628,340.211,7941.106,340.728,7940.183,340.806Z" fill="#ff4555"/><path d="M7940.521,344.045a1.605,1.605,0,0,1-1.445,1.432c-2.029.394-3.735-.019-4.555-1.077a2.648,2.648,0,0,0,.233-2.98A6.157,6.157,0,0,1,7934,339.5l1.184-.043c.735,1.555,1.063,3.092,2.592,2.8,1.062-.208,1.391-1.094,1.129-2.171a1.92,1.92,0,0,0,1.279.719A6.462,6.462,0,0,0,7940.521,344.045Z" fill="#9e2e3b" opacity="0.5" style="mix-blend-mode:multiply;isolation:isolate"/><path d="M7935.808,335.154a4.011,4.011,0,0,0,.506-1.809l2.027.148-.013,1.446C7939.1,337.026,7936.021,336.5,7935.808,335.154Z" fill="#ffae80"/><path d="M7937.922,333.979c-.163,1-.841,2.474-1.6,2.093-.546-.273-.46-.875-.335-1.736Z" fill="#ffae80" opacity="0.5" style="mix-blend-mode:multiply;isolation:isolate"/><path d="M7938.643,333.8c1.119-1.913.526-3.566-1.023-3.915a2.233,2.233,0,0,0-2.812,2.33c-.039,1.566.365,2.672.959,2.764a1.72,1.72,0,0,0,1.966-.948Z" fill="#ffae80"/><path d="M7938.743,334.373l-.415.566c-.022-.1-.072-1.048-.113-1.309l-.167-.422-.445.194c-.913.055-1.087-1.545-2.794-1.327a2.125,2.125,0,0,1,2.37-2.37,2.058,2.058,0,0,1,2.192,2.327A5.786,5.786,0,0,1,7938.743,334.373Z" fill="#0b1017"/><path d="M7940.05,353.29a2.59,2.59,0,0,1-1.245,1.729,2.962,2.962,0,0,0,.135-.594c.179-1.446-.429-2.72-.179-3.555a4.813,4.813,0,0,0,.429,1.459A3.01,3.01,0,0,0,7940.05,353.29Z" fill="#60c1d2" style="mix-blend-mode:multiply;isolation:isolate"/><path d="M7937.288,332.552a2.326,2.326,0,0,1,2.657,2.162,3.5,3.5,0,0,1-.611,2.859,10.357,10.357,0,0,1-1.379,1.457c-.634-2.863.757-4.57.228-5.416a1.983,1.983,0,0,0-.9-.659Z" fill="#0b1017"/><path d="M7937.592,333.918c-.088-.237-.111-.209-.074-.316.183-.546.538-.835.79-.319a.537.537,0,0,1-.05.429.956.956,0,0,1-.154.277.323.323,0,0,1-.283.116A.307.307,0,0,1,7937.592,333.918Z" fill="#ffae80"/><path d="M7926.333,340.972c-.425.283-1.213-.008-1.776-.2l-.506-1.126.931-.41,1.4.633C7926.692,340.469,7926.942,340.807,7926.333,340.972Z" fill="#fc9f6a"/><path d="M7924.536,340.821a.275.275,0,0,0,.172.025l.19-.035c.158-.028.206-.448.144-.6l-.426-.7-.277-.061-.168-.084c-.187.125-.3.29-.08.746l.15.447a.326.326,0,0,0,.159.185Z" fill="#ffae80"/><path d="M7924.11,339.467c.289.4.6.238.31-.158l-4.5-6.3Z" fill="#2d2856"/><path d="M7926.545,341.011l-.772-.261c-.359-.24-.434-.561-.627-1.01l-.422-.159-.54.01c-.247-.03-.248-.284,0-.3l.635-.126.486.119a1.87,1.87,0,0,1,.922.414l.607.685Z" fill="#ffae80"/><path d="M7926.215,339.849c.28-.054.486.82.01,1.054.259.061,3.1,1.532,5.194.684l2.772-1.384c1.117-.184.413-3.33-.382-3.324a14.919,14.919,0,0,1-3.668,3.2Z" fill="#ffae80"/><path d="M7905.894,378.833l.489,1.122a5.9,5.9,0,0,0,.649,1.515c.09.35-.086.365-.423.179l-.7-1.028a1.76,1.76,0,0,0-.443.794l.189,1.576c-.05.3-.172.275-.325.1l-.279-1.431-.025,1.534c-.109.129-.2.085-.272-.122l-.09-.441c-.077.16-.155.13-.234-.033,0,0-.057-1.848-.057-1.877s.6-2.158.6-2.158l.233-.457.92.256Z" fill="#ffbaa8"/><path d="M7908.879,369.981c-.328,1.24-.242,2.758-.671,4.557-.583,1.8-1.3,2.683-2.124,4.731-.128.2-1.273-.059-1.227-.27.859-3.943.356-2.654.9-4.356.247-1.306.264-2.974.418-4.56a1.993,1.993,0,0,1,1.031-1.845C7908.436,367.837,7909.569,368.814,7908.879,369.981Z" fill="#ffb645"/><path d="M7908.76,396.185a5.082,5.082,0,0,1,.086,1.333c-.086.4-1.146.658-1.146.658a2.837,2.837,0,0,1-2.161,1c-.745-.057-1-.254-1.113-.473a.7.7,0,0,1,.139-.7c.147-.2,1.1-.552,1.487-1.168.189-.3.5-.931.5-.931l.037-.338a.98.98,0,0,1,.933-.872,1.063,1.063,0,0,1,1.121,1.134l-.015.205Z" fill="#0b1017"/><path d="M7913.177,399.021a4.028,4.028,0,0,1,.169,1.517,1.589,1.589,0,0,1-.857.847,1.925,1.925,0,0,1-2.013,1.338c-1.625.041-1.613-.618-1.6-.616a.969.969,0,0,1,.372-.687,14.59,14.59,0,0,0,1.311-1.21,3.521,3.521,0,0,0,.387-.716l.072-1.174h2.191Z" fill="#0b1017"/><path d="M7906.912,378.679l2.882,3.9c-.141,1.079-.368,4.059-.621,5.077.535,3.862-.155,8.235-.473,8.479a1.439,1.439,0,0,1-2.1-.33,49.564,49.564,0,0,0-.266-8.645Z" fill="#201c3d"/><path d="M7908.917,381.83l.8,7.251a97.081,97.081,0,0,1,1.277,10.336c.522.926,1.907.555,2.348,0,.049-.582.1-1.188.135-1.809a19.5,19.5,0,0,0-.861-8.229,35.284,35.284,0,0,0,.492-7.127,5.524,5.524,0,0,0-.123-3.769l-.021-.05a.509.509,0,0,1-.049.04,2.318,2.318,0,0,1-.806.442c-2.086.683-5.207-1.035-5.21-.992A4,4,0,0,0,7908.917,381.83Z" fill="#2d2856"/><path d="M7911.869,389.528c1.009,1.779,1.384,4.783,1.606,8.08a19.5,19.5,0,0,0-.861-8.229,35.284,35.284,0,0,0,.492-7.127,5.524,5.524,0,0,0-.123-3.769l-.07-.01-1.044-.159c.089.2.17.4.238.6a4.791,4.791,0,0,1,.068,3.221A21.611,21.611,0,0,1,7911.869,389.528Z" fill="#a263c7" style="mix-blend-mode:multiply;isolation:isolate"/><path d="M7906.393,375.273c.136.865.308,1.7.483,2.489a1.291,1.291,0,0,0,.128.492,2.318,2.318,0,0,0,2.126,1.171,7.965,7.965,0,0,0,2.162.067,3.169,3.169,0,0,0,.946-.258.348.348,0,0,0,.041-.02l.146-.077a1.242,1.242,0,0,0,.682-.995,38.967,38.967,0,0,0,.589-4.406,13.381,13.381,0,0,0,0-1.478c-.045-1.078-.357-2.306-.351-3.045a19.275,19.275,0,0,1-3.1-1.588,9.171,9.171,0,0,0-3.606.042A18.1,18.1,0,0,0,7906.393,375.273Z" fill="#ffb645"/><path d="M7912.238,379.234l.041-.02.146-.077a1.242,1.242,0,0,0,.682-.995,38.967,38.967,0,0,0,.589-4.406,13.381,13.381,0,0,0,0-1.478c-.562-.307-1.228-.686-1.228-.686A18.279,18.279,0,0,1,7912.238,379.234Z" fill="#db962c"/><path d="M7909.088,370.215l-.21.668-.385-.14v-.755l.385-.262Z" fill="#2d2856"/><path d="M7908.878,370.883a48.006,48.006,0,0,0,0,5.548l-.626.6-.432-.977a40.537,40.537,0,0,1,.675-5.307Z" fill="#2d2856"/><path d="M7909.946,366.981c.043,0,.782.914.782.914.985.558-.279,2.636-1.625,2.421l-1.115-.775Z" fill="#ffbaa8"/><path d="M7910.5,367.618a6.824,6.824,0,0,1,.778.6s-.538,2.52-2.191,2.66a4.359,4.359,0,0,0-.3-.784C7909.815,369.944,7910.5,368.39,7910.5,367.618Z" fill="#db962c"/><path d="M7908.791,370.1l-.606.58s-.581-2.371-.071-2.872S7908.791,370.1,7908.791,370.1Z" fill="#db962c"/><path d="M7907.4,369.779c0,.991.253,1.766.927,1.649,1.446-.177,1.7-2.209,1.548-2.976Z" fill="#ffbaa8" opacity="0.5" style="mix-blend-mode:multiply;isolation:isolate"/><path d="M7908.3,364.483a1.721,1.721,0,0,1,1.942,1.84,4.829,4.829,0,0,1-.74,3.026,1.919,1.919,0,0,1-1.556.829c-.733-.037-1.818-1.8-1.923-3.07C7905.849,365.821,7906.946,364.835,7908.3,364.483Z" fill="#ffbaa8"/><path d="M7906.178,368.037c.273.643,1.873.526,2.576-.262l.079.472.646-.537.563.731.2-.289a2.7,2.7,0,0,0-.974-3.569C7907.322,363.8,7904.9,366.07,7906.178,368.037Z"/><path d="M7909.66,368.263a1.06,1.06,0,0,0,.159-.421.474.474,0,0,0-.14-.408.34.34,0,0,0-.422-.021.368.368,0,0,0-.121.28,1.044,1.044,0,0,0,.057.3l.079.271a.24.24,0,0,0,.1.16.171.171,0,0,0,.173-.024A.435.435,0,0,0,7909.66,368.263Z" fill="#ffbaa8"/><path d="M7915.961,381.526l.076,1.133-.044,1.009-.293.748c-.052.177-.252.227-.185.015l-.259.816c-.055.243-.3.246-.286.016l.188-1.077-.676,1.476c-.106.22-.377.242-.313-.056l.471-1.6-.5.876-.487.59c-.2.2-.465.094-.34-.158l.517-.823s.224-.641.305-.943a6.24,6.24,0,0,0-.122-.628l-1.168.609c-.316.1-.442-.172-.16-.377l1.179-1.04.75-.457.062-.038.171-.536,1.115.083Z" fill="#ffbaa8"/><path d="M7913.769,369.507c1.265,1.36,1.894,2.932,2.822,5.257a23.983,23.983,0,0,1-.623,6.872c-.359.182-.746.048-1.237-.186.045-1.89-.422-3.81-.231-5.69-1-.627-1.992-2.446-3.065-4.024C7911.124,369.529,7912.408,368.326,7913.769,369.507Z" fill="#ffb645"/><path d="M7897.923,404.952c1.178-.073.918-2.074.6-3.162a.768.768,0,0,0-.976-.457c-.389.128-.629.868-.617,1.277C7896.941,402.992,7896.531,405.038,7897.923,404.952Z" fill="#603480"/><path d="M7898.567,402.872c.2-1.688-1.645-1.828-1.4.01.067.489.374.845.684.859C7898.337,403.762,7898.526,403.224,7898.567,402.872Z" fill="#ffbaa8"/><path d="M7904.038,402.207a2.791,2.791,0,0,0,1.807.611.311.311,0,0,0,.244-.084c.087-.106.026-.27-.047-.388-.594-.968-1.71-1.8-2.2-2.825a.879.879,0,0,0-.207-.327c-.154-.123-.369-.1-.557-.144s-.358-.157-.517-.07c-.144.079-.173.275-.216.439s-.126.611-.183.782a.912.912,0,0,0-.04.533.844.844,0,0,0,.436.477c.192.1.4.166.593.272A6.891,6.891,0,0,1,7904.038,402.207Z" fill="#ffbaa8"/><path d="M7906.089,402.735a.311.311,0,0,1-.243.082,2.774,2.774,0,0,1-1.808-.61,6.958,6.958,0,0,0-.886-.724c-.192-.1-.4-.17-.594-.271a.853.853,0,0,1-.435-.479.909.909,0,0,1,.039-.533c.049-.148.115-.564.161-.714.008-.022.016-.044.022-.068.044-.162.074-.359.219-.438s.342.024.514.071c.189.047.4.019.558.142a.926.926,0,0,1,.208.329,3.77,3.77,0,0,0,.8,1.053,10.171,10.171,0,0,1,1.4,1.772C7906.114,402.465,7906.177,402.629,7906.089,402.735Z" fill="#603480"/><path d="M7904.993,401.138a.184.184,0,0,1-.069.175.29.29,0,0,1-.158.025,2.863,2.863,0,0,1-1.527-.755,4.09,4.09,0,0,1-.637-.624,2.018,2.018,0,0,1-.279-.473c.008-.022.016-.044.022-.068.044-.162.049-.505.194-.585s.366.005.539.052c.189.046.471-.06.624.063.1.082.057.356.114.473a4.35,4.35,0,0,0,.829,1.154c.1.134.192.262.268.385A.472.472,0,0,1,7904.993,401.138Z" fill="#ffbaa8"/><path d="M7904.453,389.45c-.016.263-.037.568-.057.9-.021.317-.043.66-.066,1.025-.019.294-.037.6-.058.914-.2,3.158-.453,7.121-.453,7.127a.1.1,0,0,1-.012.023c-.286.533-1.363.653-1.462-.023a52.771,52.771,0,0,0-.747-5.577c-.089-.57-.165-1.122-.212-1.661a12.052,12.052,0,0,1-.056-1.357v-.066a8.106,8.106,0,0,1,.1-1.145c.019-.113.041-.224.064-.335l2.431-1.579C7903.922,387.768,7904.453,389.378,7904.453,389.45Z" fill="#ffbaa8"/><path d="M7901.6,385.966c-.4,2.067-.634,3.7-.879,4.954-.019.094-.037.187-.056.278a10.642,10.642,0,0,1-.329,1.26c-.027.082-.054.16-.085.232l-.2.968-.089.422-1.56,7.481-.056.266-.052.245c0,.589-.9.389-.955-.107l-.012-.113c-.012-.111-.025-.22-.035-.33-.484-4.519-.35-6.339-.045-8.047.037-.219.078-.437.121-.657.062-.317.128-.64.194-.986-.017-.111-.027-.223-.04-.334,0-.029-.006-.057-.008-.086a.323.323,0,0,1-.006-.048,31.908,31.908,0,0,1-.138-5.4Z" fill="#ffbaa8"/><path d="M7901.6,385.966c-.4,2.067-.634,3.7-.879,4.954-.019.094-.037.187-.056.278a10.642,10.642,0,0,1-.329,1.26c-.027.082-.054.16-.085.232l-.2.968-.089.422-1.56,7.481-.056.266-.052.245c0,.589-.9.389-.955-.107l-.012-.113c-.012-.111-.025-.22-.035-.33-.484-4.519-.35-6.339-.045-8.047.037-.219.078-.437.121-.657.062-.317.128-.64.194-.986-.017-.111-.027-.223-.04-.334,0-.029-.006-.057-.008-.086a.323.323,0,0,1-.006-.048,31.908,31.908,0,0,1-.138-5.4Z" fill="#ffbaa8"/><path d="M7900.719,390.92c-.019.094-.037.187-.056.278a10.642,10.642,0,0,1-.329,1.26c-.027.082-.054.16-.085.232l-.2.968-.089.422a5.891,5.891,0,0,1-2.715-.6c.037-.219.078-.437.121-.657.062-.317.128-.64.194-.986-.017-.111-.027-.223-.04-.334,0-.029-.006-.057-.008-.086Z" fill="#ffbaa8"/><path d="M7904.4,390.354c-.021.317-.043.66-.066,1.025-.019.294-.037.6-.058.914a5.664,5.664,0,0,1-2.674,1.55c-.089-.57-.165-1.122-.212-1.661a12.052,12.052,0,0,1-.056-1.357Z" fill="#ffbaa8"/><path d="M7906.945,380.4l-3.795-.755s-1.45-4.78-1.394-4.857,1.453-2.946,1.453-2.946l1.091,5.991,3.277,1.648Z" fill="#3f76ab"/><path d="M7906.945,380.4l-3.795-.755s-1.45-4.78-1.394-4.857,1.453-2.946,1.453-2.946l1.091,5.991,3.277,1.648Z" fill="#8f204a"/><path d="M7899.548,368.933c-2.416.785-1.9,3.065-1.248,4.852l1.705-1.6Z" fill="#1d1d1b"/><path d="M7904.342,391.184c-.368,1-5.361,3.016-6.942,1.453l-.463-6.9c-.428-2.265-.054-3.432,1.122-4.528.142-.131.294-.261.459-.393l3.506-.142,1.373-.055A27.564,27.564,0,0,1,7904.342,391.184Z" fill="#924fc2"/><path d="M7904.882,377.177a1.284,1.284,0,0,1-1.483,1.221,7.8,7.8,0,0,0,0,2.222,2.45,2.45,0,0,1-1.667,1.649,4.149,4.149,0,0,1-3.673-1.059,10.3,10.3,0,0,0-.69-4.173,21.084,21.084,0,0,1-.558-2.779,10.29,10.29,0,0,1,2.6-2.166c1.037-.724,1.832-1.556,3.018-1.112s1.008,2.716,1.445,3.649A6.078,6.078,0,0,1,7904.882,377.177Z" fill="#69b2e6"/><path d="M7903.4,380.62a2.45,2.45,0,0,1-1.667,1.649,4.149,4.149,0,0,1-3.673-1.059c-1.176,1.1-1.55,2.263-1.122,4.528l.463,6.9a2.116,2.116,0,0,0,.772.445,37.817,37.817,0,0,1,.556-9.846c2.9.114,4.134-.568,4.811-2.17Z" fill="#924fc2" opacity="0.5" style="mix-blend-mode:multiply;isolation:isolate"/><path d="M7903.4,380.62a2.45,2.45,0,0,1-1.667,1.649,4.149,4.149,0,0,1-3.673-1.059,10.3,10.3,0,0,0-.69-4.173l.873-.728,1.367,2.32c.908,1.527,3.261,1.227,3.36-.336l.43.12A7.7,7.7,0,0,0,7903.4,380.62Z" fill="#69b2e6" opacity="0.5" style="mix-blend-mode:multiply;isolation:isolate"/><path d="M7900.49,379.743a1.261,1.261,0,0,0,.709.546l.492.107c.048.144.267.172.491.2.165-.024.239-.1.224-.233.13-.091.207-.193.152-.322a.251.251,0,0,0,.107-.339.3.3,0,0,0,.072-.376l1.207.143c.259.031.348-.214,0-.3l-2.244-.411a2,2,0,0,0-.957,0l-.769.2.045.929Z" fill="#ffbaa8"/><path d="M7896.81,374.259c-1.275,1.559-2.613,5.938-1.694,6.588,1.056.914,3.324-.1,5.428-.955-.11-.5-.124-.867.2-1.132l-3.894.441,1.548-2.454C7899,374.7,7897.973,373.5,7896.81,374.259Z" fill="#69b2e6"/><path d="M7899.868,370.491c-.154.527-.566,1.343-.667,1.846-.115.62,1.029,1.585,1.795,1.529.542-.107.68-.8.76-1.443Z" fill="#ffbaa8"/><path d="M7900.261,370.893s-.451,3.711,1.332,3.4c1.163-.2.919-2.118.919-2.118Z" fill="#ffbaa8" opacity="0.5" style="mix-blend-mode:multiply;isolation:isolate"/><path d="M7902.316,368.588c1.533.234,3.253,2.108.68,3.152A4.422,4.422,0,0,0,7902.316,368.588Z" fill="#1d1d1b"/><path d="M7901.385,367.495a2.191,2.191,0,0,1,2.16,2.718c-.021,1.193-1.012,2.772-1.706,2.742-.988.055-1.473-1.1-2.317-2.332C7898.869,368.594,7899.722,367.265,7901.385,367.495Z" fill="#ffbaa8"/><path d="M7903.521,370.253a3.307,3.307,0,0,1-1.708.794c-.627.258-1.234.233-1.476.584l-.726-.3c-.73-.839-.8-3.239.449-3.747C7902.068,366.769,7904.454,368.785,7903.521,370.253Z" fill="#1d1d1b"/><path d="M7900.31,371.262c-.11-.438-.415-.724-.674-.472-.121.117-.113.332,0,.606a.491.491,0,0,0,.389.339C7900.271,371.772,7900.4,371.6,7900.31,371.262Z" fill="#ffbaa8"/><path d="M7905.865,376.629a9.759,9.759,0,0,0-2.465,5l3.927.127c-.057-1.815,1.132-3.512,2.634-5.128Z" fill="#d6eeeb"/><path d="M7907.2,379.592c-.406.042-.406.357-.1.388-.462-.009-.536.4-.149.422-.265.014-.315.318.069.353-.288.09-.31.27.014.315l.437.024c.176.017.417-.089.366-.3.149,0,.264-.361.19-.388.134-.057.23-.319.132-.4.186-.1.211-.374-.058-.671l-.127-.132-.192.371Z" fill="#ffbaa8"/></g></svg>