<svg width="144" height="156" viewBox="0 0 144 156" fill="none" xmlns="http://www.w3.org/2000/svg">
<g opacity="0.8">
<g opacity="0.8">
<g opacity="0.8">
<path opacity="0.8" d="M103.083 0.645996L102.899 63.308C101.976 64.3231 101.053 65.4306 100.222 66.4457L100.407 3.78371C101.238 2.76857 102.068 1.66114 103.083 0.645996Z" fill="#BBE8F6"/>
<path opacity="0.8" d="M100.407 3.78369L100.222 66.4457C98.9302 68.1068 97.7305 69.8603 96.8076 71.6137L96.9922 8.95169C97.915 7.19826 99.0225 5.44483 100.407 3.78369Z" fill="#B7E6F6"/>
<path opacity="0.8" d="M96.8999 8.95166L96.7153 71.6137C95.8848 73.0902 95.1465 74.6591 94.5928 76.228L94.7773 13.5659C95.3311 11.9971 96.0693 10.4282 96.8999 8.95166Z" fill="#B3E5F5"/>
<path opacity="0.8" d="M94.7774 13.4736L94.5928 76.1356C94.0391 77.6122 93.6699 79.0888 93.3008 80.5654L93.4853 17.9033C93.7622 16.4268 94.2236 14.9502 94.7774 13.4736Z" fill="#ADE3F5"/>
<path opacity="0.8" d="M93.4854 17.9033L93.3008 80.5653C93.0239 82.0419 92.8394 83.5185 92.7471 84.995L92.9316 22.333C93.0239 20.8565 93.2085 19.3799 93.4854 17.9033Z" fill="#A9E2F4"/>
<path opacity="0.8" d="M93.0239 22.3331L92.8394 84.9951C92.8394 85.1797 92.8394 85.4566 92.8394 85.6411L93.0239 22.9791C93.0239 22.7946 93.0239 22.61 93.0239 22.3331Z" fill="#A5E0F4"/>
</g>
</g>
<g opacity="0.8">
<path opacity="0.8" d="M94.1314 30.8235L93.9468 93.5778L91.6396 93.7623L91.8242 31.1003L94.1314 30.8235Z" fill="#C5EBF8"/>
</g>
<g opacity="0.8">
<g opacity="0.8">
<path opacity="0.8" d="M91.8242 31.1003L91.6397 93.7623C90.9014 91.086 90.4399 88.4097 90.4399 85.7334L90.6245 23.0714C90.6245 25.6554 91.0859 28.3317 91.8242 31.1003Z" fill="#99DCF2"/>
</g>
</g>
<g opacity="0.8">
<path opacity="0.8" d="M103.083 0.646C94.1316 10.336 91.0862 20.4874 94.1316 30.9157L91.8244 31.1003C88.779 20.3951 91.8244 9.96686 101.053 0L103.083 0.646Z" fill="#E1F5FB"/>
</g>
</g>
<g opacity="0.8">
<g opacity="0.8">
<g opacity="0.8">
<path opacity="0.8" d="M71.0601 4.42969L70.8755 67.0917C70.8755 67.184 70.7832 67.2763 70.7832 67.2763L70.9678 4.61426C71.0601 4.61426 71.0601 4.52197 71.0601 4.42969Z" fill="#B3E5F5"/>
<path opacity="0.8" d="M70.9678 4.61426L70.7832 67.3685C70.1372 69.122 69.5835 70.8754 69.3066 72.6288L69.4912 9.96683C69.8604 8.12112 70.3218 6.45997 70.9678 4.61426Z" fill="#ADE3F5"/>
<path opacity="0.8" d="M69.4912 9.87451L69.3066 72.6288C68.9375 74.2899 68.7529 75.9511 68.7529 77.5199L68.9375 14.8579C68.9375 13.1968 69.1221 11.5357 69.4912 9.87451Z" fill="#A9E2F4"/>
<path opacity="0.8" d="M68.9375 14.858L68.7529 77.52C68.7529 77.7969 68.7529 77.9815 68.7529 78.2583L68.9375 15.5963C68.9375 15.3195 68.9375 15.0426 68.9375 14.858Z" fill="#A5E0F4"/>
</g>
</g>
<g opacity="0.8">
<g opacity="0.8">
<path opacity="0.8" d="M74.013 35.53L73.8284 98.192C68.845 91.8243 66.3533 85.1797 66.3533 78.2583L66.5378 15.5963C66.5378 22.5177 69.0296 29.1623 74.013 35.53Z" fill="#99DCF2"/>
</g>
</g>
<g opacity="0.8">
<path opacity="0.8" d="M71.0599 4.42969C66.907 15.1348 68.6604 25.4708 76.1356 34.9763L74.013 35.53C66.3533 25.7477 64.5999 15.1348 68.7527 4.15283L71.0599 4.42969Z" fill="#E1F5FB"/>
</g>
<g opacity="0.8">
<path opacity="0.8" d="M76.1358 34.9763L75.9512 97.6383L73.8286 98.192L74.0132 35.53L76.1358 34.9763Z" fill="#CCEEF9"/>
</g>
</g>
<g opacity="0.8">
<g opacity="0.8">
<path opacity="0.8" d="M36.176 14.9502C37.3758 26.0245 43.8358 35.6222 55.3715 43.6511L53.618 44.4816C41.8055 36.2682 35.1609 26.3936 33.9612 15.0425L36.176 14.9502Z" fill="#E1F5FB"/>
</g>
<g opacity="0.8">
<path opacity="0.8" d="M55.2793 43.651L55.187 106.313L53.3413 107.144L53.5259 44.4816L55.2793 43.651Z" fill="#CEEEF9"/>
</g>
<g opacity="0.8">
<g opacity="0.8">
<path opacity="0.8" d="M53.5258 44.4816L53.3412 107.144C41.5286 98.9302 34.884 89.0556 33.6843 77.7045L33.8689 15.0425C35.1609 26.3936 41.8055 36.2682 53.5258 44.4816Z" fill="#99DCF2"/>
</g>
</g>
</g>
<g opacity="0.8">
<g opacity="0.8">
<path opacity="0.8" d="M2.49171 30.0851C6.27543 40.2365 14.1197 48.9114 25.84 55.6482C26.5783 56.1097 27.4089 56.5711 28.2394 56.9402L26.6706 57.9554C25.84 57.4939 25.0094 57.0325 24.1789 56.5711C12.0894 49.6497 4.06057 40.7902 0.18457 30.2697L2.49171 30.0851Z" fill="#E1F5FB"/>
</g>
<g opacity="0.8">
<path opacity="0.8" d="M28.2393 56.9402L28.0547 119.694L26.4858 120.617L26.6704 57.9553L28.2393 56.9402Z" fill="#CEEEF9"/>
</g>
<g opacity="0.8">
<g opacity="0.8">
<path opacity="0.8" d="M26.6706 57.9554L26.486 120.617C25.6554 120.156 24.8249 119.695 23.9943 119.233C11.9049 112.312 3.876 103.452 0 92.9316L0.184571 30.2697C4.06057 40.7902 12.0894 49.5574 24.1789 56.5711C25.0094 57.0325 25.84 57.4939 26.6706 57.9554Z" fill="#99DCF2"/>
</g>
</g>
</g>
<path d="M53.1565 145.904L53.9871 146.181C54.2639 146.273 54.5408 146.458 54.7253 146.827C54.9099 147.104 54.9099 147.75 54.5408 148.026C53.9871 149.226 53.5256 150.426 52.6951 150.426C51.6799 150.426 52.2336 149.595 52.4182 149.042C52.6028 148.488 52.8796 147.473 52.8796 147.196C52.8796 146.919 52.6951 146.734 52.6951 146.734L52.3259 146.088L53.1565 145.904Z" fill="black"/>
<path d="M48.5422 152.271L48.3576 153.194C48.4499 153.471 48.3576 153.748 48.2654 154.117C48.0808 154.394 47.8962 154.486 47.6194 154.579C46.6965 155.317 46.0505 155.594 45.4045 155.501C44.8508 155.317 44.6662 155.132 44.7585 154.855C45.0354 154.486 45.5891 154.117 46.3274 153.656C46.9734 153.194 47.2502 152.733 47.2502 152.733L47.5271 151.995L48.5422 152.271Z" fill="black"/>
<path d="M48.4498 142.12C48.5421 142.489 48.7267 142.766 48.819 143.135C48.819 143.227 48.819 143.227 48.9112 143.32C49.465 143.781 50.111 144.243 50.5724 144.796C50.6647 144.889 50.757 144.981 50.8492 145.073C51.4952 145.719 52.1412 146.365 52.7872 147.103C52.9718 147.288 52.4181 148.857 52.8795 148.857C53.6178 148.857 54.2638 146.642 53.8024 146.181C53.2487 145.627 52.8795 144.889 52.5104 144.243C52.2335 143.689 51.9567 143.227 51.5875 142.766C51.4952 142.674 51.4952 142.581 51.4029 142.581C51.2184 142.397 50.9415 142.212 50.6647 142.12L51.4029 137.506L49.8341 135.752L49.5572 135.475L47.4347 136.029C46.9732 138.982 47.8038 140.367 48.4498 142.12Z" fill="#FFBAA8"/>
<path d="M45.958 154.209C46.0503 154.579 47.25 154.209 48.3574 153.194C49.3726 150.149 50.9414 148.303 50.1109 145.535C50.2032 145.442 50.2032 145.35 50.2954 145.165C50.3877 145.073 50.48 144.889 50.48 144.796C50.8491 144.15 51.2183 143.504 51.4952 142.858C51.5874 142.766 51.5874 142.674 51.6797 142.581C52.1412 141.566 52.5103 140.736 52.7871 139.905C53.8023 138.152 53.4332 136.86 52.418 135.845C52.3257 135.752 52.2334 135.66 52.1412 135.568L49.834 135.845L47.4346 136.121C47.896 137.506 48.4497 138.798 49.5571 139.075C49.0034 140.09 48.7266 141.105 48.4497 142.212C48.3574 142.581 48.2651 143.043 48.1729 143.412C48.0806 143.873 47.9883 144.335 47.896 144.889C47.8037 145.442 47.9883 146.088 47.896 147.011C47.7114 149.041 47.7114 150.61 47.0654 152.917C46.6963 153.563 45.958 154.025 45.958 154.209Z" fill="#FFBAA8"/>
<path opacity="0.5" d="M47.9885 144.796C48.7268 145.258 49.5574 145.442 50.388 145.165C50.4802 145.073 50.5725 144.889 50.5725 144.796C50.6648 144.889 50.7571 144.981 50.8494 145.073C51.4954 144.981 52.0491 144.704 52.4182 144.243C52.1414 143.689 51.8645 143.227 51.4954 142.766C51.5877 142.674 51.5877 142.581 51.68 142.489L51.3108 142.581L48.7268 143.135L48.0808 143.32C48.1731 143.781 48.0808 144.243 47.9885 144.796Z" fill="#FFBAA8"/>
<path d="M48.542 126.616C49.188 126.247 49.7417 126.247 50.1109 126.431L54.0791 128.739C54.4483 129.015 54.7251 129.477 54.7251 130.215V132.615C54.7251 133.63 53.9869 134.922 53.064 135.475L52.2334 135.937L48.2651 133.63V126.708L48.542 126.616Z" fill="#3B254A"/>
<path d="M45.958 142.212C46.5117 143.32 47.5269 143.873 48.6343 144.15C49.0957 144.243 49.6494 144.243 50.1109 144.243C51.6797 144.15 53.1563 143.504 53.6177 142.489C52.6026 140.09 54.8174 138.152 52.6949 136.029H52.2334L47.5269 136.121C46.604 139.075 47.1577 139.905 45.958 142.212Z" fill="#924FC2"/>
<path opacity="0.5" d="M50.2034 144.243C51.7722 144.15 53.3411 143.504 53.7102 142.489C52.6951 140.09 54.9099 138.152 52.7874 136.029H52.3259L50.2957 137.321C51.4031 137.137 52.6951 137.875 52.8797 138.982C52.8797 142.028 52.4182 143.32 50.2034 144.243Z" fill="#A263C7"/>
<path d="M49.0037 127.539C49.1883 128.554 48.2654 129.938 47.7117 131.692C47.4348 132.799 46.7888 133.999 45.7737 135.291L45.22 135.106C45.6814 133.63 45.866 132.707 46.3274 131.415L46.6965 128.554C46.9734 127.077 48.3577 126.524 49.0037 127.539Z" fill="#FFBAA8"/>
<path d="M56.8477 136.86L57.2169 137.506L57.4937 138.06L57.586 138.521C57.586 138.613 57.4937 138.706 57.4937 138.613L57.586 139.167C57.586 139.352 57.4937 139.352 57.4014 139.259L57.2169 138.613V139.628C57.2169 139.813 57.0323 139.905 57.0323 139.721L56.8477 138.706V139.352L56.7555 139.813C56.6632 139.998 56.4786 139.998 56.4786 139.813L56.5709 139.167C56.5709 139.167 56.4786 138.706 56.4786 138.521L56.2017 138.244L55.7403 138.89C55.5557 139.075 55.4634 138.89 55.5557 138.706L55.9249 137.783L56.2017 137.321L56.1095 136.952L56.7555 136.675L56.8477 136.86Z" fill="#FFBAA8"/>
<path d="M50.1111 125.047C51.5877 124.863 52.3259 125.878 52.4182 126.893C52.6028 128.185 52.3259 128.646 51.9568 129.385C51.6799 129.846 50.7571 130.677 50.7571 130.677C50.1111 128.185 51.3108 126.708 50.8494 125.97C50.5725 125.601 50.0188 125.416 50.0188 125.416V125.047H50.1111Z" fill="black"/>
<path d="M47.7117 133.261C47.8962 134.276 47.804 135.199 47.5271 136.029C47.6194 136.675 47.9885 137.137 48.8191 137.229C50.5725 137.506 52.0491 136.952 52.6951 136.029C52.0491 135.383 52.0491 134.553 52.4183 133.63C52.6951 133.076 52.8797 132.522 52.972 131.969C53.0643 131.23 53.1565 130.4 53.0643 129.569C52.326 128.831 51.7723 128.185 50.6648 127.539C50.4803 127.447 50.2957 127.354 50.1111 127.262C49.8343 127.17 49.6497 127.077 49.4651 127.077C48.3577 126.801 47.5271 127.262 47.5271 127.262C47.0657 127.816 46.7888 128.369 46.9734 129.015C46.9734 129.108 47.0657 129.2 47.0657 129.292C47.0657 129.754 46.9734 130.215 46.7888 130.584C46.6042 131.138 46.3274 131.599 46.3274 132.153C46.4197 132.799 46.8811 133.261 47.7117 133.261Z" fill="#EB347A"/>
<path opacity="0.5" d="M47.5271 136.029C47.6194 136.675 47.9885 137.137 48.8191 137.229C50.5725 137.506 52.0491 136.952 52.6951 136.029C52.0491 135.383 52.0491 134.553 52.4182 133.63C52.6951 133.076 52.8797 132.522 52.972 131.969H51.9568C51.4031 133.353 51.1262 134.645 49.8342 134.46C48.9114 134.276 48.6345 133.537 48.8191 132.615C48.5422 132.984 48.0808 133.261 47.7117 133.261C47.8962 134.276 47.804 135.199 47.5271 136.029Z" fill="#EB347A"/>
<path d="M53.0642 129.569C53.8948 130.123 54.8177 131.599 55.7405 133.261C56.3865 134.183 56.6634 135.568 56.9402 137.137L56.2942 137.69C55.6482 136.306 55.0945 135.106 54.5408 133.814L52.5105 131.969C51.7722 131.507 51.8645 129.292 53.0642 129.569Z" fill="#FFBAA8"/>
<path d="M45.866 135.383C45.9583 135.66 46.0505 135.845 46.1428 136.121C46.2351 136.491 46.4197 136.767 46.512 137.044C46.6043 137.229 46.4197 137.229 46.2351 137.137L45.7737 136.491C45.6814 136.583 45.5891 136.767 45.4968 136.952L45.5891 137.967C45.5891 138.152 45.4968 138.152 45.4045 138.059L45.22 137.137V138.059C45.1277 138.152 45.1277 138.152 45.0354 137.967L44.9431 137.69C44.8508 137.783 44.8508 137.783 44.7585 137.69C44.7585 137.69 44.7585 136.583 44.7585 136.491L45.1277 135.106L45.3123 134.829L45.866 135.014V135.383Z" fill="#FFBAA8"/>
<path d="M52.4182 135.106L52.8796 134.737C51.3107 132.615 51.2185 130.861 51.5876 130.031C51.8645 129.477 52.3259 129.2 52.9719 129.2V128.554C52.1413 128.554 51.403 128.923 51.0339 129.662C50.3879 131.046 50.9416 133.076 52.4182 135.106Z" fill="#3B254A"/>
<path d="M46.8809 130.584C47.1577 130.308 47.3423 129.938 47.4346 129.569C47.896 128.554 48.3574 127.631 50.5723 127.631V127.539V126.985C50.1109 126.985 49.7417 126.985 49.3726 127.078C47.896 127.354 47.3423 128.185 46.8809 129.016C47.0654 129.2 47.0654 130.123 46.8809 130.584Z" fill="#3B254A"/>
<path d="M51.3107 128.277C51.0339 127.816 50.8493 127.354 50.8493 126.708L49.0959 126.893L49.1881 128.185C48.5421 129.938 51.1261 129.385 51.3107 128.277Z" fill="#FFBAA8"/>
<path opacity="0.5" d="M50.2033 127.078C50.111 128.093 49.7418 129.662 48.819 129.2C48.2653 128.923 48.4498 128.093 48.5421 127.354L50.2033 127.078Z" fill="#FFBAA8"/>
<path d="M50.8494 126.985C51.7722 125.324 51.2185 123.94 49.9265 123.663C48.45 123.386 47.5271 124.401 47.5271 125.693C47.5271 127.077 47.8962 128 48.45 128.093C49.2805 128.185 49.9265 127.816 50.1111 127.262L50.8494 126.985Z" fill="#FFBAA8"/>
<path d="M50.8494 127.262C50.6648 127.354 50.388 127.17 50.388 126.985L50.2957 126.524L49.742 126.708C49.5574 126.801 49.3728 126.708 49.1882 126.616C48.5422 125.97 47.8962 125.324 47.4348 125.232C47.4348 124.217 48.1731 123.571 49.3728 123.571C50.8494 123.663 51.3108 124.493 51.3108 125.509C51.4031 126.155 51.1262 126.708 50.8494 127.262Z" fill="black"/>
<path d="M49.9264 127.17C49.8341 127.077 49.8341 126.893 49.9264 126.708C50.0187 126.524 50.111 126.431 50.2955 126.431C50.3878 126.431 50.4801 126.431 50.5724 126.616C50.6647 126.708 50.5724 126.893 50.5724 126.985C50.5724 127.077 50.4801 127.17 50.4801 127.262C50.3878 127.354 50.2955 127.354 50.2032 127.354C50.0187 127.262 50.0187 127.262 49.9264 127.17Z" fill="#FFBAA8"/>
<path opacity="0.5" d="M45.958 142.212C46.5117 143.32 47.5269 143.873 48.6343 144.15C49.2803 143.135 49.6494 141.751 49.834 140.459C49.4649 141.566 49.0034 142.581 48.4497 143.227C49.2803 141.935 49.4649 140.09 49.3726 138.336C49.0957 140.828 47.896 143.32 45.958 142.212Z" fill="#A263C7"/>
<path opacity="0.3" d="M85.918 109.728C89.3838 109.728 92.1934 108.116 92.1934 106.129C92.1934 104.141 89.3838 102.53 85.918 102.53C82.4522 102.53 79.6426 104.141 79.6426 106.129C79.6426 108.116 82.4522 109.728 85.918 109.728Z" fill="#924FC2"/>
<path d="M85.7334 75.4897C86.7486 75.3975 87.3023 76.1357 87.6714 77.0586C87.7637 77.7046 87.5791 78.5352 87.21 79.0889L86.0103 79.6426C85.5488 79.7349 85.1797 79.9195 84.9028 79.8272C84.1646 79.6426 84.1646 78.3506 84.1646 77.2432C84.2568 76.3203 84.5337 75.582 85.7334 75.4897Z" fill="#FFBAA8"/>
<path d="M85.1797 81.396L84.9028 79.5503L87.0254 78.812L87.6714 80.5654L85.1797 81.396Z" fill="#FFBAA8"/>
<path d="M84.7182 106.221L85.1796 107.144C85.4565 107.513 85.4565 107.974 85.2719 108.343C84.9028 108.805 84.1645 108.713 83.4262 108.62C82.4111 108.343 81.9496 108.067 81.3036 107.882C80.3808 107.605 80.5654 106.867 81.5805 106.775L83.1494 106.682L83.7031 106.59L83.7954 106.036L84.7182 106.221Z" fill="#291933"/>
<path d="M90.3478 103.822L90.9015 104.191C91.1784 104.652 91.1784 105.206 90.9938 105.483C90.6247 105.76 90.1632 105.76 89.425 105.39C88.5021 104.652 88.133 104.652 87.8561 104.191C87.487 103.545 88.0407 103.268 88.5944 103.36L89.6095 103.545L90.3478 103.822Z" fill="#291933"/>
<path d="M85.4565 88.5021L86.0103 92.2858C86.1025 92.7472 86.2871 93.2087 86.4717 93.5778C86.9331 94.8698 87.3945 96.1618 87.7637 96.8078C87.856 96.9924 87.9483 97.1769 88.0405 97.2692L88.4097 98.0075C88.4097 98.2844 88.502 98.6535 88.5943 98.9304C88.8711 100.499 89.4248 102.068 89.6094 103.36H89.3325C88.6865 103.452 88.5943 103.637 88.9634 104.006C89.3325 104.283 89.6094 104.468 89.9785 104.56C90.5323 104.652 90.9014 104.56 90.9014 104.191C90.8091 101.791 90.9937 99.4841 90.5323 97.8229C90.44 97.3615 90.2554 96.9001 89.9785 96.4387L89.7017 95.7004C89.7017 95.5158 89.7017 95.3312 89.7017 95.0544C89.794 93.7624 89.7017 92.2858 89.6094 91.0861C89.7017 89.5172 89.2403 88.2252 88.5943 87.1178L87.4868 87.6715L86.564 88.0407L85.4565 88.5021Z" fill="#FFBAA8"/>
<path d="M82.5955 107.328L84.1644 107.698C84.6258 107.79 85.0872 107.513 85.1795 107.236C84.8104 104.191 86.0101 102.345 85.1795 99.6686V98.6535L85.4564 97.0846L86.0101 94.1315L86.3792 93.7624L87.2098 92.8395L86.6561 88.2252H83.5184L82.9647 91.7321C82.5032 93.4855 82.3187 95.1467 82.411 96.8078C82.411 97.3615 82.5032 97.9152 82.6878 98.4689L82.7801 99.6686L82.8724 100.13C83.1492 101.976 83.3338 104.006 83.4261 105.944C83.4261 106.406 83.1492 106.775 82.6878 106.775C82.0418 106.775 81.8572 107.052 82.5955 107.328Z" fill="#FFBAA8"/>
<path d="M82.1343 84.0723C82.1343 84.7183 82.5957 85.272 83.1494 85.4566C83.334 85.5488 83.5186 85.5488 83.7031 85.5488C84.0723 85.5488 84.3491 85.4566 84.626 85.272C85.0874 84.9951 85.3643 84.5337 85.3643 83.98C85.3643 83.1494 84.626 82.5034 83.7954 82.5034C83.4263 82.5034 83.0571 82.5957 82.7803 82.7803C82.5957 82.8726 82.5034 83.0571 82.3188 83.2417C82.2266 83.6108 82.1343 83.7954 82.1343 84.0723Z" fill="#A263C7"/>
<path d="M82.5034 98.192C83.4262 98.9303 88.8711 99.2994 90.3477 96.3463L89.8862 91.4551C89.6094 89.6094 89.7017 89.0557 88.6865 87.5791C88.5942 87.4868 88.5942 87.3946 88.502 87.3023C88.0405 85.918 89.0557 84.8106 89.5171 82.688C89.6094 82.4111 89.6094 82.1343 89.6094 81.8574C89.7017 81.3037 89.5171 80.8423 89.3325 80.4731C89.0557 80.0117 88.502 79.7348 87.9482 79.8271C86.564 80.0117 85.1797 80.4731 83.8877 81.3037L83.4262 81.5806L82.688 82.8726L82.5957 83.4263L82.5034 84.1646C82.688 84.626 82.9648 84.9951 83.0571 85.4566C83.334 86.2871 83.5185 87.1177 83.4262 88.0406C83.2417 88.6866 83.0571 89.3326 82.8725 90.0708C82.2265 92.7471 82.042 95.4234 82.5034 98.192Z" fill="#FFB645"/>
<path d="M87.3022 79.1812C87.7636 78.6275 87.9482 77.9815 87.9482 77.2432C87.8559 76.228 87.3022 75.2129 86.1025 75.2129C84.4413 75.1206 83.6108 76.4126 84.1645 77.9815C84.7182 78.5352 85.0873 79.0889 85.4565 79.3658C86.1948 80.0118 86.8408 79.9195 87.3022 79.1812Z" fill="#0B1017"/>
<path d="M87.0254 78.812C87.0254 78.812 87.9482 79.7349 88.1328 80.5654C88.5019 82.2266 87.2099 84.2569 87.2099 84.2569C87.2099 84.2569 86.1948 82.042 86.3794 81.1192C86.5639 80.1963 86.3794 78.812 86.3794 78.812H87.0254Z" fill="#0B1017"/>
<path d="M84.5337 77.9816C84.8106 78.1661 84.7183 78.9967 84.7183 78.9967L84.4414 79.1813L84.2568 78.2584C84.3491 78.2584 84.2568 77.797 84.5337 77.9816Z" fill="#FFBAA8"/>
<path opacity="0.5" d="M83.1494 85.549C83.4263 86.3795 83.6108 87.2101 83.5186 88.133C83.334 88.779 82.9648 89.425 82.7803 90.1633C84.5337 88.4098 87.21 88.6867 88.7788 87.6715C88.6866 87.5793 88.6866 87.487 88.5943 87.3947C88.1328 86.0104 89.148 84.903 89.6094 82.7804C88.5943 85.3644 86.1948 86.5641 84.626 85.4567C84.2568 85.1798 83.8877 84.7184 83.7031 84.0724L82.688 83.611L82.3188 83.4264C82.2266 83.611 82.1343 83.8878 82.1343 84.1647C82.1343 84.7184 82.5957 85.2721 83.1494 85.549Z" fill="#FFB645"/>
<path d="M81.8574 82.6881L83.0571 82.965L83.2417 82.4113L82.8726 81.8575L82.2266 82.0421L81.8574 82.6881Z" fill="#FFBAA8"/>
<path d="M83.7032 84.5337L81.396 80.6577L78.9043 81.8574L81.2114 85.7334L83.7032 84.5337Z" fill="#291933"/>
<path d="M81.1192 85.272L83.334 84.1646L81.3037 80.8423L79.0889 81.9497L81.1192 85.272Z" fill="white"/>
<path d="M81.3035 81.6729L81.765 81.5806C81.9495 81.9497 82.2264 82.042 82.5033 82.1343L82.7801 82.2266C82.8724 82.042 82.9647 81.9497 82.9647 81.8574C82.9647 81.5806 82.7801 81.3037 82.5955 81.2114L81.9495 81.1191L81.119 81.396C80.9344 81.5806 81.0267 81.6729 81.3035 81.6729Z" fill="#FFBAA8"/>
<path d="M81.0269 85.1797C81.1191 85.1797 81.2114 85.0874 81.2114 84.9951L80.4731 81.5806C80.4731 81.4883 80.3809 81.4883 80.2886 81.4883C80.1963 81.4883 80.1963 81.5806 80.1963 81.6728L80.9346 85.0874C80.9346 85.0874 80.9346 85.0874 81.0269 85.1797Z" fill="#291933"/>
<path d="M79.458 83.5187C79.458 83.611 79.5503 83.7033 79.5503 83.7955C79.5503 83.7955 79.5503 83.8878 79.5503 83.9801V84.0724C79.5503 84.257 80.0117 84.6261 80.1963 84.7184L80.8423 84.9953L81.5806 85.6413L81.7652 85.3644L82.1343 84.8107L81.5806 84.0724C81.5806 83.7033 81.6729 83.4264 81.4883 83.0573L81.2114 82.6881L80.6577 82.4113L80.75 82.6881C80.75 82.6881 80.5654 82.5035 80.2886 82.4113C80.1963 82.319 80.0117 82.319 79.9194 82.4113C79.9194 82.4113 79.9194 82.5958 79.8272 82.5958C79.8272 82.6881 79.6426 82.6881 79.6426 82.7804C79.6426 82.8727 79.6426 82.965 79.6426 83.0573C79.6426 83.2418 79.5503 83.3341 79.458 83.5187Z" fill="#FFBAA8"/>
<path d="M80.6577 82.6881L81.2114 83.1495L80.75 82.7804L80.6577 82.6881Z" fill="#FFBAA8"/>
<path d="M79.5503 83.98V84.0723C79.5503 84.2568 80.0117 84.626 80.1963 84.7183L80.8423 84.9951L81.5806 85.6411L81.7652 85.3643C81.396 85.1797 81.1192 84.8106 80.9346 84.5337C80.3809 84.626 79.7349 84.4414 79.5503 83.98Z" fill="#FFBAA8"/>
<path d="M83.4263 81.5807C82.688 81.9498 82.5957 82.5035 82.5957 83.7955L82.5034 85.1798L81.4883 84.1647C80.8423 84.1647 80.75 84.257 80.75 84.9952C81.1191 86.1027 81.8574 87.6715 82.5034 88.3175C82.9649 88.779 83.7031 88.2252 83.98 87.1178L84.4414 84.1647C84.9029 82.5958 84.626 81.3038 83.4263 81.5807Z" fill="#FFBAA8"/>
<path d="M65.6152 106.313C65.6152 106.313 65.4306 107.236 65.5229 107.605C65.6152 107.974 66.6303 108.251 66.6303 108.251C66.6303 108.251 68.0146 109.635 69.3066 109.543C70.0449 109.451 70.2295 109.266 70.414 109.082C70.5063 108.897 70.4141 108.62 70.3218 108.436C70.1372 108.251 68.6606 107.605 68.2915 107.051C68.1069 106.775 67.8301 106.129 67.8301 106.129L67.7378 105.021L65.7998 104.929L65.8921 106.221L65.6152 106.313Z" fill="#0B1017"/>
<path d="M63.8618 92.1011L65.1538 98.3765C64.6924 100.868 64.7847 103.545 65.4307 106.221C65.7998 107.236 67.1841 106.959 68.0147 106.221C67.7378 104.191 67.7378 101.791 67.7378 99.2994L68.0147 97.6382C68.0147 97.6382 68.1992 96.8077 68.1992 93.5777C68.1992 91.9165 67.2764 88.4097 67.2764 88.4097L63.8618 92.1011Z" fill="#201C3D"/>
<path d="M61.2778 108.436C61.0933 108.713 61.0933 109.174 61.0933 109.912C61.2778 110.281 61.5547 110.651 61.9238 110.743C61.9238 110.743 62.4776 112.219 64.1387 112.219C65.7076 112.219 65.7075 111.666 65.7075 111.666C65.7075 111.666 65.7075 111.297 65.3384 111.02C65.1538 110.835 63.9541 109.912 63.7695 109.635C63.585 109.359 63.4004 108.989 63.4004 108.989L63.3081 107.882H61.1855L61.2778 108.436Z" fill="#0B1017"/>
<path d="M64.9691 93.4854C64.9691 96.7154 65.0614 98.5611 64.2308 100.13C64.2308 100.13 64.0463 101.422 63.8617 102.253C63.5848 103.083 63.6771 106.775 63.7694 108.989C63.308 109.728 62.2928 109.82 61.6468 109.359C61.37 109.174 61.1854 108.897 61.0931 108.62C60.5394 105.206 60.1703 102.437 61.5546 99.9454C61.0931 97.7305 61.1854 95.5157 61.2777 93.1162C61.0931 91.6397 61.2777 90.5322 61.7391 89.5171C61.8314 89.2402 62.016 89.0557 62.1083 88.7788L67.7377 90.1631C67.0917 92.1011 66.0766 93.2085 64.9691 93.4854Z" fill="#2D2856"/>
<path opacity="0.5" d="M62.3851 100.13C60.6317 101.883 61.1854 105.39 61.5546 109.451C61.2777 109.266 61.0931 108.989 61.0008 108.713C60.4471 105.298 60.078 102.529 61.4623 100.038C61.0008 97.8228 61.0931 95.6079 61.1854 93.2085C61.0008 91.7319 61.1854 90.6245 61.6468 89.6094L63.5848 91.8242C61.6468 92.9317 61.2777 97.1768 62.3851 100.13Z" fill="#2D2856"/>
<path d="M69.0296 89.7017C68.8451 90.0708 68.7528 90.44 68.5682 90.8091C68.4759 91.3628 68.1991 91.8242 67.9222 92.2857C67.8299 92.6548 68.0145 92.6548 68.2913 92.4702L68.9373 91.4551C69.1219 91.6397 69.2142 91.9165 69.3988 92.1934L69.2142 93.6699C69.3065 93.9468 69.3988 93.9468 69.4911 93.7622L69.7679 92.3779V93.8545C69.8602 93.9468 69.9525 93.9468 70.0448 93.7622L70.1371 93.3008C70.2293 93.4854 70.3216 93.3931 70.3216 93.3008L70.4139 91.5474L69.8602 89.5171L69.6756 89.0557L68.7528 89.3325L69.0296 89.7017Z" fill="#FFAE80"/>
<path d="M66.1688 81.2113C66.4456 82.4111 66.4456 83.8876 66.8148 85.5488C67.3685 87.3022 67.6453 88.2251 68.3836 90.1631C68.4759 90.3476 70.0448 90.0708 69.9525 89.7939C69.1219 86.0102 69.5833 87.3022 69.1219 85.6411C68.845 84.3491 68.845 82.7802 68.7528 81.3036C68.6605 80.2885 68.2913 79.7348 67.7376 79.5502C66.5379 79.1811 65.5228 80.1039 66.1688 81.2113Z" fill="white"/>
<path d="M67.7378 87.7637V87.8559C67.7378 88.2251 67.6455 88.5942 67.6455 88.9634C67.6455 89.1479 67.6455 89.2402 67.5533 89.4248C67.7378 90.2554 66.5381 90.9014 65.2461 91.2705C64.0464 91.6397 62.7544 91.7319 62.293 91.6397C61.2778 91.2705 60.9087 90.2554 60.9087 90.2554L60.7241 86.1025V85.7334L60.355 82.5034C61.001 81.6728 61.9238 80.9345 62.5698 80.5654C64.1387 79.5502 65.523 79.0888 67.461 79.6425C68.0147 81.6728 68.107 83.6108 67.7378 87.7637Z" fill="white"/>
<path d="M65.1538 81.765L65.8921 82.2264C65.8921 82.2264 66.4458 80.3807 65.8921 79.827C65.4307 79.4578 65.1538 81.765 65.1538 81.765Z" fill="#C8E6E2"/>
<path d="M62.939 80.2886L63.8618 78.4429L66.169 79.5503L65.8921 81.0269C65.3384 82.688 62.6621 81.6729 62.939 80.2886Z" fill="#FFAE80"/>
<path d="M65.523 82.7803V82.042L65.1538 81.7651L64.9692 82.2266L65.1538 82.8726C65.2461 84.2569 65.4307 86.4717 65.3384 87.9483L65.9844 88.502L66.4458 87.5791C66.2612 86.1949 65.7998 84.1646 65.523 82.7803Z" fill="#FF4555"/>
<path d="M63.2156 79.8271L62.7542 80.3809C62.7542 80.3809 63.4924 82.5957 64.8767 82.5957C65.0613 82.1343 65.1536 81.7651 65.1536 81.7651C64.1384 81.6729 63.2156 80.5654 63.2156 79.8271Z" fill="#C8E6E2"/>
<path d="M67.7376 87.856C67.7376 88.2251 67.6453 88.5943 67.6453 88.9634C67.6453 89.148 67.6453 89.2403 67.553 89.4248C67.7376 90.2554 66.5379 90.9014 65.2459 91.2706C64.0462 91.6397 62.7542 91.732 62.2927 91.6397C61.2776 91.2706 60.9085 90.2554 60.9085 90.2554L60.7239 86.1026L62.9387 84.4414C63.3079 86.0103 63.2156 86.1948 63.4924 87.3023C64.0462 87.6714 66.7225 87.1177 67.7376 87.7637V87.856Z" fill="#D6EEEB"/>
<path opacity="0.5" d="M66.538 80.2886C66.7225 81.3037 66.9071 82.688 66.2611 82.688C65.892 82.688 65.1537 81.9497 64.7845 80.75C64.5077 79.8272 64.6 79.0889 64.6 79.0889L66.538 80.2886Z" fill="#FFAE80"/>
<path d="M64.5078 79.4579L65.0615 80.2885C65.1538 80.4731 65.3384 80.6576 65.6152 80.6576C66.0766 80.7499 66.4458 80.7499 66.9072 80.6576C67.0918 80.5653 67.2764 80.4731 67.3686 80.2885C67.4609 80.1039 67.4609 79.1811 67.4609 79.1811C67.4609 79.1811 67.6455 79.0888 67.6455 78.9965C67.6455 78.9042 67.6455 78.8119 67.6455 78.7196C67.5532 78.6273 67.1841 77.9813 67.1841 77.9813L67.3686 77.3353C67.2764 76.2279 66.6304 75.4896 65.1538 75.2128C63.8618 75.0282 63.0312 75.5819 62.8466 76.9662C62.6621 78.6273 63.1235 79.2733 64.5078 79.4579Z" fill="#FFAE80"/>
<path d="M63.2158 79.1811C63.4004 79.3656 63.5849 79.3656 63.7695 79.3656C63.8618 79.3656 63.9541 79.2734 64.0464 79.1811L64.2309 78.5351H64.7846C64.8769 78.5351 64.9692 78.4428 64.9692 78.3505V78.0736C64.9692 77.8891 65.0615 77.7045 65.2461 77.7045C66.1689 77.5199 66.9995 77.2431 67.2764 76.9662C67.2764 76.9662 67.2764 76.8739 67.2764 76.7816C66.9995 75.0282 63.4004 74.0131 62.7544 76.5971C62.5698 77.6122 62.6621 78.4428 63.2158 79.1811Z" fill="#0B1017"/>
<path d="M64.1387 78.2582C63.9541 78.3505 63.8618 78.535 63.8618 78.6273C63.8618 78.8119 63.9541 78.9965 64.0464 79.0887C64.0464 79.181 64.1387 79.2733 64.231 79.3656C64.3232 79.4579 64.4155 79.4579 64.5078 79.4579C64.6001 79.4579 64.6001 79.3656 64.6924 79.2733C64.6924 79.181 64.6924 79.0887 64.6924 78.9965C64.6924 78.8119 64.6924 78.6273 64.6001 78.4427C64.5078 78.3505 64.3232 78.2582 64.1387 78.2582Z" fill="#FFAE80"/>
<path d="M69.5835 85.9178C69.8604 86.0101 70.2295 86.0101 70.6909 85.9178L71.2446 85.641C71.4292 85.7333 71.6138 85.5487 71.8906 85.4564C71.9829 85.2718 72.0752 85.1795 71.8906 85.0872C71.9829 84.9027 71.8906 84.7181 71.7984 84.6258C71.7984 84.4412 71.7984 84.2567 71.6138 84.2567C71.6138 84.0721 71.6138 83.8875 71.4292 83.8875L72.7212 83.057C72.9981 82.8724 72.9058 82.5955 72.4444 82.7801L69.9526 84.1644C69.5835 84.349 69.3066 84.6258 69.0298 84.9027L68.4761 85.7333L69.2144 86.5638L69.5835 85.9178Z" fill="#FFAE80"/>
<path d="M69.8604 86.1948C69.2144 87.1177 65.6152 89.1479 64.3232 89.1479C62.7544 87.9482 62.3852 87.7637 60.6318 85.8257C58.8784 83.2417 60.5395 80.6577 62.4775 82.9648C63.5849 84.2568 64.3232 85.1797 64.9692 86.2871C66.7227 85.6411 68.9375 84.9028 68.9375 84.9028C68.8452 85.2719 69.4912 86.1948 69.8604 86.1948Z" fill="white"/>
<path d="M114.065 56.2943C114.065 56.2943 114.065 56.3866 114.065 56.2943H114.157H114.25H114.526L114.896 56.3866C114.988 56.4789 115.172 56.5712 115.08 56.6635C114.988 56.848 114.896 56.7557 114.803 56.6635C114.711 56.6635 114.619 56.6635 114.526 56.5712C114.434 56.5712 114.342 56.5712 114.157 56.5712H114.065V56.4789V56.3866V56.2943Z" fill="#FFAE80"/>
<path d="M114.896 57.6786C114.803 57.7709 114.711 57.7709 114.619 57.6786C114.526 57.6786 114.434 57.6786 114.342 57.6786C114.25 57.7709 114.065 57.7709 113.88 57.7709C113.88 57.7709 113.88 57.7709 113.788 57.7709V57.6786V57.4017H114.065H114.25H114.619C114.803 57.4017 114.896 57.494 114.896 57.6786C114.896 57.5863 114.896 57.5863 114.896 57.6786Z" fill="#FFAE80"/>
<path d="M114.065 56.6635H114.526L114.896 56.7557C114.988 56.848 115.172 56.848 115.172 56.9403C115.172 57.1249 114.988 57.0326 114.896 57.0326C114.803 57.0326 114.711 57.0326 114.526 57.0326C114.434 57.0326 114.25 57.0326 114.065 57.0326V56.6635Z" fill="#FFAE80"/>
<path d="M114.988 57.4017C114.896 57.4017 114.896 57.4017 114.711 57.3094H114.619C114.526 57.3094 114.434 57.3094 114.342 57.3094C114.25 57.3094 114.065 57.3094 113.88 57.3094V56.9403H114.342H114.526H114.619H114.711C114.803 57.0326 114.988 57.1249 114.988 57.2172C115.08 57.4017 114.988 57.4017 114.988 57.4017Z" fill="#FFAE80"/>
<path d="M114.065 56.2943C114.065 56.3866 114.065 56.3866 114.065 56.4789C114.065 56.5712 114.065 56.5712 114.065 56.6635C114.065 56.848 114.065 57.1249 113.973 57.3095C113.973 57.494 113.88 57.5863 113.788 57.6786C113.788 57.6786 113.788 57.7709 113.696 57.7709C113.419 57.9555 113.05 58.0477 112.588 58.0477C112.404 58.0477 112.312 57.9555 112.219 57.8632H111.666C111.758 57.8632 111.85 57.7709 111.85 57.6786C112.035 57.4017 111.942 57.0326 111.666 56.848L112.127 56.7557L112.865 56.5712L114.065 56.2943Z" fill="#FFAE80"/>
<path d="M114.619 57.5863C114.526 57.5863 114.434 57.5863 114.342 57.5863C114.25 57.6786 114.065 57.6786 113.973 57.6786H113.88C113.88 57.6786 114.065 56.848 113.973 56.848C113.973 56.848 113.788 57.6786 113.696 57.6786C113.511 57.7709 113.327 57.7709 113.142 57.7709C112.865 57.7709 112.681 57.6786 112.496 57.494L112.035 57.5863C111.942 57.6786 111.85 57.7709 111.85 57.7709H112.404C112.496 57.8632 112.588 57.8632 112.773 57.9555C113.142 57.9555 113.604 57.8632 113.88 57.6786C114.065 57.6786 114.157 57.5863 114.342 57.5863C114.434 57.6786 114.526 57.6786 114.619 57.5863C114.711 57.6786 114.803 57.6786 114.896 57.5863C114.803 57.6786 114.711 57.6786 114.619 57.5863Z" fill="#FFAE80"/>
<path d="M114.157 56.3866L113.142 56.5712C113.05 56.6635 113.05 56.848 112.958 56.9403C112.958 57.0326 112.958 57.2172 112.865 57.3095C112.958 57.3095 113.05 57.3095 113.142 57.2172C113.234 57.2172 113.234 57.1249 113.327 57.0326C113.419 56.9403 113.419 56.7557 113.511 56.6635C113.88 56.4789 114.065 56.6635 114.157 56.3866Z" fill="#FFAE80"/>
<path d="M114.065 56.4789C113.973 56.4789 113.973 56.4789 113.88 56.4789H113.696L113.511 56.5712C113.511 56.848 113.234 57.2172 113.05 57.3095C112.958 57.3095 112.958 57.3095 112.865 57.3095C112.681 57.3095 112.496 57.0326 112.404 56.7557L112.588 56.5712L113.142 56.1097L113.696 56.0175C113.88 56.1097 113.973 56.1097 114.157 56.1097C114.25 56.1097 114.25 56.1097 114.25 56.202C114.25 56.202 114.25 56.202 114.25 56.2943C114.157 56.3866 114.065 56.4789 114.065 56.4789Z" fill="#FFAE80"/>
<path d="M114.065 56.2943C114.065 56.2943 114.065 56.3866 114.065 56.2943H114.157H114.25H114.526L114.896 56.3866C114.988 56.4789 115.172 56.5712 115.08 56.6635C114.988 56.848 114.896 56.7557 114.803 56.6635C114.711 56.6635 114.619 56.6635 114.526 56.5712C114.434 56.5712 114.342 56.5712 114.157 56.5712H114.065V56.4789V56.3866V56.2943Z" fill="#FFAE80"/>
<path d="M114.896 57.6786C114.803 57.7709 114.711 57.7709 114.619 57.6786C114.526 57.6786 114.434 57.6786 114.342 57.6786C114.25 57.7709 114.065 57.7709 113.88 57.7709C113.88 57.7709 113.88 57.7709 113.788 57.7709V57.6786V57.4017H114.065H114.25H114.619C114.803 57.4017 114.896 57.494 114.896 57.6786C114.896 57.5863 114.896 57.5863 114.896 57.6786Z" fill="#FFAE80"/>
<path d="M114.065 56.6635H114.526L114.896 56.7557C114.988 56.848 115.172 56.848 115.172 56.9403C115.172 57.1249 114.988 57.0326 114.896 57.0326C114.803 57.0326 114.711 57.0326 114.526 57.0326C114.434 57.0326 114.25 57.0326 114.065 57.0326V56.6635Z" fill="#FFAE80"/>
<path d="M114.988 57.4017C114.896 57.4017 114.896 57.4017 114.711 57.3094H114.619C114.526 57.3094 114.434 57.3094 114.342 57.3094C114.25 57.3094 114.065 57.3094 113.88 57.3094V56.9403H114.342H114.526H114.619H114.711C114.803 57.0326 114.988 57.1249 114.988 57.2172C115.08 57.4017 114.988 57.4017 114.988 57.4017Z" fill="#FFAE80"/>
<path d="M114.065 56.2943C114.065 56.3866 114.065 56.3866 114.065 56.4789C114.065 56.5712 114.065 56.5712 114.065 56.6635C114.065 56.848 114.065 57.1249 113.973 57.3095C113.973 57.494 113.88 57.5863 113.788 57.6786C113.788 57.6786 113.788 57.7709 113.696 57.7709C113.419 57.9555 113.05 58.0477 112.588 58.0477C112.404 58.0477 112.312 57.9555 112.219 57.8632H111.666C111.758 57.8632 111.85 57.7709 111.85 57.6786C112.035 57.4017 111.942 57.0326 111.666 56.848L112.127 56.7557L112.865 56.5712L114.065 56.2943Z" fill="#FFAE80"/>
<path opacity="0.5" d="M114.619 57.5863C114.526 57.5863 114.434 57.5863 114.342 57.5863C114.25 57.6786 114.065 57.6786 113.973 57.6786H113.88C113.88 57.6786 114.065 56.848 113.973 56.848C113.973 56.848 113.788 57.6786 113.696 57.6786C113.511 57.7709 113.327 57.7709 113.142 57.7709C112.865 57.7709 112.681 57.6786 112.496 57.494L112.035 57.5863C111.942 57.6786 111.85 57.7709 111.85 57.7709H112.404C112.496 57.8632 112.588 57.8632 112.773 57.9555C113.142 57.9555 113.604 57.8632 113.88 57.6786C114.065 57.6786 114.157 57.5863 114.342 57.5863C114.434 57.6786 114.526 57.6786 114.619 57.5863C114.711 57.6786 114.803 57.6786 114.896 57.5863C114.803 57.6786 114.711 57.6786 114.619 57.5863Z" fill="#FFBF86"/>
<path opacity="0.5" d="M114.157 56.3866L113.142 56.5712C113.05 56.6635 113.05 56.848 112.958 56.9403C112.958 57.0326 112.958 57.2172 112.865 57.3095C112.958 57.3095 113.05 57.3095 113.142 57.2172C113.234 57.2172 113.234 57.1249 113.327 57.0326C113.419 56.9403 113.419 56.7557 113.511 56.6635C113.88 56.4789 114.065 56.6635 114.157 56.3866Z" fill="#FFBF86"/>
<path d="M114.065 56.4789C113.973 56.4789 113.973 56.4789 113.88 56.4789H113.696L113.511 56.5712C113.511 56.848 113.234 57.2172 113.05 57.3095C112.958 57.3095 112.958 57.3095 112.865 57.3095C112.681 57.3095 112.496 57.0326 112.404 56.7557L112.588 56.5712L113.142 56.1097L113.696 56.0175C113.88 56.1097 113.973 56.1097 114.157 56.1097C114.25 56.1097 114.25 56.1097 114.25 56.202C114.25 56.202 114.25 56.202 114.25 56.2943C114.157 56.3866 114.065 56.4789 114.065 56.4789Z" fill="#FFAE80"/>
<path d="M100.776 83.7031C101.791 83.6108 101.607 81.9497 101.33 80.9345C101.237 80.5654 100.776 80.4731 100.499 80.5654C100.13 80.6577 99.9454 81.3037 99.9454 81.6728C99.9454 82.042 99.5763 83.7954 100.776 83.7031Z" fill="#FF4555"/>
<path d="M101.33 81.9498C101.514 80.4732 99.9453 80.3809 100.13 81.9498C100.222 82.4112 100.499 82.6881 100.684 82.6881C101.145 82.6881 101.33 82.2267 101.33 81.9498Z" fill="#FFAE80"/>
<path d="M106.129 81.3037C106.59 81.6729 107.144 81.8574 107.697 81.8574C107.79 81.8574 107.882 81.8574 107.882 81.7652C107.974 81.6729 107.882 81.4883 107.882 81.396C107.328 80.5654 106.405 79.8272 105.944 78.9043C105.852 78.812 105.852 78.7197 105.759 78.6274C105.667 78.5352 105.483 78.5352 105.298 78.5352C105.113 78.5352 105.021 78.4429 104.837 78.4429C104.744 78.5352 104.652 78.7197 104.652 78.812C104.652 78.9966 104.56 79.3657 104.467 79.458C104.375 79.6426 104.375 79.7349 104.467 79.9194C104.56 80.104 104.652 80.2886 104.837 80.2886C105.021 80.3809 105.206 80.4732 105.39 80.5654C105.667 80.8423 105.852 81.1192 106.129 81.3037Z" fill="#FFAE80"/>
<path d="M107.883 81.7652C107.791 81.8575 107.791 81.8575 107.698 81.8575C107.145 81.8575 106.591 81.6729 106.129 81.3037C105.853 81.1192 105.668 80.8423 105.391 80.6577C105.207 80.5655 105.022 80.4732 104.837 80.3809C104.653 80.2886 104.561 80.1963 104.468 79.9195C104.468 79.7349 104.468 79.6426 104.468 79.458C104.468 79.3657 104.561 78.9966 104.653 78.812C104.653 78.812 104.653 78.812 104.653 78.7197C104.653 78.5352 104.745 78.4429 104.837 78.3506C104.93 78.2583 105.114 78.3506 105.299 78.4429C105.483 78.4429 105.668 78.4429 105.76 78.5352C105.853 78.6275 105.853 78.7197 105.945 78.812C106.129 79.1812 106.406 79.458 106.683 79.7349C107.145 80.1963 107.606 80.75 107.883 81.3037C107.883 81.5806 107.975 81.6729 107.883 81.7652Z" fill="#FF4555"/>
<path d="M106.959 80.3809C106.959 80.4732 106.959 80.4732 106.867 80.5654H106.774C106.313 80.5654 105.852 80.1963 105.482 79.9194C105.298 79.7349 105.113 79.5503 104.929 79.3657C104.836 79.2734 104.744 79.0889 104.652 78.9966C104.652 78.9966 104.652 78.9966 104.652 78.9043C104.652 78.7197 104.652 78.4429 104.836 78.4429C104.929 78.3506 105.113 78.4429 105.298 78.4429C105.482 78.4429 105.667 78.3506 105.852 78.5352C105.944 78.6274 105.944 78.812 105.944 78.9043C106.128 79.2734 106.405 79.6426 106.682 79.9194C106.774 80.0117 106.867 80.104 106.959 80.2886C106.867 80.2886 106.959 80.3809 106.959 80.3809Z" fill="#FFAE80"/>
<path d="M106.498 70.3217C106.498 70.5062 106.498 70.7831 106.405 71.06C106.405 71.3368 106.405 71.6137 106.313 71.9828C106.313 72.2597 106.313 72.5365 106.221 72.8134C106.036 75.582 105.852 78.9965 105.852 78.9965C105.575 79.4579 104.652 79.5502 104.56 78.9965C104.467 77.1508 104.098 75.582 103.914 74.1977C103.821 73.7362 103.729 73.1825 103.729 72.7211C103.729 72.352 103.637 71.8905 103.637 71.5214V71.4291C103.637 71.06 103.637 70.7831 103.729 70.414C103.729 70.3217 103.729 70.2294 103.821 70.1371L105.944 68.7528C106.036 68.8451 106.498 70.2294 106.498 70.3217Z" fill="#FFAE80"/>
<path d="M104.007 67.2764C103.638 69.0298 103.453 70.5064 103.268 71.6138C103.268 71.7061 103.268 71.7984 103.176 71.8907C103.084 72.3521 102.992 72.6289 102.899 72.9981C102.899 73.0904 102.807 73.1827 102.807 73.1827L102.622 74.0132L102.53 74.3824L101.146 80.8424L101.054 81.0269V81.2115C101.054 81.7652 100.315 81.5807 100.223 81.1192V81.0269C100.223 80.9347 100.223 80.8424 100.223 80.7501C99.7615 76.8741 99.9461 75.2129 100.223 73.7364C100.223 73.5518 100.315 73.3672 100.315 73.1827C100.408 72.9058 100.408 72.6289 100.5 72.3521C100.5 72.2598 100.5 72.1675 100.5 72.0752V71.9829C100.315 69.9527 100.315 68.3838 100.408 67.2764H104.007Z" fill="#FFAE80"/>
<path d="M104.007 67.2764C103.638 69.0298 103.453 70.5064 103.268 71.6138C103.268 71.7061 103.268 71.7984 103.176 71.8907C103.084 72.3521 102.992 72.6289 102.899 72.9981C102.899 73.0904 102.807 73.1827 102.807 73.1827L102.622 74.0132L102.53 74.3824L101.146 80.8424L101.054 81.0269V81.2115C101.054 81.7652 100.315 81.5807 100.223 81.1192V81.0269C100.223 80.9347 100.223 80.8424 100.223 80.7501C99.7615 76.8741 99.9461 75.2129 100.223 73.7364C100.223 73.5518 100.315 73.3672 100.315 73.1827C100.408 72.9058 100.408 72.6289 100.5 72.3521C100.5 72.2598 100.5 72.1675 100.5 72.0752V71.9829C100.315 69.9527 100.315 68.3838 100.408 67.2764H104.007Z" fill="#FFAE80"/>
<path opacity="0.5" d="M103.268 71.5215C103.268 71.6138 103.268 71.7061 103.176 71.7983C103.083 72.2598 102.991 72.5366 102.899 72.9058C102.899 72.9981 102.806 73.0903 102.806 73.0903L102.622 73.9209L102.53 74.2901C101.791 74.2901 100.961 74.1055 100.13 73.7363C100.13 73.5518 100.222 73.3672 100.222 73.1826C100.315 72.9058 100.315 72.6289 100.407 72.3521C100.407 72.2598 100.407 72.1675 100.407 72.0752V71.9829L103.268 71.5215Z" fill="#FFAE80"/>
<path opacity="0.5" d="M106.406 71.0601C106.406 71.3369 106.406 71.6138 106.313 71.9829C106.313 72.2598 106.313 72.5366 106.221 72.8135C105.667 73.3672 104.837 73.9209 103.914 74.1978C103.822 73.7363 103.729 73.1826 103.729 72.7212C103.729 72.3521 103.637 71.8906 103.637 71.5215L106.406 71.0601Z" fill="#FFAE80"/>
<path d="M106.406 71.7983C106.129 72.6288 101.791 74.3823 100.407 73.0903L100.038 67.0917C99.6688 65.1537 99.9456 64.1386 101.053 63.1234C101.145 63.0311 101.33 62.9388 101.422 62.7543L104.468 62.662L105.667 62.5697C106.59 65.892 106.59 69.4911 106.406 71.7983Z" fill="#2D2856"/>
<path opacity="0.5" d="M105.575 62.5697C105.298 63.308 104.929 63.7694 104.098 64.0463C103.36 64.2308 101.791 64.0463 100.868 63.1234C99.853 64.0463 99.4839 65.0614 99.853 67.0917L100.222 73.0903C100.314 73.1826 100.591 73.3671 100.868 73.4594C100.591 71.3368 100.868 66.538 101.33 64.8768C103.821 64.9691 104.929 64.4154 105.482 63.0311L105.575 62.5697Z" fill="#2D2856"/>
<path d="M112.312 56.7556C112.958 56.8479 112.866 57.8631 112.404 57.9553C112.127 58.0476 109.451 59.1551 107.605 58.4168L105.114 57.1248L104.098 57.3093L104.468 54.2639C105.575 54.8176 106.59 55.5559 108.713 57.0325L112.312 56.7556Z" fill="#D6EEEB"/>
<path d="M106.867 59.6166C106.867 60.2626 106.313 60.8163 105.575 60.724C105.575 60.8163 105.575 60.8163 105.575 60.9086C105.575 61.2777 105.483 61.7392 105.483 62.1083V62.2006C105.483 62.2929 105.483 62.3852 105.483 62.4774C105.483 62.5697 105.483 62.5697 105.483 62.662C105.206 63.4003 104.837 63.954 104.006 64.1386C103.822 64.2309 103.545 64.2309 103.268 64.2309C102.437 64.2309 101.422 63.954 100.776 63.2157C100.961 62.1083 100.592 60.724 100.13 59.5243C99.8533 58.6014 99.4841 57.8632 99.4841 57.4017C100.222 56.4789 101.053 55.7406 101.976 55.0946C102.899 54.4486 103.36 53.618 104.375 54.0794C105.39 54.4486 105.575 56.5712 105.944 57.4017C106.313 58.14 106.867 58.6937 106.867 59.6166Z" fill="#FF4555"/>
<path opacity="0.5" d="M105.483 62.4774C105.483 62.5697 105.483 62.5697 105.483 62.662C105.114 63.7694 104.375 64.3232 103.268 64.2309C102.437 64.2309 101.422 63.954 100.776 63.2157C100.961 62.1083 100.592 60.724 100.13 59.5243L101.053 59.2474L102.068 60.9086C102.899 62.2929 104.929 62.016 105.021 60.6317L105.39 60.724C105.39 60.8163 105.39 60.8163 105.39 60.9086C105.39 61.4623 105.298 61.8314 105.298 62.1083V62.2006C105.483 62.2929 105.483 62.3852 105.483 62.4774Z" fill="#9E2E3B"/>
<path d="M99.4841 57.4018C98.6535 58.8783 98.0998 60.6318 98.0075 62.4775C97.7307 63.8618 98.0075 66.3535 98.6535 67.6455C98.8381 67.4609 99.115 67.3686 99.4841 67.4609C99.5764 65.6152 99.6687 63.8618 99.4841 62.9389L100.868 59.8935C101.791 57.7709 100.315 56.3866 99.4841 57.4018Z" fill="#D6EEEB"/>
<path d="M101.145 68.8452C101.053 68.8452 100.961 68.9375 100.868 68.8452C100.592 68.5683 100.407 68.3838 100.13 68.476C100.038 68.5683 100.038 68.7529 100.13 68.8452C100.222 69.2143 100.407 69.5835 100.684 70.0449C100.684 70.1372 100.684 70.1372 100.684 70.2295C100.592 70.2295 100.499 70.3218 100.499 70.2295C100.499 70.3218 100.315 70.414 100.222 70.3218L100.038 70.1372C100.038 70.3218 99.8533 70.2295 99.761 70.1372L99.4841 69.768C99.2996 69.5835 99.115 69.3066 98.9304 69.0298C98.9304 69.0298 98.9304 68.9375 98.8381 68.9375C98.6536 68.476 98.6536 68.0146 98.6536 67.6455C98.7459 67.2763 99.115 67.184 99.4841 67.4609L100.038 67.7378C100.499 68.0146 100.776 68.2915 101.238 68.7529C101.238 68.7529 101.238 68.7529 101.145 68.8452Z" fill="#FFAE80"/>
<path d="M100.592 70.3218C100.499 70.3218 100.407 70.4141 100.407 70.3218C100.407 70.4141 100.222 70.5064 100.13 70.4141L99.9456 70.2295C99.9456 70.4141 99.761 70.3218 99.6687 70.2295L99.3918 69.8604C99.2073 69.6758 99.0227 69.3989 98.8381 69.1221C99.115 69.2144 99.2996 69.1221 99.5764 69.0298C99.8533 69.4912 100.315 70.2295 100.592 70.3218Z" fill="#FFAE80"/>
<path d="M101.145 68.8452C101.053 68.8452 100.961 68.9375 100.868 68.8452C100.592 68.5683 100.407 68.3837 100.13 68.476C100.038 68.5683 100.038 68.7529 100.13 68.8452L100.038 68.2915C100.499 68.1992 100.868 68.7529 101.145 68.8452Z" fill="#FFAE80"/>
<path opacity="0.1" d="M106.221 60.5394C106.406 60.4471 106.498 60.3549 106.682 60.2626C106.498 60.3549 106.406 60.5394 106.221 60.5394Z" fill="#1D1D1B"/>
<path d="M103.822 55.2792L104.006 56.202L104.837 59.8935L101.976 55.9252L103.822 55.2792Z" fill="#FFAE80"/>
<path d="M103.729 55.0945L104.837 59.8011L104.468 55.1868L103.729 55.0945Z" fill="#D6EEEB"/>
<path d="M102.714 53.8949C102.714 54.6332 102.16 55.1869 101.422 55.1869C100.684 55.1869 100.13 54.6332 100.13 53.8949C100.13 53.1566 100.684 52.6029 101.422 52.6029C102.16 52.6029 102.714 53.1566 102.714 53.8949Z" fill="#1D1D1B"/>
<path d="M102.16 53.7102C101.976 54.1716 102.068 54.6331 101.884 55.1868C101.791 55.7405 102.714 56.2942 103.36 56.2942C103.822 56.2019 103.822 55.9251 103.914 55.3713L102.16 53.7102Z" fill="#FFAE80"/>
<path opacity="0.5" d="M102.437 53.9872C102.437 55.6483 103.083 57.0326 103.822 56.7558C104.098 56.6635 104.098 55.8329 104.098 54.7255L102.437 53.9872Z" fill="#FFAE80"/>
<path d="M102.253 54.5415C102.714 55.1875 103.268 55.649 104.098 55.5567C104.375 55.4644 104.744 55.003 104.652 53.1572C104.652 52.5112 104.283 51.773 104.006 51.4038C103.545 50.8501 102.899 50.6655 102.16 50.8501C101.145 51.0347 100.684 51.8652 100.776 52.7881C101.145 53.9878 101.699 54.4492 102.253 54.5415Z" fill="#FFAE80"/>
<path d="M101.976 54.3563C101.976 54.3563 102.16 54.264 102.437 53.9872C102.622 53.7103 102.622 53.3412 102.714 52.972C103.637 52.8797 104.56 52.2337 104.56 51.9569C104.56 51.5877 104.283 51.1263 103.545 50.8494C102.714 50.5726 101.976 50.7572 101.33 51.4032C100.407 52.4183 101.238 54.264 102.068 54.5409L101.976 54.3563Z" fill="#0B1017"/>
<path d="M104.929 52.7874C104.837 52.6029 104.652 52.8797 104.468 53.0643C104.468 53.0643 104.375 53.1566 104.375 53.2489C104.283 53.2489 104.283 53.3411 104.191 53.4334C104.191 53.4334 104.098 53.4334 104.006 53.4334C103.729 53.618 103.268 53.7103 103.268 53.9871C103.268 54.6331 104.283 54.3563 104.191 53.5257C104.191 53.4334 104.283 53.4334 104.375 53.4334C104.468 53.8949 104.744 53.8026 104.929 53.5257C104.929 53.2489 104.929 53.0643 104.929 52.7874ZM104.098 53.8949C104.006 53.9871 103.914 54.0794 103.822 54.1717C103.729 54.1717 103.545 54.1717 103.452 54.1717C103.36 54.0794 103.36 54.0794 103.36 53.8949C103.36 53.8026 103.545 53.7103 103.729 53.618C103.822 53.618 103.914 53.5257 104.006 53.4334C104.098 53.3411 104.098 53.4334 104.098 53.4334C104.191 53.618 104.098 53.8026 104.098 53.8949ZM104.837 53.3411C104.744 53.4334 104.652 53.5257 104.652 53.618C104.468 53.7103 104.468 53.4334 104.468 53.3411C104.468 53.2489 104.468 53.2489 104.56 53.1566C104.652 53.0643 104.652 53.0643 104.744 52.972C104.837 52.8797 104.837 52.7874 104.929 52.7874C104.929 52.7874 104.929 52.7874 105.021 52.7874C104.929 52.972 104.929 53.1566 104.837 53.3411Z" fill="#1D1D1B"/>
<path d="M103.36 53.8949L101.976 53.9872L101.884 53.8949L103.36 53.8026V53.8949Z" fill="#1D1D1B"/>
<path d="M102.16 54.1716C102.068 54.0793 102.068 53.9871 101.976 53.8948C101.884 53.8025 101.791 53.8025 101.699 53.8025H101.607C101.514 53.8025 101.514 53.8948 101.514 53.9871C101.514 54.0793 101.514 54.0793 101.607 54.1716C101.699 54.2639 101.699 54.4485 101.791 54.4485C101.884 54.5408 101.976 54.6331 102.16 54.6331C102.253 54.6331 102.253 54.6331 102.345 54.6331C102.345 54.6331 102.345 54.5408 102.437 54.5408C102.253 54.3562 102.253 54.2639 102.16 54.1716Z" fill="#FFAE80"/>
<path d="M101.884 55.0945L105.206 60.3548L101.791 57.0325L101.884 56.3865L101.33 56.1096V55.5559L101.884 55.0945Z" fill="#D6EEEB"/>
<path d="M46.9732 88.1329L46.8809 87.0254C46.8809 86.564 46.604 86.4717 46.604 86.7486V86.4717C46.604 86.1026 46.2349 86.0103 46.2349 86.4717L46.1426 87.856C46.0503 87.6714 45.8657 87.4869 45.6812 87.3023C45.4966 87.3023 45.312 87.3023 45.0352 87.3023L44.666 87.6714C44.666 87.7637 44.5737 87.7637 44.666 87.856C44.666 87.856 44.5737 87.9483 44.5737 88.0406L44.3892 88.5943C44.4814 88.9634 44.5737 89.3326 44.8506 89.6094C44.9429 89.794 45.1274 89.9786 45.312 90.1632V90.9014L46.4194 90.9937V90.7169V90.5323L46.7886 90.0709L47.1577 89.0557L47.25 88.8712V88.2252C47.25 87.7637 46.9732 87.7637 46.9732 88.1329ZM45.0352 88.7789L44.8506 88.5943V88.2252C44.8506 88.1329 44.8506 88.1329 44.8506 88.0406C44.8506 88.0406 44.9429 88.0406 44.9429 87.9483L45.1274 87.7637L45.4043 87.856L45.5889 88.1329C45.4966 88.3174 45.312 88.5943 45.0352 88.7789Z" fill="#FFAE80"/>
<path d="M46.8809 92.1934C46.8809 92.378 46.8809 92.5625 46.7886 92.6548C46.6963 93.024 46.3272 93.2085 45.8657 93.3008C44.5737 92.9317 43.4663 92.4702 42.5435 91.8242C42.4512 91.732 42.3589 91.732 42.2666 91.6397C42.2666 91.6397 42.2666 91.6397 42.1743 91.5474L41.1592 88.6865L41.5283 87.6714C42.5435 87.7637 43.1895 88.4097 43.7432 89.3325L45.1275 90.44V90.0708C45.4043 90.3477 45.7735 90.5322 46.2349 90.44C46.604 91.3628 46.8809 91.6397 46.8809 92.1934Z" fill="#FF4555"/>
<path opacity="0.5" d="M46.7886 92.7471C46.6963 93.1162 46.3272 93.3008 45.8657 93.3931C44.5737 93.0239 43.4663 92.5625 42.5435 91.9165V91.5474C44.2969 92.5625 45.6812 93.0239 46.7886 92.7471Z" fill="#9E2E3B"/>
<path opacity="0.5" d="M44.3892 89.7939C44.7583 90.3477 44.9429 90.6245 45.1274 91.3628L45.312 90.4399L44.3892 89.7939Z" fill="#9E2E3B"/>
<path opacity="0.5" d="M45.866 89.794C45.6814 89.2402 45.4968 88.8711 45.0354 88.7788C45.3123 88.5942 45.4968 88.3174 45.6814 88.1328L45.4968 87.856L45.22 87.7637L45.0354 87.9482C45.0354 87.9482 44.9431 87.9482 44.9431 88.0405L45.22 87.6714L45.6814 87.7637L45.866 88.1328C46.1428 88.5942 45.9583 89.148 45.866 89.794Z" fill="#FFAE80"/>
<path opacity="0.5" d="M47.2503 88.502C47.2503 88.502 47.2503 88.7788 47.158 89.0557L46.7888 90.0708L46.4197 90.5322V90.7168C46.2351 90.7168 46.1428 90.7168 46.1428 90.7168L46.0505 90.5322V90.2554C46.2351 90.1631 46.512 89.9785 46.6043 89.794C46.7888 89.6094 46.8811 89.3325 46.9734 89.0557L46.2351 88.1328L47.0657 88.8711C47.0657 88.8711 47.0657 88.7788 47.158 88.7788L47.2503 88.502Z" fill="#FFAE80"/>
<path d="M39.7751 114.526C39.7751 114.526 39.5905 115.449 39.6828 115.818C39.7751 116.188 40.7902 116.464 40.7902 116.464C40.7902 116.464 42.1745 117.849 43.4665 117.756C44.2048 117.664 44.3894 117.48 44.574 117.295C44.6663 117.11 44.574 116.834 44.4817 116.649C44.2971 116.465 42.8205 115.819 42.4514 115.265C42.2668 114.988 41.99 114.342 41.99 114.342L41.8977 113.234L39.9597 113.142L40.052 114.434L39.7751 114.526Z" fill="#0B1017"/>
<path d="M38.0215 100.407L39.3135 106.682C38.8521 109.174 38.9443 111.85 39.5903 114.526C39.9595 115.542 41.3438 115.265 42.1743 114.526C41.8975 112.496 41.8975 110.097 41.8975 107.605L42.1743 105.944C42.1743 105.944 42.3589 105.113 42.3589 101.883C42.3589 100.222 41.4361 96.7153 41.4361 96.7153L38.0215 100.407Z" fill="#201C3D"/>
<path d="M35.4375 116.741C35.2529 117.018 35.2529 117.48 35.2529 118.218C35.4375 118.587 35.7144 118.956 36.0835 119.049C36.0835 119.049 36.6372 120.525 38.2984 120.525C39.8672 120.525 39.8672 119.971 39.8672 119.971C39.8672 119.971 39.8672 119.602 39.4981 119.325C39.3135 119.141 38.1138 118.218 37.9292 117.941C37.7446 117.664 37.5601 117.295 37.5601 117.295L37.4678 116.188H35.3452L35.4375 116.741Z" fill="#0B1017"/>
<path d="M39.1288 101.791C39.1288 104.929 39.2211 106.867 38.3905 108.436C38.3905 108.436 38.2059 109.728 38.0214 110.558C37.7445 111.389 37.8368 115.08 37.9291 117.295C37.4677 118.033 36.4525 118.126 35.8065 117.664C35.5297 117.48 35.3451 117.203 35.2528 116.926C34.6991 113.511 34.3299 110.743 35.7142 108.251C35.2528 106.036 35.3451 103.821 35.4374 101.422C35.2528 99.9453 35.4374 98.8379 35.8988 97.8228C35.9911 97.5459 36.1757 97.3613 36.2679 97.0845L41.8974 98.4688C41.2514 100.407 40.2362 101.514 39.1288 101.791Z" fill="#2D2856"/>
<path opacity="0.5" d="M36.545 108.436C34.7916 110.189 35.3453 113.696 35.7145 117.664C35.4376 117.48 35.253 117.203 35.1608 116.926C34.607 113.511 34.2379 110.743 35.6222 108.251C35.1608 106.036 35.253 103.821 35.3453 101.422C35.1608 99.9454 35.3453 98.838 35.8068 97.8229L37.7448 100.038C35.8068 101.237 35.4376 105.483 36.545 108.436Z" fill="#2D2856"/>
<path d="M41.9898 97.6382C41.9898 98.9302 42.0821 99.2071 42.1744 100.038C41.0669 101.145 37.1909 102.714 35.3452 100.407C35.3452 99.3917 35.4375 98.6534 35.4375 98.6534L35.3452 93.5777L34.7915 90.44C35.4375 89.7017 36.3604 88.9634 37.0064 88.6865C38.4829 87.6714 39.8672 87.3022 41.7129 87.856C41.7129 87.856 42.1744 89.2402 42.4512 90.6245C42.4512 90.8091 42.4512 90.9937 42.4512 91.2705C42.4512 91.3628 42.4512 91.5474 42.4512 91.6397C42.3589 93.7622 41.9898 96.9922 41.9898 97.6382Z" fill="#FF4555"/>
<path d="M40.3286 89.2402C40.3286 89.3325 40.3286 89.5171 40.2363 89.5171C40.144 89.5171 40.0518 89.4248 40.0518 89.3325C40.0518 89.2402 40.0518 89.0557 40.144 89.0557C40.144 89.0557 40.2363 89.1479 40.3286 89.2402Z" fill="#575756"/>
<path opacity="0.5" d="M36.7295 92.6549L35.2529 93.5778L35.3452 98.6535C35.3452 98.6535 35.3452 99.2995 35.2529 100.407C37.0986 102.714 41.0669 101.145 42.0821 100.038C40.4209 101.053 38.7598 96.9923 37.2832 95.9772L36.7295 92.6549Z" fill="#9E2E3B"/>
<path d="M37.2832 88.5943L38.1137 86.8408L40.4209 88.0405L39.9594 89.3325C39.5903 90.9014 37.0063 89.9785 37.2832 88.5943Z" fill="#FFAE80"/>
<path d="M37.6523 87.856C37.6523 88.7788 38.2983 89.794 39.498 89.7017C39.9594 89.3325 40.0517 88.7788 40.0517 88.1328L40.4209 89.0557V90.0708H39.7749L39.1289 90.8091L37.9291 89.794C37.56 89.4248 37.1909 88.8711 37.2831 88.4097C37.3754 88.2251 37.4677 88.0405 37.6523 87.856Z" fill="#D43947"/>
<path opacity="0.5" d="M40.5133 88.3175C40.5133 89.2404 40.5133 90.5324 39.4059 90.6247C38.6676 90.6247 37.837 88.5021 38.1139 87.8561V87.1178L40.5133 88.3175Z" fill="#FFAE80"/>
<path d="M39.2214 83.7031C38.114 83.7031 37.468 84.2568 37.3757 85.4566C37.3757 86.7486 37.8372 87.7637 38.8523 88.502C39.3137 88.8711 39.8674 89.0557 40.4212 88.9634C41.1594 88.9634 41.2517 87.3023 41.344 86.0103C41.344 84.8106 40.5134 84.0723 39.2214 83.7031Z" fill="#FFAE80"/>
<path d="M41.4359 85.6411C41.1591 86.2871 40.0517 86.7485 38.9442 86.4716L38.8519 87.4868L38.3905 87.2099L37.8368 87.6714L37.6522 87.3945C36.8217 85.6411 37.0062 84.3491 38.3905 83.7031C40.0517 83.0571 41.7128 84.7182 41.4359 85.6411Z" fill="#0B1017"/>
<path d="M38.1136 87.5791C38.0214 87.4868 37.9291 87.3945 37.8368 87.21C37.7445 87.1177 37.7445 86.9331 37.8368 86.7485C37.9291 86.6562 38.1136 86.564 38.2059 86.564C38.2982 86.564 38.3905 86.6562 38.3905 86.7485C38.3905 86.8408 38.3905 86.9331 38.4828 87.0254C38.4828 87.1177 38.4828 87.21 38.4828 87.3022C38.4828 87.3945 38.4828 87.3945 38.4828 87.4868C38.4828 87.4868 38.3905 87.5791 38.2982 87.4868C38.2059 87.6714 38.1136 87.6714 38.1136 87.5791Z" fill="#FFAE80"/>
<path d="M41.9898 100.591C42.0821 100.684 41.9898 100.868 41.8975 100.868H41.8052C41.8975 100.961 41.8052 101.145 41.7129 101.145V101.237C41.7129 101.33 41.6206 101.33 41.6206 101.422C41.5283 101.514 41.3438 101.699 41.1592 101.699C40.6055 101.514 40.1441 101.053 39.6826 100.684L39.498 100.591L39.0366 100.315L39.1289 100.038L39.4058 99.2994L39.9595 99.484C40.0518 99.2994 40.3286 99.0226 40.6055 98.7457C40.7901 98.4689 40.79 98.192 40.8823 98.0997C41.1592 98.0997 41.2515 98.3766 41.1592 98.7457C41.0669 98.9303 40.9746 99.0226 40.9746 99.2072C40.9746 99.3917 41.0669 99.484 41.0669 99.6686C41.0669 99.7609 41.1592 99.7609 41.1592 99.8532C41.2515 99.8532 41.3438 99.8532 41.436 99.8532C41.5283 99.8532 41.6206 99.8532 41.7129 99.8532C41.8975 99.9454 41.9898 100.13 42.082 100.315C42.082 100.499 42.0821 100.591 41.9898 100.591Z" fill="#FFAE80"/>
<path d="M39.4058 100.315C39.4058 100.499 39.4058 100.684 39.5904 100.776C39.4981 100.776 39.4981 100.684 39.4058 100.684C37.5601 99.6686 35.8989 98.6534 34.8838 97.3614C34.7915 97.2691 34.7915 97.1768 34.6992 97.0846C34.3301 95.4234 34.1455 93.7623 34.0532 91.732C34.4224 89.4248 36.5449 90.1631 36.6372 92.7471C36.7295 94.1314 36.8218 95.3311 36.6372 96.3463C37.9292 97.6383 39.0367 99.2071 39.8672 99.5763C39.6827 99.5763 39.4058 99.9454 39.4058 100.315Z" fill="#FF4555"/>
<path opacity="0.5" d="M41.7129 101.33C41.7129 101.422 41.6206 101.422 41.6206 101.514C41.5284 101.607 41.3438 101.791 41.1592 101.791C40.6055 101.607 40.1441 101.145 39.6826 100.776L39.4981 100.684C37.6524 99.6686 35.9912 98.6535 34.9761 97.3615C36.5449 98.5612 38.2061 99.7609 39.1289 100.13L39.4058 100.315C39.9595 100.684 40.5132 100.961 40.9746 101.053C41.0669 101.145 41.1592 101.237 41.3438 101.237L41.0669 101.422C41.0669 101.607 41.1592 101.607 41.3438 101.607C41.4361 101.514 41.5284 101.514 41.7129 101.33Z" fill="#FFAE80"/>
<path opacity="0.5" d="M41.6209 99.9454L41.5286 100.222H41.4363C41.2517 100.13 41.1594 99.9454 41.0671 99.7609C41.0671 99.8531 41.1594 99.8532 41.1594 99.9454C41.2517 99.9454 41.344 99.9454 41.4363 99.9454H41.6209Z" fill="#FFAE80"/>
<path opacity="0.5" d="M41.2517 100.868C41.4363 100.684 41.6209 100.591 41.99 100.591C41.99 100.591 41.99 100.684 41.99 100.776C41.8054 100.684 41.5286 100.776 41.2517 100.868Z" fill="#FFAE80"/>
<path d="M131.415 143.689C131.415 143.689 129.292 142.305 129.2 141.935C129.108 141.566 129.661 141.197 130.03 141.289C130.4 141.289 131.876 141.474 131.876 141.474L132.338 142.028C132.43 142.028 133.26 144.058 131.415 143.689Z" fill="#103450"/>
<path d="M136.121 141.936C136.121 141.936 133.999 140.551 133.906 140.182C133.814 139.813 134.368 139.444 134.737 139.536C135.106 139.628 136.583 139.721 136.583 139.721L137.044 140.274C137.044 140.274 137.967 142.305 136.121 141.936Z" fill="#103450"/>
<path d="M130.677 124.309L130.584 141.843C130.584 141.843 131.599 142.397 132.707 141.843C132.707 141.843 134.737 126.616 134.737 126.339C134.737 125.97 135.014 140.182 135.014 140.182C135.014 140.182 136.214 140.92 137.229 139.905L138.336 123.109L130.677 124.309Z" fill="#103450"/>
<path d="M132.43 111.204C132.43 111.204 131.507 111.389 130.4 112.312L130.677 124.309C130.677 124.309 132.153 125.416 135.291 124.586C137.783 123.94 138.429 122.832 138.429 122.832C138.429 122.832 138.613 117.111 138.429 114.619C138.152 112.219 137.229 110.558 137.229 110.558C136.675 110.374 135.475 110.466 135.475 110.466L132.43 111.204Z" fill="url(#paint0_linear)"/>
<path d="M135.291 110.466L135.383 108.159C135.383 108.159 135.937 108.159 135.845 107.513C135.752 106.867 135.106 107.328 135.014 107.513C135.014 107.513 134.922 105.298 133.722 105.113C132.522 104.929 132.061 105.113 132.061 105.667C132.061 106.221 131.969 108.251 132.061 108.989C132.153 109.728 132.061 110.097 133.168 110.097L133.261 110.835C133.261 110.835 133.722 111.297 135.291 110.927V110.466Z" fill="#FFC6A0"/>
<path d="M132.43 111.204C132.43 110.743 132.522 110.466 133.537 110.374C134.645 110.281 135.475 110.005 135.567 110.374C135.66 110.743 135.475 111.02 134.368 111.112C133.445 111.204 132.43 111.204 132.43 111.204Z" fill="white"/>
<path d="M133.814 107.513C133.906 107.328 133.814 107.051 133.629 107.051C133.445 107.051 133.353 107.051 133.26 107.236C133.076 107.421 132.983 107.79 132.891 108.067C132.799 107.974 132.707 107.882 132.522 107.79C132.522 107.697 132.522 107.605 132.522 107.605C132.522 107.421 132.522 107.236 132.522 107.051C132.43 106.775 132.153 106.682 131.968 106.405C131.691 106.221 131.507 105.944 131.415 105.575C131.23 105.021 131.322 104.467 131.876 104.191C132.153 104.098 132.522 104.006 132.799 104.098C133.629 104.191 134.829 104.191 135.291 105.113C135.66 105.021 135.937 105.206 136.121 105.575C136.306 105.944 136.213 106.313 136.121 106.682C135.844 107.697 135.567 108.62 135.291 109.543C135.291 109.635 134.921 109.728 134.829 109.728C134.737 109.728 134.552 109.635 134.46 109.543C133.999 109.082 133.629 108.62 133.353 108.067C133.445 107.974 133.814 107.513 133.814 107.513Z" fill="#62280C"/>
<path d="M130.492 124.863C130.492 125.047 130.584 125.14 130.769 125.14C130.953 125.14 131.046 124.955 131.138 124.77C131.23 124.678 131.23 124.586 131.323 124.494C131.323 124.401 131.415 124.309 131.415 124.217C131.415 124.124 131.323 124.032 131.323 123.94C131.323 123.755 131.507 123.663 131.507 123.478C131.599 123.294 131.415 123.109 131.323 122.925C131.23 122.832 131.138 122.74 131.046 122.648C130.584 122.371 130.215 122.832 130.307 123.294C130.307 123.478 130.492 123.663 130.492 123.848C130.492 124.309 130.4 124.586 130.492 124.863Z" fill="#FFC6A0"/>
<path d="M130.4 112.312C129.292 112.773 126.708 120.433 126.893 121.171C127.077 121.909 129.661 123.847 130.03 123.94C130.307 123.94 131.23 122.832 130.953 122.094C130.861 121.909 129.661 120.433 129.661 120.433C129.661 120.156 131.322 117.572 131.415 116.003C131.692 114.065 130.4 112.312 130.4 112.312Z" fill="url(#paint1_linear)"/>
<path d="M137.229 110.558C137.967 110.835 139.997 116.188 140.09 118.033C140.182 119.879 137.598 120.987 137.598 120.987L137.229 110.558Z" fill="url(#paint2_linear)"/>
<path opacity="0.1" d="M81.4883 154.025C85.8716 154.025 89.4249 152.331 89.4249 150.241C89.4249 148.152 85.8716 146.458 81.4883 146.458C77.1051 146.458 73.5518 148.152 73.5518 150.241C73.5518 152.331 77.1051 154.025 81.4883 154.025Z" fill="#0D0506"/>
<path d="M83.7031 136.583L82.8726 143.966C82.8726 143.966 81.5806 148.857 81.6729 149.687C81.6729 149.872 83.4263 150.795 83.4263 150.887C82.042 152.548 80.6577 150.057 80.6577 150.057V149.411C80.6577 149.411 80.3809 146.088 80.3809 145.535C80.3809 144.981 80.6577 144.058 80.75 143.597C80.75 143.043 80.6577 137.69 80.6577 137.69L83.7031 136.583Z" fill="#E4C79A"/>
<path d="M81.1191 151.81C81.1191 151.81 80.75 150.703 80.75 150.518C80.6577 150.426 80.2885 149.687 80.6577 149.411C81.1191 148.949 81.7651 150.333 82.5034 150.703C83.2417 151.072 83.2417 150.703 83.2417 150.703C83.2417 150.703 84.1645 151.441 84.2568 151.625C84.3491 151.81 83.5185 152.087 82.8725 151.995C82.3188 151.995 81.8574 151.718 81.8574 151.718L81.3959 150.703C81.3037 150.61 81.1191 151.902 81.1191 151.81Z" fill="#5C504D"/>
<path d="M83.6109 122.925C83.6109 122.925 82.8727 124.493 82.3189 124.309C81.7652 124.124 81.4884 123.201 81.4884 122.925C81.4884 122.648 81.4884 121.909 81.4884 121.909C81.4884 121.909 80.5655 122.002 80.2887 121.633C80.0118 121.263 79.9195 118.956 80.1041 118.31C80.2887 117.664 81.5807 117.48 81.5807 117.48L83.5187 118.033L83.6109 122.925Z" fill="#FBDFB4"/>
<path d="M86.0105 136.306C86.0105 136.306 87.3948 142.397 87.0257 143.135C86.6565 143.873 85.5491 145.073 84.534 146.919C83.5188 148.672 82.6882 149.411 82.8728 150.057C83.0574 150.703 83.4265 151.995 83.4265 151.995L81.5808 150.518L81.4885 148.58C81.4885 148.58 82.2268 147.934 82.5037 147.103C82.7805 146.365 83.1497 144.335 83.7034 143.689C84.2571 143.043 84.7185 142.489 84.7185 142.489L82.2268 136.675L86.0105 136.306Z" fill="#FBDFB4"/>
<path d="M80.2888 150.979C80.2888 150.979 80.7502 149.872 80.7502 149.687C80.7502 149.595 80.9348 148.765 81.304 148.672C82.0422 148.58 81.7654 150.057 82.2268 150.703C82.6882 151.349 83.242 151.533 83.242 151.533C83.242 151.533 83.6111 152.548 83.5188 152.733C83.5188 152.917 82.596 152.825 82.0422 152.456C81.5808 152.179 80.9348 151.164 80.9348 151.164L81.1194 150.057C81.2117 150.149 80.2888 151.072 80.2888 150.979Z" fill="#A6A09E"/>
<path d="M80.7502 123.017C80.7502 123.017 80.4734 122.74 80.1042 123.017C79.8274 123.202 77.428 126.616 76.5974 127.816C76.4128 128.093 76.4128 128.462 76.6897 128.646L80.2888 132.522L82.0422 132.892V131.138L80.2888 130.954L78.72 128.462C78.5354 128.185 78.5354 127.816 78.72 127.539L80.5657 125.232C80.5657 125.416 82.2268 123.571 80.7502 123.017Z" fill="#E4C79A"/>
<path d="M84.903 123.294C84.903 123.294 85.8259 125.324 85.9182 126.247C86.0104 127.17 84.3493 129.292 84.6262 129.846C84.903 130.307 87.487 142.397 87.487 142.397C87.487 142.397 86.5642 143.043 85.2722 143.32C82.8727 143.873 79.2736 144.15 79.1813 143.043C79.089 142.028 78.7199 134.737 79.3659 133.168C80.1042 131.323 80.5656 130.769 80.4733 130.123C80.1042 127.262 79.1813 123.663 80.1042 123.201C80.9347 122.648 84.4416 123.017 84.903 123.294Z" fill="#634095"/>
<path d="M86.7485 130.4C86.1025 129.385 85.6411 128.185 85.6411 126.985C85.5488 125.324 85.3643 123.294 84.7183 123.109C83.7954 122.74 83.2417 123.386 83.334 124.124C83.4263 124.77 84.2568 129.108 84.3491 129.754C84.3491 129.846 84.3491 129.846 84.4414 129.846L87.7637 133.999C87.7637 133.999 88.4097 134.645 88.2251 135.383C88.1328 135.66 88.2251 136.491 88.2251 136.768C88.3174 137.044 88.6865 136.583 88.8711 136.306L89.4248 135.106C89.4248 135.014 89.4248 134.922 89.4248 134.83C89.3325 134.553 88.9634 133.907 88.5943 133.538C88.0405 133.261 87.5791 131.692 86.7485 130.4Z" fill="#FBDFB4"/>
<path d="M84.8107 116.926C84.8107 116.926 85.7335 118.772 85.4567 121.633C85.1798 124.493 81.027 123.201 81.027 123.201L80.5655 120.433C80.5655 120.433 80.9347 119.879 80.6578 119.418C80.4732 118.956 80.1041 119.51 80.1041 119.51C80.1041 119.51 79.4581 117.572 80.381 116.926C82.1344 115.726 83.8878 115.911 84.8107 116.926Z" fill="#2B1C10"/>
<g opacity="0.8">
<g opacity="0.8">
<path opacity="0.8" d="M135.199 3.50684C122.186 11.3511 114.619 20.672 112.958 31.2848L110.651 31.1926C112.404 20.3028 120.156 10.7051 133.537 2.58398L135.199 3.50684Z" fill="#E1F5FB"/>
</g>
<g opacity="0.8">
<g opacity="0.8">
<path opacity="0.8" d="M135.199 3.50696L135.014 66.169C134.922 66.169 134.922 66.2612 134.83 66.2612L135.014 3.59924C135.014 3.59924 135.106 3.50696 135.199 3.50696Z" fill="#C4EBF7"/>
<path opacity="0.8" d="M135.014 3.59912L134.829 66.2611C130.769 68.7528 127.262 71.3368 124.217 74.1054L124.401 11.4434C127.354 8.67484 130.861 6.09084 135.014 3.59912Z" fill="#C0E9F7"/>
<path opacity="0.8" d="M124.401 11.4435L124.217 74.1055C122.371 75.7666 120.802 77.5201 119.325 79.3658L119.51 16.7038C120.987 14.8581 122.555 13.1046 124.401 11.4435Z" fill="#BBE8F6"/>
<path opacity="0.8" d="M119.51 16.6115L119.325 79.3657C118.126 80.8423 117.111 82.4112 116.28 83.98L116.465 21.318C117.387 19.6569 118.403 18.1803 119.51 16.6115Z" fill="#B7E6F6"/>
<path opacity="0.8" d="M116.465 21.2257L116.28 83.8877C115.449 85.3643 114.803 86.8409 114.25 88.3174L114.434 25.6554C114.988 24.1789 115.634 22.7023 116.465 21.2257Z" fill="#B3E5F5"/>
<path opacity="0.8" d="M114.434 25.6555L114.25 88.3175C113.696 89.7941 113.235 91.363 112.958 92.8395L113.142 30.1775C113.419 28.7009 113.881 27.1321 114.434 25.6555Z" fill="#ADE3F5"/>
<path opacity="0.8" d="M113.05 30.1775L112.865 92.8395C112.773 93.2086 112.773 93.5778 112.681 93.9469L112.865 31.2849C112.958 30.9158 113.05 30.5466 113.05 30.1775Z" fill="#A9E2F4"/>
</g>
</g>
<g opacity="0.8">
<path opacity="0.8" d="M112.865 31.2849L112.681 93.9469L110.466 93.8546L110.558 31.1926L112.865 31.2849Z" fill="#BBE8F6"/>
</g>
</g>
<path d="M134.368 74.4745L133.26 74.3822L133.353 74.0131L134.091 73.5516L134.368 74.4745Z" fill="#FFBAA8"/>
<path d="M132.522 76.228L134.829 72.4443L137.229 73.6441L134.921 77.4278L132.522 76.228Z" fill="#291933"/>
<path d="M135.014 76.9662L132.891 75.8588L134.829 72.6288L137.044 73.6439L135.014 76.9662Z" fill="white"/>
<path d="M134.921 73.4595L134.46 73.3672C134.275 73.7363 134.091 73.8286 133.814 73.9209L133.629 74.0132C133.537 73.8286 133.445 73.7363 133.445 73.6441C133.445 73.3672 133.629 73.0903 133.814 72.998L134.46 72.9058L135.291 73.1826C135.198 73.3672 135.198 73.4595 134.921 73.4595Z" fill="#FFBAA8"/>
<path d="M135.198 76.7816C135.106 76.7816 135.106 76.7816 135.198 76.7816C135.106 76.7816 135.014 76.6893 135.014 76.5971L135.752 73.2748C135.752 73.1825 135.844 73.1825 135.937 73.1825C136.029 73.1825 136.029 73.2748 136.029 73.3671L135.291 76.6893C135.291 76.7816 135.198 76.7816 135.198 76.7816Z" fill="#291933"/>
<path d="M136.675 75.2128C136.675 75.3051 136.583 75.3973 136.583 75.4896C136.583 75.4896 136.583 75.5819 136.583 75.6742V75.7665C136.583 75.9511 136.121 76.3202 135.937 76.4125L135.291 76.6893L134.552 77.3353L134.368 77.0585L133.999 76.5048L134.552 75.8588C134.552 75.4896 134.46 75.2128 134.645 74.9359L134.922 74.5668L135.475 74.2899L135.383 74.5668C135.383 74.5668 135.568 74.3822 135.844 74.2899C135.937 74.1976 136.121 74.1976 136.214 74.2899C136.214 74.2899 136.214 74.4745 136.306 74.4745C136.306 74.5668 136.49 74.5668 136.49 74.6591C136.49 74.7513 136.49 74.8436 136.49 74.9359C136.49 75.0282 136.675 75.0282 136.675 75.2128Z" fill="#FFBAA8"/>
<path d="M135.475 74.3823L134.922 74.8438L135.475 74.5669V74.3823Z" fill="#FFBAA8"/>
<path d="M136.583 75.6742V75.7665C136.583 75.9511 136.121 76.3202 135.937 76.4125L135.291 76.6893L134.552 77.3353L134.368 77.0585C134.645 76.8739 135.014 76.5048 135.106 76.2279C135.752 76.3202 136.398 76.1356 136.583 75.6742Z" fill="#FFBAA8"/>
<path d="M132.338 77.3354C131.046 78.0737 126.247 78.5351 125.878 77.0585C124.678 73.0902 125.785 70.8754 126.708 70.4139C126.708 70.4139 132.799 77.4277 132.338 77.3354Z" fill="#EB347A"/>
<path d="M134.091 97.1768C134.091 96.623 133.722 96.4385 133.076 96.3462C132.522 96.3462 131.784 96.623 130.861 96.8076L129.754 97.3613C129.569 97.915 129.569 98.3765 129.661 98.8379C129.938 99.1148 130.307 99.2993 130.677 99.207L131.876 98.6533L131.969 98.4688C132.984 98.4688 134.091 98.0073 134.091 97.1768Z" fill="#291933"/>
<path d="M130.123 95.0542C130.123 94.5928 129.754 94.5005 129.108 94.5005C128.093 94.5005 128 95.0542 127.077 94.9619L126.155 95.5156C125.97 96.0693 125.97 96.7153 126.155 97.0845C126.431 97.3613 126.893 97.3613 127.17 97.3613L128.185 96.8076L128.277 96.6231C129.2 96.5308 130.123 95.8848 130.123 95.0542Z" fill="#291933"/>
<path d="M126.708 80.1039L130.215 81.5805C130.215 82.2265 130.215 82.7802 130.123 83.2416C129.938 84.9027 129.292 87.3022 129.292 87.3022C128.831 89.4247 128.646 92.0087 128.554 94.685C128.554 95.7002 127.077 96.5307 126.154 95.6079C125.877 92.2856 125.877 89.0556 126.708 86.933C126.339 85.2719 126.708 83.3339 126.8 81.3959C126.708 81.119 126.8 80.1962 126.708 80.1039Z" fill="#201C3D"/>
<path d="M133.168 85.1796C133.076 86.8408 132.522 89.2402 132.522 89.2402L132.153 96.623C132.245 97.0845 132.061 97.5459 131.692 97.7305C131.138 98.0996 130.4 98.0996 129.754 97.4536C129.292 94.1313 129.108 90.9936 129.754 88.871C129.292 87.2099 129.292 85.641 129.292 83.703C128.185 83.2416 126.524 82.5956 126.616 80.9345C126.616 80.2885 126.708 79.6425 126.893 78.9965C126.893 78.9042 126.985 78.7196 126.985 78.6273C126.985 78.535 127.077 78.4427 127.077 78.3505C127.631 79.5502 129.569 80.2885 131.692 80.0116C131.784 80.0116 131.876 80.0116 131.969 80.0116C132.153 80.0116 132.43 79.9193 132.615 79.827C132.615 79.827 132.615 79.9193 132.707 80.1962C132.707 80.3807 132.799 80.5653 132.799 80.8422C132.984 82.0419 133.168 84.0722 133.168 85.1796Z" fill="#2D2856"/>
<path d="M133.168 85.1796C133.076 86.8407 132.522 89.2402 132.522 89.2402L132.153 96.623C132.245 97.0845 132.061 97.5459 131.691 97.7305C131.968 94.5927 132.153 91.7319 131.691 89.4247C132.43 86.8407 132.43 83.9799 131.599 81.9496C131.599 81.119 131.968 80.7499 131.784 80.1039C132.061 80.0116 132.337 79.9193 132.707 79.7347C132.707 79.827 133.26 83.5185 133.168 85.1796Z" fill="#A263C7"/>
<path d="M126.801 78.4428C126.893 78.812 126.893 79.1811 126.801 79.5503C126.708 79.9194 126.616 80.1963 126.708 80.5654C127.447 81.5806 129.2 82.4111 131.046 82.1343C131.138 82.1343 131.415 82.042 131.692 81.9497C131.876 81.8574 132.153 81.8574 132.338 81.7651H132.43C132.522 81.7651 132.615 81.7651 132.615 81.6728C132.707 81.6728 132.799 81.5806 132.891 81.5806H132.984C132.984 81.5806 132.984 81.5806 133.076 81.5806L132.984 80.0117C133.076 78.7197 133.076 78.166 133.168 76.5048C133.168 76.4126 133.168 76.4126 133.168 76.3203C133.168 76.1357 133.168 75.9511 133.168 75.7666C133.722 73.4594 133.353 73.2748 132.707 72.9057C130.769 71.706 129.2 70.1371 126.708 70.414C124.77 72.2597 126.708 78.2583 126.801 78.4428Z" fill="#FFB645"/>
<path d="M131.692 69.6757C131.784 69.5834 131.599 69.2143 131.507 69.2143C131.322 69.122 131.23 69.3988 131.23 69.5834C131.23 69.768 131.23 69.9525 131.323 70.1371C131.415 70.3217 131.692 70.1371 131.692 69.9525C131.692 69.768 131.599 69.768 131.692 69.6757Z" fill="#FFBAA8"/>
<path d="M128.738 70.5985L129.569 69.1219L131.876 70.2294L130.953 71.8905C130.215 71.8905 128.461 71.1522 128.738 70.5985Z" fill="#FFBAA8"/>
<path d="M131.23 70.9677C131.23 70.9677 131.507 71.5214 131.969 71.06C132.43 70.5986 133.261 69.122 132.984 68.0146C132.707 66.8148 130.769 68.476 130.769 68.476L131.23 70.9677Z" fill="#FFBAA8"/>
<path d="M129.108 69.9525C129.108 69.9525 130.03 70.2294 130.769 70.6908C130.953 70.7831 131.138 70.7831 131.322 70.6908L131.599 70.5063L131.784 69.8603L132.245 69.6757V69.2143C132.522 69.122 132.707 68.9374 132.984 68.7528C133.63 67.6454 132.338 66.4457 130.861 66.538C129.108 66.538 128.646 68.5683 129.108 69.9525Z" fill="#0B1017"/>
<path d="M132.245 69.8602C132.245 69.768 132.245 69.6757 132.245 69.6757C132.245 69.5834 132.245 69.5834 132.153 69.4911C132.061 69.3988 131.876 69.4911 131.784 69.5834C131.692 69.6757 131.692 69.8602 131.692 69.9525C131.692 70.0448 131.692 70.1371 131.692 70.2294C131.692 70.3217 131.692 70.414 131.692 70.5062C131.692 70.5985 131.784 70.6908 131.876 70.6908C131.969 70.6908 131.969 70.6908 132.061 70.5985C132.061 70.5062 132.153 70.5063 132.153 70.414C132.153 70.1371 132.153 69.9525 132.245 69.8602Z" fill="#FFBAA8"/>
<path opacity="0.5" d="M131.599 82.042C131.599 81.9497 131.599 81.9497 131.599 82.042C131.876 81.9497 132.061 81.9497 132.245 81.8575H132.338C132.43 81.8575 132.522 81.8575 132.522 81.7652C132.614 81.7652 132.707 81.6729 132.799 81.6729H132.891C132.891 81.6729 132.891 81.6729 132.984 81.6729L132.891 80.104C132.984 78.812 132.984 78.2583 133.076 76.5972L131.415 75.2129C130.861 77.52 130.861 79.2735 131.599 82.042Z" fill="#A263C7"/>
<path d="M133.168 73.2748C133.999 73.8285 134.091 74.3822 134.091 75.6742L133.999 76.4125L134.645 75.8588C135.291 75.8588 135.567 76.1357 135.475 76.874C135.291 78.166 134.645 79.5502 133.629 79.9194C133.076 80.104 132.43 79.8271 132.153 78.7197L131.415 75.8588C131.322 74.0131 131.691 72.998 133.168 73.2748Z" fill="#EB347A"/>
<path d="M128.738 70.5985L129.015 70.2294C129.2 70.5985 129.938 71.0599 131.322 71.4291V71.8905C130.03 72.1674 128.462 71.1522 128.738 70.5985Z" fill="#EB347A"/>
<path d="M141.659 55.2792C141.105 56.2943 141.197 58.4169 141.289 60.6317C141.289 61.9237 141.843 63.2157 142.581 64.8769L143.135 67.3686C143.412 66.538 143.597 65.7997 143.504 64.9692C143.227 63.2157 143.043 62.016 142.858 60.4472L143.32 57.4017C143.781 56.0174 142.674 54.264 141.659 55.2792Z" fill="#FFAE80"/>
<path d="M139.628 52.6028C138.428 52.7874 138.244 54.1717 137.782 55.0022C136.121 53.8025 137.321 51.2185 139.628 52.6028Z" fill="#0B1017"/>
<path d="M139.259 79.2733C139.536 79.827 139.813 80.2885 140.274 80.6576C140.828 81.119 141.382 81.3959 141.843 81.3036C142.304 81.119 142.212 80.7499 142.12 80.2885C141.843 79.7347 141.289 79.2733 140.736 78.9042L140.09 78.3505C139.997 78.3505 139.259 79.2733 139.259 79.2733Z" fill="#FF4555"/>
<path d="M142.397 73.4594C141.935 74.8436 141.105 76.5971 140.182 78.5351C140.182 78.5351 141.382 79.5502 140.92 79.9194C140.182 80.4731 139.259 78.7196 139.259 78.7196L140.643 73.9208L142.397 73.4594Z" fill="#FC9F6A"/>
<path d="M138.336 80.1962C138.059 80.2885 137.875 80.9345 137.967 81.4882C138.244 82.3187 137.967 82.8725 138.059 83.7953C138.151 84.349 138.336 84.7182 138.797 84.995C139.536 85.4564 140.089 85.4565 140.182 84.9027C140.274 84.4413 140.182 84.0722 139.997 83.4262L139.628 81.6727L138.336 80.1962Z" fill="#FF4555"/>
<path d="M139.444 83.6108C138.428 83.7031 138.244 82.5034 138.244 81.4882C138.244 81.1191 138.244 80.8422 138.244 80.5654C139.074 78.3505 137.506 76.4125 138.613 74.4745L138.428 73.6439L138.059 71.5214L140.643 71.1522L141.105 73.4594L141.289 74.8437C141.012 76.6894 139.813 78.8119 139.536 80.7499C139.444 81.7651 139.997 83.5185 139.444 83.6108Z" fill="#FFAE80"/>
<path d="M139.628 74.7514C138.428 75.6742 139.536 79.6425 138.244 81.3959C138.244 81.0268 138.244 80.7499 138.244 80.4731C139.074 78.2582 137.505 76.3202 138.613 74.3822L138.428 73.5516C138.982 74.1054 139.628 74.7514 139.628 74.7514Z" fill="#FFAE80"/>
<path d="M143.135 67.6454C143.227 70.414 142.489 70.7831 142.489 72.6288C142.489 72.8134 142.489 72.9057 142.489 73.0903C142.304 73.7363 141.935 74.4745 141.381 74.6591C141.289 74.6591 141.289 74.6591 141.197 74.7514C140.643 74.8437 140.089 74.8437 139.628 74.7514C139.074 74.6591 138.705 74.3823 138.428 73.8285C138.428 71.7983 136.859 70.414 136.675 67.7377C136.583 66.6303 136.859 65.5228 137.598 64.6923H138.521L142.95 64.6L143.135 67.6454Z" fill="#60C1D2"/>
<path d="M139.628 74.7514C139.628 74.7514 139.536 74.7514 139.628 74.7514C139.074 74.6591 138.613 74.3823 138.428 73.8285C138.428 71.7983 136.859 70.414 136.675 67.7377C136.583 66.6303 136.859 65.5228 137.598 64.6923H138.521L141.012 65.9843C139.628 66.3534 138.428 66.8148 137.967 68.1991C137.875 70.8754 138.797 73.4594 139.628 74.7514Z" fill="#60C1D2"/>
<path d="M142.581 61.5546C142.397 62.5697 142.489 63.5849 142.858 64.5077C142.766 65.1537 142.397 65.7075 141.566 65.7998C139.721 66.1689 138.152 65.7997 137.321 64.7846C137.967 64.0463 137.967 63.0312 137.506 62.016C137.137 61.4623 136.952 60.9086 136.767 60.2626C136.583 59.5243 136.491 58.6937 136.583 57.8632C137.506 56.9403 138.429 56.1097 139.444 55.8329L141.751 54.91C142.489 55.0023 143.043 56.2943 142.858 57.2172C142.951 58.6937 143.689 59.2475 143.689 60.1703C143.873 61.0009 143.412 61.5546 142.581 61.5546Z" fill="#FF4555"/>
<path opacity="0.5" d="M142.858 64.5999C142.766 65.2459 142.397 65.7996 141.566 65.8919C139.72 66.261 138.152 65.8919 137.321 64.8767C137.967 64.1385 137.967 63.1233 137.506 62.1082C137.136 61.5545 136.952 61.0007 136.767 60.3547H137.875C138.521 61.8313 138.89 63.2156 140.274 62.9387C141.289 62.7542 141.566 61.9236 141.289 60.9084C141.566 61.2776 142.12 61.5544 142.489 61.5544C142.397 62.6619 142.489 63.5847 142.858 64.5999Z" fill="#9E2E3B"/>
<path d="M138.521 56.3865C138.798 55.8328 138.982 55.3713 138.982 54.7253L140.828 54.8176V56.1096C141.566 58.1399 138.705 57.5862 138.521 56.3865Z" fill="#FFAE80"/>
<path opacity="0.5" d="M140.459 55.2791C140.274 56.2019 139.721 57.5862 138.982 57.2171C138.521 56.9402 138.521 56.3865 138.705 55.6482L140.459 55.2791Z" fill="#FFAE80"/>
<path d="M141.197 55.0945C142.212 53.3411 141.658 51.7722 140.274 51.4953C138.705 51.1262 137.69 52.2336 137.69 53.6179C137.69 55.0945 138.059 56.1096 138.613 56.2019C139.536 56.3865 140.182 55.9251 140.459 55.3713L141.197 55.0945Z" fill="#FFAE80"/>
<path d="M141.289 55.6482L140.92 56.2019C140.92 56.1096 140.828 55.2791 140.828 55.0022L140.643 54.6331L140.274 54.8176C139.444 54.9099 139.259 53.4334 137.69 53.6179C137.506 52.2336 138.613 51.4031 139.905 51.4031C141.474 51.4954 141.935 52.4182 141.935 53.5256C141.843 54.1716 141.566 55.0945 141.289 55.6482Z" fill="#0B1017"/>
<path d="M142.489 73.0902C142.305 73.7362 141.935 74.4745 141.382 74.6591C141.474 74.4745 141.474 74.2899 141.474 74.1054C141.659 72.8134 141.105 71.6137 141.289 70.7831C141.382 71.2445 141.474 71.7059 141.659 72.1674C141.843 72.6288 142.12 72.8134 142.489 73.0902Z" fill="#60C1D2"/>
<path d="M139.905 53.9871C141.566 53.8025 142.212 55.0022 142.397 56.0174C142.581 57.4017 142.304 57.9554 141.843 58.6937C141.474 59.2474 140.551 60.0779 140.551 60.0779C139.997 57.4017 141.289 55.8328 140.736 55.0945C140.459 54.7254 139.905 54.4485 139.905 54.4485V53.9871Z" fill="#0B1017"/>
<path d="M140.182 55.1868C140.09 55.0023 140.09 55.0023 140.09 54.91C140.274 54.4486 140.551 54.1717 140.828 54.6331C140.92 54.7254 140.828 54.91 140.828 55.0023C140.828 55.0946 140.736 55.1868 140.643 55.2791C140.551 55.3714 140.459 55.3714 140.366 55.3714C140.274 55.3714 140.182 55.2791 140.182 55.1868Z" fill="#FFAE80"/>
<path d="M129.754 61.7391C129.385 62.016 128.646 61.7391 128.093 61.5546L127.631 60.5394L128.462 60.1703L129.754 60.724C130.123 61.2777 130.4 61.5546 129.754 61.7391Z" fill="#FC9F6A"/>
<path d="M128.185 61.5546C128.277 61.5546 128.277 61.5546 128.369 61.5546H128.554C128.739 61.5546 128.739 61.1854 128.646 61.0009L128.277 60.3549L128 60.2626L127.816 60.1703C127.631 60.2626 127.539 60.4471 127.723 60.8163L127.816 61.1854C127.816 61.2777 127.908 61.2777 128 61.37L128.185 61.5546Z" fill="#FFAE80"/>
<path d="M127.723 60.3548C128 60.7239 128.277 60.5393 128 60.1702L123.847 54.3562L127.723 60.3548Z" fill="#2D2856"/>
<path d="M130.031 61.7391L129.292 61.4623C128.923 61.2777 128.923 60.9086 128.739 60.5394L128.369 60.3549H127.908C127.723 60.3549 127.723 60.078 127.908 60.078L128.462 59.9857L128.923 60.078C129.2 60.078 129.477 60.2626 129.754 60.4471L130.307 61.0931L130.031 61.7391Z" fill="#FFAE80"/>
<path d="M129.661 60.7239C129.938 60.6316 130.123 61.4622 129.661 61.739C129.938 61.8313 132.522 63.1233 134.46 62.385L137.044 61.093C138.059 60.9085 137.413 58.0476 136.675 58.0476C135.937 58.9705 135.475 59.4319 133.261 61.0007L129.661 60.7239Z" fill="#FFAE80"/>
<path d="M110.927 96.7155C111.112 97.0846 111.204 97.4537 111.389 97.7306C111.481 98.192 111.758 98.6535 111.943 99.1149C112.035 99.3917 111.85 99.484 111.574 99.2995L110.927 98.3766C110.743 98.5612 110.651 98.7457 110.558 99.1149L110.743 100.591C110.743 100.868 110.558 100.868 110.466 100.684L110.189 99.3917V100.776C110.097 100.868 110.005 100.868 109.912 100.684L109.82 100.315C109.728 100.499 109.635 100.407 109.635 100.315C109.635 100.315 109.543 98.6535 109.543 98.5612L110.097 96.5309L110.282 96.0695L111.112 96.3463L110.927 96.7155Z" fill="#FFBAA8"/>
<path d="M113.696 88.502C113.419 89.6095 113.512 91.086 113.05 92.7472C112.496 94.4083 111.85 95.2389 111.112 97.0846C111.02 97.2692 109.912 96.9923 110.005 96.8078C110.835 93.2086 110.374 94.316 110.835 92.7472C111.02 91.5475 111.112 89.9786 111.204 88.502C111.297 87.5792 111.666 87.0255 112.127 86.8409C113.327 86.564 114.342 87.3946 113.696 88.502Z" fill="#FFB645"/>
<path d="M113.604 112.681C113.604 112.681 113.788 113.511 113.696 113.881C113.604 114.25 112.681 114.527 112.681 114.527C112.681 114.527 111.85 115.542 110.651 115.449C110.005 115.357 109.728 115.173 109.636 114.988C109.543 114.803 109.636 114.527 109.728 114.342C109.82 114.157 110.743 113.788 111.112 113.235C111.297 112.958 111.574 112.404 111.574 112.404V112.127C111.666 111.666 111.943 111.297 112.404 111.297C113.05 111.297 113.512 111.758 113.419 112.312V112.496L113.604 112.681Z" fill="#0B1017"/>
<path d="M117.664 115.357C117.849 115.634 117.849 116.095 117.849 116.741C117.664 117.11 117.387 117.387 117.018 117.48C117.018 117.48 116.741 118.679 115.173 118.679C113.696 118.679 113.696 118.126 113.696 118.126C113.696 118.126 113.696 117.756 114.065 117.48C114.25 117.295 115.08 116.649 115.265 116.372C115.449 116.095 115.634 115.726 115.634 115.726L115.726 114.619H117.757L117.664 115.357Z" fill="#0B1017"/>
<path d="M111.85 96.5309L114.527 100.13C114.434 101.145 114.157 103.914 113.973 104.837C114.434 108.436 113.788 112.404 113.511 112.681C113.142 113.05 112.127 113.235 111.573 112.404C111.573 112.404 111.85 108.528 111.297 104.467L111.85 96.5309Z" fill="#201C3D"/>
<path d="M113.696 99.4839L114.435 106.221C115.265 110.374 115.634 115.726 115.634 115.726C116.096 116.557 117.388 116.28 117.757 115.726C117.757 115.172 117.849 114.619 117.849 114.065C118.034 111.573 117.941 108.805 117.019 106.498C117.295 104.744 117.665 101.514 117.48 99.9453C117.757 99.0225 117.849 97.7305 117.388 96.4385C117.388 96.4385 117.388 96.4385 117.388 96.3462C117.203 96.5308 116.926 96.6231 116.649 96.7153C114.711 97.3613 111.851 95.7925 111.851 95.7925C111.758 97.7305 112.497 98.5611 113.696 99.4839Z" fill="#2D2856"/>
<path d="M116.465 106.59C117.387 108.251 117.757 111.02 117.941 114.065C118.126 111.573 118.033 108.805 117.111 106.498C117.387 104.744 117.757 101.514 117.572 99.9453C117.849 99.0225 117.941 97.7305 117.48 96.4385H117.387L116.465 96.2539C116.557 96.4385 116.649 96.623 116.649 96.8076C117.018 97.8228 117.018 98.8379 116.741 99.7608C117.111 101.699 116.834 104.006 116.465 106.59Z" fill="#A263C7"/>
<path d="M111.389 93.3932C111.481 94.2237 111.666 94.962 111.85 95.7003C111.85 95.7003 111.85 95.8849 111.943 96.1617C112.127 96.5309 112.589 97.0846 113.881 97.2692C114.711 97.3614 115.357 97.3614 115.911 97.3614C116.28 97.2692 116.557 97.2692 116.742 97.0846L116.834 96.9923C117.48 96.6232 117.48 96.0694 117.48 96.0694C117.757 94.7774 117.941 93.3932 118.034 92.0089C118.034 91.6397 118.034 91.1783 118.034 90.6246C118.034 89.6094 117.664 88.502 117.664 87.856C116.28 87.3023 116.003 87.0254 114.804 86.3794C113.604 86.1026 112.496 86.1949 111.481 86.3794C110.928 88.8712 111.02 91.2706 111.389 93.3932Z" fill="#FFB645"/>
<path d="M116.834 97.0845C116.834 97.0845 116.834 96.9922 116.834 97.0845L117.018 96.9922C117.664 96.6231 117.664 96.0694 117.664 96.0694C117.941 94.7774 118.126 93.3931 118.218 92.0088C118.218 91.6397 118.218 91.1782 118.218 90.6245C117.664 90.3477 117.111 89.9785 117.111 89.9785C117.48 92.1934 117.295 94.5928 116.834 97.0845Z" fill="#DB962C"/>
<path d="M113.881 88.6865L113.696 89.3325L113.327 89.2402V88.502L113.696 88.3174L113.881 88.6865Z" fill="#2D2856"/>
<path d="M113.696 89.3325C113.604 90.6245 113.604 93.1162 113.696 94.4082L113.142 94.962L112.773 94.0391C112.865 92.6548 113.142 90.4399 113.419 89.1479L113.696 89.3325Z" fill="#2D2856"/>
<path d="M114.711 85.7334L115.449 86.564C116.372 87.1177 115.173 88.9634 113.973 88.7788L112.958 88.0405L114.711 85.7334Z" fill="#FFBAA8"/>
<path d="M115.173 86.2871C115.357 86.3794 115.634 86.564 115.911 86.8408C115.911 86.8408 115.449 89.148 113.881 89.3325C113.788 88.9634 113.604 88.5943 113.604 88.5943C114.527 88.502 115.173 87.0254 115.173 86.2871Z" fill="#DB962C"/>
<path d="M113.604 88.5943L113.05 89.148C113.05 89.148 112.496 86.9331 112.958 86.4717C113.419 86.0103 113.604 88.5943 113.604 88.5943Z" fill="#DB962C"/>
<path opacity="0.5" d="M112.312 88.3174C112.312 89.2402 112.589 89.9785 113.142 89.794C114.434 89.6094 114.711 87.7637 114.527 87.0254L112.312 88.3174Z" fill="#FFBAA8"/>
<path d="M113.143 83.4261C114.25 83.4261 114.896 83.9799 114.896 85.0873C114.896 86.287 114.804 87.0253 114.25 87.8559C113.881 88.3173 113.419 88.6864 112.773 88.5941C112.127 88.5941 111.112 86.933 111.02 85.7333C110.928 84.7181 111.943 83.7953 113.143 83.4261Z" fill="#FFBAA8"/>
<path d="M111.204 86.7485C111.481 87.3022 112.958 87.2099 113.604 86.4717L113.696 86.9331L114.25 86.4717L114.804 87.1177L114.988 86.8408C115.45 85.9179 115.45 84.3491 114.065 83.5185C112.22 82.7802 110.005 84.9028 111.204 86.7485Z" fill="black"/>
<path d="M114.434 86.9331C114.527 86.8408 114.527 86.6563 114.619 86.564C114.619 86.4717 114.619 86.2871 114.527 86.1948C114.434 86.1025 114.25 86.1025 114.157 86.1948C114.065 86.2871 114.065 86.3794 114.065 86.4717C114.065 86.564 114.065 86.6563 114.157 86.7485C114.157 86.8408 114.25 86.9331 114.25 87.0254C114.25 87.1177 114.25 87.1177 114.342 87.21C114.434 87.21 114.434 87.21 114.527 87.21C114.342 87.0254 114.342 86.9331 114.434 86.9331Z" fill="#FFBAA8"/>
<path d="M120.249 99.2072L120.341 100.222V101.145L120.064 101.791C119.972 101.976 119.787 101.976 119.879 101.791L119.603 102.529C119.51 102.714 119.326 102.714 119.326 102.529L119.51 101.514L118.864 102.899C118.772 103.083 118.495 103.083 118.587 102.806L119.049 101.33L118.587 102.16L118.126 102.714C117.941 102.899 117.665 102.806 117.849 102.529L118.311 101.791C118.311 101.791 118.495 101.237 118.587 100.961L118.495 100.407L117.388 100.961C117.111 101.053 117.019 100.776 117.203 100.591L118.311 99.6686C118.311 99.6686 118.957 99.2994 119.049 99.2072C119.141 99.2072 119.141 99.2072 119.141 99.2072L119.326 98.7457L120.341 98.838L120.249 99.2072Z" fill="#FFBAA8"/>
<path d="M118.218 88.0405C119.418 89.3325 119.972 90.7168 120.802 92.9317C120.987 94.6851 120.71 96.9 120.248 99.2994C119.879 99.484 119.602 99.2994 119.141 99.1148C119.141 97.3614 118.772 95.608 118.956 93.8545C118.034 93.3008 117.111 91.6397 116.096 90.1631C115.726 88.1328 116.926 87.0254 118.218 88.0405Z" fill="#FFB645"/>
<path d="M103.545 120.802C104.652 120.71 104.375 118.864 104.098 117.849C104.006 117.48 103.545 117.295 103.176 117.387C102.806 117.48 102.622 118.218 102.622 118.587C102.714 118.956 102.253 120.894 103.545 120.802Z" fill="#603480"/>
<path d="M104.191 118.864C104.375 117.295 102.714 117.203 102.899 118.864C102.991 119.325 103.268 119.602 103.545 119.695C104.006 119.695 104.098 119.233 104.191 118.864Z" fill="#FFBAA8"/>
<path d="M109.266 118.218C109.728 118.587 110.374 118.772 110.928 118.772C111.02 118.772 111.112 118.772 111.112 118.679C111.204 118.587 111.112 118.402 111.112 118.31C110.558 117.387 109.543 116.649 109.082 115.726C108.99 115.634 108.99 115.542 108.897 115.449C108.713 115.357 108.528 115.357 108.344 115.357C108.159 115.357 107.974 115.172 107.882 115.265C107.79 115.357 107.698 115.542 107.698 115.634C107.698 115.818 107.605 116.188 107.513 116.372C107.421 116.557 107.421 116.741 107.513 116.834C107.605 117.018 107.698 117.203 107.882 117.295C108.067 117.387 108.251 117.48 108.436 117.572C108.713 117.756 108.99 118.033 109.266 118.218Z" fill="#FFBAA8"/>
<path d="M111.112 118.772C111.02 118.864 110.928 118.864 110.928 118.864C110.374 118.864 109.728 118.679 109.266 118.31C108.99 118.126 108.713 117.849 108.436 117.664C108.251 117.572 108.067 117.48 107.882 117.387C107.698 117.295 107.513 117.11 107.513 116.926C107.421 116.741 107.513 116.557 107.513 116.464C107.513 116.372 107.605 115.911 107.698 115.819C107.698 115.819 107.698 115.819 107.698 115.726C107.698 115.542 107.79 115.357 107.882 115.357C108.067 115.265 108.159 115.357 108.344 115.449C108.528 115.449 108.713 115.449 108.897 115.542C108.99 115.634 109.082 115.726 109.082 115.819C109.266 116.188 109.543 116.465 109.82 116.834C110.282 117.295 110.743 117.941 111.112 118.495C111.112 118.495 111.204 118.679 111.112 118.772Z" fill="#603480"/>
<path d="M110.097 117.295C110.097 117.387 110.097 117.387 110.005 117.48C110.005 117.48 109.913 117.48 109.82 117.48C109.267 117.48 108.805 117.111 108.436 116.741C108.251 116.557 107.975 116.372 107.882 116.188C107.79 116.095 107.698 115.911 107.605 115.726C107.605 115.726 107.605 115.726 107.605 115.634C107.605 115.449 107.605 115.173 107.79 115.08C107.975 114.988 108.159 115.08 108.251 115.173C108.436 115.173 108.713 115.08 108.805 115.265C108.897 115.357 108.897 115.634 108.897 115.726C109.082 116.095 109.359 116.465 109.636 116.834C109.728 116.926 109.82 117.111 109.913 117.203C110.097 117.111 110.097 117.203 110.097 117.295Z" fill="#FFBAA8"/>
<path d="M109.636 106.498C109.636 106.774 109.636 107.051 109.543 107.328C109.543 107.605 109.543 107.974 109.451 108.251C109.451 108.528 109.451 108.805 109.359 109.082C109.174 112.035 108.897 115.634 108.897 115.634C108.62 116.095 107.605 116.28 107.513 115.634C107.421 113.696 107.052 112.035 106.867 110.466C106.775 109.912 106.682 109.451 106.682 108.897C106.682 108.436 106.59 108.066 106.59 107.605V107.513C106.59 107.144 106.59 106.774 106.682 106.498C106.682 106.405 106.682 106.313 106.775 106.221L108.99 104.744C109.082 104.929 109.636 106.405 109.636 106.498Z" fill="#FFBAA8"/>
<path d="M106.959 103.268C106.59 105.206 106.406 106.682 106.129 107.882C106.129 107.974 106.129 108.066 106.036 108.159C105.944 108.62 105.852 108.989 105.76 109.358C105.76 109.451 105.667 109.543 105.667 109.543L105.483 110.466L105.39 110.835L103.914 117.756L103.822 118.033L103.729 118.218C103.729 118.772 102.899 118.587 102.806 118.126V118.033C102.806 117.941 102.806 117.849 102.806 117.756C102.345 113.604 102.53 111.942 102.806 110.374C102.806 110.189 102.899 110.004 102.899 109.728C102.991 109.451 102.991 109.174 103.083 108.805C103.083 108.712 103.083 108.62 103.083 108.528V108.436C102.806 106.221 102.899 104.56 102.991 103.452H106.959V103.268Z" fill="#FFBAA8"/>
<path d="M106.959 103.268C106.59 105.206 106.406 106.682 106.129 107.882C106.129 107.974 106.129 108.066 106.036 108.159C105.944 108.62 105.852 108.989 105.76 109.358C105.76 109.451 105.667 109.543 105.667 109.543L105.483 110.466L105.39 110.835L103.914 117.756L103.822 118.033L103.729 118.218C103.729 118.772 102.899 118.587 102.806 118.126V118.033C102.806 117.941 102.806 117.849 102.806 117.756C102.345 113.604 102.53 111.942 102.806 110.374C102.806 110.189 102.899 110.004 102.899 109.728C102.991 109.451 102.991 109.174 103.083 108.805C103.083 108.712 103.083 108.62 103.083 108.528V108.436C102.806 106.221 102.899 104.56 102.991 103.452H106.959V103.268Z" fill="#FFBAA8"/>
<path d="M106.129 107.79C106.129 107.882 106.129 107.974 106.036 108.067C105.944 108.528 105.852 108.897 105.76 109.266C105.76 109.359 105.667 109.451 105.667 109.451L105.483 110.374L105.39 110.743C104.56 110.743 103.729 110.558 102.899 110.189C102.899 110.005 102.991 109.82 102.991 109.543C103.083 109.266 103.083 108.989 103.176 108.62C103.176 108.528 103.176 108.436 103.176 108.343V108.251L106.129 107.79Z" fill="#FFBAA8"/>
<path d="M109.543 107.328C109.543 107.605 109.543 107.974 109.451 108.251C109.451 108.528 109.451 108.805 109.359 109.082C108.805 109.728 107.882 110.189 106.867 110.558C106.775 110.005 106.682 109.543 106.682 108.989C106.682 108.528 106.59 108.159 106.59 107.697L109.543 107.328Z" fill="#FFBAA8"/>
<path d="M111.943 98.0997L108.436 97.3614C108.436 97.3614 107.052 92.9317 107.144 92.8394C107.236 92.7471 108.528 90.1631 108.528 90.1631L109.543 95.7002L112.589 97.1768L111.943 98.0997Z" fill="#3F76AB"/>
<path d="M111.943 98.0997L108.436 97.3614C108.436 97.3614 107.052 92.9317 107.144 92.8394C107.236 92.7471 108.528 90.1631 108.528 90.1631L109.543 95.7002L112.589 97.1768L111.943 98.0997Z" fill="#8F204A"/>
<path d="M105.114 87.5791C102.899 88.3174 103.36 90.44 104.006 92.1011L105.575 90.6245L105.114 87.5791Z" fill="#1D1D1B"/>
<path d="M109.543 108.067C109.174 108.989 104.56 110.835 103.175 109.451L102.714 103.083C102.345 100.961 102.622 99.9454 103.729 98.9303C103.821 98.838 104.006 98.6534 104.191 98.5612L107.421 98.4689L108.713 98.3766C109.728 101.791 109.728 105.667 109.543 108.067Z" fill="#924FC2"/>
<path d="M110.005 95.1466C110.005 95.7926 109.359 96.3463 108.62 96.254C108.62 96.9 108.436 97.7306 108.62 98.2843C108.344 99.0226 107.882 99.5763 107.052 99.7609C106.221 99.9455 104.56 99.7609 103.637 98.7458C103.822 97.6383 103.36 96.1618 102.991 94.8698C102.714 93.9469 102.53 92.7472 102.437 92.2858C103.176 91.3629 103.914 90.9938 104.837 90.2555C105.76 89.6095 106.498 88.7789 107.605 89.2403C108.713 89.6095 108.528 91.732 108.897 92.5626C109.451 93.67 110.005 94.2238 110.005 95.1466Z" fill="#69B2E6"/>
<path opacity="0.5" d="M108.621 98.2842C108.344 99.0225 107.882 99.5762 107.052 99.7607C106.221 99.9453 104.56 99.7608 103.637 98.7456C102.53 99.7608 102.161 100.868 102.622 102.898L103.083 109.266C103.176 109.358 103.453 109.543 103.822 109.635C103.545 107.42 103.822 102.252 104.375 100.591C107.052 100.684 108.159 100.038 108.805 98.561L108.621 98.2842Z" fill="#924FC2"/>
<path opacity="0.5" d="M108.62 98.2842C108.344 99.0225 107.882 99.5762 107.052 99.7608C106.221 99.9453 104.56 99.7608 103.637 98.7456C103.822 97.6382 103.36 96.1616 102.991 94.8696L103.822 94.2236L105.114 96.3462C105.944 97.7305 108.159 97.4536 108.251 96.0693L108.62 96.1616C108.62 96.8999 108.436 97.7305 108.62 98.2842Z" fill="#69B2E6"/>
<path d="M105.944 97.5459C106.037 97.7305 106.313 97.915 106.59 98.0073L107.052 98.0996C107.052 98.1919 107.329 98.2842 107.513 98.2842C107.698 98.2842 107.698 98.1919 107.698 98.0996C107.79 98.0073 107.882 97.9151 107.882 97.8228C107.975 97.7305 108.067 97.6382 107.975 97.5459C108.067 97.4536 108.067 97.3613 108.067 97.1768L109.174 97.2691C109.451 97.2691 109.451 97.0845 109.174 96.9922L107.144 96.623C106.867 96.5308 106.59 96.5308 106.221 96.623L105.483 96.8076V97.6382L105.944 97.5459Z" fill="#FFBAA8"/>
<path d="M102.53 92.4703C101.33 93.9468 100.13 97.9151 100.961 98.5611C101.976 99.3917 104.006 98.4688 105.944 97.6383C105.852 97.1768 105.852 96.8077 106.129 96.6231L102.53 96.9923L103.914 94.6851C104.56 92.8394 103.637 91.732 102.53 92.4703Z" fill="#69B2E6"/>
<path d="M105.39 88.9634C105.206 89.4248 104.837 90.1631 104.744 90.6245C104.652 91.1782 105.667 92.1011 106.406 92.0088C106.867 91.9165 107.052 91.2705 107.144 90.7168L105.39 88.9634Z" fill="#FFBAA8"/>
<path opacity="0.5" d="M105.76 89.3325C105.76 89.3325 105.298 92.7471 106.959 92.4702C108.067 92.2857 107.79 90.5322 107.79 90.5322L105.76 89.3325Z" fill="#FFBAA8"/>
<path d="M107.605 87.2098C108.99 87.3944 110.651 89.1478 108.251 90.163C108.344 89.3324 108.436 88.7787 107.605 87.2098Z" fill="#1D1D1B"/>
<path d="M106.775 86.1947C108.436 86.3793 108.897 87.3944 108.805 88.6864C108.805 89.7938 107.882 91.2704 107.236 91.1781C106.313 91.2704 105.852 90.163 105.114 89.0556C104.468 87.2098 105.206 86.0101 106.775 86.1947Z" fill="#FFBAA8"/>
<path d="M108.713 88.7788C108.344 89.148 107.79 89.3325 107.144 89.5171C106.59 89.794 106.036 89.7017 105.76 90.0708L105.114 89.794C104.468 89.0557 104.375 86.8408 105.483 86.3794C107.421 85.5488 109.636 87.3945 108.713 88.7788Z" fill="#1D1D1B"/>
<path d="M105.76 89.7016C105.667 89.3324 105.391 89.0556 105.114 89.2401C105.021 89.3324 105.021 89.517 105.114 89.7939C105.206 89.9784 105.298 90.0707 105.483 90.0707C105.76 90.163 105.852 89.9784 105.76 89.7016Z" fill="#FFBAA8"/>
<path d="M110.928 94.6852C109.912 95.7003 109.174 97.1769 108.62 99.2995L112.22 99.3918C112.127 97.7306 113.235 96.1618 114.619 94.6852H110.928Z" fill="#D6EEEB"/>
<path d="M112.127 97.3615C111.758 97.3615 111.758 97.7306 112.035 97.7306C111.574 97.7306 111.574 98.0997 111.943 98.0997C111.666 98.0997 111.666 98.3766 112.035 98.4689C111.758 98.5612 111.758 98.7457 112.035 98.7457H112.404C112.589 98.7457 112.773 98.6535 112.773 98.4689C112.866 98.4689 113.05 98.0997 112.958 98.0997C113.05 98.0075 113.143 97.8229 113.05 97.7306C113.235 97.6383 113.235 97.3615 112.958 97.0846L112.866 96.9923L112.681 97.3615H112.127Z" fill="#FFBAA8"/>
<defs>
<linearGradient id="paint0_linear" x1="135.475" y1="110.058" x2="132.982" y2="128.401" gradientUnits="userSpaceOnUse">
<stop stop-color="white"/>
<stop offset="0.2012" stop-color="#F9FBFD"/>
<stop offset="0.4803" stop-color="#E7F0F7"/>
<stop offset="0.8034" stop-color="#C9DEEC"/>
<stop offset="1" stop-color="#B4D1E5"/>
</linearGradient>
<linearGradient id="paint1_linear" x1="130.638" y1="109.4" x2="128.145" y2="127.743" gradientUnits="userSpaceOnUse">
<stop stop-color="white"/>
<stop offset="0.2012" stop-color="#F9FBFD"/>
<stop offset="0.4803" stop-color="#E7F0F7"/>
<stop offset="0.8034" stop-color="#C9DEEC"/>
<stop offset="1" stop-color="#B4D1E5"/>
</linearGradient>
<linearGradient id="paint2_linear" x1="139.23" y1="110.568" x2="136.736" y2="128.911" gradientUnits="userSpaceOnUse">
<stop stop-color="white"/>
<stop offset="0.2012" stop-color="#F9FBFD"/>
<stop offset="0.4803" stop-color="#E7F0F7"/>
<stop offset="0.8034" stop-color="#C9DEEC"/>
<stop offset="1" stop-color="#B4D1E5"/>
</linearGradient>
</defs>
</svg>
