<?xml version="1.0" encoding="UTF-8"?>
<svg xmlns="http://www.w3.org/2000/svg" xmlns:xlink="http://www.w3.org/1999/xlink" viewBox="0 0 784.47 393.65"> <defs> <style>.cls-1{fill:none;}.cls-2,.cls-20{isolation:isolate;}.cls-3,.cls-79{fill:#1e0692;}.cls-20,.cls-3,.cls-5{opacity:0.8;}.cls-4{fill:#fff;}.cls-6{clip-path:url(#clip-path);}.cls-7{fill:#bbe8f6;}.cls-8{fill:#b7e6f6;}.cls-9{fill:#b3e5f5;}.cls-10{fill:#ade3f5;}.cls-11{fill:#a9e2f4;}.cls-12{fill:#a5e0f4;}.cls-13{fill:#c5ebf8;}.cls-14{clip-path:url(#clip-path-2);}.cls-15{fill:#99dcf2;}.cls-16{fill:#e1f5fb;}.cls-17{clip-path:url(#clip-path-3);}.cls-18{clip-path:url(#clip-path-4);}.cls-19{fill:#cceef9;}.cls-21{fill:#ceeef9;}.cls-22{clip-path:url(#clip-path-5);}.cls-23{clip-path:url(#clip-path-6);}.cls-24,.cls-25{fill:#ffbaa8;}.cls-25,.cls-28,.cls-30,.cls-36,.cls-39,.cls-44,.cls-45,.cls-47,.cls-77,.cls-78{opacity:0.5;}.cls-25,.cls-28,.cls-30,.cls-31,.cls-36,.cls-39,.cls-43,.cls-44,.cls-45,.cls-47,.cls-68,.cls-71,.cls-77,.cls-78{mix-blend-mode:multiply;}.cls-26{fill:#3b254a;}.cls-27,.cls-31,.cls-77{fill:#924fc2;}.cls-28,.cls-33,.cls-68{fill:#a263c7;}.cls-29,.cls-30{fill:#eb347a;}.cls-31{opacity:0.3;}.cls-32{fill:#291933;}.cls-34,.cls-36{fill:#ffb645;}.cls-35{fill:#0b1017;}.cls-37{fill:#201c3d;}.cls-38,.cls-39{fill:#2d2856;}.cls-40,.cls-44{fill:#ffae80;}.cls-41{fill:#c8e6e2;}.cls-42{fill:#ff4555;}.cls-43,.cls-46{fill:#d6eeeb;}.cls-45{fill:#ffbf86;}.cls-47{fill:#9e2e3b;}.cls-48,.cls-49{fill:#1d1d1b;}.cls-48,.cls-58{opacity:0.1;}.cls-50{fill:#575756;}.cls-51{fill:#d43947;}.cls-52{fill:#103450;}.cls-53{fill:url(#linear-gradient);}.cls-54{fill:#ffc6a0;}.cls-55{fill:#62280c;}.cls-56{fill:url(#linear-gradient-2);}.cls-57{fill:url(#linear-gradient-3);}.cls-58{fill:#0d0506;}.cls-59{fill:#e4c79a;}.cls-60{fill:#5c504d;}.cls-61{fill:#fbdfb4;}.cls-62{fill:#a6a09e;}.cls-63{fill:#634095;}.cls-64{fill:#2b1c10;}.cls-65{clip-path:url(#clip-path-7);}.cls-66{fill:#c4ebf7;}.cls-67{fill:#c0e9f7;}.cls-69{fill:#fc9f6a;}.cls-70,.cls-71{fill:#60c1d2;}.cls-72{fill:#db962c;}.cls-73{fill:#603480;}.cls-74{fill:#3f76ab;}.cls-75{fill:#8f204a;}.cls-76,.cls-78{fill:#69b2e6;}</style> <clipPath id="clip-path"> <path class="cls-1" d="M193.11,171.12l.29-103.23c0-12.65,5.59-25,16.61-36.89l-.29,103.24C198.7,146.12,193.14,158.48,193.11,171.12Z"/> </clipPath> <clipPath id="clip-path-2"> <path class="cls-1" d="M189.3,171.1l.3-103.23a47,47,0,0,0,1.9,13.26l-.29,103.24A47.47,47.47,0,0,1,189.3,171.1Z"/> </clipPath> <clipPath id="clip-path-3"> <path class="cls-1" d="M153.46,158.85l.29-103.24a51.71,51.71,0,0,1,3.6-18.36l-.3,103.24A51.65,51.65,0,0,0,153.46,158.85Z"/> </clipPath> <clipPath id="clip-path-4"> <path class="cls-1" d="M149.66,158.84,150,55.61C149.92,67,154,78,162.23,88.49l-.29,103.23C153.73,181.25,149.63,170.25,149.66,158.84Z"/> </clipPath> <clipPath id="clip-path-5"> <path class="cls-1" d="M128.48,103.2l-.29,103.23c-19.42-13.49-30.33-29.8-32.43-48.48l.3-103.23C98.15,73.39,109.06,89.7,128.48,103.2Z"/> </clipPath> <clipPath id="clip-path-6"> <path class="cls-1" d="M84.23,125.39l-.29,103.24c-1.37-.74-2.72-1.48-4-2.24-19.86-11.46-33.13-26-39.47-43.27l.29-103.24c6.34,17.27,19.61,31.81,39.47,43.27C81.52,123.92,82.87,124.66,84.23,125.39Z"/> </clipPath> <linearGradient id="linear-gradient" x1="263.38" y1="211.2" x2="259.27" y2="241.4" gradientUnits="userSpaceOnUse"> <stop offset="0" stop-color="#fff"/> <stop offset="0.2" stop-color="#f9fbfd"/> <stop offset="0.48" stop-color="#e7f0f7"/> <stop offset="0.8" stop-color="#c9deec"/> <stop offset="1" stop-color="#b4d1e5"/> </linearGradient> <linearGradient id="linear-gradient-2" x1="255.41" y1="210.11" x2="251.31" y2="240.32" xlink:href="#linear-gradient"/> <linearGradient id="linear-gradient-3" x1="269.56" y1="212.04" x2="265.46" y2="242.24" xlink:href="#linear-gradient"/> <clipPath id="clip-path-7"> <path class="cls-1" d="M262.85,35.7l-.29,103.24c-21.5,12.94-33.83,28.34-36.65,45.78l.29-103.24C229,64,241.35,48.64,262.85,35.7Z"/> </clipPath> </defs> <g class="cls-2"> <g id="Слой_2" data-name="Слой 2"> <g id="Text"> <rect class="cls-3" width="784.47" height="393.65" rx="30"/> <path class="cls-4" d="M340,96.22c0,7-4.29,10.79-9.52,10.79-5.41,0-9.21-4.19-9.21-10.39,0-6.51,4-10.76,9.52-10.76S340,90.14,340,96.22Zm-15.9.34c0,4.37,2.37,8.29,6.53,8.29s6.57-3.86,6.57-8.51c0-4.07-2.13-8.33-6.54-8.33S324.13,92.06,324.13,96.56Z"/> <path class="cls-4" d="M346,92v5.92h7V92h2.65v14.71h-2.65V100h-7v6.66h-2.64V92Z"/> <path class="cls-4" d="M371.12,92v14.71h-2.65V94.06h-5v3.83c0,4.14-.4,6.9-2.31,8.15a4.28,4.28,0,0,1-2.92.91l-.27-2.1a3.31,3.31,0,0,0,1.45-.6c1.37-1,1.52-3.07,1.52-6.36V92Z"/> <path class="cls-4" d="M383.64,106.68l-.21-1.86h-.1a5.46,5.46,0,0,1-4.49,2.19,4.19,4.19,0,0,1-4.5-4.22c0-3.56,3.16-5.51,8.84-5.48V97c0-1.21-.33-3.4-3.34-3.4A7.3,7.3,0,0,0,376,94.7l-.61-1.76a9.16,9.16,0,0,1,4.84-1.31c4.49,0,5.59,3.07,5.59,6v5.5a21.06,21.06,0,0,0,.24,3.53Zm-.4-7.51c-2.91-.06-6.23.45-6.23,3.31a2.38,2.38,0,0,0,2.53,2.56,3.65,3.65,0,0,0,3.55-2.47,2.76,2.76,0,0,0,.15-.85Z"/> <path class="cls-4" d="M392.6,92v6.2c0,2.34,0,3.8-.15,5.89l.09,0c.89-1.79,1.4-2.82,2.38-4.53L399.5,92h3.13v14.71h-2.55v-6.23c0-2.41.06-3.65.18-6h-.09c-.94,1.88-1.58,3.07-2.43,4.56-1.4,2.28-3,5.1-4.59,7.69h-3.07V92Zm1.74-6c.09,1.3.73,2.31,1.94,2.31s1.92-1,2.07-2.31h1.91a3.68,3.68,0,0,1-4,3.77c-2.67,0-3.71-1.68-3.83-3.77Z"/> <path class="cls-4" d="M409.56,92v5.92h7V92h2.65v14.71h-2.65V100h-7v6.66h-2.64V92Z"/> <path class="cls-4" d="M429.78,97.47v2h-7.51v-2Z"/> <path class="cls-4" d="M432.85,92.15a31.43,31.43,0,0,1,4.68-.34c2.46,0,6.53.4,6.53,3.68A3.48,3.48,0,0,1,441,98.8v.07c2.16.3,3.74,1.51,3.74,3.64,0,3.86-4.86,4.35-7.75,4.35-1.64,0-3.34-.12-4.13-.18Zm2.52,12.76a16.39,16.39,0,0,0,2.16.13c1.79,0,4.46-.43,4.46-2.56s-2.12-2.58-4.68-2.58h-1.94Zm0-6.77h2c2,0,4-.58,4-2.31,0-1.46-1.28-2.16-3.95-2.16a19.13,19.13,0,0,0-2.07.12Z"/> <path class="cls-4" d="M450.69,92v5a12.75,12.75,0,0,1,2.4-.18c3.16,0,6.35,1.3,6.35,4.92a4.18,4.18,0,0,1-1.52,3.41,9.32,9.32,0,0,1-5.93,1.7,36.94,36.94,0,0,1-3.95-.21V92Zm0,12.85a14.93,14.93,0,0,0,1.85.12c2,0,4.26-.85,4.26-3.13s-2.13-3.1-4.14-3.1a11,11,0,0,0-2,.16ZM463.94,92v14.71h-2.65V92Z"/> <path class="cls-4" d="M478.8,106.13a9.93,9.93,0,0,1-4.22.85c-4.44,0-7.33-3-7.33-7.51a7.47,7.47,0,0,1,7.9-7.81,9,9,0,0,1,3.71.76l-.61,2.07a6.12,6.12,0,0,0-3.1-.7c-3.37,0-5.19,2.49-5.19,5.56,0,3.41,2.19,5.5,5.1,5.5a7.55,7.55,0,0,0,3.29-.73Z"/> <path class="cls-4" d="M492.36,92v2.12h-4.59v12.59h-2.65V94.09h-4.59V92Z"/> <path class="cls-4" d="M502.63,106.68l-.21-1.86h-.09a5.47,5.47,0,0,1-4.5,2.19,4.19,4.19,0,0,1-4.5-4.22c0-3.56,3.16-5.51,8.85-5.48V97c0-1.21-.34-3.4-3.35-3.4A7.33,7.33,0,0,0,495,94.7l-.61-1.76a9.16,9.16,0,0,1,4.84-1.31c4.5,0,5.59,3.07,5.59,6v5.5a21.06,21.06,0,0,0,.24,3.53Zm-.39-7.51c-2.92-.06-6.24.45-6.24,3.31a2.38,2.38,0,0,0,2.53,2.56,3.65,3.65,0,0,0,3.55-2.47,2.51,2.51,0,0,0,.16-.85Z"/> <path class="cls-4" d="M509.07,92.15a31.65,31.65,0,0,1,4.68-.34c2.47,0,6.54.4,6.54,3.68a3.48,3.48,0,0,1-3.07,3.31v.07c2.16.3,3.74,1.51,3.74,3.64,0,3.86-4.86,4.35-7.75,4.35-1.64,0-3.35-.12-4.14-.18Zm2.53,12.76a16.24,16.24,0,0,0,2.15.13c1.8,0,4.47-.43,4.47-2.56s-2.12-2.58-4.68-2.58H511.6Zm0-6.77h2c2,0,4-.58,4-2.31,0-1.46-1.28-2.16-4-2.16a19.09,19.09,0,0,0-2.06.12Z"/> <path class="cls-4" d="M527,92v6.38h.64L533.15,92h3.25L530,98.62c2.37.25,3.8,1.83,5,4.47a30.51,30.51,0,0,0,1.58,3.59h-2.8a19.93,19.93,0,0,1-1.36-3c-1-2.37-2.37-3.47-4.87-3.47H527v6.48h-2.65V92Z"/> <path class="cls-4" d="M547.34,106.68l-.21-1.86H547a5.48,5.48,0,0,1-4.5,2.19,4.19,4.19,0,0,1-4.5-4.22c0-3.56,3.16-5.51,8.84-5.48V97c0-1.21-.33-3.4-3.34-3.4a7.3,7.3,0,0,0-3.83,1.09l-.61-1.76a9.16,9.16,0,0,1,4.84-1.31c4.49,0,5.59,3.07,5.59,6v5.5a21.06,21.06,0,0,0,.24,3.53ZM547,99.17c-2.92-.06-6.24.45-6.24,3.31a2.38,2.38,0,0,0,2.53,2.56,3.65,3.65,0,0,0,3.55-2.47,2.78,2.78,0,0,0,.16-.85Z"/> <path class="cls-4" d="M570.23,92v2.12h-4.59v12.59H563V94.09H558.4V92Z"/> <path class="cls-4" d="M573.66,99.81c.06,3.61,2.37,5.1,5.05,5.1a9.59,9.59,0,0,0,4.07-.76l.46,1.92a12.08,12.08,0,0,1-4.9.91c-4.53,0-7.23-3-7.23-7.42s2.61-7.93,6.9-7.93c4.8,0,6.08,4.23,6.08,6.93a10.36,10.36,0,0,1-.09,1.25Zm7.84-1.92c0-1.7-.7-4.34-3.71-4.34-2.7,0-3.89,2.49-4.1,4.34Z"/> <path class="cls-4" d="M588.52,92l2.1,3.16c.55.82,1,1.58,1.49,2.4h.09c.49-.88,1-1.64,1.46-2.43L595.73,92h2.89l-5,7.11,5.17,7.6h-3l-2.16-3.32c-.58-.85-1.06-1.67-1.58-2.55h-.06c-.49.88-1,1.67-1.55,2.55l-2.13,3.32h-3l5.23-7.51-5-7.2Z"/> <path class="cls-4" d="M603.93,92v5.92h7V92h2.65v14.71h-2.65V100h-7v6.66h-2.64V92Z"/> <path class="cls-4" d="M631.26,99.2c0,5.44-3.77,7.81-7.33,7.81-4,0-7-2.92-7-7.57,0-4.92,3.22-7.81,7.3-7.81S631.26,94.7,631.26,99.2Zm-11.67.15c0,3.22,1.85,5.65,4.46,5.65s4.47-2.4,4.47-5.71c0-2.49-1.24-5.65-4.4-5.65S619.59,96.56,619.59,99.35Z"/> <path class="cls-4" d="M645.79,92v14.71h-2.65V94.06h-5v3.83c0,4.14-.4,6.9-2.31,8.15a4.28,4.28,0,0,1-2.92.91l-.28-2.1a3.3,3.3,0,0,0,1.46-.6c1.37-1,1.52-3.07,1.52-6.36V92Z"/> <path class="cls-4" d="M663.48,99.2c0,5.44-3.77,7.81-7.33,7.81-4,0-7-2.92-7-7.57,0-4.92,3.22-7.81,7.29-7.81C660.62,91.63,663.48,94.7,663.48,99.2Zm-11.68.15c0,3.22,1.86,5.65,4.47,5.65s4.47-2.4,4.47-5.71c0-2.49-1.25-5.65-4.41-5.65S651.8,96.56,651.8,99.35Z"/> <path class="cls-4" d="M675.82,92v2.15h-6.39v12.56h-2.64V92Z"/> <path class="cls-4" d="M680.8,92v6.2c0,2.34,0,3.8-.15,5.89l.09,0c.88-1.79,1.4-2.82,2.37-4.53L687.7,92h3.13v14.71h-2.55v-6.23c0-2.41.06-3.65.18-6h-.09c-.94,1.88-1.58,3.07-2.43,4.56-1.4,2.28-3,5.1-4.59,7.69h-3.07V92Z"/> <path class="cls-4" d="M697.64,92v6.2c0,2.34,0,3.8-.15,5.89l.09,0c.88-1.79,1.39-2.82,2.37-4.53L704.54,92h3.13v14.71h-2.56v-6.23c0-2.41.06-3.65.19-6h-.09c-1,1.88-1.59,3.07-2.44,4.56-1.39,2.28-3,5.1-4.59,7.69h-3.07V92Zm1.73-6c.09,1.3.73,2.31,1.94,2.31s1.92-1,2.07-2.31h1.92a3.69,3.69,0,0,1-4,3.77c-2.67,0-3.7-1.68-3.83-3.77Z"/> <path class="cls-4" d="M324.89,128.44v6.2c0,2.34,0,3.8-.15,5.9l.09,0c.88-1.8,1.4-2.83,2.37-4.53l4.59-7.6h3.13v14.71h-2.55v-6.23c0-2.4.06-3.65.18-6h-.09c-.94,1.89-1.58,3.07-2.43,4.56-1.4,2.28-3,5.11-4.59,7.69h-3.07V128.44Z"/> <path class="cls-4" d="M348.17,128.44v6.2c0,2.34,0,3.8-.15,5.9l.09,0c.88-1.8,1.4-2.83,2.37-4.53l4.59-7.6h3.13v14.71h-2.55v-6.23c0-2.4.06-3.65.18-6h-.09c-.94,1.89-1.58,3.07-2.43,4.56-1.4,2.28-3,5.11-4.59,7.69h-3.07V128.44Z"/> <path class="cls-4" d="M365.13,128.44v5.93h7v-5.93h2.64v14.71h-2.64v-6.66h-7v6.66h-2.64V128.44Z"/> <path class="cls-4" d="M381.72,128.44v5.93h7v-5.93h2.65v14.71h-2.65v-6.66h-7v6.66h-2.64V128.44Z"/> <path class="cls-4" d="M409.05,135.67c0,5.44-3.77,7.81-7.33,7.81-4,0-7.05-2.91-7.05-7.56,0-4.93,3.22-7.82,7.3-7.82S409.05,131.17,409.05,135.67Zm-11.67.15c0,3.23,1.85,5.66,4.46,5.66s4.47-2.4,4.47-5.72c0-2.49-1.24-5.65-4.4-5.65S397.38,133,397.38,135.82Z"/> <path class="cls-4" d="M412.36,128.62a31.73,31.73,0,0,1,4.68-.33c2.46,0,6.54.39,6.54,3.67a3.49,3.49,0,0,1-3.07,3.32v.06c2.16.3,3.74,1.52,3.74,3.65,0,3.86-4.87,4.34-7.75,4.34-1.65,0-3.35-.12-4.14-.18Zm2.52,12.77a16.45,16.45,0,0,0,2.16.12c1.8,0,4.47-.43,4.47-2.55s-2.13-2.59-4.68-2.59h-1.95Zm0-6.78h2c2,0,4-.58,4-2.31,0-1.46-1.27-2.16-3.95-2.16a19.29,19.29,0,0,0-2.07.12Z"/> <path class="cls-4" d="M435.77,143.15l-.22-1.85h-.09a5.49,5.49,0,0,1-4.5,2.18,4.19,4.19,0,0,1-4.5-4.22c0-3.56,3.16-5.5,8.85-5.47v-.31c0-1.21-.34-3.4-3.34-3.4a7.39,7.39,0,0,0-3.83,1.09l-.61-1.76a9.12,9.12,0,0,1,4.83-1.31c4.5,0,5.59,3.07,5.59,6v5.5a19.92,19.92,0,0,0,.25,3.53Zm-.4-7.51c-2.92-.06-6.23.46-6.23,3.32a2.36,2.36,0,0,0,2.52,2.55,3.67,3.67,0,0,0,3.56-2.46,2.87,2.87,0,0,0,.15-.85Z"/> <path class="cls-4" d="M444.85,128.44v12.61h6.78V128.44h2.65v12.7l1.51,0-.15,6.66h-2.06l-.13-4.68H442.21V128.44Z"/> <path class="cls-4" d="M461.45,128.44v6.2c0,2.34,0,3.8-.15,5.9l.09,0c.88-1.8,1.4-2.83,2.37-4.53l4.59-7.6h3.13v14.71h-2.56v-6.23c0-2.4.07-3.65.19-6H469c-.95,1.89-1.58,3.07-2.44,4.56-1.39,2.28-3,5.11-4.59,7.69h-3.07V128.44Z"/> <path class="cls-4" d="M489.14,135.67c0,5.44-3.77,7.81-7.33,7.81-4,0-7.05-2.91-7.05-7.56,0-4.93,3.22-7.82,7.29-7.82C486.28,128.1,489.14,131.17,489.14,135.67Zm-11.68.15c0,3.23,1.86,5.66,4.47,5.66s4.47-2.4,4.47-5.72c0-2.49-1.25-5.65-4.41-5.65S477.46,133,477.46,135.82Z"/> <path class="cls-4" d="M495.09,128.44v5.93h7v-5.93h2.65v14.71h-2.65v-6.66h-7v6.66h-2.64V128.44Z"/> <path class="cls-4" d="M511.69,128.44v5.93h7v-5.93h2.64v14.71h-2.64v-6.66h-7v6.66H509V128.44Z"/> <path class="cls-4" d="M528.28,128.44v5a12.82,12.82,0,0,1,2.4-.18c3.17,0,6.36,1.31,6.36,4.93a4.16,4.16,0,0,1-1.52,3.4c-1.61,1.37-4,1.7-5.93,1.7a36.79,36.79,0,0,1-4-.21V128.44Zm0,12.86a15.25,15.25,0,0,0,1.86.12c2,0,4.25-.85,4.25-3.13s-2.13-3.1-4.13-3.1a12.39,12.39,0,0,0-2,.15Zm13.26-12.86v14.71h-2.65V128.44Z"/> <path class="cls-4" d="M547.16,128.44l2.09,3.16c.55.82,1,1.58,1.49,2.4h.09c.49-.88,1-1.64,1.46-2.43l2.07-3.13h2.89l-5,7.11,5.17,7.6h-3l-2.16-3.31c-.57-.85-1.06-1.68-1.58-2.56h-.06c-.48.88-1,1.68-1.55,2.56l-2.13,3.31h-2.94l5.22-7.51-5-7.2Z"/> <path class="cls-4" d="M566.43,133.24c0-1.88-.06-3.4-.12-4.8h2.4l.12,2.52h.06a5.79,5.79,0,0,1,5.23-2.86c3.55,0,6.23,3,6.23,7.48,0,5.29-3.22,7.9-6.69,7.9a5.16,5.16,0,0,1-4.53-2.31h-.06v8h-2.64Zm2.64,3.92a6.17,6.17,0,0,0,.12,1.1,4.14,4.14,0,0,0,4,3.13c2.82,0,4.46-2.31,4.46-5.69,0-2.95-1.55-5.47-4.37-5.47a4.28,4.28,0,0,0-4,3.31,4.44,4.44,0,0,0-.18,1.1Z"/> <path class="cls-4" d="M585.21,136.28c.06,3.62,2.37,5.11,5,5.11a9.75,9.75,0,0,0,4.07-.76l.46,1.91a11.91,11.91,0,0,1-4.9.91c-4.53,0-7.23-3-7.23-7.41s2.61-7.94,6.9-7.94c4.8,0,6.08,4.23,6.08,6.93a8.21,8.21,0,0,1-.1,1.25Zm7.84-1.91c0-1.71-.7-4.35-3.71-4.35-2.7,0-3.89,2.49-4.1,4.35Z"/> <path class="cls-4" d="M601.5,128.44v12.61h5.14V128.44h2.61v12.61h5.14V128.44H617v14.71H598.89V128.44Z"/> <path class="cls-4" d="M622.87,136.28c.06,3.62,2.37,5.11,5,5.11a9.8,9.8,0,0,0,4.08-.76l.45,1.91a11.82,11.82,0,0,1-4.89.91c-4.53,0-7.23-3-7.23-7.41s2.61-7.94,6.89-7.94c4.81,0,6.08,4.23,6.08,6.93a10.19,10.19,0,0,1-.09,1.25Zm7.84-1.91c0-1.71-.7-4.35-3.71-4.35-2.7,0-3.89,2.49-4.1,4.35Z"/> <path class="cls-4" d="M639.19,128.44v5.93h7v-5.93h2.65v14.71h-2.65v-6.66h-7v6.66h-2.64V128.44Z"/> <path class="cls-4" d="M655.66,128.44v6.2c0,2.34,0,3.8-.15,5.9l.09,0c.88-1.8,1.4-2.83,2.37-4.53l4.59-7.6h3.13v14.71h-2.55v-6.23c0-2.4.06-3.65.18-6h-.09c-.94,1.89-1.58,3.07-2.43,4.56-1.4,2.28-3,5.11-4.59,7.69h-3.07V128.44Z"/> <path class="cls-4" d="M672.5,128.44v6.2c0,2.34,0,3.8-.15,5.9l.09,0c.88-1.8,1.4-2.83,2.37-4.53l4.59-7.6h3.13v14.71H680v-6.23c0-2.4.06-3.65.18-6h-.09c-.94,1.89-1.58,3.07-2.43,4.56-1.4,2.28-3,5.11-4.59,7.69H670V128.44Zm1.73-6c.1,1.31.73,2.31,1.95,2.31s1.91-1,2.07-2.31h1.91a3.68,3.68,0,0,1-4,3.77c-2.68,0-3.71-1.67-3.83-3.77Z"/> <path class="cls-4" d="M322.37,165.09a31.62,31.62,0,0,1,4.68-.33c2.46,0,6.53.39,6.53,3.68a3.48,3.48,0,0,1-3.07,3.31v.06c2.16.31,3.74,1.52,3.74,3.65,0,3.86-4.86,4.35-7.75,4.35-1.64,0-3.34-.13-4.13-.19Zm2.52,12.77a16.45,16.45,0,0,0,2.16.12c1.79,0,4.47-.42,4.47-2.55s-2.13-2.59-4.69-2.59h-1.94Zm0-6.78h2c2,0,4-.58,4-2.31,0-1.46-1.28-2.16-3.95-2.16a16.65,16.65,0,0,0-2.07.13Z"/> <path class="cls-4" d="M357.38,172.15c0,5.44-3.77,7.81-7.32,7.81-4,0-7.06-2.92-7.06-7.57,0-4.93,3.23-7.81,7.3-7.81S357.38,167.65,357.38,172.15Zm-11.67.15c0,3.22,1.85,5.65,4.47,5.65s4.47-2.4,4.47-5.71c0-2.5-1.25-5.66-4.41-5.66S345.71,169.5,345.71,172.3Z"/> <path class="cls-4" d="M371.88,159.93a21.61,21.61,0,0,1-3.07.67c-2.37.36-4.1,1.15-5.23,2.76a10.5,10.5,0,0,0-1.61,4.86h.09a5.58,5.58,0,0,1,5.11-3.31c3.61,0,6.26,2.59,6.26,7.27s-2.49,7.78-6.81,7.78c-5.17,0-6.87-5-6.87-9.85,0-3.34.7-6.08,2.28-8.15s3.47-3,6.32-3.46a21.53,21.53,0,0,0,3.65-.79Zm-5.26,7a3.58,3.58,0,0,0-3.31,2,6.41,6.41,0,0,0-.73,3.13c0,2.44,1.18,5.93,4.1,5.93s4-2.86,4-5.56C370.72,170,369.78,166.89,366.62,166.89Z"/> <path class="cls-4" d="M376.8,169.71c0-1.88-.06-3.4-.12-4.8h2.4l.12,2.52h.06a5.8,5.8,0,0,1,5.23-2.85c3.56,0,6.23,3,6.23,7.47,0,5.29-3.22,7.91-6.68,7.91a5.15,5.15,0,0,1-4.53-2.31h-.06v8H376.8Zm2.65,3.93a6.16,6.16,0,0,0,.12,1.09,4.13,4.13,0,0,0,4,3.13c2.83,0,4.47-2.31,4.47-5.68,0-3-1.55-5.47-4.38-5.47a4.26,4.26,0,0,0-4,3.31,4.36,4.36,0,0,0-.18,1.09Z"/> <path class="cls-4" d="M402.24,179.62l-.21-1.85h-.09a5.49,5.49,0,0,1-4.5,2.19,4.19,4.19,0,0,1-4.5-4.23c0-3.55,3.16-5.5,8.85-5.47V170c0-1.22-.34-3.41-3.35-3.41a7.33,7.33,0,0,0-3.83,1.1l-.61-1.77a9.15,9.15,0,0,1,4.84-1.3c4.5,0,5.59,3.07,5.59,6v5.5a20.94,20.94,0,0,0,.24,3.52Zm-.39-7.5c-2.92-.07-6.23.45-6.23,3.31a2.36,2.36,0,0,0,2.52,2.55,3.64,3.64,0,0,0,3.55-2.46,2.56,2.56,0,0,0,.16-.85Z"/> <path class="cls-4" d="M410,171.08h1.28c2.25,0,3.77-1,3.77-2.4s-1.19-2.13-2.86-2.13a7.11,7.11,0,0,0-3.56,1l-.67-1.65a9.38,9.38,0,0,1,4.9-1.33c2.25,0,5,1,5,3.86,0,1.82-1.67,3-3.31,3.34v.06c2.19.18,4,1.52,4,3.68,0,3.19-3.25,4.38-6.35,4.38a10.06,10.06,0,0,1-4.77-1.19l.7-1.79a8.43,8.43,0,0,0,3.89,1c2.22,0,3.61-1.06,3.61-2.52,0-2-2.06-2.52-4.28-2.52H410Z"/> <path class="cls-4" d="M435.16,172.15c0,5.44-3.77,7.81-7.33,7.81-4,0-7.05-2.92-7.05-7.57,0-4.93,3.22-7.81,7.3-7.81S435.16,167.65,435.16,172.15Zm-11.67.15c0,3.22,1.85,5.65,4.46,5.65s4.47-2.4,4.47-5.71c0-2.5-1.24-5.66-4.4-5.66S423.49,169.5,423.49,172.3Z"/> <path class="cls-4" d="M438.47,165.09a31.73,31.73,0,0,1,4.68-.33c2.46,0,6.54.39,6.54,3.68a3.48,3.48,0,0,1-3.07,3.31v.06c2.15.31,3.74,1.52,3.74,3.65,0,3.86-4.87,4.35-7.76,4.35-1.64,0-3.34-.13-4.13-.19ZM441,177.86a16.45,16.45,0,0,0,2.16.12c1.8,0,4.47-.42,4.47-2.55s-2.13-2.59-4.68-2.59H441Zm0-6.78h2c2,0,4-.58,4-2.31,0-1.46-1.27-2.16-4-2.16a16.78,16.78,0,0,0-2.07.13Z"/> <path class="cls-4" d="M461.87,179.62l-.21-1.85h-.09a5.49,5.49,0,0,1-4.5,2.19,4.19,4.19,0,0,1-4.5-4.23c0-3.55,3.16-5.5,8.85-5.47V170c0-1.22-.34-3.41-3.34-3.41a7.31,7.31,0,0,0-3.83,1.1l-.61-1.77a9.12,9.12,0,0,1,4.83-1.3c4.5,0,5.59,3.07,5.59,6v5.5a19.87,19.87,0,0,0,.25,3.52Zm-.39-7.5c-2.92-.07-6.23.45-6.23,3.31a2.36,2.36,0,0,0,2.52,2.55,3.66,3.66,0,0,0,3.56-2.46,2.82,2.82,0,0,0,.15-.85Z"/> <path class="cls-4" d="M471,164.91v5.93h7v-5.93h2.65v14.71H478V173h-7v6.65h-2.64V164.91Z"/> <path class="cls-4" d="M487.43,164.91v6.2c0,2.34,0,3.8-.15,5.9l.09,0c.89-1.79,1.4-2.83,2.38-4.53l4.58-7.6h3.13v14.71h-2.55v-6.23c0-2.4.06-3.65.18-6H495c-.94,1.89-1.58,3.07-2.43,4.56-1.4,2.28-3,5.11-4.59,7.69h-3.07V164.91Z"/> <path class="cls-4" d="M504.27,164.91v6.2c0,2.34,0,3.8-.15,5.9l.09,0c.88-1.79,1.4-2.83,2.37-4.53l4.59-7.6h3.13v14.71h-2.55v-6.23c0-2.4.06-3.65.18-6h-.09c-.94,1.89-1.58,3.07-2.43,4.56-1.4,2.28-3,5.11-4.59,7.69h-3.07V164.91Z"/> <path class="cls-4" d="M518,178a1.79,1.79,0,0,1,1.82-1.91A1.92,1.92,0,1,1,518,178Z"/> <path class="cls-4" d="M546.28,159.14v20.48h-2.65V161.36h-9.51v18.26h-2.65V159.14Z"/> <path class="cls-4" d="M564.12,172.15c0,5.44-3.77,7.81-7.33,7.81-4,0-7-2.92-7-7.57,0-4.93,3.22-7.81,7.3-7.81S564.12,167.65,564.12,172.15Zm-11.67.15c0,3.22,1.85,5.65,4.46,5.65s4.47-2.4,4.47-5.71c0-2.5-1.24-5.66-4.41-5.66S552.45,169.5,552.45,172.3Z"/> <path class="cls-4" d="M568.71,171.08H570c2.25,0,3.77-1,3.77-2.4s-1.18-2.13-2.85-2.13a7.08,7.08,0,0,0-3.56,1l-.67-1.65a9.35,9.35,0,0,1,4.89-1.33c2.25,0,5,1,5,3.86,0,1.82-1.67,3-3.31,3.34v.06c2.18.18,4,1.52,4,3.68,0,3.19-3.25,4.38-6.35,4.38a10.1,10.1,0,0,1-4.78-1.19l.7-1.79a8.5,8.5,0,0,0,3.89,1c2.22,0,3.62-1.06,3.62-2.52,0-2-2.07-2.52-4.29-2.52h-1.33Z"/> <path class="cls-4" d="M583.17,164.91v5.93h7v-5.93h2.64v14.71h-2.64V173h-7v6.65h-2.64V164.91Z"/> <path class="cls-4" d="M605.33,179.62l-.21-1.85H605a5.49,5.49,0,0,1-4.5,2.19,4.19,4.19,0,0,1-4.5-4.23c0-3.55,3.16-5.5,8.85-5.47V170c0-1.22-.34-3.41-3.35-3.41a7.33,7.33,0,0,0-3.83,1.1l-.61-1.77a9.15,9.15,0,0,1,4.84-1.3c4.5,0,5.59,3.07,5.59,6v5.5a20.94,20.94,0,0,0,.24,3.52Zm-.39-7.5c-2.92-.07-6.23.45-6.23,3.31a2.36,2.36,0,0,0,2.52,2.55,3.64,3.64,0,0,0,3.55-2.46,2.56,2.56,0,0,0,.16-.85Z"/> <path class="cls-4" d="M614.48,164.91v6.38h.64l5.53-6.38h3.25l-6.41,6.66c2.37.24,3.8,1.82,5,4.47a33.27,33.27,0,0,0,1.58,3.58h-2.79a19.36,19.36,0,0,1-1.37-3c-1-2.37-2.37-3.46-4.86-3.46h-.52v6.47h-2.65V164.91Z"/> <path class="cls-4" d="M639.52,172.15c0,5.44-3.77,7.81-7.32,7.81-4,0-7.05-2.92-7.05-7.57,0-4.93,3.22-7.81,7.29-7.81C636.67,164.58,639.52,167.65,639.52,172.15Zm-11.67.15c0,3.22,1.86,5.65,4.47,5.65s4.47-2.4,4.47-5.71c0-2.5-1.25-5.66-4.41-5.66S627.85,169.5,627.85,172.3Z"/> <path class="cls-4" d="M643.05,164.91h3.28l2.68,7.42c.36,1.09,1,2.89,1.33,4h.07c.33-1.09,1.15-3.43,1.73-5l2.37-6.42h3.31l1,14.71H656.3l-.33-7c-.09-1.58-.22-3.46-.28-5.26h-.09c-.39,1.34-.79,2.53-1.61,4.78l-2.82,7.41h-1.95l-2.61-7.26c-.46-1.4-1.1-3.53-1.46-4.9H645c-.07,1.74-.16,3.68-.25,5.29l-.36,7H642Z"/> <path class="cls-4" d="M664.9,164.91v5a14,14,0,0,1,2.43-.16c3.32,0,6.81,1,6.81,5a4.14,4.14,0,0,1-1.55,3.37c-1.61,1.37-4.22,1.7-6.38,1.7a36.79,36.79,0,0,1-4-.21V164.91Zm0,12.86a15.79,15.79,0,0,0,2,.12c2,0,4.59-.67,4.59-3.13s-2.68-3.1-4.65-3.1a12.78,12.78,0,0,0-1.92.15Z"/> <path class="cls-4" d="M683.66,170.41v2h-7.51v-2Z"/> <path class="cls-4" d="M332.37,201.38v2.13h-4.59V216.1h-2.65V203.51h-4.59v-2.13Z"/> <path class="cls-4" d="M335.8,209.23c.06,3.61,2.37,5.1,5.05,5.1a9.59,9.59,0,0,0,4.07-.76l.46,1.92a12.08,12.08,0,0,1-4.9.91c-4.53,0-7.23-3-7.23-7.42s2.61-7.93,6.9-7.93c4.8,0,6.08,4.23,6.08,6.93a10.36,10.36,0,0,1-.09,1.25Zm7.84-1.92c0-1.7-.7-4.34-3.71-4.34-2.7,0-3.89,2.49-4.1,4.34Z"/> <path class="cls-4" d="M360,215.55a9.94,9.94,0,0,1-4.23.85c-4.44,0-7.32-3-7.32-7.51a7.47,7.47,0,0,1,7.9-7.81,9,9,0,0,1,3.71.76l-.61,2.07a6.15,6.15,0,0,0-3.1-.7c-3.38,0-5.2,2.49-5.2,5.56,0,3.41,2.19,5.5,5.11,5.5a7.5,7.5,0,0,0,3.28-.73Z"/> <path class="cls-4" d="M365.74,201.38v5a15.08,15.08,0,0,1,2.43-.15c3.31,0,6.81,1,6.81,4.95a4.18,4.18,0,0,1-1.55,3.38c-1.61,1.36-4.23,1.7-6.38,1.7a37.14,37.14,0,0,1-4-.21V201.38Zm0,12.86a15.6,15.6,0,0,0,2,.12c2,0,4.59-.67,4.59-3.13s-2.67-3.1-4.65-3.1a12.75,12.75,0,0,0-1.91.15Z"/> <path class="cls-4" d="M395.22,215.55a9.93,9.93,0,0,1-4.22.85c-4.44,0-7.33-3-7.33-7.51a7.47,7.47,0,0,1,7.9-7.81,9,9,0,0,1,3.71.76l-.61,2.07a6.12,6.12,0,0,0-3.1-.7c-3.37,0-5.19,2.49-5.19,5.56,0,3.41,2.18,5.5,5.1,5.5a7.5,7.5,0,0,0,3.28-.73Z"/> <path class="cls-4" d="M415.49,206.49h-8v7.39h8.88v2.22H404.88V195.61H416v2.22h-8.42v6.47h8Z"/> <path class="cls-4" d="M432.33,194.52V212.3c0,1.3,0,2.79.12,3.8h-2.4l-.12-2.56h-.06a5.44,5.44,0,0,1-5,2.89c-3.55,0-6.29-3-6.29-7.48,0-4.89,3-7.9,6.6-7.9a4.91,4.91,0,0,1,4.44,2.25h.06v-8.78Zm-2.67,12.85a4.74,4.74,0,0,0-.12-1.12,4,4,0,0,0-3.87-3.1c-2.76,0-4.4,2.43-4.4,5.68,0,3,1.46,5.44,4.34,5.44a4,4,0,0,0,3.93-3.19,4.67,4.67,0,0,0,.12-1.15Z"/> <path class="cls-4" d="M440.75,197.86h-6.23v-2.25h15.17v2.25h-6.26V216.1h-2.68Z"/> <path class="cls-4" d="M451.21,209.23c.06,3.61,2.37,5.1,5,5.1a9.65,9.65,0,0,0,4.08-.76l.45,1.92a12,12,0,0,1-4.89.91c-4.53,0-7.24-3-7.24-7.42s2.62-7.93,6.9-7.93c4.81,0,6.08,4.23,6.08,6.93a10.36,10.36,0,0,1-.09,1.25Zm7.84-1.92c0-1.7-.7-4.34-3.71-4.34-2.71,0-3.89,2.49-4.1,4.34Z"/> <path class="cls-4" d="M475.43,215.55a9.93,9.93,0,0,1-4.22.85c-4.44,0-7.33-3-7.33-7.51a7.47,7.47,0,0,1,7.9-7.81,9,9,0,0,1,3.71.76l-.61,2.07a6.12,6.12,0,0,0-3.1-.7c-3.37,0-5.19,2.49-5.19,5.56,0,3.41,2.18,5.5,5.1,5.5a7.5,7.5,0,0,0,3.28-.73Z"/> <path class="cls-4" d="M478.56,194.52h2.68v9.17h.06a5,5,0,0,1,1.91-1.88,5.46,5.46,0,0,1,2.74-.76c2,0,5.13,1.22,5.13,6.29v8.76h-2.67v-8.45c0-2.37-.88-4.38-3.41-4.38a3.83,3.83,0,0,0-3.58,2.67,3.3,3.3,0,0,0-.18,1.28v8.88h-2.68Z"/> <path class="cls-4" d="M501.63,206.89v2h-7.51v-2Z"/> <path class="cls-4" d="M516.86,201.38V216.1h-2.68V203.51h-6.84V216.1H504.7V201.38Z"/> <path class="cls-4" d="M521.2,206.19c0-1.89-.06-3.41-.12-4.81h2.4l.12,2.53h.06a5.78,5.78,0,0,1,5.23-2.86c3.56,0,6.23,3,6.23,7.48,0,5.29-3.22,7.9-6.68,7.9a5.15,5.15,0,0,1-4.53-2.31h-.06v8H521.2Zm2.65,3.92a6.06,6.06,0,0,0,.12,1.09,4.12,4.12,0,0,0,4,3.13c2.83,0,4.47-2.31,4.47-5.68,0-3-1.55-5.47-4.38-5.47a4.26,4.26,0,0,0-4,3.31,4.44,4.44,0,0,0-.18,1.1Z"/> <path class="cls-4" d="M551.81,208.62c0,5.44-3.77,7.81-7.33,7.81-4,0-7.05-2.92-7.05-7.57,0-4.92,3.22-7.81,7.3-7.81S551.81,204.12,551.81,208.62Zm-11.67.15c0,3.22,1.85,5.65,4.47,5.65s4.46-2.4,4.46-5.71c0-2.49-1.24-5.65-4.4-5.65S540.14,206,540.14,208.77Z"/> <path class="cls-4" d="M566.37,201.38v12.71l1.52,0-.15,6.66h-2.1l-.12-4.68H555.33l-.12,4.68h-2.09l-.13-6.66,1.25,0a11.32,11.32,0,0,0,1.46-3,19.33,19.33,0,0,0,.85-5.87v-3.83Zm-7.45,4.47a19.33,19.33,0,0,1-.76,5.47,14,14,0,0,1-1.18,2.74h6.77V203.42h-4.83Z"/> <path class="cls-4" d="M572,201.38l3.22,8.7c.34,1,.7,2.13.94,3h.07c.27-.88.57-2,.94-3.07l2.92-8.64h2.82l-4,10.49c-1.91,5-3.22,7.63-5,9.21a7.19,7.19,0,0,1-3.29,1.73l-.67-2.25a7,7,0,0,0,2.34-1.3,8,8,0,0,0,2.25-3,1.85,1.85,0,0,0,.22-.64,2.22,2.22,0,0,0-.19-.7L569,201.38Z"/> <path class="cls-4" d="M588,201.38v6.39h.64l5.53-6.39h3.25L591,208c2.37.24,3.8,1.83,4.95,4.47a32.27,32.27,0,0,0,1.58,3.59H594.7a18.88,18.88,0,0,1-1.37-3c-1-2.37-2.37-3.47-4.87-3.47H588v6.48H585.3V201.38Z"/> <path class="cls-4" d="M610.32,201.38v2.13h-4.59V216.1h-2.65V203.51h-4.59v-2.13Z"/> <path class="cls-4" d="M620.59,216.1l-.21-1.86h-.09a5.47,5.47,0,0,1-4.5,2.19,4.19,4.19,0,0,1-4.5-4.22c0-3.56,3.16-5.51,8.85-5.48v-.3c0-1.22-.34-3.4-3.35-3.4a7.33,7.33,0,0,0-3.83,1.09l-.6-1.76a9.09,9.09,0,0,1,4.83-1.31c4.5,0,5.59,3.07,5.59,6v5.5a21.06,21.06,0,0,0,.24,3.53Zm-.39-7.51c-2.92-.06-6.23.45-6.23,3.31a2.36,2.36,0,0,0,2.52,2.55A3.64,3.64,0,0,0,620,212a2.51,2.51,0,0,0,.16-.85Z"/> <path class="cls-4" d="M627.25,201.38h3.28l2.68,7.42c.36,1.1,1,2.89,1.33,4h.06c.34-1.09,1.16-3.43,1.74-5l2.37-6.42H642l1,14.72H640.5l-.33-7c-.1-1.58-.22-3.46-.28-5.25h-.09c-.39,1.33-.79,2.52-1.61,4.77L635.36,216h-1.94l-2.62-7.26c-.45-1.4-1.09-3.53-1.46-4.89h-.12c-.06,1.73-.15,3.67-.24,5.29l-.36,7h-2.47Z"/> <path class="cls-4" d="M649,201.38v6.21c0,2.34,0,3.79-.15,5.89l.09,0c.88-1.79,1.4-2.82,2.37-4.53l4.59-7.6H659V216.1h-2.55v-6.23c0-2.41.06-3.65.18-6h-.09c-.94,1.88-1.58,3.07-2.43,4.56-1.4,2.28-3,5.1-4.59,7.69h-3.07V201.38Z"/> <path class="cls-4" d="M324.89,237.86v6.2c0,2.34,0,3.8-.15,5.9l.09,0c.88-1.8,1.4-2.83,2.37-4.53l4.59-7.6h3.13v14.71h-2.55v-6.23c0-2.4.06-3.65.18-6h-.09c-.94,1.88-1.58,3.07-2.43,4.56-1.4,2.28-3,5.11-4.59,7.69h-3.07V237.86Z"/> <path class="cls-4" d="M348.17,237.86v6.2c0,2.34,0,3.8-.15,5.9l.09,0c.88-1.8,1.4-2.83,2.37-4.53l4.59-7.6h3.13v14.71h-2.55v-6.23c0-2.4.06-3.65.18-6h-.09c-.94,1.88-1.58,3.07-2.43,4.56-1.4,2.28-3,5.11-4.59,7.69h-3.07V237.86Z"/> <path class="cls-4" d="M363.79,237.86l2.1,3.16c.55.82,1,1.58,1.49,2.4h.09c.49-.88,1-1.64,1.46-2.43l2.07-3.13h2.88l-5,7.11,5.17,7.6h-3l-2.16-3.31c-.58-.85-1.07-1.68-1.58-2.56h-.06c-.49.88-1,1.67-1.55,2.56l-2.13,3.31h-2.95l5.23-7.51-5-7.2Z"/> <path class="cls-4" d="M393.55,252a9.79,9.79,0,0,1-4.23.85c-4.43,0-7.32-3-7.32-7.5a7.48,7.48,0,0,1,7.9-7.82,9,9,0,0,1,3.71.76l-.61,2.07a6.25,6.25,0,0,0-3.1-.7c-3.37,0-5.2,2.49-5.2,5.56,0,3.41,2.19,5.51,5.11,5.51a7.65,7.65,0,0,0,3.28-.73Z"/> <path class="cls-4" d="M409.81,245.09c0,5.44-3.77,7.81-7.33,7.81-4,0-7.05-2.91-7.05-7.56,0-4.93,3.22-7.82,7.3-7.82S409.81,240.59,409.81,245.09Zm-11.67.15c0,3.23,1.85,5.66,4.46,5.66s4.47-2.4,4.47-5.72c0-2.49-1.24-5.65-4.4-5.65S398.14,242.45,398.14,245.24Z"/> <path class="cls-4" d="M414.4,244h1.27c2.25,0,3.77-1,3.77-2.4s-1.18-2.13-2.85-2.13a7.07,7.07,0,0,0-3.56,1l-.67-1.64a9.36,9.36,0,0,1,4.89-1.34c2.25,0,5,1,5,3.86,0,1.83-1.67,3-3.31,3.35v.06c2.19.18,4,1.52,4,3.68,0,3.19-3.25,4.37-6.35,4.37a10.09,10.09,0,0,1-4.78-1.18l.7-1.8a8.5,8.5,0,0,0,3.89,1c2.22,0,3.62-1.07,3.62-2.53,0-2-2.07-2.52-4.28-2.52H414.4Z"/> <path class="cls-4" d="M437.68,237.86v12.7l1.52,0-.15,6.66H437l-.12-4.68H426.65l-.13,4.68h-2.09l-.12-6.66,1.24,0a11.18,11.18,0,0,0,1.46-3,19.32,19.32,0,0,0,.85-5.86v-3.83Zm-7.45,4.47a19.38,19.38,0,0,1-.76,5.47,14.13,14.13,0,0,1-1.18,2.73h6.78V239.89h-4.84Z"/> <path class="cls-4" d="M450.54,252.57l-.22-1.85h-.09a5.49,5.49,0,0,1-4.5,2.18,4.18,4.18,0,0,1-4.49-4.22c0-3.56,3.16-5.5,8.84-5.47v-.31c0-1.21-.33-3.4-3.34-3.4a7.3,7.3,0,0,0-3.83,1.09l-.61-1.76a9.14,9.14,0,0,1,4.83-1.31c4.5,0,5.6,3.07,5.6,6V249a21,21,0,0,0,.24,3.53Zm-.4-7.51c-2.92-.06-6.23.46-6.23,3.31a2.37,2.37,0,0,0,2.52,2.56,3.67,3.67,0,0,0,3.56-2.46,2.88,2.88,0,0,0,.15-.86Z"/> <path class="cls-4" d="M466.77,237.86V240h-4.59v12.58h-2.65V240h-4.59v-2.13Z"/> <path class="cls-4" d="M470.2,245.7c.06,3.62,2.37,5.11,5.05,5.11a9.75,9.75,0,0,0,4.07-.76l.46,1.91a11.91,11.91,0,0,1-4.9.91c-4.53,0-7.23-3-7.23-7.41s2.61-7.94,6.9-7.94c4.8,0,6.08,4.23,6.08,6.93a10.19,10.19,0,0,1-.09,1.25Zm7.84-1.91c0-1.71-.69-4.35-3.7-4.35-2.71,0-3.89,2.49-4.11,4.35Z"/> <path class="cls-4" d="M495.12,237.86v14.71h-2.64V240h-5v3.83c0,4.13-.4,6.9-2.32,8.14a4.24,4.24,0,0,1-2.91.91l-.28-2.09a3.43,3.43,0,0,0,1.46-.61c1.37-1,1.52-3.07,1.52-6.35v-5.93Z"/> <path class="cls-4" d="M510.35,252.57h-2.64V246.4h-2a3.47,3.47,0,0,0-2.46.82c-1.09.88-1.49,2.7-2.07,4.13a8.16,8.16,0,0,1-.61,1.22h-2.85a9.69,9.69,0,0,0,.91-1.67c.64-1.43,1-3.35,2.31-4.44a3.46,3.46,0,0,1,1.67-.85v-.09c-1.91-.22-3.89-1.4-3.89-3.65a3.54,3.54,0,0,1,1.95-3.19,10.27,10.27,0,0,1,4.92-1,41.42,41.42,0,0,1,4.74.3Zm-2.64-12.95a15.18,15.18,0,0,0-2.22-.15c-1.82,0-4,.52-4,2.55s2.34,2.56,3.92,2.56h2.28Z"/> <path class="cls-4" d="M514.85,237.86h3.28l2.68,7.41c.36,1.1,1,2.89,1.33,4h.07c.33-1.1,1.15-3.44,1.73-5l2.37-6.41h3.31l1,14.71H528.1l-.33-7c-.09-1.58-.22-3.47-.28-5.26h-.09c-.39,1.34-.79,2.52-1.61,4.77L523,252.48H521l-2.61-7.27c-.46-1.39-1.1-3.52-1.46-4.89h-.12c-.07,1.73-.16,3.68-.25,5.29l-.36,7h-2.47Z"/> <path class="cls-4" d="M536.58,237.86v6.2c0,2.34,0,3.8-.15,5.9l.09,0c.88-1.8,1.4-2.83,2.37-4.53l4.59-7.6h3.13v14.71h-2.55v-6.23c0-2.4.06-3.65.18-6h-.09c-.94,1.88-1.58,3.07-2.43,4.56-1.4,2.28-3,5.11-4.59,7.69h-3.07V237.86Z"/> <path class="cls-4" d="M550.32,251a1.8,1.8,0,0,1,1.82-1.92,1.92,1.92,0,1,1-1.82,1.92Z"/> <g class="cls-5"> <g class="cls-2"> <g class="cls-6"> <g class="cls-2"> <path class="cls-7" d="M210,31l-.29,103.24c-1.59,1.72-3.07,3.44-4.43,5.18l.29-103.24q2-2.59,4.43-5.18"/> <path class="cls-8" d="M205.58,36.18l-.29,103.24a66,66,0,0,0-5.7,8.45l.29-103.24a68.13,68.13,0,0,1,5.7-8.45"/> <path class="cls-9" d="M199.88,44.63l-.29,103.24a54.25,54.25,0,0,0-3.55,7.56l.3-103.23a54.28,54.28,0,0,1,3.54-7.57"/> <path class="cls-10" d="M196.34,52.2,196,155.43a47.08,47.08,0,0,0-2.08,7.24l.3-103.24a46.18,46.18,0,0,1,2.08-7.23"/> <path class="cls-11" d="M194.26,59.43,194,162.67a44.12,44.12,0,0,0-.83,7.31l.29-103.23a43.21,43.21,0,0,1,.84-7.32"/> <path class="cls-12" d="M193.42,66.75,193.13,170c0,.38,0,.76,0,1.14l.29-103.23c0-.38,0-.76,0-1.14"/> </g> </g> </g> <polygon class="cls-13" points="195.25 80.78 194.96 184.01 191.21 184.37 191.5 81.13 195.25 80.78"/> <g class="cls-2"> <g class="cls-14"> <g class="cls-2"> <path class="cls-15" d="M191.5,81.13l-.29,103.24a47.47,47.47,0,0,1-1.91-13.27l.3-103.23a47,47,0,0,0,1.9,13.26"/> </g> </g> </g> <path class="cls-16" d="M210,31c-14.74,15.89-19.7,32.65-14.76,49.78l-3.75.35c-5.08-17.62,0-34.84,15.16-51.17Z"/> </g> <g class="cls-5"> <g class="cls-2"> <g class="cls-17"> <g class="cls-2"> <path class="cls-9" d="M157.35,37.25l-.3,103.24-.13.36.29-103.23c0-.12.09-.24.14-.37"/> <path class="cls-10" d="M157.21,37.62l-.29,103.23a55.72,55.72,0,0,0-2.5,8.65l.29-103.23a56.51,56.51,0,0,1,2.5-8.65"/> <path class="cls-11" d="M154.71,46.27l-.29,103.23a48.62,48.62,0,0,0-.94,8.13l.29-103.23a49.44,49.44,0,0,1,.94-8.13"/> <path class="cls-12" d="M153.77,54.4l-.29,103.23c0,.41,0,.82,0,1.22l.29-103.24c0-.4,0-.81,0-1.21"/> </g> </g> </g> <g class="cls-2"> <g class="cls-18"> <g class="cls-2"> <path class="cls-15" d="M162.23,88.49l-.29,103.23c-8.21-10.47-12.31-21.47-12.28-32.88L150,55.61C149.92,67,154,78,162.23,88.49"/> </g> </g> </g> <path class="cls-16" d="M157.35,37.25c-6.77,17.71-4,34.64,8.34,50.33l-3.46.91C149.58,72.35,146.69,55,153.64,36.77Z"/> <polygon class="cls-19" points="165.69 87.58 165.4 190.82 161.94 191.72 162.23 88.49 165.69 87.58"/> </g> <g class="cls-20"> <path class="cls-16" d="M99.84,54.57c2,18.22,12.66,34.1,31.55,47.22l-2.91,1.41C109.06,89.7,98.15,73.39,96.06,54.72Z"/> <polygon class="cls-21" points="131.39 101.79 131.1 205.02 128.19 206.43 128.48 103.2 131.39 101.79"/> <g class="cls-2"> <g class="cls-22"> <g class="cls-2"> <path class="cls-15" d="M128.48,103.2l-.29,103.23c-19.42-13.49-30.33-29.8-32.43-48.48l.3-103.23c2.09,18.67,13,35,32.42,48.48"/> </g> </g> </g> </g> <g class="cls-20"> <path class="cls-16" d="M44.44,79.43c6.2,16.84,19.13,31,38.46,42.18q1.91,1.1,3.89,2.16l-2.56,1.62c-1.36-.73-2.71-1.47-4-2.24-19.86-11.46-33.13-26-39.47-43.27Z"/> <polygon class="cls-21" points="86.8 123.77 86.5 227.01 83.94 228.63 84.23 125.39 86.8 123.77"/> <g class="cls-2"> <g class="cls-23"> <g class="cls-2"> <path class="cls-15" d="M84.23,125.39l-.29,103.24c-1.37-.74-2.72-1.48-4-2.24-19.86-11.46-33.13-26-39.47-43.27l.29-103.24c6.34,17.27,19.61,31.81,39.47,43.27,1.32.77,2.67,1.51,4,2.24"/> </g> </g> </g> </g> <path d="M127.83,270.28l1.33.41a2.23,2.23,0,0,1,1.19,1.06,1.74,1.74,0,0,1-.34,2c-.86,1.94-1.71,4-3,4-1.63,0-.76-1.4-.41-2.27a16.73,16.73,0,0,0,.83-3,.92.92,0,0,0-.38-.78l-.62-1.11Z"/> <path d="M120.25,280.66l-.24,1.59a2.63,2.63,0,0,1-.2,1.45,1.72,1.72,0,0,1-1.1.75c-1.46,1.17-2.55,1.72-3.62,1.57-.88-.25-1.14-.64-1-1.11a10.35,10.35,0,0,1,2.51-2,6,6,0,0,0,1.57-1.47l.49-1.29Z"/> <path class="cls-24" d="M120.13,264c.22.54.43,1.12.63,1.73,0,.08,0,.16.08.25,1,.8,1.91,1.59,2.8,2.41.18.15.35.31.52.47a28.68,28.68,0,0,1,3.11,3.39c.3.29-.6,2.91.11,2.91,1.16,0,2.27-3.72,1.54-4.46a15,15,0,0,1-2.15-3.14,18.59,18.59,0,0,0-1.45-2.36c-.11-.14-.22-.26-.33-.38a3.1,3.1,0,0,0-1.14-.78l1.22-7.59-2.61-2.82-.39-.42-3.56.86C117.7,258.79,119,261.07,120.13,264Z"/> <path class="cls-24" d="M116,283.93c.18.6,2.18.05,4-1.68,1.67-5,4.2-8,3-12.67l.31-.55.37-.67c.6-1.1,1.17-2.16,1.68-3.19.08-.17.16-.34.25-.5a29.22,29.22,0,0,0,1.77-4.42c1.6-2.9,1.1-5-.68-6.66-.15-.14-.31-.27-.48-.41l-3.72.42-3.95.44c.8,2.33,1.75,4.35,3.45,4.79a24.13,24.13,0,0,0-1.83,5.14c-.16.64-.3,1.29-.43,2s-.27,1.56-.4,2.39v0c-.15,1,.14,2,0,3.49a44.28,44.28,0,0,1-1.3,9.78C117.15,282.8,115.93,283.56,116,283.93Z"/> <path class="cls-25" d="M119.3,268.35a4.93,4.93,0,0,0,4,.68l.37-.67c.18.15.35.31.52.47a4.94,4.94,0,0,0,2.61-1.3,18.59,18.59,0,0,0-1.45-2.36c.08-.17.16-.34.25-.5l-.58.12-4.23.91-1.06.23c-.14.77-.27,1.56-.4,2.39Z"/> <path class="cls-26" d="M120.28,238.42a2.65,2.65,0,0,1,2.66-.26l6.49,3.77a2.62,2.62,0,0,1,1.09,2.4v4a6.08,6.08,0,0,1-2.75,4.75l-1.31.75L120,250l0-11.41Z"/> <path class="cls-27" d="M116,264.15a6.06,6.06,0,0,0,4.38,3.15,9.85,9.85,0,0,0,2.48.18c2.63-.14,5.09-1.29,5.71-2.9-1.61-4,1.92-7.21-1.58-10.63h-.69l-7.82.08C117,259,118,260.35,116,264.15Z"/> <path class="cls-28" d="M122.88,267.48c2.64-.14,5.1-1.29,5.72-2.9-1.61-4,1.92-7.21-1.58-10.63h-.69l-3.3,2.1c1.81-.23,4,.88,4.19,2.81C127.41,263.82,126.54,265.93,122.88,267.48Z"/> <path class="cls-24" d="M121,240c.33,1.61-1.14,4-2.07,6.89a15.34,15.34,0,0,1-3.14,5.87l-1-.24c.79-2.36,1-4,1.88-6l.61-4.77C117.59,239.16,120,238.27,121,240Z"/> <path class="cls-24" d="M133.87,255.37l.61,1,.43,1,.08.83c0,.19-.13.33-.17.1l.15.89c.06.25-.17.37-.26.15l-.33-1.09.06,1.69c0,.25-.23.4-.32.09l-.31-1.71-.05,1.05-.18.78c-.09.28-.39.3-.39,0l.09-1s-.09-.7-.16-1a6.58,6.58,0,0,0-.41-.53l-.8,1.12c-.24.24-.49.05-.32-.28l.6-1.52.49-.78,0-.07-.1-.58,1.08-.44Z"/> <path d="M122.77,235.92a3.33,3.33,0,0,1,3.85,3,5,5,0,0,1-.79,4.08,14.33,14.33,0,0,1-1.91,2.12c-1-4.06.93-6.53.15-7.71a2.76,2.76,0,0,0-1.3-.91Z"/> <path class="cls-29" d="M118.82,249.42a9.12,9.12,0,0,1-.31,4.62,2.29,2.29,0,0,0,2.13,2c2.9.46,5.27-.5,6.38-2.05-1.08-1-1.07-2.41-.44-3.94a8.87,8.87,0,0,0,1-2.77,13.86,13.86,0,0,0,.09-3.88A17.16,17.16,0,0,0,123.7,240c-.26-.15-.54-.28-.84-.42a6.19,6.19,0,0,0-1.1-.37,4.8,4.8,0,0,0-3.17.26,3,3,0,0,0-.86,2.95,4,4,0,0,0,.15.45,6.78,6.78,0,0,1-.4,2.06,8,8,0,0,0-.75,2.57C116.74,248.65,117.51,249.35,118.82,249.42Z"/> <path class="cls-30" d="M118.51,254a2.29,2.29,0,0,0,2.13,2c2.91.46,5.27-.5,6.38-2.05-1.08-1-1.07-2.41-.44-3.94a8.87,8.87,0,0,0,1-2.77h-1.69c-1,2.25-1.35,4.45-3.54,4.12-1.52-.24-2-1.49-1.71-3a2.76,2.76,0,0,1-1.78,1.09A9.24,9.24,0,0,1,118.51,254Z"/> <path class="cls-24" d="M127.64,243.36c1.41.86,2.9,3.37,4.39,6a15.86,15.86,0,0,1,1.95,6.38l-1.1.9c-1-2.23-1.94-4.31-2.85-6.33l-3.3-3.1C125.51,246.49,125.63,242.94,127.64,243.36Z"/> <path class="cls-24" d="M115.79,252.83l.5,1.15a6.08,6.08,0,0,0,.66,1.55c.1.36-.08.37-.43.18l-.71-1.05a1.84,1.84,0,0,0-.46.81l.2,1.62c0,.31-.18.28-.34.1l-.28-1.46,0,1.57c-.11.13-.2.08-.27-.13l-.1-.45c-.08.16-.16.13-.24,0,0,0-.06-1.9-.06-1.93l.62-2.2.24-.47.94.26Z"/> <path class="cls-26" d="M126.6,252.39l.81-.6c-2.63-3.53-2.78-6.36-2.1-7.71a2.33,2.33,0,0,1,2.24-1.31v-1a3.33,3.33,0,0,0-3.14,1.86C123.33,245.78,124.17,249.13,126.6,252.39Z"/> <path class="cls-26" d="M117.48,245a8.75,8.75,0,0,0,1-1.69c.8-1.65,1.55-3.22,5.24-3.15v-1a9.65,9.65,0,0,0-1.95.13,5,5,0,0,0-4,3.21A7.72,7.72,0,0,1,117.48,245Z"/> <path class="cls-24" d="M124.75,241.15a5.8,5.8,0,0,1-.81-2.54l-2.87.31.09,2.06C120.17,244,124.52,243.07,124.75,241.15Z"/> <path class="cls-25" d="M122.88,239.29c-.15,1.71-.68,4.27-2.24,3.51-.9-.44-.62-1.87-.47-3.1Z"/> <path class="cls-24" d="M124,239.14c1.54-2.76.64-5.09-1.57-5.54a3.18,3.18,0,0,0-3.93,3.4c0,2.23.6,3.79,1.45,3.9a2.44,2.44,0,0,0,2.77-1.41Z"/> <path d="M124.08,239.49a.62.62,0,0,1-.81-.47l-.12-.7-.88.27a.87.87,0,0,1-.86-.2,10.22,10.22,0,0,0-2.84-2.23c.06-1.65,1.25-2.76,3.23-2.8,2.42.13,3.23,1.52,3.19,3.24A6.27,6.27,0,0,1,124.08,239.49Z"/> <path class="cls-24" d="M122.52,239.34a.84.84,0,0,1,0-.74.73.73,0,0,1,.6-.42.5.5,0,0,1,.45.24.74.74,0,0,1-.06.61,1.28,1.28,0,0,1-.21.4.48.48,0,0,1-.4.17A.5.5,0,0,1,122.52,239.34Z"/> <path class="cls-28" d="M116,264.15a6.06,6.06,0,0,0,4.38,3.15,16.72,16.72,0,0,0,2-6.06,14.63,14.63,0,0,1-2.25,4.5,14.45,14.45,0,0,0,1.53-8.05C121.06,261.82,119.17,266,116,264.15Z"/> <ellipse class="cls-31" cx="181.74" cy="204.66" rx="10.35" ry="5.98"/> <path class="cls-24" d="M181.5,154.24c1.66-.14,2.54,1,3.14,2.64a5.43,5.43,0,0,1-.75,3.3l-2,.89a4.44,4.44,0,0,1-1.79.33c-1.27-.3-1.25-2.51-1.28-4.27C179,155.62,179.55,154.41,181.5,154.24Z"/> <polygon class="cls-24" points="180.61 164.01 180.06 160.94 183.55 159.71 184.64 162.59 180.61 164.01"/> <path class="cls-32" d="M179.78,204.81l.8,1.5a2.22,2.22,0,0,1,.16,2.05c-.59.8-1.78.67-3.05.41-1.61-.49-2.44-.87-3.44-1.17-1.5-.51-1.23-1.71.38-1.83l2.63-.17.87-.08.07-.86Z"/> <path class="cls-32" d="M189.12,201l.87.56a2.51,2.51,0,0,1,.17,2.19c-.68.44-1.39.45-2.57-.21-1.46-1.21-2.06-1.17-2.65-2-.68-1,.32-1.5,1.15-1.38l1.66.23Z"/> <path class="cls-24" d="M181,175.68l.91,6.27c.22.72.45,1.45.69,2.18a38.33,38.33,0,0,0,2.12,5.39,6.61,6.61,0,0,0,.44.73l.66,1.27c.07.52.15,1,.25,1.54.51,2.64,1.36,5.1,1.68,7.3l-.38-.05c-1,.21-1.17.52-.62,1.08a4.43,4.43,0,0,0,1.71.9c.88.16,1.56,0,1.53-.66-.16-4,.13-7.7-.59-10.51a7.37,7.37,0,0,0-.94-2.24l-.47-1.17c0-.33,0-.66.06-1a46.86,46.86,0,0,0-.2-6.46,11.09,11.09,0,0,0-1.72-6.56l-1.78.66-1.55.61Z"/> <path class="cls-24" d="M176.35,206.66l2.51.56a1.52,1.52,0,0,0,1.73-.81c-.67-5,1.34-8.13,0-12.5v-1.73l.51-2.56,1-4.9.54-.59,1.39-1.55-.91-7.62H178l-1,5.8a25.49,25.49,0,0,0-.86,8.32,17.61,17.61,0,0,0,.41,2.7l.22,2,.08.78a81.6,81.6,0,0,1,1,9.62,1.37,1.37,0,0,1-1.14,1.41C175.39,205.79,175,206.22,176.35,206.66Z"/> <path class="cls-33" d="M175.51,168.45a2.49,2.49,0,0,0,1.73,2.32,3,3,0,0,0,.9.15,2.7,2.7,0,0,0,1.45-.41,2.42,2.42,0,0,0,1.19-2.06,2.56,2.56,0,0,0-2.64-2.48,2.75,2.75,0,0,0-1.6.51,2.62,2.62,0,0,0-.68.73A2.41,2.41,0,0,0,175.51,168.45Z"/> <path class="cls-34" d="M176.17,191.64c1.52,1.15,10.52,1.76,12.9-3l-.71-8c-.39-3-.37-4-1.9-6.39-.1-.17-.21-.34-.33-.52-.79-2.29,1-4.15,1.6-7.53a10.22,10.22,0,0,0,.17-1.3,3.41,3.41,0,0,0-.47-2.32,2.37,2.37,0,0,0-2.25-1.07,16.83,16.83,0,0,0-6.7,2.38l-.75.48-1.19,2.15-.12,1-.15,1.14a21.6,21.6,0,0,1,1,2.17,8.14,8.14,0,0,1,.56,4.19c-.36,1.11-.68,2.2-1,3.28A32.21,32.21,0,0,0,176.17,191.64Z"/> <path class="cls-35" d="M184,160.39a4.46,4.46,0,0,0,1-3.18c-.18-1.61-1.09-3.28-3-3.38-2.77-.15-4.11,2-3.17,4.53.89.89,1.53,1.81,2.07,2.36C182.29,161.76,183.28,161.51,184,160.39Z"/> <path class="cls-35" d="M183.66,159.71a8,8,0,0,1,1.78,3c.62,2.69-1.51,6-1.51,6s-1.7-3.69-1.33-5.25a12.74,12.74,0,0,0,.07-3.72Z"/> <path class="cls-24" d="M179.52,158.43c.44.25.37,1.61.37,1.61l-.51.36-.25-1.51S179,158.14,179.52,158.43Z"/> <path class="cls-36" d="M177.24,170.77a8.14,8.14,0,0,1,.56,4.19c-.36,1.11-.9,2.2-1.17,3.28,2.84-2.89,7.36-2.5,9.83-4-.1-.17-.21-.34-.33-.52-.79-2.29,1-4.15,1.6-7.53-1.72,4.24-5.69,6.21-8.14,4.35a4.8,4.8,0,0,1-1.57-2.35l-1.6-.7-.56-.25a2.41,2.41,0,0,0-.35,1.24A2.49,2.49,0,0,0,177.24,170.77Z"/> <polygon class="cls-24" points="175.1 166.19 177.1 166.57 177.42 165.68 176.74 164.78 175.64 165.09 175.1 166.19"/> <polygon class="cls-32" points="178.13 169.17 174.26 162.82 170.2 164.79 174.07 171.13 178.13 169.17"/> <polygon class="cls-4" points="173.87 170.38 177.55 168.6 174.18 163.1 170.5 164.88 173.87 170.38"/> <path class="cls-24" d="M174.13,164.46l.74-.14a1.63,1.63,0,0,0,1.16.94l.38.13a3,3,0,0,1,.33-.61,1.26,1.26,0,0,0-.65-1.05l-1.12-.2-1.36.49C173.57,164.32,173.69,164.46,174.13,164.46Z"/> <path class="cls-32" d="M173.7,170.16h.08a.23.23,0,0,0,.18-.28l-1.2-5.59a.24.24,0,1,0-.46.1l1.2,5.59A.23.23,0,0,0,173.7,170.16Z"/> <path class="cls-24" d="M171.18,167.44c0,.21.11.37.11.52s0,.17,0,.28,0,.14,0,.18c0,.36.83.89,1.1,1.05l1.06.51,1.26,1.12.25-.43.62-.94-.95-1.14a3.36,3.36,0,0,0-.08-1.6l-.49-.59-.9-.44.09.39a8,8,0,0,0-.74-.44c-.17-.09-.48-.14-.61,0s0,.24-.09.32-.28.2-.33.3,0,.34,0,.44S171.21,167.21,171.18,167.44Z"/> <polygon class="cls-24" points="173.14 166.08 174.06 166.85 173.21 166.35 173.14 166.08"/> <path class="cls-24" d="M171.26,168.24c0,.07,0,.14,0,.18,0,.36.83.89,1.1,1.05l1.06.51,1.26,1.12.25-.43a5,5,0,0,1-1.31-1.32A2.68,2.68,0,0,1,171.26,168.24Z"/> <path class="cls-24" d="M177.73,164.33c-1.25.61-1.41,1.55-1.41,3.71l-.12,2.23-1.61-1.68c-1-.07-1.29.11-1.18,1.39.59,1.78,1.76,4.36,2.94,5.45.74.69,2-.09,2.44-2l.81-4.83C180.07,166,179.69,163.84,177.73,164.33Z"/> <path class="cls-35" d="M148.34,205a8.26,8.26,0,0,0-.14,2.11c.14.63,1.82,1,1.82,1s2.35,2.22,4.35,2.07c1.18-.1,1.58-.41,1.76-.75a1.1,1.1,0,0,0-.22-1.11c-.23-.33-2.67-1.36-3.28-2.34-.3-.47-.8-1.47-.8-1.47l-.2-1.86-3.24-.14.16,2.2Z"/> <path class="cls-37" d="M145.48,181.68l2.07,10.37A31.43,31.43,0,0,0,148,205c.63,1.7,2.9,1.22,4.31,0a82.21,82.21,0,0,1-.41-11.4l.41-2.71a36.18,36.18,0,0,0,.31-6.63c0-2.7-1.54-8.56-1.54-8.56Z"/> <path class="cls-35" d="M141.2,208.6a6.16,6.16,0,0,0-.27,2.4,2.51,2.51,0,0,0,1.36,1.34,4.21,4.21,0,0,0,3.71,2.47c2.58.06,2.56-1,2.54-1a1.49,1.49,0,0,0-.59-1.08c-.36-.31-2.26-1.83-2.6-2.27a5.49,5.49,0,0,1-.61-1.13l-.12-1.86h-3.47Z"/> <path class="cls-38" d="M147.21,183.91c0,5.25.19,8.36-1.19,11a30.91,30.91,0,0,1-.68,3.53c-.41,1.4-.34,7.51-.17,11.12a2.53,2.53,0,0,1-3.53.61,2.37,2.37,0,0,1-.93-1.29c-.91-5.67-1.53-10.16.72-14.35a43.73,43.73,0,0,1-.41-11.26,11.42,11.42,0,0,1,.75-6,10.26,10.26,0,0,1,.61-1.19l9.33,2.22C150.74,181.68,149.05,183.5,147.21,183.91Z"/> <path class="cls-39" d="M143,194.91c-2.86,2.94-2,8.64-1.31,15.28a2.37,2.37,0,0,1-.93-1.29c-.91-5.67-1.53-10.16.72-14.35a43.73,43.73,0,0,1-.41-11.26,11.42,11.42,0,0,1,.75-6L145,181C141.79,183,141.18,190,143,194.91Z"/> <path class="cls-40" d="M153.91,177.68c-.26.61-.52,1.2-.77,1.76a8.88,8.88,0,0,1-1,2.39c-.14.55.14.57.67.28l1.09-1.62a2.72,2.72,0,0,1,.7,1.25l-.3,2.48c.08.48.27.43.51.16l.44-2.25,0,2.41c.17.21.31.14.43-.19l.14-.69c.12.25.24.2.37,0,0,0,.09-2.91.09-3s-1-3.39-1-3.39l-.36-.72-1.45.4Z"/> <path class="cls-4" d="M149.22,163.75c.51,2,.38,4.34,1.05,7.17.92,2.84,1.35,4.34,2.65,7.56.2.31,2.7-.21,2.62-.54-1.35-6.2-.56-4.17-1.42-6.85-.38-2.05-.41-4.68-.65-7.17-.15-1.64-.77-2.53-1.63-2.91C149.91,160.38,148.13,161.92,149.22,163.75Z"/> <path class="cls-4" d="M151.86,174.51c0,.06,0,.11,0,.16,0,.58-.11,1.2-.18,1.84,0,.26,0,.5-.08.74.26,1.3-1.67,2.39-3.8,3a10.47,10.47,0,0,1-4.86.55,4,4,0,0,1-2.29-2.28l-.38-6.81,0-.57-.68-5.37a14.28,14.28,0,0,1,3.68-3.21c2.58-1.71,4.93-2.44,8.07-1.55C152.3,164.42,152.5,167.68,151.86,174.51Z"/> <path class="cls-41" d="M147.59,164.68l1.19.81s.86-3.09,0-3.9S147.59,164.68,147.59,164.68Z"/> <path class="cls-40" d="M144,162.19l1.47-3.05,3.76,1.88-.53,2.37C147.92,166.14,143.49,164.52,144,162.19Z"/> <path class="cls-42" d="M148.21,166.32V165.1l-.62-.42-.34.79.34,1.07a67.59,67.59,0,0,1,.27,8.34l1,1,.7-1.57A57.36,57.36,0,0,0,148.21,166.32Z"/> <path class="cls-41" d="M144.32,161.46l-.77.93s1.27,3.59,3.54,3.59c.3-.71.5-1.3.5-1.3C145.94,164.43,144.32,162.7,144.32,161.46Z"/> <path class="cls-43" d="M151.85,174.67c0,.58-.11,1.2-.18,1.84,0,.26,0,.5-.08.74.26,1.3-1.67,2.39-3.8,3a10.47,10.47,0,0,1-4.86.55,4,4,0,0,1-2.29-2.28l-.38-6.81,3.65-2.7c.59,2.53.39,2.87,1,4.76,1,.57,5.34-.34,7,.71C151.83,174.54,151.83,174.59,151.85,174.67Z"/> <path class="cls-44" d="M149.88,162.24c.33,1.61.54,3.93-.46,4-.65,0-1.86-1.14-2.44-3.11a7.78,7.78,0,0,1-.35-2.74Z"/> <path class="cls-40" d="M146.49,160.77l.95,1.37a1.32,1.32,0,0,0,.88.68,5.28,5.28,0,0,0,2.13,0,.89.89,0,0,0,.68-.57,15.07,15.07,0,0,0,.23-1.81.82.82,0,0,0,.34-.32.41.41,0,0,0,0-.45c-.12-.13-.7-1.19-.7-1.19l.25-1.12c-.09-1.77-1.15-3-3.58-3.57-2.07-.35-3.43.63-3.86,2.82C143.45,159.4,144.29,160.44,146.49,160.77Z"/> <path class="cls-35" d="M144.39,160.37a1.46,1.46,0,0,0,1,.38.45.45,0,0,0,.42-.3l.37-1,.93,0a.29.29,0,0,0,.28-.31v-.4a.61.61,0,0,1,.47-.61c1.51-.33,2.91-.68,3.32-1.28a.3.3,0,0,0,.06-.24c-.46-2.86-6.38-4.54-7.51-.29A4.61,4.61,0,0,0,144.39,160.37Z"/> <path class="cls-40" d="M145.93,158.85a.67.67,0,0,0-.4.67,1.88,1.88,0,0,0,.25.79,1.51,1.51,0,0,0,.27.42.46.46,0,0,0,.46.12.48.48,0,0,0,.27-.3,1.46,1.46,0,0,0,0-.42,1.92,1.92,0,0,0-.14-.89A.68.68,0,0,0,145.93,158.85Z"/> <path class="cls-40" d="M154.93,171.48a2.57,2.57,0,0,0,1.82-.07l.9-.47c.27.16.65-.08,1-.34.22-.25.24-.47,0-.65.09-.31.08-.57-.18-.7a.5.5,0,0,0-.27-.67.62.62,0,0,0-.38-.68l2.07-1.35c.44-.29.26-.79-.39-.46l-4,2.28a4,4,0,0,0-1.5,1.25l-.94,1.31,1.28,1.39Z"/> <path class="cls-4" d="M155.26,171.94c-1.09,1.5-7,4.92-9.1,4.88a30.66,30.66,0,0,1-6-5.41c-2.88-4.28-.16-8.48,3.11-4.68a35.45,35.45,0,0,1,4.07,5.41c2.92-1.13,6.56-2.3,6.58-2.31C153.64,170.38,154.69,171.87,155.26,171.94Z"/> <path class="cls-40" d="M228.1,122.73h.26l.52.06.57.2c.22.12.43.24.38.38s-.28.19-.51,0a1.44,1.44,0,0,1-.53-.09,1.41,1.41,0,0,1-.54,0,.9.9,0,0,1-.22-.06v-.19l0-.16,0-.2Z"/> <path class="cls-40" d="M229.48,124.87c-.08.11-.27.09-.47,0a1.36,1.36,0,0,1-.53,0,1.75,1.75,0,0,1-.69.17h-.08v-.6l.42-.05.32,0,.58.07c.23,0,.51.18.49.33A.34.34,0,0,1,229.48,124.87Z"/> <path class="cls-40" d="M228.1,123.32l.79,0,.58.15c.23.1.45.21.41.35s-.25.22-.5.09a1.36,1.36,0,0,1-.53,0,1.55,1.55,0,0,1-.77,0Z"/> <path class="cls-40" d="M229.65,124.51a.52.52,0,0,1-.39-.08h-.14a1,1,0,0,1-.39-.05,1.67,1.67,0,0,1-.77,0l0-.57.79,0,.34.06.14,0,.12,0c.23.09.43.26.39.41A.24.24,0,0,1,229.65,124.51Z"/> <path class="cls-40" d="M228.17,122.72a3.4,3.4,0,0,1,.07.34,2.71,2.71,0,0,1,0,.29,4.34,4.34,0,0,1-.12,1,1.63,1.63,0,0,1-.23.57.44.44,0,0,1-.11.09,3.27,3.27,0,0,1-1.75.4,1.23,1.23,0,0,1-.63-.29l-.95.06a.56.56,0,0,0,.37-.3,1,1,0,0,0-.26-1.34l.83-.14,1.2-.31,1.49-.38Z"/> <path class="cls-40" d="M229.05,124.8a.5.5,0,0,1-.49-.06,1.35,1.35,0,0,1-.66.21h-.19s.24-1.37.22-1.37-.36,1.42-.42,1.44a2.76,2.76,0,0,1-.9.22,1.32,1.32,0,0,1-1.09-.4l-.69.08a.56.56,0,0,1-.37.3l.95-.06a1.23,1.23,0,0,0,.63.29,3.27,3.27,0,0,0,1.75-.4,1.75,1.75,0,0,0,.69-.17,1.36,1.36,0,0,0,.53,0c.2.08.39.1.47,0A.4.4,0,0,1,229.05,124.8Z"/> <path class="cls-40" d="M228.26,122.75l-1.66.37c-.08.18-.17.39-.24.58s0,.47-.16.55c.08,0,.33-.07.42-.11a.55.55,0,0,0,.24-.26c.09-.17.18-.46.35-.56C227.77,123,228.1,123.32,228.26,122.75Z"/> <path class="cls-40" d="M228.07,122.94a.7.7,0,0,1-.37.06h-.38l-.33.14a1.7,1.7,0,0,1-.72,1.18.45.45,0,0,1-.25,0c-.32,0-.54-.41-.7-.9a3.45,3.45,0,0,1,.25-.27l.9-.7.84-.08a1.88,1.88,0,0,0,.79.12c.12,0,.17.07.17.14a.22.22,0,0,1,0,.08A.39.39,0,0,1,228.07,122.94Z"/> <path class="cls-40" d="M228.1,122.73h.26l.52.06.57.2c.22.12.43.24.38.38s-.28.19-.51,0a1.44,1.44,0,0,1-.53-.09,1.41,1.41,0,0,1-.54,0,.9.9,0,0,1-.22-.06v-.19l0-.16,0-.2Z"/> <path class="cls-40" d="M229.48,124.87c-.08.11-.27.09-.47,0a1.36,1.36,0,0,1-.53,0,1.75,1.75,0,0,1-.69.17h-.08v-.6l.42-.05.32,0,.58.07c.23,0,.51.18.49.33A.34.34,0,0,1,229.48,124.87Z"/> <path class="cls-40" d="M228.1,123.32l.79,0,.58.15c.23.1.45.21.41.35s-.25.22-.5.09a1.36,1.36,0,0,1-.53,0,1.55,1.55,0,0,1-.77,0Z"/> <path class="cls-40" d="M229.65,124.51a.52.52,0,0,1-.39-.08h-.14a1,1,0,0,1-.39-.05,1.67,1.67,0,0,1-.77,0l0-.57.79,0,.34.06.14,0,.12,0c.23.09.43.26.39.41A.24.24,0,0,1,229.65,124.51Z"/> <path class="cls-40" d="M228.17,122.72a3.4,3.4,0,0,1,.07.34,2.71,2.71,0,0,1,0,.29,4.34,4.34,0,0,1-.12,1,1.63,1.63,0,0,1-.23.57.44.44,0,0,1-.11.09,3.27,3.27,0,0,1-1.75.4,1.23,1.23,0,0,1-.63-.29l-.95.06a.56.56,0,0,0,.37-.3,1,1,0,0,0-.26-1.34l.83-.14,1.2-.31,1.49-.38Z"/> <path class="cls-45" d="M229.05,124.8a.5.5,0,0,1-.49-.06,1.35,1.35,0,0,1-.66.21h-.19s.24-1.37.22-1.37-.36,1.42-.42,1.44a2.76,2.76,0,0,1-.9.22,1.32,1.32,0,0,1-1.09-.4l-.69.08a.56.56,0,0,1-.37.3l.95-.06a1.23,1.23,0,0,0,.63.29,3.27,3.27,0,0,0,1.75-.4,1.75,1.75,0,0,0,.69-.17,1.36,1.36,0,0,0,.53,0c.2.08.39.1.47,0A.4.4,0,0,1,229.05,124.8Z"/> <path class="cls-45" d="M228.26,122.75l-1.66.37c-.08.18-.17.39-.24.58s0,.47-.16.55c.08,0,.33-.07.42-.11a.55.55,0,0,0,.24-.26c.09-.17.18-.46.35-.56C227.77,123,228.1,123.32,228.26,122.75Z"/> <path class="cls-40" d="M228.07,122.94a.7.7,0,0,1-.37.06h-.38l-.33.14a1.7,1.7,0,0,1-.72,1.18.45.45,0,0,1-.25,0c-.32,0-.54-.41-.7-.9a3.45,3.45,0,0,1,.25-.27l.9-.7.84-.08a1.88,1.88,0,0,0,.79.12c.12,0,.17.07.17.14a.22.22,0,0,1,0,.08A.39.39,0,0,1,228.07,122.94Z"/> <path class="cls-42" d="M206.29,167.84c1.68-.11,1.31-3,.85-4.52a1.09,1.09,0,0,0-1.39-.65c-.56.18-.9,1.24-.88,1.82S204.3,168,206.29,167.84Z"/> <path class="cls-40" d="M207.21,164.86c.28-2.41-2.35-2.61-2,0,.1.7.54,1.21,1,1.23C206.88,166.14,207.15,165.37,207.21,164.86Z"/> <path class="cls-40" d="M215,163.91a4,4,0,0,0,2.59.88.46.46,0,0,0,.34-.12c.13-.15,0-.39-.06-.56-.85-1.38-2.45-2.56-3.15-4a1.25,1.25,0,0,0-.29-.47c-.22-.18-.53-.14-.8-.21s-.51-.22-.73-.1-.25.4-.31.63-.18.87-.27,1.12a1.31,1.31,0,0,0-.05.76,1.22,1.22,0,0,0,.62.68c.27.15.57.24.85.39A9.45,9.45,0,0,1,215,163.91Z"/> <path class="cls-42" d="M218,164.67a.46.46,0,0,1-.34.12,4.05,4.05,0,0,1-2.59-.87,9.53,9.53,0,0,0-1.26-1c-.28-.15-.58-.24-.85-.39a1.22,1.22,0,0,1-.62-.68,1.24,1.24,0,0,1,.05-.76c.07-.21.17-.81.23-1a.38.38,0,0,0,0-.1c.07-.23.11-.51.32-.63s.49,0,.73.11.58,0,.8.2a1.51,1.51,0,0,1,.3.47,5.37,5.37,0,0,0,1.14,1.5,14.74,14.74,0,0,1,2,2.53C218,164.28,218.08,164.52,218,164.67Z"/> <path class="cls-40" d="M216.39,162.39a.27.27,0,0,1-.1.25.36.36,0,0,1-.23,0,4,4,0,0,1-2.18-1.08,5.47,5.47,0,0,1-.91-.89,2.83,2.83,0,0,1-.4-.67.38.38,0,0,0,0-.1c.07-.23.07-.72.28-.84s.53,0,.77.08.67-.09.89.09.08.51.17.67a6.06,6.06,0,0,0,1.18,1.65c.14.19.27.38.38.55A.77.77,0,0,1,216.39,162.39Z"/> <path class="cls-40" d="M215.62,145.69c0,.37-.06.81-.09,1.29s-.06.94-.09,1.46-.05.86-.08,1.31c-.29,4.51-.65,10.17-.65,10.18-.43.8-2,1-2.11,0a75.21,75.21,0,0,0-1.06-8c-.13-.81-.24-1.6-.31-2.37a18.19,18.19,0,0,1-.08-1.94v-.09a12.65,12.65,0,0,1,.14-1.64l.09-.48,3.48-2.25C214.86,143.28,215.62,145.58,215.62,145.69Z"/> <path class="cls-40" d="M211.54,140.71c-.58,2.95-.91,5.29-1.26,7.08,0,.13-.05.26-.08.39a13.66,13.66,0,0,1-.47,1.8l-.12.34-.29,1.38-.12.6L207,163l-.08.38-.08.35c0,.84-1.29.56-1.36-.15,0,0,0-.11,0-.16s0-.32-.05-.47c-.69-6.46-.5-9.06-.06-11.5.05-.31.11-.63.17-.94s.18-.92.28-1.41c0-.16,0-.32-.06-.48a.49.49,0,0,1,0-.12.15.15,0,0,1,0-.07,46.29,46.29,0,0,1-.2-7.71Z"/> <path class="cls-40" d="M211.54,140.71c-.58,2.95-.91,5.29-1.26,7.08,0,.13-.05.26-.08.39a13.66,13.66,0,0,1-.47,1.8l-.12.34-.29,1.38-.12.6L207,163l-.08.38-.08.35c0,.84-1.29.56-1.36-.15,0,0,0-.11,0-.16s0-.32-.05-.47c-.69-6.46-.5-9.06-.06-11.5.05-.31.11-.63.17-.94s.18-.92.28-1.41c0-.16,0-.32-.06-.48a.49.49,0,0,1,0-.12.15.15,0,0,1,0-.07,46.29,46.29,0,0,1-.2-7.71Z"/> <path class="cls-44" d="M210.28,147.79c0,.13-.05.26-.08.39a13.66,13.66,0,0,1-.47,1.8l-.12.34-.29,1.38-.12.6a8.43,8.43,0,0,1-3.88-.86c.05-.31.11-.63.17-.94s.18-.92.28-1.41c0-.16,0-.32-.06-.48a.49.49,0,0,1,0-.12Z"/> <path class="cls-44" d="M215.53,147c0,.45-.06.94-.09,1.46s-.05.86-.08,1.31a8.11,8.11,0,0,1-3.82,2.21c-.13-.81-.24-1.6-.31-2.37a18.19,18.19,0,0,1-.08-1.94Z"/> <path class="cls-38" d="M215.46,148.16c-.53,1.44-7.66,4.31-9.92,2.08l-.66-9.86c-.61-3.23-.08-4.9,1.6-6.47.2-.18.42-.37.66-.56l5-.2,2-.08A39.43,39.43,0,0,1,215.46,148.16Z"/> <path class="cls-39" d="M214.11,133.07a3.52,3.52,0,0,1-2.38,2.36,5.93,5.93,0,0,1-5.25-1.52c-1.68,1.57-2.21,3.24-1.6,6.47l.66,9.86a3,3,0,0,0,1.1.64,54,54,0,0,1,.8-14.07c4.15.16,5.9-.81,6.87-3.1Z"/> <path class="cls-46" d="M225.19,123.39c1.05.1.89,1.76.21,1.94-.38.09-4.81,2-8,.71l-4.11-2.14-1.62.27.57-5a62.58,62.58,0,0,1,7.05,4.6Z"/> <path class="cls-42" d="M216.21,128.07a1.86,1.86,0,0,1-2.15,1.77,1.85,1.85,0,0,1,0,.25c0,.62-.14,1.36-.13,2a1.27,1.27,0,0,0,0,.2,3,3,0,0,0,.07.52,1,1,0,0,0,.06.23,3.57,3.57,0,0,1-2.43,2.4,5,5,0,0,1-1.17.12,5.91,5.91,0,0,1-4.17-1.66,14.88,14.88,0,0,0-1-6.07c-.49-1.51-1-2.78-1.13-3.43a19.57,19.57,0,0,1,4.11-3.77c1.51-1,2.2-2.39,3.93-1.74s1.93,4.08,2.56,5.44S216.21,126.65,216.21,128.07Z"/> <path class="cls-47" d="M214,132.84a1,1,0,0,0,.06.23c-.66,1.88-1.87,2.73-3.6,2.52a5.91,5.91,0,0,1-4.17-1.66,14.88,14.88,0,0,0-1-6.07l1.57-.4,1.69,2.71c1.32,2.22,4.75,1.79,4.89-.48l.63.17a1.69,1.69,0,0,1,0,.23c0,.89-.12,1.5-.13,2a1.27,1.27,0,0,0,0,.2A1.81,1.81,0,0,0,214,132.84Z"/> <path class="cls-46" d="M204.14,124.45a19.8,19.8,0,0,0-2.48,8.35,17.73,17.73,0,0,0,1.05,8.53,1.48,1.48,0,0,1,1.43-.37c.16-3,.37-5.94,0-7.51l2.27-5C208,125.07,205.42,122.82,204.14,124.45Z"/> <path class="cls-40" d="M206.9,143.3a.42.42,0,0,1-.48-.06c-.38-.4-.78-.71-1.29-.54a.93.93,0,0,0,0,.65l0,.06a9.59,9.59,0,0,0,.9,2,.22.22,0,0,1-.05.27.3.3,0,0,1-.35,0c0,.2-.25.28-.42.09l-.27-.28c0,.23-.31.17-.39,0l-.5-.62a4.66,4.66,0,0,1-.86-1.17l-.1-.2a7,7,0,0,1-.35-2.2c.18-.6.72-.69,1.43-.36l.84.43a11.83,11.83,0,0,1,2,1.62C207.07,143.11,207,143.23,206.9,143.3Z"/> <path class="cls-40" d="M206,145.69a.3.3,0,0,1-.35,0c0,.2-.25.28-.42.09l-.27-.28c0,.23-.31.17-.39,0l-.5-.62a4.66,4.66,0,0,1-.86-1.17,1.44,1.44,0,0,0,1.26-.18C204.78,144.39,205.44,145.53,206,145.69Z"/> <path class="cls-40" d="M206.9,143.3a.42.42,0,0,1-.48-.06c-.38-.4-.78-.71-1.29-.54a.93.93,0,0,0,0,.65l-.21-.89C205.81,142.24,206.46,143.12,206.9,143.3Z"/> <path class="cls-48" d="M215.14,129.71a2.9,2.9,0,0,0,.71-.5A1.79,1.79,0,0,1,215.14,129.71Z"/> <polygon class="cls-40" points="211.24 120.99 211.58 122.51 212.92 128.57 208.28 122.06 211.24 120.99"/> <polygon class="cls-46" points="211.06 120.67 212.89 128.46 212.39 120.89 211.06 120.67"/> <path class="cls-49" d="M209.45,118.68a2.11,2.11,0,1,1-2.1-2.1A2.1,2.1,0,0,1,209.45,118.68Z"/> <path class="cls-40" d="M208.45,118.46c-.23.78-.16,1.58-.45,2.39s1.32,1.88,2.46,1.79c.81-.16.75-.54.86-1.49Z"/> <path class="cls-44" d="M209,118.81c0,2.68,1,5.08,2.27,4.62.48-.17.52-1.56.53-3.4Z"/> <path class="cls-40" d="M208.72,119.71c.81,1,1.68,1.88,3.1,1.67.53-.08,1-.86,1-4a5.28,5.28,0,0,0-1.08-2.92,3,3,0,0,0-3-.9,2.71,2.71,0,0,0-2.2,3.18C206.86,118.86,207.78,119.65,208.72,119.71Z"/> <path class="cls-35" d="M208.19,119.52a1.3,1.3,0,0,0,.68-.59,3.82,3.82,0,0,0,.43-1.74c1.47-.15,3-1.23,3-1.73-.07-.68-.48-1.3-1.74-1.8a3.13,3.13,0,0,0-3.64.88c-1.56,1.7-.15,4.69,1.17,5.23Z"/> <path class="cls-49" d="M213,116.85c-.13-.35-.41.15-.79.52a.42.42,0,0,0-.12.25.53.53,0,0,0-.31.24c0-.07-.2,0-.26,0-.5.3-1.14.41-1.14.84,0,1,1.72.66,1.45-.73a.38.38,0,0,1,.24-.22c.1.77.57.63.84.16A1.36,1.36,0,0,0,213,116.85Zm-1.34,1.92a.76.76,0,0,1-.48.4.59.59,0,0,1-.57-.07.5.5,0,0,1-.16-.39c0-.21.23-.33.61-.51.16-.07.33-.16.49-.25s.19,0,.21.07A1.09,1.09,0,0,1,211.66,118.77Zm1.22-.93a.76.76,0,0,1-.37.38c-.25.08-.36-.24-.37-.52a.37.37,0,0,1,.11-.26l.29-.3c.14-.17.21-.27.31-.3s.06,0,.08,0A1.3,1.3,0,0,1,212.88,117.84Z"/> <polygon class="cls-49" points="210.43 118.75 208.17 118.81 208.12 118.7 210.46 118.56 210.43 118.75"/> <path class="cls-40" d="M208.52,119.12a1.65,1.65,0,0,0-.35-.43.78.78,0,0,0-.52-.19l-.14,0a.32.32,0,0,0-.16.29.61.61,0,0,0,.08.32,1.39,1.39,0,0,0,.36.53.88.88,0,0,0,.59.25.32.32,0,0,0,.23-.07.28.28,0,0,0,.09-.17A.86.86,0,0,0,208.52,119.12Z"/> <polygon class="cls-46" points="208.03 120.67 213.49 129.41 207.86 123.91 208.13 122.79 207.22 122.31 207.21 121.43 208.03 120.67"/> <path class="cls-40" d="M117.61,175.12l-.09-1.8c0-.72-.49-.87-.49-.44v-.43c0-.63-.55-.7-.59,0l-.14,2.26a2.79,2.79,0,0,0-.74-.85,4,4,0,0,0-1,0l-.53.59a.27.27,0,0,0-.07.25.42.42,0,0,0-.15.23l-.33.85a5.69,5.69,0,0,0,.71,1.75,2.76,2.76,0,0,0,.8.92l-.07,1.28,1.83.16.07-.5,0-.35.58-.79.59-1.66.1-.28v-1.06C118,174.44,117.58,174.51,117.61,175.12Zm-3.15,1-.31-.33.07-.58a1.06,1.06,0,0,0,0-.24l0-.08a.43.43,0,0,0,.19-.08l.35-.35.48.08.23.45A3.68,3.68,0,0,1,114.46,176.12Z"/> <path class="cls-42" d="M117.44,181.82a2.8,2.8,0,0,1-.13.81,1.52,1.52,0,0,1-1.54,1,15.35,15.35,0,0,1-5.42-2.47c-.14-.1-.27-.21-.4-.32l-.1-.09-1.6-4.66.61-1.61a5.1,5.1,0,0,1,3.72,2.71l2.33,1.86,0-.54a2.06,2.06,0,0,0,1.86.61C117,180.46,117.55,180.88,117.44,181.82Z"/> <path class="cls-47" d="M117.31,182.63a1.52,1.52,0,0,1-1.54,1,15.35,15.35,0,0,1-5.42-2.47v-.66C113.19,182.32,115.55,183.11,117.31,182.63Z"/> <path class="cls-47" d="M113.44,177.88a6,6,0,0,1,1.15,2.66l.32-1.48Z"/> <path class="cls-44" d="M115.77,177.8c-.32-.93-.61-1.5-1.31-1.68a3.68,3.68,0,0,0,1-1.13l-.23-.45-.48-.08-.35.35a.43.43,0,0,1-.19.08l.52-.6.71.2.32.54A3.59,3.59,0,0,1,115.77,177.8Z"/> <path class="cls-44" d="M118.09,175.65s0,.4-.09.94l-.59,1.66-.58.79,0,.35-.44.06-.19-.24,0-.46c.33-.15.8-.42.89-.74a4.24,4.24,0,0,0,.61-1.17c0-.06-1.23-1.45-1.21-1.51s1.33,1.22,1.35,1.17l.1-.22Z"/> <path class="cls-35" d="M105.8,218.56a8.26,8.26,0,0,0-.14,2.11c.14.63,1.81,1,1.81,1s2.35,2.21,4.34,2.06c1.18-.1,1.58-.41,1.76-.75a1.1,1.1,0,0,0-.22-1.11c-.23-.32-2.67-1.36-3.28-2.33-.29-.47-.79-1.47-.79-1.47l-.2-1.86-3.24-.13.16,2.19Z"/> <path class="cls-37" d="M103,195.32,105,205.67a31.28,31.28,0,0,0,.45,12.91c.63,1.7,2.89,1.22,4.3,0a81.77,81.77,0,0,1-.41-11.37l.41-2.71a36,36,0,0,0,.31-6.62c0-2.68-1.54-8.54-1.54-8.54Z"/> <path class="cls-35" d="M98.67,222.18a6.61,6.61,0,0,0-.27,2.4,2.49,2.49,0,0,0,1.36,1.33,4.21,4.21,0,0,0,3.71,2.47c2.56.06,2.54-1,2.53-1a1.55,1.55,0,0,0-.59-1.09,33.6,33.6,0,0,1-2.6-2.26,5.49,5.49,0,0,1-.61-1.13l-.11-1.86H98.63Z"/> <path class="cls-38" d="M104.67,197.55c0,5.24.19,8.33-1.19,11a30.91,30.91,0,0,1-.68,3.53c-.41,1.39-.34,7.49-.17,11.09a2.52,2.52,0,0,1-3.52.61,2.31,2.31,0,0,1-.92-1.28c-.91-5.67-1.53-10.15.71-14.32a44,44,0,0,1-.41-11.24,11.38,11.38,0,0,1,.75-6,10.26,10.26,0,0,1,.61-1.19l9.31,2.21C108.2,195.32,106.51,197.14,104.67,197.55Z"/> <path class="cls-39" d="M100.42,208.52c-2.86,2.93-2,8.63-1.31,15.25a2.31,2.31,0,0,1-.92-1.28c-.91-5.67-1.53-10.15.71-14.32a44,44,0,0,1-.41-11.24,11.38,11.38,0,0,1,.75-6l3.23,3.64C99.26,196.62,98.66,203.63,100.42,208.52Z"/> <path class="cls-42" d="M109.38,190.73a17.38,17.38,0,0,0,.33,4c-1.78,1.79-8.28,4.39-11.32.59,0-1.73.09-2.84.09-2.84L98.29,184l-.76-5.16a13.42,13.42,0,0,1,3.6-3,8.62,8.62,0,0,1,7.73-1.4,32.87,32.87,0,0,1,1.21,4.48,6.84,6.84,0,0,1,.08,1.06v.62C110.09,184.41,109.4,189.71,109.38,190.73Z"/> <path class="cls-50" d="M106.65,176.91c.06.2,0,.39-.12.42s-.25-.11-.3-.32,0-.39.12-.42S106.6,176.7,106.65,176.91Z"/> <path class="cls-47" d="M100.75,182.55,98.29,184l.19,8.42s-.06,1.11-.09,2.84c3,3.8,9.54,1.2,11.32-.59-2.72,1.66-5.52-5-7.83-6.72Z"/> <path class="cls-40" d="M101.69,175.85l1.39-2.88,3.86,1.93-.83,2.16C105.42,179.67,101.26,178.06,101.69,175.85Z"/> <path class="cls-51" d="M102.27,174.66a2.77,2.77,0,0,0,3,3c.82-.54.89-1.56.89-2.58l.56,1.49-.06,1.72-1,0-1,1.25-2-1.66a2.6,2.6,0,0,1-1.06-2.33C101.84,175.17,102,174.94,102.27,174.66Z"/> <path class="cls-44" d="M106.94,175.42c0,1.56,0,3.65-1.78,3.73-1.18,0-2.56-3.45-2.11-4.54l0-1.29Z"/> <path class="cls-40" d="M104.9,167.83a2.71,2.71,0,0,0-3,3,5.88,5.88,0,0,0,2.42,5,3.23,3.23,0,0,0,2.64.8c1.14,0,1.34-2.8,1.5-4.85C108.32,169.6,107,168.39,104.9,167.83Z"/> <path class="cls-35" d="M108.44,170.94c-.42,1-2.27,1.78-4.14,1.3l-.21,1.69-.82-.43-.74.83-.28-.4c-1.4-2.86-1-5,1.15-6.1C106.2,166.72,109,169.41,108.44,170.94Z"/> <path class="cls-40" d="M103,174.23a1.82,1.82,0,0,1-.45-.55.78.78,0,0,1,0-.7.52.52,0,0,1,.6-.26.59.59,0,0,1,.33.36,1.62,1.62,0,0,1,.08.49c0,.15,0,.3,0,.45a.39.39,0,0,1-.06.3.28.28,0,0,1-.27.06A.75.75,0,0,1,103,174.23Z"/> <path class="cls-40" d="M109.36,195.63a.39.39,0,0,1-.09.49l-.18.08a.34.34,0,0,1-.17.47.27.27,0,0,1,0,.18.72.72,0,0,1-.19.24,1.09,1.09,0,0,1-.79.43,11,11,0,0,1-2.41-1.63l-.25-.17-.7-.5.14-.43.42-1.25.93.27a4.1,4.1,0,0,1,1.07-1.16c.31-.45.28-.93.48-1.07.46,0,.54.45.43,1.07-.13.28-.38.5-.37.73a1.87,1.87,0,0,0,.2.76l.15.31a2.49,2.49,0,0,1,.46,0,1.33,1.33,0,0,1,.45,0,1.81,1.81,0,0,1,.64.81C109.57,195.45,109.52,195.59,109.36,195.63Z"/> <path class="cls-42" d="M105.2,195.13a.71.71,0,0,0,.3.71l-.23-.12c-3-1.63-5.79-3.36-7.39-5.55l-.31-.45a42.8,42.8,0,0,1-1.08-8.8c.63-3.82,4.17-2.65,4.26,1.63a34.53,34.53,0,0,1,0,5.93c2.11,2.18,4,4.73,5.29,5.33l0,0A1.45,1.45,0,0,0,105.2,195.13Z"/> <path class="cls-44" d="M108.91,196.85a.72.72,0,0,1-.19.24,1.09,1.09,0,0,1-.79.43,11,11,0,0,1-2.41-1.63l-.25-.17c-3-1.63-5.79-3.36-7.39-5.55a46.3,46.3,0,0,0,6.83,4.62l.49.34a7.14,7.14,0,0,0,2.59,1.16.57.57,0,0,0,.56.31l-.53.24a.39.39,0,0,0,.39.35A1,1,0,0,0,108.91,196.85Z"/> <path class="cls-44" d="M108.84,194.55l-.16.38h-.22a1,1,0,0,1-.59-.79l.15.31a2.49,2.49,0,0,1,.46,0Z"/> <path class="cls-44" d="M108.25,196a1.42,1.42,0,0,1,1.16-.45c-.07,0-.07.11,0,.22A3.14,3.14,0,0,0,108.25,196Z"/> <path class="cls-52" d="M256.69,266.62s-3.52-2.29-3.61-2.84.76-1.16,1.35-1.14,3.08.23,3.08.23l.8.91S259.74,267.18,256.69,266.62Z"/> <path class="cls-52" d="M264.39,263.74s-3.52-2.28-3.61-2.84.75-1.16,1.35-1.13,3.08.23,3.08.23l.79.9S267.43,264.3,264.39,263.74Z"/> <path class="cls-52" d="M255.54,234.64l-.1,28.94a3.53,3.53,0,0,0,3.45-.07s3.28-25,3.33-25.6.47,22.83.47,22.83a3,3,0,0,0,3.57-.42l1.82-27.69Z"/> <path class="cls-53" d="M258.42,213a9.07,9.07,0,0,0-3.4,1.89l.52,19.73s2.49,1.83,7.58.49c4.15-1.08,5.24-2.83,5.24-2.83s.38-9.46,0-13.47a17.94,17.94,0,0,0-2-6.75,12.21,12.21,0,0,0-2.91-.16Z"/> <path class="cls-54" d="M263,211.81l.12-3.85a.9.9,0,0,0,.8-1.14c-.16-1.06-1.16-.36-1.33,0,0,0-.23-3.66-2.17-4s-2.74-.07-2.79.87-.11,4.25,0,5.47,0,1.86,1.77,1.82l.15,1.28s.81.75,3.29.14Z"/> <path class="cls-4" d="M258.42,213c0-.76.13-1.17,1.89-1.36s3.17-.67,3.35,0-.18,1.08-1.93,1.23S258.42,213,258.42,213Z"/> <path class="cls-55" d="M260.71,206.93a.57.57,0,0,0-.33-.77.63.63,0,0,0-.66.27,5.36,5.36,0,0,0-.64,1.32c-.18-.16-.36-.3-.55-.45l0-.35a3.46,3.46,0,0,0,0-.85c-.12-.5-.55-.67-.89-1a3.73,3.73,0,0,1-.91-1.31,1.71,1.71,0,0,1,.73-2.27,3.1,3.1,0,0,1,1.54-.21c1.4.1,3.35.19,4.12,1.61a1.13,1.13,0,0,1,1.34.69,2.7,2.7,0,0,1,0,1.9c-.39,1.61-.95,3.17-1.37,4.78-.06.21-.54.29-.74.23a1.51,1.51,0,0,1-.54-.36,8.64,8.64,0,0,1-1.86-2.43C260,207.83,260.67,207.05,260.71,206.93Z"/> <path class="cls-54" d="M255.1,235.55c.05.24.23.49.47.49s.47-.29.6-.54l.24-.48a.8.8,0,0,0,.11-.42c0-.14-.1-.27-.11-.41s.28-.46.36-.72-.14-.62-.36-.86a2.32,2.32,0,0,0-.49-.45c-.74-.48-1.41.37-1.27,1.1.07.32.28.61.38.93A12.52,12.52,0,0,1,255.1,235.55Z"/> <path class="cls-56" d="M255,214.91c-1.81.82-6.06,13.35-5.7,14.55s4.62,4.48,5.13,4.55,1.92-1.88,1.49-3c-.1-.28-2.11-2.72-2.11-2.72,0-.5,2.68-4.78,3-7.26A9.57,9.57,0,0,0,255,214.91Z"/> <path class="cls-57" d="M266.34,212.08c1.28.44,4.6,9.3,4.7,12.38s-4,4.83-4,4.83Z"/> <ellipse class="cls-58" cx="174.41" cy="277.42" rx="13.09" ry="6.3"/> <path class="cls-59" d="M178.09,254.84,176.68,267s-2.1,8-2,9.44c0,.36,2.94,1.81,2.83,1.94-2.26,2.76-4.53-1.41-4.53-1.41v-1s-.46-5.5-.51-6.44a31.26,31.26,0,0,1,.56-3.22c.05-.84-.1-9.7-.1-9.7Z"/> <path class="cls-60" d="M173.81,279.89s-.54-1.89-.62-2.09-.68-1.43-.2-1.88c.81-.76,1.84,1.52,3.06,2.07s1.26.05,1.26.05a11.83,11.83,0,0,1,1.7,1.46c.11.28-1.21.7-2.31.64a4.65,4.65,0,0,1-1.7-.52l-.81-1.63A9.82,9.82,0,0,1,173.81,279.89Z"/> <path class="cls-61" d="M177.91,232.35s-1.17,2.55-2.14,2.28-1.44-1.79-1.44-2.28v-1.61s-1.55.12-1.92-.39-.61-4.47-.31-5.46,2.37-1.44,2.37-1.44l3.2.9Z"/> <path class="cls-61" d="M181.93,254.39s2.22,10,1.61,11.17-2.44,3.27-4.11,6.19-3.05,4.07-2.77,5.17,1,3.26,1,3.26l-3-2.39-.18-3.17a7.29,7.29,0,0,0,1.64-2.37c.45-1.26,1-4.59,2-5.61s1.71-2,1.71-2l-4.15-9.55Z"/> <path class="cls-62" d="M172.45,278.54s.7-1.86.75-2.07.27-1.56,1-1.68c1.21-.2.72,2.25,1.49,3.36a3.52,3.52,0,0,0,1.74,1.37,9.31,9.31,0,0,1,.51,1.93c-.08.3-1.49.21-2.45-.43A9.63,9.63,0,0,1,173.7,279l.28-1.79S172.45,278.72,172.45,278.54Z"/> <path class="cls-59" d="M173.26,232.58a.89.89,0,0,0-1.07,0c-.49.32-4.42,5.93-5.84,8a1.09,1.09,0,0,0,.11,1.38l6,6.45,2.85.6v-2.86l-2.85-.37-2.56-4a1.16,1.16,0,0,1,0-1.5l3.05-3.76S175.68,233.52,173.26,232.58Z"/> <path class="cls-63" d="M180,232.93a25.45,25.45,0,0,1,1.71,4.83c.18,1.52-2.59,5.05-2.12,5.86s4.69,20.6,4.69,20.6a11.54,11.54,0,0,1-3.58,1.48c-4,.9-9.86,1.33-10-.49S170,251.49,171,249c1.22-3,1.92-4,1.8-5-.58-4.64-2.09-10.68-.65-11.4S179.35,232.48,180,232.93Z"/> <path class="cls-61" d="M183.1,244.77a10.94,10.94,0,0,1-1.89-5.6c-.11-2.72-.47-6.07-1.52-6.45a1.63,1.63,0,0,0-2.35,1.73c.13,1.11,1.49,8.23,1.68,9.23a.67.67,0,0,0,.1.21l5.41,6.81a2.83,2.83,0,0,1,.77,2.23,8.85,8.85,0,0,0,0,2.3c.07.5.78-.29,1-.76l.9-2a.46.46,0,0,0,0-.41,9.85,9.85,0,0,0-1.34-2.09C185.29,249.34,184.47,246.83,183.1,244.77Z"/> <path class="cls-64" d="M180,222.47a15.86,15.86,0,0,1,1.13,7.69c-.38,4.62-7.24,2.56-7.24,2.56l-.68-4.54a2,2,0,0,0,.21-1.71c-.38-.81-.89.13-.89.13s-1-3.25.42-4.3A5.47,5.47,0,0,1,180,222.47Z"/> <g class="cls-5"> <path class="cls-16" d="M262.85,35.7C241.35,48.64,229,64,226.2,81.48l-3.79-.21c2.92-17.95,15.59-33.79,37.69-47.1Z"/> <g class="cls-2"> <g class="cls-65"> <g class="cls-2"> <path class="cls-66" d="M262.85,35.7l-.29,103.24-.29.17.29-103.24.29-.17"/> <path class="cls-67" d="M262.56,35.87l-.29,103.24A106.86,106.86,0,0,0,244.84,152l.29-103.24a108.47,108.47,0,0,1,17.43-12.91"/> <path class="cls-7" d="M245.13,48.78,244.84,152a73,73,0,0,0-8,8.59l.29-103.24a74.72,74.72,0,0,1,8-8.59"/> <path class="cls-8" d="M237.15,57.37l-.29,103.24a59.13,59.13,0,0,0-5.07,7.53l.29-103.23a59.94,59.94,0,0,1,5.07-7.54"/> <path class="cls-9" d="M232.08,64.91l-.29,103.23a53.35,53.35,0,0,0-3.41,7.29l.29-103.23a52.26,52.26,0,0,1,3.41-7.29"/> <path class="cls-10" d="M228.67,72.2l-.29,103.23a49,49,0,0,0-2.15,7.51l.29-103.23a48.63,48.63,0,0,1,2.15-7.51"/> <path class="cls-11" d="M226.52,79.71l-.29,103.23c-.12.59-.22,1.19-.32,1.78l.29-103.24c.1-.59.2-1.18.32-1.77"/> </g> </g> </g> <polygon class="cls-7" points="226.2 81.48 225.91 184.72 222.12 184.5 222.41 81.27 226.2 81.48"/> </g> <polygon class="cls-24" points="261.48 152.56 259.7 152.39 259.95 151.88 261.08 151.03 261.48 152.56"/> <polygon class="cls-32" points="258.51 155.48 262.3 149.27 266.27 151.19 262.49 157.4 258.51 155.48"/> <polygon class="cls-4" points="262.68 156.67 259.08 154.92 262.38 149.54 265.98 151.28 262.68 156.67"/> <path class="cls-24" d="M262.42,150.87l-.72-.13a1.6,1.6,0,0,1-1.13.92l-.38.12a3.28,3.28,0,0,0-.32-.6,1.24,1.24,0,0,1,.63-1l1.1-.2,1.33.48C263,150.73,262.86,150.87,262.42,150.87Z"/> <path class="cls-32" d="M262.85,156.45a.11.11,0,0,1-.08,0,.23.23,0,0,1-.18-.27l1.18-5.47a.22.22,0,0,1,.27-.18.23.23,0,0,1,.17.27L263,156.27A.22.22,0,0,1,262.85,156.45Z"/> <path class="cls-24" d="M265.31,153.79c0,.21-.11.36-.1.51s0,.17,0,.27a1.28,1.28,0,0,1,0,.18c0,.35-.81.87-1.07,1l-1,.49-1.23,1.1-.25-.42-.6-.92.92-1.12a3.32,3.32,0,0,1,.09-1.56l.47-.58.89-.43-.09.38a7.32,7.32,0,0,1,.72-.43c.17-.09.47-.14.6,0s0,.24.08.32.28.19.33.29,0,.34,0,.43S265.28,153.56,265.31,153.79Z"/> <polygon class="cls-24" points="263.39 152.46 262.49 153.21 263.33 152.72 263.39 152.46"/> <path class="cls-24" d="M265.23,154.57a1.28,1.28,0,0,1,0,.18c0,.35-.81.87-1.07,1l-1,.49-1.23,1.1-.25-.42a4.81,4.81,0,0,0,1.29-1.3A2.56,2.56,0,0,0,265.23,154.57Z"/> <path class="cls-29" d="M258.26,157.26c-2.18,1.18-10,2-10.68-.42-2-6.54-.15-10.23,1.39-10.94C249,145.9,259,157.47,258.26,157.26Z"/> <path class="cls-32" d="M261.11,190c0-.88-.68-1.21-1.69-1.32a20.62,20.62,0,0,0-3.62.75l-1.77,1a3.9,3.9,0,0,0-.13,2.46,1.91,1.91,0,0,0,1.71.54l2-.84.15-.29C259.34,192.11,261.11,191.39,261.11,190Z"/> <path class="cls-32" d="M254.63,186.48c0-.72-.64-.84-1.6-.91-1.74,0-1.81.86-3.41.83l-1.57.95A4.68,4.68,0,0,0,248,190a2.25,2.25,0,0,0,1.75.43l1.61-.95.14-.29C253,189,254.63,187.83,254.63,186.48Z"/> <path class="cls-37" d="M248.94,161.94l5.79,2.42a21.75,21.75,0,0,1-.11,2.71c-.37,2.66-1.44,6.69-1.44,6.69a70.47,70.47,0,0,0-1.27,12.16,2.38,2.38,0,0,1-4,1.51c-.44-5.47-.44-10.79.85-14.31-.62-2.78,0-5.93.12-9.13C248.88,163.58,249.11,162,248.94,161.94Z"/> <path class="cls-38" d="M259.5,170.19a66.92,66.92,0,0,1-1.06,6.69L257.85,189a1.92,1.92,0,0,1-.76,1.86,2.36,2.36,0,0,1-3.13-.43c-.75-5.46-1-10.7,0-14.21a31.14,31.14,0,0,1-.74-8.56c-1.78-.72-4.53-1.76-4.42-4.57a14.08,14.08,0,0,1,.47-3.12c.05-.19.11-.38.17-.57s.09-.29.15-.44c1,2,4.15,3.2,7.59,2.77l.45-.07c.36-.06.73-.14,1.1-.24l.08.53.15,1.08A43.24,43.24,0,0,1,259.5,170.19Z"/> <path class="cls-68" d="M259.5,170.19a66.37,66.37,0,0,1-1.06,6.69L257.85,189a1.9,1.9,0,0,1-.77,1.86c.53-5.11.77-9.9,0-13.61,1.15-4.21,1.22-9-.09-12.28,0-1.3.6-2.05.32-3a12.62,12.62,0,0,0,1.47-.56A55.86,55.86,0,0,1,259.5,170.19Z"/> <path class="cls-34" d="M249.07,159.14a3.94,3.94,0,0,1,0,1.87,5.49,5.49,0,0,0-.2,1.71,7.62,7.62,0,0,0,7.08,2.56l1-.29.07,0,1.06-.29.13,0,.35-.1.39-.12.15-.06.11,0s-.16-2.51-.13-2.52c.19-2.17.18-3.09.31-5.82,0-.1,0-.2,0-.3a5.5,5.5,0,0,1,.05-.89c.93-3.73.3-4.12-.68-4.75-3.2-2-5.7-4.62-9.85-4.14C245.81,148.92,249,158.86,249.07,159.14Z"/> <path class="cls-24" d="M257.11,144.63c.2-.22-.11-.75-.34-.82s-.49.35-.52.6a1.18,1.18,0,0,0,.19.88c.21.32.55,0,.66-.25S257,144.78,257.11,144.63Z"/> <path class="cls-24" d="M252.35,146.17l1.42-2.44,3.84,1.88-1.48,2.76C254.73,148.37,251.88,147.09,252.35,146.17Z"/> <path class="cls-24" d="M256.34,146.8a.75.75,0,0,0,1.27.19,6.27,6.27,0,0,0,1.67-5c-.43-1.92-3.66.69-3.66.69Z"/> <path class="cls-35" d="M253,145.21a13.82,13.82,0,0,1,2.73,1.26.83.83,0,0,0,.95,0l.5-.38.35-1.07.78-.31-.06-.8a2.57,2.57,0,0,0,1.16-.83c1-1.8-1.14-3.78-3.5-3.61C252.86,139.59,252.12,142.82,253,145.21Z"/> <path class="cls-24" d="M258,144.94a1,1,0,0,0,0-.34.39.39,0,0,0-.16-.29.43.43,0,0,0-.56.16,1.3,1.3,0,0,0-.16.62l0,.46a.85.85,0,0,0,0,.39.32.32,0,0,0,.28.23.31.31,0,0,0,.24-.13.88.88,0,0,0,.12-.26A8.67,8.67,0,0,0,258,144.94Z"/> <path class="cls-28" d="M257,165l.07,0,1.06-.29.13,0,.35-.1.39-.12.15-.06.11,0s-.16-2.51-.13-2.52c.19-2.17.18-3.09.31-5.82l-2.73-2.33A21.63,21.63,0,0,0,257,165Z"/> <path class="cls-29" d="M259.6,150.69c1.36.84,1.47,1.8,1.47,3.91l-.09,1.24,1-.93c1-.06,1.47.45,1.37,1.7-.36,2.1-1.4,4.4-3.09,5-.93.33-1.91-.09-2.38-1.93L256.72,155C256.55,151.86,257.19,150.17,259.6,150.69Z"/> <path class="cls-29" d="M252.25,146.23l.38-.54c.25.61,1.55,1.4,3.86,2l-.05.73C254.34,148.81,251.77,147.15,252.25,146.23Z"/> <path class="cls-40" d="M273.49,121c-.87,1.74-.77,5.21-.59,8.82,0,2.18.84,4.21,2.11,7l.9,4.1a9.66,9.66,0,0,0,.65-4c-.41-2.87-.68-4.85-1.05-7.44l.68-5.05C277,122.24,275.24,119.25,273.49,121Z"/> <path class="cls-35" d="M270.19,116.64c-1.91.29-2.27,2.6-3,4C264.4,118.5,266.36,114.26,270.19,116.64Z"/> <path class="cls-42" d="M269.62,160.55a6,6,0,0,0,1.73,2.32,3.73,3.73,0,0,0,2.54,1.1c.72-.28.67-.88.39-1.7A6.64,6.64,0,0,0,272,160s-1.11-.94-1.11-1S269.62,160.55,269.62,160.55Z"/> <path class="cls-69" d="M274.74,150.86a68.87,68.87,0,0,1-3.71,8.32s2,1.69,1.17,2.31c-1.18.92-2.73-1.94-2.73-1.94l2.21-7.93Z"/> <path class="cls-42" d="M268.12,162l0,.12c-.35,0-.77,1.15-.61,2,.5,1.3,0,2.32.21,3.79a2.54,2.54,0,0,0,1.16,2c1.2.71,2.09.83,2.22-.18a4.89,4.89,0,0,0-.33-2.42l-.6-2.82Z"/> <path class="cls-40" d="M269.86,167.62c-1.63.22-1.91-1.79-1.94-3.57,0-.53,0-1,0-1.47,1.43-3.65-1.15-6.9.57-10.08l-.23-1.3-.62-3.46,4.19-.53.78,3.84.28,2.28c-.44,3.07-2.47,6.51-2.86,9.78C270,164.62,270.83,167.5,269.86,167.62Z"/> <path class="cls-40" d="M270.2,153.05c-1.93,1.56-.16,8-2.28,11,0-.53,0-1,0-1.47,1.43-3.65-1.15-6.9.57-10.08l-.23-1.3Z"/> <path class="cls-70" d="M275.94,141.33c.17,4.49-1.13,5.12-1,8.25a3,3,0,0,1-.07.77A4,4,0,0,1,273,153l-.27.1a7.78,7.78,0,0,1-2.6,0,2.57,2.57,0,0,1-1.94-1.54c0-3.33-2.54-5.66-2.85-10.06a6.56,6.56,0,0,1,1.49-5l1.47,0,7.31-.17Z"/> <path class="cls-71" d="M270.2,153.05l-.09,0a2.57,2.57,0,0,1-1.94-1.54c0-3.33-2.54-5.66-2.85-10.06a6.56,6.56,0,0,1,1.49-5l1.47,0,4.08,2.16c-2.22.56-4.18,1.42-4.95,3.65A21.27,21.27,0,0,0,270.2,153.05Z"/> <path class="cls-42" d="M275.08,131.38a9.84,9.84,0,0,0,.51,4.92,2.42,2.42,0,0,1-2.19,2.17c-3.09.6-5.68,0-6.92-1.63,1.11-1.17,1.08-2.92.35-4.53a9.41,9.41,0,0,1-1.15-2.91,13.7,13.7,0,0,1-.29-4c1.47-1.52,3.05-2.93,4.79-3.32l3.86-1.5c1.16.16,2.1,2.23,1.8,3.78.17,2.41,1.36,3.41,1.4,4.9C277.28,130.47,276.48,131.26,275.08,131.38Z"/> <path class="cls-47" d="M275.59,136.3a2.42,2.42,0,0,1-2.19,2.17c-3.09.6-5.68,0-6.92-1.63,1.11-1.17,1.08-2.92.35-4.53a9.41,9.41,0,0,1-1.15-2.91l1.8-.07c1.12,2.36,1.62,4.7,3.94,4.25,1.61-.31,2.11-1.66,1.72-3.3a2.89,2.89,0,0,0,1.94,1.1A9.84,9.84,0,0,0,275.59,136.3Z"/> <path class="cls-40" d="M268.43,122.79a6.14,6.14,0,0,0,.77-2.75l3.08.22,0,2.2C273.43,125.63,268.75,124.83,268.43,122.79Z"/> <path class="cls-44" d="M271.64,121c-.24,1.52-1.27,3.76-2.43,3.18-.83-.41-.7-1.33-.51-2.64Z"/> <path class="cls-40" d="M272.74,120.72c1.7-2.9.8-5.42-1.56-6a3.4,3.4,0,0,0-4.27,3.54c-.06,2.38.56,4.07,1.46,4.2a2.62,2.62,0,0,0,3-1.44Z"/> <path class="cls-35" d="M272.89,121.6l-.63.86c0-.15-.11-1.59-.17-2l-.26-.64-.67.29c-1.39.09-1.65-2.34-4.25-2-.24-2.32,1.48-3.61,3.6-3.61,2.58.2,3.41,1.7,3.34,3.54A8.87,8.87,0,0,1,272.89,121.6Z"/> <path class="cls-71" d="M274.88,150.35A4,4,0,0,1,273,153a4.16,4.16,0,0,0,.21-.91c.27-2.2-.65-4.13-.27-5.4a7.33,7.33,0,0,0,.65,2.22A4.59,4.59,0,0,0,274.88,150.35Z"/> <path class="cls-35" d="M270.68,118.83a3.54,3.54,0,0,1,4,3.29,5.34,5.34,0,0,1-.93,4.34,15.89,15.89,0,0,1-2.1,2.22c-1-4.35,1.15-7,.35-8.23a3,3,0,0,0-1.37-1Z"/> <path class="cls-40" d="M271.14,120.91c-.13-.36-.17-.32-.11-.48.28-.83.82-1.27,1.2-.49a.82.82,0,0,1-.08.66,1.44,1.44,0,0,1-.23.42.48.48,0,0,1-.43.17A.47.47,0,0,1,271.14,120.91Z"/> <path class="cls-69" d="M254,131.63c-.64.43-1.84,0-2.7-.31l-.77-1.71L252,129l2.13,1C254.58,130.86,255,131.38,254,131.63Z"/> <path class="cls-40" d="M251.3,131.4a.46.46,0,0,0,.26,0l.29-.06c.24,0,.31-.68.22-.9l-.65-1.06-.42-.09-.25-.13c-.29.19-.47.44-.13,1.13l.23.68a.51.51,0,0,0,.24.28Z"/> <path class="cls-38" d="M250.65,129.34c.44.6.91.36.47-.24l-6.84-9.58Z"/> <path class="cls-40" d="M254.35,131.69l-1.17-.4c-.54-.36-.66-.85-1-1.53l-.64-.25-.82,0c-.38-.05-.38-.43,0-.45l1-.19.74.18a2.8,2.8,0,0,1,1.4.63l.92,1Z"/> <path class="cls-40" d="M253.85,129.92c.43-.08.74,1.25,0,1.6.39.1,4.7,2.33,7.89,1l4.21-2.1c1.7-.28.63-5.06-.58-5.05-1.2,1.47-2,2.34-5.57,4.87Z"/> <path class="cls-24" d="M223,189.17c.26.58.51,1.15.74,1.7a8.89,8.89,0,0,0,1,2.3c.14.53-.13.56-.64.28L223,191.88a2.69,2.69,0,0,0-.67,1.21l.28,2.4c-.07.46-.26.41-.49.15l-.42-2.17,0,2.33c-.17.19-.31.13-.42-.19l-.13-.67c-.12.24-.24.2-.36-.05,0,0-.09-2.81-.09-2.85s.92-3.28.92-3.28l.35-.7,1.4.39Z"/> <path class="cls-34" d="M227.51,175.71c-.5,1.89-.37,4.2-1,6.93-.89,2.74-2,4.08-3.23,7.19-.2.3-1.94-.09-1.87-.41,1.31-6,.55-4,1.38-6.62.37-2,.4-4.52.63-6.93.14-1.58.74-2.44,1.57-2.8C226.83,172.46,228.56,173.94,227.51,175.71Z"/> <path class="cls-35" d="M227.33,215.54a7.72,7.72,0,0,1,.13,2c-.13.61-1.74,1-1.74,1a4.35,4.35,0,0,1-3.29,1.52c-1.13-.09-1.51-.39-1.69-.72a1.07,1.07,0,0,1,.21-1.07c.22-.31,1.67-.84,2.26-1.77.29-.46.76-1.42.76-1.42l.06-.51a1.49,1.49,0,0,1,1.42-1.33,1.62,1.62,0,0,1,1.7,1.73l0,.31Z"/> <path class="cls-35" d="M234,219.85a6.32,6.32,0,0,1,.26,2.3,2.46,2.46,0,0,1-1.31,1.29,2.91,2.91,0,0,1-3.06,2c-2.47.06-2.45-.94-2.43-.93a1.46,1.46,0,0,1,.56-1,20,20,0,0,0,2-1.84,5.15,5.15,0,0,0,.59-1.08l.11-1.79h3.33Z"/> <path class="cls-37" d="M224.52,188.93l4.38,5.94c-.22,1.63-.56,6.16-1,7.71.82,5.87-.23,12.52-.71,12.89A2.2,2.2,0,0,1,224,215a75.09,75.09,0,0,0-.4-13.14Z"/> <path class="cls-38" d="M227.56,193.72l1.22,11a148.57,148.57,0,0,1,1.94,15.71c.79,1.4,2.9.84,3.57,0,.07-.89.14-1.81.2-2.75.25-4.09.23-8.62-1.31-12.51a53.81,53.81,0,0,0,.75-10.83,8.38,8.38,0,0,0-.19-5.73l0-.07-.07.06a3.52,3.52,0,0,1-1.23.67c-3.17,1-7.91-1.57-7.92-1.51C224.39,191,225.54,192.22,227.56,193.72Z"/> <path class="cls-68" d="M232.05,205.42c1.53,2.7,2.1,7.27,2.44,12.28.25-4.09.23-8.62-1.31-12.51a53.81,53.81,0,0,0,.75-10.83,8.38,8.38,0,0,0-.19-5.73h-.1l-1.59-.24a9.53,9.53,0,0,1,.36.91,7.32,7.32,0,0,1,.11,4.9C233.15,197.37,232.74,201.3,232.05,205.42Z"/> <path class="cls-34" d="M223.73,183.76c.2,1.31.47,2.57.73,3.78a1.92,1.92,0,0,0,.2.75c.31.67,1.12,1.59,3.23,1.78a12.11,12.11,0,0,0,3.28.1,4.93,4.93,0,0,0,1.44-.39l.06,0,.23-.12a1.88,1.88,0,0,0,1-1.51,61,61,0,0,0,.9-6.7,21.25,21.25,0,0,0,0-2.25c-.06-1.63-.54-3.5-.53-4.62a29.63,29.63,0,0,1-4.71-2.42,14,14,0,0,0-5.48.07A27.43,27.43,0,0,0,223.73,183.76Z"/> <path class="cls-72" d="M232.61,189.78l.06,0,.23-.12a1.88,1.88,0,0,0,1-1.51,61,61,0,0,0,.9-6.7,21.25,21.25,0,0,0,0-2.25c-.85-.46-1.86-1-1.86-1A27.93,27.93,0,0,1,232.61,189.78Z"/> <polygon class="cls-38" points="227.82 176.07 227.5 177.08 226.92 176.87 226.92 175.72 227.5 175.33 227.82 176.07"/> <path class="cls-38" d="M227.51,177.08a72,72,0,0,0,0,8.44l-.95.9-.65-1.48a60.73,60.73,0,0,1,1-8.07Z"/> <path class="cls-24" d="M229.13,171.15c.06,0,1.19,1.39,1.19,1.39,1.49.85-.43,4-2.47,3.68l-1.7-1.17Z"/> <path class="cls-72" d="M230,172.12a10.26,10.26,0,0,1,1.19.92s-.82,3.83-3.34,4a6.11,6.11,0,0,0-.45-1.19C228.93,175.66,230,173.3,230,172.12Z"/> <path class="cls-72" d="M227.37,175.89l-.92.88s-.88-3.6-.11-4.36S227.37,175.89,227.37,175.89Z"/> <path class="cls-25" d="M225.25,175.41c0,1.5.39,2.68,1.41,2.5,2.2-.27,2.58-3.35,2.36-4.52Z"/> <path class="cls-24" d="M226.63,167.36c1.84,0,2.88.88,3,2.79s-.15,3.23-1.12,4.6A2.9,2.9,0,0,1,226.1,176c-1.12,0-2.77-2.73-2.93-4.66S224.57,167.89,226.63,167.36Z"/> <path d="M223.4,172.76c.42,1,2.85.8,3.92-.4l.12.72,1-.82.85,1.11.31-.44a4.09,4.09,0,0,0-1.48-5.42C225.14,166.32,221.46,169.77,223.4,172.76Z"/> <path class="cls-24" d="M228.69,173.1a1.68,1.68,0,0,0,.25-.64.75.75,0,0,0-.22-.62.51.51,0,0,0-.64,0,.57.57,0,0,0-.18.43,1.85,1.85,0,0,0,.08.46l.12.41a.37.37,0,0,0,.16.24.27.27,0,0,0,.26,0A.72.72,0,0,0,228.69,173.1Z"/> <path class="cls-24" d="M238.27,193.26l.12,1.72-.07,1.53-.45,1.14c-.08.27-.38.35-.28,0l-.39,1.24c-.09.37-.46.38-.44,0l.29-1.64-1,2.24c-.16.34-.57.37-.47-.08l.71-2.44-.75,1.33-.75.9c-.3.3-.7.14-.51-.24l.78-1.25s.34-1,.47-1.44a9.37,9.37,0,0,0-.19-.95l-1.77.93c-.48.15-.67-.27-.25-.58l1.79-1.58,1.14-.69.1-.06.26-.82,1.69.13Z"/> <path class="cls-34" d="M234.94,175c1.92,2.07,2.88,4.46,4.29,8,.35,2.91-.21,6.58-.95,10.45-.55.27-1.13.07-1.88-.29.07-2.87-.64-5.79-.35-8.64-1.52-1-3-3.72-4.66-6.12C230.92,175,232.87,173.2,234.94,175Z"/> <path class="cls-73" d="M210.86,228.86c1.79-.11,1.39-3.15.91-4.81a1.19,1.19,0,0,0-1.49-.69c-.59.19-.95,1.32-.93,1.94S208.74,229,210.86,228.86Z"/> <path class="cls-24" d="M211.84,225.7c.3-2.57-2.5-2.78-2.12,0,.1.75.56,1.29,1,1.31C211.49,227.05,211.77,226.23,211.84,225.7Z"/> <path class="cls-24" d="M220.15,224.69a4.3,4.3,0,0,0,2.75.93.5.5,0,0,0,.37-.13c.13-.16,0-.41-.07-.59-.91-1.47-2.6-2.73-3.35-4.29a1.28,1.28,0,0,0-.31-.5c-.24-.19-.56-.15-.85-.22s-.54-.24-.78-.11-.27.42-.33.67-.19.93-.28,1.19a1.33,1.33,0,0,0-.06.81,1.23,1.23,0,0,0,.66.72c.29.16.61.26.9.42A10.14,10.14,0,0,1,220.15,224.69Z"/> <path class="cls-73" d="M223.27,225.49a.54.54,0,0,1-.37.13,4.32,4.32,0,0,1-2.75-.93,10.14,10.14,0,0,0-1.35-1.1c-.29-.16-.61-.26-.9-.41a1.31,1.31,0,0,1-.66-.73,1.33,1.33,0,0,1,.06-.81c.07-.23.17-.86.24-1.09a.3.3,0,0,0,0-.1c.06-.25.11-.55.33-.67s.52,0,.78.11.62,0,.85.22a1.28,1.28,0,0,1,.31.5,6,6,0,0,0,1.22,1.6,15.47,15.47,0,0,1,2.13,2.69C223.3,225.08,223.4,225.33,223.27,225.49Z"/> <path class="cls-24" d="M221.6,223.06a.3.3,0,0,1-.1.27.49.49,0,0,1-.24,0,4.3,4.3,0,0,1-2.32-1.15,6.23,6.23,0,0,1-1-.95,3.27,3.27,0,0,1-.43-.72.3.3,0,0,0,0-.1c.06-.25.07-.77.29-.89s.56,0,.82.08.72-.09.95.1.09.54.17.71a6.66,6.66,0,0,0,1.26,1.76c.15.2.29.4.41.58A.93.93,0,0,1,221.6,223.06Z"/> <path class="cls-24" d="M220.78,205.3c0,.4-.06.86-.09,1.37s-.06,1-.1,1.56-.05.91-.08,1.39c-.31,4.8-.69,10.82-.69,10.83s0,0,0,0c-.44.81-2.07,1-2.22,0a80.08,80.08,0,0,0-1.14-8.47c-.13-.87-.25-1.71-.32-2.53a17.94,17.94,0,0,1-.09-2.06v-.1a12.5,12.5,0,0,1,.15-1.74c0-.17.06-.34.1-.51l3.69-2.4C220,202.74,220.78,205.19,220.78,205.3Z"/> <path class="cls-24" d="M216.44,200c-.61,3.14-1,5.62-1.33,7.52L215,208a15.37,15.37,0,0,1-.5,1.91,3,3,0,0,1-.13.36l-.3,1.47-.14.64-2.37,11.37-.09.4-.07.37c0,.9-1.37.59-1.46-.16v-.17l-.06-.5c-.73-6.87-.53-9.64-.07-12.23.06-.33.12-.67.19-1s.19-1,.29-1.5l-.06-.51s0-.08,0-.13a.15.15,0,0,1,0-.07A49.08,49.08,0,0,1,210,200Z"/> <path class="cls-24" d="M216.44,200c-.61,3.14-1,5.62-1.33,7.52L215,208a15.37,15.37,0,0,1-.5,1.91,3,3,0,0,1-.13.36l-.3,1.47-.14.64-2.37,11.37-.09.4-.07.37c0,.9-1.37.59-1.46-.16v-.17l-.06-.5c-.73-6.87-.53-9.64-.07-12.23.06-.33.12-.67.19-1s.19-1,.29-1.5l-.06-.51s0-.08,0-.13a.15.15,0,0,1,0-.07A49.08,49.08,0,0,1,210,200Z"/> <path class="cls-24" d="M215.11,207.53,215,208a15.37,15.37,0,0,1-.5,1.91,3,3,0,0,1-.13.36l-.3,1.47-.14.64a9,9,0,0,1-4.13-.92c.06-.33.12-.67.19-1s.19-1,.29-1.5l-.06-.51s0-.08,0-.13Z"/> <path class="cls-24" d="M220.69,206.67c0,.49-.06,1-.1,1.56s-.05.91-.08,1.39a8.67,8.67,0,0,1-4.07,2.36c-.13-.87-.25-1.71-.32-2.53a17.94,17.94,0,0,1-.09-2.06Z"/> <path class="cls-74" d="M224.57,191.55l-5.77-1.15s-2.2-7.26-2.12-7.38,2.21-4.48,2.21-4.48l1.66,9.11,5,2.5Z"/> <path class="cls-75" d="M224.57,191.55l-5.77-1.15s-2.2-7.26-2.12-7.38,2.21-4.48,2.21-4.48l1.66,9.11,5,2.5Z"/> <path class="cls-49" d="M213.33,174.12c-3.68,1.19-2.89,4.66-1.9,7.37l2.59-2.43Z"/> <path class="cls-27" d="M220.61,207.94c-.56,1.52-8.15,4.58-10.55,2.2l-.7-10.48c-.65-3.44-.08-5.22,1.7-6.88.22-.2.45-.4.7-.6l5.33-.21,2.09-.09A41.85,41.85,0,0,1,220.61,207.94Z"/> <path class="cls-76" d="M221.43,186.65a2,2,0,0,1-2.25,1.86,11.53,11.53,0,0,0,0,3.37,3.74,3.74,0,0,1-2.54,2.51,6.33,6.33,0,0,1-5.58-1.61,15.54,15.54,0,0,0-1.05-6.34,31.86,31.86,0,0,1-.84-4.23,15.57,15.57,0,0,1,4-3.29c1.58-1.1,2.79-2.36,4.59-1.69s1.53,4.13,2.19,5.55S221.43,185.18,221.43,186.65Z"/> <path class="cls-77" d="M219.18,191.88a3.74,3.74,0,0,1-2.54,2.51,6.33,6.33,0,0,1-5.58-1.61c-1.78,1.66-2.35,3.44-1.7,6.88l.7,10.48a3.28,3.28,0,0,0,1.18.68,57.2,57.2,0,0,1,.84-15c4.41.17,6.28-.87,7.31-3.3Z"/> <path class="cls-78" d="M219.18,191.88a3.74,3.74,0,0,1-2.54,2.51,6.33,6.33,0,0,1-5.58-1.61,15.54,15.54,0,0,0-1.05-6.34l1.33-1.11,2.08,3.53c1.38,2.32,5,1.86,5.11-.51l.65.18A11.4,11.4,0,0,0,219.18,191.88Z"/> <path class="cls-24" d="M214.76,190.55a1.91,1.91,0,0,0,1.08.83l.74.16c.08.22.41.26.75.3s.36-.15.34-.35c.2-.14.31-.3.23-.49a.38.38,0,0,0,.16-.52.45.45,0,0,0,.11-.57l1.84.22c.39.05.53-.33,0-.45l-3.41-.63a3.27,3.27,0,0,0-1.46,0l-1.17.3.07,1.42Z"/> <path class="cls-76" d="M209.17,182.21c-1.94,2.37-4,9-2.58,10,1.61,1.39,5-.15,8.25-1.45-.17-.76-.19-1.32.3-1.73l-5.92.68,2.36-3.73C212.49,182.88,210.93,181.06,209.17,182.21Z"/> <path class="cls-24" d="M213.81,176.49c-.23.8-.86,2-1,2.8-.18,1,1.56,2.41,2.73,2.33.82-.16,1-1.22,1.15-2.2Z"/> <path class="cls-25" d="M214.41,177.1s-.69,5.64,2,5.17c1.77-.3,1.4-3.22,1.4-3.22Z"/> <path class="cls-49" d="M217.53,173.6c2.33.35,4.95,3.2,1,4.79A6.74,6.74,0,0,0,217.53,173.6Z"/> <path class="cls-24" d="M216.12,171.94c2.71.37,3.55,2,3.28,4.13,0,1.81-1.54,4.21-2.59,4.16-1.5.09-2.24-1.67-3.52-3.54C212.29,173.61,213.59,171.59,216.12,171.94Z"/> <path class="cls-49" d="M219.36,176.13a5.05,5.05,0,0,1-2.59,1.2c-1,.4-1.88.36-2.25.89l-1.1-.46c-1.11-1.27-1.22-4.92.68-5.69C217.16,170.83,220.78,173.9,219.36,176.13Z"/> <path class="cls-24" d="M214.48,177.66c-.16-.66-.63-1.1-1-.72-.18.18-.17.51,0,.92a.74.74,0,0,0,.59.52C214.42,178.44,214.61,178.17,214.48,177.66Z"/> <path class="cls-46" d="M222.93,185.82c-1.73,1.61-2.89,4.05-3.75,7.6l6,.19c-.09-2.76,1.72-5.34,4-7.79Z"/> <path class="cls-24" d="M225,190.32c-.62.06-.61.54-.16.59-.7,0-.81.6-.22.64-.41,0-.48.48.1.54-.43.13-.47.41,0,.48l.67,0c.27,0,.63-.13.55-.46.23,0,.4-.55.29-.59.21-.09.35-.49.2-.62.29-.15.32-.56-.08-1l-.2-.2-.29.57Z"/> <rect class="cls-79" y="338.9" width="784.47" height="54.75" rx="27.38"/> </g> </g> </g> </svg>