<?xml version="1.0" encoding="utf-8"?>
<!-- Generator: Adobe Illustrator 24.1.0, SVG Export Plug-In . SVG Version: 6.00 Build 0)  -->
<svg version="1.1" id="Layer_1" xmlns="http://www.w3.org/2000/svg" xmlns:xlink="http://www.w3.org/1999/xlink" x="0px" y="0px"
	 viewBox="0 0 989.5 371.7" style="enable-background:new 0 0 989.5 371.7;" xml:space="preserve">
<style type="text/css">
	.st0{fill:#1E0692;}
	.st1{opacity:0.8;fill:#1E0692;enable-background:new    ;}
	.st2{fill:#FFFFFF;}
	.st3{opacity:0.2;fill:#B4FFFA;enable-background:new    ;}
	.st4{opacity:0.15;fill:#9BDFF5;enable-background:new    ;}
	.st5{fill:#F5FFFF;}
	.st6{fill:#C2ECFB;}
	.st7{fill:#D9F4FF;}
	.st8{opacity:0.1;fill:#0D0506;enable-background:new    ;}
	.st9{fill:#E9B965;}
	.st10{fill:#FBCD74;}
	.st11{fill:#221132;}
	.st12{fill:#423432;}
	.st13{fill:#301E62;}
	.st14{fill:#3B1F78;}
	.st15{fill:#D42E28;}
	.st16{fill:#E95857;}
	.st17{fill:#F2ADAE;}
	.st18{fill:#573123;}
	.st19{fill:#814E36;}
	.st20{fill:#E3534E;}
	.st21{fill:#45251C;}
	.st22{opacity:0.25;fill:url(#SVGID_1_);enable-background:new    ;}
	.st23{opacity:0.25;fill:url(#SVGID_2_);enable-background:new    ;}
	.st24{fill:#FEC9C9;}
	.st25{opacity:0.15;fill:#CF3838;enable-background:new    ;}
	.st26{fill:#110812;}
	.st27{fill:#277A85;}
	.st28{fill:url(#SVGID_3_);}
	.st29{opacity:0.25;fill:#BD221E;enable-background:new    ;}
	.st30{fill:url(#SVGID_4_);}
	.st31{fill:url(#SVGID_5_);}
	.st32{fill:url(#SVGID_6_);}
	.st33{fill:#E4C79A;}
	.st34{fill:#5C504D;}
	.st35{fill:#FBDFB4;}
	.st36{fill:#A6A09E;}
	.st37{fill:#1F444D;}
	.st38{fill:#D1AE51;}
	.st39{fill:#744C9B;}
	.st40{fill:#9574B2;}
	.st41{fill:#B69DC9;}
	.st42{fill:#8E6BAC;}
	.st43{fill:#FFBAA8;}
	.st44{fill:#69B2E6;}
	.st45{fill:#1D1D1B;}
	.st46{fill:#3C3C3B;}
	.st47{fill:#6BD8EB;}
	.st48{opacity:0.25;enable-background:new    ;}
	.st49{fill:#575756;}
	.st50{fill:#444443;}
	.st51{fill:#382C2D;}
	.st52{fill:#3D5A55;}
	.st53{opacity:0.1;fill:#1D1D1B;enable-background:new    ;}
	.st54{fill:#4D4D4D;}
	.st55{fill:#F0C6B4;}
	.st56{fill:#BCBEC0;}
	.st57{fill:#303033;}
	.st58{fill:#0F1734;}
	.st59{fill:#202B57;}
	.st60{fill:#6E4826;}
	.st61{fill:#3C2415;}
	.st62{fill:#BA6000;}
	.st63{fill:#C7A496;}
	.st64{opacity:0.2;enable-background:new    ;}
	.st65{fill:#0F2034;}
	.st66{fill:#1D374E;}
	.st67{fill:#FF8400;}
	.st68{fill:#9C251F;}
	.st69{fill:#121214;}
	.st70{fill:#BDAF83;}
	.st71{fill:#E6DAB0;}
	.st72{fill:#E31B25;}
	.st73{opacity:0.3;fill:#121214;enable-background:new    ;}
	.st74{fill:#603913;}
	.st75{fill:#535359;}
	.st76{fill:#2B5E85;}
	.st77{fill:#FF3F4A;}
	.st78{fill:#939598;}
	.st79{fill:#CCCCCC;}
	.st80{opacity:0.2;fill:#FFFFFF;enable-background:new    ;}
	.st81{fill:#9C9C9C;}
	.st82{fill:#212121;}
	.st83{fill:#915E33;}
	.st84{fill:#57391E;}
	.st85{fill:#FF9800;}
	.st86{fill:#F5B400;}
	.st87{fill:#C4C4C4;}
	.st88{fill:#A6A6A6;}
	.st89{fill:#8A8A8A;}
	.st90{fill:#242424;}
	.st91{fill:#141414;}
	.st92{opacity:0.8;fill:#FFFFFF;enable-background:new    ;}
</style>
<path class="st0" d="M27.4,317h934.8c15.1,0,27.4,12.3,27.4,27.4l0,0c0,15.1-12.3,27.4-27.4,27.4H27.4C12.3,371.7,0,359.5,0,344.4
	l0,0C0,329.2,12.3,317,27.4,317z"/>
<path class="st1" d="M30,0h929.5c16.6,0,30,13.4,30,30v311.7c0,16.6-13.4,30-30,30H30c-16.6,0-30-13.4-30-30V30C0,13.4,13.4,0,30,0z
	"/>
<path class="st2" d="M350.6,50.4c1.7-0.3,3.4-0.4,5.1-0.4c2.6,0,4.5,0.6,5.8,1.7c1.2,1.1,1.9,2.7,1.8,4.3c0.1,1.6-0.5,3.2-1.6,4.4
	c-1.7,1.6-4,2.4-6.3,2.2c-0.7,0-1.4,0-2.1-0.2v8.2h-2.6L350.6,50.4z M353.2,60.3c0.7,0.2,1.5,0.2,2.2,0.2c3.2,0,5.1-1.5,5.1-4.4
	s-1.9-4-4.8-4c-0.8,0-1.7,0-2.5,0.2L353.2,60.3z"/>
<path class="st2" d="M374,70.6l-0.2-1.8h-0.1c-1.1,1.4-2.7,2.3-4.5,2.2c-2.3,0.2-4.3-1.6-4.5-3.9c0-0.1,0-0.2,0-0.4
	c0-3.6,3.2-5.5,8.9-5.5V61c0-1.2-0.3-3.4-3.4-3.4c-1.4,0-2.7,0.4-3.8,1.1l-0.6-1.8c1.5-0.9,3.1-1.3,4.8-1.3c4.5,0,5.6,3.1,5.6,6v5.5
	c0,1.2,0.1,2.4,0.2,3.5L374,70.6z M373.6,63.1c-2.9-0.1-6.2,0.5-6.2,3.3c-0.1,1.3,0.8,2.4,2.1,2.6c0.1,0,0.3,0,0.4,0
	c1.6,0,3-1,3.6-2.5c0.1-0.3,0.1-0.6,0.1-0.8V63.1z"/>
<path class="st2" d="M381.7,62.1h1.3c2.2,0,3.8-1,3.8-2.4s-1.2-2.1-2.9-2.1c-1.3,0-2.5,0.4-3.5,1l-0.7-1.7c1.5-0.9,3.2-1.3,4.9-1.3
	c2.2,0,5,1,5,3.9c0,1.8-1.7,3-3.3,3.3v0.1c2.2,0.2,4,1.5,4,3.7c0,3.2-3.2,4.4-6.4,4.4c-1.7,0-3.3-0.4-4.8-1.2l0.7-1.8
	c1.2,0.6,2.5,1,3.9,1c2.2,0,3.6-1.1,3.6-2.5c0-2-2.1-2.5-4.3-2.5h-1.3L381.7,62.1z"/>
<path class="st2" d="M393.5,56.1c1.5-0.2,3.1-0.3,4.7-0.3c2.5,0,6.5,0.4,6.5,3.7c-0.1,1.7-1.4,3.1-3.1,3.3v0.1
	c2.2,0.3,3.7,1.5,3.7,3.7c0,3.9-4.9,4.3-7.8,4.3c-1.6,0-3.3-0.1-4.1-0.2L393.5,56.1z M396.1,68.9c0.7,0.1,1.4,0.1,2.2,0.1
	c1.8,0,4.5-0.4,4.5-2.6s-2.1-2.6-4.7-2.6h-1.9V68.9z M396.1,62.1h2c2,0,4-0.6,4-2.3c0-1.5-1.3-2.2-4-2.2c-0.7,0-1.4,0-2.1,0.1
	L396.1,62.1z"/>
<path class="st2" d="M420,55.9v14.7h-2.6V58h-5v3.8c0,4.1-0.4,6.9-2.3,8.1c-0.8,0.7-1.9,1-2.9,0.9l-0.3-2.1c0.5-0.1,1-0.3,1.5-0.6
	c1.4-1,1.5-3.1,1.5-6.4v-5.9H420z"/>
<path class="st2" d="M425.9,63.7c0.1,3.6,2.4,5.1,5,5.1c1.4,0,2.8-0.2,4.1-0.8l0.5,1.9c-1.5,0.7-3.2,1-4.9,0.9c-4.5,0-7.2-3-7.2-7.4
	s2.6-7.9,6.9-7.9c4.8,0,6.1,4.2,6.1,6.9c0,0.4,0,0.8-0.1,1.2L425.9,63.7z M433.8,61.8c0-1.7-0.7-4.3-3.7-4.3c-2.7,0-3.9,2.5-4.1,4.3
	H433.8z"/>
<path class="st2" d="M442.3,55.9v6.4h0.6l5.5-6.4h3.2l-6.4,6.7c2.4,0.2,3.8,1.8,5,4.5c0.5,1.2,1,2.4,1.6,3.6H449c-0.5-1-1-2-1.4-3
	c-1-2.4-2.4-3.5-4.9-3.5h-0.5v6.5h-2.6V55.9H442.3z"/>
<path class="st2" d="M462.7,70.6l-0.2-1.8h-0.1c-1.1,1.4-2.7,2.2-4.5,2.2c-2.3,0.2-4.3-1.6-4.5-3.9c0-0.1,0-0.2,0-0.4
	c0-3.6,3.2-5.5,8.9-5.5V61c0-1.2-0.3-3.4-3.4-3.4c-1.4,0-2.7,0.4-3.8,1.1l-0.6-1.8c1.5-0.9,3.1-1.3,4.8-1.3c4.5,0,5.6,3.1,5.6,6v5.5
	c0,1.2,0.1,2.4,0.2,3.5L462.7,70.6z M462.3,63.1c-2.9-0.1-6.2,0.5-6.2,3.3c-0.1,1.3,0.8,2.4,2.1,2.6c0.1,0,0.3,0,0.4,0
	c1.6,0,3-1,3.5-2.5c0.1-0.3,0.2-0.6,0.2-0.8V63.1z"/>
<path class="st2" d="M612.6,70.6l-0.2-1.8h-0.1c-1.1,1.4-2.7,2.2-4.5,2.2c-2.3,0.2-4.3-1.6-4.5-3.9c0-0.1,0-0.2,0-0.4
	c0-3.6,3.2-5.5,8.8-5.5V61c0-1.2-0.3-3.4-3.3-3.4c-1.4,0-2.7,0.4-3.8,1.1l-0.6-1.8c1.5-0.9,3.1-1.3,4.8-1.3c4.5,0,5.6,3.1,5.6,6v5.5
	c0,1.2,0.1,2.4,0.2,3.5L612.6,70.6z M612.2,63.1c-2.9-0.1-6.2,0.5-6.2,3.3c-0.1,1.3,0.8,2.4,2.1,2.6c0.1,0,0.3,0,0.4,0
	c1.6,0,3-1,3.5-2.5c0.1-0.3,0.2-0.6,0.2-0.8V63.1z"/>
<path class="st2" d="M643.1,70.6l-0.2-1.8h-0.1c-1.1,1.4-2.7,2.2-4.5,2.2c-2.3,0.2-4.3-1.6-4.5-3.9c0-0.1,0-0.2,0-0.4
	c0-3.6,3.2-5.5,8.8-5.5V61c0-1.2-0.3-3.4-3.3-3.4c-1.4,0-2.7,0.4-3.8,1.1l-0.6-1.8c1.5-0.9,3.1-1.3,4.8-1.3c4.5,0,5.6,3.1,5.6,6v5.5
	c0,1.2,0.1,2.4,0.2,3.5L643.1,70.6z M642.7,63.1c-2.9-0.1-6.2,0.5-6.2,3.3c-0.1,1.3,0.8,2.4,2.1,2.6c0.1,0,0.3,0,0.4,0
	c1.6,0,3-1,3.5-2.5c0.1-0.3,0.2-0.6,0.2-0.8V63.1z"/>
<path class="st2" d="M478.9,55.9V58h-4.6v12.6h-2.6V58h-4.6v-2.1H478.9z"/>
<path class="st2" d="M482.3,63.7c0.1,3.6,2.4,5.1,5,5.1c1.4,0,2.8-0.2,4.1-0.8l0.5,1.9c-1.5,0.7-3.2,1-4.9,0.9c-4.5,0-7.2-3-7.2-7.4
	s2.6-7.9,6.9-7.9c4.8,0,6.1,4.2,6.1,6.9c0,0.4,0,0.8-0.1,1.2L482.3,63.7z M490.2,61.8c0-1.7-0.7-4.3-3.7-4.3c-2.7,0-3.9,2.5-4.1,4.3
	H490.2z"/>
<path class="st2" d="M507.2,55.9v14.7h-2.6V58h-5v3.8c0,4.1-0.4,6.9-2.3,8.1c-0.8,0.7-1.9,1-2.9,0.9l-0.3-2.1c0.5-0.1,1-0.3,1.5-0.6
	c1.4-1,1.5-3.1,1.5-6.4v-5.9H507.2z"/>
<path class="st2" d="M661,55.9v14.7h-2.6V58h-5v3.8c0,4.1-0.4,6.9-2.3,8.1c-0.8,0.7-1.9,1-2.9,0.9l-0.3-2.1c0.5-0.1,1-0.3,1.5-0.6
	c1.4-1,1.5-3.1,1.5-6.4v-5.9H661z"/>
<path class="st2" d="M514.2,55.9v5c0.8-0.1,1.6-0.2,2.4-0.2c3.3,0,6.8,1,6.8,5c0,1.3-0.5,2.6-1.5,3.4c-1.6,1.4-4.2,1.7-6.4,1.7
	c-1.3,0-2.7-0.1-4-0.2V55.9H514.2z M514.2,68.8c0.7,0.1,1.3,0.1,2,0.1c2,0,4.6-0.7,4.6-3.1c0-2.5-2.7-3.1-4.7-3.1
	c-0.6,0-1.3,0.1-1.9,0.2L514.2,68.8z"/>
<path class="st2" d="M529.3,55.9v5.9h7v-5.9h2.7v14.7h-2.6V64h-7v6.7h-2.7V55.9H529.3z"/>
<path class="st2" d="M545.9,55.9v5c0.8-0.1,1.6-0.2,2.4-0.2c3.2,0,6.3,1.3,6.3,4.9c0.1,1.3-0.5,2.6-1.5,3.4c-1.6,1.4-4,1.7-5.9,1.7
	c-1.3,0-2.7-0.1-4-0.2V55.9H545.9z M545.9,68.8c0.6,0.1,1.2,0.1,1.8,0.1c2,0,4.3-0.8,4.3-3.1c0-2.3-2.1-3.1-4.1-3.1
	c-0.7,0-1.3,0-2,0.2L545.9,68.8z M559.2,55.9v14.7h-2.6V55.9L559.2,55.9z"/>
<path class="st2" d="M566,55.9v6.2c0,2.3,0,3.8-0.2,5.9h0.1c0.9-1.8,1.4-2.8,2.4-4.5l4.6-7.6h3.1v14.7h-2.5v-6.2
	c0-2.4,0.1-3.7,0.2-6h-0.1c-0.9,1.9-1.6,3.1-2.4,4.6c-1.4,2.3-3,5.1-4.6,7.7h-3.1V55.9H566z M567.7,49.9c0.1,1.3,0.7,2.3,2,2.3
	s1.9-1,2.1-2.3h1.9c0.1,2-1.5,3.7-3.6,3.8c-0.1,0-0.3,0-0.4,0c-2.7,0-3.7-1.7-3.8-3.8H567.7z"/>
<path class="st2" d="M663,74.4c0.8-2.4,1.4-4.8,1.8-7.3l3-0.3c-0.7,2.6-1.7,5-2.9,7.4L663,74.4z"/>
<path class="st2" d="M680.2,55.9v6.4h0.6l5.5-6.4h3.3l-6.4,6.7c2.4,0.2,3.8,1.8,5,4.5c0.4,1.2,1,2.4,1.6,3.6h-2.8c-0.5-1-1-2-1.4-3
	c-1-2.4-2.4-3.5-4.9-3.5h-0.5v6.5h-2.6V55.9H680.2z"/>
<path class="st2" d="M591.1,55.9v6.4h0.6l5.5-6.4h3.3l-6.4,6.7c2.4,0.2,3.8,1.8,5,4.5c0.4,1.2,1,2.4,1.6,3.6h-2.8c-0.5-1-1-2-1.4-3
	c-1-2.4-2.4-3.5-4.9-3.5h-0.5v6.5h-2.6V55.9H591.1z"/>
<path class="st2" d="M705.2,63.1c0,5.4-3.8,7.8-7.3,7.8c-4,0-7-2.9-7-7.6c0-4.9,3.2-7.8,7.3-7.8S705.2,58.6,705.2,63.1z M693.5,63.3
	c0,3.2,1.8,5.7,4.5,5.7s4.5-2.4,4.5-5.7c0-2.5-1.2-5.7-4.4-5.7S693.5,60.5,693.5,63.3L693.5,63.3z"/>
<path class="st2" d="M718.3,55.9V58h-4.6v12.6H711V58h-4.6v-2.1H718.3z"/>
<path class="st2" d="M733.5,63.1c0,5.4-3.8,7.8-7.3,7.8c-4,0-7-2.9-7-7.6c0-4.9,3.2-7.8,7.3-7.8S733.5,58.6,733.5,63.1z M721.9,63.3
	c0,3.2,1.8,5.7,4.5,5.7s4.5-2.4,4.5-5.7c0-2.5-1.2-5.7-4.4-5.7S721.9,60.5,721.9,63.3z"/>
<path class="st2" d="M736.9,60.7c0-1.9-0.1-3.4-0.1-4.8h2.4l0.1,2.5h0.1c1.1-1.8,3.1-2.9,5.2-2.8c3.6,0,6.2,3,6.2,7.5
	c0,5.3-3.2,7.9-6.7,7.9c-1.8,0.1-3.5-0.8-4.5-2.3h-0.1v8h-2.6L736.9,60.7z M739.5,64.6c0,0.4,0.1,0.7,0.1,1.1c0.5,1.8,2.1,3.1,4,3.1
	c2.8,0,4.5-2.3,4.5-5.7c0-3-1.5-5.5-4.4-5.5c-1.9,0.1-3.6,1.4-4,3.3c-0.1,0.4-0.2,0.7-0.2,1.1L739.5,64.6z"/>
<path class="st2" d="M756.8,55.9v5c0.8-0.1,1.6-0.2,2.4-0.2c3.2,0,6.3,1.3,6.3,4.9c0.1,1.3-0.5,2.6-1.5,3.4c-1.6,1.4-4,1.7-5.9,1.7
	c-1.3,0-2.7-0.1-4-0.2V55.9H756.8z M756.8,68.8c0.6,0.1,1.2,0.1,1.8,0.1c2,0,4.3-0.8,4.3-3.1c0-2.3-2.1-3.1-4.1-3.1
	c-0.7,0-1.3,0-2,0.2L756.8,68.8z M770,55.9v14.7h-2.6V55.9H770z"/>
<path class="st2" d="M776.9,55.9v6.2c0,2.3,0,3.8-0.2,5.9h0.1c0.9-1.8,1.4-2.8,2.4-4.5l4.6-7.6h3.1v14.7h-2.5v-6.2
	c0-2.4,0.1-3.7,0.2-6h-0.1c-1,1.9-1.6,3.1-2.4,4.6c-1.4,2.3-3,5.1-4.6,7.7h-3.1V55.9H776.9z M778.6,49.9c0.1,1.3,0.7,2.3,2,2.3
	s1.9-1,2.1-2.3h1.9c0.1,2-1.5,3.7-3.6,3.8c-0.1,0-0.3,0-0.4,0c-2.7,0-3.7-1.7-3.8-3.8H778.6z"/>
<path class="st2" d="M797.8,55.9h3.3l2.7,7.4c0.4,1.1,1,2.9,1.3,4h0.1c0.3-1.1,1.2-3.4,1.7-5.1l2.4-6.4h3.3l1,14.7h-2.5l-0.3-7
	c-0.1-1.6-0.2-3.5-0.3-5.3h-0.1c-0.4,1.3-0.8,2.5-1.6,4.8l-2.8,7.4h-2l-2.6-7.3c-0.5-1.4-1.1-3.5-1.5-4.9h-0.1
	c-0.1,1.7-0.2,3.7-0.2,5.3l-0.4,7h-2.5L797.8,55.9z"/>
<path class="st2" d="M830.4,63.1c0,5.4-3.8,7.8-7.3,7.8c-4,0-7-2.9-7-7.6c0-4.9,3.2-7.8,7.3-7.8C827.6,55.6,830.4,58.6,830.4,63.1z
	 M818.8,63.3c0,3.2,1.9,5.7,4.5,5.7s4.5-2.4,4.5-5.7c0-2.5-1.2-5.7-4.4-5.7S818.8,60.5,818.8,63.3z"/>
<path class="st2" d="M834.8,55.9l4.9,6.4h0.5v-6.4h2.5v6.4h0.5l4.9-6.4h3.1l-5.8,6.7c2.2,0.2,3.5,1.6,4.4,3.9c0.5,1.4,1,2.8,1.6,4.1
	h-2.7c-0.5-1.1-1-2.2-1.3-3.4c-0.9-2.4-2.3-3.1-4.2-3.1h-0.5v6.5h-2.5v-6.5h-0.5c-2.1,0-3.3,0.8-4.2,3.2c-0.4,1.1-0.9,2.3-1.4,3.3
	h-2.6c0.6-1.2,1.1-2.7,1.6-4.1c0.9-2.4,2.2-3.7,4.4-3.9l-5.8-6.7H834.8z"/>
<path class="st2" d="M856.4,55.9v5.9h7v-5.9h2.6v14.7h-2.6V64h-7v6.7h-2.7V55.9H856.4z"/>
<path class="st2" d="M621.3,55.9v5.9h7v-5.9h2.6v14.7h-2.6V64h-7v6.7h-2.7V55.9H621.3z"/>
<path class="st2" d="M883.7,63.1c0,5.4-3.8,7.8-7.3,7.8c-4,0-7-2.9-7-7.6c0-4.9,3.2-7.8,7.3-7.8C880.9,55.6,883.7,58.6,883.7,63.1z
	 M872.1,63.3c0,3.2,1.9,5.7,4.5,5.7s4.5-2.4,4.5-5.7c0-2.5-1.2-5.7-4.4-5.7S872.1,60.5,872.1,63.3z"/>
<path class="st2" d="M361,106.6c-1.3,0.6-2.8,0.9-4.2,0.8c-4.4,0-7.3-3-7.3-7.5c-0.2-4.1,3-7.6,7.1-7.8c0.3,0,0.5,0,0.8,0
	c1.3,0,2.5,0.2,3.7,0.8l-0.6,2.1c-1-0.5-2-0.7-3.1-0.7c-3.4,0-5.2,2.5-5.2,5.6c0,3.4,2.2,5.5,5.1,5.5c1.1,0,2.3-0.2,3.3-0.7
	L361,106.6z"/>
<path class="st2" d="M375.8,92.4v14.7h-2.6V94.5h-5v3.8c0,4.1-0.4,6.9-2.3,8.2c-0.8,0.7-1.9,1-2.9,0.9l-0.3-2.1
	c0.5-0.1,1-0.3,1.5-0.6c1.4-1,1.5-3.1,1.5-6.3v-5.9H375.8z"/>
<path class="st2" d="M381,92.4l3.2,8.7c0.3,1,0.7,2.1,1,3h0.1c0.3-0.9,0.6-2,0.9-3.1l2.9-8.6h2.8l-4,10.5c-1.9,5-3.2,7.6-5,9.2
	c-0.9,0.9-2.1,1.5-3.3,1.7l-0.7-2.2c0.9-0.3,1.7-0.7,2.4-1.3c1-0.8,1.7-1.8,2.2-3c0.1-0.2,0.2-0.4,0.2-0.6c0-0.2-0.1-0.5-0.2-0.7
	l-5.5-13.6L381,92.4z"/>
<path class="st2" d="M396.9,92.4V105h5.1V92.4h2.6V105h5.1V92.4h2.6v14.7h-18.1V92.4H396.9z"/>
<path class="st2" d="M424.9,107.1l-0.2-1.9h-0.1c-1.1,1.4-2.7,2.2-4.5,2.2c-2.3,0.2-4.3-1.6-4.5-3.9c0-0.1,0-0.2,0-0.4
	c0-3.6,3.2-5.5,8.9-5.5v-0.3c0-1.2-0.3-3.4-3.4-3.4c-1.4,0-2.7,0.4-3.8,1.1l-0.6-1.8c1.5-0.9,3.1-1.3,4.8-1.3c4.5,0,5.6,3.1,5.6,6
	v5.5c0,1.2,0.1,2.4,0.2,3.5L424.9,107.1z M424.5,99.6c-2.9-0.1-6.2,0.4-6.2,3.3c-0.1,1.3,0.9,2.4,2.2,2.5c0.1,0,0.2,0,0.4,0
	c1.6,0,3-1,3.5-2.5c0.1-0.3,0.2-0.6,0.2-0.8L424.5,99.6z"/>
<path class="st2" d="M441.1,92.4v2.1h-4.6v12.6h-2.6V94.5h-4.6v-2.1H441.1z"/>
<path class="st2" d="M446.1,92.4v5c0.8-0.1,1.6-0.2,2.4-0.2c3.3,0,6.8,1,6.8,5c0,1.3-0.5,2.6-1.5,3.4c-1.6,1.4-4.2,1.7-6.4,1.7
	c-1.3,0-2.6-0.1-4-0.2V92.4H446.1z M446.1,105.2c0.7,0.1,1.3,0.1,2,0.1c2,0,4.6-0.7,4.6-3.1s-2.7-3.1-4.6-3.1
	c-0.6,0-1.3,0.1-1.9,0.2L446.1,105.2z"/>
<path class="st2" d="M465,92.6c1.5-0.2,3.1-0.3,4.7-0.3c2.5,0,6.5,0.4,6.5,3.7c-0.1,1.7-1.4,3.1-3.1,3.3v0.1
	c2.1,0.3,3.7,1.5,3.7,3.7c0,3.9-4.9,4.3-7.8,4.3c-1.6,0-3.3-0.1-4.1-0.2L465,92.6z M467.5,105.3c0.7,0.1,1.4,0.1,2.2,0.1
	c1.8,0,4.5-0.4,4.5-2.6s-2.1-2.6-4.7-2.6h-2L467.5,105.3z M467.5,98.6h2c2,0,4-0.6,4-2.3c0-1.4-1.3-2.2-4-2.2c-0.7,0-1.4,0-2.1,0.1
	L467.5,98.6z"/>
<path class="st2" d="M495.5,85.5v6.6c4.3,0.3,7.4,3,7.4,7.6c0,4.8-3.3,7.4-7.4,7.7v5.7H493v-5.7c-4.2-0.3-7.4-3-7.4-7.5
	c0-4.9,3.2-7.4,7.4-7.8v-6.6H495.5z M493,93.9c-3,0.4-4.7,2.8-4.7,5.8s1.8,5.4,4.7,5.8V93.9z M495.4,105.5c2.9-0.4,4.7-2.8,4.7-5.8
	c0.2-2.9-1.9-5.4-4.7-5.8V105.5z"/>
<path class="st2" d="M519.5,99.6c0,5.4-3.8,7.8-7.3,7.8c-4,0-7-2.9-7-7.6c0-4.9,3.2-7.8,7.3-7.8C516.5,92.1,519.5,95.1,519.5,99.6z
	 M507.8,99.8c0,3.2,1.9,5.7,4.5,5.7s4.5-2.4,4.5-5.7c0-2.5-1.2-5.7-4.4-5.7S507.8,97,507.8,99.8z"/>
<path class="st2" d="M525.5,92.4v5.9h7v-5.9h2.6v14.7h-2.6v-6.7h-7v6.7h-2.7V92.4H525.5z"/>
<path class="st2" d="M552.8,99.6c0,5.4-3.8,7.8-7.3,7.8c-4,0-7-2.9-7-7.6c0-4.9,3.2-7.8,7.3-7.8S552.8,95.1,552.8,99.6z M541.1,99.8
	c0,3.2,1.8,5.7,4.5,5.7s4.4-2.4,4.4-5.7c0-2.5-1.2-5.7-4.4-5.7S541.1,97,541.1,99.8L541.1,99.8z"/>
<path class="st2" d="M556.1,92.6c1.5-0.2,3.1-0.3,4.7-0.3c2.5,0,6.5,0.4,6.5,3.7c-0.1,1.7-1.4,3.1-3.1,3.3v0.1
	c2.2,0.3,3.7,1.5,3.7,3.7c0,3.9-4.9,4.3-7.8,4.3c-1.7,0-3.3-0.1-4.1-0.2L556.1,92.6z M558.6,105.3c0.7,0.1,1.4,0.1,2.2,0.1
	c1.8,0,4.5-0.4,4.5-2.6s-2.1-2.6-4.7-2.6h-2L558.6,105.3z M558.6,98.6h2c2,0,4-0.6,4-2.3c0-1.4-1.3-2.2-4-2.2c-0.7,0-1.4,0-2.1,0.1
	L558.6,98.6z"/>
<path class="st2" d="M584.7,99.6c0,5.4-3.8,7.8-7.3,7.8c-4,0-7-2.9-7-7.6c0-4.9,3.2-7.8,7.3-7.8C581.8,92.1,584.7,95.1,584.7,99.6z
	 M573,99.8c0,3.2,1.9,5.7,4.5,5.7s4.5-2.4,4.5-5.7c0-2.5-1.2-5.7-4.4-5.7S573,97,573,99.8z"/>
<path class="st2" d="M588.2,92.4h3.3l2.7,7.4c0.4,1.1,1,2.9,1.3,4h0.1c0.3-1.1,1.2-3.4,1.7-5l2.4-6.4h3.3l1,14.7h-2.5l-0.3-7
	c-0.1-1.6-0.2-3.5-0.3-5.2h-0.1c-0.4,1.3-0.8,2.5-1.6,4.8l-2.8,7.4h-1.9l-2.6-7.3c-0.5-1.4-1.1-3.5-1.5-4.9h-0.1
	c-0.1,1.7-0.2,3.7-0.2,5.3l-0.4,7h-2.5L588.2,92.4z"/>
<path class="st2" d="M613.9,97.2c0-1.9-0.1-3.4-0.1-4.8h2.4l0.1,2.5h0.1c1.1-1.8,3.1-2.9,5.2-2.9c3.6,0,6.2,3,6.2,7.5
	c0,5.3-3.2,7.9-6.7,7.9c-1.8,0.1-3.5-0.8-4.5-2.3h-0.1v8h-2.6V97.2z M616.6,101.1c0,0.4,0,0.7,0.1,1.1c0.5,1.8,2.1,3.1,4,3.1
	c2.8,0,4.5-2.3,4.5-5.7c0-3-1.5-5.5-4.4-5.5c-1.9,0.1-3.6,1.4-4,3.3c-0.1,0.4-0.2,0.7-0.2,1.1L616.6,101.1z"/>
<path class="st2" d="M632.7,100.2c0.1,3.6,2.4,5.1,5,5.1c1.4,0,2.8-0.2,4.1-0.8l0.5,1.9c-1.5,0.6-3.2,1-4.9,0.9
	c-4.5,0-7.2-3-7.2-7.4s2.6-7.9,6.9-7.9c4.8,0,6.1,4.2,6.1,6.9c0,0.4,0,0.8-0.1,1.2H632.7z M640.5,98.3c0-1.7-0.7-4.3-3.7-4.3
	c-2.7,0-3.9,2.5-4.1,4.3H640.5z"/>
<path class="st2" d="M647.7,92.4l4.9,6.4h0.5v-6.4h2.5v6.4h0.5l4.9-6.4h3.1l-5.8,6.7c2.2,0.2,3.5,1.6,4.4,3.9c0.5,1.4,1,2.8,1.6,4.1
	h-2.7c-0.5-1.1-1-2.2-1.3-3.4c-0.9-2.4-2.3-3.1-4.2-3.1h-0.5v6.5h-2.5v-6.5h-0.5c-2.1,0-3.3,0.8-4.2,3.2c-0.4,1.1-0.9,2.3-1.4,3.3
	h-2.6c0.6-1.2,1.1-2.7,1.6-4.1c0.9-2.4,2.2-3.7,4.4-3.9l-5.8-6.7L647.7,92.4z"/>
<path class="st2" d="M669.2,92.4v6.2c0,2.3,0,3.8-0.2,5.9h0.1c0.9-1.8,1.4-2.8,2.4-4.5l4.6-7.6h3.1v14.8h-2.6v-6.2
	c0-2.4,0.1-3.6,0.2-6h-0.1c-1,1.9-1.6,3.1-2.4,4.6c-1.4,2.3-3,5.1-4.6,7.7h-3.1V92.4H669.2z"/>
<path class="st2" d="M683.7,92.4h3.3l2.7,7.4c0.4,1.1,1,2.9,1.3,4h0c0.3-1.1,1.2-3.4,1.7-5l2.4-6.4h3.3l1,14.7h-2.5l-0.3-7
	c-0.1-1.6-0.2-3.5-0.3-5.2h-0.1c-0.4,1.3-0.8,2.5-1.6,4.8l-2.8,7.4h-1.9l-2.6-7.3c-0.5-1.4-1.1-3.5-1.5-4.9h-0.1
	c-0.1,1.7-0.2,3.7-0.2,5.3l-0.4,7h-2.5L683.7,92.4z"/>
<path class="st2" d="M704.4,100.2c0.1,3.6,2.4,5.1,5,5.1c1.4,0,2.8-0.2,4.1-0.8l0.5,1.9c-1.6,0.6-3.2,1-4.9,0.9
	c-4.5,0-7.2-3-7.2-7.4s2.6-7.9,6.9-7.9c4.8,0,6.1,4.2,6.1,6.9c0,0.4,0,0.8-0.1,1.2H704.4z M712.3,98.3c0-1.7-0.7-4.3-3.7-4.3
	c-2.7,0-3.9,2.5-4.1,4.3H712.3z"/>
<path class="st2" d="M727.3,92.4v6.4h0.6l5.5-6.4h3.2l-6.4,6.6c2.4,0.2,3.8,1.8,5,4.5c0.5,1.2,1,2.4,1.6,3.6H734c-0.5-1-1-2-1.4-3
	c-1-2.4-2.4-3.5-4.9-3.5h-0.5v6.5h-2.6V92.4H727.3z"/>
<path class="st2" d="M747.6,107.1l-0.2-1.9h-0.1c-1.1,1.4-2.7,2.2-4.5,2.2c-2.3,0.2-4.3-1.6-4.5-3.9c0-0.1,0-0.2,0-0.4
	c0-3.6,3.2-5.5,8.8-5.5v-0.3c0-1.2-0.3-3.4-3.3-3.4c-1.4,0-2.7,0.4-3.8,1.1l-0.6-1.8c1.5-0.9,3.1-1.3,4.8-1.3c4.5,0,5.6,3.1,5.6,6
	v5.5c0,1.2,0.1,2.4,0.2,3.5L747.6,107.1z M747.2,99.6c-2.9-0.1-6.2,0.4-6.2,3.3c-0.1,1.3,0.9,2.4,2.2,2.5c0.1,0,0.2,0,0.4,0
	c1.6,0,3-1,3.6-2.5c0.1-0.3,0.1-0.6,0.2-0.8L747.2,99.6z"/>
<path class="st2" d="M756.8,92.4v6.4h0.6l5.6-6.4h3.3l-6.5,6.6c2.4,0.2,3.8,1.8,5,4.5c0.4,1.2,1,2.4,1.6,3.6h-2.8c-0.5-1-1-2-1.4-3
	c-1-2.4-2.4-3.5-4.9-3.5h-0.5v6.5h-2.6V92.4H756.8z"/>
<path class="st2" d="M787.2,92.4v14.7h-2.7V94.5h-6.8v12.6h-2.6V92.4H787.2z"/>
<path class="st2" d="M804.9,99.6c0,5.4-3.8,7.8-7.3,7.8c-4,0-7-2.9-7-7.6c0-4.9,3.2-7.8,7.3-7.8C802,92.1,804.9,95.1,804.9,99.6z
	 M793.2,99.8c0,3.2,1.9,5.7,4.5,5.7s4.5-2.4,4.5-5.7c0-2.5-1.2-5.7-4.4-5.7S793.2,97,793.2,99.8L793.2,99.8z"/>
<path class="st2" d="M819.5,92.4v12.7h1.5l-0.2,6.7h-2.1l-0.1-4.7h-10.2l-0.1,4.7h-2.1l-0.1-6.7h1.2c0.6-0.9,1.1-1.9,1.5-3
	c0.6-1.9,0.9-3.9,0.8-5.9v-3.8H819.5z M812,96.8c0,1.8-0.3,3.7-0.8,5.5c-0.3,1-0.7,1.9-1.2,2.7h6.8V94.4H812V96.8z"/>
<path class="st2" d="M826.8,92.4v6.4h0.6l5.5-6.4h3.2l-6.4,6.6c2.4,0.2,3.8,1.8,5,4.5c0.5,1.2,1,2.4,1.6,3.6h-2.8c-0.5-1-1-2-1.4-3
	c-1-2.4-2.4-3.5-4.9-3.5h-0.5v6.5h-2.6V92.4H826.8z"/>
<path class="st2" d="M847.2,107.1l-0.2-1.9h-0.1c-1.1,1.4-2.7,2.2-4.5,2.2c-2.3,0.2-4.3-1.6-4.5-3.9c0-0.1,0-0.2,0-0.4
	c0-3.6,3.2-5.5,8.8-5.5v-0.3c0-1.2-0.3-3.4-3.3-3.4c-1.4,0-2.7,0.4-3.8,1.1l-0.6-1.8c1.5-0.9,3.1-1.3,4.8-1.3c4.5,0,5.6,3.1,5.6,6
	v5.5c0,1.2,0.1,2.4,0.2,3.5L847.2,107.1z M846.8,99.6c-2.9-0.1-6.2,0.4-6.2,3.3c-0.1,1.3,0.9,2.4,2.2,2.5c0.1,0,0.2,0,0.4,0
	c1.6,0,3-1,3.6-2.5c0.1-0.3,0.1-0.6,0.2-0.8L846.8,99.6z"/>
<path class="st2" d="M864.2,106.6c-1.3,0.6-2.8,0.9-4.2,0.8c-4.4,0-7.3-3-7.3-7.5c-0.2-4.1,3-7.6,7.1-7.8c0.3,0,0.5,0,0.8,0
	c1.3,0,2.5,0.2,3.7,0.8l-0.6,2.1c-1-0.5-2-0.7-3.1-0.7c-3.4,0-5.2,2.5-5.2,5.6c0,3.4,2.2,5.5,5.1,5.5c1.1,0,2.3-0.2,3.3-0.7
	L864.2,106.6z"/>
<path class="st2" d="M877.7,92.4v2.1h-4.6v12.6h-2.7V94.5h-4.6v-2.1H877.7z"/>
<path class="st2" d="M876.2,110.8c0.8-2.4,1.4-4.8,1.8-7.3l3-0.3c-0.7,2.6-1.7,5-2.9,7.4L876.2,110.8z"/>
<path class="st2" d="M352.9,128.9v4.8c0,1.9,0.7,3.1,3,3.1c1.1,0,2.2-0.4,3.2-1v-6.9h2.6v14.7h-2.6v-5.9H359c-1.2,0.7-2.6,1.1-4,1.1
	c-2.8,0-4.8-1.4-4.8-4.8v-5.1L352.9,128.9z"/>
<path class="st2" d="M376,128.9v2.1h-4.6v12.6h-2.6V131h-4.6v-2.1L376,128.9z"/>
<path class="st2" d="M391.2,136.1c0,5.4-3.8,7.8-7.3,7.8c-4,0-7-2.9-7-7.6c0-4.9,3.2-7.8,7.3-7.8S391.2,131.6,391.2,136.1z
	 M379.6,136.2c0,3.2,1.9,5.7,4.5,5.7s4.5-2.4,4.5-5.7c0-2.5-1.2-5.6-4.4-5.6S379.6,133.4,379.6,136.2L379.6,136.2z"/>
<path class="st2" d="M405.7,123.9c-1,0.3-2,0.5-3.1,0.7c-2.4,0.4-4.1,1.2-5.2,2.8c-0.9,1.5-1.5,3.1-1.6,4.9h0.1
	c0.9-2,2.9-3.3,5.1-3.3c3.6,0,6.3,2.6,6.3,7.3s-2.5,7.8-6.8,7.8c-5.2,0-6.9-5-6.9-9.9c0-3.3,0.7-6.1,2.3-8.1s3.5-3,6.3-3.5
	c1.2-0.2,2.5-0.4,3.6-0.8L405.7,123.9z M400.5,130.9c-1.4,0-2.7,0.7-3.3,2c-0.5,1-0.7,2-0.7,3.1c0,2.4,1.2,5.9,4.1,5.9s4-2.9,4-5.6
	C404.6,133.9,403.6,130.8,400.5,130.9L400.5,130.9z"/>
<path class="st2" d="M413.2,128.9v5c0.8-0.1,1.6-0.2,2.4-0.2c3.2,0,6.4,1.3,6.4,4.9c0.1,1.3-0.5,2.6-1.5,3.4c-1.6,1.4-4,1.7-5.9,1.7
	c-1.3,0-2.6-0.1-4-0.2v-14.6H413.2z M413.2,141.7c0.6,0.1,1.2,0.1,1.9,0.1c2,0,4.2-0.9,4.2-3.1s-2.1-3.1-4.1-3.1c-0.7,0-1.3,0-2,0.1
	L413.2,141.7z M426.5,128.9v14.7h-2.6v-14.7H426.5z"/>
<path class="st2" d="M448.4,123.9c-1,0.3-2,0.5-3.1,0.7c-2.4,0.4-4.1,1.2-5.2,2.8c-0.9,1.5-1.5,3.1-1.6,4.9h0.1
	c0.9-2,2.9-3.3,5.1-3.3c3.6,0,6.3,2.6,6.3,7.3s-2.5,7.8-6.8,7.8c-5.2,0-6.9-5-6.9-9.9c0-3.3,0.7-6.1,2.3-8.1s3.5-3,6.3-3.5
	c1.2-0.2,2.5-0.4,3.6-0.8L448.4,123.9z M443.2,130.9c-1.4,0-2.7,0.7-3.3,2c-0.5,1-0.8,2-0.7,3.1c0,2.4,1.2,5.9,4.1,5.9s4-2.9,4-5.6
	C447.3,133.9,446.3,130.8,443.2,130.9L443.2,130.9z"/>
<path class="st2" d="M456,128.9v5c0.8-0.1,1.6-0.2,2.4-0.2c3.2,0,6.4,1.3,6.4,4.9c0.1,1.3-0.5,2.6-1.5,3.4c-1.6,1.4-4,1.7-5.9,1.7
	c-1.3,0-2.6-0.1-4-0.2v-14.6H456z M456,141.7c0.6,0.1,1.2,0.1,1.9,0.1c2,0,4.3-0.9,4.3-3.1s-2.1-3.1-4.1-3.1c-0.7,0-1.3,0-2,0.1
	L456,141.7z M469.2,128.9v14.7h-2.6v-14.7H469.2z"/>
<path class="st2" d="M483.4,128.9v2.1h-4.6v12.6h-2.6V131h-4.6v-2.1L483.4,128.9z"/>
<path class="st2" d="M488.4,128.9v5c0.8-0.1,1.6-0.2,2.4-0.1c3.3,0,6.8,1,6.8,4.9c0,1.3-0.6,2.5-1.6,3.3c-1.6,1.4-4.2,1.7-6.4,1.7
	c-1.3,0-2.6-0.1-4-0.2v-14.6H488.4z M488.4,141.7c0.7,0.1,1.3,0.1,2,0.1c2,0,4.6-0.7,4.6-3.1s-2.7-3.1-4.6-3.1
	c-0.6,0-1.3,0.1-1.9,0.1L488.4,141.7z"/>
<path class="st2" d="M507.3,129c1.5-0.2,3.1-0.3,4.7-0.3c2.5,0,6.5,0.4,6.5,3.7c-0.1,1.7-1.4,3.1-3.1,3.3v0.1
	c2.2,0.3,3.7,1.5,3.7,3.6c0,3.9-4.9,4.4-7.8,4.4c-1.6,0-3.3-0.1-4.1-0.2L507.3,129z M509.8,141.8c0.7,0.1,1.4,0.1,2.2,0.1
	c1.8,0,4.5-0.4,4.5-2.6s-2.1-2.6-4.7-2.6h-2V141.8z M509.8,135h2c2,0,4-0.6,4-2.3c0-1.5-1.3-2.2-4-2.2c-0.7,0-1.4,0-2.1,0.1
	L509.8,135z"/>
<path class="st2" d="M531.6,128.9v6.4h0.6l5.5-6.4h3.2l-6.4,6.6c2.4,0.2,3.8,1.8,5,4.5c0.5,1.2,1,2.4,1.6,3.6h-2.8c-0.5-1-1-2-1.4-3
	c-1-2.4-2.4-3.5-4.9-3.5h-0.5v6.5H529v-14.7H531.6z"/>
<path class="st2" d="M544.7,128.9l3.2,8.7c0.3,1,0.7,2.1,0.9,3h0.1c0.3-0.9,0.6-2,0.9-3.1l2.9-8.6h2.8l-4,10.5c-1.9,5-3.2,7.6-5,9.2
	c-0.9,0.9-2.1,1.5-3.3,1.7l-0.7-2.2c0.9-0.3,1.6-0.7,2.3-1.3c1-0.8,1.7-1.8,2.2-3c0.1-0.2,0.2-0.4,0.2-0.6c0-0.2-0.1-0.5-0.2-0.7
	l-5.4-13.6L544.7,128.9z"/>
<path class="st2" d="M558.1,133.7c0-1.9-0.1-3.4-0.1-4.8h2.4l0.1,2.5h0.1c1.1-1.8,3.1-2.9,5.2-2.9c3.6,0,6.2,3,6.2,7.5
	c0,5.3-3.2,7.9-6.7,7.9c-1.8,0.1-3.5-0.8-4.5-2.3h-0.1v8h-2.6L558.1,133.7z M560.7,137.6c0,0.4,0,0.7,0.1,1.1c0.5,1.8,2.1,3.1,4,3.1
	c2.8,0,4.5-2.3,4.5-5.7c0-3-1.5-5.5-4.4-5.5c-1.9,0.1-3.6,1.4-4,3.3c-0.1,0.4-0.2,0.7-0.2,1.1L560.7,137.6z"/>
<path class="st2" d="M585.8,143c-1.3,0.6-2.8,0.9-4.2,0.9c-4.4,0-7.3-3-7.3-7.5c-0.2-4.1,3-7.6,7.1-7.8c0.3,0,0.5,0,0.8,0
	c1.3,0,2.5,0.2,3.7,0.8l-0.6,2.1c-1-0.5-2-0.7-3.1-0.7c-3.4,0-5.2,2.5-5.2,5.6c0,3.4,2.2,5.5,5.1,5.5c1.1,0,2.3-0.2,3.3-0.7
	L585.8,143z"/>
<path class="st2" d="M590.3,136.7c0.1,3.6,2.4,5.1,5,5.1c1.4,0,2.8-0.2,4.1-0.8l0.5,1.9c-1.5,0.6-3.2,1-4.9,0.9
	c-4.5,0-7.2-3-7.2-7.4s2.6-7.9,6.9-7.9c4.8,0,6.1,4.2,6.1,6.9c0,0.4,0,0.8-0.1,1.2H590.3z M598.1,134.8c0-1.7-0.7-4.3-3.7-4.3
	c-2.7,0-3.9,2.5-4.1,4.3H598.1z"/>
<path class="st2" d="M621,143c-1.3,0.6-2.8,0.9-4.2,0.9c-4.4,0-7.3-3-7.3-7.5c-0.2-4.1,3-7.6,7.1-7.8c0.3,0,0.5,0,0.8,0
	c1.3,0,2.5,0.2,3.7,0.8l-0.6,2.1c-1-0.5-2-0.7-3.1-0.7c-3.4,0-5.2,2.5-5.2,5.6c0,3.4,2.2,5.5,5.1,5.5c1.1,0,2.3-0.2,3.3-0.7L621,143
	z"/>
<path class="st2" d="M637.2,136.1c0,5.4-3.8,7.8-7.3,7.8c-4,0-7-2.9-7-7.6c0-4.9,3.2-7.8,7.3-7.8
	C634.4,128.5,637.2,131.6,637.2,136.1z M625.5,136.2c0,3.2,1.9,5.7,4.5,5.7s4.5-2.4,4.5-5.7c0-2.5-1.2-5.6-4.4-5.6
	S625.5,133.4,625.5,136.2L625.5,136.2z"/>
<path class="st2" d="M651.7,123.9c-1,0.3-2,0.5-3.1,0.7c-2.4,0.4-4.1,1.2-5.2,2.8c-0.9,1.5-1.5,3.1-1.6,4.9h0.1
	c0.9-2,2.9-3.3,5.1-3.3c3.6,0,6.3,2.6,6.3,7.3s-2.5,7.8-6.8,7.8c-5.2,0-6.9-5-6.9-9.9c0-3.3,0.7-6.1,2.3-8.1c1.4-2,3.5-3,6.3-3.5
	c1.2-0.2,2.5-0.4,3.6-0.8L651.7,123.9z M646.5,130.9c-1.4,0-2.7,0.7-3.3,2c-0.5,1-0.8,2-0.7,3.1c0,2.4,1.2,5.9,4.1,5.9s4-2.9,4-5.6
	C650.6,133.9,649.6,130.8,646.5,130.9L646.5,130.9z"/>
<path class="st2" d="M659.2,128.9v5c0.8-0.1,1.6-0.2,2.4-0.2c3.2,0,6.3,1.3,6.3,4.9c0.1,1.3-0.5,2.6-1.5,3.4c-1.6,1.4-4,1.7-5.9,1.7
	c-1.3,0-2.6-0.1-4-0.2v-14.6H659.2z M659.2,141.7c0.6,0.1,1.2,0.1,1.8,0.1c2,0,4.3-0.9,4.3-3.1s-2.1-3.1-4.1-3.1c-0.7,0-1.3,0-2,0.1
	L659.2,141.7z M672.5,128.9v14.7h-2.6v-14.7H672.5z"/>
<path class="st2" d="M686.7,128.9v2.1h-4.6v12.6h-2.7V131h-4.6v-2.1L686.7,128.9z"/>
<path class="st2" d="M691.5,128.9v6.2c0,2.3,0,3.8-0.2,5.9h0.1c0.9-1.8,1.4-2.8,2.4-4.5l4.6-7.6h3.1v14.7H699v-6.2
	c0-2.4,0.1-3.6,0.2-6h-0.1c-1,1.9-1.6,3.1-2.4,4.6c-1.4,2.3-3,5.1-4.6,7.7H689v-14.7H691.5z"/>
<path class="st2" d="M708.3,128.9v6.2c0,2.3,0,3.8-0.2,5.9h0.1c0.9-1.8,1.4-2.8,2.4-4.5l4.6-7.6h3.1v14.7h-2.6v-6.2
	c0-2.4,0.1-3.6,0.2-6h-0.1c-1,1.9-1.6,3.1-2.4,4.6c-1.4,2.3-3,5.1-4.6,7.7h-3.1v-14.7H708.3z M710.1,122.9c0.1,1.3,0.7,2.3,1.9,2.3
	s1.9-1,2.1-2.3h1.9c0.1,2-1.6,3.7-3.6,3.8c-0.1,0-0.3,0-0.4,0c-2.7,0-3.7-1.7-3.8-3.8H710.1z"/>
<path class="st2" d="M722.1,142c-0.1-1,0.7-1.8,1.7-1.9c0.1,0,0.1,0,0.2,0c1.1,0,2,0.8,2,1.8s-0.8,2-1.8,2
	C723,144,722.1,143.1,722.1,142C722.1,142.1,722.1,142,722.1,142z"/>
<path class="st2" d="M735.5,123.3c1.7-0.3,3.4-0.4,5.1-0.4c2.6,0,4.5,0.6,5.8,1.7c1.2,1.1,1.9,2.7,1.8,4.3c0.1,1.6-0.5,3.2-1.6,4.4
	c-1.7,1.6-4,2.4-6.3,2.2c-0.7,0-1.4,0-2.1-0.2v8.2h-2.6L735.5,123.3z M738.2,133.2c0.7,0.2,1.5,0.2,2.2,0.2c3.2,0,5.1-1.6,5.1-4.4
	s-1.9-4-4.8-4c-0.8,0-1.7,0-2.5,0.2V133.2z"/>
<path class="st2" d="M764.1,136.1c0,5.4-3.8,7.8-7.3,7.8c-4,0-7-2.9-7-7.6c0-4.9,3.2-7.8,7.3-7.8S764.1,131.6,764.1,136.1z
	 M752.4,136.2c0,3.2,1.8,5.7,4.5,5.7s4.5-2.4,4.5-5.7c0-2.5-1.2-5.6-4.4-5.6S752.4,133.4,752.4,136.2L752.4,136.2z"/>
<path class="st2" d="M768.7,135h1.3c2.2,0,3.8-1,3.8-2.4s-1.2-2.1-2.8-2.1c-1.3,0-2.5,0.4-3.6,1l-0.7-1.6c1.5-0.9,3.2-1.4,4.9-1.3
	c2.2,0,5,1,5,3.9c0,1.8-1.7,3-3.3,3.4v0.1c2.2,0.2,4,1.5,4,3.7c0,3.2-3.2,4.4-6.3,4.4c-1.7,0-3.3-0.4-4.8-1.2l0.7-1.8
	c1.2,0.6,2.5,1,3.9,1c2.2,0,3.6-1.1,3.6-2.5c0-2-2.1-2.5-4.3-2.5h-1.3L768.7,135z"/>
<path class="st2" d="M783.1,128.9v5c0.8-0.1,1.6-0.2,2.4-0.2c3.2,0,6.3,1.3,6.3,4.9c0.1,1.3-0.5,2.6-1.5,3.4c-1.6,1.4-4,1.7-5.9,1.7
	c-1.3,0-2.7-0.1-4-0.2v-14.6H783.1z M783.1,141.7c0.6,0.1,1.2,0.1,1.8,0.1c2,0,4.3-0.9,4.3-3.1s-2.1-3.1-4.1-3.1c-0.7,0-1.3,0-2,0.1
	L783.1,141.7z M796.4,128.9v14.7h-2.7v-14.7H796.4z"/>
<path class="st2" d="M809.7,128.9v2.1h-6.4v12.6h-2.6v-14.7H809.7z"/>
<path class="st2" d="M812.2,133.7c0-1.9-0.1-3.4-0.1-4.8h2.4l0.1,2.5h0.1c1.1-1.8,3.1-2.9,5.2-2.9c3.6,0,6.2,3,6.2,7.5
	c0,5.3-3.2,7.9-6.7,7.9c-1.8,0.1-3.5-0.8-4.5-2.3h-0.1v8h-2.7L812.2,133.7z M814.9,137.6c0,0.4,0,0.7,0.1,1.1c0.5,1.8,2.1,3.1,4,3.1
	c2.8,0,4.5-2.3,4.5-5.7c0-3-1.5-5.5-4.4-5.5c-1.9,0.1-3.6,1.4-4,3.3c-0.1,0.4-0.2,0.7-0.2,1.1L814.9,137.6z"/>
<path class="st2" d="M832.1,128.9v5c0.8-0.1,1.6-0.2,2.4-0.2c3.2,0,6.3,1.3,6.3,4.9c0.1,1.3-0.5,2.6-1.5,3.4
	c-1.7,1.2-3.8,1.8-5.9,1.7c-1.3,0-2.7-0.1-4-0.2v-14.6H832.1z M832.1,141.7c0.6,0.1,1.2,0.1,1.8,0.1c2,0,4.3-0.9,4.3-3.1
	s-2.1-3.1-4.1-3.1c-0.7,0-1.3,0-2,0.1L832.1,141.7z M845.4,128.9v14.7h-2.6v-14.7H845.4z"/>
<path class="st2" d="M852.3,128.9v12.6h5.1v-12.6h2.6v12.6h5.1v-12.6h2.6v14.7h-18.1v-14.7H852.3z"/>
<path class="st2" d="M874.7,128.9v6.2c0,2.3,0,3.8-0.2,5.9h0.1c0.9-1.8,1.4-2.8,2.4-4.5l4.6-7.6h3.1v14.7h-2.5v-6.2
	c0-2.4,0.1-3.6,0.2-6h-0.1c-0.9,1.9-1.6,3.1-2.4,4.6c-1.4,2.3-3,5.1-4.6,7.7h-3.1v-14.7H874.7z"/>
<path class="st2" d="M887.3,147.3c0.8-2.4,1.4-4.8,1.8-7.3l3-0.3c-0.7,2.6-1.7,5-2.9,7.4L887.3,147.3z"/>
<path class="st2" d="M350.4,165.5c1.5-0.2,3.1-0.3,4.7-0.3c2.5,0,6.5,0.4,6.5,3.7c-0.1,1.7-1.4,3.1-3.1,3.3v0.1
	c2.2,0.3,3.7,1.5,3.7,3.6c0,3.9-4.9,4.3-7.8,4.3c-1.6,0-3.3-0.1-4.1-0.2L350.4,165.5z M352.9,178.3c0.7,0.1,1.4,0.1,2.2,0.1
	c1.8,0,4.5-0.4,4.5-2.6s-2.1-2.6-4.7-2.6h-1.9V178.3z M352.9,171.5h2c2,0,4-0.6,4-2.3c0-1.5-1.3-2.2-4-2.2c-0.7,0-1.4,0-2.1,0.1
	L352.9,171.5z"/>
<path class="st2" d="M368.1,165.3v6.2c0,2.3,0,3.8-0.1,5.9h0.1c0.9-1.8,1.4-2.8,2.4-4.5l4.6-7.6h3.1V180h-2.6v-6.2
	c0-2.4,0.1-3.6,0.2-6h-0.1c-1,1.9-1.6,3.1-2.4,4.6c-1.4,2.3-3,5.1-4.6,7.7h-3.1v-14.7H368.1z"/>
<path class="st2" d="M385.2,165.3v6.4h0.6l5.5-6.4h3.2l-6.4,6.7c2.4,0.2,3.8,1.8,5,4.5c0.5,1.2,1,2.4,1.6,3.5h-2.8c-0.5-1-1-2-1.4-3
	c-1-2.4-2.4-3.5-4.9-3.5h-0.5v6.5h-2.6v-14.7H385.2z"/>
<path class="st2" d="M407.5,165.3v2.1h-4.6V180h-2.6v-12.5h-4.6v-2.1H407.5z"/>
<path class="st2" d="M422.8,172.6c0,5.4-3.8,7.8-7.3,7.8c-4,0-7-2.9-7-7.6c0-4.9,3.2-7.8,7.3-7.8C419.9,165,422.8,168.1,422.8,172.6
	z M411.1,172.7c0,3.2,1.9,5.6,4.5,5.6s4.5-2.4,4.5-5.7c0-2.5-1.2-5.7-4.4-5.7S411.1,169.9,411.1,172.7L411.1,172.7z"/>
<path class="st2" d="M426.2,170.1c0-1.9-0.1-3.4-0.1-4.8h2.4l0.1,2.5h0.1c1.1-1.8,3.1-2.9,5.2-2.9c3.6,0,6.2,3,6.2,7.5
	c0,5.3-3.2,7.9-6.7,7.9c-1.8,0.1-3.5-0.8-4.5-2.3h-0.1v8h-2.6V170.1z M428.8,174.1c0,0.4,0,0.7,0.1,1.1c0.5,1.8,2.1,3.1,4,3.1
	c2.8,0,4.5-2.3,4.5-5.7c0-2.9-1.5-5.5-4.4-5.5c-1.9,0.1-3.6,1.4-4,3.3c-0.1,0.4-0.2,0.7-0.2,1.1L428.8,174.1z"/>
<path class="st2" d="M445.9,165.3v6.2c0,2.3,0,3.8-0.1,5.9h0.1c0.9-1.8,1.4-2.8,2.4-4.5l4.6-7.6h3.2V180h-2.6v-6.2
	c0-2.4,0.1-3.6,0.2-6h-0.1c-0.9,1.9-1.6,3.1-2.4,4.6c-1.4,2.3-3,5.1-4.6,7.7h-3.1v-14.7H445.9z"/>
<path class="st2" d="M462.9,165.3v5.9h7v-5.9h2.6V180h-2.6v-6.7h-7v6.7h-2.6v-14.7H462.9z"/>
<path class="st2" d="M479.5,165.3v5c0.8-0.1,1.6-0.2,2.4-0.2c3.2,0,6.4,1.3,6.4,4.9c0.1,1.3-0.5,2.6-1.5,3.4c-1.6,1.4-4,1.7-5.9,1.7
	c-1.3,0-2.6-0.1-4-0.2v-14.6H479.5z M479.5,178.2c0.6,0.1,1.2,0.1,1.9,0.1c2,0,4.3-0.9,4.3-3.1s-2.1-3.1-4.1-3.1c-0.7,0-1.3,0-2,0.1
	L479.5,178.2z M492.7,165.3V180h-2.6v-14.7H492.7z"/>
<path class="st2" d="M495.4,183.8c0.8-2.4,1.4-4.8,1.8-7.3l3-0.3c-0.7,2.6-1.7,5-2.9,7.4L495.4,183.8z"/>
<path class="st2" d="M518,180l-0.2-1.9h-0.1c-1.1,1.4-2.7,2.2-4.5,2.2c-2.3,0.2-4.3-1.6-4.5-3.9c0-0.1,0-0.2,0-0.4
	c0-3.6,3.2-5.5,8.8-5.5v-0.3c0-1.2-0.3-3.4-3.3-3.4c-1.4,0-2.7,0.4-3.8,1.1l-0.6-1.8c1.5-0.9,3.1-1.3,4.8-1.3c4.5,0,5.6,3.1,5.6,6
	v5.5c0,1.2,0.1,2.4,0.2,3.5L518,180z M517.6,172.5c-2.9-0.1-6.2,0.5-6.2,3.3c-0.1,1.3,0.9,2.4,2.2,2.5c0.1,0,0.2,0,0.3,0
	c1.6,0,3-1,3.6-2.5c0.1-0.3,0.1-0.6,0.2-0.9V172.5z"/>
<path class="st2" d="M527.1,165.3v5.9h7v-5.9h2.6V180h-2.6v-6.7h-7v6.7h-2.7v-14.7H527.1z"/>
<path class="st2" d="M554.4,172.6c0,5.4-3.8,7.8-7.3,7.8c-4,0-7-2.9-7-7.6c0-4.9,3.2-7.8,7.3-7.8S554.4,168.1,554.4,172.6z
	 M542.7,172.7c0,3.2,1.8,5.6,4.5,5.6s4.5-2.4,4.5-5.7c0-2.5-1.2-5.7-4.4-5.7S542.7,169.9,542.7,172.7L542.7,172.7z"/>
<path class="st2" d="M560.3,165.3v5.9h7v-5.9h2.7V180h-2.6v-6.7h-7v6.7h-2.7v-14.7H560.3z"/>
<path class="st2" d="M584.8,179.5c-1.3,0.6-2.8,0.9-4.2,0.9c-4.4,0-7.3-3-7.3-7.5c-0.2-4.1,3-7.6,7.1-7.8c0.3,0,0.6,0,0.8,0
	c1.3,0,2.5,0.2,3.7,0.8l-0.6,2.1c-1-0.5-2-0.7-3.1-0.7c-3.4,0-5.2,2.5-5.2,5.6c0,3.4,2.2,5.5,5.1,5.5c1.1,0,2.3-0.2,3.3-0.7
	L584.8,179.5z"/>
<path class="st2" d="M590.6,165.3v5c0.8-0.1,1.6-0.2,2.4-0.2c3.2,0,6.3,1.3,6.3,4.9c0.1,1.3-0.5,2.6-1.5,3.4c-1.6,1.4-4,1.7-5.9,1.7
	c-1.3,0-2.7-0.1-4-0.2v-14.6H590.6z M590.6,178.2c0.6,0.1,1.2,0.1,1.8,0.1c2,0,4.3-0.9,4.3-3.1s-2.1-3.1-4.1-3.1c-0.7,0-1.3,0-2,0.1
	L590.6,178.2z M603.8,165.3V180h-2.7v-14.7H603.8z"/>
<path class="st2" d="M606.5,183.8c0.8-2.4,1.4-4.8,1.8-7.3l3-0.3c-0.7,2.6-1.7,5-2.9,7.4L606.5,183.8z"/>
<path class="st2" d="M623.4,165.3v6.2c0,2.3,0,3.8-0.2,5.9h0.1c0.9-1.8,1.4-2.8,2.4-4.5l4.6-7.6h3.1V180h-2.5v-6.2
	c0-2.4,0.1-3.6,0.2-6h0c-0.9,1.9-1.6,3.1-2.4,4.6c-1.4,2.3-3,5.1-4.6,7.7h-3.1v-14.7H623.4z"/>
<path class="st2" d="M640.3,165.3v5.9h7v-5.9h2.7V180h-2.7v-6.7h-7v6.7h-2.6v-14.7H640.3z"/>
<path class="st2" d="M664.2,165.3v2.1h-4.6V180H657v-12.5h-4.6v-2.1H664.2z"/>
<path class="st2" d="M667.6,173.2c0.1,3.6,2.4,5.1,5,5.1c1.4,0,2.8-0.2,4.1-0.8l0.5,1.9c-1.5,0.7-3.2,1-4.9,0.9
	c-4.5,0-7.2-3-7.2-7.4s2.7-7.9,7-7.9c4.8,0,6.1,4.2,6.1,6.9c0,0.4,0,0.8-0.1,1.2H667.6z M675.5,171.3c0-1.7-0.7-4.4-3.7-4.4
	c-2.7,0-3.9,2.5-4.1,4.4H675.5z"/>
<path class="st2" d="M681.4,170.1c0-1.9-0.1-3.4-0.1-4.8h2.4l0.1,2.5h0.1c1.1-1.8,3.1-2.9,5.2-2.9c3.6,0,6.2,3,6.2,7.5
	c0,5.3-3.2,7.9-6.7,7.9c-1.8,0.1-3.5-0.8-4.5-2.3H684v8h-2.7L681.4,170.1z M684,174.1c0,0.4,0,0.7,0.1,1.1c0.5,1.8,2.1,3.1,4,3.1
	c2.8,0,4.5-2.3,4.5-5.7c0-2.9-1.5-5.5-4.4-5.5c-1.9,0.1-3.6,1.4-4,3.3c-0.1,0.4-0.2,0.7-0.2,1.1L684,174.1z"/>
<path class="st2" d="M698.6,165.5c1.5-0.2,3.1-0.3,4.7-0.3c2.5,0,6.5,0.4,6.5,3.7c-0.1,1.7-1.4,3.1-3.1,3.3v0.1
	c2.2,0.3,3.7,1.5,3.7,3.6c0,3.9-4.9,4.3-7.8,4.3c-1.6,0-3.3-0.1-4.1-0.2V165.5z M701.1,178.3c0.7,0.1,1.4,0.1,2.2,0.1
	c1.8,0,4.5-0.4,4.5-2.6s-2.1-2.6-4.7-2.6h-2L701.1,178.3z M701.1,171.5h2c2,0,4-0.6,4-2.3c0-1.5-1.3-2.2-4-2.2c-0.7,0-1.4,0-2.1,0.1
	L701.1,171.5z"/>
<path class="st2" d="M716.5,165.3v5c0.8-0.1,1.6-0.2,2.4-0.2c3.3,0,6.8,1,6.8,5c0,1.3-0.5,2.6-1.5,3.4c-1.6,1.4-4.2,1.7-6.4,1.7
	c-1.3,0-2.7-0.1-4-0.2v-14.7H716.5z M716.5,178.2c0.7,0.1,1.3,0.1,2,0.1c2,0,4.6-0.7,4.6-3.1s-2.7-3.1-4.7-3.1
	c-0.6,0-1.3,0.1-1.9,0.1L716.5,178.2z"/>
<path class="st2" d="M731.5,165.3v6.2h2.5c0.5-3.9,3-6.5,6.5-6.5c3.8,0,6.5,3,6.5,7.6c0,4.8-2.9,7.8-6.6,7.8c-3.5,0-6.1-2.6-6.4-6.8
	h-2.5v6.4h-2.6v-14.7H731.5z M744.4,172.6c0-2.8-1.2-5.6-3.9-5.6s-4,2.8-4,5.8s1.3,5.6,3.9,5.6S744.4,175.4,744.4,172.6z"/>
<path class="st2" d="M767.4,179.5c-1.3,0.6-2.8,0.9-4.2,0.9c-4.4,0-7.3-3-7.3-7.5c-0.2-4.1,3-7.6,7.1-7.8c0.3,0,0.5,0,0.8,0
	c1.3,0,2.5,0.2,3.7,0.8l-0.6,2.1c-1-0.5-2-0.7-3.1-0.7c-3.4,0-5.2,2.5-5.2,5.6c0,3.4,2.2,5.5,5.1,5.5c1.1,0,2.3-0.2,3.3-0.7
	L767.4,179.5z"/>
<path class="st2" d="M783.6,172.6c0,5.4-3.8,7.8-7.3,7.8c-4,0-7-2.9-7-7.6c0-4.9,3.2-7.8,7.3-7.8S783.6,168.1,783.6,172.6z
	 M772,172.7c0,3.2,1.8,5.6,4.5,5.6s4.5-2.4,4.5-5.7c0-2.5-1.2-5.7-4.4-5.7S772,169.9,772,172.7L772,172.7z"/>
<path class="st2" d="M803.9,179.5c-1.3,0.6-2.8,0.9-4.2,0.9c-4.4,0-7.3-3-7.3-7.5c-0.2-4.1,3-7.6,7.1-7.8c0.3,0,0.5,0,0.8,0
	c1.3,0,2.5,0.2,3.7,0.8l-0.6,2.1c-1-0.5-2-0.7-3.1-0.7c-3.4,0-5.2,2.5-5.2,5.6c0,3.4,2.2,5.5,5.1,5.5c1.1,0,2.3-0.2,3.3-0.7
	L803.9,179.5z"/>
<path class="st2" d="M819.2,165.3V180h-2.7v-12.5h-6.8V180H807v-14.7H819.2z"/>
<path class="st2" d="M826,165.3v6.2c0,2.3,0,3.8-0.2,5.9h0.1c0.9-1.8,1.4-2.8,2.4-4.5l4.6-7.6h3.1V180h-2.6v-6.2
	c0-2.4,0.1-3.6,0.2-6h-0.1c-0.9,1.9-1.6,3.1-2.4,4.6c-1.4,2.3-3,5.1-4.6,7.7h-3.1v-14.7H826z"/>
<path class="st2" d="M843,165.3v6.4h0.6l5.5-6.4h3.2L846,172c2.4,0.2,3.8,1.8,5,4.5c0.4,1.2,1,2.4,1.6,3.6h-2.8c-0.5-1-1-2-1.4-3
	c-1-2.4-2.4-3.5-4.9-3.5H843v6.4h-2.7v-14.7H843z"/>
<path class="st2" d="M856.2,173.2c0.1,3.6,2.4,5.1,5,5.1c1.4,0,2.8-0.2,4.1-0.8l0.5,1.9c-1.5,0.7-3.2,1-4.9,0.9
	c-4.5,0-7.2-3-7.2-7.4s2.6-7.9,6.9-7.9c4.8,0,6.1,4.2,6.1,6.9c0,0.4,0,0.8-0.1,1.2L856.2,173.2z M864,171.3c0-1.7-0.7-4.4-3.7-4.4
	c-2.7,0-3.9,2.5-4.1,4.4H864z"/>
<path class="st2" d="M869.9,170.1c0-1.9-0.1-3.4-0.1-4.8h2.4l0.1,2.5h0.1c1.1-1.8,3.1-2.9,5.2-2.9c3.5,0,6.2,3,6.2,7.5
	c0,5.3-3.2,7.9-6.7,7.9c-1.8,0.1-3.5-0.8-4.5-2.3h-0.1v8h-2.6L869.9,170.1z M872.6,174.1c0,0.4,0,0.7,0.1,1.1c0.5,1.8,2.1,3.1,4,3.1
	c2.8,0,4.5-2.3,4.5-5.7c0-2.9-1.5-5.5-4.4-5.5c-1.9,0.1-3.6,1.4-4,3.3c-0.1,0.4-0.2,0.7-0.2,1.1L872.6,174.1z"/>
<path class="st2" d="M895.4,180l-0.2-1.9h-0.1c-1.1,1.4-2.7,2.2-4.5,2.2c-2.3,0.2-4.3-1.6-4.5-3.9c0-0.1,0-0.2,0-0.4
	c0-3.6,3.2-5.5,8.8-5.5v-0.3c0-1.2-0.3-3.4-3.3-3.4c-1.4,0-2.7,0.4-3.8,1.1l-0.6-1.8c1.5-0.9,3.2-1.3,4.9-1.3c4.5,0,5.6,3.1,5.6,6
	v5.5c0,1.2,0.1,2.4,0.2,3.5L895.4,180z M895,172.5c-2.9-0.1-6.2,0.5-6.2,3.3c-0.1,1.3,0.9,2.4,2.2,2.5c0.1,0,0.2,0,0.4,0
	c1.6,0,3-1,3.6-2.5c0.1-0.3,0.1-0.6,0.2-0.9L895,172.5z"/>
<path class="st2" d="M902,165.3h3.3l2.7,7.4c0.4,1.1,1,2.9,1.3,4h0.1c0.3-1.1,1.2-3.4,1.7-5l2.4-6.4h3.3l1,14.7h-2.6l-0.3-7
	c-0.1-1.6-0.2-3.5-0.3-5.3h-0.1c-0.4,1.3-0.8,2.5-1.6,4.8l-2.8,7.4h-2l-2.6-7.3c-0.5-1.4-1.1-3.5-1.5-4.9H904
	c-0.1,1.7-0.2,3.7-0.2,5.3l-0.4,7h-2.5L902,165.3z"/>
<path class="st2" d="M923.8,165.3v6.2c0,2.3,0,3.8-0.2,5.9h0.1c0.9-1.8,1.4-2.8,2.4-4.5l4.6-7.6h3.1V180h-2.5v-6.2
	c0-2.4,0.1-3.6,0.2-6h-0.1c-0.9,1.9-1.6,3.1-2.4,4.6c-1.4,2.3-3,5.1-4.6,7.7h-3.1v-14.7H923.8z"/>
<path class="st2" d="M352.9,201.8v6.2c0,2.3,0,3.8-0.1,5.9h0.1c0.9-1.8,1.4-2.8,2.4-4.5l4.6-7.6h3.2v14.7h-2.5v-6.2
	c0-2.4,0.1-3.6,0.2-6h-0.1c-0.9,1.9-1.6,3.1-2.4,4.6c-1.4,2.3-3,5.1-4.6,7.7h-3.1v-14.7H352.9z"/>
<path class="st2" d="M376.2,201.8v6.2c0,2.3,0,3.8-0.1,5.9h0.1c0.9-1.8,1.4-2.8,2.4-4.5l4.6-7.6h3.1v14.7h-2.5v-6.2
	c0-2.4,0.1-3.6,0.2-6h-0.1c-0.9,1.9-1.6,3.1-2.4,4.6c-1.4,2.3-3,5.1-4.6,7.7h-3.1v-14.7H376.2z"/>
<path class="st2" d="M391.8,208h1.3c2.2,0,3.8-1,3.8-2.4s-1.2-2.1-2.9-2.1c-1.3,0-2.5,0.4-3.5,1l-0.7-1.6c1.5-0.9,3.2-1.4,4.9-1.3
	c2.2,0,5,1,5,3.9c0,1.8-1.7,3-3.3,3.3v0.1c2.2,0.2,4,1.5,4,3.7c0,3.2-3.2,4.4-6.4,4.4c-1.7,0-3.3-0.4-4.8-1.2l0.7-1.8
	c1.2,0.6,2.5,1,3.9,1c2.2,0,3.6-1.1,3.6-2.5c0-2-2.1-2.5-4.3-2.5h-1.3L391.8,208z"/>
<path class="st2" d="M403.6,202c1.5-0.2,3.1-0.3,4.7-0.3c2.5,0,6.5,0.4,6.5,3.7c-0.1,1.7-1.4,3.1-3.1,3.3v0.1
	c2.2,0.3,3.7,1.5,3.7,3.6c0,3.9-4.9,4.4-7.8,4.4c-1.6,0-3.3-0.1-4.1-0.2L403.6,202z M406.2,214.8c0.7,0.1,1.4,0.1,2.2,0.1
	c1.8,0,4.5-0.4,4.5-2.6s-2.1-2.6-4.7-2.6h-1.9V214.8z M406.2,208h2c2,0,4-0.6,4-2.3c0-1.4-1.3-2.1-4-2.1c-0.7,0-1.4,0-2.1,0.1
	L406.2,208z"/>
<path class="st2" d="M420.4,209.6c0.1,3.6,2.4,5.1,5,5.1c1.4,0,2.8-0.2,4.1-0.8l0.5,1.9c-1.6,0.6-3.2,1-4.9,0.9
	c-4.5,0-7.2-3-7.2-7.4s2.6-7.9,6.9-7.9c4.8,0,6.1,4.2,6.1,6.9c0,0.4,0,0.8-0.1,1.2L420.4,209.6z M428.2,207.7c0-1.7-0.7-4.4-3.7-4.4
	c-2.7,0-3.9,2.5-4.1,4.4H428.2z"/>
<path class="st2" d="M444.6,216c-1.3,0.6-2.8,0.9-4.2,0.9c-4.4,0-7.3-3-7.3-7.5c-0.2-4.1,3-7.6,7.1-7.8c0.3,0,0.5,0,0.8,0
	c1.3,0,2.5,0.2,3.7,0.8l-0.6,2.1c-1-0.5-2-0.7-3.1-0.7c-3.4,0-5.2,2.5-5.2,5.6c0,3.4,2.2,5.5,5.1,5.5c1.1,0,2.3-0.2,3.3-0.7
	L444.6,216z"/>
<path class="st2" d="M458.2,201.8v2.1h-4.6v12.6h-2.6v-12.6h-4.6v-2.1H458.2z"/>
<path class="st2" d="M463.1,201.8v5.9h7v-5.9h2.6v14.7h-2.6v-6.6h-7v6.6h-2.6v-14.7H463.1z"/>
<path class="st2" d="M479.7,201.8v5c0.8-0.1,1.6-0.2,2.4-0.2c3.2,0,6.4,1.3,6.4,4.9c0.1,1.3-0.5,2.6-1.5,3.4
	c-1.7,1.2-3.8,1.8-5.9,1.7c-1.3,0-2.6-0.1-4-0.2v-14.6H479.7z M479.7,214.7c0.6,0.1,1.2,0.1,1.9,0.1c2,0,4.2-0.9,4.2-3.1
	s-2.1-3.1-4.1-3.1c-0.7,0-1.3,0-2,0.1L479.7,214.7z M492.9,201.8v14.7h-2.6v-14.7H492.9z"/>
<path class="st2" d="M497.5,201.8h3.3l2.7,7.4c0.4,1.1,1,2.9,1.3,4h0.1c0.3-1.1,1.1-3.4,1.7-5l2.4-6.4h3.3l1,14.7h-2.6l-0.3-7
	c-0.1-1.6-0.2-3.5-0.3-5.2H510c-0.4,1.3-0.8,2.5-1.6,4.8l-2.8,7.4h-2l-2.6-7.3c-0.5-1.4-1.1-3.5-1.5-4.9h-0.1
	c-0.1,1.7-0.1,3.7-0.2,5.3l-0.4,7h-2.5L497.5,201.8z"/>
<path class="st2" d="M519.2,201.8v6.2c0,2.3,0,3.8-0.2,5.9h0.1c0.9-1.8,1.4-2.8,2.4-4.5l4.6-7.6h3.1v14.7h-2.5v-6.2
	c0-2.4,0.1-3.6,0.2-6h-0.1c-0.9,1.9-1.6,3.1-2.4,4.6c-1.4,2.3-3,5.1-4.6,7.7h-3.1v-14.7H519.2z"/>
<path class="st2" d="M551,201.8v14.7h-2.6v-12.6h-5v3.8c0,4.1-0.4,6.9-2.3,8.1c-0.8,0.6-1.9,1-2.9,0.9l-0.3-2.1
	c0.5-0.1,1-0.3,1.5-0.6c1.4-1,1.5-3.1,1.5-6.4v-5.9H551z"/>
<path class="st2" d="M557.9,201.8v6.2c0,2.3,0,3.8-0.2,5.9h0.1c0.9-1.8,1.4-2.8,2.4-4.5l4.6-7.6h3.1v14.7h-2.5v-6.2
	c0-2.4,0.1-3.6,0.2-6h-0.1c-0.9,1.9-1.6,3.1-2.4,4.6c-1.4,2.3-3,5.1-4.6,7.7h-3.1v-14.7H557.9z"/>
<path class="st2" d="M574.4,201.8v4.8c0,1.9,0.7,3.1,3,3.1c1.1,0,2.2-0.4,3.2-1v-7h2.6v14.7h-2.6v-5.9h-0.1c-1.2,0.7-2.6,1.1-4,1.1
	c-2.8,0-4.8-1.4-4.8-4.8v-5.1H574.4z"/>
<path class="st2" d="M590.2,201.8v5.9h7v-5.9h2.7v14.7h-2.7v-6.6h-7v6.6h-2.6v-14.7H590.2z"/>
<path class="st2" d="M617.5,209c0,5.4-3.8,7.8-7.3,7.8c-4,0-7-2.9-7-7.6c0-4.9,3.2-7.8,7.3-7.8S617.5,204.5,617.5,209z M605.8,209.1
	c0,3.2,1.8,5.6,4.5,5.6s4.5-2.4,4.5-5.7c0-2.5-1.2-5.6-4.4-5.6S605.8,206.4,605.8,209.1L605.8,209.1z"/>
<path class="st2" d="M631.3,216c-1.3,0.6-2.8,0.9-4.2,0.9c-4.4,0-7.3-3-7.3-7.5c-0.2-4.1,3-7.6,7.1-7.8c0.3,0,0.5,0,0.8,0
	c1.3,0,2.5,0.2,3.7,0.8l-0.6,2.1c-1-0.5-2-0.7-3.1-0.7c-3.4,0-5.2,2.5-5.2,5.6c0,3.4,2.2,5.5,5.1,5.5c1.1,0,2.3-0.2,3.3-0.7
	L631.3,216z"/>
<path class="st2" d="M644.9,201.8v2.1h-4.6v12.6h-2.6v-12.6h-4.6v-2.1H644.9z"/>
<path class="st2" d="M658,216.5h-2.6v-6.2h-2c-0.9-0.1-1.8,0.2-2.5,0.8c-1.1,0.9-1.5,2.7-2.1,4.1c-0.2,0.4-0.4,0.8-0.6,1.2h-2.9
	c0.4-0.5,0.7-1.1,0.9-1.7c0.6-1.4,1-3.3,2.3-4.4c0.5-0.4,1-0.7,1.7-0.9v-0.1c-1.9-0.2-3.9-1.4-3.9-3.6c0-1.4,0.8-2.6,2-3.2
	c1.5-0.7,3.2-1.1,4.9-1c1.6,0,3.2,0.1,4.7,0.3L658,216.5z M655.4,203.6c-0.7-0.1-1.5-0.2-2.2-0.2c-1.8,0-4,0.5-4,2.6
	c0,1.9,2.3,2.6,3.9,2.6h2.3L655.4,203.6z"/>
<path class="st2" d="M662.5,201.8h3.3l2.7,7.4c0.4,1.1,1,2.9,1.3,4h0.1c0.3-1.1,1.2-3.4,1.7-5l2.4-6.4h3.3l1,14.7h-2.6l-0.3-7
	c-0.1-1.6-0.2-3.5-0.3-5.2H675c-0.4,1.3-0.8,2.5-1.6,4.8l-2.8,7.4h-2l-2.6-7.3c-0.5-1.4-1.1-3.5-1.5-4.9h-0.1
	c-0.1,1.7-0.2,3.7-0.2,5.3l-0.4,7h-2.5L662.5,201.8z"/>
<path class="st2" d="M684.2,201.8v6.2c0,2.3,0,3.8-0.2,5.9h0.1c0.9-1.8,1.4-2.8,2.4-4.5l4.6-7.6h3.1v14.7h-2.5v-6.2
	c0-2.4,0.1-3.6,0.2-6h-0.1c-0.9,1.9-1.6,3.1-2.4,4.6c-1.4,2.3-3,5.1-4.6,7.7h-3.1v-14.7H684.2z"/>
<path class="st2" d="M705,202c1.5-0.2,3.1-0.3,4.7-0.3c2.5,0,6.5,0.4,6.5,3.7c-0.1,1.7-1.4,3.1-3.1,3.3v0.1c2.2,0.3,3.7,1.5,3.7,3.6
	c0,3.9-4.9,4.4-7.8,4.4c-1.6,0-3.3-0.1-4.1-0.2L705,202z M707.5,214.8c0.7,0.1,1.4,0.1,2.2,0.1c1.8,0,4.5-0.4,4.5-2.6
	s-2.1-2.6-4.7-2.6h-2L707.5,214.8z M707.5,208h2c2,0,4-0.6,4-2.3c0-1.4-1.3-2.1-4-2.1c-0.7,0-1.4,0-2.1,0.1L707.5,208z"/>
<path class="st2" d="M740,209c0,5.4-3.8,7.8-7.3,7.8c-4,0-7-2.9-7-7.6c0-4.9,3.2-7.8,7.3-7.8C737.2,201.5,740,204.5,740,209z
	 M728.3,209.1c0,3.2,1.9,5.6,4.5,5.6s4.5-2.4,4.5-5.7c0-2.5-1.2-5.6-4.4-5.6S728.3,206.4,728.3,209.1L728.3,209.1z"/>
<path class="st2" d="M754.5,196.8c-1,0.3-2,0.5-3.1,0.7c-2.4,0.4-4.1,1.1-5.2,2.8c-0.9,1.5-1.5,3.1-1.6,4.9h0.1
	c0.9-2,2.9-3.3,5.1-3.3c3.6,0,6.3,2.6,6.3,7.3s-2.5,7.8-6.8,7.8c-5.2,0-6.9-5-6.9-9.9c0-3.3,0.7-6.1,2.3-8.1s3.5-3,6.3-3.5
	c1.2-0.2,2.5-0.4,3.6-0.8L754.5,196.8z M749.2,203.8c-1.4,0-2.7,0.7-3.3,2c-0.5,1-0.8,2-0.7,3.1c0,2.4,1.2,5.9,4.1,5.9s4-2.9,4-5.6
	C753.3,206.9,752.4,203.8,749.2,203.8L749.2,203.8z"/>
<path class="st2" d="M759.4,206.6c0-1.9-0.1-3.4-0.1-4.8h2.4l0.1,2.5h0.1c1.1-1.9,3.1-3,5.2-2.9c3.5,0,6.2,3,6.2,7.5
	c0,5.3-3.2,7.9-6.7,7.9c-1.8,0.1-3.5-0.8-4.5-2.3h-0.1v8h-2.6L759.4,206.6z M762.1,210.5c0,0.4,0,0.7,0.1,1.1c0.5,1.8,2.1,3.1,4,3.1
	c2.8,0,4.5-2.3,4.5-5.7c0-2.9-1.5-5.5-4.4-5.5c-1.9,0.1-3.6,1.4-4,3.3c-0.1,0.4-0.2,0.7-0.2,1.1L762.1,210.5z"/>
<path class="st2" d="M784.9,216.5l-0.2-1.9h-0.1c-1.1,1.4-2.7,2.2-4.5,2.2c-2.3,0.2-4.3-1.6-4.5-3.9c0-0.1,0-0.2,0-0.4
	c0-3.6,3.2-5.5,8.8-5.5v-0.3c0-1.2-0.3-3.4-3.3-3.4c-1.4,0-2.7,0.4-3.8,1.1l-0.6-1.8c1.5-0.9,3.1-1.3,4.8-1.3c4.5,0,5.6,3.1,5.6,6
	v5.5c0,1.2,0.1,2.4,0.2,3.5L784.9,216.5z M784.5,209c-2.9-0.1-6.2,0.4-6.2,3.3c-0.1,1.3,0.9,2.4,2.2,2.5c0.1,0,0.2,0,0.4,0
	c1.6,0,3-1,3.6-2.5c0.1-0.3,0.1-0.6,0.2-0.9L784.5,209z"/>
<path class="st2" d="M792.6,208h1.3c2.2,0,3.8-1,3.8-2.4s-1.2-2.1-2.9-2.1c-1.3,0-2.5,0.4-3.5,1l-0.7-1.6c1.5-0.9,3.2-1.4,4.9-1.3
	c2.2,0,5,1,5,3.9c0,1.8-1.7,3-3.3,3.3v0.1c2.2,0.2,4,1.5,4,3.7c0,3.2-3.3,4.4-6.4,4.4c-1.7,0-3.3-0.4-4.8-1.2l0.7-1.8
	c1.2,0.6,2.5,1,3.9,1c2.2,0,3.6-1.1,3.6-2.5c0-2-2.1-2.5-4.3-2.5h-1.3L792.6,208z"/>
<path class="st2" d="M817.8,209c0,5.4-3.8,7.8-7.3,7.8c-4,0-7-2.9-7-7.6c0-4.9,3.2-7.8,7.3-7.8S817.8,204.5,817.8,209z M806.1,209.1
	c0,3.2,1.8,5.6,4.5,5.6s4.5-2.4,4.5-5.7c0-2.5-1.2-5.6-4.4-5.6S806.1,206.4,806.1,209.1L806.1,209.1z"/>
<path class="st2" d="M821.1,202c1.6-0.2,3.1-0.3,4.7-0.3c2.5,0,6.5,0.4,6.5,3.7c-0.1,1.7-1.4,3.1-3.1,3.3v0.1
	c2.2,0.3,3.7,1.5,3.7,3.6c0,3.9-4.9,4.4-7.8,4.4c-1.6,0-3.3-0.1-4.1-0.2V202z M823.6,214.8c0.7,0.1,1.4,0.1,2.2,0.1
	c1.8,0,4.5-0.4,4.5-2.6s-2.1-2.6-4.7-2.6h-1.9V214.8z M823.6,208h2c2,0,4-0.6,4-2.3c0-1.4-1.3-2.1-4-2.1c-0.7,0-1.4,0-2.1,0.1
	L823.6,208z"/>
<path class="st2" d="M844.5,216.5l-0.2-1.9h-0.1c-1.1,1.4-2.7,2.2-4.5,2.2c-2.3,0.2-4.3-1.6-4.5-3.9c0-0.1,0-0.2,0-0.4
	c0-3.6,3.2-5.5,8.8-5.5v-0.3c0-1.2-0.3-3.4-3.3-3.4c-1.4,0-2.7,0.4-3.8,1.1l-0.6-1.8c1.5-0.9,3.1-1.3,4.8-1.3c4.5,0,5.6,3.1,5.6,6
	v5.5c0,1.2,0.1,2.4,0.2,3.5L844.5,216.5z M844.1,209c-2.9-0.1-6.2,0.4-6.2,3.3c-0.1,1.3,0.9,2.4,2.2,2.5c0.1,0,0.2,0,0.4,0
	c1.6,0,3-1,3.5-2.5c0.1-0.3,0.1-0.6,0.2-0.9L844.1,209z"/>
<path class="st2" d="M853.6,201.8v5.9h7v-5.9h2.6v14.7h-2.6v-6.6h-7v6.6h-2.7v-14.7H853.6z"/>
<path class="st2" d="M870.1,201.8v6.2c0,2.3,0,3.8-0.2,5.9h0.1c0.9-1.8,1.4-2.8,2.4-4.5l4.6-7.6h3.1v14.7h-2.5v-6.2
	c0-2.4,0.1-3.6,0.2-6h-0.1c-0.9,1.9-1.6,3.1-2.4,4.6c-1.4,2.3-3,5.1-4.6,7.7h-3.1v-14.7H870.1z"/>
<path class="st2" d="M886.9,201.8v6.2c0,2.3,0,3.8-0.2,5.9h0.1c0.9-1.8,1.4-2.8,2.4-4.5l4.6-7.6h3.1v14.7h-2.6v-6.2
	c0-2.4,0.1-3.6,0.2-6h-0.1c-0.9,1.9-1.6,3.1-2.4,4.6c-1.4,2.3-3,5.1-4.6,7.7h-3.1v-14.7H886.9z"/>
<path class="st2" d="M900.6,214.9c-0.1-1,0.7-1.8,1.7-1.9c0,0,0.1,0,0.1,0c1.1,0.1,1.9,1,1.8,2.1c-0.1,1-0.8,1.7-1.8,1.8
	c-1,0-1.8-0.8-1.8-1.7C900.6,215,900.6,215,900.6,214.9z"/>
<path class="st3" d="M172.7,157.4l-71.6,41.3c-3.8,2.2-3.8,5.7,0,7.9l71.6,41.3c4.3,2.2,9.3,2.2,13.6,0l71.6-41.3
	c3.8-2.2,3.8-5.7,0-7.9l-71.6-41.3C182.1,155.3,177,155.3,172.7,157.4z"/>
<path class="st4" d="M172.7,213.9l-71.6,41.3c-3.8,2.2-3.8,5.7,0,7.9l71.6,41.3c4.3,2.2,9.3,2.2,13.6,0l71.6-41.3
	c3.8-2.2,3.8-5.7,0-7.9l-71.6-41.3C182.1,211.8,177,211.8,172.7,213.9z"/>
<path class="st5" d="M260.7,55.1V148c-0.3,4.8-2.8,9.2-6.8,11.8l-67.6,39c-4.3,2.2-9.3,2.2-13.6,0l-67.6-39c-4-2.6-6.5-7-6.8-11.8
	V55.1H260.7z"/>
<path class="st6" d="M179.5,55.1v145.2c-2.4,0-4.7-0.5-6.8-1.6l-67.6-39c-4-2.6-6.5-7-6.8-11.8V55.1H179.5z"/>
<path class="st7" d="M172.7,9.9l-71.5,41.3c-3.8,2.2-3.8,5.7,0,7.9l71.6,41.3c4.3,2.2,9.3,2.2,13.6,0l71.5-41.3
	c3.8-2.2,3.8-5.7,0-7.9L186.4,9.9C182.1,7.7,177,7.7,172.7,9.9z"/>
<path class="st7" d="M172.7,9.9l-71.5,41.3c-3.8,2.2-3.8,5.7,0,7.9l71.6,41.3c4.3,2.2,9.3,2.2,13.6,0l71.5-41.3
	c3.8-2.2,3.8-5.7,0-7.9L186.4,9.9C182.1,7.7,177,7.7,172.7,9.9z"/>
<ellipse transform="matrix(0.9684 -0.2496 0.2496 0.9684 -63.6852 55.7987)" class="st8" cx="188.2" cy="279" rx="10" ry="4.3"/>
<path class="st9" d="M181.4,273.5c0.7,0.1,1.3,0.2,2,0.2c0.3,0,0.6,0,0.9,0l-1.4,3.7l0.6,3.1l-2.9-0.6l0.6-3L181.4,273.5z"/>
<path class="st9" d="M181.6,241.1c0-0.4,2.7,0,2.7,0c-0.6,2-1.4,4-2.3,5.9c-0.6,0.9,1.6,1.3,3,2.8c-0.3,1.1-0.7,2.1-1,3.2
	c-0.1,0.2-0.1,0.4,0,0.6l-0.1,0.2l-0.8-3c0,0-3.6-1.4-3.6-2.1C179.3,245.5,181.6,241.5,181.6,241.1z"/>
<path class="st10" d="M188.5,238.6l-0.4-2.1c0,0,0.9,0.6,1.2,0.3s0.4-4.6,0.4-4.6s0-2.1-1.7-1.4s-3.7,0.3-3.3,2.7s0.7,4.9,0.1,5.1
	S188.2,240.4,188.5,238.6z"/>
<path class="st11" d="M183.4,279.3c0,0-0.1,0.5-0.4,0.3s-0.6-1.1-1.2-0.9s-1.3,1.4-1.3,1.4l-0.2,1.5c0,0,0.5-0.8,1-0.6
	c0.5,0.3,1,0.6,1.4,0.9c0,0,2.4,0.3,2.3-0.4s0-1.1-0.6-1.5S183.4,279.3,183.4,279.3z"/>
<path class="st12" d="M184.6,281.8c-0.7,0.2-1.5,0.3-2.2,0.2c-1.3-0.2-2.2-0.4-2.2-0.4c0.1-0.4,0.4-0.7,0.8-0.6
	C181.8,280.9,184.4,281.8,184.6,281.8z"/>
<path class="st10" d="M193,261.1v9.1l-0.3,4.1c0,0,0.9,0.8,0.8,1.1c-0.2,0.5-0.6,0.9-1.1,1.2c-0.4,0.1-1.5-0.2-1.7-0.7
	s-0.6-6.1-0.6-6.1v-2.3l-2.2-7.1L193,261.1z"/>
<path class="st13" d="M184.2,252l-0.8,1.5c-0.3,0.6-0.2,0.3-0.2,0.8l-0.5,11.4c0,0-0.7,2.5-1,3.3c-0.6,2.4-1.5,9.7-1.5,9.7
	c0.3,0.7,1.7,1.4,3.9,0.4l2.8-12l0.9-8.5l1.5-6.5L184.2,252z"/>
<path class="st11" d="M192.9,274.5c0,0,0.2,0.8,0.4,0.9s-0.8,1.4-1.6,1s-1.1-0.4-1.1-0.6s-0.2,0.4,0,0.5s-0.5,1-0.1,1.4
	c0.6,0.4,1.4,0.5,2.1,0.3c0.4-0.3,0.1-0.5,0.8-0.7s2.3-1,2.4-1.9s0-1.7-1.1-1.4C194.2,274.2,193.6,274.4,192.9,274.5z"/>
<path class="st14" d="M192.2,253.1l1.6,21.7c-0.6,1.8-2.7,2.9-4,1.8l-4.1-22.4l-0.2-4.4L192.2,253.1z"/>
<path class="st15" d="M183.5,244.1c-0.9-0.3-1.8-0.6-2.7-1.1c-0.4-0.4,1.6-5.9,2.7-5.6S186.5,237.4,183.5,244.1z"/>
<path class="st16" d="M191.4,238.4c0,0,1.5,5.1,0.8,6.8c-0.9,2.1-0.5,5.5,0.4,7.5c0.4,0.8-1.2,2.1-2.8,2.4c-2.3,0.4-5.7-0.3-6.6-0.5
	c-0.2,0,0.6-2,0.7-4.1c0.1-2.4-1.6-11.5-0.7-12.8S190.1,237.4,191.4,238.4z"/>
<path class="st10" d="M192.1,241.4c0,0,1.2,3,1.1,4.5s0.8,2.2,0.8,5.9s1,5.1,0.7,6.6s-1.7,3.2-1.8,2c0-1.1,0-2.2,0.2-3.3l-1.6-6.9
	v-2.7c0,0-1.6-5.6-1.6-6S192.1,241.4,192.1,241.4z"/>
<path class="st17" d="M193.7,244.5c-1.2,0.3-2.4,0.6-3.7,0.7c-0.6-0.1-1.5-5.6-0.4-6.5C190.2,238.3,192.5,236.2,193.7,244.5z"/>
<path class="st18" d="M188.8,229.2l1.2,1.6c0,0-0.4-0.1-0.4,0.1s0.6,1.4,0.6,1.4s-0.4-0.3-0.5-0.2c-0.1,1.6-0.9,1.4-0.9,1.4
	s0-1.8-0.6-1c-0.4,0.6-0.4,1.3-0.1,1.9l-0.9,2h-1.7c-0.6-0.7-1.2-1.5-1.7-2.3c-0.1-0.1-0.2,0.6-0.2,0.6v-1.2l-0.4,0.3
	c-0.3-0.9-0.5-1.9-0.6-2.8C183.2,230,184.9,226.8,188.8,229.2z"/>
<path class="st19" d="M185.1,228.8c0,0-1.9,1.2-1.9,2.1c0,0.7,0.1,1.4,0.3,2.1l0.3-0.4c0.1,0.5,0.3,1,0.6,1.5
	C183.5,232.7,184.7,229.2,185.1,228.8z"/>
<path class="st20" d="M183.2,241.6c0,0,1.3,7.2,1.1,8.3s-0.3,2.3-0.4,2.8s2.5-2.2,2.9-3.6S183.2,241.6,183.2,241.6z"/>
<path class="st21" d="M188.2,234.4c-0.3,0.5-0.8,1-1.3,1.4c-0.6,0.3-3-1.6-3-1.6c0.5,0.8,1,1.6,1.7,2.3h1.7L188.2,234.4z"/>
<linearGradient id="SVGID_1_" gradientUnits="userSpaceOnUse" x1="-1359.2822" y1="69.28" x2="-1351.3422" y2="65.47" gradientTransform="matrix(1 0 0 -1 1576.39 369.4646)">
	<stop  offset="0" style="stop-color:#FFFFFF"/>
	<stop  offset="1" style="stop-color:#000000"/>
</linearGradient>
<path class="st22" d="M222.9,303.4c1.3-0.3,2.5-1,3.4-1.9l-7-3.1l-5.2,3.2l7.1,3.7C222.4,305.7,222.9,303.4,222.9,303.4z"/>
<linearGradient id="SVGID_2_" gradientUnits="userSpaceOnUse" x1="-1353.8029" y1="66.4988" x2="-1345.4028" y2="62.4688" gradientTransform="matrix(1 0 0 -1 1576.39 369.4646)">
	<stop  offset="0" style="stop-color:#FFFFFF"/>
	<stop  offset="1" style="stop-color:#000000"/>
</linearGradient>
<path class="st23" d="M228.9,306.1c1.3-0.3,2.5-1,3.4-1.9l-7-3.1l-6.1,3.8l8.2,3.7C228.6,309,228.9,306.1,228.9,306.1z"/>
<path class="st24" d="M241.6,266.2h-0.3c-0.2,0-0.3,0.1-0.4,0.3l-1,2l-0.2,0.4l-0.8-1.6l-0.4-0.7c0.2-0.3,0.2-0.7,0.2-1.1
	c0-0.6,0-1.2,0.1-1.8c0-0.1,0.1-0.2,0.1-0.3c0.5-0.5,2.4-2.5,2.5-2.5c0.1,0,0.2,0,0.3,0c0,0,0.1,0.1,0.1,0.1c0,0.1,0,0.2,0,0.3
	c-0.3,0.6-0.6,1.1-0.9,1.6l0,0c0.3,0.2,0.6,0.5,0.9,0.8c0.1,0.1,0.2,0.3,0.3,0.5C242.3,264.5,242,266.2,241.6,266.2z"/>
<path class="st25" d="M241.8,260.8l-2.5,3v3.4l-0.4,0.1l-0.4-0.7c0.2-0.3,0.2-0.7,0.2-1.1c0-0.6,0-1.2,0.1-1.8
	c0-0.1,0.1-0.2,0.1-0.3c0.5-0.5,2.4-2.5,2.5-2.5C241.6,260.8,241.7,260.8,241.8,260.8z"/>
<path class="st26" d="M226.6,308c0.3,0.3,0.8,0.5,1.2,0.5c0.1,0,0.2,0,0.2,0c0.6-0.2,3.6-1.7,3.8-2.2c0.3-0.6,0.4-1.3,0.4-2
	c-0.1-0.2-0.4-0.3-0.6-0.3c-0.9,0.4-1.9,0.6-2.8,0.8c-0.2,0-0.3,0-0.5,0.1c-0.6,0.4-1.1,0.8-1.6,1.3
	C226.8,306.3,226.4,307.8,226.6,308z"/>
<path class="st26" d="M220.6,304.5c0,0,0,0.1,0,0.1c0.1,0.4,0.5,0.6,0.9,0.7c0.3,0,0.7,0,1-0.1c0.3-0.1,0.7-0.3,0.9-0.5
	c0.3-0.3,0.9-1.2,1.4-1.5l1.5-1.1c0-0.2,0-0.5-0.1-0.7c-0.6-0.1-1.2,0-1.8,0.1c-0.3,0.1-1.4,0.7-1.8,0.9l-0.1,0.1l-1.8,0.7
	L220.6,304.5z"/>
<path class="st24" d="M218.8,287.4c0.1,0.3,1.8,1.7,1.8,1.7l0.2-0.4l0.5-1.1l-1.2-3.3l-0.9,0.2l-0.2,0.3
	C218.9,284.7,218.7,287,218.8,287.4z"/>
<path class="st25" d="M218.8,287.4c0.1,0.3,1.8,1.7,1.8,1.7l0.2-0.4l0.5-1.1l-1.2-3.3l-0.9,0.2l-0.2,0.3
	C218.9,284.7,218.7,287,218.8,287.4z"/>
<path class="st27" d="M220.3,274.4c-0.5,1.1-0.8,2.2-0.8,3.4c0,1.5,0.3,3.1,0.7,4.6c0.2,0.6,0.3,1.2,0.4,1.5c0,0.1,0,0.2,0.1,0.2
	c0,0.1,0,0.1,0.1,0.2c0,0,0,0,0,0.1c0,0.2-0.2,0.5-0.4,0.6c-0.1,0.1-0.3,0.1-0.4,0.2c-0.2,0-0.3,0.1-0.5,0c-0.3,0-0.6-0.1-0.9-0.2
	c-0.2-0.1-0.3-0.3-0.4-0.5c0,0-1.1-6.3-0.9-7.8c0.7-2.6,1.6-5.2,2.8-7.6c0.1-0.1,0.3-0.3,0.5-0.4c0.1-0.1,0.3-0.1,0.4-0.2v4.8
	C220.7,273.7,220.5,274.1,220.3,274.4z"/>
<path class="st14" d="M230.1,295.6l-0.4,10.8c0,0.3-0.2,0.5-0.5,0.7c-0.2,0.1-0.4,0.2-0.6,0.2c-0.4,0.1-0.9,0.1-1.3-0.1
	c-0.1,0-0.2-0.1-0.4-0.2c-0.3-0.1-0.4-0.4-0.5-0.7v-10.7l-2.2-6.2c-0.3,1.6-0.8,4.4-0.8,5.2c-0.1,1.2,0,8.4,0,8.4
	c0,0.3-0.2,0.5-0.5,0.7c-0.2,0.1-0.3,0.2-0.5,0.2c-0.4,0.1-0.9,0.1-1.3,0c-0.2,0-0.3-0.1-0.4-0.2c-0.3-0.1-0.4-0.4-0.4-0.7
	c0,0-0.2-7.4-0.1-7.8c0.1-1.1,0.2-2.2,0.2-3.3c0-1.8-0.3-6.9-0.3-6.9c0-0.8,0.1-1.5,0.3-2.3c0.1-0.5,0.3-0.9,0.3-0.9l6.4,1l1.6,0.2
	C230,287.8,230.1,295.6,230.1,295.6z"/>
<linearGradient id="SVGID_3_" gradientUnits="userSpaceOnUse" x1="220.11" y1="76.0995" x2="221.44" y2="76.0995" gradientTransform="matrix(1 0 0 -1 0 369.4646)">
	<stop  offset="1.000000e-02" style="stop-color:#EBEAF0"/>
	<stop  offset="0.99" style="stop-color:#E5E4EC"/>
</linearGradient>
<path class="st28" d="M221.4,303.9c-0.2,0-0.3-0.1-0.4-0.2c-0.3-0.1-0.4-0.4-0.5-0.7c0,0-0.2-7.4-0.2-7.8s0.1-1.5,0.2-3.3
	s-0.3-6.9-0.3-6.9c0-0.8,0.1-1.6,0.3-2.3l0.9,1.2c-0.3,1.1-0.3,2.2-0.1,3.3C221.6,289,221.4,301.8,221.4,303.9z"/>
<path class="st27" d="M229.5,275.1c-0.1,0.3-0.1,0.6-0.2,0.8c-0.3,1-0.6,1.8-0.7,2.4c-0.2,1.5,0.6,4.8,0.6,5.3
	c0,0.4-0.4,0.9-1.8,1.2c-0.8,0.1-1.7,0.2-2.5,0.2c-1.5,0-3-0.3-4.3-1c-0.2-0.1-0.4-0.2-0.6-0.4c0,0,0.1-0.5,0.1-1.1
	c0.1-1.1,0.3-2.7,0.3-4.1c0-1.3,0-2.6-0.2-3.9c-0.1-0.7-0.2-1.5-0.2-2.3c-0.1-1.2,0.2-2.3,0.7-3.4l0.1-0.2c0.1,0,0.2,0,0.3,0
	c0.8,0,1.6,0.1,2.4,0.3c0.7,0.1,1.3,0.3,2,0.5c1.3,0.4,2.5,1.1,3.5,2c0.2,0.3,0.4,0.6,0.5,1C229.8,273.3,229.8,274.3,229.5,275.1z"
	/>
<path class="st27" d="M240.6,268.1c0,0.2,0,0.3-0.1,0.4l-0.1,0.1c-0.5,0.8-4,6.4-4.5,6.7s-5.2,0.6-6.7,0.6H229c-1,0-1.7-0.1-2-1.6
	c0-0.2-0.1-0.4-0.1-0.5c-0.1-0.8,0.3-1.7,1.1-2.1c0.2-0.1,0.3-0.2,0.5-0.3c0.2-0.1,0.3-0.1,0.5-0.1c0.1,0,0.2,0,0.4,0.1
	c1,0.5,2.1,0.7,3.2,0.7c0.7,0,1.3-0.1,1.9-0.4l3.7-5.5c0.2-0.4,0.6-0.5,1.2-0.1c0.3,0.2,0.5,0.4,0.7,0.7
	C240.4,267.1,240.6,267.6,240.6,268.1z"/>
<path class="st29" d="M224.7,268.7c0.1,0,0.2,0,0.2,0l0.1-0.1c0.5-0.2,0.8-0.7,0.9-1.2v-0.1c0-0.2,0-0.4,0-0.6c0-0.1,0-0.2,0-0.3
	c0-0.7,0.3-0.8,0.5-0.8s0.3,0.7,0.3,0.7l0.3-0.1v-1c0-0.1,0-0.2,0.1-0.3c0.2-0.3,1.1-0.5,1.1-1.6c0-0.5-0.5-2.2-3-2.3
	c0.8,0.4,2.2,1.4,1.5,2.2c-0.8,1-1.2,2.3-1.2,3.5C225.6,267.5,225.3,268.2,224.7,268.7z"/>
<linearGradient id="SVGID_4_" gradientUnits="userSpaceOnUse" x1="217.1976" y1="92.5496" x2="224.44" y2="92.5496" gradientTransform="matrix(1 0 0 -1 0 369.4646)">
	<stop  offset="1.000000e-02" style="stop-color:#EBEAF0"/>
	<stop  offset="0.99" style="stop-color:#E5E4EC"/>
</linearGradient>
<path class="st30" d="M221.2,268.6h-0.3c-0.1,0.1-0.3,0.1-0.4,0.2c-0.2,0.1-0.3,0.2-0.5,0.4c-1.2,2.4-2.1,5-2.8,7.6
	c-0.2,1.4,0.9,7.8,0.9,7.8c0,0.2,0.2,0.4,0.4,0.5c0.3,0.2,0.6,0.2,0.9,0.2c-0.7-2.8-1.2-5.5-1.5-8.3c0-1,1.6-5.1,2.4-7
	c-0.2,0.7-0.3,1.5-0.2,2.3c0.1,0.8,0.2,1.6,0.2,2.3c0.2,1.3,0.2,2.6,0.2,3.9c-0.1,1.4-0.2,3-0.3,4.1c-0.1,0.7-0.1,1.1-0.1,1.1
	c0.2,0.2,0.4,0.3,0.6,0.4c0.5-3.6,0.5-7.2-0.1-10.8c-0.2-1.2-0.1-2.4,0.3-3.6c0.2-0.5,3.6,0.4,3.6,0.4l-0.8-1.1
	C222.8,268.7,222,268.6,221.2,268.6z"/>
<path class="st27" d="M239.4,266c0,0-2.7,5.6-4.9,5.7l3.7-5.5C238.4,265.8,238.9,265.7,239.4,266z"/>
<linearGradient id="SVGID_5_" gradientUnits="userSpaceOnUse" x1="227.07" y1="94.2695" x2="236.01" y2="94.2695" gradientTransform="matrix(1 0 0 -1 0 369.4646)">
	<stop  offset="1.000000e-02" style="stop-color:#EBEAF0"/>
	<stop  offset="0.99" style="stop-color:#E5E4EC"/>
</linearGradient>
<path class="st31" d="M236,275.4c-0.4,0.3-5.2,0.6-6.7,0.6H229c-1,0-1.7-0.1-2-1.6C227.3,274.5,232.7,275.8,236,275.4z"/>
<linearGradient id="SVGID_6_" gradientUnits="userSpaceOnUse" x1="216.8361" y1="83.2464" x2="219.8961" y2="83.2464" gradientTransform="matrix(1 4.363309e-03 4.363309e-03 -1 7.1393 380.5979)">
	<stop  offset="1.000000e-02" style="stop-color:#EBEAF0"/>
	<stop  offset="0.99" style="stop-color:#E5E4EC"/>
</linearGradient>
<path class="st32" d="M227.4,295.6l-0.1,11.6c-0.1,0-0.2-0.1-0.3-0.2c-0.3-0.1-0.4-0.4-0.5-0.7v-10.7l-2.2-6.2L227.4,295.6z"/>
<path class="st24" d="M227.8,264.3c0,0,0,0.1,0,0.2c0,0.9-0.1,1.9-0.3,2.8c-0.2,0.5-0.6,0.9-1.1,1c-0.1,0-0.1,0.1-0.1,0.2
	c0,0.8,0.1,1.2,0.1,1.2c-0.2,0.1-0.5,0.2-0.8,0.3c-0.1,0-0.2,0-0.4,0l0,0c-0.7,0-1.3-0.1-1.9-0.4c-0.2-0.1-0.3-0.3-0.3-0.5
	c0,0.1,0,0.1,0-0.2v-0.7c0.6-0.6,1.2-1.1,1.8-1.6c0.8-0.7,1.7-1.4,2.4-1.9l0.1-0.1C227.4,264.5,227.6,264.4,227.8,264.3
	C227.8,264.2,227.8,264.2,227.8,264.3z"/>
<path class="st26" d="M228.4,263.2c0,0.5-0.2,1-0.6,1.2c-0.2,0.1-0.3,0.2-0.4,0.3c-0.1,0.1-0.1,0.2-0.1,0.3v1l-0.3,0.1
	c0,0,0-0.7-0.3-0.7s-0.5,0.1-0.5,0.8c0,0.1,0,0.2,0,0.3c0,0.2,0,0.4,0,0.6v0.1c-0.1,0.5-0.5,1-0.9,1.2l-0.1,0.1h-0.2
	c-0.6,0-1.3-0.1-1.9-0.4c-0.3-0.5-0.5-1-0.6-1.5c-0.1-0.4-0.4-1.2-0.5-1.6c-0.2-1-0.2-3.7,2.6-4.1c0.4-0.1,0.7-0.1,1.1-0.1
	c2.3,0,2.9,1.5,3,2.1C228.5,263.1,228.5,263.2,228.4,263.2z"/>
<path class="st25" d="M228.4,263.1c-0.7,0-1.3-0.1-2-0.1c-0.8,0.1-1.5,2.4-1.6,3.4c0,0.1,0,0.2,0,0.3c0,0.7,0.1,1.4,0.4,2v1.5
	c-0.7,0-1.3-0.1-1.9-0.4c-0.2-0.1-0.3-0.3-0.3-0.5c0,0.1,0,0.1,0-0.2v-0.7c-0.3-0.5-0.5-1-0.6-1.5c-0.1-0.4-0.4-1.2-0.5-1.6
	c-0.2-1-0.2-3.7,2.6-4.1c0.4-0.1,0.7-0.1,1.1-0.1C227.7,261,228.3,262.5,228.4,263.1z"/>
<ellipse class="st8" cx="163.3" cy="321.9" rx="9.7" ry="4.8"/>
<path class="st33" d="M160.6,304.6l1,9.3c0,0,1.6,6.1,1.5,7.2c0,0.3-2.2,1.4-2.1,1.5c1.7,2.1,3.3-1.1,3.3-1.1v-0.8
	c0,0,0.3-4.2,0.4-4.9c-0.1-0.8-0.2-1.7-0.4-2.5c0-0.6,0.1-7.4,0.1-7.4L160.6,304.6z"/>
<path class="st34" d="M163.8,323.8c0,0,0.4-1.5,0.5-1.6s0.5-1.1,0.1-1.4c-0.6-0.6-1.4,1.2-2.3,1.6s-0.9,0-0.9,0
	c-0.5,0.3-0.9,0.7-1.2,1.1c-0.1,0.2,0.9,0.5,1.7,0.5c0.4,0,0.9-0.2,1.2-0.4l0.6-1.2C163.5,322.8,163.6,323.3,163.8,323.8z"/>
<path class="st35" d="M160.7,287.3c0,0,0.9,2,1.6,1.8s1.1-1.4,1.1-1.8v-1.2c0,0,1.1,0.1,1.4-0.3c0.4-1.4,0.5-2.8,0.2-4.2
	c-0.2-0.8-1.8-1.1-1.8-1.1l-2.4,0.7L160.7,287.3z"/>
<path class="st35" d="M157.8,304.2c0,0-1.6,7.7-1.2,8.6s1.8,2.5,3,4.8s2.3,3.1,2,4S161,324,161,324l2.2-1.8l0.1-2.4
	c-0.5-0.5-0.9-1.1-1.2-1.8c-0.3-1-0.8-3.5-1.5-4.3s-1.3-1.5-1.3-1.5l3.1-7.3L157.8,304.2z"/>
<path class="st36" d="M164.8,322.8c0,0-0.5-1.4-0.6-1.6s-0.2-1.2-0.7-1.3c-0.9-0.2-0.5,1.7-1.1,2.6c-0.3,0.5-0.7,0.9-1.3,1
	c-0.2,0.5-0.3,1-0.4,1.5c0.1,0.2,1.1,0.1,1.8-0.3c0.5-0.5,0.9-1,1.3-1.6l-0.2-1.4C163.6,321.7,164.8,322.9,164.8,322.8z"/>
<path class="st33" d="M164.2,287.5c0.2-0.2,0.6-0.2,0.8,0c0.4,0.2,3.3,4.5,4.3,6.1c0.2,0.3,0.2,0.8-0.1,1.1l-4.4,4.9l-2.1,0.5v-2.2
	l2.1-0.3l1.9-3.1c0.3-0.3,0.3-0.8,0-1.1l-2.2-2.9C164.4,290.5,162.4,288.2,164.2,287.5z"/>
<path class="st37" d="M159.2,287.8c-0.5,1.2-1,2.4-1.3,3.7c-0.1,1.2,1.9,3.9,1.6,4.5s-3.5,15.8-3.5,15.8c0.8,0.5,1.7,0.9,2.6,1.1
	c2.9,0.7,7.3,1,7.4-0.4s0.5-10.5-0.2-12.5c-0.9-2.3-1.4-3.1-1.3-3.8c0.4-3.6,1.5-8.2,0.5-8.8S159.7,287.4,159.2,287.8z"/>
<path class="st35" d="M156.9,296.8c0.8-1.3,1.3-2.8,1.4-4.3c0.1-2.1,0.4-4.7,1.1-5c0.6-0.3,1.3-0.1,1.6,0.5c0.1,0.2,0.2,0.5,0.1,0.8
	c-0.1,0.9-1.1,6.3-1.2,7.1c0,0.1,0,0.1-0.1,0.2l-4,5.2c-0.4,0.5-0.6,1.1-0.6,1.7c0.1,0.6,0.1,1.2,0,1.8c-0.1,0.4-0.6-0.2-0.7-0.6
	l-0.7-1.6c0-0.1,0-0.2,0-0.3c0.3-0.6,0.6-1.1,1-1.6C155.3,300.4,155.9,298.4,156.9,296.8z"/>
<path class="st38" d="M159.2,279.7c-0.7,1.9-1,3.9-0.8,5.9c0.3,3.5,5.3,2,5.3,2l0.5-3.5c-0.2-0.4-0.3-0.9-0.2-1.3
	c0.3-0.6,0.7,0.1,0.7,0.1s0.8-2.5-0.3-3.3C162.9,278.4,160.6,278.4,159.2,279.7z"/>
<path class="st8" d="M107.7,286.2c-4.5,2.2-5.8,5.2-2.9,6.7s8.9,0.8,13.4-1.5s5.8-5.2,2.9-6.7S112.2,284,107.7,286.2z"/>
<path class="st9" d="M106.1,284.2c0.7,0.1,1.3,0.2,2,0.2c0.3,0,0.6,0,0.9,0l-1.4,3.6l0.6,3.1l-2.8-0.6l0.6-3L106.1,284.2z"/>
<path class="st9" d="M106.3,252.1c0-0.4,2.7,0,2.7,0c-0.6,2-1.4,3.9-2.3,5.8c-0.6,0.9,1.6,1.3,2.9,2.8c-0.3,1.1-0.7,2.1-1,3.2
	c-0.1,0.2-0.1,0.4,0,0.6l-0.1,0.2l-0.8-2.9c0,0-3.5-1.4-3.6-2.1C104,256.4,106.3,252.4,106.3,252.1z"/>
<path class="st10" d="M113.2,249.5l-0.4-2.1c0,0,0.9,0.6,1.2,0.2s0.4-4.5,0.4-4.5s0-2.1-1.7-1.4s-3.7,0.3-3.3,2.7s0.7,4.8,0.1,5.1
	S112.9,251.4,113.2,249.5z"/>
<path class="st11" d="M108.1,290c0,0-0.1,0.4-0.4,0.3s-0.6-1.1-1.2-0.9s-1.3,1.3-1.3,1.3l-0.2,1.4c0,0,0.5-0.8,1-0.6
	c0.5,0.3,1,0.6,1.4,0.9c0,0,2.4,0.3,2.3-0.4s0-1.1-0.6-1.4S108.1,290,108.1,290z"/>
<path class="st12" d="M109.3,292.4c-0.7,0.2-1.5,0.3-2.2,0.2c-1.3-0.2-2.2-0.4-2.2-0.4c0.1-0.4,0.4-0.7,0.8-0.6
	C106.5,291.6,109.1,292.5,109.3,292.4z"/>
<path class="st10" d="M117.7,271.9v9l-0.3,4.1c0,0,0.9,0.8,0.8,1.1c-0.2,0.5-0.6,0.9-1.1,1.2c-0.4,0.1-1.5-0.2-1.7-0.7
	s-0.7-6.1-0.7-6.1v-2.2l-2.2-7.1L117.7,271.9z"/>
<path class="st13" d="M108.9,262.9l-0.8,1.5c-0.3,0.6-0.2,0.3-0.2,0.8l-0.5,11.3c0,0-0.7,2.5-0.9,3.3c-0.6,2.4-1.4,9.6-1.4,9.6
	c0.3,0.7,1.7,1.4,3.8,0.4l2.8-12l0.9-8.5l1.5-6.5L108.9,262.9z"/>
<path class="st11" d="M117.6,285.2c0,0,0.2,0.8,0.4,0.9s-0.8,1.4-1.6,1s-1.1-0.4-1.1-0.6s-0.2,0.4,0,0.5s-0.4,1-0.1,1.4
	c0.6,0.4,1.4,0.5,2.1,0.3c0.4-0.3,0.1-0.5,0.8-0.7s2.3-1,2.4-1.9s0-1.7-1.1-1.4C118.8,284.9,118.2,285.1,117.6,285.2z"/>
<path class="st14" d="M116.9,264l1.6,21.5c-0.6,1.8-2.7,2.9-3.9,1.8l-4-22.2l-0.2-4.4L116.9,264z"/>
<path class="st39" d="M108.2,255c-0.9-0.2-1.8-0.6-2.7-1c-0.4-0.4,1.5-5.8,2.7-5.6S111.2,248.4,108.2,255z"/>
<path class="st40" d="M116,249.3c0,0,1.5,5.1,0.8,6.8c-0.9,2.1-0.5,5.5,0.4,7.5c0.4,0.8-1.2,2.1-2.8,2.4c-2.3,0.4-5.7-0.3-6.6-0.5
	c-0.2,0,0.6-2,0.7-4.1c0.2-2.4-1.6-11.4-0.7-12.7S114.7,248.4,116,249.3z"/>
<path class="st10" d="M116.7,252.3c0,0,1.2,3,1.1,4.4c-0.1,1.4,0.8,2.1,0.8,5.8s1,5.1,0.7,6.5s-1.6,3.2-1.8,2
	c-0.1-1.1,0-2.2,0.2-3.3l-1.6-6.9v-2.6c0,0-1.6-5.6-1.6-5.9S116.7,252.3,116.7,252.3z"/>
<path class="st41" d="M118.4,255.4c-1.2,0.3-2.4,0.6-3.6,0.7c-0.6-0.1-1.4-5.6-0.4-6.4C114.9,249.3,117.2,247.1,118.4,255.4z"/>
<path class="st18" d="M113.5,240.3l1.2,1.5c0,0-0.4-0.1-0.4,0.1s0.6,1.4,0.6,1.4s-0.4-0.3-0.5-0.2c-0.1,1.6-0.9,1.4-0.9,1.4
	s0-1.8-0.6-1c-0.4,0.6-0.4,1.3-0.1,1.9l-0.9,2h-1.7c-0.6-0.7-1.2-1.5-1.7-2.3c-0.1-0.1-0.2,0.6-0.2,0.6v-1.2l-0.4,0.3
	c-0.3-0.9-0.5-1.8-0.6-2.8C107.9,241,109.6,237.8,113.5,240.3z"/>
<path class="st19" d="M109.8,239.9c0,0-1.8,1.2-1.9,2.1c0,0.7,0.1,1.4,0.3,2.1l0.2-0.4c0.1,0.5,0.3,1,0.6,1.5
	C108.2,243.7,109.4,240.2,109.8,239.9z"/>
<path class="st42" d="M107.9,252.6c0,0,1.3,7.1,1.1,8.2s-0.3,2.2-0.4,2.7s2.4-2.2,2.9-3.6S107.9,252.6,107.9,252.6z"/>
<path class="st21" d="M112.9,245.4c-0.3,0.5-0.8,1-1.3,1.4c-0.6,0.3-3-1.6-3-1.6c0.5,0.8,1,1.6,1.7,2.3h1.7L112.9,245.4z"/>
<path class="st43" d="M81.5,252l0.1,1.1l0.2,0.7l0.5,0.9c0.2,0.2,0.4,0.2,0.4,0l0.2,0.4c0.2,0.3,0.5,0.1,0.4-0.3L83,254l0.6,1.1
	c0.2,0.3,0.6,0.1,0.4-0.3l-0.5-1.2l0.5,1c0.2,0.2,0.5,0.1,0.4-0.3l-0.6-1.6c0-0.2,0-0.4,0.1-0.6c0.1-0.2,0.9,0.2,0.9,0.2l0.8,0.4
	c0.3,0,0.4,0,0.4-0.2l-0.6-0.6l-0.6-0.6l-0.3-0.2c-0.4-0.3-0.8-0.5-1.3-0.6v-0.1l-0.1-0.2l-0.6,0.1l-0.9,0.1v0.7v0.3L81.5,252z"/>
<path class="st43" d="M84.1,251.8l-1.3-0.3l-0.7,1.1l0.6,2.1c0-0.5,0-1.2,0.3-1.3l0.6-0.1l-0.5-0.4l0.1-0.5l1.1-0.2L84.1,251.8z"/>
<path class="st44" d="M84.3,236.6l-0.4,4.5l-0.3,3.8c-0.3,1.7-0.5,3.4-0.4,5.1c0,0.1,0,0.2,0,0.3c-0.1,0.3-0.4,0.6-0.7,0.7
	c-0.3,0.2-0.7,0.3-1,0.4c-0.6-2-0.9-4.1-0.8-6.1l0.4-4.4C81.3,238.2,81.9,236.3,84.3,236.6z"/>
<path class="st43" d="M84.8,251.2l-2.3-0.3c0.3-0.1,0.6-0.4,0.7-0.7v0.1c0.5,0.1,0.9,0.3,1.3,0.6L84.8,251.2z"/>
<path class="st44" d="M83.6,244.8c-0.3,1.7-0.5,3.4-0.4,5.1c0,0.1,0,0.2,0,0.3c-0.1,0.3-0.4,0.6-0.7,0.7c0-0.3,0-0.6,0-0.8
	c-0.1-4.2-1.4-7.7,0-9.6l1.4,0.7L83.6,244.8z"/>
<path class="st45" d="M95.1,278.5c0-0.8-0.6-1.1-1.6-1.2c-1.2,0.1-2.3,0.4-3.4,0.7l-1.7,0.9c-0.3,0.7-0.3,1.6-0.1,2.3
	c0.4,0.4,1,0.6,1.6,0.5l1.9-0.8l0.1-0.3C93.5,280.4,95.1,279.8,95.1,278.5z"/>
<path class="st45" d="M89.1,275.2c0-0.7-0.6-0.8-1.5-0.9c-1.6,0-1.7,0.8-3.2,0.8l-1.5,0.9c-0.3,0.8-0.3,1.7-0.1,2.5
	c0.5,0.4,1.1,0.5,1.6,0.4L86,278l0.1-0.3C87.5,277.5,89.1,276.4,89.1,275.2z"/>
<path class="st45" d="M83.7,252.1l5.4,2.3c0,0.8,0,1.7-0.1,2.5c-0.3,2.5-1.3,6.3-1.3,6.3c-0.7,3.8-1.1,7.6-1.2,11.4
	c-0.1,1.2-1.3,2.1-2.5,1.9c-0.5-0.1-0.9-0.3-1.3-0.6c-0.4-5.1-0.4-10.1,0.8-13.4c-0.6-2.6,0-5.5,0.1-8.5
	C83.6,254,83.9,252.2,83.7,252.1z"/>
<path class="st46" d="M87.8,257.5c-0.1,2.7,0.1,5.4,0.7,8c-1,3.3-0.8,8.2,0,13.3c0.7,0.9,2,1,2.9,0.4c0.6-0.4,0.8-1.1,0.7-1.7
	l0.6-11.4c0,0,0.8-3.8,1-6.3c0-2.8-0.2-5.5-0.7-8.2c-0.5,0.1-1,0.2-1.5,0.3c-3.2,0.4-6.2-0.7-7.1-2.6c-0.1,0.1-0.1,0.3-0.1,0.4
	c-0.4,1.1-0.6,2.3-0.6,3.5C83.5,255.8,86.1,256.8,87.8,257.5z"/>
<path class="st44" d="M93.7,242.1c-0.2,1.6-0.3,3.2-0.3,4.8c0,0.6,0,1.1,0,1.7c0,1-0.2,2-0.4,3c-0.5,0.2-0.9,0.4-1.4,0.5
	c-2.8,0.9-5.3,0.4-7.3-2.4c-1.1-3-1.9-6.2-2.2-9.4c0-1.9,0.6-3.3,2.3-3.7c3.3,1,6.4,2.7,8.9,5.1L93.7,242.1z"/>
<path class="st43" d="M90.6,236.8l-0.3,2.6c-1.7,0-4.3-1.2-4-2.1l0.9-1.7L90.6,236.8z"/>
<path class="st43" d="M91.4,237.1c-0.7,0.8-1.7,0.7-2.7,0.4c-1.5-0.7-2.6-1.7-2.4-3.7c-0.1-1.4,0.5-2.9,3-2.8c1.5,0.1,2.9,0.6,3,2.3
	C92.1,233.2,92.2,236.4,91.4,237.1z"/>
<path class="st47" d="M90.4,238.5l0.6,1.4c-2.9-0.3-5.5-1.4-4.8-2.8l0.5-0.6C86.3,237.5,89.1,238.7,90.4,238.5z"/>
<path d="M92.1,232.8c-0.1,0.6-0.5,1.1-1,1.4c0,0.4,0,0.9,0,1.3c-0.1,0-0.7,0.6-0.7,0.6l-0.3,1c-1.1,0.7-2.6,0.4-3.4-0.6
	c-0.5-1.1-0.7-2.3-0.6-3.5c0.2-1.5,1.5-2.6,3-2.6C91.1,230.4,92.3,231.5,92.1,232.8z"/>
<path class="st43" d="M91,235.7c0.2-0.2-0.1-0.7-0.3-0.8s-0.4,0.3-0.5,0.6c-0.1,0.3,0,0.6,0.2,0.8c0.2,0.3,0.5,0,0.6-0.2
	S90.8,235.8,91,235.7z"/>
<path class="st48" d="M93.6,259.9c-0.2,2.5-1,6.3-1,6.3l-0.6,11.4c0.1,0.7-0.2,1.4-0.7,1.8c0.5-4.8,0.7-9.3,0-12.8
	c1.1-4,1.6-8.1,0.3-11.1c0.1-1.1,0.1-2.1-0.1-3.2c0.4-0.1,0.9-0.3,1.4-0.5C93.4,254.4,93.6,257.1,93.6,259.9z"/>
<path class="st49" d="M89,264.8c0-0.4,0.2-0.9,0.6-1.1l9.2-5.9c0.3-0.2,0.6-0.1,0.6,0.3l0.1,2.4l0.2,4.8c0,0.4-0.2,0.8-0.6,1.1
	l-9.2,5.9c-0.3,0.2-0.6,0.1-0.7-0.3l-0.2-4.8L89,264.8z"/>
<polygon class="st49" points="99.2,257.7 99.8,258.2 90.2,272.9 89.5,272.4 "/>
<path class="st45" d="M89.7,265.3l0.4,7.2c0,0.4,0.3,0.5,0.7,0.3l9.1-5.9c0.4-0.3,0.6-0.7,0.6-1.1l-0.4-7.2c0-0.4-0.3-0.5-0.6-0.3
	l-9.2,5.9C89.9,264.5,89.7,264.9,89.7,265.3z"/>
<path class="st50" d="M89.7,265.3l0.1,2.4c0,0.8,0.6,1.1,1.3,0.6l8-5.2c0.7-0.5,1.1-1.3,1.1-2.2l-0.1-2.4c0-0.4-0.3-0.5-0.6-0.3
	l-9.2,5.9C89.9,264.5,89.7,264.9,89.7,265.3z"/>
<path class="st2" d="M94.9,267.2l0.4-0.3c0.2-0.1,0.3-0.3,0.2-0.5l-0.1-2l-1,0.6l0.1,2C94.7,267.2,94.8,267.3,94.9,267.2z"/>
<path class="st2" d="M94.4,266l1.4-0.9c0.1-0.1,0.2-0.2,0.2-0.4v-0.4c0-0.1,0-0.1-0.1-0.1c0,0-0.1,0-0.1,0l-1.4,0.9
	c-0.1,0.1-0.2,0.2-0.2,0.4v0.4C94.2,266,94.2,266.1,94.4,266C94.3,266.1,94.3,266.1,94.4,266z"/>
<path class="st45" d="M95.7,258.7l0.1,1.2h0.6v-0.8c0-0.1-0.1-0.3-0.2-0.4L95.7,258.7z"/>
<path class="st51" d="M95.8,259.8c-0.1,0.1-0.1,0.2,0,0.2c0.1,0.1,0.3,0.1,0.4,0c0.1-0.1,0.1-0.2,0-0.2
	C96.1,259.7,96,259.7,95.8,259.8z"/>
<polygon class="st51" points="95.3,260 96.2,259.3 95.8,258.5 94.8,259.2 "/>
<path class="st52" d="M94.7,259.4c0,0.2,0.2,0.4,0.3,0.5c0.2,0.1,0.3,0,0.3-0.2c0-0.2-0.2-0.4-0.3-0.5
	C94.8,259.1,94.7,259.2,94.7,259.4z"/>
<path class="st45" d="M95.7,258.8c0,0.1,0,0.1,0,0.2c0.1,0.1,0.2,0.3,0.3,0.3c0.1,0,0.1,0,0.2,0c0.1,0,0.1-0.1,0.1-0.2
	c0-0.1-0.1-0.3-0.2-0.4c0-0.1-0.1-0.1-0.2-0.1c-0.1,0-0.1,0-0.2,0l0,0C95.7,258.6,95.7,258.7,95.7,258.8z"/>
<path class="st43" d="M95.6,257.9l0.8,1.6c0.2,0.4,0.1,0.9-0.2,1.3c-0.5,0.4-1,0.8-1.6,1l-1-0.7l0.1-1c-0.5-0.3-0.5-1-0.2-1.9
	C94,257.7,94.9,257.6,95.6,257.9z"/>
<path class="st53" d="M93.5,259.6l0.8,0.7l-0.2,0.7l-0.3-0.2c-0.2,0.2-0.3,0.3-0.4,0.2v-0.3L93.5,259.6z"/>
<polygon class="st54" points="93.1,261.4 94,260.8 93.6,260 92.6,260.6 "/>
<path class="st54" d="M92.5,260.9c0,0.2,0.2,0.4,0.3,0.5c0.2,0.1,0.3,0,0.3-0.2c0-0.2-0.1-0.4-0.3-0.5
	C92.6,260.6,92.5,260.6,92.5,260.9z"/>
<path class="st45" d="M93.5,260.2c0,0.2,0.1,0.4,0.3,0.5c0.2,0.1,0.3,0,0.3-0.2c0-0.2-0.2-0.4-0.3-0.5
	C93.6,259.9,93.5,260,93.5,260.2z"/>
<polygon class="st45" points="93.1,261.4 94,260.8 93.6,260 92.6,260.6 "/>
<path class="st45" d="M92.5,260.9c0,0.2,0.2,0.4,0.3,0.5c0.2,0.1,0.3,0,0.3-0.2c0-0.2-0.1-0.4-0.3-0.5
	C92.6,260.6,92.5,260.6,92.5,260.9z"/>
<rect x="92.5" y="260.8" transform="matrix(0.9986 -5.251025e-02 5.251025e-02 0.9986 -13.5986 5.2362)" class="st45" width="0.6" height="1.2"/>
<path class="st45" d="M92.6,261.9c-0.1,0.1-0.1,0.2,0,0.2c0.1,0.1,0.3,0.1,0.4,0c0.1-0.1,0.1-0.2,0-0.2
	C92.9,261.8,92.8,261.8,92.6,261.9z"/>
<polygon class="st44" points="90.2,244.5 89.5,252.6 92.4,256.7 92.8,249.8 "/>
<path class="st44" d="M92.5,241.1c1.3,0.8,1.8,1.2,1.9,3.7l-0.3,6.7l1.5,6.3c-0.1,0.7-1.7,1.1-2.2,0.7c-1.1-1.9-1.9-3.9-2.6-5.9
	l-0.6-7.4C90,242.5,89.9,240.7,92.5,241.1z"/>
<path class="st55" d="M53.6,199.9c0.2-0.4,0.4-0.8,0.7-1.1c0.3-0.3,1.4-0.9,1.8-0.5s-0.6,1.4-0.6,1.4s-0.4,1.2-0.6,1.2
	S53.6,199.9,53.6,199.9z"/>
<path class="st55" d="M55.8,199.5c0.1,0.1-0.4,0.6-0.7,0.7s-0.3-0.1-0.4-0.2s0.2-0.3,0.5-0.5S55.8,199.4,55.8,199.5z"/>
<path class="st2" d="M49.8,228.5c0.4-0.2,0.9-0.3,1.3-0.2c0.3,0.1,0.4,0.3,0.4,0.6c0,0.1,0,0.1-0.1,0.1c0,0-0.9,1.2-1.2,1.6
	s-0.5,1-0.8,1.4s-1,0.2-1.2-0.1s0.1-1.2,0-2.5C48.7,229,49.2,228.7,49.8,228.5z"/>
<path class="st56" d="M47.5,209.8c-0.4,4.3,0.6,8.1-0.2,11c-1,3.8,0.5,6.2,0.8,8.6c0.1,1,2,0.8,1.8-0.2c-0.5-2.7,0-4,0-7.7
	c-0.3-0.6,1.8-4.7,2.8-8.8C52.7,211.9,47.8,209.5,47.5,209.8z"/>
<path class="st2" d="M55.1,229.3c1.4,0.3,2.5,0.1,2.8,0.4s0.4,1.1-0.5,1.4c-1.6,0.4-3.3,0.5-5,0.4c-0.4-0.2-0.2-1.6-0.2-1.6
	C53.1,229.6,54.1,229.4,55.1,229.3z"/>
<path class="st2" d="M55.5,208.5c0.4,2.5-0.1,11.3-0.4,12.6c-1.4,5.4,0,8.2,0,8.2c-0.7,0.9-1.9,1.2-2.9,0.7c0-3.2-1.3-5,0-8.6
	c0.1-0.5-1.1-8.1-1.1-8.1s-3.6-1.1-3.6-3.1c0.2-1.3,0.7-2.5,1.4-3.6l2.7,1.2C52.8,208.2,54.2,208.4,55.5,208.5z"/>
<path class="st57" d="M55.4,207.1l0.1,1.4c0,0-2.3,1.9-6.7-2l0.3-0.8L55.4,207.1z"/>
<path class="st58" d="M46.7,196.8c1.1-0.5,1.8,0.7,2.1,1.8c0.3,0.9,0.6,1.7,1,2.5c0.3,0.6-1.4,1.8-1.8,1.2s-1-1.8-1.7-2.8
	S45.9,197.2,46.7,196.8z"/>
<path class="st59" d="M55,203c0.6-0.3,0.9-0.9,0.8-1.5c-0.2-1.3-3.1-2.3-3.1-2.3l-0.7-1.6l-4.8-0.6l-0.2,0.1c0,0-0.7,0.5-0.6,2.4
	s2.8,6.3,2.8,6.3s4.6,3.8,6.2,1.4C55.2,205.7,55.1,204.4,55,203z"/>
<path class="st60" d="M51.3,190.3c1.1-0.2,2.2,0.4,2.5,1.5c0.3,0.7-0.6,5.1-0.5,7.5c-0.6,0.1-1.6-0.8-1.6-0.8
	c-0.4,0.1-0.6,0.6-0.4,0.9c-1.1,0-2.2-0.5-3-1.4c0,0-0.2,0.2,0,0.7c-2.1-0.6-1.8-2.2-1.8-2.2S47.4,189.4,51.3,190.3z"/>
<path class="st61" d="M49.5,191.1c0.6-0.3,1.2-0.6,1.8-0.8C51.3,190.3,49.9,190.4,49.5,191.1z"/>
<path class="st55" d="M55.7,204.7l0.2,0.2c0.5-0.6,0.9-1.2,1.3-1.9c-0.1-0.3-0.2-0.5-0.3-0.8c-0.1-0.3-0.1-1,0.1-1s0.3,0.6,0.5,0.6
	s0.5-0.7,0.5-0.7s-0.2-0.8,0-0.8s0.9,0.9,1.1,1.5s-0.8,1.8-0.8,1.8c-0.3,1.3-0.7,2.5-1.3,3.7c-0.4,0.4-1,0.6-1.5,0.5
	c-0.4-0.1-1.3-2-1.3-2l0.3-1l0.9-0.3L55.7,204.7z"/>
<path class="st58" d="M52.7,200.2c1.1-0.5,1.8,0.7,2.1,1.8c0.3,0.9,0.6,1.7,1,2.5c0.3,0.6-1.4,1.8-1.8,1.2s-1-1.8-1.7-2.8
	S51.9,200.6,52.7,200.2z"/>
<path class="st55" d="M260.7,231.8c0,0-0.6,0-1,0c-0.7,0.6-6.2,1.2-6.2,1.2s-0.4,1-0.8,1.2c-0.4,0.2-0.8,0.2-1.1,0.1
	c-0.3-0.1-0.5-0.5-0.5-0.5s-1.8,0.6-1.8,0.3s1.2-0.8,1.2-0.8s-0.1-0.7,0.1-0.9c0.5-0.5,1.7-0.4,2-0.5c2.1-0.9,3.8-2.3,6.5-2.2
	c0.3,0,0.6-0.1,0.9-0.3L260.7,231.8z"/>
<path class="st62" d="M265.3,228c-1.3-0.4-3.9,1.1-5.6,1.4c0.4,0.8,0.7,1.8,0.8,2.7c0,0,2.7-0.8,4.2-0.2
	C265,232.3,265.5,228.4,265.3,228z"/>
<path class="st63" d="M265.4,227.2c0,0.3,0.1,0.6,0.1,0.9l-0.4,0.8l0.6,1.9l1.4,0.5l1.5-0.3l0.6-1.2l-0.5-0.9l-0.6-1.1
	C268.2,227.7,265.3,226.6,265.4,227.2z"/>
<path class="st55" d="M274.6,236.4c0,0,0.7,1.1,0.8,1.4c0.1,0.4,0.1,0.9,0,1.4l-2,0.8l-0.5-1.5l-0.5-1.2
	C272.3,236.6,274.6,236.4,274.6,236.4z"/>
<path class="st64" d="M273.1,238c0.6-0.2,1.2-0.3,1.9-0.3C275,237.7,273.3,237.1,273.1,238z"/>
<path class="st55" d="M269.3,255.3c1,2.1,1.4,4.4,1.3,6.7c0.1,0.5,0.3,0.5,0.3,0.5h0.7l1.1-0.5c0,0,0.3,0.2,0.1-0.6
	c-0.4-2.1,0.4-4.9-0.3-6.4c-0.8-0.8-0.6-0.4-0.6-0.4l-2,0.1C269.6,254.9,269.4,255.1,269.3,255.3z"/>
<path class="st55" d="M265.5,254.3c1.2,2.4-0.1,5.5,0.6,7.7l-0.3,0.7l-1.3,0.2c0,0-0.7-0.1-0.9-0.5c0.4-1.6-1.5-8.2-1.2-8.7
	S265.3,253.9,265.5,254.3z"/>
<path class="st65" d="M263,241.6c0,0-1.3,9.5-1.3,11.9c1.3,1.1,3,1.4,4.5,0.8c0.3-2.8,0.9-5.6,1.8-8.3
	C268.5,245.5,263,241.6,263,241.6z"/>
<path class="st66" d="M270.6,242.6c1.5,1.5,1.7,9.3,2.1,11.9c-0.6,1.3-3.9,1.5-4.5,0.3c-0.4-2.6-1-5.2-1.8-7.7
	c-2.1-1-3.4-3.1-3.5-5.4c-0.1-0.5,1.8-0.8,1.8-0.8h2.8C268.6,241.4,269.6,242,270.6,242.6z"/>
<path class="st67" d="M271.8,235c-1,3-1,6.1,0,9.1c-3.7,3.3-9.3-1.5-9.3-1.5s0.4-7.8,0.6-10.6c0-1.6,0.8-3.1,2.1-3.9
	c0.1,0.1,0.2,0.1,0.2,0.1c0,0-0.2,1.8,0.8,2.3c0.8,0.3,1.7,0.2,2.4-0.4c0.3-0.4,0.3-0.9,0.1-1.3c0.9,1.1,1.5,1.2,2.9,2.2
	C271.8,232.4,271.9,233.7,271.8,235z"/>
<path class="st55" d="M270.1,223.9c0.1,0.6,0.1,1.2,0,1.8c0.1,1.4-0.6,2.8-1.8,3.5c-0.4,0.2-0.9,0.2-1.4,0c-0.9-0.5-1.4-1.4-1.6-2.4
	c0,0-1-0.5-0.5-2l0.8-1.4l2.5-0.7l1.2,0.3C269.6,223.3,269.8,223.6,270.1,223.9z"/>
<path class="st55" d="M271.1,241.6c2.4-1.3,4.8-3.6,6.1-3.8c0.3,0,0.9,0.9,0.9,0.9s0.4,1.7-0.3,2.3s-2.6,1.2-5.8,2.2
	c-0.3,0.4-0.7,0.6-1.1,0.8c-0.3-0.7-0.5-1.4-0.5-2.2C270.6,241.7,270.9,241.7,271.1,241.6z"/>
<path class="st64" d="M275.1,238.9l-0.7,3.5c0,0,1.2-0.3,1.4-1.1C275.8,240.5,275.6,239.6,275.1,238.9z"/>
<path class="st68" d="M280.2,228.7c-2.6,0-2.6,3-2.6,3s-0.6,4.9-0.8,6c0.9,0.6,2.1,0.9,3.2,0.8C279.9,238.5,280.5,228.7,280.2,228.7
	z"/>
<path class="st63" d="M285.5,227.9c0,0.8,0.2,1.5,0.6,2.2l0.1,1.5l-2,1.3l-2.1,0.4l-1.7-0.3c0,0-0.9-1.6-0.7-1.8s2-2.8,2-2.8
	l3.1-0.6C284.8,227.8,285.6,226.9,285.5,227.9z"/>
<path class="st69" d="M279.4,267.7c-0.5,0.7-3,1.4-3.3,1.9c-0.2,0.3-0.2,1.1,0,1.2c1.6,0.6,4.7-0.7,4.7-0.7c0.5,0.1,2.3,0.1,2.7-0.4
	s0-2.3,0-2.3S279.8,267.8,279.4,267.7z"/>
<path class="st70" d="M277.8,247.7c-0.4,3.8,1.4,10.1,1.4,10.1s0.6,6.6,0,10c0.4,0.6,3.5,1.4,4.6-0.4c0.3-3.2,0.2-6.5-0.5-9.6
	c-0.2-0.9,0-8.8,0-8.8S278.2,246.8,277.8,247.7z"/>
<path class="st69" d="M288.2,272.3c-0.5,1-1.1,1.9-1.8,2.8c-0.4,0.5-0.6,1.1-0.3,1.4c1,0.9,2.5,0.9,3.5-0.1c0,0,0.1-0.1,0.1-0.1
	c0.7-0.9,1.3-1.9,1.7-3c0-0.5,0-0.9-0.1-1.4C291.3,271.9,288.6,272.1,288.2,272.3z"/>
<path class="st71" d="M287.7,248c1.2,3.6,1.9,7.2,2.3,10.9c1,2.4,2,5.7,2,13.1c-1.5,2.2-4.1,1.1-4.3,0.3c-0.1-4.1-0.8-8.3-2.1-12.2
	c-1-3.3-4.5-9.4-4.8-10.3s1.3-3.3,1.3-3.3h4.5L287.7,248z"/>
<path class="st72" d="M281.3,232.8c0,0-1.2,15.9-1.6,16.2c-0.4,0.9-0.6,1.8-0.9,2.7c-0.9-1.4-1.4-3-1.6-4.7c0.6-5.6-0.2-9.6,0-12.2
	c0.2-3.2,3.6-6,3.6-5.4C280.7,230.6,280.8,231.8,281.3,232.8z"/>
<path class="st72" d="M281.3,232.8c1.9-0.4,3.6-1.5,4.8-2.9l3.5,3.3L289,238l-1.8,5.6c0.7,2.1,1.1,4.4,1.3,6.6
	c-0.8-1.3-1.1-1.9-2.5-1.8s-2.7,2.9-6.4,3.7C279.9,245.9,279.2,237.3,281.3,232.8z"/>
<path class="st73" d="M281.3,232.8c-2.6,4.4-1.6,16.1-1.6,16.1S279.4,239.5,281.3,232.8z"/>
<path class="st55" d="M280.9,223.3c-0.7,0.7-1.2,1.6-1.3,2.6c0,0.2,0.2,0.4,0.3,0.5c-0.1,0.1-0.1,0.2-0.2,0.3c0,1.2,0.1,2.3,0.3,3.5
	c0,0,0.6,0.6,1,0.6c2.3,0.2,3.7-2.4,3.7-2.4c0.5-0.2,0.9-0.6,1.1-1.1c0.1-0.5,0.3-1.3,0.3-1.3l-0.4-1.5l-1.2-1.7h-2.1
	C282.5,222.9,281.1,223.2,280.9,223.3z"/>
<path class="st74" d="M285.9,227.3c0,0,0.2-1-0.3-0.9s-1.3,1.1-1.3,1.1c-0.3-0.6-0.4-1.2-0.4-1.8c0-0.5,1-1.4,0.5-1.8
	c-0.8-0.8-2.4,1.1-3.6,0.1c-0.6-0.5,1.9-3.7,4.4-1.5C286.7,223.7,287,225.8,285.9,227.3z"/>
<path class="st57" d="M277.8,232.2l-1.7-2.5l0.2-0.1c0.1-0.1,0.2-0.1,0.3,0l1.2,0.7c0.2,0.1,0.3,0.4,0.4,0.6v0.9
	c0,0.1,0,0.2-0.1,0.2l0,0L277.8,232.2z"/>
<path class="st69" d="M276,230.8c0,0.3,0.2,0.5,0.4,0.6l1.2,0.7c0.2,0.1,0.4,0,0.4-0.2V231c0-0.3-0.1-0.5-0.4-0.6l-1.2-0.7
	c-0.1-0.1-0.2-0.1-0.3,0c0,0.1-0.1,0.1,0,0.2V230.8z"/>
<path class="st75" d="M277.9,234.2l-1.2-3l3.6-2.1c0.1-0.1,0.3-0.1,0.4,0l0.4,0.2c0.3,0.2,0.5,0.6,0.5,0.9v1.4c0,0.1,0,0.3-0.2,0.4
	l0,0L277.9,234.2z"/>
<path class="st57" d="M276.6,233c0,0.4,0.2,0.7,0.5,0.9l0.4,0.2c0.3,0.2,0.5,0,0.5-0.3v-1.4c0-0.4-0.2-0.7-0.5-0.9l-0.4-0.2
	c-0.3-0.2-0.5,0-0.5,0.3V233z"/>
<path class="st75" d="M276.8,232.2l-0.2-0.3l0.3-0.2c0.1-0.1,0.3-0.1,0.4,0c0.3,0.2,0.5,0.6,0.5,0.9c0,0.1,0,0.3-0.1,0.4l0,0
	l-0.3,0.2l-0.1-0.2C277,232.8,276.8,232.5,276.8,232.2z"/>
<path class="st69" d="M276.5,232.3c0,0.4,0.2,0.8,0.5,1c0.3,0.2,0.5,0,0.5-0.3c0-0.4-0.2-0.8-0.5-1
	C276.7,231.8,276.5,231.9,276.5,232.3z"/>
<path class="st57" d="M276.6,232.3c0,0.3,0.2,0.6,0.4,0.7c0.1,0.1,0.3,0.1,0.4,0c-0.1,0-0.1,0-0.2-0.1c-0.2-0.2-0.4-0.4-0.4-0.7
	c0-0.1,0-0.1,0.1-0.2C276.7,232.1,276.6,232.2,276.6,232.3z"/>
<path class="st76" d="M276.8,232.3c0,0.3,0.2,0.5,0.4,0.7c0.1,0,0.1,0.1,0.2,0.1c0-0.1,0.1-0.1,0.1-0.2c0-0.3-0.2-0.6-0.4-0.7
	c-0.1,0-0.1,0-0.2,0C276.8,232.1,276.8,232.2,276.8,232.3z"/>
<path class="st77" d="M283.3,237.2c0,0-1.2,0.9-0.2,2.6c1.1,1.9,2.5,1.1,2.5,1.1l0.9-1.5l-0.8-2.6H284L283.3,237.2z"/>
<path class="st55" d="M283.8,237.1c0,0-0.7,0.8-1.5,1.5c-0.7-1.5-1.3-3-1.8-4.6c0.2-0.8,0.4-1.6,0.6-2.4c0,0-0.1-1.4-0.2-1.6
	c-0.2-0.1-0.9-1-1.6-1s-1.3,1-1.4,1.4c0.1,0.6,0.3,1.1,0.5,1.6c-0.2,0.5-0.3,1.1-0.2,1.7c0.1,0.3,0.2,0.6,0.4,0.8
	c0.4,1.9,0.6,6.4,1.1,7.2c0.8,1.2,1.9,1.7,2.7,1.4c0.4-0.1,3.5-3.1,3.5-3.1l-0.1-2.4L283.8,237.1z"/>
<path class="st64" d="M282.4,238.6c0.7,0.6,1.2,1.4,1.4,2.3C283.8,240.9,284.1,239,282.4,238.6z"/>
<path class="st68" d="M289.8,233.3c-1.5-1-6.5,3.9-6.5,3.9c2.4,0.5,2.3,3.8,2.3,3.8c1.1-1,2.2-2,3.4-2.9
	C290.3,237.1,291.5,234.4,289.8,233.3z"/>
<path class="st68" d="M282.1,232.2c-0.2,0.3-0.5,0.5-0.8,0.6c0.6,0,1.2-0.1,1.7-0.4l-0.2-0.5L282.1,232.2z"/>
<path class="st77" d="M286.6,230.1c-0.3-0.2-0.6-0.5-0.8-0.9c-1.1,1.2-2.3,2.2-3.7,3c0.6,0.1,1.1,0.4,1.4,1
	C284.7,232.4,285.7,231.3,286.6,230.1z"/>
<path class="st64" d="M273.8,242.6c-2,0.2-1.2-1.9-1.2-1.9C273,241.3,273.5,242,273.8,242.6z"/>
<path class="st55" d="M273.6,237.8c0.8,0,1.4,0.5,1.5,1.3c0.2,0.8,0.3,1.6,0.2,2.4c0,0.5-1.1,1.2-1.6,1.2c-0.7,0-1.1-0.5-1.2-1.6
	c0-0.8,0.1-1.6,0.2-2.4C272.8,238.6,272.9,237.8,273.6,237.8z"/>
<path class="st78" d="M269.3,244.7c0-0.1,0.1-0.3,0.3-0.3c0.4-0.2,1-0.2,1.4,0c0.1,0.1,0.2,0.2,0.3,0.3l0,0v0.1
	c0,0.2-0.1,0.3-0.3,0.4c-0.4,0.2-1,0.2-1.4,0C269.4,245.1,269.3,245,269.3,244.7L269.3,244.7L269.3,244.7z"/>
<path class="st79" d="M269.5,245.1c0.4,0.2,1,0.2,1.4,0c0.2-0.1,0.3-0.3,0.3-0.5c0-0.1-0.1-0.2-0.3-0.3c-0.4-0.2-1-0.2-1.4,0
	c-0.2,0.1-0.3,0.3-0.3,0.5C269.3,245,269.4,245.1,269.5,245.1z"/>
<path class="st2" d="M271,245.1c0.2-0.1,0.3-0.2,0.3-0.4c0-0.2-0.1-0.3-0.3-0.4C271,244.3,271.6,244.6,271,245.1z"/>
<path class="st72" d="M271.4,242v2.6c0,0.2-0.1,0.4-0.3,0.5c-0.5,0.3-1.2,0.3-1.7,0c-0.2-0.1-0.3-0.3-0.4-0.5V242L271.4,242z"/>
<path class="st2" d="M270.1,242.6c0.2,0.8-0.5,2.1,0,2.6c-0.2,0-0.3-0.1-0.5-0.1c-0.3-0.6,0.3-1.6,0.3-2.6L270.1,242.6z"/>
<path class="st80" d="M271.2,244c0,0.3,0,0.6,0,0.9C271.2,244.6,271.2,244.3,271.2,244c0-0.5,0-1.6,0-1.6S271.2,243.5,271.2,244z"/>
<path class="st77" d="M269.1,241.9c0.1-0.2,0.2-0.4,0.4-0.6c0.5-0.3,1.1-0.3,1.5,0c0.2,0.1,0.3,0.3,0.4,0.6l0,0
	c0,0.2-0.1,0.5-0.3,0.6c-0.5,0.3-1.2,0.3-1.7,0C269.2,242.4,269.1,242.2,269.1,241.9L269.1,241.9z"/>
<path class="st2" d="M271,241.4c0.2,0.1,0.3,0.3,0.4,0.6l0,0c0,0.2-0.1,0.5-0.3,0.6C271.8,242,271.2,241.6,271,241.4z"/>
<path class="st78" d="M269.3,241.6c0-0.1,0.1-0.2,0.3-0.3c0.4-0.2,1-0.2,1.4,0c0.1,0.1,0.2,0.2,0.3,0.3l0,0v0.1
	c0,0.2-0.1,0.3-0.3,0.4c-0.4,0.2-1,0.2-1.4,0c-0.2-0.1-0.3-0.2-0.3-0.4L269.3,241.6L269.3,241.6z"/>
<path class="st56" d="M269.5,242c0.4,0.2,1,0.2,1.4,0c0.2-0.1,0.4-0.3,0.3-0.5c0-0.1-0.1-0.2-0.3-0.3c-0.4-0.2-1-0.2-1.4,0
	c-0.2,0.1-0.3,0.3-0.3,0.6C269.3,241.9,269.4,242,269.5,242z"/>
<path class="st2" d="M271,242c0.2-0.1,0.3-0.2,0.3-0.4c0-0.2-0.1-0.3-0.3-0.4C271,241.2,271.6,241.6,271,242z"/>
<path class="st75" d="M269.4,241.6c0-0.1,0.1-0.3,0.3-0.3c0.4-0.2,0.9-0.2,1.3,0c0.1,0.1,0.2,0.2,0.3,0.3c0-0.1-0.1-0.3-0.3-0.4
	c-0.4-0.2-0.9-0.2-1.3,0C269.4,241.4,269.3,241.5,269.4,241.6z"/>
<path class="st78" d="M269.4,241.6c0,0.1,0.1,0.3,0.3,0.3c0.4,0.2,0.9,0.2,1.3,0c0.1-0.1,0.2-0.2,0.3-0.3c0-0.1-0.1-0.3-0.3-0.3
	c-0.4-0.2-0.9-0.2-1.3,0C269.5,241.4,269.4,241.5,269.4,241.6z"/>
<path class="st75" d="M269.7,241.5L269.7,241.5l0.2-0.1c0.1,0,0.2,0,0.2,0l0.3,0.2l0,0l0,0c0,0,0,0,0,0.1h0c-0.1,0-0.1,0-0.2,0
	L269.7,241.5C269.6,241.5,269.6,241.4,269.7,241.5L269.7,241.5L269.7,241.5z"/>
<path class="st56" d="M270.3,241.7L270.3,241.7c0.1,0,0.1-0.1,0-0.1l-0.3-0.2c-0.1,0-0.2,0-0.2,0l-0.2,0.1c-0.1,0,0,0.1,0,0.1
	l0.4,0.2C270.2,241.8,270.3,241.8,270.3,241.7z"/>
<path class="st75" d="M270.2,241.6h0.1l0,0C270.3,241.6,270.3,241.6,270.2,241.6C270.2,241.6,270.2,241.6,270.2,241.6z"/>
<path class="st81" d="M270.2,241.6L270.2,241.6h0.1l0,0H270.2L270.2,241.6z"/>
<path class="st75" d="M269.8,241.5C269.8,241.5,269.8,241.5,269.8,241.5L269.8,241.5c0.1-0.1,0.2-0.1,0.2-0.1l0,0l0,0c0,0,0,0,0-0.1
	l0,0c-0.1,0-0.2,0-0.2,0l0,0C269.8,241.4,269.8,241.5,269.8,241.5z"/>
<path class="st81" d="M269.8,241.5C269.9,241.5,269.9,241.5,269.8,241.5L269.8,241.5c0.1,0,0.2,0,0.2,0l0,0h0l0,0l0,0l0,0
	C270.1,241.4,270,241.4,269.8,241.5L269.8,241.5C269.9,241.5,269.9,241.5,269.8,241.5z"/>
<path class="st55" d="M271.1,243c0,0.4,0.2,0.8,0.4,0.8s0.4-0.4,0.4-0.8s-0.1-0.8-0.4-0.8S271.1,242.5,271.1,243z"/>
<path class="st55" d="M269.1,242.3v0.4c0.2,0.1,0.4,0.2,0.5,0.3c0.2,0.2,0.3,0.5,0.2,0.8c-0.1,0.3-0.3,0.9-0.5,1s-0.5-0.2-0.6-0.4
	c-0.2-0.5-0.2-1.1-0.1-1.7C268.6,242.6,268.8,242.4,269.1,242.3z"/>
<path class="st74" d="M270.3,223.3c0,1.3-2.1,1.1-2.1,1.1s0.6-0.6,0.2-0.9c-0.5,0.4-1,0.6-1.6,0.6c0,0,0.1-0.7-0.2-0.7
	c-0.5,0.7-0.8,0.8-0.9,1s0.1,0.9-0.1,1.4c-0.1-0.4-0.3-0.8-0.7-1c0,0-0.4-3.1,1.1-3C269.3,220.3,270.3,222.6,270.3,223.3z"/>
<path class="st64" d="M265.9,221.8c0,0,0.9,0.2,0.7,0.6S265.9,221.8,265.9,221.8z"/>
<path class="st62" d="M271.1,231c1.7-0.5,3.5,5,3.7,5.4c-0.7,0.7-1.6,1.1-2.5,1.1c-0.4-1.2-1-2.3-1.6-3.4
	C269.9,232.9,270.7,231,271.1,231z"/>
<path class="st72" d="M266.1,262c-0.4,0.8-2,0.6-2.5,0.4c-1.2,1.1-3,1.5-3.2,1.9s-0.2,1.2,0,1.3c0.7,0.4,1.6,0.4,2.4,0
	c0.5-0.2,1-0.5,1.4-0.9c0,0,2-0.1,2.2-0.6C266.4,263.4,266.4,262.7,266.1,262z"/>
<path class="st72" d="M272.7,261.4c0,0-0.3,1.1-2.1,0.6c-0.3,1-0.9,1.9-1.6,2.6c-0.3,0.3,0,1,0.2,1.2c2.3,1,3-0.6,3-0.6
	s0.8-1.7,1-2.2C273.2,262.4,273,261.8,272.7,261.4z"/>
<path class="st78" d="M278.8,232.5c-0.2,0-0.4,0-0.7,0c0,0.3,0,0.6,0,0.8c0.2,0,0.4,0,0.6,0L278.8,232.5z"/>
<path class="st69" d="M281.3,231.8c-0.2-0.2-0.9,0.4-2.5,0.6c-0.1,0-0.3,0.9-0.2,1.1c0.8,0.1,1.6-0.1,2.3-0.5
	C281.4,232.7,281.6,232.2,281.3,231.8z"/>
<path class="st63" d="M299.5,165.7c0.2,0.8,0.3,1.6,0.2,2.4l4.1-1.1l-0.4-2.2C303.4,164.8,299.4,165.6,299.5,165.7z"/>
<path d="M301.6,202.2c0,0-1.3,0.1-1.3,0.9c0,0.3,0.7,0.9,1.4,1.7c0.9,1.1,1.4,2.1,2.3,2.1c1.4,0,0.6-3,0.6-3L301.6,202.2z"/>
<path class="st82" d="M304,184.9l-5.5,1.7c0,0,2.3,7,2.4,9.1s0.5,7.3,0.5,7.6c0,1.9,3.6,1.1,3.6,0s0.7-5.9-1.1-9.8
	C303.9,192.7,304,184.9,304,184.9z"/>
<path d="M299.9,190.9c0.2-1.1,0.5-2.1,1.1-3c1.1-0.6,2.2-1.5,3-2.5l-4.1,1.7L299.9,190.9z"/>
<path d="M295.3,207.3c0,0-3.8,0.8-3.8,1.4c0,1.3,1.5,1.6,2,1.5s4.3-0.2,5.3-0.4s0.5-2.2,0.5-2.2L295.3,207.3z"/>
<path class="st82" d="M295.1,187.1c0,0,0.3,9.6,0.5,11.2c0.2,1.4,0.7,7.8-0.6,9c1.8,1.3,4.5,0.7,4.5,0.7s1-8.1-0.2-10.7
	c0.2-2.9,0.9-10.7,0.9-10.7L295.1,187.1z"/>
<path d="M295,187.6c1.4,1.4,3.7,1.5,5.1,0.1C300.4,187.3,295,187.6,295,187.6z"/>
<path class="st82" d="M304,167c0,0-2.9,1.2-4.5,0.8c0,0-4.1,2.4-4.5,4.5s-1,14.6-1,14.6c1.1,1,2.5,1.5,4,1.4
	c2.5-0.2,6.3-2.7,6.6-3.6s-1.3-4.1-1.3-7.2c0-1.9,2.8-4.9,2.8-7.9C306.5,167.6,304,167,304,167z"/>
<path class="st55" d="M298.1,162.1c-0.1,1.2-0.1,2.4,0,3.6c0.6,0.6,2.5,0,2.5,0l0.3-3.5l-2-1.8C298.5,160.8,298.2,161.4,298.1,162.1
	z"/>
<path class="st83" d="M290.5,187.5c-0.5,0.4-0.8,0.9-0.8,1.6v5.9l7.5,4.4l1.3-7.6l-7.4-4.2C290.9,187.3,290.6,187.3,290.5,187.5z"/>
<path class="st84" d="M298,191.8c-0.5,0.4-0.8,0.9-0.8,1.6v5.9l1.7-1v-5.9C298.8,191.8,298.5,191.5,298,191.8z"/>
<polygon class="st84" points="289.6,192 297.2,196.3 297.2,196.1 289.6,191.7 "/>
<polygon class="st85" points="290.9,192.3 291.4,193.6 291.6,193.5 291.6,192.6 291,192.2 "/>
<polygon class="st86" points="290.9,193.3 291.4,193.6 291.4,192.7 290.9,192.3 "/>
<polygon class="st85" points="295.1,194.8 295.6,196.1 295.9,195.9 295.9,195 295.3,194.6 "/>
<polygon class="st86" points="295.1,195.7 295.6,196.1 295.6,195.1 295.1,194.8 "/>
<polygon class="st87" points="292.9,187.8 293.1,188 293.4,187.8 293.1,187.7 "/>
<polygon class="st88" points="293.1,189.2 293.4,189 293.4,187.8 293.1,188 "/>
<polygon class="st89" points="292.9,189 293.1,189.2 293.1,188 292.9,187.8 "/>
<path class="st84" d="M293.2,187.8c-0.2,0.1-0.3,0.3-0.3,0.5c0,0.1,0,0.1,0.1,0.2l0.1,0.1c-0.1,0-0.1-0.1-0.1-0.2
	C293,188.1,293.1,187.9,293.2,187.8c0.1,0,0.2,0,0.3,0h-0.1C293.4,187.7,293.3,187.7,293.2,187.8z"/>
<path class="st90" d="M293.3,187.8c-0.2,0.1-0.3,0.3-0.3,0.5c0,0.1,0.1,0.2,0.2,0.2c0,0,0.1,0,0.1,0c0.2-0.1,0.3-0.3,0.3-0.5
	C293.6,187.8,293.4,187.7,293.3,187.8z"/>
<path class="st83" d="M295.5,189l-2.1-1.2c-0.1,0-0.1,0-0.2,0c-0.2,0.1-0.3,0.3-0.3,0.5c0,0.1,0,0.1,0.1,0.2l2.1,1.2l0,0
	c0,0,0.1,0,0.1,0c0.2-0.1,0.3-0.3,0.3-0.5C295.6,189.1,295.6,189.1,295.5,189L295.5,189z"/>
<path class="st84" d="M295.3,189c-0.2,0.1-0.3,0.3-0.3,0.5c0,0.1,0,0.1,0.1,0.2h0.1c-0.1,0-0.1-0.1-0.1-0.2
	C295.1,189.3,295.2,189.1,295.3,189c0.1,0,0.2,0,0.3,0h-0.1C295.4,189,295.3,189,295.3,189z"/>
<path class="st84" d="M295.4,189c-0.2,0.1-0.3,0.3-0.3,0.5c0,0.2,0.1,0.2,0.3,0.2c0.2-0.1,0.3-0.3,0.3-0.5
	C295.6,189,295.5,188.9,295.4,189z"/>
<polygon class="st87" points="295.2,189.2 295.5,189.4 295.7,189.2 295.5,189.1 "/>
<polygon class="st88" points="295.5,190.5 295.7,190.4 295.7,189.2 295.5,189.4 "/>
<polygon class="st89" points="295.2,190.4 295.5,190.5 295.5,189.4 295.2,189.2 "/>
<path class="st55" d="M294.3,186.6c0,0-1.6,1.3-1.5,1.9c0,0.4,0.2,0.8,0.5,1c0.2,0.2,1.5,0.6,1.9,0.2c-0.4-0.2-0.5-0.3-0.4-0.6
	s0.2-0.2,0.3-0.3c0.5-0.4,0.8-1,0.9-1.6C296,186.9,294.3,186.6,294.3,186.6z"/>
<path class="st2" d="M294,186.6c0.5,0.6,1.3,0.8,2.1,0.7l0.4-1.2l-2.1-0.7C294.2,185.8,294.1,186.2,294,186.6z"/>
<path class="st91" d="M299.2,170.4c-2.9-0.8-3.1,2.4-3.1,2.4l-0.5,6.8c0,0-1.5,5-1.7,5.4c0.3,1.8,3,1.8,3.1,1.2s1.5-4.7,1.9-5.7
	s0.6-6.4,0.9-7.1S300.7,170.8,299.2,170.4z"/>
<path class="st2" d="M298.9,167.4l-0.3,1c0,0,5.4-0.6,5.4-1.4c0-0.4,0-0.4-0.1-0.6C302.2,167,300.6,167.3,298.9,167.4z"/>
<path class="st83" d="M299.8,159.2c-0.5-0.1-0.6,0.2-0.9,0.7s0.2,0.7,0,1.1c-0.2,0.4-0.2,0.8-0.1,1.2c-0.1,0.5,0,1,0.2,1.5
	c0.9,0.1,0.9,1.3,0.9,1.3v0.6c0.1,2,2.7,1.7,2.7,1.7s2.5-0.4,2.1-5.1C304.4,159.4,300.6,157.5,299.8,159.2z"/>
<path class="st60" d="M300.1,159.2c1.3,0.2,2.5,0.9,3.3,2.1C303.4,161.3,302.9,159.3,300.1,159.2z"/>
<polygon class="st92" points="204.8,112.6 243,120.6 204.8,155.4 "/>
<polygon class="st92" points="120.5,103.9 155.1,135.2 120.5,146.7 "/>
</svg>
