<svg xmlns="http://www.w3.org/2000/svg" xmlns:xlink="http://www.w3.org/1999/xlink" width="171.214" height="209.533" viewBox="0 0 171.214 209.533"><defs><linearGradient id="a" x1="-197.165" y1="0.266" x2="-196.511" y2="0.809" gradientUnits="objectBoundingBox"><stop offset="0" stop-color="#fff"/><stop offset="1"/></linearGradient><linearGradient id="b" x1="-182.597" y1="0.254" x2="-181.955" y2="0.791" xlink:href="#a"/><linearGradient id="c" y1="0.5" x2="1" y2="0.5" gradientUnits="objectBoundingBox"><stop offset="0.005" stop-color="#ebeaf0"/><stop offset="0.989" stop-color="#e5e4ec"/></linearGradient><linearGradient id="d" x1="0" y1="0.5" x2="1" y2="0.5" xlink:href="#c"/><linearGradient id="e" x1="0" y1="0.5" x2="1" y2="0.5" xlink:href="#c"/><linearGradient id="f" x1="-0.151" y1="-1.984" x2="0.859" y2="-1.984" xlink:href="#c"/></defs><g transform="translate(-14020.606 -932.899)"><g opacity="0.8"><path d="M14103.986,1031.043l-47.084,27.184c-2.476,1.429-2.476,3.746,0,5.174l47.084,27.184a9.9,9.9,0,0,0,8.961,0l47.084-27.183c2.475-1.429,2.475-3.746,0-5.174l-47.084-27.185A9.908,9.908,0,0,0,14103.986,1031.043Z" fill="#b4fffa" opacity="0.2"/><path d="M14103.986,1068.21l-47.084,27.184c-2.476,1.428-2.476,3.745,0,5.174l47.084,27.184a9.907,9.907,0,0,0,8.961,0l47.084-27.184c2.475-1.429,2.475-3.746,0-5.174l-47.084-27.184A9.9,9.9,0,0,0,14103.986,1068.21Z" fill="#9bdff5" opacity="0.15" style="mix-blend-mode:multiply;isolation:isolate"/><path d="M14161.89,963.735v61.071a9.908,9.908,0,0,1-4.483,7.761l-44.461,25.662a9.262,9.262,0,0,1-4.485,1.07,9.138,9.138,0,0,1-4.467-1.07l-44.461-25.662a9.907,9.907,0,0,1-4.485-7.761V963.735Z" fill="#f5ffff"/><path d="M14108.46,963.735V1059.3a9.138,9.138,0,0,1-4.467-1.07l-44.461-25.662a9.907,9.907,0,0,1-4.485-7.761V963.735Z" fill="#c2ecfb"/><path d="M14103.986,933.971l-47.084,27.184c-2.476,1.428-2.476,3.745,0,5.174l47.084,27.184a9.908,9.908,0,0,0,8.961,0l47.084-27.184c2.475-1.429,2.475-3.746,0-5.174l-47.084-27.184A9.9,9.9,0,0,0,14103.986,933.971Z" fill="#d9f4ff"/><path d="M14103.986,933.971l-47.084,27.184c-2.476,1.428-2.476,3.745,0,5.174l47.084,27.184a9.908,9.908,0,0,0,8.961,0l47.084-27.184c2.475-1.429,2.475-3.746,0-5.174l-47.084-27.184A9.9,9.9,0,0,0,14103.986,933.971Z" fill="#d9f4ff"/></g><ellipse cx="6.59" cy="2.839" rx="6.59" ry="2.839" transform="matrix(0.968, -0.251, 0.251, 0.968, 14107.073, 1109.386)" fill="#0d0506" opacity="0.1"/><path d="M14109.671,1107.423a6.506,6.506,0,0,0,1.3.134c.206,0,.408-.011.608-.028l-.906,2.408.406,2.051-1.877-.372.4-2Z" fill="#e9b965"/><path d="M14109.8,1086.123c-.024-.245,1.771.005,1.771.005a25.65,25.65,0,0,1-1.519,3.85c-.423.6,1.025.868,1.938,1.869-.192.707-.455,1.392-.646,2.1a.645.645,0,0,0,0,.377c-.012.038-.024.076-.037.114l-.5-1.946s-2.342-.9-2.373-1.386C14108.3,1089,14109.826,1086.367,14109.8,1086.123Z" fill="#e9b965"/><path d="M14114.353,1084.438l-.264-1.415s.589.4.776.172a18.223,18.223,0,0,0,.26-2.995s-.028-1.381-1.14-.933-2.454.2-2.161,1.763.476,3.192.063,3.356S14114.172,1085.635,14114.353,1084.438Z" fill="#fbcd74"/><path d="M14111.02,1111.243s-.071.293-.273.213-.419-.733-.823-.6-.837.893-.837.893l-.159.972s.347-.546.679-.386a8.851,8.851,0,0,1,.952.612s1.606.181,1.534-.259,0-.715-.375-.957S14111.02,1111.243,14111.02,1111.243Z" fill="#221132"/><path d="M14111.831,1112.882a2.782,2.782,0,0,1-1.452.1c-.881-.147-1.452-.263-1.452-.263a.481.481,0,0,1,.525-.414C14109.938,1112.308,14111.671,1112.9,14111.831,1112.882Z" fill="#423432"/><path d="M14117.345,1099.227v4.473l0,1.526-.226,2.688s.594.518.553.755a1.589,1.589,0,0,1-.712.8c-.292.051-1-.168-1.1-.44s-.426-4.04-.426-4.04v-1.481l-1.474-4.7Z" fill="#fbcd74"/><path d="M14111.526,1093.27l-.51.96c-.209.4-.134.208-.148.509l-.357,7.519s-.483,1.645-.623,2.188c-.4,1.583-.961,6.373-.961,6.373.212.446,1.124.928,2.549.278l1.824-7.92.6-5.611.984-4.3Z" fill="#301e62"/><path d="M14117.282,1108.066s.135.54.287.582-.5.9-1.04.671-.712-.259-.708-.377-.124.272,0,.335-.3.64-.055.9a1.562,1.562,0,0,0,1.412.189c.249-.2.095-.3.5-.441s1.539-.681,1.6-1.258,0-1.142-.747-.912A9.787,9.787,0,0,1,14117.282,1108.066Z" fill="#221132"/><path d="M14116.811,1094.014l1.064,14.266c-.373,1.162-1.779,1.892-2.609,1.194l-2.668-14.742-.144-2.911Z" fill="#3b1f78"/><path d="M14111.048,1088.075a8.93,8.93,0,0,1-1.756-.688c-.272-.247,1.02-3.866,1.779-3.717C14111.786,1083.811,14113.047,1083.683,14111.048,1088.075Z" fill="#d42e28"/><path d="M14116.24,1084.288s1.008,3.351.512,4.479a6.962,6.962,0,0,0,.264,4.938c.247.547-.794,1.393-1.851,1.575a15.209,15.209,0,0,1-4.354-.307c-.16.005.4-1.328.482-2.7.095-1.555-1.071-7.559-.445-8.443S14115.4,1083.661,14116.24,1084.288Z" fill="#e95857"/><path d="M14116.715,1086.262a9.2,9.2,0,0,1,.706,2.932c-.09.974.5,1.424.5,3.871s.652,3.367.431,4.339c-.2.888-1.086,2.11-1.187,1.3a9.654,9.654,0,0,1,.134-2.166l-1.089-4.55,0-1.747s-1.053-3.714-1.082-3.932S14116.715,1086.262,14116.715,1086.262Z" fill="#fbcd74"/><path d="M14117.812,1088.327a13.38,13.38,0,0,1-2.408.474c-.416-.068-.96-3.7-.25-4.277C14115.488,1084.254,14117,1082.848,14117.812,1088.327Z" fill="#f2adae"/><path d="M14114.585,1078.287l.808,1.022s-.293-.055-.253.087.4.9.4.9-.294-.224-.3-.108c-.043,1.028-.577.905-.577.905s0-1.2-.415-.639a1.251,1.251,0,0,0-.069,1.236l-.615,1.336-1.116.025a13.994,13.994,0,0,1-1.1-1.506c-.045-.065-.106.405-.106.405l.019-.82-.244.183a10.5,10.5,0,0,1-.371-1.853C14110.88,1078.766,14111.977,1076.684,14114.585,1078.287Z" fill="#573123"/><path d="M14112.149,1078.018s-1.222.823-1.279,1.383a4.4,4.4,0,0,0,.189,1.377l.168-.243a5.524,5.524,0,0,0,.371.975C14111.055,1080.552,14111.862,1078.257,14112.149,1078.018Z" fill="#814e36"/><path d="M14110.87,1086.449a43.959,43.959,0,0,1,.72,5.443c-.132.724-.17,1.489-.266,1.815a6.041,6.041,0,0,0,1.913-2.4C14113.524,1090.339,14110.87,1086.449,14110.87,1086.449Z" fill="#e3534e"/><path d="M14114.179,1081.686a3.424,3.424,0,0,1-.846.9c-.383.2-1.983-1.045-1.983-1.045a7.727,7.727,0,0,0,1.1,1.506l1.116-.025Z" fill="#45251c"/><path d="M14136.975,1127.068a4.9,4.9,0,0,0,2.242-1.27l-4.6-2.058-3.389,2.119,4.639,2.455C14136.694,1128.625,14136.975,1127.068,14136.975,1127.068Z" opacity="0.25" fill="url(#a)" style="mix-blend-mode:color-burn;isolation:isolate"/><path d="M14140.968,1128.875a4.886,4.886,0,0,0,2.241-1.27l-4.6-2.058-4.025,2.466,5.37,2.431C14140.782,1130.755,14140.968,1128.875,14140.968,1128.875Z" opacity="0.25" fill="url(#b)" style="mix-blend-mode:color-burn;isolation:isolate"/><path d="M14149.337,1102.633a.759.759,0,0,1-.171.021.3.3,0,0,0-.253.174l-.648,1.326-.132.271-.556-1.09-.248-.486a1.459,1.459,0,0,0,.141-.733,7.437,7.437,0,0,1,.049-1.2.318.318,0,0,1,.093-.194c.321-.343,1.574-1.659,1.647-1.675a.32.32,0,0,1,.2.021.163.163,0,0,1,.058.061.224.224,0,0,1,0,.19,7.14,7.14,0,0,1-.628,1.07l.02.015a5.787,5.787,0,0,1,.595.528.887.887,0,0,1,.209.307C14149.761,1101.5,14149.595,1102.593,14149.337,1102.633Z" fill="#fec9c9"/><path d="M14149.459,1099.07l-1.614,1.956v2.212l-.268.1-.248-.486a1.459,1.459,0,0,0,.141-.733,7.437,7.437,0,0,1,.049-1.2.318.318,0,0,1,.093-.194c.321-.343,1.574-1.659,1.647-1.675A.32.32,0,0,1,14149.459,1099.07Z" fill="#cf3838" opacity="0.15" style="mix-blend-mode:multiply;isolation:isolate"/><path d="M14139.438,1130.13a1.252,1.252,0,0,0,.812.361.542.542,0,0,0,.148-.021,9.064,9.064,0,0,0,2.5-1.455,3.571,3.571,0,0,0,.3-1.341.462.462,0,0,0-.432-.183,7.509,7.509,0,0,1-1.854.522.648.648,0,0,0-.3.075,4.2,4.2,0,0,0-1.042.871S14139.315,1130,14139.438,1130.13Z" fill="#110812"/><path d="M14135.5,1127.822a.2.2,0,0,0,.015.1.7.7,0,0,0,.595.445,2.145,2.145,0,0,0,.625-.045,1.748,1.748,0,0,0,.618-.327c.226-.17.563-.765.918-1.019s1-.724,1-.724a2.831,2.831,0,0,0-.046-.456,3.6,3.6,0,0,0-1.191.055c-.17.054-.919.473-1.149.6l-.068.038-1.2.443Z" fill="#110812"/><path d="M14134.3,1116.526c.041.214,1.2,1.1,1.2,1.1l.105-.229.343-.735-.79-2.147-.6.105-.169.179S14134.253,1116.309,14134.3,1116.526Z" fill="#fec9c9"/><path d="M14134.3,1116.526c.041.214,1.2,1.1,1.2,1.1l.105-.229.343-.735-.79-2.147-.6.105-.169.179S14134.253,1116.309,14134.3,1116.526Z" fill="#cf3838" opacity="0.15" style="mix-blend-mode:multiply;isolation:isolate"/><path d="M14135.3,1108.025a6.161,6.161,0,0,0-.537,2.247,11.939,11.939,0,0,0,.444,3.006c.112.43.219.8.292,1.024.015.061.034.113.044.153a.29.29,0,0,1,.034.108.148.148,0,0,1,0,.046.449.449,0,0,1-.253.374,1.1,1.1,0,0,1-.293.118,1.238,1.238,0,0,1-.341.035,1.267,1.267,0,0,1-.6-.153.5.5,0,0,1-.253-.343,37.174,37.174,0,0,1-.585-5.1,24.751,24.751,0,0,1,1.838-5.007,1.842,1.842,0,0,1,.317-.246,1.167,1.167,0,0,1,.258-.123c0-.005,0,3.164,0,3.164A4.873,4.873,0,0,0,14135.3,1108.025Z" fill="#277a85"/><path d="M14141.717,1121.941l-.249,7.1a.538.538,0,0,1-.3.439,1.174,1.174,0,0,1-.385.147,1.608,1.608,0,0,1-.854-.05,1.1,1.1,0,0,1-.219-.1.542.542,0,0,1-.3-.442l.028-7.019-1.474-4.108c-.185,1.054-.5,2.927-.541,3.459-.052.762-.022,5.509-.022,5.509a.579.579,0,0,1-.31.444,1.32,1.32,0,0,1-.327.126,1.6,1.6,0,0,1-.838-.014,1.047,1.047,0,0,1-.292-.119.557.557,0,0,1-.3-.447s-.121-4.869-.086-5.135a20.727,20.727,0,0,0,.127-2.2c.024-1.2-.191-4.517-.191-4.517a4.2,4.2,0,0,1,.2-1.5c.094-.338.184-.578.184-.578l4.213.669,1.071.169A40.147,40.147,0,0,1,14141.717,1121.941Z" fill="#3b1f78"/><path d="M14135.976,1127.44a1.1,1.1,0,0,1-.292-.118.558.558,0,0,1-.3-.445s-.142-4.87-.107-5.136a20.89,20.89,0,0,0,.116-2.2c.021-1.2-.209-4.516-.209-4.516a4.2,4.2,0,0,1,.2-1.505l.594.778a4.454,4.454,0,0,0-.072,2.166C14136.132,1117.594,14136,1126.027,14135.976,1127.44Z" fill="url(#c)" style="mix-blend-mode:color-burn;isolation:isolate"/><path d="M14141.358,1108.5c-.044.189-.1.374-.151.553a15.622,15.622,0,0,0-.487,1.551,20.976,20.976,0,0,0,.4,3.507c-.014.256-.3.584-1.155.763a7.947,7.947,0,0,1-1.652.123,5.611,5.611,0,0,1-2.812-.691,2.357,2.357,0,0,1-.385-.266s.039-.3.093-.758c.078-.7.19-1.756.229-2.678a14.844,14.844,0,0,0-.136-2.575c-.054-.492-.117-.988-.161-1.516a4.067,4.067,0,0,1,.458-2.217c.044-.076.073-.123.078-.133a1.276,1.276,0,0,1,.2,0,10.487,10.487,0,0,1,1.6.19,8.587,8.587,0,0,1,1.308.353,6.4,6.4,0,0,1,2.275,1.29,2.213,2.213,0,0,1,.336.666A3.541,3.541,0,0,1,14141.358,1108.5Z" fill="#277a85"/><path d="M14148.664,1103.857a.656.656,0,0,1-.058.292c-.016.02-.025.041-.039.061-.317.507-2.652,4.219-2.944,4.419a27.179,27.179,0,0,1-4.416.42c-.068.005-.127.005-.171.005-.653,0-1.135-.1-1.291-1.045a3.131,3.131,0,0,1-.044-.358,1.539,1.539,0,0,1,.7-1.388,2.372,2.372,0,0,1,.325-.2.636.636,0,0,1,.332-.067.571.571,0,0,1,.239.062,4.652,4.652,0,0,0,2.1.471,3.214,3.214,0,0,0,1.258-.282c.01-.005,2.427-3.645,2.427-3.645.117-.261.42-.318.77-.1a1.724,1.724,0,0,1,.483.456A1.621,1.621,0,0,1,14148.664,1103.857Z" fill="#277a85"/><path d="M14138.2,1104.235a.566.566,0,0,0,.15-.026c.018-.008.051-.022.09-.041a1.18,1.18,0,0,0,.628-.8l.019-.082a1.274,1.274,0,0,0,.025-.375,1.645,1.645,0,0,1,0-.222c.02-.433.209-.495.352-.524s.17.438.17.438l.2-.066.029-.672a.3.3,0,0,1,.065-.19c.155-.186.7-.3.7-1.024,0-.327-.332-1.47-1.986-1.488.522.285,1.441.889.992,1.459a3.915,3.915,0,0,0-.771,2.337A1.514,1.514,0,0,1,14138.2,1104.235Z" fill="#bd221e" opacity="0.25" style="mix-blend-mode:multiply;isolation:isolate"/><path d="M14135.869,1104.168a1.355,1.355,0,0,0-.189-.014,1.459,1.459,0,0,0-.261.128,1.776,1.776,0,0,0-.319.246,24.751,24.751,0,0,0-1.838,5.007,37.174,37.174,0,0,0,.585,5.1.5.5,0,0,0,.253.343,1.267,1.267,0,0,0,.6.153,51.287,51.287,0,0,1-1-5.488,31.5,31.5,0,0,1,1.612-4.637,3.988,3.988,0,0,0-.165,1.5c.044.528.107,1.024.161,1.516a14.844,14.844,0,0,1,.136,2.575c-.038.922-.15,1.982-.229,2.678-.054.456-.093.758-.093.758a2.357,2.357,0,0,0,.385.266,22.122,22.122,0,0,0-.078-7.081,4.705,4.705,0,0,1,.208-2.344c.114-.341,2.383.23,2.383.23l-.538-.755A10.578,10.578,0,0,0,14135.869,1104.168Z" fill="url(#d)" style="mix-blend-mode:color-burn;isolation:isolate"/><path d="M14147.845,1102.5s-1.759,3.676-3.2,3.748c.01-.005,2.427-3.645,2.427-3.645C14147.192,1102.342,14147.5,1102.285,14147.845,1102.5Z" fill="#277a85"/><path d="M14145.623,1108.629a27.179,27.179,0,0,1-4.416.42c-.068.005-.127.005-.171.005-.653,0-1.135-.1-1.291-1.045A19.985,19.985,0,0,0,14145.623,1108.629Z" fill="url(#e)" style="mix-blend-mode:color-burn;isolation:isolate"/><path d="M14139.958,1121.968l-.032,7.609a1.1,1.1,0,0,1-.219-.1.542.542,0,0,1-.3-.442l.028-7.019-1.474-4.108Z" fill="url(#f)" style="mix-blend-mode:color-burn;isolation:isolate"/><path d="M14140.222,1101.338c0,.005,0,.046,0,.118a10.363,10.363,0,0,1-.224,1.843,1.15,1.15,0,0,1-.721.64.138.138,0,0,0-.094.138c.025.507.039.763.049.8a1.8,1.8,0,0,1-.5.215.9.9,0,0,1-.238.031h-.02a2.483,2.483,0,0,1-1.258-.261.391.391,0,0,1-.219-.338c0,.046,0,.087-.01-.108,0-.158,0-.322-.006-.466,0-.03.557-.527,1.209-1.08.536-.45,1.137-.942,1.546-1.244.023-.021.054-.041.072-.056a3.242,3.242,0,0,1,.337-.226C14140.2,1101.318,14140.227,1101.313,14140.222,1101.338Z" fill="#fec9c9"/><path d="M14140.622,1100.647a.929.929,0,0,1-.405.809,1.4,1.4,0,0,0-.292.215.308.308,0,0,0-.067.189l-.029.676-.2.067s-.024-.471-.171-.441-.331.093-.355.523c0,.087,0,.158,0,.225a1.209,1.209,0,0,1-.024.374l-.02.082a1.187,1.187,0,0,1-.629.8.631.631,0,0,0-.088.041.609.609,0,0,1-.15.026,2.435,2.435,0,0,1-1.225-.282,6.752,6.752,0,0,1-.414-.977c-.049-.256-.282-.815-.341-1.06a2.151,2.151,0,0,1,1.682-2.7,4.24,4.24,0,0,1,.73-.056c1.521.015,1.926.978,1.979,1.388A.358.358,0,0,1,14140.622,1100.647Z" fill="#110812"/><path d="M14140.612,1100.55a13.378,13.378,0,0,1-1.351-.093c-.53.057-.97,1.572-1.062,2.212a1.4,1.4,0,0,0-.016.205,3.976,3.976,0,0,0,.254,1.295l.029.958a2.483,2.483,0,0,1-1.258-.261.391.391,0,0,1-.219-.338c0,.046,0,.087-.01-.108,0-.158,0-.322-.006-.466a6.752,6.752,0,0,1-.414-.977c-.049-.256-.282-.815-.341-1.06a2.151,2.151,0,0,1,1.682-2.7,4.24,4.24,0,0,1,.73-.056C14140.154,1099.177,14140.559,1100.14,14140.612,1100.55Z" fill="#cf3838" opacity="0.15" style="mix-blend-mode:multiply;isolation:isolate"/><ellipse cx="6.356" cy="3.178" rx="6.356" ry="3.178" transform="translate(14091.438 1136.076)" fill="#0d0506" opacity="0.1"/><path d="M14096.006,1127.853l.685,6.115a42.48,42.48,0,0,1,.981,4.767c-.009.18-1.426.913-1.373.98,1.1,1.39,2.2-.715,2.2-.715v-.519s.22-2.775.245-3.249-.245-1.2-.27-1.625.05-4.9.05-4.9Z" fill="#e4c79a"/><path d="M14098.085,1140.5s.261-.959.3-1.058.334-.722.1-.949c-.4-.383-.9.769-1.489,1.045s-.609.028-.609.028a5.764,5.764,0,0,0-.825.735c-.053.141.588.352,1.122.321a2.182,2.182,0,0,0,.822-.26l.395-.821A5.115,5.115,0,0,0,14098.085,1140.5Z" fill="#5c504d"/><path d="M14096.1,1116.5s.564,1.286,1.038,1.151.7-.9.7-1.151v-.812s.749.059.932-.2a6.539,6.539,0,0,0,.151-2.757c-.146-.5-1.151-.722-1.151-.722l-1.557.451Z" fill="#fbdfb4"/><path d="M14094.142,1127.627s-1.077,5.043-.783,5.641,1.188,1.647,2,3.125,1.482,2.054,1.348,2.607-.465,1.647-.465,1.647l1.47-1.207.086-1.6a3.709,3.709,0,0,1-.8-1.2,10.686,10.686,0,0,0-.98-2.832c-.478-.519-.833-.993-.833-.993l2.019-4.823Z" fill="#fbdfb4"/><path d="M14098.745,1139.821s-.339-.943-.363-1.047-.131-.786-.478-.846c-.588-.1-.352,1.134-.724,1.692a1.69,1.69,0,0,1-.844.692,4.7,4.7,0,0,0-.246.978c.036.147.723.1,1.188-.22a4.819,4.819,0,0,0,.857-1.044l-.135-.9S14098.745,1139.911,14098.745,1139.821Z" fill="#a6a09e"/><path d="M14098.353,1116.617a.418.418,0,0,1,.52,0c.239.164,2.146,3,2.836,4.024a.566.566,0,0,1-.056.7l-2.907,3.252-1.385.3v-1.445l1.385-.183,1.241-2.038a.6.6,0,0,0,.009-.755l-1.484-1.9S14097.179,1117.092,14098.353,1116.617Z" fill="#e4c79a"/><path d="M14095.058,1116.8a13.053,13.053,0,0,0-.826,2.438c-.092.767,1.256,2.55,1.029,2.956s-2.278,10.4-2.278,10.4a5.5,5.5,0,0,0,1.736.749c1.931.453,4.789.668,4.863-.249.068-.852.343-6.924-.154-8.193-.591-1.511-.933-2.02-.872-2.522.28-2.343,1.016-5.4.316-5.758A8.124,8.124,0,0,0,14095.058,1116.8Z" fill="#1f444d"/><path d="M14093.574,1122.77a5.669,5.669,0,0,0,.918-2.826c.054-1.373.227-3.066.739-3.254a.8.8,0,0,1,1.142.872c-.067.561-.729,4.156-.82,4.658a.232.232,0,0,1-.048.106l-2.625,3.44a1.445,1.445,0,0,0-.372,1.126,5.017,5.017,0,0,1,0,1.161c-.038.253-.38-.149-.48-.385l-.438-1.023a.246.246,0,0,1,0-.208,4.979,4.979,0,0,1,.649-1.057C14092.511,1125.077,14092.907,1123.812,14093.574,1122.77Z" fill="#fbdfb4"/><path d="M14095.074,1111.515a8.3,8.3,0,0,0-.547,3.882c.184,2.332,3.512,1.293,3.512,1.293l.334-2.295a1.012,1.012,0,0,1-.1-.859c.184-.409.429.061.429.061s.507-1.637-.2-2.168A2.58,2.58,0,0,0,14095.074,1111.515Z" fill="#d1ae51"/><path d="M14061.163,1115.77c-2.963,1.481-3.825,3.451-1.928,4.4s5.838.518,8.8-.963,3.825-3.452,1.927-4.4S14064.125,1114.289,14061.163,1115.77Z" fill="#0d0506" opacity="0.1"/><path d="M14060.139,1114.457a6.481,6.481,0,0,0,1.289.133c.2,0,.405-.011.6-.028l-.9,2.39.4,2.036-1.863-.37.4-1.983Z" fill="#e9b965"/><path d="M14060.268,1093.316c-.024-.242,1.759.005,1.759.005a25.408,25.408,0,0,1-1.508,3.821c-.42.592,1.018.862,1.924,1.856-.19.7-.451,1.382-.642,2.084a.623.623,0,0,0,.006.375c-.013.037-.025.075-.039.113l-.5-1.932s-2.325-.892-2.355-1.375C14058.781,1096.173,14060.292,1093.559,14060.268,1093.316Z" fill="#e9b965"/><path d="M14064.786,1091.644l-.262-1.4s.585.4.77.169a18.033,18.033,0,0,0,.258-2.972s-.027-1.371-1.132-.925-2.435.2-2.144,1.749.472,3.168.062,3.331S14064.606,1092.833,14064.786,1091.644Z" fill="#fbcd74"/><path d="M14061.478,1118.248s-.071.291-.271.211-.416-.727-.817-.595-.831.886-.831.886l-.157.965s.344-.542.674-.383a8.79,8.79,0,0,1,.945.608s1.594.179,1.522-.258,0-.709-.373-.949S14061.478,1118.248,14061.478,1118.248Z" fill="#221132"/><path d="M14062.283,1119.875a2.764,2.764,0,0,1-1.441.1c-.875-.145-1.441-.261-1.441-.261a.478.478,0,0,1,.521-.411C14060.4,1119.305,14062.124,1119.894,14062.283,1119.875Z" fill="#423432"/><path d="M14067.755,1106.323v4.439l0,1.514-.224,2.669s.589.514.548.749a1.573,1.573,0,0,1-.706.791c-.29.051-.988-.167-1.089-.437s-.423-4.01-.423-4.01v-1.47l-1.461-4.661Z" fill="#fbcd74"/><path d="M14061.98,1100.41l-.506.953c-.208.392-.133.207-.147.505l-.355,7.463s-.479,1.632-.618,2.171c-.4,1.571-.953,6.325-.953,6.325.211.443,1.115.921,2.529.277l1.812-7.862.592-5.568.977-4.264Z" fill="#301e62"/><path d="M14067.692,1115.095s.135.536.284.578-.493.9-1.031.666-.707-.257-.7-.375-.123.271,0,.333-.295.635-.054.9a1.547,1.547,0,0,0,1.4.187c.248-.2.094-.3.493-.437s1.528-.676,1.593-1.248,0-1.134-.742-.905A9.639,9.639,0,0,1,14067.692,1115.095Z" fill="#221132"/><path d="M14067.225,1101.148l1.057,14.16c-.37,1.153-1.767,1.878-2.589,1.184l-2.649-14.631-.142-2.889Z" fill="#3b1f78"/><path d="M14061.5,1095.255a8.879,8.879,0,0,1-1.742-.683c-.271-.246,1.013-3.838,1.766-3.69C14062.238,1091.022,14063.49,1090.9,14061.5,1095.255Z" fill="#744c9b"/><path d="M14066.658,1091.5s1,3.325.509,4.445a6.9,6.9,0,0,0,.262,4.9c.245.542-.788,1.382-1.838,1.563a15.057,15.057,0,0,1-4.319-.305c-.16.006.395-1.317.479-2.678.094-1.544-1.063-7.5-.442-8.38S14065.824,1090.874,14066.658,1091.5Z" fill="#9574b2"/><path d="M14067.13,1093.454a9.127,9.127,0,0,1,.7,2.911c-.089.967.5,1.413.492,3.842s.646,3.342.428,4.306c-.2.881-1.079,2.1-1.178,1.288a9.536,9.536,0,0,1,.133-2.15l-1.081-4.516,0-1.734s-1.045-3.686-1.074-3.9S14067.13,1093.454,14067.13,1093.454Z" fill="#fbcd74"/><path d="M14068.219,1095.505a13.347,13.347,0,0,1-2.391.47c-.413-.068-.953-3.676-.248-4.245C14065.912,1091.462,14067.414,1090.067,14068.219,1095.505Z" fill="#b69dc9"/><path d="M14065.016,1085.539l.8,1.014s-.291-.053-.251.087.4.89.4.89-.292-.223-.3-.108c-.043,1.021-.573.9-.573.9s0-1.188-.411-.633a1.239,1.239,0,0,0-.068,1.226l-.612,1.326-1.107.025a14,14,0,0,1-1.088-1.495c-.045-.065-.106.4-.106.4l.019-.814-.242.182a10.364,10.364,0,0,1-.368-1.839C14061.339,1086.015,14062.428,1083.948,14065.016,1085.539Z" fill="#573123"/><path d="M14062.6,1085.273s-1.213.817-1.27,1.372a4.388,4.388,0,0,0,.188,1.366l.167-.241a5.456,5.456,0,0,0,.369.969C14061.512,1087.788,14062.314,1085.51,14062.6,1085.273Z" fill="#814e36"/><path d="M14061.329,1093.641a43.794,43.794,0,0,1,.715,5.4c-.132.719-.17,1.479-.265,1.8a5.994,5.994,0,0,0,1.9-2.381C14063.963,1097.5,14061.329,1093.641,14061.329,1093.641Z" fill="#8e6bac"/><path d="M14064.613,1088.913a3.378,3.378,0,0,1-.84.893c-.381.2-1.968-1.037-1.968-1.037a7.688,7.688,0,0,0,1.088,1.495l1.107-.025Z" fill="#45251c"/><path d="M14043.951,1093.261l.063.759.148.447.329.6c.1.167.266.135.262-.02l.16.283c.145.222.354.034.243-.2l-.241-.591.4.738c.158.217.367.079.276-.214l-.323-.821.356.644c.108.146.353.055.284-.215l-.363-1.069a.691.691,0,0,1,.037-.405c.072-.141.618.152.618.152l.5.288c.183.027.261-.019.236-.14l-.378-.395-.425-.372-.187-.163a2.4,2.4,0,0,0-.826-.385l-.022-.079-.047-.154-.41.063-.613.094.028.468-.034.219Z" fill="#ffbaa8"/><path d="M14045.645,1093.128l-.833-.193-.444.752.386,1.356c-.014-.361-.03-.794.208-.878l.414-.06-.34-.228.052-.336.721-.115Z" fill="#ffbaa8"/><path d="M14045.8,1083.116l-.247,2.965-.2,2.464a14.112,14.112,0,0,0-.256,3.327.52.52,0,0,1-.015.208.828.828,0,0,1-.449.453,2.657,2.657,0,0,1-.628.235,12.774,12.774,0,0,1-.513-4.027l.239-2.911C14043.8,1084.166,14044.193,1082.905,14045.8,1083.116Z" fill="#69b2e6"/><path d="M14046.138,1092.729l-1.483-.172a.829.829,0,0,0,.448-.453l.024.079a2.4,2.4,0,0,1,.827.383Z" fill="#ffbaa8"/><path d="M14045.354,1088.545a14.112,14.112,0,0,0-.256,3.327.52.52,0,0,1-.015.208.828.828,0,0,1-.449.453c0-.184,0-.365-.01-.546-.093-2.76-.925-5.074.022-6.347l.91.441Z" fill="#69b2e6" style="mix-blend-mode:multiply;isolation:isolate"/><path d="M14052.932,1110.684c0-.545-.421-.754-1.044-.821a12.859,12.859,0,0,0-2.236.465l-1.1.6a2.446,2.446,0,0,0-.079,1.524,1.2,1.2,0,0,0,1.061.334l1.231-.522.09-.177C14051.837,1111.979,14052.932,1111.533,14052.932,1110.684Z" fill="#1d1d1b"/><path d="M14048.931,1108.5c0-.445-.4-.522-.992-.568-1.073,0-1.119.538-2.107.515l-.97.589a2.889,2.889,0,0,0-.042,1.633,1.393,1.393,0,0,0,1.079.263l1-.587.085-.18C14047.918,1110.026,14048.931,1109.33,14048.931,1108.5Z" fill="#1d1d1b"/><path d="M14045.414,1093.331l3.577,1.495a12.3,12.3,0,0,1-.072,1.674c-.225,1.648-.89,4.138-.89,4.138a43.9,43.9,0,0,0-.784,7.517,1.469,1.469,0,0,1-2.452.928c-.273-3.381-.271-6.665.523-8.84-.381-1.717-.021-3.634.086-5.613C14045.309,1094.592,14045.514,1093.373,14045.414,1093.331Z" fill="#1d1d1b"/><path d="M14048.09,1096.882a19.106,19.106,0,0,0,.456,5.288c-.675,2.172-.493,5.4-.031,8.782a1.453,1.453,0,0,0,1.935.265,1.169,1.169,0,0,0,.467-1.146l.365-7.506s.525-2.487.66-4.133a34.8,34.8,0,0,0-.448-5.409,6.607,6.607,0,0,1-.959.188c-2.128.269-4.085-.491-4.693-1.707-.031.088-.061.178-.09.268a8.673,8.673,0,0,0-.4,2.284C14045.286,1095.793,14046.989,1096.434,14048.09,1096.882Z" fill="#3c3c3b"/><path d="M14051.959,1086.732a21.522,21.522,0,0,0-.191,3.167c-.006.383-.009.756-.021,1.123a9.78,9.78,0,0,1-.253,2,7.991,7.991,0,0,1-.906.342,3.915,3.915,0,0,1-4.837-1.594,24.845,24.845,0,0,1-1.428-6.194c.006-1.261.417-2.162,1.489-2.461a14.59,14.59,0,0,1,5.84,3.346C14051.756,1086.553,14051.857,1086.642,14051.959,1086.732Z" fill="#69b2e6"/><path d="M14049.913,1083.253l-.181,1.723c-1.115-.008-2.858-.781-2.639-1.373l.586-1.125Z" fill="#ffbaa8"/><path d="M14050.445,1083.471a1.662,1.662,0,0,1-1.788.256,2.325,2.325,0,0,1-1.61-2.429c-.078-.938.347-1.92,1.945-1.869,1.018.032,1.884.4,1.944,1.489C14050.937,1080.918,14050.991,1082.97,14050.445,1083.471Z" fill="#ffbaa8"/><path d="M14049.794,1084.387l.406.92c-1.906-.215-3.614-.929-3.188-1.81l.348-.4C14047.094,1083.727,14048.971,1084.484,14049.794,1084.387Z" fill="#6bd8eb"/><path d="M14050.931,1080.65a1.535,1.535,0,0,1-.647.907,5.314,5.314,0,0,1,.031.859c-.047.015-.486.4-.486.4l-.229.638a1.754,1.754,0,0,1-2.233-.365,4.621,4.621,0,0,1-.364-2.279,1.932,1.932,0,0,1,1.99-1.686C14050.252,1079.065,14051.038,1079.8,14050.931,1080.65Z"/><path d="M14050.177,1082.539c.121-.136-.065-.452-.2-.5-.19-.062-.295.214-.314.364a.7.7,0,0,0,.112.527c.13.192.334,0,.4-.152C14050.214,1082.671,14050.1,1082.626,14050.177,1082.539Z" fill="#ffbaa8"/><path d="M14051.941,1098.431a41.779,41.779,0,0,1-.66,4.133l-.364,7.507a1.175,1.175,0,0,1-.472,1.148,29.5,29.5,0,0,0,0-8.411c.706-2.6,1.026-5.324.216-7.332a1.366,1.366,0,0,1,.832-2.452A34.917,34.917,0,0,1,14051.941,1098.431Z" opacity="0.25" style="mix-blend-mode:multiply;isolation:isolate"/><path d="M14048.867,1101.664a.912.912,0,0,1,.373-.732l6.02-3.91c.219-.143.408-.045.421.215l.084,1.6.166,3.152a.9.9,0,0,1-.372.729l-6.02,3.91c-.219.143-.408.048-.422-.213l-.166-3.152Z" fill="#575756"/><path d="M14055.568,1096.991l.454.359-6.339,9.652-.457-.346Z" fill="#575756"/><path d="M14049.361,1102.043l.249,4.749c.014.261.2.356.422.214l6.021-3.911a.9.9,0,0,0,.371-.729l-.249-4.749c-.014-.261-.2-.358-.421-.216l-6.021,3.91A.906.906,0,0,0,14049.361,1102.043Z" fill="#1d1d1b"/><path d="M14049.361,1102.043l.084,1.6c.025.51.4.7.823.42l5.264-3.419a1.769,1.769,0,0,0,.727-1.428l-.084-1.6c-.014-.261-.2-.358-.421-.216l-6.021,3.91A.906.906,0,0,0,14049.361,1102.043Z" fill="#444443"/><path d="M14052.8,1103.263l.285-.185a.415.415,0,0,0,.17-.333l-.069-1.313-.646.42.069,1.313C14052.615,1103.284,14052.7,1103.328,14052.8,1103.263Z" fill="#fff"/><path d="M14052.424,1102.508l.938-.608a.288.288,0,0,0,.117-.231l-.014-.264c0-.082-.063-.113-.134-.068l-.937.609a.289.289,0,0,0-.117.231l.014.263C14052.295,1102.523,14052.355,1102.553,14052.424,1102.508Z" fill="#fff"/><path d="M14053.308,1097.687l.041.772.394-.02-.027-.514a.45.45,0,0,0-.109-.253Z" fill="#1d1d1b"/><path d="M14053.4,1098.37a.085.085,0,0,0,.009.161.309.309,0,0,0,.279-.014.086.086,0,0,0-.009-.162A.312.312,0,0,0,14053.4,1098.37Z" fill="#382c2d"/><path d="M14053.023,1098.492l.63-.424-.306-.505-.641.43Z" fill="#382c2d"/><path d="M14052.649,1098.133a.461.461,0,0,0,.228.351c.119.061.209,0,.2-.131a.46.46,0,0,0-.229-.351C14052.732,1097.941,14052.642,1098,14052.649,1098.133Z" fill="#3d5a55"/><path d="M14053.285,1097.706a.362.362,0,0,0,.031.127.464.464,0,0,0,.2.224.159.159,0,0,0,.139.013.143.143,0,0,0,.064-.145.45.45,0,0,0-.109-.253.361.361,0,0,0-.118-.1.152.152,0,0,0-.14-.012l-.021.013A.162.162,0,0,0,14053.285,1097.706Z" fill="#1d1d1b"/><path d="M14053.232,1097.122l.519,1.083a.752.752,0,0,1-.157.829,3.037,3.037,0,0,1-1.063.638l-.657-.431.069-.625c-.31-.2-.3-.654-.125-1.242A1.362,1.362,0,0,1,14053.232,1097.122Z" fill="#ffbaa8"/><path d="M14051.862,1098.289l.537.452-.156.431-.208-.149c-.1.157-.189.2-.3.149l-.022-.171Z" fill="#1d1d1b" opacity="0.1"/><path d="M14051.568,1099.445l.63-.423-.306-.505-.641.43Z" fill="#4d4d4d"/><path d="M14051.194,1099.087a.462.462,0,0,0,.228.351c.119.06.209,0,.2-.132a.465.465,0,0,0-.228-.351C14051.277,1098.9,14051.187,1098.954,14051.194,1099.087Z" fill="#4d4d4d"/><path d="M14051.83,1098.66a.465.465,0,0,0,.228.351c.118.06.209,0,.2-.132a.462.462,0,0,0-.228-.351C14051.913,1098.468,14051.823,1098.527,14051.83,1098.66Z" fill="#1d1d1b"/><path d="M14051.568,1099.445l.63-.423-.306-.505-.641.43Z" fill="#1d1d1b"/><path d="M14051.194,1099.087a.462.462,0,0,0,.228.351c.119.06.209,0,.2-.132a.465.465,0,0,0-.228-.351C14051.277,1098.9,14051.187,1098.954,14051.194,1099.087Z" fill="#1d1d1b"/><rect width="0.394" height="0.773" transform="matrix(0.999, -0.052, 0.052, 0.999, 14051.194, 1099.087)" fill="#1d1d1b"/><path d="M14051.286,1099.77a.085.085,0,0,0,.008.161.308.308,0,0,0,.28-.015.085.085,0,0,0-.009-.161A.309.309,0,0,0,14051.286,1099.77Z" fill="#1d1d1b"/><path d="M14049.649,1088.308l-.423,5.32,1.911,2.744.271-4.538Z" fill="#69b2e6" style="mix-blend-mode:multiply;isolation:isolate"/><path d="M14051.193,1086.08c.84.52,1.215.817,1.252,2.448l-.206,4.419.993,4.175c-.081.455-1.086.71-1.465.429a23.514,23.514,0,0,1-1.739-3.894l-.4-4.844C14049.524,1087.033,14049.5,1085.849,14051.193,1086.08Z" fill="#69b2e6"/><path d="M14025.585,1058.982a4.335,4.335,0,0,1,.435-.753c.169-.183.942-.607,1.218-.352s-.4.919-.4.919-.281.765-.418.789S14025.585,1058.982,14025.585,1058.982Z" fill="#f0c6b4"/><path d="M14027.08,1058.737c.037.07-.27.388-.475.49s-.234-.048-.271-.121.1-.218.308-.318S14027.043,1058.662,14027.08,1058.737Z" fill="#f0c6b4"/><path d="M14023.079,1077.821a1.348,1.348,0,0,1,.854-.156.3.3,0,0,1,.2.455s-.614.824-.8,1.023-.312.653-.546.954c-.206.262-.663.1-.771-.1s.066-.806,0-1.645A6.286,6.286,0,0,1,14023.079,1077.821Z" fill="#fff"/><path d="M14021.571,1065.485c-.239,2.852.363,5.365-.1,7.24-.625,2.528.354,4.078.553,5.625.086.666,1.285.514,1.177-.1-.316-1.791-.037-2.6-.017-5.062-.179-.384,1.171-3.1,1.851-5.812C14025.014,1066.878,14021.761,1065.319,14021.571,1065.485Z" fill="#bcbec0"/><path d="M14026.591,1078.35c.948.223,1.622.1,1.839.279s.257.733-.353.913a12.627,12.627,0,0,1-3.257.3c-.243-.137-.162-1.044-.162-1.044A6.936,6.936,0,0,1,14026.591,1078.35Z" fill="#fff"/><path d="M14026.865,1064.635a44.944,44.944,0,0,1-.276,8.312c-.905,3.552,0,5.4,0,5.4a1.554,1.554,0,0,1-1.933.444c-.006-2.085-.851-3.289,0-5.687.051-.34-.741-5.355-.741-5.355s-2.363-.695-2.363-2.051a6.221,6.221,0,0,1,.9-2.35l1.755.8A9.309,9.309,0,0,0,14026.865,1064.635Z" fill="#fff"/><path d="M14026.786,1063.718l.079.917s-1.534,1.279-4.409-1.284c.074-.174.221-.526.221-.526Z" fill="#303033"/><path d="M14021.081,1056.925c.71-.354,1.169.47,1.375,1.212a9.259,9.259,0,0,0,.658,1.665c.178.376-.926,1.193-1.16.8s-.7-1.182-1.1-1.832S14020.552,1057.19,14021.081,1056.925Z" fill="#0f1734"/><path d="M14026.493,1061.035a.909.909,0,0,0,.506-1c-.165-.835-2.031-1.532-2.031-1.532l-.442-1.076-3.14-.406-.154.1s-.44.352-.414,1.571,1.859,4.133,1.859,4.133,3,2.5,4.109.893A24.918,24.918,0,0,1,14026.493,1061.035Z" fill="#202b57"/><path d="M14024.083,1052.647a1.413,1.413,0,0,1,1.654,1.008c.179.486-.4,3.35-.306,4.953-.389.084-1.074-.527-1.074-.527a.479.479,0,0,0-.274.611,2.47,2.47,0,0,1-1.94-.891s-.135.132,0,.49c-1.388-.389-1.156-1.445-1.156-1.445S14021.492,1052.1,14024.083,1052.647Z" fill="#6e4826"/><path d="M14022.924,1053.17a9.1,9.1,0,0,1,1.159-.523S14023.155,1052.76,14022.924,1053.17Z" fill="#3c2415"/><path d="M14027,1062.131l.132.163a6.985,6.985,0,0,0,.828-1.232,3.118,3.118,0,0,1-.2-.537c-.055-.222-.042-.627.078-.676s.194.376.341.368.322-.451.322-.451-.163-.495,0-.519.6.583.7.963-.557,1.178-.557,1.178a11.634,11.634,0,0,1-.87,2.42,1.036,1.036,0,0,1-1.008.325c-.268-.074-.83-1.311-.83-1.311l.183-.653.6-.191Z" fill="#f0c6b4"/><path d="M14025,1059.185c.713-.354,1.171.472,1.376,1.213a9.226,9.226,0,0,0,.657,1.665c.181.375-.925,1.194-1.158.8s-.7-1.184-1.1-1.834S14024.471,1059.451,14025,1059.185Z" fill="#0f1734"/><path d="M14161.9,1079.95s-.424.009-.674.027c-.445.421-4.054.812-4.054.812s-.256.678-.53.786a1.437,1.437,0,0,1-.752.1c-.188-.035-.3-.3-.3-.3s-1.167.369-1.175.2.808-.518.808-.518-.1-.46.078-.622c.329-.3,1.146-.282,1.342-.3,1.366-.572,2.507-1.514,4.28-1.466a1.345,1.345,0,0,0,.58-.169Z" fill="#f0c6b4"/><path d="M14164.895,1077.5c-.83-.252-2.579.69-3.668.954a5.542,5.542,0,0,1,.535,1.775,5.838,5.838,0,0,1,2.755-.148C14164.724,1080.281,14165.044,1077.755,14164.895,1077.5Z" fill="#ba6000"/><path d="M14164.961,1076.955a2.583,2.583,0,0,0,.092.624l-.253.54.4,1.229.9.3.994-.2.426-.82-.3-.6-.39-.729S14164.908,1076.583,14164.961,1076.955Z" fill="#c7a496"/><path d="M14171.053,1082.993s.441.716.528.928a1.6,1.6,0,0,1,0,.891l-1.281.529-.319-.981-.326-.785C14169.481,1083.161,14171.053,1082.993,14171.053,1082.993Z" fill="#f0c6b4"/><path d="M14170.049,1084.043a3.391,3.391,0,0,1,1.223-.19S14170.178,1083.436,14170.049,1084.043Z" opacity="0.2"/><path d="M14167.512,1095.46a9.644,9.644,0,0,1,.856,4.394c.065.314.209.3.209.3h.457l.7-.3s.2.125.035-.427c-.25-1.351.263-3.241-.2-4.179-.5-.532-.374-.236-.415-.24s-1.341.076-1.341.076A1.227,1.227,0,0,0,14167.512,1095.46Z" fill="#f0c6b4"/><path d="M14165.044,1094.8c.786,1.552-.044,3.649.408,5.053-.106.256-.2.484-.2.484l-.882.152s-.434-.1-.559-.365c.25-1.088-.967-5.378-.817-5.7C14163.056,1094.127,14164.888,1094.532,14165.044,1094.8Z" fill="#f0c6b4"/><path d="M14163.36,1086.435s-.867,6.272-.849,7.839a2.974,2.974,0,0,0,2.989.545,24.865,24.865,0,0,1,1.209-5.473C14167,1088.965,14163.36,1086.435,14163.36,1086.435Z" fill="#0f2034"/><path d="M14168.417,1087.107c.959.971,1.15,6.131,1.41,7.826-.394.848-2.559.979-2.993.17a39.216,39.216,0,0,0-1.187-5.066,4.02,4.02,0,0,1-2.3-3.54c-.037-.323,1.166-.532,1.166-.532h1.832A14.522,14.522,0,0,1,14168.417,1087.107Z" fill="#1d374e"/><path d="M14169.2,1082.088a9.762,9.762,0,0,0,.014,5.995c-2.451,2.19-6.13-1-6.13-1s.287-5.109.4-7a3.109,3.109,0,0,1,1.414-2.581.361.361,0,0,0,.158.08s-.107,1.15.5,1.521a1.7,1.7,0,0,0,1.609-.235.827.827,0,0,0,.061-.834c.561.707.95.767,1.882,1.468A15.164,15.164,0,0,1,14169.2,1082.088Z" fill="#ff8400"/><path d="M14168.059,1074.771a4.238,4.238,0,0,1,0,1.176,2.643,2.643,0,0,1-1.182,2.329,1.19,1.19,0,0,1-.915-.023,2.454,2.454,0,0,1-1.074-1.591s-.659-.3-.331-1.318c.141-.254.493-.9.493-.9l1.646-.439.793.2A3.711,3.711,0,0,1,14168.059,1074.771Z" fill="#f0c6b4"/><path d="M14168.718,1086.431c1.568-.867,3.164-2.359,3.992-2.51.171-.009.584.614.584.614s.284,1.114-.2,1.489a14.855,14.855,0,0,1-3.791,1.45,1.723,1.723,0,0,1-.714.532,5.133,5.133,0,0,1-.348-1.427A1.886,1.886,0,0,1,14168.718,1086.431Z" fill="#f0c6b4"/><path d="M14171.334,1084.662l-.48,2.328s.8-.222.916-.718A2.36,2.36,0,0,0,14171.334,1084.662Z" opacity="0.2"/><path d="M14174.7,1077.944c-1.7,0-1.74,1.978-1.74,1.978s-.43,3.222-.528,3.915a3.171,3.171,0,0,0,2.095.511S14174.935,1077.934,14174.7,1077.944Z" fill="#9c251f"/><path d="M14178.211,1077.406a3.753,3.753,0,0,0,.39,1.441l.083.961-1.32.866-1.416.265-1.108-.226s-.56-1.075-.449-1.149,1.278-1.845,1.278-1.845l2.052-.4S14178.232,1076.769,14178.211,1077.406Z" fill="#c7a496"/><path d="M14174.189,1103.588c-.322.49-1.968.885-2.176,1.235-.105.173-.105.761.011.8,1.073.4,3.122-.459,3.122-.459.33.064,1.5.074,1.8-.265.243-.277,0-1.507,0-1.507S14174.435,1103.634,14174.189,1103.588Z" fill="#121214"/><path d="M14173.137,1090.45c-.274,2.512.943,6.629.943,6.629a34.946,34.946,0,0,1,0,6.6c.237.4,2.323.932,3-.233a20.2,20.2,0,0,0-.341-6.333c-.141-.592,0-5.8,0-5.8S14173.379,1089.838,14173.137,1090.45Z" fill="#bdaf83"/><path d="M14179.968,1106.6a10.333,10.333,0,0,1-1.211,1.811c-.244.3-.367.756-.192.942a1.6,1.6,0,0,0,2.322-.088,7.887,7.887,0,0,0,1.141-1.962,5.889,5.889,0,0,0-.05-.9S14180.208,1106.51,14179.968,1106.6Z" fill="#121214"/><path d="M14179.643,1090.653a33.383,33.383,0,0,1,1.508,7.179c.658,1.6,1.334,3.769,1.316,8.628a1.724,1.724,0,0,1-2.824.214,25.353,25.353,0,0,0-1.406-8.01c-.665-2.148-2.994-6.155-3.173-6.786s.884-2.183.884-2.183h2.944Z" fill="#e6dab0"/><path d="M14175.449,1080.655s-.788,10.5-1.06,10.663a12.133,12.133,0,0,0-.564,1.782,8,8,0,0,1-1.077-3.1c.389-3.663-.146-6.32-.018-8.009.155-2.108,2.4-3.956,2.341-3.565A4.3,4.3,0,0,0,14175.449,1080.655Z" fill="#e31b25"/><path d="M14175.449,1080.655a5.885,5.885,0,0,0,3.151-1.933l2.3,2.155-.384,3.164-1.174,3.7a19.243,19.243,0,0,1,.877,4.343c-.5-.827-.755-1.229-1.618-1.206s-1.771,1.935-4.184,2.436C14174.47,1089.245,14174.016,1083.58,14175.449,1080.655Z" fill="#e31b25"/><path d="M14175.449,1080.655c-1.7,2.91-1.035,10.619-1.035,10.619A41.364,41.364,0,0,1,14175.449,1080.655Z" fill="#121214" opacity="0.3"/><path d="M14175.164,1074.4a2.815,2.815,0,0,0-.884,1.684.5.5,0,0,0,.225.352.63.63,0,0,0-.11.214,10.767,10.767,0,0,0,.211,2.286s.388.4.631.429c1.506.125,2.459-1.6,2.459-1.6a1.3,1.3,0,0,0,.723-.728c.08-.3.183-.84.183-.84l-.29-.991-.765-1.12h-1.356S14175.283,1074.345,14175.164,1074.4Z" fill="#f0c6b4"/><path d="M14178.418,1077.039s.107-.639-.207-.622-.829.753-.829.753a2.331,2.331,0,0,1-.261-1.184c.032-.314.619-.894.349-1.2-.5-.514-1.6.717-2.339.063-.386-.34,1.233-2.41,2.9-1A2.342,2.342,0,0,1,14178.418,1077.039Z" fill="#603913"/><path d="M14173.1,1080.2l-1.113-1.632.154-.091a.163.163,0,0,1,.177.013l.779.449a.534.534,0,0,1,.237.411v.6a.17.17,0,0,1-.068.151h0l0,0Z" fill="#303033"/><path d="M14171.916,1079.33a.529.529,0,0,0,.235.409l.778.451c.132.077.237.014.237-.138v-.6a.52.52,0,0,0-.237-.409l-.778-.452c-.128-.073-.235-.012-.235.138Z" fill="#121214"/><path d="M14173.2,1081.549l-.783-1.956,2.349-1.355a.233.233,0,0,1,.263.015l.277.159a.794.794,0,0,1,.358.623v.922a.253.253,0,0,1-.1.23v0h-.006Z" fill="#535359"/><path d="M14172.319,1080.745a.793.793,0,0,0,.357.623l.275.158c.2.114.357.019.357-.207v-.924a.789.789,0,0,0-.357-.622l-.275-.157c-.2-.117-.357-.022-.357.205Z" fill="#303033"/><path d="M14172.454,1080.232l-.112-.18.212-.126a.273.273,0,0,1,.262.027.8.8,0,0,1,.36.626.266.266,0,0,1-.088.227h0c-.01.008-.194.113-.194.113l-.08-.127A.814.814,0,0,1,14172.454,1080.232Z" fill="#535359"/><path d="M14172.26,1080.271a.814.814,0,0,0,.361.631c.2.117.365.021.365-.207a.805.805,0,0,0-.365-.634C14172.424,1079.944,14172.26,1080.039,14172.26,1080.271Z" fill="#121214"/><path d="M14172.35,1080.324a.612.612,0,0,0,.274.472c.1.056.187.043.231-.022a.217.217,0,0,1-.136-.037.6.6,0,0,1-.272-.466.235.235,0,0,1,.04-.138C14172.405,1080.142,14172.35,1080.211,14172.35,1080.324Z" fill="#303033"/><path d="M14172.447,1080.271a.6.6,0,0,0,.272.466.217.217,0,0,0,.136.037.21.21,0,0,0,.038-.135.6.6,0,0,0-.27-.47.275.275,0,0,0-.137-.036A.235.235,0,0,0,14172.447,1080.271Z" fill="#2b5e85"/><path d="M14176.742,1083.539s-.795.581-.135,1.735c.721,1.265,1.621.75,1.621.75l.618-.965-.544-1.688h-1.1Z" fill="#ff3f4a"/><path d="M14177.083,1083.449s-.457.5-.958,1.012a21.465,21.465,0,0,1-1.166-3.041,9.942,9.942,0,0,1,.427-1.591,9.452,9.452,0,0,0-.127-1.083c-.147-.086-.589-.639-1.078-.632s-.83.632-.886.941a5.1,5.1,0,0,0,.358,1.071,2.472,2.472,0,0,0-.152,1.094,1.13,1.13,0,0,0,.263.51c.266,1.236.39,4.237.741,4.727.55.766,1.269,1.107,1.767.9.236-.1,2.329-2.053,2.329-2.053l-.088-1.577Z" fill="#f0c6b4"/><path d="M14176.125,1084.461a2.454,2.454,0,0,1,.932,1.5S14177.3,1084.677,14176.125,1084.461Z" opacity="0.2"/><path d="M14181,1080.96c-.979-.625-4.256,2.579-4.256,2.579,1.581.337,1.486,2.485,1.486,2.485s1.472-1.4,2.206-1.922C14181.358,1083.449,14182.155,1081.691,14181,1080.96Z" fill="#9c251f"/><path d="M14175.947,1080.254a1.4,1.4,0,0,1-.5.4,2.271,2.271,0,0,0,1.143-.271l-.152-.3Z" fill="#9c251f"/><path d="M14178.892,1078.837a2.328,2.328,0,0,1-.523-.557,9.724,9.724,0,0,1-2.421,1.974,1.129,1.129,0,0,1,.921.685A8.783,8.783,0,0,0,14178.892,1078.837Z" fill="#ff3f4a"/><path d="M14170.5,1087.107c-1.288.1-.822-1.271-.822-1.271A8.15,8.15,0,0,1,14170.5,1087.107Z" opacity="0.2"/><path d="M14170.375,1083.922a.98.98,0,0,1,.991.854,5.924,5.924,0,0,1,.157,1.543c-.02.352-.735.767-1.025.788-.473,0-.735-.358-.812-1.051a7.317,7.317,0,0,1,.148-1.6S14169.895,1083.936,14170.375,1083.922Z" fill="#f0c6b4"/><path d="M14167.508,1088.463a.378.378,0,0,1,.184-.207,1.033,1.033,0,0,1,.926,0,.382.382,0,0,1,.182.207h.01v.059a.334.334,0,0,1-.191.272,1.039,1.039,0,0,1-.926,0,.332.332,0,0,1-.191-.272v-.059Z" fill="#939598"/><path d="M14167.691,1088.73a1.033,1.033,0,0,0,.926,0c.258-.148.258-.39,0-.533a.991.991,0,0,0-.926,0A.281.281,0,0,0,14167.691,1088.73Z" fill="#ccc"/><path d="M14168.617,1088.73a.327.327,0,0,0,.191-.267.319.319,0,0,0-.191-.266C14168.615,1088.219,14169.029,1088.425,14168.617,1088.73Z" fill="#fff"/><path d="M14168.932,1086.66v1.728a.375.375,0,0,1-.225.317,1.208,1.208,0,0,1-1.1,0,.384.384,0,0,1-.229-.317v-1.763Z" fill="#e31b25"/><path d="M14168.073,1087.109c.116.53-.308,1.4-.031,1.723a1.081,1.081,0,0,1-.332-.073c-.187-.419.194-1.078.182-1.675Z" fill="#fff"/><path d="M14168.752,1087.993a2.614,2.614,0,0,0,.029.556,2.972,2.972,0,0,0,.027-.556c0-.311-.014-1.046-.027-1.046S14168.752,1087.682,14168.752,1087.993Z" fill="#fff" opacity="0.2"/><path d="M14167.373,1086.625a.625.625,0,0,1,.278-.372,1.1,1.1,0,0,1,1.007,0,.653.653,0,0,1,.272.363v0h0a.37.37,0,0,1-.224.359,1.234,1.234,0,0,1-1.1,0,.382.382,0,0,1-.227-.334A.053.053,0,0,1,14167.373,1086.625Z" fill="#ff3f4a"/><path d="M14168.658,1086.253a.653.653,0,0,1,.272.363v0h0a.37.37,0,0,1-.224.359C14169.147,1086.671,14168.816,1086.4,14168.658,1086.253Z" fill="#fff"/><path d="M14167.508,1086.435a.362.362,0,0,1,.184-.206,1.008,1.008,0,0,1,.926,0,.364.364,0,0,1,.182.206h.01v.062a.321.321,0,0,1-.191.266,1.014,1.014,0,0,1-.926,0,.319.319,0,0,1-.191-.266v-.062Z" fill="#939598"/><path d="M14167.691,1086.7a1.027,1.027,0,0,0,.926,0,.282.282,0,0,0,0-.536,1.014,1.014,0,0,0-.926,0A.283.283,0,0,0,14167.691,1086.7Z" fill="#bcbec0"/><path d="M14168.617,1086.7a.283.283,0,0,0,0-.536C14168.615,1086.193,14169.029,1086.4,14168.617,1086.7Z" fill="#fff"/><path d="M14167.563,1086.454a.294.294,0,0,1,.172-.223.91.91,0,0,1,.828,0,.3.3,0,0,1,.172.223.281.281,0,0,0-.172-.261.922.922,0,0,0-.828,0A.276.276,0,0,0,14167.563,1086.454Z" fill="#535359"/><path d="M14167.563,1086.454a.288.288,0,0,0,.172.217.892.892,0,0,0,.828,0,.294.294,0,0,0,.172-.217.3.3,0,0,0-.172-.223.91.91,0,0,0-.828,0A.294.294,0,0,0,14167.563,1086.454Z" fill="#939598"/><path d="M14167.782,1086.336a.1.1,0,0,1,.019-.017l.117-.066a.147.147,0,0,1,.155.009l.185.15,0,.008h.014v.026s0,.021-.03.04l-.033.02a.157.157,0,0,1-.129.008l-.265-.1c-.044-.022-.042-.052-.042-.052v-.021Z" fill="#535359"/><path d="M14168.212,1086.477l.033-.018a.043.043,0,0,0,.013-.074l-.185-.154a.156.156,0,0,0-.155,0l-.117.064c-.042.028-.034.066.018.088l.265.107A.149.149,0,0,0,14168.212,1086.477Z" fill="#bcbec0"/><path d="M14168.117,1086.442l.008-.01a.088.088,0,0,1,.064,0,.02.02,0,0,1,.013.01c.008-.011,0-.024-.013-.031a.079.079,0,0,0-.064,0A.022.022,0,0,0,14168.117,1086.442Z" fill="#535359"/><path d="M14168.117,1086.442a.024.024,0,0,1,.008.009.09.09,0,0,0,.064,0l.013-.009a.02.02,0,0,0-.013-.01.088.088,0,0,0-.064,0Z" fill="#9c9c9c"/><path d="M14167.888,1086.345a.074.074,0,0,1,.027-.032l.006,0a.145.145,0,0,1,.155.008l.01.008a.076.076,0,0,1,.017.021c.007-.012,0-.029-.017-.041l-.01-.011a.156.156,0,0,0-.155-.005h-.006A.052.052,0,0,0,14167.888,1086.345Z" fill="#535359"/><path d="M14167.888,1086.345a.073.073,0,0,0,.04.036l.017.006a.145.145,0,0,0,.129-.007h0c.019-.009.026-.018.029-.031h0a.076.076,0,0,0-.017-.021l-.01-.008a.145.145,0,0,0-.155-.008l-.006,0A.074.074,0,0,0,14167.888,1086.345Z" fill="#9c9c9c"/><path d="M14168.736,1087.323c0,.293.1.53.231.53s.229-.237.229-.53-.1-.531-.229-.531S14168.736,1087.031,14168.736,1087.323Z" fill="#f0c6b4"/><path d="M14167.373,1086.874v.253a1.231,1.231,0,0,1,.345.224.894.894,0,0,1,.159.556c-.034.169-.206.6-.359.642s-.294-.125-.394-.251a2.724,2.724,0,0,1-.086-1.108A.563.563,0,0,1,14167.373,1086.874Z" fill="#f0c6b4"/><path d="M14168.178,1074.4c-.01.862-1.383.7-1.383.7s.368-.384.114-.587a1.857,1.857,0,0,1-1.075.417s.072-.44-.129-.452c-.326.467-.552.5-.623.622s.082.621-.067.9a1.075,1.075,0,0,0-.458-.66s-.284-2.009.752-1.977C14167.512,1072.431,14168.18,1073.951,14168.178,1074.4Z" fill="#603913"/><path d="M14165.309,1073.367s.6.16.47.378C14165.59,1073.883,14165.309,1073.367,14165.309,1073.367Z" opacity="0.2"/><path d="M14168.736,1079.474c1.11-.323,2.312,3.266,2.452,3.519a2.3,2.3,0,0,1-1.667.7,13.5,13.5,0,0,0-1.056-2.236C14167.947,1080.682,14168.43,1079.426,14168.736,1079.474Z" fill="#ba6000"/><path d="M14165.452,1099.854c-.251.544-1.342.386-1.644.271-.8.7-2,1-2.135,1.249s-.121.769,0,.841a1.837,1.837,0,0,0,1.557.026,4.617,4.617,0,0,0,.9-.589s1.292-.087,1.419-.389A2.64,2.64,0,0,0,14165.452,1099.854Z" fill="#e31b25"/><path d="M14169.772,1099.427s-.188.756-1.4.427a4.57,4.57,0,0,1-1.083,1.721c-.178.2,0,.644.16.773,1.522.676,1.938-.42,1.938-.42s.527-1.1.652-1.433A1.544,1.544,0,0,0,14169.772,1099.427Z" fill="#e31b25"/><path d="M14173.811,1080.451a1.28,1.28,0,0,1-.437,0,5.27,5.27,0,0,0,0,.556,2.871,2.871,0,0,0,.371.025Z" fill="#939598"/><path d="M14175.449,1079.959c-.154-.153-.6.275-1.641.41-.081-.024-.178.576-.112.725a2.3,2.3,0,0,0,1.519-.32A.619.619,0,0,0,14175.449,1079.959Z" fill="#121214"/><path d="M14187.371,1036.485a5.184,5.184,0,0,1,.129,1.566l2.687-.719-.23-1.437S14187.311,1036.427,14187.371,1036.485Z" fill="#c7a496"/><path d="M14188.8,1060.469s-.876.08-.859.592c0,.213.489.609.919,1.1.6.7.887,1.414,1.492,1.37.934,0,.378-2,.378-2Z"/><path d="M14190.339,1049.1l-3.589,1.109a44.687,44.687,0,0,1,1.608,5.993c.086,1.394.312,4.821.312,5.032,0,1.227,2.408.733,2.408-.021s.464-3.872-.761-6.437C14190.319,1054.216,14190.339,1049.1,14190.339,1049.1Z" fill="#212121"/><path d="M14187.64,1053.088a5.333,5.333,0,0,1,.711-1.953,6.828,6.828,0,0,0,1.984-1.642l-2.7,1.11Z"/><path d="M14184.64,1063.86s-2.5.528-2.5.9c0,.856.98,1.032,1.336,1.007s2.838-.111,3.465-.244.324-1.424.324-1.424Z"/><path d="M14184.5,1050.581s.169,6.285.332,7.356c.137.927.438,5.127-.384,5.937a4.034,4.034,0,0,0,2.976.441s.672-5.347-.116-7.039c.116-1.9.6-7.066.6-7.066Z" fill="#212121"/><path d="M14184.443,1050.917a2.435,2.435,0,0,0,3.386.079C14187.981,1050.717,14184.443,1050.917,14184.443,1050.917Z"/><path d="M14190.339,1037.332a6.666,6.666,0,0,1-2.968.555s-2.71,1.6-2.928,2.955-.686,9.58-.686,9.58a3.492,3.492,0,0,0,2.661.932,7.645,7.645,0,0,0,4.373-2.383c.242-.593-.836-2.725-.836-4.74,0-1.271,1.841-3.232,1.841-5.232C14192.04,1037.75,14190.339,1037.332,14190.339,1037.332Z" fill="#212121"/><path d="M14186.481,1034.073a10.2,10.2,0,0,0,.011,2.38c.405.4,1.64.017,1.64.017l.19-2.311-1.293-1.2A2.567,2.567,0,0,0,14186.481,1034.073Z" fill="#f0c6b4"/><path d="M14181.462,1050.792a1.3,1.3,0,0,0-.551,1.032v3.9l4.956,2.86.883-4.993-4.886-2.8A.33.33,0,0,0,14181.462,1050.792Z" fill="#915e33"/><path d="M14186.418,1053.654a1.3,1.3,0,0,0-.551,1.03v3.9l1.1-.637v-3.892C14186.966,1053.656,14186.72,1053.476,14186.418,1053.654Z" fill="#57391e"/><path d="M14180.91,1053.76l4.957,2.851v-.161l-4.957-2.853Z" fill="#57391e"/><path d="M14181.708,1054l.389.847.137-.078v-.621l-.394-.223Z" fill="#ff9800"/><path d="M14181.708,1054.626l.389.224v-.623l-.389-.224Z" fill="#f5b400"/><path d="M14184.481,1055.606l.387.844.138-.08v-.62l-.393-.223Z" fill="#ff9800"/><path d="M14184.481,1056.225l.387.226v-.622l-.387-.222Z" fill="#f5b400"/><path d="M14183.037,1051.04l.158.094.159-.094-.159-.092Z" fill="#c4c4c4"/><path d="M14183.2,1051.911l.159-.09v-.78l-.159.094Z" fill="#a6a6a6"/><path d="M14183.037,1051.821l.158.09v-.776l-.158-.094Z" fill="#8a8a8a"/><path d="M14183.268,1050.991a.4.4,0,0,0-.186.316.139.139,0,0,0,.054.119l.051.03a.134.134,0,0,1-.052-.12.407.407,0,0,1,.184-.316.121.121,0,0,1,.128-.01l-.053-.03A.12.12,0,0,0,14183.268,1050.991Z" fill="#57391e"/><path d="M14183.318,1051.02a.407.407,0,0,0-.184.316c0,.118.083.166.184.108a.414.414,0,0,0,.183-.316C14183.5,1051.011,14183.416,1050.962,14183.318,1051.02Z" fill="#242424"/><path d="M14184.8,1051.794l-1.357-.784a.121.121,0,0,0-.128.01.407.407,0,0,0-.184.316.134.134,0,0,0,.052.12l1.359.784.015-.006a.194.194,0,0,0,.082-.023.415.415,0,0,0,.185-.317.174.174,0,0,0-.021-.084Z" fill="#915e33"/><path d="M14184.626,1051.778a.4.4,0,0,0-.183.317.13.13,0,0,0,.052.116l.051.029a.125.125,0,0,1-.051-.119.4.4,0,0,1,.182-.315.125.125,0,0,1,.127-.012l-.049-.033A.138.138,0,0,0,14184.626,1051.778Z" fill="#57391e"/><path d="M14184.677,1051.806a.4.4,0,0,0-.182.315c0,.117.08.163.182.106a.4.4,0,0,0,.182-.316C14184.858,1051.794,14184.777,1051.749,14184.677,1051.806Z" fill="#57391e"/><path d="M14184.605,1051.948l.162.092.157-.092-.157-.092Z" fill="#c4c4c4"/><path d="M14184.768,1052.82l.157-.094v-.778l-.157.092Z" fill="#a6a6a6"/><path d="M14184.605,1052.727l.162.094v-.78l-.162-.092Z" fill="#8a8a8a"/><path d="M14183.988,1050.21s-1.032.878-1.017,1.269a.783.783,0,0,0,.347.657c.166.148,1,.423,1.228.1-.247-.142-.345-.2-.236-.419.063-.129.134-.108.222-.185a1.447,1.447,0,0,0,.561-1.049C14185.092,1050.43,14183.988,1050.21,14183.988,1050.21Z" fill="#f0c6b4"/><path d="M14183.807,1050.246a1.4,1.4,0,0,0,1.354.45l.257-.764-1.4-.473A4.65,4.65,0,0,0,14183.807,1050.246Z" fill="#fff"/><path d="M14187.194,1039.591c-1.889-.5-2.021,1.562-2.021,1.562l-.307,4.481s-1.01,3.32-1.108,3.546c.213,1.179,1.942,1.193,2.069.8s.98-3.067,1.26-3.731.418-4.177.61-4.644S14188.206,1039.858,14187.194,1039.591Z" fill="#141414"/><path d="M14186.98,1037.609l-.183.647s3.541-.388,3.541-.924c-.02-.294-.02-.294-.091-.366A13.008,13.008,0,0,1,14186.98,1037.609Z" fill="#fff"/><path d="M14187.594,1032.19c-.331-.053-.4.157-.607.452-.113.237.127.455,0,.7a.9.9,0,0,0-.059.775,2.182,2.182,0,0,0,.105,1.015c.591.052.564.825.564.825v.364c.06,1.3,1.806,1.112,1.806,1.112s1.622-.265,1.374-3.352C14190.629,1032.329,14188.132,1031.094,14187.594,1032.19Z" fill="#915e33"/><path d="M14187.8,1032.226a3.057,3.057,0,0,1,2.154,1.363A2.052,2.052,0,0,0,14187.8,1032.226Z" fill="#6e4826"/><path d="M14125.1,1001.529l25.116,5.285-25.116,22.9Z" fill="#fff" opacity="0.8"/><path d="M14069.621,995.818l22.779,20.6-22.779,7.586Z" fill="#fff" opacity="0.8"/></g></svg>