<svg width="159" height="156" viewBox="0 0 159 156" fill="none" xmlns="http://www.w3.org/2000/svg">
<path opacity="0.1" d="M37.5193 134.963C34.7483 136.348 34.0093 138.196 35.7643 139.027C37.5193 139.858 41.1216 139.489 43.8926 138.103C46.6636 136.718 47.4026 134.871 45.6476 134.039C43.8926 133.208 40.1979 133.577 37.5193 134.963Z" fill="#0D0506"/>
<path d="M36.5033 133.762C36.8728 133.855 37.3346 133.855 37.7041 133.855C37.8888 133.855 38.0736 133.855 38.2583 133.855L37.427 136.071L37.7965 137.919L36.0415 137.549L36.411 135.702L36.5033 133.762Z" fill="#E9B965"/>
<path d="M36.6882 114.18C36.6882 113.996 38.3508 114.18 38.3508 114.18C38.3508 114.18 37.4271 117.044 36.9653 117.69C36.5958 118.244 37.889 118.522 38.7203 119.445C38.5355 120.092 38.2584 120.738 38.1661 121.385C38.1661 121.477 38.1661 121.662 38.1661 121.754V121.847L37.7042 120.092C37.7042 120.092 35.5798 119.26 35.4874 118.799C35.3027 116.859 36.6882 114.457 36.6882 114.18Z" fill="#E9B965"/>
<path d="M40.8447 112.61L40.5676 111.317C40.5676 111.317 41.1218 111.687 41.3065 111.502C41.4912 111.317 41.5836 108.731 41.5836 108.731C41.5836 108.731 41.5836 107.438 40.5676 107.899C39.5515 108.361 38.3508 108.084 38.6279 109.47C38.905 110.855 39.0897 112.425 38.7202 112.518C38.166 112.795 40.6599 113.719 40.8447 112.61Z" fill="#FBCD74"/>
<path d="M37.7962 137.18C37.7962 137.18 37.7038 137.457 37.5191 137.365C37.3343 137.272 37.1496 136.718 36.7801 136.81C36.4106 136.903 36.0412 137.642 36.0412 137.642L35.8564 138.565C35.8564 138.565 36.1335 138.104 36.503 138.196C36.7801 138.381 37.3343 138.75 37.3343 138.75C37.3343 138.75 38.8122 138.935 38.7198 138.473C38.6275 138.104 38.7198 137.826 38.3504 137.642C37.9809 137.457 37.7962 137.18 37.7962 137.18Z" fill="#221132"/>
<path d="M38.535 138.75C38.535 138.75 37.9808 138.935 37.2419 138.842C36.4106 138.75 35.9487 138.565 35.9487 138.565C35.9487 138.565 35.9487 138.196 36.4106 138.196C36.78 138.196 38.3503 138.75 38.535 138.75Z" fill="#423432"/>
<path d="M43.5233 126.188V128.867V130.252V131.638L43.3386 134.132C43.3386 134.132 43.8928 134.594 43.8004 134.778C43.8004 134.963 43.3386 135.517 43.1538 135.517C42.8767 135.61 42.2302 135.333 42.1378 135.148C42.0454 134.871 41.7683 131.453 41.7683 131.453V130.068L40.3828 125.726L43.5233 126.188Z" fill="#FBCD74"/>
<path d="M38.258 120.738L37.7962 121.662C37.6114 122.031 37.7038 121.847 37.7038 122.124L37.3343 129.051C37.3343 129.051 36.8725 130.529 36.7801 131.083C36.4106 132.561 35.8564 136.903 35.8564 136.903C36.0412 137.272 36.8725 137.734 38.1656 137.18L39.8282 129.883L40.3824 124.71L41.3061 120.738H38.258Z" fill="#301E62"/>
<path d="M43.523 134.316C43.523 134.316 43.6153 134.778 43.8001 134.871C43.9848 134.871 43.3382 135.702 42.8764 135.517C42.4146 135.332 42.2298 135.24 42.2298 135.148C42.2298 135.055 42.1375 135.425 42.2298 135.425C42.3222 135.517 41.9527 135.979 42.1375 136.256C42.3222 136.533 43.2459 136.626 43.4306 136.441C43.6153 136.256 43.523 136.164 43.8924 136.071C44.2619 135.979 45.2779 135.425 45.3703 134.963C45.4627 134.409 45.3703 133.947 44.7237 134.132C43.9848 134.224 43.523 134.316 43.523 134.316Z" fill="#221132"/>
<path d="M43.0611 121.385L44.0772 134.501C43.7077 135.61 42.4146 136.256 41.6756 135.61L39.1817 122.124L39.0894 119.445L43.0611 121.385Z" fill="#3B1F78"/>
<path d="M37.7963 116.028C37.7963 116.028 36.4108 115.658 36.226 115.381C35.9489 115.196 37.1497 111.871 37.8886 111.964C38.4429 112.056 39.6436 111.964 37.7963 116.028Z" fill="#744C9B"/>
<path d="M42.5995 112.518C42.5995 112.518 43.5231 115.566 43.0613 116.582C42.5071 117.875 42.7842 119.907 43.3384 121.108C43.5231 121.57 42.5995 122.401 41.6758 122.586C40.2903 122.863 38.2582 122.401 37.704 122.309C37.5193 122.309 38.0735 121.108 38.1658 119.815C38.2582 118.429 37.1498 112.887 37.7964 112.056C38.1658 111.317 41.7682 111.963 42.5995 112.518Z" fill="#9574B2"/>
<path d="M42.9687 114.365C42.9687 114.365 43.7076 116.12 43.6153 117.044C43.5229 117.967 44.0771 118.337 44.0771 120.554C44.0771 122.77 44.6313 123.602 44.4466 124.525C44.2618 125.357 43.4305 126.465 43.3382 125.726C43.2458 124.987 43.4305 123.694 43.4305 123.694L42.4145 119.538V117.967C42.4145 117.967 41.4908 114.55 41.3984 114.365C41.4908 114.18 42.9687 114.365 42.9687 114.365Z" fill="#FBCD74"/>
<path d="M43.9848 116.212C43.9848 116.212 42.1374 116.674 41.768 116.674C41.3985 116.582 40.8443 113.257 41.5832 112.795C41.8603 112.518 43.2458 111.225 43.9848 116.212Z" fill="#B69DC9"/>
<path d="M41.0292 106.976L41.7681 107.899C41.7681 107.899 41.491 107.807 41.491 107.992C41.491 108.084 41.8605 108.823 41.8605 108.823C41.8605 108.823 41.5834 108.638 41.5834 108.731C41.5834 109.654 41.0292 109.562 41.0292 109.562C41.0292 109.562 41.0292 108.454 40.6597 109.008C40.2902 109.562 40.5673 110.116 40.5673 110.116L40.0131 111.317H38.9971C38.9047 111.317 38.3505 110.486 37.981 109.931C37.981 109.839 37.8887 110.301 37.8887 110.301V109.562L37.7039 109.747C37.7039 109.747 37.3345 108.269 37.3345 108.084C37.6116 107.438 38.6276 105.498 41.0292 106.976Z" fill="#573123"/>
<path d="M38.8124 106.791C38.8124 106.791 37.704 107.53 37.6116 108.084C37.5193 108.638 37.7964 109.377 37.7964 109.377L37.9811 109.193C37.9811 109.193 38.0735 109.654 38.3506 110.116C37.7964 109.1 38.5353 106.976 38.8124 106.791Z" fill="#814E36"/>
<path d="M37.6118 114.458C37.6118 114.458 38.3508 118.799 38.2584 119.445C38.166 120.092 38.0737 120.831 37.9813 121.108C37.8889 121.385 39.4592 119.815 39.7363 118.891C40.1057 118.06 37.6118 114.458 37.6118 114.458Z" fill="#8E6BAC"/>
<path d="M40.66 110.116C40.66 110.116 40.1982 110.763 39.9211 110.948C39.5516 111.132 38.0737 110.024 38.0737 110.024C38.0737 110.024 38.8127 111.317 39.0898 111.409C39.644 111.409 40.1058 111.409 40.1058 111.409L40.66 110.116Z" fill="#45251C"/>
<path d="M21.54 114.18L21.6324 114.919L21.7248 115.289L22.0019 115.843C22.0942 116.028 22.279 115.935 22.279 115.843L22.4637 116.12C22.5561 116.305 22.8332 116.12 22.6484 115.935L22.4637 115.381L22.8332 116.028C23.0179 116.212 23.2027 116.12 23.1103 115.843L22.8332 115.104L23.1103 115.658C23.2027 115.751 23.4798 115.751 23.3874 115.473L23.0179 114.457C23.0179 114.457 22.9255 114.273 23.0179 114.088C23.1103 113.996 23.5721 114.273 23.5721 114.273C23.7569 114.365 23.9416 114.457 24.034 114.55C24.2187 114.55 24.3111 114.55 24.2187 114.457L23.8492 114.088L23.4798 113.719L23.295 113.534C23.0179 113.349 22.7408 113.164 22.5561 113.164V113.072V112.887L22.1866 112.98L21.6324 113.072V113.534V113.719L21.54 114.18Z" fill="#FFBAA8"/>
<path d="M23.1104 113.996L22.3714 113.811L22.002 114.55L22.3714 115.843C22.3714 115.473 22.3714 115.104 22.5562 115.012L22.9256 114.919L22.6485 114.734L22.7409 114.457L23.3875 114.365L23.1104 113.996Z" fill="#FFBAA8"/>
<path d="M23.2949 104.759L23.1101 107.53L22.9254 109.839C22.7407 111.132 22.5559 112.241 22.6483 112.887C22.6483 112.98 22.6483 112.98 22.6483 113.072C22.5559 113.257 22.4636 113.349 22.2788 113.534C22.0941 113.626 21.9094 113.719 21.7246 113.719C21.3552 112.333 21.1704 111.04 21.2628 110.024L21.4475 107.345C21.4475 105.775 21.817 104.574 23.2949 104.759Z" fill="#69B2E6"/>
<path d="M23.5718 113.626L22.1863 113.441C22.371 113.349 22.5557 113.164 22.5557 112.979V113.072C22.7405 113.072 23.0176 113.257 23.2947 113.441L23.5718 113.626Z" fill="#FFBAA8"/>
<path d="M22.8333 109.747C22.6486 111.04 22.4639 112.148 22.5562 112.795C22.5562 112.887 22.5562 112.887 22.5562 112.98C22.4639 113.164 22.3715 113.257 22.1868 113.441C22.1868 113.257 22.1868 113.072 22.1868 112.98C22.0944 110.393 21.3555 108.269 22.1868 107.16L23.0181 107.53L22.8333 109.747Z" fill="#69B2E6"/>
<path d="M29.8533 130.252C29.8533 129.791 29.4839 129.513 28.9297 129.513C28.4678 129.513 27.7289 129.698 26.8976 129.975L25.8816 130.529C25.6968 131.084 25.6968 131.546 25.7892 131.915C26.0663 132.192 26.4358 132.284 26.8052 132.192L27.9136 131.73L28.006 131.546C28.8373 131.453 29.8533 130.991 29.8533 130.252Z" fill="#1D1D1B"/>
<path d="M26.1588 128.22C26.1588 127.851 25.7893 127.758 25.2351 127.666C24.2191 127.666 24.2191 128.128 23.2954 128.128L22.3717 128.682C22.187 129.236 22.187 129.79 22.3717 130.16C22.6488 130.437 23.0183 130.437 23.3877 130.437L24.3114 129.883L24.4038 129.698C25.2351 129.606 26.1588 128.959 26.1588 128.22Z" fill="#1D1D1B"/>
<path d="M22.9257 114.18L26.251 115.566C26.251 116.12 26.251 116.674 26.1586 117.136C25.9738 118.614 25.3273 120.923 25.3273 120.923C24.8654 122.863 24.6807 125.265 24.5883 127.851C24.5883 128.774 23.2028 129.606 22.2792 128.682C22.0021 125.542 22.0021 122.493 22.741 120.554C22.3715 118.984 22.741 117.229 22.8334 115.381C22.8334 115.381 23.0181 114.273 22.9257 114.18Z" fill="#1D1D1B"/>
<path d="M25.4199 117.505C25.4199 119.353 25.4199 120.831 25.8817 122.401C25.2352 124.433 25.4199 127.389 25.8817 130.529C26.4359 131.083 27.1749 131.083 27.6367 130.806C27.9138 130.622 28.0986 130.252 28.0986 129.79L28.468 122.863C28.468 122.863 28.9299 120.554 29.1146 119.076C29.207 117.598 28.7451 114.088 28.7451 114.088C28.468 114.18 28.1909 114.18 27.8215 114.273C25.8817 114.55 24.0344 113.811 23.4802 112.702C23.4802 112.795 23.3878 112.887 23.3878 112.979C23.2031 113.626 23.0184 114.365 23.0184 115.104C22.8336 116.489 24.4039 117.044 25.4199 117.505Z" fill="#3C3C3B"/>
<path d="M29.0221 108.084C28.8374 109.1 28.8374 110.116 28.8374 111.04C28.8374 111.409 28.8374 111.779 28.8374 112.056C28.8374 112.702 28.745 113.349 28.5603 113.903C28.2832 113.996 28.0061 114.088 27.729 114.18C26.0664 114.735 24.4961 114.457 23.2953 112.702C23.0182 111.964 22.1869 109.562 22.0022 106.976C22.0022 105.775 22.3717 104.944 23.3877 104.667C25.1427 105.128 26.99 106.144 28.745 107.715C28.745 107.992 28.9297 107.992 29.0221 108.084Z" fill="#69B2E6"/>
<path d="M27.0826 104.944L26.8978 106.514C25.8818 106.514 24.2192 105.775 24.4963 105.221L25.0505 104.205L27.0826 104.944Z" fill="#FFBAA8"/>
<path d="M27.5441 105.128C27.1747 105.59 26.5281 105.498 25.8815 105.405C24.9579 104.944 24.3113 104.389 24.4036 103.189C24.3113 102.357 24.6808 101.434 26.1586 101.434C27.0823 101.434 27.9136 101.803 27.9136 102.819C28.006 102.727 28.0983 104.666 27.5441 105.128Z" fill="#FFBAA8"/>
<path d="M26.9901 105.96L27.3595 106.791C25.6045 106.606 24.0343 105.96 24.4038 105.128L24.6809 104.759C24.4961 105.313 26.2511 106.052 26.9901 105.96Z" fill="#6BD8EB"/>
<path d="M28.0061 102.542C27.9138 102.912 27.729 103.189 27.4519 103.373C27.4519 103.373 27.5443 104.112 27.4519 104.205L26.9901 104.574L26.8054 105.128C26.0664 105.59 25.0504 105.221 24.7733 104.759C24.5885 104.482 24.4038 103.558 24.4038 102.634C24.4962 101.896 25.0504 101.157 26.2512 101.064C27.3596 101.064 28.0985 101.711 28.0061 102.542Z" fill="black"/>
<path d="M27.3593 104.205C27.4517 104.112 27.2669 103.743 27.1746 103.743C26.9898 103.651 26.8975 103.928 26.8975 104.112C26.8975 104.297 26.8975 104.482 26.9898 104.574C27.0822 104.759 27.2669 104.574 27.3593 104.39C27.3593 104.39 27.2669 104.297 27.3593 104.205Z" fill="#FFBAA8"/>
<path opacity="0.25" d="M28.9295 118.891C28.8372 120.369 28.283 122.678 28.283 122.678L27.9135 129.606C28.0059 130.068 27.8211 130.437 27.4517 130.622C27.7288 127.666 27.9135 124.987 27.4517 122.863C28.0982 120.461 28.3753 117.967 27.6364 116.12C27.6364 115.381 27.7288 114.735 27.544 114.18C27.8211 114.088 28.0982 113.996 28.3753 113.903C28.5601 113.903 29.1143 117.413 28.9295 118.891Z" fill="black"/>
<path d="M26.1587 121.94C26.1587 121.663 26.3434 121.385 26.5282 121.293L32.0702 117.691C32.2549 117.598 32.4397 117.691 32.4397 117.876L32.532 119.353L32.7168 122.309C32.7168 122.586 32.532 122.863 32.3473 122.956L26.8053 126.558C26.6205 126.65 26.4358 126.558 26.4358 126.373L26.2511 123.418L26.1587 121.94Z" fill="#575756"/>
<path d="M32.3471 117.598L32.7165 117.967L26.8974 126.835L26.4355 126.558L32.3471 117.598Z" fill="#575756"/>
<path d="M26.6207 122.216L26.8054 126.558C26.8054 126.835 26.9902 126.927 27.1749 126.742L32.717 123.14C32.9017 123.048 33.0864 122.678 33.0864 122.493L32.9017 118.152C32.9017 117.875 32.717 117.783 32.5322 117.967L26.9902 121.57C26.7131 121.755 26.5283 122.032 26.6207 122.216Z" fill="#1D1D1B"/>
<path d="M26.6207 122.216L26.7131 123.694C26.7131 124.156 27.0825 124.341 27.452 124.064L32.3475 120.923C32.717 120.646 33.0864 120.092 32.9941 119.63L32.9017 118.152C32.9017 117.875 32.717 117.783 32.5322 117.967L26.9902 121.57C26.7131 121.755 26.5283 122.032 26.6207 122.216Z" fill="#444443"/>
<path d="M29.7604 123.417L30.0375 123.233C30.1299 123.14 30.2223 123.048 30.2223 122.955L30.1299 121.755L29.5757 122.124L29.668 123.325C29.5757 123.417 29.6681 123.417 29.7604 123.417Z" fill="white"/>
<path d="M29.3914 122.678L30.2227 122.124C30.3151 122.124 30.3151 122.032 30.3151 121.939V121.662C30.3151 121.57 30.2227 121.57 30.2227 121.57L29.3914 122.124C29.2991 122.124 29.2991 122.216 29.2991 122.309V122.586C29.2991 122.678 29.2991 122.771 29.3914 122.678Z" fill="white"/>
<path d="M30.2229 118.244V118.983H30.5924V118.521C30.5924 118.429 30.5924 118.337 30.5 118.244H30.2229Z" fill="#1D1D1B"/>
<path d="M30.3154 118.891C30.223 118.891 30.223 118.983 30.3154 119.076C30.4077 119.076 30.5001 119.076 30.5925 119.076C30.6848 119.076 30.6848 118.983 30.5925 118.891C30.5001 118.799 30.4077 118.799 30.3154 118.891Z" fill="#382C2D"/>
<path d="M29.9461 118.983L30.5003 118.614L30.2232 118.152L29.6689 118.522L29.9461 118.983Z" fill="#382C2D"/>
<path d="M29.5764 118.614C29.5764 118.706 29.6688 118.891 29.7612 118.983C29.8535 119.076 29.9459 118.983 29.9459 118.891C29.9459 118.799 29.8535 118.614 29.7612 118.522C29.6688 118.429 29.5764 118.522 29.5764 118.614Z" fill="#3D5A55"/>
<path d="M30.2231 118.245V118.337C30.2231 118.429 30.3155 118.522 30.4079 118.522C30.5002 118.522 30.5002 118.522 30.5002 118.522L30.5926 118.429C30.5926 118.337 30.5926 118.245 30.5002 118.152L30.4079 118.06C30.3155 118.06 30.3155 118.06 30.3155 118.06C30.2231 118.152 30.2231 118.152 30.2231 118.245Z" fill="#1D1D1B"/>
<path d="M30.1305 117.69L30.5923 118.706C30.6847 118.983 30.6847 119.261 30.4076 119.445C30.2228 119.722 29.8534 119.907 29.3915 119.999L28.745 119.63L28.8373 119.076C28.5602 118.891 28.5602 118.429 28.745 117.967C29.2992 117.598 29.6686 117.506 30.1305 117.69Z" fill="#FFBAA8"/>
<path opacity="0.1" d="M28.9296 118.799L29.3914 119.26L29.2067 119.63L29.022 119.538C28.9296 119.722 28.8372 119.722 28.7449 119.63V119.445L28.9296 118.799Z" fill="#1D1D1B"/>
<path d="M28.6524 119.815L29.2066 119.445L28.9295 118.983L28.283 119.353L28.6524 119.815Z" fill="#4D4D4D"/>
<path d="M28.2827 119.538C28.2827 119.63 28.3751 119.815 28.4674 119.907C28.5598 119.999 28.6522 119.907 28.6522 119.815C28.6522 119.722 28.5598 119.538 28.4674 119.445C28.3751 119.353 28.2827 119.445 28.2827 119.538Z" fill="#4D4D4D"/>
<path d="M28.8369 119.168C28.8369 119.261 28.9293 119.445 29.0216 119.538C29.114 119.63 29.2064 119.538 29.2064 119.445C29.2064 119.353 29.114 119.168 29.0216 119.076C28.9293 118.983 28.8369 118.983 28.8369 119.168Z" fill="#1D1D1B"/>
<path d="M28.6524 119.815L29.2066 119.445L28.9295 118.983L28.283 119.353L28.6524 119.815Z" fill="#1D1D1B"/>
<path d="M28.2827 119.538C28.2827 119.63 28.3751 119.815 28.4674 119.907C28.5598 119.999 28.6522 119.907 28.6522 119.815C28.6522 119.722 28.5598 119.538 28.4674 119.445C28.3751 119.353 28.2827 119.445 28.2827 119.538Z" fill="#1D1D1B"/>
<path d="M28.6338 119.525L28.2649 119.544L28.3036 120.282L28.6726 120.263L28.6338 119.525Z" fill="#1D1D1B"/>
<path d="M28.3749 120.184C28.2826 120.184 28.2826 120.277 28.3749 120.369C28.4673 120.369 28.5597 120.369 28.652 120.369C28.7444 120.369 28.7444 120.277 28.652 120.184C28.5597 120.092 28.4673 120.092 28.3749 120.184Z" fill="#1D1D1B"/>
<path d="M26.805 109.562L26.4355 114.457L28.1905 117.044L28.4676 112.795L26.805 109.562Z" fill="#69B2E6"/>
<path d="M28.2833 107.53C29.0222 107.992 29.3917 108.269 29.484 109.747L29.2993 113.811L30.223 117.69C30.1306 118.152 29.2069 118.337 28.8375 118.06C28.1909 117.044 27.9138 116.213 27.2672 114.458L26.8977 110.024C26.713 108.361 26.713 107.253 28.2833 107.53Z" fill="#69B2E6"/>
<path d="M4.63696 82.4981C4.63696 82.4981 4.91406 81.9439 5.00643 81.7592C5.19117 81.5744 5.83774 81.205 6.11484 81.3897C6.39194 81.6668 5.74537 82.221 5.74537 82.221C5.74537 82.221 5.46827 82.9599 5.3759 82.9599C5.28353 83.0523 4.63696 82.4981 4.63696 82.4981Z" fill="#F0C6B4"/>
<path d="M6.02263 82.2212C6.02263 82.3136 5.74553 82.5907 5.56079 82.683C5.37606 82.7754 5.37606 82.683 5.28369 82.5907C5.28369 82.4983 5.37606 82.4059 5.56079 82.3136C5.74553 82.2212 5.93026 82.2212 6.02263 82.2212Z" fill="#F0C6B4"/>
<path d="M2.32778 99.8633C2.32778 99.8633 2.78962 99.5862 3.15908 99.6785C3.52855 99.7709 3.34382 100.14 3.34382 100.14C3.34382 100.14 2.78962 100.879 2.60488 101.064C2.42015 101.249 2.32778 101.711 2.14304 101.988C1.95831 102.265 1.49647 102.08 1.40411 101.895C1.31174 101.711 1.49647 101.156 1.40411 100.417C1.40411 100.233 2.32778 99.8633 2.32778 99.8633Z" fill="white"/>
<path d="M0.942304 88.502C0.757569 91.1806 1.31177 93.4898 0.849936 95.1524C0.295732 97.4616 1.21941 98.9395 1.40414 100.325C1.49651 100.972 2.60492 100.787 2.51255 100.233C2.23545 98.57 2.51255 97.8311 2.51255 95.5219C2.32781 95.1524 3.62096 92.6585 4.17516 90.1646C4.08279 89.7951 1.12704 88.3173 0.942304 88.502Z" fill="#BCBEC0"/>
<path d="M5.56032 100.417C6.39163 100.602 7.0382 100.51 7.22293 100.694C7.40767 100.879 7.50003 101.341 6.85346 101.526C6.29926 101.711 4.08244 101.895 3.80534 101.803C3.62061 101.711 3.62061 100.879 3.62061 100.879C3.62061 100.879 5.19085 100.325 5.56032 100.417Z" fill="white"/>
<path d="M5.83761 87.6708C6.11471 89.1487 5.74524 94.506 5.5605 95.3373C4.7292 98.6625 5.5605 100.325 5.5605 100.325C5.5605 100.325 4.7292 101.341 3.80553 100.695C3.80553 98.7549 2.97422 97.6465 3.80553 95.4297C3.89789 95.1526 3.15895 90.4418 3.15895 90.4418C3.15895 90.4418 0.942139 89.7953 0.942139 88.5021C0.942139 87.6708 1.77344 86.3777 1.77344 86.3777L3.43606 87.1166C3.34369 87.3014 4.7292 87.7632 5.83761 87.6708Z" fill="white"/>
<path d="M5.74523 86.8394L5.8376 87.6707C5.8376 87.6707 4.45209 88.8714 1.77344 86.4699C1.8658 86.2852 1.95817 86.0081 1.95817 86.0081L5.74523 86.8394Z" fill="#303033"/>
<path d="M0.480439 80.5584C1.12701 80.1889 1.58885 81.0202 1.77358 81.6668C1.95832 82.3134 2.23542 82.8676 2.42015 83.2371C2.60489 83.6065 1.58885 84.3455 1.31174 83.976C1.12701 83.6065 0.665173 82.8676 0.295704 82.3134C-0.166133 81.6668 -0.0737654 80.8355 0.480439 80.5584Z" fill="#0F1734"/>
<path d="M5.46847 84.3456C5.46847 84.3456 6.02267 84.0685 5.93031 83.4219C5.74557 82.683 4.08296 82.0364 4.08296 82.0364L3.71349 81.0203L0.850102 80.6509L0.665368 80.7432C0.665368 80.7432 0.295898 81.1127 0.295898 82.2211C0.295898 83.3295 2.05088 86.0082 2.05088 86.0082C2.05088 86.0082 4.8219 88.3174 5.83794 86.8395C5.74557 86.3777 5.3761 84.6227 5.46847 84.3456Z" fill="#202B57"/>
<path d="M3.25142 76.5867C4.26746 76.4943 4.63693 77.0485 4.82166 77.5104C5.0064 77.9722 4.45219 80.5585 4.54456 82.1287C4.17509 82.2211 3.52852 81.6669 3.52852 81.6669C3.52852 81.6669 3.15905 81.8517 3.25142 82.2211C1.95827 82.1288 1.49644 81.3898 1.49644 81.3898C1.49644 81.3898 1.40407 81.4822 1.49644 81.8516C0.203294 81.4822 0.388029 80.5585 0.388029 80.5585C0.388029 80.5585 0.849866 76.1249 3.25142 76.5867Z" fill="#6E4826"/>
<path d="M2.14331 77.141C2.51278 76.9563 3.25172 76.6792 3.25172 76.6792C3.25172 76.6792 2.32805 76.7716 2.14331 77.141Z" fill="#3C2415"/>
<path d="M5.93019 85.3617L6.02255 85.5464C6.20729 85.2693 6.66912 84.7151 6.76149 84.438C6.76149 84.438 6.66912 84.1609 6.57676 83.9762C6.48439 83.7914 6.57676 83.422 6.66912 83.3296C6.76149 83.3296 6.85386 83.6991 6.94623 83.6991C7.03859 83.6991 7.22333 83.2372 7.22333 83.2372C7.22333 83.2372 7.03859 82.7754 7.22333 82.7754C7.40806 82.7754 7.77753 83.3296 7.8699 83.6991C7.96227 84.0685 7.3157 84.8075 7.3157 84.8075C7.3157 84.8075 6.85386 86.7472 6.48439 87.0243C6.20729 87.3014 5.83782 87.3938 5.56072 87.3014C5.28361 87.209 4.82178 86.1006 4.82178 86.1006L5.00651 85.454L5.56072 85.2693L5.93019 85.3617Z" fill="#F0C6B4"/>
<path d="M4.08264 82.6829C4.72921 82.3135 5.19104 83.1448 5.37578 83.7913C5.56051 84.4379 5.83761 84.9921 6.02235 85.3616C6.20708 85.731 5.19104 86.47 4.91394 86.1005C4.72921 85.731 4.26737 84.9921 3.8979 84.4379C3.52843 83.7913 3.6208 82.96 4.08264 82.6829Z" fill="#0F1734"/>
<g opacity="0.8">
<g opacity="0.8">
<path opacity="0.2" d="M77.831 73.6114L42.4974 94.0164C40.622 95.0666 40.622 96.792 42.4974 97.9173L77.831 118.322C79.7064 119.373 82.7072 119.373 84.5826 118.322L119.916 97.9173C121.792 96.8671 121.792 95.1416 119.916 94.0164L84.5076 73.6114C82.7072 72.5612 79.7064 72.5612 77.831 73.6114Z" fill="#B4FFFA"/>
<path opacity="0.15" d="M77.831 101.518L42.4974 121.923C40.622 122.973 40.622 124.699 42.4974 125.824L77.831 146.229C79.7064 147.279 82.7072 147.279 84.5826 146.229L119.916 125.824C121.792 124.774 121.792 123.048 119.916 121.923L84.5826 101.518C82.7072 100.468 79.7064 100.468 77.831 101.518Z" fill="#9BDFF5"/>
<g opacity="0.8">
<path opacity="0.8" d="M121.267 23.1243V68.9604C121.267 71.0609 119.766 73.6865 117.891 74.8118L84.5078 94.0915C83.6076 94.6166 82.3323 94.9166 81.132 94.9166C79.9317 94.9166 78.7314 94.6166 77.7562 94.0915L44.4481 74.8118C42.5726 73.7615 41.0723 71.1359 41.0723 68.9604V23.1243H121.267Z" fill="#F5FFFF"/>
<path opacity="0.8" d="M81.207 23.1243V94.8416C80.0067 94.8416 78.8064 94.5416 77.8312 94.0164L44.4481 74.8118C42.5726 73.7615 41.0723 71.1359 41.0723 68.9604V23.1243H81.207Z" fill="#C2ECFB"/>
<path opacity="0.8" d="M77.8317 0.843954L42.4981 21.2489C40.6227 22.2991 40.6227 24.0246 42.4981 25.1498L77.8317 45.5548C79.7072 46.605 82.7079 46.605 84.5833 45.5548L119.917 25.1498C121.792 24.0996 121.792 22.3742 119.917 21.2489L84.5083 0.843954C82.7079 -0.281318 79.7072 -0.281318 77.8317 0.843954Z" fill="#D9F4FF"/>
<path opacity="0.8" d="M77.8317 0.843954L42.4981 21.2489C40.6227 22.2991 40.6227 24.0246 42.4981 25.1498L77.8317 45.5548C79.7072 46.605 82.7079 46.605 84.5833 45.5548L119.917 25.1498C121.792 24.0996 121.792 22.3742 119.917 21.2489L84.5083 0.843954C82.7079 -0.281318 79.7072 -0.281318 77.8317 0.843954Z" fill="#D9F4FF"/>
</g>
</g>
</g>
<path opacity="0.1" d="M87.1355 132.565C90.3943 131.718 92.7449 129.911 92.3856 128.528C92.0264 127.146 89.0934 126.712 85.8346 127.558C82.5758 128.405 80.2253 130.212 80.5845 131.595C80.9438 132.977 83.8767 133.412 87.1355 132.565Z" fill="#0D0506"/>
<path d="M82.318 127.204C82.6875 127.296 83.1493 127.296 83.5188 127.296C83.7036 127.296 83.8883 127.296 84.073 127.296L83.2417 129.513L83.6112 131.453L81.8562 131.083L82.2257 129.236L82.318 127.204Z" fill="#E9B965"/>
<path d="M82.4106 107.53C82.4106 107.345 84.0732 107.53 84.0732 107.53C84.0732 107.53 83.1495 110.393 82.6877 111.04C82.3182 111.594 83.6114 111.871 84.4427 112.795C84.258 113.441 83.9809 114.088 83.8885 114.735C83.8885 114.827 83.8885 115.012 83.8885 115.104V115.196L83.4266 113.441C83.4266 113.441 81.3022 112.61 81.2098 112.148C81.0251 110.209 82.4106 107.807 82.4106 107.53Z" fill="#E9B965"/>
<path d="M86.5672 105.96L86.2901 104.666C86.2901 104.666 86.8443 105.036 87.029 104.851C87.2138 104.666 87.3061 102.08 87.3061 102.08C87.3061 102.08 87.3062 100.787 86.2901 101.249C85.2741 101.618 83.9809 101.434 84.258 102.911C84.5351 104.389 84.7199 105.867 84.3504 106.052C83.9809 106.237 86.4748 107.068 86.5672 105.96Z" fill="#FBCD74"/>
<path d="M83.5191 130.714C83.5191 130.714 83.4267 130.991 83.242 130.899C83.0572 130.806 82.8725 130.252 82.503 130.344C82.1335 130.437 81.7641 131.176 81.7641 131.176L81.5793 132.099C81.5793 132.099 81.8564 131.637 82.2259 131.73C82.503 131.915 83.1496 132.284 83.1496 132.284C83.1496 132.284 84.6275 132.469 84.5351 132.007C84.4427 131.637 84.5351 131.36 84.1656 131.083C83.7962 130.991 83.5191 130.714 83.5191 130.714Z" fill="#221132"/>
<path d="M84.2578 132.284C84.2578 132.284 83.7036 132.469 82.8723 132.376C82.041 132.284 81.4868 132.099 81.4868 132.099C81.4868 132.099 81.4868 131.73 81.9487 131.73C82.5029 131.73 84.1655 132.284 84.2578 132.284Z" fill="#423432"/>
<path d="M89.3379 119.63V122.401V123.786V125.172L89.1532 127.666C89.1532 127.666 89.7074 128.128 89.7074 128.405C89.7074 128.59 89.2455 129.144 89.0608 129.144C88.7837 129.236 88.1371 128.959 88.0448 128.774C87.9524 128.497 87.6753 125.08 87.6753 125.08V123.694L86.2898 119.353L89.3379 119.63Z" fill="#FBCD74"/>
<path d="M83.9809 114.18L83.5191 115.104C83.3343 115.473 83.4267 115.289 83.4267 115.566L83.0572 122.493C83.0572 122.493 82.5954 123.971 82.503 124.525C82.1335 126.003 81.5793 130.437 81.5793 130.437C81.7641 130.806 82.5954 131.268 83.8885 130.714L85.5511 123.417L86.1053 118.244L87.029 114.273H83.9809V114.18Z" fill="#301E62"/>
<path d="M89.3379 127.85C89.3379 127.85 89.4303 128.312 89.615 128.405C89.7997 128.405 89.1532 129.236 88.6913 129.051C88.2295 128.867 88.0448 128.774 88.0448 128.682C88.0448 128.589 87.9524 128.959 88.0448 128.959C88.1371 129.051 87.7677 129.513 87.9524 129.79C88.1371 130.067 89.0608 130.16 89.2455 129.975C89.4303 129.79 89.3379 129.698 89.7074 129.605C90.0768 129.513 91.0929 128.959 91.1853 128.405C91.2776 127.85 91.1853 127.389 90.5387 127.573C89.8921 127.758 89.3379 127.85 89.3379 127.85Z" fill="#221132"/>
<path d="M88.8761 114.827L89.8921 128.035C89.5227 129.144 88.2295 129.79 87.4906 129.144L84.9967 115.473L84.9043 112.795L88.8761 114.827Z" fill="#3B1F78"/>
<path d="M83.519 109.377C83.519 109.377 82.1335 109.008 81.8564 108.73C81.5793 108.546 82.7801 105.128 83.519 105.313C84.258 105.405 85.3664 105.313 83.519 109.377Z" fill="#D42E28"/>
<path d="M88.3218 105.867C88.3218 105.867 89.2455 109.007 88.7836 110.024C88.2294 111.317 88.5065 113.349 89.0607 114.55C89.2455 115.011 88.3218 115.843 87.3058 116.027C85.9203 116.304 83.7958 115.843 83.2416 115.75C83.0569 115.75 83.6111 114.55 83.7034 113.256C83.7958 111.778 82.6874 106.236 83.334 105.498C83.9805 104.574 87.5829 105.313 88.3218 105.867Z" fill="#E95857"/>
<path d="M88.7836 107.714C88.7836 107.714 89.5226 109.562 89.4302 110.393C89.3378 111.317 89.892 111.686 89.892 113.995C89.892 116.212 90.5386 117.136 90.2615 117.967C90.0768 118.798 89.2455 119.907 89.1531 119.168C89.0607 118.429 89.2455 117.136 89.2455 117.136L88.2294 112.979V111.409C88.2294 111.409 87.2134 107.991 87.2134 107.807C87.3057 107.53 88.7836 107.714 88.7836 107.714Z" fill="#FBCD74"/>
<path d="M89.8002 109.562C89.8002 109.562 87.9529 110.024 87.5834 110.024C87.2139 109.931 86.6597 106.606 87.3987 106.052C87.6758 105.867 89.0613 104.482 89.8002 109.562Z" fill="#F2ADAE"/>
<path d="M86.8441 100.325L87.583 101.249C87.583 101.249 87.3059 101.156 87.3059 101.341C87.3059 101.433 87.6754 102.172 87.6754 102.172C87.6754 102.172 87.3983 101.988 87.3983 102.08C87.3983 103.004 86.8441 102.911 86.8441 102.911C86.8441 102.911 86.8441 101.803 86.4746 102.357C86.1052 102.911 86.3823 103.466 86.3823 103.466L85.8281 104.666H84.812C84.7197 104.666 84.1655 103.835 83.796 103.281C83.796 103.188 83.7036 103.65 83.7036 103.65V102.911L83.5189 103.096C83.5189 103.096 83.1494 101.618 83.1494 101.341C83.4265 100.787 84.4426 98.8472 86.8441 100.325Z" fill="#573123"/>
<path d="M84.5351 100.048C84.5351 100.048 83.4266 100.787 83.3343 101.341C83.2419 101.895 83.519 102.634 83.519 102.634L83.7038 102.45C83.7038 102.45 83.7961 102.911 84.0732 103.373C83.519 102.45 84.3503 100.325 84.5351 100.048Z" fill="#814E36"/>
<path d="M83.4268 107.899C83.4268 107.899 84.2581 112.24 84.0733 112.887C83.981 113.534 83.8886 114.273 83.7962 114.55C83.7039 114.827 85.2741 113.256 85.5512 112.333C85.8283 111.409 83.4268 107.899 83.4268 107.899Z" fill="#E3534E"/>
<path d="M86.475 103.466C86.475 103.466 86.0131 104.112 85.736 104.297C85.3665 104.482 83.8887 103.373 83.8887 103.373C83.8887 103.373 84.6276 104.666 84.9047 104.759C85.4589 104.759 85.9208 104.759 85.9208 104.759L86.475 103.466Z" fill="#45251C"/>
<path opacity="0.25" d="M107.534 145.4C108.458 145.123 109.197 144.754 109.566 144.2L105.317 142.26L102.177 144.2L106.426 146.509C107.257 146.786 107.534 145.4 107.534 145.4Z" fill="url(#paint0_linear)"/>
<path opacity="0.25" d="M111.229 147.063C112.152 146.786 112.891 146.417 113.261 145.862L109.012 143.923L105.317 146.232L110.305 148.449C111.044 148.818 111.229 147.063 111.229 147.063Z" fill="url(#paint1_linear)"/>
<path d="M118.895 122.771C118.803 122.771 118.803 122.771 118.71 122.771C118.618 122.771 118.526 122.863 118.433 122.955L117.879 124.156L117.787 124.433L117.233 123.417L117.048 122.955C117.048 122.955 117.233 122.493 117.14 122.309C117.14 122.124 117.14 121.477 117.14 121.2C117.14 121.108 117.14 121.108 117.233 121.016C117.51 120.738 118.71 119.445 118.71 119.445C118.71 119.445 118.803 119.445 118.895 119.445C118.895 119.445 118.895 119.445 118.988 119.538C118.988 119.538 118.988 119.63 118.988 119.722C118.895 120 118.433 120.738 118.433 120.738C118.526 120.831 118.803 121.016 118.988 121.2C119.08 121.293 119.172 121.385 119.172 121.477C119.357 121.754 119.172 122.771 118.895 122.771Z" fill="#FEC9C9"/>
<path opacity="0.15" d="M119.08 119.538L117.602 121.385V123.417L117.325 123.51L117.14 123.048C117.14 123.048 117.325 122.586 117.232 122.401C117.232 122.216 117.232 121.57 117.232 121.293C117.232 121.2 117.232 121.2 117.325 121.108C117.602 120.831 118.803 119.538 118.803 119.538C118.895 119.445 118.987 119.445 119.08 119.538Z" fill="#CF3838"/>
<path d="M109.751 148.172C109.843 148.264 110.213 148.541 110.49 148.541H110.582C110.951 148.449 112.799 147.525 112.891 147.156C112.984 146.878 113.261 146.047 113.168 145.955C113.076 145.862 112.891 145.77 112.799 145.77C112.706 145.77 111.506 146.324 111.044 146.232C110.951 146.232 110.859 146.232 110.767 146.324C110.305 146.509 109.843 147.156 109.843 147.156C109.843 147.156 109.658 148.079 109.751 148.172Z" fill="#110812"/>
<path d="M106.148 146.047V146.139C106.241 146.232 106.333 146.509 106.703 146.509C106.887 146.509 107.072 146.509 107.257 146.509C107.442 146.416 107.626 146.416 107.811 146.232C107.996 146.047 108.365 145.493 108.642 145.308C109.012 145.031 109.566 144.661 109.566 144.661C109.566 144.661 109.566 144.292 109.566 144.2C109.566 144.107 108.642 144.2 108.458 144.292C108.273 144.384 107.626 144.754 107.442 144.846H107.349L106.241 145.216L106.148 146.047Z" fill="#110812"/>
<path d="M105.04 135.609C105.04 135.794 106.149 136.626 106.149 136.626L106.241 136.441L106.518 135.794L105.779 133.854L105.225 133.947L105.04 134.132C105.133 134.039 104.948 135.425 105.04 135.609Z" fill="#FEC9C9"/>
<path opacity="0.15" d="M105.04 135.609C105.04 135.794 106.149 136.626 106.149 136.626L106.241 136.441L106.518 135.794L105.779 133.854L105.225 133.947L105.04 134.132C105.133 134.039 104.948 135.425 105.04 135.609Z" fill="#CF3838"/>
<path d="M105.964 127.758C105.779 128.22 105.502 128.959 105.502 129.79C105.502 130.622 105.687 131.73 105.871 132.561C105.964 132.931 106.056 133.3 106.148 133.485C106.148 133.577 106.148 133.577 106.148 133.67V133.762C106.148 133.855 106.056 134.039 105.871 134.132C105.779 134.224 105.687 134.224 105.594 134.224C105.502 134.224 105.41 134.224 105.317 134.224C105.132 134.224 104.948 134.132 104.763 134.039C104.578 133.947 104.578 133.855 104.486 133.762C104.486 133.762 103.839 129.883 103.932 129.051C104.024 128.22 105.317 124.71 105.594 124.433C105.687 124.341 105.779 124.248 105.871 124.248C105.964 124.156 106.056 124.156 106.148 124.156V127.112C106.148 127.112 106.148 127.389 105.964 127.758Z" fill="#277A85"/>
<path d="M111.875 140.597L111.691 147.156C111.691 147.34 111.598 147.433 111.413 147.525C111.321 147.617 111.229 147.617 111.044 147.617C110.767 147.71 110.49 147.617 110.213 147.525C110.12 147.525 110.028 147.433 110.028 147.433C109.843 147.34 109.751 147.156 109.751 147.063V140.597L108.365 136.81C108.181 137.826 107.903 139.489 107.903 140.043C107.811 140.782 107.903 145.123 107.903 145.123C107.903 145.308 107.811 145.401 107.626 145.493C107.534 145.585 107.442 145.585 107.349 145.585C107.072 145.678 106.795 145.678 106.61 145.585C106.518 145.585 106.426 145.493 106.333 145.493C106.148 145.401 106.056 145.216 106.056 145.123C106.056 145.123 105.964 140.597 105.964 140.413C105.964 140.136 106.056 139.489 106.056 138.381C106.056 137.272 105.871 134.224 105.871 134.224C105.779 133.855 105.964 133.3 106.056 132.839C106.148 132.562 106.241 132.284 106.241 132.284L110.12 132.931L111.136 133.116C111.875 135.887 111.875 140.597 111.875 140.597Z" fill="#3B1F78"/>
<path d="M106.61 145.678C106.518 145.678 106.426 145.585 106.333 145.585C106.148 145.493 106.056 145.308 106.056 145.216C106.056 145.216 105.964 140.69 105.964 140.505C105.964 140.228 106.056 139.581 106.056 138.473C106.056 137.365 105.871 134.316 105.871 134.316C105.779 133.947 105.964 133.393 106.056 132.931L106.61 133.67C106.61 133.67 106.333 134.501 106.518 135.702C106.703 136.626 106.61 144.384 106.61 145.678Z" fill="url(#paint2_linear)"/>
<path d="M111.598 128.22C111.598 128.405 111.506 128.59 111.413 128.775C111.229 129.329 111.044 129.883 110.952 130.252C110.767 131.176 111.321 133.116 111.321 133.485C111.321 133.762 111.044 134.039 110.213 134.224C109.843 134.317 109.289 134.317 108.642 134.317C107.349 134.317 106.518 133.947 106.056 133.67C105.779 133.578 105.687 133.393 105.687 133.393C105.687 133.393 105.687 133.116 105.779 132.654C105.871 132.007 105.964 130.991 105.964 130.16C105.964 129.329 105.964 128.497 105.871 127.758C105.779 127.297 105.779 126.835 105.687 126.373C105.594 125.357 105.964 124.618 106.149 124.341C106.149 124.249 106.241 124.249 106.241 124.249C106.333 124.249 106.333 124.249 106.426 124.249C106.98 124.249 107.442 124.341 107.904 124.433C108.365 124.526 108.735 124.618 109.104 124.803C110.49 125.265 111.229 126.004 111.229 126.004C111.413 126.188 111.506 126.373 111.506 126.65C111.783 127.112 111.691 127.666 111.598 128.22Z" fill="#277A85"/>
<path d="M118.341 123.971C118.341 124.064 118.341 124.156 118.249 124.248C118.249 124.248 118.249 124.248 118.249 124.341C117.972 124.803 115.755 128.22 115.57 128.405C115.293 128.59 112.43 128.774 111.506 128.774C111.414 128.774 111.414 128.774 111.321 128.774C110.675 128.774 110.305 128.682 110.12 127.851C110.12 127.758 110.12 127.666 110.12 127.481C110.12 126.835 110.397 126.465 110.767 126.188C110.859 126.096 110.952 126.096 111.044 126.003C111.136 125.911 111.229 125.911 111.321 125.911C111.414 125.911 111.506 125.911 111.506 126.003C112.152 126.281 112.799 126.465 113.446 126.465C114.092 126.465 114.554 126.281 114.646 126.188L116.863 122.863C116.956 122.586 117.233 122.586 117.602 122.771C117.787 122.863 117.879 123.048 118.064 123.232C118.156 123.325 118.341 123.694 118.341 123.971Z" fill="#277A85"/>
<path opacity="0.25" d="M108.642 124.248C108.735 124.248 108.735 124.248 108.827 124.248C108.827 124.248 108.827 124.248 108.919 124.248C109.197 124.064 109.381 123.879 109.474 123.509V123.417C109.474 123.325 109.474 123.14 109.474 123.048C109.474 122.955 109.474 122.955 109.474 122.863C109.474 122.493 109.658 122.401 109.843 122.401C109.935 122.401 110.028 122.77 110.028 122.77L110.213 122.678V122.032C110.213 121.939 110.213 121.939 110.305 121.847C110.49 121.662 110.952 121.57 110.952 120.923C110.952 120.646 110.674 119.538 109.104 119.538C109.566 119.815 110.397 120.369 110.028 120.923C109.474 121.662 109.381 122.401 109.289 123.048C109.197 123.786 108.919 124.064 108.642 124.248Z" fill="#BD221E"/>
<path d="M106.518 124.249C106.426 124.249 106.426 124.249 106.333 124.249C106.333 124.249 106.241 124.249 106.056 124.341C105.964 124.433 105.871 124.433 105.779 124.526C105.502 124.803 104.209 128.313 104.116 129.144C104.024 129.975 104.671 133.855 104.671 133.855C104.671 133.947 104.763 134.039 104.948 134.132C105.132 134.224 105.317 134.224 105.502 134.317C105.317 133.393 104.578 129.883 104.578 129.236C104.578 128.682 105.594 126.188 106.056 124.987C105.964 125.357 105.871 125.819 105.871 126.373C105.871 126.835 105.964 127.297 106.056 127.758C106.149 128.497 106.241 129.236 106.149 130.16C106.149 130.991 105.964 132.007 105.964 132.654C105.871 133.116 105.871 133.393 105.871 133.393C105.871 133.393 105.964 133.485 106.241 133.67C106.61 131.176 106.426 128.405 106.149 127.112C105.964 126.281 106.149 125.449 106.333 124.987C106.426 124.71 108.55 125.172 108.55 125.172L108.088 124.433C107.534 124.341 106.98 124.249 106.518 124.249Z" fill="url(#paint3_linear)"/>
<path d="M117.51 122.678C117.51 122.678 115.847 126.096 114.554 126.096L116.771 122.77C116.956 122.493 117.233 122.493 117.51 122.678Z" fill="#277A85"/>
<path d="M115.478 128.312C115.201 128.497 112.337 128.682 111.414 128.682C111.321 128.682 111.321 128.682 111.229 128.682C110.582 128.682 110.213 128.59 110.028 127.758C110.213 127.851 113.538 128.59 115.478 128.312Z" fill="url(#paint4_linear)"/>
<path d="M110.305 140.69V147.71C110.212 147.71 110.12 147.617 110.12 147.617C109.935 147.525 109.843 147.34 109.843 147.248V140.782L108.458 136.995L110.305 140.69Z" fill="url(#paint5_linear)"/>
<path d="M110.49 121.57C110.49 121.57 110.49 121.57 110.49 121.662C110.49 122.032 110.397 123.14 110.305 123.325C110.12 123.694 109.843 123.879 109.658 123.879C109.566 123.879 109.566 123.971 109.566 123.971C109.566 124.433 109.566 124.71 109.566 124.71C109.566 124.71 109.381 124.803 109.104 124.895C109.012 124.895 108.919 124.895 108.919 124.895C108.55 124.895 108.088 124.895 107.719 124.618C107.534 124.526 107.534 124.341 107.534 124.341C107.534 124.341 107.534 124.433 107.534 124.248C107.534 124.064 107.534 123.971 107.534 123.787C107.534 123.787 108.088 123.325 108.642 122.771C109.104 122.309 109.658 121.939 110.028 121.662C110.028 121.662 110.12 121.662 110.12 121.57C110.213 121.755 110.397 121.662 110.49 121.57Z" fill="#FEC9C9"/>
<path d="M110.859 120.923C110.859 121.293 110.674 121.57 110.49 121.662C110.397 121.754 110.305 121.754 110.213 121.847C110.213 121.939 110.12 121.939 110.12 122.032V122.678L109.936 122.771C109.936 122.771 109.936 122.309 109.751 122.401C109.658 122.401 109.474 122.493 109.381 122.863C109.381 122.955 109.381 123.048 109.381 123.048C109.381 123.14 109.381 123.325 109.381 123.417V123.509C109.289 123.879 109.104 124.156 108.827 124.248H108.735C108.735 124.248 108.642 124.248 108.55 124.248C108.273 124.248 107.719 124.156 107.442 123.971C107.442 123.971 107.072 123.232 107.072 123.048C107.072 122.771 106.795 122.309 106.795 122.032C106.703 121.477 106.703 119.815 108.365 119.538C108.642 119.538 108.827 119.445 109.012 119.445C110.397 119.63 110.859 120.461 110.859 120.923Z" fill="#110812"/>
<path opacity="0.15" d="M110.859 120.923C110.582 121.015 109.936 120.831 109.566 120.831C109.104 120.923 108.642 122.309 108.55 122.863C108.55 122.955 108.55 122.955 108.55 123.048C108.55 123.602 108.827 124.248 108.827 124.248V125.172C108.458 125.172 107.996 125.172 107.626 124.895C107.442 124.803 107.442 124.618 107.442 124.618C107.442 124.618 107.442 124.71 107.442 124.525C107.442 124.341 107.442 124.248 107.442 124.064C107.442 124.064 107.072 123.325 107.072 123.14C107.072 122.863 106.795 122.401 106.795 122.124C106.703 121.57 106.703 119.907 108.365 119.63C108.642 119.63 108.827 119.538 109.012 119.538C110.397 119.63 110.859 120.461 110.859 120.923Z" fill="#CF3838"/>
<path opacity="0.1" d="M69.9115 155.273C73.1763 155.273 75.823 153.95 75.823 152.318C75.823 150.685 73.1763 149.362 69.9115 149.362C66.6467 149.362 64 150.685 64 152.318C64 153.95 66.6467 155.273 69.9115 155.273Z" fill="#0D0506"/>
<path d="M68.2488 141.788L68.8953 147.422C68.8953 147.422 69.819 151.117 69.819 151.856C69.819 152.041 68.5259 152.687 68.5259 152.78C69.5419 154.073 70.558 152.133 70.558 152.133V151.671C70.558 151.671 70.7427 149.085 70.7427 148.715C70.7427 148.254 70.558 147.607 70.4656 147.238C70.4656 146.868 70.4656 142.712 70.4656 142.712L68.2488 141.788Z" fill="#E4C79A"/>
<path d="M70.1884 153.426C70.1884 153.426 70.4655 152.502 70.4655 152.41C70.4655 152.318 70.7426 151.764 70.5579 151.579C70.1884 151.209 69.7266 152.318 69.1724 152.502C68.6182 152.78 68.6182 152.502 68.6182 152.502C68.6182 152.502 67.8793 153.057 67.8793 153.149C67.7869 153.241 68.4335 153.518 68.8953 153.426C69.2648 153.426 69.6342 153.149 69.6342 153.149L70.0037 152.41C70.0037 152.502 70.0961 153.518 70.1884 153.426Z" fill="#5C504D"/>
<path d="M68.3416 131.258C68.3416 131.258 68.8958 132.459 69.2652 132.366C69.7271 132.274 69.9118 131.535 69.9118 131.258C69.9118 131.073 69.9118 130.519 69.9118 130.519C69.9118 130.519 70.5584 130.611 70.7431 130.334C70.9278 130.057 71.0202 128.21 70.9278 127.748C70.8355 127.286 69.8194 127.101 69.8194 127.101L68.3416 127.563V131.258Z" fill="#FBDFB4"/>
<path d="M66.4939 141.511C66.4939 141.511 65.4778 146.129 65.7549 146.683C66.032 147.238 66.8633 148.161 67.6023 149.547C68.3412 150.932 68.9878 151.486 68.803 151.948C68.7107 152.502 68.3412 153.426 68.3412 153.426L69.7267 152.318L69.8191 150.84C69.8191 150.84 69.2649 150.286 69.0801 149.731C68.8954 149.177 68.6183 147.607 68.1565 147.145C67.6946 146.683 67.4175 146.221 67.4175 146.221L69.2649 141.788L66.4939 141.511Z" fill="#FBDFB4"/>
<path d="M70.7427 152.78C70.7427 152.78 70.4656 151.948 70.3732 151.856C70.3732 151.764 70.2808 151.117 69.9114 151.117C69.3572 151.025 69.5419 152.133 69.2648 152.687C68.8953 153.241 68.5258 153.334 68.5258 153.334C68.5258 153.334 68.2487 154.073 68.3411 154.257C68.3411 154.35 68.9877 154.35 69.4495 154.073C69.819 153.888 70.2808 153.149 70.2808 153.149L70.1885 152.318C70.0961 152.133 70.7427 152.872 70.7427 152.78Z" fill="#A6A09E"/>
<path d="M70.3732 131.35C70.3732 131.35 70.558 131.166 70.8351 131.35C71.0198 131.535 72.7748 134.121 73.4213 135.045C73.5137 135.23 73.5137 135.507 73.329 135.692L70.6503 138.74L69.3572 139.017V137.724L70.6503 137.539L71.7587 135.692C71.9435 135.507 71.9435 135.23 71.7587 134.953L70.3732 133.198C70.558 133.198 69.3572 131.812 70.3732 131.35Z" fill="#E4C79A"/>
<path d="M67.4177 131.535C67.4177 131.535 66.7712 133.105 66.6788 133.752C66.5864 134.491 67.8796 136.061 67.6025 136.523C67.4177 136.892 65.478 146.129 65.478 146.129C65.478 146.129 66.1246 146.591 67.0483 146.776C68.8032 147.238 71.4819 147.422 71.5743 146.591C71.6666 145.76 71.8514 140.218 71.3895 139.017C70.8353 137.631 70.5582 137.17 70.5582 136.708C70.8353 134.583 71.4819 131.72 70.8353 131.35C70.2811 131.073 67.6948 131.35 67.4177 131.535Z" fill="#1F444D"/>
<path d="M66.0322 137.077C66.494 136.246 66.8635 135.414 66.8635 134.491C66.9558 133.198 67.0482 131.627 67.51 131.443C68.249 131.166 68.6184 131.72 68.5261 132.274C68.4337 132.828 67.8795 136.153 67.7871 136.615V136.708L65.3856 139.848C65.3856 139.848 64.9238 140.402 65.0161 140.864C65.1085 141.049 65.0161 141.695 65.0161 141.972C65.0161 142.25 64.6467 141.88 64.5543 141.603L64.1848 140.679C64.1848 140.587 64.1848 140.587 64.1848 140.495C64.2772 140.31 64.5543 139.848 64.739 139.479C65.0161 139.201 65.3856 138.001 66.0322 137.077Z" fill="#FBDFB4"/>
<path d="M67.4176 126.64C67.4176 126.64 66.7711 128.117 66.9558 130.242C67.1405 132.366 70.1887 131.443 70.1887 131.443L70.4658 129.318C70.4658 129.318 70.1887 128.856 70.3734 128.487C70.5581 128.117 70.7429 128.579 70.7429 128.579C70.7429 128.579 71.2047 127.101 70.5581 126.547C69.4497 125.716 68.0642 125.901 67.4176 126.64Z" fill="#D1AE51"/>
<path d="M130.534 101.896C130.534 101.896 130.164 101.896 129.887 101.896C129.518 102.265 126.1 102.634 126.1 102.634C126.1 102.634 125.823 103.281 125.638 103.373C125.361 103.466 125.084 103.466 124.899 103.466C124.714 103.466 124.622 103.189 124.622 103.189C124.622 103.189 123.514 103.558 123.514 103.373C123.514 103.189 124.253 102.912 124.253 102.912C124.253 102.912 124.16 102.45 124.345 102.357C124.622 102.08 125.361 102.08 125.546 102.08C126.839 101.526 127.855 100.695 129.518 100.695C129.795 100.695 130.072 100.51 130.072 100.51L130.534 101.896Z" fill="#F0C6B4"/>
<path d="M133.305 99.5862C132.566 99.3091 130.903 100.233 129.887 100.51C130.256 101.156 130.349 102.172 130.349 102.172C130.349 102.172 132.011 101.711 132.935 102.08C133.12 102.172 133.397 99.8633 133.305 99.5862Z" fill="#BA6000"/>
<path d="M133.397 99.1245C133.397 99.494 133.489 99.6787 133.489 99.6787L133.212 100.141L133.582 101.249L134.413 101.526L135.337 101.341L135.706 100.602L135.429 100.048L135.06 99.4016C135.06 99.4016 133.305 98.7551 133.397 99.1245Z" fill="#C7A496"/>
<path d="M138.939 104.667C138.939 104.667 139.309 105.313 139.401 105.498C139.586 105.867 139.401 106.329 139.401 106.329L138.2 106.791L137.923 105.867C137.923 105.867 137.738 105.498 137.646 105.128C137.554 104.851 138.939 104.667 138.939 104.667Z" fill="#F0C6B4"/>
<path opacity="0.2" d="M138.016 105.59C138.293 105.405 139.124 105.405 139.124 105.405C139.124 105.405 138.2 105.036 138.016 105.59Z" fill="black"/>
<path d="M135.706 116.212C135.983 116.674 136.722 118.799 136.538 120.277C136.63 120.554 136.722 120.554 136.722 120.554H137.184L137.831 120.277C137.831 120.277 138.015 120.369 137.831 119.907C137.646 118.614 138.108 116.951 137.646 116.028C137.184 115.566 137.277 115.843 137.277 115.843L136.076 115.935C136.076 115.935 135.799 116.028 135.706 116.212Z" fill="#F0C6B4"/>
<path d="M133.397 115.566C134.136 117.044 133.397 118.891 133.767 120.277C133.674 120.554 133.582 120.738 133.582 120.738L132.751 120.923C132.751 120.923 132.381 120.831 132.196 120.554C132.381 119.538 131.273 115.566 131.457 115.289C131.642 114.919 133.305 115.289 133.397 115.566Z" fill="#F0C6B4"/>
<path d="M131.919 107.807C131.919 107.807 131.088 113.626 131.18 115.012C132.104 115.843 133.489 115.75 133.951 115.473C134.228 113.441 134.598 111.686 135.06 110.393C135.244 110.208 131.919 107.807 131.919 107.807Z" fill="#0F2034"/>
<path d="M136.537 108.454C137.461 109.377 137.553 114.088 137.831 115.658C137.461 116.397 135.429 116.582 135.06 115.843C134.505 112.61 133.951 111.132 133.951 111.132C133.951 111.132 131.919 110.301 131.827 107.899C131.827 107.622 132.935 107.438 132.935 107.438H134.598C134.598 107.438 136.168 108.176 136.537 108.454Z" fill="#1D374E"/>
<path d="M137.276 103.835C137.276 103.835 136.26 106.421 137.276 109.377C134.967 111.409 131.642 108.453 131.642 108.453C131.642 108.453 131.919 103.743 132.011 101.988C132.104 100.233 133.304 99.5862 133.304 99.5862C133.304 99.5862 133.304 99.5862 133.489 99.6785C133.489 99.6785 133.397 100.787 133.951 101.064C134.32 101.341 135.244 101.064 135.429 100.879C135.614 100.695 135.614 100.325 135.521 100.14C136.075 100.787 136.353 100.879 137.276 101.526C137.369 101.803 137.276 103.835 137.276 103.835Z" fill="#FF8400"/>
<path d="M136.26 97.0924C136.26 97.2771 136.353 97.8313 136.26 98.2008C136.26 99.1245 135.799 99.9558 135.152 100.325C134.967 100.418 134.505 100.418 134.321 100.325C133.489 99.771 133.305 98.8474 133.305 98.8474C133.305 98.8474 132.658 98.5703 133.028 97.6466C133.12 97.3695 133.489 96.8153 133.489 96.8153L134.967 96.4458L135.706 96.6305C135.706 96.5382 136.168 96.9076 136.26 97.0924Z" fill="#F0C6B4"/>
<path d="M136.815 107.807C138.292 106.976 139.77 105.59 140.509 105.498C140.694 105.498 141.063 106.052 141.063 106.052C141.063 106.052 141.341 107.068 140.879 107.438C140.417 107.807 139.308 108.176 137.369 108.823C137.369 108.823 137.092 109.193 136.722 109.285C136.63 109.285 136.445 108.176 136.445 107.992C136.537 107.899 136.815 107.807 136.815 107.807Z" fill="#F0C6B4"/>
<path opacity="0.2" d="M139.216 106.237L138.754 108.361C138.754 108.361 139.493 108.177 139.586 107.715C139.77 106.976 139.216 106.237 139.216 106.237Z" fill="black"/>
<path d="M142.357 99.9558C140.787 99.9558 140.787 101.803 140.787 101.803C140.787 101.803 140.417 104.759 140.325 105.405C141.064 106.052 142.264 105.867 142.264 105.867C142.264 105.867 142.542 99.9558 142.357 99.9558Z" fill="#9C251F"/>
<path d="M145.59 99.4939C145.59 100.048 145.959 100.787 145.959 100.787L146.051 101.711L144.851 102.542L143.557 102.819L142.541 102.634C142.541 102.634 141.987 101.618 142.172 101.618C142.264 101.526 143.373 99.9558 143.373 99.9558L145.312 99.5863C145.128 99.4016 145.59 98.9397 145.59 99.4939Z" fill="#C7A496"/>
<path d="M141.895 123.694C141.618 124.156 140.047 124.525 139.863 124.803C139.77 124.987 139.77 125.541 139.863 125.541C140.879 125.911 142.726 125.08 142.726 125.08C143.003 125.172 144.112 125.172 144.389 124.803C144.573 124.525 144.389 123.417 144.389 123.417C144.389 123.417 142.08 123.694 141.895 123.694Z" fill="#121214"/>
<path d="M140.879 111.594C140.602 113.903 141.71 117.69 141.71 117.69C141.71 117.69 142.079 121.662 141.71 123.787C141.895 124.156 143.834 124.618 144.481 123.602C144.666 122.586 144.666 119.815 144.204 117.783C144.112 117.228 144.204 112.425 144.204 112.425C144.204 112.425 141.156 110.948 140.879 111.594Z" fill="#BDAF83"/>
<path d="M147.252 126.465C146.975 127.019 146.329 127.851 146.144 128.128C145.959 128.405 145.774 128.867 145.959 128.959C146.698 129.698 147.622 129.328 148.084 128.867C148.545 128.312 149.1 127.204 149.1 127.019C149.1 126.927 149.1 126.188 149.1 126.188C149.1 126.188 147.437 126.373 147.252 126.465Z" fill="#121214"/>
<path d="M146.883 111.779C146.883 111.779 147.899 114.734 148.268 118.429C148.915 119.907 149.469 121.939 149.469 126.373C148.545 127.666 146.975 127.019 146.883 126.557C146.975 123.786 146.236 121.108 145.59 119.168C144.943 117.228 142.819 113.441 142.634 112.887C142.449 112.333 143.465 110.855 143.465 110.855H146.144L146.883 111.779Z" fill="#E6DAB0"/>
<path d="M143.003 102.542C143.003 102.542 142.264 112.241 141.987 112.425C141.803 112.795 141.433 114.088 141.433 114.088C141.433 114.088 140.602 112.702 140.417 111.225C140.787 107.807 140.325 105.405 140.417 103.835C140.602 101.896 142.634 100.141 142.542 100.51C142.542 101.434 143.003 102.542 143.003 102.542Z" fill="#E31B25"/>
<path d="M143.003 102.542C144.851 102.173 145.959 100.787 145.959 100.787L148.084 102.819L147.714 105.775L146.606 109.193C146.606 109.193 147.345 111.502 147.437 113.164C146.975 112.425 146.698 112.056 145.959 112.056C145.128 112.056 144.296 113.811 142.08 114.273C142.172 110.393 141.71 105.221 143.003 102.542Z" fill="#E31B25"/>
<path opacity="0.3" d="M143.003 102.542C141.433 105.221 142.079 112.333 142.079 112.333C142.079 112.333 141.895 106.606 143.003 102.542Z" fill="#121214"/>
<path d="M142.818 96.7228C142.264 97.0923 141.987 98.1084 141.987 98.2931C141.987 98.4778 142.172 98.6626 142.172 98.6626C142.172 98.6626 142.079 98.7549 142.079 98.8473C141.987 99.2168 142.264 100.972 142.264 100.972C142.264 100.972 142.634 101.341 142.818 101.341C144.204 101.434 145.128 99.8633 145.128 99.8633C145.128 99.8633 145.682 99.6786 145.774 99.2168C145.866 98.9397 145.959 98.4778 145.959 98.4778L145.682 97.5541L144.943 96.5381H143.65C143.742 96.4457 142.911 96.6305 142.818 96.7228Z" fill="#F0C6B4"/>
<path d="M145.774 99.1245C145.774 99.1245 145.867 98.5703 145.589 98.5703C145.312 98.5703 144.85 99.3092 144.85 99.3092C144.85 99.3092 144.573 98.755 144.573 98.2008C144.573 97.9237 145.128 97.3695 144.85 97.0924C144.389 96.6306 143.373 97.739 142.726 97.1848C142.357 96.9077 143.834 94.968 145.405 96.2611C146.975 97.5542 145.774 99.1245 145.774 99.1245Z" fill="#603913"/>
<path d="M140.88 102.08L139.864 100.602L140.049 100.51C140.049 100.51 140.141 100.51 140.233 100.51L140.972 100.879C141.065 100.972 141.157 101.156 141.157 101.249V101.803C141.157 101.895 141.157 101.895 141.065 101.988L140.88 102.08Z" fill="#303033"/>
<path d="M139.771 101.249C139.771 101.434 139.863 101.526 139.955 101.619L140.694 102.081C140.787 102.173 140.879 102.081 140.879 101.988V101.434C140.879 101.249 140.787 101.157 140.694 101.065L139.955 100.603C139.863 100.51 139.771 100.603 139.771 100.695V101.249Z" fill="#121214"/>
<path d="M140.971 103.281L140.232 101.434L142.357 100.14C142.449 100.14 142.541 100.14 142.634 100.14L142.911 100.325C143.096 100.417 143.28 100.695 143.28 100.879V101.711C143.28 101.803 143.28 101.895 143.188 101.895L140.971 103.281Z" fill="#535359"/>
<path d="M140.14 102.542C140.14 102.727 140.324 103.004 140.509 103.096L140.786 103.281C140.971 103.373 141.156 103.281 141.156 103.096V102.265C141.156 102.08 140.971 101.803 140.786 101.711L140.509 101.526C140.324 101.434 140.14 101.526 140.14 101.711V102.542Z" fill="#303033"/>
<path d="M140.233 102.08L140.14 101.895L140.325 101.803C140.417 101.803 140.51 101.803 140.602 101.803C140.787 101.895 140.971 102.172 140.971 102.357C140.971 102.45 140.971 102.542 140.879 102.542L140.694 102.634L140.602 102.542C140.417 102.542 140.325 102.265 140.233 102.08Z" fill="#535359"/>
<path d="M140.14 102.173C140.14 102.358 140.325 102.635 140.509 102.728C140.694 102.82 140.879 102.728 140.879 102.543C140.879 102.358 140.694 102.081 140.509 101.989C140.232 101.804 140.14 101.896 140.14 102.173Z" fill="#121214"/>
<path d="M140.14 102.173C140.14 102.357 140.232 102.542 140.417 102.634C140.509 102.727 140.601 102.634 140.601 102.634H140.509C140.417 102.542 140.232 102.265 140.14 102.173C140.232 102.08 140.232 101.988 140.232 101.988C140.232 101.988 140.14 102.08 140.14 102.173Z" fill="#303033"/>
<path d="M140.232 102.172C140.232 102.357 140.325 102.542 140.509 102.634H140.602V102.542C140.602 102.357 140.509 102.172 140.325 102.08C140.232 102.08 140.232 102.08 140.232 102.08C140.325 102.08 140.232 102.08 140.232 102.172Z" fill="#2B5E85"/>
<path d="M144.204 105.128C144.204 105.128 143.465 105.683 144.111 106.699C144.758 107.899 145.589 107.438 145.589 107.438L146.143 106.514L145.682 104.944H144.666L144.204 105.128Z" fill="#FF3F4A"/>
<path d="M144.573 105.036C144.573 105.036 144.111 105.498 143.65 105.96C143.28 105.036 142.726 104.112 142.541 103.189C142.541 103.004 142.911 101.711 142.911 101.711C142.911 101.711 142.818 100.879 142.818 100.695C142.726 100.602 142.264 100.14 141.802 100.14C141.34 100.14 141.063 100.695 140.971 100.972C140.971 101.064 141.34 101.988 141.34 101.988C141.34 101.988 141.156 102.542 141.156 103.004C141.156 103.189 141.34 103.373 141.433 103.466C141.71 104.574 141.802 107.345 142.079 107.807C142.634 108.546 143.28 108.823 143.742 108.638C143.927 108.546 145.866 106.698 145.866 106.698L145.774 105.221L144.573 105.036Z" fill="#F0C6B4"/>
<path opacity="0.2" d="M143.65 106.052C144.296 106.514 144.481 107.438 144.481 107.438C144.481 107.438 144.758 106.237 143.65 106.052Z" fill="black"/>
<path d="M148.176 102.819C147.252 102.265 144.204 105.221 144.204 105.221C145.682 105.498 145.589 107.53 145.589 107.53C145.589 107.53 146.975 106.237 147.621 105.775C148.545 105.036 149.192 103.466 148.176 102.819Z" fill="#9C251F"/>
<path d="M143.465 102.173C143.465 102.173 143.28 102.357 143.003 102.542C143.742 102.542 144.019 102.265 144.019 102.265L143.834 101.988L143.465 102.173Z" fill="#9C251F"/>
<path d="M146.236 100.787C145.959 100.602 145.774 100.233 145.774 100.233C145.774 100.233 144.758 101.434 143.558 102.08C144.112 102.08 144.389 102.634 144.389 102.727C145.313 102.173 146.236 100.787 146.236 100.787Z" fill="#FF3F4A"/>
<path opacity="0.2" d="M138.477 108.453C137.277 108.546 137.738 107.253 137.738 107.253C137.738 107.253 138.57 108.453 138.477 108.453Z" fill="black"/>
<path d="M138.385 105.498C138.847 105.498 139.124 105.775 139.309 106.329C139.493 106.883 139.493 107.345 139.493 107.715C139.493 108.084 138.847 108.454 138.57 108.454C138.108 108.454 137.923 108.084 137.831 107.438C137.738 106.883 137.923 105.96 137.923 105.96C137.923 105.96 137.923 105.498 138.385 105.498Z" fill="#F0C6B4"/>
<path d="M135.707 109.747C135.707 109.654 135.799 109.654 135.891 109.562C136.168 109.47 136.538 109.47 136.723 109.562C136.815 109.654 136.907 109.654 136.907 109.747V109.839C136.907 109.931 136.815 110.024 136.723 110.116C136.445 110.209 136.076 110.209 135.891 110.116C135.799 109.931 135.707 109.839 135.707 109.747Z" fill="#939598"/>
<path d="M135.891 109.931C136.169 110.024 136.538 110.024 136.723 109.931C137 109.839 137 109.562 136.723 109.47C136.446 109.285 136.076 109.285 135.891 109.47C135.614 109.562 135.614 109.839 135.891 109.931Z" fill="#CCCCCC"/>
<path d="M136.723 109.931C136.815 109.839 136.907 109.747 136.907 109.654C136.907 109.562 136.815 109.47 136.723 109.377C136.723 109.47 137.092 109.654 136.723 109.931Z" fill="white"/>
<path d="M137 108.084V109.654C137 109.747 136.907 109.839 136.815 109.931C136.538 110.116 136.076 110.116 135.799 109.931C135.614 109.839 135.614 109.747 135.614 109.654V107.992L137 108.084Z" fill="#E31B25"/>
<path d="M136.26 108.453C136.353 108.915 135.983 109.747 136.26 110.024C136.168 110.024 135.983 110.024 135.983 109.931C135.799 109.562 136.168 108.915 136.168 108.361C136.076 108.453 136.26 108.453 136.26 108.453Z" fill="white"/>
<path opacity="0.2" d="M136.815 109.285C136.815 109.562 136.815 109.839 136.815 109.839C136.907 109.747 136.907 109.562 136.815 109.285C136.907 109.008 136.815 108.361 136.815 108.361C136.907 108.269 136.815 109.008 136.815 109.285Z" fill="white"/>
<path d="M135.614 107.992C135.614 107.899 135.706 107.715 135.891 107.622C136.168 107.437 136.538 107.437 136.815 107.622C136.907 107.715 137.092 107.899 137.092 107.992C137.092 108.084 137 108.269 136.907 108.361C136.63 108.546 136.168 108.546 135.891 108.361C135.614 108.269 135.614 108.176 135.614 107.992Z" fill="#FF3F4A"/>
<path d="M136.815 107.715C136.907 107.807 137.092 107.992 137.092 108.084C137.092 108.176 136.999 108.361 136.907 108.454C137.184 108.084 136.907 107.807 136.815 107.715Z" fill="white"/>
<path d="M135.706 107.807C135.706 107.715 135.799 107.715 135.891 107.622C136.168 107.53 136.538 107.53 136.722 107.622C136.815 107.715 136.907 107.715 136.907 107.807V107.899C136.907 107.992 136.815 108.084 136.722 108.176C136.445 108.269 136.076 108.269 135.891 108.176C135.799 108.084 135.706 107.992 135.706 107.807Z" fill="#939598"/>
<path d="M135.891 108.084C136.168 108.176 136.538 108.176 136.722 108.084C137 107.992 137 107.715 136.722 107.622C136.445 107.53 136.076 107.53 135.891 107.622C135.614 107.715 135.614 107.992 135.891 108.084Z" fill="#BCBEC0"/>
<path d="M136.722 108.084C136.815 107.992 136.907 107.899 136.907 107.807C136.907 107.715 136.815 107.622 136.722 107.53C136.722 107.622 137.092 107.807 136.722 108.084Z" fill="white"/>
<path d="M135.799 107.899C135.799 107.807 135.891 107.715 135.984 107.715C136.168 107.622 136.538 107.622 136.723 107.715C136.815 107.807 136.907 107.807 136.907 107.899C136.907 107.807 136.907 107.715 136.723 107.622C136.538 107.53 136.168 107.53 135.984 107.622C135.799 107.715 135.707 107.807 135.799 107.899Z" fill="#535359"/>
<path d="M135.799 107.899C135.799 107.992 135.891 108.084 135.984 108.084C136.168 108.176 136.538 108.176 136.723 108.084C136.815 107.992 136.907 107.992 136.907 107.899C136.907 107.807 136.815 107.715 136.723 107.715C136.538 107.622 136.168 107.622 135.984 107.715C135.799 107.715 135.799 107.807 135.799 107.899Z" fill="#939598"/>
<path d="M135.984 107.714L136.077 107.622C136.077 107.622 136.169 107.622 136.261 107.622L136.446 107.807H136.354L135.984 107.714C135.984 107.807 135.984 107.807 135.984 107.714Z" fill="#535359"/>
<path d="M136.353 107.9C136.445 107.808 136.445 107.808 136.353 107.9L136.261 107.715C136.261 107.715 136.168 107.715 136.076 107.715L135.983 107.808V107.9L136.261 107.992C136.261 107.9 136.353 107.9 136.353 107.9Z" fill="#BCBEC0"/>
<path d="M136.26 107.807C136.26 107.9 136.354 107.9 136.26 107.807C136.354 107.807 136.354 107.807 136.26 107.807C136.354 107.807 136.354 107.807 136.26 107.807C136.354 107.807 136.26 107.807 136.26 107.807Z" fill="#9C9C9C"/>
<path d="M136.077 107.715C136.169 107.622 136.262 107.622 136.262 107.715C136.169 107.715 136.169 107.715 136.077 107.715Z" fill="#535359"/>
<path d="M136.077 107.715C136.077 107.808 136.077 107.808 136.077 107.715C136.169 107.808 136.262 107.808 136.262 107.715C136.169 107.715 136.169 107.715 136.077 107.715Z" fill="#9C9C9C"/>
<path d="M136.814 108.638C136.814 108.915 136.907 109.1 136.999 109.1C137.092 109.1 137.184 108.915 137.184 108.638C137.184 108.361 137.092 108.177 136.999 108.177C136.907 108.177 136.814 108.361 136.814 108.638Z" fill="#F0C6B4"/>
<path d="M135.614 108.269V108.546C135.614 108.546 135.891 108.638 135.891 108.731C135.983 108.823 136.076 109.1 136.076 109.285C136.076 109.47 135.891 109.839 135.706 109.839C135.521 109.839 135.429 109.747 135.337 109.562C135.244 109.47 135.244 108.638 135.244 108.546C135.337 108.361 135.614 108.269 135.614 108.269Z" fill="#F0C6B4"/>
<path d="M136.353 96.7229C136.353 97.5542 135.06 97.3694 135.06 97.3694C135.06 97.3694 135.429 97 135.152 96.8152C134.875 97.1847 134.136 97.1847 134.136 97.1847C134.136 97.1847 134.228 96.8152 134.044 96.7229C133.766 97.1847 133.489 97.1847 133.489 97.2771C133.397 97.3694 133.582 97.8313 133.397 98.1084C133.305 97.6465 132.935 97.4618 132.935 97.4618C132.935 97.4618 132.658 95.6145 133.674 95.6145C135.706 94.8755 136.353 96.3534 136.353 96.7229Z" fill="#603913"/>
<path opacity="0.2" d="M133.674 95.7991C133.674 95.7991 134.228 95.9838 134.136 96.1685C133.951 96.2609 133.674 95.7991 133.674 95.7991Z" fill="black"/>
<path d="M136.815 101.434C137.831 101.157 138.939 104.482 139.124 104.666C138.662 105.313 137.554 105.313 137.554 105.313C137.554 105.313 137.092 103.928 136.538 103.281C136.076 102.542 136.538 101.341 136.815 101.434Z" fill="#BA6000"/>
<path d="M133.767 120.277C133.49 120.738 132.566 120.646 132.289 120.554C131.55 121.2 130.441 121.477 130.349 121.662C130.257 121.939 130.257 122.401 130.349 122.401C130.811 122.678 131.457 122.586 131.827 122.401C132.196 122.216 132.658 121.847 132.658 121.847C132.658 121.847 133.859 121.754 133.951 121.477C134.044 121.293 133.951 120.369 133.767 120.277Z" fill="#E31B25"/>
<path d="M137.831 119.815C137.831 119.815 137.646 120.554 136.537 120.184C136.537 120.461 136.168 121.108 135.521 121.754C135.337 121.939 135.521 122.309 135.706 122.493C137.092 123.14 137.461 122.124 137.461 122.124C137.461 122.124 137.923 121.108 138.108 120.831C138.108 120.369 137.831 119.815 137.831 119.815Z" fill="#E31B25"/>
<path d="M141.525 102.357C141.525 102.357 141.341 102.357 141.156 102.357C141.156 102.357 141.156 102.819 141.156 102.911C141.341 102.911 141.525 102.911 141.525 102.911V102.357Z" fill="#939598"/>
<path d="M143.003 101.895C142.818 101.711 142.449 102.173 141.525 102.265C141.433 102.265 141.34 102.819 141.433 102.912C142.356 103.004 142.818 102.634 142.818 102.634C142.818 102.634 143.28 102.357 143.003 101.895Z" fill="#121214"/>
<path d="M154.087 61.7157C154.272 62.0852 154.18 63.1936 154.18 63.1936L156.674 62.547L156.489 61.2538C156.396 61.1615 153.995 61.6233 154.087 61.7157Z" fill="#C7A496"/>
<path d="M155.381 83.8838C155.381 83.8838 154.549 83.9762 154.549 84.438C154.549 84.6227 155.011 84.9922 155.381 85.454C155.935 86.1006 156.212 86.7472 156.766 86.7472C157.597 86.7472 157.136 84.8998 157.136 84.8998L155.381 83.8838Z" fill="black"/>
<path d="M156.766 73.354L153.441 74.3701C153.441 74.3701 154.826 78.6189 154.919 79.9121C155.011 81.2052 155.196 84.3457 155.196 84.5305C155.196 85.6389 157.412 85.177 157.412 84.5305C157.412 83.7915 157.874 80.9281 156.674 78.6189C156.766 78.0647 156.766 73.354 156.766 73.354Z" fill="#212121"/>
<path d="M154.272 77.0486C154.272 77.0486 154.55 75.6631 154.919 75.2013C156.305 74.37 156.766 73.7234 156.766 73.7234L154.272 74.7394V77.0486Z" fill="black"/>
<path d="M151.501 87.0244C151.501 87.0244 149.192 87.4862 149.192 87.8557C149.192 88.687 150.116 88.7794 150.393 88.7794C150.762 88.7794 152.979 88.687 153.626 88.5947C154.18 88.5023 153.903 87.3015 153.903 87.3015L151.501 87.0244Z" fill="black"/>
<path d="M151.409 74.7396C151.409 74.7396 151.594 80.5587 151.686 81.5748C151.778 82.4061 152.055 86.2855 151.316 87.0244C152.425 87.8557 154.087 87.3939 154.087 87.3939C154.087 87.3939 154.734 82.4984 153.995 80.9282C154.087 79.1732 154.549 74.3701 154.549 74.3701L151.409 74.7396Z" fill="#212121"/>
<path d="M151.316 75.0166C151.316 75.0166 152.61 76.4945 154.457 75.109C154.642 74.8319 151.316 75.0166 151.316 75.0166Z" fill="black"/>
<path d="M156.766 62.4546C156.766 62.4546 155.011 63.1935 153.995 63.0088C153.995 63.0088 151.501 64.4867 151.316 65.7798C151.132 67.073 150.67 74.6471 150.67 74.6471C150.67 74.6471 151.593 75.6631 153.164 75.4784C154.734 75.386 156.951 73.8158 157.228 73.2616C157.412 72.7074 156.489 70.7676 156.489 68.9203C156.489 67.7195 158.151 65.9645 158.151 64.1172C158.336 62.9164 156.766 62.4546 156.766 62.4546Z" fill="#212121"/>
<path d="M153.256 59.4988C153.164 60.053 153.164 61.6233 153.256 61.7156C153.626 62.0851 154.734 61.7156 154.734 61.7156L154.919 59.5912L153.718 58.4828C153.718 58.4828 153.348 58.9446 153.256 59.4988Z" fill="#F0C6B4"/>
<path d="M148.638 74.9243C148.361 75.109 148.084 75.4785 148.084 75.8479V79.4503L152.702 82.1289L153.534 77.5105L149.008 74.9243C148.915 74.8319 148.731 74.8319 148.638 74.9243Z" fill="#915E33"/>
<path d="M153.164 77.603C152.886 77.7877 152.609 78.1572 152.609 78.5267V82.129L153.625 81.5748V77.9725C153.718 77.603 153.441 77.4183 153.164 77.603Z" fill="#57391E"/>
<path d="M148.083 77.6952L152.702 80.2815V80.1892L148.083 77.5105V77.6952Z" fill="#57391E"/>
<path d="M148.822 77.88L149.192 78.7113L149.284 78.6189V78.0647L148.915 77.7876L148.822 77.88Z" fill="#FF9800"/>
<path d="M148.822 78.4351L149.192 78.7122V78.0656L148.822 77.8809V78.4351Z" fill="#F5B400"/>
<path d="M151.409 79.358L151.778 80.1893L151.871 80.0969V79.5427L151.501 79.2656L151.409 79.358Z" fill="#FF9800"/>
<path d="M151.409 79.9131L151.779 80.1902V79.5436L151.409 79.3589V79.9131Z" fill="#F5B400"/>
<path d="M150.024 75.109L150.209 75.2013L150.301 75.109L150.209 75.0166L150.024 75.109Z" fill="#C4C4C4"/>
<path d="M150.208 75.9402L150.301 75.8478V75.1089L150.208 75.2013V75.9402Z" fill="#A6A6A6"/>
<path d="M150.023 75.8488L150.208 75.9412V75.2022L150.023 75.1099V75.8488Z" fill="#8A8A8A"/>
<path d="M150.3 75.1089C150.208 75.2013 150.116 75.2936 150.116 75.386C150.116 75.4784 150.116 75.4784 150.208 75.4784H150.3L150.208 75.386C150.116 75.2936 150.208 75.2013 150.3 75.1089C150.393 75.1089 150.393 75.1089 150.485 75.1089H150.393H150.3Z" fill="#57391E"/>
<path d="M150.3 75.1089C150.208 75.2013 150.116 75.2936 150.116 75.386C150.116 75.4784 150.208 75.5707 150.3 75.4784C150.393 75.386 150.485 75.2936 150.485 75.2013C150.485 75.1089 150.393 75.1089 150.3 75.1089Z" fill="#242424"/>
<path d="M151.686 75.8478L150.393 75.1089H150.3C150.208 75.2013 150.116 75.2936 150.116 75.386C150.116 75.4784 150.116 75.4784 150.208 75.4784L151.501 76.2173H151.594C151.594 76.2173 151.686 76.0326 151.686 75.8478C151.686 75.9402 151.686 75.8478 151.686 75.8478Z" fill="#915E33"/>
<path d="M151.501 75.8478C151.409 75.9402 151.316 76.0326 151.316 76.1249C151.316 76.2173 151.316 76.2173 151.409 76.2173H151.501L151.409 76.1249C151.409 76.0326 151.501 75.9402 151.501 75.8478C151.594 75.8478 151.594 75.8478 151.686 75.8478C151.594 75.7555 151.594 75.7555 151.501 75.8478Z" fill="#57391E"/>
<path d="M151.594 75.8478C151.501 75.9402 151.409 76.0326 151.409 76.1249C151.409 76.2173 151.501 76.3097 151.594 76.2173C151.686 76.1249 151.778 76.0326 151.778 75.9402C151.778 75.8478 151.686 75.7555 151.594 75.8478Z" fill="#57391E"/>
<path d="M151.501 75.9402L151.686 76.0326L151.779 75.9402H151.686H151.501Z" fill="#C4C4C4"/>
<path d="M151.686 76.7715L151.779 76.6791V75.9402L151.686 76.0326V76.7715Z" fill="#A6A6A6"/>
<path d="M151.501 76.6791L151.686 76.7715V76.0326L151.501 75.9402V76.6791Z" fill="#8A8A8A"/>
<path d="M150.947 74.3701C150.947 74.3701 150.023 75.2014 150.023 75.5709C150.023 75.9404 150.208 76.0327 150.301 76.2175C150.485 76.3098 151.224 76.5869 151.409 76.3098C151.224 76.2175 151.132 76.1251 151.224 75.9404C151.317 75.848 151.317 75.848 151.409 75.7556C151.594 75.5709 151.963 75.2014 151.963 74.832C151.963 74.5549 150.947 74.3701 150.947 74.3701Z" fill="#F0C6B4"/>
<path d="M150.762 74.37C151.224 74.9242 152.055 74.8319 152.055 74.8319L152.332 74.0929L151.039 73.6311C150.947 73.7235 150.762 74.37 150.762 74.37Z" fill="white"/>
<path d="M153.903 64.5791C152.148 64.1173 152.055 66.057 152.055 66.057L151.778 70.2136C151.778 70.2136 150.855 73.2617 150.762 73.4464C150.947 74.5548 152.517 74.5548 152.702 74.1853C152.794 73.8159 153.626 71.322 153.903 70.7678C154.18 70.1212 154.272 66.8883 154.457 66.5189C154.549 65.9647 154.826 64.8562 153.903 64.5791Z" fill="#141414"/>
<path d="M153.718 62.7318L153.533 63.286C153.533 63.286 156.766 62.9165 156.766 62.4547C156.766 62.1776 156.766 62.1776 156.674 62.0852C155.196 62.6394 153.718 62.7318 153.718 62.7318Z" fill="white"/>
<path d="M154.272 57.7439C153.995 57.6515 153.903 57.9286 153.718 58.2057C153.626 58.3905 153.81 58.6676 153.718 58.8523C153.533 59.2218 153.626 59.4065 153.626 59.5912C153.626 60.2378 153.626 60.2378 153.718 60.5149C154.272 60.6073 154.272 61.2539 154.272 61.2539C154.272 61.2539 154.272 61.4386 154.272 61.6233C154.365 62.8241 155.935 62.6394 155.935 62.6394C155.935 62.6394 157.413 62.3623 157.228 59.4989C157.043 57.8363 154.734 56.7279 154.272 57.7439Z" fill="#915E33"/>
<path d="M154.457 57.7439C155.935 58.021 156.489 59.037 156.489 59.037C156.489 59.037 156.119 57.8363 154.457 57.7439Z" fill="#6E4826"/>
<path opacity="0.8" d="M94 51L112 55.1348L94 73V51Z" fill="white"/>
<path opacity="0.8" d="M52 47L69 62.3404L52 68V47Z" fill="white"/>
<defs>
<linearGradient id="paint0_linear" x1="104.008" y1="143.433" x2="108.832" y2="145.745" gradientUnits="userSpaceOnUse">
<stop stop-color="white"/>
<stop offset="1"/>
</linearGradient>
<linearGradient id="paint1_linear" x1="107.336" y1="145.123" x2="112.444" y2="147.571" gradientUnits="userSpaceOnUse">
<stop stop-color="white"/>
<stop offset="1"/>
</linearGradient>
<linearGradient id="paint2_linear" x1="105.834" y1="139.288" x2="106.637" y2="139.288" gradientUnits="userSpaceOnUse">
<stop offset="0.00537634" stop-color="#EBEAF0"/>
<stop offset="0.9892" stop-color="#E5E4EC"/>
</linearGradient>
<linearGradient id="paint3_linear" x1="104.062" y1="129.279" x2="108.463" y2="129.279" gradientUnits="userSpaceOnUse">
<stop offset="0.00537634" stop-color="#EBEAF0"/>
<stop offset="0.9892" stop-color="#E5E4EC"/>
</linearGradient>
<linearGradient id="paint4_linear" x1="110.064" y1="128.25" x2="115.493" y2="128.25" gradientUnits="userSpaceOnUse">
<stop offset="0.00537634" stop-color="#EBEAF0"/>
<stop offset="0.9892" stop-color="#E5E4EC"/>
</linearGradient>
<linearGradient id="paint5_linear" x1="108.393" y1="142.294" x2="110.255" y2="142.302" gradientUnits="userSpaceOnUse">
<stop offset="0.00537634" stop-color="#EBEAF0"/>
<stop offset="0.9892" stop-color="#E5E4EC"/>
</linearGradient>
</defs>
</svg>
