<svg width="151" height="167" viewBox="0 0 151 167" fill="none" xmlns="http://www.w3.org/2000/svg">
<g opacity="0.5">
<g opacity="0.5">
<g opacity="0.5">
<path opacity="0.5" d="M148.07 125.732C150.786 127.241 150.786 129.756 148.07 131.365L88.5201 165.868C85.8042 167.377 81.4788 167.377 78.8634 165.868L18.911 131.265C16.195 129.756 16.195 127.241 18.911 125.632L78.461 91.129C81.177 89.6201 85.5024 89.6201 88.2184 91.129L148.07 125.732Z" fill="white"/>
</g>
</g>
</g>
<g opacity="0.7">
<g opacity="0.7">
<path opacity="0.7" d="M80.07 17.8987C83.1884 16.0881 85.7031 17.4963 85.7031 21.1176L85.9043 98.774C85.9043 102.395 83.3896 106.721 80.2712 108.531L49.3897 126.336C46.2714 128.147 43.7566 126.738 43.7566 123.117L43.5554 45.4607C43.5554 41.8394 46.0702 37.514 49.1885 35.7034L80.07 17.8987Z" fill="#F9FCFF"/>
</g>
<g opacity="0.7">
<path opacity="0.7" d="M80.0704 19.8099C82.2835 18.5022 84.0941 19.6087 84.0941 22.1235L84.2953 99.7799C84.2953 102.295 82.4846 105.413 80.2716 106.721L49.3901 124.525C47.1771 125.833 45.3665 124.727 45.3665 122.212L45.1653 44.5553C45.1653 42.0405 46.9759 38.9222 49.1889 37.6145L59.1475 31.8808C60.4552 31.0761 61.7628 30.9755 62.6682 31.6796C63.0705 31.9814 63.5735 31.8808 64.0764 31.579L65.0823 30.9755C65.5853 30.6737 66.1889 30.0702 66.4906 29.366C67.3959 27.656 68.7036 26.2477 70.0113 25.5436L80.0704 19.8099Z" fill="url(#paint0_linear)"/>
</g>
</g>
<path d="M100.49 30.5731C99.0821 31.3779 97.875 30.7743 97.875 29.0643C97.875 27.3542 99.0821 25.3424 100.49 24.5377C101.899 23.7329 103.106 24.3365 103.106 26.0465C103.106 27.7566 101.999 29.7684 100.49 30.5731ZM110.55 24.8394C109.141 25.6442 107.934 25.0406 107.934 23.3306C107.934 21.6205 109.141 19.6087 110.55 18.804C111.958 17.9992 113.165 18.6028 113.165 20.3128C113.165 21.9223 112.058 23.9341 110.55 24.8394ZM120.709 19.0051C119.301 19.8099 118.094 19.2063 118.094 17.4963C118.094 15.7862 119.301 13.7744 120.709 12.9697C122.117 12.1649 123.325 12.7685 123.325 14.4785C123.325 16.088 122.117 18.2004 120.709 19.0051ZM123.023 0.999313L96.2655 16.4904C92.2419 18.804 88.9224 24.4371 89.023 29.1649V39.9281C89.023 44.5553 92.3425 46.4666 96.3661 44.153V50.5908L101.899 41.0346L123.123 28.7625C127.147 26.4489 130.467 20.8158 130.366 16.088V5.32474C130.366 0.496357 127.046 -1.31429 123.023 0.999313Z" fill="#F9FCFF"/>
<path d="M70.5143 65.6795L79.7687 61.857L73.1297 73.1232L74.7392 82.78L66.4907 82.5788L58.3428 92.2355L59.8517 80.8687L53.2126 77.2475L62.3664 70.4072L66.3901 58.4369L70.5143 65.6795Z" fill="white"/>
<path d="M73.1297 73.1232L74.7392 82.78L66.4907 82.5788L58.3428 92.2355L59.8517 80.8687L53.2126 77.2475L62.3664 70.4072L66.3901 58.4369L70.5143 65.6795L79.7687 61.857L73.1297 73.1232Z" fill="white"/>
<path d="M82.0824 125.531V127.241C81.8812 127.644 81.6801 128.147 81.7807 128.75C82.0824 129.153 82.7866 129.253 83.4907 129.354C84.2954 129.957 85.1002 130.46 85.9049 130.46C86.7096 130.561 88.0173 129.857 87.6149 129.153C87.3132 128.65 86.5084 128.449 85.4019 128.046C84.396 127.644 84.4966 127.241 84.4966 127.241L83.9937 125.531H82.0824Z" fill="#0B1017"/>
<path d="M79.7691 114.466C79.8697 116.076 80.6744 118.188 81.7809 120.2C80.9762 121.709 81.7809 124.727 81.5798 127.442C81.6803 128.549 83.7928 128.65 84.3963 127.342C84.1951 124.727 84.1951 121.91 84.3963 119.093C84.3963 116.377 84.0945 113.762 83.0886 111.348V109.034L78.4614 112.656L79.7691 114.466Z" fill="#2D2856"/>
<path d="M74.4375 129.454L74.3369 130.561L74.2363 131.567C74.2363 132.17 74.4375 132.975 74.7393 133.78C75.0411 134.484 75.544 134.786 76.1476 134.886L77.3547 134.685C77.757 134.484 77.757 134.082 77.4552 133.579L76.5499 131.869L76.3487 130.963L76.2482 129.454H74.4375Z" fill="#0B1017"/>
<path d="M80.3729 114.567C80.1717 117.585 79.5682 120.301 78.1599 122.212C77.2546 125.129 77.0534 127.945 76.7516 130.46C76.651 131.164 74.3374 131.466 74.1362 130.46C74.0356 129.656 73.9351 128.75 73.9351 127.945C73.9351 125.33 74.3374 122.614 75.6451 120.703C75.5445 118.59 75.7457 116.478 76.1481 114.265C76.1481 113.058 76.3492 112.052 76.651 111.147C76.7516 110.845 76.8522 110.644 76.9528 110.342C77.3552 110.443 77.7575 110.443 78.1599 110.543H78.2605C80.1717 110.644 81.6806 110.04 82.9883 108.833C83.29 111.348 82.9883 113.662 80.3729 114.567Z" fill="#2D2856"/>
<path opacity="0.5" d="M78.4614 110.543C78.4614 110.543 78.4614 110.644 78.4614 110.543C77.5561 111.65 76.9525 112.857 76.852 114.265C76.2484 116.579 76.1478 118.792 76.5502 121.005C75.1419 122.614 74.4378 125.129 74.0354 128.046C74.0354 125.431 74.4378 122.715 75.7455 120.803C75.6449 118.691 75.846 116.579 76.2484 114.366C76.2484 113.158 76.4496 112.153 76.7514 111.247L78.4614 110.543Z" fill="#924FC2"/>
<path d="M88.8223 91.632L88.7217 93.4426L89.4258 93.7444L89.9288 93.4426C90.0294 92.6379 89.627 91.8331 88.8223 91.632Z" fill="#991F24"/>
<path d="M88.5202 92.2356L88.9226 91.1291C88.6208 90.7267 88.4196 90.2238 88.3191 89.8214C88.2185 89.4191 88.1179 89.2179 88.0173 88.9161C87.8161 88.5137 88.1179 88.3126 88.3191 88.6143C88.5202 88.9161 88.6208 89.1173 88.7214 89.4191C88.822 89.5197 88.9226 89.5196 89.0232 89.5196C89.2244 89.3185 89.325 89.1173 89.325 88.9161L89.4256 88.1114V87.5078C89.4256 87.2061 89.7273 87.2061 89.8279 87.5078L89.9285 88.212L89.8279 89.0167L90.1297 88.5137L90.2303 87.709C90.2303 87.4072 90.5321 87.4072 90.5321 87.709V88.7149L90.3309 89.4191L90.6326 88.9161L90.8338 88.4131C90.9344 88.1114 91.1356 88.3126 91.1356 88.6143L90.9344 89.3185C91.035 89.1173 91.2362 89.3185 91.1356 89.6202L90.7332 90.5256L90.5321 91.1291L90.1297 91.6321L89.325 93.5433L88.5202 92.2356Z" fill="#FFAE80"/>
<path d="M88.5208 92.2355L89.3255 93.7444L89.8284 92.1349C89.4261 92.1349 89.0237 91.7326 88.9231 91.3302L88.5208 92.2355Z" fill="white"/>
<path d="M89.9285 93.4426C89.3249 95.4544 88.6208 96.5609 87.3131 97.768C85.8042 99.3775 84.1948 100.886 82.3841 101.49L82.0823 101.691L81.4788 102.093L80.7747 98.6733C81.177 98.271 81.7806 97.9692 82.4847 97.6674L86.0054 96.058L88.822 91.632C88.9225 92.3361 89.1237 93.4426 89.6267 93.5432C89.7273 93.5432 89.8279 93.5432 89.9285 93.4426Z" fill="#FF4555"/>
<path opacity="0.5" d="M89.9289 93.4428C89.3253 95.4546 88.6212 96.5611 87.3135 97.7682C85.8046 99.3776 84.1952 100.887 82.3845 101.49L82.0828 101.691L81.9822 100.685C83.5916 100.384 85.3017 99.1765 86.71 97.567C88.2188 96.7623 89.0236 95.2534 89.6271 93.3422C89.7277 93.5433 89.8283 93.5433 89.9289 93.4428Z" fill="#9E2E3B"/>
<path d="M67.9997 101.591C67.698 100.585 67.9997 100.082 68.6033 99.6793L69.408 100.786L69.0056 101.591H67.9997Z" fill="#991F24"/>
<path d="M68.9051 101.389L67.8992 100.383L66.9939 99.6793L65.988 98.9752L65.6862 98.4722L65.5856 98.271L65.3844 97.6675C65.1832 97.3657 65.3844 97.2651 65.485 97.3657L65.3844 97.1645C65.2838 96.8628 65.485 96.7622 65.6862 97.0639L66.2897 97.8687L67.0945 98.3716L67.1951 98.1705L66.9939 97.1645C66.8933 96.8628 67.1951 96.6616 67.2957 97.0639L67.698 98.0699L68.3016 99.4781L69.2069 100.182L68.9051 101.389Z" fill="#FFAE80"/>
<path d="M68.4024 99.4781C68.503 99.8805 68.3018 100.182 67.8994 100.383L69.0059 101.591L69.5089 100.283L68.4024 99.4781Z" fill="white"/>
<path d="M74.5381 101.289V104.508L76.5499 111.75C79.1653 112.454 81.9818 113.46 83.1889 110.945C83.2895 109.235 83.1889 105.312 82.7866 103.301L82.0824 100.685L80.8753 98.4722L77.6564 99.6793L74.5381 101.289Z" fill="#FF4555"/>
<path d="M75.8461 104.407C75.5444 104.508 75.142 104.608 74.5384 104.608C73.3313 104.407 72.2248 104.005 71.2189 103.502L67.8994 101.691C68.503 101.792 68.9053 100.484 68.6035 99.7799L71.8225 101.289L74.5384 101.389C75.2426 101.188 75.7455 101.49 76.1479 102.094C76.6508 103.301 76.5503 104.105 75.8461 104.407Z" fill="#FF4555"/>
<path d="M76.4497 100.283C77.9586 101.188 79.3669 102.496 80.6745 104.206C80.8757 102.395 80.5739 100.384 79.8698 98.6735C78.6627 98.9752 77.6568 99.6794 76.4497 100.283Z" fill="white"/>
<path d="M76.8518 100.383L77.3548 98.0698L79.4672 97.8687L80.0707 100.082C80.2719 101.389 77.4554 101.691 76.8518 100.383Z" fill="#FFAE80"/>
<path opacity="0.5" d="M77.7573 99.3776C77.9585 100.685 79.6686 103.2 80.6745 102.697C81.5798 101.389 81.4792 100.082 80.7751 98.774L77.7573 99.3776Z" fill="#FFAE80"/>
<path d="M77.6566 99.2771L77.8577 99.4783L78.2601 100.082C78.3607 100.182 78.4613 100.283 78.6625 100.384L79.8696 100.685C80.1713 100.685 80.4731 100.585 80.6743 100.384C80.7749 100.283 80.7749 100.283 80.7749 100.182C80.8755 99.3777 80.9761 98.4723 80.7749 97.9694V97.7682C80.7749 97.4664 80.6743 97.1647 80.4731 96.8629L79.9702 95.9576C79.4672 95.2534 78.7631 95.0522 77.8577 95.1528C77.1536 95.4546 76.7512 95.857 76.55 96.6617C76.55 97.3658 76.5501 97.9694 76.9524 98.4723L77.6566 99.2771Z" fill="#FFAE80"/>
<path d="M77.053 98.774L77.8577 98.8746L77.7572 98.0698C77.6566 96.8627 79.266 97.4663 79.8696 96.9633C80.3725 96.561 80.1713 95.7562 80.7749 96.9633C80.6743 96.4604 80.3725 95.8568 79.9702 95.4545C79.4672 94.9515 78.6625 94.8509 77.8577 95.0521C76.8518 95.3539 76.4495 96.058 76.4495 96.9633C76.3489 97.7681 76.5501 98.271 77.053 98.774Z" fill="#0B1017"/>
<path d="M77.2542 98.271C77.1536 98.1704 77.053 98.1704 77.053 98.1704C76.8518 98.1704 76.7512 98.3716 76.7512 98.4722C76.7512 98.6734 76.8518 98.774 76.8518 98.8746C76.9524 98.9751 76.9524 99.0757 77.053 99.1763C77.1536 99.2769 77.2542 99.3775 77.4554 99.3775C77.5559 99.3775 77.5559 99.3775 77.5559 99.3775V99.2769C77.6565 99.0757 77.5559 98.8745 77.4554 98.6734C77.4554 98.5728 77.4554 98.3716 77.2542 98.271Z" fill="#FFAE80"/>
<path opacity="0.5" d="M67.9998 101.591L71.3193 103.401C72.2246 104.005 73.4317 104.307 74.6388 104.508L76.6506 111.75C77.1536 111.851 77.5559 112.052 77.5559 112.052C76.3488 110.04 75.6447 106.017 75.8459 104.407C75.8459 104.307 75.8459 104.105 75.9465 104.005C75.5441 104.105 75.0411 104.105 74.6388 104.005C73.7335 103.904 72.9287 103.502 72.124 103.099L67.9998 101.591Z" fill="#9E2E3B"/>
<path d="M100.893 103.904L99.7864 110.644L103.206 112.656L104.313 105.815L100.893 103.904Z" fill="#FF4555"/>
<path d="M104.011 108.028L103.307 107.626L102.402 108.129C102.201 108.23 102.1 108.632 102.402 108.531L103.005 108.431C103.005 108.833 103.106 109.034 103.307 109.235L103.609 109.537H104.715L104.816 108.833L104.011 108.028Z" fill="#FFAE80"/>
<path d="M108.035 109.135L104.917 108.934C104.313 109.135 104.213 109.839 104.514 110.342L107.432 111.549L108.035 109.135Z" fill="#C8E6E2"/>
<path d="M104.816 137.2C104.816 136.596 105.319 136.395 106.023 136.295C106.627 136.295 107.432 136.596 108.538 136.798L109.745 137.502C109.946 138.105 109.946 138.709 109.846 139.212C109.544 139.513 109.041 139.715 108.639 139.614L107.23 139.011L107.13 138.809C106.023 138.608 104.816 138.105 104.816 137.2Z" fill="#0B1017"/>
<path d="M109.343 134.685C109.343 134.182 109.745 134.082 110.45 134.082C111.657 134.082 111.757 134.685 112.864 134.685L113.97 135.389C114.171 135.993 114.171 136.697 113.97 137.2C113.668 137.502 113.165 137.602 112.763 137.502L111.657 136.798L111.556 136.596C110.45 136.496 109.343 135.691 109.343 134.685Z" fill="#0B1017"/>
<path d="M113.266 117.584L109.242 119.295C109.242 119.999 109.242 120.703 109.343 121.206C109.645 123.117 110.349 125.833 110.349 125.833C110.852 128.247 111.153 131.164 111.254 134.283C111.254 135.389 112.964 136.395 114.071 135.289C114.372 131.466 114.372 127.744 113.467 125.33C113.869 123.419 113.467 121.206 113.366 118.993C113.366 118.993 113.165 117.584 113.266 117.584Z" fill="#201C3D"/>
<path d="M110.248 121.608C110.248 123.821 110.248 125.632 109.745 127.543C110.55 129.957 110.349 133.679 109.745 137.502C109.041 138.206 108.136 138.206 107.532 137.803C107.13 137.502 106.929 137.099 107.029 136.496L106.627 128.046C106.627 128.046 106.023 125.229 105.923 123.419C105.722 121.608 106.426 117.283 106.426 117.283C106.828 117.383 107.13 117.484 107.532 117.484C109.947 117.786 112.16 116.88 112.864 115.573C112.864 115.673 112.964 115.774 112.964 115.874C113.266 116.679 113.367 117.584 113.367 118.49C113.467 120.401 111.556 121.105 110.248 121.608Z" fill="#2D2856"/>
<path d="M105.923 110.141C106.124 111.348 106.124 112.555 106.124 113.762C106.124 114.164 106.124 114.567 106.124 115.07C106.124 115.875 106.225 116.579 106.426 117.283C106.728 117.484 107.13 117.585 107.432 117.685C109.544 118.389 111.355 117.987 112.864 115.875C113.165 114.969 114.171 111.951 114.473 108.833C114.473 107.425 113.97 106.419 112.763 106.017C110.651 106.52 108.438 107.928 106.124 109.839C106.124 109.94 106.023 110.04 105.923 110.141Z" fill="white"/>
<path d="M108.237 106.218L108.438 108.129C109.745 108.129 111.657 107.224 111.455 106.62L110.751 105.312L108.237 106.218Z" fill="#FFAE80"/>
<path d="M107.633 106.419C108.136 107.023 108.84 106.922 109.645 106.721C110.751 106.218 111.556 105.413 111.455 104.005C111.556 102.898 111.053 101.792 109.242 101.892C108.136 101.892 107.13 102.395 107.029 103.602C107.029 103.602 107.029 105.916 107.633 106.419Z" fill="#FFAE80"/>
<path d="M108.337 107.525L107.834 108.531C109.946 108.33 111.958 107.525 111.455 106.52L111.053 106.017C111.355 106.721 109.242 107.626 108.337 107.525Z" fill="#C8E6E2"/>
<path d="M107.029 103.301C107.13 103.703 107.432 104.005 107.733 104.307C107.733 104.307 107.633 105.212 107.733 105.312C107.834 105.312 108.236 105.715 108.236 105.715L108.538 106.419C109.444 107.023 110.651 106.52 111.053 106.017C111.254 105.715 111.556 104.608 111.455 103.401C111.355 102.496 110.651 101.591 109.242 101.49C107.834 101.49 106.929 102.295 107.029 103.301Z" fill="#0B1017"/>
<path d="M107.934 105.413C107.834 105.212 108.035 104.91 108.136 104.809C108.337 104.709 108.437 105.011 108.538 105.212C108.538 105.413 108.538 105.614 108.437 105.815C108.337 106.017 108.035 105.815 108.035 105.614C107.834 105.514 108.035 105.514 107.934 105.413Z" fill="#FFAE80"/>
<path d="M105.923 123.318C106.023 125.229 106.627 127.945 106.627 127.945L107.029 136.395C106.929 136.999 107.231 137.401 107.532 137.703C107.13 134.182 107.029 130.762 107.532 128.247C106.728 125.33 106.325 122.212 107.331 119.999C107.331 119.093 107.231 118.289 107.432 117.584C107.13 117.484 106.728 117.383 106.426 117.182C106.426 117.283 105.722 121.508 105.923 123.318Z" fill="#A263C7"/>
<path d="M108.538 111.952L108.941 117.886L106.828 121.005L106.526 115.875L108.538 111.952Z" fill="#D6EEEB"/>
<path d="M104.716 121.608L105.822 121.206H105.923L106.023 121.306C106.023 121.407 106.426 123.117 106.426 123.218C106.325 123.721 106.124 124.123 105.822 124.626L104.917 125.229C104.917 125.229 104.414 125.431 104.414 125.129L104.716 124.727L104.514 124.123L104.313 123.721L104.112 124.123C103.81 124.727 103.408 124.727 103.408 124.425L103.71 123.821L103.911 122.815L104.716 121.608Z" fill="#FFAE80"/>
<path d="M106.728 109.336C105.822 109.939 105.319 110.342 105.319 112.153L105.521 117.182L104.414 121.91C104.515 122.413 105.621 122.715 106.024 122.413C106.828 121.206 107.13 120.099 108.035 117.987L108.438 112.555C108.639 110.442 108.639 109.034 106.728 109.336Z" fill="white"/>
<path d="M39.13 63.7682L39.2306 90.3243L0.100591 112.957L0 86.4013L39.13 63.7682ZM38.7276 59.7446V44.153L11.1656 60.147V75.7386L38.7276 59.7446Z" fill="url(#paint1_linear)"/>
<defs>
<linearGradient id="paint0_linear" x1="114.836" y1="-10.204" x2="52.1688" y2="92.8244" gradientUnits="userSpaceOnUse">
<stop stop-color="white"/>
<stop offset="0.3871" stop-color="#FCFBFF"/>
<stop offset="0.8113" stop-color="#F3EDFE"/>
<stop offset="1" stop-color="#EDE5FE"/>
</linearGradient>
<linearGradient id="paint1_linear" x1="13.8798" y1="50.5659" x2="30.2466" y2="133.659" gradientUnits="userSpaceOnUse">
<stop stop-color="#ACA3D7"/>
<stop offset="0.1039" stop-color="#9A8FCE" stop-opacity="0.892"/>
<stop offset="0.5178" stop-color="#5846AE" stop-opacity="0.4622"/>
<stop offset="0.8144" stop-color="#2E189A" stop-opacity="0.154"/>
<stop offset="0.9627" stop-color="#1E0692" stop-opacity="0"/>
</linearGradient>
</defs>
</svg>
