<?xml version="1.0" encoding="UTF-8"?>
<svg xmlns="http://www.w3.org/2000/svg" xmlns:xlink="http://www.w3.org/1999/xlink" viewBox="0 0 1476.49 386"> <defs> <style>.cls-1{fill:#fff;}.cls-2,.cls-8{isolation:isolate;}.cls-23,.cls-3{fill:#1e0692;}.cls-3{opacity:0.8;}.cls-12,.cls-16,.cls-17,.cls-4{opacity:0.5;}.cls-5{opacity:0.7;}.cls-6{fill:#f9fcff;}.cls-7{fill:url(#linear-gradient);}.cls-8{mix-blend-mode:overlay;}.cls-9{clip-path:url(#clip-path);}.cls-10{fill:#0b1017;}.cls-11{fill:#2d2856;}.cls-12{fill:#924fc2;}.cls-12,.cls-16,.cls-17,.cls-20,.cls-21{mix-blend-mode:multiply;}.cls-13{fill:#991f24;}.cls-14,.cls-17{fill:#ffae80;}.cls-15{fill:#ff4555;}.cls-16{fill:#9e2e3b;}.cls-18{fill:#c8e6e2;}.cls-19{fill:#201c3d;}.cls-20{fill:#a263c7;}.cls-21{fill:#d6eeeb;}.cls-22{mix-blend-mode:screen;fill:url(#linear-gradient-2);}</style> <linearGradient id="linear-gradient" x1="213.06" y1="4.94" x2="118.38" y2="160.59" gradientUnits="userSpaceOnUse"> <stop offset="0" stop-color="#fff"/> <stop offset="0.39" stop-color="#fcfbff"/> <stop offset="0.81" stop-color="#f3edfe"/> <stop offset="1" stop-color="#ede5fe"/> </linearGradient> <clipPath id="clip-path"> <polygon class="cls-1" points="146.16 119.53 160.03 113.84 150.03 130.87 152.44 145.37 140.02 145.04 127.64 159.69 129.96 142.46 119.89 137.01 133.75 126.69 139.92 108.67 146.16 119.53"/> </clipPath> <linearGradient id="linear-gradient-2" x1="60.54" y1="96.75" x2="85.26" y2="222.28" gradientUnits="userSpaceOnUse"> <stop offset="0" stop-color="#aca3d7"/> <stop offset="0.31" stop-color="#796abe" stop-opacity="0.64"/> <stop offset="0.62" stop-color="#4835a7" stop-opacity="0.3"/> <stop offset="0.85" stop-color="#2a1398" stop-opacity="0.08"/> <stop offset="0.96" stop-color="#1e0692" stop-opacity="0"/> </linearGradient> </defs> <g class="cls-2"> <g id="Слой_2" data-name="Слой 2"> <g id="Text"> <rect class="cls-3" width="1476.49" height="386" rx="30"/> <path class="cls-1" d="M322.61,73.88h-8v7.38h8.87v2.22H312V63h11.07v2.22h-8.42v6.47h8Z"/> <path class="cls-1" d="M339.45,61.9V79.68c0,1.31,0,2.8.12,3.8h-2.4l-.12-2.55H337a5.45,5.45,0,0,1-5,2.89c-3.55,0-6.29-3-6.29-7.48,0-4.89,3-7.9,6.6-7.9a4.88,4.88,0,0,1,4.43,2.25h.06V61.9Zm-2.68,12.86a4.83,4.83,0,0,0-.12-1.13,3.93,3.93,0,0,0-3.86-3.1c-2.76,0-4.4,2.44-4.4,5.69,0,3,1.46,5.44,4.34,5.44a4,4,0,0,0,3.92-3.19,4.75,4.75,0,0,0,.12-1.16Z"/> <path class="cls-1" d="M358.29,82.81a13,13,0,0,1-5.41,1c-5.77,0-10.12-3.65-10.12-10.37,0-6.41,4.35-10.76,10.7-10.76a11,11,0,0,1,4.86.91l-.63,2.16a9.76,9.76,0,0,0-4.14-.85c-4.8,0-8,3.07-8,8.45,0,5,2.89,8.24,7.87,8.24a10.74,10.74,0,0,0,4.32-.85Z"/> <path class="cls-1" d="M361.42,73.36c0-1.73,0-3.22-.12-4.59h2.34l.09,2.89h.13a4.4,4.4,0,0,1,4.07-3.22,2.93,2.93,0,0,1,.76.09v2.52a4.06,4.06,0,0,0-.91-.09c-1.89,0-3.22,1.43-3.59,3.43a7.69,7.69,0,0,0-.12,1.25v7.84h-2.65Z"/> <path class="cls-1" d="M383.67,79.47c0,1.52,0,2.86.12,4h-2.37l-.15-2.4h-.06a5.53,5.53,0,0,1-4.86,2.74c-2.31,0-5.08-1.28-5.08-6.45v-8.6H374v8.15c0,2.79.85,4.68,3.28,4.68a3.86,3.86,0,0,0,3.52-2.43A3.79,3.79,0,0,0,381,77.8v-9h2.67Z"/> <path class="cls-1" d="M388.11,72.75c0-1.52,0-2.76-.12-4h2.37l.15,2.43h.06a5.4,5.4,0,0,1,4.87-2.76c2,0,5.19,1.21,5.19,6.26v8.78H398V75c0-2.37-.88-4.34-3.41-4.34A3.78,3.78,0,0,0,391,73.39a3.91,3.91,0,0,0-.19,1.25v8.84h-2.67Z"/> <path class="cls-1" d="M415.46,82.94a9.93,9.93,0,0,1-4.22.85c-4.44,0-7.33-3-7.33-7.51a7.47,7.47,0,0,1,7.91-7.81,8.78,8.78,0,0,1,3.7.76l-.6,2.06a6.28,6.28,0,0,0-3.1-.7c-3.38,0-5.2,2.5-5.2,5.57,0,3.4,2.19,5.5,5.11,5.5a7.69,7.69,0,0,0,3.28-.73Z"/> <path class="cls-1" d="M418.59,61.9h2.68v9.18h.06a4.93,4.93,0,0,1,1.91-1.88,5.52,5.52,0,0,1,2.74-.76c2,0,5.14,1.21,5.14,6.29v8.75h-2.68V75c0-2.37-.88-4.37-3.4-4.37a3.85,3.85,0,0,0-3.59,2.67,3.3,3.3,0,0,0-.18,1.28v8.87h-2.68Z"/> <path class="cls-1" d="M445.31,77l-2.13,6.44h-2.73l7-20.48h3.19l7,20.48h-2.83L452.57,77ZM452,75l-2-5.89c-.45-1.34-.76-2.56-1.06-3.74h-.06c-.31,1.21-.64,2.46-1,3.7l-2,5.93Z"/> <path class="cls-1" d="M460.93,68.77l1.95,7.48c.42,1.64.82,3.16,1.09,4.68h.09c.34-1.49.82-3.07,1.31-4.65l2.4-7.51H470l2.28,7.36c.55,1.76,1,3.31,1.31,4.8h.09a44.71,44.71,0,0,1,1.12-4.77l2.1-7.39h2.65l-4.75,14.71h-2.43l-2.25-7a49.6,49.6,0,0,1-1.3-4.83h-.07a44.05,44.05,0,0,1-1.33,4.86l-2.37,7h-2.43L458.2,68.77Z"/> <path class="cls-1" d="M490.26,83.48l-.21-1.85H490a5.49,5.49,0,0,1-4.5,2.19,4.19,4.19,0,0,1-4.5-4.23c0-3.55,3.16-5.5,8.85-5.47v-.3c0-1.22-.34-3.41-3.35-3.41a7.36,7.36,0,0,0-3.83,1.1l-.6-1.77a9.12,9.12,0,0,1,4.83-1.3c4.5,0,5.59,3.07,5.59,6V80a19.87,19.87,0,0,0,.25,3.52ZM489.87,76c-2.92-.06-6.23.46-6.23,3.32a2.36,2.36,0,0,0,2.52,2.55,3.66,3.66,0,0,0,3.56-2.46,2.82,2.82,0,0,0,.15-.85Z"/> <path class="cls-1" d="M496.77,73.36c0-1.73,0-3.22-.12-4.59H499l.09,2.89h.12a4.41,4.41,0,0,1,4.07-3.22,2.88,2.88,0,0,1,.76.09v2.52a4.06,4.06,0,0,0-.91-.09c-1.89,0-3.22,1.43-3.59,3.43a7.69,7.69,0,0,0-.12,1.25v7.84h-2.64Z"/> <path class="cls-1" d="M519.11,61.9V79.68c0,1.31,0,2.8.12,3.8h-2.4l-.12-2.55h-.06a5.47,5.47,0,0,1-5,2.89c-3.56,0-6.29-3-6.29-7.48,0-4.89,3-7.9,6.59-7.9a4.91,4.91,0,0,1,4.44,2.25h.06V61.9Zm-2.68,12.86a4.83,4.83,0,0,0-.12-1.13,3.93,3.93,0,0,0-3.86-3.1c-2.76,0-4.41,2.44-4.41,5.69,0,3,1.46,5.44,4.35,5.44a4,4,0,0,0,3.92-3.19,4.75,4.75,0,0,0,.12-1.16Z"/> <path class="cls-1" d="M557.25,74.85v1.82H528.68V74.85Z"/> <path class="cls-1" d="M314.56,105.24v6.39h.63l5.54-6.39H324l-6.41,6.66c2.37.24,3.79,1.82,4.95,4.47A30.51,30.51,0,0,0,324.1,120h-2.8a19.93,19.93,0,0,1-1.36-3c-1-2.37-2.37-3.47-4.87-3.47h-.51V120h-2.65V105.24Z"/> <path class="cls-1" d="M339.6,112.48c0,5.44-3.77,7.81-7.32,7.81-4,0-7.06-2.92-7.06-7.57,0-4.92,3.23-7.81,7.3-7.81C336.74,104.91,339.6,108,339.6,112.48Zm-11.67.15c0,3.22,1.85,5.65,4.47,5.65s4.47-2.4,4.47-5.71c0-2.49-1.25-5.65-4.41-5.65S327.93,109.83,327.93,112.63Z"/> <path class="cls-1" d="M345.56,105.24v5.93h7v-5.93h2.64V120h-2.64V113.3h-7V120h-2.65V105.24Z"/> <path class="cls-1" d="M362.21,105.24v6.39h.64l5.53-6.39h3.26l-6.42,6.66c2.37.24,3.8,1.82,5,4.47a30.51,30.51,0,0,0,1.58,3.59H369a20.85,20.85,0,0,1-1.37-3c-1-2.37-2.37-3.47-4.86-3.47h-.52V120h-2.64V105.24Z"/> <path class="cls-1" d="M375.31,105.24l3.22,8.7c.34,1,.7,2.13,1,3h.06c.27-.88.58-2,.94-3.07l2.92-8.64h2.83l-4,10.49c-1.91,5-3.22,7.63-5,9.21a7.19,7.19,0,0,1-3.29,1.73l-.66-2.25a7,7,0,0,0,2.34-1.3,8.14,8.14,0,0,0,2.25-3,2,2,0,0,0,.21-.64,2.34,2.34,0,0,0-.18-.7l-5.44-13.56Z"/> <path class="cls-1" d="M388.66,110.05c0-1.89-.06-3.41-.13-4.81h2.41l.12,2.53h.06a5.76,5.76,0,0,1,5.23-2.86c3.55,0,6.23,3,6.23,7.48,0,5.29-3.22,7.9-6.69,7.9a5.15,5.15,0,0,1-4.53-2.31h-.06v8h-2.64ZM391.3,114a6.06,6.06,0,0,0,.12,1.09,4.12,4.12,0,0,0,4,3.13c2.83,0,4.47-2.31,4.47-5.68,0-3-1.55-5.47-4.38-5.47a4.26,4.26,0,0,0-4,3.31,4.44,4.44,0,0,0-.18,1.1Z"/> <path class="cls-1" d="M416.44,119.41a9.94,9.94,0,0,1-4.23.85c-4.44,0-7.32-3-7.32-7.51a7.47,7.47,0,0,1,7.9-7.81,9,9,0,0,1,3.71.76l-.61,2.07a6.15,6.15,0,0,0-3.1-.7c-3.38,0-5.2,2.49-5.2,5.56,0,3.4,2.19,5.5,5.11,5.5a7.5,7.5,0,0,0,3.28-.73Z"/> <path class="cls-1" d="M437,105.24V120H434.4V107.34h-5v3.83c0,4.14-.39,6.9-2.31,8.15a4.34,4.34,0,0,1-2.92.91l-.27-2.1a3.2,3.2,0,0,0,1.46-.61c1.37-1,1.52-3.07,1.52-6.35v-5.93Z"/> <path class="cls-1" d="M442.27,105.24l3.22,8.7c.34,1,.7,2.13.94,3h.06c.28-.88.58-2,.95-3.07l2.91-8.64h2.83l-4,10.49c-1.92,5-3.22,7.63-5.05,9.21a7.13,7.13,0,0,1-3.28,1.73l-.67-2.25a7,7,0,0,0,2.34-1.3,8.14,8.14,0,0,0,2.25-3,2,2,0,0,0,.21-.64,2.34,2.34,0,0,0-.18-.7l-5.44-13.56Z"/> <path class="cls-1" d="M458,105.24v4.84c0,1.85.7,3.13,3,3.13a5.5,5.5,0,0,0,3.16-1v-6.93h2.65V120h-2.65v-5.9h-.06a7.7,7.7,0,0,1-4,1.12c-2.8,0-4.83-1.42-4.83-4.8v-5.14Z"/> <path class="cls-1" d="M473.82,105.24v12.62H479V105.24h2.61v12.62h5.14V105.24h2.64V120H471.2V105.24Z"/> <path class="cls-1" d="M496.16,105.24v6.21c0,2.34,0,3.79-.15,5.89l.09,0c.88-1.79,1.4-2.82,2.37-4.53l4.59-7.6h3.13V120h-2.55v-6.24c0-2.4.06-3.64.18-6h-.09c-1,1.88-1.58,3.07-2.44,4.56-1.39,2.28-3,5.1-4.58,7.69h-3.07V105.24Z"/> <path class="cls-1" d="M511.78,105.24l2.1,3.17c.54.82,1,1.58,1.49,2.4h.09c.48-.89,1-1.64,1.46-2.43l2.06-3.14h2.89l-5,7.12L522,120h-3l-2.15-3.32c-.58-.85-1.07-1.67-1.59-2.55h-.06c-.48.88-1,1.67-1.55,2.55L511.51,120h-2.95l5.23-7.51-5-7.21Z"/> <path class="cls-1" d="M325.23,149c0,5.44-3.77,7.81-7.33,7.81-4,0-7-2.91-7-7.57,0-4.92,3.22-7.81,7.29-7.81C322.37,141.38,325.23,144.45,325.23,149Zm-11.68.15c0,3.23,1.86,5.66,4.47,5.66s4.47-2.4,4.47-5.72c0-2.49-1.25-5.65-4.41-5.65S313.55,146.31,313.55,149.1Z"/> <path class="cls-1" d="M331.18,141.72v5.92h7v-5.92h2.65v14.71h-2.65v-6.66h-7v6.66h-2.64V141.72Z"/> <path class="cls-1" d="M356.35,141.72v14.71H353.7V143.81h-5v3.83c0,4.14-.4,6.9-2.31,8.15a4.28,4.28,0,0,1-2.92.91l-.27-2.09a3.44,3.44,0,0,0,1.45-.61c1.37-1,1.53-3.07,1.53-6.36v-5.92Z"/> <path class="cls-1" d="M368.87,156.43l-.21-1.86h-.09a5.49,5.49,0,0,1-4.5,2.19,4.19,4.19,0,0,1-4.5-4.22c0-3.56,3.16-5.5,8.84-5.47v-.31c0-1.21-.33-3.4-3.34-3.4a7.3,7.3,0,0,0-3.83,1.09l-.61-1.76a9.16,9.16,0,0,1,4.84-1.31c4.49,0,5.59,3.07,5.59,6v5.5a21,21,0,0,0,.24,3.53Zm-.4-7.51c-2.91-.06-6.23.46-6.23,3.31a2.37,2.37,0,0,0,2.53,2.56,3.66,3.66,0,0,0,3.55-2.46,2.88,2.88,0,0,0,.15-.86Z"/> <path class="cls-1" d="M377.83,141.72v6.2c0,2.34,0,3.8-.15,5.89l.09,0c.89-1.8,1.4-2.83,2.38-4.53l4.58-7.6h3.14v14.71h-2.56V150.2c0-2.4.06-3.65.18-6h-.09c-.94,1.88-1.58,3.07-2.43,4.56-1.4,2.28-3,5.11-4.59,7.69h-3.07V141.72Zm1.74-6c.09,1.31.73,2.31,1.94,2.31s1.92-1,2.07-2.31h1.91a3.68,3.68,0,0,1-4,3.77c-2.67,0-3.71-1.67-3.83-3.77Z"/> <path class="cls-1" d="M394.79,141.72v5.92h7v-5.92h2.64v14.71h-2.64v-6.66h-7v6.66h-2.64V141.72Z"/> <path class="cls-1" d="M415,147.22v2H407.5v-2Z"/> <path class="cls-1" d="M420.78,141.72v6.38h.64l5.53-6.38h3.25l-6.41,6.65c2.37.25,3.8,1.83,4.95,4.47a34.25,34.25,0,0,0,1.58,3.59h-2.79a19.36,19.36,0,0,1-1.37-3c-1-2.37-2.37-3.47-4.86-3.47h-.52v6.48h-2.64V141.72Z"/> <path class="cls-1" d="M433.88,141.72l3.22,8.69c.34,1,.7,2.13.94,3h.07c.27-.88.57-2,.94-3.07l2.92-8.63h2.82l-4,10.48c-1.91,5.05-3.22,7.63-5,9.21a7.27,7.27,0,0,1-3.28,1.74l-.67-2.25a7.18,7.18,0,0,0,2.34-1.31,8,8,0,0,0,2.25-3,1.93,1.93,0,0,0,.22-.64,2.54,2.54,0,0,0-.19-.7L431,141.72Z"/> <path class="cls-1" d="M447.22,146.52c0-1.88-.06-3.4-.12-4.8h2.4l.12,2.52h.07a5.78,5.78,0,0,1,5.22-2.86c3.56,0,6.23,3,6.23,7.48,0,5.29-3.22,7.9-6.68,7.9a5.15,5.15,0,0,1-4.53-2.31h-.06v8h-2.65Zm2.65,3.92a6.17,6.17,0,0,0,.12,1.1,4.14,4.14,0,0,0,4,3.13c2.83,0,4.47-2.31,4.47-5.69,0-2.95-1.55-5.47-4.38-5.47a4.28,4.28,0,0,0-4,3.31,4.44,4.44,0,0,0-.18,1.1Z"/> <path class="cls-1" d="M475,155.88a9.77,9.77,0,0,1-4.22.85c-4.44,0-7.33-3-7.33-7.5a7.48,7.48,0,0,1,7.91-7.82,9.07,9.07,0,0,1,3.71.76l-.61,2.07a6.25,6.25,0,0,0-3.1-.7c-3.38,0-5.2,2.49-5.2,5.56,0,3.41,2.19,5.51,5.11,5.51a7.69,7.69,0,0,0,3.28-.73Z"/> <path class="cls-1" d="M491.26,149c0,5.44-3.77,7.81-7.32,7.81-4,0-7.05-2.91-7.05-7.57,0-4.92,3.22-7.81,7.29-7.81C488.41,141.38,491.26,144.45,491.26,149Zm-11.67.15c0,3.23,1.86,5.66,4.47,5.66s4.47-2.4,4.47-5.72c0-2.49-1.25-5.65-4.41-5.65S479.59,146.31,479.59,149.1Z"/> <path class="cls-1" d="M494.58,141.9a31.62,31.62,0,0,1,4.68-.33c2.46,0,6.53.39,6.53,3.67a3.49,3.49,0,0,1-3.07,3.32v.06c2.16.3,3.74,1.52,3.74,3.64,0,3.87-4.86,4.35-7.75,4.35-1.64,0-3.34-.12-4.13-.18Zm2.52,12.77a16.45,16.45,0,0,0,2.16.12c1.79,0,4.47-.43,4.47-2.56s-2.13-2.58-4.69-2.58H497.1Zm0-6.78h2c2,0,4-.58,4-2.31,0-1.46-1.28-2.16-3.95-2.16a19.29,19.29,0,0,0-2.07.12Z"/> <path class="cls-1" d="M322.4,192.35a9.76,9.76,0,0,1-4.23.86c-4.43,0-7.32-3-7.32-7.51a7.47,7.47,0,0,1,7.9-7.81,8.87,8.87,0,0,1,3.71.76l-.61,2.06a6.25,6.25,0,0,0-3.1-.7c-3.37,0-5.2,2.5-5.2,5.57,0,3.4,2.19,5.5,5.11,5.5a7.65,7.65,0,0,0,3.28-.73Z"/> <path class="cls-1" d="M345.28,185.42c0,5.45-3.76,7.82-7.32,7.82-4,0-7-2.92-7-7.57,0-4.93,3.22-7.81,7.29-7.81C342.43,177.86,345.28,180.93,345.28,185.42Zm-11.67.16c0,3.22,1.86,5.65,4.47,5.65s4.47-2.4,4.47-5.71c0-2.5-1.25-5.66-4.41-5.66S333.61,182.78,333.61,185.58Z"/> <path class="cls-1" d="M358.35,178.19v2.13h-4.59V192.9h-2.64V180.32h-4.59v-2.13Z"/> <path class="cls-1" d="M363.34,178.19v6.38H364l5.53-6.38h3.25l-6.41,6.66c2.37.24,3.8,1.82,4.95,4.47a33.27,33.27,0,0,0,1.58,3.58h-2.79a19.36,19.36,0,0,1-1.37-3c-1-2.37-2.37-3.46-4.86-3.46h-.52v6.47h-2.65V178.19Z"/> <path class="cls-1" d="M375.25,183c0-1.88-.06-3.4-.12-4.8h2.4l.12,2.52h.07a5.77,5.77,0,0,1,5.22-2.85c3.56,0,6.23,3,6.23,7.47,0,5.29-3.22,7.91-6.68,7.91a5.15,5.15,0,0,1-4.53-2.31h-.06v8h-2.65Zm2.65,3.92A6.17,6.17,0,0,0,378,188a4.14,4.14,0,0,0,4,3.13c2.83,0,4.47-2.31,4.47-5.68,0-3-1.55-5.48-4.38-5.48a4.27,4.27,0,0,0-4,3.32,4.36,4.36,0,0,0-.18,1.09Z"/> <path class="cls-1" d="M395.13,178.19v5a11.91,11.91,0,0,1,2.4-.19c3.16,0,6.36,1.31,6.36,4.93a4.16,4.16,0,0,1-1.52,3.4,9.29,9.29,0,0,1-5.93,1.7,36.79,36.79,0,0,1-3.95-.21V178.19Zm0,12.86a15.21,15.21,0,0,0,1.85.12c2,0,4.26-.85,4.26-3.13s-2.13-3.1-4.13-3.1a12.39,12.39,0,0,0-2,.15Zm13.25-12.86V192.9h-2.64V178.19Z"/> <path class="cls-1" d="M422.61,178.19v2.13H418V192.9h-2.65V180.32h-4.59v-2.13Z"/> <path class="cls-1" d="M427.53,178.19v5a11.91,11.91,0,0,1,2.4-.19c3.16,0,6.36,1.31,6.36,4.93a4.16,4.16,0,0,1-1.52,3.4,9.29,9.29,0,0,1-5.93,1.7,36.79,36.79,0,0,1-3.95-.21V178.19Zm0,12.86a15.25,15.25,0,0,0,1.86.12c2,0,4.25-.85,4.25-3.13s-2.13-3.1-4.13-3.1a12.39,12.39,0,0,0-2,.15Zm13.25-12.86V192.9h-2.64V178.19Z"/> <path class="cls-1" d="M445.31,178.19h3.28l2.68,7.42c.36,1.09,1,2.88,1.34,4h.06c.33-1.09,1.15-3.43,1.73-5.05l2.37-6.41h3.31l1,14.71h-2.56l-.33-7c-.09-1.58-.21-3.46-.27-5.26h-.1c-.39,1.34-.79,2.53-1.61,4.77l-2.82,7.42h-1.95l-2.61-7.26c-.46-1.4-1.1-3.53-1.46-4.9h-.12c-.06,1.73-.15,3.68-.25,5.29l-.36,7h-2.46Z"/> <path class="cls-1" d="M482.42,178.19V190.9l1.52,0-.15,6.65h-2.1l-.12-4.68H471.39l-.12,4.68h-2.1l-.12-6.65,1.25,0a11.76,11.76,0,0,0,1.45-3,19.38,19.38,0,0,0,.86-5.87v-3.83ZM475,182.66a19.75,19.75,0,0,1-.76,5.47,14.24,14.24,0,0,1-1.19,2.74h6.78V180.23H475Z"/> <path class="cls-1" d="M500.33,185.42c0,5.45-3.77,7.82-7.33,7.82-4,0-7.05-2.92-7.05-7.57,0-4.93,3.22-7.81,7.29-7.81C497.47,177.86,500.33,180.93,500.33,185.42Zm-11.68.16c0,3.22,1.86,5.65,4.47,5.65s4.47-2.4,4.47-5.71c0-2.5-1.25-5.66-4.41-5.66S488.65,182.78,488.65,185.58Z"/> <path class="cls-1" d="M514.19,192.35a9.76,9.76,0,0,1-4.23.86c-4.44,0-7.32-3-7.32-7.51a7.47,7.47,0,0,1,7.9-7.81,8.87,8.87,0,0,1,3.71.76l-.61,2.06a6.25,6.25,0,0,0-3.1-.7c-3.38,0-5.2,2.5-5.2,5.57,0,3.4,2.19,5.5,5.11,5.5a7.65,7.65,0,0,0,3.28-.73Z"/> <path class="cls-1" d="M527.74,178.19v2.13h-4.59V192.9h-2.64V180.32h-4.59v-2.13Z"/> <path class="cls-1" d="M531.69,178.19l3.22,8.69c.34,1,.7,2.13,1,3h.06c.27-.88.57-2,.94-3.07l2.92-8.63h2.82l-4,10.49c-1.91,5-3.22,7.63-5,9.21a7.3,7.3,0,0,1-3.29,1.73l-.67-2.25a7,7,0,0,0,2.35-1.31,8,8,0,0,0,2.24-3,1.75,1.75,0,0,0,.22-.63,2.28,2.28,0,0,0-.18-.7l-5.45-13.56Z"/> <path class="cls-1" d="M557.13,178.19V192.9h-2.67V180.32h-6.84V192.9H545V178.19Z"/> <path class="cls-1" d="M574.79,185.42c0,5.45-3.77,7.82-7.32,7.82-4,0-7.06-2.92-7.06-7.57,0-4.93,3.23-7.81,7.3-7.81S574.79,180.93,574.79,185.42Zm-11.67.16c0,3.22,1.85,5.65,4.47,5.65s4.47-2.4,4.47-5.71c0-2.5-1.25-5.66-4.41-5.66S563.12,182.78,563.12,185.58Z"/> <path class="cls-1" d="M578.32,178.19h3.28l2.67,7.42c.37,1.09,1,2.88,1.34,4h.06c.34-1.09,1.16-3.43,1.73-5.05l2.37-6.41h3.32l1,14.71h-2.55l-.34-7c-.09-1.58-.21-3.46-.27-5.26h-.09c-.4,1.34-.79,2.53-1.61,4.77l-2.83,7.42h-1.94l-2.62-7.26c-.45-1.4-1.09-3.53-1.46-4.9h-.12c-.06,1.73-.15,3.68-.24,5.29l-.37,7h-2.46Z"/> <path class="cls-1" d="M597,191.32a1.79,1.79,0,0,1,1.82-1.91,1.92,1.92,0,0,1,0,3.83A1.79,1.79,0,0,1,597,191.32Z"/> <path class="cls-1" d="M672.2,73.88h-8v7.38h8.88v2.22H661.6V63h11.06v2.22h-8.42v6.47h8Z"/> <path class="cls-1" d="M689,61.9V79.68c0,1.31,0,2.8.13,3.8h-2.41l-.12-2.55h-.06a5.44,5.44,0,0,1-5,2.89c-3.56,0-6.3-3-6.3-7.48,0-4.89,3-7.9,6.6-7.9a4.91,4.91,0,0,1,4.44,2.25h.06V61.9Zm-2.67,12.86a4.83,4.83,0,0,0-.12-1.13,3.94,3.94,0,0,0-3.86-3.1c-2.77,0-4.41,2.44-4.41,5.69,0,3,1.46,5.44,4.35,5.44a4,4,0,0,0,3.92-3.19,4.75,4.75,0,0,0,.12-1.16Z"/> <path class="cls-1" d="M707.89,82.81a13,13,0,0,1-5.41,1c-5.78,0-10.12-3.65-10.12-10.37,0-6.41,4.34-10.76,10.7-10.76a11.06,11.06,0,0,1,4.86.91l-.64,2.16a9.71,9.71,0,0,0-4.13-.85c-4.81,0-8,3.07-8,8.45,0,5,2.89,8.24,7.87,8.24a10.67,10.67,0,0,0,4.32-.85Z"/> <path class="cls-1" d="M711,73.36c0-1.73,0-3.22-.12-4.59h2.34l.09,2.89h.12a4.41,4.41,0,0,1,4.07-3.22,2.88,2.88,0,0,1,.76.09v2.52a4,4,0,0,0-.91-.09c-1.88,0-3.22,1.43-3.59,3.43a7.69,7.69,0,0,0-.12,1.25v7.84H711Z"/> <path class="cls-1" d="M733.27,79.47c0,1.52,0,2.86.12,4H731l-.16-2.4h-.06a5.52,5.52,0,0,1-4.86,2.74c-2.31,0-5.08-1.28-5.08-6.45v-8.6h2.68v8.15c0,2.79.85,4.68,3.28,4.68a3.88,3.88,0,0,0,3.53-2.43,4,4,0,0,0,.24-1.37v-9h2.68Z"/> <path class="cls-1" d="M737.7,72.75c0-1.52,0-2.76-.12-4H740l.16,2.43h.06A5.4,5.4,0,0,1,745,68.44c2,0,5.2,1.21,5.2,6.26v8.78h-2.68V75c0-2.37-.88-4.34-3.4-4.34a3.8,3.8,0,0,0-3.59,2.73,3.92,3.92,0,0,0-.18,1.25v8.84H737.7Z"/> <path class="cls-1" d="M765.06,82.94a9.94,9.94,0,0,1-4.23.85c-4.43,0-7.32-3-7.32-7.51a7.47,7.47,0,0,1,7.9-7.81,8.87,8.87,0,0,1,3.71.76l-.61,2.06a6.25,6.25,0,0,0-3.1-.7c-3.37,0-5.2,2.5-5.2,5.57,0,3.4,2.19,5.5,5.11,5.5a7.65,7.65,0,0,0,3.28-.73Z"/> <path class="cls-1" d="M768.19,61.9h2.67v9.18h.06a5,5,0,0,1,1.92-1.88,5.45,5.45,0,0,1,2.73-.76c2,0,5.14,1.21,5.14,6.29v8.75H778V75c0-2.37-.89-4.37-3.41-4.37a3.83,3.83,0,0,0-3.58,2.67,3.11,3.11,0,0,0-.19,1.28v8.87h-2.67Z"/> <path class="cls-1" d="M794.9,77l-2.13,6.44H790L797,63h3.19l7,20.48h-2.82L802.17,77ZM801.62,75l-2-5.89c-.45-1.34-.76-2.56-1.06-3.74h-.06c-.3,1.21-.64,2.46-1,3.7l-2,5.93Z"/> <path class="cls-1" d="M810.53,68.77l1.94,7.48c.43,1.64.82,3.16,1.1,4.68h.09c.33-1.49.82-3.07,1.3-4.65l2.41-7.51h2.24l2.28,7.36c.55,1.76,1,3.31,1.31,4.8h.09a44.89,44.89,0,0,1,1.13-4.77l2.09-7.39h2.65l-4.74,14.71H822l-2.25-7a46.94,46.94,0,0,1-1.31-4.83h-.06A44,44,0,0,1,817,76.49l-2.37,7h-2.43l-4.44-14.71Z"/> <path class="cls-1" d="M839.86,83.48l-.21-1.85h-.1a5.49,5.49,0,0,1-4.49,2.19,4.19,4.19,0,0,1-4.5-4.23c0-3.55,3.16-5.5,8.84-5.47v-.3c0-1.22-.33-3.41-3.34-3.41a7.31,7.31,0,0,0-3.83,1.1l-.61-1.77a9.14,9.14,0,0,1,4.83-1.3c4.5,0,5.6,3.07,5.6,6V80a20.94,20.94,0,0,0,.24,3.52Zm-.4-7.51c-2.92-.06-6.23.46-6.23,3.32a2.37,2.37,0,0,0,2.52,2.55,3.65,3.65,0,0,0,3.56-2.46,2.82,2.82,0,0,0,.15-.85Z"/> <path class="cls-1" d="M846.36,73.36c0-1.73,0-3.22-.12-4.59h2.34l.09,2.89h.12a4.41,4.41,0,0,1,4.08-3.22,3,3,0,0,1,.76.09v2.52a4.15,4.15,0,0,0-.92-.09c-1.88,0-3.22,1.43-3.58,3.43a7.69,7.69,0,0,0-.12,1.25v7.84h-2.65Z"/> <path class="cls-1" d="M868.7,61.9V79.68c0,1.31,0,2.8.12,3.8h-2.4l-.12-2.55h-.06a5.44,5.44,0,0,1-5,2.89c-3.55,0-6.29-3-6.29-7.48,0-4.89,3-7.9,6.6-7.9A4.91,4.91,0,0,1,866,70.69H866V61.9ZM866,74.76a4.36,4.36,0,0,0-.13-1.13,3.93,3.93,0,0,0-3.86-3.1c-2.76,0-4.4,2.44-4.4,5.69,0,3,1.46,5.44,4.34,5.44a4,4,0,0,0,3.92-3.19,4.3,4.3,0,0,0,.13-1.16Z"/> <path class="cls-1" d="M879.67,63.24a30.94,30.94,0,0,1,5.08-.4c2.61,0,4.53.61,5.74,1.71a5.48,5.48,0,0,1,1.8,4.28,6,6,0,0,1-1.58,4.38,8.5,8.5,0,0,1-6.27,2.25,9.16,9.16,0,0,1-2.12-.18v8.2h-2.65Zm2.65,9.88a9,9,0,0,0,2.19.21c3.19,0,5.13-1.55,5.13-4.38s-1.91-4-4.83-4a11.14,11.14,0,0,0-2.49.21Z"/> <path class="cls-1" d="M895.27,73.36c0-1.73,0-3.22-.13-4.59h2.34l.1,2.89h.12a4.41,4.41,0,0,1,4.07-3.22,2.93,2.93,0,0,1,.76.09v2.52a4.06,4.06,0,0,0-.91-.09c-1.89,0-3.22,1.43-3.59,3.43a7.69,7.69,0,0,0-.12,1.25v7.84h-2.64Z"/> <path class="cls-1" d="M918.21,76c0,5.44-3.77,7.81-7.32,7.81-4,0-7-2.92-7-7.57,0-4.93,3.22-7.81,7.29-7.81C915.36,68.44,918.21,71.51,918.21,76Zm-11.67.15c0,3.22,1.86,5.65,4.47,5.65s4.47-2.4,4.47-5.71c0-2.5-1.25-5.66-4.41-5.66S906.54,73.36,906.54,76.16Z"/> <path class="cls-1" d="M934.29,61.9V79.68c0,1.31,0,2.8.12,3.8H932l-.12-2.55h-.06a5.44,5.44,0,0,1-5,2.89c-3.56,0-6.3-3-6.3-7.48,0-4.89,3-7.9,6.6-7.9a4.91,4.91,0,0,1,4.44,2.25h.06V61.9Zm-2.67,12.86a4.83,4.83,0,0,0-.12-1.13,3.94,3.94,0,0,0-3.86-3.1c-2.77,0-4.41,2.44-4.41,5.69,0,3,1.46,5.44,4.34,5.44a4,4,0,0,0,3.93-3.19,4.75,4.75,0,0,0,.12-1.16Z"/> <path class="cls-1" d="M951,79.47c0,1.52,0,2.86.12,4h-2.37l-.15-2.4h-.06a5.53,5.53,0,0,1-4.87,2.74c-2.31,0-5.07-1.28-5.07-6.45v-8.6h2.67v8.15c0,2.79.85,4.68,3.29,4.68a3.86,3.86,0,0,0,3.52-2.43,4,4,0,0,0,.24-1.37v-9H951Z"/> <path class="cls-1" d="M966,82.94a9.93,9.93,0,0,1-4.22.85c-4.44,0-7.33-3-7.33-7.51a7.47,7.47,0,0,1,7.91-7.81,8.82,8.82,0,0,1,3.7.76l-.6,2.06a6.28,6.28,0,0,0-3.1-.7c-3.38,0-5.2,2.5-5.2,5.57,0,3.4,2.19,5.5,5.1,5.5a7.7,7.7,0,0,0,3.29-.73Z"/> <path class="cls-1" d="M972.71,64.55v4.22h3.83v2h-3.83v7.93c0,1.82.52,2.86,2,2.86a6.12,6.12,0,0,0,1.55-.18l.12,2a6.61,6.61,0,0,1-2.37.37,3.71,3.71,0,0,1-2.89-1.13c-.76-.79-1-2.1-1-3.83v-8h-2.28v-2h2.28V65.25Z"/> <path class="cls-1" d="M1013.26,74.85v1.82H984.68V74.85Z"/> <path class="cls-1" d="M664.15,105.24v6.39h.64l5.53-6.39h3.25l-6.41,6.66c2.37.24,3.8,1.82,5,4.47a34.25,34.25,0,0,0,1.58,3.59H670.9a19.81,19.81,0,0,1-1.37-3c-1-2.37-2.37-3.47-4.86-3.47h-.52V120h-2.64V105.24Z"/> <path class="cls-1" d="M689.19,112.48c0,5.44-3.76,7.81-7.32,7.81-4,0-7-2.92-7-7.57,0-4.92,3.22-7.81,7.29-7.81C686.34,104.91,689.19,108,689.19,112.48Zm-11.67.15c0,3.22,1.86,5.65,4.47,5.65s4.47-2.4,4.47-5.71c0-2.49-1.25-5.65-4.41-5.65S677.52,109.83,677.52,112.63Z"/> <path class="cls-1" d="M695.15,105.24v5.93h7v-5.93h2.65V120h-2.65V113.3h-7V120h-2.64V105.24Z"/> <path class="cls-1" d="M711.81,105.24v6.39h.64l5.53-6.39h3.25l-6.41,6.66c2.37.24,3.8,1.82,4.95,4.47a32.27,32.27,0,0,0,1.58,3.59h-2.79a18.88,18.88,0,0,1-1.37-3c-1-2.37-2.37-3.47-4.87-3.47h-.51V120h-2.65V105.24Z"/> <path class="cls-1" d="M724.91,105.24l3.22,8.7c.33,1,.7,2.13.94,3h.06c.28-.88.58-2,.94-3.07l2.92-8.64h2.83l-4,10.49c-1.92,5-3.23,7.63-5,9.21a7.17,7.17,0,0,1-3.28,1.73l-.67-2.25a7,7,0,0,0,2.34-1.3,8.14,8.14,0,0,0,2.25-3,2,2,0,0,0,.21-.64,2.34,2.34,0,0,0-.18-.7L722,105.24Z"/> <path class="cls-1" d="M738.25,110.05c0-1.89-.06-3.41-.12-4.81h2.4l.12,2.53h.06a5.78,5.78,0,0,1,5.23-2.86c3.56,0,6.23,3,6.23,7.48,0,5.29-3.22,7.9-6.69,7.9A5.18,5.18,0,0,1,741,118h-.06v8h-2.64Zm2.64,3.92a5.25,5.25,0,0,0,.13,1.09,4.11,4.11,0,0,0,4,3.13c2.83,0,4.47-2.31,4.47-5.68,0-3-1.55-5.47-4.38-5.47a4.26,4.26,0,0,0-4,3.31,4,4,0,0,0-.19,1.1Z"/> <path class="cls-1" d="M766,119.41a9.93,9.93,0,0,1-4.22.85c-4.44,0-7.33-3-7.33-7.51a7.47,7.47,0,0,1,7.9-7.81,9,9,0,0,1,3.71.76l-.61,2.07a6.15,6.15,0,0,0-3.1-.7c-3.37,0-5.19,2.49-5.19,5.56,0,3.4,2.18,5.5,5.1,5.5a7.5,7.5,0,0,0,3.28-.73Z"/> <path class="cls-1" d="M786.64,105.24V120H784V107.34h-5v3.83c0,4.14-.4,6.9-2.31,8.15a4.34,4.34,0,0,1-2.92.91l-.28-2.1a3.2,3.2,0,0,0,1.46-.61c1.37-1,1.52-3.07,1.52-6.35v-5.93Z"/> <path class="cls-1" d="M791.86,105.24l3.22,8.7c.34,1,.7,2.13.95,3h.06c.27-.88.58-2,.94-3.07l2.92-8.64h2.82l-4,10.49c-1.91,5-3.22,7.63-5,9.21a7.19,7.19,0,0,1-3.29,1.73l-.66-2.25a7,7,0,0,0,2.34-1.3,8.14,8.14,0,0,0,2.25-3,2,2,0,0,0,.21-.64,2.34,2.34,0,0,0-.18-.7l-5.45-13.56Z"/> <path class="cls-1" d="M807.64,105.24v4.84c0,1.85.7,3.13,3,3.13a5.53,5.53,0,0,0,3.16-1v-6.93h2.64V120h-2.64v-5.9h-.06a7.75,7.75,0,0,1-4,1.12c-2.8,0-4.84-1.42-4.84-4.8v-5.14Z"/> <path class="cls-1" d="M823.41,105.24v12.62h5.14V105.24h2.61v12.62h5.14V105.24h2.64V120H820.8V105.24Z"/> <path class="cls-1" d="M845.75,105.24v6.21c0,2.34,0,3.79-.15,5.89l.09,0c.88-1.79,1.4-2.82,2.37-4.53l4.59-7.6h3.13V120h-2.55v-6.24c0-2.4.06-3.64.18-6h-.09c-.94,1.88-1.58,3.07-2.43,4.56-1.4,2.28-3,5.1-4.59,7.69h-3.07V105.24Z"/> <path class="cls-1" d="M861.37,105.24l2.1,3.17c.55.82,1,1.58,1.49,2.4h.09c.49-.89,1-1.64,1.46-2.43l2.07-3.14h2.89l-5,7.12,5.17,7.6h-3l-2.16-3.32c-.58-.85-1.06-1.67-1.58-2.55h-.06c-.49.88-1,1.67-1.55,2.55L861.1,120h-3l5.23-7.51-5-7.21Z"/> <path class="cls-1" d="M890.58,105.24v2.13H886V120h-2.64V107.37h-4.59v-2.13Z"/> <path class="cls-1" d="M894,113.09c.06,3.61,2.37,5.1,5,5.1a9.65,9.65,0,0,0,4.08-.76l.45,1.92a12,12,0,0,1-4.89.91c-4.53,0-7.24-3-7.24-7.42s2.62-7.93,6.9-7.93c4.81,0,6.08,4.22,6.08,6.93a10.36,10.36,0,0,1-.09,1.25Zm7.84-1.92c0-1.7-.7-4.35-3.71-4.35-2.7,0-3.89,2.5-4.1,4.35Z"/> <path class="cls-1" d="M908.88,105.24l2.1,3.17c.54.82,1,1.58,1.49,2.4h.09c.48-.89,1-1.64,1.46-2.43l2.06-3.14H919l-5,7.12,5.16,7.6h-3l-2.15-3.32c-.58-.85-1.07-1.67-1.58-2.55h-.07c-.48.88-1,1.67-1.55,2.55L908.61,120h-3l5.23-7.51-5-7.21Z"/> <path class="cls-1" d="M924.29,105.24v5.93h7v-5.93h2.65V120h-2.65V113.3h-7V120h-2.64V105.24Z"/> <path class="cls-1" d="M951.61,112.48c0,5.44-3.76,7.81-7.32,7.81-4,0-7-2.92-7-7.57,0-4.92,3.22-7.81,7.29-7.81C948.76,104.91,951.61,108,951.61,112.48Zm-11.67.15c0,3.22,1.86,5.65,4.47,5.65s4.47-2.4,4.47-5.71c0-2.49-1.25-5.65-4.41-5.65S939.94,109.83,939.94,112.63Z"/> <path class="cls-1" d="M966.14,105.24V120H963.5V107.34h-5v3.83c0,4.14-.39,6.9-2.31,8.15a4.34,4.34,0,0,1-2.92.91l-.27-2.1a3.2,3.2,0,0,0,1.46-.61c1.37-1,1.52-3.07,1.52-6.35v-5.93Z"/> <path class="cls-1" d="M983.83,112.48c0,5.44-3.77,7.81-7.32,7.81-4,0-7.06-2.92-7.06-7.57,0-4.92,3.23-7.81,7.3-7.81S983.83,108,983.83,112.48Zm-11.67.15c0,3.22,1.85,5.65,4.47,5.65s4.47-2.4,4.47-5.71c0-2.49-1.25-5.65-4.41-5.65S972.16,109.83,972.16,112.63Z"/> <path class="cls-1" d="M996.17,105.24v2.16h-6.38V120h-2.65V105.24Z"/> <path class="cls-1" d="M1001.16,105.24v6.21c0,2.34,0,3.79-.16,5.89l.1,0c.88-1.79,1.39-2.82,2.37-4.53l4.59-7.6h3.13V120h-2.56v-6.24c0-2.4.06-3.64.19-6h-.1c-.94,1.88-1.58,3.07-2.43,4.56-1.39,2.28-3,5.1-4.59,7.69h-3.07V105.24Z"/> <path class="cls-1" d="M1021.73,110.75v2h-7.5v-2Z"/> <path class="cls-1" d="M663.94,141.72v4.83c0,1.85.7,3.13,3,3.13a5.52,5.52,0,0,0,3.16-1v-6.93h2.64v14.71h-2.64v-5.9h-.06a7.76,7.76,0,0,1-4,1.13c-2.8,0-4.84-1.43-4.84-4.81v-5.13Z"/> <path class="cls-1" d="M678.65,149.56c.06,3.62,2.37,5.11,5,5.11a9.8,9.8,0,0,0,4.08-.76l.45,1.91a11.82,11.82,0,0,1-4.89.91c-4.53,0-7.23-3-7.23-7.41s2.61-7.94,6.89-7.94c4.81,0,6.08,4.23,6.08,6.93a10.19,10.19,0,0,1-.09,1.25Zm7.84-1.92c0-1.7-.7-4.34-3.71-4.34-2.7,0-3.89,2.49-4.1,4.34Z"/> <path class="cls-1" d="M702.87,155.88a9.77,9.77,0,0,1-4.22.85c-4.44,0-7.33-3-7.33-7.5a7.48,7.48,0,0,1,7.91-7.82,9,9,0,0,1,3.7.76l-.6,2.07a6.28,6.28,0,0,0-3.1-.7c-3.38,0-5.2,2.49-5.2,5.56,0,3.41,2.19,5.51,5.1,5.51a7.7,7.7,0,0,0,3.29-.73Z"/> <path class="cls-1" d="M708.65,141.72v6.38h.64l5.53-6.38h3.25l-6.41,6.65c2.37.25,3.8,1.83,5,4.47a32.27,32.27,0,0,0,1.58,3.59H715.4a18.47,18.47,0,0,1-1.37-3c-1-2.37-2.37-3.47-4.87-3.47h-.51v6.48H706V141.72Z"/> <path class="cls-1" d="M723,141.72v6.2c0,2.34,0,3.8-.15,5.89l.09,0c.88-1.8,1.4-2.83,2.37-4.53l4.59-7.6h3.13v14.71H730.5V150.2c0-2.4.06-3.65.18-6h-.09c-.94,1.88-1.58,3.07-2.43,4.56-1.4,2.28-3,5.11-4.59,7.69H720.5V141.72Z"/> <path class="cls-1" d="M738.65,141.72l2.09,3.16c.55.82,1,1.58,1.49,2.4h.09c.49-.88,1-1.64,1.46-2.43l2.07-3.13h2.89l-5,7.11,5.17,7.6h-3l-2.16-3.31c-.58-.86-1.06-1.68-1.58-2.56h-.06c-.49.88-1,1.67-1.55,2.56l-2.13,3.31h-3l5.23-7.51-5-7.2Z"/> <path class="cls-1" d="M770,141.72v14.71h-2.67V143.84H760.5v12.59h-2.65V141.72Z"/> <path class="cls-1" d="M774.36,146.52c0-1.88-.06-3.4-.12-4.8h2.4l.12,2.52h.06a5.79,5.79,0,0,1,5.23-2.86c3.55,0,6.23,3,6.23,7.48,0,5.29-3.22,7.9-6.69,7.9a5.16,5.16,0,0,1-4.53-2.31H777v8h-2.64Zm2.64,3.92a6.17,6.17,0,0,0,.12,1.1,4.14,4.14,0,0,0,4,3.13c2.82,0,4.46-2.31,4.46-5.69,0-2.95-1.55-5.47-4.37-5.47a4.28,4.28,0,0,0-4.05,3.31,4.44,4.44,0,0,0-.18,1.1Z"/> <path class="cls-1" d="M805,149c0,5.44-3.77,7.81-7.32,7.81-4,0-7-2.91-7-7.57,0-4.92,3.22-7.81,7.29-7.81C802.11,141.38,805,144.45,805,149Zm-11.67.15c0,3.23,1.86,5.66,4.47,5.66s4.47-2.4,4.47-5.72c0-2.49-1.25-5.65-4.41-5.65S793.29,146.31,793.29,149.1Z"/> <path class="cls-1" d="M819.52,141.72v12.7l1.52,0-.15,6.66h-2.1l-.12-4.68H808.49l-.12,4.68h-2.1l-.12-6.66,1.25,0a11.8,11.8,0,0,0,1.46-3,19.63,19.63,0,0,0,.85-5.86v-3.83Zm-7.44,4.47a19.75,19.75,0,0,1-.76,5.47,14.15,14.15,0,0,1-1.19,2.73h6.78V143.75h-4.83Z"/> <path class="cls-1" d="M825.12,141.72l3.22,8.69c.33,1,.7,2.13.94,3h.06c.27-.88.58-2,.94-3.07l2.92-8.63H836l-4,10.48c-1.92,5.05-3.23,7.63-5,9.21a7.32,7.32,0,0,1-3.28,1.74L823,160.9a7.18,7.18,0,0,0,2.34-1.31,8.14,8.14,0,0,0,2.25-3,1.87,1.87,0,0,0,.21-.64,2.42,2.42,0,0,0-.18-.7l-5.44-13.55Z"/> <path class="cls-1" d="M841.1,141.72v6.38h.64l5.53-6.38h3.26l-6.42,6.65c2.37.25,3.8,1.83,5,4.47a30.51,30.51,0,0,0,1.58,3.59h-2.8a20.35,20.35,0,0,1-1.37-3c-1-2.37-2.37-3.47-4.86-3.47h-.52v6.48h-2.64V141.72Z"/> <path class="cls-1" d="M863.47,141.72v2.12h-4.59v12.59h-2.64V143.84h-4.59v-2.12Z"/> <path class="cls-1" d="M878.73,149c0,5.44-3.77,7.81-7.32,7.81-4,0-7-2.91-7-7.57,0-4.92,3.22-7.81,7.29-7.81C875.87,141.38,878.73,144.45,878.73,149Zm-11.67.15c0,3.23,1.85,5.66,4.47,5.66S876,152.36,876,149c0-2.49-1.25-5.65-4.41-5.65S867.06,146.31,867.06,149.1Z"/> <path class="cls-1" d="M882,141.9a31.88,31.88,0,0,1,4.69-.33c2.46,0,6.53.39,6.53,3.67a3.49,3.49,0,0,1-3.07,3.32v.06c2.16.3,3.74,1.52,3.74,3.64,0,3.87-4.86,4.35-7.75,4.35-1.64,0-3.35-.12-4.14-.18Zm2.53,12.77a16.35,16.35,0,0,0,2.16.12c1.79,0,4.46-.43,4.46-2.56s-2.12-2.58-4.68-2.58h-1.94Zm0-6.78h2c2,0,4-.58,4-2.31,0-1.46-1.28-2.16-4-2.16a19.09,19.09,0,0,0-2.06.12Z"/> <path class="cls-1" d="M903.69,141.9a31.62,31.62,0,0,1,4.68-.33c2.46,0,6.53.39,6.53,3.67a3.49,3.49,0,0,1-3.07,3.32v.06c2.16.3,3.74,1.52,3.74,3.64,0,3.87-4.86,4.35-7.75,4.35-1.64,0-3.34-.12-4.13-.18Zm2.52,12.77a16.45,16.45,0,0,0,2.16.12c1.79,0,4.46-.43,4.46-2.56s-2.12-2.58-4.68-2.58h-1.94Zm0-6.78h2c2,0,4-.58,4-2.31,0-1.46-1.28-2.16-4-2.16a19.13,19.13,0,0,0-2.07.12Z"/> <path class="cls-1" d="M938.7,149c0,5.44-3.77,7.81-7.33,7.81-4,0-7-2.91-7-7.57,0-4.92,3.22-7.81,7.3-7.81S938.7,144.45,938.7,149ZM927,149.1c0,3.23,1.85,5.66,4.47,5.66S936,152.36,936,149c0-2.49-1.24-5.65-4.4-5.65S927,146.31,927,149.1Z"/> <path class="cls-1" d="M953.2,136.73a19.16,19.16,0,0,1-3.07.67c-2.37.37-4.11,1.16-5.23,2.77a10.47,10.47,0,0,0-1.61,4.86h.09a5.56,5.56,0,0,1,5.11-3.31c3.61,0,6.26,2.58,6.26,7.26s-2.49,7.78-6.81,7.78c-5.17,0-6.87-4.95-6.87-9.84,0-3.35.7-6.08,2.28-8.15,1.43-2,3.47-3,6.32-3.47a20.6,20.6,0,0,0,3.65-.79Zm-5.26,7a3.56,3.56,0,0,0-3.31,2,6.38,6.38,0,0,0-.73,3.13c0,2.43,1.18,5.93,4.1,5.93s4-2.86,4-5.57C952,146.79,951.1,143.69,947.94,143.69Z"/> <path class="cls-1" d="M958.12,146.52c0-1.88-.06-3.4-.12-4.8h2.4l.12,2.52h.06a5.8,5.8,0,0,1,5.23-2.86c3.56,0,6.23,3,6.23,7.48,0,5.29-3.22,7.9-6.68,7.9a5.15,5.15,0,0,1-4.53-2.31h-.06v8h-2.65Zm2.65,3.92a6.17,6.17,0,0,0,.12,1.1,4.12,4.12,0,0,0,4,3.13c2.83,0,4.47-2.31,4.47-5.69,0-2.95-1.55-5.47-4.38-5.47a4.27,4.27,0,0,0-4,3.31,4.44,4.44,0,0,0-.18,1.1Z"/> <path class="cls-1" d="M983.56,156.43l-.21-1.86h-.09a5.47,5.47,0,0,1-4.5,2.19,4.19,4.19,0,0,1-4.5-4.22c0-3.56,3.16-5.5,8.85-5.47v-.31c0-1.21-.34-3.4-3.35-3.4a7.33,7.33,0,0,0-3.83,1.09l-.61-1.76a9.16,9.16,0,0,1,4.84-1.31c4.49,0,5.59,3.07,5.59,6v5.5a21,21,0,0,0,.24,3.53Zm-.39-7.51c-2.92-.06-6.24.46-6.24,3.31a2.37,2.37,0,0,0,2.53,2.56,3.66,3.66,0,0,0,3.55-2.46,2.61,2.61,0,0,0,.16-.86Z"/> <path class="cls-1" d="M991.28,147.89h1.28c2.25,0,3.77-1,3.77-2.4s-1.19-2.13-2.86-2.13a7.1,7.1,0,0,0-3.56,1l-.67-1.64a9.39,9.39,0,0,1,4.9-1.34c2.25,0,5,1,5,3.86,0,1.83-1.67,3-3.31,3.35v.06c2.19.18,4,1.52,4,3.68,0,3.19-3.25,4.37-6.35,4.37a10.05,10.05,0,0,1-4.77-1.18l.7-1.8a8.44,8.44,0,0,0,3.89,1c2.21,0,3.61-1.07,3.61-2.53,0-2-2.06-2.52-4.28-2.52h-1.34Z"/> <path class="cls-1" d="M1016.48,149c0,5.44-3.77,7.81-7.33,7.81-4,0-7-2.91-7-7.57,0-4.92,3.22-7.81,7.3-7.81S1016.48,144.45,1016.48,149Zm-11.67.15c0,3.23,1.85,5.66,4.46,5.66s4.47-2.4,4.47-5.72c0-2.49-1.25-5.65-4.41-5.65S1004.81,146.31,1004.81,149.1Z"/> <path class="cls-1" d="M1026.05,147.22v2h-7.51v-2Z"/> <path class="cls-1" d="M661.44,178.37a31.88,31.88,0,0,1,4.69-.33c2.46,0,6.53.39,6.53,3.68a3.49,3.49,0,0,1-3.07,3.31v.06c2.16.3,3.74,1.52,3.74,3.65,0,3.86-4.86,4.34-7.75,4.34-1.64,0-3.35-.12-4.14-.18ZM664,191.14a16.35,16.35,0,0,0,2.16.12c1.79,0,4.46-.42,4.46-2.55s-2.12-2.59-4.68-2.59H664Zm0-6.78h2c2,0,4-.58,4-2.31,0-1.46-1.28-2.16-3.95-2.16A19.13,19.13,0,0,0,664,180Z"/> <path class="cls-1" d="M684.85,192.9l-.21-1.85h-.1a5.49,5.49,0,0,1-4.49,2.19,4.19,4.19,0,0,1-4.5-4.23c0-3.55,3.16-5.5,8.84-5.47v-.3c0-1.22-.33-3.41-3.34-3.41a7.31,7.31,0,0,0-3.83,1.1l-.61-1.77a9.14,9.14,0,0,1,4.83-1.3c4.5,0,5.6,3.07,5.6,6v5.51a20.94,20.94,0,0,0,.24,3.52Zm-.4-7.51c-2.91-.06-6.23.46-6.23,3.32a2.37,2.37,0,0,0,2.53,2.55,3.64,3.64,0,0,0,3.55-2.46,2.82,2.82,0,0,0,.15-.85Z"/> <path class="cls-1" d="M701.08,178.19v2.13h-4.59V192.9h-2.65V180.32h-4.59v-2.13Z"/> <path class="cls-1" d="M704.51,186c.06,3.62,2.37,5.11,5,5.11a9.75,9.75,0,0,0,4.07-.76l.46,1.91a11.84,11.84,0,0,1-4.9.92c-4.52,0-7.23-3-7.23-7.42s2.61-7.93,6.9-7.93c4.8,0,6.08,4.22,6.08,6.93a10.16,10.16,0,0,1-.09,1.24Zm7.85-1.91c0-1.7-.7-4.35-3.71-4.35-2.71,0-3.89,2.49-4.11,4.35Z"/> <path class="cls-1" d="M729.44,178.19V192.9h-2.65V180.29h-5v3.83c0,4.13-.4,6.9-2.31,8.14a4.29,4.29,0,0,1-2.92.92l-.27-2.1a3.32,3.32,0,0,0,1.45-.61c1.37-1,1.53-3.07,1.53-6.35v-5.93Z"/> <path class="cls-1" d="M736.4,178.19v5a13.89,13.89,0,0,1,2.43-.16c3.31,0,6.81,1,6.81,5a4.16,4.16,0,0,1-1.55,3.37c-1.61,1.37-4.23,1.7-6.39,1.7a36.94,36.94,0,0,1-4-.21V178.19Zm0,12.86a15.47,15.47,0,0,0,2,.12c2,0,4.59-.67,4.59-3.13s-2.67-3.1-4.65-3.1a12.54,12.54,0,0,0-1.91.15Z"/> <path class="cls-1" d="M751.53,178.19v5.93h7v-5.93h2.65V192.9h-2.65v-6.65h-7v6.65h-2.64V178.19Z"/> <path class="cls-1" d="M778.86,185.42c0,5.45-3.77,7.82-7.33,7.82-4,0-7-2.92-7-7.57,0-4.93,3.22-7.81,7.29-7.81C776,177.86,778.86,180.93,778.86,185.42Zm-11.67.16c0,3.22,1.85,5.65,4.46,5.65s4.47-2.4,4.47-5.71c0-2.5-1.24-5.66-4.41-5.66S767.19,182.78,767.19,185.58Z"/> <path class="cls-1" d="M784.69,178.19v6.2c0,2.34,0,3.8-.15,5.9l.09,0c.88-1.79,1.4-2.83,2.37-4.53l4.59-7.6h3.13V192.9h-2.55v-6.23c0-2.4.06-3.65.18-6h-.09c-.94,1.89-1.58,3.07-2.43,4.56-1.4,2.28-3,5.11-4.59,7.69h-3.07V178.19Zm1.73-6c.1,1.31.73,2.31,2,2.31s1.91-1,2.07-2.31h1.91a3.67,3.67,0,0,1-4,3.77c-2.68,0-3.71-1.67-3.83-3.77Z"/> <path class="cls-1" d="M816,192.35a9.76,9.76,0,0,1-4.23.86c-4.43,0-7.32-3-7.32-7.51a7.47,7.47,0,0,1,7.9-7.81,8.87,8.87,0,0,1,3.71.76l-.61,2.06a6.25,6.25,0,0,0-3.1-.7c-3.37,0-5.2,2.5-5.2,5.57,0,3.4,2.19,5.5,5.11,5.5a7.65,7.65,0,0,0,3.28-.73Z"/> <path class="cls-1" d="M827.67,171.32v6.6c4.28.3,7.39,3,7.39,7.6,0,4.83-3.29,7.38-7.39,7.66v5.74h-2.43v-5.71c-4.26-.28-7.39-3-7.39-7.54,0-4.87,3.25-7.42,7.39-7.75v-6.6Zm-2.43,8.42c-3,.4-4.74,2.83-4.74,5.84s1.82,5.41,4.74,5.77Zm2.43,11.61c3-.39,4.74-2.82,4.74-5.83a5.47,5.47,0,0,0-4.74-5.78Z"/> <path class="cls-1" d="M839.89,186c.06,3.62,2.37,5.11,5,5.11a9.8,9.8,0,0,0,4.08-.76l.45,1.91a11.79,11.79,0,0,1-4.89.92c-4.53,0-7.24-3-7.24-7.42s2.62-7.93,6.9-7.93c4.81,0,6.08,4.22,6.08,6.93a10.16,10.16,0,0,1-.09,1.24Zm7.84-1.91c0-1.7-.7-4.35-3.71-4.35-2.7,0-3.89,2.49-4.1,4.35Z"/> <path class="cls-1" d="M853.62,183c0-1.88-.06-3.4-.12-4.8h2.4l.13,2.52h.06a5.77,5.77,0,0,1,5.23-2.85c3.55,0,6.23,3,6.23,7.47,0,5.29-3.23,7.91-6.69,7.91a5.15,5.15,0,0,1-4.53-2.31h-.06v8h-2.65Zm2.65,3.92a6.17,6.17,0,0,0,.12,1.1,4.14,4.14,0,0,0,4,3.13c2.83,0,4.47-2.31,4.47-5.68,0-3-1.55-5.48-4.38-5.48a4.27,4.27,0,0,0-4,3.32,4.36,4.36,0,0,0-.18,1.09Z"/> <path class="cls-1" d="M872.41,186c.06,3.62,2.37,5.11,5,5.11a9.8,9.8,0,0,0,4.08-.76l.45,1.91a11.79,11.79,0,0,1-4.89.92c-4.53,0-7.23-3-7.23-7.42s2.61-7.93,6.89-7.93c4.81,0,6.08,4.22,6.08,6.93a10.16,10.16,0,0,1-.09,1.24Zm7.84-1.91c0-1.7-.7-4.35-3.71-4.35-2.7,0-3.89,2.49-4.1,4.35Z"/> <path class="cls-1" d="M885.51,180.62a1.81,1.81,0,1,1,3.61,0,1.81,1.81,0,1,1-3.61,0Zm0,10.73a1.81,1.81,0,1,1,3.61,0,1.81,1.81,0,1,1-3.61,0Z"/> <path class="cls-1" d="M909.37,192.35a9.76,9.76,0,0,1-4.23.86c-4.44,0-7.32-3-7.32-7.51a7.47,7.47,0,0,1,7.9-7.81,8.87,8.87,0,0,1,3.71.76l-.61,2.06a6.25,6.25,0,0,0-3.1-.7c-3.37,0-5.2,2.5-5.2,5.57,0,3.4,2.19,5.5,5.11,5.5a7.65,7.65,0,0,0,3.28-.73Z"/> <path class="cls-1" d="M913.8,186c.07,3.62,2.38,5.11,5.05,5.11a9.72,9.72,0,0,0,4.07-.76l.46,1.91a11.8,11.8,0,0,1-4.9.92c-4.52,0-7.23-3-7.23-7.42s2.62-7.93,6.9-7.93c4.8,0,6.08,4.22,6.08,6.93a10.16,10.16,0,0,1-.09,1.24Zm7.85-1.91c0-1.7-.7-4.35-3.71-4.35-2.71,0-3.89,2.49-4.11,4.35Z"/> <path class="cls-1" d="M927.54,183c0-1.88-.06-3.4-.12-4.8h2.4l.12,2.52H930a5.8,5.8,0,0,1,5.23-2.85c3.56,0,6.23,3,6.23,7.47,0,5.29-3.22,7.91-6.68,7.91a5.15,5.15,0,0,1-4.53-2.31h-.06v8h-2.65Zm2.65,3.92a6.17,6.17,0,0,0,.12,1.1,4.14,4.14,0,0,0,4,3.13c2.83,0,4.47-2.31,4.47-5.68,0-3-1.55-5.48-4.38-5.48a4.27,4.27,0,0,0-4,3.32,4.36,4.36,0,0,0-.18,1.09Z"/> <path class="cls-1" d="M944.78,178.37a31.62,31.62,0,0,1,4.68-.33c2.46,0,6.53.39,6.53,3.68a3.49,3.49,0,0,1-3.07,3.31v.06c2.16.3,3.74,1.52,3.74,3.65,0,3.86-4.86,4.34-7.75,4.34-1.64,0-3.34-.12-4.13-.18Zm2.52,12.77a16.45,16.45,0,0,0,2.16.12c1.79,0,4.46-.42,4.46-2.55s-2.12-2.59-4.68-2.59H947.3Zm0-6.78h2c2,0,4-.58,4-2.31,0-1.46-1.28-2.16-4-2.16a19.13,19.13,0,0,0-2.07.12Z"/> <path class="cls-1" d="M962.5,178.19v6.2c0,2.34,0,3.8-.16,5.9l.1,0c.88-1.79,1.39-2.83,2.37-4.53l4.59-7.6h3.13V192.9H970v-6.23c0-2.4.06-3.65.19-6h-.1c-.94,1.89-1.58,3.07-2.43,4.56-1.4,2.28-3,5.11-4.59,7.69H960V178.19Z"/> <path class="cls-1" d="M987.36,192.35a9.76,9.76,0,0,1-4.23.86c-4.43,0-7.32-3-7.32-7.51a7.47,7.47,0,0,1,7.9-7.81,8.87,8.87,0,0,1,3.71.76l-.61,2.06a6.25,6.25,0,0,0-3.1-.7c-3.37,0-5.2,2.5-5.2,5.57,0,3.4,2.19,5.5,5.11,5.5a7.65,7.65,0,0,0,3.28-.73Z"/> <path class="cls-1" d="M993.07,178.19v5a11.91,11.91,0,0,1,2.4-.19c3.16,0,6.36,1.31,6.36,4.93a4.16,4.16,0,0,1-1.52,3.4,9.29,9.29,0,0,1-5.93,1.7,36.79,36.79,0,0,1-4-.21V178.19Zm0,12.86a15.25,15.25,0,0,0,1.86.12c2,0,4.25-.85,4.25-3.13s-2.13-3.1-4.13-3.1a12.39,12.39,0,0,0-2,.15Zm13.25-12.86V192.9h-2.64V178.19Z"/> <path class="cls-1" d="M1009,196.64a43.27,43.27,0,0,0,1.82-7.26l3-.31a37.09,37.09,0,0,1-2.89,7.39Z"/> <path class="cls-1" d="M673.6,214.66v14.72h-2.67V216.79h-6.84v12.59h-2.65V214.66Z"/> <path class="cls-1" d="M678,219.47c0-1.89-.06-3.41-.12-4.81h2.4l.12,2.53h.06a5.77,5.77,0,0,1,5.23-2.86c3.55,0,6.23,3,6.23,7.48,0,5.29-3.22,7.9-6.69,7.9a5.16,5.16,0,0,1-4.53-2.31h-.06v8H678Zm2.64,3.92a6.06,6.06,0,0,0,.12,1.09,4.13,4.13,0,0,0,4,3.13c2.82,0,4.46-2.31,4.46-5.68,0-3-1.55-5.47-4.37-5.47a4.27,4.27,0,0,0-4.05,3.31,4.36,4.36,0,0,0-.18,1.09Z"/> <path class="cls-1" d="M697.7,214.66v6.2c0,2.34,0,3.8-.15,5.9l.09,0c.88-1.79,1.4-2.82,2.37-4.53l4.59-7.6h3.13v14.72h-2.55v-6.24c0-2.4.06-3.64.18-6h-.09c-.94,1.88-1.58,3.07-2.43,4.56-1.4,2.28-3,5.1-4.59,7.69h-3.07V214.66Z"/> <path class="cls-1" d="M723.23,214.66v14.72h-2.64V216.76h-5.05v3.83c0,4.13-.39,6.9-2.31,8.15a4.33,4.33,0,0,1-2.91.91l-.28-2.1a3.2,3.2,0,0,0,1.46-.61c1.37-1,1.52-3.07,1.52-6.35v-5.93Z"/> <path class="cls-1" d="M740.92,221.9c0,5.44-3.77,7.81-7.32,7.81-4,0-7.05-2.92-7.05-7.57,0-4.92,3.22-7.81,7.29-7.81C738.07,214.33,740.92,217.4,740.92,221.9Zm-11.67.15c0,3.22,1.86,5.65,4.47,5.65s4.47-2.4,4.47-5.71c0-2.49-1.25-5.65-4.41-5.65S729.25,219.25,729.25,222.05Z"/> <path class="cls-1" d="M745.3,214.66l4.86,6.42h.55v-6.42h2.55v6.42h.52l4.86-6.42h3.07l-5.8,6.69c2.22.24,3.52,1.55,4.41,3.89a34.42,34.42,0,0,0,1.61,4.14h-2.68a23.09,23.09,0,0,1-1.34-3.38c-.91-2.4-2.27-3.13-4.19-3.13h-.46v6.51h-2.55v-6.51h-.48c-2.07,0-3.32.76-4.23,3.16a26.31,26.31,0,0,1-1.4,3.35H742a43.46,43.46,0,0,0,1.61-4.11c.91-2.37,2.22-3.68,4.44-3.92l-5.84-6.69Z"/> <path class="cls-1" d="M765.63,222.51c.06,3.61,2.37,5.1,5,5.1a9.59,9.59,0,0,0,4.07-.76l.46,1.92a12,12,0,0,1-4.89.91c-4.53,0-7.24-3-7.24-7.42s2.61-7.93,6.9-7.93c4.8,0,6.08,4.22,6.08,6.93a10.36,10.36,0,0,1-.09,1.25Zm7.85-1.92c0-1.7-.7-4.35-3.71-4.35-2.71,0-3.89,2.5-4.11,4.35Z"/> <path class="cls-1" d="M782,214.66v5.93h7v-5.93h2.64v14.72H789v-6.66h-7v6.66h-2.65V214.66Z"/> <path class="cls-1" d="M798.43,214.66v6.2c0,2.34,0,3.8-.15,5.9l.09,0c.88-1.79,1.4-2.82,2.37-4.53l4.59-7.6h3.13v14.72h-2.55v-6.24c0-2.4.06-3.64.18-6H806c-.94,1.88-1.58,3.07-2.43,4.56-1.4,2.28-3,5.1-4.59,7.69h-3.07V214.66Z"/> <path class="cls-1" d="M823.65,229.38H821V223.2h-2a3.47,3.47,0,0,0-2.46.83c-1.09.88-1.49,2.7-2.06,4.13a10.66,10.66,0,0,1-.61,1.22H811a9.16,9.16,0,0,0,.91-1.68c.64-1.43,1-3.34,2.31-4.43a3.61,3.61,0,0,1,1.67-.86v-.09c-1.91-.21-3.89-1.4-3.89-3.64a3.55,3.55,0,0,1,2-3.2,10.41,10.41,0,0,1,4.92-1,38.92,38.92,0,0,1,4.74.31ZM821,216.43a15,15,0,0,0-2.22-.16c-1.82,0-4,.52-4,2.56,0,1.88,2.34,2.55,3.92,2.55H821Z"/> <path class="cls-1" d="M826.27,233.11a43,43,0,0,0,1.82-7.26l3-.3a37.22,37.22,0,0,1-2.89,7.38Z"/> <path class="cls-1" d="M852.83,214.66v14.72h-2.67V216.79h-6.84v12.59h-2.65V214.66Z"/> <path class="cls-1" d="M868.33,214.66v14.72h-2.64V216.76h-5.05v3.83c0,4.13-.39,6.9-2.31,8.15a4.34,4.34,0,0,1-2.92.91l-.27-2.1a3.2,3.2,0,0,0,1.46-.61c1.37-1,1.52-3.07,1.52-6.35v-5.93Z"/> <path class="cls-1" d="M880.86,229.38l-.22-1.86h-.09a5.47,5.47,0,0,1-4.5,2.19,4.19,4.19,0,0,1-4.5-4.23c0-3.55,3.16-5.5,8.85-5.47v-.3c0-1.22-.34-3.41-3.34-3.41a7.31,7.31,0,0,0-3.83,1.1l-.61-1.76a9.12,9.12,0,0,1,4.83-1.31c4.5,0,5.59,3.07,5.59,6v5.5a20,20,0,0,0,.25,3.53Zm-.4-7.51c-2.92-.06-6.23.45-6.23,3.31a2.36,2.36,0,0,0,2.52,2.55,3.66,3.66,0,0,0,3.56-2.46,2.82,2.82,0,0,0,.15-.85Z"/> <path class="cls-1" d="M897.08,214.66v2.13h-4.59v12.59h-2.64V216.79h-4.59v-2.13Z"/> <path class="cls-1" d="M907.78,207.79v6.6c4.29.3,7.39,3,7.39,7.6,0,4.83-3.28,7.39-7.39,7.66v5.74h-2.43v-5.71c-4.25-.27-7.38-3-7.38-7.54,0-4.86,3.25-7.42,7.38-7.75v-6.6Zm-2.43,8.42c-3,.4-4.74,2.83-4.74,5.84s1.82,5.41,4.74,5.77Zm2.43,11.61c3-.39,4.75-2.82,4.75-5.83a5.48,5.48,0,0,0-4.75-5.78Z"/> <path class="cls-1" d="M931.83,221.9c0,5.44-3.77,7.81-7.33,7.81-4,0-7-2.92-7-7.57,0-4.92,3.22-7.81,7.29-7.81C929,214.33,931.83,217.4,931.83,221.9Zm-11.68.15c0,3.22,1.86,5.65,4.47,5.65s4.47-2.4,4.47-5.71c0-2.49-1.25-5.65-4.41-5.65S920.15,219.25,920.15,222.05Z"/> <path class="cls-1" d="M935.2,219.47c0-1.89-.06-3.41-.12-4.81h2.4l.12,2.53h.06a5.78,5.78,0,0,1,5.23-2.86c3.55,0,6.23,3,6.23,7.48,0,5.29-3.22,7.9-6.69,7.9a5.18,5.18,0,0,1-4.53-2.31h-.06v8H935.2Zm2.64,3.92a5.25,5.25,0,0,0,.13,1.09,4.11,4.11,0,0,0,4,3.13c2.82,0,4.46-2.31,4.46-5.68,0-3-1.54-5.47-4.37-5.47a4.25,4.25,0,0,0-4,3.31,4,4,0,0,0-.19,1.09Z"/> <path class="cls-1" d="M952.65,214.66h3.28l2.67,7.42c.37,1.09,1,2.89,1.34,4H960c.33-1.09,1.16-3.43,1.73-5l2.37-6.42h3.32l1,14.72H965.9l-.34-7c-.09-1.58-.21-3.46-.27-5.25h-.09c-.4,1.33-.79,2.52-1.61,4.77l-2.83,7.41h-1.94L956.2,222c-.46-1.4-1.09-3.53-1.46-4.89h-.12c-.06,1.73-.15,3.67-.24,5.28l-.37,7h-2.46Z"/> <path class="cls-1" d="M974.5,214.66v5a12.82,12.82,0,0,1,2.4-.18c3.16,0,6.35,1.3,6.35,4.92a4.16,4.16,0,0,1-1.52,3.4,9.25,9.25,0,0,1-5.92,1.71,34.47,34.47,0,0,1-4-.22V214.66Zm0,12.86a15.07,15.07,0,0,0,1.85.12c2,0,4.26-.85,4.26-3.13s-2.13-3.1-4.14-3.1a12.26,12.26,0,0,0-2,.15Zm13.25-12.86v14.72h-2.64V214.66Z"/> <path class="cls-1" d="M1001,214.66v6.2c0,2.34,0,3.8-.15,5.9l.09,0c.88-1.79,1.4-2.82,2.37-4.53l4.59-7.6h3.13v14.72h-2.55v-6.24c0-2.4.06-3.64.18-6h-.09c-.94,1.88-1.58,3.07-2.43,4.56-1.4,2.28-3,5.1-4.59,7.69h-3.07V214.66Z"/> <path class="cls-1" d="M672.9,251.14v12.7l1.52,0-.15,6.66h-2.1l-.12-4.68H661.87l-.12,4.68h-2.1l-.12-6.66,1.25,0a11.45,11.45,0,0,0,1.45-3,19.32,19.32,0,0,0,.86-5.86v-3.83Zm-7.44,4.47a19.81,19.81,0,0,1-.76,5.47,14.15,14.15,0,0,1-1.19,2.73h6.78V253.17h-4.83Z"/> <path class="cls-1" d="M677.61,255.94c0-1.89-.06-3.4-.12-4.8h2.41l.12,2.52h.06a5.78,5.78,0,0,1,5.23-2.86c3.55,0,6.23,3,6.23,7.48,0,5.29-3.23,7.9-6.69,7.9a5.15,5.15,0,0,1-4.53-2.31h-.06v8h-2.65Zm2.65,3.92a6,6,0,0,0,.12,1.09,4.13,4.13,0,0,0,4,3.14c2.83,0,4.47-2.31,4.47-5.69,0-2.95-1.55-5.47-4.38-5.47a4.28,4.28,0,0,0-4,3.31,4.44,4.44,0,0,0-.18,1.1Z"/> <path class="cls-1" d="M695.58,251.14l3.22,8.69c.33,1,.7,2.13.94,3h.06c.28-.88.58-2,.94-3.07l2.92-8.63h2.83l-4,10.48c-1.92,5.05-3.22,7.63-5.05,9.21a7.32,7.32,0,0,1-3.28,1.74l-.67-2.25a7.18,7.18,0,0,0,2.34-1.31,8.14,8.14,0,0,0,2.25-3,1.93,1.93,0,0,0,.21-.64,2.42,2.42,0,0,0-.18-.7l-5.44-13.55Z"/> <path class="cls-1" d="M717.89,251.14v2.16H711.5v12.55h-2.64V251.14Z"/> <path class="cls-1" d="M722.87,251.14v6.2c0,2.34,0,3.8-.15,5.89l.09,0c.88-1.79,1.4-2.82,2.37-4.52l4.59-7.6h3.13v14.71h-2.55v-6.23c0-2.4.06-3.65.18-6h-.09c-.94,1.88-1.58,3.07-2.43,4.56-1.4,2.28-3,5.1-4.59,7.69h-3.07V251.14Z"/> <path class="cls-1" d="M738.74,259c.06,3.62,2.37,5.11,5,5.11a9.8,9.8,0,0,0,4.08-.76l.45,1.91a11.82,11.82,0,0,1-4.89.91c-4.53,0-7.24-3-7.24-7.41s2.62-7.94,6.9-7.94c4.81,0,6.08,4.23,6.08,6.93a10.19,10.19,0,0,1-.09,1.25Zm7.84-1.92c0-1.7-.7-4.34-3.71-4.34-2.71,0-3.89,2.49-4.1,4.34Z"/> <path class="cls-1" d="M761.38,251.14v6.2c0,2.34,0,3.8-.15,5.89l.09,0c.88-1.79,1.4-2.82,2.37-4.52l4.59-7.6h3.13v14.71h-2.55v-6.23c0-2.4.06-3.65.18-6H769c-.94,1.88-1.58,3.07-2.43,4.56-1.4,2.28-3,5.1-4.59,7.69h-3.07V251.14Z"/> <path class="cls-1" d="M778.34,251.14v5.92h7v-5.92H788v14.71h-2.64v-6.66h-7v6.66h-2.65V251.14Z"/> <path class="cls-1" d="M802.84,265.3a9.79,9.79,0,0,1-4.23.85c-4.44,0-7.32-3-7.32-7.51a7.48,7.48,0,0,1,7.9-7.81,9,9,0,0,1,3.71.76l-.61,2.07a6.25,6.25,0,0,0-3.1-.7c-3.37,0-5.2,2.49-5.2,5.56,0,3.41,2.19,5.5,5.11,5.5a7.67,7.67,0,0,0,3.28-.72Z"/> <path class="cls-1" d="M816.39,251.14v2.12H811.8v12.59h-2.64V253.26h-4.59v-2.12Z"/> <path class="cls-1" d="M818.73,255.94c0-1.89-.06-3.4-.12-4.8H821l.12,2.52h.06a5.8,5.8,0,0,1,5.23-2.86c3.56,0,6.23,3,6.23,7.48,0,5.29-3.22,7.9-6.68,7.9a5.15,5.15,0,0,1-4.53-2.31h-.06v8h-2.65Zm2.65,3.92a6,6,0,0,0,.12,1.09,4.13,4.13,0,0,0,4,3.14c2.83,0,4.47-2.31,4.47-5.69,0-2.95-1.55-5.47-4.38-5.47a4.28,4.28,0,0,0-4,3.31,4.44,4.44,0,0,0-.18,1.1Z"/> <path class="cls-1" d="M836.7,251.14l3.22,8.69c.33,1,.7,2.13.94,3h.06c.27-.88.58-2,.94-3.07l2.92-8.63h2.83l-4,10.48c-1.92,5.05-3.23,7.63-5.05,9.21a7.32,7.32,0,0,1-3.28,1.74l-.67-2.25a7.18,7.18,0,0,0,2.34-1.31,8.14,8.14,0,0,0,2.25-3,1.93,1.93,0,0,0,.21-.64,2.42,2.42,0,0,0-.18-.7l-5.44-13.55Z"/> <path class="cls-1" d="M850,251.14h3.28l2.68,7.41c.36,1.1,1,2.89,1.33,4.05h.06c.34-1.1,1.16-3.44,1.74-5.05l2.37-6.41h3.31l1,14.71h-2.55l-.33-7c-.09-1.58-.22-3.47-.28-5.26h-.09c-.39,1.34-.79,2.52-1.61,4.77l-2.83,7.42h-1.94l-2.62-7.27c-.45-1.4-1.09-3.52-1.45-4.89H852c-.06,1.73-.15,3.68-.24,5.29l-.36,7h-2.47Z"/> <path class="cls-1" d="M870.8,259c.06,3.62,2.37,5.11,5,5.11a9.8,9.8,0,0,0,4.08-.76l.45,1.91a11.82,11.82,0,0,1-4.89.91c-4.53,0-7.24-3-7.24-7.41s2.62-7.94,6.9-7.94c4.81,0,6.08,4.23,6.08,6.93a10.19,10.19,0,0,1-.09,1.25Zm7.84-1.92c0-1.7-.7-4.34-3.71-4.34-2.7,0-3.89,2.49-4.1,4.34Z"/> <path class="cls-1" d="M887.12,251.14v5.92h7v-5.92h2.64v14.71h-2.64v-6.66h-7v6.66h-2.64V251.14Z"/> <path class="cls-1" d="M911,251.14v2.12h-4.59v12.59h-2.65V253.26h-4.59v-2.12Z"/> <path class="cls-1" d="M915.9,251.14v5a12.86,12.86,0,0,1,2.41-.18c3.16,0,6.35,1.31,6.35,4.92a4.18,4.18,0,0,1-1.52,3.41c-1.61,1.37-4,1.7-5.93,1.7a36.79,36.79,0,0,1-4-.21V251.14Zm0,12.85a15,15,0,0,0,1.86.13c2,0,4.25-.86,4.25-3.13s-2.12-3.11-4.13-3.11a12.28,12.28,0,0,0-2,.16Zm13.26-12.85v14.71h-2.65V251.14Z"/> <path class="cls-1" d="M932.89,264.27a1.8,1.8,0,0,1,1.83-1.92,1.92,1.92,0,1,1-1.83,1.92Z"/> <path class="cls-1" d="M1102,82.57a19,19,0,0,1-6.29,1.13,9.63,9.63,0,0,1-10.52-10.34c0-6.11,4.22-10.58,11.09-10.58a12.58,12.58,0,0,1,5.11.95l-.64,2.15a10.7,10.7,0,0,0-4.53-.88c-5,0-8.24,3.1-8.24,8.24s3.14,8.27,7.91,8.27a8.63,8.63,0,0,0,3.52-.55V74.85h-4.16V72.72H1102Z"/> <path class="cls-1" d="M1116.61,73.88h-8v7.38h8.88v2.22H1106V63h11.06v2.22h-8.42v6.47h8Z"/> <path class="cls-1" d="M1120.59,80.26a9.35,9.35,0,0,0,4.74,1.34c2.71,0,4.29-1.43,4.29-3.5,0-1.91-1.1-3-3.86-4.07-3.35-1.19-5.41-2.92-5.41-5.81,0-3.19,2.64-5.56,6.62-5.56a9.38,9.38,0,0,1,4.53,1l-.73,2.16a8.24,8.24,0,0,0-3.89-1c-2.8,0-3.86,1.67-3.86,3.07,0,1.92,1.25,2.86,4.07,4,3.47,1.34,5.23,3,5.23,6s-2.34,5.9-7.17,5.9a10.56,10.56,0,0,1-5.23-1.31Z"/> <path class="cls-1" d="M1139.25,77l-2.13,6.44h-2.73l7-20.48h3.19l7,20.48h-2.83L1146.52,77ZM1146,75l-2-5.89c-.45-1.34-.76-2.56-1.06-3.74h-.06c-.31,1.21-.64,2.46-1,3.7l-2,5.93Z"/> <path class="cls-1" d="M1154.87,68.77l2,7.48c.42,1.64.82,3.16,1.09,4.68h.09c.34-1.49.83-3.07,1.31-4.65l2.4-7.51H1164l2.28,7.36c.55,1.76,1,3.31,1.31,4.8h.09a42.57,42.57,0,0,1,1.13-4.77l2.09-7.39h2.65l-4.74,14.71h-2.44l-2.25-7a49.6,49.6,0,0,1-1.3-4.83h-.06a44,44,0,0,1-1.34,4.86l-2.37,7h-2.43l-4.44-14.71Z"/> <path class="cls-1" d="M1184.2,83.48l-.21-1.85h-.09a5.49,5.49,0,0,1-4.5,2.19,4.19,4.19,0,0,1-4.5-4.23c0-3.55,3.16-5.5,8.85-5.47v-.3c0-1.22-.34-3.41-3.35-3.41a7.36,7.36,0,0,0-3.83,1.1l-.6-1.77a9.12,9.12,0,0,1,4.83-1.3c4.5,0,5.59,3.07,5.59,6V80a19.87,19.87,0,0,0,.25,3.52Zm-.39-7.51c-2.92-.06-6.23.46-6.23,3.32a2.36,2.36,0,0,0,2.52,2.55,3.66,3.66,0,0,0,3.56-2.46,2.82,2.82,0,0,0,.15-.85Z"/> <path class="cls-1" d="M1190.71,73.36c0-1.73,0-3.22-.12-4.59h2.34l.09,2.89h.12a4.41,4.41,0,0,1,4.07-3.22,2.88,2.88,0,0,1,.76.09v2.52a4,4,0,0,0-.91-.09c-1.88,0-3.22,1.43-3.59,3.43a7.69,7.69,0,0,0-.12,1.25v7.84h-2.64Z"/> <path class="cls-1" d="M1213.05,61.9V79.68c0,1.31,0,2.8.12,3.8h-2.4l-.12-2.55h-.06a5.45,5.45,0,0,1-5,2.89c-3.56,0-6.29-3-6.29-7.48,0-4.89,3-7.9,6.59-7.9a4.91,4.91,0,0,1,4.44,2.25h.06V61.9Zm-2.68,12.86a4.83,4.83,0,0,0-.12-1.13,3.93,3.93,0,0,0-3.86-3.1c-2.76,0-4.41,2.44-4.41,5.69,0,3,1.46,5.44,4.35,5.44a4,4,0,0,0,3.92-3.19,4.75,4.75,0,0,0,.12-1.16Z"/> <path class="cls-1" d="M1217.12,80.75a7.08,7.08,0,0,0,3.53,1.06c1.94,0,2.85-1,2.85-2.19s-.76-2-2.73-2.7c-2.65-1-3.89-2.4-3.89-4.17,0-2.37,1.91-4.31,5.07-4.31a7.31,7.31,0,0,1,3.62.91l-.67,1.94a5.78,5.78,0,0,0-3-.85c-1.58,0-2.46.91-2.46,2s.88,1.76,2.8,2.49c2.55,1,3.86,2.25,3.86,4.44,0,2.58-2,4.41-5.5,4.41a8.36,8.36,0,0,1-4.14-1Z"/> <path class="cls-1" d="M1263.23,74.85v1.82h-28.57V74.85Z"/> <path class="cls-1" d="M1273,68.77h3.29l2.67,7.42c.37,1.09,1,2.89,1.34,4h.06c.33-1.09,1.16-3.43,1.73-5l2.37-6.41h3.32l1,14.71h-2.55l-.34-7c-.09-1.58-.21-3.46-.27-5.26h-.09c-.4,1.34-.79,2.53-1.61,4.77l-2.83,7.42h-2l-2.61-7.26c-.45-1.4-1.09-3.53-1.46-4.9h-.12c-.06,1.74-.15,3.68-.24,5.29l-.37,7h-2.46Z"/> <path class="cls-1" d="M1293.71,76.61c.06,3.62,2.37,5.11,5,5.11a9.59,9.59,0,0,0,4.07-.76l.46,1.91a11.82,11.82,0,0,1-4.89.92c-4.53,0-7.24-3-7.24-7.42s2.61-7.93,6.9-7.93c4.8,0,6.08,4.22,6.08,6.93a10.16,10.16,0,0,1-.09,1.24Zm7.85-1.91c0-1.7-.7-4.35-3.71-4.35-2.71,0-3.89,2.49-4.11,4.35Z"/> <path class="cls-1" d="M1308.7,68.77l4.86,6.41h.55V68.77h2.55v6.41h.52l4.86-6.41h3.07l-5.8,6.69c2.21.24,3.52,1.55,4.4,3.89a37.14,37.14,0,0,0,1.61,4.13h-2.67a21.46,21.46,0,0,1-1.34-3.37c-.91-2.4-2.28-3.13-4.19-3.13h-.46v6.5h-2.55V77h-.49c-2.06,0-3.31.76-4.22,3.16a25.52,25.52,0,0,1-1.4,3.34h-2.58c.6-1.18,1.09-2.73,1.61-4.1.91-2.37,2.21-3.68,4.43-3.92l-5.83-6.69Z"/> <path class="cls-1" d="M1339.88,68.77V81.48l1.52,0-.15,6.65h-2.1l-.12-4.68h-10.18l-.12,4.68h-2.1l-.12-6.65,1.24,0a11.47,11.47,0,0,0,1.46-3,19.38,19.38,0,0,0,.86-5.87V68.77Zm-7.44,4.47a19.75,19.75,0,0,1-.76,5.47,14.24,14.24,0,0,1-1.19,2.74h6.78V70.81h-4.83Z"/> <path class="cls-1" d="M1345.48,68.77l3.22,8.69c.33,1,.7,2.13.94,3h.06c.27-.88.58-2,.94-3.07l2.92-8.63h2.83l-4,10.49c-1.92,5-3.23,7.63-5.05,9.21a7.27,7.27,0,0,1-3.28,1.73l-.67-2.25a7,7,0,0,0,2.34-1.31,8.09,8.09,0,0,0,2.25-3,2,2,0,0,0,.21-.64,2.28,2.28,0,0,0-.18-.7l-5.44-13.56Z"/> <path class="cls-1" d="M1361.4,68.77V74.7h7V68.77H1371V83.48h-2.65V76.83h-7v6.65h-2.64V68.77Z"/> <path class="cls-1" d="M1383.56,83.48l-.21-1.85h-.1a5.49,5.49,0,0,1-4.49,2.19,4.19,4.19,0,0,1-4.5-4.23c0-3.55,3.16-5.5,8.84-5.47v-.3c0-1.22-.33-3.41-3.34-3.41a7.31,7.31,0,0,0-3.83,1.1l-.61-1.77a9.14,9.14,0,0,1,4.83-1.3c4.5,0,5.6,3.07,5.6,6V80a20.94,20.94,0,0,0,.24,3.52Zm-.4-7.51c-2.91-.06-6.23.46-6.23,3.32a2.37,2.37,0,0,0,2.53,2.55,3.64,3.64,0,0,0,3.55-2.46,2.82,2.82,0,0,0,.15-.85Z"/> <path class="cls-1" d="M1396.26,74.27v2h-7.5v-2Z"/> <path class="cls-1" d="M1086.27,110.05c0-1.89-.06-3.41-.12-4.81h2.4l.12,2.53h.06a5.78,5.78,0,0,1,5.23-2.86c3.56,0,6.23,3,6.23,7.48,0,5.29-3.22,7.9-6.68,7.9A5.15,5.15,0,0,1,1089,118h-.06v8h-2.65Zm2.65,3.92a6.06,6.06,0,0,0,.12,1.09,4.12,4.12,0,0,0,4,3.13c2.83,0,4.47-2.31,4.47-5.68,0-3-1.55-5.47-4.38-5.47a4.26,4.26,0,0,0-4,3.31,4.44,4.44,0,0,0-.18,1.1Z"/> <path class="cls-1" d="M1116.88,112.48c0,5.44-3.77,7.81-7.32,7.81-4,0-7.06-2.92-7.06-7.57,0-4.92,3.23-7.81,7.3-7.81C1114,104.91,1116.88,108,1116.88,112.48Zm-11.67.15c0,3.22,1.85,5.65,4.47,5.65s4.47-2.4,4.47-5.71c0-2.49-1.25-5.65-4.41-5.65S1105.21,109.83,1105.21,112.63Z"/> <path class="cls-1" d="M1131.44,105.24V118l1.52,0-.15,6.66h-2.1l-.12-4.68h-10.18l-.13,4.68h-2.09l-.12-6.66,1.24,0a11.32,11.32,0,0,0,1.46-3,19.33,19.33,0,0,0,.85-5.87v-3.83Zm-7.45,4.47a19.33,19.33,0,0,1-.76,5.47,14,14,0,0,1-1.18,2.74h6.78V107.28H1124Z"/> <path class="cls-1" d="M1138.73,105.24v5.93h7v-5.93h2.64V120h-2.64V113.3h-7V120h-2.64V105.24Z"/> <path class="cls-1" d="M1155.33,105.24v5a12.82,12.82,0,0,1,2.4-.18c3.16,0,6.35,1.3,6.35,4.92a4.18,4.18,0,0,1-1.52,3.41,9.31,9.31,0,0,1-5.92,1.7,34.47,34.47,0,0,1-4-.22V105.24Zm0,12.86a15.07,15.07,0,0,0,1.85.12c2,0,4.26-.85,4.26-3.13s-2.13-3.1-4.14-3.1a12.26,12.26,0,0,0-2,.15Zm13.25-12.86V120h-2.64V105.24Z"/> <path class="cls-1" d="M1175.42,105.24v6.21c0,2.34,0,3.79-.15,5.89l.09,0c.88-1.79,1.4-2.82,2.37-4.53l4.59-7.6h3.13V120h-2.55v-6.24c0-2.4.06-3.64.18-6H1183c-.94,1.88-1.58,3.07-2.43,4.56-1.4,2.28-3,5.1-4.59,7.69h-3.07V105.24Zm1.73-6c.09,1.3.73,2.31,1.95,2.31s1.91-1,2.06-2.31h1.92a3.68,3.68,0,0,1-4,3.77c-2.68,0-3.71-1.68-3.83-3.77Z"/> <path class="cls-1" d="M1198.88,105.24v6.39h.64l5.53-6.39h3.26l-6.42,6.66c2.37.24,3.8,1.82,5,4.47a30.51,30.51,0,0,0,1.58,3.59h-2.8a20.85,20.85,0,0,1-1.37-3c-1-2.37-2.37-3.47-4.86-3.47h-.52V120h-2.64V105.24Z"/> <path class="cls-1" d="M1223.93,112.48c0,5.44-3.77,7.81-7.33,7.81-4,0-7-2.92-7-7.57,0-4.92,3.22-7.81,7.3-7.81S1223.93,108,1223.93,112.48Zm-11.67.15c0,3.22,1.85,5.65,4.46,5.65s4.47-2.4,4.47-5.71c0-2.49-1.24-5.65-4.4-5.65S1212.26,109.83,1212.26,112.63Z"/> <path class="cls-1" d="M1229.89,105.24v5.93h7v-5.93h2.64V120h-2.64V113.3h-7V120h-2.65V105.24Z"/> <path class="cls-1" d="M1246.54,105.24v6.39h.64l5.53-6.39H1256l-6.41,6.66c2.37.24,3.8,1.82,5,4.47a34.25,34.25,0,0,0,1.58,3.59h-2.79a19.81,19.81,0,0,1-1.37-3c-1-2.37-2.37-3.47-4.86-3.47h-.52V120h-2.64V105.24Z"/> <path class="cls-1" d="M1259.64,105.24l3.22,8.7c.34,1,.7,2.13.94,3h.06c.28-.88.58-2,1-3.07l2.91-8.64h2.83l-4,10.49c-1.92,5-3.22,7.63-5,9.21a7.13,7.13,0,0,1-3.28,1.73l-.67-2.25a7,7,0,0,0,2.34-1.3,8.14,8.14,0,0,0,2.25-3,2,2,0,0,0,.21-.64,2.34,2.34,0,0,0-.18-.7l-5.44-13.56Z"/> <path class="cls-1" d="M1273,110.05c0-1.89-.06-3.41-.12-4.81h2.4l.12,2.53h.06a5.78,5.78,0,0,1,5.23-2.86c3.56,0,6.23,3,6.23,7.48,0,5.29-3.22,7.9-6.68,7.9a5.15,5.15,0,0,1-4.53-2.31h-.06v8H1273Zm2.65,3.92a6.06,6.06,0,0,0,.12,1.09,4.12,4.12,0,0,0,4,3.13c2.83,0,4.47-2.31,4.47-5.68,0-3-1.55-5.47-4.38-5.47a4.26,4.26,0,0,0-4,3.31,4.44,4.44,0,0,0-.18,1.1Z"/> <path class="cls-1" d="M1300.76,119.41a9.93,9.93,0,0,1-4.22.85c-4.44,0-7.33-3-7.33-7.51a7.47,7.47,0,0,1,7.9-7.81,9,9,0,0,1,3.71.76l-.6,2.07a6.19,6.19,0,0,0-3.11-.7c-3.37,0-5.19,2.49-5.19,5.56,0,3.4,2.19,5.5,5.1,5.5a7.55,7.55,0,0,0,3.29-.73Z"/> <path class="cls-1" d="M1321,110.35h-8v7.39H1322V120h-11.52V99.47h11.06v2.22h-8.42v6.47h8Z"/> <path class="cls-1" d="M1337.87,98.38v17.78c0,1.3,0,2.79.13,3.8h-2.41l-.12-2.56h-.06a5.44,5.44,0,0,1-5,2.89c-3.56,0-6.29-3-6.29-7.48,0-4.89,3-7.9,6.59-7.9a4.91,4.91,0,0,1,4.44,2.25h.06V98.38Zm-2.67,12.85a4.74,4.74,0,0,0-.12-1.12,3.94,3.94,0,0,0-3.86-3.1c-2.77,0-4.41,2.43-4.41,5.68,0,3,1.46,5.44,4.35,5.44a4,4,0,0,0,3.92-3.19,4.67,4.67,0,0,0,.12-1.15Z"/> <path class="cls-1" d="M1346.29,101.72h-6.23V99.47h15.17v2.25H1349V120h-2.68Z"/> <path class="cls-1" d="M1356.75,113.09c.06,3.61,2.37,5.1,5,5.1a9.65,9.65,0,0,0,4.08-.76l.45,1.92a12,12,0,0,1-4.89.91c-4.53,0-7.24-3-7.24-7.42s2.62-7.93,6.9-7.93c4.81,0,6.08,4.22,6.08,6.93a10.36,10.36,0,0,1-.09,1.25Zm7.84-1.92c0-1.7-.7-4.35-3.71-4.35-2.7,0-3.89,2.5-4.1,4.35Z"/> <path class="cls-1" d="M1381,119.41a9.93,9.93,0,0,1-4.22.85c-4.44,0-7.33-3-7.33-7.51a7.47,7.47,0,0,1,7.9-7.81,9,9,0,0,1,3.71.76l-.6,2.07a6.19,6.19,0,0,0-3.11-.7c-3.37,0-5.19,2.49-5.19,5.56,0,3.4,2.19,5.5,5.1,5.5a7.55,7.55,0,0,0,3.29-.73Z"/> <path class="cls-1" d="M1384.1,98.38h2.68v9.17h.06a4.93,4.93,0,0,1,1.91-1.88,5.46,5.46,0,0,1,2.74-.76c2,0,5.14,1.22,5.14,6.29V120H1394v-8.45c0-2.38-.88-4.38-3.4-4.38a3.84,3.84,0,0,0-3.59,2.67,3.3,3.3,0,0,0-.18,1.28V120h-2.68Z"/> <path class="cls-1" d="M1407.17,110.75v2h-7.51v-2Z"/> <path class="cls-1" d="M1096.76,155.88a9.79,9.79,0,0,1-4.23.85c-4.43,0-7.32-3-7.32-7.5a7.48,7.48,0,0,1,7.9-7.82,9,9,0,0,1,3.71.76l-.61,2.07a6.25,6.25,0,0,0-3.1-.7c-3.37,0-5.2,2.49-5.2,5.56,0,3.41,2.19,5.51,5.11,5.51a7.65,7.65,0,0,0,3.28-.73Z"/> <path class="cls-1" d="M1110.32,141.72v2.12h-4.59v12.59h-2.65V143.84h-4.59v-2.12Z"/> <path class="cls-1" d="M1120.59,156.43l-.21-1.86h-.1a5.46,5.46,0,0,1-4.49,2.19,4.19,4.19,0,0,1-4.5-4.22c0-3.56,3.16-5.5,8.84-5.47v-.31c0-1.21-.33-3.4-3.34-3.4a7.3,7.3,0,0,0-3.83,1.09l-.61-1.76a9.14,9.14,0,0,1,4.83-1.31c4.5,0,5.6,3.07,5.6,6v5.5a21,21,0,0,0,.24,3.53Zm-.4-7.51c-2.92-.06-6.23.46-6.23,3.31a2.37,2.37,0,0,0,2.52,2.56,3.66,3.66,0,0,0,3.56-2.46,2.88,2.88,0,0,0,.15-.86Z"/> <path class="cls-1" d="M1127.09,146.52c0-1.88-.06-3.4-.12-4.8h2.4l.12,2.52h.06a5.8,5.8,0,0,1,5.23-2.86c3.56,0,6.23,3,6.23,7.48,0,5.29-3.22,7.9-6.68,7.9a5.15,5.15,0,0,1-4.53-2.31h-.06v8h-2.65Zm2.65,3.92a6.17,6.17,0,0,0,.12,1.1,4.12,4.12,0,0,0,4,3.13c2.83,0,4.47-2.31,4.47-5.69,0-2.95-1.55-5.47-4.38-5.47a4.28,4.28,0,0,0-4,3.31,4.44,4.44,0,0,0-.18,1.1Z"/> <path class="cls-1" d="M1154.08,141.72v2.12h-4.59v12.59h-2.64V143.84h-4.59v-2.12Z"/> <path class="cls-1" d="M1164.36,156.43l-.22-1.86h-.09a5.47,5.47,0,0,1-4.5,2.19,4.19,4.19,0,0,1-4.5-4.22c0-3.56,3.17-5.5,8.85-5.47v-.31c0-1.21-.33-3.4-3.34-3.4a7.3,7.3,0,0,0-3.83,1.09l-.61-1.76a9.12,9.12,0,0,1,4.83-1.31c4.5,0,5.59,3.07,5.59,6v5.5a20.91,20.91,0,0,0,.25,3.53Zm-.4-7.51c-2.92-.06-6.23.46-6.23,3.31a2.37,2.37,0,0,0,2.52,2.56,3.67,3.67,0,0,0,3.56-2.46,2.88,2.88,0,0,0,.15-.86Z"/> <path class="cls-1" d="M1183,141.72v14.71h-2.68V143.84h-6.84v12.59h-2.64V141.72Z"/> <path class="cls-1" d="M1200.61,149c0,5.44-3.76,7.81-7.32,7.81-4,0-7-2.91-7-7.57,0-4.92,3.22-7.81,7.29-7.81C1197.76,141.38,1200.61,144.45,1200.61,149Zm-11.67.15c0,3.23,1.86,5.66,4.47,5.66s4.47-2.4,4.47-5.72c0-2.49-1.25-5.65-4.41-5.65S1188.94,146.31,1188.94,149.1Z"/> <path class="cls-1" d="M1203.93,141.9a31.73,31.73,0,0,1,4.68-.33c2.46,0,6.53.39,6.53,3.67a3.49,3.49,0,0,1-3.07,3.32v.06c2.16.3,3.74,1.52,3.74,3.64,0,3.87-4.86,4.35-7.75,4.35-1.64,0-3.34-.12-4.13-.18Zm2.52,12.77a16.45,16.45,0,0,0,2.16.12c1.79,0,4.47-.43,4.47-2.56s-2.13-2.58-4.68-2.58h-2Zm0-6.78h2c2,0,4-.58,4-2.31,0-1.46-1.28-2.16-4-2.16a19.29,19.29,0,0,0-2.07.12Z"/> <path class="cls-1" d="M1217.45,160.17a44.37,44.37,0,0,0,1.83-7.27l3-.3a37.34,37.34,0,0,1-2.89,7.39Z"/> <path class="cls-1" d="M1244,141.72v14.71h-2.68V143.84h-6.84v12.59h-2.64V141.72Z"/> <path class="cls-1" d="M1261.68,149c0,5.44-3.77,7.81-7.33,7.81-4,0-7-2.91-7-7.57,0-4.92,3.22-7.81,7.29-7.81C1258.82,141.38,1261.68,144.45,1261.68,149Zm-11.68.15c0,3.23,1.86,5.66,4.47,5.66s4.47-2.4,4.47-5.72c0-2.49-1.25-5.65-4.41-5.65S1250,146.31,1250,149.1Z"/> <path class="cls-1" d="M1276.17,136.73a18.92,18.92,0,0,1-3.07.67c-2.37.37-4.1,1.16-5.22,2.77a10.48,10.48,0,0,0-1.62,4.86h.1a5.55,5.55,0,0,1,5.1-3.31c3.62,0,6.26,2.58,6.26,7.26s-2.49,7.78-6.81,7.78c-5.16,0-6.86-4.95-6.86-9.84,0-3.35.69-6.08,2.27-8.15s3.47-3,6.33-3.47a20.69,20.69,0,0,0,3.64-.79Zm-5.26,7a3.57,3.57,0,0,0-3.31,2,6.49,6.49,0,0,0-.73,3.13c0,2.43,1.19,5.93,4.11,5.93s4-2.86,4-5.57C1275,146.79,1274.08,143.69,1270.91,143.69Z"/> <path class="cls-1" d="M1282.59,149.56c.06,3.62,2.37,5.11,5,5.11a9.72,9.72,0,0,0,4.07-.76l.46,1.91a11.82,11.82,0,0,1-4.89.91c-4.53,0-7.24-3-7.24-7.41s2.62-7.94,6.9-7.94c4.8,0,6.08,4.23,6.08,6.93a10.19,10.19,0,0,1-.09,1.25Zm7.84-1.92c0-1.7-.7-4.34-3.71-4.34-2.71,0-3.89,2.49-4.1,4.34Z"/> <path class="cls-1" d="M1307.81,141.72v12.7l1.52,0-.15,6.66h-2.1l-.12-4.68h-10.18l-.12,4.68h-2.1l-.12-6.66,1.25,0a11.45,11.45,0,0,0,1.45-3,19.32,19.32,0,0,0,.86-5.86v-3.83Zm-7.44,4.47a19.75,19.75,0,0,1-.76,5.47,14.15,14.15,0,0,1-1.19,2.73h6.78V143.75h-4.83Z"/> <path class="cls-1" d="M1315,141.72v6.2c0,2.34,0,3.8-.16,5.89l.1,0c.88-1.8,1.39-2.83,2.37-4.53l4.59-7.6H1325v14.71h-2.56V150.2c0-2.4.06-3.65.19-6h-.1c-.94,1.88-1.58,3.07-2.43,4.56-1.39,2.28-3,5.11-4.59,7.69h-3.07V141.72Z"/> <path class="cls-1" d="M1339.21,141.72v2.12h-4.59v12.59H1332V143.84h-4.59v-2.12Z"/> <path class="cls-1" d="M1342.65,149.56c.06,3.62,2.37,5.11,5,5.11a9.72,9.72,0,0,0,4.07-.76l.46,1.91a11.82,11.82,0,0,1-4.89.91c-4.53,0-7.24-3-7.24-7.41s2.62-7.94,6.9-7.94c4.8,0,6.08,4.23,6.08,6.93a10.19,10.19,0,0,1-.09,1.25Zm7.84-1.92c0-1.7-.7-4.34-3.71-4.34-2.71,0-3.89,2.49-4.1,4.34Z"/> <path class="cls-1" d="M1367.57,141.72v14.71h-2.65V143.81h-5v3.83c0,4.14-.4,6.9-2.31,8.15a4.28,4.28,0,0,1-2.92.91l-.27-2.09a3.54,3.54,0,0,0,1.46-.61c1.36-1,1.52-3.07,1.52-6.36v-5.92Z"/> <path class="cls-1" d="M1374.41,141.72v6.2c0,2.34,0,3.8-.16,5.89l.1,0c.88-1.8,1.39-2.83,2.37-4.53l4.59-7.6h3.13v14.71h-2.56V150.2c0-2.4.06-3.65.19-6h-.1c-.94,1.88-1.58,3.07-2.43,4.56-1.39,2.28-3,5.11-4.59,7.69h-3.07V141.72Z"/> <path class="cls-1" d="M1088.92,178.19v6.38h.64l5.53-6.38h3.25l-6.41,6.66c2.37.24,3.8,1.82,5,4.47a31.39,31.39,0,0,0,1.58,3.58h-2.79a18.47,18.47,0,0,1-1.37-3c-1-2.37-2.37-3.46-4.87-3.46h-.51v6.47h-2.65V178.19Z"/> <path class="cls-1" d="M1114,185.42c0,5.45-3.77,7.82-7.32,7.82-4,0-7.05-2.92-7.05-7.57,0-4.93,3.22-7.81,7.29-7.81C1111.11,177.86,1114,180.93,1114,185.42Zm-11.67.16c0,3.22,1.86,5.65,4.47,5.65s4.47-2.4,4.47-5.71c0-2.5-1.25-5.66-4.41-5.66S1102.29,182.78,1102.29,185.58Z"/> <path class="cls-1" d="M1127,178.19v2.13h-4.59V192.9h-2.64V180.32h-4.59v-2.13Z"/> <path class="cls-1" d="M1142.29,185.42c0,5.45-3.77,7.82-7.32,7.82-4,0-7.06-2.92-7.06-7.57,0-4.93,3.23-7.81,7.3-7.81C1139.43,177.86,1142.29,180.93,1142.29,185.42Zm-11.67.16c0,3.22,1.85,5.65,4.47,5.65s4.47-2.4,4.47-5.71c0-2.5-1.25-5.66-4.41-5.66S1130.62,182.78,1130.62,185.58Z"/> <path class="cls-1" d="M1145.66,183c0-1.88-.06-3.4-.12-4.8h2.4l.13,2.52h.06a5.77,5.77,0,0,1,5.22-2.85c3.56,0,6.23,3,6.23,7.47,0,5.29-3.22,7.91-6.68,7.91a5.15,5.15,0,0,1-4.53-2.31h-.06v8h-2.65Zm2.65,3.92a6.17,6.17,0,0,0,.12,1.1,4.14,4.14,0,0,0,4,3.13c2.83,0,4.47-2.31,4.47-5.68,0-3-1.55-5.48-4.38-5.48a4.27,4.27,0,0,0-4,3.32,4.36,4.36,0,0,0-.18,1.09Z"/> <path class="cls-1" d="M1176.27,185.42c0,5.45-3.77,7.82-7.32,7.82-4,0-7.06-2.92-7.06-7.57,0-4.93,3.23-7.81,7.3-7.81S1176.27,180.93,1176.27,185.42Zm-11.67.16c0,3.22,1.85,5.65,4.47,5.65s4.47-2.4,4.47-5.71c0-2.5-1.25-5.66-4.41-5.66S1164.6,182.78,1164.6,185.58Z"/> <path class="cls-1" d="M1188.61,178.19v2.16h-6.38V192.9h-2.65V178.19Z"/> <path class="cls-1" d="M1204.05,185.42c0,5.45-3.77,7.82-7.32,7.82-4,0-7.06-2.92-7.06-7.57,0-4.93,3.23-7.81,7.3-7.81C1201.19,177.86,1204.05,180.93,1204.05,185.42Zm-11.67.16c0,3.22,1.85,5.65,4.47,5.65s4.47-2.4,4.47-5.71c0-2.5-1.25-5.66-4.41-5.66S1192.38,182.78,1192.38,185.58Z"/> <path class="cls-1" d="M1227.18,185.42c0,5.45-3.77,7.82-7.32,7.82-4,0-7.06-2.92-7.06-7.57,0-4.93,3.23-7.81,7.3-7.81C1224.32,177.86,1227.18,180.93,1227.18,185.42Zm-11.67.16c0,3.22,1.85,5.65,4.47,5.65s4.47-2.4,4.47-5.71c0-2.5-1.25-5.66-4.41-5.66S1215.51,182.78,1215.51,185.58Z"/> <path class="cls-1" d="M1240.25,178.19v2.13h-4.59V192.9H1233V180.32h-4.59v-2.13Z"/> <path class="cls-1" d="M1254.69,178.19V192.9H1252V180.32h-6.83V192.9h-2.65V178.19Z"/> <path class="cls-1" d="M1259,183c0-1.88-.06-3.4-.12-4.8h2.4l.13,2.52h.06a5.77,5.77,0,0,1,5.22-2.85c3.56,0,6.23,3,6.23,7.47,0,5.29-3.22,7.91-6.68,7.91a5.15,5.15,0,0,1-4.53-2.31h-.06v8H1259Zm2.65,3.92a6.17,6.17,0,0,0,.12,1.1,4.14,4.14,0,0,0,4,3.13c2.83,0,4.47-2.31,4.47-5.68,0-3-1.55-5.48-4.38-5.48a4.27,4.27,0,0,0-4,3.32,4.36,4.36,0,0,0-.18,1.09Z"/> <path class="cls-1" d="M1284.47,192.9l-.21-1.85h-.09a5.49,5.49,0,0,1-4.5,2.19,4.19,4.19,0,0,1-4.5-4.23c0-3.55,3.16-5.5,8.85-5.47v-.3c0-1.22-.34-3.41-3.35-3.41a7.36,7.36,0,0,0-3.83,1.1l-.6-1.77a9.12,9.12,0,0,1,4.83-1.3c4.5,0,5.59,3.07,5.59,6v5.51a19.87,19.87,0,0,0,.25,3.52Zm-.39-7.51c-2.92-.06-6.23.46-6.23,3.32a2.36,2.36,0,0,0,2.52,2.55,3.66,3.66,0,0,0,3.56-2.46,2.82,2.82,0,0,0,.15-.85Z"/> <path class="cls-1" d="M1290.92,178.37a31.62,31.62,0,0,1,4.68-.33c2.46,0,6.53.39,6.53,3.68a3.49,3.49,0,0,1-3.07,3.31v.06c2.16.3,3.74,1.52,3.74,3.65,0,3.86-4.86,4.34-7.75,4.34-1.64,0-3.34-.12-4.13-.18Zm2.52,12.77a16.45,16.45,0,0,0,2.16.12c1.79,0,4.47-.42,4.47-2.55s-2.13-2.59-4.69-2.59h-1.94Zm0-6.78h2c2,0,4-.58,4-2.31,0-1.46-1.28-2.16-4-2.16a19.13,19.13,0,0,0-2.07.12Z"/> <path class="cls-1" d="M1317.06,192.9h-2.65v-6.17h-2a3.52,3.52,0,0,0-2.47.82c-1.09.88-1.49,2.71-2.06,4.14a10.48,10.48,0,0,1-.61,1.21h-2.86a8.75,8.75,0,0,0,.91-1.67c.64-1.43,1-3.34,2.31-4.44a3.59,3.59,0,0,1,1.67-.85v-.09c-1.91-.21-3.89-1.4-3.89-3.65a3.56,3.56,0,0,1,2-3.19,10.29,10.29,0,0,1,4.92-1,41.61,41.61,0,0,1,4.75.3Zm-2.65-13a15.18,15.18,0,0,0-2.22-.15c-1.82,0-4,.52-4,2.55s2.34,2.56,3.92,2.56h2.28Z"/> <path class="cls-1" d="M1331.25,178.19v2.13h-4.59V192.9H1324V180.32h-4.59v-2.13Z"/> <path class="cls-1" d="M1343.68,192.35a9.74,9.74,0,0,1-4.22.86c-4.44,0-7.33-3-7.33-7.51a7.47,7.47,0,0,1,7.9-7.81,8.87,8.87,0,0,1,3.71.76l-.61,2.06a6.22,6.22,0,0,0-3.1-.7c-3.37,0-5.19,2.5-5.19,5.57,0,3.4,2.18,5.5,5.1,5.5a7.7,7.7,0,0,0,3.29-.73Z"/> <path class="cls-1" d="M1357.81,192.9h-2.64v-6.17h-2a3.51,3.51,0,0,0-2.46.82c-1.09.88-1.49,2.71-2.06,4.14a10.48,10.48,0,0,1-.61,1.21h-2.86a9.33,9.33,0,0,0,.91-1.67c.64-1.43,1-3.34,2.31-4.44a3.59,3.59,0,0,1,1.67-.85v-.09c-1.91-.21-3.89-1.4-3.89-3.65a3.54,3.54,0,0,1,2-3.19,10.27,10.27,0,0,1,4.92-1,41.26,41.26,0,0,1,4.74.3Zm-2.64-13a15.18,15.18,0,0,0-2.22-.15c-1.82,0-4,.52-4,2.55s2.34,2.56,3.92,2.56h2.28Z"/> <path class="cls-1" d="M1088.86,214.66v5.93h7v-5.93h2.64v14.72h-2.64v-6.66h-7v6.66h-2.65V214.66Z"/> <path class="cls-1" d="M1111,229.38l-.21-1.86h-.09a5.47,5.47,0,0,1-4.5,2.19,4.19,4.19,0,0,1-4.5-4.23c0-3.55,3.16-5.5,8.85-5.47v-.3c0-1.22-.34-3.41-3.35-3.41a7.36,7.36,0,0,0-3.83,1.1l-.6-1.76a9.12,9.12,0,0,1,4.83-1.31c4.5,0,5.59,3.07,5.59,6v5.5a20,20,0,0,0,.25,3.53Zm-.39-7.51c-2.92-.06-6.23.45-6.23,3.31a2.36,2.36,0,0,0,2.52,2.55,3.66,3.66,0,0,0,3.56-2.46,2.82,2.82,0,0,0,.15-.85Z"/> <path class="cls-1" d="M1132.71,207.79v6.6c4.29.3,7.39,3,7.39,7.6,0,4.83-3.28,7.39-7.39,7.66v5.74h-2.43v-5.71c-4.25-.27-7.38-3-7.38-7.54,0-4.86,3.25-7.42,7.38-7.75v-6.6Zm-2.43,8.42c-3,.4-4.74,2.83-4.74,5.84s1.82,5.41,4.74,5.77Zm2.43,11.61c3-.39,4.75-2.82,4.75-5.83a5.48,5.48,0,0,0-4.75-5.78Z"/> <path class="cls-1" d="M1145.9,214.66v6.2c0,2.34,0,3.8-.15,5.9l.09,0c.89-1.79,1.4-2.82,2.38-4.53l4.59-7.6h3.13v14.72h-2.56v-6.24c0-2.4.06-3.64.19-6h-.1c-.94,1.88-1.58,3.07-2.43,4.56-1.4,2.28-3,5.1-4.59,7.69h-3.07V214.66Z"/> <path class="cls-1" d="M1162.86,214.66v5.93h7v-5.93h2.64v14.72h-2.64v-6.66h-7v6.66h-2.64V214.66Z"/> <path class="cls-1" d="M1185,229.38l-.21-1.86h-.09a5.47,5.47,0,0,1-4.5,2.19,4.19,4.19,0,0,1-4.5-4.23c0-3.55,3.16-5.5,8.85-5.47v-.3c0-1.22-.34-3.41-3.35-3.41a7.33,7.33,0,0,0-3.83,1.1l-.61-1.76a9.16,9.16,0,0,1,4.84-1.31c4.5,0,5.59,3.07,5.59,6v5.5a21.06,21.06,0,0,0,.24,3.53Zm-.39-7.51c-2.92-.06-6.23.45-6.23,3.31a2.36,2.36,0,0,0,2.52,2.55,3.64,3.64,0,0,0,3.55-2.46,2.56,2.56,0,0,0,.16-.85Z"/> <path class="cls-1" d="M1202.74,214.66v14.72h-2.64V216.76h-5v3.83c0,4.13-.39,6.9-2.31,8.15a4.34,4.34,0,0,1-2.92.91l-.27-2.1a3.25,3.25,0,0,0,1.46-.61c1.37-1,1.52-3.07,1.52-6.35v-5.93Z"/> <path class="cls-1" d="M1213.5,214.85a30.23,30.23,0,0,1,4.68-.34c2.46,0,6.54.4,6.54,3.68a3.48,3.48,0,0,1-3.07,3.31v.06c2.15.31,3.73,1.52,3.73,3.65,0,3.86-4.86,4.35-7.75,4.35-1.64,0-3.34-.12-4.13-.18Zm2.52,12.76a16.45,16.45,0,0,0,2.16.12c1.79,0,4.47-.42,4.47-2.55s-2.13-2.58-4.68-2.58h-2Zm0-6.78h2c2,0,4-.57,4-2.31,0-1.45-1.28-2.15-4-2.15a19.29,19.29,0,0,0-2.07.12Z"/> <path class="cls-1" d="M1248.76,208.89v20.49h-2.68V211.11h-6.78v6.2c0,4.44-.18,9.39-3.07,11.34a6.2,6.2,0,0,1-3.13,1l-.33-2.13a4.75,4.75,0,0,0,2.16-1.09c1.64-1.61,1.79-5.6,1.79-8.88v-8.63Z"/> <path class="cls-1" d="M1266.57,221.9c0,5.44-3.77,7.81-7.33,7.81-4,0-7-2.92-7-7.57,0-4.92,3.22-7.81,7.3-7.81S1266.57,217.4,1266.57,221.9Zm-11.67.15c0,3.22,1.85,5.65,4.46,5.65s4.47-2.4,4.47-5.71c0-2.49-1.24-5.65-4.41-5.65S1254.9,219.25,1254.9,222.05Z"/> <path class="cls-1" d="M1272.52,214.66v5.93h7v-5.93h2.64v14.72h-2.64v-6.66h-7v6.66h-2.64V214.66Z"/> <path class="cls-1" d="M1297.93,214.66v12.71l1.52,0-.15,6.66h-2.1l-.12-4.68H1286.9l-.12,4.68h-2.1l-.12-6.66,1.25,0a12,12,0,0,0,1.46-3,19.65,19.65,0,0,0,.85-5.87v-3.83Zm-7.44,4.47a19.7,19.7,0,0,1-.76,5.47,14,14,0,0,1-1.19,2.74h6.78V216.7h-4.83Z"/> <path class="cls-1" d="M1315.84,221.9c0,5.44-3.77,7.81-7.33,7.81-4,0-7-2.92-7-7.57,0-4.92,3.22-7.81,7.29-7.81C1313,214.33,1315.84,217.4,1315.84,221.9Zm-11.68.15c0,3.22,1.86,5.65,4.47,5.65s4.47-2.4,4.47-5.71c0-2.49-1.25-5.65-4.41-5.65S1304.16,219.25,1304.16,222.05Z"/> <path class="cls-1" d="M1321.79,214.66v5.93h7v-5.93h2.65v14.72h-2.65v-6.66h-7v6.66h-2.64V214.66Z"/> <path class="cls-1" d="M1335.17,227.79a1.79,1.79,0,0,1,1.82-1.91,1.92,1.92,0,0,1,0,3.83A1.79,1.79,0,0,1,1335.17,227.79Z"/> <g class="cls-4"> <g class="cls-2"> <path class="cls-1" d="M263.27,210.25c4.06,2.35,4.08,6.15.05,8.49L173.37,271a16.12,16.12,0,0,1-14.66,0L68.19,218.75c-4.08-2.35-4.1-6.15-.06-8.5L158.07,158a16.13,16.13,0,0,1,14.68,0Z"/> </g> </g> <g class="cls-5"> <path class="cls-6" d="M160.56,47.46c4.69-2.71,8.51-.54,8.52,4.87l.33,117.26c0,5.39-3.77,12-8.47,14.67l-46.72,27c-4.7,2.72-8.52.55-8.53-4.85l-.34-117.26c0-5.41,3.78-12,8.48-14.69Z"/> <path class="cls-7" d="M160.56,50.24c3.35-1.93,6.09-.37,6.1,3.49L167,171a13.38,13.38,0,0,1-6.05,10.48l-46.73,27c-3.35,1.93-6.09.38-6.1-3.47l-.33-117.26a13.39,13.39,0,0,1,6.06-10.5l15-8.67c2-1.17,4-1.3,5.38-.37a2,2,0,0,0,2.19-.14l1.59-.92a6.25,6.25,0,0,0,2.18-2.38,15.08,15.08,0,0,1,5.36-5.83Z"/> </g> <g class="cls-2"> <path class="cls-6" d="M191.43,66.61c-2.19,1.26-4,.25-4-2.27a8.74,8.74,0,0,1,4-6.86c2.19-1.26,4-.25,4,2.27a8.71,8.71,0,0,1-4,6.86m15.22-8.79c-2.19,1.26-4,.25-4-2.27a8.71,8.71,0,0,1,4-6.85c2.19-1.27,4-.25,4,2.27a8.68,8.68,0,0,1-3.95,6.85M221.86,49c-2.19,1.26-4,.25-4-2.27a8.71,8.71,0,0,1,4-6.86c2.19-1.26,4-.24,4,2.27a8.74,8.74,0,0,1-4,6.86m3.57-27.18L185,45.21c-6.11,3.52-11,12.06-11,19.07l0,16.34c0,7,5,9.85,11.08,6.33l0,9.65,8.37-14.5,32-18.51c6.1-3.52,11-12.07,11-19.08l-.05-16.34c0-7-5-9.83-11.08-6.31"/> </g> <g class="cls-8"> <polygon class="cls-1" points="146.16 119.53 160.03 113.84 150.03 130.87 152.44 145.37 140.02 145.04 127.64 159.69 129.96 142.46 119.89 137.01 133.75 126.69 139.92 108.67 146.16 119.53"/> <g class="cls-9"> <polyline class="cls-1" points="150.03 130.87 152.44 145.37 152.44 145.37 140.02 145.04 127.64 159.69 129.96 142.46 119.89 137.01 133.75 126.69 139.92 108.67 146.16 119.53 160.03 113.84 150.03 130.87"/> </g> </g> <path class="cls-10" d="M163.53,210.08v2.54a2,2,0,0,0,2.18,3.2,6.59,6.59,0,0,0,3.63,1.62c1.25.21,3.21-.85,2.52-1.93-.5-.76-1.74-1.07-3.33-1.69s-1.34-1.17-1.34-1.17l-.69-2.57Z"/> <path class="cls-11" d="M160.06,193.22a23.32,23.32,0,0,0,3,8.66c-1.29,2.35,0,6.86-.23,10.87.18,1.65,3.4,1.88,4.32-.1a71.68,71.68,0,0,1,0-12.52,27.92,27.92,0,0,0-2-11.7v-3.56l-7.1,5.64Z"/> <path class="cls-10" d="M152,215.88l-.12,1.62-.12,1.51a11.59,11.59,0,0,0,.7,3.28,2.43,2.43,0,0,0,2.12,1.6l1.81-.28c.54-.35.57-.91.13-1.69l-1.32-2.6-.37-1.39-.09-2.27Z"/> <path class="cls-11" d="M161,193.41c-.38,4.53-1.23,8.64-3.38,11.6a60.8,60.8,0,0,0-2.06,12.49c-.21,1.1-3.59,1.57-3.89,0a36.73,36.73,0,0,1-.26-3.79c-.06-4,.64-8,2.65-10.95a39.39,39.39,0,0,1,.74-9.7,14.85,14.85,0,0,1,.79-4.72,8.76,8.76,0,0,1,.5-1.17,14.44,14.44,0,0,0,1.89.25h.1a9.6,9.6,0,0,0,7.15-2.6C165.39,188.63,164.91,192,161,193.41Z"/> <path class="cls-12" d="M158.08,187.4l-.05.07a10.66,10.66,0,0,0-2.4,5.51,24.21,24.21,0,0,0-.53,10.19c-2.1,2.4-3.15,6.19-3.74,10.58-.06-4,.64-8,2.65-10.95a39.39,39.39,0,0,1,.74-9.7,14.85,14.85,0,0,1,.79-4.72l2.39-.92Z"/> <path class="cls-13" d="M173.69,158.75l-.1,2.78,1.11.49.8-.49A2.56,2.56,0,0,0,173.69,158.75Z"/> <path class="cls-14" d="M173.34,159.7l.62-1.63a6.7,6.7,0,0,1-.87-2,4.56,4.56,0,0,0-.5-1.33c-.26-.55.07-.9.46-.41s.46.79.68,1.19a.73.73,0,0,0,.53.18,2.1,2.1,0,0,0,.49-.87l.09-1.27v-1c0-.41.42-.49.54,0l.13,1-.1,1.25.4-.69L176,153c.05-.42.45-.44.49.06l-.14,1.39-.35,1,.49-.83.3-.72c.21-.43.52-.19.39.28l-.3,1.06c.18-.38.49-.07.26.5l-.54,1.36-.37.9-.64.8-1.08,2.86Z"/> <path class="cls-1" d="M173.34,159.7l1.21,2.25.78-2.45a1.73,1.73,0,0,1-1.43-1.27Z"/> <path class="cls-15" d="M175.5,161.53a12.27,12.27,0,0,1-4,6.55c-2.31,2.39-4.67,4.7-7.51,5.58l-.53.36-.9.61-1-5.17a6.9,6.9,0,0,1,2.64-1.47l5.25-2.49,4.3-6.75c.11,1.06.38,2.66,1.26,2.84A1,1,0,0,0,175.5,161.53Z"/> <path class="cls-16" d="M175.5,161.53a12.27,12.27,0,0,1-4,6.55c-2.31,2.39-4.67,4.7-7.51,5.58l-.53.36-.1-1.48c2.5-.45,5-2.29,7.17-4.64,2.21-1.16,3.47-3.52,4.44-6.31A1,1,0,0,0,175.5,161.53Z"/> <path class="cls-13" d="M142.28,173.81a2.12,2.12,0,0,1,.92-2.87l1.27,1.7-.62,1.27Z"/> <path class="cls-14" d="M143.64,173.55,142.13,172l-1.41-1.1-1.48-1.14-.43-.77-.09-.37-.36-.71c-.3-.41-.06-.66.19-.49l-.1-.28c-.2-.5.11-.56.41-.22l.84,1.15,1.26.83.19-.28-.3-1.47c-.12-.5.27-.7.49-.2l.54,1.46,1,2.16,1.41,1Z"/> <path class="cls-1" d="M142.87,170.61c.2.62-.08,1.08-.74,1.43l1.67,1.75.79-1.9Z"/> <path class="cls-15" d="M152.23,173.39v4.91l3.05,10.9c3.93,1.11,8.15,2.54,10-1.24a60.6,60.6,0,0,0-.58-11.56l-1-3.93-1.75-3.36L157,170.93Z"/> <path class="cls-15" d="M154.14,178.05a4.3,4.3,0,0,1-1.91.25,14.83,14.83,0,0,1-5-1.71l-5-2.78c1,.12,1.56-1.83,1.05-2.87l4.85,2.27,4,.18a2,2,0,0,1,2.39,1.11C155.41,176.43,155.19,177.57,154.14,178.05Z"/> <path class="cls-1" d="M155.1,171.92a24.29,24.29,0,0,1,6.4,5.92,17.79,17.79,0,0,0-1.18-8.39A18.58,18.58,0,0,0,155.1,171.92Z"/> <path class="cls-14" d="M155.63,172.08l.69-3.45,3.22-.3.9,3.37C160.76,173.55,156.61,173.92,155.63,172.08Z"/> <path class="cls-17" d="M157.08,170.45c.23,2,2.82,5.8,4.48,5a5.2,5.2,0,0,0,.12-5.87Z"/> <path class="cls-14" d="M157,170.36l.23.35.64,1a1,1,0,0,0,.6.41l1.84.42a1.62,1.62,0,0,0,1.21-.5.64.64,0,0,0,.14-.35,11,11,0,0,0,.06-3.32l0-.25a3.51,3.51,0,0,0-.38-1.39l-.81-1.34a3.27,3.27,0,0,0-3.26-1.26,3.11,3.11,0,0,0-2,2.27,3.79,3.79,0,0,0,.61,2.67Z"/> <path class="cls-10" d="M155.91,169.62l1.19.18-.19-1.15c-.18-1.89,2.21-1,3.14-1.64.76-.56.41-1.78,1.35-.07a4,4,0,0,0-1.27-2.31,3.3,3.3,0,0,0-3.12-.58,2.7,2.7,0,0,0-2.09,2.89A3.79,3.79,0,0,0,155.91,169.62Z"/> <path class="cls-14" d="M156.33,168.8a.54.54,0,0,0-.37-.14.5.5,0,0,0-.41.5,1.32,1.32,0,0,0,.21.66,2.22,2.22,0,0,0,.37.52.83.83,0,0,0,.56.27.25.25,0,0,0,.22-.07.23.23,0,0,0,.06-.12,1.45,1.45,0,0,0-.21-.95A1.49,1.49,0,0,0,156.33,168.8Z"/> <path class="cls-16" d="M142.29,173.81l5,2.77a14.63,14.63,0,0,0,5,1.72l3.05,10.9,1.38.39a24.43,24.43,0,0,1-2.53-11.54c0-.19.07-.39.11-.57a6.77,6.77,0,0,1-2,0,13.58,13.58,0,0,1-3.81-1.32Z"/> <polygon class="cls-15" points="191.99 177.37 190.26 187.44 195.42 190.55 197.21 180.14 191.99 177.37"/> <path class="cls-14" d="M196.74,183.63l-1-.58-1.39.76c-.36.22-.44.75.08.58l.91-.19a1.41,1.41,0,0,0,.44,1.28l.47.43,1.65,0,.18-1Z"/> <path class="cls-18" d="M202.81,185.2l-4.76-.33a1.54,1.54,0,0,0-.67,2.13l4.33,1.83Z"/> <path class="cls-10" d="M197.89,227.62c0-.93.72-1.29,1.78-1.4a21.77,21.77,0,0,1,3.82.79l1.87,1a4.12,4.12,0,0,1,.14,2.6,2.09,2.09,0,0,1-1.81.57l-2.1-.89-.16-.31C199.76,229.83,197.89,229.07,197.89,227.62Z"/> <path class="cls-10" d="M204.72,223.89c0-.76.68-.89,1.69-1,1.84,0,1.92.92,3.6.88l1.66,1a4.94,4.94,0,0,1,.07,2.79,2.43,2.43,0,0,1-1.84.45l-1.71-1-.14-.3C206.45,226.5,204.72,225.31,204.72,223.89Z"/> <path class="cls-19" d="M210.72,198l-6.1,2.55a22,22,0,0,0,.12,2.86c.38,2.81,1.52,7.06,1.52,7.06a74.63,74.63,0,0,1,1.34,12.83,2.51,2.51,0,0,0,4.18,1.59c.47-5.77.47-11.38-.89-15.09.65-2.94,0-6.21-.15-9.59C210.9,200.15,210.55,198.07,210.72,198Z"/> <path class="cls-11" d="M206.16,204.06c0,3.37,0,6.1-.78,9,1.15,3.7.84,9.22.05,15a2.48,2.48,0,0,1-3.3.45,2,2,0,0,1-.8-2l-.62-12.81s-.9-4.25-1.13-7.06.76-9.23.76-9.23a10.78,10.78,0,0,0,1.64.32c3.64.46,7-.84,8-2.91.06.15.11.3.16.46a14.89,14.89,0,0,1,.67,3.89C210.94,202.2,208,203.29,206.16,204.06Z"/> <path class="cls-1" d="M199.55,186.73a37.72,37.72,0,0,1,.33,5.41c0,.65,0,1.29,0,1.91a17.57,17.57,0,0,0,.43,3.42,15.73,15.73,0,0,0,1.55.59c3.14,1,6,.5,8.26-2.73a42.28,42.28,0,0,0,2.44-10.57c0-2.15-.71-3.69-2.55-4.2-3.26.78-6.59,2.81-10,5.71Z"/> <path class="cls-14" d="M203,180.79l.31,2.94c1.9,0,4.88-1.33,4.51-2.34l-1-1.92Z"/> <path class="cls-14" d="M202.13,181.16c.76.86,1.9.75,3.06.44,1.69-.78,2.91-1.94,2.74-4.15.14-1.6-.59-3.27-3.32-3.19-1.73.06-3.21.69-3.32,2.55C201.29,176.81,201.2,180.31,202.13,181.16Z"/> <path class="cls-18" d="M203.25,182.73l-.7,1.57c3.26-.37,6.17-1.59,5.45-3.09l-.6-.69C207.86,181.6,204.65,182.89,203.25,182.73Z"/> <path class="cls-10" d="M201.3,176.35a2.67,2.67,0,0,0,1.11,1.55,8.84,8.84,0,0,0,0,1.46c.08,0,.83.68.83.68l.39,1.09a3,3,0,0,0,3.81-.63,7.78,7.78,0,0,0,.62-3.89,3.3,3.3,0,0,0-3.4-2.88C202.46,173.64,201.12,174.9,201.3,176.35Z"/> <path class="cls-14" d="M202.59,179.57c-.21-.23.11-.77.35-.84s.5.36.54.62a1.2,1.2,0,0,1-.2.9c-.22.32-.56,0-.67-.26S202.73,179.72,202.59,179.57Z"/> <path class="cls-20" d="M199.58,206.7c.23,2.81,1.13,7.06,1.13,7.06l.62,12.81a2,2,0,0,0,.8,2c-.55-5.39-.8-10.44,0-14.36-1.2-4.43-1.75-9.08-.36-12.51a13.39,13.39,0,0,1,.12-3.6,15.73,15.73,0,0,1-1.55-.59S199.35,203.9,199.58,206.7Z"/> <polygon class="cls-21" points="203.49 189.42 204.22 198.5 200.95 203.19 200.49 195.44 203.49 189.42"/> <path class="cls-14" d="M197.76,204l1.65-.55.11,0,.08.2c0,.16.55,2.77.54,2.84a6.21,6.21,0,0,1-.86,2.14l-1.34.92s-.74.29-.79-.12l.43-.68-.26-1-.25-.54-.26.66c-.44,1-1.13.88-1,.45l.41-.94.27-1.55Z"/> <path class="cls-1" d="M200.88,185.53c-1.44.89-2.1,1.48-2.16,4.27l.35,7.54-1.69,7.13c.13.78,1.85,1.21,2.5.73a40.43,40.43,0,0,0,3-6.65l.68-8.27C203.71,187.24,203.76,185.14,200.88,185.53Z"/> <path class="cls-22" d="M98.7,116.76l.11,40.07L39.68,191l-.11-40.07Zm-.57-6.08-.07-23.52-41.7,24.07.07,23.52Z"/> <rect class="cls-23" y="331.25" width="1476.49" height="54.75" rx="27.38"/> </g> </g> </g> </svg>