<svg xmlns="http://www.w3.org/2000/svg" xmlns:xlink="http://www.w3.org/1999/xlink" width="149.215" height="166.105" viewBox="0 0 149.215 166.105"><defs><linearGradient id="a" x1="1.778" y1="-0.278" x2="0.179" y2="0.695" gradientUnits="objectBoundingBox"><stop offset="0" stop-color="#fff"/><stop offset="0.387" stop-color="#fbfafe"/><stop offset="0.811" stop-color="#f2edfe"/><stop offset="1" stop-color="#ede5fe"/></linearGradient><clipPath id="b"><path d="M11237.07,1082.573l9.13-3.743-6.582,11.207,1.59,9.543-8.176-.218-8.148,9.643,1.53-11.343-6.626-3.582,9.12-6.794,4.056-11.857Z" fill="#fff"/></clipPath><linearGradient id="c" x1="0.354" y1="0.092" x2="0.771" y2="1.302" gradientUnits="objectBoundingBox"><stop offset="0" stop-color="#aca3d7"/><stop offset="0.306" stop-color="#786abe" stop-opacity="0.639"/><stop offset="0.622" stop-color="#4834a6" stop-opacity="0.298"/><stop offset="0.849" stop-color="#291297" stop-opacity="0.082"/><stop offset="0.963" stop-color="#1e0692" stop-opacity="0"/></linearGradient></defs><g transform="translate(-11166.931 -1017.308)"><g opacity="0.5"><g style="isolation:isolate"><path d="M11314.132,1142.272c2.673,1.543,2.688,4.043.031,5.587l-59.187,34.4a10.628,10.628,0,0,1-9.646,0l-59.566-34.391c-2.681-1.548-2.694-4.048-.039-5.592l59.188-34.4a10.628,10.628,0,0,1,9.654,0Z" fill="#fff"/></g></g><g opacity="0.7"><path d="M11246.545,1035.15c3.089-1.784,5.6-.353,5.61,3.2l.219,77.16a12.282,12.282,0,0,1-5.574,9.654l-30.744,17.75c-3.1,1.788-5.605.357-5.616-3.193l-.219-77.16a12.283,12.283,0,0,1,5.58-9.665Z" fill="#f9fcff"/><path d="M11246.55,1036.984c2.2-1.272,4-.246,4.009,2.292l.22,77.16a8.8,8.8,0,0,1-3.983,6.9l-30.744,17.749c-2.209,1.276-4.008.25-4.016-2.28l-.218-77.16a8.8,8.8,0,0,1,3.988-6.911l9.876-5.7a3.323,3.323,0,0,1,3.541-.245,1.339,1.339,0,0,0,1.439-.1l1.047-.6a4.074,4.074,0,0,0,1.434-1.563,9.946,9.946,0,0,1,3.525-3.835Z" fill="url(#a)"/></g><g style="isolation:isolate"><path d="M11266.863,1047.751c-1.443.833-2.616.164-2.621-1.493a5.741,5.741,0,0,1,2.6-4.511c1.442-.832,2.616-.163,2.621,1.494a5.745,5.745,0,0,1-2.6,4.51m10.015-5.782c-1.442.833-2.616.164-2.621-1.494a5.741,5.741,0,0,1,2.6-4.51c1.441-.832,2.608-.159,2.612,1.5a5.725,5.725,0,0,1-2.6,4.506m10.008-5.778c-1.442.832-2.616.164-2.621-1.494a5.739,5.739,0,0,1,2.6-4.51c1.441-.833,2.616-.164,2.621,1.494a5.744,5.744,0,0,1-2.6,4.51m2.346-17.887-26.617,15.367a15.96,15.96,0,0,0-7.247,12.552l.031,10.747c.013,4.617,3.275,6.485,7.294,4.166l.018,6.35,5.508-9.541,21.09-12.176a15.988,15.988,0,0,0,7.247-12.561l-.029-10.747c-.015-4.617-3.284-6.472-7.294-4.157" fill="#f9fcff"/></g><g style="mix-blend-mode:overlay;isolation:isolate"><path d="M11237.07,1082.573l9.13-3.743-6.582,11.207,1.59,9.543-8.176-.218-8.148,9.643,1.53-11.343-6.626-3.582,9.12-6.794,4.056-11.857Z" fill="#fff"/><g clip-path="url(#b)"><path d="M11239.618,1090.037l1.59,9.543h0l-8.176-.218-8.148,9.643,1.53-11.343-6.626-3.582,9.12-6.794,4.056-11.857,4.106,7.145,9.13-3.743-6.582,11.207" fill="#fff"/></g></g><path d="M11248.5,1142.156v1.677a1.285,1.285,0,0,0,1.434,2.1,4.4,4.4,0,0,0,2.39,1.07c.826.139,2.118-.562,1.658-1.27-.325-.5-1.145-.708-2.188-1.113s-.879-.768-.879-.768l-.454-1.7Z" fill="#0b1017"/><path d="M11246.217,1131.067a15.355,15.355,0,0,0,2,5.7c-.848,1.545,0,4.515-.15,7.151.12,1.091,2.241,1.242,2.848-.061a46.715,46.715,0,0,1,0-8.241,18.478,18.478,0,0,0-1.323-7.7v-2.343l-4.676,3.706Z" fill="#2d2856"/><path d="M11240.884,1145.974l-.081,1.071-.081.989a7.578,7.578,0,0,0,.465,2.162,1.608,1.608,0,0,0,1.395,1.05l1.192-.182c.354-.229.373-.6.079-1.111l-.867-1.717-.243-.909-.061-1.494Z" fill="#0b1017"/><path d="M11246.8,1131.188c-.248,2.983-.806,5.69-2.221,7.635a39.55,39.55,0,0,0-1.354,8.221c-.141.72-2.363,1.03-2.564.021a23.753,23.753,0,0,1-.168-2.491,12.6,12.6,0,0,1,1.744-7.2,25.852,25.852,0,0,1,.484-6.383,9.883,9.883,0,0,1,.519-3.1,6.336,6.336,0,0,1,.33-.774,8.583,8.583,0,0,0,1.247.168l.065,0a6.324,6.324,0,0,0,4.706-1.7C11249.728,1128.047,11249.408,1130.262,11246.8,1131.188Z" fill="#2d2856"/><path d="M11244.914,1127.238c-.011.013-.021.027-.03.04a7.058,7.058,0,0,0-1.583,3.628,15.956,15.956,0,0,0-.349,6.7c-1.376,1.583-2.068,4.073-2.458,6.963a12.6,12.6,0,0,1,1.744-7.2,25.852,25.852,0,0,1,.484-6.383,9.883,9.883,0,0,1,.519-3.1l1.577-.606Z" fill="#924fc2" opacity="0.5" style="mix-blend-mode:multiply;isolation:isolate"/><path d="M11255.185,1108.383l-.06,1.828.727.323.525-.323A1.677,1.677,0,0,0,11255.185,1108.383Z" fill="#991f24"/><path d="M11254.958,1109.009l.409-1.076a4.385,4.385,0,0,1-.576-1.333,2.951,2.951,0,0,0-.33-.877c-.169-.358.05-.592.3-.266l.45.779a.473.473,0,0,0,.349.122,1.317,1.317,0,0,0,.317-.576l.063-.833v-.637c0-.272.277-.325.354,0l.083.675-.06.825.257-.454.136-.788c.031-.273.3-.288.319.045l-.091.909-.229.652.319-.546.2-.469c.143-.288.348-.129.257.182l-.2.7c.121-.249.322-.047.172.331l-.354.9-.246.589-.42.527-.712,1.883Z" fill="#ffae80"/><path d="M11254.958,1109.009l.793,1.48.517-1.611a1.138,1.138,0,0,1-.94-.838Z" fill="#fff"/><path d="M11256.377,1110.211a8.02,8.02,0,0,1-2.646,4.312c-1.516,1.575-3.071,3.092-4.942,3.674l-.35.236-.587.4-.687-3.4a4.572,4.572,0,0,1,1.738-.969l3.454-1.636,2.826-4.445c.073.7.255,1.75.829,1.867A.641.641,0,0,0,11256.377,1110.211Z" fill="#ff4555"/><path d="M11256.377,1110.211a8.02,8.02,0,0,1-2.646,4.312c-1.516,1.575-3.071,3.092-4.942,3.674l-.35.236-.064-.973a9.2,9.2,0,0,0,4.72-3.058c1.457-.762,2.285-2.316,2.918-4.152A.653.653,0,0,0,11256.377,1110.211Z" fill="#9e2e3b" opacity="0.5" style="mix-blend-mode:multiply;isolation:isolate"/><path d="M11234.521,1118.294a1.4,1.4,0,0,1,.605-1.892l.833,1.121-.409.838Z" fill="#991f24"/><path d="M11235.414,1118.119l-.994-.99-.929-.727-.97-.75-.285-.5-.059-.247-.239-.463c-.194-.271-.038-.439.129-.326l-.071-.184c-.131-.329.077-.367.275-.142l.553.756.829.545.121-.186-.193-.969c-.079-.324.175-.456.319-.13l.358.962.646,1.423.929.677Z" fill="#ffae80"/><path d="M11234.905,1116.189c.133.4-.052.709-.485.94l1.1,1.151.515-1.252Z" fill="#fff"/><path d="M11241.064,1118.019v3.23l2.008,7.17c2.59.728,5.361,1.674,6.578-.816a40.59,40.59,0,0,0-.385-7.6l-.685-2.586-1.153-2.211-3.212,1.2Z" fill="#ff4555"/><path d="M11242.32,1121.083a2.775,2.775,0,0,1-1.254.167,9.724,9.724,0,0,1-3.273-1.131l-3.271-1.825c.627.081,1.025-1.206.687-1.892l3.191,1.494,2.667.121a1.344,1.344,0,0,1,1.574.728C11243.158,1120.017,11243.015,1120.769,11242.32,1121.083Z" fill="#ff4555"/><path d="M11242.952,1117.051a15.825,15.825,0,0,1,4.214,3.9,11.725,11.725,0,0,0-.773-5.525A12.459,12.459,0,0,0,11242.952,1117.051Z" fill="#fff"/><path d="M11243.3,1117.155l.457-2.268,2.115-.2.595,2.222C11246.682,1118.119,11243.947,1118.367,11243.3,1117.155Z" fill="#ffae80"/><path d="M11244.257,1116.079c.151,1.321,1.859,3.817,2.949,3.272a3.42,3.42,0,0,0,.081-3.858Z" fill="#ffae80" opacity="0.5" style="mix-blend-mode:multiply;isolation:isolate"/><path d="M11244.172,1116.023l.154.23.422.632a.648.648,0,0,0,.394.271l1.21.273a1.027,1.027,0,0,0,.792-.327.377.377,0,0,0,.1-.23,7.325,7.325,0,0,0,.037-2.187l-.012-.163a2.4,2.4,0,0,0-.252-.916l-.533-.88a2.148,2.148,0,0,0-2.143-.829,2.048,2.048,0,0,0-1.343,1.495,2.489,2.489,0,0,0,.4,1.758Z" fill="#ffae80"/><path d="M11243.49,1115.538l.779.114-.12-.758c-.121-1.242,1.449-.621,2.063-1.076.5-.37.268-1.173.89-.045a2.646,2.646,0,0,0-.841-1.522,2.151,2.151,0,0,0-2.053-.378,1.769,1.769,0,0,0-1.371,1.9A2.481,2.481,0,0,0,11243.49,1115.538Z" fill="#0b1017"/><path d="M11243.764,1114.995a.362.362,0,0,0-.245-.091.328.328,0,0,0-.268.328.881.881,0,0,0,.141.437,1.468,1.468,0,0,0,.24.344.572.572,0,0,0,.371.176.179.179,0,0,0,.141-.045.166.166,0,0,0,.039-.08.961.961,0,0,0-.133-.627A.973.973,0,0,0,11243.764,1114.995Z" fill="#ffae80"/><path d="M11234.522,1118.294l3.271,1.824a9.707,9.707,0,0,0,3.271,1.131l2.008,7.17.908.257a16.078,16.078,0,0,1-1.661-7.594c.018-.127.04-.253.069-.376a4.524,4.524,0,0,1-1.324,0,9.027,9.027,0,0,1-2.5-.867Z" fill="#9e2e3b" opacity="0.5" style="mix-blend-mode:multiply;isolation:isolate"/><path d="M11267.228,1120.632l-1.139,6.632,3.4,2.045,1.178-6.849Z" fill="#ff4555"/><path d="M11270.356,1124.757l-.682-.384-.913.5c-.233.144-.287.49.05.383l.6-.125a.927.927,0,0,0,.289.842l.309.282,1.084-.022.121-.663Z" fill="#ffae80"/><path d="M11274.347,1125.788l-3.128-.217a1.014,1.014,0,0,0-.445,1.4l2.853,1.2Z" fill="#c8e6e2"/><path d="M11271.111,1153.7c0-.612.472-.847,1.172-.922a14.512,14.512,0,0,1,2.514.522l1.231.673a2.761,2.761,0,0,1,.09,1.712,1.354,1.354,0,0,1-1.192.375l-1.383-.586-.1-.2C11272.34,1155.156,11271.111,1154.655,11271.111,1153.7Z" fill="#0b1017"/><path d="M11275.606,1151.249c0-.5.446-.586,1.114-.638,1.205,0,1.257.6,2.366.578l1.09.662a3.247,3.247,0,0,1,.048,1.835,1.571,1.571,0,0,1-1.213.295l-1.121-.659-.095-.2C11276.744,1152.962,11275.606,1152.181,11275.606,1151.249Z" fill="#0b1017"/><path d="M11279.556,1134.207l-4.018,1.68a13.754,13.754,0,0,0,.08,1.88c.254,1.852,1,4.649,1,4.649a49.255,49.255,0,0,1,.881,8.444,1.65,1.65,0,0,0,2.755,1.043c.307-3.8.3-7.487-.588-9.931.427-1.929.024-4.082-.1-6.3C11279.674,1135.624,11279.443,1134.255,11279.556,1134.207Z" fill="#201c3d"/><path d="M11276.55,1138.2a21.454,21.454,0,0,1-.512,5.94c.758,2.44.553,6.072.034,9.865a1.63,1.63,0,0,1-2.172.3,1.318,1.318,0,0,1-.525-1.288l-.409-8.431a46.968,46.968,0,0,1-.742-4.643,39.082,39.082,0,0,1,.5-6.076,7.735,7.735,0,0,0,1.077.212c2.392.3,4.589-.552,5.272-1.919.036.1.067.2.1.3a9.712,9.712,0,0,1,.445,2.566C11279.7,1136.974,11277.787,1137.693,11276.55,1138.2Z" fill="#2d2856"/><path d="M11272.2,1126.8a23.84,23.84,0,0,1,.215,3.558c.007.43.011.849.024,1.261a11.023,11.023,0,0,0,.284,2.249,9.379,9.379,0,0,0,1.019.384,4.4,4.4,0,0,0,5.433-1.791,27.787,27.787,0,0,0,1.6-6.957c-.007-1.417-.467-2.429-1.673-2.765a16.384,16.384,0,0,0-6.56,3.759C11272.432,1126.594,11272.318,1126.694,11272.2,1126.8Z" fill="#fff"/><path d="M11274.5,1122.887l.2,1.935c1.252-.009,3.21-.877,2.964-1.542l-.658-1.263Z" fill="#ffae80"/><path d="M11273.9,1123.132c.5.565,1.246.489,2.009.287a2.608,2.608,0,0,0,1.808-2.728c.089-1.054-.389-2.157-2.185-2.1-1.143.037-2.116.452-2.186,1.673C11273.351,1120.264,11273.291,1122.569,11273.9,1123.132Z" fill="#ffae80"/><path d="M11274.636,1124.16l-.456,1.034c2.142-.241,4.061-1.044,3.581-2.033l-.39-.454C11277.669,1123.419,11275.56,1124.27,11274.636,1124.16Z" fill="#c8e6e2"/><path d="M11273.358,1119.963a1.722,1.722,0,0,0,.729,1.018,6.059,6.059,0,0,0-.036.965c.052.017.547.444.547.444l.256.717a1.971,1.971,0,0,0,2.51-.41,5.2,5.2,0,0,0,.409-2.56,2.171,2.171,0,0,0-2.236-1.894C11274.121,1118.183,11273.239,1119.007,11273.358,1119.963Z" fill="#0b1017"/><path d="M11274.206,1122.085c-.137-.153.073-.508.227-.558.215-.07.332.241.354.41a.782.782,0,0,1-.126.591c-.146.216-.374,0-.446-.17C11274.163,1122.233,11274.293,1122.182,11274.206,1122.085Z" fill="#ffae80"/><path d="M11272.224,1139.937a46.6,46.6,0,0,0,.742,4.643l.408,8.433a1.32,1.32,0,0,0,.531,1.289,33.063,33.063,0,0,1,0-9.449c-.794-2.921-1.154-5.98-.243-8.236a8.973,8.973,0,0,1,.083-2.37,9.379,9.379,0,0,1-1.019-.384A39.2,39.2,0,0,0,11272.224,1139.937Z" fill="#a263c7" style="mix-blend-mode:multiply;isolation:isolate"/><path d="M11274.8,1128.566l.476,5.976-2.147,3.082-.3-5.1Z" fill="#d6eeeb" style="mix-blend-mode:multiply;isolation:isolate"/><path d="M11271.024,1138.173l1.088-.366.07-.024.055.129c.024.107.359,1.827.354,1.871a4.03,4.03,0,0,1-.565,1.406l-.885.61s-.485.186-.517-.082l.282-.448-.174-.646-.164-.351-.169.433c-.286.645-.74.578-.672.3l.271-.619.177-1.02Z" fill="#ffae80"/><path d="M11273.077,1126.005c-.943.585-1.377.976-1.42,2.808l.232,4.964-1.116,4.689c.091.512,1.221.8,1.645.482a26.53,26.53,0,0,0,1.955-4.374l.449-5.442C11274.939,1127.133,11274.976,1125.746,11273.077,1126.005Z" fill="#fff"/><path d="M11205.841,1080.752l.074,26.367-38.909,22.464-.075-26.367Zm-.375-4-.044-15.475-27.438,15.842.044,15.475Z" fill="url(#c)" style="mix-blend-mode:screen;isolation:isolate"/></g></svg>