<?xml version="1.0" standalone="no"?>
<!DOCTYPE svg PUBLIC "-//W3C//DTD SVG 1.1//EN" "http://www.w3.org/Graphics/SVG/1.1/DTD/svg11.dtd" >
<svg xmlns="http://www.w3.org/2000/svg" xmlns:xlink="http://www.w3.org/1999/xlink" version="1.1">
<metadata>
Created by FontForge 20190801 at Fri Jun  7 19:40:14 2019
 By Jimmy Wärting
Copyright (c) 2019 by Lisa Fischbach, Jakob Runge and Nils Thomsen. All rights reserved.
</metadata>
<defs>
<font id="HalvarBreit-Md" horiz-adv-x="554" >
  <font-face 
    font-family="Halvar Breit Md"
    font-weight="500"
    font-stretch="expanded"
    units-per-em="1000"
    panose-1="0 0 6 5 0 0 0 0 0 0"
    ascent="800"
    descent="-200"
    x-height="498"
    cap-height="656"
    bbox="-242 -232 1394 963"
    underline-thickness="50"
    underline-position="-100"
    unicode-range="U+0020-FB02"
  />
<missing-glyph horiz-adv-x="436" 
d="M49 656h118l-167 -167v118zM268 656h118l-386 -386v117zM436 607v-118l-436 -438v117zM436 270l-268 -270h-117l385 387v-117zM436 51l-49 -51h-117l166 168v-117z" />
    <glyph glyph-name=".notdef" horiz-adv-x="436" 
d="M49 656h118l-167 -167v118zM268 656h118l-386 -386v117zM436 607v-118l-436 -438v117zM436 270l-268 -270h-117l385 387v-117zM436 51l-49 -51h-117l166 168v-117z" />
    <glyph glyph-name="space" unicode=" " horiz-adv-x="400" 
 />
    <glyph glyph-name="A" unicode="A" horiz-adv-x="770" 
d="M754 19v-19h-127l-68 150h-348l-68 -150h-127v19l300 637h138zM507 262l-122 268l-122 -268h244z" />
    <glyph glyph-name="B" unicode="B" horiz-adv-x="785" 
d="M702 281.5q25 -35.5 25 -84.5v-11q0 -56 -29.5 -98t-83.5 -65t-126 -23h-403v656h383q113 0 175.5 -44.5t62.5 -125.5v-11q0 -90 -76 -138q47 -20 72 -55.5zM210 544v-157h257q57 0 84.5 18t27.5 55v11q0 36 -28.5 54.5t-82.5 18.5h-258zM600 201q0 37 -28 55.5t-86 18.5
h-276v-163h276q54 0 84 20.5t30 57.5v11z" />
    <glyph glyph-name="C" unicode="C" horiz-adv-x="874" 
d="M239 29q-88 41 -135.5 116t-47.5 176v13q0 101 47.5 176.5t135.5 116.5t205 41q107 0 192.5 -35.5t134 -98.5t48.5 -141v-8h-127v8q0 45 -31.5 81.5t-88.5 57t-128 20.5q-126 0 -193.5 -56t-67.5 -160v-17q0 -104 67 -159.5t194 -55.5q73 0 129.5 20t87.5 56t31 82v8h127
v-8q0 -78 -48.5 -140.5t-134 -98t-192.5 -35.5q-117 0 -205 41z" />
    <glyph glyph-name="D" unicode="D" horiz-adv-x="826" 
d="M402 656q181 0 274.5 -82t93.5 -240v-13q0 -158 -93.5 -239.5t-274.5 -81.5h-317v656h317zM583.5 163q59.5 51 59.5 156v16q0 209 -242 209h-191v-432h192q122 0 181.5 51z" />
    <glyph glyph-name="E" unicode="E" horiz-adv-x="723" 
d="M656 656v-112h-446v-159h426v-112h-426v-161h446v-112h-571v656h571z" />
    <glyph glyph-name="F" unicode="F" horiz-adv-x="704" 
d="M660 656v-112h-450v-171h430v-112h-430v-261h-125v656h575z" />
    <glyph glyph-name="G" unicode="G" horiz-adv-x="879" 
d="M821 353v-353h-113l-5 67q-97 -79 -254 -79q-120 0 -208.5 40.5t-136.5 115.5t-48 177v13q0 100 48.5 175.5t138 117t207.5 41.5q110 0 194 -29.5t130 -84t46 -125.5v-5h-127v5q0 33 -32.5 61.5t-88 45t-121.5 16.5q-127 0 -197.5 -56.5t-70.5 -159.5v-17
q0 -105 68.5 -160t199.5 -55q79 0 141 23t104 63v51h-335v112h460z" />
    <glyph glyph-name="H" unicode="H" horiz-adv-x="819" 
d="M210 656v-272h399v272h125v-656h-125v272h-399v-272h-125v656h125z" />
    <glyph glyph-name="I" unicode="I" horiz-adv-x="299" 
d="M212 656v-656h-125v656h125z" />
    <glyph glyph-name="J" unicode="J" horiz-adv-x="749" 
d="M195 23.5q-71 35.5 -109 101t-38 153.5v40h125v-40q0 -82 50 -128t138 -46q91 0 139.5 44.5t48.5 128.5v267h-315v112h440v-377q0 -89 -38 -154.5t-108.5 -101t-166.5 -35.5q-95 0 -166 35.5z" />
    <glyph glyph-name="K" unicode="K" horiz-adv-x="813" 
d="M759 637l-320 -271l308 -347v-19h-152l-252 284l-133 -110v-174h-125v656h125v-324l382 324h167v-19z" />
    <glyph glyph-name="L" unicode="L" horiz-adv-x="687" 
d="M210 656v-544h464v-112h-589v656h125z" />
    <glyph glyph-name="M" unicode="M" horiz-adv-x="1029" 
d="M944 0h-124v491l-241 -491h-129l-241 493v-493h-124v656h176l254 -515l253 515h176v-656z" />
    <glyph glyph-name="N" unicode="N" horiz-adv-x="819" 
d="M734 656v-656h-123l-404 481v-481h-122v656h123l404 -480v480h122z" />
    <glyph glyph-name="O" unicode="O" horiz-adv-x="877" 
d="M236.5 29q-86.5 41 -133.5 116.5t-47 176.5v11q0 101 47 177t134 117t202 41t201.5 -41t133.5 -117t47 -177v-11q0 -101 -47 -176.5t-133 -116.5t-202 -41t-202.5 41zM627.5 160.5q66.5 56.5 66.5 159.5v14q0 103 -66.5 160.5t-188.5 57.5t-189 -57.5t-67 -160.5v-14
q0 -103 67 -159.5t189 -56.5t188.5 56.5z" />
    <glyph glyph-name="P" unicode="P" horiz-adv-x="787" 
d="M495 656q113 0 178.5 -54.5t65.5 -148.5v-11q0 -94 -65.5 -148.5t-178.5 -54.5h-285v-239h-125v656h410zM581 374.5q31 23.5 31 67.5v11q0 44 -31 67.5t-89 23.5h-282v-193h282q58 0 89 23.5z" />
    <glyph glyph-name="Q" unicode="Q" horiz-adv-x="877" 
d="M640.5 627q86.5 -41 133.5 -117t47 -177v-11q0 -128 -73.5 -213t-203.5 -111l52 -122v-19h-126l-56 131q-108 4 -189 46.5t-125 116.5t-44 171v11q0 101 47 177t134 117t202 41t201.5 -41zM694 334q0 103 -66.5 160.5t-188.5 57.5t-189 -57.5t-67 -160.5v-14
q0 -103 67 -159.5t189 -56.5t188.5 56.5t66.5 159.5v14z" />
    <glyph glyph-name="R" unicode="R" horiz-adv-x="806" 
d="M686 304.5q-53 -52.5 -148 -62.5l198 -223v-19h-144l-214 240h-168v-240h-125v656h410q114 0 179 -55.5t65 -151.5v-12q0 -80 -53 -132.5zM612 454q0 43 -31 66.5t-89 23.5h-282v-193h282q58 0 89 23.5t31 67.5v12z" />
    <glyph glyph-name="S" unicode="S" horiz-adv-x="771" 
d="M146 45q-83 57 -83 167v9h125v-9q0 -112 208 -112q90 0 137.5 21t47.5 61v7q0 35 -28 52t-102 27l-158 22q-217 30 -217 176v10q0 90 79.5 141t224.5 51q153 0 233.5 -55t80.5 -160v-9h-125v9q0 103 -189 103q-86 0 -131.5 -20t-45.5 -57v-8q0 -30 26.5 -45.5t92.5 -24.5
l159 -22q117 -16 172 -60.5t55 -123.5v-10q0 -93 -83 -145t-235 -52q-161 0 -244 57z" />
    <glyph glyph-name="T" unicode="T" horiz-adv-x="691" 
d="M13 544v112h665v-112h-270v-544h-125v544h-270z" />
    <glyph glyph-name="U" unicode="U" horiz-adv-x="793" 
d="M227.5 25.5q-72.5 37.5 -112.5 105.5t-40 158v367h125v-369q0 -86 51.5 -134.5t144.5 -48.5t145 48.5t52 134.5v369h125v-367q0 -90 -40 -158t-113 -105.5t-169 -37.5t-168.5 37.5z" />
    <glyph glyph-name="V" unicode="V" horiz-adv-x="770" 
d="M754 656v-19l-297 -637h-144l-297 637v19h127l242 -536l242 536h127z" />
    <glyph glyph-name="W" unicode="W" horiz-adv-x="1175" 
d="M1159 656v-19l-235 -637h-151l-185 500l-184 -500h-152l-236 637v19h127l186 -519l191 519h136l192 -517l184 517h127z" />
    <glyph glyph-name="X" unicode="X" horiz-adv-x="819" 
d="M765 637l-265 -309l265 -309v-19h-148l-207 245l-208 -245h-148v19l265 309l-265 309v19h148l208 -245l208 245h147v-19z" />
    <glyph glyph-name="Y" unicode="Y" horiz-adv-x="726" 
d="M723 656v-19l-297 -381v-256h-125v256l-298 381v19h140l220 -282l220 282h140z" />
    <glyph glyph-name="Z" unicode="Z" horiz-adv-x="696" 
d="M652 545l-441 -433h441v-112h-608v111l441 433h-441v112h608v-111z" />
    <glyph glyph-name="Aacute" unicode="&#xc1;" horiz-adv-x="770" 
d="M754 19v-19h-127l-68 150h-348l-68 -150h-127v19l300 637h138zM507 262l-122 268l-122 -268h244zM603 888v-102l-435 -71v103z" />
    <glyph glyph-name="Abreve" unicode="&#x102;" horiz-adv-x="770" 
d="M754 19v-19h-127l-68 150h-348l-68 -150h-127v19l300 637h138zM507 262l-122 268l-122 -268h244zM168 773v103q119 -53 220 -53q102 0 215 53v-103q-112 -53 -215 -53q-104 0 -220 53z" />
    <glyph glyph-name="uni01CD" unicode="&#x1cd;" horiz-adv-x="770" 
d="M754 19v-19h-127l-68 150h-348l-68 -150h-127v19l300 637h138zM507 262l-122 268l-122 -268h244zM168 888l217 -68l218 68v-106l-218 -67l-217 67v106z" />
    <glyph glyph-name="Acircumflex" unicode="&#xc2;" horiz-adv-x="770" 
d="M754 19v-19h-127l-68 150h-348l-68 -150h-127v19l300 637h138zM507 262l-122 268l-122 -268h244zM385 888l218 -68v-105l-218 67l-217 -67v105z" />
    <glyph glyph-name="Adieresis" unicode="&#xc4;" horiz-adv-x="770" 
d="M754 19v-19h-127l-68 150h-348l-68 -150h-127v19l300 637h138zM507 262l-122 268l-122 -268h244zM201 746.5q-21 19.5 -21 51.5q0 31 21 50.5t55 19.5q32 0 52.5 -19.5t20.5 -50.5t-20.5 -51t-52.5 -20q-34 0 -55 19.5zM461 747q-21 20 -21 51t20.5 50.5t53.5 19.5
t54 -19.5t21 -50.5t-21 -51t-54 -20q-32 0 -53 20z" />
    <glyph glyph-name="Agrave" unicode="&#xc0;" horiz-adv-x="770" 
d="M754 19v-19h-127l-68 150h-348l-68 -150h-127v19l300 637h138zM507 262l-122 268l-122 -268h244zM168 889l435 -70v-104l-435 71v103z" />
    <glyph glyph-name="Amacron" unicode="&#x100;" horiz-adv-x="770" 
d="M754 19v-19h-127l-68 150h-348l-68 -150h-127v19l300 637h138zM507 262l-122 268l-122 -268h244zM603 850v-103h-435v103h435z" />
    <glyph glyph-name="Aogonek" unicode="&#x104;" horiz-adv-x="770" 
d="M754 19v-19h-127l-68 150h-348l-68 -150h-127v19l300 637h138zM507 262l-122 268l-122 -268h244zM557.5 -148.5q-30.5 21.5 -30.5 59.5q0 31 18.5 54.5t64.5 51.5l100 61l44 -78l-91 -46q-13 -7 -13 -14q0 -11 18 -11h86v-99h-113q-53 0 -83.5 21.5z" />
    <glyph glyph-name="Aring" unicode="&#xc5;" horiz-adv-x="770" 
d="M754 19v-19h-127l-68 150h-348l-68 -150h-127v19l300 637h138zM507 262l-122 268l-122 -268h244zM262 656q-44 34 -44 97q0 62 45 97t122 35t122 -35t45 -97q0 -63 -44 -97t-123 -34t-123 34zM432 715q16 13 16 38t-16.5 38.5t-46.5 13.5q-31 0 -47.5 -13.5t-16.5 -38.5
q0 -24 16.5 -37.5t47.5 -13.5t47 13z" />
    <glyph glyph-name="Atilde" unicode="&#xc3;" horiz-adv-x="770" 
d="M754 19v-19h-127l-68 150h-348l-68 -150h-127v19l300 637h138zM507 262l-122 268l-122 -268h244zM437.5 736q-24.5 4 -57.5 12q-62 15 -101 15q-57 0 -111 -27v102q58 28 112 28q40 0 102 -17q38 -9 60.5 -13t48.5 -4q55 0 112 25v-102q-53 -23 -114 -23q-27 0 -51.5 4z
" />
    <glyph glyph-name="AE" unicode="&#xc6;" horiz-adv-x="1072" 
d="M549 544l36 -159h400v-112h-374l37 -161h357v-112h-459l-34 150h-299l-70 -150h-127v19l300 637h689v-112h-456zM423 544h-27l-131 -282h222z" />
    <glyph glyph-name="AEacute" unicode="&#x1fc;" horiz-adv-x="1072" 
d="M549 544l36 -159h400v-112h-374l37 -161h357v-112h-459l-34 150h-299l-70 -150h-127v19l300 637h689v-112h-456zM423 544h-27l-131 -282h222zM754 888v-102l-435 -71v103z" />
    <glyph glyph-name="Cacute" unicode="&#x106;" horiz-adv-x="874" 
d="M239 29q-88 41 -135.5 116t-47.5 176v13q0 101 47.5 176.5t135.5 116.5t205 41q107 0 192.5 -35.5t134 -98.5t48.5 -141v-8h-127v8q0 45 -31.5 81.5t-88.5 57t-128 20.5q-126 0 -193.5 -56t-67.5 -160v-17q0 -104 67 -159.5t194 -55.5q73 0 129.5 20t87.5 56t31 82v8h127
v-8q0 -78 -48.5 -140.5t-134 -98t-192.5 -35.5q-117 0 -205 41zM667 888v-102l-435 -71v103z" />
    <glyph glyph-name="Ccaron" unicode="&#x10c;" horiz-adv-x="874" 
d="M239 29q-88 41 -135.5 116t-47.5 176v13q0 101 47.5 176.5t135.5 116.5t205 41q107 0 192.5 -35.5t134 -98.5t48.5 -141v-8h-127v8q0 45 -31.5 81.5t-88.5 57t-128 20.5q-126 0 -193.5 -56t-67.5 -160v-17q0 -104 67 -159.5t194 -55.5q73 0 129.5 20t87.5 56t31 82v8h127
v-8q0 -78 -48.5 -140.5t-134 -98t-192.5 -35.5q-117 0 -205 41zM232 888l217 -68l218 68v-106l-218 -67l-217 67v106z" />
    <glyph glyph-name="Ccedilla" unicode="&#xc7;" horiz-adv-x="874" 
d="M239 29q-88 41 -135.5 116t-47.5 176v13q0 101 47.5 176.5t135.5 116.5t205 41q107 0 192.5 -35.5t134 -98.5t48.5 -141v-8h-127v8q0 45 -31.5 81.5t-88.5 57t-128 20.5q-126 0 -193.5 -56t-67.5 -160v-17q0 -104 67 -159.5t194 -55.5q73 0 129.5 20t87.5 56t31 82v8h127
v-8q0 -78 -48.5 -140.5t-134 -98t-192.5 -35.5q-117 0 -205 41zM511 0l-49 -170h-134l60 208z" />
    <glyph glyph-name="Ccircumflex" unicode="&#x108;" horiz-adv-x="874" 
d="M239 29q-88 41 -135.5 116t-47.5 176v13q0 101 47.5 176.5t135.5 116.5t205 41q107 0 192.5 -35.5t134 -98.5t48.5 -141v-8h-127v8q0 45 -31.5 81.5t-88.5 57t-128 20.5q-126 0 -193.5 -56t-67.5 -160v-17q0 -104 67 -159.5t194 -55.5q73 0 129.5 20t87.5 56t31 82v8h127
v-8q0 -78 -48.5 -140.5t-134 -98t-192.5 -35.5q-117 0 -205 41zM449 888l218 -68v-105l-218 67l-217 -67v105z" />
    <glyph glyph-name="Cdotaccent" unicode="&#x10a;" horiz-adv-x="874" 
d="M239 29q-88 41 -135.5 116t-47.5 176v13q0 101 47.5 176.5t135.5 116.5t205 41q107 0 192.5 -35.5t134 -98.5t48.5 -141v-8h-127v8q0 45 -31.5 81.5t-88.5 57t-128 20.5q-126 0 -193.5 -56t-67.5 -160v-17q0 -104 67 -159.5t194 -55.5q73 0 129.5 20t87.5 56t31 82v8h127
v-8q0 -78 -48.5 -140.5t-134 -98t-192.5 -35.5q-117 0 -205 41zM392 745q-22 21 -22 54q0 32 22 53t57 21t57 -20.5t22 -53.5t-22 -54t-57 -21t-57 21z" />
    <glyph glyph-name="Eth" unicode="&#xd0;" horiz-adv-x="859" 
d="M709.5 574q93.5 -82 93.5 -240v-13q0 -158 -93.5 -239.5t-274.5 -81.5h-317v274h-117v108h117v274h317q181 0 274.5 -82zM676 335q0 209 -242 209h-191v-162h188v-108h-188v-162h192q122 0 181.5 51t59.5 156v16z" />
    <glyph glyph-name="Dcaron" unicode="&#x10e;" horiz-adv-x="826" 
d="M402 656q181 0 274.5 -82t93.5 -240v-13q0 -158 -93.5 -239.5t-274.5 -81.5h-317v656h317zM583.5 163q59.5 51 59.5 156v16q0 209 -242 209h-191v-432h192q122 0 181.5 51zM179 888l217 -68l218 68v-106l-218 -67l-217 67v106z" />
    <glyph glyph-name="Dcroat" unicode="&#x110;" horiz-adv-x="859" 
d="M709.5 574q93.5 -82 93.5 -240v-13q0 -158 -93.5 -239.5t-274.5 -81.5h-317v274h-117v108h117v274h317q181 0 274.5 -82zM676 335q0 209 -242 209h-191v-162h188v-108h-188v-162h192q122 0 181.5 51t59.5 156v16z" />
    <glyph glyph-name="Eacute" unicode="&#xc9;" horiz-adv-x="723" 
d="M656 656v-112h-446v-159h426v-112h-426v-161h446v-112h-571v656h571zM588 888v-102l-435 -71v103z" />
    <glyph glyph-name="Ebreve" unicode="&#x114;" horiz-adv-x="723" 
d="M656 656v-112h-446v-159h426v-112h-426v-161h446v-112h-571v656h571zM153 773v103q119 -53 220 -53q102 0 215 53v-103q-112 -53 -215 -53q-104 0 -220 53z" />
    <glyph glyph-name="Ecaron" unicode="&#x11a;" horiz-adv-x="723" 
d="M656 656v-112h-446v-159h426v-112h-426v-161h446v-112h-571v656h571zM153 888l217 -68l218 68v-106l-218 -67l-217 67v106z" />
    <glyph glyph-name="Ecircumflex" unicode="&#xca;" horiz-adv-x="723" 
d="M656 656v-112h-446v-159h426v-112h-426v-161h446v-112h-571v656h571zM370 888l218 -68v-105l-218 67l-217 -67v105z" />
    <glyph glyph-name="Edieresis" unicode="&#xcb;" horiz-adv-x="723" 
d="M656 656v-112h-446v-159h426v-112h-426v-161h446v-112h-571v656h571zM186 746.5q-21 19.5 -21 51.5q0 31 21 50.5t55 19.5q32 0 52.5 -19.5t20.5 -50.5t-20.5 -51t-52.5 -20q-34 0 -55 19.5zM446 747q-21 20 -21 51t20.5 50.5t53.5 19.5t54 -19.5t21 -50.5t-21 -51
t-54 -20q-32 0 -53 20z" />
    <glyph glyph-name="Edotaccent" unicode="&#x116;" horiz-adv-x="723" 
d="M656 656v-112h-446v-159h426v-112h-426v-161h446v-112h-571v656h571zM313 745q-22 21 -22 54q0 32 22 53t57 21t57 -20.5t22 -53.5t-22 -54t-57 -21t-57 21z" />
    <glyph glyph-name="uni1EB8" unicode="&#x1eb8;" horiz-adv-x="723" 
d="M656 656v-112h-446v-159h426v-112h-426v-161h446v-112h-571v656h571zM313 -196q-22 21 -22 53q0 33 22 54t57 21t57 -21t22 -54t-22 -53.5t-57 -20.5t-57 21z" />
    <glyph glyph-name="Egrave" unicode="&#xc8;" horiz-adv-x="723" 
d="M656 656v-112h-446v-159h426v-112h-426v-161h446v-112h-571v656h571zM153 889l435 -70v-104l-435 71v103z" />
    <glyph glyph-name="Emacron" unicode="&#x112;" horiz-adv-x="723" 
d="M656 656v-112h-446v-159h426v-112h-426v-161h446v-112h-571v656h571zM588 850v-103h-435v103h435z" />
    <glyph glyph-name="Eogonek" unicode="&#x118;" horiz-adv-x="723" 
d="M656 656v-112h-446v-159h426v-112h-426v-161h446v-112h-571v656h571zM459.5 -148.5q-30.5 21.5 -30.5 59.5q0 31 18.5 54.5t64.5 51.5l100 61l44 -78l-91 -46q-13 -7 -13 -14q0 -11 18 -11h86v-99h-113q-53 0 -83.5 21.5z" />
    <glyph glyph-name="uni1EBC" unicode="&#x1ebc;" horiz-adv-x="723" 
d="M656 656v-112h-446v-159h426v-112h-426v-161h446v-112h-571v656h571zM422.5 736q-24.5 4 -57.5 12q-62 15 -101 15q-57 0 -111 -27v102q58 28 112 28q40 0 102 -17q38 -9 60.5 -13t48.5 -4q55 0 112 25v-102q-53 -23 -114 -23q-27 0 -51.5 4z" />
    <glyph glyph-name="uni01F4" unicode="&#x1f4;" horiz-adv-x="879" 
d="M821 353v-353h-113l-5 67q-97 -79 -254 -79q-120 0 -208.5 40.5t-136.5 115.5t-48 177v13q0 100 48.5 175.5t138 117t207.5 41.5q110 0 194 -29.5t130 -84t46 -125.5v-5h-127v5q0 33 -32.5 61.5t-88 45t-121.5 16.5q-127 0 -197.5 -56.5t-70.5 -159.5v-17
q0 -105 68.5 -160t199.5 -55q79 0 141 23t104 63v51h-335v112h460zM665 888v-102l-435 -71v103z" />
    <glyph glyph-name="Gbreve" unicode="&#x11e;" horiz-adv-x="879" 
d="M821 353v-353h-113l-5 67q-97 -79 -254 -79q-120 0 -208.5 40.5t-136.5 115.5t-48 177v13q0 100 48.5 175.5t138 117t207.5 41.5q110 0 194 -29.5t130 -84t46 -125.5v-5h-127v5q0 33 -32.5 61.5t-88 45t-121.5 16.5q-127 0 -197.5 -56.5t-70.5 -159.5v-17
q0 -105 68.5 -160t199.5 -55q79 0 141 23t104 63v51h-335v112h460zM230 773v103q119 -53 220 -53q102 0 215 53v-103q-112 -53 -215 -53q-104 0 -220 53z" />
    <glyph glyph-name="Gcaron" unicode="&#x1e6;" horiz-adv-x="879" 
d="M821 353v-353h-113l-5 67q-97 -79 -254 -79q-120 0 -208.5 40.5t-136.5 115.5t-48 177v13q0 100 48.5 175.5t138 117t207.5 41.5q110 0 194 -29.5t130 -84t46 -125.5v-5h-127v5q0 33 -32.5 61.5t-88 45t-121.5 16.5q-127 0 -197.5 -56.5t-70.5 -159.5v-17
q0 -105 68.5 -160t199.5 -55q79 0 141 23t104 63v51h-335v112h460zM230 888l217 -68l218 68v-106l-218 -67l-217 67v106z" />
    <glyph glyph-name="Gcircumflex" unicode="&#x11c;" horiz-adv-x="879" 
d="M821 353v-353h-113l-5 67q-97 -79 -254 -79q-120 0 -208.5 40.5t-136.5 115.5t-48 177v13q0 100 48.5 175.5t138 117t207.5 41.5q110 0 194 -29.5t130 -84t46 -125.5v-5h-127v5q0 33 -32.5 61.5t-88 45t-121.5 16.5q-127 0 -197.5 -56.5t-70.5 -159.5v-17
q0 -105 68.5 -160t199.5 -55q79 0 141 23t104 63v51h-335v112h460zM447 888l218 -68v-105l-218 67l-217 -67v105z" />
    <glyph glyph-name="uni0122" unicode="&#x122;" horiz-adv-x="879" 
d="M821 353v-353h-113l-5 67q-97 -79 -254 -79q-120 0 -208.5 40.5t-136.5 115.5t-48 177v13q0 100 48.5 175.5t138 117t207.5 41.5q110 0 194 -29.5t130 -84t46 -125.5v-5h-127v5q0 33 -32.5 61.5t-88 45t-121.5 16.5q-127 0 -197.5 -56.5t-70.5 -159.5v-17
q0 -105 68.5 -160t199.5 -55q79 0 141 23t104 63v51h-335v112h460zM510 -58l-62 -174h-128l55 174h135z" />
    <glyph glyph-name="Gdotaccent" unicode="&#x120;" horiz-adv-x="879" 
d="M821 353v-353h-113l-5 67q-97 -79 -254 -79q-120 0 -208.5 40.5t-136.5 115.5t-48 177v13q0 100 48.5 175.5t138 117t207.5 41.5q110 0 194 -29.5t130 -84t46 -125.5v-5h-127v5q0 33 -32.5 61.5t-88 45t-121.5 16.5q-127 0 -197.5 -56.5t-70.5 -159.5v-17
q0 -105 68.5 -160t199.5 -55q79 0 141 23t104 63v51h-335v112h460zM390 745q-22 21 -22 54q0 32 22 53t57 21t57 -20.5t22 -53.5t-22 -54t-57 -21t-57 21z" />
    <glyph glyph-name="Hbar" unicode="&#x126;" horiz-adv-x="819" 
d="M816 443h-82v-443h-125v238h-399v-238h-125v443h-82v108h82v105h125v-105h399v105h125v-105h82v-108zM609 443h-399v-97h399v97z" />
    <glyph glyph-name="Hcircumflex" unicode="&#x124;" horiz-adv-x="819" 
d="M210 656v-272h399v272h125v-656h-125v272h-399v-272h-125v656h125zM410 888l218 -68v-105l-218 67l-217 -67v105z" />
    <glyph glyph-name="IJ" unicode="&#x132;" horiz-adv-x="841" 
d="M210 656v-656h-125v656h125zM453 116q92 0 140 44t48 128v256h-305v112h430v-366q0 -89 -38 -154t-108.5 -100t-166.5 -35l-117 -1v116h117z" />
    <glyph glyph-name="Iacute" unicode="&#xcd;" horiz-adv-x="299" 
d="M212 656v-656h-125v656h125zM292 877v-103l-284 -47v102z" />
    <glyph glyph-name="Ibreve" unicode="&#x12c;" horiz-adv-x="299" 
d="M212 656v-656h-125v656h125zM9 773v103q63 -51 143 -51t141 51v-103q-62 -51 -141 -51q-82 0 -143 51z" />
    <glyph glyph-name="Icircumflex" unicode="&#xce;" horiz-adv-x="299" 
d="M212 656v-656h-125v656h125zM150 879l142 -39v-107l-142 40l-142 -40v107z" />
    <glyph glyph-name="Idieresis" unicode="&#xcf;" horiz-adv-x="299" 
d="M212 656v-656h-125v656h125zM-34 746.5q-21 19.5 -21 51.5q0 31 21 50.5t55 19.5q32 0 52.5 -19.5t20.5 -50.5t-20.5 -51t-52.5 -20q-34 0 -55 19.5zM226 747q-21 20 -21 51t20.5 50.5t53.5 19.5t54 -19.5t21 -50.5t-21 -51t-54 -20q-32 0 -53 20z" />
    <glyph glyph-name="Idotaccent" unicode="&#x130;" horiz-adv-x="299" 
d="M212 656v-656h-125v656h125zM93 745q-22 21 -22 54q0 32 22 53t57 21t57 -20.5t22 -53.5t-22 -54t-57 -21t-57 21z" />
    <glyph glyph-name="uni1ECA" unicode="&#x1eca;" horiz-adv-x="299" 
d="M212 656v-656h-125v656h125zM93 -196q-22 21 -22 53q0 33 22 54t57 21t57 -21t22 -54t-22 -53.5t-57 -20.5t-57 21z" />
    <glyph glyph-name="Igrave" unicode="&#xcc;" horiz-adv-x="299" 
d="M212 656v-656h-125v656h125zM8 878l283 -48v-103l-283 47v104z" />
    <glyph glyph-name="Imacron" unicode="&#x12a;" horiz-adv-x="299" 
d="M212 656v-656h-125v656h125zM292 850v-103h-284v103h284z" />
    <glyph glyph-name="Iogonek" unicode="&#x12e;" horiz-adv-x="299" 
d="M212 656v-656h-125v656h125zM15.5 -148.5q-30.5 21.5 -30.5 59.5q0 31 18.5 54.5t64.5 51.5l100 61l44 -78l-91 -46q-13 -7 -13 -14q0 -11 18 -11h86v-99h-113q-53 0 -83.5 21.5z" />
    <glyph glyph-name="Itilde" unicode="&#x128;" horiz-adv-x="299" 
d="M212 656v-656h-125v656h125zM182.5 736q-14.5 4 -36.5 12q-38 15 -61 15q-39 0 -77 -24v102q39 25 79 25q23 0 61 -17q4 -1 18 -6.5t25.5 -8t22.5 -2.5q38 0 78 22v-102q-36 -20 -80 -20q-15 0 -29.5 4z" />
    <glyph glyph-name="Jcircumflex" unicode="&#x134;" horiz-adv-x="749" 
d="M195 23.5q-71 35.5 -109 101t-38 153.5v40h125v-40q0 -82 50 -128t138 -46q91 0 139.5 44.5t48.5 128.5v267h-315v112h440v-377q0 -89 -38 -154.5t-108.5 -101t-166.5 -35.5q-95 0 -166 35.5zM441 888l218 -68v-105l-218 67l-217 -67v105z" />
    <glyph glyph-name="uni0136" unicode="&#x136;" horiz-adv-x="813" 
d="M759 637l-320 -271l308 -347v-19h-152l-252 284l-133 -110v-174h-125v656h125v-324l382 324h167v-19zM463 -58l-62 -174h-128l55 174h135z" />
    <glyph glyph-name="Lacute" unicode="&#x139;" horiz-adv-x="687" 
d="M210 656v-544h464v-112h-589v656h125zM366 888v-102l-435 -71v103z" />
    <glyph glyph-name="Lcaron" unicode="&#x13d;" horiz-adv-x="687" 
d="M210 656v-544h464v-112h-589v656h125zM561 656l-57 -185h-118l27 185h148z" />
    <glyph glyph-name="uni013B" unicode="&#x13b;" horiz-adv-x="687" 
d="M210 656v-544h464v-112h-589v656h125zM407 -58l-62 -174h-128l55 174h135z" />
    <glyph glyph-name="Ldot" unicode="&#x13f;" horiz-adv-x="687" 
d="M210 656v-544h464v-112h-589v656h125zM437.5 318q-20.5 20 -20.5 52t20.5 52t53.5 20t53.5 -20t20.5 -52t-20.5 -52t-53.5 -20t-53.5 20z" />
    <glyph glyph-name="Lslash" unicode="&#x141;" horiz-adv-x="720" 
d="M707 112v-112h-589v280l-117 -25v110l117 25v266h125v-245l281 60v-110l-281 -60v-189h464z" />
    <glyph glyph-name="Nacute" unicode="&#x143;" horiz-adv-x="819" 
d="M734 656v-656h-123l-404 481v-481h-122v656h123l404 -480v480h122zM628 888v-102l-435 -71v103z" />
    <glyph glyph-name="Ncaron" unicode="&#x147;" horiz-adv-x="819" 
d="M734 656v-656h-123l-404 481v-481h-122v656h123l404 -480v480h122zM193 888l217 -68l218 68v-106l-218 -67l-217 67v106z" />
    <glyph glyph-name="uni0145" unicode="&#x145;" horiz-adv-x="819" 
d="M734 656v-656h-123l-404 481v-481h-122v656h123l404 -480v480h122zM473 -58l-62 -174h-128l55 174h135z" />
    <glyph glyph-name="Eng" unicode="&#x14a;" horiz-adv-x="819" 
d="M734 656v-584q0 -242 -241 -242h-56v112h50q50 0 79 18t39 56l-398 466v-482h-122v656h123l404 -471v471h122z" />
    <glyph glyph-name="Ntilde" unicode="&#xd1;" horiz-adv-x="819" 
d="M734 656v-656h-123l-404 481v-481h-122v656h123l404 -480v480h122zM462.5 736q-24.5 4 -57.5 12q-62 15 -101 15q-57 0 -111 -27v102q58 28 112 28q40 0 102 -17q38 -9 60.5 -13t48.5 -4q55 0 112 25v-102q-53 -23 -114 -23q-27 0 -51.5 4z" />
    <glyph glyph-name="Oacute" unicode="&#xd3;" horiz-adv-x="877" 
d="M236.5 29q-86.5 41 -133.5 116.5t-47 176.5v11q0 101 47 177t134 117t202 41t201.5 -41t133.5 -117t47 -177v-11q0 -101 -47 -176.5t-133 -116.5t-202 -41t-202.5 41zM627.5 160.5q66.5 56.5 66.5 159.5v14q0 103 -66.5 160.5t-188.5 57.5t-189 -57.5t-67 -160.5v-14
q0 -103 67 -159.5t189 -56.5t188.5 56.5zM658 888v-102l-435 -71v103z" />
    <glyph glyph-name="Obreve" unicode="&#x14e;" horiz-adv-x="877" 
d="M236.5 29q-86.5 41 -133.5 116.5t-47 176.5v11q0 101 47 177t134 117t202 41t201.5 -41t133.5 -117t47 -177v-11q0 -101 -47 -176.5t-133 -116.5t-202 -41t-202.5 41zM627.5 160.5q66.5 56.5 66.5 159.5v14q0 103 -66.5 160.5t-188.5 57.5t-189 -57.5t-67 -160.5v-14
q0 -103 67 -159.5t189 -56.5t188.5 56.5zM223 773v103q119 -53 220 -53q102 0 215 53v-103q-112 -53 -215 -53q-104 0 -220 53z" />
    <glyph glyph-name="Ocircumflex" unicode="&#xd4;" horiz-adv-x="877" 
d="M236.5 29q-86.5 41 -133.5 116.5t-47 176.5v11q0 101 47 177t134 117t202 41t201.5 -41t133.5 -117t47 -177v-11q0 -101 -47 -176.5t-133 -116.5t-202 -41t-202.5 41zM627.5 160.5q66.5 56.5 66.5 159.5v14q0 103 -66.5 160.5t-188.5 57.5t-189 -57.5t-67 -160.5v-14
q0 -103 67 -159.5t189 -56.5t188.5 56.5zM440 888l218 -68v-105l-218 67l-217 -67v105z" />
    <glyph glyph-name="Odieresis" unicode="&#xd6;" horiz-adv-x="877" 
d="M236.5 29q-86.5 41 -133.5 116.5t-47 176.5v11q0 101 47 177t134 117t202 41t201.5 -41t133.5 -117t47 -177v-11q0 -101 -47 -176.5t-133 -116.5t-202 -41t-202.5 41zM627.5 160.5q66.5 56.5 66.5 159.5v14q0 103 -66.5 160.5t-188.5 57.5t-189 -57.5t-67 -160.5v-14
q0 -103 67 -159.5t189 -56.5t188.5 56.5zM256 746.5q-21 19.5 -21 51.5q0 31 21 50.5t55 19.5q32 0 52.5 -19.5t20.5 -50.5t-20.5 -51t-52.5 -20q-34 0 -55 19.5zM516 747q-21 20 -21 51t20.5 50.5t53.5 19.5t54 -19.5t21 -50.5t-21 -51t-54 -20q-32 0 -53 20z" />
    <glyph glyph-name="uni1ECC" unicode="&#x1ecc;" horiz-adv-x="877" 
d="M236.5 29q-86.5 41 -133.5 116.5t-47 176.5v11q0 101 47 177t134 117t202 41t201.5 -41t133.5 -117t47 -177v-11q0 -101 -47 -176.5t-133 -116.5t-202 -41t-202.5 41zM627.5 160.5q66.5 56.5 66.5 159.5v14q0 103 -66.5 160.5t-188.5 57.5t-189 -57.5t-67 -160.5v-14
q0 -103 67 -159.5t189 -56.5t188.5 56.5zM381 -196q-22 21 -22 53q0 33 22 54t57 21t57 -21t22 -54t-22 -53.5t-57 -20.5t-57 21z" />
    <glyph glyph-name="Ograve" unicode="&#xd2;" horiz-adv-x="877" 
d="M236.5 29q-86.5 41 -133.5 116.5t-47 176.5v11q0 101 47 177t134 117t202 41t201.5 -41t133.5 -117t47 -177v-11q0 -101 -47 -176.5t-133 -116.5t-202 -41t-202.5 41zM627.5 160.5q66.5 56.5 66.5 159.5v14q0 103 -66.5 160.5t-188.5 57.5t-189 -57.5t-67 -160.5v-14
q0 -103 67 -159.5t189 -56.5t188.5 56.5zM223 889l435 -70v-104l-435 71v103z" />
    <glyph glyph-name="Ohungarumlaut" unicode="&#x150;" horiz-adv-x="877" 
d="M236.5 29q-86.5 41 -133.5 116.5t-47 176.5v11q0 101 47 177t134 117t202 41t201.5 -41t133.5 -117t47 -177v-11q0 -101 -47 -176.5t-133 -116.5t-202 -41t-202.5 41zM627.5 160.5q66.5 56.5 66.5 159.5v14q0 103 -66.5 160.5t-188.5 57.5t-189 -57.5t-67 -160.5v-14
q0 -103 67 -159.5t189 -56.5t188.5 56.5zM471 888v-105l-267 -68v105zM762 888v-105l-265 -68v105z" />
    <glyph glyph-name="Omacron" unicode="&#x14c;" horiz-adv-x="877" 
d="M236.5 29q-86.5 41 -133.5 116.5t-47 176.5v11q0 101 47 177t134 117t202 41t201.5 -41t133.5 -117t47 -177v-11q0 -101 -47 -176.5t-133 -116.5t-202 -41t-202.5 41zM627.5 160.5q66.5 56.5 66.5 159.5v14q0 103 -66.5 160.5t-188.5 57.5t-189 -57.5t-67 -160.5v-14
q0 -103 67 -159.5t189 -56.5t188.5 56.5zM658 850v-103h-435v103h435z" />
    <glyph glyph-name="Oslash" unicode="&#xd8;" horiz-adv-x="877" 
d="M786 488.5q35 -68.5 35 -155.5v-11q0 -101 -47 -176.5t-133 -116.5t-202 -41q-73 0 -136 17l-46 -72h-131v20l65 102q-65 44 -100 112.5t-35 154.5v11q0 101 47 177t134 117t202 41q72 0 135 -17l46 72h132v-20l-66 -102q65 -44 100 -112.5zM183 320q0 -109 74 -166
l253 392q-33 6 -71 6q-122 0 -189 -57.5t-67 -160.5v-14zM694 334q0 110 -75 167l-250 -392q35 -5 70 -5q123 0 189 56t66 160v14z" />
    <glyph glyph-name="Oslashacute" unicode="&#x1fe;" horiz-adv-x="877" 
d="M786 488.5q35 -68.5 35 -155.5v-11q0 -101 -47 -176.5t-133 -116.5t-202 -41q-73 0 -136 17l-46 -72h-131v20l65 102q-65 44 -100 112.5t-35 154.5v11q0 101 47 177t134 117t202 41q72 0 135 -17l46 72h132v-20l-66 -102q65 -44 100 -112.5zM183 320q0 -109 74 -166
l253 392q-33 6 -71 6q-122 0 -189 -57.5t-67 -160.5v-14zM694 334q0 110 -75 167l-250 -392q35 -5 70 -5q123 0 189 56t66 160v14zM657 888v-102l-435 -71v103z" />
    <glyph glyph-name="Otilde" unicode="&#xd5;" horiz-adv-x="877" 
d="M236.5 29q-86.5 41 -133.5 116.5t-47 176.5v11q0 101 47 177t134 117t202 41t201.5 -41t133.5 -117t47 -177v-11q0 -101 -47 -176.5t-133 -116.5t-202 -41t-202.5 41zM627.5 160.5q66.5 56.5 66.5 159.5v14q0 103 -66.5 160.5t-188.5 57.5t-189 -57.5t-67 -160.5v-14
q0 -103 67 -159.5t189 -56.5t188.5 56.5zM492.5 736q-24.5 4 -57.5 12q-62 15 -101 15q-57 0 -111 -27v102q58 28 112 28q40 0 102 -17q38 -9 60.5 -13t48.5 -4q55 0 112 25v-102q-53 -23 -114 -23q-27 0 -51.5 4z" />
    <glyph glyph-name="OE" unicode="&#x152;" horiz-adv-x="1263" 
d="M149.5 81.5q-93.5 81.5 -93.5 239.5v13q0 158 93.5 240t274.5 82h772v-112h-458v-159h418v-112h-418v-161h458v-112h-772q-181 0 -274.5 81.5zM613 544h-188q-120 0 -181 -52.5t-61 -156.5v-16q0 -207 241 -207h189v432z" />
    <glyph glyph-name="Thorn" unicode="&#xde;" horiz-adv-x="787" 
d="M674 481q65 -54 65 -147v-11q0 -93 -65 -147t-179 -54h-285v-122h-125v656h125v-121h285q114 0 179 -54zM612 334q0 43 -31 66t-89 23h-282v-189h282q58 0 89 23t31 66v11z" />
    <glyph glyph-name="Racute" unicode="&#x154;" horiz-adv-x="806" 
d="M686 304.5q-53 -52.5 -148 -62.5l198 -223v-19h-144l-214 240h-168v-240h-125v656h410q114 0 179 -55.5t65 -151.5v-12q0 -80 -53 -132.5zM612 454q0 43 -31 66.5t-89 23.5h-282v-193h282q58 0 89 23.5t31 67.5v12zM618 888v-102l-435 -71v103z" />
    <glyph glyph-name="Rcaron" unicode="&#x158;" horiz-adv-x="806" 
d="M686 304.5q-53 -52.5 -148 -62.5l198 -223v-19h-144l-214 240h-168v-240h-125v656h410q114 0 179 -55.5t65 -151.5v-12q0 -80 -53 -132.5zM612 454q0 43 -31 66.5t-89 23.5h-282v-193h282q58 0 89 23.5t31 67.5v12zM183 888l217 -68l218 68v-106l-218 -67l-217 67v106z
" />
    <glyph glyph-name="uni0156" unicode="&#x156;" horiz-adv-x="806" 
d="M686 304.5q-53 -52.5 -148 -62.5l198 -223v-19h-144l-214 240h-168v-240h-125v656h410q114 0 179 -55.5t65 -151.5v-12q0 -80 -53 -132.5zM612 454q0 43 -31 66.5t-89 23.5h-282v-193h282q58 0 89 23.5t31 67.5v12zM463 -58l-62 -174h-128l55 174h135z" />
    <glyph glyph-name="Sacute" unicode="&#x15a;" horiz-adv-x="771" 
d="M146 45q-83 57 -83 167v9h125v-9q0 -112 208 -112q90 0 137.5 21t47.5 61v7q0 35 -28 52t-102 27l-158 22q-217 30 -217 176v10q0 90 79.5 141t224.5 51q153 0 233.5 -55t80.5 -160v-9h-125v9q0 103 -189 103q-86 0 -131.5 -20t-45.5 -57v-8q0 -30 26.5 -45.5t92.5 -24.5
l159 -22q117 -16 172 -60.5t55 -123.5v-10q0 -93 -83 -145t-235 -52q-161 0 -244 57zM600 888v-102l-435 -71v103z" />
    <glyph glyph-name="Scaron" unicode="&#x160;" horiz-adv-x="771" 
d="M146 45q-83 57 -83 167v9h125v-9q0 -112 208 -112q90 0 137.5 21t47.5 61v7q0 35 -28 52t-102 27l-158 22q-217 30 -217 176v10q0 90 79.5 141t224.5 51q153 0 233.5 -55t80.5 -160v-9h-125v9q0 103 -189 103q-86 0 -131.5 -20t-45.5 -57v-8q0 -30 26.5 -45.5t92.5 -24.5
l159 -22q117 -16 172 -60.5t55 -123.5v-10q0 -93 -83 -145t-235 -52q-161 0 -244 57zM165 888l217 -68l218 68v-106l-218 -67l-217 67v106z" />
    <glyph glyph-name="Scedilla" unicode="&#x15e;" horiz-adv-x="771" 
d="M146 45q-83 57 -83 167v9h125v-9q0 -112 208 -112q90 0 137.5 21t47.5 61v7q0 35 -28 52t-102 27l-158 22q-217 30 -217 176v10q0 90 79.5 141t224.5 51q153 0 233.5 -55t80.5 -160v-9h-125v9q0 103 -189 103q-86 0 -131.5 -20t-45.5 -57v-8q0 -30 26.5 -45.5t92.5 -24.5
l159 -22q117 -16 172 -60.5t55 -123.5v-10q0 -93 -83 -145t-235 -52q-161 0 -244 57zM445 0l-49 -170h-134l60 208z" />
    <glyph glyph-name="Scircumflex" unicode="&#x15c;" horiz-adv-x="771" 
d="M146 45q-83 57 -83 167v9h125v-9q0 -112 208 -112q90 0 137.5 21t47.5 61v7q0 35 -28 52t-102 27l-158 22q-217 30 -217 176v10q0 90 79.5 141t224.5 51q153 0 233.5 -55t80.5 -160v-9h-125v9q0 103 -189 103q-86 0 -131.5 -20t-45.5 -57v-8q0 -30 26.5 -45.5t92.5 -24.5
l159 -22q117 -16 172 -60.5t55 -123.5v-10q0 -93 -83 -145t-235 -52q-161 0 -244 57zM382 888l218 -68v-105l-218 67l-217 -67v105z" />
    <glyph glyph-name="uni0218" unicode="&#x218;" horiz-adv-x="771" 
d="M146 45q-83 57 -83 167v9h125v-9q0 -112 208 -112q90 0 137.5 21t47.5 61v7q0 35 -28 52t-102 27l-158 22q-217 30 -217 176v10q0 90 79.5 141t224.5 51q153 0 233.5 -55t80.5 -160v-9h-125v9q0 103 -189 103q-86 0 -131.5 -20t-45.5 -57v-8q0 -30 26.5 -45.5t92.5 -24.5
l159 -22q117 -16 172 -60.5t55 -123.5v-10q0 -93 -83 -145t-235 -52q-161 0 -244 57zM446 -58l-62 -174h-128l55 174h135z" />
    <glyph glyph-name="uni1E62" unicode="&#x1e62;" horiz-adv-x="771" 
d="M146 45q-83 57 -83 167v9h125v-9q0 -112 208 -112q90 0 137.5 21t47.5 61v7q0 35 -28 52t-102 27l-158 22q-217 30 -217 176v10q0 90 79.5 141t224.5 51q153 0 233.5 -55t80.5 -160v-9h-125v9q0 103 -189 103q-86 0 -131.5 -20t-45.5 -57v-8q0 -30 26.5 -45.5t92.5 -24.5
l159 -22q117 -16 172 -60.5t55 -123.5v-10q0 -93 -83 -145t-235 -52q-161 0 -244 57zM326 -196q-22 21 -22 53q0 33 22 54t57 21t57 -21t22 -54t-22 -53.5t-57 -20.5t-57 21z" />
    <glyph glyph-name="uni1E9E" unicode="&#x1e9e;" horiz-adv-x="821" 
d="M721 325.5q53 -43.5 53 -127.5v-12q0 -92 -63.5 -139t-188.5 -47h-130v112h127q63 0 95.5 19t32.5 56v12q0 76 -128 76h-127v98l183 171h-299q-32 0 -49 -17.5t-17 -50.5v-476h-125v481q0 85 47 130t134 45h478v-112l-186 -169q110 -6 163 -49.5z" />
    <glyph glyph-name="uni018F" unicode="&#x18f;" horiz-adv-x="877" 
d="M638.5 627q87.5 -41 135 -116.5t47.5 -177.5v-11q0 -102 -47 -177.5t-134 -116t-205 -40.5q-119 0 -204 42t-130 121.5t-45 190.5v36h634q-14 83 -81.5 129t-177.5 46q-91 0 -154.5 -33t-83.5 -91h-133q26 111 126 175t248 64q117 0 204.5 -41zM602.5 146.5
q67.5 43.5 85.5 119.5h-501q17 -78 80.5 -120.5t165.5 -42.5t169.5 43.5z" />
    <glyph glyph-name="Tbar" unicode="&#x166;" horiz-adv-x="711" 
d="M418 544v-192h219v-108h-219v-244h-125v244h-199v108h199v192h-270v112h665v-112h-270z" />
    <glyph glyph-name="Tcaron" unicode="&#x164;" horiz-adv-x="691" 
d="M13 544v112h665v-112h-270v-544h-125v544h-270zM129 888l217 -68l218 68v-106l-218 -67l-217 67v106z" />
    <glyph glyph-name="uni0162" unicode="&#x162;" horiz-adv-x="691" 
d="M13 544v112h665v-112h-270v-544h-125v544h-270zM408 0l-49 -170h-134l60 208z" />
    <glyph glyph-name="uni021A" unicode="&#x21a;" horiz-adv-x="691" 
d="M13 544v112h665v-112h-270v-544h-125v544h-270zM409 -58l-62 -174h-128l55 174h135z" />
    <glyph glyph-name="Uacute" unicode="&#xda;" horiz-adv-x="793" 
d="M227.5 25.5q-72.5 37.5 -112.5 105.5t-40 158v367h125v-369q0 -86 51.5 -134.5t144.5 -48.5t145 48.5t52 134.5v369h125v-367q0 -90 -40 -158t-113 -105.5t-169 -37.5t-168.5 37.5zM615 888v-102l-435 -71v103z" />
    <glyph glyph-name="Ubreve" unicode="&#x16c;" horiz-adv-x="793" 
d="M227.5 25.5q-72.5 37.5 -112.5 105.5t-40 158v367h125v-369q0 -86 51.5 -134.5t144.5 -48.5t145 48.5t52 134.5v369h125v-367q0 -90 -40 -158t-113 -105.5t-169 -37.5t-168.5 37.5zM180 773v103q119 -53 220 -53q102 0 215 53v-103q-112 -53 -215 -53q-104 0 -220 53z
" />
    <glyph glyph-name="Ucircumflex" unicode="&#xdb;" horiz-adv-x="793" 
d="M227.5 25.5q-72.5 37.5 -112.5 105.5t-40 158v367h125v-369q0 -86 51.5 -134.5t144.5 -48.5t145 48.5t52 134.5v369h125v-367q0 -90 -40 -158t-113 -105.5t-169 -37.5t-168.5 37.5zM397 888l218 -68v-105l-218 67l-217 -67v105z" />
    <glyph glyph-name="Udieresis" unicode="&#xdc;" horiz-adv-x="793" 
d="M227.5 25.5q-72.5 37.5 -112.5 105.5t-40 158v367h125v-369q0 -86 51.5 -134.5t144.5 -48.5t145 48.5t52 134.5v369h125v-367q0 -90 -40 -158t-113 -105.5t-169 -37.5t-168.5 37.5zM213 746.5q-21 19.5 -21 51.5q0 31 21 50.5t55 19.5q32 0 52.5 -19.5t20.5 -50.5
t-20.5 -51t-52.5 -20q-34 0 -55 19.5zM473 747q-21 20 -21 51t20.5 50.5t53.5 19.5t54 -19.5t21 -50.5t-21 -51t-54 -20q-32 0 -53 20z" />
    <glyph glyph-name="uni1EE4" unicode="&#x1ee4;" horiz-adv-x="793" 
d="M227.5 25.5q-72.5 37.5 -112.5 105.5t-40 158v367h125v-369q0 -86 51.5 -134.5t144.5 -48.5t145 48.5t52 134.5v369h125v-367q0 -90 -40 -158t-113 -105.5t-169 -37.5t-168.5 37.5zM340 -196q-22 21 -22 53q0 33 22 54t57 21t57 -21t22 -54t-22 -53.5t-57 -20.5t-57 21z
" />
    <glyph glyph-name="Ugrave" unicode="&#xd9;" horiz-adv-x="793" 
d="M227.5 25.5q-72.5 37.5 -112.5 105.5t-40 158v367h125v-369q0 -86 51.5 -134.5t144.5 -48.5t145 48.5t52 134.5v369h125v-367q0 -90 -40 -158t-113 -105.5t-169 -37.5t-168.5 37.5zM180 889l435 -70v-104l-435 71v103z" />
    <glyph glyph-name="Uhungarumlaut" unicode="&#x170;" horiz-adv-x="793" 
d="M227.5 25.5q-72.5 37.5 -112.5 105.5t-40 158v367h125v-369q0 -86 51.5 -134.5t144.5 -48.5t145 48.5t52 134.5v369h125v-367q0 -90 -40 -158t-113 -105.5t-169 -37.5t-168.5 37.5zM428 888v-105l-267 -68v105zM719 888v-105l-265 -68v105z" />
    <glyph glyph-name="Umacron" unicode="&#x16a;" horiz-adv-x="793" 
d="M227.5 25.5q-72.5 37.5 -112.5 105.5t-40 158v367h125v-369q0 -86 51.5 -134.5t144.5 -48.5t145 48.5t52 134.5v369h125v-367q0 -90 -40 -158t-113 -105.5t-169 -37.5t-168.5 37.5zM615 850v-103h-435v103h435z" />
    <glyph glyph-name="Uogonek" unicode="&#x172;" horiz-adv-x="793" 
d="M227.5 25.5q-72.5 37.5 -112.5 105.5t-40 158v367h125v-369q0 -86 51.5 -134.5t144.5 -48.5t145 48.5t52 134.5v369h125v-367q0 -90 -40 -158t-113 -105.5t-169 -37.5t-168.5 37.5zM384 -142q-35 28 -35 71q0 32 21.5 60.5t70.5 61.5l67 45l84 -54l-82 -57
q-15 -11 -20.5 -17.5t-5.5 -14.5q0 -10 8.5 -16t21.5 -6h69v-101h-109q-55 0 -90 28z" />
    <glyph glyph-name="Uring" unicode="&#x16e;" horiz-adv-x="793" 
d="M227.5 25.5q-72.5 37.5 -112.5 105.5t-40 158v367h125v-369q0 -86 51.5 -134.5t144.5 -48.5t145 48.5t52 134.5v369h125v-367q0 -90 -40 -158t-113 -105.5t-169 -37.5t-168.5 37.5zM274 734q-44 34 -44 97q0 62 45 97t122 35t122 -35t45 -97q0 -63 -44 -97t-123 -34
t-123 34zM444 793q16 13 16 38t-16.5 38.5t-46.5 13.5q-31 0 -47.5 -13.5t-16.5 -38.5q0 -24 16.5 -37.5t47.5 -13.5t47 13z" />
    <glyph glyph-name="Utilde" unicode="&#x168;" horiz-adv-x="793" 
d="M227.5 25.5q-72.5 37.5 -112.5 105.5t-40 158v367h125v-369q0 -86 51.5 -134.5t144.5 -48.5t145 48.5t52 134.5v369h125v-367q0 -90 -40 -158t-113 -105.5t-169 -37.5t-168.5 37.5zM449.5 736q-24.5 4 -57.5 12q-62 15 -101 15q-57 0 -111 -27v102q58 28 112 28
q40 0 102 -17q38 -9 60.5 -13t48.5 -4q55 0 112 25v-102q-53 -23 -114 -23q-27 0 -51.5 4z" />
    <glyph glyph-name="Wacute" unicode="&#x1e82;" horiz-adv-x="1175" 
d="M1159 656v-19l-235 -637h-151l-185 500l-184 -500h-152l-236 637v19h127l186 -519l191 519h136l192 -517l184 517h127zM806 888v-102l-435 -71v103z" />
    <glyph glyph-name="Wcircumflex" unicode="&#x174;" horiz-adv-x="1175" 
d="M1159 656v-19l-235 -637h-151l-185 500l-184 -500h-152l-236 637v19h127l186 -519l191 519h136l192 -517l184 517h127zM588 888l218 -68v-105l-218 67l-217 -67v105z" />
    <glyph glyph-name="Wdieresis" unicode="&#x1e84;" horiz-adv-x="1175" 
d="M1159 656v-19l-235 -637h-151l-185 500l-184 -500h-152l-236 637v19h127l186 -519l191 519h136l192 -517l184 517h127zM404 746.5q-21 19.5 -21 51.5q0 31 21 50.5t55 19.5q32 0 52.5 -19.5t20.5 -50.5t-20.5 -51t-52.5 -20q-34 0 -55 19.5zM664 747q-21 20 -21 51
t20.5 50.5t53.5 19.5t54 -19.5t21 -50.5t-21 -51t-54 -20q-32 0 -53 20z" />
    <glyph glyph-name="Wgrave" unicode="&#x1e80;" horiz-adv-x="1175" 
d="M1159 656v-19l-235 -637h-151l-185 500l-184 -500h-152l-236 637v19h127l186 -519l191 519h136l192 -517l184 517h127zM371 889l435 -70v-104l-435 71v103z" />
    <glyph glyph-name="Yacute" unicode="&#xdd;" horiz-adv-x="726" 
d="M723 656v-19l-297 -381v-256h-125v256l-298 381v19h140l220 -282l220 282h140zM581 888v-102l-435 -71v103z" />
    <glyph glyph-name="Ycircumflex" unicode="&#x176;" horiz-adv-x="726" 
d="M723 656v-19l-297 -381v-256h-125v256l-298 381v19h140l220 -282l220 282h140zM363 888l218 -68v-105l-218 67l-217 -67v105z" />
    <glyph glyph-name="Ydieresis" unicode="&#x178;" horiz-adv-x="726" 
d="M723 656v-19l-297 -381v-256h-125v256l-298 381v19h140l220 -282l220 282h140zM179 746.5q-21 19.5 -21 51.5q0 31 21 50.5t55 19.5q32 0 52.5 -19.5t20.5 -50.5t-20.5 -51t-52.5 -20q-34 0 -55 19.5zM439 747q-21 20 -21 51t20.5 50.5t53.5 19.5t54 -19.5t21 -50.5
t-21 -51t-54 -20q-32 0 -53 20z" />
    <glyph glyph-name="Ygrave" unicode="&#x1ef2;" horiz-adv-x="726" 
d="M723 656v-19l-297 -381v-256h-125v256l-298 381v19h140l220 -282l220 282h140zM146 889l435 -70v-104l-435 71v103z" />
    <glyph glyph-name="uni0232" unicode="&#x232;" horiz-adv-x="726" 
d="M723 656v-19l-297 -381v-256h-125v256l-298 381v19h140l220 -282l220 282h140zM581 850v-103h-435v103h435z" />
    <glyph glyph-name="uni1EF8" unicode="&#x1ef8;" horiz-adv-x="726" 
d="M723 656v-19l-297 -381v-256h-125v256l-298 381v19h140l220 -282l220 282h140zM415.5 736q-24.5 4 -57.5 12q-62 15 -101 15q-57 0 -111 -27v102q58 28 112 28q40 0 102 -17q38 -9 60.5 -13t48.5 -4q55 0 112 25v-102q-53 -23 -114 -23q-27 0 -51.5 4z" />
    <glyph glyph-name="Zacute" unicode="&#x179;" horiz-adv-x="696" 
d="M652 545l-441 -433h441v-112h-608v111l441 433h-441v112h608v-111zM566 888v-102l-435 -71v103z" />
    <glyph glyph-name="Zcaron" unicode="&#x17d;" horiz-adv-x="696" 
d="M652 545l-441 -433h441v-112h-608v111l441 433h-441v112h608v-111zM131 888l217 -68l218 68v-106l-218 -67l-217 67v106z" />
    <glyph glyph-name="Zdotaccent" unicode="&#x17b;" horiz-adv-x="696" 
d="M652 545l-441 -433h441v-112h-608v111l441 433h-441v112h608v-111zM291 745q-22 21 -22 54q0 32 22 53t57 21t57 -20.5t22 -53.5t-22 -54t-57 -21t-57 21z" />
    <glyph glyph-name="Iacute_J.loclNLD" horiz-adv-x="841" 
d="M210 656v-656h-125v656h125zM453 116q92 0 140 44t48 128v256h-305v112h430v-366q0 -89 -38 -154t-108.5 -100t-166.5 -35l-117 -1v116h117zM705 877v-103l-284 -47v102zM281 877v-103l-284 -47v102z" />
    <glyph glyph-name="I.ss07" horiz-adv-x="701" 
d="M288 111v434h-242v111h609v-111h-242v-434h242v-111h-609v111h242z" />
    <glyph glyph-name="IJ.ss07" horiz-adv-x="1421" 
d="M288 111v434h-242v111h609v-111h-242v-434h242v-111h-609v111h242zM867 23.5q-71 35.5 -109 101t-38 153.5v40h125v-40q0 -82 50 -128t138 -46q91 0 139.5 44.5t48.5 128.5v267h-315v112h440v-377q0 -89 -38 -154.5t-108.5 -101t-166.5 -35.5q-95 0 -166 35.5z" />
    <glyph glyph-name="Iacute.ss07" horiz-adv-x="701" 
d="M288 111v434h-242v111h609v-111h-242v-434h242v-111h-609v111h242zM569 888v-102l-435 -71v103z" />
    <glyph glyph-name="Iacute_J.loclNLD.ss07" horiz-adv-x="1421" 
d="M288 111v434h-242v111h609v-111h-242v-434h242v-111h-609v111h242zM569 888v-102l-435 -71v103zM867 23.5q-71 35.5 -109 101t-38 153.5v40h125v-40q0 -82 50 -128t138 -46q91 0 139.5 44.5t48.5 128.5v267h-315v112h440v-377q0 -89 -38 -154.5t-108.5 -101t-166.5 -35.5
q-95 0 -166 35.5zM1331 888v-102l-435 -71v103z" />
    <glyph glyph-name="Ibreve.ss07" horiz-adv-x="701" 
d="M288 111v434h-242v111h609v-111h-242v-434h242v-111h-609v111h242zM134 773v103q119 -53 220 -53q102 0 215 53v-103q-112 -53 -215 -53q-104 0 -220 53z" />
    <glyph glyph-name="Icircumflex.ss07" horiz-adv-x="701" 
d="M288 111v434h-242v111h609v-111h-242v-434h242v-111h-609v111h242zM351 888l218 -68v-105l-218 67l-217 -67v105z" />
    <glyph glyph-name="Idieresis.ss07" horiz-adv-x="701" 
d="M288 111v434h-242v111h609v-111h-242v-434h242v-111h-609v111h242zM167 746.5q-21 19.5 -21 51.5q0 31 21 50.5t55 19.5q32 0 52.5 -19.5t20.5 -50.5t-20.5 -51t-52.5 -20q-34 0 -55 19.5zM427 747q-21 20 -21 51t20.5 50.5t53.5 19.5t54 -19.5t21 -50.5t-21 -51t-54 -20
q-32 0 -53 20z" />
    <glyph glyph-name="Idotaccent.ss07" horiz-adv-x="701" 
d="M288 111v434h-242v111h609v-111h-242v-434h242v-111h-609v111h242zM294 745q-22 21 -22 54q0 32 22 53t57 21t57 -20.5t22 -53.5t-22 -54t-57 -21t-57 21z" />
    <glyph glyph-name="uni1ECA.ss07" horiz-adv-x="701" 
d="M288 111v434h-242v111h609v-111h-242v-434h242v-111h-609v111h242zM294 -196q-22 21 -22 53q0 33 22 54t57 21t57 -21t22 -54t-22 -53.5t-57 -20.5t-57 21z" />
    <glyph glyph-name="Igrave.ss07" horiz-adv-x="701" 
d="M288 111v434h-242v111h609v-111h-242v-434h242v-111h-609v111h242zM134 889l435 -70v-104l-435 71v103z" />
    <glyph glyph-name="Imacron.ss07" horiz-adv-x="701" 
d="M288 111v434h-242v111h609v-111h-242v-434h242v-111h-609v111h242zM569 850v-103h-435v103h435z" />
    <glyph glyph-name="Iogonek.ss07" horiz-adv-x="701" 
d="M288 111v434h-242v111h609v-111h-242v-434h242v-111h-609v111h242zM458.5 -148.5q-30.5 21.5 -30.5 59.5q0 31 18.5 54.5t64.5 51.5l100 61l44 -78l-91 -46q-13 -7 -13 -14q0 -11 18 -11h86v-99h-113q-53 0 -83.5 21.5z" />
    <glyph glyph-name="Itilde.ss07" horiz-adv-x="701" 
d="M288 111v434h-242v111h609v-111h-242v-434h242v-111h-609v111h242zM403.5 736q-24.5 4 -57.5 12q-62 15 -101 15q-57 0 -111 -27v102q58 28 112 28q40 0 102 -17q38 -9 60.5 -13t48.5 -4q55 0 112 25v-102q-53 -23 -114 -23q-27 0 -51.5 4z" />
    <glyph glyph-name="a" unicode="a" horiz-adv-x="716" 
d="M710 106v-106h-73q-48 0 -81.5 16.5t-49.5 48.5q-39 -40 -92 -58.5t-125 -18.5q-109 0 -169 39.5t-60 111.5q0 60 45.5 97.5t129.5 46.5l256 28q-12 85 -153 85q-73 0 -114 -21t-41 -58v-3h-120v3q0 57 34 101t96.5 68t145.5 24q129 0 201 -57.5t72 -160.5v-138
q0 -23 14 -35.5t40 -12.5h44zM415.5 117q53.5 23 76.5 65v31l-231 -25q-81 -9 -81 -49q0 -45 106 -45q76 0 129.5 23z" />
    <glyph glyph-name="b" unicode="b" horiz-adv-x="710" 
d="M531.5 479q65.5 -31 100.5 -88t35 -135v-13q0 -78 -35 -135.5t-100.5 -88.5t-153.5 -31q-111 0 -184 58l-3 -46h-112v696h120v-241q74 55 179 55q88 0 153.5 -31zM543 256q0 68 -46.5 106t-130.5 38q-53 0 -97.5 -18t-69.5 -49v-166q25 -32 69.5 -50.5t97.5 -18.5
q83 0 130 38.5t47 106.5v13z" />
    <glyph glyph-name="c" unicode="c" horiz-adv-x="670" 
d="M183 18.5q-67 30.5 -103.5 87.5t-36.5 133v16q0 78 36 135.5t103.5 88.5t158.5 31q83 0 149 -28t103 -78t37 -113v-3h-124v3q0 48 -46 78.5t-119 30.5q-83 0 -128.5 -38t-45.5 -108v-14q0 -68 45.5 -105t128.5 -37q73 0 119 30t46 78v3h124v-3q0 -64 -36 -113.5
t-101.5 -77t-151.5 -27.5q-91 0 -158 30.5z" />
    <glyph glyph-name="d" unicode="d" horiz-adv-x="710" 
d="M631 696v-696h-112l-3 46q-73 -58 -184 -58q-88 0 -153.5 31t-100.5 88.5t-35 135.5v13q0 78 35 135t100.5 88t153.5 31q105 0 179 -55v241h120zM441.5 116.5q44.5 18.5 69.5 50.5v166q-25 31 -69.5 49t-97.5 18q-84 0 -130.5 -38t-46.5 -106v-13q0 -68 47 -106.5
t130 -38.5q53 0 97.5 18.5z" />
    <glyph glyph-name="e" unicode="e" horiz-adv-x="671" 
d="M628 209h-459q7 -53 51.5 -82t118.5 -29q69 0 112 20t48 54h129q-10 -88 -85.5 -136t-203.5 -48q-91 0 -157.5 30.5t-102.5 87t-36 132.5v20q0 77 36 134t103 87.5t157 30.5q136 0 212.5 -66t76.5 -182v-53zM229 376q-43 -24 -56 -67h325q-12 43 -54 67t-106 24
q-66 0 -109 -24z" />
    <glyph glyph-name="f" unicode="f" horiz-adv-x="500" 
d="M497 392h-216v-392h-121v392h-164v106h164v37q0 74 45.5 117.5t122.5 43.5h129v-106h-113q-63 0 -63 -62v-30h216v-106z" />
    <glyph glyph-name="g" unicode="g" horiz-adv-x="709" 
d="M630 498v-449q0 -115 -72.5 -173t-216.5 -58q-139 0 -218 50.5t-79 139.5v7h123v-7q0 -35 47 -57.5t122 -22.5q84 0 129 30.5t45 87.5v34q-36 -26 -81 -40t-92 -14q-142 0 -218.5 60t-76.5 172v13q0 113 77.5 176t217.5 63q106 0 178 -55l3 43h112zM440 152.5
q46 18.5 70 49.5v129q-25 32 -71 51t-99 19q-86 0 -130 -33t-44 -97v-13q0 -63 43 -93.5t131 -30.5q54 0 100 18.5z" />
    <glyph glyph-name="h" unicode="h" horiz-adv-x="711" 
d="M571 444q68 -66 68 -194v-250h-120v250q0 73 -40.5 111.5t-117.5 38.5q-53 0 -96.5 -25t-65.5 -67v-308h-120v696h120v-248q71 62 174 62q130 0 198 -66z" />
    <glyph glyph-name="i" unicode="i" horiz-adv-x="286" 
d="M203 498v-498h-120v498h120zM86 587q-22 21 -22 54q0 32 22 53t57 21t57 -20.5t22 -53.5t-22 -54t-57 -21t-57 21z" />
    <glyph glyph-name="j" unicode="j" horiz-adv-x="286" 
d="M10 -64q36 0 54.5 18.5t18.5 53.5v490h120v-493q0 -81 -51 -128t-138 -47h-89v106h85zM86 587q-22 21 -22 54q0 32 22 53t57 21t57 -20.5t22 -53.5t-22 -54t-57 -21t-57 21z" />
    <glyph glyph-name="k" unicode="k" horiz-adv-x="681" 
d="M662 17v-17h-149l-192 207l-122 -102v-105h-120v696h120v-443l294 245h157v-17l-236 -198z" />
    <glyph glyph-name="l" unicode="l" horiz-adv-x="319" 
d="M124 36q-41 36 -41 103v557h120v-536q0 -29 14 -41.5t46 -12.5h43v-106h-65q-76 0 -117 36z" />
    <glyph glyph-name="m" unicode="m" horiz-adv-x="1108" 
d="M976 443.5q66 -66.5 66 -191.5v-252h-120v252q0 71 -37.5 109.5t-105.5 38.5q-54 0 -97.5 -25.5t-66.5 -68.5q3 -25 3 -54v-252h-120v252q0 71 -37 109.5t-105 38.5q-53 0 -96 -25t-65 -67v-308h-120v498h112l4 -53q71 65 177 65q145 0 208 -93q37 46 90.5 69.5
t118.5 23.5q125 0 191 -66.5z" />
    <glyph glyph-name="n" unicode="n" horiz-adv-x="711" 
d="M571.5 444q67.5 -66 67.5 -194v-250h-120v250q0 73 -40.5 111.5t-117.5 38.5q-53 0 -96.5 -24.5t-65.5 -66.5v-309h-120v498h112l4 -54q69 64 178 66q131 0 198.5 -66z" />
    <glyph glyph-name="o" unicode="o" horiz-adv-x="685" 
d="M184 18.5q-68 30.5 -104.5 87.5t-36.5 134v15q0 78 36 135.5t104 88.5t161 31q92 0 159 -31t103 -88.5t36 -135.5v-15q0 -77 -36 -134t-103 -87.5t-159 -30.5t-160 30.5zM471.5 135.5q46.5 37.5 46.5 104.5v15q0 69 -46 107t-129 38q-85 0 -130.5 -37.5t-45.5 -107.5v-15
q0 -67 46.5 -104.5t129.5 -37.5q82 0 128.5 37.5z" />
    <glyph glyph-name="p" unicode="p" horiz-adv-x="710" 
d="M526.5 479q67.5 -31 104 -88.5t36.5 -134.5v-13q0 -77 -36.5 -134.5t-104 -89t-157.5 -31.5q-100 0 -170 53v-211h-120v668h112l3 -46q74 58 175 58q90 0 157.5 -31zM543 256q0 67 -47 105.5t-129 38.5q-54 0 -98.5 -18t-69.5 -49v-166q25 -32 70 -50.5t98 -18.5
q83 0 129.5 38.5t46.5 106.5v13z" />
    <glyph glyph-name="q" unicode="q" horiz-adv-x="710" 
d="M631 498v-668h-120v211q-70 -53 -170 -53q-90 0 -157.5 31.5t-104 89t-36.5 134.5v13q0 77 36.5 134.5t104 88.5t157.5 31q101 0 175 -58l3 46h112zM441 116.5q45 18.5 70 50.5v166q-25 31 -69.5 49t-98.5 18q-82 0 -129 -38t-47 -106v-13q0 -68 46.5 -106.5t129.5 -38.5
q53 0 98 18.5z" />
    <glyph glyph-name="r" unicode="r" horiz-adv-x="473" 
d="M460 498v-106h-111q-103 0 -146 -58v-334h-120v498h112l3 -49q64 49 167 49h95z" />
    <glyph glyph-name="s" unicode="s" horiz-adv-x="688" 
d="M133.5 31.5q-77.5 43.5 -77.5 121.5v7h120v-7q0 -30 42 -43.5t134 -13.5q155 0 155 49v6q0 18 -22 27t-81 15l-122 12q-109 10 -159 44.5t-50 97.5v10q0 72 72.5 112.5t202.5 40.5q134 0 207.5 -43t73.5 -122v-7h-120v7q0 30 -39.5 43.5t-125.5 13.5q-71 0 -109 -11
t-38 -31v-6q0 -19 20 -28.5t66 -14.5l124 -12q118 -11 171 -46t53 -100v-10q0 -73 -75 -114t-207 -41q-138 0 -215.5 43.5z" />
    <glyph glyph-name="t" unicode="t" horiz-adv-x="520" 
d="M292 392v-220q0 -32 18 -49t52 -17h118v-106h-129q-83 0 -131 45t-48 123v224h-176v106h146q19 0 26 7t7 26v100h117v-133h218v-106h-218z" />
    <glyph glyph-name="u" unicode="u" horiz-adv-x="711" 
d="M632 498v-498h-112l-4 54q-69 -64 -178 -66q-131 0 -198.5 66t-67.5 194v250h120v-250q0 -73 40.5 -111.5t117.5 -38.5q53 0 96.5 24.5t65.5 66.5v309h120z" />
    <glyph glyph-name="v" unicode="v" horiz-adv-x="697" 
d="M669 498v-17l-242 -481h-156l-243 481v17h125l196 -393l195 393h125z" />
    <glyph glyph-name="w" unicode="w" horiz-adv-x="1067" 
d="M1039 498v-17l-202 -481h-158l-146 348l-145 -348h-157l-203 481v17h128l154 -387l161 387h123l165 -392l158 392h122z" />
    <glyph glyph-name="x" unicode="x" horiz-adv-x="656" 
d="M630 17v-17h-143l-159 174l-159 -174h-143v17l218 234l-214 230v17h142l156 -171l160 171h136v-17l-213 -230z" />
    <glyph glyph-name="y" unicode="y" horiz-adv-x="697" 
d="M669 498v-17l-272 -529q-34 -66 -81 -94t-124 -28h-113v106h112q38 0 56 11t34 44l-253 490v17h128l193 -386l192 386h128z" />
    <glyph glyph-name="z" unicode="z" horiz-adv-x="642" 
d="M581 396l-357 -293h357v-103h-519v102l355 292h-355v104h519v-102z" />
    <glyph glyph-name="aacute" unicode="&#xe1;" horiz-adv-x="716" 
d="M710 106v-106h-73q-48 0 -81.5 16.5t-49.5 48.5q-39 -40 -92 -58.5t-125 -18.5q-109 0 -169 39.5t-60 111.5q0 60 45.5 97.5t129.5 46.5l256 28q-12 85 -153 85q-73 0 -114 -21t-41 -58v-3h-120v3q0 57 34 101t96.5 68t145.5 24q129 0 201 -57.5t72 -160.5v-138
q0 -23 14 -35.5t40 -12.5h44zM415.5 117q53.5 23 76.5 65v31l-231 -25q-81 -9 -81 -49q0 -45 106 -45q76 0 129.5 23zM560 730v-102l-435 -71v103z" />
    <glyph glyph-name="abreve" unicode="&#x103;" horiz-adv-x="716" 
d="M710 106v-106h-73q-48 0 -81.5 16.5t-49.5 48.5q-39 -40 -92 -58.5t-125 -18.5q-109 0 -169 39.5t-60 111.5q0 60 45.5 97.5t129.5 46.5l256 28q-12 85 -153 85q-73 0 -114 -21t-41 -58v-3h-120v3q0 57 34 101t96.5 68t145.5 24q129 0 201 -57.5t72 -160.5v-138
q0 -23 14 -35.5t40 -12.5h44zM415.5 117q53.5 23 76.5 65v31l-231 -25q-81 -9 -81 -49q0 -45 106 -45q76 0 129.5 23zM125 615v103q119 -53 220 -53q102 0 215 53v-103q-112 -53 -215 -53q-104 0 -220 53z" />
    <glyph glyph-name="uni01CE" unicode="&#x1ce;" horiz-adv-x="716" 
d="M710 106v-106h-73q-48 0 -81.5 16.5t-49.5 48.5q-39 -40 -92 -58.5t-125 -18.5q-109 0 -169 39.5t-60 111.5q0 60 45.5 97.5t129.5 46.5l256 28q-12 85 -153 85q-73 0 -114 -21t-41 -58v-3h-120v3q0 57 34 101t96.5 68t145.5 24q129 0 201 -57.5t72 -160.5v-138
q0 -23 14 -35.5t40 -12.5h44zM415.5 117q53.5 23 76.5 65v31l-231 -25q-81 -9 -81 -49q0 -45 106 -45q76 0 129.5 23zM125 730l217 -68l218 68v-106l-218 -67l-217 67v106z" />
    <glyph glyph-name="acircumflex" unicode="&#xe2;" horiz-adv-x="716" 
d="M710 106v-106h-73q-48 0 -81.5 16.5t-49.5 48.5q-39 -40 -92 -58.5t-125 -18.5q-109 0 -169 39.5t-60 111.5q0 60 45.5 97.5t129.5 46.5l256 28q-12 85 -153 85q-73 0 -114 -21t-41 -58v-3h-120v3q0 57 34 101t96.5 68t145.5 24q129 0 201 -57.5t72 -160.5v-138
q0 -23 14 -35.5t40 -12.5h44zM415.5 117q53.5 23 76.5 65v31l-231 -25q-81 -9 -81 -49q0 -45 106 -45q76 0 129.5 23zM342 730l218 -68v-105l-218 67l-217 -67v105z" />
    <glyph glyph-name="adieresis" unicode="&#xe4;" horiz-adv-x="716" 
d="M710 106v-106h-73q-48 0 -81.5 16.5t-49.5 48.5q-39 -40 -92 -58.5t-125 -18.5q-109 0 -169 39.5t-60 111.5q0 60 45.5 97.5t129.5 46.5l256 28q-12 85 -153 85q-73 0 -114 -21t-41 -58v-3h-120v3q0 57 34 101t96.5 68t145.5 24q129 0 201 -57.5t72 -160.5v-138
q0 -23 14 -35.5t40 -12.5h44zM415.5 117q53.5 23 76.5 65v31l-231 -25q-81 -9 -81 -49q0 -45 106 -45q76 0 129.5 23zM158 588.5q-21 19.5 -21 51.5q0 31 21 50.5t55 19.5q32 0 52.5 -19.5t20.5 -50.5t-20.5 -51t-52.5 -20q-34 0 -55 19.5zM418 589q-21 20 -21 51t20.5 50.5
t53.5 19.5t54 -19.5t21 -50.5t-21 -51t-54 -20q-32 0 -53 20z" />
    <glyph glyph-name="agrave" unicode="&#xe0;" horiz-adv-x="716" 
d="M710 106v-106h-73q-48 0 -81.5 16.5t-49.5 48.5q-39 -40 -92 -58.5t-125 -18.5q-109 0 -169 39.5t-60 111.5q0 60 45.5 97.5t129.5 46.5l256 28q-12 85 -153 85q-73 0 -114 -21t-41 -58v-3h-120v3q0 57 34 101t96.5 68t145.5 24q129 0 201 -57.5t72 -160.5v-138
q0 -23 14 -35.5t40 -12.5h44zM415.5 117q53.5 23 76.5 65v31l-231 -25q-81 -9 -81 -49q0 -45 106 -45q76 0 129.5 23zM125 731l435 -70v-104l-435 71v103z" />
    <glyph glyph-name="amacron" unicode="&#x101;" horiz-adv-x="716" 
d="M710 106v-106h-73q-48 0 -81.5 16.5t-49.5 48.5q-39 -40 -92 -58.5t-125 -18.5q-109 0 -169 39.5t-60 111.5q0 60 45.5 97.5t129.5 46.5l256 28q-12 85 -153 85q-73 0 -114 -21t-41 -58v-3h-120v3q0 57 34 101t96.5 68t145.5 24q129 0 201 -57.5t72 -160.5v-138
q0 -23 14 -35.5t40 -12.5h44zM415.5 117q53.5 23 76.5 65v31l-231 -25q-81 -9 -81 -49q0 -45 106 -45q76 0 129.5 23zM560 692v-103h-435v103h435z" />
    <glyph glyph-name="aogonek" unicode="&#x105;" horiz-adv-x="716" 
d="M710 106v-106h-73q-48 0 -81.5 16.5t-49.5 48.5q-39 -40 -92 -58.5t-125 -18.5q-109 0 -169 39.5t-60 111.5q0 60 45.5 97.5t129.5 46.5l256 28q-12 85 -153 85q-73 0 -114 -21t-41 -58v-3h-120v3q0 57 34 101t96.5 68t145.5 24q129 0 201 -57.5t72 -160.5v-138
q0 -23 14 -35.5t40 -12.5h44zM415.5 117q53.5 23 76.5 65v31l-231 -25q-81 -9 -81 -49q0 -45 106 -45q76 0 129.5 23zM513.5 -148.5q-30.5 21.5 -30.5 59.5q0 31 18.5 54.5t64.5 51.5l100 61l44 -78l-91 -46q-13 -7 -13 -14q0 -11 18 -11h86v-99h-113q-53 0 -83.5 21.5z" />
    <glyph glyph-name="aring" unicode="&#xe5;" horiz-adv-x="716" 
d="M710 106v-106h-73q-48 0 -81.5 16.5t-49.5 48.5q-39 -40 -92 -58.5t-125 -18.5q-109 0 -169 39.5t-60 111.5q0 60 45.5 97.5t129.5 46.5l256 28q-12 85 -153 85q-73 0 -114 -21t-41 -58v-3h-120v3q0 57 34 101t96.5 68t145.5 24q129 0 201 -57.5t72 -160.5v-138
q0 -23 14 -35.5t40 -12.5h44zM415.5 117q53.5 23 76.5 65v31l-231 -25q-81 -9 -81 -49q0 -45 106 -45q76 0 129.5 23zM219 576q-44 34 -44 97q0 62 45 97t122 35t122 -35t45 -97q0 -63 -44 -97t-123 -34t-123 34zM389 635q16 13 16 38t-16.5 38.5t-46.5 13.5
q-31 0 -47.5 -13.5t-16.5 -38.5q0 -24 16.5 -37.5t47.5 -13.5t47 13z" />
    <glyph glyph-name="atilde" unicode="&#xe3;" horiz-adv-x="716" 
d="M710 106v-106h-73q-48 0 -81.5 16.5t-49.5 48.5q-39 -40 -92 -58.5t-125 -18.5q-109 0 -169 39.5t-60 111.5q0 60 45.5 97.5t129.5 46.5l256 28q-12 85 -153 85q-73 0 -114 -21t-41 -58v-3h-120v3q0 57 34 101t96.5 68t145.5 24q129 0 201 -57.5t72 -160.5v-138
q0 -23 14 -35.5t40 -12.5h44zM415.5 117q53.5 23 76.5 65v31l-231 -25q-81 -9 -81 -49q0 -45 106 -45q76 0 129.5 23zM394.5 578q-24.5 4 -57.5 12q-62 15 -101 15q-57 0 -111 -27v102q58 28 112 28q40 0 102 -17q38 -9 60.5 -13t48.5 -4q55 0 112 25v-102q-53 -23 -114 -23
q-27 0 -51.5 4z" />
    <glyph glyph-name="ae" unicode="&#xe6;" horiz-adv-x="1098" 
d="M1055 208h-449q6 -55 48.5 -84t116.5 -29q66 0 109.5 21.5t46.5 55.5h128q-9 -85 -83 -134.5t-193 -49.5q-81 0 -142 23t-99 68q-39 -44 -103 -67.5t-148 -23.5q-108 0 -167.5 38.5t-59.5 108.5q0 62 45.5 100.5t129.5 47.5l249 27q-6 42 -45.5 64t-108.5 22
q-67 0 -106 -21.5t-39 -57.5v-3h-122v3q0 58 34 101.5t96 67.5t144 24q153 0 216 -84q36 41 92 62.5t129 21.5q131 0 206 -66.5t75 -181.5v-54zM664.5 376q-42.5 -25 -54.5 -69h316q-11 45 -50.5 69.5t-103.5 24.5q-65 0 -107.5 -25zM409.5 116q55.5 21 82.5 58q-5 18 -6 37
l-215 -22q-91 -9 -91 -51q0 -43 99 -43q75 0 130.5 21z" />
    <glyph glyph-name="aeacute" unicode="&#x1fd;" horiz-adv-x="1098" 
d="M1055 208h-449q6 -55 48.5 -84t116.5 -29q66 0 109.5 21.5t46.5 55.5h128q-9 -85 -83 -134.5t-193 -49.5q-81 0 -142 23t-99 68q-39 -44 -103 -67.5t-148 -23.5q-108 0 -167.5 38.5t-59.5 108.5q0 62 45.5 100.5t129.5 47.5l249 27q-6 42 -45.5 64t-108.5 22
q-67 0 -106 -21.5t-39 -57.5v-3h-122v3q0 58 34 101.5t96 67.5t144 24q153 0 216 -84q36 41 92 62.5t129 21.5q131 0 206 -66.5t75 -181.5v-54zM664.5 376q-42.5 -25 -54.5 -69h316q-11 45 -50.5 69.5t-103.5 24.5q-65 0 -107.5 -25zM409.5 116q55.5 21 82.5 58q-5 18 -6 37
l-215 -22q-91 -9 -91 -51q0 -43 99 -43q75 0 130.5 21zM770 730v-102l-435 -71v103z" />
    <glyph glyph-name="cacute" unicode="&#x107;" horiz-adv-x="670" 
d="M183 18.5q-67 30.5 -103.5 87.5t-36.5 133v16q0 78 36 135.5t103.5 88.5t158.5 31q83 0 149 -28t103 -78t37 -113v-3h-124v3q0 48 -46 78.5t-119 30.5q-83 0 -128.5 -38t-45.5 -108v-14q0 -68 45.5 -105t128.5 -37q73 0 119 30t46 78v3h124v-3q0 -64 -36 -113.5
t-101.5 -77t-151.5 -27.5q-91 0 -158 30.5zM551 730v-102l-435 -71v103z" />
    <glyph glyph-name="ccaron" unicode="&#x10d;" horiz-adv-x="670" 
d="M183 18.5q-67 30.5 -103.5 87.5t-36.5 133v16q0 78 36 135.5t103.5 88.5t158.5 31q83 0 149 -28t103 -78t37 -113v-3h-124v3q0 48 -46 78.5t-119 30.5q-83 0 -128.5 -38t-45.5 -108v-14q0 -68 45.5 -105t128.5 -37q73 0 119 30t46 78v3h124v-3q0 -64 -36 -113.5
t-101.5 -77t-151.5 -27.5q-91 0 -158 30.5zM116 730l217 -68l218 68v-106l-218 -67l-217 67v106z" />
    <glyph glyph-name="ccedilla" unicode="&#xe7;" horiz-adv-x="670" 
d="M183 18.5q-67 30.5 -103.5 87.5t-36.5 133v16q0 78 36 135.5t103.5 88.5t158.5 31q83 0 149 -28t103 -78t37 -113v-3h-124v3q0 48 -46 78.5t-119 30.5q-83 0 -128.5 -38t-45.5 -108v-14q0 -68 45.5 -105t128.5 -37q73 0 119 30t46 78v3h124v-3q0 -64 -36 -113.5
t-101.5 -77t-151.5 -27.5q-91 0 -158 30.5zM395 0l-49 -170h-134l60 208z" />
    <glyph glyph-name="ccircumflex" unicode="&#x109;" horiz-adv-x="670" 
d="M183 18.5q-67 30.5 -103.5 87.5t-36.5 133v16q0 78 36 135.5t103.5 88.5t158.5 31q83 0 149 -28t103 -78t37 -113v-3h-124v3q0 48 -46 78.5t-119 30.5q-83 0 -128.5 -38t-45.5 -108v-14q0 -68 45.5 -105t128.5 -37q73 0 119 30t46 78v3h124v-3q0 -64 -36 -113.5
t-101.5 -77t-151.5 -27.5q-91 0 -158 30.5zM333 730l218 -68v-105l-218 67l-217 -67v105z" />
    <glyph glyph-name="cdotaccent" unicode="&#x10b;" horiz-adv-x="670" 
d="M183 18.5q-67 30.5 -103.5 87.5t-36.5 133v16q0 78 36 135.5t103.5 88.5t158.5 31q83 0 149 -28t103 -78t37 -113v-3h-124v3q0 48 -46 78.5t-119 30.5q-83 0 -128.5 -38t-45.5 -108v-14q0 -68 45.5 -105t128.5 -37q73 0 119 30t46 78v3h124v-3q0 -64 -36 -113.5
t-101.5 -77t-151.5 -27.5q-91 0 -158 30.5zM276 587q-22 21 -22 54q0 32 22 53t57 21t57 -20.5t22 -53.5t-22 -54t-57 -21t-57 21z" />
    <glyph glyph-name="eth" unicode="&#xf0;" horiz-adv-x="684" 
d="M641 601l-135 -23q68 -51 97 -112t29 -150v-79q0 -75 -36 -131.5t-102.5 -87t-156.5 -30.5q-89 0 -155.5 28.5t-102.5 81.5t-36 123v22q0 69 35 121.5t98 81.5t146 29q100 0 167 -40q-16 32 -46 59t-78 54l-307 -50v101l165 27l-105 57v17h177l79 -43l267 45v-101z
M464 134.5q46 36.5 46 102.5v56q-24 33 -72.5 53t-106.5 20q-76 0 -120.5 -32t-44.5 -88v-20q0 -61 44.5 -94.5t124.5 -33.5q83 0 129 36.5z" />
    <glyph glyph-name="dcaron" unicode="&#x10f;" horiz-adv-x="920" 
d="M631 696v-696h-112l-3 46q-73 -58 -184 -58q-88 0 -153.5 31t-100.5 88.5t-35 135.5v13q0 78 35 135t100.5 88t153.5 31q105 0 179 -55v241h120zM441.5 116.5q44.5 18.5 69.5 50.5v166q-25 31 -69.5 49t-97.5 18q-84 0 -130.5 -38t-46.5 -106v-13q0 -68 47 -106.5
t130 -38.5q53 0 97.5 18.5zM906 696l-57 -185h-118l27 185h148z" />
    <glyph glyph-name="dcroat" unicode="&#x111;" horiz-adv-x="736" 
d="M748 542h-117v-542h-112l-3 45q-71 -57 -174 -57q-139 0 -219 65t-80 179v13q0 72 36 125.5t101.5 82.5t150.5 29q110 0 180 -51v111h-222v104h222v50h120v-50h117v-104zM440 116q45 18 71 51v141q-26 31 -71 48.5t-100 17.5q-81 0 -127 -34.5t-46 -96.5v-13
q0 -63 45.5 -97.5t126.5 -34.5q56 0 101 18z" />
    <glyph glyph-name="eacute" unicode="&#xe9;" horiz-adv-x="671" 
d="M628 209h-459q7 -53 51.5 -82t118.5 -29q69 0 112 20t48 54h129q-10 -88 -85.5 -136t-203.5 -48q-91 0 -157.5 30.5t-102.5 87t-36 132.5v20q0 77 36 134t103 87.5t157 30.5q136 0 212.5 -66t76.5 -182v-53zM229 376q-43 -24 -56 -67h325q-12 43 -54 67t-106 24
q-66 0 -109 -24zM554 730v-102l-435 -71v103z" />
    <glyph glyph-name="ebreve" unicode="&#x115;" horiz-adv-x="671" 
d="M628 209h-459q7 -53 51.5 -82t118.5 -29q69 0 112 20t48 54h129q-10 -88 -85.5 -136t-203.5 -48q-91 0 -157.5 30.5t-102.5 87t-36 132.5v20q0 77 36 134t103 87.5t157 30.5q136 0 212.5 -66t76.5 -182v-53zM229 376q-43 -24 -56 -67h325q-12 43 -54 67t-106 24
q-66 0 -109 -24zM119 615v103q119 -53 220 -53q102 0 215 53v-103q-112 -53 -215 -53q-104 0 -220 53z" />
    <glyph glyph-name="ecaron" unicode="&#x11b;" horiz-adv-x="671" 
d="M628 209h-459q7 -53 51.5 -82t118.5 -29q69 0 112 20t48 54h129q-10 -88 -85.5 -136t-203.5 -48q-91 0 -157.5 30.5t-102.5 87t-36 132.5v20q0 77 36 134t103 87.5t157 30.5q136 0 212.5 -66t76.5 -182v-53zM229 376q-43 -24 -56 -67h325q-12 43 -54 67t-106 24
q-66 0 -109 -24zM119 730l217 -68l218 68v-106l-218 -67l-217 67v106z" />
    <glyph glyph-name="ecircumflex" unicode="&#xea;" horiz-adv-x="671" 
d="M628 209h-459q7 -53 51.5 -82t118.5 -29q69 0 112 20t48 54h129q-10 -88 -85.5 -136t-203.5 -48q-91 0 -157.5 30.5t-102.5 87t-36 132.5v20q0 77 36 134t103 87.5t157 30.5q136 0 212.5 -66t76.5 -182v-53zM229 376q-43 -24 -56 -67h325q-12 43 -54 67t-106 24
q-66 0 -109 -24zM336 730l218 -68v-105l-218 67l-217 -67v105z" />
    <glyph glyph-name="edieresis" unicode="&#xeb;" horiz-adv-x="671" 
d="M628 209h-459q7 -53 51.5 -82t118.5 -29q69 0 112 20t48 54h129q-10 -88 -85.5 -136t-203.5 -48q-91 0 -157.5 30.5t-102.5 87t-36 132.5v20q0 77 36 134t103 87.5t157 30.5q136 0 212.5 -66t76.5 -182v-53zM229 376q-43 -24 -56 -67h325q-12 43 -54 67t-106 24
q-66 0 -109 -24zM152 588.5q-21 19.5 -21 51.5q0 31 21 50.5t55 19.5q32 0 52.5 -19.5t20.5 -50.5t-20.5 -51t-52.5 -20q-34 0 -55 19.5zM412 589q-21 20 -21 51t20.5 50.5t53.5 19.5t54 -19.5t21 -50.5t-21 -51t-54 -20q-32 0 -53 20z" />
    <glyph glyph-name="edotaccent" unicode="&#x117;" horiz-adv-x="671" 
d="M628 209h-459q7 -53 51.5 -82t118.5 -29q69 0 112 20t48 54h129q-10 -88 -85.5 -136t-203.5 -48q-91 0 -157.5 30.5t-102.5 87t-36 132.5v20q0 77 36 134t103 87.5t157 30.5q136 0 212.5 -66t76.5 -182v-53zM229 376q-43 -24 -56 -67h325q-12 43 -54 67t-106 24
q-66 0 -109 -24zM279 587q-22 21 -22 54q0 32 22 53t57 21t57 -20.5t22 -53.5t-22 -54t-57 -21t-57 21z" />
    <glyph glyph-name="uni1EB9" unicode="&#x1eb9;" horiz-adv-x="671" 
d="M628 209h-459q7 -53 51.5 -82t118.5 -29q69 0 112 20t48 54h129q-10 -88 -85.5 -136t-203.5 -48q-91 0 -157.5 30.5t-102.5 87t-36 132.5v20q0 77 36 134t103 87.5t157 30.5q136 0 212.5 -66t76.5 -182v-53zM229 376q-43 -24 -56 -67h325q-12 43 -54 67t-106 24
q-66 0 -109 -24zM279 -196q-22 21 -22 53q0 33 22 54t57 21t57 -21t22 -54t-22 -53.5t-57 -20.5t-57 21z" />
    <glyph glyph-name="egrave" unicode="&#xe8;" horiz-adv-x="671" 
d="M628 209h-459q7 -53 51.5 -82t118.5 -29q69 0 112 20t48 54h129q-10 -88 -85.5 -136t-203.5 -48q-91 0 -157.5 30.5t-102.5 87t-36 132.5v20q0 77 36 134t103 87.5t157 30.5q136 0 212.5 -66t76.5 -182v-53zM229 376q-43 -24 -56 -67h325q-12 43 -54 67t-106 24
q-66 0 -109 -24zM119 731l435 -70v-104l-435 71v103z" />
    <glyph glyph-name="emacron" unicode="&#x113;" horiz-adv-x="671" 
d="M628 209h-459q7 -53 51.5 -82t118.5 -29q69 0 112 20t48 54h129q-10 -88 -85.5 -136t-203.5 -48q-91 0 -157.5 30.5t-102.5 87t-36 132.5v20q0 77 36 134t103 87.5t157 30.5q136 0 212.5 -66t76.5 -182v-53zM229 376q-43 -24 -56 -67h325q-12 43 -54 67t-106 24
q-66 0 -109 -24zM554 692v-103h-435v103h435z" />
    <glyph glyph-name="eogonek" unicode="&#x119;" horiz-adv-x="671" 
d="M628 209h-459q7 -53 51.5 -82t118.5 -29q69 0 112 20t48 54h129q-10 -88 -85.5 -136t-203.5 -48q-91 0 -157.5 30.5t-102.5 87t-36 132.5v20q0 77 36 134t103 87.5t157 30.5q136 0 212.5 -66t76.5 -182v-53zM229 376q-43 -24 -56 -67h325q-12 43 -54 67t-106 24
q-66 0 -109 -24zM339 -142q-35 28 -35 71q0 32 21.5 60.5t70.5 61.5l67 45l84 -54l-82 -57q-15 -11 -20.5 -17.5t-5.5 -14.5q0 -10 8.5 -16t21.5 -6h69v-101h-109q-55 0 -90 28z" />
    <glyph glyph-name="uni1EBD" unicode="&#x1ebd;" horiz-adv-x="671" 
d="M628 209h-459q7 -53 51.5 -82t118.5 -29q69 0 112 20t48 54h129q-10 -88 -85.5 -136t-203.5 -48q-91 0 -157.5 30.5t-102.5 87t-36 132.5v20q0 77 36 134t103 87.5t157 30.5q136 0 212.5 -66t76.5 -182v-53zM229 376q-43 -24 -56 -67h325q-12 43 -54 67t-106 24
q-66 0 -109 -24zM388.5 578q-24.5 4 -57.5 12q-62 15 -101 15q-57 0 -111 -27v102q58 28 112 28q40 0 102 -17q38 -9 60.5 -13t48.5 -4q55 0 112 25v-102q-53 -23 -114 -23q-27 0 -51.5 4z" />
    <glyph glyph-name="uni0259" unicode="&#x259;" horiz-adv-x="671" 
d="M489.5 479.5q66.5 -30.5 102.5 -87t36 -132.5v-20q0 -77 -36 -134t-103 -87.5t-157 -30.5q-136 0 -212.5 66t-76.5 182v53h459q-7 53 -51.5 82t-118.5 29q-69 0 -112 -20t-48 -54h-129q10 88 85.5 136t203.5 48q91 0 157.5 -30.5zM442 122q43 24 56 67h-325
q12 -43 54 -67t106 -24q66 0 109 24z" />
    <glyph glyph-name="uni01F5" unicode="&#x1f5;" horiz-adv-x="709" 
d="M630 498v-449q0 -115 -72.5 -173t-216.5 -58q-139 0 -218 50.5t-79 139.5v7h123v-7q0 -35 47 -57.5t122 -22.5q84 0 129 30.5t45 87.5v34q-36 -26 -81 -40t-92 -14q-142 0 -218.5 60t-76.5 172v13q0 113 77.5 176t217.5 63q106 0 178 -55l3 43h112zM440 152.5
q46 18.5 70 49.5v129q-25 32 -71 51t-99 19q-86 0 -130 -33t-44 -97v-13q0 -63 43 -93.5t131 -30.5q54 0 100 18.5zM564 730v-102l-435 -71v103z" />
    <glyph glyph-name="gbreve" unicode="&#x11f;" horiz-adv-x="709" 
d="M630 498v-449q0 -115 -72.5 -173t-216.5 -58q-139 0 -218 50.5t-79 139.5v7h123v-7q0 -35 47 -57.5t122 -22.5q84 0 129 30.5t45 87.5v34q-36 -26 -81 -40t-92 -14q-142 0 -218.5 60t-76.5 172v13q0 113 77.5 176t217.5 63q106 0 178 -55l3 43h112zM440 152.5
q46 18.5 70 49.5v129q-25 32 -71 51t-99 19q-86 0 -130 -33t-44 -97v-13q0 -63 43 -93.5t131 -30.5q54 0 100 18.5zM129 615v103q119 -53 220 -53q102 0 215 53v-103q-112 -53 -215 -53q-104 0 -220 53z" />
    <glyph glyph-name="gcaron" unicode="&#x1e7;" horiz-adv-x="709" 
d="M630 498v-449q0 -115 -72.5 -173t-216.5 -58q-139 0 -218 50.5t-79 139.5v7h123v-7q0 -35 47 -57.5t122 -22.5q84 0 129 30.5t45 87.5v34q-36 -26 -81 -40t-92 -14q-142 0 -218.5 60t-76.5 172v13q0 113 77.5 176t217.5 63q106 0 178 -55l3 43h112zM440 152.5
q46 18.5 70 49.5v129q-25 32 -71 51t-99 19q-86 0 -130 -33t-44 -97v-13q0 -63 43 -93.5t131 -30.5q54 0 100 18.5zM129 730l217 -68l218 68v-106l-218 -67l-217 67v106z" />
    <glyph glyph-name="gcircumflex" unicode="&#x11d;" horiz-adv-x="709" 
d="M630 498v-449q0 -115 -72.5 -173t-216.5 -58q-139 0 -218 50.5t-79 139.5v7h123v-7q0 -35 47 -57.5t122 -22.5q84 0 129 30.5t45 87.5v34q-36 -26 -81 -40t-92 -14q-142 0 -218.5 60t-76.5 172v13q0 113 77.5 176t217.5 63q106 0 178 -55l3 43h112zM440 152.5
q46 18.5 70 49.5v129q-25 32 -71 51t-99 19q-86 0 -130 -33t-44 -97v-13q0 -63 43 -93.5t131 -30.5q54 0 100 18.5zM346 730l218 -68v-105l-218 67l-217 -67v105z" />
    <glyph glyph-name="uni0123" unicode="&#x123;" horiz-adv-x="709" 
d="M630 498v-449q0 -115 -72.5 -173t-216.5 -58q-139 0 -218 50.5t-79 139.5v7h123v-7q0 -35 47 -57.5t122 -22.5q84 0 129 30.5t45 87.5v34q-36 -26 -81 -40t-92 -14q-142 0 -218.5 60t-76.5 172v13q0 113 77.5 176t217.5 63q106 0 178 -55l3 43h112zM440 152.5
q46 18.5 70 49.5v129q-25 32 -71 51t-99 19q-86 0 -130 -33t-44 -97v-13q0 -63 43 -93.5t131 -30.5q54 0 100 18.5zM448 730l-50 -174h-134l55 174h129z" />
    <glyph glyph-name="gdotaccent" unicode="&#x121;" horiz-adv-x="709" 
d="M630 498v-449q0 -115 -72.5 -173t-216.5 -58q-139 0 -218 50.5t-79 139.5v7h123v-7q0 -35 47 -57.5t122 -22.5q84 0 129 30.5t45 87.5v34q-36 -26 -81 -40t-92 -14q-142 0 -218.5 60t-76.5 172v13q0 113 77.5 176t217.5 63q106 0 178 -55l3 43h112zM440 152.5
q46 18.5 70 49.5v129q-25 32 -71 51t-99 19q-86 0 -130 -33t-44 -97v-13q0 -63 43 -93.5t131 -30.5q54 0 100 18.5zM289 587q-22 21 -22 54q0 32 22 53t57 21t57 -20.5t22 -53.5t-22 -54t-57 -21t-57 21z" />
    <glyph glyph-name="hbar" unicode="&#x127;" horiz-adv-x="737" 
d="M597 416q68 -66 68 -194v-222h-120v222q0 73 -40.5 111.5t-117.5 38.5q-53 0 -96.5 -25t-65.5 -67v-280h-120v542h-117v104h117v50h120v-50h220v-104h-220v-122q71 62 174 62q130 0 198 -66z" />
    <glyph glyph-name="hcircumflex" unicode="&#x125;" horiz-adv-x="711" 
d="M571 444q68 -66 68 -194v-250h-120v250q0 73 -40.5 111.5t-117.5 38.5q-53 0 -96.5 -25t-65.5 -67v-308h-120v696h120v-248q71 62 174 62q130 0 198 -66zM139 898l218 -68v-105l-218 67l-217 -67v105z" />
    <glyph glyph-name="dotlessi" unicode="&#x131;" horiz-adv-x="286" 
d="M203 498v-498h-120v498h120z" />
    <glyph glyph-name="iacute" unicode="&#xed;" horiz-adv-x="286" 
d="M203 498v-498h-120v498h120zM285 719v-103l-284 -47v102z" />
    <glyph glyph-name="ibreve" unicode="&#x12d;" horiz-adv-x="286" 
d="M203 498v-498h-120v498h120zM2 615v103q63 -51 143 -51t141 51v-103q-62 -51 -141 -51q-82 0 -143 51z" />
    <glyph glyph-name="icircumflex" unicode="&#xee;" horiz-adv-x="286" 
d="M203 498v-498h-120v498h120zM143 721l142 -39v-107l-142 40l-142 -40v107z" />
    <glyph glyph-name="idieresis" unicode="&#xef;" horiz-adv-x="286" 
d="M203 498v-498h-120v498h120zM-24 589.5q-21 19.5 -21 51.5q0 31 21 50.5t55 19.5q32 0 52.5 -19.5t20.5 -50.5t-20.5 -51t-52.5 -20q-34 0 -55 19.5zM202 590q-21 20 -21 51t20.5 50.5t53.5 19.5q34 0 54.5 -19.5t20.5 -50.5t-21 -51t-54 -20q-32 0 -53 20z" />
    <glyph glyph-name="i.loclTRK" horiz-adv-x="286" 
d="M203 498v-498h-120v498h120zM86 587q-22 21 -22 54q0 32 22 53t57 21t57 -20.5t22 -53.5t-22 -54t-57 -21t-57 21z" />
    <glyph glyph-name="uni1ECB" unicode="&#x1ecb;" horiz-adv-x="286" 
d="M203 498v-498h-120v498h120zM86 587q-22 21 -22 54q0 32 22 53t57 21t57 -20.5t22 -53.5t-22 -54t-57 -21t-57 21zM86 -196q-22 21 -22 53q0 33 22 54t57 21t57 -21t22 -54t-22 -53.5t-57 -20.5t-57 21z" />
    <glyph glyph-name="igrave" unicode="&#xec;" horiz-adv-x="286" 
d="M203 498v-498h-120v498h120zM1 720l283 -48v-103l-283 47v104z" />
    <glyph glyph-name="ij" unicode="&#x133;" horiz-adv-x="572" 
d="M203 498v-498h-120v498h120zM86 587q-22 21 -22 54q0 32 22 53t57 21t57 -20.5t22 -53.5t-22 -54t-57 -21t-57 21zM296 -64q36 0 54.5 18.5t18.5 53.5v490h120v-493q0 -81 -51 -128t-138 -47h-89v106h85zM372 587q-22 21 -22 54q0 32 22 53t57 21t57 -20.5t22 -53.5
t-22 -54t-57 -21t-57 21z" />
    <glyph glyph-name="imacron" unicode="&#x12b;" horiz-adv-x="286" 
d="M203 498v-498h-120v498h120zM285 692v-103h-284v103h284z" />
    <glyph glyph-name="iogonek" unicode="&#x12f;" horiz-adv-x="286" 
d="M203 498v-498h-120v498h120zM86 587q-22 21 -22 54q0 32 22 53t57 21t57 -20.5t22 -53.5t-22 -54t-57 -21t-57 21zM6.5 -148.5q-30.5 21.5 -30.5 59.5q0 31 18.5 54.5t64.5 51.5l100 61l44 -78l-91 -46q-13 -7 -13 -14q0 -11 18 -11h86v-99h-113q-53 0 -83.5 21.5z" />
    <glyph glyph-name="itilde" unicode="&#x129;" horiz-adv-x="286" 
d="M203 498v-498h-120v498h120zM175.5 578q-14.5 4 -36.5 12q-38 15 -61 15q-39 0 -77 -24v102q39 25 79 25q23 0 61 -17q4 -1 18 -6.5t25.5 -8t22.5 -2.5q38 0 78 22v-102q-36 -20 -80 -20q-15 0 -29.5 4z" />
    <glyph glyph-name="uni0237" unicode="&#x237;" horiz-adv-x="286" 
d="M10 -64q36 0 54.5 18.5t18.5 53.5v490h120v-493q0 -81 -51 -128t-138 -47h-89v106h85z" />
    <glyph glyph-name="jcircumflex" unicode="&#x135;" horiz-adv-x="286" 
d="M10 -64q36 0 54.5 18.5t18.5 53.5v490h120v-493q0 -81 -51 -128t-138 -47h-89v106h85zM143 721l142 -39v-107l-142 40l-142 -40v107z" />
    <glyph glyph-name="uni0137" unicode="&#x137;" horiz-adv-x="681" 
d="M662 17v-17h-149l-192 207l-122 -102v-105h-120v696h120v-443l294 245h157v-17l-236 -198zM397 -58l-62 -174h-128l55 174h135z" />
    <glyph glyph-name="lacute" unicode="&#x13a;" horiz-adv-x="319" 
d="M124 36q-41 36 -41 103v557h120v-536q0 -29 14 -41.5t46 -12.5h43v-106h-65q-76 0 -117 36zM285 887v-103l-284 -47v102z" />
    <glyph glyph-name="lcaron" unicode="&#x13e;" horiz-adv-x="509" 
d="M124 36q-41 36 -41 103v557h120v-536q0 -29 14 -41.5t46 -12.5h43v-106h-65q-76 0 -117 36zM478 696l-57 -185h-118l27 185h148z" />
    <glyph glyph-name="uni013C" unicode="&#x13c;" horiz-adv-x="319" 
d="M124 36q-41 36 -41 103v557h120v-536q0 -29 14 -41.5t46 -12.5h43v-106h-65q-76 0 -117 36zM304 -58l-62 -174h-128l55 174h135z" />
    <glyph glyph-name="ldot" unicode="&#x140;" horiz-adv-x="407" 
d="M124 36q-41 36 -41 103v557h120v-536q0 -29 14 -41.5t46 -12.5h43v-106h-65q-76 0 -117 36zM294 270q-21 20 -21 52t21 52t53 20t53 -20t21 -52t-21 -52t-53 -20t-53 20z" />
    <glyph glyph-name="lslash" unicode="&#x142;" horiz-adv-x="398" 
d="M232 335v-175q0 -29 14 -41.5t46 -12.5h43v-106h-65q-76 0 -117 36t-41 103v176l-111 -24v106l111 24v275h120v-255l141 30v-106z" />
    <glyph glyph-name="nacute" unicode="&#x144;" horiz-adv-x="711" 
d="M571.5 444q67.5 -66 67.5 -194v-250h-120v250q0 73 -40.5 111.5t-117.5 38.5q-53 0 -96.5 -24.5t-65.5 -66.5v-309h-120v498h112l4 -54q69 64 178 66q131 0 198.5 -66zM579 730v-102l-435 -71v103z" />
    <glyph glyph-name="ncaron" unicode="&#x148;" horiz-adv-x="711" 
d="M571.5 444q67.5 -66 67.5 -194v-250h-120v250q0 73 -40.5 111.5t-117.5 38.5q-53 0 -96.5 -24.5t-65.5 -66.5v-309h-120v498h112l4 -54q69 64 178 66q131 0 198.5 -66zM144 730l217 -68l218 68v-106l-218 -67l-217 67v106z" />
    <glyph glyph-name="uni0146" unicode="&#x146;" horiz-adv-x="711" 
d="M571.5 444q67.5 -66 67.5 -194v-250h-120v250q0 73 -40.5 111.5t-117.5 38.5q-53 0 -96.5 -24.5t-65.5 -66.5v-309h-120v498h112l4 -54q69 64 178 66q131 0 198.5 -66zM424 -58l-62 -174h-128l55 174h135z" />
    <glyph glyph-name="eng" unicode="&#x14b;" horiz-adv-x="711" 
d="M571.5 444q67.5 -66 67.5 -194v-178q0 -242 -248 -242h-49v106h47q66 0 98 34t32 104v176q0 73 -40.5 111.5t-117.5 38.5q-53 0 -96.5 -24.5t-65.5 -66.5v-309h-120v498h112l4 -54q69 64 178 66q131 0 198.5 -66z" />
    <glyph glyph-name="ntilde" unicode="&#xf1;" horiz-adv-x="711" 
d="M571.5 444q67.5 -66 67.5 -194v-250h-120v250q0 73 -40.5 111.5t-117.5 38.5q-53 0 -96.5 -24.5t-65.5 -66.5v-309h-120v498h112l4 -54q69 64 178 66q131 0 198.5 -66zM413.5 578q-24.5 4 -57.5 12q-62 15 -101 15q-57 0 -111 -27v102q58 28 112 28q40 0 102 -17
q38 -9 60.5 -13t48.5 -4q55 0 112 25v-102q-53 -23 -114 -23q-27 0 -51.5 4z" />
    <glyph glyph-name="oacute" unicode="&#xf3;" horiz-adv-x="685" 
d="M184 18.5q-68 30.5 -104.5 87.5t-36.5 134v15q0 78 36 135.5t104 88.5t161 31q92 0 159 -31t103 -88.5t36 -135.5v-15q0 -77 -36 -134t-103 -87.5t-159 -30.5t-160 30.5zM471.5 135.5q46.5 37.5 46.5 104.5v15q0 69 -46 107t-129 38q-85 0 -130.5 -37.5t-45.5 -107.5v-15
q0 -67 46.5 -104.5t129.5 -37.5q82 0 128.5 37.5zM561 730v-102l-435 -71v103z" />
    <glyph glyph-name="obreve" unicode="&#x14f;" horiz-adv-x="685" 
d="M184 18.5q-68 30.5 -104.5 87.5t-36.5 134v15q0 78 36 135.5t104 88.5t161 31q92 0 159 -31t103 -88.5t36 -135.5v-15q0 -77 -36 -134t-103 -87.5t-159 -30.5t-160 30.5zM471.5 135.5q46.5 37.5 46.5 104.5v15q0 69 -46 107t-129 38q-85 0 -130.5 -37.5t-45.5 -107.5v-15
q0 -67 46.5 -104.5t129.5 -37.5q82 0 128.5 37.5zM126 615v103q119 -53 220 -53q102 0 215 53v-103q-112 -53 -215 -53q-104 0 -220 53z" />
    <glyph glyph-name="uni01D2" unicode="&#x1d2;" horiz-adv-x="685" 
d="M184 18.5q-68 30.5 -104.5 87.5t-36.5 134v15q0 78 36 135.5t104 88.5t161 31q92 0 159 -31t103 -88.5t36 -135.5v-15q0 -77 -36 -134t-103 -87.5t-159 -30.5t-160 30.5zM471.5 135.5q46.5 37.5 46.5 104.5v15q0 69 -46 107t-129 38q-85 0 -130.5 -37.5t-45.5 -107.5v-15
q0 -67 46.5 -104.5t129.5 -37.5q82 0 128.5 37.5zM126 730l217 -68l218 68v-106l-218 -67l-217 67v106z" />
    <glyph glyph-name="ocircumflex" unicode="&#xf4;" horiz-adv-x="685" 
d="M184 18.5q-68 30.5 -104.5 87.5t-36.5 134v15q0 78 36 135.5t104 88.5t161 31q92 0 159 -31t103 -88.5t36 -135.5v-15q0 -77 -36 -134t-103 -87.5t-159 -30.5t-160 30.5zM471.5 135.5q46.5 37.5 46.5 104.5v15q0 69 -46 107t-129 38q-85 0 -130.5 -37.5t-45.5 -107.5v-15
q0 -67 46.5 -104.5t129.5 -37.5q82 0 128.5 37.5zM343 730l218 -68v-105l-218 67l-217 -67v105z" />
    <glyph glyph-name="odieresis" unicode="&#xf6;" horiz-adv-x="685" 
d="M184 18.5q-68 30.5 -104.5 87.5t-36.5 134v15q0 78 36 135.5t104 88.5t161 31q92 0 159 -31t103 -88.5t36 -135.5v-15q0 -77 -36 -134t-103 -87.5t-159 -30.5t-160 30.5zM471.5 135.5q46.5 37.5 46.5 104.5v15q0 69 -46 107t-129 38q-85 0 -130.5 -37.5t-45.5 -107.5v-15
q0 -67 46.5 -104.5t129.5 -37.5q82 0 128.5 37.5zM159 588.5q-21 19.5 -21 51.5q0 31 21 50.5t55 19.5q32 0 52.5 -19.5t20.5 -50.5t-20.5 -51t-52.5 -20q-34 0 -55 19.5zM419 589q-21 20 -21 51t20.5 50.5t53.5 19.5t54 -19.5t21 -50.5t-21 -51t-54 -20q-32 0 -53 20z" />
    <glyph glyph-name="uni1ECD" unicode="&#x1ecd;" horiz-adv-x="685" 
d="M184 18.5q-68 30.5 -104.5 87.5t-36.5 134v15q0 78 36 135.5t104 88.5t161 31q92 0 159 -31t103 -88.5t36 -135.5v-15q0 -77 -36 -134t-103 -87.5t-159 -30.5t-160 30.5zM471.5 135.5q46.5 37.5 46.5 104.5v15q0 69 -46 107t-129 38q-85 0 -130.5 -37.5t-45.5 -107.5v-15
q0 -67 46.5 -104.5t129.5 -37.5q82 0 128.5 37.5zM286 -196q-22 21 -22 53q0 33 22 54t57 21t57 -21t22 -54t-22 -53.5t-57 -20.5t-57 21z" />
    <glyph glyph-name="ograve" unicode="&#xf2;" horiz-adv-x="685" 
d="M184 18.5q-68 30.5 -104.5 87.5t-36.5 134v15q0 78 36 135.5t104 88.5t161 31q92 0 159 -31t103 -88.5t36 -135.5v-15q0 -77 -36 -134t-103 -87.5t-159 -30.5t-160 30.5zM471.5 135.5q46.5 37.5 46.5 104.5v15q0 69 -46 107t-129 38q-85 0 -130.5 -37.5t-45.5 -107.5v-15
q0 -67 46.5 -104.5t129.5 -37.5q82 0 128.5 37.5zM126 731l435 -70v-104l-435 71v103z" />
    <glyph glyph-name="ohungarumlaut" unicode="&#x151;" horiz-adv-x="685" 
d="M184 18.5q-68 30.5 -104.5 87.5t-36.5 134v15q0 78 36 135.5t104 88.5t161 31q92 0 159 -31t103 -88.5t36 -135.5v-15q0 -77 -36 -134t-103 -87.5t-159 -30.5t-160 30.5zM471.5 135.5q46.5 37.5 46.5 104.5v15q0 69 -46 107t-129 38q-85 0 -130.5 -37.5t-45.5 -107.5v-15
q0 -67 46.5 -104.5t129.5 -37.5q82 0 128.5 37.5zM374 730v-105l-267 -68v105zM665 730v-105l-265 -68v105z" />
    <glyph glyph-name="omacron" unicode="&#x14d;" horiz-adv-x="685" 
d="M184 18.5q-68 30.5 -104.5 87.5t-36.5 134v15q0 78 36 135.5t104 88.5t161 31q92 0 159 -31t103 -88.5t36 -135.5v-15q0 -77 -36 -134t-103 -87.5t-159 -30.5t-160 30.5zM471.5 135.5q46.5 37.5 46.5 104.5v15q0 69 -46 107t-129 38q-85 0 -130.5 -37.5t-45.5 -107.5v-15
q0 -67 46.5 -104.5t129.5 -37.5q82 0 128.5 37.5zM561 692v-103h-435v103h435z" />
    <glyph glyph-name="oslash" unicode="&#xf8;" horiz-adv-x="685" 
d="M618 369.5q24 -50.5 24 -114.5v-15q0 -77 -36 -134t-103 -87.5t-159 -30.5q-55 0 -98 10l-34 -52h-127v15l53 84q-46 32 -70.5 82t-24.5 113v15q0 78 36 135.5t104 88.5t161 31q55 0 96 -10l33 51h128v-15l-53 -83q46 -33 70 -83.5zM167 241q0 -61 37 -96l168 254
q-9 1 -29 1q-84 0 -130 -38.5t-46 -108.5v-12zM518 253q0 61 -36 99l-169 -253q10 -1 30 -1q82 0 128.5 38t46.5 105v12z" />
    <glyph glyph-name="oslashacute" unicode="&#x1ff;" horiz-adv-x="685" 
d="M618 369.5q24 -50.5 24 -114.5v-15q0 -77 -36 -134t-103 -87.5t-159 -30.5q-55 0 -98 10l-34 -52h-127v15l53 84q-46 32 -70.5 82t-24.5 113v15q0 78 36 135.5t104 88.5t161 31q55 0 96 -10l33 51h128v-15l-53 -83q46 -33 70 -83.5zM167 241q0 -61 37 -96l168 254
q-9 1 -29 1q-84 0 -130 -38.5t-46 -108.5v-12zM518 253q0 61 -36 99l-169 -253q10 -1 30 -1q82 0 128.5 38t46.5 105v12zM561 730v-102l-435 -71v103z" />
    <glyph glyph-name="otilde" unicode="&#xf5;" horiz-adv-x="685" 
d="M184 18.5q-68 30.5 -104.5 87.5t-36.5 134v15q0 78 36 135.5t104 88.5t161 31q92 0 159 -31t103 -88.5t36 -135.5v-15q0 -77 -36 -134t-103 -87.5t-159 -30.5t-160 30.5zM471.5 135.5q46.5 37.5 46.5 104.5v15q0 69 -46 107t-129 38q-85 0 -130.5 -37.5t-45.5 -107.5v-15
q0 -67 46.5 -104.5t129.5 -37.5q82 0 128.5 37.5zM395.5 578q-24.5 4 -57.5 12q-62 15 -101 15q-57 0 -111 -27v102q58 28 112 28q40 0 102 -17q38 -9 60.5 -13t48.5 -4q55 0 112 25v-102q-53 -23 -114 -23q-27 0 -51.5 4z" />
    <glyph glyph-name="oe" unicode="&#x153;" horiz-adv-x="1114" 
d="M1071 209h-445q6 -54 48.5 -83t116.5 -29q64 0 105 20.5t46 54.5h129q-5 -55 -40.5 -97t-95.5 -64.5t-137 -22.5q-80 0 -140 24.5t-96 70.5q-36 -46 -95 -70.5t-136 -24.5q-87 0 -152 31t-100.5 88t-35.5 133v15q0 77 35.5 135t100.5 89t152 31q77 0 136.5 -25t95.5 -71
q36 46 95.5 71t136.5 25q84 0 146.5 -30t96 -86t33.5 -132v-53zM680.5 377q-39.5 -24 -50.5 -68h311q-12 44 -53 68t-105 24q-63 0 -102.5 -24zM501 253q0 70 -43.5 108.5t-122.5 38.5q-80 0 -124 -38.5t-44 -108.5v-12q0 -67 44.5 -105t123.5 -38q78 0 122 38t44 105v12z
" />
    <glyph glyph-name="thorn" unicode="&#xfe;" horiz-adv-x="710" 
d="M529.5 478.5q65.5 -31.5 101.5 -89t36 -133.5v-13q0 -75 -36 -133t-102.5 -90t-154.5 -32q-109 0 -175 54v-212h-120v866h120v-240q68 54 179 54q86 0 151.5 -31.5zM543 256q0 67 -47 105.5t-129 38.5q-54 0 -98.5 -18t-69.5 -49v-166q25 -32 70 -50.5t98 -18.5
q83 0 129.5 38.5t46.5 106.5v13z" />
    <glyph glyph-name="racute" unicode="&#x155;" horiz-adv-x="473" 
d="M460 498v-106h-111q-103 0 -146 -58v-334h-120v498h112l3 -49q64 49 167 49h95zM486 730v-102l-435 -71v103z" />
    <glyph glyph-name="rcaron" unicode="&#x159;" horiz-adv-x="473" 
d="M460 498v-106h-111q-103 0 -146 -58v-334h-120v498h112l3 -49q64 49 167 49h95zM51 730l217 -68l218 68v-106l-218 -67l-217 67v106z" />
    <glyph glyph-name="uni0157" unicode="&#x157;" horiz-adv-x="473" 
d="M460 498v-106h-111q-103 0 -146 -58v-334h-120v498h112l3 -49q64 49 167 49h95zM212 -58l-62 -174h-128l55 174h135z" />
    <glyph glyph-name="sacute" unicode="&#x15b;" horiz-adv-x="688" 
d="M133.5 31.5q-77.5 43.5 -77.5 121.5v7h120v-7q0 -30 42 -43.5t134 -13.5q155 0 155 49v6q0 18 -22 27t-81 15l-122 12q-109 10 -159 44.5t-50 97.5v10q0 72 72.5 112.5t202.5 40.5q134 0 207.5 -43t73.5 -122v-7h-120v7q0 30 -39.5 43.5t-125.5 13.5q-71 0 -109 -11
t-38 -31v-6q0 -19 20 -28.5t66 -14.5l124 -12q118 -11 171 -46t53 -100v-10q0 -73 -75 -114t-207 -41q-138 0 -215.5 43.5zM567 730v-102l-435 -71v103z" />
    <glyph glyph-name="scaron" unicode="&#x161;" horiz-adv-x="688" 
d="M133.5 31.5q-77.5 43.5 -77.5 121.5v7h120v-7q0 -30 42 -43.5t134 -13.5q155 0 155 49v6q0 18 -22 27t-81 15l-122 12q-109 10 -159 44.5t-50 97.5v10q0 72 72.5 112.5t202.5 40.5q134 0 207.5 -43t73.5 -122v-7h-120v7q0 30 -39.5 43.5t-125.5 13.5q-71 0 -109 -11
t-38 -31v-6q0 -19 20 -28.5t66 -14.5l124 -12q118 -11 171 -46t53 -100v-10q0 -73 -75 -114t-207 -41q-138 0 -215.5 43.5zM132 730l217 -68l218 68v-106l-218 -67l-217 67v106z" />
    <glyph glyph-name="scedilla" unicode="&#x15f;" horiz-adv-x="688" 
d="M133.5 31.5q-77.5 43.5 -77.5 121.5v7h120v-7q0 -30 42 -43.5t134 -13.5q155 0 155 49v6q0 18 -22 27t-81 15l-122 12q-109 10 -159 44.5t-50 97.5v10q0 72 72.5 112.5t202.5 40.5q134 0 207.5 -43t73.5 -122v-7h-120v7q0 30 -39.5 43.5t-125.5 13.5q-71 0 -109 -11
t-38 -31v-6q0 -19 20 -28.5t66 -14.5l124 -12q118 -11 171 -46t53 -100v-10q0 -73 -75 -114t-207 -41q-138 0 -215.5 43.5zM411 0l-49 -170h-134l60 208z" />
    <glyph glyph-name="scircumflex" unicode="&#x15d;" horiz-adv-x="688" 
d="M133.5 31.5q-77.5 43.5 -77.5 121.5v7h120v-7q0 -30 42 -43.5t134 -13.5q155 0 155 49v6q0 18 -22 27t-81 15l-122 12q-109 10 -159 44.5t-50 97.5v10q0 72 72.5 112.5t202.5 40.5q134 0 207.5 -43t73.5 -122v-7h-120v7q0 30 -39.5 43.5t-125.5 13.5q-71 0 -109 -11
t-38 -31v-6q0 -19 20 -28.5t66 -14.5l124 -12q118 -11 171 -46t53 -100v-10q0 -73 -75 -114t-207 -41q-138 0 -215.5 43.5zM349 730l218 -68v-105l-218 67l-217 -67v105z" />
    <glyph glyph-name="uni0219" unicode="&#x219;" horiz-adv-x="688" 
d="M133.5 31.5q-77.5 43.5 -77.5 121.5v7h120v-7q0 -30 42 -43.5t134 -13.5q155 0 155 49v6q0 18 -22 27t-81 15l-122 12q-109 10 -159 44.5t-50 97.5v10q0 72 72.5 112.5t202.5 40.5q134 0 207.5 -43t73.5 -122v-7h-120v7q0 30 -39.5 43.5t-125.5 13.5q-71 0 -109 -11
t-38 -31v-6q0 -19 20 -28.5t66 -14.5l124 -12q118 -11 171 -46t53 -100v-10q0 -73 -75 -114t-207 -41q-138 0 -215.5 43.5zM412 -58l-62 -174h-128l55 174h135z" />
    <glyph glyph-name="uni1E63" unicode="&#x1e63;" horiz-adv-x="688" 
d="M133.5 31.5q-77.5 43.5 -77.5 121.5v7h120v-7q0 -30 42 -43.5t134 -13.5q155 0 155 49v6q0 18 -22 27t-81 15l-122 12q-109 10 -159 44.5t-50 97.5v10q0 72 72.5 112.5t202.5 40.5q134 0 207.5 -43t73.5 -122v-7h-120v7q0 30 -39.5 43.5t-125.5 13.5q-71 0 -109 -11
t-38 -31v-6q0 -19 20 -28.5t66 -14.5l124 -12q118 -11 171 -46t53 -100v-10q0 -73 -75 -114t-207 -41q-138 0 -215.5 43.5zM292 -196q-22 21 -22 53q0 33 22 54t57 21t57 -21t22 -54t-22 -53.5t-57 -20.5t-57 21z" />
    <glyph glyph-name="germandbls" unicode="&#xdf;" horiz-adv-x="723" 
d="M680 193v-9q0 -52 -27 -94t-77.5 -66t-117.5 -24h-120v106h99q58 0 90 23t32 66v7q0 80 -128 80h-89v106h68q55 0 86 24t31 68v13q0 50 -41 77.5t-115 27.5q-83 0 -127 -32t-44 -93v-473h-121l1 475q0 71 35 124t101 81t156 28q84 0 146.5 -25.5t96 -72.5t33.5 -110v-19
q0 -42 -17 -76t-49 -58q98 -44 98 -154z" />
    <glyph glyph-name="tbar" unicode="&#x167;" horiz-adv-x="558" 
d="M313 382v-71h221v-116h-221v-24q0 -30 17.5 -47.5t47.5 -17.5h122v-106h-128q-84 0 -132 45t-48 123v27h-176v116h176v71h-176v116h146q19 0 26 7t7 26v100h118v-133h221v-116h-221z" />
    <glyph glyph-name="tcaron" unicode="&#x165;" horiz-adv-x="570" 
d="M292 392v-220q0 -32 18 -49t52 -17h118v-106h-129q-83 0 -131 45t-48 123v224h-176v106h146q19 0 26 7t7 26v100h117v-133h218v-106h-218zM567 740l-57 -185h-118l27 185h148z" />
    <glyph glyph-name="uni0163" unicode="&#x163;" horiz-adv-x="520" 
d="M292 392v-220q0 -32 18 -49t52 -17h118v-106h-129q-83 0 -131 45t-48 123v224h-176v106h146q19 0 26 7t7 26v100h117v-133h218v-106h-218zM430 0l-49 -170h-134l60 208z" />
    <glyph glyph-name="uni021B" unicode="&#x21b;" horiz-adv-x="520" 
d="M292 392v-220q0 -32 18 -49t52 -17h118v-106h-129q-83 0 -131 45t-48 123v224h-176v106h146q19 0 26 7t7 26v100h117v-133h218v-106h-218zM431 -58l-62 -174h-128l55 174h135z" />
    <glyph glyph-name="uacute" unicode="&#xfa;" horiz-adv-x="711" 
d="M632 498v-498h-112l-4 54q-69 -64 -178 -66q-131 0 -198.5 66t-67.5 194v250h120v-250q0 -73 40.5 -111.5t117.5 -38.5q53 0 96.5 24.5t65.5 66.5v309h120zM570 730v-102l-435 -71v103z" />
    <glyph glyph-name="ubreve" unicode="&#x16d;" horiz-adv-x="711" 
d="M632 498v-498h-112l-4 54q-69 -64 -178 -66q-131 0 -198.5 66t-67.5 194v250h120v-250q0 -73 40.5 -111.5t117.5 -38.5q53 0 96.5 24.5t65.5 66.5v309h120zM135 615v103q119 -53 220 -53q102 0 215 53v-103q-112 -53 -215 -53q-104 0 -220 53z" />
    <glyph glyph-name="ucircumflex" unicode="&#xfb;" horiz-adv-x="711" 
d="M632 498v-498h-112l-4 54q-69 -64 -178 -66q-131 0 -198.5 66t-67.5 194v250h120v-250q0 -73 40.5 -111.5t117.5 -38.5q53 0 96.5 24.5t65.5 66.5v309h120zM352 730l218 -68v-105l-218 67l-217 -67v105z" />
    <glyph glyph-name="udieresis" unicode="&#xfc;" horiz-adv-x="711" 
d="M632 498v-498h-112l-4 54q-69 -64 -178 -66q-131 0 -198.5 66t-67.5 194v250h120v-250q0 -73 40.5 -111.5t117.5 -38.5q53 0 96.5 24.5t65.5 66.5v309h120zM168 588.5q-21 19.5 -21 51.5q0 31 21 50.5t55 19.5q32 0 52.5 -19.5t20.5 -50.5t-20.5 -51t-52.5 -20
q-34 0 -55 19.5zM428 589q-21 20 -21 51t20.5 50.5t53.5 19.5t54 -19.5t21 -50.5t-21 -51t-54 -20q-32 0 -53 20z" />
    <glyph glyph-name="uni1EE5" unicode="&#x1ee5;" horiz-adv-x="711" 
d="M632 498v-498h-112l-4 54q-69 -64 -178 -66q-131 0 -198.5 66t-67.5 194v250h120v-250q0 -73 40.5 -111.5t117.5 -38.5q53 0 96.5 24.5t65.5 66.5v309h120zM297 -196q-22 21 -22 53q0 33 22 54t57 21t57 -21t22 -54t-22 -53.5t-57 -20.5t-57 21z" />
    <glyph glyph-name="ugrave" unicode="&#xf9;" horiz-adv-x="711" 
d="M632 498v-498h-112l-4 54q-69 -64 -178 -66q-131 0 -198.5 66t-67.5 194v250h120v-250q0 -73 40.5 -111.5t117.5 -38.5q53 0 96.5 24.5t65.5 66.5v309h120zM135 731l435 -70v-104l-435 71v103z" />
    <glyph glyph-name="uhungarumlaut" unicode="&#x171;" horiz-adv-x="711" 
d="M632 498v-498h-112l-4 54q-69 -64 -178 -66q-131 0 -198.5 66t-67.5 194v250h120v-250q0 -73 40.5 -111.5t117.5 -38.5q53 0 96.5 24.5t65.5 66.5v309h120zM383 730v-105l-267 -68v105zM674 730v-105l-265 -68v105z" />
    <glyph glyph-name="umacron" unicode="&#x16b;" horiz-adv-x="711" 
d="M632 498v-498h-112l-4 54q-69 -64 -178 -66q-131 0 -198.5 66t-67.5 194v250h120v-250q0 -73 40.5 -111.5t117.5 -38.5q53 0 96.5 24.5t65.5 66.5v309h120zM570 692v-103h-435v103h435z" />
    <glyph glyph-name="uogonek" unicode="&#x173;" horiz-adv-x="711" 
d="M632 498v-498h-112l-4 54q-69 -64 -178 -66q-131 0 -198.5 66t-67.5 194v250h120v-250q0 -73 40.5 -111.5t117.5 -38.5q53 0 96.5 24.5t65.5 66.5v309h120zM435.5 -148.5q-30.5 21.5 -30.5 59.5q0 31 18.5 54.5t64.5 51.5l100 61l44 -78l-91 -46q-13 -7 -13 -14
q0 -11 18 -11h86v-99h-113q-53 0 -83.5 21.5z" />
    <glyph glyph-name="uring" unicode="&#x16f;" horiz-adv-x="711" 
d="M632 498v-498h-112l-4 54q-69 -64 -178 -66q-131 0 -198.5 66t-67.5 194v250h120v-250q0 -73 40.5 -111.5t117.5 -38.5q53 0 96.5 24.5t65.5 66.5v309h120zM229 576q-44 34 -44 97q0 62 45 97t122 35t122 -35t45 -97q0 -63 -44 -97t-123 -34t-123 34zM399 635
q16 13 16 38t-16.5 38.5t-46.5 13.5q-31 0 -47.5 -13.5t-16.5 -38.5q0 -24 16.5 -37.5t47.5 -13.5t47 13z" />
    <glyph glyph-name="utilde" unicode="&#x169;" horiz-adv-x="711" 
d="M632 498v-498h-112l-4 54q-69 -64 -178 -66q-131 0 -198.5 66t-67.5 194v250h120v-250q0 -73 40.5 -111.5t117.5 -38.5q53 0 96.5 24.5t65.5 66.5v309h120zM404.5 578q-24.5 4 -57.5 12q-62 15 -101 15q-57 0 -111 -27v102q58 28 112 28q40 0 102 -17q38 -9 60.5 -13
t48.5 -4q55 0 112 25v-102q-53 -23 -114 -23q-27 0 -51.5 4z" />
    <glyph glyph-name="wacute" unicode="&#x1e83;" horiz-adv-x="1067" 
d="M1039 498v-17l-202 -481h-158l-146 348l-145 -348h-157l-203 481v17h128l154 -387l161 387h123l165 -392l158 392h122zM752 730v-102l-435 -71v103z" />
    <glyph glyph-name="wcircumflex" unicode="&#x175;" horiz-adv-x="1067" 
d="M1039 498v-17l-202 -481h-158l-146 348l-145 -348h-157l-203 481v17h128l154 -387l161 387h123l165 -392l158 392h122zM534 730l218 -68v-105l-218 67l-217 -67v105z" />
    <glyph glyph-name="wdieresis" unicode="&#x1e85;" horiz-adv-x="1067" 
d="M1039 498v-17l-202 -481h-158l-146 348l-145 -348h-157l-203 481v17h128l154 -387l161 387h123l165 -392l158 392h122zM350 588.5q-21 19.5 -21 51.5q0 31 21 50.5t55 19.5q32 0 52.5 -19.5t20.5 -50.5t-20.5 -51t-52.5 -20q-34 0 -55 19.5zM610 589q-21 20 -21 51
t20.5 50.5t53.5 19.5t54 -19.5t21 -50.5t-21 -51t-54 -20q-32 0 -53 20z" />
    <glyph glyph-name="wgrave" unicode="&#x1e81;" horiz-adv-x="1067" 
d="M1039 498v-17l-202 -481h-158l-146 348l-145 -348h-157l-203 481v17h128l154 -387l161 387h123l165 -392l158 392h122zM317 731l435 -70v-104l-435 71v103z" />
    <glyph glyph-name="yacute" unicode="&#xfd;" horiz-adv-x="697" 
d="M669 498v-17l-272 -529q-34 -66 -81 -94t-124 -28h-113v106h112q38 0 56 11t34 44l-253 490v17h128l193 -386l192 386h128zM567 730v-102l-435 -71v103z" />
    <glyph glyph-name="ycircumflex" unicode="&#x177;" horiz-adv-x="697" 
d="M669 498v-17l-272 -529q-34 -66 -81 -94t-124 -28h-113v106h112q38 0 56 11t34 44l-253 490v17h128l193 -386l192 386h128zM349 730l218 -68v-105l-218 67l-217 -67v105z" />
    <glyph glyph-name="ydieresis" unicode="&#xff;" horiz-adv-x="697" 
d="M669 498v-17l-272 -529q-34 -66 -81 -94t-124 -28h-113v106h112q38 0 56 11t34 44l-253 490v17h128l193 -386l192 386h128zM165 588.5q-21 19.5 -21 51.5q0 31 21 50.5t55 19.5q32 0 52.5 -19.5t20.5 -50.5t-20.5 -51t-52.5 -20q-34 0 -55 19.5zM425 589q-21 20 -21 51
t20.5 50.5t53.5 19.5t54 -19.5t21 -50.5t-21 -51t-54 -20q-32 0 -53 20z" />
    <glyph glyph-name="ygrave" unicode="&#x1ef3;" horiz-adv-x="697" 
d="M669 498v-17l-272 -529q-34 -66 -81 -94t-124 -28h-113v106h112q38 0 56 11t34 44l-253 490v17h128l193 -386l192 386h128zM132 731l435 -70v-104l-435 71v103z" />
    <glyph glyph-name="uni0233" unicode="&#x233;" horiz-adv-x="697" 
d="M669 498v-17l-272 -529q-34 -66 -81 -94t-124 -28h-113v106h112q38 0 56 11t34 44l-253 490v17h128l193 -386l192 386h128zM567 692v-103h-435v103h435z" />
    <glyph glyph-name="uni1EF9" unicode="&#x1ef9;" horiz-adv-x="697" 
d="M669 498v-17l-272 -529q-34 -66 -81 -94t-124 -28h-113v106h112q38 0 56 11t34 44l-253 490v17h128l193 -386l192 386h128zM401.5 578q-24.5 4 -57.5 12q-62 15 -101 15q-57 0 -111 -27v102q58 28 112 28q40 0 102 -17q38 -9 60.5 -13t48.5 -4q55 0 112 25v-102
q-53 -23 -114 -23q-27 0 -51.5 4z" />
    <glyph glyph-name="zacute" unicode="&#x17a;" horiz-adv-x="642" 
d="M581 396l-357 -293h357v-103h-519v102l355 292h-355v104h519v-102zM543 730v-102l-435 -71v103z" />
    <glyph glyph-name="zcaron" unicode="&#x17e;" horiz-adv-x="642" 
d="M581 396l-357 -293h357v-103h-519v102l355 292h-355v104h519v-102zM108 730l217 -68l218 68v-106l-218 -67l-217 67v106z" />
    <glyph glyph-name="zdotaccent" unicode="&#x17c;" horiz-adv-x="642" 
d="M581 396l-357 -293h357v-103h-519v102l355 292h-355v104h519v-102zM268 587q-22 21 -22 54q0 32 22 53t57 21t57 -20.5t22 -53.5t-22 -54t-57 -21t-57 21z" />
    <glyph glyph-name="iacute_j.loclNLD" horiz-adv-x="572" 
d="M203 498v-498h-120v498h120zM285 719v-103l-284 -47v102zM296 -64q36 0 54.5 18.5t18.5 53.5v490h120v-493q0 -81 -51 -128t-138 -47h-89v106h85zM571 719v-103l-284 -47v102z" />
    <glyph glyph-name="a.ss05" horiz-adv-x="693" 
d="M546.5 452q74.5 -58 74.5 -161v-291h-112l-4 55q-68 -67 -211 -67q-113 0 -173.5 39t-60.5 112q0 63 43.5 98.5t131.5 45.5l264 28q-8 41 -49.5 63t-111.5 22t-111 -21.5t-41 -57.5v-3h-123v3q0 57 34.5 101t97 68t144.5 24q133 0 207.5 -58zM423.5 118q55.5 24 77.5 70
v25l-240 -25q-37 -4 -59 -17t-22 -32q0 -45 108 -45q80 0 135.5 24z" />
    <glyph glyph-name="aacute.ss05" horiz-adv-x="693" 
d="M546.5 452q74.5 -58 74.5 -161v-291h-112l-4 55q-68 -67 -211 -67q-113 0 -173.5 39t-60.5 112q0 63 43.5 98.5t131.5 45.5l264 28q-8 41 -49.5 63t-111.5 22t-111 -21.5t-41 -57.5v-3h-123v3q0 57 34.5 101t97 68t144.5 24q133 0 207.5 -58zM423.5 118q55.5 24 77.5 70
v25l-240 -25q-37 -4 -59 -17t-22 -32q0 -45 108 -45q80 0 135.5 24zM562 730v-102l-435 -71v103z" />
    <glyph glyph-name="abreve.ss05" horiz-adv-x="693" 
d="M546.5 452q74.5 -58 74.5 -161v-291h-112l-4 55q-68 -67 -211 -67q-113 0 -173.5 39t-60.5 112q0 63 43.5 98.5t131.5 45.5l264 28q-8 41 -49.5 63t-111.5 22t-111 -21.5t-41 -57.5v-3h-123v3q0 57 34.5 101t97 68t144.5 24q133 0 207.5 -58zM423.5 118q55.5 24 77.5 70
v25l-240 -25q-37 -4 -59 -17t-22 -32q0 -45 108 -45q80 0 135.5 24zM127 615v103q119 -53 220 -53q102 0 215 53v-103q-112 -53 -215 -53q-104 0 -220 53z" />
    <glyph glyph-name="uni01CE.ss05" horiz-adv-x="693" 
d="M546.5 452q74.5 -58 74.5 -161v-291h-112l-4 55q-68 -67 -211 -67q-113 0 -173.5 39t-60.5 112q0 63 43.5 98.5t131.5 45.5l264 28q-8 41 -49.5 63t-111.5 22t-111 -21.5t-41 -57.5v-3h-123v3q0 57 34.5 101t97 68t144.5 24q133 0 207.5 -58zM423.5 118q55.5 24 77.5 70
v25l-240 -25q-37 -4 -59 -17t-22 -32q0 -45 108 -45q80 0 135.5 24zM127 730l217 -68l218 68v-106l-218 -67l-217 67v106z" />
    <glyph glyph-name="acircumflex.ss05" horiz-adv-x="693" 
d="M546.5 452q74.5 -58 74.5 -161v-291h-112l-4 55q-68 -67 -211 -67q-113 0 -173.5 39t-60.5 112q0 63 43.5 98.5t131.5 45.5l264 28q-8 41 -49.5 63t-111.5 22t-111 -21.5t-41 -57.5v-3h-123v3q0 57 34.5 101t97 68t144.5 24q133 0 207.5 -58zM423.5 118q55.5 24 77.5 70
v25l-240 -25q-37 -4 -59 -17t-22 -32q0 -45 108 -45q80 0 135.5 24zM344 730l218 -68v-105l-218 67l-217 -67v105z" />
    <glyph glyph-name="adieresis.ss05" horiz-adv-x="693" 
d="M546.5 452q74.5 -58 74.5 -161v-291h-112l-4 55q-68 -67 -211 -67q-113 0 -173.5 39t-60.5 112q0 63 43.5 98.5t131.5 45.5l264 28q-8 41 -49.5 63t-111.5 22t-111 -21.5t-41 -57.5v-3h-123v3q0 57 34.5 101t97 68t144.5 24q133 0 207.5 -58zM423.5 118q55.5 24 77.5 70
v25l-240 -25q-37 -4 -59 -17t-22 -32q0 -45 108 -45q80 0 135.5 24zM160 588.5q-21 19.5 -21 51.5q0 31 21 50.5t55 19.5q32 0 52.5 -19.5t20.5 -50.5t-20.5 -51t-52.5 -20q-34 0 -55 19.5zM420 589q-21 20 -21 51t20.5 50.5t53.5 19.5t54 -19.5t21 -50.5t-21 -51t-54 -20
q-32 0 -53 20z" />
    <glyph glyph-name="agrave.ss05" horiz-adv-x="693" 
d="M546.5 452q74.5 -58 74.5 -161v-291h-112l-4 55q-68 -67 -211 -67q-113 0 -173.5 39t-60.5 112q0 63 43.5 98.5t131.5 45.5l264 28q-8 41 -49.5 63t-111.5 22t-111 -21.5t-41 -57.5v-3h-123v3q0 57 34.5 101t97 68t144.5 24q133 0 207.5 -58zM423.5 118q55.5 24 77.5 70
v25l-240 -25q-37 -4 -59 -17t-22 -32q0 -45 108 -45q80 0 135.5 24zM127 731l435 -70v-104l-435 71v103z" />
    <glyph glyph-name="amacron.ss05" horiz-adv-x="693" 
d="M546.5 452q74.5 -58 74.5 -161v-291h-112l-4 55q-68 -67 -211 -67q-113 0 -173.5 39t-60.5 112q0 63 43.5 98.5t131.5 45.5l264 28q-8 41 -49.5 63t-111.5 22t-111 -21.5t-41 -57.5v-3h-123v3q0 57 34.5 101t97 68t144.5 24q133 0 207.5 -58zM423.5 118q55.5 24 77.5 70
v25l-240 -25q-37 -4 -59 -17t-22 -32q0 -45 108 -45q80 0 135.5 24zM562 692v-103h-435v103h435z" />
    <glyph glyph-name="aogonek.ss05" horiz-adv-x="693" 
d="M546.5 452q74.5 -58 74.5 -161v-291h-112l-4 55q-68 -67 -211 -67q-113 0 -173.5 39t-60.5 112q0 63 43.5 98.5t131.5 45.5l264 28q-8 41 -49.5 63t-111.5 22t-111 -21.5t-41 -57.5v-3h-123v3q0 57 34.5 101t97 68t144.5 24q133 0 207.5 -58zM423.5 118q55.5 24 77.5 70
v25l-240 -25q-37 -4 -59 -17t-22 -32q0 -45 108 -45q80 0 135.5 24zM424.5 -148.5q-30.5 21.5 -30.5 59.5q0 31 18.5 54.5t64.5 51.5l100 61l44 -78l-91 -46q-13 -7 -13 -14q0 -11 18 -11h86v-99h-113q-53 0 -83.5 21.5z" />
    <glyph glyph-name="aring.ss05" horiz-adv-x="693" 
d="M546.5 452q74.5 -58 74.5 -161v-291h-112l-4 55q-68 -67 -211 -67q-113 0 -173.5 39t-60.5 112q0 63 43.5 98.5t131.5 45.5l264 28q-8 41 -49.5 63t-111.5 22t-111 -21.5t-41 -57.5v-3h-123v3q0 57 34.5 101t97 68t144.5 24q133 0 207.5 -58zM423.5 118q55.5 24 77.5 70
v25l-240 -25q-37 -4 -59 -17t-22 -32q0 -45 108 -45q80 0 135.5 24zM221 576q-44 34 -44 97q0 62 45 97t122 35t122 -35t45 -97q0 -63 -44 -97t-123 -34t-123 34zM391 635q16 13 16 38t-16.5 38.5t-46.5 13.5q-31 0 -47.5 -13.5t-16.5 -38.5q0 -24 16.5 -37.5t47.5 -13.5
t47 13z" />
    <glyph glyph-name="atilde.ss05" horiz-adv-x="693" 
d="M546.5 452q74.5 -58 74.5 -161v-291h-112l-4 55q-68 -67 -211 -67q-113 0 -173.5 39t-60.5 112q0 63 43.5 98.5t131.5 45.5l264 28q-8 41 -49.5 63t-111.5 22t-111 -21.5t-41 -57.5v-3h-123v3q0 57 34.5 101t97 68t144.5 24q133 0 207.5 -58zM423.5 118q55.5 24 77.5 70
v25l-240 -25q-37 -4 -59 -17t-22 -32q0 -45 108 -45q80 0 135.5 24zM396.5 578q-24.5 4 -57.5 12q-62 15 -101 15q-57 0 -111 -27v102q58 28 112 28q40 0 102 -17q38 -9 60.5 -13t48.5 -4q55 0 112 25v-102q-53 -23 -114 -23q-27 0 -51.5 4z" />
    <glyph glyph-name="l.ss06" horiz-adv-x="286" 
d="M203 696v-696h-120v696h120z" />
    <glyph glyph-name="lacute.ss06" horiz-adv-x="286" 
d="M203 696v-696h-120v696h120zM285 917v-103l-284 -47v102z" />
    <glyph glyph-name="lcaron.ss06" horiz-adv-x="496" 
d="M203 696v-696h-120v696h120zM478 696l-57 -185h-118l27 185h148z" />
    <glyph glyph-name="uni013C.ss06" horiz-adv-x="286" 
d="M203 696v-696h-120v696h120zM206 -58l-62 -174h-128l55 174h135z" />
    <glyph glyph-name="ldot.ss06" horiz-adv-x="407" 
d="M203 0h-120v696h120v-696zM295 270q-21 20 -21 52t21 52t53 20t53 -20t21 -52t-21 -52t-53 -20t-53 20z" />
    <glyph glyph-name="lslash.ss06" horiz-adv-x="368" 
d="M367 364l-123 -26v-338h-120v318l-123 -27v106l123 27v272h120v-252l123 26v-106z" />
    <glyph glyph-name="fi" unicode="&#xfb01;" horiz-adv-x="786" 
d="M497 392h-216v-392h-121v392h-164v106h164v37q0 74 45.5 117.5t122.5 43.5h129v-106h-113q-63 0 -63 -62v-30h216v-106zM703 498v-498h-120v498h120zM586 587q-22 21 -22 54q0 32 22 53t57 21t57 -20.5t22 -53.5t-22 -54t-57 -21t-57 21z" />
    <glyph glyph-name="fl" unicode="&#xfb02;" horiz-adv-x="819" 
d="M497 392h-216v-392h-121v392h-164v106h164v37q0 74 45.5 117.5t122.5 43.5h129v-106h-113q-63 0 -63 -62v-30h216v-106zM624 36q-41 36 -41 103v557h120v-536q0 -29 14 -41.5t46 -12.5h43v-106h-65q-76 0 -117 36z" />
    <glyph glyph-name="fl.ss06" horiz-adv-x="786" 
d="M497 392h-216v-392h-121v392h-164v106h164v37q0 74 45.5 117.5t122.5 43.5h129v-106h-113q-63 0 -63 -62v-30h216v-106zM703 696v-696h-120v696h120z" />
    <glyph glyph-name="ordfeminine" unicode="&#xaa;" horiz-adv-x="606" 
d="M602 343v-98h-68q-36 0 -63.5 12t-43.5 35q-63 -57 -184 -57q-95 0 -148 33t-53 91q0 50 39 81t110 39l218 23q-14 65 -126 65q-60 0 -93.5 -16t-33.5 -45v-3h-111v3q0 72 65 114t174 42q112 0 174.5 -47.5t62.5 -132.5v-105q0 -34 43 -34h38zM343 338.5q46 17.5 67 46.5
v34l-191 -19q-34 -4 -50.5 -14t-16.5 -27q0 -38 88 -38q57 0 103 17.5z" />
    <glyph glyph-name="ordmasculine" unicode="&#xba;" horiz-adv-x="575" 
d="M97.5 291q-69.5 56 -69.5 151v11q0 97 69.5 153t190.5 56q120 0 189 -56t69 -153v-11q0 -96 -68.5 -151.5t-189.5 -55.5t-190.5 56zM393.5 364q38.5 28 38.5 79v8q0 53 -38 81.5t-106 28.5q-69 0 -107.5 -28.5t-38.5 -81.5v-8q0 -51 38.5 -79t107.5 -28q67 0 105.5 28z
" />
    <glyph glyph-name="ordfeminine.case" horiz-adv-x="532" 
d="M524 260v-17h-113l-35 75h-217l-35 -75h-113v17l193 396h127zM332 413l-64 138l-65 -138h129z" />
    <glyph glyph-name="ordfeminine.ss05" horiz-adv-x="576" 
d="M463.5 614.5q64.5 -47.5 64.5 -132.5v-237h-103l-3 36q-62 -46 -175 -46q-98 0 -151.5 32t-53.5 90q0 52 38.5 83t110.5 39l224 23q-8 32 -42 48.5t-91 16.5t-90.5 -16.5t-33.5 -44.5v-3h-113v3q0 72 65 114t174 42q115 0 179.5 -47.5zM350 338.5q47 17.5 67 47.5v33
l-192 -19q-73 -8 -73 -41q0 -38 90 -38q61 0 108 17.5z" />
    <glyph glyph-name="uni0410" unicode="&#x410;" horiz-adv-x="770" 
d="M754 19v-19h-127l-68 150h-348l-68 -150h-127v19l300 637h138zM507 262l-122 268l-122 -268h244z" />
    <glyph glyph-name="uni0411" unicode="&#x411;" horiz-adv-x="785" 
d="M677 656v-112h-467v-150h274q117 0 180.5 -49.5t63.5 -141.5v-12q0 -91 -64 -141t-180 -50h-399v656h592zM570 133q32 21 32 58v12q0 37 -32 58t-88 21h-272v-170h272q56 0 88 21z" />
    <glyph glyph-name="uni0412" unicode="&#x412;" horiz-adv-x="785" 
d="M702 281.5q25 -35.5 25 -84.5v-11q0 -56 -29.5 -98t-83.5 -65t-126 -23h-403v656h383q113 0 175.5 -44.5t62.5 -125.5v-11q0 -90 -76 -138q47 -20 72 -55.5zM210 544v-157h257q57 0 84.5 18t27.5 55v11q0 36 -28.5 54.5t-82.5 18.5h-258zM600 201q0 37 -28 55.5t-86 18.5
h-276v-163h276q54 0 84 20.5t30 57.5v11z" />
    <glyph glyph-name="uni0413" unicode="&#x413;" horiz-adv-x="627" 
d="M614 656v-112h-404v-544h-125v656h529z" />
    <glyph glyph-name="uni0403" unicode="&#x403;" horiz-adv-x="627" 
d="M614 656v-112h-404v-544h-125v656h529zM572 888v-102l-435 -71v103z" />
    <glyph glyph-name="uni0490" unicode="&#x490;" horiz-adv-x="627" 
d="M479 656v133h125v-245h-394v-544h-125v656h394z" />
    <glyph glyph-name="uni0414" unicode="&#x414;" horiz-adv-x="867" 
d="M833 112v-245h-125v133h-563v-133h-125v245h84q59 93 60 227l5 317h562v-544h102zM229 112h378v432h-322l-5 -209q-3 -135 -51 -223z" />
    <glyph glyph-name="uni0415" unicode="&#x415;" horiz-adv-x="723" 
d="M656 656v-112h-446v-159h426v-112h-426v-161h446v-112h-571v656h571z" />
    <glyph glyph-name="uni0400" unicode="&#x400;" horiz-adv-x="723" 
d="M656 656v-112h-446v-159h426v-112h-426v-161h446v-112h-571v656h571zM153 889l435 -70v-104l-435 71v103z" />
    <glyph glyph-name="uni0401" unicode="&#x401;" horiz-adv-x="723" 
d="M656 656v-112h-446v-159h426v-112h-426v-161h446v-112h-571v656h571zM186 746.5q-21 19.5 -21 51.5q0 31 21 50.5t55 19.5q32 0 52.5 -19.5t20.5 -50.5t-20.5 -51t-52.5 -20q-34 0 -55 19.5zM446 747q-21 20 -21 51t20.5 50.5t53.5 19.5t54 -19.5t21 -50.5t-21 -51
t-54 -20q-32 0 -53 20z" />
    <glyph glyph-name="uni0416" unicode="&#x416;" horiz-adv-x="1257" 
d="M1203 637l-277 -301l265 -317v-19h-143l-236 276h-121v-276h-125v276h-121l-236 -276h-143v19l266 317l-278 301v19h148l245 -267h119v267h125v-267h119l245 267h148v-19z" />
    <glyph glyph-name="uni0417" unicode="&#x417;" horiz-adv-x="833" 
d="M767.5 279.5q25.5 -33.5 25.5 -77.5v-12q0 -96 -92 -149t-258 -53q-184 0 -281 70.5t-97 204.5v7h126v-7q0 -82 61.5 -120.5t193.5 -38.5q114 0 167 21.5t53 68.5v10q0 26 -17.5 41t-57.5 21.5t-112 6.5h-164v112h158q98 0 137.5 16.5t39.5 56.5v10q0 84 -216 84
q-122 0 -180.5 -39.5t-58.5 -120.5v-7h-126v7q0 133 95 204.5t272 71.5q161 0 251 -51.5t90 -142.5v-12q0 -41 -21 -73.5t-62 -54.5q48 -21 73.5 -54.5z" />
    <glyph glyph-name="uni0418" unicode="&#x418;" horiz-adv-x="819" 
d="M210 656v-486l399 486h125v-656h-125v486l-399 -486h-125v656h125z" />
    <glyph glyph-name="uni0419" unicode="&#x419;" horiz-adv-x="819" 
d="M210 656v-486l399 486h125v-656h-125v486l-399 -486h-125v656h125zM249 756q-55 38 -55 111v7h111v-7q0 -23 27.5 -35.5t77.5 -12.5q47 0 73 12.5t26 35.5v7h117v-7q0 -73 -54.5 -111t-161.5 -38q-106 0 -161 38z" />
    <glyph glyph-name="uni040D" unicode="&#x40d;" horiz-adv-x="819" 
d="M210 656v-486l399 486h125v-656h-125v486l-399 -486h-125v656h125zM193 889l435 -70v-104l-435 71v103z" />
    <glyph glyph-name="uni041A" unicode="&#x41a;" horiz-adv-x="803" 
d="M749 637l-294 -301l282 -317v-19h-146l-251 277h-130v-277h-125v656h125v-267h129l259 267h151v-19z" />
    <glyph glyph-name="uni040C" unicode="&#x40c;" horiz-adv-x="803" 
d="M749 637l-294 -301l282 -317v-19h-146l-251 277h-130v-277h-125v656h125v-267h129l259 267h151v-19zM615 888v-102l-435 -71v103z" />
    <glyph glyph-name="uni041B" unicode="&#x41b;" horiz-adv-x="794" 
d="M709 0h-125v544l-316 -1l-4 -276q-2 -137 -54.5 -202t-161.5 -65h-48v112h25q45 0 71 15.5t37.5 51t12.5 98.5l6 379h557v-656z" />
    <glyph glyph-name="uni041C" unicode="&#x41c;" horiz-adv-x="1029" 
d="M944 0h-124v491l-241 -491h-129l-241 493v-493h-124v656h176l254 -515l253 515h176v-656z" />
    <glyph glyph-name="uni041D" unicode="&#x41d;" horiz-adv-x="819" 
d="M210 656v-272h399v272h125v-656h-125v272h-399v-272h-125v656h125z" />
    <glyph glyph-name="uni041E" unicode="&#x41e;" horiz-adv-x="877" 
d="M236.5 29q-86.5 41 -133.5 116.5t-47 176.5v11q0 101 47 177t134 117t202 41t201.5 -41t133.5 -117t47 -177v-11q0 -101 -47 -176.5t-133 -116.5t-202 -41t-202.5 41zM627.5 160.5q66.5 56.5 66.5 159.5v14q0 103 -66.5 160.5t-188.5 57.5t-189 -57.5t-67 -160.5v-14
q0 -103 67 -159.5t189 -56.5t188.5 56.5z" />
    <glyph glyph-name="uni041F" unicode="&#x41f;" horiz-adv-x="799" 
d="M714 656v-656h-125v544h-379v-544h-125v656h629z" />
    <glyph glyph-name="uni0420" unicode="&#x420;" horiz-adv-x="787" 
d="M495 656q113 0 178.5 -54.5t65.5 -148.5v-11q0 -94 -65.5 -148.5t-178.5 -54.5h-285v-239h-125v656h410zM581 374.5q31 23.5 31 67.5v11q0 44 -31 67.5t-89 23.5h-282v-193h282q58 0 89 23.5z" />
    <glyph glyph-name="uni0421" unicode="&#x421;" horiz-adv-x="874" 
d="M239 29q-88 41 -135.5 116t-47.5 176v13q0 101 47.5 176.5t135.5 116.5t205 41q107 0 192.5 -35.5t134 -98.5t48.5 -141v-8h-127v8q0 45 -31.5 81.5t-88.5 57t-128 20.5q-126 0 -193.5 -56t-67.5 -160v-17q0 -104 67 -159.5t194 -55.5q73 0 129.5 20t87.5 56t31 82v8h127
v-8q0 -78 -48.5 -140.5t-134 -98t-192.5 -35.5q-117 0 -205 41z" />
    <glyph glyph-name="uni0422" unicode="&#x422;" horiz-adv-x="691" 
d="M13 544v112h665v-112h-270v-544h-125v544h-270z" />
    <glyph glyph-name="uni0423" unicode="&#x423;" horiz-adv-x="738" 
d="M752 656v-19l-274 -499q-43 -78 -89.5 -108t-123.5 -30h-132v112h132q29 0 46 6t30 22l-304 497v19h132l241 -400l212 400h130z" />
    <glyph glyph-name="uni040E" unicode="&#x40e;" horiz-adv-x="763" 
d="M752 656v-19l-274 -499q-43 -78 -89.5 -108t-123.5 -30h-132v112h132q29 0 46 6t30 22l-304 497v19h132l241 -400l212 400h130zM242 756q-55 38 -55 111v7h111v-7q0 -23 27.5 -35.5t77.5 -12.5q47 0 73 12.5t26 35.5v7h117v-7q0 -73 -54.5 -111t-161.5 -38
q-106 0 -161 38z" />
    <glyph glyph-name="uni0424" unicode="&#x424;" horiz-adv-x="1096" 
d="M961 530q87 -71 87 -199v-7q0 -128 -86.5 -198t-244.5 -70h-106v-68h-125v68h-108q-158 0 -244 70t-86 198v7q0 129 86 199.5t244 70.5h108v67h125v-67h106q157 0 244 -71zM223.5 205q48.5 -37 154.5 -37h108v321h-108q-105 0 -154 -38t-49 -119v-10q0 -80 48.5 -117z
M921 332q0 80 -50 118.5t-154 38.5h-106v-321h106q106 0 155 37t49 117v10z" />
    <glyph glyph-name="uni0425" unicode="&#x425;" horiz-adv-x="819" 
d="M765 637l-265 -309l265 -309v-19h-148l-207 245l-208 -245h-148v19l265 309l-265 309v19h148l208 -245l208 245h147v-19z" />
    <glyph glyph-name="uni0427" unicode="&#x427;" horiz-adv-x="799" 
d="M714 656v-656h-125v233q-126 -14 -209 -14q-314 0 -314 252v185h125v-177q0 -77 46 -110.5t153 -33.5q73 0 199 14v307h125z" />
    <glyph glyph-name="uni0426" unicode="&#x426;" horiz-adv-x="850" 
d="M816 112v-245h-125v133h-606v656h125v-544h379v544h125v-544h102z" />
    <glyph glyph-name="uni0428" unicode="&#x428;" horiz-adv-x="1159" 
d="M210 656v-544h307v544h125v-544h307v544h125v-656h-989v656h125z" />
    <glyph glyph-name="uni0429" unicode="&#x429;" horiz-adv-x="1208" 
d="M1174 112v-245h-125v133h-964v656h125v-544h306v544h125v-544h306v544h125v-544h102z" />
    <glyph glyph-name="uni040F" unicode="&#x40f;" horiz-adv-x="799" 
d="M714 0h-252v-143h-125v143h-252v656h125v-544h379v544h125v-656z" />
    <glyph glyph-name="uni042C" unicode="&#x42c;" horiz-adv-x="776" 
d="M210 656v-239h274q114 0 179 -54t65 -148v-13q0 -95 -65 -148.5t-179 -53.5h-399v656h125zM569.5 136q31.5 24 31.5 68v10q0 43 -32 67t-88 24h-271v-193h271q57 0 88.5 24z" />
    <glyph glyph-name="uni042A" unicode="&#x42a;" horiz-adv-x="937" 
d="M824 363q65 -54 65 -148v-13q0 -95 -65 -148.5t-179 -53.5h-399v544h-233v112h358v-239h274q114 0 179 -54zM762 214q0 43 -32 67t-88 24h-271v-193h271q57 0 88.5 24t31.5 68v10z" />
    <glyph glyph-name="uni042B" unicode="&#x42b;" horiz-adv-x="1013" 
d="M214 656v-240h269q114 0 179 -54t65 -148v-13q0 -95 -65 -148t-179 -53h-394v656h125zM924 656v-656h-125v656h125zM568.5 135q31.5 23 31.5 66v13q0 43 -32 66.5t-88 23.5h-266v-192h266q57 0 88.5 23z" />
    <glyph glyph-name="uni0409" unicode="&#x409;" horiz-adv-x="1240" 
d="M1127 362.5q65 -53.5 65 -147.5v-13q0 -95 -64.5 -148.5t-179.5 -53.5h-373v544h-307l-4 -277q-2 -137 -54.5 -202t-161.5 -65h-48v112h25q45 0 71 15.5t37.5 51t12.5 98.5l6 379h548v-240h248q114 0 179 -53.5zM1065 215q0 42 -31.5 65.5t-88.5 23.5h-245v-192h245
q58 0 89 23.5t31 66.5v13z" />
    <glyph glyph-name="uni040A" unicode="&#x40a;" horiz-adv-x="1276" 
d="M210 656v-262h395v262h125v-262h254q118 0 181 -49.5t63 -141.5v-13q0 -90 -64 -140t-180 -50h-379v282h-395v-282h-125v656h125zM1070.5 132q30.5 20 30.5 58v13q0 40 -29 59.5t-91 19.5h-251v-170h251q59 0 89.5 20z" />
    <glyph glyph-name="uni0405" unicode="&#x405;" horiz-adv-x="771" 
d="M146 45q-83 57 -83 167v9h125v-9q0 -112 208 -112q90 0 137.5 21t47.5 61v7q0 35 -28 52t-102 27l-158 22q-217 30 -217 176v10q0 90 79.5 141t224.5 51q153 0 233.5 -55t80.5 -160v-9h-125v9q0 103 -189 103q-86 0 -131.5 -20t-45.5 -57v-8q0 -30 26.5 -45.5t92.5 -24.5
l159 -22q117 -16 172 -60.5t55 -123.5v-10q0 -93 -83 -145t-235 -52q-161 0 -244 57z" />
    <glyph glyph-name="uni0404" unicode="&#x404;" horiz-adv-x="874" 
d="M692 385v6q0 46 -32 82.5t-88.5 57.5t-127.5 21q-111 0 -176.5 -43t-80.5 -125h361v-112h-361q14 -82 79.5 -125t177.5 -43q72 0 128.5 20.5t88 57t31.5 82.5v6h127v-6q0 -78 -49 -141t-134.5 -99t-191.5 -36q-118 0 -205.5 40.5t-135 115.5t-47.5 176v14
q0 101 47.5 176.5t135.5 116.5t205 41q106 0 191.5 -36t134.5 -99.5t49 -141.5v-6h-127z" />
    <glyph glyph-name="uni042D" unicode="&#x42d;" horiz-adv-x="874" 
d="M635 627q88 -41 135.5 -116t47.5 -176v-14q0 -101 -47.5 -176t-135.5 -116t-205 -41q-106 0 -191.5 36t-134.5 99t-49 141v6h127v-6q0 -46 31.5 -82.5t88 -57t128.5 -20.5q112 0 177.5 43t79.5 125h-361v112h361q-14 82 -80 125t-177 43q-71 0 -127.5 -21t-88.5 -57.5
t-32 -82.5v-6h-127v6q0 78 49 141.5t134.5 99.5t191.5 36q117 0 205 -41z" />
    <glyph glyph-name="uni0406" unicode="&#x406;" horiz-adv-x="299" 
d="M212 656v-656h-125v656h125z" />
    <glyph glyph-name="uni0407" unicode="&#x407;" horiz-adv-x="299" 
d="M212 656v-656h-125v656h125zM-34 746.5q-21 19.5 -21 51.5q0 31 21 50.5t55 19.5q32 0 52.5 -19.5t20.5 -50.5t-20.5 -51t-52.5 -20q-34 0 -55 19.5zM226 747q-21 20 -21 51t20.5 50.5t53.5 19.5t54 -19.5t21 -50.5t-21 -51t-54 -20q-32 0 -53 20z" />
    <glyph glyph-name="uni0408" unicode="&#x408;" horiz-adv-x="749" 
d="M195 23.5q-71 35.5 -109 101t-38 153.5v40h125v-40q0 -82 50 -128t138 -46q91 0 139.5 44.5t48.5 128.5v267h-315v112h440v-377q0 -89 -38 -154.5t-108.5 -101t-166.5 -35.5q-95 0 -166 35.5z" />
    <glyph glyph-name="uni040B" unicode="&#x40b;" horiz-adv-x="960" 
d="M823 354.5q71 -62.5 71 -189.5v-165h-125v157q0 76 -43 110t-146 34q-89 0 -209 -13v-288h-125v544h-233v112h647v-112h-289v-147q117 20 223 20q158 0 229 -62.5z" />
    <glyph glyph-name="uni042E" unicode="&#x42e;" horiz-adv-x="1161" 
d="M926 627q86 -41 132.5 -117t46.5 -177v-11q0 -101 -46.5 -176.5t-132 -116.5t-200.5 -41q-105 0 -186 34.5t-130.5 98.5t-60.5 151h-139v-272h-125v656h125v-272h139q11 87 60.5 151t130.5 98.5t186 34.5q114 0 200 -41zM978 334q0 103 -66 160.5t-186 57.5t-186.5 -57.5
t-66.5 -160.5v-14q0 -103 66 -159.5t187 -56.5t186.5 56.5t65.5 159.5v14z" />
    <glyph glyph-name="uni042F" unicode="&#x42f;" horiz-adv-x="806" 
d="M721 656v-656h-125v241h-140l-236 -241h-150v19l217 223q-102 5 -161 58.5t-59 141.5v11q0 94 65.5 148.5t178.5 54.5h410zM596 544h-282q-58 0 -89 -23.5t-31 -67.5v-11q0 -44 31 -67.5t89 -23.5h282v193z" />
    <glyph glyph-name="uni0402" unicode="&#x402;" horiz-adv-x="944" 
d="M893 218v-14q0 -99 -72.5 -151.5t-208.5 -52.5h-100v112h90q90 0 127 21t37 71v14q0 44 -50.5 67.5t-146.5 23.5q-84 0 -198 -13v-296h-125v544h-233v112h647v-112h-289v-137q117 14 212 14q310 0 310 -203z" />
    <glyph glyph-name="uni0462" unicode="&#x462;" horiz-adv-x="893" 
d="M800 320q63 -46 63 -132v-12q0 -84 -64 -130t-181 -46h-399v476h-220v110h220v78h125v-78h288v-110h-288v-110h274q119 0 182 -46zM736 189q0 67 -120 67h-272v-146h272q120 0 120 67v12z" />
    <glyph glyph-name="uni0472" unicode="&#x472;" horiz-adv-x="877" 
d="M640.5 627q86.5 -41 133.5 -117t47 -177v-11q0 -101 -47 -176.5t-133 -116.5t-202 -41q-115 0 -202 41t-134 116.5t-47 176.5v11q0 101 47 177t134 117t202 41t201.5 -41zM264.5 505.5q-65.5 -46.5 -78.5 -130.5q61 19 128 19q47 0 117 -9q84 -10 135 -10q62 0 123 12
q-16 78 -81 121.5t-169 43.5q-109 0 -174.5 -46.5zM608.5 151.5q67.5 47.5 81.5 127.5q-64 -16 -132 -16q-49 0 -131 10q-11 1 -48.5 5t-72.5 4q-59 0 -118 -14q17 -79 82 -121.5t169 -42.5q102 0 169.5 47.5z" />
    <glyph glyph-name="uni0474" unicode="&#x474;" horiz-adv-x="793" 
d="M780 656v-111h-47q-26 0 -39 -9.5t-25 -37.5l-216 -498h-145l-292 637v19h122l243 -546l176 427q26 64 63.5 91.5t97.5 27.5h62z" />
    <glyph glyph-name="uni0492" unicode="&#x492;" horiz-adv-x="710" 
d="M243 544v-211h304v-108h-304v-225h-125v225h-117v108h117v323h579v-112h-454z" />
    <glyph glyph-name="uni0494" unicode="&#x494;" horiz-adv-x="790" 
d="M653 293q79 -61 79 -179v-36q0 -117 -80 -181.5t-225 -64.5h-59v114h48q93 0 142 34.5t49 100.5v25q0 68 -48.5 100t-151.5 32q-86 0 -197 -13v-225h-125v656h592v-112h-467v-204q115 14 211 14q153 0 232 -61z" />
    <glyph glyph-name="uni0496" unicode="&#x496;" horiz-adv-x="1236" 
d="M1207 112v-245h-124v133h-47l-227 276h-118v-276h-125v276h-121l-236 -276h-143v19l266 317l-278 301v19h148l245 -267h119v267h125v-267h119l245 267h148v-19l-277 -301l179 -224h102z" />
    <glyph glyph-name="uni0498" unicode="&#x498;" horiz-adv-x="833" 
d="M767.5 279.5q25.5 -33.5 25.5 -77.5v-12q0 -96 -92 -149t-258 -53q-184 0 -281 70.5t-97 204.5v7h126v-7q0 -82 61.5 -120.5t193.5 -38.5q114 0 167 21.5t53 68.5v10q0 26 -17.5 41t-57.5 21.5t-112 6.5h-164v112h158q98 0 137.5 16.5t39.5 56.5v10q0 84 -216 84
q-122 0 -180.5 -39.5t-58.5 -120.5v-7h-126v7q0 133 95 204.5t272 71.5q161 0 251 -51.5t90 -142.5v-12q0 -41 -21 -73.5t-62 -54.5q48 -21 73.5 -54.5zM513 24v-167h-125v167h125z" />
    <glyph glyph-name="uni049A" unicode="&#x49a;" horiz-adv-x="792" 
d="M763 112v-245h-124v133h-48l-251 277h-130v-277h-125v656h125v-267h129l259 267h151v-19l-294 -301l199 -224h109z" />
    <glyph glyph-name="uni049C" unicode="&#x49c;" horiz-adv-x="843" 
d="M789 637l-279 -301l267 -317v-19h-143l-239 277h-9v-136h-118v136h-58v-277h-125v656h125v-267h58v135h118v-135h10l245 267h148v-19z" />
    <glyph glyph-name="uni04A0" unicode="&#x4a0;" horiz-adv-x="1034" 
d="M980 637l-294 -301l282 -317v-19h-146l-251 277h-130v-277h-125v544h-303v112h428v-267h129l259 267h151v-19z" />
    <glyph glyph-name="uni04A2" unicode="&#x4a2;" horiz-adv-x="870" 
d="M836 112v-245h-125v133h-102v272h-399v-272h-125v656h125v-272h399v272h125v-544h102z" />
    <glyph glyph-name="uni04A4" unicode="&#x4a4;" horiz-adv-x="1080" 
d="M210 656v-272h381v272h476v-112h-352v-544h-124v272h-381v-272h-125v656h125z" />
    <glyph glyph-name="uni04AA" unicode="&#x4aa;" horiz-adv-x="874" 
d="M239 29q-88 41 -135.5 116t-47.5 176v13q0 101 47.5 176.5t135.5 116.5t205 41q107 0 192.5 -35.5t134 -98.5t48.5 -141v-8h-127v8q0 45 -31.5 81.5t-88.5 57t-128 20.5q-126 0 -193.5 -56t-67.5 -160v-17q0 -104 67 -159.5t194 -55.5q73 0 129.5 20t87.5 56t31 82v8h127
v-8q0 -78 -48.5 -140.5t-134 -98t-192.5 -35.5q-117 0 -205 41zM512 24v-167h-125v167h125z" />
    <glyph glyph-name="uni04AE" unicode="&#x4ae;" horiz-adv-x="726" 
d="M723 656v-19l-297 -381v-256h-125v256l-298 381v19h140l220 -282l220 282h140z" />
    <glyph glyph-name="uni04B0" unicode="&#x4b0;" horiz-adv-x="726" 
d="M723 637l-246 -316h148v-112h-199v-209h-125v209h-199v112h148l-247 316v19h140l220 -282l220 282h140v-19z" />
    <glyph glyph-name="uni04B2" unicode="&#x4b2;" horiz-adv-x="812" 
d="M778 112v-245h-124v133h-47l-199 243l-206 -243h-148v19l265 309l-265 309v19h148l208 -245l208 245h147v-19l-265 -309l178 -216h100z" />
    <glyph glyph-name="uni04B6" unicode="&#x4b6;" horiz-adv-x="850" 
d="M816 112v-245h-125v133h-102v233q-126 -14 -209 -14q-314 0 -314 252v185h125v-177q0 -77 46 -110.5t153 -33.5q73 0 199 14v307h125v-544h102z" />
    <glyph glyph-name="uni04B8" unicode="&#x4b8;" horiz-adv-x="799" 
d="M714 656v-656h-125v239q-61 -7 -140 -12v-120h-118v120q-134 9 -199.5 69.5t-65.5 174.5v185h125v-177q0 -65 33.5 -99t106.5 -42v152h118v-153q66 3 140 11v308h125z" />
    <glyph glyph-name="uni04BA" unicode="&#x4ba;" horiz-adv-x="799" 
d="M733 185v-185h-125v177q0 77 -46 110.5t-153 33.5q-73 0 -199 -14v-307h-125v656h125v-233q126 14 209 14q314 0 314 -252z" />
    <glyph glyph-name="uni04C0" unicode="&#x4c0;" horiz-adv-x="299" 
d="M212 656v-656h-125v656h125z" />
    <glyph glyph-name="uni04C1" unicode="&#x4c1;" horiz-adv-x="1257" 
d="M1203 637l-277 -301l265 -317v-19h-143l-236 276h-121v-276h-125v276h-121l-236 -276h-143v19l266 317l-278 301v19h148l245 -267h119v267h125v-267h119l245 267h148v-19zM468 756q-55 38 -55 111v7h111v-7q0 -23 27.5 -35.5t77.5 -12.5q47 0 73 12.5t26 35.5v7h117v-7
q0 -73 -54.5 -111t-161.5 -38q-106 0 -161 38z" />
    <glyph glyph-name="uni04D0" unicode="&#x4d0;" horiz-adv-x="770" 
d="M754 19v-19h-127l-68 150h-348l-68 -150h-127v19l300 637h138zM507 262l-122 268l-122 -268h244zM224 756q-55 38 -55 111v7h111v-7q0 -23 27.5 -35.5t77.5 -12.5q47 0 73 12.5t26 35.5v7h117v-7q0 -73 -54.5 -111t-161.5 -38q-106 0 -161 38z" />
    <glyph glyph-name="uni04D2" unicode="&#x4d2;" horiz-adv-x="770" 
d="M754 19v-19h-127l-68 150h-348l-68 -150h-127v19l300 637h138zM507 262l-122 268l-122 -268h244zM201 746.5q-21 19.5 -21 51.5q0 31 21 50.5t55 19.5q32 0 52.5 -19.5t20.5 -50.5t-20.5 -51t-52.5 -20q-34 0 -55 19.5zM461 747q-21 20 -21 51t20.5 50.5t53.5 19.5
t54 -19.5t21 -50.5t-21 -51t-54 -20q-32 0 -53 20z" />
    <glyph glyph-name="uni04D4" unicode="&#x4d4;" horiz-adv-x="1072" 
d="M549 544l36 -159h400v-112h-374l37 -161h357v-112h-459l-34 150h-299l-70 -150h-127v19l300 637h689v-112h-456zM423 544h-27l-131 -282h222z" />
    <glyph glyph-name="uni04D6" unicode="&#x4d6;" horiz-adv-x="723" 
d="M656 656v-112h-446v-159h426v-112h-426v-161h446v-112h-571v656h571zM209 756q-55 38 -55 111v7h111v-7q0 -23 27.5 -35.5t77.5 -12.5q47 0 73 12.5t26 35.5v7h117v-7q0 -73 -54.5 -111t-161.5 -38q-106 0 -161 38z" />
    <glyph glyph-name="uni04D8" unicode="&#x4d8;" horiz-adv-x="877" 
d="M638.5 627q87.5 -41 135 -116.5t47.5 -177.5v-11q0 -102 -47 -177.5t-134 -116t-205 -40.5q-119 0 -204 42t-130 121.5t-45 190.5v36h634q-14 83 -81.5 129t-177.5 46q-91 0 -154.5 -33t-83.5 -91h-133q26 111 126 175t248 64q117 0 204.5 -41zM602.5 146.5
q67.5 43.5 85.5 119.5h-501q17 -78 80.5 -120.5t165.5 -42.5t169.5 43.5z" />
    <glyph glyph-name="uni04DA" unicode="&#x4da;" horiz-adv-x="877" 
d="M638.5 627q87.5 -41 135 -116.5t47.5 -177.5v-11q0 -102 -47 -177.5t-134 -116t-205 -40.5q-119 0 -204 42t-130 121.5t-45 190.5v36h634q-14 83 -81.5 129t-177.5 46q-91 0 -154.5 -33t-83.5 -91h-133q26 111 126 175t248 64q117 0 204.5 -41zM602.5 146.5
q67.5 43.5 85.5 119.5h-501q17 -78 80.5 -120.5t165.5 -42.5t169.5 43.5zM255 746.5q-21 19.5 -21 51.5q0 31 21 50.5t55 19.5q32 0 52.5 -19.5t20.5 -50.5t-20.5 -51t-52.5 -20q-34 0 -55 19.5zM515 747q-21 20 -21 51t20.5 50.5t53.5 19.5t54 -19.5t21 -50.5t-21 -51
t-54 -20q-32 0 -53 20z" />
    <glyph glyph-name="uni04DC" unicode="&#x4dc;" horiz-adv-x="1257" 
d="M1203 637l-277 -301l265 -317v-19h-143l-236 276h-121v-276h-125v276h-121l-236 -276h-143v19l266 317l-278 301v19h148l245 -267h119v267h125v-267h119l245 267h148v-19zM445 746.5q-21 19.5 -21 51.5q0 31 21 50.5t55 19.5q32 0 52.5 -19.5t20.5 -50.5t-20.5 -51
t-52.5 -20q-34 0 -55 19.5zM705 747q-21 20 -21 51t20.5 50.5t53.5 19.5t54 -19.5t21 -50.5t-21 -51t-54 -20q-32 0 -53 20z" />
    <glyph glyph-name="uni04DE" unicode="&#x4de;" horiz-adv-x="833" 
d="M767.5 279.5q25.5 -33.5 25.5 -77.5v-12q0 -96 -92 -149t-258 -53q-184 0 -281 70.5t-97 204.5v7h126v-7q0 -82 61.5 -120.5t193.5 -38.5q114 0 167 21.5t53 68.5v10q0 26 -17.5 41t-57.5 21.5t-112 6.5h-164v112h158q98 0 137.5 16.5t39.5 56.5v10q0 84 -216 84
q-122 0 -180.5 -39.5t-58.5 -120.5v-7h-126v7q0 133 95 204.5t272 71.5q161 0 251 -51.5t90 -142.5v-12q0 -41 -21 -73.5t-62 -54.5q48 -21 73.5 -54.5zM266 746.5q-21 19.5 -21 51.5q0 31 21 50.5t55 19.5q32 0 52.5 -19.5t20.5 -50.5t-20.5 -51t-52.5 -20q-34 0 -55 19.5z
M526 747q-21 20 -21 51t20.5 50.5t53.5 19.5t54 -19.5t21 -50.5t-21 -51t-54 -20q-32 0 -53 20z" />
    <glyph glyph-name="uni04E2" unicode="&#x4e2;" horiz-adv-x="819" 
d="M210 656v-486l399 486h125v-656h-125v486l-399 -486h-125v656h125zM628 850v-103h-435v103h435z" />
    <glyph glyph-name="uni04E4" unicode="&#x4e4;" horiz-adv-x="819" 
d="M210 656v-486l399 486h125v-656h-125v486l-399 -486h-125v656h125zM226 746.5q-21 19.5 -21 51.5q0 31 21 50.5t55 19.5q32 0 52.5 -19.5t20.5 -50.5t-20.5 -51t-52.5 -20q-34 0 -55 19.5zM486 747q-21 20 -21 51t20.5 50.5t53.5 19.5t54 -19.5t21 -50.5t-21 -51t-54 -20
q-32 0 -53 20z" />
    <glyph glyph-name="uni04E6" unicode="&#x4e6;" horiz-adv-x="877" 
d="M236.5 29q-86.5 41 -133.5 116.5t-47 176.5v11q0 101 47 177t134 117t202 41t201.5 -41t133.5 -117t47 -177v-11q0 -101 -47 -176.5t-133 -116.5t-202 -41t-202.5 41zM627.5 160.5q66.5 56.5 66.5 159.5v14q0 103 -66.5 160.5t-188.5 57.5t-189 -57.5t-67 -160.5v-14
q0 -103 67 -159.5t189 -56.5t188.5 56.5zM256 746.5q-21 19.5 -21 51.5q0 31 21 50.5t55 19.5q32 0 52.5 -19.5t20.5 -50.5t-20.5 -51t-52.5 -20q-34 0 -55 19.5zM516 747q-21 20 -21 51t20.5 50.5t53.5 19.5t54 -19.5t21 -50.5t-21 -51t-54 -20q-32 0 -53 20z" />
    <glyph glyph-name="uni04E8" unicode="&#x4e8;" horiz-adv-x="877" 
d="M640.5 627q86.5 -41 133.5 -117t47 -177v-11q0 -101 -47 -176.5t-133 -116.5t-202 -41q-115 0 -202 41t-134 116.5t-47 176.5v11q0 101 47 177t134 117t202 41t201.5 -41zM268 508q-65 -44 -80 -124h501q-15 80 -80 124t-170 44q-106 0 -171 -44zM605 149.5
q67 45.5 84 122.5h-502q15 -81 79.5 -124.5t172.5 -43.5q99 0 166 45.5z" />
    <glyph glyph-name="uni04EE" unicode="&#x4ee;" horiz-adv-x="763" 
d="M752 656v-19l-274 -499q-43 -78 -89.5 -108t-123.5 -30h-132v112h132q29 0 46 6t30 22l-304 497v19h132l241 -400l212 400h130zM621 850v-103h-435v103h435z" />
    <glyph glyph-name="uni04F0" unicode="&#x4f0;" horiz-adv-x="763" 
d="M752 656v-19l-274 -499q-43 -78 -89.5 -108t-123.5 -30h-132v112h132q29 0 46 6t30 22l-304 497v19h132l241 -400l212 400h130zM219 746.5q-21 19.5 -21 51.5q0 31 21 50.5t55 19.5q32 0 52.5 -19.5t20.5 -50.5t-20.5 -51t-52.5 -20q-34 0 -55 19.5zM479 747
q-21 20 -21 51t20.5 50.5t53.5 19.5t54 -19.5t21 -50.5t-21 -51t-54 -20q-32 0 -53 20z" />
    <glyph glyph-name="uni04F2" unicode="&#x4f2;" horiz-adv-x="763" 
d="M752 656v-19l-274 -499q-43 -78 -89.5 -108t-123.5 -30h-132v112h132q29 0 46 6t30 22l-304 497v19h132l241 -400l212 400h130zM434 888v-105l-267 -68v105zM725 888v-105l-265 -68v105z" />
    <glyph glyph-name="uni04F4" unicode="&#x4f4;" horiz-adv-x="799" 
d="M714 656v-656h-125v233q-126 -14 -209 -14q-314 0 -314 252v185h125v-177q0 -77 46 -110.5t153 -33.5q73 0 199 14v307h125zM216 746.5q-21 19.5 -21 51.5q0 31 21 50.5t55 19.5q32 0 52.5 -19.5t20.5 -50.5t-20.5 -51t-52.5 -20q-34 0 -55 19.5zM476 747q-21 20 -21 51
t20.5 50.5t53.5 19.5t54 -19.5t21 -50.5t-21 -51t-54 -20q-32 0 -53 20z" />
    <glyph glyph-name="uni04F8" unicode="&#x4f8;" horiz-adv-x="1013" 
d="M214 656v-240h269q114 0 179 -54t65 -148v-13q0 -95 -65 -148t-179 -53h-394v656h125zM924 656v-656h-125v656h125zM568.5 135q31.5 23 31.5 66v13q0 43 -32 66.5t-88 23.5h-266v-192h266q57 0 88.5 23zM323 746.5q-21 19.5 -21 51.5q0 31 21 50.5t55 19.5
q32 0 52.5 -19.5t20.5 -50.5t-20.5 -51t-52.5 -20q-34 0 -55 19.5zM583 747q-21 20 -21 51t20.5 50.5t53.5 19.5t54 -19.5t21 -50.5t-21 -51t-54 -20q-32 0 -53 20z" />
    <glyph glyph-name="uni0407.Yi-cy" horiz-adv-x="319" 
d="M23 747q-20 20 -20 51q0 32 19 51t52 19q32 0 51 -19t19 -51q0 -31 -19.5 -51t-50.5 -20t-51 20zM195 746.5q-19 19.5 -19 51.5t18.5 51t50.5 19q33 0 52 -19t19 -51q0 -31 -20 -51t-51 -20t-50 19.5zM222 656v-656h-125v656h125z" />
    <glyph glyph-name="uni0414.loclBGR" horiz-adv-x="916" 
d="M882 112v-245h-125v133h-598v-133h-125v245h92l263 544h138l264 -544h91zM659 112l-201 421l-201 -421h402z" />
    <glyph glyph-name="uni041B.loclBGR" horiz-adv-x="770" 
d="M754 19v-19h-127l-242 536l-242 -536h-127v19l297 637h144z" />
    <glyph glyph-name="uni0406.ss07" horiz-adv-x="701" 
d="M288 111v434h-242v111h609v-111h-242v-434h242v-111h-609v111h242z" />
    <glyph glyph-name="uni0407.ss07" horiz-adv-x="701" 
d="M288 111v434h-242v111h609v-111h-242v-434h242v-111h-609v111h242zM184 747.5q-21 19.5 -21 51.5q0 31 21 50.5t55 19.5q32 0 52.5 -19.5t20.5 -50.5t-20.5 -51t-52.5 -20q-34 0 -55 19.5zM410 748q-21 20 -21 51t20.5 50.5t53.5 19.5q34 0 54.5 -19.5t20.5 -50.5
t-21 -51t-54 -20q-32 0 -53 20z" />
    <glyph glyph-name="uni04C0.ss07" horiz-adv-x="701" 
d="M288 111v434h-242v111h609v-111h-242v-434h242v-111h-609v111h242z" />
    <glyph glyph-name="uni0430" unicode="&#x430;" horiz-adv-x="716" 
d="M710 106v-106h-73q-48 0 -81.5 16.5t-49.5 48.5q-39 -40 -92 -58.5t-125 -18.5q-109 0 -169 39.5t-60 111.5q0 60 45.5 97.5t129.5 46.5l256 28q-12 85 -153 85q-73 0 -114 -21t-41 -58v-3h-120v3q0 57 34 101t96.5 68t145.5 24q129 0 201 -57.5t72 -160.5v-138
q0 -23 14 -35.5t40 -12.5h44zM415.5 117q53.5 23 76.5 65v31l-231 -25q-81 -9 -81 -49q0 -45 106 -45q76 0 129.5 23z" />
    <glyph glyph-name="uni0431" unicode="&#x431;" horiz-adv-x="704" 
d="M532 440.5q62 -28.5 95.5 -80.5t33.5 -121v-25q0 -67 -37 -118.5t-104 -79.5t-156 -28q-147 0 -226.5 77t-79.5 219v71q0 279 293 301l119 9q31 3 31 22v9h129v-13q0 -115 -129 -126l-148 -12q-92 -8 -136 -43t-44 -100v-1q41 33 96 50.5t119 17.5q82 0 144 -28.5z
M537 237q0 59 -46 91t-129 32q-117 0 -183 -69v-38q0 -77 46 -116.5t136 -39.5q83 0 129.5 31.5t46.5 86.5v22z" />
    <glyph glyph-name="uni0432" unicode="&#x432;" horiz-adv-x="710" 
d="M659 152v-10q0 -68 -52 -105t-149 -37h-379v498h365q97 0 149.5 -36t52.5 -103v-10q0 -31 -16.5 -55.5t-47.5 -40.5q77 -31 77 -101zM199 405v-107h241q40 0 61 13t21 37v10q0 47 -82 47h-241zM535 154q0 24 -21 36.5t-60 12.5h-255v-110h255q40 0 60.5 13t20.5 38v10z
" />
    <glyph glyph-name="uni0433" unicode="&#x433;" horiz-adv-x="513" 
d="M500 498v-106h-301v-392h-120v498h421z" />
    <glyph glyph-name="uni0453" unicode="&#x453;" horiz-adv-x="513" 
d="M500 498v-106h-301v-392h-120v498h421zM510 730v-102l-435 -71v103z" />
    <glyph glyph-name="uni0491" unicode="&#x491;" horiz-adv-x="513" 
d="M360 498v128h120v-234h-281v-392h-120v498h281z" />
    <glyph glyph-name="uni0434" unicode="&#x434;" horiz-adv-x="762" 
d="M748 106v-234h-120v128h-489v-128h-120l-1 234h79q46 73 47 182l3 210h504v-392h97zM531 106v286h-274l-2 -105q-2 -59 -11.5 -102.5t-28.5 -78.5h316z" />
    <glyph glyph-name="uni0435" unicode="&#x435;" horiz-adv-x="671" 
d="M628 209h-459q7 -53 51.5 -82t118.5 -29q69 0 112 20t48 54h129q-10 -88 -85.5 -136t-203.5 -48q-91 0 -157.5 30.5t-102.5 87t-36 132.5v20q0 77 36 134t103 87.5t157 30.5q136 0 212.5 -66t76.5 -182v-53zM229 376q-43 -24 -56 -67h325q-12 43 -54 67t-106 24
q-66 0 -109 -24z" />
    <glyph glyph-name="uni0450" unicode="&#x450;" horiz-adv-x="671" 
d="M628 209h-459q7 -53 51.5 -82t118.5 -29q69 0 112 20t48 54h129q-10 -88 -85.5 -136t-203.5 -48q-91 0 -157.5 30.5t-102.5 87t-36 132.5v20q0 77 36 134t103 87.5t157 30.5q136 0 212.5 -66t76.5 -182v-53zM229 376q-43 -24 -56 -67h325q-12 43 -54 67t-106 24
q-66 0 -109 -24zM119 731l435 -70v-104l-435 71v103z" />
    <glyph glyph-name="uni0451" unicode="&#x451;" horiz-adv-x="671" 
d="M628 209h-459q7 -53 51.5 -82t118.5 -29q69 0 112 20t48 54h129q-10 -88 -85.5 -136t-203.5 -48q-91 0 -157.5 30.5t-102.5 87t-36 132.5v20q0 77 36 134t103 87.5t157 30.5q136 0 212.5 -66t76.5 -182v-53zM229 376q-43 -24 -56 -67h325q-12 43 -54 67t-106 24
q-66 0 -109 -24zM152 588.5q-21 19.5 -21 51.5q0 31 21 50.5t55 19.5q32 0 52.5 -19.5t20.5 -50.5t-20.5 -51t-52.5 -20q-34 0 -55 19.5zM412 589q-21 20 -21 51t20.5 50.5t53.5 19.5t54 -19.5t21 -50.5t-21 -51t-54 -20q-32 0 -53 20z" />
    <glyph glyph-name="uni0436" unicode="&#x436;" horiz-adv-x="1018" 
d="M992 17v-17h-134l-175 198h-114v-198h-120v198h-115l-174 -198h-134v17l206 237l-194 227v17h135l166 -194h110v194h120v-194h109l167 194h135v-17l-195 -227z" />
    <glyph glyph-name="uni0437" unicode="&#x437;" horiz-adv-x="684" 
d="M611.5 208q21.5 -27 21.5 -60v-6q0 -75 -72 -114.5t-209 -39.5q-153 0 -228.5 52.5t-75.5 159.5v7h120v-7q0 -56 44.5 -81t142.5 -25q154 0 154 54v6q0 22 -23 33t-71 11h-157v105h147q47 0 68.5 11t21.5 34v6q0 24 -40 37t-114 13q-92 0 -132.5 -25t-40.5 -82v-7h-120v7
q0 105 75.5 159t223.5 54q130 0 201 -40t71 -113v-6q0 -30 -17.5 -55t-50.5 -43q39 -18 60.5 -45z" />
    <glyph glyph-name="uni0438" unicode="&#x438;" horiz-adv-x="713" 
d="M195 498v-351l329 351h110v-498h-116v351l-329 -351h-110v498h116z" />
    <glyph glyph-name="uni0439" unicode="&#x439;" horiz-adv-x="713" 
d="M195 498v-351l329 351h110v-498h-116v351l-329 -351h-110v498h116zM196 598q-55 38 -55 111v7h111v-7q0 -23 27.5 -35.5t77.5 -12.5q47 0 73 12.5t26 35.5v7h117v-7q0 -73 -54.5 -111t-161.5 -38q-106 0 -161 38z" />
    <glyph glyph-name="uni045D" unicode="&#x45d;" horiz-adv-x="713" 
d="M195 498v-351l329 351h110v-498h-116v351l-329 -351h-110v498h116zM140 731l435 -70v-104l-435 71v103z" />
    <glyph glyph-name="uni043A" unicode="&#x43a;" horiz-adv-x="687" 
d="M661 17v-17h-137l-195 200h-130v-200h-120v498h120v-194h127l184 194h139v-17l-213 -227z" />
    <glyph glyph-name="uni045C" unicode="&#x45c;" horiz-adv-x="687" 
d="M661 17v-17h-137l-195 200h-130v-200h-120v498h120v-194h127l184 194h139v-17l-213 -227zM555 730v-102l-435 -71v103z" />
    <glyph glyph-name="uni043B" unicode="&#x43b;" horiz-adv-x="712" 
d="M633 0h-120v392h-268l-4 -155q-3 -119 -48.5 -178t-134.5 -59h-52v107h25q48 0 70.5 32t23.5 105l6 254h502v-498z" />
    <glyph glyph-name="uni043C" unicode="&#x43c;" horiz-adv-x="913" 
d="M834 498v-498h-116v372l-26 -47l-182 -325h-107l-182 325l-26 47v-372h-116v498h171l207 -368l206 368h171z" />
    <glyph glyph-name="uni043D" unicode="&#x43d;" horiz-adv-x="718" 
d="M199 498v-195h320v195h120v-498h-120v197h-320v-197h-120v498h120z" />
    <glyph glyph-name="uni043E" unicode="&#x43e;" horiz-adv-x="685" 
d="M184 18.5q-68 30.5 -104.5 87.5t-36.5 134v15q0 78 36 135.5t104 88.5t161 31q92 0 159 -31t103 -88.5t36 -135.5v-15q0 -77 -36 -134t-103 -87.5t-159 -30.5t-160 30.5zM471.5 135.5q46.5 37.5 46.5 104.5v15q0 69 -46 107t-129 38q-85 0 -130.5 -37.5t-45.5 -107.5v-15
q0 -67 46.5 -104.5t129.5 -37.5q82 0 128.5 37.5z" />
    <glyph glyph-name="uni043F" unicode="&#x43f;" horiz-adv-x="708" 
d="M629 498v-498h-120v392h-310v-392h-120v498h550z" />
    <glyph glyph-name="uni0440" unicode="&#x440;" horiz-adv-x="710" 
d="M526.5 479q67.5 -31 104 -88.5t36.5 -134.5v-13q0 -77 -36.5 -134.5t-104 -89t-157.5 -31.5q-100 0 -170 53v-211h-120v668h112l3 -46q74 58 175 58q90 0 157.5 -31zM543 256q0 67 -47 105.5t-129 38.5q-54 0 -98.5 -18t-69.5 -49v-166q25 -32 70 -50.5t98 -18.5
q83 0 129.5 38.5t46.5 106.5v13z" />
    <glyph glyph-name="uni0441" unicode="&#x441;" horiz-adv-x="670" 
d="M183 18.5q-67 30.5 -103.5 87.5t-36.5 133v16q0 78 36 135.5t103.5 88.5t158.5 31q83 0 149 -28t103 -78t37 -113v-3h-124v3q0 48 -46 78.5t-119 30.5q-83 0 -128.5 -38t-45.5 -108v-14q0 -68 45.5 -105t128.5 -37q73 0 119 30t46 78v3h124v-3q0 -64 -36 -113.5
t-101.5 -77t-151.5 -27.5q-91 0 -158 30.5z" />
    <glyph glyph-name="uni0442" unicode="&#x442;" horiz-adv-x="606" 
d="M13 390v108h580v-108h-228v-390h-121v390h-231z" />
    <glyph glyph-name="uni0443" unicode="&#x443;" horiz-adv-x="697" 
d="M669 498v-17l-272 -529q-34 -66 -81 -94t-124 -28h-113v106h112q38 0 56 11t34 44l-253 490v17h128l193 -386l192 386h128z" />
    <glyph glyph-name="uni045E" unicode="&#x45e;" horiz-adv-x="697" 
d="M669 498v-17l-272 -529q-34 -66 -81 -94t-124 -28h-113v106h112q38 0 56 11t34 44l-253 490v17h128l193 -386l192 386h128zM188 598q-55 38 -55 111v7h111v-7q0 -23 27.5 -35.5t77.5 -12.5q47 0 73 12.5t26 35.5v7h117v-7q0 -73 -54.5 -111t-161.5 -38q-106 0 -161 38z
" />
    <glyph glyph-name="uni0444" unicode="&#x444;" horiz-adv-x="968" 
d="M845 434.5q80 -63.5 80 -178.5v-14q0 -115 -80 -178.5t-225 -63.5h-76v-170h-120v170h-76q-145 0 -225 63.5t-80 178.5v14q0 115 80 178.5t225 63.5h76v198h120v-198h76q145 0 225 -63.5zM424 106v286h-83q-84 0 -129 -35.5t-45 -102.5v-11q0 -66 45 -101.5t129 -35.5h83
zM801 254q0 67 -45 102.5t-129 35.5h-83v-286h83q84 0 129 35.5t45 101.5v11z" />
    <glyph glyph-name="uni0445" unicode="&#x445;" horiz-adv-x="656" 
d="M630 17v-17h-143l-159 174l-159 -174h-143v17l218 234l-214 230v17h142l156 -171l160 171h136v-17l-213 -230z" />
    <glyph glyph-name="uni0447" unicode="&#x447;" horiz-adv-x="677" 
d="M598 498v-498h-120v162q-104 -14 -188 -14q-242 0 -242 197v153h120v-141q0 -52 33 -77t101 -25q76 0 176 13v230h120z" />
    <glyph glyph-name="uni0446" unicode="&#x446;" horiz-adv-x="734" 
d="M720 106v-234h-120v128h-521v498h120v-392h304v392h120v-392h97z" />
    <glyph glyph-name="uni0448" unicode="&#x448;" horiz-adv-x="1039" 
d="M199 498v-392h261v392h120v-392h260v392h120v-498h-881v498h120z" />
    <glyph glyph-name="uni0449" unicode="&#x449;" horiz-adv-x="1075" 
d="M1057 106v-234h-120v128h-858v498h120v-392h261v392h120v-392h260v392h120v-392h97z" />
    <glyph glyph-name="uni045F" unicode="&#x45f;" horiz-adv-x="698" 
d="M619 0h-215v-128h-110v128h-215v498h120v-392h300v392h120v-498z" />
    <glyph glyph-name="uni044C" unicode="&#x44c;" horiz-adv-x="704" 
d="M603.5 315.5q55.5 -46.5 55.5 -129.5v-12q0 -80 -56 -126.5t-153 -46.5h-371v497h120v-136h251q98 0 153.5 -46.5zM535 186q0 70 -94 70h-242v-149h242q94 0 94 67v12z" />
    <glyph glyph-name="uni044A" unicode="&#x44a;" horiz-adv-x="835" 
d="M734.5 315.5q55.5 -46.5 55.5 -129.5v-12q0 -80 -56 -126.5t-153 -46.5h-371v389h-197v108h317v-136h251q98 0 153.5 -46.5zM666 186q0 70 -94 70h-242v-149h242q94 0 94 67v12z" />
    <glyph glyph-name="uni044B" unicode="&#x44b;" horiz-adv-x="902" 
d="M582 314.5q55 -47.5 55 -129.5v-12q0 -80 -55.5 -126.5t-153.5 -46.5h-345v498h120v-136h225q99 0 154 -47.5zM819 498v-498h-120v498h120zM513 185q0 71 -94 71h-216v-150h216q94 0 94 67v12z" />
    <glyph glyph-name="uni0459" unicode="&#x459;" horiz-adv-x="1100" 
d="M999.5 315.5q55.5 -46.5 55.5 -129.5v-12q0 -80 -56 -127t-153 -47h-348v391h-253l-4 -154q-3 -119 -48.5 -178t-134.5 -59h-52v107h25q48 0 70.5 32t23.5 105l6 254h487v-136h228q98 0 153.5 -46.5zM931 186q0 70 -94 70h-219v-149h219q94 0 94 67v12z" />
    <glyph glyph-name="uni045A" unicode="&#x45a;" horiz-adv-x="1107" 
d="M199 498v-185h313v185h121v-177h227q94 0 148 -41.5t54 -112.5v-12q0 -71 -55 -113t-147 -42h-348v207h-313v-207h-120v498h120zM917 117q21 13 21 38v12q0 51 -81 51h-224v-114h224q39 0 60 13z" />
    <glyph glyph-name="uni0455" unicode="&#x455;" horiz-adv-x="688" 
d="M133.5 31.5q-77.5 43.5 -77.5 121.5v7h120v-7q0 -30 42 -43.5t134 -13.5q155 0 155 49v6q0 18 -22 27t-81 15l-122 12q-109 10 -159 44.5t-50 97.5v10q0 72 72.5 112.5t202.5 40.5q134 0 207.5 -43t73.5 -122v-7h-120v7q0 30 -39.5 43.5t-125.5 13.5q-71 0 -109 -11
t-38 -31v-6q0 -19 20 -28.5t66 -14.5l124 -12q118 -11 171 -46t53 -100v-10q0 -73 -75 -114t-207 -41q-138 0 -215.5 43.5z" />
    <glyph glyph-name="uni0454" unicode="&#x454;" horiz-adv-x="670" 
d="M506 290v3q0 47 -46 77t-119 30q-68 0 -111 -25.5t-57 -72.5h238v-106h-238q14 -47 57 -72.5t111 -25.5q75 0 120 29.5t45 76.5v3h124v-3q0 -64 -36 -113t-101.5 -76t-151.5 -27q-91 0 -158 30.5t-103.5 87.5t-36.5 133v20q0 76 36.5 133t103.5 87.5t158 30.5
q83 0 149 -27.5t103 -77t37 -112.5v-3h-124z" />
    <glyph glyph-name="uni044D" unicode="&#x44d;" horiz-adv-x="670" 
d="M487 479.5q67 -30.5 103.5 -87.5t36.5 -133v-20q0 -76 -36.5 -133t-103.5 -87.5t-158 -30.5q-86 0 -151.5 27t-101.5 76t-36 113v3h124v-3q0 -47 45 -76.5t120 -29.5q68 0 111 25.5t57 72.5h-238v106h238q-14 47 -57 72.5t-111 25.5q-73 0 -119 -30t-46 -77v-3h-124v3
q0 63 37 112.5t103 77t149 27.5q91 0 158 -30.5z" />
    <glyph glyph-name="uni0456" unicode="&#x456;" horiz-adv-x="286" 
d="M203 498v-498h-120v498h120zM86 587q-22 21 -22 54q0 32 22 53t57 21t57 -20.5t22 -53.5t-22 -54t-57 -21t-57 21z" />
    <glyph glyph-name="uni0457" unicode="&#x457;" horiz-adv-x="336" 
d="M35.5 586.5q-18.5 19.5 -18.5 52.5q0 32 18.5 51.5t49.5 19.5q30 0 48 -19.5t18 -51.5t-18 -52t-48 -20q-31 0 -49.5 19.5zM204 587.5q-19 20.5 -19 51.5t19 51t48 20t48 -20t19 -51t-19 -51.5t-48 -20.5t-48 20.5zM228 498v-498h-120v498h120z" />
    <glyph glyph-name="uni0458" unicode="&#x458;" horiz-adv-x="286" 
d="M10 -64q36 0 54.5 18.5t18.5 53.5v490h120v-493q0 -81 -51 -128t-138 -47h-89v106h85zM86 587q-22 21 -22 54q0 32 22 53t57 21t57 -20.5t22 -53.5t-22 -54t-57 -21t-57 21z" />
    <glyph glyph-name="uni045B" unicode="&#x45b;" horiz-adv-x="737" 
d="M597 416q68 -66 68 -194v-222h-120v222q0 73 -40.5 111.5t-117.5 38.5q-53 0 -96.5 -25t-65.5 -67v-280h-120v542h-117v104h117v50h120v-50h220v-104h-220v-122q71 62 174 62q130 0 198 -66z" />
    <glyph glyph-name="uni044E" unicode="&#x44e;" horiz-adv-x="928" 
d="M749 479q66 -31 101 -88.5t35 -135.5v-15q0 -77 -35.5 -134t-101.5 -87.5t-155 -30.5q-121 0 -197 55t-91 152h-106v-195h-120v498h120v-195h107q15 97 90.5 152t196.5 55q90 0 156 -31zM761 253q0 70 -44.5 108.5t-123.5 38.5q-80 0 -124.5 -38.5t-44.5 -108.5v-12
q0 -67 44.5 -105t124.5 -38q78 0 123 38t45 105v12z" />
    <glyph glyph-name="uni044F" unicode="&#x44f;" horiz-adv-x="715" 
d="M636 1h-120v150h-123l-178 -151h-156v15l164 138q-80 9 -123.5 51.5t-43.5 111.5v12q0 80 55.5 125t153.5 45h371v-497zM516 253v140h-242q-94 0 -94 -65v-12q0 -63 94 -63h242z" />
    <glyph glyph-name="uni0452" unicode="&#x452;" horiz-adv-x="737" 
d="M597 416q68 -66 68 -194v-128q0 -264 -258 -264h-47v106h37q75 0 111.5 38t36.5 116v132q0 73 -40.5 111.5t-117.5 38.5q-53 0 -96.5 -25t-65.5 -67v-280h-120v542h-117v104h117v50h120v-50h220v-104h-220v-122q71 62 174 62q130 0 198 -66z" />
    <glyph glyph-name="uni0463" unicode="&#x463;" horiz-adv-x="815" 
d="M720 274.5q50 -41.5 50 -109.5v-12q0 -70 -49.5 -111.5t-130.5 -41.5h-400v392h-177v106h177v198h120v-198h254v-106h-254v-76h280q80 0 130 -41.5zM649 165q0 22 -17 33.5t-48 11.5h-274v-104h274q65 0 65 47v12z" />
    <glyph glyph-name="uni0473" unicode="&#x473;" horiz-adv-x="685" 
d="M503.5 479q67.5 -31 103 -88.5t35.5 -135.5v-15q0 -77 -36 -134t-103 -87.5t-159 -30.5q-93 0 -161 31t-104 87.5t-36 133.5v15q0 78 36 135.5t104 88.5t161 31q92 0 159.5 -31zM230 373.5q-44 -26.5 -58 -76.5q38 9 75 9q26 0 54.5 -3t37.5 -4q64 -8 102 -8q29 0 72 5
q-14 50 -57.5 77t-112.5 27t-113 -26.5zM455 124.5q44 26.5 58 74.5q-38 -7 -78 -7q-30 0 -61 3t-40 4q-52 7 -93 7q-34 0 -69 -6q14 -49 58.5 -75.5t112.5 -26.5t112 26.5z" />
    <glyph glyph-name="uni0475" unicode="&#x475;" horiz-adv-x="705" 
d="M692 498v-108h-43q-22 0 -34 -9t-25 -37l-165 -344h-156l-241 481v17h125l193 -392l142 302q24 51 55 70.5t87 19.5h62z" />
    <glyph glyph-name="uni0493" unicode="&#x493;" horiz-adv-x="603" 
d="M237 391v-133h195v-103h-194v-155h-120v155h-117v103h117v240h443v-107h-324z" />
    <glyph glyph-name="uni0495" unicode="&#x495;" horiz-adv-x="696" 
d="M569 225.5q60 -51.5 60 -155.5v-45q0 -91 -55.5 -143t-153.5 -52h-69v106h55q53 0 78 22.5t25 69.5v40q0 52 -33 77t-101 25q-76 0 -176 -13v-157h-120v498h514v-106h-394v-129q110 14 188 14q122 0 182 -51.5z" />
    <glyph glyph-name="uni0497" unicode="&#x497;" horiz-adv-x="1049" 
d="M1035 106v-234h-120v128h-73l-169 199h-111v-199h-120v199h-114l-175 -199h-134v17l206 237l-194 227v17h135l165 -193h111v193h120v-193h110l166 193h135v-17l-196 -228l124 -147h134z" />
    <glyph glyph-name="uni0499" unicode="&#x499;" horiz-adv-x="684" 
d="M611.5 208q21.5 -27 21.5 -60v-6q0 -75 -72 -114.5t-209 -39.5q-153 0 -228.5 52.5t-75.5 159.5v7h120v-7q0 -56 44.5 -81t142.5 -25q154 0 154 54v6q0 22 -23 33t-71 11h-157v105h147q47 0 68.5 11t21.5 34v6q0 24 -40 37t-114 13q-92 0 -132.5 -25t-40.5 -82v-7h-120v7
q0 105 75.5 159t223.5 54q130 0 201 -40t71 -113v-6q0 -30 -17.5 -55t-50.5 -43q39 -18 60.5 -45zM405 22v-165h-120v165h120z" />
    <glyph glyph-name="uni049B" unicode="&#x49b;" horiz-adv-x="717" 
d="M703 106v-234h-120v128h-69l-187 200h-128v-200h-120v498h120v-194h127l184 194h139v-17l-214 -228l136 -147h132z" />
    <glyph glyph-name="uni049D" unicode="&#x49d;" horiz-adv-x="754" 
d="M728 19v-19h-137l-192 197h-28v-126h-112v126h-60v-197h-120v498h120v-197h60v113h112v-113h19l187 197h139v-17l-213 -227z" />
    <glyph glyph-name="uni04A1" unicode="&#x4a1;" horiz-adv-x="865" 
d="M846 17v-17h-137l-195 200h-130v-200h-120v390h-251v108h371v-194h127l184 194h139v-17l-213 -227z" />
    <glyph glyph-name="uni04A3" unicode="&#x4a3;" horiz-adv-x="754" 
d="M740 106v-234h-120v128h-97v195h-324v-195h-120v498h120v-195h324v195h120v-392h97z" />
    <glyph glyph-name="uni04A5" unicode="&#x4a5;" horiz-adv-x="923" 
d="M199 498v-195h296v195h415v-108h-295v-390h-120v195h-296v-195h-120v498h120z" />
    <glyph glyph-name="uni04AB" unicode="&#x4ab;" horiz-adv-x="670" 
d="M183 18.5q-67 30.5 -103.5 87.5t-36.5 133v16q0 78 36 135.5t103.5 88.5t158.5 31q83 0 149 -28t103 -78t37 -113v-3h-124v3q0 48 -46 78.5t-119 30.5q-83 0 -128.5 -38t-45.5 -108v-14q0 -68 45.5 -105t128.5 -37q73 0 119 30t46 78v3h124v-3q0 -64 -36 -113.5
t-101.5 -77t-151.5 -27.5q-91 0 -158 30.5zM394 22v-165h-120v165h120z" />
    <glyph glyph-name="uni04AF" unicode="&#x4af;" horiz-adv-x="695" 
d="M668 481l-260 -495v-156h-120v156l-261 495v17h126l195 -375l194 375h126v-17z" />
    <glyph glyph-name="uni04B1" unicode="&#x4b1;" horiz-adv-x="695" 
d="M668 481l-197 -375h138v-106h-201v-170h-120v170h-202v106h138l-197 375v17h126l195 -375l194 375h126v-17z" />
    <glyph glyph-name="uni04B3" unicode="&#x4b3;" horiz-adv-x="676" 
d="M662 106v-234h-120v128h-67l-151 170l-155 -170h-143v17l216 231l-212 233v17h142l155 -173l161 173h136v-17l-215 -233l128 -142h125z" />
    <glyph glyph-name="uni04B7" unicode="&#x4b7;" horiz-adv-x="732" 
d="M695 106v-234h-120v128h-97v162q-104 -14 -188 -14q-242 0 -242 197v153h120v-141q0 -52 33 -77t101 -25q76 0 176 13v230h120v-392h97z" />
    <glyph glyph-name="uni04B9" unicode="&#x4b9;" horiz-adv-x="677" 
d="M598 498v-498h-120v165q-69 -8 -99 -10v-104h-112v100q-219 11 -219 197v150h120v-138q0 -88 99 -100v154h112v-153q23 2 99 10v227h120z" />
    <glyph glyph-name="uni04BB" unicode="&#x4bb;" horiz-adv-x="711" 
d="M571 444q68 -66 68 -194v-250h-120v250q0 73 -40.5 111.5t-117.5 38.5q-53 0 -96.5 -25t-65.5 -67v-308h-120v696h120v-248q71 62 174 62q130 0 198 -66z" />
    <glyph glyph-name="uni04CF" unicode="&#x4cf;" horiz-adv-x="286" 
d="M203 696v-696h-120v696h120z" />
    <glyph glyph-name="uni04C2" unicode="&#x4c2;" horiz-adv-x="1018" 
d="M992 17v-17h-134l-175 198h-114v-198h-120v198h-115l-174 -198h-134v17l206 237l-194 227v17h135l166 -194h110v194h120v-194h109l167 194h135v-17l-195 -227zM348 598q-55 38 -55 111v7h111v-7q0 -23 27.5 -35.5t77.5 -12.5q47 0 73 12.5t26 35.5v7h117v-7
q0 -73 -54.5 -111t-161.5 -38q-106 0 -161 38z" />
    <glyph glyph-name="uni04D1" unicode="&#x4d1;" horiz-adv-x="716" 
d="M710 106v-106h-73q-48 0 -81.5 16.5t-49.5 48.5q-39 -40 -92 -58.5t-125 -18.5q-109 0 -169 39.5t-60 111.5q0 60 45.5 97.5t129.5 46.5l256 28q-12 85 -153 85q-73 0 -114 -21t-41 -58v-3h-120v3q0 57 34 101t96.5 68t145.5 24q129 0 201 -57.5t72 -160.5v-138
q0 -23 14 -35.5t40 -12.5h44zM415.5 117q53.5 23 76.5 65v31l-231 -25q-81 -9 -81 -49q0 -45 106 -45q76 0 129.5 23zM181 598q-55 38 -55 111v7h111v-7q0 -23 27.5 -35.5t77.5 -12.5q47 0 73 12.5t26 35.5v7h117v-7q0 -73 -54.5 -111t-161.5 -38q-106 0 -161 38z" />
    <glyph glyph-name="uni04D3" unicode="&#x4d3;" horiz-adv-x="716" 
d="M710 106v-106h-73q-48 0 -81.5 16.5t-49.5 48.5q-39 -40 -92 -58.5t-125 -18.5q-109 0 -169 39.5t-60 111.5q0 60 45.5 97.5t129.5 46.5l256 28q-12 85 -153 85q-73 0 -114 -21t-41 -58v-3h-120v3q0 57 34 101t96.5 68t145.5 24q129 0 201 -57.5t72 -160.5v-138
q0 -23 14 -35.5t40 -12.5h44zM415.5 117q53.5 23 76.5 65v31l-231 -25q-81 -9 -81 -49q0 -45 106 -45q76 0 129.5 23zM158 588.5q-21 19.5 -21 51.5q0 31 21 50.5t55 19.5q32 0 52.5 -19.5t20.5 -50.5t-20.5 -51t-52.5 -20q-34 0 -55 19.5zM418 589q-21 20 -21 51t20.5 50.5
t53.5 19.5t54 -19.5t21 -50.5t-21 -51t-54 -20q-32 0 -53 20z" />
    <glyph glyph-name="uni04D5" unicode="&#x4d5;" horiz-adv-x="1098" 
d="M1055 208h-449q6 -55 48.5 -84t116.5 -29q66 0 109.5 21.5t46.5 55.5h128q-9 -85 -83 -134.5t-193 -49.5q-81 0 -142 23t-99 68q-39 -44 -103 -67.5t-148 -23.5q-108 0 -167.5 38.5t-59.5 108.5q0 62 45.5 100.5t129.5 47.5l249 27q-6 42 -45.5 64t-108.5 22
q-67 0 -106 -21.5t-39 -57.5v-3h-122v3q0 58 34 101.5t96 67.5t144 24q153 0 216 -84q36 41 92 62.5t129 21.5q131 0 206 -66.5t75 -181.5v-54zM664.5 376q-42.5 -25 -54.5 -69h316q-11 45 -50.5 69.5t-103.5 24.5q-65 0 -107.5 -25zM409.5 116q55.5 21 82.5 58q-5 18 -6 37
l-215 -22q-91 -9 -91 -51q0 -43 99 -43q75 0 130.5 21z" />
    <glyph glyph-name="uni04D7" unicode="&#x4d7;" horiz-adv-x="671" 
d="M628 209h-459q7 -53 51.5 -82t118.5 -29q69 0 112 20t48 54h129q-10 -88 -85.5 -136t-203.5 -48q-91 0 -157.5 30.5t-102.5 87t-36 132.5v20q0 77 36 134t103 87.5t157 30.5q136 0 212.5 -66t76.5 -182v-53zM229 376q-43 -24 -56 -67h325q-12 43 -54 67t-106 24
q-66 0 -109 -24zM175 598q-55 38 -55 111v7h111v-7q0 -23 27.5 -35.5t77.5 -12.5q47 0 73 12.5t26 35.5v7h117v-7q0 -73 -54.5 -111t-161.5 -38q-106 0 -161 38z" />
    <glyph glyph-name="uni04D9" unicode="&#x4d9;" horiz-adv-x="671" 
d="M489.5 479.5q66.5 -30.5 102.5 -87t36 -132.5v-20q0 -77 -36 -134t-103 -87.5t-157 -30.5q-136 0 -212.5 66t-76.5 182v53h459q-7 53 -51.5 82t-118.5 29q-69 0 -112 -20t-48 -54h-129q10 88 85.5 136t203.5 48q91 0 157.5 -30.5zM442 122q43 24 56 67h-325
q12 -43 54 -67t106 -24q66 0 109 24z" />
    <glyph glyph-name="uni04DB" unicode="&#x4db;" horiz-adv-x="671" 
d="M489.5 479.5q66.5 -30.5 102.5 -87t36 -132.5v-20q0 -77 -36 -134t-103 -87.5t-157 -30.5q-136 0 -212.5 66t-76.5 182v53h459q-7 53 -51.5 82t-118.5 29q-69 0 -112 -20t-48 -54h-129q10 88 85.5 136t203.5 48q91 0 157.5 -30.5zM442 122q43 24 56 67h-325
q12 -43 54 -67t106 -24q66 0 109 24zM151 588.5q-21 19.5 -21 51.5q0 31 21 50.5t55 19.5q32 0 52.5 -19.5t20.5 -50.5t-20.5 -51t-52.5 -20q-34 0 -55 19.5zM411 589q-21 20 -21 51t20.5 50.5t53.5 19.5t54 -19.5t21 -50.5t-21 -51t-54 -20q-32 0 -53 20z" />
    <glyph glyph-name="uni04DD" unicode="&#x4dd;" horiz-adv-x="1018" 
d="M992 17v-17h-134l-175 198h-114v-198h-120v198h-115l-174 -198h-134v17l206 237l-194 227v17h135l166 -194h110v194h120v-194h109l167 194h135v-17l-195 -227zM325 588.5q-21 19.5 -21 51.5q0 31 21 50.5t55 19.5q32 0 52.5 -19.5t20.5 -50.5t-20.5 -51t-52.5 -20
q-34 0 -55 19.5zM585 589q-21 20 -21 51t20.5 50.5t53.5 19.5t54 -19.5t21 -50.5t-21 -51t-54 -20q-32 0 -53 20z" />
    <glyph glyph-name="uni04DF" unicode="&#x4df;" horiz-adv-x="684" 
d="M611.5 208q21.5 -27 21.5 -60v-6q0 -75 -72 -114.5t-209 -39.5q-153 0 -228.5 52.5t-75.5 159.5v7h120v-7q0 -56 44.5 -81t142.5 -25q154 0 154 54v6q0 22 -23 33t-71 11h-157v105h147q47 0 68.5 11t21.5 34v6q0 24 -40 37t-114 13q-92 0 -132.5 -25t-40.5 -82v-7h-120v7
q0 105 75.5 159t223.5 54q130 0 201 -40t71 -113v-6q0 -30 -17.5 -55t-50.5 -43q39 -18 60.5 -45zM160 588.5q-21 19.5 -21 51.5q0 31 21 50.5t55 19.5q32 0 52.5 -19.5t20.5 -50.5t-20.5 -51t-52.5 -20q-34 0 -55 19.5zM420 589q-21 20 -21 51t20.5 50.5t53.5 19.5
t54 -19.5t21 -50.5t-21 -51t-54 -20q-32 0 -53 20z" />
    <glyph glyph-name="uni04E3" unicode="&#x4e3;" horiz-adv-x="713" 
d="M195 498v-351l329 351h110v-498h-116v351l-329 -351h-110v498h116zM575 692v-103h-435v103h435z" />
    <glyph glyph-name="uni04E5" unicode="&#x4e5;" horiz-adv-x="713" 
d="M195 498v-351l329 351h110v-498h-116v351l-329 -351h-110v498h116zM173 588.5q-21 19.5 -21 51.5q0 31 21 50.5t55 19.5q32 0 52.5 -19.5t20.5 -50.5t-20.5 -51t-52.5 -20q-34 0 -55 19.5zM433 589q-21 20 -21 51t20.5 50.5t53.5 19.5t54 -19.5t21 -50.5t-21 -51t-54 -20
q-32 0 -53 20z" />
    <glyph glyph-name="uni04E7" unicode="&#x4e7;" horiz-adv-x="685" 
d="M184 18.5q-68 30.5 -104.5 87.5t-36.5 134v15q0 78 36 135.5t104 88.5t161 31q92 0 159 -31t103 -88.5t36 -135.5v-15q0 -77 -36 -134t-103 -87.5t-159 -30.5t-160 30.5zM471.5 135.5q46.5 37.5 46.5 104.5v15q0 69 -46 107t-129 38q-85 0 -130.5 -37.5t-45.5 -107.5v-15
q0 -67 46.5 -104.5t129.5 -37.5q82 0 128.5 37.5zM159 588.5q-21 19.5 -21 51.5q0 31 21 50.5t55 19.5q32 0 52.5 -19.5t20.5 -50.5t-20.5 -51t-52.5 -20q-34 0 -55 19.5zM419 589q-21 20 -21 51t20.5 50.5t53.5 19.5t54 -19.5t21 -50.5t-21 -51t-54 -20q-32 0 -53 20z" />
    <glyph glyph-name="uni04E9" unicode="&#x4e9;" horiz-adv-x="685" 
d="M503.5 479q67.5 -31 103 -88.5t35.5 -135.5v-15q0 -77 -36 -134t-103 -87.5t-159 -30.5q-93 0 -161 31t-104 87.5t-36 133.5v15q0 78 36 135.5t104 88.5t161 31q92 0 159.5 -31zM230.5 374q-44.5 -26 -57.5 -75h339q-14 49 -58 75t-111 26q-68 0 -112.5 -26zM455 124.5
q44 26.5 58 74.5h-341q13 -49 58 -75t113 -26t112 26.5z" />
    <glyph glyph-name="uni04EF" unicode="&#x4ef;" horiz-adv-x="697" 
d="M669 498v-17l-272 -529q-34 -66 -81 -94t-124 -28h-113v106h112q38 0 56 11t34 44l-253 490v17h128l193 -386l192 386h128zM567 692v-103h-435v103h435z" />
    <glyph glyph-name="uni04F1" unicode="&#x4f1;" horiz-adv-x="697" 
d="M669 498v-17l-272 -529q-34 -66 -81 -94t-124 -28h-113v106h112q38 0 56 11t34 44l-253 490v17h128l193 -386l192 386h128zM165 588.5q-21 19.5 -21 51.5q0 31 21 50.5t55 19.5q32 0 52.5 -19.5t20.5 -50.5t-20.5 -51t-52.5 -20q-34 0 -55 19.5zM425 589q-21 20 -21 51
t20.5 50.5t53.5 19.5t54 -19.5t21 -50.5t-21 -51t-54 -20q-32 0 -53 20z" />
    <glyph glyph-name="uni04F3" unicode="&#x4f3;" horiz-adv-x="697" 
d="M669 498v-17l-272 -529q-34 -66 -81 -94t-124 -28h-113v106h112q38 0 56 11t34 44l-253 490v17h128l193 -386l192 386h128zM380 730v-105l-267 -68v105zM671 730v-105l-265 -68v105z" />
    <glyph glyph-name="uni04F5" unicode="&#x4f5;" horiz-adv-x="677" 
d="M598 498v-498h-120v162q-104 -14 -188 -14q-242 0 -242 197v153h120v-141q0 -52 33 -77t101 -25q76 0 176 13v230h120zM141 588.5q-21 19.5 -21 51.5q0 31 21 50.5t55 19.5q32 0 52.5 -19.5t20.5 -50.5t-20.5 -51t-52.5 -20q-34 0 -55 19.5zM401 589q-21 20 -21 51
t20.5 50.5t53.5 19.5t54 -19.5t21 -50.5t-21 -51t-54 -20q-32 0 -53 20z" />
    <glyph glyph-name="uni04F9" unicode="&#x4f9;" horiz-adv-x="902" 
d="M582 314.5q55 -47.5 55 -129.5v-12q0 -80 -55.5 -126.5t-153.5 -46.5h-345v498h120v-136h225q99 0 154 -47.5zM819 498v-498h-120v498h120zM513 185q0 71 -94 71h-216v-150h216q94 0 94 67v12zM267 588.5q-21 19.5 -21 51.5q0 31 21 50.5t55 19.5q32 0 52.5 -19.5
t20.5 -50.5t-20.5 -51t-52.5 -20q-34 0 -55 19.5zM527 589q-21 20 -21 51t20.5 50.5t53.5 19.5t54 -19.5t21 -50.5t-21 -51t-54 -20q-32 0 -53 20z" />
    <glyph glyph-name="uni0432.loclBGR" horiz-adv-x="707" 
d="M637.5 302.5q26.5 -37.5 26.5 -86.5v-18q0 -100 -76 -155t-214 -55q-150 0 -230.5 66t-80.5 189v210q0 120 79.5 187.5t221.5 67.5q86 0 150.5 -24.5t100 -70t35.5 -104.5v-12q0 -44 -22.5 -78.5t-65.5 -56.5q49 -22 75.5 -59.5zM231 560q-48 -38 -48 -109v-42h212
q61 0 98 23t37 60v6q0 46 -43.5 73t-118.5 27q-89 0 -137 -38zM543 219q0 40 -35 62t-97 22h-228v-58q0 -72 48.5 -109.5t141.5 -37.5q83 0 126.5 27t43.5 79v15z" />
    <glyph glyph-name="uni0433.loclBGR" horiz-adv-x="688" 
d="M131.5 28.5q-74.5 40.5 -74.5 112.5v10q0 65 53 99.5t171 45.5l124 12q49 4 71.5 15t22.5 31v6q0 42 -147 42q-165 0 -165 -61v-3h-120v3q0 80 74 124.5t207 44.5q130 0 202.5 -40t72.5 -111v-10q0 -61 -53.5 -96t-163.5 -45l-122 -12q-56 -5 -79.5 -15.5t-23.5 -29.5v-6
q0 -49 155 -49q176 0 176 61v3h120v-3q0 -79 -78 -124t-215 -45q-133 0 -207.5 40.5z" />
    <glyph glyph-name="uni0434.loclBGR" horiz-adv-x="709" 
d="M630 498v-449q0 -115 -72.5 -173t-216.5 -58q-139 0 -218 50.5t-79 139.5v7h123v-7q0 -35 47 -57.5t122 -22.5q84 0 129 30.5t45 87.5v34q-36 -26 -81 -40t-92 -14q-142 0 -218.5 60t-76.5 172v13q0 113 77.5 176t217.5 63q106 0 178 -55l3 43h112zM440 152.5
q46 18.5 70 49.5v129q-25 32 -71 51t-99 19q-86 0 -130 -33t-44 -97v-13q0 -63 43 -93.5t131 -30.5q54 0 100 18.5z" />
    <glyph glyph-name="uni0436.loclBGR" horiz-adv-x="1018" 
d="M992 17v-17h-134l-175 198h-114v-198h-120v198h-115l-174 -198h-134v17l206 237l-194 227v17h135l166 -194h110v392h120v-392h109l167 194h135v-17l-195 -227z" />
    <glyph glyph-name="uni0437.loclBGR" horiz-adv-x="684" 
d="M608.5 114q24.5 -36 24.5 -85v-7q0 -97 -77 -150.5t-215 -53.5q-140 0 -216.5 60t-76.5 169v14h118v-14q0 -59 46 -89t135 -30q162 0 162 105v7q0 35 -32.5 56t-87.5 21h-157v106h150q102 0 102 75v7q0 47 -37 71t-109 24q-84 0 -125.5 -29.5t-41.5 -90.5v-14h-118v14
q0 108 76 169t210 61q82 0 142.5 -24t93.5 -68t33 -104v-7q0 -89 -70 -136q46 -21 70.5 -57z" />
    <glyph glyph-name="uni0438.loclBGR" horiz-adv-x="711" 
d="M632 498v-498h-112l-4 54q-69 -64 -178 -66q-131 0 -198.5 66t-67.5 194v250h120v-250q0 -73 40.5 -111.5t117.5 -38.5q53 0 96.5 24.5t65.5 66.5v309h120z" />
    <glyph glyph-name="uni0439.loclBGR" horiz-adv-x="711" 
d="M632 498v-498h-112l-4 54q-69 -64 -178 -66q-131 0 -198.5 66t-67.5 194v250h120v-250q0 -73 40.5 -111.5t117.5 -38.5q53 0 96.5 24.5t65.5 66.5v309h120zM191 598q-55 38 -55 111v7h111v-7q0 -23 27.5 -35.5t77.5 -12.5q47 0 73 12.5t26 35.5v7h117v-7
q0 -73 -54.5 -111t-161.5 -38q-106 0 -161 38z" />
    <glyph glyph-name="uni045D.loclBGR" horiz-adv-x="711" 
d="M632 498v-498h-112l-4 54q-69 -64 -178 -66q-131 0 -198.5 66t-67.5 194v250h120v-250q0 -73 40.5 -111.5t117.5 -38.5q53 0 96.5 24.5t65.5 66.5v309h120zM135 731l435 -70v-104l-435 71v103z" />
    <glyph glyph-name="uni043A.loclBGR" horiz-adv-x="687" 
d="M661 17v-17h-137l-195 200h-130v-200h-120v696h120v-392h127l184 194h139v-17l-213 -227z" />
    <glyph glyph-name="uni043B.loclBGR" horiz-adv-x="697" 
d="M669 17v-17h-125l-195 393l-196 -393h-125v17l243 481h156z" />
    <glyph glyph-name="uni043F.loclBGR" horiz-adv-x="711" 
d="M571.5 444q67.5 -66 67.5 -194v-250h-120v250q0 73 -40.5 111.5t-117.5 38.5q-53 0 -96.5 -24.5t-65.5 -66.5v-309h-120v498h112l4 -54q69 64 178 66q131 0 198.5 -66z" />
    <glyph glyph-name="uni0442.loclBGR" horiz-adv-x="1108" 
d="M976 443.5q66 -66.5 66 -191.5v-252h-120v252q0 71 -37.5 109.5t-105.5 38.5q-54 0 -97.5 -25.5t-66.5 -68.5q3 -25 3 -54v-252h-120v252q0 71 -37 109.5t-105 38.5q-53 0 -96 -25t-65 -67v-308h-120v498h112l4 -53q71 65 177 65q145 0 208 -93q37 46 90.5 69.5
t118.5 23.5q125 0 191 -66.5z" />
    <glyph glyph-name="uni0446.loclBGR" horiz-adv-x="747" 
d="M733 106v-239h-120v133h-93l-4 53q-71 -65 -178 -65q-131 0 -198.5 66t-67.5 194v250h120v-250q0 -73 40.5 -111.5t117.5 -38.5q53 0 96.5 24.5t65.5 66.5v309h120v-392h101z" />
    <glyph glyph-name="uni0448.loclBGR" horiz-adv-x="1108" 
d="M1033 498v-498h-112l-4 53q-71 -65 -177 -65q-145 0 -208 93q-37 -46 -90.5 -69.5t-118.5 -23.5q-125 0 -191 66.5t-66 191.5v252h120v-252q0 -71 37.5 -109.5t105.5 -38.5q54 0 97.5 25.5t66.5 68.5q-3 26 -3 54v252h120v-252q0 -71 37 -109.5t105 -38.5q53 0 96 25
t65 67v308h120z" />
    <glyph glyph-name="uni0449.loclBGR" horiz-adv-x="1144" 
d="M1130 106v-239h-120v133h-89l-4 54q-71 -66 -176 -66q-145 0 -208 93q-38 -45 -91.5 -69t-117.5 -24q-126 0 -191.5 66t-65.5 192v252h120v-252q0 -71 37 -109.5t105 -38.5q53 0 97 25t68 68q-4 23 -4 55v252h120v-252q0 -71 37 -109.5t105 -38.5q53 0 96 24.5t65 66.5
v309h120v-392h97z" />
    <glyph glyph-name="uni044C.loclBGR" horiz-adv-x="704" 
d="M601.5 317q57.5 -45 57.5 -127v-12q0 -86 -65 -132t-187 -46h-70q-131 0 -194.5 50t-63.5 153v295h120v-136h241q104 0 161.5 -45zM535 190q0 34 -25.5 50t-78.5 16h-232v-53q0 -50 34 -73.5t107 -23.5h51q77 0 110.5 17t33.5 55v12z" />
    <glyph glyph-name="uni044A.loclBGR" horiz-adv-x="835" 
d="M732.5 317q57.5 -45 57.5 -127v-12q0 -86 -65 -132t-187 -46h-70q-131 0 -194.5 50t-63.5 153v187h-197v108h317v-136h241q104 0 161.5 -45zM666 190q0 34 -25.5 50t-78.5 16h-232v-53q0 -50 34 -73.5t107 -23.5h51q77 0 110.5 17t33.5 55v12z" />
    <glyph glyph-name="uni044E.loclBGR" horiz-adv-x="928" 
d="M749 479q66 -31 101 -88.5t35 -135.5v-15q0 -77 -35.5 -134t-101.5 -87.5t-155 -30.5q-121 0 -197 55t-91 152h-106v-195h-120v696h120v-393h107q15 97 90.5 152t196.5 55q90 0 156 -31zM761 253q0 70 -44.5 108.5t-123.5 38.5q-80 0 -124.5 -38.5t-44.5 -108.5v-12
q0 -67 44.5 -105t124.5 -38q78 0 123 38t45 105v12z" />
    <glyph glyph-name="uni0431.loclSRB" horiz-adv-x="689" 
d="M593.5 384.5q59.5 -58.5 59.5 -146.5v-11q0 -113 -80.5 -176t-223.5 -63t-224.5 63t-81.5 175v11q0 128 109 184q-31 20 -47.5 50.5t-16.5 68.5q0 63 45 104.5t117 45.5l345 18v-114l-322 -19q-29 -2 -45 -12t-16 -27q0 -33 56 -43l154 -29q112 -21 171.5 -79.5zM529 235
q0 52 -38 83t-119 46l-66 12q-141 -24 -141 -136v-8q0 -65 47.5 -99.5t135.5 -34.5q87 0 134 33.5t47 95.5v8z" />
    <glyph glyph-name="uni0430.ss05" horiz-adv-x="693" 
d="M546.5 452q74.5 -58 74.5 -161v-291h-112l-4 55q-68 -67 -211 -67q-113 0 -173.5 39t-60.5 112q0 63 43.5 98.5t131.5 45.5l264 28q-8 41 -49.5 63t-111.5 22t-111 -21.5t-41 -57.5v-3h-123v3q0 57 34.5 101t97 68t144.5 24q133 0 207.5 -58zM423.5 118q55.5 24 77.5 70
v25l-240 -25q-37 -4 -59 -17t-22 -32q0 -45 108 -45q80 0 135.5 24z" />
    <glyph glyph-name="uni04D1.ss05" horiz-adv-x="693" 
d="M546.5 452q74.5 -58 74.5 -161v-291h-112l-4 55q-68 -67 -211 -67q-113 0 -173.5 39t-60.5 112q0 63 43.5 98.5t131.5 45.5l264 28q-8 41 -49.5 63t-111.5 22t-111 -21.5t-41 -57.5v-3h-123v3q0 57 34.5 101t97 68t144.5 24q133 0 207.5 -58zM423.5 118q55.5 24 77.5 70
v25l-240 -25q-37 -4 -59 -17t-22 -32q0 -45 108 -45q80 0 135.5 24zM183 598q-55 38 -55 111v7h111v-7q0 -23 27.5 -35.5t77.5 -12.5q47 0 73 12.5t26 35.5v7h117v-7q0 -73 -54.5 -111t-161.5 -38q-106 0 -161 38z" />
    <glyph glyph-name="uni04D3.ss05" horiz-adv-x="693" 
d="M546.5 452q74.5 -58 74.5 -161v-291h-112l-4 55q-68 -67 -211 -67q-113 0 -173.5 39t-60.5 112q0 63 43.5 98.5t131.5 45.5l264 28q-8 41 -49.5 63t-111.5 22t-111 -21.5t-41 -57.5v-3h-123v3q0 57 34.5 101t97 68t144.5 24q133 0 207.5 -58zM423.5 118q55.5 24 77.5 70
v25l-240 -25q-37 -4 -59 -17t-22 -32q0 -45 108 -45q80 0 135.5 24zM160 588.5q-21 19.5 -21 51.5q0 31 21 50.5t55 19.5q32 0 52.5 -19.5t20.5 -50.5t-20.5 -51t-52.5 -20q-34 0 -55 19.5zM420 589q-21 20 -21 51t20.5 50.5t53.5 19.5t54 -19.5t21 -50.5t-21 -51t-54 -20
q-32 0 -53 20z" />
    <glyph glyph-name="uni0431.ss08" horiz-adv-x="704" 
d="M587.5 414q73.5 -63 73.5 -173v-22q0 -70 -36.5 -122.5t-105 -80.5t-160.5 -28q-142 0 -221.5 77.5t-79.5 217.5v98q0 138 76 210t241 90l245 27v-114l-246 -29q-76 -9 -119 -26.5t-62.5 -48t-19.5 -80.5v-1q41 33 95.5 50.5t117.5 17.5q128 0 201.5 -63zM537 237
q0 66 -42.5 98.5t-129.5 32.5q-120 0 -186 -69v-44q0 -77 45.5 -117.5t132.5 -40.5q85 0 132.5 31t47.5 87v22z" />
    <glyph glyph-name="Alpha" unicode="&#x391;" horiz-adv-x="770" 
d="M754 19v-19h-127l-68 150h-348l-68 -150h-127v19l300 637h138zM507 262l-122 268l-122 -268h244z" />
    <glyph glyph-name="Beta" unicode="&#x392;" horiz-adv-x="785" 
d="M702 281.5q25 -35.5 25 -84.5v-11q0 -56 -29.5 -98t-83.5 -65t-126 -23h-403v656h383q113 0 175.5 -44.5t62.5 -125.5v-11q0 -90 -76 -138q47 -20 72 -55.5zM210 544v-157h257q57 0 84.5 18t27.5 55v11q0 36 -28.5 54.5t-82.5 18.5h-258zM600 201q0 37 -28 55.5t-86 18.5
h-276v-163h276q54 0 84 20.5t30 57.5v11z" />
    <glyph glyph-name="Gamma" unicode="&#x393;" horiz-adv-x="687" 
d="M674 656v-112h-464v-544h-125v656h589z" />
    <glyph glyph-name="uni0394" unicode="&#x394;" horiz-adv-x="773" 
d="M731 111v-111h-689v111l268 545h153zM171 112h431l-215 442z" />
    <glyph glyph-name="Epsilon" unicode="&#x395;" horiz-adv-x="723" 
d="M656 656v-112h-446v-159h426v-112h-426v-161h446v-112h-571v656h571z" />
    <glyph glyph-name="Zeta" unicode="&#x396;" horiz-adv-x="696" 
d="M652 545l-441 -433h441v-112h-608v111l441 433h-441v112h608v-111z" />
    <glyph glyph-name="Eta" unicode="&#x397;" horiz-adv-x="819" 
d="M210 656v-272h399v272h125v-656h-125v272h-399v-272h-125v656h125z" />
    <glyph glyph-name="Theta" unicode="&#x398;" horiz-adv-x="877" 
d="M640.5 627q86.5 -41 133.5 -117t47 -177v-11q0 -101 -47 -176.5t-133 -116.5t-202 -41q-115 0 -202 41t-134 116.5t-47 176.5v11q0 101 47 177t134 117t202 41t201.5 -41zM268 508q-65 -44 -80 -124h501q-15 80 -80 124t-170 44q-106 0 -171 -44zM605 149.5
q67 45.5 84 122.5h-502q15 -81 79.5 -124.5t172.5 -43.5q99 0 166 45.5z" />
    <glyph glyph-name="Iota" unicode="&#x399;" horiz-adv-x="299" 
d="M212 656v-656h-125v656h125z" />
    <glyph glyph-name="Kappa" unicode="&#x39a;" horiz-adv-x="813" 
d="M759 637l-320 -271l308 -347v-19h-152l-252 284l-133 -110v-174h-125v656h125v-324l382 324h167v-19z" />
    <glyph glyph-name="Lambda" unicode="&#x39b;" horiz-adv-x="770" 
d="M754 19v-19h-127l-242 536l-242 -536h-127v19l297 637h144z" />
    <glyph glyph-name="Mu" unicode="&#x39c;" horiz-adv-x="1029" 
d="M944 0h-124v491l-241 -491h-129l-241 493v-493h-124v656h176l254 -515l253 515h176v-656z" />
    <glyph glyph-name="Nu" unicode="&#x39d;" horiz-adv-x="819" 
d="M734 656v-656h-123l-404 481v-481h-122v656h123l404 -480v480h122z" />
    <glyph glyph-name="Xi" unicode="&#x39e;" horiz-adv-x="790" 
d="M455 544v-159h247v-112h-247v-161h268v-112h-656v112h269v161h-248v112h248v159h-269v112h656v-112h-268z" />
    <glyph glyph-name="Omicron" unicode="&#x39f;" horiz-adv-x="877" 
d="M236.5 29q-86.5 41 -133.5 116.5t-47 176.5v11q0 101 47 177t134 117t202 41t201.5 -41t133.5 -117t47 -177v-11q0 -101 -47 -176.5t-133 -116.5t-202 -41t-202.5 41zM627.5 160.5q66.5 56.5 66.5 159.5v14q0 103 -66.5 160.5t-188.5 57.5t-189 -57.5t-67 -160.5v-14
q0 -103 67 -159.5t189 -56.5t188.5 56.5z" />
    <glyph glyph-name="Pi" unicode="&#x3a0;" horiz-adv-x="799" 
d="M714 656v-656h-125v544h-379v-544h-125v656h629z" />
    <glyph glyph-name="Rho" unicode="&#x3a1;" horiz-adv-x="787" 
d="M495 656q113 0 178.5 -54.5t65.5 -148.5v-11q0 -94 -65.5 -148.5t-178.5 -54.5h-285v-239h-125v656h410zM581 374.5q31 23.5 31 67.5v11q0 44 -31 67.5t-89 23.5h-282v-193h282q58 0 89 23.5z" />
    <glyph glyph-name="Sigma" unicode="&#x3a3;" horiz-adv-x="703" 
d="M654 544h-400l260 -178v-76l-260 -178h400v-112h-595v111l318 217l-318 217v111h595v-112z" />
    <glyph glyph-name="Tau" unicode="&#x3a4;" horiz-adv-x="691" 
d="M13 544v112h665v-112h-270v-544h-125v544h-270z" />
    <glyph glyph-name="Upsilon" unicode="&#x3a5;" horiz-adv-x="726" 
d="M723 656v-19l-297 -381v-256h-125v256l-298 381v19h140l220 -282l220 282h140z" />
    <glyph glyph-name="Phi" unicode="&#x3a6;" horiz-adv-x="1077" 
d="M932 530.5q89 -70.5 89 -196.5v-7q0 -84 -40 -145.5t-116 -94t-180 -32.5h-84v-95h-125v95h-85q-158 0 -246.5 72t-88.5 200v7q0 126 88.5 196.5t246.5 70.5h85v95h125v-95h84q158 0 247 -70.5zM234 206q51 -39 157 -39h85v322h-85q-105 0 -156.5 -38t-51.5 -116v-10
q0 -80 51 -119zM894 335q0 78 -51.5 116t-157.5 38h-84v-322h84q106 0 157.5 39t51.5 119v10z" />
    <glyph glyph-name="Chi" unicode="&#x3a7;" horiz-adv-x="819" 
d="M765 637l-265 -309l265 -309v-19h-148l-207 245l-208 -245h-148v19l265 309l-265 309v19h148l208 -245l208 245h147v-19z" />
    <glyph glyph-name="Psi" unicode="&#x3a8;" horiz-adv-x="1057" 
d="M998 656v-236q0 -124 -83.5 -192t-236.5 -68h-87v-160h-125v160h-86q-153 0 -236.5 68t-83.5 192v236h125v-232q0 -77 46.5 -114.5t141.5 -37.5h93v384h125v-384h94q188 0 188 152v232h125z" />
    <glyph glyph-name="uni03A9" unicode="&#x3a9;" horiz-adv-x="880" 
d="M768.5 221q-53.5 -61 -142.5 -85v-24h196v-112h-314v217q88 13 137.5 53t49.5 99v17q0 80 -65.5 123t-189.5 43t-189.5 -43t-65.5 -123v-17q0 -59 49.5 -99t137.5 -53v-217h-314v112h196v24q-89 24 -142.5 85t-53.5 143v21q0 85 47 149t133.5 99t201.5 35t201.5 -35
t133.5 -99t47 -149v-21q0 -82 -53.5 -143z" />
    <glyph glyph-name="Alphatonos" unicode="&#x386;" horiz-adv-x="770" 
d="M754 19v-19h-127l-68 150h-348l-68 -150h-127v19l300 637h138zM507 262l-122 268l-122 -268h244zM66 656l-20 -262h-109l20 262h109z" />
    <glyph glyph-name="Epsilontonos" unicode="&#x388;" horiz-adv-x="723" 
d="M656 656v-112h-446v-159h426v-112h-426v-161h446v-112h-571v656h571zM-91 656l-20 -262h-109l20 262h109z" />
    <glyph glyph-name="Etatonos" unicode="&#x389;" horiz-adv-x="819" 
d="M210 656v-272h399v272h125v-656h-125v272h-399v-272h-125v656h125zM-91 656l-20 -262h-109l20 262h109z" />
    <glyph glyph-name="Iotatonos" unicode="&#x38a;" horiz-adv-x="299" 
d="M212 656v-656h-125v656h125zM-100 656l-20 -262h-109l20 262h109z" />
    <glyph glyph-name="Omicrontonos" unicode="&#x38c;" horiz-adv-x="877" 
d="M236.5 29q-86.5 41 -133.5 116.5t-47 176.5v11q0 101 47 177t134 117t202 41t201.5 -41t133.5 -117t47 -177v-11q0 -101 -47 -176.5t-133 -116.5t-202 -41t-202.5 41zM627.5 160.5q66.5 56.5 66.5 159.5v14q0 103 -66.5 160.5t-188.5 57.5t-189 -57.5t-67 -160.5v-14
q0 -103 67 -159.5t189 -56.5t188.5 56.5zM-33 656l-20 -262h-109l20 262h109z" />
    <glyph glyph-name="Upsilontonos" unicode="&#x38e;" horiz-adv-x="726" 
d="M723 656v-19l-297 -381v-256h-125v256l-298 381v19h140l220 -282l220 282h140zM-113 656l-20 -262h-109l20 262h109z" />
    <glyph glyph-name="Omegatonos" unicode="&#x38f;" horiz-adv-x="880" 
d="M768.5 221q-53.5 -61 -142.5 -85v-24h196v-112h-314v217q88 13 137.5 53t49.5 99v17q0 80 -65.5 123t-189.5 43t-189.5 -43t-65.5 -123v-17q0 -59 49.5 -99t137.5 -53v-217h-314v112h196v24q-89 24 -142.5 85t-53.5 143v21q0 85 47 149t133.5 99t201.5 35t201.5 -35
t133.5 -99t47 -149v-21q0 -82 -53.5 -143zM-19 656l-20 -262h-109l20 262h109z" />
    <glyph glyph-name="Iotadieresis" unicode="&#x3aa;" horiz-adv-x="299" 
d="M212 656v-656h-125v656h125zM-34 746.5q-21 19.5 -21 51.5q0 31 21 50.5t55 19.5q32 0 52.5 -19.5t20.5 -50.5t-20.5 -51t-52.5 -20q-34 0 -55 19.5zM226 747q-21 20 -21 51t20.5 50.5t53.5 19.5t54 -19.5t21 -50.5t-21 -51t-54 -20q-32 0 -53 20z" />
    <glyph glyph-name="Upsilondieresis" unicode="&#x3ab;" horiz-adv-x="726" 
d="M723 656v-19l-297 -381v-256h-125v256l-298 381v19h140l220 -282l220 282h140zM179 746.5q-21 19.5 -21 51.5q0 31 21 50.5t55 19.5q32 0 52.5 -19.5t20.5 -50.5t-20.5 -51t-52.5 -20q-34 0 -55 19.5zM439 747q-21 20 -21 51t20.5 50.5t53.5 19.5t54 -19.5t21 -50.5
t-21 -51t-54 -20q-32 0 -53 20z" />
    <glyph glyph-name="Iota.ss07" horiz-adv-x="701" 
d="M288 111v434h-242v111h609v-111h-242v-434h242v-111h-609v111h242z" />
    <glyph glyph-name="Iotatonos.ss07" horiz-adv-x="701" 
d="M288 111v434h-242v111h609v-111h-242v-434h242v-111h-609v111h242zM-95 656l-20 -262h-109l20 262h109z" />
    <glyph glyph-name="Iotadieresis.ss07" horiz-adv-x="701" 
d="M288 111v434h-242v111h609v-111h-242v-434h242v-111h-609v111h242zM167 746.5q-21 19.5 -21 51.5q0 31 21 50.5t55 19.5q32 0 52.5 -19.5t20.5 -50.5t-20.5 -51t-52.5 -20q-34 0 -55 19.5zM427 747q-21 20 -21 51t20.5 50.5t53.5 19.5t54 -19.5t21 -50.5t-21 -51t-54 -20
q-32 0 -53 20z" />
    <glyph glyph-name="alpha" unicode="&#x3b1;" horiz-adv-x="737" 
d="M731 106v-106h-73q-90 0 -126 56q-74 -68 -197 -68q-87 0 -153 32t-102.5 89.5t-36.5 133.5v13q0 75 36 132.5t102 89.5t152 32q113 0 185 -57l3 45h112v-344q0 -48 54 -48h44zM443 116.5q45 18.5 70 50.5v166q-25 32 -69 49.5t-100 17.5q-83 0 -130 -38t-47 -106v-13
q0 -67 47 -106t129 -39q55 0 100 18.5z" />
    <glyph glyph-name="beta" unicode="&#x3b2;" horiz-adv-x="723" 
d="M654.5 292q25.5 -37 25.5 -87v-12q0 -96 -74.5 -150.5t-206.5 -54.5q-119 0 -200 51v-209h-120v631q0 119 77 183t220 64q88 0 153.5 -25.5t101 -73t35.5 -110.5v-12q0 -95 -86 -138q49 -20 74.5 -57zM556 204q0 46 -28.5 67.5t-90.5 21.5h-112v106h96q62 0 91.5 21.5
t29.5 65.5v8q0 51 -41 77.5t-120 26.5q-182 0 -182 -139v-291q26 -34 76.5 -52t117.5 -18q80 0 121.5 25t41.5 73v8z" />
    <glyph glyph-name="gamma" unicode="&#x3b3;" horiz-adv-x="695" 
d="M668 481l-260 -495v-156h-120v156l-261 495v17h126l195 -375l194 375h126v-17z" />
    <glyph glyph-name="delta" unicode="&#x3b4;" horiz-adv-x="685" 
d="M606 358q36 -51 36 -118v-12q0 -73 -36.5 -127t-104 -83.5t-158.5 -29.5q-92 0 -159.5 29.5t-104 84t-36.5 128.5v12q0 94 54 153t157 79l-185 114v108h524v-106h-318l212 -130q83 -51 119 -102zM518 241q0 29 -9 49.5t-32 40.5t-68 47l-12 7q-7 1 -22 1
q-103 0 -155.5 -35.5t-52.5 -105.5v-10q0 -65 46.5 -101t129.5 -36q82 0 128.5 35.5t46.5 97.5v10z" />
    <glyph glyph-name="epsilon" unicode="&#x3b5;" horiz-adv-x="684" 
d="M516 304v7q0 35 -16.5 55t-54 29t-102.5 9q-154 0 -154 -50v-6q0 -22 22 -33t68 -11h151v-106h-161q-49 0 -71.5 -10.5t-22.5 -33.5v-6q0 -54 154 -54q102 0 144.5 21t42.5 71v7h120v-7q0 -100 -75.5 -149t-228.5 -49q-137 0 -209 39.5t-72 114.5v6q0 33 21.5 60t60.5 45
q-33 18 -50.5 43t-17.5 55v6q0 73 71 113t201 40q148 0 223.5 -50.5t75.5 -148.5v-7h-120z" />
    <glyph glyph-name="zeta" unicode="&#x3b6;" horiz-adv-x="599" 
d="M553.5 72.5q43.5 -33.5 43.5 -98.5v-15q0 -68 -42.5 -98.5t-129.5 -30.5h-118v106h125q45 0 45 29v5q0 30 -45 30h-116q-130 0 -203 54t-73 150v12q0 43 18 80t58.5 77t112.5 92l174 125h-349v106h537v-103l-285 -206q-60 -44 -89.5 -70.5t-41 -48.5t-11.5 -50v-8
q0 -49 40 -76.5t113 -27.5h108q85 0 128.5 -33.5z" />
    <glyph glyph-name="eta" unicode="&#x3b7;" horiz-adv-x="733" 
d="M595 443q66 -67 66 -193v-420h-120v420q0 72 -37.5 111t-106.5 39q-57 0 -100.5 -24t-66.5 -66l-1 -310h-119v339q0 51 -58 51h-46v108h75q48 0 82 -15.5t50 -45.5q67 73 192 73q124 0 190 -67z" />
    <glyph glyph-name="theta" unicode="&#x3b8;" horiz-adv-x="675" 
d="M495 638.5q66 -30.5 101.5 -88t35.5 -136.5v-174q0 -77 -35.5 -134t-102 -87.5t-155.5 -30.5q-90 0 -157 30.5t-103 87.5t-36 134v174q0 78 36 135.5t103 88.5t157 31t156 -30.5zM210.5 521q-46.5 -38 -46.5 -104v-35h347v35q0 66 -47 104t-126 38q-81 0 -127.5 -38z
M464 136q47 38 47 104v36h-347v-36q0 -66 46.5 -104t127.5 -38q79 0 126 38z" />
    <glyph glyph-name="iota" unicode="&#x3b9;" horiz-adv-x="329" 
d="M124 38.5q-41 38.5 -41 110.5v349h120v-337q0 -29 14 -42t46 -13h53v-106h-75q-76 0 -117 38.5z" />
    <glyph glyph-name="kappa" unicode="&#x3ba;" horiz-adv-x="681" 
d="M662 17v-17h-139l-196 211l-128 -107v-104h-120v498h120v-244l293 244h158v-17l-236 -198z" />
    <glyph glyph-name="lambda" unicode="&#x3bb;" horiz-adv-x="705" 
d="M677 17v-17h-130l-192 366l-188 -366h-130v17l250 478l-20 39q-16 32 -35 44t-54 12h-124v106h128q78 0 119.5 -22.5t73.5 -83.5z" />
    <glyph glyph-name="uni03BC" unicode="&#x3bc;" horiz-adv-x="740" 
d="M739 106v-106h-75q-48 0 -82.5 16t-51.5 46q-28 -36 -72 -55t-102 -19q-98 0 -157 51v-209h-120v668h120v-250q0 -72 40 -111t113 -39q56 0 97.5 23.5t65.5 67.5v309h120v-341q0 -51 58 -51h46z" />
    <glyph glyph-name="nu" unicode="&#x3bd;" horiz-adv-x="697" 
d="M669 498v-17l-242 -481h-156l-243 481v17h125l196 -393l195 393h125z" />
    <glyph glyph-name="xi" unicode="&#x3be;" horiz-adv-x="663" 
d="M527 486v4q0 51 -45.5 79.5t-127.5 28.5q-76 0 -120 -27t-44 -73v-10q0 -43 30 -66t86 -23h156v-106h-177q-55 0 -83.5 -22t-28.5 -63v-10q0 -47 42 -69.5t130 -22.5h127q86 0 129.5 -33.5t43.5 -98.5v-15q0 -67 -42 -98t-131 -31h-117v106h124q24 0 35 7t11 22v5
q0 30 -46 30h-134q-142 0 -219 50t-77 141v10q0 54 26.5 92.5t76.5 58.5q-42 23 -64 59.5t-22 84.5v10q0 59 37 105t102.5 71.5t150.5 25.5q88 0 155 -27t103.5 -76.5t36.5 -114.5v-4h-124z" />
    <glyph glyph-name="omicron" unicode="&#x3bf;" horiz-adv-x="685" 
d="M184 18.5q-68 30.5 -104.5 87.5t-36.5 134v15q0 78 36 135.5t104 88.5t161 31q92 0 159 -31t103 -88.5t36 -135.5v-15q0 -77 -36 -134t-103 -87.5t-159 -30.5t-160 30.5zM471.5 135.5q46.5 37.5 46.5 104.5v15q0 69 -46 107t-129 38q-85 0 -130.5 -37.5t-45.5 -107.5v-15
q0 -67 46.5 -104.5t129.5 -37.5q82 0 128.5 37.5z" />
    <glyph glyph-name="pi" unicode="&#x3c0;" horiz-adv-x="814" 
d="M12 390v108h792v-108h-177v-221q0 -32 15.5 -47.5t47.5 -15.5h104v-106h-113q-84 0 -129.5 43.5t-45.5 123.5v223h-221v-390h-120v390h-153z" />
    <glyph glyph-name="rho" unicode="&#x3c1;" horiz-adv-x="704" 
d="M522.5 479q66.5 -31 102.5 -88.5t36 -135.5v-12q0 -75 -36.5 -133t-102 -90t-150.5 -32q-108 0 -179 53v-211h-121v426q0 119 78 186.5t215 67.5q91 0 157.5 -31zM537 254q0 68 -45.5 107t-126.5 39q-82 0 -127 -38t-45 -108v-87q25 -32 71 -50.5t101 -18.5
q81 0 126.5 38t45.5 106v12z" />
    <glyph glyph-name="uni03C2" unicode="&#x3c2;" horiz-adv-x="665" 
d="M461 -64q23 0 34 7t11 22v5q0 30 -45 30h-120q-143 0 -220.5 62t-77.5 177v20q0 76 36.5 132.5t103.5 87.5t157 31q85 0 151.5 -28.5t103.5 -79.5t37 -116v-10h-123v10q0 50 -47 82t-121 32q-83 0 -128.5 -37t-45.5 -104v-20q0 -65 45 -99t130 -34h112q85 0 128.5 -33.5
t43.5 -98.5v-15q0 -67 -41.5 -98t-130.5 -31h-118v106h125z" />
    <glyph glyph-name="sigma" unicode="&#x3c3;" horiz-adv-x="735" 
d="M733 390h-151q60 -47 60 -147v-15q0 -72 -36.5 -126.5t-104 -84t-157.5 -29.5q-92 0 -160 30.5t-104.5 87.5t-36.5 134v15q0 75 36 129.5t104 84t160 29.5h390v-108zM499 327.5q-19 33.5 -61 62.5h-95q-85 0 -130.5 -36.5t-45.5 -103.5v-12q0 -68 46.5 -105.5
t129.5 -37.5q82 0 128.5 38t46.5 105v12q0 44 -19 77.5z" />
    <glyph glyph-name="tau" unicode="&#x3c4;" horiz-adv-x="572" 
d="M236 44q-47 44 -47 124v222h-177v108h535v-108h-238v-218q0 -32 18 -49t51 -17h139v-106h-149q-85 0 -132 44z" />
    <glyph glyph-name="upsilon" unicode="&#x3c5;" horiz-adv-x="704" 
d="M147 55q-75 67 -75 186v257h120v-258q0 -70 42 -107.5t121 -37.5q75 0 116 37.5t41 107.5v258h120v-257q0 -120 -73 -186.5t-204 -66.5q-133 0 -208 67z" />
    <glyph glyph-name="phi" unicode="&#x3c6;" horiz-adv-x="968" 
d="M845 434.5q80 -63.5 80 -178.5v-14q0 -115 -80 -178.5t-225 -63.5h-76v-170h-120v170h-76q-145 0 -225 63.5t-80 178.5v14q0 115 80 178.5t225 63.5h76v198h120v-198h76q145 0 225 -63.5zM424 106v286h-83q-84 0 -129 -35.5t-45 -102.5v-11q0 -66 45 -101.5t129 -35.5h83
zM801 254q0 67 -45 102.5t-129 35.5h-83v-286h83q84 0 129 35.5t45 101.5v11z" />
    <glyph glyph-name="chi" unicode="&#x3c7;" horiz-adv-x="656" 
d="M629 -153v-17h-132l-169 250l-170 -250h-132v17l218 319l-214 315v17h131l166 -245l165 245h132v-17l-214 -315z" />
    <glyph glyph-name="psi" unicode="&#x3c8;" horiz-adv-x="898" 
d="M826 498v-248q0 -119 -79 -184.5t-222 -65.5h-16v-170h-120v170h-16q-143 0 -222 65.5t-79 184.5v248h120v-243q0 -147 174 -147h23v588h120v-588h23q174 0 174 147v243h120z" />
    <glyph glyph-name="omega" unicode="&#x3c9;" horiz-adv-x="968" 
d="M849.5 434q75.5 -64 75.5 -184v-15q0 -74 -32 -130t-91 -86.5t-137 -30.5q-60 0 -106 19t-75 55q-29 -36 -75 -55t-106 -19q-78 0 -137 30.5t-91 86.5t-32 130v15q0 120 75.5 184t217.5 64h19v-106h-25q-163 0 -163 -139v-15q0 -67 38 -104.5t106 -37.5q39 0 68 14.5
t45 41.5v215h120v-215q16 -27 45 -41.5t68 -14.5q68 0 106 37.5t38 104.5v15q0 139 -163 139h-25v106h19q142 0 217.5 -64z" />
    <glyph glyph-name="iotatonos" unicode="&#x3af;" horiz-adv-x="329" 
d="M124 38.5q-41 38.5 -41 110.5v349h120v-337q0 -29 14 -42t46 -13h53v-106h-75q-76 0 -117 38.5zM216 818l-20 -262h-109l20 262h109z" />
    <glyph glyph-name="iotadieresis" unicode="&#x3ca;" horiz-adv-x="329" 
d="M124 38.5q-41 38.5 -41 110.5v349h120v-337q0 -29 14 -42t46 -13h53v-106h-75q-76 0 -117 38.5zM-40 588.5q-21 19.5 -21 51.5q0 31 21 50.5t55 19.5q32 0 52.5 -19.5t20.5 -50.5t-20.5 -51t-52.5 -20q-34 0 -55 19.5zM220 589q-21 20 -21 51t20.5 50.5t53.5 19.5
t54 -19.5t21 -50.5t-21 -51t-54 -20q-32 0 -53 20z" />
    <glyph glyph-name="iotadieresistonos" unicode="&#x390;" horiz-adv-x="329" 
d="M124 38.5q-41 38.5 -41 110.5v349h120v-337q0 -29 14 -42t46 -13h53v-106h-75q-76 0 -117 38.5zM210 818l-20 -262h-109l20 262h109zM-100 589q-21 20 -21 51t21 50.5t54 19.5t53.5 -19.5t20.5 -50.5q0 -32 -20.5 -51.5t-53.5 -19.5t-54 20zM280 589q-21 20 -21 51
q0 32 20.5 51t54.5 19q33 0 53.5 -19.5t20.5 -50.5q0 -32 -20.5 -51.5t-53.5 -19.5t-54 20z" />
    <glyph glyph-name="upsilontonos" unicode="&#x3cd;" horiz-adv-x="704" 
d="M147 55q-75 67 -75 186v257h120v-258q0 -70 42 -107.5t121 -37.5q75 0 116 37.5t41 107.5v258h120v-257q0 -120 -73 -186.5t-204 -66.5q-133 0 -208 67zM426 818l-20 -262h-109l20 262h109z" />
    <glyph glyph-name="upsilondieresis" unicode="&#x3cb;" horiz-adv-x="704" 
d="M147 55q-75 67 -75 186v257h120v-258q0 -70 42 -107.5t121 -37.5q75 0 116 37.5t41 107.5v258h120v-257q0 -120 -73 -186.5t-204 -66.5q-133 0 -208 67zM170 588.5q-21 19.5 -21 51.5q0 31 21 50.5t55 19.5q32 0 52.5 -19.5t20.5 -50.5t-20.5 -51t-52.5 -20
q-34 0 -55 19.5zM430 589q-21 20 -21 51t20.5 50.5t53.5 19.5t54 -19.5t21 -50.5t-21 -51t-54 -20q-32 0 -53 20z" />
    <glyph glyph-name="upsilondieresistonos" unicode="&#x3b0;" horiz-adv-x="704" 
d="M147 55q-75 67 -75 186v257h120v-258q0 -70 42 -107.5t121 -37.5q75 0 116 37.5t41 107.5v258h120v-257q0 -120 -73 -186.5t-204 -66.5q-133 0 -208 67zM420 818l-20 -262h-109l20 262h109zM110 589q-21 20 -21 51t21 50.5t54 19.5t53.5 -19.5t20.5 -50.5
q0 -32 -20.5 -51.5t-53.5 -19.5t-54 20zM490 589q-21 20 -21 51q0 32 20.5 51t54.5 19q33 0 53.5 -19.5t20.5 -50.5q0 -32 -20.5 -51.5t-53.5 -19.5t-54 20z" />
    <glyph glyph-name="omicrontonos" unicode="&#x3cc;" horiz-adv-x="685" 
d="M184 18.5q-68 30.5 -104.5 87.5t-36.5 134v15q0 78 36 135.5t104 88.5t161 31q92 0 159 -31t103 -88.5t36 -135.5v-15q0 -77 -36 -134t-103 -87.5t-159 -30.5t-160 30.5zM471.5 135.5q46.5 37.5 46.5 104.5v15q0 69 -46 107t-129 38q-85 0 -130.5 -37.5t-45.5 -107.5v-15
q0 -67 46.5 -104.5t129.5 -37.5q82 0 128.5 37.5zM415 818l-20 -262h-109l20 262h109z" />
    <glyph glyph-name="omegatonos" unicode="&#x3ce;" horiz-adv-x="968" 
d="M849.5 434q75.5 -64 75.5 -184v-15q0 -74 -32 -130t-91 -86.5t-137 -30.5q-60 0 -106 19t-75 55q-29 -36 -75 -55t-106 -19q-78 0 -137 30.5t-91 86.5t-32 130v15q0 120 75.5 184t217.5 64h19v-106h-25q-163 0 -163 -139v-15q0 -67 38 -104.5t106 -37.5q39 0 68 14.5
t45 41.5v215h120v-215q16 -27 45 -41.5t68 -14.5q68 0 106 37.5t38 104.5v15q0 139 -163 139h-25v106h19q142 0 217.5 -64zM556 818l-20 -262h-109l20 262h109z" />
    <glyph glyph-name="alphatonos" unicode="&#x3ac;" horiz-adv-x="737" 
d="M731 106v-106h-73q-90 0 -126 56q-74 -68 -197 -68q-87 0 -153 32t-102.5 89.5t-36.5 133.5v13q0 75 36 132.5t102 89.5t152 32q113 0 185 -57l3 45h112v-344q0 -48 54 -48h44zM443 116.5q45 18.5 70 50.5v166q-25 32 -69 49.5t-100 17.5q-83 0 -130 -38t-47 -106v-13
q0 -67 47 -106t129 -39q55 0 100 18.5zM438 818l-20 -262h-109l20 262h109z" />
    <glyph glyph-name="epsilontonos" unicode="&#x3ad;" horiz-adv-x="684" 
d="M516 304v7q0 35 -16.5 55t-54 29t-102.5 9q-154 0 -154 -50v-6q0 -22 22 -33t68 -11h151v-106h-161q-49 0 -71.5 -10.5t-22.5 -33.5v-6q0 -54 154 -54q102 0 144.5 21t42.5 71v7h120v-7q0 -100 -75.5 -149t-228.5 -49q-137 0 -209 39.5t-72 114.5v6q0 33 21.5 60t60.5 45
q-33 18 -50.5 43t-17.5 55v6q0 73 71 113t201 40q148 0 223.5 -50.5t75.5 -148.5v-7h-120zM415 818l-20 -262h-109l20 262h109z" />
    <glyph glyph-name="etatonos" unicode="&#x3ae;" horiz-adv-x="733" 
d="M595 443q66 -67 66 -193v-420h-120v420q0 72 -37.5 111t-106.5 39q-57 0 -100.5 -24t-66.5 -66l-1 -310h-119v339q0 51 -58 51h-46v108h75q48 0 82 -15.5t50 -45.5q67 73 192 73q124 0 190 -67zM461 818l-20 -262h-109l20 262h109z" />
    <glyph glyph-name="zeta.ss09" horiz-adv-x="599" 
d="M597 -53v-90h-120v85q0 30 -14.5 44t-44.5 14h-102q-130 0 -203 54t-73 150v12q0 43 18 80t58.5 77t112.5 92l174 125h-349v106h537v-103l-285 -206q-60 -44 -89.5 -70.5t-41 -48.5t-11.5 -50v-8q0 -49 40 -76.5t113 -27.5h116q164 0 164 -159z" />
    <glyph glyph-name="xi.ss09" horiz-adv-x="663" 
d="M527 486v4q0 51 -45.5 79.5t-127.5 28.5q-76 0 -120 -27t-44 -73v-10q0 -42 30 -65.5t86 -23.5h156v-106h-177q-54 0 -83 -22.5t-29 -64.5v-6q0 -48 42 -71t130 -23h132q168 0 168 -159v-90h-120v85q0 30 -15.5 44t-47.5 14h-117q-142 0 -219 50t-77 141v10q0 54 26 92
t75 58q-41 22 -62.5 58t-21.5 83v18q0 58 36.5 103t102.5 70t151 25q88 0 155 -27t103.5 -76.5t36.5 -114.5v-4h-124z" />
    <glyph glyph-name="uni03C2.ss09" horiz-adv-x="665" 
d="M490.5 -14q-15.5 14 -47.5 14h-102q-143 0 -220.5 62t-77.5 177v20q0 76 36.5 132.5t103.5 87.5t157 31q85 0 151.5 -28.5t103.5 -79.5t37 -116v-10h-123v10q0 50 -47 82t-121 32q-83 0 -128.5 -37t-45.5 -104v-20q0 -65 44.5 -99t129.5 -34h117q168 0 168 -159v-90h-120
v85q0 30 -15.5 44z" />
    <glyph glyph-name="zero" unicode="0" horiz-adv-x="817" 
d="M228 25q-79 37 -122.5 103.5t-43.5 153.5v91q0 87 43.5 154t122.5 104t182 37q102 0 180.5 -37t121.5 -104t43 -154v-91q0 -88 -43 -154.5t-121 -103t-181 -36.5t-182 37zM573 150q58 46 58 130v94q0 83 -59 130.5t-163 47.5q-105 0 -164 -47t-59 -131v-94
q0 -83 59 -129.5t165 -46.5q105 0 163 46z" />
    <glyph glyph-name="one" unicode="1" horiz-adv-x="519" 
d="M391 0h-124v485q-45 -21 -110 -21h-112v116h102q62 0 91 18.5t29 57.5h124v-656z" />
    <glyph glyph-name="two" unicode="2" horiz-adv-x="755" 
d="M694 112v-112h-619v100l300 171q78 45 113.5 70.5t48 47t12.5 52.5v10q0 49 -44 75t-127 26q-85 0 -129.5 -28.5t-44.5 -84.5v-20h-125v21q0 110 76.5 169t219.5 59q140 0 219.5 -56.5t79.5 -156.5v-10q0 -53 -20 -92t-69.5 -78t-144.5 -93l-124 -70h378z" />
    <glyph glyph-name="three" unicode="3" horiz-adv-x="790" 
d="M653 341q64 -48 64 -130v-12q0 -103 -83 -157t-243 -54q-158 1 -241 55t-83 157v7h124v-7q0 -46 52.5 -71t148.5 -25q200 0 200 92v12q0 85 -199 85h-114v110l222 141h-422v112h621v-112l-233 -146q122 -9 186 -57z" />
    <glyph glyph-name="four" unicode="4" horiz-adv-x="898" 
d="M833 141h-162v-141h-124v141h-475v112q71 111 116 206.5t75 196.5h132v-19q-60 -190 -178 -384h330v288h124v-288h162v-112z" />
    <glyph glyph-name="five" unicode="5" horiz-adv-x="801" 
d="M641.5 373q86.5 -56 86.5 -155v-12q0 -106 -84 -162t-242 -56q-159 0 -242 48.5t-83 141.5v7h125v-7q0 -35 51.5 -54.5t145.5 -19.5q97 0 150.5 26.5t53.5 74.5v12q0 46 -54.5 71t-153.5 25q-86 0 -139 -17.5t-57 -47.5h-122l22 408h586v-112h-476l-8 -156q74 41 202 41
q152 0 238.5 -56z" />
    <glyph glyph-name="six" unicode="6" horiz-adv-x="786" 
d="M653 364q82 -52 82 -148v-12q0 -102 -86 -159t-237 -57q-109 0 -188 30.5t-120.5 88t-41.5 135.5v155q0 128 91 199.5t255 71.5q147 0 231.5 -56t84.5 -155v-7h-124v7q0 46 -50.5 70.5t-141.5 24.5q-110 0 -166 -38.5t-56 -114.5v-42q83 59 236 59q149 0 231 -52z
M610 211q0 90 -190 90q-83 0 -143.5 -17.5t-90.5 -49.5q3 -62 61.5 -96t166.5 -34q93 0 144.5 24t51.5 71v12z" />
    <glyph glyph-name="seven" unicode="7" horiz-adv-x="757" 
d="M685 656v-112q-141 -146 -219 -282t-78 -237v-25h-133v25q0 107 73 242.5t206 276.5h-477v112h628z" />
    <glyph glyph-name="eight" unicode="8" horiz-adv-x="853" 
d="M779 198v-12q0 -198 -352 -198t-352 198v12q0 97 109 142q-79 44 -79 123v12q0 57 40 101t113 68t169 24t169 -24t113 -68t40 -101v-12q0 -79 -79 -123q109 -45 109 -142zM229 468q0 -45 46 -64.5t152 -19.5t152 19.5t46 64.5v7q0 42 -48 61.5t-150 19.5t-150 -19.5
t-48 -61.5v-7zM655 189q0 31 -22.5 49t-71.5 26t-134 8t-134 -8t-71.5 -26t-22.5 -49v-7q0 -43 53.5 -62.5t174.5 -19.5t174.5 19.5t53.5 62.5v7z" />
    <glyph glyph-name="nine" unicode="9" horiz-adv-x="786" 
d="M562 637.5q79 -30.5 120.5 -88t41.5 -135.5v-155q0 -128 -91 -199.5t-255 -71.5q-147 0 -231.5 56t-84.5 155v7h124v-7q0 -46 50.5 -70.5t141.5 -24.5q110 0 166 38.5t56 114.5v42q-83 -59 -236 -59q-149 0 -231 52t-82 148v12q0 102 86 159t237 57q109 0 188 -30.5z
M509.5 372.5q60.5 17.5 90.5 49.5q-3 62 -61.5 96t-166.5 34q-93 0 -144.5 -24t-51.5 -71v-12q0 -90 190 -90q83 0 143.5 17.5z" />
    <glyph glyph-name="uni24FF" unicode="&#x24ff;" horiz-adv-x="853" 
d="M299.5 140q-56.5 26 -88 73t-31.5 107v17q0 61 31.5 108t88 73t129.5 26q72 0 128 -26t87 -73t31 -108v-17q0 -61 -30.5 -108t-86.5 -72.5t-129 -25.5t-129.5 26zM560 320v17q0 49 -33.5 74t-98.5 25q-64 0 -98.5 -25.5t-34.5 -73.5v-17q0 -49 34 -74t100 -25
q131 0 131 99zM647 28.5q94 41.5 145 118t51 178.5v5q0 102 -51 179t-145 118.5t-219 41.5t-220 -42t-146.5 -118.5t-51.5 -178.5v-5q0 -102 51.5 -178.5t146.5 -118t220 -41.5t219 41.5z" />
    <glyph glyph-name="uni2776" unicode="&#x2776;" horiz-adv-x="853" 
d="M391 215v195q-27 -10 -65 -10h-120v96h120q34 0 49.5 9.5t15.5 29.5h115v-320h162v-93h-462v93h185zM647 28.5q94 41.5 145 118t51 178.5v5q0 102 -51 179t-145 118.5t-219 41.5t-220 -42t-146.5 -118.5t-51.5 -178.5v-5q0 -102 51.5 -178.5t146.5 -118t220 -41.5
t219 41.5z" />
    <glyph glyph-name="uni2777" unicode="&#x2777;" horiz-adv-x="853" 
d="M444 317q49 22 68.5 39t19.5 37v5q0 25 -28 39t-76 14q-53 0 -82 -16t-29 -46v-13h-112v13q0 74 58 114.5t163 40.5q103 0 162.5 -37.5t59.5 -102.5v-7q0 -46 -34.5 -82t-110.5 -69l-81 -35h236v-89h-454v88zM647 28.5q94 41.5 145 118t51 178.5v5q0 102 -51 179
t-145 118.5t-219 41.5t-220 -42t-146.5 -118.5t-51.5 -178.5v-5q0 -102 51.5 -178.5t146.5 -118t220 -41.5t219 41.5z" />
    <glyph glyph-name="uni2778" unicode="&#x2778;" horiz-adv-x="853" 
d="M191 253v4h113v-4q0 -22 31.5 -34t91.5 -12q59 0 89.5 11t30.5 32v5q0 37 -121 37h-87v73l137 77h-276v94h450v-94l-134 -75l15 -2q68 -9 100 -36t32 -74v-7q0 -65 -61 -99.5t-176 -34.5q-235 0 -235 139zM647 28.5q94 41.5 145 118t51 178.5v5q0 102 -51 179t-145 118.5
t-219 41.5t-220 -42t-146.5 -118.5t-51.5 -178.5v-5q0 -102 51.5 -178.5t146.5 -118t220 -41.5t219 41.5z" />
    <glyph glyph-name="uni2779" unicode="&#x2779;" horiz-adv-x="853" 
d="M176 199v94q74 117 105 243h121v-17q-34 -124 -93 -226h168v172h115v-172h97v-94h-97v-77h-115v77h-301zM647 28.5q94 41.5 145 118t51 178.5v5q0 102 -51 179t-145 118.5t-219 41.5t-220 -42t-146.5 -118.5t-51.5 -178.5v-5q0 -102 51.5 -178.5t146.5 -118t220 -41.5
t219 41.5z" />
    <glyph glyph-name="uni277A" unicode="&#x277a;" horiz-adv-x="853" 
d="M196 248v3h113v-3q0 -20 31.5 -30.5t89.5 -10.5q56 0 87.5 13t31.5 36v5q0 21 -32.5 33t-88.5 12q-53 0 -84 -7.5t-35 -20.5h-112l14 258h424v-94h-328l-4 -73q50 29 139 29q105 0 163.5 -36t58.5 -101v-5q0 -142 -234 -142t-234 134zM647 28.5q94 41.5 145 118t51 178.5
v5q0 102 -51 179t-145 118.5t-219 41.5t-220 -42t-146.5 -118.5t-51.5 -178.5v-5q0 -102 51.5 -178.5t146.5 -118t220 -41.5t219 41.5z" />
    <glyph glyph-name="uni277B" unicode="&#x277b;" horiz-adv-x="853" 
d="M249 159q-66 45 -66 131v66q0 91 65.5 139.5t188.5 48.5q108 0 169 -37.5t61 -103.5v-3h-112v3q0 23 -34 37t-88 14q-62 0 -98.5 -22t-36.5 -59v-18q51 32 149 32q110 0 168.5 -33.5t58.5 -95.5v-4q0 -66 -62 -103t-173 -37q-124 0 -190 45zM527.5 216q30.5 12 30.5 34v4
q0 23 -27 33t-90 10q-113 0 -143 -29v-5q0 -25 41.5 -42t100.5 -17q57 0 87.5 12zM647 28.5q94 41.5 145 118t51 178.5v5q0 102 -51 179t-145 118.5t-219 41.5t-220 -42t-146.5 -118.5t-51.5 -178.5v-5q0 -102 51.5 -178.5t146.5 -118t220 -41.5t219 41.5z" />
    <glyph glyph-name="uni277C" unicode="&#x277c;" horiz-adv-x="853" 
d="M373 283.5q51 80.5 145 158.5h-327v94h464v-94q-94 -77 -148 -159.5t-54 -145.5v-15h-131v15q0 66 51 146.5zM647 28.5q94 41.5 145 118t51 178.5v5q0 102 -51 179t-145 118.5t-219 41.5t-220 -42t-146.5 -118.5t-51.5 -178.5v-5q0 -102 51.5 -178.5t146.5 -118
t220 -41.5t219 41.5z" />
    <glyph glyph-name="uni277D" unicode="&#x277d;" horiz-adv-x="853" 
d="M244.5 145.5q-59.5 31.5 -59.5 97.5v12q0 55 63 84q-43 29 -43 73v12q0 57 58.5 88.5t164.5 31.5q104 0 163 -32t59 -88v-12q0 -44 -43 -73q63 -28 63 -84v-12q0 -66 -59 -97.5t-183 -31.5t-183.5 31.5zM518 382.5q24 7.5 24 27.5v6q0 22 -25 30.5t-89 8.5
q-62 0 -88.5 -9t-26.5 -30v-6q0 -20 24 -27.5t91 -7.5q66 0 90 7.5zM526.5 213q28.5 9 28.5 31v6q0 20 -27 27t-100 7t-100.5 -7t-27.5 -27v-6q0 -22 29 -31t99 -9t98.5 9zM647 28.5q94 41.5 145 118t51 178.5v5q0 102 -51 179t-145 118.5t-219 41.5t-220 -42t-146.5 -118.5
t-51.5 -178.5v-5q0 -102 51.5 -178.5t146.5 -118t220 -41.5t219 41.5z" />
    <glyph glyph-name="uni277E" unicode="&#x277e;" horiz-adv-x="853" 
d="M206 627.5q-94 -41.5 -145 -118t-51 -178.5v-5q0 -102 51 -179t145 -118.5t219 -41.5t220 42t146.5 118.5t51.5 178.5v5q0 102 -51.5 178.5t-146.5 118t-220 41.5t-219 -41.5zM249 150.5q-61 37.5 -61 103.5v3h112v-3q0 -23 34 -37t88 -14q62 0 98.5 22t36.5 59v18
q-51 -32 -149 -32q-110 0 -168.5 33.5t-58.5 95.5v4q0 66 62 103t173 37q124 0 190 -45t66 -131v-66q0 -91 -65.5 -139.5t-188.5 -48.5q-108 0 -169 37.5zM557 389v5q0 25 -41.5 42t-100.5 17q-57 0 -87.5 -12t-30.5 -34v-4q0 -23 27 -33t90 -10q113 0 143 29z" />
    <glyph glyph-name="uni24EA" unicode="&#x24ea;" horiz-adv-x="853" 
d="M205.5 28q-94.5 41 -145 117.5t-50.5 179.5v5q0 103 51 179.5t145.5 118t221.5 41.5t220.5 -41t144 -117.5t50.5 -180.5v-5q0 -103 -50.5 -179.5t-144.5 -117.5t-221 -41t-221.5 41zM665 135q84 67 84 190v5q0 124 -83.5 191t-237.5 67t-239 -68t-85 -190v-5
q0 -123 84 -190t239 -67q154 0 238 67zM309.5 155.5q-51.5 23.5 -80 66t-28.5 97.5v16q0 55 28.5 98t80 66.5t118.5 23.5q66 0 117 -23.5t79 -66.5t28 -98v-16q0 -56 -28 -98.5t-78.5 -65.5t-117.5 -23t-118.5 23.5zM547 319v16q0 44 -30.5 67t-89.5 23q-58 0 -89.5 -23
t-31.5 -67v-16q0 -44 31 -67t91 -23q119 0 119 90z" />
    <glyph glyph-name="uni2460" unicode="&#x2460;" horiz-adv-x="853" 
d="M205.5 28q-94.5 41 -145 117.5t-50.5 179.5v5q0 103 51 179.5t145.5 118t221.5 41.5t220.5 -41t144 -117.5t50.5 -180.5v-5q0 -103 -50.5 -179.5t-144.5 -117.5t-221 -41t-221.5 41zM665 135q84 67 84 190v5q0 124 -83.5 191t-237.5 67t-239 -68t-85 -190v-5
q0 -123 84 -190t239 -67q154 0 238 67zM395 226v177q-27 -9 -60 -9h-109v87h109q31 0 45.5 8.5t14.5 27.5h104v-291h148v-85h-421v85h169z" />
    <glyph glyph-name="uni2461" unicode="&#x2461;" horiz-adv-x="853" 
d="M205.5 28q-94.5 41 -145 117.5t-50.5 179.5v5q0 103 51 179.5t145.5 118t221.5 41.5t220.5 -41t144 -117.5t50.5 -180.5v-5q0 -103 -50.5 -179.5t-144.5 -117.5t-221 -41t-221.5 41zM665 135q84 67 84 190v5q0 124 -83.5 191t-237.5 67t-239 -68t-85 -190v-5
q0 -123 84 -190t239 -67q154 0 238 67zM440 317q45 20 63 35.5t18 34.5v4q0 22 -25.5 35t-69.5 13q-49 0 -75 -14.5t-26 -41.5v-12h-102v12q0 67 53 104t148 37q94 0 148 -34t54 -93v-7q0 -42 -31.5 -74.5t-100.5 -62.5l-74 -32h215v-81h-413v80z" />
    <glyph glyph-name="uni2462" unicode="&#x2462;" horiz-adv-x="853" 
d="M205.5 28q-94.5 41 -145 117.5t-50.5 179.5v5q0 103 51 179.5t145.5 118t221.5 41.5t220.5 -41t144 -117.5t50.5 -180.5v-5q0 -103 -50.5 -179.5t-144.5 -117.5t-221 -41t-221.5 41zM665 135q84 67 84 190v5q0 124 -83.5 191t-237.5 67t-239 -68t-85 -190v-5
q0 -123 84 -190t239 -67q154 0 238 67zM215 259v4h103v-4q0 -20 28.5 -31t83.5 -11q54 0 81.5 10t27.5 29v5q0 34 -110 34h-79v66l125 70h-252v86h410v-86l-122 -68l14 -2q61 -8 90.5 -32.5t29.5 -67.5v-6q0 -60 -55.5 -91t-160.5 -31q-214 0 -214 126z" />
    <glyph glyph-name="uni2463" unicode="&#x2463;" horiz-adv-x="853" 
d="M205.5 28q-94.5 41 -145 117.5t-50.5 179.5v5q0 103 51 179.5t145.5 118t221.5 41.5t220.5 -41t144 -117.5t50.5 -180.5v-5q0 -103 -50.5 -179.5t-144.5 -117.5t-221 -41t-221.5 41zM665 135q84 67 84 190v5q0 124 -83.5 191t-237.5 67t-239 -68t-85 -190v-5
q0 -123 84 -190t239 -67q154 0 238 67zM197 210v86q67 106 95 221h110v-16q-31 -113 -84 -205h152v156h105v-156h88v-86h-88v-70h-105v70h-273z" />
    <glyph glyph-name="uni2464" unicode="&#x2464;" horiz-adv-x="853" 
d="M205.5 28q-94.5 41 -145 117.5t-50.5 179.5v5q0 103 51 179.5t145.5 118t221.5 41.5t220.5 -41t144 -117.5t50.5 -180.5v-5q0 -103 -50.5 -179.5t-144.5 -117.5t-221 -41t-221.5 41zM665 135q84 67 84 190v5q0 124 -83.5 191t-237.5 67t-239 -68t-85 -190v-5
q0 -123 84 -190t239 -67q154 0 238 67zM212 255v2h103v-2q0 -18 29 -28t81 -10q51 0 79.5 12t28.5 33v4q0 19 -29.5 30t-80.5 11q-48 0 -76 -6.5t-32 -18.5h-102l12 235h386v-86h-298l-4 -66q46 26 127 26q96 0 149 -32.5t53 -92.5v-4q0 -129 -213 -129t-213 122z" />
    <glyph glyph-name="uni2465" unicode="&#x2465;" horiz-adv-x="853" 
d="M205.5 28q-94.5 41 -145 117.5t-50.5 179.5v5q0 103 51 179.5t145.5 118t221.5 41.5t220.5 -41t144 -117.5t50.5 -180.5v-5q0 -103 -50.5 -179.5t-144.5 -117.5t-221 -41t-221.5 41zM665 135q84 67 84 190v5q0 124 -83.5 191t-237.5 67t-239 -68t-85 -190v-5
q0 -123 84 -190t239 -67q154 0 238 67zM265 174q-60 41 -60 119v60q0 83 59.5 127t171.5 44q98 0 153.5 -34t55.5 -94v-3h-102v3q0 20 -31 33t-80 13q-56 0 -89 -20t-33 -54v-16q45 29 135 29q100 0 153.5 -30.5t53.5 -86.5v-4q0 -60 -56.5 -93.5t-157.5 -33.5
q-113 0 -173 41zM518.5 225.5q27.5 10.5 27.5 30.5v4q0 21 -24.5 30t-81.5 9q-103 0 -130 -26v-5q0 -22 37.5 -37.5t91.5 -15.5q52 0 79.5 10.5z" />
    <glyph glyph-name="uni2466" unicode="&#x2466;" horiz-adv-x="853" 
d="M205.5 28q-94.5 41 -145 117.5t-50.5 179.5v5q0 103 51 179.5t145.5 118t221.5 41.5t220.5 -41t144 -117.5t50.5 -180.5v-5q0 -103 -50.5 -179.5t-144.5 -117.5t-221 -41t-221.5 41zM665 135q84 67 84 190v5q0 124 -83.5 191t-237.5 67t-239 -68t-85 -190v-5
q0 -123 84 -190t239 -67q154 0 238 67zM389 287.5q46 72.5 132 143.5h-298v86h423v-86q-86 -69 -135 -144t-49 -133v-14h-119v14q0 61 46 133.5z" />
    <glyph glyph-name="uni2467" unicode="&#x2467;" horiz-adv-x="853" 
d="M205.5 28q-94.5 41 -145 117.5t-50.5 179.5v5q0 103 51 179.5t145.5 118t221.5 41.5t220.5 -41t144 -117.5t50.5 -180.5v-5q0 -103 -50.5 -179.5t-144.5 -117.5t-221 -41t-221.5 41zM665 135q84 67 84 190v5q0 124 -83.5 191t-237.5 67t-239 -68t-85 -190v-5
q0 -123 84 -190t239 -67q154 0 238 67zM260 161.5q-54 28.5 -54 88.5v11q0 26 14 44.5t43 31.5q-39 28 -39 67v11q0 52 53.5 80.5t149.5 28.5q95 0 148.5 -29t53.5 -80v-11q0 -39 -39 -67q29 -13 43 -31.5t14 -44.5v-11q0 -60 -53.5 -88.5t-166.5 -28.5t-167 28.5zM509 377
q22 7 22 25v6q0 19 -23 27t-81 8q-57 0 -81 -8t-24 -27v-6q0 -18 22.5 -25t82.5 -7t82 7zM517 223q26 8 26 28v5q0 18 -24.5 24.5t-91.5 6.5t-91.5 -6.5t-24.5 -24.5v-5q0 -20 26 -28t90 -8t90 8z" />
    <glyph glyph-name="uni2468" unicode="&#x2468;" horiz-adv-x="853" 
d="M204.5 28q-93.5 41 -144 117.5t-50.5 180.5v5q0 103 50.5 179.5t144.5 117.5t221 41t221.5 -41t145 -117.5t50.5 -179.5v-5q0 -103 -51 -179.5t-145.5 -118t-221.5 -41.5t-220.5 41zM664 136q85 68 85 190v5q0 123 -84 190t-239 67q-154 0 -238 -67t-84 -190v-5
q0 -124 83.5 -191t237.5 -67t239 68zM263.5 166q-55.5 34 -55.5 94v3h102v-3q0 -20 31 -33t80 -13q56 0 89 20t33 54v16q-45 -29 -135 -29q-100 0 -153.5 30.5t-53.5 86.5v4q0 60 56.5 93.5t157.5 33.5q113 0 173 -41t60 -119v-60q0 -83 -59.5 -127t-171.5 -44
q-98 0 -153.5 34zM543 383v5q0 22 -37.5 37.5t-91.5 15.5q-52 0 -79.5 -10.5t-27.5 -30.5v-4q0 -21 24.5 -30t81.5 -9q103 0 130 26z" />
    <glyph glyph-name="three.ss10" horiz-adv-x="793" 
d="M694 276.5q26 -35.5 26 -81.5v-12q0 -95 -85.5 -145t-245.5 -50t-245 55.5t-85 160.5v7h124v-7q0 -100 211 -100q97 0 149.5 22t52.5 63v12q0 40 -41 57t-139 17h-141v112h141q89 0 128 18t39 60v12q0 40 -43.5 57.5t-142.5 17.5q-106 0 -154 -20.5t-48 -65.5v-7h-124v7
q0 100 81 151t239 51q155 0 235.5 -47t80.5 -138v-12q0 -95 -89 -137q50 -22 76 -57.5z" />
    <glyph glyph-name="uni2778.ss10" horiz-adv-x="853" 
d="M181 259v3h113v-3q0 -27 31.5 -39.5t100.5 -12.5q59 0 90.5 10.5t31.5 29.5v6q0 16 -24 22.5t-86 6.5h-92v94h92q55 0 78.5 7.5t23.5 24.5v6q0 21 -25.5 29t-92.5 8q-68 0 -95 -9.5t-27 -33.5v-2h-111v3q0 67 59 101t175 34q114 0 172.5 -31t58.5 -92v-7q0 -54 -54 -83
q63 -29 63 -81v-7q0 -62 -63.5 -95.5t-178.5 -33.5q-240 0 -240 145zM647 28.5q94 41.5 145 118t51 178.5v5q0 102 -51 179t-145 118.5t-219 41.5t-220 -42t-146.5 -118.5t-51.5 -178.5v-5q0 -102 51.5 -178.5t146.5 -118t220 -41.5t219 41.5z" />
    <glyph glyph-name="uni2462.ss10" horiz-adv-x="853" 
d="M205.5 28q-94.5 41 -145 117.5t-50.5 179.5v5q0 103 51 179.5t145.5 118t221.5 41.5t220.5 -41t144 -117.5t50.5 -180.5v-5q0 -103 -50.5 -179.5t-144.5 -117.5t-221 -41t-221.5 41zM665 135q84 67 84 190v5q0 124 -83.5 191t-237.5 67t-239 -68t-85 -190v-5
q0 -123 84 -190t239 -67q154 0 238 67zM259.5 165.5q-54.5 32.5 -54.5 99.5v2h103v-2q0 -25 28.5 -36.5t91.5 -11.5q54 0 82.5 9.5t28.5 27.5v5q0 15 -21.5 21t-78.5 6h-84v85h84q50 0 71.5 6.5t21.5 22.5v6q0 19 -23.5 26t-84.5 7t-86 -8.5t-25 -30.5v-2h-101v3q0 61 54 92
t159 31q104 0 157.5 -28.5t53.5 -83.5v-6q0 -50 -50 -76q28 -13 43 -32t15 -42v-6q0 -56 -57.5 -86.5t-162.5 -30.5q-110 0 -164.5 32.5z" />
    <glyph glyph-name="zero.tf" horiz-adv-x="816" 
d="M228 25.5q-79 37.5 -122.5 105.5t-43.5 157v80q0 90 43.5 158t122 105t182.5 37q103 0 180.5 -37t120.5 -105t43 -158v-80q0 -90 -42.5 -158t-120.5 -105t-181 -37t-182 37.5zM573 151.5q57 47.5 57 134.5v83q0 87 -58 135t-163 48q-106 0 -164.5 -48t-58.5 -135v-83
q0 -87 58 -134.5t166 -47.5q106 0 163 47.5z" />
    <glyph glyph-name="one.tf" horiz-adv-x="816" 
d="M794 112v-112h-686v112h295v372q-45 -20 -109 -20h-186v116h176q110 0 119 62v14h125v-544h266z" />
    <glyph glyph-name="two.tf" horiz-adv-x="816" 
d="M740 112v-112h-649v100l314 170q85 46 123.5 72t52 47.5t13.5 52.5v10q0 49 -48 75t-137 26q-92 0 -140 -29t-48 -84v-20h-125v21q0 110 80 169t230 59q146 0 229 -56.5t83 -156.5v-10q0 -55 -22.5 -97t-76 -83.5t-150.5 -92.5l-115 -61h386z" />
    <glyph glyph-name="three.tf" horiz-adv-x="816" 
d="M669.5 342.5q66.5 -48.5 66.5 -131.5v-12q0 -103 -85 -157t-248 -54q-161 0 -245.5 55t-84.5 159v7h124v-7q0 -47 53.5 -72.5t153.5 -25.5q207 0 207 92v12q0 86 -205 86h-116v110l235 141h-440v112h634v-112l-241 -146q125 -8 191.5 -56.5z" />
    <glyph glyph-name="four.tf" horiz-adv-x="816" 
d="M771 141h-149v-141h-124v141h-447v112q66 113 108 209t68 195h133v-19q-55 -189 -164 -385h302v289h124v-289h149v-112z" />
    <glyph glyph-name="five.tf" horiz-adv-x="816" 
d="M595 404.5q74 -25.5 113 -73t39 -113.5v-12q0 -106 -85 -162t-244 -56q-161 0 -245 48.5t-84 141.5v7h125v-7q0 -35 52.5 -54.5t148.5 -19.5q97 0 152.5 27t55.5 74v12q0 46 -56 71.5t-156 25.5q-88 0 -142 -18t-58 -48h-122l22 409h593v-112h-483l-8 -157q75 42 206 42
q102 0 176 -25.5z" />
    <glyph glyph-name="six.tf" horiz-adv-x="816" 
d="M674 365q84 -52 84 -149v-12q0 -67 -40 -116t-114.5 -74.5t-176.5 -25.5q-111 0 -191.5 30.5t-123 88t-42.5 135.5v156q0 128 93 199.5t260 71.5q99 0 172.5 -25t112.5 -73t39 -113v-7h-124v7q0 45 -53 70t-147 25q-112 0 -170.5 -39t-58.5 -114v-44q84 61 243 61
q153 0 237 -52zM633 211q0 91 -198 91q-88 0 -149.5 -18t-91.5 -51q4 -62 64 -95.5t171 -33.5q96 0 150 24.5t54 70.5v12z" />
    <glyph glyph-name="seven.tf" horiz-adv-x="816" 
d="M728 656v-112q-149 -139 -231.5 -274.5t-82.5 -244.5v-25h-133v25q0 114 78 250t219 269h-507v112h657z" />
    <glyph glyph-name="eight.tf" horiz-adv-x="816" 
d="M752 198v-12q0 -99 -86.5 -148.5t-256.5 -49.5q-343 0 -343 198v12q0 98 106 143q-77 42 -77 123v12q0 57 39 101t110 68t165 24t165 -24t109.5 -67.5t38.5 -101.5v-12q0 -81 -77 -123q107 -45 107 -143zM219 469q0 -45 44 -65t146 -20q101 0 145.5 20t44.5 65v7
q0 39 -43 60t-147 21q-105 0 -147.5 -21t-42.5 -60v-7zM627 189q0 28 -18 46t-65.5 27.5t-134.5 9.5t-135 -9.5t-66 -27.5t-18 -46v-7q0 -43 51.5 -62.5t167.5 -19.5q115 0 166.5 19.5t51.5 62.5v7z" />
    <glyph glyph-name="nine.tf" horiz-adv-x="816" 
d="M580.5 637.5q80.5 -30.5 123 -87.5t42.5 -135v-156q0 -128 -93 -199.5t-260 -71.5q-99 0 -172.5 25t-112.5 73t-39 113v7h124v-7q0 -45 53 -70t147 -25q112 0 170.5 39t58.5 114v44q-84 -61 -243 -61q-153 0 -237 52t-84 149v12q0 101 88.5 158t242.5 57
q111 0 191.5 -30.5zM530.5 373q61.5 18 91.5 51q-4 62 -64 95t-171 33q-97 0 -150.5 -24t-53.5 -70v-12q0 -91 198 -91q88 0 149.5 18z" />
    <glyph glyph-name="three.tf.ss10" horiz-adv-x="816" 
d="M737 194v-11q0 -94 -86.5 -144.5t-249.5 -50.5q-164 0 -250 56t-86 162v5h124v-5q0 -102 217 -102q99 0 153.5 22.5t54.5 62.5v11q0 38 -40 56.5t-146 18.5h-144v112h144q86 0 129 17.5t43 62.5v11q0 38 -42.5 56.5t-148.5 18.5q-114 0 -161 -22t-47 -66v-5l-124 1v5
q0 100 82.5 151.5t243.5 51.5q157 0 239 -47.5t82 -138.5v-11q0 -96 -91 -138q104 -47 104 -140z" />
    <glyph glyph-name="zero.tf.zero" horiz-adv-x="816" 
d="M589.5 631q78.5 -37 121.5 -104t43 -154v-91q0 -88 -43 -154.5t-121 -103t-181 -36.5t-182 37t-122.5 103.5t-43.5 153.5v91q0 87 43.5 154t122.5 104t182 37q102 0 180.5 -37zM571 504.5q-59 47.5 -163 47.5q-92 0 -148 -36l365 -280q5 23 5 44v94q0 83 -59 130.5z
M244 150.5q59 -46.5 165 -46.5q94 0 148 36l-367 281q-5 -25 -5 -47v-94q0 -83 59 -129.5z" />
    <glyph glyph-name="zero.zero" horiz-adv-x="817" 
d="M590.5 631q78.5 -37 121.5 -104t43 -154v-91q0 -88 -43 -154.5t-121 -103t-181 -36.5t-182 37t-122.5 103.5t-43.5 153.5v91q0 87 43.5 154t122.5 104t182 37q102 0 180.5 -37zM572 504.5q-59 47.5 -163 47.5q-92 0 -148 -36l365 -280q5 23 5 44v94q0 83 -59 130.5z
M245 150.5q59 -46.5 165 -46.5q94 0 148 36l-367 281q-5 -25 -5 -47v-94q0 -83 59 -129.5z" />
    <glyph glyph-name="uni2080" unicode="&#x2080;" 
d="M149.5 -82q-56.5 26 -88 73t-31.5 107v17q0 61 31.5 108t88 73t129.5 26q72 0 128 -26t87 -73t31 -108v-17q0 -61 -30.5 -108t-86.5 -72.5t-129 -25.5t-129.5 26zM410 98v17q0 49 -33.5 74t-98.5 25q-64 0 -98.5 -25.5t-34.5 -73.5v-17q0 -49 34 -74t100 -25
q131 0 131 99z" />
    <glyph glyph-name="uni2081" unicode="&#x2081;" 
d="M261 -6v195q-27 -10 -65 -10h-120v96h120q34 0 49.5 9.5t15.5 29.5h115v-320h162v-93h-462v93h185z" />
    <glyph glyph-name="uni2082" unicode="&#x2082;" 
d="M295 95q49 22 68.5 39t19.5 37v5q0 25 -28 39t-76 14q-53 0 -82 -16t-29 -46v-13h-112v13q0 74 58 114.5t163 40.5q103 0 162.5 -37.5t59.5 -102.5v-7q0 -46 -34.5 -82t-110.5 -69l-81 -35h236v-89h-454v88z" />
    <glyph glyph-name="uni2083" unicode="&#x2083;" 
d="M42 31v4h113v-4q0 -22 31.5 -34t91.5 -12q59 0 89.5 11t30.5 32v5q0 37 -121 37h-87v73l137 77h-276v94h450v-94l-134 -75l15 -2q68 -9 100 -36t32 -74v-7q0 -65 -61 -99.5t-176 -34.5q-235 0 -235 139z" />
    <glyph glyph-name="uni2084" unicode="&#x2084;" 
d="M27 -23v94q74 117 105 243h121v-17q-34 -124 -93 -226h168v172h115v-172h97v-94h-97v-77h-115v77h-301z" />
    <glyph glyph-name="uni2085" unicode="&#x2085;" 
d="M47 26v3h113v-3q0 -20 31.5 -30.5t89.5 -10.5q56 0 87.5 13t31.5 36v5q0 21 -32.5 33t-88.5 12q-53 0 -84 -7.5t-35 -20.5h-112l14 258h424v-94h-328l-4 -73q50 29 139 29q105 0 163.5 -36t58.5 -101v-5q0 -142 -234 -142t-234 134z" />
    <glyph glyph-name="uni2086" unicode="&#x2086;" 
d="M101 -63q-66 45 -66 131v66q0 91 65.5 139.5t188.5 48.5q108 0 169 -37.5t61 -103.5v-3h-112v3q0 23 -34 37t-88 14q-62 0 -98.5 -22t-36.5 -59v-18q51 32 149 32q110 0 168.5 -33.5t58.5 -95.5v-4q0 -66 -62 -103t-173 -37q-124 0 -190 45zM379.5 -6q30.5 12 30.5 34v4
q0 23 -27 33t-90 10q-113 0 -143 -29v-5q0 -25 41.5 -42t100.5 -17q57 0 87.5 12z" />
    <glyph glyph-name="uni2087" unicode="&#x2087;" 
d="M223 61.5q51 80.5 145 158.5h-327v94h464v-94q-94 -77 -148 -159.5t-54 -145.5v-15h-131v15q0 66 51 146.5z" />
    <glyph glyph-name="uni2088" unicode="&#x2088;" 
d="M94.5 -76.5q-59.5 31.5 -59.5 97.5v12q0 55 63 84q-43 29 -43 73v12q0 57 58.5 88.5t164.5 31.5q104 0 163 -32t59 -88v-12q0 -44 -43 -73q63 -28 63 -84v-12q0 -66 -59 -97.5t-183 -31.5t-183.5 31.5zM368 160.5q24 7.5 24 27.5v6q0 22 -25 30.5t-89 8.5q-62 0 -88.5 -9
t-26.5 -30v-6q0 -20 24 -27.5t91 -7.5q66 0 90 7.5zM376.5 -9q28.5 9 28.5 31v6q0 20 -27 27t-100 7t-100.5 -7t-27.5 -27v-6q0 -22 29 -31t99 -9t98.5 9z" />
    <glyph glyph-name="uni2089" unicode="&#x2089;" 
d="M96 -71.5q-61 37.5 -61 103.5v3h112v-3q0 -23 34 -37t88 -14q62 0 98.5 22t36.5 59v18q-51 -32 -149 -32q-110 0 -168.5 33.5t-58.5 95.5v4q0 66 62 103t173 37q124 0 190 -45t66 -131v-66q0 -91 -65.5 -139.5t-188.5 -48.5q-108 0 -169 37.5zM404 167v5q0 25 -41.5 42
t-100.5 17q-57 0 -87.5 -12t-30.5 -34v-4q0 -23 27 -33t90 -10q113 0 143 29z" />
    <glyph glyph-name="zero.dnom" 
d="M149.5 18q-56.5 26 -88 73t-31.5 107v17q0 61 31.5 108t88 73t129.5 26q72 0 128 -26t87 -73t31 -108v-17q0 -61 -30.5 -108t-86.5 -72.5t-129 -25.5t-129.5 26zM410 198v17q0 49 -33.5 74t-98.5 25q-64 0 -98.5 -25.5t-34.5 -73.5v-17q0 -49 34 -74t100 -25
q131 0 131 99z" />
    <glyph glyph-name="one.dnom" 
d="M261 94v195q-27 -10 -65 -10h-120v96h120q34 0 49.5 9.5t15.5 29.5h115v-320h162v-93h-462v93h185z" />
    <glyph glyph-name="two.dnom" 
d="M295 195q49 22 68.5 39t19.5 37v5q0 25 -28 39t-76 14q-53 0 -82 -16t-29 -46v-13h-112v13q0 74 58 114.5t163 40.5q103 0 162.5 -37.5t59.5 -102.5v-7q0 -46 -34.5 -82t-110.5 -69l-81 -35h236v-89h-454v88z" />
    </font>
</defs>
</svg>
