<?xml version="1.0" standalone="no"?>
<!DOCTYPE svg PUBLIC "-//W3C//DTD SVG 1.1//EN" "http://www.w3.org/Graphics/SVG/1.1/DTD/svg11.dtd" >
<svg xmlns="http://www.w3.org/2000/svg" xmlns:xlink="http://www.w3.org/1999/xlink" version="1.1">
<metadata>
Created by FontForge 20190801 at Fri Jun  7 17:20:09 2019
 By Jimmy Wärting
Copyright \(c\) 2019 by Paul Eslage with Lisa Fischbach, Jakob Runge and Nils Thomsen. All rights reserved.
</metadata>
<defs>
<font id="HalvarStnclBreit-HlMidG" horiz-adv-x="554" >
  <font-face 
    font-family="Halvar Stncl Breit Hl MidG"
    font-weight="100"
    font-stretch="expanded"
    units-per-em="1000"
    panose-1="0 0 2 5 0 0 0 0 0 0"
    ascent="800"
    descent="-200"
    x-height="486"
    cap-height="656"
    bbox="-209 -199 1391 905"
    underline-thickness="50"
    underline-position="-100"
    stemh="10"
    stemv="10"
    unicode-range="U+0020-FB02"
  />
<missing-glyph horiz-adv-x="436" 
d="M0 539v16l101 101h16zM0 320v16l320 320h16zM0 102v16l436 437v-16zM102 1l335 336v-16l-319 -320h-16zM320 1l116 117v-16l-100 -101h-16z" />
    <glyph glyph-name=".notdef" horiz-adv-x="436" 
d="M0 539v16l101 101h16zM0 320v16l320 320h16zM0 102v16l436 437v-16zM102 1l335 336v-16l-319 -320h-16zM320 1l116 117v-16l-100 -101h-16z" />
    <glyph glyph-name="space" unicode=" " horiz-adv-x="400" 
 />
    <glyph glyph-name="A" unicode="A" horiz-adv-x="770" 
d="M379 656h12l343 -653v-3h-11zM36 0v3l294 558l6 -12l-166 -316h331l5 -10h-342l-117 -223h-11z" />
    <glyph glyph-name="B" unicode="B" horiz-adv-x="785" 
d="M117 0v656h10v-656h-10zM529 333c108 -12 172 -69 172 -157v-14c0 -100 -82 -162 -214 -162h-271v10h271c127 0 204 57 204 152v14c0 94 -76 150 -204 150h-271v10h247c127 0 205 58 205 152v14c0 91 -76 144 -204 144h-248v10h248c133 0 214 -58 214 -154v-14
c0 -81 -56 -138 -149 -155z" />
    <glyph glyph-name="C" unicode="C" horiz-adv-x="874" 
d="M402 -8c-193 16 -311 137 -311 322v27c0 186 118 307 311 323v-10c-188 -16 -301 -132 -301 -313v-27c0 -180 113 -296 301 -311v-11zM491 663c166 -15 288 -116 288 -245v-12h-10v12c0 124 -118 221 -278 235v10zM491 3c160 15 278 111 278 234v14h10v-14
c0 -128 -122 -229 -288 -244v10z" />
    <glyph glyph-name="D" unicode="D" horiz-adv-x="826" 
d="M127 0h-10v656h10v-656zM216 10h173c217 0 335 108 335 307v22c0 199 -118 307 -335 307h-173v10h173c222 0 345 -113 345 -317v-22c0 -204 -123 -317 -345 -317h-173v10z" />
    <glyph glyph-name="E" unicode="E" horiz-adv-x="723" 
d="M127 0h-10v656h10v-656zM216 656h415v-10h-415v10zM216 333h395v-10h-395v10zM216 10h415v-10h-415v10z" />
    <glyph glyph-name="F" unicode="F" horiz-adv-x="704" 
d="M127 0h-10v656h10v-656zM216 656h425v-10h-425v10zM216 333h405v-10h-405v10z" />
    <glyph glyph-name="G" unicode="G" horiz-adv-x="879" 
d="M403 654c-185 -16 -302 -135 -302 -313v-27c0 -196 130 -314 345 -314c99 0 176 22 236 69v-12c-60 -44 -139 -67 -236 -67c-220 0 -355 123 -355 324v27c0 183 122 307 312 323v-10zM492 664c167 -14 290 -111 290 -235v-10h-10v10c0 120 -117 211 -280 225v10zM771 0
v306h-387v10h397v-316h-10z" />
    <glyph glyph-name="H" unicode="H" horiz-adv-x="819" 
d="M127 0h-10v656h10v-656zM216 333h476v323h10v-656h-10v323h-476v10z" />
    <glyph glyph-name="I" unicode="I" horiz-adv-x="299" 
d="M144 0v656h10v-656h-10z" />
    <glyph glyph-name="J" unicode="J" horiz-adv-x="749" 
d="M250 646v10h392v-10h-392zM401 4c138 15 231 106 231 233v320h10v-320c0 -131 -98 -227 -241 -244v11zM312 -7c-143 16 -237 110 -237 244v58h10v-58c0 -127 90 -218 227 -233v-11z" />
    <glyph glyph-name="K" unicode="K" horiz-adv-x="813" 
d="M117 0v656h10v-656h-10zM216 302l494 354h13v-3l-507 -363v12zM385 302l336 -299v-3h-14l-332 295z" />
    <glyph glyph-name="L" unicode="L" horiz-adv-x="687" 
d="M117 0v656h10v-656h-10zM677 10v-10h-461v10h461z" />
    <glyph glyph-name="M" unicode="M" horiz-adv-x="1029" 
d="M508 0l-391 656h11l386 -645l386 645h12l-392 -656h-12zM117 0v484l10 -17v-467h-10zM902 0v467l10 17v-484h-10z" />
    <glyph glyph-name="N" unicode="N" horiz-adv-x="819" 
d="M702 0h-14l-571 656h14zM692 147v509h10v-521zM127 509l-1 -509h-9v521z" />
    <glyph glyph-name="O" unicode="O" horiz-adv-x="877" 
d="M394 -7c-186 16 -303 139 -303 324v21c0 187 116 309 303 325v-10c-180 -16 -293 -135 -293 -315v-21c0 -179 113 -298 293 -314v-10zM483 3c180 16 292 135 292 314v21c0 180 -112 299 -292 315v10c185 -16 302 -139 302 -325v-21c0 -185 -116 -308 -302 -324v10z" />
    <glyph glyph-name="P" unicode="P" horiz-adv-x="787" 
d="M127 0h-10v656h10v-656zM219 656h282c133 0 215 -63 215 -164v-14c0 -100 -83 -163 -215 -163h-282v10h282c127 0 205 58 205 153v14c0 96 -77 154 -205 154h-282v10z" />
    <glyph glyph-name="Q" unicode="Q" horiz-adv-x="877" 
d="M496 -143l-41 133h-17c-212 0 -347 127 -347 327v21c0 186 116 309 303 326v-11c-180 -16 -293 -136 -293 -315v-21c0 -194 131 -317 337 -317h25l43 -140v-3h-10zM553 9l-3 10c140 35 225 144 225 298v21c0 179 -112 299 -292 315v11c185 -17 302 -141 302 -326v-21
c0 -159 -87 -272 -232 -308z" />
    <glyph glyph-name="R" unicode="R" horiz-adv-x="806" 
d="M117 0v656h10v-656h-10zM716 478c0 -100 -83 -163 -215 -163h-70l283 -312v-3h-11l-287 315h-200v10h285c127 0 205 58 205 153v14c0 96 -77 154 -205 154h-285v10h285c133 0 215 -63 215 -164v-14z" />
    <glyph glyph-name="S" unicode="S" horiz-adv-x="771" 
d="M430 2c162 7 245 60 245 157v10c0 95 -64 138 -229 153l-119 11c-150 14 -221 64 -221 155v10c0 97 85 156 235 166v-10c-144 -8 -225 -64 -225 -156v-10c0 -86 67 -132 211 -145l119 -11c172 -16 239 -62 239 -163v-10c0 -103 -88 -161 -255 -168v11zM430 664
c160 -10 243 -77 243 -197v-10h-10v10c0 115 -79 177 -233 187v10zM341 -8c-168 11 -255 78 -255 197v10h10v-10c0 -114 82 -176 245 -187v-10z" />
    <glyph glyph-name="T" unicode="T" horiz-adv-x="691" 
d="M10 646v10h671v-10h-671zM351 557v-557h-10v557h10z" />
    <glyph glyph-name="U" unicode="U" horiz-adv-x="793" 
d="M352 -7c-148 16 -245 115 -245 254v409h10v-409c0 -133 93 -228 235 -243v-11zM441 4c142 15 235 109 235 243v409h10v-409c0 -139 -98 -238 -245 -254v11z" />
    <glyph glyph-name="V" unicode="V" horiz-adv-x="770" 
d="M391 0h-12l-343 653v3h11zM425 88l298 568h11v-3l-303 -577z" />
    <glyph glyph-name="W" unicode="W" horiz-adv-x="1175" 
d="M319 0h-12l-271 653v3h11zM368 116l-6 14l219 526h13l274 -656h-12l-268 643zM910 130l218 526h11v-3l-223 -537z" />
    <glyph glyph-name="X" unicode="X" horiz-adv-x="819" 
d="M729 3v-3h-12l-627 653v3h11zM472 399l247 257h10v-3l-250 -261zM348 257l-246 -257h-12v3l251 261z" />
    <glyph glyph-name="Y" unicode="Y" horiz-adv-x="726" 
d="M22 656h10l336 -356v-300h-10v297l-336 356v3zM694 656h10v-3l-275 -288l-6 6z" />
    <glyph glyph-name="Z" unicode="Z" horiz-adv-x="696" 
d="M55 646v10h461l-9 -10h-452zM135 99l501 557h5v-10l-492 -547h-14zM55 0v10h586v-10h-586z" />
    <glyph glyph-name="Aacute" unicode="&#xc1;" horiz-adv-x="770" 
d="M185 749v11l400 90v-11zM379 656h12l343 -653v-3h-11zM36 0v3l294 558l6 -12l-166 -316h331l5 -10h-342l-117 -223h-11z" />
    <glyph glyph-name="Abreve" unicode="&#x102;" horiz-adv-x="770" 
d="M390 752c-64 0 -129 21 -205 67v10c74 -45 141 -67 205 -67s126 22 195 67v-10c-65 -45 -130 -67 -195 -67zM379 656h12l343 -653v-3h-11zM36 0v3l294 558l6 -12l-166 -316h331l5 -10h-342l-117 -223h-11z" />
    <glyph glyph-name="uni01CD" unicode="&#x1cd;" horiz-adv-x="770" 
d="M385 749l-200 89v12l200 -89l200 89v-12zM379 656h12l343 -653v-3h-11zM36 0v3l294 558l6 -12l-166 -316h331l5 -10h-342l-117 -223h-11z" />
    <glyph glyph-name="Acircumflex" unicode="&#xc2;" horiz-adv-x="770" 
d="M185 749v12l200 89l200 -89v-12l-200 89zM379 656h12l343 -653v-3h-11zM36 0v3l294 558l6 -12l-166 -316h331l5 -10h-342l-117 -223h-11z" />
    <glyph glyph-name="Adieresis" unicode="&#xc4;" horiz-adv-x="770" 
d="M257 774c-9 0 -17 8 -17 17c0 10 8 17 17 17c10 0 17 -7 17 -17c0 -9 -7 -17 -17 -17zM512 774c-9 0 -17 8 -17 17c0 10 8 17 17 17c10 0 17 -7 17 -17c0 -9 -7 -17 -17 -17zM379 656h12l343 -653v-3h-11zM36 0v3l294 558l6 -12l-166 -316h331l5 -10h-342l-117 -223h-11z
" />
    <glyph glyph-name="Agrave" unicode="&#xc0;" horiz-adv-x="770" 
d="M585 749l-400 90v11l400 -90v-11zM379 656h12l343 -653v-3h-11zM36 0v3l294 558l6 -12l-166 -316h331l5 -10h-342l-117 -223h-11z" />
    <glyph glyph-name="Amacron" unicode="&#x100;" horiz-adv-x="770" 
d="M185 786v10h400v-10h-400zM379 656h12l343 -653v-3h-11zM36 0v3l294 558l6 -12l-166 -316h331l5 -10h-342l-117 -223h-11z" />
    <glyph glyph-name="Aogonek" unicode="&#x104;" horiz-adv-x="770" 
d="M612 -59c-38 -18 -53 -36 -53 -62c0 -25 20 -39 54 -39h121v-10h-121c-39 0 -64 19 -64 49c0 29 17 50 58 70l113 56l-341 651h12l343 -653v-3zM170 233h331l5 -10h-342l-117 -223h-11v3l294 558l6 -12z" />
    <glyph glyph-name="Aring" unicode="&#xc5;" horiz-adv-x="770" 
d="M396 647l338 -644v-3h-11l-339 647c-76 0 -118 34 -119 92v1v1c0 50 32 82 88 91v-10c-50 -9 -78 -37 -78 -81v-1v-1c1 -43 29 -70 78 -78v-2c10 -1 21 -2 32 -2c12 0 23 1 33 3v1c48 7 74 35 75 78v1v1c0 45 -26 73 -75 81v10c55 -9 86 -41 86 -91v-1v-1
c-1 -57 -39 -89 -108 -92zM170 233h331l5 -10h-342l-117 -223h-11v3l294 558l6 -12z" />
    <glyph glyph-name="Atilde" unicode="&#xc3;" horiz-adv-x="770" 
d="M480 768c-78 0 -125 37 -193 37c-33 0 -67 -8 -102 -25v10c35 17 69 25 102 25c69 0 115 -37 193 -37c32 0 68 7 105 20v-10c-37 -13 -73 -20 -105 -20zM379 656h12l343 -653v-3h-11zM36 0v3l294 558l6 -12l-166 -316h331l5 -10h-342l-117 -223h-11z" />
    <glyph glyph-name="AE" unicode="&#xc6;" horiz-adv-x="1072" 
d="M423 656h10l171 -656h-10zM524 656h456v-10h-453zM524 233l1 -10h-359l-119 -223h-11v3l313 586l4 -15l-182 -341h353zM960 333v-10h-349l-3 10h352zM695 0l-3 10h288v-10h-285z" />
    <glyph glyph-name="AEacute" unicode="&#x1fc;" horiz-adv-x="1072" 
d="M736 850v-11l-400 -90v11zM423 656h10l171 -656h-10zM524 656h456v-10h-453zM524 233l1 -10h-359l-119 -223h-11v3l313 586l4 -15l-182 -341h353zM960 333v-10h-349l-3 10h352zM695 0l-3 10h288v-10h-285z" />
    <glyph glyph-name="Cacute" unicode="&#x106;" horiz-adv-x="874" 
d="M253 749v11l400 90v-11zM402 -8c-193 16 -311 137 -311 322v27c0 186 118 307 311 323v-10c-188 -16 -301 -132 -301 -313v-27c0 -180 113 -296 301 -311v-11zM491 663c166 -15 288 -116 288 -245v-12h-10v12c0 124 -118 221 -278 235v10zM491 3c160 15 278 111 278 234
v14h10v-14c0 -128 -122 -229 -288 -244v10z" />
    <glyph glyph-name="Ccaron" unicode="&#x10c;" horiz-adv-x="874" 
d="M453 749l-200 89v12l200 -89l200 89v-12zM402 -8c-193 16 -311 137 -311 322v27c0 186 118 307 311 323v-10c-188 -16 -301 -132 -301 -313v-27c0 -180 113 -296 301 -311v-11zM491 663c166 -15 288 -116 288 -245v-12h-10v12c0 124 -118 221 -278 235v10zM491 3
c160 15 278 111 278 234v14h10v-14c0 -128 -122 -229 -288 -244v10z" />
    <glyph glyph-name="Ccedilla" unicode="&#xc7;" horiz-adv-x="874" 
d="M402 -8c-193 16 -311 137 -311 322v27c0 186 118 307 311 323v-10c-188 -16 -301 -132 -301 -313v-27c0 -180 113 -296 301 -311v-11zM491 663c166 -15 288 -116 288 -245v-12h-10v12c0 124 -118 221 -278 235v10zM491 3c160 15 278 111 278 234v14h10v-14
c0 -128 -122 -229 -288 -244v10zM395 -199l51 141h10l-51 -141h-10z" />
    <glyph glyph-name="Ccircumflex" unicode="&#x108;" horiz-adv-x="874" 
d="M253 749v12l200 89l200 -89v-12l-200 89zM402 -8c-193 16 -311 137 -311 322v27c0 186 118 307 311 323v-10c-188 -16 -301 -132 -301 -313v-27c0 -180 113 -296 301 -311v-11zM491 663c166 -15 288 -116 288 -245v-12h-10v12c0 124 -118 221 -278 235v10zM491 3
c160 15 278 111 278 234v14h10v-14c0 -128 -122 -229 -288 -244v10z" />
    <glyph glyph-name="Cdotaccent" unicode="&#x10a;" horiz-adv-x="874" 
d="M453 774c-9 0 -17 8 -17 17c0 10 8 17 17 17c10 0 17 -7 17 -17c0 -9 -7 -17 -17 -17zM402 -8c-193 16 -311 137 -311 322v27c0 186 118 307 311 323v-10c-188 -16 -301 -132 -301 -313v-27c0 -180 113 -296 301 -311v-11zM491 663c166 -15 288 -116 288 -245v-12h-10v12
c0 124 -118 221 -278 235v10zM491 3c160 15 278 111 278 234v14h10v-14c0 -128 -122 -229 -288 -244v10z" />
    <glyph glyph-name="Eth" unicode="&#xd0;" horiz-adv-x="859" 
d="M425 333v-10h-407v10h132v323h10v-323h265zM422 656c222 0 345 -113 345 -317v-22c0 -204 -123 -317 -345 -317h-173v10h173c217 0 335 108 335 307v22c0 199 -118 307 -335 307h-173v10h173zM150 0v234h10v-234h-10z" />
    <glyph glyph-name="Dcaron" unicode="&#x10e;" horiz-adv-x="826" 
d="M362 749l-200 89v12l200 -89l200 89v-12zM127 0h-10v656h10v-656zM216 10h173c217 0 335 108 335 307v22c0 199 -118 307 -335 307h-173v10h173c222 0 345 -113 345 -317v-22c0 -204 -123 -317 -345 -317h-173v10z" />
    <glyph glyph-name="Dcroat" unicode="&#x110;" horiz-adv-x="859" 
d="M425 333v-10h-407v10h132v323h10v-323h265zM422 656c222 0 345 -113 345 -317v-22c0 -204 -123 -317 -345 -317h-173v10h173c217 0 335 108 335 307v22c0 199 -118 307 -335 307h-173v10h173zM150 0v234h10v-234h-10z" />
    <glyph glyph-name="Eacute" unicode="&#xc9;" horiz-adv-x="723" 
d="M174 749v11l400 90v-11zM127 0h-10v656h10v-656zM216 656h415v-10h-415v10zM216 333h395v-10h-395v10zM216 10h415v-10h-415v10z" />
    <glyph glyph-name="Ebreve" unicode="&#x114;" horiz-adv-x="723" 
d="M379 752c-64 0 -129 21 -205 67v10c74 -45 141 -67 205 -67s126 22 195 67v-10c-65 -45 -130 -67 -195 -67zM127 0h-10v656h10v-656zM216 656h415v-10h-415v10zM216 333h395v-10h-395v10zM216 10h415v-10h-415v10z" />
    <glyph glyph-name="Ecaron" unicode="&#x11a;" horiz-adv-x="723" 
d="M374 749l-200 89v12l200 -89l200 89v-12zM127 0h-10v656h10v-656zM216 656h415v-10h-415v10zM216 333h395v-10h-395v10zM216 10h415v-10h-415v10z" />
    <glyph glyph-name="Ecircumflex" unicode="&#xca;" horiz-adv-x="723" 
d="M174 749v12l200 89l200 -89v-12l-200 89zM127 0h-10v656h10v-656zM216 656h415v-10h-415v10zM216 333h395v-10h-395v10zM216 10h415v-10h-415v10z" />
    <glyph glyph-name="Edieresis" unicode="&#xcb;" horiz-adv-x="723" 
d="M246 774c-9 0 -17 8 -17 17c0 10 8 17 17 17c10 0 17 -7 17 -17c0 -9 -7 -17 -17 -17zM501 774c-9 0 -17 8 -17 17c0 10 8 17 17 17c10 0 17 -7 17 -17c0 -9 -7 -17 -17 -17zM127 0h-10v656h10v-656zM216 656h415v-10h-415v10zM216 333h395v-10h-395v10zM216 10h415v-10
h-415v10z" />
    <glyph glyph-name="Edotaccent" unicode="&#x116;" horiz-adv-x="723" 
d="M374 774c-9 0 -17 8 -17 17c0 10 8 17 17 17c10 0 17 -7 17 -17c0 -9 -7 -17 -17 -17zM127 0h-10v656h10v-656zM216 656h415v-10h-415v10zM216 333h395v-10h-395v10zM216 10h415v-10h-415v10z" />
    <glyph glyph-name="uni1EB8" unicode="&#x1eb8;" horiz-adv-x="723" 
d="M127 0h-10v656h10v-656zM216 656h415v-10h-415v10zM216 333h395v-10h-395v10zM216 10h415v-10h-415v10zM374 -152c-9 0 -17 7 -17 17c0 9 8 17 17 17c10 0 17 -8 17 -17c0 -10 -7 -17 -17 -17z" />
    <glyph glyph-name="Egrave" unicode="&#xc8;" horiz-adv-x="723" 
d="M574 749l-400 90v11l400 -90v-11zM127 0h-10v656h10v-656zM216 656h415v-10h-415v10zM216 333h395v-10h-395v10zM216 10h415v-10h-415v10z" />
    <glyph glyph-name="Emacron" unicode="&#x112;" horiz-adv-x="723" 
d="M174 786v10h400v-10h-400zM127 0h-10v656h10v-656zM216 656h415v-10h-415v10zM216 333h395v-10h-395v10zM216 10h415v-10h-415v10z" />
    <glyph glyph-name="Eogonek" unicode="&#x118;" horiz-adv-x="723" 
d="M117 0v656h10v-656h-10zM216 656h415v-10h-415v10zM611 333v-10h-395v10h395zM216 0v10h415v-10l-122 -59c-38 -18 -53 -36 -53 -62c0 -25 20 -39 54 -39h121v-10h-121c-39 0 -64 19 -64 49c0 29 17 50 58 70l104 51h-392z" />
    <glyph glyph-name="uni1EBC" unicode="&#x1ebc;" horiz-adv-x="723" 
d="M469 768c-78 0 -125 37 -193 37c-33 0 -67 -8 -102 -25v10c35 17 69 25 102 25c69 0 115 -37 193 -37c32 0 68 7 105 20v-10c-37 -13 -73 -20 -105 -20zM127 0h-10v656h10v-656zM216 656h415v-10h-415v10zM216 333h395v-10h-395v10zM216 10h415v-10h-415v10z" />
    <glyph glyph-name="uni01F4" unicode="&#x1f4;" horiz-adv-x="879" 
d="M246 749v11l400 90v-11zM403 654c-185 -16 -302 -135 -302 -313v-27c0 -196 130 -314 345 -314c99 0 176 22 236 69v-12c-60 -44 -139 -67 -236 -67c-220 0 -355 123 -355 324v27c0 183 122 307 312 323v-10zM492 664c167 -14 290 -111 290 -235v-10h-10v10
c0 120 -117 211 -280 225v10zM771 0v306h-387v10h397v-316h-10z" />
    <glyph glyph-name="Gbreve" unicode="&#x11e;" horiz-adv-x="879" 
d="M451 752c-64 0 -129 21 -205 67v10c74 -45 141 -67 205 -67s126 22 195 67v-10c-65 -45 -130 -67 -195 -67zM403 654c-185 -16 -302 -135 -302 -313v-27c0 -196 130 -314 345 -314c99 0 176 22 236 69v-12c-60 -44 -139 -67 -236 -67c-220 0 -355 123 -355 324v27
c0 183 122 307 312 323v-10zM492 664c167 -14 290 -111 290 -235v-10h-10v10c0 120 -117 211 -280 225v10zM771 0v306h-387v10h397v-316h-10z" />
    <glyph glyph-name="Gcaron" unicode="&#x1e6;" horiz-adv-x="879" 
d="M446 749l-200 89v12l200 -89l200 89v-12zM403 654c-185 -16 -302 -135 -302 -313v-27c0 -196 130 -314 345 -314c99 0 176 22 236 69v-12c-60 -44 -139 -67 -236 -67c-220 0 -355 123 -355 324v27c0 183 122 307 312 323v-10zM492 664c167 -14 290 -111 290 -235v-10h-10
v10c0 120 -117 211 -280 225v10zM771 0v306h-387v10h397v-316h-10z" />
    <glyph glyph-name="Gcircumflex" unicode="&#x11c;" horiz-adv-x="879" 
d="M246 749v12l200 89l200 -89v-12l-200 89zM403 654c-185 -16 -302 -135 -302 -313v-27c0 -196 130 -314 345 -314c99 0 176 22 236 69v-12c-60 -44 -139 -67 -236 -67c-220 0 -355 123 -355 324v27c0 183 122 307 312 323v-10zM492 664c167 -14 290 -111 290 -235v-10h-10
v10c0 120 -117 211 -280 225v10zM771 0v306h-387v10h397v-316h-10z" />
    <glyph glyph-name="uni0122" unicode="&#x122;" horiz-adv-x="879" 
d="M403 654c-185 -16 -302 -135 -302 -313v-27c0 -196 130 -314 345 -314c99 0 176 22 236 69v-12c-60 -44 -139 -67 -236 -67c-220 0 -355 123 -355 324v27c0 183 122 307 312 323v-10zM492 664c167 -14 290 -111 290 -235v-10h-10v10c0 120 -117 211 -280 225v10zM771 0
v306h-387v10h397v-316h-10zM388 -199l51 141h10l-51 -141h-10z" />
    <glyph glyph-name="Gdotaccent" unicode="&#x120;" horiz-adv-x="879" 
d="M446 774c-9 0 -17 8 -17 17c0 10 8 17 17 17c10 0 17 -7 17 -17c0 -9 -7 -17 -17 -17zM403 654c-185 -16 -302 -135 -302 -313v-27c0 -196 130 -314 345 -314c99 0 176 22 236 69v-12c-60 -44 -139 -67 -236 -67c-220 0 -355 123 -355 324v27c0 183 122 307 312 323v-10z
M492 664c167 -14 290 -111 290 -235v-10h-10v10c0 120 -117 211 -280 225v10zM771 0v306h-387v10h397v-316h-10z" />
    <glyph glyph-name="Hbar" unicode="&#x126;" horiz-adv-x="819" 
d="M702 486h95v-10h-775v10h95v170h10v-170h565v170h10v-170zM117 0v390h10v-390h-10zM692 313v77h10v-390h-10v303h-476v10h476z" />
    <glyph glyph-name="Hcircumflex" unicode="&#x124;" horiz-adv-x="819" 
d="M210 749v12l200 89l200 -89v-12l-200 89zM127 0h-10v656h10v-656zM216 333h476v323h10v-656h-10v323h-476v10z" />
    <glyph glyph-name="IJ" unicode="&#x132;" horiz-adv-x="841" 
d="M117 0v656h10v-656h-10zM322 646v10h412v-10h-412zM734 557v-310c0 -145 -119 -247 -286 -247h-126v10h126c163 0 276 97 276 237v310h10z" />
    <glyph glyph-name="Iacute" unicode="&#xcd;" horiz-adv-x="299" 
d="M10 767v11l280 54v-11zM144 0v656h10v-656h-10z" />
    <glyph glyph-name="Ibreve" unicode="&#x12c;" horiz-adv-x="299" 
d="M154 752c-56 0 -101 20 -144 65v12c42 -45 89 -67 144 -67c54 0 98 22 136 67v-12c-34 -43 -80 -65 -136 -65zM144 0v656h10v-656h-10z" />
    <glyph glyph-name="Icircumflex" unicode="&#xce;" horiz-adv-x="299" 
d="M10 767v11l140 62l140 -62v-11l-140 62zM144 0v656h10v-656h-10z" />
    <glyph glyph-name="Idieresis" unicode="&#xcf;" horiz-adv-x="299" 
d="M22 774c-9 0 -17 8 -17 17c0 10 8 17 17 17c10 0 17 -7 17 -17c0 -9 -7 -17 -17 -17zM277 774c-9 0 -17 8 -17 17c0 10 8 17 17 17c10 0 17 -7 17 -17c0 -9 -7 -17 -17 -17zM144 0v656h10v-656h-10z" />
    <glyph glyph-name="Idotaccent" unicode="&#x130;" horiz-adv-x="299" 
d="M150 774c-9 0 -17 8 -17 17c0 10 8 17 17 17c10 0 17 -7 17 -17c0 -9 -7 -17 -17 -17zM144 0v656h10v-656h-10z" />
    <glyph glyph-name="uni1ECA" unicode="&#x1eca;" horiz-adv-x="299" 
d="M144 0v656h10v-656h-10zM150 -152c-9 0 -17 7 -17 17c0 9 8 17 17 17c10 0 17 -8 17 -17c0 -10 -7 -17 -17 -17z" />
    <glyph glyph-name="Igrave" unicode="&#xcc;" horiz-adv-x="299" 
d="M289 767l-280 54v11l280 -54v-11zM144 0v656h10v-656h-10z" />
    <glyph glyph-name="Imacron" unicode="&#x12a;" horiz-adv-x="299" 
d="M10 786v10h280v-10h-280zM144 0v656h10v-656h-10z" />
    <glyph glyph-name="Iogonek" unicode="&#x12e;" horiz-adv-x="299" 
d="M32 -59c-38 -18 -53 -36 -53 -62c0 -25 20 -39 54 -39h121v-10h-121c-39 0 -64 19 -64 49c0 29 17 50 58 70l117 58v649h10v-656z" />
    <glyph glyph-name="Itilde" unicode="&#x128;" horiz-adv-x="299" 
d="M217 768c-57 0 -88 37 -136 37c-24 0 -48 -8 -71 -23v10c22 15 46 23 71 23c52 0 81 -37 136 -37c22 0 47 6 73 18v-10c-25 -12 -50 -18 -73 -18zM144 0v656h10v-656h-10z" />
    <glyph glyph-name="Jcircumflex" unicode="&#x134;" horiz-adv-x="749" 
d="M235 749v12l200 89l200 -89v-12l-200 89zM250 646v10h392v-10h-392zM401 4c138 15 231 106 231 233v320h10v-320c0 -131 -98 -227 -241 -244v11zM312 -7c-143 16 -237 110 -237 244v58h10v-58c0 -127 90 -218 227 -233v-11z" />
    <glyph glyph-name="uni0136" unicode="&#x136;" horiz-adv-x="813" 
d="M117 0v656h10v-656h-10zM216 302l494 354h13v-3l-507 -363v12zM385 302l336 -299v-3h-14l-332 295zM332 -199l51 141h10l-51 -141h-10z" />
    <glyph glyph-name="Lacute" unicode="&#x139;" horiz-adv-x="687" 
d="M-78 749v11l400 90v-11zM117 0v656h10v-656h-10zM677 10v-10h-461v10h461z" />
    <glyph glyph-name="Lcaron" unicode="&#x13d;" horiz-adv-x="687" 
d="M117 0v656h10v-656h-10zM435 480l37 176h12l-39 -176h-10zM677 10v-10h-461v10h461z" />
    <glyph glyph-name="uni013B" unicode="&#x13b;" horiz-adv-x="687" 
d="M117 0v656h10v-656h-10zM677 10v-10h-461v10h461zM275 -199l51 141h10l-51 -141h-10z" />
    <glyph glyph-name="Ldot" unicode="&#x13f;" horiz-adv-x="687" 
d="M117 0v656h10v-656h-10zM465 311c-8 0 -17 6 -17 17s9 17 17 17s17 -6 17 -17s-9 -17 -17 -17zM677 10v-10h-461v10h461z" />
    <glyph glyph-name="Lslash" unicode="&#x141;" horiz-adv-x="720" 
d="M491 409v-10l-473 -107v10l132 30v324h10v-322zM150 0v233l10 3v-236h-10zM249 10h461v-10h-461v10z" />
    <glyph glyph-name="Nacute" unicode="&#x143;" horiz-adv-x="819" 
d="M210 749v11l400 90v-11zM702 0h-14l-571 656h14zM692 147v509h10v-521zM127 509l-1 -509h-9v521z" />
    <glyph glyph-name="Ncaron" unicode="&#x147;" horiz-adv-x="819" 
d="M410 749l-200 89v12l200 -89l200 89v-12zM702 0h-14l-571 656h14zM692 147v509h10v-521zM127 509l-1 -509h-9v521z" />
    <glyph glyph-name="uni0145" unicode="&#x145;" horiz-adv-x="819" 
d="M702 0h-14l-571 656h14zM692 147v509h10v-521zM127 509l-1 -509h-9v521zM352 -199l51 141h10l-51 -141h-10z" />
    <glyph glyph-name="Eng" unicode="&#x14a;" horiz-adv-x="819" 
d="M117 656h14l567 -652l-1 -8c-18 -112 -85 -166 -207 -166h-63v10h63c115 0 180 51 197 158l1 3zM692 656h10v-521l-10 12v509zM117 0v521l10 -12l-1 -509h-9z" />
    <glyph glyph-name="Ntilde" unicode="&#xd1;" horiz-adv-x="819" 
d="M505 768c-78 0 -125 37 -193 37c-33 0 -67 -8 -102 -25v10c35 17 69 25 102 25c69 0 115 -37 193 -37c32 0 68 7 105 20v-10c-37 -13 -73 -20 -105 -20zM702 0h-14l-571 656h14zM692 147v509h10v-521zM127 509l-1 -509h-9v521z" />
    <glyph glyph-name="Oacute" unicode="&#xd3;" horiz-adv-x="877" 
d="M238 749v11l400 90v-11zM394 -7c-186 16 -303 139 -303 324v21c0 187 116 309 303 325v-10c-180 -16 -293 -135 -293 -315v-21c0 -179 113 -298 293 -314v-10zM483 3c180 16 292 135 292 314v21c0 180 -112 299 -292 315v10c185 -16 302 -139 302 -325v-21
c0 -185 -116 -308 -302 -324v10z" />
    <glyph glyph-name="Obreve" unicode="&#x14e;" horiz-adv-x="877" 
d="M443 752c-64 0 -129 21 -205 67v10c74 -45 141 -67 205 -67s126 22 195 67v-10c-65 -45 -130 -67 -195 -67zM394 -7c-186 16 -303 139 -303 324v21c0 187 116 309 303 325v-10c-180 -16 -293 -135 -293 -315v-21c0 -179 113 -298 293 -314v-10zM483 3
c180 16 292 135 292 314v21c0 180 -112 299 -292 315v10c185 -16 302 -139 302 -325v-21c0 -185 -116 -308 -302 -324v10z" />
    <glyph glyph-name="Ocircumflex" unicode="&#xd4;" horiz-adv-x="877" 
d="M238 749v12l200 89l200 -89v-12l-200 89zM394 -7c-186 16 -303 139 -303 324v21c0 187 116 309 303 325v-10c-180 -16 -293 -135 -293 -315v-21c0 -179 113 -298 293 -314v-10zM483 3c180 16 292 135 292 314v21c0 180 -112 299 -292 315v10c185 -16 302 -139 302 -325
v-21c0 -185 -116 -308 -302 -324v10z" />
    <glyph glyph-name="Odieresis" unicode="&#xd6;" horiz-adv-x="877" 
d="M310 774c-9 0 -17 8 -17 17c0 10 8 17 17 17c10 0 17 -7 17 -17c0 -9 -7 -17 -17 -17zM565 774c-9 0 -17 8 -17 17c0 10 8 17 17 17c10 0 17 -7 17 -17c0 -9 -7 -17 -17 -17zM394 -7c-186 16 -303 139 -303 324v21c0 187 116 309 303 325v-10
c-180 -16 -293 -135 -293 -315v-21c0 -179 113 -298 293 -314v-10zM483 3c180 16 292 135 292 314v21c0 180 -112 299 -292 315v10c185 -16 302 -139 302 -325v-21c0 -185 -116 -308 -302 -324v10z" />
    <glyph glyph-name="uni1ECC" unicode="&#x1ecc;" horiz-adv-x="877" 
d="M394 -7c-186 16 -303 139 -303 324v21c0 187 116 309 303 325v-10c-180 -16 -293 -135 -293 -315v-21c0 -179 113 -298 293 -314v-10zM483 3c180 16 292 135 292 314v21c0 180 -112 299 -292 315v10c185 -16 302 -139 302 -325v-21c0 -185 -116 -308 -302 -324v10z
M437 -152c-9 0 -17 7 -17 17c0 9 8 17 17 17c10 0 17 -8 17 -17c0 -10 -7 -17 -17 -17z" />
    <glyph glyph-name="Ograve" unicode="&#xd2;" horiz-adv-x="877" 
d="M638 749l-400 90v11l400 -90v-11zM394 -7c-186 16 -303 139 -303 324v21c0 187 116 309 303 325v-10c-180 -16 -293 -135 -293 -315v-21c0 -179 113 -298 293 -314v-10zM483 3c180 16 292 135 292 314v21c0 180 -112 299 -292 315v10c185 -16 302 -139 302 -325v-21
c0 -185 -116 -308 -302 -324v10z" />
    <glyph glyph-name="Ohungarumlaut" unicode="&#x150;" horiz-adv-x="877" 
d="M229 749v12l270 89v-13zM499 749v12l267 89v-13zM394 -7c-186 16 -303 139 -303 324v21c0 187 116 309 303 325v-10c-180 -16 -293 -135 -293 -315v-21c0 -179 113 -298 293 -314v-10zM483 3c180 16 292 135 292 314v21c0 180 -112 299 -292 315v10
c185 -16 302 -139 302 -325v-21c0 -185 -116 -308 -302 -324v10z" />
    <glyph glyph-name="Omacron" unicode="&#x14c;" horiz-adv-x="877" 
d="M238 786v10h400v-10h-400zM394 -7c-186 16 -303 139 -303 324v21c0 187 116 309 303 325v-10c-180 -16 -293 -135 -293 -315v-21c0 -179 113 -298 293 -314v-10zM483 3c180 16 292 135 292 314v21c0 180 -112 299 -292 315v10c185 -16 302 -139 302 -325v-21
c0 -185 -116 -308 -302 -324v10z" />
    <glyph glyph-name="Oslash" unicode="&#xd8;" horiz-adv-x="877" 
d="M143 -60v3l581 773h10v-3l-581 -773h-10zM91 338c0 201 134 328 347 328c48 0 91 -7 131 -19l-7 -8c-37 11 -79 17 -124 17c-206 0 -337 -124 -337 -318v-21c0 -83 24 -153 68 -206l-7 -8c-45 54 -71 127 -71 214v21zM785 339v-21c0 -201 -134 -328 -347 -328
c-48 0 -91 7 -131 19l7 8c37 -11 79 -17 124 -17c206 0 337 124 337 318v21c0 83 -24 153 -68 206l7 8c45 -54 71 -127 71 -214z" />
    <glyph glyph-name="Oslashacute" unicode="&#x1fe;" horiz-adv-x="877" 
d="M239 749v11l400 90v-11zM143 -60v3l581 773h10v-3l-581 -773h-10zM91 338c0 201 134 328 347 328c48 0 91 -7 131 -19l-7 -8c-37 11 -79 17 -124 17c-206 0 -337 -124 -337 -318v-21c0 -83 24 -153 68 -206l-7 -8c-45 54 -71 127 -71 214v21zM785 339v-21
c0 -201 -134 -328 -347 -328c-48 0 -91 7 -131 19l7 8c37 -11 79 -17 124 -17c206 0 337 124 337 318v21c0 83 -24 153 -68 206l7 8c45 -54 71 -127 71 -214z" />
    <glyph glyph-name="Otilde" unicode="&#xd5;" horiz-adv-x="877" 
d="M533 768c-78 0 -125 37 -193 37c-33 0 -67 -8 -102 -25v10c35 17 69 25 102 25c69 0 115 -37 193 -37c32 0 68 7 105 20v-10c-37 -13 -73 -20 -105 -20zM394 -7c-186 16 -303 139 -303 324v21c0 187 116 309 303 325v-10c-180 -16 -293 -135 -293 -315v-21
c0 -179 113 -298 293 -314v-10zM483 3c180 16 292 135 292 314v21c0 180 -112 299 -292 315v10c185 -16 302 -139 302 -325v-21c0 -185 -116 -308 -302 -324v10z" />
    <glyph glyph-name="OE" unicode="&#x152;" horiz-adv-x="1263" 
d="M589 646h-153c-217 0 -335 -108 -335 -307v-22c0 -199 118 -307 335 -307h153v-10h-153c-222 0 -345 113 -345 317v22c0 204 123 317 345 317h153v-10zM688 0h-10v656h10v-656zM777 656h394v-10h-394v10zM777 333h374v-10h-374v10zM777 10h394v-10h-394v10z" />
    <glyph glyph-name="Thorn" unicode="&#xde;" horiz-adv-x="787" 
d="M117 0v656h10v-656h-10zM216 158v10h285c127 0 205 58 205 153v14c0 96 -77 154 -205 154h-285v10h285c133 0 215 -63 215 -164v-14c0 -100 -83 -163 -215 -163h-285z" />
    <glyph glyph-name="Racute" unicode="&#x154;" horiz-adv-x="806" 
d="M593 850v-11l-400 -90v11zM117 0v656h10v-656h-10zM716 478c0 -100 -83 -163 -215 -163h-70l283 -312v-3h-11l-287 315h-200v10h285c127 0 205 58 205 153v14c0 96 -77 154 -205 154h-285v10h285c133 0 215 -63 215 -164v-14z" />
    <glyph glyph-name="Rcaron" unicode="&#x158;" horiz-adv-x="806" 
d="M593 838l-200 -89l-200 89v12l200 -89l200 89v-12zM117 0v656h10v-656h-10zM716 478c0 -100 -83 -163 -215 -163h-70l283 -312v-3h-11l-287 315h-200v10h285c127 0 205 58 205 153v14c0 96 -77 154 -205 154h-285v10h285c133 0 215 -63 215 -164v-14z" />
    <glyph glyph-name="uni0156" unicode="&#x156;" horiz-adv-x="806" 
d="M117 0v656h10v-656h-10zM716 478c0 -100 -83 -163 -215 -163h-70l283 -312v-3h-11l-287 315h-200v10h285c127 0 205 58 205 153v14c0 96 -77 154 -205 154h-285v10h285c133 0 215 -63 215 -164v-14zM335 -199l51 141h10l-51 -141h-10z" />
    <glyph glyph-name="Sacute" unicode="&#x15a;" horiz-adv-x="771" 
d="M183 749v11l400 90v-11zM430 2c162 7 245 60 245 157v10c0 95 -64 138 -229 153l-119 11c-150 14 -221 64 -221 155v10c0 97 85 156 235 166v-10c-144 -8 -225 -64 -225 -156v-10c0 -86 67 -132 211 -145l119 -11c172 -16 239 -62 239 -163v-10
c0 -103 -88 -161 -255 -168v11zM430 664c160 -10 243 -77 243 -197v-10h-10v10c0 115 -79 177 -233 187v10zM341 -8c-168 11 -255 78 -255 197v10h10v-10c0 -114 82 -176 245 -187v-10z" />
    <glyph glyph-name="Scaron" unicode="&#x160;" horiz-adv-x="771" 
d="M383 749l-200 89v12l200 -89l200 89v-12zM430 2c162 7 245 60 245 157v10c0 95 -64 138 -229 153l-119 11c-150 14 -221 64 -221 155v10c0 97 85 156 235 166v-10c-144 -8 -225 -64 -225 -156v-10c0 -86 67 -132 211 -145l119 -11c172 -16 239 -62 239 -163v-10
c0 -103 -88 -161 -255 -168v11zM430 664c160 -10 243 -77 243 -197v-10h-10v10c0 115 -79 177 -233 187v10zM341 -8c-168 11 -255 78 -255 197v10h10v-10c0 -114 82 -176 245 -187v-10z" />
    <glyph glyph-name="Scedilla" unicode="&#x15e;" horiz-adv-x="771" 
d="M430 2c162 7 245 60 245 157v10c0 95 -64 138 -229 153l-119 11c-150 14 -221 64 -221 155v10c0 97 85 156 235 166v-10c-144 -8 -225 -64 -225 -156v-10c0 -86 67 -132 211 -145l119 -11c172 -16 239 -62 239 -163v-10c0 -103 -88 -161 -255 -168v11zM430 664
c160 -10 243 -77 243 -197v-10h-10v10c0 115 -79 177 -233 187v10zM341 -8c-168 11 -255 78 -255 197v10h10v-10c0 -114 82 -176 245 -187v-10zM325 -199l51 141h10l-51 -141h-10z" />
    <glyph glyph-name="Scircumflex" unicode="&#x15c;" horiz-adv-x="771" 
d="M183 749v12l200 89l200 -89v-12l-200 89zM430 2c162 7 245 60 245 157v10c0 95 -64 138 -229 153l-119 11c-150 14 -221 64 -221 155v10c0 97 85 156 235 166v-10c-144 -8 -225 -64 -225 -156v-10c0 -86 67 -132 211 -145l119 -11c172 -16 239 -62 239 -163v-10
c0 -103 -88 -161 -255 -168v11zM430 664c160 -10 243 -77 243 -197v-10h-10v10c0 115 -79 177 -233 187v10zM341 -8c-168 11 -255 78 -255 197v10h10v-10c0 -114 82 -176 245 -187v-10z" />
    <glyph glyph-name="uni0218" unicode="&#x218;" horiz-adv-x="771" 
d="M430 2c162 7 245 60 245 157v10c0 95 -64 138 -229 153l-119 11c-150 14 -221 64 -221 155v10c0 97 85 156 235 166v-10c-144 -8 -225 -64 -225 -156v-10c0 -86 67 -132 211 -145l119 -11c172 -16 239 -62 239 -163v-10c0 -103 -88 -161 -255 -168v11zM430 664
c160 -10 243 -77 243 -197v-10h-10v10c0 115 -79 177 -233 187v10zM341 -8c-168 11 -255 78 -255 197v10h10v-10c0 -114 82 -176 245 -187v-10zM325 -199l51 141h10l-51 -141h-10z" />
    <glyph glyph-name="uni1E62" unicode="&#x1e62;" horiz-adv-x="771" 
d="M430 2c162 7 245 60 245 157v10c0 95 -64 138 -229 153l-119 11c-150 14 -221 64 -221 155v10c0 97 85 156 235 166v-10c-144 -8 -225 -64 -225 -156v-10c0 -86 67 -132 211 -145l119 -11c172 -16 239 -62 239 -163v-10c0 -103 -88 -161 -255 -168v11zM430 664
c160 -10 243 -77 243 -197v-10h-10v10c0 115 -79 177 -233 187v10zM341 -8c-168 11 -255 78 -255 197v10h10v-10c0 -114 82 -176 245 -187v-10zM383 -152c-9 0 -17 7 -17 17c0 9 8 17 17 17c10 0 17 -8 17 -17c0 -10 -7 -17 -17 -17z" />
    <glyph glyph-name="uni1E9E" unicode="&#x1e9e;" horiz-adv-x="821" 
d="M608 656l-11 -10h-356c-74 0 -114 -43 -114 -123v-523h-10v523c0 85 45 133 125 133h366zM519 343c154 0 235 -57 235 -166v-14c0 -105 -83 -163 -235 -163h-114v10h114c148 0 225 53 225 153v14c0 104 -75 156 -225 156h-114v10l333 313h4v-10l-323 -303h100z" />
    <glyph glyph-name="uni018F" unicode="&#x18f;" horiz-adv-x="877" 
d="M394 654c-163 -13 -273 -102 -289 -236h-10c16 141 129 233 299 246v-10zM483 663c185 -16 302 -140 302 -325v-21c0 -185 -117 -308 -302 -325v11c179 16 292 135 292 314v4h-674v-4c0 -179 112 -298 293 -314v-11c-187 17 -303 140 -303 325v14h684v7
c0 179 -112 299 -292 315v10z" />
    <glyph glyph-name="Tbar" unicode="&#x166;" horiz-adv-x="711" 
d="M10 656h671v-10h-671v10zM351 557v-224h270v-10h-531v10h251v224h10zM341 0v234h10v-234h-10z" />
    <glyph glyph-name="Tcaron" unicode="&#x164;" horiz-adv-x="691" 
d="M346 749l-200 89v12l200 -89l200 89v-12zM10 646v10h671v-10h-671zM351 557v-557h-10v557h10z" />
    <glyph glyph-name="uni0162" unicode="&#x162;" horiz-adv-x="691" 
d="M10 646v10h671v-10h-671zM351 557v-557h-10v557h10zM288 -199l51 141h10l-51 -141h-10z" />
    <glyph glyph-name="uni021A" unicode="&#x21a;" horiz-adv-x="691" 
d="M10 646v10h671v-10h-671zM351 557v-557h-10v557h10zM288 -199l51 141h10l-51 -141h-10z" />
    <glyph glyph-name="Uacute" unicode="&#xda;" horiz-adv-x="793" 
d="M197 749v11l400 90v-11zM352 -7c-148 16 -245 115 -245 254v409h10v-409c0 -133 93 -228 235 -243v-11zM441 4c142 15 235 109 235 243v409h10v-409c0 -139 -98 -238 -245 -254v11z" />
    <glyph glyph-name="Ubreve" unicode="&#x16c;" horiz-adv-x="793" 
d="M402 752c-64 0 -129 21 -205 67v10c74 -45 141 -67 205 -67s126 22 195 67v-10c-65 -45 -130 -67 -195 -67zM352 -7c-148 16 -245 115 -245 254v409h10v-409c0 -133 93 -228 235 -243v-11zM441 4c142 15 235 109 235 243v409h10v-409c0 -139 -98 -238 -245 -254v11z" />
    <glyph glyph-name="Ucircumflex" unicode="&#xdb;" horiz-adv-x="793" 
d="M197 749v12l200 89l200 -89v-12l-200 89zM352 -7c-148 16 -245 115 -245 254v409h10v-409c0 -133 93 -228 235 -243v-11zM441 4c142 15 235 109 235 243v409h10v-409c0 -139 -98 -238 -245 -254v11z" />
    <glyph glyph-name="Udieresis" unicode="&#xdc;" horiz-adv-x="793" 
d="M269 774c-9 0 -17 8 -17 17c0 10 8 17 17 17c10 0 17 -7 17 -17c0 -9 -7 -17 -17 -17zM524 774c-9 0 -17 8 -17 17c0 10 8 17 17 17c10 0 17 -7 17 -17c0 -9 -7 -17 -17 -17zM352 -7c-148 16 -245 115 -245 254v409h10v-409c0 -133 93 -228 235 -243v-11zM441 4
c142 15 235 109 235 243v409h10v-409c0 -139 -98 -238 -245 -254v11z" />
    <glyph glyph-name="uni1EE4" unicode="&#x1ee4;" horiz-adv-x="793" 
d="M352 -7c-148 16 -245 115 -245 254v409h10v-409c0 -133 93 -228 235 -243v-11zM441 4c142 15 235 109 235 243v409h10v-409c0 -139 -98 -238 -245 -254v11zM397 -152c-9 0 -17 7 -17 17c0 9 8 17 17 17c10 0 17 -8 17 -17c0 -10 -7 -17 -17 -17z" />
    <glyph glyph-name="Ugrave" unicode="&#xd9;" horiz-adv-x="793" 
d="M597 749l-400 90v11l400 -90v-11zM352 -7c-148 16 -245 115 -245 254v409h10v-409c0 -133 93 -228 235 -243v-11zM441 4c142 15 235 109 235 243v409h10v-409c0 -139 -98 -238 -245 -254v11z" />
    <glyph glyph-name="Uhungarumlaut" unicode="&#x170;" horiz-adv-x="793" 
d="M188 749v12l270 89v-13zM458 749v12l267 89v-13zM352 -7c-148 16 -245 115 -245 254v409h10v-409c0 -133 93 -228 235 -243v-11zM441 4c142 15 235 109 235 243v409h10v-409c0 -139 -98 -238 -245 -254v11z" />
    <glyph glyph-name="Umacron" unicode="&#x16a;" horiz-adv-x="793" 
d="M197 786v10h400v-10h-400zM352 -7c-148 16 -245 115 -245 254v409h10v-409c0 -133 93 -228 235 -243v-11zM441 4c142 15 235 109 235 243v409h10v-409c0 -139 -98 -238 -245 -254v11z" />
    <glyph glyph-name="Uogonek" unicode="&#x172;" horiz-adv-x="793" 
d="M107 656h10v-409c0 -142 105 -242 268 -248c29 1 50 6 59 9l-11 -10c-12 -4 -28 -8 -52 -8c-168 7 -274 111 -274 257v409zM469 -170c-39 0 -64 19 -64 49c0 24 13 42 58 79l126 102c54 44 87 108 87 187v409h10v-409c0 -77 -29 -143 -82 -187l-136 -112
c-38 -31 -53 -47 -53 -69c0 -25 20 -39 54 -39h121v-10h-121z" />
    <glyph glyph-name="Uring" unicode="&#x16e;" horiz-adv-x="793" 
d="M365 723c-57 9 -88 41 -88 91s32 82 88 91v-10c-50 -9 -78 -37 -78 -81s28 -72 78 -80v-11zM430 723v11c49 7 75 36 75 80c0 45 -26 73 -75 81v10c55 -9 86 -41 86 -91c0 -51 -30 -83 -86 -91zM352 -7c-148 16 -245 115 -245 254v409h10v-409c0 -133 93 -228 235 -243
v-11zM441 4c142 15 235 109 235 243v409h10v-409c0 -139 -98 -238 -245 -254v11z" />
    <glyph glyph-name="Utilde" unicode="&#x168;" horiz-adv-x="793" 
d="M492 768c-78 0 -125 37 -193 37c-33 0 -67 -8 -102 -25v10c35 17 69 25 102 25c69 0 115 -37 193 -37c32 0 68 7 105 20v-10c-37 -13 -73 -20 -105 -20zM352 -7c-148 16 -245 115 -245 254v409h10v-409c0 -133 93 -228 235 -243v-11zM441 4c142 15 235 109 235 243v409
h10v-409c0 -139 -98 -238 -245 -254v11z" />
    <glyph glyph-name="Wacute" unicode="&#x1e82;" horiz-adv-x="1175" 
d="M388 749v11l400 90v-11zM319 0h-12l-271 653v3h11zM368 116l-6 14l219 526h13l274 -656h-12l-268 643zM910 130l218 526h11v-3l-223 -537z" />
    <glyph glyph-name="Wcircumflex" unicode="&#x174;" horiz-adv-x="1175" 
d="M388 749v12l200 89l200 -89v-12l-200 89zM319 0h-12l-271 653v3h11zM368 116l-6 14l219 526h13l274 -656h-12l-268 643zM910 130l218 526h11v-3l-223 -537z" />
    <glyph glyph-name="Wdieresis" unicode="&#x1e84;" horiz-adv-x="1175" 
d="M460 774c-9 0 -17 8 -17 17c0 10 8 17 17 17c10 0 17 -7 17 -17c0 -9 -7 -17 -17 -17zM715 774c-9 0 -17 8 -17 17c0 10 8 17 17 17c10 0 17 -7 17 -17c0 -9 -7 -17 -17 -17zM319 0h-12l-271 653v3h11zM368 116l-6 14l219 526h13l274 -656h-12l-268 643zM910 130l218 526
h11v-3l-223 -537z" />
    <glyph glyph-name="Wgrave" unicode="&#x1e80;" horiz-adv-x="1175" 
d="M788 749l-400 90v11l400 -90v-11zM319 0h-12l-271 653v3h11zM368 116l-6 14l219 526h13l274 -656h-12l-268 643zM910 130l218 526h11v-3l-223 -537z" />
    <glyph glyph-name="Yacute" unicode="&#xdd;" horiz-adv-x="726" 
d="M562 850v-11l-400 -90v11zM22 656h10l336 -356v-300h-10v297l-336 356v3zM694 656h10v-3l-275 -288l-6 6z" />
    <glyph glyph-name="Ycircumflex" unicode="&#x176;" horiz-adv-x="726" 
d="M562 749l-200 89l-200 -89v12l200 89l200 -89v-12zM22 656h10l336 -356v-300h-10v297l-336 356v3zM694 656h10v-3l-275 -288l-6 6z" />
    <glyph glyph-name="Ydieresis" unicode="&#x178;" horiz-adv-x="726" 
d="M234 774c-9 0 -17 8 -17 17c0 10 8 17 17 17c10 0 17 -7 17 -17c0 -9 -7 -17 -17 -17zM489 774c-9 0 -17 8 -17 17c0 10 8 17 17 17c10 0 17 -7 17 -17c0 -9 -7 -17 -17 -17zM22 656h10l336 -356v-300h-10v297l-336 356v3zM694 656h10v-3l-275 -288l-6 6z" />
    <glyph glyph-name="Ygrave" unicode="&#x1ef2;" horiz-adv-x="726" 
d="M562 760v-11l-400 90v11zM22 656h10l336 -356v-300h-10v297l-336 356v3zM694 656h10v-3l-275 -288l-6 6z" />
    <glyph glyph-name="uni0232" unicode="&#x232;" horiz-adv-x="726" 
d="M562 796v-10h-400v10h400zM22 656h10l336 -356v-300h-10v297l-336 356v3zM694 656h10v-3l-275 -288l-6 6z" />
    <glyph glyph-name="uni1EF8" unicode="&#x1ef8;" horiz-adv-x="726" 
d="M457 768c-78 0 -125 37 -193 37c-33 0 -67 -8 -102 -25v10c35 17 69 25 102 25c69 0 115 -37 193 -37c32 0 68 7 105 20v-10c-37 -13 -73 -20 -105 -20zM22 656h10l336 -356v-300h-10v297l-336 356v3zM694 656h10v-3l-275 -288l-6 6z" />
    <glyph glyph-name="Zacute" unicode="&#x179;" horiz-adv-x="696" 
d="M148 749v11l400 90v-11zM55 646v10h461l-9 -10h-452zM135 99l501 557h5v-10l-492 -547h-14zM55 0v10h586v-10h-586z" />
    <glyph glyph-name="Zcaron" unicode="&#x17d;" horiz-adv-x="696" 
d="M348 749l-200 89v12l200 -89l200 89v-12zM55 646v10h461l-9 -10h-452zM135 99l501 557h5v-10l-492 -547h-14zM55 0v10h586v-10h-586z" />
    <glyph glyph-name="Zdotaccent" unicode="&#x17b;" horiz-adv-x="696" 
d="M348 774c-9 0 -17 8 -17 17c0 10 8 17 17 17c10 0 17 -7 17 -17c0 -9 -7 -17 -17 -17zM55 646v10h461l-9 -10h-452zM135 99l501 557h5v-10l-492 -547h-14zM55 0v10h586v-10h-586z" />
    <glyph glyph-name="Iacute_J.loclNLD" horiz-adv-x="841" 
d="M-18 767v11l280 54v-11zM406 767v11l280 54v-11zM117 0v656h10v-656h-10zM322 646v10h412v-10h-412zM734 557v-310c0 -145 -119 -247 -286 -247h-126v10h126c163 0 276 97 276 237v310h10z" />
    <glyph glyph-name="I.ss07" horiz-adv-x="701" 
d="M47 646v10h606v-10h-606zM355 557v-458h-10v458h10zM653 10v-10h-606v10h606z" />
    <glyph glyph-name="IJ.ss07" horiz-adv-x="1421" 
d="M47 646v10h606v-10h-606zM922 646v10h392v-10h-392zM355 557v-458h-10v458h10zM1073 4c138 15 231 106 231 233v320h10v-320c0 -131 -98 -227 -241 -244v11zM984 -7c-143 16 -237 110 -237 244v58h10v-58c0 -127 90 -218 227 -233v-11zM653 10v-10h-606v10h606z" />
    <glyph glyph-name="Iacute.ss07" horiz-adv-x="701" 
d="M150 749v11l400 90v-11zM47 646v10h606v-10h-606zM355 557v-458h-10v458h10zM653 10v-10h-606v10h606z" />
    <glyph glyph-name="Iacute_J.loclNLD.ss07" horiz-adv-x="1421" 
d="M210 767v11l280 54v-11zM967 767v11l280 54v-11zM47 646v10h606v-10h-606zM922 646v10h392v-10h-392zM355 557v-458h-10v458h10zM1073 4c138 15 231 106 231 233v320h10v-320c0 -131 -98 -227 -241 -244v11zM984 -7c-143 16 -237 110 -237 244v58h10v-58
c0 -127 90 -218 227 -233v-11zM653 10v-10h-606v10h606z" />
    <glyph glyph-name="Ibreve.ss07" horiz-adv-x="701" 
d="M354 752c-56 0 -101 20 -144 65v12c42 -45 89 -67 144 -67c54 0 98 22 136 67v-12c-34 -43 -80 -65 -136 -65zM47 646v10h606v-10h-606zM355 557v-458h-10v458h10zM653 10v-10h-606v10h606z" />
    <glyph glyph-name="Icircumflex.ss07" horiz-adv-x="701" 
d="M150 749v12l200 89l200 -89v-12l-200 89zM47 646v10h606v-10h-606zM355 557v-458h-10v458h10zM653 10v-10h-606v10h606z" />
    <glyph glyph-name="Idieresis.ss07" horiz-adv-x="701" 
d="M222 774c-9 0 -17 8 -17 17c0 10 8 17 17 17c10 0 17 -7 17 -17c0 -9 -7 -17 -17 -17zM477 774c-9 0 -17 8 -17 17c0 10 8 17 17 17c10 0 17 -7 17 -17c0 -9 -7 -17 -17 -17zM47 646v10h606v-10h-606zM355 557v-458h-10v458h10zM653 10v-10h-606v10h606z" />
    <glyph glyph-name="Idotaccent.ss07" horiz-adv-x="701" 
d="M350 774c-9 0 -17 8 -17 17c0 10 8 17 17 17c10 0 17 -7 17 -17c0 -9 -7 -17 -17 -17zM47 646v10h606v-10h-606zM355 557v-458h-10v458h10zM653 10v-10h-606v10h606z" />
    <glyph glyph-name="uni1ECA.ss07" horiz-adv-x="701" 
d="M47 646v10h606v-10h-606zM355 557v-458h-10v458h10zM653 10v-10h-606v10h606zM350 -152c-9 0 -17 7 -17 17c0 9 8 17 17 17c10 0 17 -8 17 -17c0 -10 -7 -17 -17 -17z" />
    <glyph glyph-name="Igrave.ss07" horiz-adv-x="701" 
d="M550 749l-400 90v11l400 -90v-11zM47 646v10h606v-10h-606zM355 557v-458h-10v458h10zM653 10v-10h-606v10h606z" />
    <glyph glyph-name="Imacron.ss07" horiz-adv-x="701" 
d="M150 786v10h400v-10h-400zM47 646v10h606v-10h-606zM355 557v-458h-10v458h10zM653 10v-10h-606v10h606z" />
    <glyph glyph-name="Iogonek.ss07" horiz-adv-x="701" 
d="M47 656h606v-10h-606v10zM345 557h10v-458h-10v458zM47 0v10h606v-10l-122 -59c-38 -18 -53 -36 -53 -62c0 -25 20 -39 54 -39h121v-10h-121c-39 0 -64 19 -64 49c0 29 17 50 58 70l104 51h-583z" />
    <glyph glyph-name="Itilde.ss07" horiz-adv-x="701" 
d="M445 768c-78 0 -125 37 -193 37c-33 0 -67 -8 -102 -25v10c35 17 69 25 102 25c69 0 115 -37 193 -37c32 0 68 7 105 20v-10c-37 -13 -73 -20 -105 -20zM47 646v10h606v-10h-606zM355 557v-458h-10v458h10zM653 10v-10h-606v10h606z" />
    <glyph glyph-name="a" unicode="a" horiz-adv-x="716" 
d="M290 483c-113 -13 -192 -78 -192 -164v-10h-10v10c0 92 82 161 202 174v-10zM379 493c129 -12 202 -81 202 -194v-206c0 -52 34 -83 91 -83h44v-10h-43c-64 0 -102 35 -102 93v206c0 108 -68 172 -192 184v10zM482 43c-50 -34 -116 -53 -192 -53c-137 0 -204 40 -204 121
c0 78 57 118 187 131l209 21v-10l-209 -21c-122 -12 -177 -50 -177 -121c0 -74 64 -111 194 -111c76 0 143 20 192 55v-12z" />
    <glyph glyph-name="b" unicode="b" horiz-adv-x="710" 
d="M106 0v696h10v-696h-10zM205 449c44 30 101 47 161 47c173 0 281 -93 281 -241v-24c0 -148 -108 -241 -281 -241c-60 0 -117 17 -161 48v12c43 -32 100 -50 161 -50c167 0 271 88 271 231v24c0 143 -104 231 -271 231c-60 0 -118 -18 -161 -49v12z" />
    <glyph glyph-name="c" unicode="c" horiz-adv-x="670" 
d="M301 483c-140 -15 -228 -100 -228 -228v-24c0 -128 87 -213 228 -227v-11c-146 15 -238 105 -238 238v24c0 133 92 223 238 238v-10zM390 493c127 -14 220 -90 220 -188v-7h-10v7c0 93 -88 165 -210 178v10zM390 4c122 13 210 85 210 176v7h10v-7
c0 -96 -93 -173 -220 -187v11z" />
    <glyph glyph-name="d" unicode="d" horiz-adv-x="710" 
d="M604 0h-10v696h10v-696zM505 449v-12c-43 31 -100 49 -161 49c-167 0 -271 -88 -271 -231v-24c0 -143 104 -231 271 -231c61 0 118 18 161 50v-12c-44 -31 -101 -48 -161 -48c-173 0 -281 93 -281 241v24c0 148 108 241 281 241c60 0 117 -17 161 -47z" />
    <glyph glyph-name="e" unicode="e" horiz-adv-x="671" 
d="M386 493c136 -16 222 -104 222 -235v-18h-535v-9c0 -128 86 -213 224 -227v-11c-144 16 -234 105 -234 238v24c0 133 91 223 234 238v-10c-137 -15 -224 -100 -224 -228v-5h525v8c0 126 -82 210 -212 225v10zM386 3c127 13 212 80 212 174h10c0 -100 -89 -171 -222 -184
v10z" />
    <glyph glyph-name="f" unicode="f" horiz-adv-x="500" 
d="M229 486h251v-10h-465v10h204v77c0 88 47 133 125 133h96v-10h-97c-72 0 -114 -41 -114 -123v-77zM219 0v387h10v-387h-10z" />
    <glyph glyph-name="g" unicode="g" horiz-adv-x="709" 
d="M504 60c-46 -31 -106 -50 -168 -50c-172 0 -274 86 -274 231v24c0 145 102 231 274 231c62 0 122 -18 168 -50v-12c-45 33 -106 52 -168 52c-166 0 -264 -82 -264 -221v-24c0 -139 98 -221 264 -221c62 0 123 20 168 52v-12zM380 -168c135 12 213 78 213 184v470h10v-470
c0 -111 -83 -181 -223 -194v10zM291 -178c-139 11 -228 78 -228 174v10h10v-10c0 -90 85 -153 218 -164v-10z" />
    <glyph glyph-name="h" unicode="h" horiz-adv-x="711" 
d="M106 0v696h10v-696h-10zM205 449c43 30 99 47 156 47c164 0 252 -81 252 -233v-263h-10v263c0 145 -84 223 -242 223c-59 0 -114 -18 -156 -48v11z" />
    <glyph glyph-name="i" unicode="i" horiz-adv-x="286" 
d="M143 604c-9 0 -17 8 -17 17c0 10 8 17 17 17c10 0 17 -7 17 -17c0 -9 -7 -17 -17 -17zM138 0v486h10v-486h-10z" />
    <glyph glyph-name="j" unicode="j" horiz-adv-x="286" 
d="M143 604c-9 0 -17 8 -17 17c0 10 8 17 17 17c10 0 17 -7 17 -17c0 -9 -7 -17 -17 -17zM-106 -160h123c81 0 121 44 121 130v516h10v-516c0 -92 -44 -140 -131 -140h-123v10z" />
    <glyph glyph-name="k" unicode="k" horiz-adv-x="681" 
d="M106 0v696h10v-696h-10zM205 231l397 255h13v-3l-410 -263v11zM367 219l263 -216v-3h-13l-259 213z" />
    <glyph glyph-name="l" unicode="l" horiz-adv-x="319" 
d="M251 0c-80 0 -113 31 -113 106v590h10v-590c0 -69 29 -96 103 -96h42v-10h-42z" />
    <glyph glyph-name="m" unicode="m" horiz-adv-x="1108" 
d="M195 450c41 29 96 46 152 46c137 0 218 -83 218 -228v-268h-10v268c0 139 -76 218 -208 218c-57 0 -111 -18 -152 -48v12zM637 439c43 35 102 57 165 57c142 0 221 -83 221 -228v-268h-10v268c0 140 -76 218 -211 218c-62 0 -121 -23 -163 -58zM96 0v486h10v-486h-10z
" />
    <glyph glyph-name="n" unicode="n" horiz-adv-x="711" 
d="M205 449c43 30 99 47 156 47c164 0 252 -81 252 -233v-263h-10v263c0 145 -84 223 -242 223c-59 0 -114 -18 -156 -48v11zM106 0v486h10v-486h-10z" />
    <glyph glyph-name="o" unicode="o" horiz-adv-x="685" 
d="M300 483c-142 -15 -227 -100 -227 -229v-24c0 -128 88 -212 227 -226v-11c-146 15 -237 103 -237 237v24c0 136 91 224 237 239v-10zM389 493c143 -15 233 -104 233 -239v-24c0 -133 -90 -221 -233 -237v10c137 15 223 100 223 227v24c0 128 -85 214 -223 229v10z" />
    <glyph glyph-name="p" unicode="p" horiz-adv-x="710" 
d="M205 50c43 -32 100 -50 161 -50c167 0 271 88 271 231v24c0 143 -104 231 -271 231c-61 0 -118 -18 -161 -49v12c44 30 101 47 161 47c173 0 281 -93 281 -241v-24c0 -148 -108 -241 -281 -241c-60 0 -117 17 -161 48v12zM106 -170v656h10v-656h-10z" />
    <glyph glyph-name="q" unicode="q" horiz-adv-x="710" 
d="M505 50v-12c-43 -31 -101 -48 -161 -48c-173 0 -281 93 -281 241v24c0 148 108 241 281 241c61 0 117 -17 161 -47v-12c-43 31 -100 49 -161 49c-167 0 -271 -88 -271 -231v-24c0 -143 104 -231 271 -231c61 0 118 18 161 50zM604 -170h-10v656h10v-656z" />
    <glyph glyph-name="r" unicode="r" horiz-adv-x="473" 
d="M138 486h10v-486h-10v486zM237 449c33 24 76 37 123 37h103v-10h-103c-47 0 -91 -15 -123 -40v13z" />
    <glyph glyph-name="s" unicode="s" horiz-adv-x="688" 
d="M391 2c128 8 207 51 207 118v10c0 64 -61 97 -212 110l-91 8c-133 12 -190 46 -190 112v10c0 70 74 115 196 124v-10c-116 -8 -186 -50 -186 -114v-10c0 -61 52 -92 181 -103l91 -8c156 -14 221 -48 221 -119v-10c0 -72 -83 -120 -217 -128v10zM391 494
c129 -11 217 -68 217 -144v-5h-10v5c0 71 -84 124 -207 134v10zM301 -8c-132 11 -221 66 -221 144v5h10v-5c0 -73 83 -124 211 -134v-10z" />
    <glyph glyph-name="t" unicode="t" horiz-adv-x="520" 
d="M239 486h261v-10h-485v10h200c11 0 14 3 14 14v119h10v-133zM239 123c0 -72 42 -113 114 -113h117v-10h-116c-79 0 -125 46 -125 123v264h10v-264z" />
    <glyph glyph-name="u" unicode="u" horiz-adv-x="711" 
d="M506 37c-42 -29 -98 -47 -156 -47c-164 0 -252 81 -252 233v263h10v-263c0 -145 84 -223 242 -223c59 0 115 19 156 49v-12zM605 486v-486h-10v486h10z" />
    <glyph glyph-name="v" unicode="v" horiz-adv-x="697" 
d="M354 0h-12l-272 483v3h9zM399 101l219 385h9v-3l-222 -393z" />
    <glyph glyph-name="w" unicode="w" horiz-adv-x="1067" 
d="M314 0h-12l-232 483v3h9zM765 0h-12l-219 473l-171 -369l-6 12l172 370h9zM810 115l178 371h9v-3l-182 -379z" />
    <glyph glyph-name="x" unicode="x" horiz-adv-x="656" 
d="M62 483v3h11l525 -483v-3h-11zM394 312l189 174h10v-3l-192 -177zM262 179l-192 -179h-12v3l197 182z" />
    <glyph glyph-name="y" unicode="y" horiz-adv-x="697" 
d="M292 88l-222 395v3h9l219 -387zM618 486h9v-3l-315 -561c-37 -65 -66 -92 -159 -92h-55v10h55c79 0 112 19 150 86z" />
    <glyph glyph-name="z" unicode="z" horiz-adv-x="642" 
d="M433 476h-362v10h372zM165 99l407 387h4v-10l-397 -377h-14zM576 10v-10h-505v10h505z" />
    <glyph glyph-name="aacute" unicode="&#xe1;" horiz-adv-x="716" 
d="M135 579v11l400 90v-11zM290 483c-113 -13 -192 -78 -192 -164v-10h-10v10c0 92 82 161 202 174v-10zM379 493c129 -12 202 -81 202 -194v-206c0 -52 34 -83 91 -83h44v-10h-43c-64 0 -102 35 -102 93v206c0 108 -68 172 -192 184v10zM482 43c-50 -34 -116 -53 -192 -53
c-137 0 -204 40 -204 121c0 78 57 118 187 131l209 21v-10l-209 -21c-122 -12 -177 -50 -177 -121c0 -74 64 -111 194 -111c76 0 143 20 192 55v-12z" />
    <glyph glyph-name="abreve" unicode="&#x103;" horiz-adv-x="716" 
d="M340 582c-64 0 -129 21 -205 67v10c74 -45 141 -67 205 -67s126 22 195 67v-10c-65 -45 -130 -67 -195 -67zM290 483c-113 -13 -192 -78 -192 -164v-10h-10v10c0 92 82 161 202 174v-10zM379 493c129 -12 202 -81 202 -194v-206c0 -52 34 -83 91 -83h44v-10h-43
c-64 0 -102 35 -102 93v206c0 108 -68 172 -192 184v10zM482 43c-50 -34 -116 -53 -192 -53c-137 0 -204 40 -204 121c0 78 57 118 187 131l209 21v-10l-209 -21c-122 -12 -177 -50 -177 -121c0 -74 64 -111 194 -111c76 0 143 20 192 55v-12z" />
    <glyph glyph-name="uni01CE" unicode="&#x1ce;" horiz-adv-x="716" 
d="M335 579l-200 89v12l200 -89l200 89v-12zM290 483c-113 -13 -192 -78 -192 -164v-10h-10v10c0 92 82 161 202 174v-10zM379 493c129 -12 202 -81 202 -194v-206c0 -52 34 -83 91 -83h44v-10h-43c-64 0 -102 35 -102 93v206c0 108 -68 172 -192 184v10zM482 43
c-50 -34 -116 -53 -192 -53c-137 0 -204 40 -204 121c0 78 57 118 187 131l209 21v-10l-209 -21c-122 -12 -177 -50 -177 -121c0 -74 64 -111 194 -111c76 0 143 20 192 55v-12z" />
    <glyph glyph-name="acircumflex" unicode="&#xe2;" horiz-adv-x="716" 
d="M135 579v12l200 89l200 -89v-12l-200 89zM290 483c-113 -13 -192 -78 -192 -164v-10h-10v10c0 92 82 161 202 174v-10zM379 493c129 -12 202 -81 202 -194v-206c0 -52 34 -83 91 -83h44v-10h-43c-64 0 -102 35 -102 93v206c0 108 -68 172 -192 184v10zM482 43
c-50 -34 -116 -53 -192 -53c-137 0 -204 40 -204 121c0 78 57 118 187 131l209 21v-10l-209 -21c-122 -12 -177 -50 -177 -121c0 -74 64 -111 194 -111c76 0 143 20 192 55v-12z" />
    <glyph glyph-name="adieresis" unicode="&#xe4;" horiz-adv-x="716" 
d="M207 604c-9 0 -17 8 -17 17c0 10 8 17 17 17c10 0 17 -7 17 -17c0 -9 -7 -17 -17 -17zM462 604c-9 0 -17 8 -17 17c0 10 8 17 17 17c10 0 17 -7 17 -17c0 -9 -7 -17 -17 -17zM290 483c-113 -13 -192 -78 -192 -164v-10h-10v10c0 92 82 161 202 174v-10zM379 493
c129 -12 202 -81 202 -194v-206c0 -52 34 -83 91 -83h44v-10h-43c-64 0 -102 35 -102 93v206c0 108 -68 172 -192 184v10zM482 43c-50 -34 -116 -53 -192 -53c-137 0 -204 40 -204 121c0 78 57 118 187 131l209 21v-10l-209 -21c-122 -12 -177 -50 -177 -121
c0 -74 64 -111 194 -111c76 0 143 20 192 55v-12z" />
    <glyph glyph-name="agrave" unicode="&#xe0;" horiz-adv-x="716" 
d="M535 579l-400 90v11l400 -90v-11zM290 483c-113 -13 -192 -78 -192 -164v-10h-10v10c0 92 82 161 202 174v-10zM379 493c129 -12 202 -81 202 -194v-206c0 -52 34 -83 91 -83h44v-10h-43c-64 0 -102 35 -102 93v206c0 108 -68 172 -192 184v10zM482 43
c-50 -34 -116 -53 -192 -53c-137 0 -204 40 -204 121c0 78 57 118 187 131l209 21v-10l-209 -21c-122 -12 -177 -50 -177 -121c0 -74 64 -111 194 -111c76 0 143 20 192 55v-12z" />
    <glyph glyph-name="amacron" unicode="&#x101;" horiz-adv-x="716" 
d="M135 616v10h400v-10h-400zM290 483c-113 -13 -192 -78 -192 -164v-10h-10v10c0 92 82 161 202 174v-10zM379 493c129 -12 202 -81 202 -194v-206c0 -52 34 -83 91 -83h44v-10h-43c-64 0 -102 35 -102 93v206c0 108 -68 172 -192 184v10zM482 43
c-50 -34 -116 -53 -192 -53c-137 0 -204 40 -204 121c0 78 57 118 187 131l209 21v-10l-209 -21c-122 -12 -177 -50 -177 -121c0 -74 64 -111 194 -111c76 0 143 20 192 55v-12z" />
    <glyph glyph-name="aogonek" unicode="&#x105;" horiz-adv-x="716" 
d="M98 319v-10h-10v10c0 92 82 161 202 174v-10c-113 -13 -192 -78 -192 -164zM594 -59c-38 -18 -53 -36 -53 -62c0 -25 20 -39 54 -39h121v-10h-121c-39 0 -64 19 -64 49c0 29 17 50 58 70l104 51h-20c-64 0 -102 35 -102 93v206c0 108 -68 172 -192 184v10
c129 -12 202 -81 202 -194v-206c0 -52 34 -83 91 -83h44v-10zM86 111c0 78 57 118 187 131l209 21v-10l-209 -21c-122 -12 -177 -50 -177 -121c0 -74 64 -111 194 -111c76 0 143 20 192 55v-12c-50 -34 -116 -53 -192 -53c-137 0 -204 40 -204 121z" />
    <glyph glyph-name="aring" unicode="&#xe5;" horiz-adv-x="716" 
d="M303 553c-57 9 -88 41 -88 91s32 82 88 91v-10c-50 -9 -78 -37 -78 -81s28 -72 78 -80v-11zM368 553v11c49 7 75 36 75 80c0 45 -26 73 -75 81v10c55 -9 86 -41 86 -91c0 -51 -30 -83 -86 -91zM290 483c-113 -13 -192 -78 -192 -164v-10h-10v10c0 92 82 161 202 174v-10z
M379 493c129 -12 202 -81 202 -194v-206c0 -52 34 -83 91 -83h44v-10h-43c-64 0 -102 35 -102 93v206c0 108 -68 172 -192 184v10zM482 43c-50 -34 -116 -53 -192 -53c-137 0 -204 40 -204 121c0 78 57 118 187 131l209 21v-10l-209 -21c-122 -12 -177 -50 -177 -121
c0 -74 64 -111 194 -111c76 0 143 20 192 55v-12z" />
    <glyph glyph-name="atilde" unicode="&#xe3;" horiz-adv-x="716" 
d="M430 598c-78 0 -125 37 -193 37c-33 0 -67 -8 -102 -25v10c35 17 69 25 102 25c69 0 115 -37 193 -37c32 0 68 7 105 20v-10c-37 -13 -73 -20 -105 -20zM290 483c-113 -13 -192 -78 -192 -164v-10h-10v10c0 92 82 161 202 174v-10zM379 493c129 -12 202 -81 202 -194
v-206c0 -52 34 -83 91 -83h44v-10h-43c-64 0 -102 35 -102 93v206c0 108 -68 172 -192 184v10zM482 43c-50 -34 -116 -53 -192 -53c-137 0 -204 40 -204 121c0 78 57 118 187 131l209 21v-10l-209 -21c-122 -12 -177 -50 -177 -121c0 -74 64 -111 194 -111
c76 0 143 20 192 55v-12z" />
    <glyph glyph-name="ae" unicode="&#xe6;" horiz-adv-x="1098" 
d="M98 319v-10h-10v10c0 93 76 161 192 174v-11c-106 -12 -182 -76 -182 -163zM844 491c116 -17 191 -106 191 -233v-11h-484v-16c0 -127 78 -211 204 -227v-10c-132 16 -214 104 -214 237v68c0 105 -62 170 -172 183v10c107 -12 172 -72 181 -169c23 95 97 157 205 169v-10
c-125 -15 -203 -100 -204 -225h474v1c0 122 -70 207 -181 223v10zM290 0c77 0 137 18 200 66l3 -10c-66 -51 -126 -66 -203 -66c-137 0 -204 40 -204 121c0 77 57 116 187 126l179 14v-10l-179 -14c-123 -10 -177 -44 -177 -116c0 -74 64 -111 194 -111zM844 4
c108 14 181 82 181 173h10c0 -97 -77 -168 -191 -183v10z" />
    <glyph glyph-name="aeacute" unicode="&#x1fd;" horiz-adv-x="1098" 
d="M749 680v-11l-400 -90v11zM98 319v-10h-10v10c0 93 76 161 192 174v-11c-106 -12 -182 -76 -182 -163zM844 491c116 -17 191 -106 191 -233v-11h-484v-16c0 -127 78 -211 204 -227v-10c-132 16 -214 104 -214 237v68c0 105 -62 170 -172 183v10c107 -12 172 -72 181 -169
c23 95 97 157 205 169v-10c-125 -15 -203 -100 -204 -225h474v1c0 122 -70 207 -181 223v10zM290 0c77 0 137 18 200 66l3 -10c-66 -51 -126 -66 -203 -66c-137 0 -204 40 -204 121c0 77 57 116 187 126l179 14v-10l-179 -14c-123 -10 -177 -44 -177 -116
c0 -74 64 -111 194 -111zM844 4c108 14 181 82 181 173h10c0 -97 -77 -168 -191 -183v10z" />
    <glyph glyph-name="cacute" unicode="&#x107;" horiz-adv-x="670" 
d="M132 579v11l400 90v-11zM301 483c-140 -15 -228 -100 -228 -228v-24c0 -128 87 -213 228 -227v-11c-146 15 -238 105 -238 238v24c0 133 92 223 238 238v-10zM390 493c127 -14 220 -90 220 -188v-7h-10v7c0 93 -88 165 -210 178v10zM390 4c122 13 210 85 210 176v7h10v-7
c0 -96 -93 -173 -220 -187v11z" />
    <glyph glyph-name="ccaron" unicode="&#x10d;" horiz-adv-x="670" 
d="M332 579l-200 89v12l200 -89l200 89v-12zM301 483c-140 -15 -228 -100 -228 -228v-24c0 -128 87 -213 228 -227v-11c-146 15 -238 105 -238 238v24c0 133 92 223 238 238v-10zM390 493c127 -14 220 -90 220 -188v-7h-10v7c0 93 -88 165 -210 178v10zM390 4
c122 13 210 85 210 176v7h10v-7c0 -96 -93 -173 -220 -187v11z" />
    <glyph glyph-name="ccedilla" unicode="&#xe7;" horiz-adv-x="670" 
d="M301 483c-140 -15 -228 -100 -228 -228v-24c0 -128 87 -213 228 -227v-11c-146 15 -238 105 -238 238v24c0 133 92 223 238 238v-10zM390 493c127 -14 220 -90 220 -188v-7h-10v7c0 93 -88 165 -210 178v10zM390 4c122 13 210 85 210 176v7h10v-7
c0 -96 -93 -173 -220 -187v11zM274 -199l51 141h10l-51 -141h-10z" />
    <glyph glyph-name="ccircumflex" unicode="&#x109;" horiz-adv-x="670" 
d="M132 579v12l200 89l200 -89v-12l-200 89zM301 483c-140 -15 -228 -100 -228 -228v-24c0 -128 87 -213 228 -227v-11c-146 15 -238 105 -238 238v24c0 133 92 223 238 238v-10zM390 493c127 -14 220 -90 220 -188v-7h-10v7c0 93 -88 165 -210 178v10zM390 4
c122 13 210 85 210 176v7h10v-7c0 -96 -93 -173 -220 -187v11z" />
    <glyph glyph-name="cdotaccent" unicode="&#x10b;" horiz-adv-x="670" 
d="M332 604c-9 0 -17 8 -17 17c0 10 8 17 17 17c10 0 17 -7 17 -17c0 -9 -7 -17 -17 -17zM301 483c-140 -15 -228 -100 -228 -228v-24c0 -128 87 -213 228 -227v-11c-146 15 -238 105 -238 238v24c0 133 92 223 238 238v-10zM390 493c127 -14 220 -90 220 -188v-7h-10v7
c0 93 -88 165 -210 178v10zM390 4c122 13 210 85 210 176v7h10v-7c0 -96 -93 -173 -220 -187v11z" />
    <glyph glyph-name="eth" unicode="&#xf0;" horiz-adv-x="684" 
d="M337 648l286 50v-10l-544 -96v10l238 42l-139 53v3h24zM476 572c103 -63 140 -132 140 -230v-115c0 -130 -89 -218 -230 -234v11c135 14 220 99 220 223v115c0 95 -36 165 -145 227zM347 466c-174 0 -274 -80 -274 -218v-31c0 -122 84 -201 224 -214v-10
c-147 13 -234 96 -234 224v31c0 144 105 228 284 228c63 0 124 -18 170 -50v-12c-45 33 -106 52 -170 52z" />
    <glyph glyph-name="dcaron" unicode="&#x10f;" horiz-adv-x="920" 
d="M604 0h-10v696h10v-696zM795 520l37 176h12l-39 -176h-10zM505 449v-12c-43 31 -100 49 -161 49c-167 0 -271 -88 -271 -231v-24c0 -143 104 -231 271 -231c61 0 118 18 161 50v-12c-44 -31 -101 -48 -161 -48c-173 0 -281 93 -281 241v24c0 148 108 241 281 241
c60 0 117 -17 161 -47z" />
    <glyph glyph-name="dcroat" unicode="&#x111;" horiz-adv-x="736" 
d="M604 631h132v-10h-409v10h267v65h10v-65zM594 0v532h10v-532h-10zM63 255c0 151 105 241 282 241c60 0 116 -18 160 -48v-13c-43 33 -100 51 -160 51c-170 0 -272 -87 -272 -231v-24c0 -144 102 -231 272 -231c61 0 117 19 160 50v-11c-44 -31 -100 -49 -160 -49
c-177 0 -282 90 -282 241v24z" />
    <glyph glyph-name="eacute" unicode="&#xe9;" horiz-adv-x="671" 
d="M537 680v-11l-400 -90v11zM386 493c136 -16 222 -104 222 -235v-18h-535v-9c0 -128 86 -213 224 -227v-11c-144 16 -234 105 -234 238v24c0 133 91 223 234 238v-10c-137 -15 -224 -100 -224 -228v-5h525v8c0 126 -82 210 -212 225v10zM386 3c127 13 212 80 212 174h10
c0 -100 -89 -171 -222 -184v10z" />
    <glyph glyph-name="ebreve" unicode="&#x115;" horiz-adv-x="671" 
d="M537 649c-65 -45 -130 -67 -195 -67c-64 0 -129 21 -205 67v10c74 -45 141 -67 205 -67s126 22 195 67v-10zM386 493c136 -16 222 -104 222 -235v-18h-535v-9c0 -128 86 -213 224 -227v-11c-144 16 -234 105 -234 238v24c0 133 91 223 234 238v-10
c-137 -15 -224 -100 -224 -228v-5h525v8c0 126 -82 210 -212 225v10zM386 3c127 13 212 80 212 174h10c0 -100 -89 -171 -222 -184v10z" />
    <glyph glyph-name="ecaron" unicode="&#x11b;" horiz-adv-x="671" 
d="M537 668l-200 -89l-200 89v12l200 -89l200 89v-12zM386 493c136 -16 222 -104 222 -235v-18h-535v-9c0 -128 86 -213 224 -227v-11c-144 16 -234 105 -234 238v24c0 133 91 223 234 238v-10c-137 -15 -224 -100 -224 -228v-5h525v8c0 126 -82 210 -212 225v10zM386 3
c127 13 212 80 212 174h10c0 -100 -89 -171 -222 -184v10z" />
    <glyph glyph-name="ecircumflex" unicode="&#xea;" horiz-adv-x="671" 
d="M537 579l-200 89l-200 -89v12l200 89l200 -89v-12zM386 493c136 -16 222 -104 222 -235v-18h-535v-9c0 -128 86 -213 224 -227v-11c-144 16 -234 105 -234 238v24c0 133 91 223 234 238v-10c-137 -15 -224 -100 -224 -228v-5h525v8c0 126 -82 210 -212 225v10zM386 3
c127 13 212 80 212 174h10c0 -100 -89 -171 -222 -184v10z" />
    <glyph glyph-name="edieresis" unicode="&#xeb;" horiz-adv-x="671" 
d="M209 604c-9 0 -17 8 -17 17c0 10 8 17 17 17c10 0 17 -7 17 -17c0 -9 -7 -17 -17 -17zM464 604c-9 0 -17 8 -17 17c0 10 8 17 17 17c10 0 17 -7 17 -17c0 -9 -7 -17 -17 -17zM386 493c136 -16 222 -104 222 -235v-18h-535v-9c0 -128 86 -213 224 -227v-11
c-144 16 -234 105 -234 238v24c0 133 91 223 234 238v-10c-137 -15 -224 -100 -224 -228v-5h525v8c0 126 -82 210 -212 225v10zM386 3c127 13 212 80 212 174h10c0 -100 -89 -171 -222 -184v10z" />
    <glyph glyph-name="edotaccent" unicode="&#x117;" horiz-adv-x="671" 
d="M337 604c-9 0 -17 8 -17 17c0 10 8 17 17 17c10 0 17 -7 17 -17c0 -9 -7 -17 -17 -17zM386 493c136 -16 222 -104 222 -235v-18h-535v-9c0 -128 86 -213 224 -227v-11c-144 16 -234 105 -234 238v24c0 133 91 223 234 238v-10c-137 -15 -224 -100 -224 -228v-5h525v8
c0 126 -82 210 -212 225v10zM386 3c127 13 212 80 212 174h10c0 -100 -89 -171 -222 -184v10z" />
    <glyph glyph-name="uni1EB9" unicode="&#x1eb9;" horiz-adv-x="671" 
d="M386 493c136 -16 222 -104 222 -235v-18h-535v-9c0 -128 86 -213 224 -227v-11c-144 16 -234 105 -234 238v24c0 133 91 223 234 238v-10c-137 -15 -224 -100 -224 -228v-5h525v8c0 126 -82 210 -212 225v10zM386 3c127 13 212 80 212 174h10c0 -100 -89 -171 -222 -184
v10zM337 -118c10 0 17 -8 17 -17c0 -10 -7 -17 -17 -17c-9 0 -17 7 -17 17c0 9 8 17 17 17z" />
    <glyph glyph-name="egrave" unicode="&#xe8;" horiz-adv-x="671" 
d="M537 590v-11l-400 90v11zM386 493c136 -16 222 -104 222 -235v-18h-535v-9c0 -128 86 -213 224 -227v-11c-144 16 -234 105 -234 238v24c0 133 91 223 234 238v-10c-137 -15 -224 -100 -224 -228v-5h525v8c0 126 -82 210 -212 225v10zM386 3c127 13 212 80 212 174h10
c0 -100 -89 -171 -222 -184v10z" />
    <glyph glyph-name="emacron" unicode="&#x113;" horiz-adv-x="671" 
d="M537 626v-10h-400v10h400zM386 493c136 -16 222 -104 222 -235v-18h-535v-9c0 -128 86 -213 224 -227v-11c-144 16 -234 105 -234 238v24c0 133 91 223 234 238v-10c-137 -15 -224 -100 -224 -228v-5h525v8c0 126 -82 210 -212 225v10zM386 3c127 13 212 80 212 174h10
c0 -100 -89 -171 -222 -184v10z" />
    <glyph glyph-name="eogonek" unicode="&#x119;" horiz-adv-x="671" 
d="M386 493c136 -16 222 -104 222 -235v-18h-535v-9c0 -132 97 -231 255 -231c28 0 55 4 74 8l-14 -12c-19 -4 -38 -6 -60 -6c-164 0 -265 104 -265 241v24c0 133 91 223 234 238v-10c-137 -15 -224 -100 -224 -228v-5h525v8c0 126 -82 210 -212 225v10zM540 59
c38 31 58 71 58 118h10c0 -47 -18 -89 -54 -119l-133 -110c-38 -31 -53 -47 -53 -69c0 -25 20 -39 54 -39h121v-10h-121c-39 0 -64 19 -64 49c0 24 13 42 58 79z" />
    <glyph glyph-name="uni1EBD" unicode="&#x1ebd;" horiz-adv-x="671" 
d="M432 598c-78 0 -125 37 -193 37c-33 0 -67 -8 -102 -25v10c35 17 69 25 102 25c69 0 115 -37 193 -37c32 0 68 7 105 20v-10c-37 -13 -73 -20 -105 -20zM386 493c136 -16 222 -104 222 -235v-18h-535v-9c0 -128 86 -213 224 -227v-11c-144 16 -234 105 -234 238v24
c0 133 91 223 234 238v-10c-137 -15 -224 -100 -224 -228v-5h525v8c0 126 -82 210 -212 225v10zM386 3c127 13 212 80 212 174h10c0 -100 -89 -171 -222 -184v10z" />
    <glyph glyph-name="uni0259" unicode="&#x259;" horiz-adv-x="671" 
d="M375 493c144 -15 233 -105 233 -238v-24c0 -133 -90 -222 -233 -238v11c137 15 223 100 223 227v5h-525v-8c0 -125 82 -209 213 -224v-11c-136 16 -223 105 -223 235v18h535v9c0 128 -86 213 -223 228v10zM286 483c-128 -12 -213 -79 -213 -174h-10c0 101 89 172 223 184
v-10z" />
    <glyph glyph-name="uni01F5" unicode="&#x1f5;" horiz-adv-x="709" 
d="M144 579v11l400 90v-11zM504 60c-46 -31 -106 -50 -168 -50c-172 0 -274 86 -274 231v24c0 145 102 231 274 231c62 0 122 -18 168 -50v-12c-45 33 -106 52 -168 52c-166 0 -264 -82 -264 -221v-24c0 -139 98 -221 264 -221c62 0 123 20 168 52v-12zM380 -168
c135 12 213 78 213 184v470h10v-470c0 -111 -83 -181 -223 -194v10zM291 -178c-139 11 -228 78 -228 174v10h10v-10c0 -90 85 -153 218 -164v-10z" />
    <glyph glyph-name="gbreve" unicode="&#x11f;" horiz-adv-x="709" 
d="M349 582c-64 0 -129 21 -205 67v10c74 -45 141 -67 205 -67s126 22 195 67v-10c-65 -45 -130 -67 -195 -67zM504 60c-46 -31 -106 -50 -168 -50c-172 0 -274 86 -274 231v24c0 145 102 231 274 231c62 0 122 -18 168 -50v-12c-45 33 -106 52 -168 52
c-166 0 -264 -82 -264 -221v-24c0 -139 98 -221 264 -221c62 0 123 20 168 52v-12zM380 -168c135 12 213 78 213 184v470h10v-470c0 -111 -83 -181 -223 -194v10zM291 -178c-139 11 -228 78 -228 174v10h10v-10c0 -90 85 -153 218 -164v-10z" />
    <glyph glyph-name="gcaron" unicode="&#x1e7;" horiz-adv-x="709" 
d="M344 579l-200 89v12l200 -89l200 89v-12zM504 60c-46 -31 -106 -50 -168 -50c-172 0 -274 86 -274 231v24c0 145 102 231 274 231c62 0 122 -18 168 -50v-12c-45 33 -106 52 -168 52c-166 0 -264 -82 -264 -221v-24c0 -139 98 -221 264 -221c62 0 123 20 168 52v-12z
M380 -168c135 12 213 78 213 184v470h10v-470c0 -111 -83 -181 -223 -194v10zM291 -178c-139 11 -228 78 -228 174v10h10v-10c0 -90 85 -153 218 -164v-10z" />
    <glyph glyph-name="gcircumflex" unicode="&#x11d;" horiz-adv-x="709" 
d="M144 579v12l200 89l200 -89v-12l-200 89zM504 60c-46 -31 -106 -50 -168 -50c-172 0 -274 86 -274 231v24c0 145 102 231 274 231c62 0 122 -18 168 -50v-12c-45 33 -106 52 -168 52c-166 0 -264 -82 -264 -221v-24c0 -139 98 -221 264 -221c62 0 123 20 168 52v-12z
M380 -168c135 12 213 78 213 184v470h10v-470c0 -111 -83 -181 -223 -194v10zM291 -178c-139 11 -228 78 -228 174v10h10v-10c0 -90 85 -153 218 -164v-10z" />
    <glyph glyph-name="uni0123" unicode="&#x123;" horiz-adv-x="709" 
d="M323 559l51 141h10l-51 -141h-10zM504 60c-46 -31 -106 -50 -168 -50c-172 0 -274 86 -274 231v24c0 145 102 231 274 231c62 0 122 -18 168 -50v-12c-45 33 -106 52 -168 52c-166 0 -264 -82 -264 -221v-24c0 -139 98 -221 264 -221c62 0 123 20 168 52v-12zM380 -168
c135 12 213 78 213 184v470h10v-470c0 -111 -83 -181 -223 -194v10zM291 -178c-139 11 -228 78 -228 174v10h10v-10c0 -90 85 -153 218 -164v-10z" />
    <glyph glyph-name="gdotaccent" unicode="&#x121;" horiz-adv-x="709" 
d="M344 604c-9 0 -17 8 -17 17c0 10 8 17 17 17c10 0 17 -7 17 -17c0 -9 -7 -17 -17 -17zM504 60c-46 -31 -106 -50 -168 -50c-172 0 -274 86 -274 231v24c0 145 102 231 274 231c62 0 122 -18 168 -50v-12c-45 33 -106 52 -168 52c-166 0 -264 -82 -264 -221v-24
c0 -139 98 -221 264 -221c62 0 123 20 168 52v-12zM380 -168c135 12 213 78 213 184v470h10v-470c0 -111 -83 -181 -223 -194v10zM291 -178c-139 11 -228 78 -228 174v10h10v-10c0 -90 85 -153 218 -164v-10z" />
    <glyph glyph-name="hbar" unicode="&#x127;" horiz-adv-x="747" 
d="M405 631v-10h-405v10h132v65h10v-65h263zM132 0v532h10v-532h-10zM387 496c163 0 252 -82 252 -233v-263h-10v263c0 145 -86 223 -242 223c-58 0 -114 -19 -156 -50v12c43 30 99 48 156 48z" />
    <glyph glyph-name="hcircumflex" unicode="&#x125;" horiz-adv-x="711" 
d="M-89 759v12l200 89l200 -89v-12l-200 89zM106 0v696h10v-696h-10zM205 449c43 30 99 47 156 47c164 0 252 -81 252 -233v-263h-10v263c0 145 -84 223 -242 223c-59 0 -114 -18 -156 -48v11z" />
    <glyph glyph-name="dotlessi" unicode="&#x131;" horiz-adv-x="286" 
d="M138 0v486h10v-486h-10z" />
    <glyph glyph-name="iacute" unicode="&#xed;" horiz-adv-x="286" 
d="M3 597v11l280 54v-11zM138 0v486h10v-486h-10z" />
    <glyph glyph-name="ibreve" unicode="&#x12d;" horiz-adv-x="286" 
d="M147 582c-56 0 -101 20 -144 65v12c42 -45 89 -67 144 -67c54 0 98 22 136 67v-12c-34 -43 -80 -65 -136 -65zM138 0v486h10v-486h-10z" />
    <glyph glyph-name="icircumflex" unicode="&#xee;" horiz-adv-x="286" 
d="M3 597v11l140 62l140 -62v-11l-140 62zM138 0v486h10v-486h-10z" />
    <glyph glyph-name="idieresis" unicode="&#xef;" horiz-adv-x="286" 
d="M45 604c-9 0 -17 8 -17 17c0 10 8 17 17 17c10 0 17 -7 17 -17c0 -9 -7 -17 -17 -17zM240 604c-9 0 -17 8 -17 17c0 10 8 17 17 17c10 0 17 -7 17 -17c0 -9 -7 -17 -17 -17zM138 0v486h10v-486h-10z" />
    <glyph glyph-name="i.loclTRK" horiz-adv-x="286" 
d="M143 604c-9 0 -17 8 -17 17c0 10 8 17 17 17c10 0 17 -7 17 -17c0 -9 -7 -17 -17 -17zM138 0v486h10v-486h-10z" />
    <glyph glyph-name="uni1ECB" unicode="&#x1ecb;" horiz-adv-x="286" 
d="M143 604c-9 0 -17 8 -17 17c0 10 8 17 17 17c10 0 17 -7 17 -17c0 -9 -7 -17 -17 -17zM138 0v486h10v-486h-10zM143 -152c-9 0 -17 7 -17 17c0 9 8 17 17 17c10 0 17 -8 17 -17c0 -10 -7 -17 -17 -17z" />
    <glyph glyph-name="igrave" unicode="&#xec;" horiz-adv-x="286" 
d="M282 597l-280 54v11l280 -54v-11zM138 0v486h10v-486h-10z" />
    <glyph glyph-name="ij" unicode="&#x133;" horiz-adv-x="572" 
d="M143 604c-9 0 -17 8 -17 17c0 10 8 17 17 17c10 0 17 -7 17 -17c0 -9 -7 -17 -17 -17zM429 604c-9 0 -17 8 -17 17c0 10 8 17 17 17c10 0 17 -7 17 -17c0 -9 -7 -17 -17 -17zM138 0v486h10v-486h-10zM180 -160h123c81 0 121 44 121 130v516h10v-516
c0 -92 -44 -140 -131 -140h-123v10z" />
    <glyph glyph-name="imacron" unicode="&#x12b;" horiz-adv-x="286" 
d="M3 616v10h280v-10h-280zM138 0v486h10v-486h-10z" />
    <glyph glyph-name="iogonek" unicode="&#x12f;" horiz-adv-x="286" 
d="M143 638c10 0 17 -7 17 -17c0 -9 -7 -17 -17 -17c-9 0 -17 8 -17 17c0 10 8 17 17 17zM138 7v479h10v-486l-122 -59c-38 -18 -53 -36 -53 -62c0 -25 20 -39 54 -39h121v-10h-121c-39 0 -64 19 -64 49c0 29 17 50 58 70z" />
    <glyph glyph-name="itilde" unicode="&#x129;" horiz-adv-x="286" 
d="M210 598c-57 0 -88 37 -136 37c-24 0 -48 -8 -71 -23v10c22 15 46 23 71 23c52 0 81 -37 136 -37c22 0 47 6 73 18v-10c-25 -12 -50 -18 -73 -18zM138 0v486h10v-486h-10z" />
    <glyph glyph-name="uni0237" unicode="&#x237;" horiz-adv-x="286" 
d="M-106 -160h123c81 0 121 44 121 130v516h10v-516c0 -92 -44 -140 -131 -140h-123v10z" />
    <glyph glyph-name="jcircumflex" unicode="&#x135;" horiz-adv-x="286" 
d="M3 597v11l140 62l140 -62v-11l-140 62zM-106 -160h123c81 0 121 44 121 130v516h10v-516c0 -92 -44 -140 -131 -140h-123v10z" />
    <glyph glyph-name="uni0137" unicode="&#x137;" horiz-adv-x="681" 
d="M106 0v696h10v-696h-10zM205 231l397 255h13v-3l-410 -263v11zM367 219l263 -216v-3h-13l-259 213zM260 -199l51 141h10l-51 -141h-10z" />
    <glyph glyph-name="lacute" unicode="&#x13a;" horiz-adv-x="319" 
d="M3 777v11l280 54v-11zM251 0c-80 0 -113 31 -113 106v590h10v-590c0 -69 29 -96 103 -96h42v-10h-42z" />
    <glyph glyph-name="lcaron" unicode="&#x13e;" horiz-adv-x="509" 
d="M251 0c-80 0 -113 31 -113 106v590h10v-590c0 -69 29 -96 103 -96h42v-10h-42zM339 520l37 176h12l-39 -176h-10z" />
    <glyph glyph-name="uni013C" unicode="&#x13c;" horiz-adv-x="319" 
d="M251 0c-80 0 -113 31 -113 106v590h10v-590c0 -69 29 -96 103 -96h42v-10h-42zM193 -199l51 141h10l-51 -141h-10z" />
    <glyph glyph-name="ldot" unicode="&#x140;" horiz-adv-x="407" 
d="M251 0c-80 0 -113 31 -113 106v590h10v-590c0 -69 29 -96 103 -96h42v-10h-42zM347 266c-9 0 -17 8 -17 17c0 10 8 17 17 17c10 0 17 -7 17 -17c0 -9 -7 -17 -17 -17z" />
    <glyph glyph-name="lslash" unicode="&#x142;" horiz-adv-x="398" 
d="M160 376l175 40v-10l-317 -72v10l132 30v322h10v-320zM160 106c0 -69 29 -96 103 -96h42v-10h-42c-80 0 -113 31 -113 106v169l10 3v-172z" />
    <glyph glyph-name="nacute" unicode="&#x144;" horiz-adv-x="711" 
d="M160 579v11l400 90v-11zM205 449c43 30 99 47 156 47c164 0 252 -81 252 -233v-263h-10v263c0 145 -84 223 -242 223c-59 0 -114 -18 -156 -48v11zM106 0v486h10v-486h-10z" />
    <glyph glyph-name="ncaron" unicode="&#x148;" horiz-adv-x="711" 
d="M360 579l-200 89v12l200 -89l200 89v-12zM205 449c43 30 99 47 156 47c164 0 252 -81 252 -233v-263h-10v263c0 145 -84 223 -242 223c-59 0 -114 -18 -156 -48v11zM106 0v486h10v-486h-10z" />
    <glyph glyph-name="uni0146" unicode="&#x146;" horiz-adv-x="711" 
d="M205 449c43 30 99 47 156 47c164 0 252 -81 252 -233v-263h-10v263c0 145 -84 223 -242 223c-59 0 -114 -18 -156 -48v11zM106 0v486h10v-486h-10zM302 -199l51 141h10l-51 -141h-10z" />
    <glyph glyph-name="eng" unicode="&#x14b;" horiz-adv-x="711" 
d="M361 496c164 0 252 -81 252 -233v-200c0 -158 -68 -233 -212 -233h-63v10h63c136 0 202 72 202 223v200c0 145 -84 223 -242 223c-59 0 -114 -18 -156 -48v11c43 30 99 47 156 47zM106 0v486h10v-486h-10z" />
    <glyph glyph-name="ntilde" unicode="&#xf1;" horiz-adv-x="711" 
d="M455 598c-78 0 -125 37 -193 37c-33 0 -67 -8 -102 -25v10c35 17 69 25 102 25c69 0 115 -37 193 -37c32 0 68 7 105 20v-10c-37 -13 -73 -20 -105 -20zM205 449c43 30 99 47 156 47c164 0 252 -81 252 -233v-263h-10v263c0 145 -84 223 -242 223
c-59 0 -114 -18 -156 -48v11zM106 0v486h10v-486h-10z" />
    <glyph glyph-name="oacute" unicode="&#xf3;" horiz-adv-x="685" 
d="M143 579v11l400 90v-11zM300 483c-142 -15 -227 -100 -227 -229v-24c0 -128 88 -212 227 -226v-11c-146 15 -237 103 -237 237v24c0 136 91 224 237 239v-10zM389 493c143 -15 233 -104 233 -239v-24c0 -133 -90 -221 -233 -237v10c137 15 223 100 223 227v24
c0 128 -85 214 -223 229v10z" />
    <glyph glyph-name="obreve" unicode="&#x14f;" horiz-adv-x="685" 
d="M348 582c-64 0 -129 21 -205 67v10c74 -45 141 -67 205 -67s126 22 195 67v-10c-65 -45 -130 -67 -195 -67zM300 483c-142 -15 -227 -100 -227 -229v-24c0 -128 88 -212 227 -226v-11c-146 15 -237 103 -237 237v24c0 136 91 224 237 239v-10zM389 493
c143 -15 233 -104 233 -239v-24c0 -133 -90 -221 -233 -237v10c137 15 223 100 223 227v24c0 128 -85 214 -223 229v10z" />
    <glyph glyph-name="uni01D2" unicode="&#x1d2;" horiz-adv-x="685" 
d="M343 579l-200 89v12l200 -89l200 89v-12zM300 483c-142 -15 -227 -100 -227 -229v-24c0 -128 88 -212 227 -226v-11c-146 15 -237 103 -237 237v24c0 136 91 224 237 239v-10zM389 493c143 -15 233 -104 233 -239v-24c0 -133 -90 -221 -233 -237v10
c137 15 223 100 223 227v24c0 128 -85 214 -223 229v10z" />
    <glyph glyph-name="ocircumflex" unicode="&#xf4;" horiz-adv-x="685" 
d="M143 579v12l200 89l200 -89v-12l-200 89zM300 483c-142 -15 -227 -100 -227 -229v-24c0 -128 88 -212 227 -226v-11c-146 15 -237 103 -237 237v24c0 136 91 224 237 239v-10zM389 493c143 -15 233 -104 233 -239v-24c0 -133 -90 -221 -233 -237v10
c137 15 223 100 223 227v24c0 128 -85 214 -223 229v10z" />
    <glyph glyph-name="odieresis" unicode="&#xf6;" horiz-adv-x="685" 
d="M215 604c-9 0 -17 8 -17 17c0 10 8 17 17 17c10 0 17 -7 17 -17c0 -9 -7 -17 -17 -17zM470 604c-9 0 -17 8 -17 17c0 10 8 17 17 17c10 0 17 -7 17 -17c0 -9 -7 -17 -17 -17zM300 483c-142 -15 -227 -100 -227 -229v-24c0 -128 88 -212 227 -226v-11
c-146 15 -237 103 -237 237v24c0 136 91 224 237 239v-10zM389 493c143 -15 233 -104 233 -239v-24c0 -133 -90 -221 -233 -237v10c137 15 223 100 223 227v24c0 128 -85 214 -223 229v10z" />
    <glyph glyph-name="uni1ECD" unicode="&#x1ecd;" horiz-adv-x="685" 
d="M300 483c-142 -15 -227 -100 -227 -229v-24c0 -128 88 -212 227 -226v-11c-146 15 -237 103 -237 237v24c0 136 91 224 237 239v-10zM389 493c143 -15 233 -104 233 -239v-24c0 -133 -90 -221 -233 -237v10c137 15 223 100 223 227v24c0 128 -85 214 -223 229v10z
M343 -152c-9 0 -17 7 -17 17c0 9 8 17 17 17c10 0 17 -8 17 -17c0 -10 -7 -17 -17 -17z" />
    <glyph glyph-name="ograve" unicode="&#xf2;" horiz-adv-x="685" 
d="M543 579l-400 90v11l400 -90v-11zM300 483c-142 -15 -227 -100 -227 -229v-24c0 -128 88 -212 227 -226v-11c-146 15 -237 103 -237 237v24c0 136 91 224 237 239v-10zM389 493c143 -15 233 -104 233 -239v-24c0 -133 -90 -221 -233 -237v10c137 15 223 100 223 227v24
c0 128 -85 214 -223 229v10z" />
    <glyph glyph-name="ohungarumlaut" unicode="&#x151;" horiz-adv-x="685" 
d="M134 579v12l270 89v-13zM404 579v12l267 89v-13zM300 483c-142 -15 -227 -100 -227 -229v-24c0 -128 88 -212 227 -226v-11c-146 15 -237 103 -237 237v24c0 136 91 224 237 239v-10zM389 493c143 -15 233 -104 233 -239v-24c0 -133 -90 -221 -233 -237v10
c137 15 223 100 223 227v24c0 128 -85 214 -223 229v10z" />
    <glyph glyph-name="omacron" unicode="&#x14d;" horiz-adv-x="685" 
d="M143 616v10h400v-10h-400zM300 483c-142 -15 -227 -100 -227 -229v-24c0 -128 88 -212 227 -226v-11c-146 15 -237 103 -237 237v24c0 136 91 224 237 239v-10zM389 493c143 -15 233 -104 233 -239v-24c0 -133 -90 -221 -233 -237v10c137 15 223 100 223 227v24
c0 128 -85 214 -223 229v10z" />
    <glyph glyph-name="oslash" unicode="&#xf8;" horiz-adv-x="685" 
d="M99 -47v3l477 577h10v-3l-477 -577h-10zM63 254c0 149 108 242 281 242c30 0 58 -3 83 -8l-7 -9c-24 4 -49 7 -76 7c-167 0 -271 -89 -271 -232v-24c0 -48 13 -91 36 -125l-7 -9c-25 37 -39 82 -39 134v24zM622 257v-24c0 -149 -108 -242 -281 -242c-30 0 -58 3 -83 8
l7 9c24 -4 49 -7 76 -7c167 0 271 89 271 232v24c0 48 -13 91 -36 125l7 9c25 -37 39 -82 39 -134z" />
    <glyph glyph-name="oslashacute" unicode="&#x1ff;" horiz-adv-x="685" 
d="M143 579v11l400 90v-11zM99 -47v3l477 577h10v-3l-477 -577h-10zM63 254c0 149 108 242 281 242c30 0 58 -3 83 -8l-7 -9c-24 4 -49 7 -76 7c-167 0 -271 -89 -271 -232v-24c0 -48 13 -91 36 -125l-7 -9c-25 37 -39 82 -39 134v24zM622 257v-24
c0 -149 -108 -242 -281 -242c-30 0 -58 3 -83 8l7 9c24 -4 49 -7 76 -7c167 0 271 89 271 232v24c0 48 -13 91 -36 125l7 9c25 -37 39 -82 39 -134z" />
    <glyph glyph-name="otilde" unicode="&#xf5;" horiz-adv-x="685" 
d="M438 598c-78 0 -125 37 -193 37c-33 0 -67 -8 -102 -25v10c35 17 69 25 102 25c69 0 115 -37 193 -37c32 0 68 7 105 20v-10c-37 -13 -73 -20 -105 -20zM300 483c-142 -15 -227 -100 -227 -229v-24c0 -128 88 -212 227 -226v-11c-146 15 -237 103 -237 237v24
c0 136 91 224 237 239v-10zM389 493c143 -15 233 -104 233 -239v-24c0 -133 -90 -221 -233 -237v10c137 15 223 100 223 227v24c0 128 -85 214 -223 229v10z" />
    <glyph glyph-name="oe" unicode="&#x153;" horiz-adv-x="1114" 
d="M63 254c0 134 82 223 216 238v-10c-128 -15 -206 -100 -206 -228v-24c0 -126 79 -211 206 -226v-10c-133 15 -216 104 -216 236v24zM854 491c118 -17 197 -107 197 -233v-18h-480v-9c0 -128 72 -211 194 -227v-10c-110 14 -182 81 -199 187c-18 -102 -91 -171 -197 -187
v11c118 17 192 102 192 225v24c0 125 -74 211 -192 228v10c106 -15 179 -84 197 -187c17 106 88 174 199 187v-10c-122 -15 -194 -99 -194 -227v-5h470v8c0 122 -73 207 -187 223v10zM854 4c111 14 187 82 187 173h10c0 -97 -80 -169 -197 -183v10z" />
    <glyph glyph-name="thorn" unicode="&#xfe;" horiz-adv-x="710" 
d="M106 -170v866h10v-866h-10zM205 50c43 -32 100 -50 161 -50c167 0 271 88 271 231v24c0 143 -104 231 -271 231c-61 0 -118 -18 -161 -49v12c44 30 101 47 161 47c173 0 281 -93 281 -241v-24c0 -148 -108 -241 -281 -241c-60 0 -117 17 -161 48v12z" />
    <glyph glyph-name="racute" unicode="&#x155;" horiz-adv-x="473" 
d="M108 579v11l400 90v-11zM138 486h10v-486h-10v486zM237 449c33 24 76 37 123 37h103v-10h-103c-47 0 -91 -15 -123 -40v13z" />
    <glyph glyph-name="rcaron" unicode="&#x159;" horiz-adv-x="473" 
d="M308 579l-200 89v12l200 -89l200 89v-12zM138 486h10v-486h-10v486zM237 449c33 24 76 37 123 37h103v-10h-103c-47 0 -91 -15 -123 -40v13z" />
    <glyph glyph-name="uni0157" unicode="&#x157;" horiz-adv-x="473" 
d="M138 486h10v-486h-10v486zM237 449c33 24 76 37 123 37h103v-10h-103c-47 0 -91 -15 -123 -40v13zM85 -199l51 141h10l-51 -141h-10z" />
    <glyph glyph-name="sacute" unicode="&#x15b;" horiz-adv-x="688" 
d="M136 579v11l400 90v-11zM391 2c128 8 207 51 207 118v10c0 64 -61 97 -212 110l-91 8c-133 12 -190 46 -190 112v10c0 70 74 115 196 124v-10c-116 -8 -186 -50 -186 -114v-10c0 -61 52 -92 181 -103l91 -8c156 -14 221 -48 221 -119v-10c0 -72 -83 -120 -217 -128v10z
M391 494c129 -11 217 -68 217 -144v-5h-10v5c0 71 -84 124 -207 134v10zM301 -8c-132 11 -221 66 -221 144v5h10v-5c0 -73 83 -124 211 -134v-10z" />
    <glyph glyph-name="scaron" unicode="&#x161;" horiz-adv-x="688" 
d="M336 579l-200 89v12l200 -89l200 89v-12zM391 2c128 8 207 51 207 118v10c0 64 -61 97 -212 110l-91 8c-133 12 -190 46 -190 112v10c0 70 74 115 196 124v-10c-116 -8 -186 -50 -186 -114v-10c0 -61 52 -92 181 -103l91 -8c156 -14 221 -48 221 -119v-10
c0 -72 -83 -120 -217 -128v10zM391 494c129 -11 217 -68 217 -144v-5h-10v5c0 71 -84 124 -207 134v10zM301 -8c-132 11 -221 66 -221 144v5h10v-5c0 -73 83 -124 211 -134v-10z" />
    <glyph glyph-name="scedilla" unicode="&#x15f;" horiz-adv-x="688" 
d="M391 2c128 8 207 51 207 118v10c0 64 -61 97 -212 110l-91 8c-133 12 -190 46 -190 112v10c0 70 74 115 196 124v-10c-116 -8 -186 -50 -186 -114v-10c0 -61 52 -92 181 -103l91 -8c156 -14 221 -48 221 -119v-10c0 -72 -83 -120 -217 -128v10zM391 494
c129 -11 217 -68 217 -144v-5h-10v5c0 71 -84 124 -207 134v10zM301 -8c-132 11 -221 66 -221 144v5h10v-5c0 -73 83 -124 211 -134v-10zM278 -199l51 141h10l-51 -141h-10z" />
    <glyph glyph-name="scircumflex" unicode="&#x15d;" horiz-adv-x="688" 
d="M136 579v12l200 89l200 -89v-12l-200 89zM391 2c128 8 207 51 207 118v10c0 64 -61 97 -212 110l-91 8c-133 12 -190 46 -190 112v10c0 70 74 115 196 124v-10c-116 -8 -186 -50 -186 -114v-10c0 -61 52 -92 181 -103l91 -8c156 -14 221 -48 221 -119v-10
c0 -72 -83 -120 -217 -128v10zM391 494c129 -11 217 -68 217 -144v-5h-10v5c0 71 -84 124 -207 134v10zM301 -8c-132 11 -221 66 -221 144v5h10v-5c0 -73 83 -124 211 -134v-10z" />
    <glyph glyph-name="uni0219" unicode="&#x219;" horiz-adv-x="688" 
d="M391 2c128 8 207 51 207 118v10c0 64 -61 97 -212 110l-91 8c-133 12 -190 46 -190 112v10c0 70 74 115 196 124v-10c-116 -8 -186 -50 -186 -114v-10c0 -61 52 -92 181 -103l91 -8c156 -14 221 -48 221 -119v-10c0 -72 -83 -120 -217 -128v10zM391 494
c129 -11 217 -68 217 -144v-5h-10v5c0 71 -84 124 -207 134v10zM301 -8c-132 11 -221 66 -221 144v5h10v-5c0 -73 83 -124 211 -134v-10zM278 -199l51 141h10l-51 -141h-10z" />
    <glyph glyph-name="uni1E63" unicode="&#x1e63;" horiz-adv-x="688" 
d="M391 2c128 8 207 51 207 118v10c0 64 -61 97 -212 110l-91 8c-133 12 -190 46 -190 112v10c0 70 74 115 196 124v-10c-116 -8 -186 -50 -186 -114v-10c0 -61 52 -92 181 -103l91 -8c156 -14 221 -48 221 -119v-10c0 -72 -83 -120 -217 -128v10zM391 494
c129 -11 217 -68 217 -144v-5h-10v5c0 71 -84 124 -207 134v10zM301 -8c-132 11 -221 66 -221 144v5h10v-5c0 -73 83 -124 211 -134v-10zM336 -152c-9 0 -17 7 -17 17c0 9 8 17 17 17c10 0 17 -8 17 -17c0 -10 -7 -17 -17 -17z" />
    <glyph glyph-name="germandbls" unicode="&#xdf;" horiz-adv-x="723" 
d="M481 335c114 -13 177 -69 177 -161v-5c0 -104 -83 -169 -216 -169h-117v10h117c129 0 206 60 206 159v5c0 100 -80 155 -223 155h-88v10h89c115 0 193 64 193 158v22c0 101 -73 164 -201 175v10c135 -11 211 -78 211 -185v-22c0 -83 -58 -145 -148 -162zM329 703v-10
c-133 -12 -213 -83 -213 -192v-501h-10v501c0 115 83 190 223 202z" />
    <glyph glyph-name="tbar" unicode="&#x167;" horiz-adv-x="558" 
d="M249 486h271v-10h-495v10h200c11 0 14 3 14 14v119h10v-133zM249 387v-139h271v-10h-495v10h214v139h10zM249 106c0 -57 42 -96 114 -96h117v-10h-116c-79 0 -125 44 -125 106v43h10v-43z" />
    <glyph glyph-name="tcaron" unicode="&#x165;" horiz-adv-x="570" 
d="M479 740l-39 -176h-10l37 176h12zM239 486h261v-10h-485v10h200c11 0 14 3 14 14v119h10v-133zM239 123c0 -72 42 -113 114 -113h117v-10h-116c-79 0 -125 46 -125 123v264h10v-264z" />
    <glyph glyph-name="uni0163" unicode="&#x163;" horiz-adv-x="520" 
d="M239 486h261v-10h-485v10h200c11 0 14 3 14 14v119h10v-133zM239 123c0 -72 42 -113 114 -113h117v-10h-116c-79 0 -125 46 -125 123v264h10v-264zM300 -199l51 141h10l-51 -141h-10z" />
    <glyph glyph-name="uni021B" unicode="&#x21b;" horiz-adv-x="520" 
d="M239 486h261v-10h-485v10h200c11 0 14 3 14 14v119h10v-133zM239 123c0 -72 42 -113 114 -113h117v-10h-116c-79 0 -125 46 -125 123v264h10v-264zM300 -199l51 141h10l-51 -141h-10z" />
    <glyph glyph-name="uacute" unicode="&#xfa;" horiz-adv-x="711" 
d="M154 579v11l400 90v-11zM506 37c-42 -29 -98 -47 -156 -47c-164 0 -252 81 -252 233v263h10v-263c0 -145 84 -223 242 -223c59 0 115 19 156 49v-12zM605 486v-486h-10v486h10z" />
    <glyph glyph-name="ubreve" unicode="&#x16d;" horiz-adv-x="711" 
d="M359 582c-64 0 -129 21 -205 67v10c74 -45 141 -67 205 -67s126 22 195 67v-10c-65 -45 -130 -67 -195 -67zM506 37c-42 -29 -98 -47 -156 -47c-164 0 -252 81 -252 233v263h10v-263c0 -145 84 -223 242 -223c59 0 115 19 156 49v-12zM605 486v-486h-10v486h10z" />
    <glyph glyph-name="ucircumflex" unicode="&#xfb;" horiz-adv-x="711" 
d="M154 579v12l200 89l200 -89v-12l-200 89zM506 37c-42 -29 -98 -47 -156 -47c-164 0 -252 81 -252 233v263h10v-263c0 -145 84 -223 242 -223c59 0 115 19 156 49v-12zM605 486v-486h-10v486h10z" />
    <glyph glyph-name="udieresis" unicode="&#xfc;" horiz-adv-x="711" 
d="M226 604c-9 0 -17 8 -17 17c0 10 8 17 17 17c10 0 17 -7 17 -17c0 -9 -7 -17 -17 -17zM481 604c-9 0 -17 8 -17 17c0 10 8 17 17 17c10 0 17 -7 17 -17c0 -9 -7 -17 -17 -17zM506 37c-42 -29 -98 -47 -156 -47c-164 0 -252 81 -252 233v263h10v-263
c0 -145 84 -223 242 -223c59 0 115 19 156 49v-12zM605 486v-486h-10v486h10z" />
    <glyph glyph-name="uni1EE5" unicode="&#x1ee5;" horiz-adv-x="711" 
d="M506 37c-42 -29 -98 -47 -156 -47c-164 0 -252 81 -252 233v263h10v-263c0 -145 84 -223 242 -223c59 0 115 19 156 49v-12zM605 486v-486h-10v486h10zM350 -152c-9 0 -17 7 -17 17c0 9 8 17 17 17c10 0 17 -8 17 -17c0 -10 -7 -17 -17 -17z" />
    <glyph glyph-name="ugrave" unicode="&#xf9;" horiz-adv-x="711" 
d="M554 579l-400 90v11l400 -90v-11zM506 37c-42 -29 -98 -47 -156 -47c-164 0 -252 81 -252 233v263h10v-263c0 -145 84 -223 242 -223c59 0 115 19 156 49v-12zM605 486v-486h-10v486h10z" />
    <glyph glyph-name="uhungarumlaut" unicode="&#x171;" horiz-adv-x="711" 
d="M145 579v12l270 89v-13zM415 579v12l267 89v-13zM506 37c-42 -29 -98 -47 -156 -47c-164 0 -252 81 -252 233v263h10v-263c0 -145 84 -223 242 -223c59 0 115 19 156 49v-12zM605 486v-486h-10v486h10z" />
    <glyph glyph-name="umacron" unicode="&#x16b;" horiz-adv-x="711" 
d="M154 616v10h400v-10h-400zM506 37c-42 -29 -98 -47 -156 -47c-164 0 -252 81 -252 233v263h10v-263c0 -145 84 -223 242 -223c59 0 115 19 156 49v-12zM605 486v-486h-10v486h10z" />
    <glyph glyph-name="uogonek" unicode="&#x173;" horiz-adv-x="711" 
d="M506 49v-12c-42 -29 -98 -47 -156 -47c-164 0 -252 81 -252 233v263h10v-263c0 -145 84 -223 242 -223c59 0 115 19 156 49zM483 -59c-38 -18 -53 -36 -53 -62c0 -25 20 -39 54 -39h121v-10h-121c-39 0 -64 19 -64 49c0 29 17 50 58 70l117 58v479h10v-486z" />
    <glyph glyph-name="uring" unicode="&#x16f;" horiz-adv-x="711" 
d="M322 553c-57 9 -88 41 -88 91s32 82 88 91v-10c-50 -9 -78 -37 -78 -81s28 -72 78 -80v-11zM387 553v11c49 7 75 36 75 80c0 45 -26 73 -75 81v10c55 -9 86 -41 86 -91c0 -51 -30 -83 -86 -91zM506 37c-42 -29 -98 -47 -156 -47c-164 0 -252 81 -252 233v263h10v-263
c0 -145 84 -223 242 -223c59 0 115 19 156 49v-12zM605 486v-486h-10v486h10z" />
    <glyph glyph-name="utilde" unicode="&#x169;" horiz-adv-x="711" 
d="M449 598c-78 0 -125 37 -193 37c-33 0 -67 -8 -102 -25v10c35 17 69 25 102 25c69 0 115 -37 193 -37c32 0 68 7 105 20v-10c-37 -13 -73 -20 -105 -20zM506 37c-42 -29 -98 -47 -156 -47c-164 0 -252 81 -252 233v263h10v-263c0 -145 84 -223 242 -223
c59 0 115 19 156 49v-12zM605 486v-486h-10v486h10z" />
    <glyph glyph-name="wacute" unicode="&#x1e83;" horiz-adv-x="1067" 
d="M334 579v11l400 90v-11zM314 0h-12l-232 483v3h9zM765 0h-12l-219 473l-171 -369l-6 12l172 370h9zM810 115l178 371h9v-3l-182 -379z" />
    <glyph glyph-name="wcircumflex" unicode="&#x175;" horiz-adv-x="1067" 
d="M334 579v12l200 89l200 -89v-12l-200 89zM314 0h-12l-232 483v3h9zM765 0h-12l-219 473l-171 -369l-6 12l172 370h9zM810 115l178 371h9v-3l-182 -379z" />
    <glyph glyph-name="wdieresis" unicode="&#x1e85;" horiz-adv-x="1067" 
d="M406 604c-9 0 -17 8 -17 17c0 10 8 17 17 17c10 0 17 -7 17 -17c0 -9 -7 -17 -17 -17zM661 604c-9 0 -17 8 -17 17c0 10 8 17 17 17c10 0 17 -7 17 -17c0 -9 -7 -17 -17 -17zM314 0h-12l-232 483v3h9zM765 0h-12l-219 473l-171 -369l-6 12l172 370h9zM810 115l178 371h9
v-3l-182 -379z" />
    <glyph glyph-name="wgrave" unicode="&#x1e81;" horiz-adv-x="1067" 
d="M734 579l-400 90v11l400 -90v-11zM314 0h-12l-232 483v3h9zM765 0h-12l-219 473l-171 -369l-6 12l172 370h9zM810 115l178 371h9v-3l-182 -379z" />
    <glyph glyph-name="yacute" unicode="&#xfd;" horiz-adv-x="697" 
d="M149 579v11l400 90v-11zM292 88l-222 395v3h9l219 -387zM618 486h9v-3l-315 -561c-37 -65 -66 -92 -159 -92h-55v10h55c79 0 112 19 150 86z" />
    <glyph glyph-name="ycircumflex" unicode="&#x177;" horiz-adv-x="697" 
d="M149 579v12l200 89l200 -89v-12l-200 89zM292 88l-222 395v3h9l219 -387zM618 486h9v-3l-315 -561c-37 -65 -66 -92 -159 -92h-55v10h55c79 0 112 19 150 86z" />
    <glyph glyph-name="ydieresis" unicode="&#xff;" horiz-adv-x="697" 
d="M221 604c-9 0 -17 8 -17 17c0 10 8 17 17 17c10 0 17 -7 17 -17c0 -9 -7 -17 -17 -17zM476 604c-9 0 -17 8 -17 17c0 10 8 17 17 17c10 0 17 -7 17 -17c0 -9 -7 -17 -17 -17zM292 88l-222 395v3h9l219 -387zM618 486h9v-3l-315 -561c-37 -65 -66 -92 -159 -92h-55v10h55
c79 0 112 19 150 86z" />
    <glyph glyph-name="ygrave" unicode="&#x1ef3;" horiz-adv-x="697" 
d="M549 579l-400 90v11l400 -90v-11zM292 88l-222 395v3h9l219 -387zM618 486h9v-3l-315 -561c-37 -65 -66 -92 -159 -92h-55v10h55c79 0 112 19 150 86z" />
    <glyph glyph-name="uni0233" unicode="&#x233;" horiz-adv-x="697" 
d="M149 616v10h400v-10h-400zM292 88l-222 395v3h9l219 -387zM618 486h9v-3l-315 -561c-37 -65 -66 -92 -159 -92h-55v10h55c79 0 112 19 150 86z" />
    <glyph glyph-name="uni1EF9" unicode="&#x1ef9;" horiz-adv-x="697" 
d="M444 598c-78 0 -125 37 -193 37c-33 0 -67 -8 -102 -25v10c35 17 69 25 102 25c69 0 115 -37 193 -37c32 0 68 7 105 20v-10c-37 -13 -73 -20 -105 -20zM292 88l-222 395v3h9l219 -387zM618 486h9v-3l-315 -561c-37 -65 -66 -92 -159 -92h-55v10h55c79 0 112 19 150 86z
" />
    <glyph glyph-name="zacute" unicode="&#x17a;" horiz-adv-x="642" 
d="M124 579v11l400 90v-11zM433 476h-362v10h372zM165 99l407 387h4v-10l-397 -377h-14zM576 10v-10h-505v10h505z" />
    <glyph glyph-name="zcaron" unicode="&#x17e;" horiz-adv-x="642" 
d="M324 579l-200 89v12l200 -89l200 89v-12zM433 476h-362v10h372zM165 99l407 387h4v-10l-397 -377h-14zM576 10v-10h-505v10h505z" />
    <glyph glyph-name="zdotaccent" unicode="&#x17c;" horiz-adv-x="642" 
d="M324 604c-9 0 -17 8 -17 17c0 10 8 17 17 17c10 0 17 -7 17 -17c0 -9 -7 -17 -17 -17zM433 476h-362v10h372zM165 99l407 387h4v-10l-397 -377h-14zM576 10v-10h-505v10h505z" />
    <glyph glyph-name="r.001" horiz-adv-x="473" 
d="M138 486h10v-486h-10v486zM237 449c33 24 76 37 123 37h103v-10h-103c-47 0 -91 -15 -123 -40v13z" />
    <glyph glyph-name="iacute_j.loclNLD" horiz-adv-x="572" 
d="M283 651l-280 -54v11l280 54v-11zM289 608l280 54v-11l-280 -54v11zM138 0v486h10v-486h-10zM180 -160h123c81 0 121 44 121 130v516h10v-516c0 -92 -44 -140 -131 -140h-123v10z" />
    <glyph glyph-name="a.ss05" horiz-adv-x="693" 
d="M290 483c-114 -13 -192 -77 -192 -164v-10h-10v10c0 92 82 161 202 174v-10zM379 493c136 -12 216 -85 216 -198v-295h-10v295c0 108 -76 176 -206 188v10zM496 254l-223 -22c-123 -12 -177 -49 -177 -121c0 -74 68 -111 204 -111c79 0 147 19 196 53v-13
c-49 -33 -115 -50 -196 -50c-144 0 -214 40 -214 121c0 78 57 118 187 131l223 22v-10z" />
    <glyph glyph-name="aacute.ss05" horiz-adv-x="693" 
d="M135 579v11l400 90v-11zM290 483c-114 -13 -192 -77 -192 -164v-10h-10v10c0 92 82 161 202 174v-10zM379 493c136 -12 216 -85 216 -198v-295h-10v295c0 108 -76 176 -206 188v10zM496 254l-223 -22c-123 -12 -177 -49 -177 -121c0 -74 68 -111 204 -111
c79 0 147 19 196 53v-13c-49 -33 -115 -50 -196 -50c-144 0 -214 40 -214 121c0 78 57 118 187 131l223 22v-10z" />
    <glyph glyph-name="abreve.ss05" horiz-adv-x="693" 
d="M340 582c-64 0 -129 21 -205 67v10c74 -45 141 -67 205 -67s126 22 195 67v-10c-65 -45 -130 -67 -195 -67zM290 483c-114 -13 -192 -77 -192 -164v-10h-10v10c0 92 82 161 202 174v-10zM379 493c136 -12 216 -85 216 -198v-295h-10v295c0 108 -76 176 -206 188v10z
M496 254l-223 -22c-123 -12 -177 -49 -177 -121c0 -74 68 -111 204 -111c79 0 147 19 196 53v-13c-49 -33 -115 -50 -196 -50c-144 0 -214 40 -214 121c0 78 57 118 187 131l223 22v-10z" />
    <glyph glyph-name="uni01CE.ss05" horiz-adv-x="693" 
d="M335 579l-200 89v12l200 -89l200 89v-12zM290 483c-114 -13 -192 -77 -192 -164v-10h-10v10c0 92 82 161 202 174v-10zM379 493c136 -12 216 -85 216 -198v-295h-10v295c0 108 -76 176 -206 188v10zM496 254l-223 -22c-123 -12 -177 -49 -177 -121
c0 -74 68 -111 204 -111c79 0 147 19 196 53v-13c-49 -33 -115 -50 -196 -50c-144 0 -214 40 -214 121c0 78 57 118 187 131l223 22v-10z" />
    <glyph glyph-name="acircumflex.ss05" horiz-adv-x="693" 
d="M135 579v12l200 89l200 -89v-12l-200 89zM290 483c-114 -13 -192 -77 -192 -164v-10h-10v10c0 92 82 161 202 174v-10zM379 493c136 -12 216 -85 216 -198v-295h-10v295c0 108 -76 176 -206 188v10zM496 254l-223 -22c-123 -12 -177 -49 -177 -121
c0 -74 68 -111 204 -111c79 0 147 19 196 53v-13c-49 -33 -115 -50 -196 -50c-144 0 -214 40 -214 121c0 78 57 118 187 131l223 22v-10z" />
    <glyph glyph-name="adieresis.ss05" horiz-adv-x="693" 
d="M207 604c-9 0 -17 8 -17 17c0 10 8 17 17 17c10 0 17 -7 17 -17c0 -9 -7 -17 -17 -17zM462 604c-9 0 -17 8 -17 17c0 10 8 17 17 17c10 0 17 -7 17 -17c0 -9 -7 -17 -17 -17zM290 483c-114 -13 -192 -77 -192 -164v-10h-10v10c0 92 82 161 202 174v-10zM379 493
c136 -12 216 -85 216 -198v-295h-10v295c0 108 -76 176 -206 188v10zM496 254l-223 -22c-123 -12 -177 -49 -177 -121c0 -74 68 -111 204 -111c79 0 147 19 196 53v-13c-49 -33 -115 -50 -196 -50c-144 0 -214 40 -214 121c0 78 57 118 187 131l223 22v-10z" />
    <glyph glyph-name="agrave.ss05" horiz-adv-x="693" 
d="M535 579l-400 90v11l400 -90v-11zM290 483c-114 -13 -192 -77 -192 -164v-10h-10v10c0 92 82 161 202 174v-10zM379 493c136 -12 216 -85 216 -198v-295h-10v295c0 108 -76 176 -206 188v10zM496 254l-223 -22c-123 -12 -177 -49 -177 -121c0 -74 68 -111 204 -111
c79 0 147 19 196 53v-13c-49 -33 -115 -50 -196 -50c-144 0 -214 40 -214 121c0 78 57 118 187 131l223 22v-10z" />
    <glyph glyph-name="amacron.ss05" horiz-adv-x="693" 
d="M135 616v10h400v-10h-400zM290 483c-114 -13 -192 -77 -192 -164v-10h-10v10c0 92 82 161 202 174v-10zM379 493c136 -12 216 -85 216 -198v-295h-10v295c0 108 -76 176 -206 188v10zM496 254l-223 -22c-123 -12 -177 -49 -177 -121c0 -74 68 -111 204 -111
c79 0 147 19 196 53v-13c-49 -33 -115 -50 -196 -50c-144 0 -214 40 -214 121c0 78 57 118 187 131l223 22v-10z" />
    <glyph glyph-name="aogonek.ss05" horiz-adv-x="693" 
d="M98 319v-10h-10v10c0 92 82 161 202 174v-10c-114 -13 -192 -77 -192 -164zM473 -59c-38 -18 -53 -36 -53 -62c0 -25 20 -39 54 -39h121v-10h-121c-39 0 -64 19 -64 49c0 29 17 50 58 70l117 58v288c0 108 -76 176 -206 188v10c136 -12 216 -85 216 -198v-295zM496 53
v-13c-49 -33 -115 -50 -196 -50c-144 0 -214 40 -214 121c0 78 57 118 187 131l223 22v-10l-223 -22c-123 -12 -177 -49 -177 -121c0 -74 68 -111 204 -111c79 0 147 19 196 53z" />
    <glyph glyph-name="aring.ss05" horiz-adv-x="693" 
d="M303 553c-57 9 -88 41 -88 91s32 82 88 91v-10c-50 -9 -78 -37 -78 -81s28 -72 78 -80v-11zM368 553v11c49 7 75 36 75 80c0 45 -26 73 -75 81v10c55 -9 86 -41 86 -91c0 -51 -30 -83 -86 -91zM290 483c-114 -13 -192 -77 -192 -164v-10h-10v10c0 92 82 161 202 174v-10z
M379 493c136 -12 216 -85 216 -198v-295h-10v295c0 108 -76 176 -206 188v10zM496 254l-223 -22c-123 -12 -177 -49 -177 -121c0 -74 68 -111 204 -111c79 0 147 19 196 53v-13c-49 -33 -115 -50 -196 -50c-144 0 -214 40 -214 121c0 78 57 118 187 131l223 22v-10z" />
    <glyph glyph-name="atilde.ss05" horiz-adv-x="693" 
d="M430 598c-78 0 -125 37 -193 37c-33 0 -67 -8 -102 -25v10c35 17 69 25 102 25c69 0 115 -37 193 -37c32 0 68 7 105 20v-10c-37 -13 -73 -20 -105 -20zM290 483c-114 -13 -192 -77 -192 -164v-10h-10v10c0 92 82 161 202 174v-10zM379 493c136 -12 216 -85 216 -198
v-295h-10v295c0 108 -76 176 -206 188v10zM496 254l-223 -22c-123 -12 -177 -49 -177 -121c0 -74 68 -111 204 -111c79 0 147 19 196 53v-13c-49 -33 -115 -50 -196 -50c-144 0 -214 40 -214 121c0 78 57 118 187 131l223 22v-10z" />
    <glyph glyph-name="l.ss06" horiz-adv-x="286" 
d="M138 0v696h10v-696h-10z" />
    <glyph glyph-name="lacute.ss06" horiz-adv-x="286" 
d="M3 777v11l280 54v-11zM138 0v696h10v-696h-10z" />
    <glyph glyph-name="lcaron.ss06" horiz-adv-x="496" 
d="M138 0v696h10v-696h-10zM339 520l37 176h12l-39 -176h-10z" />
    <glyph glyph-name="uni013C.ss06" horiz-adv-x="286" 
d="M138 0v696h10v-696h-10zM85 -199l51 141h10l-51 -141h-10z" />
    <glyph glyph-name="ldot.ss06" horiz-adv-x="407" 
d="M138 0v696h10v-696h-10zM347 266c-9 0 -17 8 -17 17c0 10 8 17 17 17c10 0 17 -7 17 -17c0 -9 -7 -17 -17 -17z" />
    <glyph glyph-name="lslash.ss06" horiz-adv-x="368" 
d="M189 383l161 37v-10l-332 -76v10l161 37v315h10v-313zM179 0v280l10 2v-282h-10z" />
    <glyph glyph-name="fi" unicode="&#xfb01;" horiz-adv-x="786" 
d="M229 563v-77h251v-10h-465v10h204v77c0 88 47 133 125 133h96v-10h-97c-72 0 -114 -41 -114 -123zM643 638c10 0 17 -7 17 -17c0 -9 -7 -17 -17 -17c-9 0 -17 8 -17 17c0 10 8 17 17 17zM638 0v486h10v-486h-10zM219 0v387h10v-387h-10z" />
    <glyph glyph-name="fl" unicode="&#xfb02;" horiz-adv-x="819" 
d="M229 563v-77h251v-10h-465v10h204v77c0 88 47 133 125 133h96v-10h-97c-72 0 -114 -41 -114 -123zM751 10h42v-10h-42c-80 0 -113 31 -113 106v590h10v-590c0 -69 29 -96 103 -96zM219 0v387h10v-387h-10z" />
    <glyph glyph-name="fl.ss06" horiz-adv-x="786" 
d="M229 563v-77h251v-10h-465v10h204v77c0 88 47 133 125 133h96v-10h-97c-72 0 -114 -41 -114 -123zM638 696h10v-696h-10v696zM219 0v387h10v-387h-10z" />
    <glyph glyph-name="ordfeminine" unicode="&#xaa;" horiz-adv-x="606" 
d="M313 661c111 -11 174 -69 174 -163v-170c0 -43 29 -69 77 -69h37v-10h-37c-54 0 -87 30 -87 79v170c0 89 -58 143 -164 153v10zM236 650c-97 -10 -164 -64 -164 -135v-8h-10v8c0 77 71 135 174 145v-10zM405 286c-43 -28 -101 -45 -168 -45c-118 0 -177 34 -177 101
c0 65 49 99 160 110l180 18v-10l-179 -18c-104 -10 -151 -41 -151 -100c0 -60 56 -91 166 -91c66 0 126 18 169 48v-13z" />
    <glyph glyph-name="ordmasculine" unicode="&#xba;" horiz-adv-x="575" 
d="M248 651c-121 -13 -194 -84 -194 -190v-20c0 -104 75 -175 194 -187v-10c-126 12 -204 87 -204 197v20c0 113 78 187 204 200v-10zM325 661c123 -13 200 -88 200 -200v-20c0 -110 -77 -185 -200 -197v10c117 12 190 84 190 187v20c0 106 -72 177 -190 189v11z" />
    <glyph glyph-name="ordfeminine.case" horiz-adv-x="532" 
d="M257 656h11l233 -411v-2h-12zM25 243v2l187 332l6 -11l-99 -175h198l6 -10h-209l-78 -138h-11z" />
    <glyph glyph-name="ordfeminine.ss05" horiz-adv-x="576" 
d="M313 661c117 -11 186 -72 186 -166v-246h-11v246c0 89 -65 145 -175 156v10zM236 650c-97 -10 -164 -63 -164 -135v-8h-10v8c0 76 71 134 174 145v-10zM411 460l-190 -18c-106 -10 -151 -40 -151 -100s59 -91 174 -91c67 0 125 16 167 44v-13c-42 -27 -98 -41 -167 -41
c-122 0 -184 34 -184 101c0 66 48 99 161 110l190 18v-10z" />
    <glyph glyph-name="uni0410" unicode="&#x410;" horiz-adv-x="770" 
d="M379 656h12l343 -653v-3h-11zM36 0v3l294 558l6 -12l-166 -316h331l5 -10h-342l-117 -223h-11z" />
    <glyph glyph-name="uni0411" unicode="&#x411;" horiz-adv-x="785" 
d="M127 0h-10v656h10v-656zM216 656h437v-10h-437v10zM216 346h274c131 0 215 -65 215 -166v-14c0 -101 -84 -166 -215 -166h-274v10h274c126 0 205 60 205 156v14c0 96 -79 156 -205 156h-274v10z" />
    <glyph glyph-name="uni0412" unicode="&#x412;" horiz-adv-x="785" 
d="M117 0v656h10v-656h-10zM529 333c108 -12 172 -69 172 -157v-14c0 -100 -82 -162 -214 -162h-271v10h271c127 0 204 57 204 152v14c0 94 -76 150 -204 150h-271v10h247c127 0 205 58 205 152v14c0 91 -76 144 -204 144h-248v10h248c133 0 214 -58 214 -154v-14
c0 -81 -56 -138 -149 -155z" />
    <glyph glyph-name="uni0413" unicode="&#x413;" horiz-adv-x="627" 
d="M117 0v656h10v-656h-10zM216 646v10h401v-10h-401z" />
    <glyph glyph-name="uni0403" unicode="&#x403;" horiz-adv-x="627" 
d="M162 749v11l400 90v-11zM117 0v656h10v-656h-10zM216 646v10h401v-10h-401z" />
    <glyph glyph-name="uni0490" unicode="&#x490;" horiz-adv-x="627" 
d="M117 646v10h480v133h10v-143h-490zM127 557v-557h-10v557h10z" />
    <glyph glyph-name="uni0414" unicode="&#x414;" horiz-adv-x="867" 
d="M600 656v-10h-387l-9 -403c-2 -105 -29 -184 -68 -233h464v-10h-553v-133h-10v143h87c40 51 68 133 70 233l9 413h397zM699 10h105v-143h-10v133h-105v656h10v-646z" />
    <glyph glyph-name="uni0415" unicode="&#x415;" horiz-adv-x="723" 
d="M127 0h-10v656h10v-656zM216 656h415v-10h-415v10zM216 333h395v-10h-395v10zM216 10h415v-10h-415v10z" />
    <glyph glyph-name="uni0400" unicode="&#x400;" horiz-adv-x="723" 
d="M574 749l-400 90v11l400 -90v-11zM127 0h-10v656h10v-656zM216 656h415v-10h-415v10zM216 333h395v-10h-395v10zM216 10h415v-10h-415v10z" />
    <glyph glyph-name="uni0401" unicode="&#x401;" horiz-adv-x="723" 
d="M246 774c-9 0 -17 8 -17 17c0 10 8 17 17 17c10 0 17 -7 17 -17c0 -9 -7 -17 -17 -17zM501 774c-9 0 -17 8 -17 17c0 10 8 17 17 17c10 0 17 -7 17 -17c0 -9 -7 -17 -17 -17zM127 0h-10v656h10v-656zM216 656h415v-10h-415v10zM216 333h395v-10h-395v10zM216 10h415v-10
h-415v10z" />
    <glyph glyph-name="uni0416" unicode="&#x416;" horiz-adv-x="1257" 
d="M102 656l340 -323h90v-10h-91l-337 -323h-12v3l338 325l-340 325v3h12zM624 0v656h10v-656h-10zM1167 656v-3l-340 -325l338 -325v-3h-12l-337 323h-90v10h90l339 323h12z" />
    <glyph glyph-name="uni0417" unicode="&#x417;" horiz-adv-x="833" 
d="M95 418v-12h-10v12c0 153 102 236 301 247v-10c-193 -11 -291 -90 -291 -237zM582 329c120 -13 185 -65 185 -149v-14c0 -106 -99 -166 -292 -175v11c185 8 282 65 282 164v14c0 92 -85 143 -239 143h-211v10h202c150 0 229 50 229 144v14c0 102 -88 156 -263 164v10
c180 -8 273 -67 273 -174v-14c0 -82 -58 -133 -166 -148zM95 237c0 -151 94 -227 291 -235v-11c-202 9 -301 90 -301 246v14h10v-14z" />
    <glyph glyph-name="uni0418" unicode="&#x418;" horiz-adv-x="819" 
d="M117 0l571 656h14l-571 -656h-14zM127 147l-10 -12v521h10v-509zM692 509l10 12v-521h-9z" />
    <glyph glyph-name="uni0419" unicode="&#x419;" horiz-adv-x="819" 
d="M378 750c-110 5 -168 39 -168 96v2h10v-2c0 -52 53 -81 158 -86v-10zM443 760c104 5 157 34 157 86v2h10v-2c0 -57 -58 -91 -167 -96v10zM127 147l-10 -12v521h10v-509zM117 0l571 656h14l-571 -656h-14zM692 509l10 12v-521h-9z" />
    <glyph glyph-name="uni040D" unicode="&#x40d;" horiz-adv-x="819" 
d="M610 749l-400 90v11l400 -90v-11zM127 147l-10 -12v521h10v-509zM117 0l571 656h14l-571 -656h-14zM692 509l10 12v-521h-9z" />
    <glyph glyph-name="uni041A" unicode="&#x41a;" horiz-adv-x="803" 
d="M117 0v656h10v-656h-10zM713 656v-3l-365 -325l363 -325v-3h-12l-362 323h-121v10h122l363 323h12z" />
    <glyph glyph-name="uni040C" unicode="&#x40c;" horiz-adv-x="803" 
d="M597 850v-11l-400 -90v11zM117 0v656h10v-656h-10zM713 656v-3l-365 -325l363 -325v-3h-12l-362 323h-121v10h122l363 323h12z" />
    <glyph glyph-name="uni041B" unicode="&#x41b;" horiz-adv-x="794" 
d="M578 656v-10h-382l-18 -459c-5 -132 -49 -187 -151 -187h-27v10h27c95 0 136 51 141 177l18 469h392zM667 656h10v-656h-10v656z" />
    <glyph glyph-name="uni041C" unicode="&#x41c;" horiz-adv-x="1029" 
d="M508 0l-391 656h11l386 -645l386 645h12l-392 -656h-12zM117 0v484l10 -17v-467h-10zM902 0v467l10 17v-484h-10z" />
    <glyph glyph-name="uni041D" unicode="&#x41d;" horiz-adv-x="819" 
d="M127 0h-10v656h10v-656zM216 333h476v323h10v-656h-10v323h-476v10z" />
    <glyph glyph-name="uni041E" unicode="&#x41e;" horiz-adv-x="877" 
d="M394 -7c-186 16 -303 139 -303 324v21c0 187 116 309 303 325v-10c-180 -16 -293 -135 -293 -315v-21c0 -179 113 -298 293 -314v-10zM483 3c180 16 292 135 292 314v21c0 180 -112 299 -292 315v10c185 -16 302 -139 302 -325v-21c0 -185 -116 -308 -302 -324v10z" />
    <glyph glyph-name="uni041F" unicode="&#x41f;" horiz-adv-x="799" 
d="M583 646h-456v-646h-10v656h466v-10zM672 656h10v-656h-10v656z" />
    <glyph glyph-name="uni0420" unicode="&#x420;" horiz-adv-x="787" 
d="M127 0h-10v656h10v-656zM219 656h282c133 0 215 -63 215 -164v-14c0 -100 -83 -163 -215 -163h-282v10h282c127 0 205 58 205 153v14c0 96 -77 154 -205 154h-282v10z" />
    <glyph glyph-name="uni0421" unicode="&#x421;" horiz-adv-x="874" 
d="M402 -8c-193 16 -311 137 -311 322v27c0 186 118 307 311 323v-10c-188 -16 -301 -132 -301 -313v-27c0 -180 113 -296 301 -311v-11zM491 663c166 -15 288 -116 288 -245v-12h-10v12c0 124 -118 221 -278 235v10zM491 3c160 15 278 111 278 234v14h10v-14
c0 -128 -122 -229 -288 -244v10z" />
    <glyph glyph-name="uni0422" unicode="&#x422;" horiz-adv-x="691" 
d="M10 646v10h671v-10h-671zM351 557v-557h-10v557h10z" />
    <glyph glyph-name="uni0423" unicode="&#x423;" horiz-adv-x="738" 
d="M349 209l-287 444v3h10l284 -439l-6 -8h-1zM167 0v10h65c81 0 114 17 151 80l334 566h10v-3l-336 -569c-39 -66 -73 -84 -159 -84h-65z" />
    <glyph glyph-name="uni040E" unicode="&#x40e;" horiz-adv-x="738" 
d="M371 750c-110 5 -168 39 -168 96v2h10v-2c0 -52 53 -81 158 -86v-10zM436 760c104 5 157 34 157 86v2h10v-2c0 -57 -58 -91 -167 -96v10zM349 209l-287 444v3h10l284 -439l-6 -8h-1zM167 0v10h65c81 0 114 17 151 80l334 566h10v-3l-336 -569c-39 -66 -73 -84 -159 -84
h-65z" />
    <glyph glyph-name="uni0424" unicode="&#x424;" horiz-adv-x="1096" 
d="M543 -10v676h10v-676h-10zM401 80c-221 0 -330 79 -330 243v10c0 165 109 244 330 244h53v-10h-53c-217 0 -320 -74 -320 -234v-10c0 -158 105 -233 320 -233h53v-10h-53zM642 80v10h53c214 0 320 76 320 233v10c0 159 -104 234 -320 234h-53v10h53
c220 0 330 -80 330 -244v-10c0 -163 -110 -243 -330 -243h-53z" />
    <glyph glyph-name="uni0425" unicode="&#x425;" horiz-adv-x="819" 
d="M729 3v-3h-12l-627 653v3h11zM472 399l247 257h10v-3l-250 -261zM348 257l-246 -257h-12v3l251 261z" />
    <glyph glyph-name="uni0427" unicode="&#x427;" horiz-adv-x="799" 
d="M583 264c-70 -13 -145 -21 -209 -21c-184 0 -277 75 -277 224v189h10v-189c0 -143 89 -214 267 -214c62 0 137 8 209 22v-11zM682 656v-656h-10v656h10z" />
    <glyph glyph-name="uni0426" unicode="&#x426;" horiz-adv-x="850" 
d="M127 656v-646h456v-10h-466v656h10zM682 10h105v-143h-10v133h-105v656h10v-646z" />
    <glyph glyph-name="uni0428" unicode="&#x428;" horiz-adv-x="1179" 
d="M495 0h-378v656h10v-646h368v-10zM963 0h-379v656h10v-646h369v-10zM1052 656h10v-656h-10v656z" />
    <glyph glyph-name="uni0429" unicode="&#x429;" horiz-adv-x="1228" 
d="M127 656v-646h367v-10h-377v656h10zM593 656v-646h368v-10h-378v656h10zM1060 10h105v-143h-10v133h-105v656h10v-646z" />
    <glyph glyph-name="uni040F" unicode="&#x40f;" horiz-adv-x="799" 
d="M127 656v-646h555v-10h-277v-143h-10v143h-278v656h10zM672 656h10v-557h-10v557z" />
    <glyph glyph-name="uni042C" unicode="&#x42c;" horiz-adv-x="776" 
d="M127 0h-10v656h10v-656zM216 359h274c131 0 215 -65 215 -170v-19c0 -105 -84 -170 -215 -170h-274v10h274c126 0 205 60 205 160v19c0 100 -79 160 -205 160h-274v10z" />
    <glyph glyph-name="uni042A" unicode="&#x42a;" horiz-adv-x="937" 
d="M288 656v-10h-278v10h278zM278 0v557h10v-557h-10zM651 359c131 0 215 -65 215 -170v-19c0 -105 -84 -170 -215 -170h-274v10h274c126 0 205 60 205 160v19c0 100 -79 160 -205 160h-274v10h274z" />
    <glyph glyph-name="uni042B" unicode="&#x42b;" horiz-adv-x="1031" 
d="M137 0h-10v656h10v-656zM894 0v656h10v-656h-10zM227 359h283c131 0 215 -65 215 -170v-19c0 -105 -84 -170 -215 -170h-283v10h283c126 0 205 60 205 160v19c0 100 -79 160 -205 160h-283v10z" />
    <glyph glyph-name="uni0409" unicode="&#x409;" horiz-adv-x="1240" 
d="M551 656v-10h-355l-18 -459c-5 -132 -49 -187 -151 -187h-27v10h27c95 0 136 51 141 177l18 469h365zM640 0v656h10v-656h-10zM954 359c131 0 215 -65 215 -170v-19c0 -105 -84 -170 -215 -170h-215v10h215c126 0 205 60 205 160v19c0 100 -79 160 -205 160h-215v10h215z
" />
    <glyph glyph-name="uni040A" unicode="&#x40a;" horiz-adv-x="1276" 
d="M587 333h-460v-333h-10v656h10v-313h460v-10zM686 0h-10v656h10v-656zM775 343h215c132 0 215 -63 215 -163v-19c0 -99 -83 -161 -215 -161h-215v10h215c127 0 205 58 205 151v19c0 95 -78 153 -205 153h-215v10z" />
    <glyph glyph-name="uni0405" unicode="&#x405;" horiz-adv-x="771" 
d="M430 2c162 7 245 60 245 157v10c0 95 -64 138 -229 153l-119 11c-150 14 -221 64 -221 155v10c0 97 85 156 235 166v-10c-144 -8 -225 -64 -225 -156v-10c0 -86 67 -132 211 -145l119 -11c172 -16 239 -62 239 -163v-10c0 -103 -88 -161 -255 -168v11zM430 664
c160 -10 243 -77 243 -197v-10h-10v10c0 115 -79 177 -233 187v10zM341 -8c-168 11 -255 78 -255 197v10h10v-10c0 -114 82 -176 245 -187v-10z" />
    <glyph glyph-name="uni0404" unicode="&#x404;" horiz-adv-x="874" 
d="M481 664c173 -14 298 -115 298 -246v-12h-10v12c0 125 -120 222 -288 236v10zM101 314c0 -178 111 -295 291 -311v-10c-185 16 -301 138 -301 321v27c0 185 116 306 301 322v-10c-179 -16 -291 -133 -291 -312v-8h456v-10h-456v-9zM769 237v14h10v-14
c0 -130 -125 -230 -298 -245v11c167 14 288 109 288 234z" />
    <glyph glyph-name="uni042D" unicode="&#x42d;" horiz-adv-x="874" 
d="M105 418v-12h-10v12c0 131 126 232 299 246v-10c-168 -14 -289 -111 -289 -236zM483 663c185 -16 300 -137 300 -322v-27c0 -183 -115 -305 -300 -321v10c180 16 290 133 290 311v9h-456v10h456v8c0 179 -111 296 -290 312v10zM105 237c0 -125 121 -220 289 -234v-11
c-173 15 -299 115 -299 245v14h10v-14z" />
    <glyph glyph-name="uni0406" unicode="&#x406;" horiz-adv-x="299" 
d="M144 0v656h10v-656h-10z" />
    <glyph glyph-name="uni0407" unicode="&#x407;" horiz-adv-x="299" 
d="M22 774c-9 0 -17 8 -17 17c0 10 8 17 17 17c10 0 17 -7 17 -17c0 -9 -7 -17 -17 -17zM277 774c-9 0 -17 8 -17 17c0 10 8 17 17 17c10 0 17 -7 17 -17c0 -9 -7 -17 -17 -17zM144 0v656h10v-656h-10z" />
    <glyph glyph-name="uni0408" unicode="&#x408;" horiz-adv-x="749" 
d="M250 646v10h392v-10h-392zM401 4c138 15 231 106 231 233v320h10v-320c0 -131 -98 -227 -241 -244v11zM312 -7c-143 16 -237 110 -237 244v58h10v-58c0 -127 90 -218 227 -233v-11z" />
    <glyph glyph-name="uni040B" unicode="&#x40b;" horiz-adv-x="960" 
d="M10 646v10h628v-10h-628zM288 557v-557h-10v557h10zM377 383c70 13 146 20 209 20c184 0 277 -75 277 -224v-179h-10v179c0 143 -89 214 -267 214c-62 0 -136 -7 -209 -21v11z" />
    <glyph glyph-name="uni042E" unicode="&#x42e;" horiz-adv-x="1171" 
d="M395 338c0 186 116 309 298 325v-10c-176 -16 -288 -136 -288 -315v-21c0 -179 112 -297 288 -314v-10c-182 17 -298 139 -298 324v6h-268v-323h-10v656h10v-323h268v5zM782 663c181 -16 297 -140 297 -325v-21c0 -185 -116 -307 -297 -324v10c175 17 287 135 287 314v21
c0 179 -112 299 -287 315v10z" />
    <glyph glyph-name="uni042F" unicode="&#x42f;" horiz-adv-x="806" 
d="M90 482c0 108 84 174 221 174h280v-10h-280c-133 0 -211 -61 -211 -164v-14c0 -102 79 -163 211 -163h279v-10h-167l-320 -295h-11v3l317 292h-98c-137 0 -221 66 -221 173v14zM679 656h10v-656h-10v656z" />
    <glyph glyph-name="uni0402" unicode="&#x402;" horiz-adv-x="944" 
d="M10 646v10h628v-10h-628zM288 557v-557h-10v557h10zM377 383c70 13 145 20 209 20c175 0 277 -72 277 -194v-9c0 -133 -93 -200 -277 -200h-70v10h70c179 0 267 63 267 190v9c0 116 -98 184 -267 184c-63 0 -137 -7 -209 -21v11z" />
    <glyph glyph-name="uni0462" unicode="&#x462;" horiz-adv-x="893" 
d="M737 551v-10h-725v10h251v105h10v-105h464zM263 0v452h10v-452h-10zM636 339c136 0 215 -59 215 -161v-14c0 -103 -79 -164 -215 -164h-274v10h274c131 0 205 56 205 154v14c0 97 -74 151 -205 151h-274v10h274z" />
    <glyph glyph-name="uni0472" unicode="&#x472;" horiz-adv-x="877" 
d="M483 663c185 -16 302 -139 302 -325v-21c0 -185 -116 -308 -302 -324v10c180 16 292 135 292 314v7c-65 -10 -123 -15 -174 -15c-136 0 -214 29 -333 29c-54 0 -106 -7 -167 -20v-1c0 -179 113 -298 293 -314v-10c-186 16 -303 139 -303 324v21c0 187 116 309 303 325
v-10c-180 -16 -293 -135 -293 -315v-10c61 13 113 20 167 20c119 0 197 -29 333 -29c51 0 109 5 174 15v4c0 180 -112 299 -292 315v10z" />
    <glyph glyph-name="uni0474" unicode="&#x474;" horiz-adv-x="793" 
d="M382 0h-13l-333 653v3h11zM414 94l212 464c35 76 61 98 121 98h36v-10h-36c-53 0 -76 -19 -110 -92l-217 -472z" />
    <glyph glyph-name="uni0492" unicode="&#x492;" horiz-adv-x="710" 
d="M160 656v-323h390v-10h-390v-323h-10v323h-132v10h132v323h10zM249 656h451v-10h-451v10z" />
    <glyph glyph-name="uni0494" unicode="&#x494;" horiz-adv-x="790" 
d="M117 0v656h10v-656h-10zM216 646v10h441v-10h-441zM352 -170v10h67c185 0 277 75 277 224v85c0 146 -93 224 -267 224c-63 0 -139 -7 -213 -22v11c72 14 149 21 213 21c180 0 277 -82 277 -234v-85c0 -155 -97 -234 -287 -234h-67z" />
    <glyph glyph-name="uni0496" unicode="&#x496;" horiz-adv-x="1236" 
d="M102 656l339 -323h94v-10h-94l-337 -323h-12v3l338 325l-340 325v3h12zM624 0v656h10v-656h-10zM1087 10h99v-143h-10v133h-94l-267 323h-92v10h93l339 323h12v-3l-341 -326z" />
    <glyph glyph-name="uni0498" unicode="&#x498;" horiz-adv-x="833" 
d="M582 329c120 -13 185 -65 185 -149v-14c0 -113 -114 -174 -333 -176v-133h-10v133h-1c-226 0 -338 82 -338 247v14h10v-14c0 -160 107 -237 328 -237c218 0 334 58 334 166v14c0 92 -85 143 -239 143h-211v10h202c150 0 229 50 229 144v14c0 102 -88 156 -263 164v10
c180 -8 273 -67 273 -174v-14c0 -82 -58 -133 -166 -148zM95 418v-12h-10v12c0 153 102 236 301 247v-10c-193 -11 -291 -90 -291 -237z" />
    <glyph glyph-name="uni049A" unicode="&#x49a;" horiz-adv-x="792" 
d="M117 0v656h10v-656h-10zM640 10h102v-143h-10v133h-97l-298 323h-121v10h121l364 323h12v-3l-366 -326z" />
    <glyph glyph-name="uni049C" unicode="&#x49c;" horiz-adv-x="833" 
d="M127 656v-323h117v-10h-117v-323h-10v656h10zM753 656v-3l-355 -325l353 -325v-3h-12l-351 323v10l353 323h12zM311 139v380h10v-380h-10z" />
    <glyph glyph-name="uni04A0" unicode="&#x4a0;" horiz-adv-x="1034" 
d="M358 656v-656h-10v646h-338v10h348zM944 656v-3l-365 -325l363 -325v-3h-12l-362 323h-121v10h122l363 323h12z" />
    <glyph glyph-name="uni04A2" unicode="&#x4a2;" horiz-adv-x="870" 
d="M117 0v656h10v-656h-10zM702 10h105v-143h-10v133h-105v323h-476v10h476v323h10v-646z" />
    <glyph glyph-name="uni04A4" unicode="&#x4a4;" horiz-adv-x="1040" 
d="M127 0h-10v656h10v-656zM216 333h455v323h359v-10h-349v-646h-10v323h-455v10z" />
    <glyph glyph-name="uni04AA" unicode="&#x4aa;" horiz-adv-x="874" 
d="M769 237v14h10v-14c0 -135 -139 -242 -321 -247v-133h-10v133h-2c-217 0 -355 126 -355 324v27c0 185 118 307 311 323v-10c-188 -16 -301 -133 -301 -313v-27c0 -193 133 -314 345 -314c183 0 323 104 323 237zM491 663c167 -15 288 -117 288 -245v-12h-10v12
c0 123 -116 221 -278 235v10z" />
    <glyph glyph-name="uni04AE" unicode="&#x4ae;" horiz-adv-x="726" 
d="M22 656h10l336 -356v-300h-10v297l-336 356v3zM694 656h10v-3l-275 -288l-6 6z" />
    <glyph glyph-name="uni04B0" unicode="&#x4b0;" horiz-adv-x="726" 
d="M32 656l328 -347h251v-10h-243v-299h-10v297l-2 2h-240v10h231l-325 344v3h10zM694 656h10v-3l-243 -255h-10l-1 1z" />
    <glyph glyph-name="uni04B2" unicode="&#x4b2;" horiz-adv-x="812" 
d="M673 10h89v-143h-10v133h-85l-577 653v3h11zM729 653l-263 -274l-7 7l260 270h10v-3zM90 3l238 247l7 -7l-233 -243h-12v3z" />
    <glyph glyph-name="uni04B6" unicode="&#x4b6;" horiz-adv-x="850" 
d="M107 467c0 -143 89 -214 267 -214c62 0 137 8 209 22v-11c-70 -13 -145 -21 -209 -21c-184 0 -277 75 -277 224v189h10v-189zM682 10h105v-143h-10v133h-105v656h10v-646z" />
    <glyph glyph-name="uni04B8" unicode="&#x4b8;" horiz-adv-x="799" 
d="M107 467c0 -135 72 -203 223 -212v-10c-158 9 -233 81 -233 222v189h10v-189zM672 656h10v-656h-10v281c-64 -18 -136 -30 -203 -33v11c67 3 138 15 203 33v364zM394 109v380h10v-380h-10z" />
    <glyph glyph-name="uni04BA" unicode="&#x4ba;" horiz-adv-x="799" 
d="M117 0v656h10v-656h-10zM216 393c70 13 146 20 209 20c184 0 277 -75 277 -224v-189h-10v189c0 143 -89 214 -267 214c-62 0 -136 -7 -209 -21v11z" />
    <glyph glyph-name="uni04C0" unicode="&#x4c0;" horiz-adv-x="299" 
d="M144 0v656h10v-656h-10z" />
    <glyph glyph-name="uni04C1" unicode="&#x4c1;" horiz-adv-x="1257" 
d="M439 846c0 -52 53 -81 158 -86v-10c-110 5 -168 39 -168 96v2h10v-2zM829 846c0 -57 -58 -91 -167 -96v10c104 5 157 34 157 86v2h10v-2zM102 656l340 -323h90v-10h-91l-337 -323h-12v3l338 325l-340 325v3h12zM624 0v656h10v-656h-10zM1167 656v-3l-340 -325l338 -325
v-3h-12l-337 323h-90v10h90l339 323h12z" />
    <glyph glyph-name="uni04D0" unicode="&#x4d0;" horiz-adv-x="770" 
d="M353 750c-110 5 -168 39 -168 96v2h10v-2c0 -52 53 -81 158 -86v-10zM418 760c104 5 157 34 157 86v2h10v-2c0 -57 -58 -91 -167 -96v10zM379 656h12l343 -653v-3h-11zM36 0v3l294 558l6 -12l-166 -316h331l5 -10h-342l-117 -223h-11z" />
    <glyph glyph-name="uni04D2" unicode="&#x4d2;" horiz-adv-x="770" 
d="M257 774c-9 0 -17 8 -17 17c0 10 8 17 17 17c10 0 17 -7 17 -17c0 -9 -7 -17 -17 -17zM512 774c-9 0 -17 8 -17 17c0 10 8 17 17 17c10 0 17 -7 17 -17c0 -9 -7 -17 -17 -17zM379 656h12l343 -653v-3h-11zM36 0v3l294 558l6 -12l-166 -316h331l5 -10h-342l-117 -223h-11z
" />
    <glyph glyph-name="uni04D4" unicode="&#x4d4;" horiz-adv-x="1072" 
d="M423 656h10l171 -656h-10zM524 656h456v-10h-453zM524 233l1 -10h-359l-119 -223h-11v3l313 586l4 -15l-182 -341h353zM960 333v-10h-349l-3 10h352zM695 0l-3 10h288v-10h-285z" />
    <glyph glyph-name="uni04D6" unicode="&#x4d6;" horiz-adv-x="723" 
d="M342 750c-110 5 -168 39 -168 96v2h10v-2c0 -52 53 -81 158 -86v-10zM407 760c104 5 157 34 157 86v2h10v-2c0 -57 -58 -91 -167 -96v10zM127 0h-10v656h10v-656zM216 656h415v-10h-415v10zM216 333h395v-10h-395v10zM216 10h415v-10h-415v10z" />
    <glyph glyph-name="uni04D8" unicode="&#x4d8;" horiz-adv-x="877" 
d="M394 654c-163 -13 -273 -102 -289 -236h-10c16 141 129 233 299 246v-10zM483 663c185 -16 302 -140 302 -325v-21c0 -185 -117 -308 -302 -325v11c179 16 292 135 292 314v4h-674v-4c0 -179 112 -298 293 -314v-11c-187 17 -303 140 -303 325v14h684v7
c0 179 -112 299 -292 315v10z" />
    <glyph glyph-name="uni04DA" unicode="&#x4da;" horiz-adv-x="877" 
d="M311 774c-9 0 -17 8 -17 17c0 10 8 17 17 17c10 0 17 -7 17 -17c0 -9 -7 -17 -17 -17zM566 774c-9 0 -17 8 -17 17c0 10 8 17 17 17c10 0 17 -7 17 -17c0 -9 -7 -17 -17 -17zM394 654c-163 -13 -273 -102 -289 -236h-10c16 141 129 233 299 246v-10zM483 663
c185 -16 302 -140 302 -325v-21c0 -185 -117 -308 -302 -325v11c179 16 292 135 292 314v4h-674v-4c0 -179 112 -298 293 -314v-11c-187 17 -303 140 -303 325v14h684v7c0 179 -112 299 -292 315v10z" />
    <glyph glyph-name="uni04DC" unicode="&#x4dc;" horiz-adv-x="1257" 
d="M501 774c-9 0 -17 8 -17 17c0 10 8 17 17 17c10 0 17 -7 17 -17c0 -9 -7 -17 -17 -17zM756 774c-9 0 -17 8 -17 17c0 10 8 17 17 17c10 0 17 -7 17 -17c0 -9 -7 -17 -17 -17zM102 656l340 -323h90v-10h-91l-337 -323h-12v3l338 325l-340 325v3h12zM624 0v656h10v-656h-10
zM1167 656v-3l-340 -325l338 -325v-3h-12l-337 323h-90v10h90l339 323h12z" />
    <glyph glyph-name="uni04DE" unicode="&#x4de;" horiz-adv-x="833" 
d="M301 774c-9 0 -17 8 -17 17c0 10 8 17 17 17c10 0 17 -7 17 -17c0 -9 -7 -17 -17 -17zM556 774c-9 0 -17 8 -17 17c0 10 8 17 17 17c10 0 17 -7 17 -17c0 -9 -7 -17 -17 -17zM95 418v-12h-10v12c0 153 102 236 301 247v-10c-193 -11 -291 -90 -291 -237zM582 329
c120 -13 185 -65 185 -149v-14c0 -106 -99 -166 -292 -175v11c185 8 282 65 282 164v14c0 92 -85 143 -239 143h-211v10h202c150 0 229 50 229 144v14c0 102 -88 156 -263 164v10c180 -8 273 -67 273 -174v-14c0 -82 -58 -133 -166 -148zM95 237c0 -151 94 -227 291 -235
v-11c-202 9 -301 90 -301 246v14h10v-14z" />
    <glyph glyph-name="uni04E2" unicode="&#x4e2;" horiz-adv-x="819" 
d="M210 786v10h400v-10h-400zM127 147l-10 -12v521h10v-509zM117 0l571 656h14l-571 -656h-14zM692 509l10 12v-521h-9z" />
    <glyph glyph-name="uni04E4" unicode="&#x4e4;" horiz-adv-x="819" 
d="M282 774c-9 0 -17 8 -17 17c0 10 8 17 17 17c10 0 17 -7 17 -17c0 -9 -7 -17 -17 -17zM537 774c-9 0 -17 8 -17 17c0 10 8 17 17 17c10 0 17 -7 17 -17c0 -9 -7 -17 -17 -17zM127 147l-10 -12v521h10v-509zM117 0l571 656h14l-571 -656h-14zM692 509l10 12v-521h-9z" />
    <glyph glyph-name="uni04E6" unicode="&#x4e6;" horiz-adv-x="877" 
d="M310 774c-9 0 -17 8 -17 17c0 10 8 17 17 17c10 0 17 -7 17 -17c0 -9 -7 -17 -17 -17zM565 774c-9 0 -17 8 -17 17c0 10 8 17 17 17c10 0 17 -7 17 -17c0 -9 -7 -17 -17 -17zM394 -7c-186 16 -303 139 -303 324v21c0 187 116 309 303 325v-10
c-180 -16 -293 -135 -293 -315v-21c0 -179 113 -298 293 -314v-10zM483 3c180 16 292 135 292 314v21c0 180 -112 299 -292 315v10c185 -16 302 -139 302 -325v-21c0 -185 -116 -308 -302 -324v10z" />
    <glyph glyph-name="uni04E8" unicode="&#x4e8;" horiz-adv-x="877" 
d="M483 663c185 -16 302 -139 302 -325v-21c0 -185 -116 -308 -302 -324v10c180 16 292 135 292 314v6h-674v-6c0 -179 113 -298 293 -314v-10c-186 16 -303 139 -303 324v21c0 187 116 309 303 325v-10c-180 -16 -293 -135 -293 -315v-5h674v5c0 180 -112 299 -292 315v10z
" />
    <glyph glyph-name="uni04EE" unicode="&#x4ee;" horiz-adv-x="738" 
d="M203 786v10h400v-10h-400zM349 209l-287 444v3h10l284 -439l-6 -8h-1zM167 0v10h65c81 0 114 17 151 80l334 566h10v-3l-336 -569c-39 -66 -73 -84 -159 -84h-65z" />
    <glyph glyph-name="uni04F0" unicode="&#x4f0;" horiz-adv-x="738" 
d="M275 774c-9 0 -17 8 -17 17c0 10 8 17 17 17c10 0 17 -7 17 -17c0 -9 -7 -17 -17 -17zM530 774c-9 0 -17 8 -17 17c0 10 8 17 17 17c10 0 17 -7 17 -17c0 -9 -7 -17 -17 -17zM349 209l-287 444v3h10l284 -439l-6 -8h-1zM167 0v10h65c81 0 114 17 151 80l334 566h10v-3
l-336 -569c-39 -66 -73 -84 -159 -84h-65z" />
    <glyph glyph-name="uni04F2" unicode="&#x4f2;" horiz-adv-x="738" 
d="M194 749v12l270 89v-13zM464 749v12l267 89v-13zM349 209l-287 444v3h10l284 -439l-6 -8h-1zM167 0v10h65c81 0 114 17 151 80l334 566h10v-3l-336 -569c-39 -66 -73 -84 -159 -84h-65z" />
    <glyph glyph-name="uni04F4" unicode="&#x4f4;" horiz-adv-x="799" 
d="M282 774c-9 0 -17 8 -17 17c0 10 8 17 17 17c10 0 17 -7 17 -17c0 -9 -7 -17 -17 -17zM537 774c-9 0 -17 8 -17 17c0 10 8 17 17 17c10 0 17 -7 17 -17c0 -9 -7 -17 -17 -17zM583 264c-70 -13 -145 -21 -209 -21c-184 0 -277 75 -277 224v189h10v-189
c0 -143 89 -214 267 -214c62 0 137 8 209 22v-11zM682 656v-656h-10v656h10z" />
    <glyph glyph-name="uni04F8" unicode="&#x4f8;" horiz-adv-x="1031" 
d="M388 774c-9 0 -17 8 -17 17c0 10 8 17 17 17c10 0 17 -7 17 -17c0 -9 -7 -17 -17 -17zM643 774c-9 0 -17 8 -17 17c0 10 8 17 17 17c10 0 17 -7 17 -17c0 -9 -7 -17 -17 -17zM137 0h-10v656h10v-656zM894 0v656h10v-656h-10zM227 359h283c131 0 215 -65 215 -170v-19
c0 -105 -84 -170 -215 -170h-283v10h283c126 0 205 60 205 160v19c0 100 -79 160 -205 160h-283v10z" />
    <glyph glyph-name="uni04D8.001" horiz-adv-x="877" 
d="M394 654c-163 -13 -273 -102 -289 -236h-10c16 141 129 233 299 246v-10zM483 663c185 -16 302 -139 302 -325v-21c0 -185 -116 -308 -302 -325v11c180 16 292 135 292 314v4h-674v-4c0 -179 113 -298 293 -314v-10c-186 16 -303 139 -303 324v14h684v7
c0 180 -112 299 -292 315v10z" />
    <glyph glyph-name="uni0407.Yi-cy" horiz-adv-x="319" 
d="M80 774c-9 0 -17 8 -17 17c0 10 8 17 17 17c10 0 17 -7 17 -17c0 -9 -7 -17 -17 -17zM239 774c-9 0 -17 8 -17 17c0 10 8 17 17 17c10 0 17 -7 17 -17c0 -9 -7 -17 -17 -17zM154 0v656h10v-656h-10z" />
    <glyph glyph-name="uni0414.loclBGR" horiz-adv-x="916" 
d="M734 99h-12l-270 557h12zM153 10h700v-143h-10v133h-770v-133h-10v143h77l263 544l6 -13z" />
    <glyph glyph-name="uni041B.loclBGR" horiz-adv-x="770" 
d="M379 656h12l343 -653v-3h-11zM345 568l-298 -568h-11v3l303 577z" />
    <glyph glyph-name="uni0406.ss07" horiz-adv-x="701" 
d="M47 646v10h606v-10h-606zM355 557v-458h-10v458h10zM653 10v-10h-606v10h606z" />
    <glyph glyph-name="uni0407.ss07" horiz-adv-x="701" 
d="M252 774c-9 0 -17 8 -17 17c0 10 8 17 17 17c10 0 17 -7 17 -17c0 -9 -7 -17 -17 -17zM447 774c-9 0 -17 8 -17 17c0 10 8 17 17 17c10 0 17 -7 17 -17c0 -9 -7 -17 -17 -17zM47 646v10h606v-10h-606zM355 557v-458h-10v458h10zM653 10v-10h-606v10h606z" />
    <glyph glyph-name="uni04C0.ss07" horiz-adv-x="701" 
d="M47 646v10h606v-10h-606zM355 557v-458h-10v458h10zM653 10v-10h-606v10h606z" />
    <glyph glyph-name="uni0430" unicode="&#x430;" horiz-adv-x="716" 
d="M290 483c-113 -13 -192 -78 -192 -164v-10h-10v10c0 92 82 161 202 174v-10zM379 493c129 -12 202 -81 202 -194v-206c0 -52 34 -83 91 -83h44v-10h-43c-64 0 -102 35 -102 93v206c0 108 -68 172 -192 184v10zM482 43c-50 -34 -116 -53 -192 -53c-137 0 -204 40 -204 121
c0 78 57 118 187 131l209 21v-10l-209 -21c-122 -12 -177 -50 -177 -121c0 -74 64 -111 194 -111c76 0 143 20 192 55v-12z" />
    <glyph glyph-name="uni0431" unicode="&#x431;" horiz-adv-x="704" 
d="M411 638l139 10c42 3 56 12 56 38v10h10v-10c0 -32 -17 -44 -66 -48l-139 -10v10zM322 617c-161 -26 -232 -114 -232 -279v-58c0 -166 81 -261 232 -277v-10c-157 16 -242 115 -242 287v57c0 172 74 263 242 290v-10zM179 415c47 40 113 61 185 61
c166 0 277 -93 277 -233v-20c0 -129 -89 -215 -230 -230v11c134 15 220 98 220 219v20c0 134 -107 223 -267 223c-72 0 -138 -23 -185 -63v12z" />
    <glyph glyph-name="uni0432" unicode="&#x432;" horiz-adv-x="710" 
d="M106 0v486h10v-486h-10zM515 246c77 -11 121 -52 121 -116v-10c0 -75 -61 -120 -164 -120h-267v10h267c98 0 154 40 154 110v10c0 70 -56 110 -154 110h-267v10h255c97 0 154 41 154 111v10c0 67 -56 105 -154 105h-255v10h255c103 0 164 -43 164 -115v-10
c0 -60 -40 -101 -109 -115z" />
    <glyph glyph-name="uni0433" unicode="&#x433;" horiz-adv-x="513" 
d="M116 0h-10v486h10v-486zM205 486h298v-10h-298v10z" />
    <glyph glyph-name="uni0453" unicode="&#x453;" horiz-adv-x="513" 
d="M107 579v11l400 90v-11zM116 0h-10v486h10v-486zM205 486h298v-10h-298v10z" />
    <glyph glyph-name="uni0491" unicode="&#x491;" horiz-adv-x="513" 
d="M106 476v10h377v128h10v-138h-387zM116 387v-387h-10v387h10z" />
    <glyph glyph-name="uni0434" unicode="&#x434;" horiz-adv-x="762" 
d="M531 486v-10h-346l-5 -267c-2 -90 -28 -153 -60 -199h411v-10h-486v-128h-10v138h71c35 46 62 111 64 199l5 277h356zM630 10h105v-138h-10v128h-105v486h10v-476z" />
    <glyph glyph-name="uni0435" unicode="&#x435;" horiz-adv-x="671" 
d="M386 493c136 -16 222 -104 222 -235v-18h-535v-9c0 -128 86 -213 224 -227v-11c-144 16 -234 105 -234 238v24c0 133 91 223 234 238v-10c-137 -15 -224 -100 -224 -228v-5h525v8c0 126 -82 210 -212 225v10zM386 3c127 13 212 80 212 174h10c0 -100 -89 -171 -222 -184
v10z" />
    <glyph glyph-name="uni0450" unicode="&#x450;" horiz-adv-x="671" 
d="M537 590v-11l-400 90v11zM386 493c136 -16 222 -104 222 -235v-18h-535v-9c0 -128 86 -213 224 -227v-11c-144 16 -234 105 -234 238v24c0 133 91 223 234 238v-10c-137 -15 -224 -100 -224 -228v-5h525v8c0 126 -82 210 -212 225v10zM386 3c127 13 212 80 212 174h10
c0 -100 -89 -171 -222 -184v10z" />
    <glyph glyph-name="uni0451" unicode="&#x451;" horiz-adv-x="671" 
d="M209 604c-9 0 -17 8 -17 17c0 10 8 17 17 17c10 0 17 -7 17 -17c0 -9 -7 -17 -17 -17zM464 604c-9 0 -17 8 -17 17c0 10 8 17 17 17c10 0 17 -7 17 -17c0 -9 -7 -17 -17 -17zM386 493c136 -16 222 -104 222 -235v-18h-535v-9c0 -128 86 -213 224 -227v-11
c-144 16 -234 105 -234 238v24c0 133 91 223 234 238v-10c-137 -15 -224 -100 -224 -228v-5h525v8c0 126 -82 210 -212 225v10zM386 3c127 13 212 80 212 174h10c0 -100 -89 -171 -222 -184v10z" />
    <glyph glyph-name="uni0436" unicode="&#x436;" horiz-adv-x="1018" 
d="M85 486l252 -238h78v-10h-78l-267 -238h-12v3l270 240l-255 240v3h12zM504 0v486h10v-486h-10zM691 243l269 -240v-3h-12l-266 238h-79v10h79l251 238h12v-3z" />
    <glyph glyph-name="uni0437" unicode="&#x437;" horiz-adv-x="684" 
d="M490 246c76 -11 120 -50 120 -109v-10c0 -85 -73 -129 -228 -136v11c151 5 218 45 218 125v10c0 65 -57 103 -154 103h-176v10h164c97 0 154 39 154 106v10c0 75 -66 113 -206 119v10c145 -7 216 -49 216 -129v-10c0 -57 -40 -96 -108 -110zM80 312v-7h-10v7
c0 110 78 172 223 182v-10c-139 -10 -213 -67 -213 -172zM80 173c0 -103 74 -161 213 -171v-10c-144 10 -223 72 -223 181v7h10v-7z" />
    <glyph glyph-name="uni0438" unicode="&#x438;" horiz-adv-x="713" 
d="M593 486h14l-487 -486h-14zM106 136v350h10v-340zM607 351v-351h-10v341z" />
    <glyph glyph-name="uni0439" unicode="&#x439;" horiz-adv-x="713" 
d="M325 580c-110 5 -168 39 -168 96v2h10v-2c0 -52 53 -81 158 -86v-10zM390 590c104 5 157 34 157 86v2h10v-2c0 -57 -58 -91 -167 -96v10zM106 136v350h10v-340zM593 486h14l-487 -486h-14zM607 351v-351h-10v341z" />
    <glyph glyph-name="uni045D" unicode="&#x45d;" horiz-adv-x="713" 
d="M557 579l-400 90v11l400 -90v-11zM106 136v350h10v-340zM593 486h14l-487 -486h-14zM607 351v-351h-10v341z" />
    <glyph glyph-name="uni043A" unicode="&#x43a;" horiz-adv-x="687" 
d="M106 0v486h10v-486h-10zM316 243l313 -240v-3h-12l-311 238h-101v10h101l296 238h12v-3z" />
    <glyph glyph-name="uni045C" unicode="&#x45c;" horiz-adv-x="687" 
d="M535 680v-11l-400 -90v11zM106 0v486h10v-486h-10zM316 243l313 -240v-3h-12l-311 238h-101v10h101l296 238h12v-3z" />
    <glyph glyph-name="uni043B" unicode="&#x43b;" horiz-adv-x="712" 
d="M159 486h348v-10h-338l-13 -333c-4 -99 -40 -143 -117 -143h-39v10h39c71 0 103 40 107 133zM596 486h10v-486h-10v486z" />
    <glyph glyph-name="uni043C" unicode="&#x43c;" horiz-adv-x="913" 
d="M796 486h12l-346 -486h-10l-346 486h12l339 -476zM106 0v333l10 -14v-319h-10zM798 0v319l10 14v-333h-10z" />
    <glyph glyph-name="uni043D" unicode="&#x43d;" horiz-adv-x="718" 
d="M116 0h-10v486h10v-486zM205 248h397v238h10v-486h-10v238h-397v10z" />
    <glyph glyph-name="uni043E" unicode="&#x43e;" horiz-adv-x="685" 
d="M300 483c-142 -15 -227 -100 -227 -229v-24c0 -128 88 -212 227 -226v-11c-146 15 -237 103 -237 237v24c0 136 91 224 237 239v-10zM389 493c143 -15 233 -104 233 -239v-24c0 -133 -90 -221 -233 -237v10c137 15 223 100 223 227v24c0 128 -85 214 -223 229v10z" />
    <glyph glyph-name="uni043F" unicode="&#x43f;" horiz-adv-x="708" 
d="M503 476h-387v-476h-10v486h397v-10zM592 486h10v-486h-10v486z" />
    <glyph glyph-name="uni0440" unicode="&#x440;" horiz-adv-x="710" 
d="M205 50c43 -32 100 -50 161 -50c167 0 271 88 271 231v24c0 143 -104 231 -271 231c-61 0 -118 -18 -161 -49v12c44 30 101 47 161 47c173 0 281 -93 281 -241v-24c0 -148 -108 -241 -281 -241c-60 0 -117 17 -161 48v12zM106 -170v656h10v-656h-10z" />
    <glyph glyph-name="uni0441" unicode="&#x441;" horiz-adv-x="670" 
d="M301 483c-140 -15 -228 -100 -228 -228v-24c0 -128 87 -213 228 -227v-11c-146 15 -238 105 -238 238v24c0 133 92 223 238 238v-10zM390 493c127 -14 220 -90 220 -188v-7h-10v7c0 93 -88 165 -210 178v10zM390 4c122 13 210 85 210 176v7h10v-7
c0 -96 -93 -173 -220 -187v11z" />
    <glyph glyph-name="uni0442" unicode="&#x442;" horiz-adv-x="606" 
d="M10 476v10h586v-10h-586zM312 387v-387h-10v387h10z" />
    <glyph glyph-name="uni0443" unicode="&#x443;" horiz-adv-x="697" 
d="M292 88l-222 395v3h9l219 -387zM618 486h9v-3l-315 -561c-37 -65 -66 -92 -159 -92h-55v10h55c79 0 112 19 150 86z" />
    <glyph glyph-name="uni045E" unicode="&#x45e;" horiz-adv-x="697" 
d="M317 580c-110 5 -168 39 -168 96v2h10v-2c0 -52 53 -81 158 -86v-10zM382 590c104 5 157 34 157 86v2h10v-2c0 -57 -58 -91 -167 -96v10zM292 88l-222 395v3h9l219 -387zM618 486h9v-3l-315 -561c-37 -65 -66 -92 -159 -92h-55v10h55c79 0 112 19 150 86z" />
    <glyph glyph-name="uni0444" unicode="&#x444;" horiz-adv-x="968" 
d="M479 -170v866h10v-866h-10zM357 0c-168 0 -284 87 -284 235v14c0 150 115 237 284 237h33v-10h-33c-163 0 -274 -83 -274 -227v-14c0 -142 112 -225 274 -225h33v-10h-33zM578 0v10h33c162 0 274 83 274 225v14c0 144 -111 227 -274 227h-33v10h33
c169 0 284 -87 284 -237v-14c0 -148 -116 -235 -284 -235h-33z" />
    <glyph glyph-name="uni0445" unicode="&#x445;" horiz-adv-x="656" 
d="M62 483v3h11l525 -483v-3h-11zM394 312l189 174h10v-3l-192 -177zM262 179l-192 -179h-12v3l197 182z" />
    <glyph glyph-name="uni0447" unicode="&#x447;" horiz-adv-x="677" 
d="M482 187c-54 -11 -112 -17 -163 -17c-140 0 -215 57 -215 164v152h10v-152c0 -100 72 -154 205 -154c50 0 108 7 163 18v-11zM571 0v486h10v-486h-10z" />
    <glyph glyph-name="uni0446" unicode="&#x446;" horiz-adv-x="734" 
d="M116 486v-476h387v-10h-397v486h10zM602 10h105v-138h-10v128h-105v486h10v-476z" />
    <glyph glyph-name="uni0448" unicode="&#x448;" horiz-adv-x="1039" 
d="M426 0h-320v486h10v-476h310v-10zM834 0h-319v486h10v-476h309v-10zM923 486h10v-486h-10v486z" />
    <glyph glyph-name="uni0449" unicode="&#x449;" horiz-adv-x="1075" 
d="M116 486v-476h310v-10h-320v486h10zM525 486v-476h309v-10h-319v486h10zM933 10h105v-138h-10v128h-105v486h10v-476z" />
    <glyph glyph-name="uni045F" unicode="&#x45f;" horiz-adv-x="698" 
d="M116 486v-476h476v-10h-238v-128h-10v128h-238v486h10zM582 486h10v-387h-10v387z" />
    <glyph glyph-name="uni044C" unicode="&#x44c;" horiz-adv-x="704" 
d="M106 0v486h10v-486h-10zM205 290h266c105 0 165 -50 165 -138v-14c0 -87 -61 -138 -165 -138h-266v10h266c99 0 155 46 155 128v14c0 82 -55 128 -155 128h-266v10z" />
    <glyph glyph-name="uni044A" unicode="&#x44a;" horiz-adv-x="835" 
d="M247 486v-10h-237v10h237zM237 0v387h10v-387h-10zM602 290c105 0 165 -50 165 -138v-14c0 -87 -61 -138 -165 -138h-266v10h266c99 0 155 46 155 128v14c0 82 -55 128 -155 128h-266v10h266z" />
    <glyph glyph-name="uni044B" unicode="&#x44b;" horiz-adv-x="902" 
d="M128 0v486h10v-486h-10zM764 0v486h10v-486h-10zM227 0v10h266c109 0 155 55 155 128v14c0 74 -45 128 -155 128h-266v10h266c115 0 165 -59 165 -138v-14c0 -78 -51 -138 -165 -138h-266z" />
    <glyph glyph-name="uni0459" unicode="&#x459;" horiz-adv-x="1100" 
d="M159 486h301v-10h-291l-13 -333c-4 -99 -40 -143 -117 -143h-39v10h39c71 0 104 41 107 133zM549 0v486h10v-486h-10zM867 290c115 0 165 -59 165 -138v-14c0 -78 -51 -138 -165 -138h-219v10h219c109 0 155 55 155 128v14c0 74 -45 128 -155 128h-219v10h219z" />
    <glyph glyph-name="uni045A" unicode="&#x45a;" horiz-adv-x="1107" 
d="M496 249h-380v-249h-10v486h10v-227h380v-10zM595 0h-10v486h10v-486zM684 259h190c108 0 165 -41 165 -118v-14c0 -79 -62 -127 -165 -127h-190v10h190c98 0 155 44 155 117v14c0 73 -50 108 -155 108h-190v10z" />
    <glyph glyph-name="uni0455" unicode="&#x455;" horiz-adv-x="688" 
d="M391 2c128 8 207 51 207 118v10c0 64 -61 97 -212 110l-91 8c-133 12 -190 46 -190 112v10c0 70 74 115 196 124v-10c-116 -8 -186 -50 -186 -114v-10c0 -61 52 -92 181 -103l91 -8c156 -14 221 -48 221 -119v-10c0 -72 -83 -120 -217 -128v10zM391 494
c129 -11 217 -68 217 -144v-5h-10v5c0 71 -84 124 -207 134v10zM301 -8c-132 11 -221 66 -221 144v5h10v-5c0 -73 83 -124 211 -134v-10z" />
    <glyph glyph-name="uni0454" unicode="&#x454;" horiz-adv-x="670" 
d="M73 231c0 -128 87 -213 228 -227v-11c-146 15 -238 105 -238 238v24c0 133 92 223 238 238v-10c-141 -15 -228 -100 -228 -228v-7h336v-10h-336v-7zM390 493c128 -13 220 -85 220 -178v-10h-10v10c0 88 -88 155 -210 168v10zM600 170v10h10v-10c0 -91 -93 -163 -220 -177
v11c122 12 210 79 210 166z" />
    <glyph glyph-name="uni044D" unicode="&#x44d;" horiz-adv-x="670" 
d="M70 315v-10h-10v10c0 93 93 165 221 178v-10c-123 -13 -211 -80 -211 -168zM370 493c145 -15 237 -105 237 -238v-24c0 -133 -92 -223 -237 -238v11c140 14 227 99 227 227v7h-336v10h336v7c0 128 -87 213 -227 228v10zM70 170c0 -87 88 -154 211 -166v-11
c-128 14 -221 86 -221 177v10h10v-10z" />
    <glyph glyph-name="uni0456" unicode="&#x456;" horiz-adv-x="286" 
d="M143 604c-9 0 -17 8 -17 17c0 10 8 17 17 17c10 0 17 -7 17 -17c0 -9 -7 -17 -17 -17zM138 0v486h10v-486h-10z" />
    <glyph glyph-name="uni0457" unicode="&#x457;" horiz-adv-x="336" 
d="M84 604c-8 0 -17 6 -17 17s9 17 17 17s17 -6 17 -17s-9 -17 -17 -17zM252 604c-8 0 -17 6 -17 17s9 17 17 17s17 -6 17 -17s-9 -17 -17 -17zM163 0v486h10v-486h-10z" />
    <glyph glyph-name="uni0458" unicode="&#x458;" horiz-adv-x="286" 
d="M143 604c-9 0 -17 8 -17 17c0 10 8 17 17 17c10 0 17 -7 17 -17c0 -9 -7 -17 -17 -17zM-106 -160h123c81 0 121 44 121 130v516h10v-516c0 -92 -44 -140 -131 -140h-123v10z" />
    <glyph glyph-name="uni045B" unicode="&#x45b;" horiz-adv-x="747" 
d="M405 631v-10h-405v10h132v65h10v-65h263zM132 0v532h10v-532h-10zM387 496c163 0 252 -82 252 -233v-263h-10v263c0 145 -86 223 -242 223c-58 0 -114 -19 -156 -50v12c43 30 99 48 156 48z" />
    <glyph glyph-name="uni044E" unicode="&#x44e;" horiz-adv-x="948" 
d="M326 254c0 136 90 225 237 239v-10c-141 -14 -227 -99 -227 -229v-24c0 -128 87 -213 227 -227v-10c-146 14 -237 103 -237 237v8h-210v-238h-10v486h10v-238h210v6zM652 493c144 -15 233 -104 233 -239v-24c0 -132 -90 -222 -233 -237v11c138 14 223 99 223 226v24
c0 129 -85 214 -223 229v10z" />
    <glyph glyph-name="uni044F" unicode="&#x44f;" horiz-adv-x="715" 
d="M79 343c0 91 65 143 180 143h251v-10h-251c-109 0 -170 -48 -170 -133v-4c0 -80 60 -123 170 -123h251v-10h-140l-276 -206h-13v3l273 203h-95c-115 0 -180 48 -180 133v4zM599 486h10v-486h-10v486z" />
    <glyph glyph-name="uni0452" unicode="&#x452;" horiz-adv-x="737" 
d="M405 631v-10h-405v10h132v65h10v-65h263zM132 0v532h10v-532h-10zM387 496c163 0 252 -82 252 -233v-190c0 -162 -80 -243 -242 -243h-53v10h53c155 0 232 77 232 233v190c0 144 -85 223 -242 223c-57 0 -114 -19 -156 -50v13c43 29 99 47 156 47z" />
    <glyph glyph-name="uni0463" unicode="&#x463;" horiz-adv-x="815" 
d="M540 486v-10h-530v10h207v210h10v-210h313zM217 0v387h10v-387h-10zM582 280c115 0 165 -59 165 -133v-14c0 -73 -51 -133 -165 -133h-266v10h266c109 0 155 55 155 123v14c0 69 -45 123 -155 123h-266v10h266z" />
    <glyph glyph-name="uni0473" unicode="&#x473;" horiz-adv-x="685" 
d="M389 493c144 -15 233 -104 233 -239v-24c0 -132 -90 -221 -233 -237v11c138 14 223 100 223 226v9c-53 -7 -97 -11 -139 -11c-109 0 -171 21 -266 21c-43 0 -86 -5 -134 -16v-3c0 -128 87 -212 227 -227v-10c-146 15 -237 103 -237 237v24c0 136 90 224 237 239v-10
c-141 -14 -227 -99 -227 -229v-11c48 11 91 16 134 16c95 0 157 -21 266 -21c42 0 86 4 139 11v5c0 129 -85 214 -223 229v10z" />
    <glyph glyph-name="uni0475" unicode="&#x475;" horiz-adv-x="705" 
d="M350 0h-12l-268 483v3h9zM394 103l161 300c36 67 57 83 108 83h32v-10h-32c-46 0 -66 -15 -99 -77l-164 -307z" />
    <glyph glyph-name="uni0493" unicode="&#x493;" horiz-adv-x="603" 
d="M160 486v-258h254v-10h-254v-218h-10v218h-132v10h132v258h10zM249 486h294v-10h-294v10z" />
    <glyph glyph-name="uni0495" unicode="&#x495;" horiz-adv-x="696" 
d="M116 0h-10v486h10v-486zM205 486h346v-10h-346v10zM205 249c54 11 112 17 163 17c142 0 215 -59 215 -174v-92c0 -114 -60 -170 -181 -170h-73v10h73c115 0 171 52 171 160v92c0 108 -70 164 -205 164c-50 0 -108 -7 -163 -18v11z" />
    <glyph glyph-name="uni0497" unicode="&#x497;" horiz-adv-x="1049" 
d="M78 486l252 -238h78v-10h-78l-267 -238h-12v3l270 240l-255 240v3h12zM497 0v486h10v-486h-10zM927 10h95v-138h-10v128h-90l-247 238h-79v10h79l251 238h12v-3l-254 -240z" />
    <glyph glyph-name="uni0499" unicode="&#x499;" horiz-adv-x="684" 
d="M490 246c76 -11 120 -50 120 -109v-10c0 -90 -84 -135 -260 -137v-133h-10v133h-3c-173 0 -267 64 -267 183v7h10v-7c0 -113 90 -173 257 -173c182 0 263 40 263 127v10c0 65 -57 103 -154 103h-176v10h164c97 0 154 39 154 106v10c0 75 -66 113 -206 119v10
c145 -7 216 -49 216 -129v-10c0 -57 -40 -96 -108 -110zM80 312v-7h-10v7c0 109 77 172 223 182v-10c-141 -10 -213 -68 -213 -172z" />
    <glyph glyph-name="uni049B" unicode="&#x49b;" horiz-adv-x="717" 
d="M106 0v486h10v-486h-10zM603 10h87v-138h-10v128h-80l-294 238h-101v10h101l296 238h12v-3l-298 -240z" />
    <glyph glyph-name="uni049D" unicode="&#x49d;" horiz-adv-x="744" 
d="M116 486v-238h127v-10h-127v-238h-10v486h10zM408 243l288 -240v-3h-12l-285 238v10l270 238h12v-3zM318 81v323h10v-323h-10z" />
    <glyph glyph-name="uni04A1" unicode="&#x4a1;" horiz-adv-x="865" 
d="M301 486v-486h-10v476h-281v10h291zM501 243l313 -240v-3h-12l-311 238h-101v10h101l296 238h12v-3z" />
    <glyph glyph-name="uni04A3" unicode="&#x4a3;" horiz-adv-x="754" 
d="M106 0v486h10v-486h-10zM622 10h105v-138h-10v128h-105v238h-407v10h407v238h10v-476z" />
    <glyph glyph-name="uni04A5" unicode="&#x4a5;" horiz-adv-x="903" 
d="M116 0h-10v486h10v-486zM205 248h377v238h311v-10h-301v-476h-10v238h-377v10z" />
    <glyph glyph-name="uni04AB" unicode="&#x4ab;" horiz-adv-x="670" 
d="M600 180v7h10v-7c0 -107 -114 -190 -265 -190h-8v-133h-10v133c-160 7 -264 101 -264 241v24c0 133 91 223 238 238v-10c-142 -15 -228 -101 -228 -228v-24c0 -140 107 -232 272 -231c146 0 255 78 255 180zM390 493c129 -14 220 -91 220 -188v-7h-10v7
c0 92 -87 165 -210 178v10z" />
    <glyph glyph-name="uni04AF" unicode="&#x4af;" horiz-adv-x="695" 
d="M69 486h9l275 -487v-169h-10v167l-274 486v3zM617 486h9v-3l-221 -395l-5 10z" />
    <glyph glyph-name="uni04B1" unicode="&#x4b1;" horiz-adv-x="695" 
d="M78 486l271 -476h246v-10h-242v-170h-10v170h-243v10h238l-269 473v3h9zM617 486h9v-3l-217 -384h-9l-1 2z" />
    <glyph glyph-name="uni04B3" unicode="&#x4b3;" horiz-adv-x="676" 
d="M563 10h86v-138h-10v128h-80l-497 483v3h11zM593 483l-200 -183l-7 6l197 180h10v-3zM58 3l190 175l7 -6l-185 -172h-12v3z" />
    <glyph glyph-name="uni04B7" unicode="&#x4b7;" horiz-adv-x="732" 
d="M114 334c0 -100 72 -154 205 -154c50 0 108 7 163 18v-11c-54 -11 -112 -17 -163 -17c-140 0 -215 57 -215 164v152h10v-152zM581 10h105v-138h-10v128h-105v486h10v-476z" />
    <glyph glyph-name="uni04B9" unicode="&#x4b9;" horiz-adv-x="677" 
d="M114 334c0 -91 60 -144 172 -152v-10c-119 8 -182 64 -182 162v152h10v-152zM571 486h10v-486h-10v206c-53 -15 -112 -26 -170 -32v11c57 6 117 17 170 32v269zM338 51v323h10v-323h-10z" />
    <glyph glyph-name="uni04BB" unicode="&#x4bb;" horiz-adv-x="711" 
d="M106 0v696h10v-696h-10zM205 449c43 30 99 47 156 47c164 0 252 -81 252 -233v-263h-10v263c0 145 -84 223 -242 223c-59 0 -114 -18 -156 -48v11z" />
    <glyph glyph-name="uni04CF" unicode="&#x4cf;" horiz-adv-x="286" 
d="M138 0v696h10v-696h-10z" />
    <glyph glyph-name="uni04C2" unicode="&#x4c2;" horiz-adv-x="1018" 
d="M319 676c0 -52 53 -81 158 -86v-10c-110 5 -168 39 -168 96v2h10v-2zM709 676c0 -57 -58 -91 -167 -96v10c104 5 157 34 157 86v2h10v-2zM85 486l252 -238h78v-10h-78l-267 -238h-12v3l270 240l-255 240v3h12zM504 0v486h10v-486h-10zM691 243l269 -240v-3h-12l-266 238
h-79v10h79l251 238h12v-3z" />
    <glyph glyph-name="uni04D1" unicode="&#x4d1;" horiz-adv-x="716" 
d="M303 580c-110 5 -168 39 -168 96v2h10v-2c0 -52 53 -81 158 -86v-10zM368 590c104 5 157 34 157 86v2h10v-2c0 -57 -58 -91 -167 -96v10zM290 483c-113 -13 -192 -78 -192 -164v-10h-10v10c0 92 82 161 202 174v-10zM379 493c129 -12 202 -81 202 -194v-206
c0 -52 34 -83 91 -83h44v-10h-43c-64 0 -102 35 -102 93v206c0 108 -68 172 -192 184v10zM482 43c-50 -34 -116 -53 -192 -53c-137 0 -204 40 -204 121c0 78 57 118 187 131l209 21v-10l-209 -21c-122 -12 -177 -50 -177 -121c0 -74 64 -111 194 -111c76 0 143 20 192 55
v-12z" />
    <glyph glyph-name="uni04D3" unicode="&#x4d3;" horiz-adv-x="716" 
d="M207 604c-9 0 -17 8 -17 17c0 10 8 17 17 17c10 0 17 -7 17 -17c0 -9 -7 -17 -17 -17zM462 604c-9 0 -17 8 -17 17c0 10 8 17 17 17c10 0 17 -7 17 -17c0 -9 -7 -17 -17 -17zM290 483c-113 -13 -192 -78 -192 -164v-10h-10v10c0 92 82 161 202 174v-10zM379 493
c129 -12 202 -81 202 -194v-206c0 -52 34 -83 91 -83h44v-10h-43c-64 0 -102 35 -102 93v206c0 108 -68 172 -192 184v10zM482 43c-50 -34 -116 -53 -192 -53c-137 0 -204 40 -204 121c0 78 57 118 187 131l209 21v-10l-209 -21c-122 -12 -177 -50 -177 -121
c0 -74 64 -111 194 -111c76 0 143 20 192 55v-12z" />
    <glyph glyph-name="uni04D5" unicode="&#x4d5;" horiz-adv-x="1098" 
d="M98 319v-10h-10v10c0 93 76 161 192 174v-11c-106 -12 -182 -76 -182 -163zM844 491c116 -17 191 -106 191 -233v-11h-484v-16c0 -127 78 -211 204 -227v-10c-132 16 -214 104 -214 237v68c0 105 -62 170 -172 183v10c107 -12 172 -72 181 -169c23 95 97 157 205 169v-10
c-125 -15 -203 -100 -204 -225h474v1c0 122 -70 207 -181 223v10zM290 0c77 0 137 18 200 66l3 -10c-66 -51 -126 -66 -203 -66c-137 0 -204 40 -204 121c0 77 57 116 187 126l179 14v-10l-179 -14c-123 -10 -177 -44 -177 -116c0 -74 64 -111 194 -111zM844 4
c108 14 181 82 181 173h10c0 -97 -77 -168 -191 -183v10z" />
    <glyph glyph-name="uni04D7" unicode="&#x4d7;" horiz-adv-x="671" 
d="M305 580c-110 5 -168 39 -168 96v2h10v-2c0 -52 53 -81 158 -86v-10zM537 676c0 -57 -58 -91 -167 -96v10c104 5 157 34 157 86v2h10v-2zM386 493c136 -16 222 -104 222 -235v-18h-535v-9c0 -128 86 -213 224 -227v-11c-144 16 -234 105 -234 238v24
c0 133 91 223 234 238v-10c-137 -15 -224 -100 -224 -228v-5h525v8c0 126 -82 210 -212 225v10zM386 3c127 13 212 80 212 174h10c0 -100 -89 -171 -222 -184v10z" />
    <glyph glyph-name="uni04D9" unicode="&#x4d9;" horiz-adv-x="671" 
d="M375 493c144 -15 233 -105 233 -238v-24c0 -133 -90 -222 -233 -238v11c137 15 223 100 223 227v5h-525v-8c0 -125 82 -209 213 -224v-11c-136 16 -223 105 -223 235v18h535v9c0 128 -86 213 -223 228v10zM286 483c-128 -12 -213 -79 -213 -174h-10c0 101 89 172 223 184
v-10z" />
    <glyph glyph-name="uni04DB" unicode="&#x4db;" horiz-adv-x="671" 
d="M206 604c-9 0 -17 8 -17 17c0 10 8 17 17 17c10 0 17 -7 17 -17c0 -9 -7 -17 -17 -17zM461 604c-9 0 -17 8 -17 17c0 10 8 17 17 17c10 0 17 -7 17 -17c0 -9 -7 -17 -17 -17zM375 493c144 -15 233 -105 233 -238v-24c0 -133 -90 -222 -233 -238v11
c137 15 223 100 223 227v5h-525v-8c0 -125 82 -209 213 -224v-11c-136 16 -223 105 -223 235v18h535v9c0 128 -86 213 -223 228v10zM286 483c-128 -12 -213 -79 -213 -174h-10c0 101 89 172 223 184v-10z" />
    <glyph glyph-name="uni04DD" unicode="&#x4dd;" horiz-adv-x="1018" 
d="M381 604c-9 0 -17 8 -17 17c0 10 8 17 17 17c10 0 17 -7 17 -17c0 -9 -7 -17 -17 -17zM636 604c-9 0 -17 8 -17 17c0 10 8 17 17 17c10 0 17 -7 17 -17c0 -9 -7 -17 -17 -17zM85 486l252 -238h78v-10h-78l-267 -238h-12v3l270 240l-255 240v3h12zM504 0v486h10v-486h-10z
M691 243l269 -240v-3h-12l-266 238h-79v10h79l251 238h12v-3z" />
    <glyph glyph-name="uni04DF" unicode="&#x4df;" horiz-adv-x="684" 
d="M217 604c-9 0 -17 8 -17 17c0 10 8 17 17 17c10 0 17 -7 17 -17c0 -9 -7 -17 -17 -17zM472 604c-9 0 -17 8 -17 17c0 10 8 17 17 17c10 0 17 -7 17 -17c0 -9 -7 -17 -17 -17zM490 246c76 -11 120 -50 120 -109v-10c0 -85 -73 -129 -228 -136v11c151 5 218 45 218 125v10
c0 65 -57 103 -154 103h-176v10h164c97 0 154 39 154 106v10c0 75 -66 113 -206 119v10c145 -7 216 -49 216 -129v-10c0 -57 -40 -96 -108 -110zM80 312v-7h-10v7c0 110 78 172 223 182v-10c-139 -10 -213 -67 -213 -172zM80 173c0 -103 74 -161 213 -171v-10
c-144 10 -223 72 -223 181v7h10v-7z" />
    <glyph glyph-name="uni04E3" unicode="&#x4e3;" horiz-adv-x="713" 
d="M157 616v10h400v-10h-400zM106 136v350h10v-340zM593 486h14l-487 -486h-14zM607 351v-351h-10v341z" />
    <glyph glyph-name="uni04E5" unicode="&#x4e5;" horiz-adv-x="713" 
d="M229 604c-9 0 -17 8 -17 17c0 10 8 17 17 17c10 0 17 -7 17 -17c0 -9 -7 -17 -17 -17zM484 604c-9 0 -17 8 -17 17c0 10 8 17 17 17c10 0 17 -7 17 -17c0 -9 -7 -17 -17 -17zM106 136v350h10v-340zM593 486h14l-487 -486h-14zM607 351v-351h-10v341z" />
    <glyph glyph-name="uni04E7" unicode="&#x4e7;" horiz-adv-x="685" 
d="M215 604c-9 0 -17 8 -17 17c0 10 8 17 17 17c10 0 17 -7 17 -17c0 -9 -7 -17 -17 -17zM470 604c-9 0 -17 8 -17 17c0 10 8 17 17 17c10 0 17 -7 17 -17c0 -9 -7 -17 -17 -17zM300 483c-142 -15 -227 -100 -227 -229v-24c0 -128 88 -212 227 -226v-11
c-146 15 -237 103 -237 237v24c0 136 91 224 237 239v-10zM389 493c143 -15 233 -104 233 -239v-24c0 -133 -90 -221 -233 -237v10c137 15 223 100 223 227v24c0 128 -85 214 -223 229v10z" />
    <glyph glyph-name="uni04E9" unicode="&#x4e9;" horiz-adv-x="685" 
d="M389 493c144 -15 233 -104 233 -239v-24c0 -132 -90 -222 -233 -237v11c138 14 223 99 223 226v8h-539v-8c0 -128 87 -213 227 -226v-11c-146 15 -237 103 -237 237v24c0 136 90 225 237 239v-10c-141 -14 -227 -99 -227 -229v-6h539v6c0 129 -85 214 -223 229v10z" />
    <glyph glyph-name="uni04EF" unicode="&#x4ef;" horiz-adv-x="697" 
d="M149 616v10h400v-10h-400zM292 88l-222 395v3h9l219 -387zM618 486h9v-3l-315 -561c-37 -65 -66 -92 -159 -92h-55v10h55c79 0 112 19 150 86z" />
    <glyph glyph-name="uni04F1" unicode="&#x4f1;" horiz-adv-x="697" 
d="M221 604c-9 0 -17 8 -17 17c0 10 8 17 17 17c10 0 17 -7 17 -17c0 -9 -7 -17 -17 -17zM476 604c-9 0 -17 8 -17 17c0 10 8 17 17 17c10 0 17 -7 17 -17c0 -9 -7 -17 -17 -17zM292 88l-222 395v3h9l219 -387zM618 486h9v-3l-315 -561c-37 -65 -66 -92 -159 -92h-55v10h55
c79 0 112 19 150 86z" />
    <glyph glyph-name="uni04F3" unicode="&#x4f3;" horiz-adv-x="697" 
d="M140 579v12l270 89v-13zM410 579v12l267 89v-13zM292 88l-222 395v3h9l219 -387zM618 486h9v-3l-315 -561c-37 -65 -66 -92 -159 -92h-55v10h55c79 0 112 19 150 86z" />
    <glyph glyph-name="uni04F5" unicode="&#x4f5;" horiz-adv-x="677" 
d="M212 604c-9 0 -17 8 -17 17c0 10 8 17 17 17c10 0 17 -7 17 -17c0 -9 -7 -17 -17 -17zM467 604c-9 0 -17 8 -17 17c0 10 8 17 17 17c10 0 17 -7 17 -17c0 -9 -7 -17 -17 -17zM482 187c-54 -11 -112 -17 -163 -17c-140 0 -215 57 -215 164v152h10v-152
c0 -100 72 -154 205 -154c50 0 108 7 163 18v-11zM571 0v486h10v-486h-10z" />
    <glyph glyph-name="uni04F9" unicode="&#x4f9;" horiz-adv-x="902" 
d="M323 604c-9 0 -17 8 -17 17c0 10 8 17 17 17c10 0 17 -7 17 -17c0 -9 -7 -17 -17 -17zM578 604c-9 0 -17 8 -17 17c0 10 8 17 17 17c10 0 17 -7 17 -17c0 -9 -7 -17 -17 -17zM128 0v486h10v-486h-10zM764 0v486h10v-486h-10zM227 0v10h266c109 0 155 55 155 128v14
c0 74 -45 128 -155 128h-266v10h266c115 0 165 -59 165 -138v-14c0 -78 -51 -138 -165 -138h-266z" />
    <glyph glyph-name="uni0432.loclBGR" horiz-adv-x="707" 
d="M100 232c0 -131 85 -215 226 -229v-10c-147 14 -236 102 -236 239v232c0 136 89 225 236 239v-10c-141 -14 -226 -99 -226 -229v-232zM493 371c93 -15 149 -77 149 -171v-10c0 -116 -82 -186 -227 -198v11c140 11 217 77 217 187v10c0 103 -69 165 -185 165h-258v10h246
c120 0 185 52 185 147v5c0 93 -78 155 -205 166v10c132 -11 215 -77 215 -176v-5c0 -83 -49 -136 -137 -151z" />
    <glyph glyph-name="uni0433.loclBGR" horiz-adv-x="688" 
d="M306 -9c-140 7 -226 55 -226 129v10c0 71 75 105 231 119l91 8c129 11 179 42 179 103v10c0 64 -70 106 -186 114v10c122 -8 196 -54 196 -124v-10c0 -66 -55 -100 -188 -112l-91 -8c-151 -13 -222 -46 -222 -110v-10c0 -68 82 -112 216 -118v-11zM306 484
c-123 -10 -208 -63 -208 -134v-5h-10v5c0 77 89 134 218 144v-10zM395 3c124 11 203 61 203 133v5h10v-5c0 -76 -85 -131 -213 -143v10z" />
    <glyph glyph-name="uni0434.loclBGR" horiz-adv-x="709" 
d="M504 60c-46 -31 -106 -50 -168 -50c-172 0 -274 86 -274 231v24c0 145 102 231 274 231c62 0 122 -18 168 -50v-12c-45 33 -106 52 -168 52c-166 0 -264 -82 -264 -221v-24c0 -139 98 -221 264 -221c62 0 123 20 168 52v-12zM380 -168c135 12 213 78 213 184v470h10v-470
c0 -111 -83 -181 -223 -194v10zM291 -178c-139 11 -228 78 -228 174v10h10v-10c0 -90 85 -153 218 -164v-10z" />
    <glyph glyph-name="uni0436.loclBGR" horiz-adv-x="1018" 
d="M504 696h10v-696h-10v696zM85 486l252 -238h78v-10h-78l-267 -238h-12v3l270 240l-255 240v3h12zM691 243l269 -240v-3h-12l-266 238h-79v10h79l251 238h12v-3z" />
    <glyph glyph-name="uni0437.loclBGR" horiz-adv-x="684" 
d="M460 166c96 -12 150 -68 150 -154v-5c0 -117 -69 -175 -221 -185v10c147 9 211 63 211 175v5c0 94 -68 148 -184 148h-187v10h175c110 0 174 54 174 147v5c0 98 -64 152 -189 162v10c130 -11 199 -69 199 -172v-5c0 -81 -46 -134 -128 -151zM84 305v-17h-10v17
c0 105 88 176 226 188v-10c-134 -11 -216 -77 -216 -178zM80 10c0 -103 82 -169 220 -178v-10c-143 10 -230 79 -230 188v17h10v-17z" />
    <glyph glyph-name="uni0438.loclBGR" horiz-adv-x="711" 
d="M506 37c-42 -29 -98 -47 -156 -47c-164 0 -252 81 -252 233v263h10v-263c0 -145 84 -223 242 -223c59 0 115 19 156 49v-12zM605 486v-486h-10v486h10z" />
    <glyph glyph-name="uni0439.loclBGR" horiz-adv-x="711" 
d="M322 580c-110 5 -168 39 -168 96v2h10v-2c0 -52 53 -81 158 -86v-10zM387 590c104 5 157 34 157 86v2h10v-2c0 -57 -58 -91 -167 -96v10zM506 37c-42 -29 -98 -47 -156 -47c-164 0 -252 81 -252 233v263h10v-263c0 -145 84 -223 242 -223c59 0 115 19 156 49v-12z
M605 486v-486h-10v486h10z" />
    <glyph glyph-name="uni045D.loclBGR" horiz-adv-x="711" 
d="M554 579l-400 90v11l400 -90v-11zM506 37c-42 -29 -98 -47 -156 -47c-164 0 -252 81 -252 233v263h10v-263c0 -145 84 -223 242 -223c59 0 115 19 156 49v-12zM605 486v-486h-10v486h10z" />
    <glyph glyph-name="uni043A.loclBGR" horiz-adv-x="687" 
d="M106 696h10v-696h-10v696zM316 243l313 -240v-3h-12l-311 238h-101v10h101l296 238h12v-3z" />
    <glyph glyph-name="uni043B.loclBGR" horiz-adv-x="697" 
d="M354 486l-275 -486h-9v3l272 483h12zM399 385l6 11l222 -393v-3h-9z" />
    <glyph glyph-name="uni043F.loclBGR" horiz-adv-x="711" 
d="M205 449c43 30 99 47 156 47c164 0 252 -81 252 -233v-263h-10v263c0 145 -84 223 -242 223c-59 0 -114 -18 -156 -48v11zM106 0v486h10v-486h-10z" />
    <glyph glyph-name="uni0442.loclBGR" horiz-adv-x="1108" 
d="M195 450c41 29 96 46 152 46c137 0 218 -83 218 -228v-268h-10v268c0 139 -76 218 -208 218c-57 0 -111 -18 -152 -48v12zM637 439c43 35 102 57 165 57c142 0 221 -83 221 -228v-268h-10v268c0 140 -76 218 -211 218c-62 0 -121 -23 -163 -58zM96 0v486h10v-486h-10z
" />
    <glyph glyph-name="uni0446.loclBGR" horiz-adv-x="747" 
d="M108 223c0 -145 84 -223 242 -223c59 0 115 19 156 49v-12c-42 -29 -98 -47 -156 -47c-164 0 -252 81 -252 233v263h10v-263zM605 10h115v-143h-10v133h-115v486h10v-476z" />
    <glyph glyph-name="uni0448.loclBGR" horiz-adv-x="1108" 
d="M472 48c-43 -36 -103 -58 -166 -58c-142 0 -221 83 -221 228v268h10v-268c0 -140 76 -218 211 -218c62 0 122 23 164 59zM913 36c-41 -28 -95 -46 -152 -46c-137 0 -218 83 -218 228v268h10v-268c0 -138 77 -218 208 -218c58 0 112 19 152 49v-13zM1012 486v-486h-10v486
h10z" />
    <glyph glyph-name="uni0449.loclBGR" horiz-adv-x="1144" 
d="M307 0c62 0 122 23 164 59l2 -11c-43 -36 -103 -58 -166 -58c-142 0 -221 83 -221 228v268h10v-268c0 -140 76 -218 211 -218zM554 218c0 -138 77 -218 208 -218c57 0 111 19 151 49v-13c-41 -28 -95 -46 -151 -46c-137 0 -218 83 -218 228v268h10v-268zM1012 10h105
v-143h-10v133h-105v486h10v-476z" />
    <glyph glyph-name="uni044C.loclBGR" horiz-adv-x="704" 
d="M332 1c-156 5 -226 63 -226 174v311h10v-311c0 -106 65 -159 216 -164v-10zM421 11c140 5 205 50 205 133v14c0 79 -55 122 -155 122h-266v10h266c105 0 165 -48 165 -132v-14c0 -89 -68 -138 -215 -143v10z" />
    <glyph glyph-name="uni044A.loclBGR" horiz-adv-x="835" 
d="M10 476v10h237v-10h-237zM247 175c0 -106 65 -159 216 -164v-10c-156 5 -226 63 -226 174v212h10v-212zM602 290c105 0 165 -48 165 -132v-14c0 -89 -68 -138 -215 -143v10c140 5 205 50 205 133v14c0 79 -55 122 -155 122h-266v10h266z" />
    <glyph glyph-name="uni044E.loclBGR" horiz-adv-x="948" 
d="M326 254c0 136 90 225 237 239v-10c-141 -14 -227 -99 -227 -229v-24c0 -128 87 -213 227 -227v-10c-146 14 -237 103 -237 237v8h-210v-238h-10v696h10v-448h210v6zM652 493c144 -15 233 -104 233 -239v-24c0 -132 -90 -222 -233 -237v11c138 14 223 99 223 226v24
c0 129 -85 214 -223 229v10z" />
    <glyph glyph-name="uni0431.loclSRB" horiz-adv-x="689" 
d="M383 682v10l193 7v-10zM383 -7v10c143 13 231 92 231 213v15c0 124 -70 191 -219 225l-179 41c-71 16 -108 49 -108 100c0 55 40 88 113 90l73 2v-10l-73 -2c-67 -2 -103 -31 -103 -80c0 -45 34 -75 100 -90l179 -41c154 -35 227 -105 227 -233v-17
c0 -127 -92 -210 -241 -223zM294 -7c-140 16 -231 106 -231 235v15c0 84 35 142 104 175l13 -2c-70 -36 -107 -89 -107 -173v-15c0 -122 88 -209 221 -224v-11z" />
    <glyph glyph-name="uni0430.ss05" horiz-adv-x="693" 
d="M290 483c-114 -13 -192 -77 -192 -164v-10h-10v10c0 92 82 161 202 174v-10zM379 493c136 -12 216 -85 216 -198v-295h-10v295c0 108 -76 176 -206 188v10zM496 254l-223 -22c-123 -12 -177 -49 -177 -121c0 -74 68 -111 204 -111c79 0 147 19 196 53v-13
c-49 -33 -115 -50 -196 -50c-144 0 -214 40 -214 121c0 78 57 118 187 131l223 22v-10z" />
    <glyph glyph-name="uni04D1.ss05" horiz-adv-x="693" 
d="M303 580c-110 5 -168 39 -168 96v2h10v-2c0 -52 53 -81 158 -86v-10zM368 590c104 5 157 34 157 86v2h10v-2c0 -57 -58 -91 -167 -96v10zM290 483c-114 -13 -192 -77 -192 -164v-10h-10v10c0 92 82 161 202 174v-10zM379 493c136 -12 216 -85 216 -198v-295h-10v295
c0 108 -76 176 -206 188v10zM496 254l-223 -22c-123 -12 -177 -49 -177 -121c0 -74 68 -111 204 -111c79 0 147 19 196 53v-13c-49 -33 -115 -50 -196 -50c-144 0 -214 40 -214 121c0 78 57 118 187 131l223 22v-10z" />
    <glyph glyph-name="uni04D3.ss05" horiz-adv-x="693" 
d="M207 604c-9 0 -17 8 -17 17c0 10 8 17 17 17c10 0 17 -7 17 -17c0 -9 -7 -17 -17 -17zM462 604c-9 0 -17 8 -17 17c0 10 8 17 17 17c10 0 17 -7 17 -17c0 -9 -7 -17 -17 -17zM290 483c-114 -13 -192 -77 -192 -164v-10h-10v10c0 92 82 161 202 174v-10zM379 493
c136 -12 216 -85 216 -198v-295h-10v295c0 108 -76 176 -206 188v10zM496 254l-223 -22c-123 -12 -177 -49 -177 -121c0 -74 68 -111 204 -111c79 0 147 19 196 53v-13c-49 -33 -115 -50 -196 -50c-144 0 -214 40 -214 121c0 78 57 118 187 131l223 22v-10z" />
    <glyph glyph-name="uni0431.ss08" horiz-adv-x="704" 
d="M411 685l195 21v-10l-195 -22v11zM322 662c-167 -30 -232 -123 -232 -328v-53c0 -167 81 -262 232 -278v-10c-157 16 -242 115 -242 288v53c0 212 68 309 242 339v-11zM179 417c47 38 113 59 185 59c167 0 277 -93 277 -235v-11c0 -133 -88 -222 -230 -237v11
c135 15 220 100 220 226v11c0 136 -106 225 -267 225c-72 0 -138 -23 -185 -63v14z" />
    <glyph glyph-name="Alpha" unicode="&#x391;" horiz-adv-x="770" 
d="M379 656h12l343 -653v-3h-11zM36 0v3l294 558l6 -12l-166 -316h331l5 -10h-342l-117 -223h-11z" />
    <glyph glyph-name="Beta" unicode="&#x392;" horiz-adv-x="785" 
d="M117 0v656h10v-656h-10zM529 333c108 -12 172 -69 172 -157v-14c0 -100 -82 -162 -214 -162h-271v10h271c127 0 204 57 204 152v14c0 94 -76 150 -204 150h-271v10h247c127 0 205 58 205 152v14c0 91 -76 144 -204 144h-248v10h248c133 0 214 -58 214 -154v-14
c0 -81 -56 -138 -149 -155z" />
    <glyph glyph-name="Gamma" unicode="&#x393;" horiz-adv-x="687" 
d="M117 656h10v-656h-10v656zM677 646h-461v10h461v-10z" />
    <glyph glyph-name="uni0394" unicode="&#x394;" horiz-adv-x="773" 
d="M667 99l-287 557h13l286 -557h-12zM724 10v-10h-675v10l282 549l6 -12l-276 -537h663z" />
    <glyph glyph-name="Epsilon" unicode="&#x395;" horiz-adv-x="723" 
d="M127 0h-10v656h10v-656zM216 656h415v-10h-415v10zM216 333h395v-10h-395v10zM216 10h415v-10h-415v10z" />
    <glyph glyph-name="Zeta" unicode="&#x396;" horiz-adv-x="696" 
d="M55 646v10h461l-9 -10h-452zM135 99l501 557h5v-10l-492 -547h-14zM55 0v10h586v-10h-586z" />
    <glyph glyph-name="Eta" unicode="&#x397;" horiz-adv-x="819" 
d="M127 0h-10v656h10v-656zM216 333h476v323h10v-656h-10v323h-476v10z" />
    <glyph glyph-name="Theta" unicode="&#x398;" horiz-adv-x="877" 
d="M483 663c185 -16 302 -139 302 -325v-21c0 -185 -116 -308 -302 -324v10c180 16 292 135 292 314v6h-674v-6c0 -179 113 -298 293 -314v-10c-186 16 -303 139 -303 324v21c0 187 116 309 303 325v-10c-180 -16 -293 -135 -293 -315v-5h674v5c0 180 -112 299 -292 315v10z
" />
    <glyph glyph-name="Iota" unicode="&#x399;" horiz-adv-x="299" 
d="M144 0v656h10v-656h-10z" />
    <glyph glyph-name="Kappa" unicode="&#x39a;" horiz-adv-x="813" 
d="M117 0v656h10v-656h-10zM216 302l494 354h13v-3l-507 -363v12zM385 302l336 -299v-3h-14l-332 295z" />
    <glyph glyph-name="Lambda" unicode="&#x39b;" horiz-adv-x="770" 
d="M379 656h12l343 -653v-3h-11zM345 568l-298 -568h-11v3l303 577z" />
    <glyph glyph-name="Mu" unicode="&#x39c;" horiz-adv-x="1029" 
d="M508 0l-391 656h11l386 -645l386 645h12l-392 -656h-12zM117 0v484l10 -17v-467h-10zM902 0v467l10 17v-484h-10z" />
    <glyph glyph-name="Nu" unicode="&#x39d;" horiz-adv-x="819" 
d="M702 0h-14l-571 656h14zM692 147v509h10v-521zM127 509l-1 -509h-9v521z" />
    <glyph glyph-name="Xi" unicode="&#x39e;" horiz-adv-x="790" 
d="M92 656h606v-10h-606v10zM390 557h10v-224h276v-10h-562v10h276v224zM400 234v-224h298v-10h-606v10h298v224h10z" />
    <glyph glyph-name="Omicron" unicode="&#x39f;" horiz-adv-x="877" 
d="M394 -7c-186 16 -303 139 -303 324v21c0 187 116 309 303 325v-10c-180 -16 -293 -135 -293 -315v-21c0 -179 113 -298 293 -314v-10zM483 3c180 16 292 135 292 314v21c0 180 -112 299 -292 315v10c185 -16 302 -139 302 -325v-21c0 -185 -116 -308 -302 -324v10z" />
    <glyph glyph-name="Pi" unicode="&#x3a0;" horiz-adv-x="799" 
d="M583 646h-456v-646h-10v656h466v-10zM672 656h10v-656h-10v656z" />
    <glyph glyph-name="Rho" unicode="&#x3a1;" horiz-adv-x="787" 
d="M127 0h-10v656h10v-656zM219 656h282c133 0 215 -63 215 -164v-14c0 -100 -83 -163 -215 -163h-282v10h282c127 0 205 58 205 153v14c0 96 -77 154 -205 154h-282v10z" />
    <glyph glyph-name="Sigma" unicode="&#x3a3;" horiz-adv-x="703" 
d="M193 99l258 229l-359 318v10h4l365 -324v-8l-254 -225h-14zM229 656h402v-10h-390zM631 10v-10h-539v10h539z" />
    <glyph glyph-name="Tau" unicode="&#x3a4;" horiz-adv-x="691" 
d="M10 646v10h671v-10h-671zM351 557v-557h-10v557h10z" />
    <glyph glyph-name="Upsilon" unicode="&#x3a5;" horiz-adv-x="726" 
d="M22 656h10l336 -356v-300h-10v297l-336 356v3zM694 656h10v-3l-275 -288l-6 6z" />
    <glyph glyph-name="Phi" unicode="&#x3a6;" horiz-adv-x="1077" 
d="M533 -40v736h10v-736h-10zM406 80c-215 0 -315 84 -315 243v10c0 161 98 243 315 243h38v-10h-38c-210 0 -305 -79 -305 -233v-10c0 -154 95 -233 305 -233h38v-10h-38zM632 80v10h43c195 0 300 79 300 233v10c0 154 -105 233 -300 233h-43v10h43c202 0 310 -82 310 -243
v-10c0 -159 -110 -243 -310 -243h-43z" />
    <glyph glyph-name="Chi" unicode="&#x3a7;" horiz-adv-x="819" 
d="M729 3v-3h-12l-627 653v3h11zM472 399l247 257h10v-3l-250 -261zM348 257l-246 -257h-12v3l251 261z" />
    <glyph glyph-name="Psi" unicode="&#x3a8;" horiz-adv-x="1057" 
d="M435 179h-45c-195 0 -308 88 -308 251v226h10v-226c0 -157 109 -241 298 -241h45v-10zM524 0v656h10v-656h-10zM623 189h45c189 0 298 84 298 241v226h10v-226c0 -163 -113 -251 -308 -251h-45v10z" />
    <glyph glyph-name="uni03A9" unicode="&#x3a9;" horiz-adv-x="880" 
d="M396 119c-189 12 -305 116 -305 262v7c0 158 116 262 305 276v-10c-182 -14 -295 -115 -295 -266v-7c0 -139 113 -240 295 -252v-10zM485 119v10c181 12 291 112 291 252v7c0 152 -111 252 -291 266v10c187 -14 301 -118 301 -276v-7c0 -147 -114 -250 -301 -262zM93 0
v10h303v-10h-303zM485 0v10h302v-10h-302z" />
    <glyph glyph-name="Alphatonos" unicode="&#x386;" horiz-adv-x="770" 
d="M26 397l20 259h10l-20 -259h-10zM379 656h12l343 -653v-3h-11zM36 0v3l294 558l6 -12l-166 -316h331l5 -10h-342l-117 -223h-11z" />
    <glyph glyph-name="Epsilontonos" unicode="&#x388;" horiz-adv-x="723" 
d="M-139 397l20 259h10l-20 -259h-10zM127 0h-10v656h10v-656zM216 656h415v-10h-415v10zM216 333h395v-10h-395v10zM216 10h415v-10h-415v10z" />
    <glyph glyph-name="Etatonos" unicode="&#x389;" horiz-adv-x="819" 
d="M-139 397l20 259h10l-20 -259h-10zM127 0h-10v656h10v-656zM216 333h476v323h10v-656h-10v323h-476v10z" />
    <glyph glyph-name="Iotatonos" unicode="&#x38a;" horiz-adv-x="299" 
d="M-139 397l20 259h10l-20 -259h-10zM144 0v656h10v-656h-10z" />
    <glyph glyph-name="Omicrontonos" unicode="&#x38c;" horiz-adv-x="877" 
d="M394 -7c-186 16 -303 139 -303 324v21c0 187 116 309 303 325v-10c-180 -16 -293 -135 -293 -315v-21c0 -179 113 -298 293 -314v-10zM483 3c180 16 292 135 292 314v21c0 180 -112 299 -292 315v10c185 -16 302 -139 302 -325v-21c0 -185 -116 -308 -302 -324v10z
M-56 397l20 259h10l-20 -259h-10z" />
    <glyph glyph-name="Upsilontonos" unicode="&#x38e;" horiz-adv-x="726" 
d="M-140 397l20 259h10l-20 -259h-10zM22 656h10l336 -356v-300h-10v297l-336 356v3zM694 656h10v-3l-275 -288l-6 6z" />
    <glyph glyph-name="Omegatonos" unicode="&#x38f;" horiz-adv-x="880" 
d="M396 119c-189 12 -305 116 -305 262v7c0 158 116 262 305 276v-10c-182 -14 -295 -115 -295 -266v-7c0 -139 113 -240 295 -252v-10zM485 119v10c181 12 291 112 291 252v7c0 152 -111 252 -291 266v10c187 -14 301 -118 301 -276v-7c0 -147 -114 -250 -301 -262z
M-36 397l20 259h10l-20 -259h-10zM93 0v10h303v-10h-303zM485 0v10h302v-10h-302z" />
    <glyph glyph-name="Iotadieresis" unicode="&#x3aa;" horiz-adv-x="299" 
d="M22 774c-9 0 -17 8 -17 17c0 10 8 17 17 17c10 0 17 -7 17 -17c0 -9 -7 -17 -17 -17zM277 774c-9 0 -17 8 -17 17c0 10 8 17 17 17c10 0 17 -7 17 -17c0 -9 -7 -17 -17 -17zM144 0v656h10v-656h-10z" />
    <glyph glyph-name="Upsilondieresis" unicode="&#x3ab;" horiz-adv-x="726" 
d="M234 774c-9 0 -17 8 -17 17c0 10 8 17 17 17c10 0 17 -7 17 -17c0 -9 -7 -17 -17 -17zM489 774c-9 0 -17 8 -17 17c0 10 8 17 17 17c10 0 17 -7 17 -17c0 -9 -7 -17 -17 -17zM22 656h10l336 -356v-300h-10v297l-336 356v3zM694 656h10v-3l-275 -288l-6 6z" />
    <glyph glyph-name="Sigma.001" horiz-adv-x="703" 
d="M193 99l258 229l-359 318v10h4l365 -324v-8l-254 -225h-14zM229 656h402v-10h-390zM631 10v-10h-539v10h539z" />
    <glyph glyph-name="Iota.ss07" horiz-adv-x="701" 
d="M47 646v10h606v-10h-606zM355 557v-458h-10v458h10zM653 10v-10h-606v10h606z" />
    <glyph glyph-name="Iotatonos.ss07" horiz-adv-x="701" 
d="M-133 397l20 259h10l-20 -259h-10zM47 646v10h606v-10h-606zM355 557v-458h-10v458h10zM653 10v-10h-606v10h606z" />
    <glyph glyph-name="Iotadieresis.ss07" horiz-adv-x="701" 
d="M222 774c-9 0 -17 8 -17 17c0 10 8 17 17 17c10 0 17 -7 17 -17c0 -9 -7 -17 -17 -17zM477 774c-9 0 -17 8 -17 17c0 10 8 17 17 17c10 0 17 -7 17 -17c0 -9 -7 -17 -17 -17zM47 646v10h606v-10h-606zM355 557v-458h-10v458h10zM653 10v-10h-606v10h606z" />
    <glyph glyph-name="alpha" unicode="&#x3b1;" horiz-adv-x="737" 
d="M503 38c-43 -30 -100 -48 -158 -48c-177 0 -282 90 -282 241v24c0 151 105 241 282 241c59 0 115 -17 158 -48v-11c-42 31 -99 49 -158 49c-170 0 -272 -87 -272 -231v-24c0 -144 102 -231 272 -231c60 0 116 18 158 50v-12zM694 0c-64 0 -102 35 -102 93v393h10v-393
c0 -53 34 -83 92 -83h43v-10h-43z" />
    <glyph glyph-name="beta" unicode="&#x3b2;" horiz-adv-x="723" 
d="M342 704v-10c-150 -12 -226 -86 -226 -220v-644h-10v644c0 140 81 218 236 230zM505 341c96 -13 153 -70 153 -156v-5c0 -125 -90 -190 -264 -190c-77 0 -140 17 -189 50v11c48 -34 111 -51 189 -51c169 0 254 60 254 180v5c0 94 -70 150 -188 150h-132v10h120
c120 0 188 59 188 162v5c0 104 -76 169 -205 181v10c134 -12 215 -83 215 -191v-5c0 -89 -52 -149 -141 -166z" />
    <glyph glyph-name="gamma" unicode="&#x3b3;" horiz-adv-x="695" 
d="M69 486h9l275 -487v-169h-10v167l-274 486v3zM617 486h9v-3l-221 -395l-5 10z" />
    <glyph glyph-name="delta" unicode="&#x3b4;" horiz-adv-x="685" 
d="M89 686v10h488v-10h-488zM258 597l216 -129c105 -63 148 -126 148 -222v-17c0 -132 -90 -221 -233 -236v10c137 14 223 99 223 226v17c0 91 -41 152 -143 213l-231 138h20zM297 459c-136 -13 -224 -88 -224 -210v-17c0 -128 87 -214 227 -228v-11
c-146 15 -237 105 -237 239v17c0 123 85 203 223 216z" />
    <glyph glyph-name="epsilon" unicode="&#x3b5;" horiz-adv-x="684" 
d="M84 127c0 -80 67 -120 219 -125v-11c-156 7 -229 51 -229 136v10c0 59 44 98 120 109c-68 14 -108 53 -108 110v10c0 80 72 122 217 129v-10c-141 -6 -207 -44 -207 -119v-10c0 -67 57 -106 154 -106h164v-10h-176c-97 0 -154 -38 -154 -103v-10zM392 494
c144 -10 222 -72 222 -182v-7h-10v7c0 105 -73 162 -212 172v10zM604 173v7h10v-7c0 -109 -78 -171 -222 -181v10c139 10 212 68 212 171z" />
    <glyph glyph-name="zeta" unicode="&#x3b6;" horiz-adv-x="599" 
d="M60 686v10h520v-10h-520zM63 206c0 88 24 145 185 258l189 133h18l-203 -144c-126 -90 -179 -139 -179 -247v-8c0 -101 80 -170 205 -184h1v-10h-1c-131 14 -215 87 -215 194v8zM368 10h103c84 0 124 -27 124 -86v-8c0 -59 -40 -86 -129 -86h-141v10h141
c85 0 119 22 119 76v8c0 54 -34 76 -114 76h-103v10z" />
    <glyph glyph-name="eta" unicode="&#x3b7;" horiz-adv-x="740" 
d="M243 448c44 30 102 48 161 48c147 0 232 -81 232 -233v-433h-10v433c0 145 -81 223 -222 223c-60 0 -118 -19 -161 -50v12zM149 0v385c0 60 -35 91 -101 91h-48v10h48c72 0 111 -35 111 -101v-385h-10z" />
    <glyph glyph-name="theta" unicode="&#x3b8;" horiz-adv-x="675" 
d="M384 663c139 -15 228 -105 228 -239v-194c0 -132 -90 -221 -228 -237v11c133 15 218 100 218 226v93h-529v-93c0 -127 86 -212 222 -226v-11c-142 15 -232 104 -232 237v194c0 135 90 224 232 239v-10c-136 -15 -222 -100 -222 -229v-91h529v91c0 128 -85 214 -218 229
v10z" />
    <glyph glyph-name="iota" unicode="&#x3b9;" horiz-adv-x="329" 
d="M251 0c-80 0 -113 31 -113 106v380h10v-380c0 -69 29 -96 103 -96h52v-10h-52z" />
    <glyph glyph-name="kappa" unicode="&#x3ba;" horiz-adv-x="681" 
d="M106 0v486h10v-486h-10zM205 231l397 255h13v-3l-410 -263v11zM367 219l263 -216v-3h-13l-259 213z" />
    <glyph glyph-name="lambda" unicode="&#x3bb;" horiz-adv-x="705" 
d="M285 599c-35 61 -58 87 -140 87h-65v10h65c76 0 108 -19 149 -92l341 -601v-3h-9zM303 386l-216 -386h-9v3l219 394z" />
    <glyph glyph-name="uni03BC" unicode="&#x3bc;" horiz-adv-x="740" 
d="M116 223c0 -145 84 -223 242 -223c55 0 107 18 146 48v-13c-39 -28 -91 -45 -146 -45c-133 0 -216 54 -242 154v-314h-10v656h10v-263zM704 10h48v-10h-48c-72 0 -111 35 -111 101v385h10v-385c0 -60 35 -91 101 -91z" />
    <glyph glyph-name="nu" unicode="&#x3bd;" horiz-adv-x="697" 
d="M354 0h-12l-272 483v3h9zM399 101l219 385h9v-3l-222 -393z" />
    <glyph glyph-name="xi" unicode="&#x3be;" horiz-adv-x="663" 
d="M397 704c147 -11 235 -80 235 -189v-7h-10v7c0 104 -82 168 -225 179v10zM90 178c0 -112 83 -168 217 -168h1v-10h-1c-138 0 -227 61 -227 178v2c0 97 59 165 151 181c-88 15 -140 71 -140 153v15c0 97 84 163 217 174v-10c-127 -10 -207 -72 -207 -164v-15
c0 -93 70 -149 185 -149h123v-10h-135c-112 0 -184 -69 -184 -175v-2zM500 10c90 0 129 -28 129 -86v-8c0 -58 -39 -86 -129 -86h-141v10h141c86 0 119 23 119 76v8c0 53 -33 76 -119 76h-103v10h103z" />
    <glyph glyph-name="omicron" unicode="&#x3bf;" horiz-adv-x="685" 
d="M300 483c-142 -15 -227 -100 -227 -229v-24c0 -128 88 -212 227 -226v-11c-146 15 -237 103 -237 237v24c0 136 91 224 237 239v-10zM389 493c143 -15 233 -104 233 -239v-24c0 -133 -90 -221 -233 -237v10c137 15 223 100 223 227v24c0 128 -85 214 -223 229v10z" />
    <glyph glyph-name="pi" unicode="&#x3c0;" horiz-adv-x="814" 
d="M15 476v10h779v-10h-779zM210 387v-387h-10v387h10zM568 387v-267c0 -74 34 -110 102 -110h104v-10h-104c-74 0 -112 40 -112 120v267h10z" />
    <glyph glyph-name="rho" unicode="&#x3c1;" horiz-adv-x="704" 
d="M326 483c-136 -14 -217 -97 -217 -228v-425h-10v425c0 136 85 223 227 238v-10zM198 52c45 -33 104 -52 166 -52c165 0 267 89 267 231v24c0 126 -84 213 -216 228v10c138 -16 226 -107 226 -238v-24c0 -148 -107 -241 -277 -241c-62 0 -120 18 -166 49v13z" />
    <glyph glyph-name="uni03C2" unicode="&#x3c2;" horiz-adv-x="665" 
d="M301 3c-149 14 -238 98 -238 228v24c0 133 93 223 238 238v-10c-140 -15 -228 -100 -228 -228v-24c0 -125 85 -205 228 -218v-10zM390 493c131 -15 225 -94 225 -198v-16h-10v16c0 98 -90 173 -215 188v10zM390 10h96c89 0 129 -27 129 -86v-8c0 -59 -40 -86 -129 -86
h-141v10h141c85 0 119 22 119 76v8c0 54 -34 76 -119 76h-96v10z" />
    <glyph glyph-name="sigma" unicode="&#x3c3;" horiz-adv-x="735" 
d="M300 -7c-146 15 -237 103 -237 237v24c0 143 108 232 281 232h386v-10h-386c-167 0 -271 -85 -271 -222v-24c0 -128 87 -213 227 -226v-11zM389 4c138 14 223 99 223 226v24c0 56 -18 100 -55 133h13c35 -33 52 -77 52 -133v-24c0 -132 -90 -222 -233 -237v11z" />
    <glyph glyph-name="tau" unicode="&#x3c4;" horiz-adv-x="572" 
d="M15 476v10h522v-10h-522zM240 387v-264c0 -72 41 -113 113 -113h154v-10h-153c-78 0 -124 45 -124 123v264h10z" />
    <glyph glyph-name="upsilon" unicode="&#x3c5;" horiz-adv-x="704" 
d="M310 -7c-134 15 -212 97 -212 228v265h10v-265c0 -124 74 -203 202 -217v-11zM399 4c125 14 197 93 197 217v265h10v-265c0 -130 -76 -213 -207 -228v11z" />
    <glyph glyph-name="phi" unicode="&#x3c6;" horiz-adv-x="968" 
d="M479 -170v866h10v-866h-10zM357 0c-168 0 -284 87 -284 235v14c0 150 115 237 284 237h33v-10h-33c-163 0 -274 -83 -274 -227v-14c0 -142 112 -225 274 -225h33v-10h-33zM578 0v10h33c162 0 274 83 274 225v14c0 144 -111 227 -274 227h-33v10h33
c169 0 284 -87 284 -237v-14c0 -148 -116 -235 -284 -235h-33z" />
    <glyph glyph-name="chi" unicode="&#x3c7;" horiz-adv-x="656" 
d="M62 483v3h10l526 -653v-3h-10zM385 240l199 246h10v-3l-203 -251zM270 83l-202 -253h-10v3l206 257z" />
    <glyph glyph-name="psi" unicode="&#x3c8;" horiz-adv-x="898" 
d="M444 -170v866h10v-866h-10zM355 0h-13c-150 0 -244 84 -244 235v251h10v-251c0 -145 90 -225 234 -225h13v-10zM543 10h13c144 0 234 80 234 225v251h10v-251c0 -151 -94 -235 -244 -235h-13v10z" />
    <glyph glyph-name="omega" unicode="&#x3c9;" horiz-adv-x="968" 
d="M294 -10c-143 0 -231 92 -231 240v24c0 148 88 232 241 232h34v-10h-34c-147 0 -231 -81 -231 -222v-24c0 -142 84 -230 221 -230c11 0 21 1 31 2v-10c-10 -1 -20 -2 -31 -2zM674 -10c-11 0 -21 1 -31 2v10c10 -1 20 -2 31 -2c137 0 221 88 221 230v24
c0 141 -84 222 -231 222h-34v10h34c153 0 241 -84 241 -232v-24c0 -148 -88 -240 -231 -240zM479 89v278h10v-278h-10z" />
    <glyph glyph-name="iotatonos" unicode="&#x3af;" horiz-adv-x="329" 
d="M138 559l20 259h10l-20 -259h-10zM251 0c-80 0 -113 31 -113 106v380h10v-380c0 -69 29 -96 103 -96h52v-10h-52z" />
    <glyph glyph-name="iotadieresis" unicode="&#x3ca;" horiz-adv-x="329" 
d="M15 604c-9 0 -17 8 -17 17c0 10 8 17 17 17c10 0 17 -7 17 -17c0 -9 -7 -17 -17 -17zM270 604c-9 0 -17 8 -17 17c0 10 8 17 17 17c10 0 17 -7 17 -17c0 -9 -7 -17 -17 -17zM251 0c-80 0 -113 31 -113 106v380h10v-380c0 -69 29 -96 103 -96h52v-10h-52z" />
    <glyph glyph-name="iotadieresistonos" unicode="&#x390;" horiz-adv-x="329" 
d="M135 559l20 259h10l-20 -259h-10zM-5 604c-9 0 -17 8 -17 17c0 10 8 17 17 17c10 0 17 -7 17 -17c0 -9 -7 -17 -17 -17zM290 604c-9 0 -17 8 -17 17c0 10 8 17 17 17c10 0 17 -7 17 -17c0 -9 -7 -17 -17 -17zM251 0c-80 0 -113 31 -113 106v380h10v-380
c0 -69 29 -96 103 -96h52v-10h-52z" />
    <glyph glyph-name="upsilontonos" unicode="&#x3cd;" horiz-adv-x="704" 
d="M347 559l20 259h10l-20 -259h-10zM310 -7c-134 15 -212 97 -212 228v265h10v-265c0 -124 74 -203 202 -217v-11zM399 4c125 14 197 93 197 217v265h10v-265c0 -130 -76 -213 -207 -228v11z" />
    <glyph glyph-name="upsilondieresis" unicode="&#x3cb;" horiz-adv-x="704" 
d="M224 604c-9 0 -17 8 -17 17c0 10 8 17 17 17c10 0 17 -7 17 -17c0 -9 -7 -17 -17 -17zM479 604c-9 0 -17 8 -17 17c0 10 8 17 17 17c10 0 17 -7 17 -17c0 -9 -7 -17 -17 -17zM310 -7c-134 15 -212 97 -212 228v265h10v-265c0 -124 74 -203 202 -217v-11zM399 4
c125 14 197 93 197 217v265h10v-265c0 -130 -76 -213 -207 -228v11z" />
    <glyph glyph-name="upsilondieresistonos" unicode="&#x3b0;" horiz-adv-x="704" 
d="M344 559l20 259h10l-20 -259h-10zM204 604c-9 0 -17 8 -17 17c0 10 8 17 17 17c10 0 17 -7 17 -17c0 -9 -7 -17 -17 -17zM499 604c-9 0 -17 8 -17 17c0 10 8 17 17 17c10 0 17 -7 17 -17c0 -9 -7 -17 -17 -17zM310 -7c-134 15 -212 97 -212 228v265h10v-265
c0 -124 74 -203 202 -217v-11zM399 4c125 14 197 93 197 217v265h10v-265c0 -130 -76 -213 -207 -228v11z" />
    <glyph glyph-name="omicrontonos" unicode="&#x3cc;" horiz-adv-x="685" 
d="M338 559l20 259h10l-20 -259h-10zM300 483c-142 -15 -227 -100 -227 -229v-24c0 -128 88 -212 227 -226v-11c-146 15 -237 103 -237 237v24c0 136 91 224 237 239v-10zM389 493c143 -15 233 -104 233 -239v-24c0 -133 -90 -221 -233 -237v10c137 15 223 100 223 227v24
c0 128 -85 214 -223 229v10z" />
    <glyph glyph-name="omegatonos" unicode="&#x3ce;" horiz-adv-x="968" 
d="M479 559l20 259h10l-20 -259h-10zM294 -10c-143 0 -231 92 -231 240v24c0 148 88 232 241 232h34v-10h-34c-147 0 -231 -81 -231 -222v-24c0 -142 84 -230 221 -230c11 0 21 1 31 2v-10c-10 -1 -20 -2 -31 -2zM674 -10c-11 0 -21 1 -31 2v10c10 -1 20 -2 31 -2
c137 0 221 88 221 230v24c0 141 -84 222 -231 222h-34v10h34c153 0 241 -84 241 -232v-24c0 -148 -88 -240 -231 -240zM479 89v278h10v-278h-10z" />
    <glyph glyph-name="alphatonos" unicode="&#x3ac;" horiz-adv-x="737" 
d="M359 559l20 259h10l-20 -259h-10zM503 38c-43 -30 -100 -48 -158 -48c-177 0 -282 90 -282 241v24c0 151 105 241 282 241c59 0 115 -17 158 -48v-11c-42 31 -99 49 -158 49c-170 0 -272 -87 -272 -231v-24c0 -144 102 -231 272 -231c60 0 116 18 158 50v-12zM694 0
c-64 0 -102 35 -102 93v393h10v-393c0 -53 34 -83 92 -83h43v-10h-43z" />
    <glyph glyph-name="epsilontonos" unicode="&#x3ad;" horiz-adv-x="684" 
d="M372 818l-20 -259h-10l20 259h10zM84 127c0 -80 67 -120 219 -125v-11c-156 7 -229 51 -229 136v10c0 59 44 98 120 109c-68 14 -108 53 -108 110v10c0 80 72 122 217 129v-10c-141 -6 -207 -44 -207 -119v-10c0 -67 57 -106 154 -106h164v-10h-176
c-97 0 -154 -38 -154 -103v-10zM392 494c144 -10 222 -72 222 -182v-7h-10v7c0 105 -73 162 -212 172v10zM604 173v7h10v-7c0 -109 -78 -171 -222 -181v10c139 10 212 68 212 171z" />
    <glyph glyph-name="etatonos" unicode="&#x3ae;" horiz-adv-x="740" 
d="M398 559l20 259h10l-20 -259h-10zM243 448c44 30 102 48 161 48c147 0 232 -81 232 -233v-433h-10v433c0 145 -81 223 -222 223c-60 0 -118 -19 -161 -50v12zM149 0v385c0 60 -35 91 -101 91h-48v10h48c72 0 111 -35 111 -101v-385h-10z" />
    <glyph glyph-name="zeta.ss09" horiz-adv-x="599" 
d="M60 686v10h520v-10h-520zM63 206c0 88 24 145 185 258l189 133h18l-203 -144c-126 -90 -179 -139 -179 -247v-8c0 -101 80 -170 205 -184h1v-10h-1c-131 14 -215 87 -215 194v8zM585 -143v52c0 63 -31 91 -99 91h-118v10h118c73 0 109 -33 109 -101v-52h-10z" />
    <glyph glyph-name="xi.ss09" horiz-adv-x="663" 
d="M397 704c147 -11 235 -80 235 -189v-7h-10v7c0 104 -82 168 -225 179v10zM90 178c0 -112 83 -168 217 -168h1v-10h-1c-138 0 -227 61 -227 178v2c0 97 59 165 151 181c-88 15 -140 71 -140 153v15c0 97 84 163 217 174v-10c-127 -10 -207 -72 -207 -164v-15
c0 -93 70 -149 185 -149h123v-10h-135c-112 0 -184 -69 -184 -175v-2zM519 10c76 0 113 -33 113 -101v-52h-10v52c0 63 -32 91 -103 91h-122v10h122z" />
    <glyph glyph-name="uni03C2.ss09" horiz-adv-x="665" 
d="M301 3c-149 14 -238 98 -238 228v24c0 133 92 223 238 238v-10c-140 -15 -228 -100 -228 -228v-24c0 -125 86 -205 228 -218v-10zM390 493c131 -14 225 -94 225 -198v-16h-10v16c0 98 -90 174 -215 188v10zM390 10h112c76 0 113 -33 113 -101v-52h-10v52
c0 63 -32 91 -103 91h-112v10z" />
    <glyph glyph-name="zero" unicode="0" horiz-adv-x="817" 
d="M365 -7c-156 16 -257 114 -257 254v161c0 142 101 240 257 255v-10c-150 -15 -247 -109 -247 -245v-161c0 -135 97 -228 247 -244v-10zM454 3c148 16 246 111 246 244v161c0 134 -98 230 -246 245v10c153 -16 255 -115 255 -255v-161c0 -140 -102 -238 -255 -254v10z" />
    <glyph glyph-name="one" unicode="1" horiz-adv-x="519" 
d="M330 656h9v-656h-9v612c-21 -47 -81 -71 -178 -71h-116v10h116c118 0 178 35 178 105z" />
    <glyph glyph-name="two" unicode="2" horiz-adv-x="755" 
d="M329 654c-134 -11 -208 -75 -208 -182v-20h-10v20c0 111 78 180 218 192v-10zM244 99l103 63c224 137 276 193 276 295v14c0 106 -73 172 -205 183v10c137 -12 215 -82 215 -193v-14c0 -106 -55 -165 -274 -299l-97 -59h-18zM670 10v-10h-572v10h572z" />
    <glyph glyph-name="three" unicode="3" horiz-adv-x="790" 
d="M656 656v-10h-551v10h551zM390 383c181 0 279 -65 279 -184v-14c0 -116 -85 -182 -243 -193v10c152 10 233 73 233 183v14c0 113 -94 174 -268 174h-83v10l219 174h17l-219 -174h65zM106 144c0 -75 94 -132 231 -141v-11c-143 11 -241 71 -241 152v10h10v-10z" />
    <glyph glyph-name="four" unicode="4" horiz-adv-x="898" 
d="M358 653c-55 -147 -135 -296 -248 -465h389v-10h-401v10c123 186 196 324 250 468h10v-3zM822 188v-10h-225v-178h-9v535h9v-347h225z" />
    <glyph glyph-name="five" unicode="5" horiz-adv-x="801" 
d="M638 656v-10h-511l1 10h510zM390 413c174 0 290 -78 290 -196v-31c0 -106 -98 -181 -244 -194v11c141 12 234 83 234 183v31c0 112 -111 186 -279 186c-150 0 -269 -67 -275 -153v-2h-11l18 309h10l-14 -261c35 70 139 117 271 117zM115 144c0 -74 96 -131 232 -141v-11
c-142 11 -242 72 -242 152v3h10v-3z" />
    <glyph glyph-name="six" unicode="6" horiz-adv-x="786" 
d="M446 664c144 -12 237 -83 237 -184v-10h-10v10c0 95 -89 163 -227 174v10zM357 -7c-151 14 -249 101 -249 224v203c0 139 94 230 249 243v-10c-148 -13 -239 -101 -239 -233v-203c0 -116 96 -200 239 -214v-10zM446 3c148 11 239 80 239 186v21c0 120 -93 178 -284 178
c-75 0 -144 -21 -194 -54v13c50 32 119 51 194 51c197 0 294 -62 294 -188v-21c0 -113 -94 -185 -249 -197v11z" />
    <glyph glyph-name="seven" unicode="7" horiz-adv-x="757" 
d="M82 656h566v-10h-566v10zM574 557c-156 -192 -252 -397 -252 -547v-10h-10v10c0 148 94 353 250 547h12z" />
    <glyph glyph-name="eight" unicode="8" horiz-adv-x="853" 
d="M140 499c0 96 94 155 242 165v-10c-143 -9 -232 -64 -232 -155v-12c0 -89 88 -144 232 -153v-10c-169 -7 -261 -59 -261 -155v-12c0 -95 92 -148 261 -155v-11c-176 8 -271 65 -271 166v12c0 92 79 146 224 161c-121 17 -195 73 -195 157v12zM518 330
c146 -15 224 -69 224 -161v-12c0 -102 -94 -158 -271 -166v11c170 7 261 60 261 155v12c0 96 -91 148 -261 155v10c143 9 232 64 232 153v12c0 90 -89 146 -232 155v10c149 -10 242 -68 242 -165v-12c0 -84 -74 -140 -195 -157z" />
    <glyph glyph-name="nine" unicode="9" horiz-adv-x="786" 
d="M341 655c-149 -11 -240 -81 -240 -187v-21c0 -120 93 -178 284 -178c75 0 145 21 194 54v-12c-50 -33 -119 -52 -194 -52c-197 0 -294 62 -294 188v21c0 113 94 186 250 197v-10zM430 664c150 -13 248 -101 248 -224v-203c0 -139 -94 -229 -248 -243v10
c147 14 238 101 238 233v203c0 116 -96 201 -238 214v10zM341 -7c-144 12 -238 83 -238 184v10h10v-10c0 -95 90 -162 228 -173v-11z" />
    <glyph glyph-name="uni24FF" unicode="&#x24ff;" horiz-adv-x="853" 
d="M428 -13c253 0 415 132 415 338v5c0 206 -162 339 -415 339s-418 -134 -418 -339v-5c0 -205 165 -338 418 -338zM398 117c-106 10 -176 73 -176 161v99c0 90 69 153 176 162v-10c-101 -9 -166 -68 -166 -152v-99c0 -83 65 -141 166 -151v-10zM458 127
c100 10 164 69 164 151v99c0 84 -65 143 -164 152v10c104 -10 174 -73 174 -162v-99c0 -88 -68 -151 -174 -161v10z" />
    <glyph glyph-name="uni2776" unicode="&#x2776;" horiz-adv-x="853" 
d="M428 -13c253 0 415 132 415 338v5c0 206 -162 339 -415 339s-418 -134 -418 -339v-5c0 -205 165 -338 418 -338zM193 461v10h128c74 0 113 22 113 65h10v-344h-10v307c-17 -25 -54 -38 -113 -38h-128zM193 122v10h474v-10h-474z" />
    <glyph glyph-name="uni2777" unicode="&#x2777;" horiz-adv-x="853" 
d="M428 -13c253 0 415 132 415 338v5c0 206 -162 339 -415 339s-418 -134 -418 -339v-5c0 -205 165 -338 418 -338zM394 531c-97 -6 -149 -45 -149 -112v-13h-10v13c0 71 58 115 159 122v-10zM454 541c100 -7 157 -52 157 -122v-9c0 -62 -27 -100 -183 -182l-67 -36h-21
l82 43c140 74 179 111 179 175v9c0 66 -52 105 -147 112v10zM637 132v-10h-411v10h411z" />
    <glyph glyph-name="uni2778" unicode="&#x2778;" horiz-adv-x="853" 
d="M428 -13c253 0 415 132 415 338v5c0 206 -162 339 -415 339s-418 -134 -418 -339v-5c0 -205 165 -338 418 -338zM224 525v10h385v-10h-385zM447 117v10c105 6 161 45 161 112v9c0 69 -64 106 -184 106h-58v11l140 100h18l-143 -101h43c125 0 194 -41 194 -116v-9
c0 -73 -61 -116 -171 -122zM387 118c-100 5 -169 44 -169 96v7h10v-7c0 -47 65 -81 159 -86v-10z" />
    <glyph glyph-name="uni2779" unicode="&#x2779;" horiz-adv-x="853" 
d="M428 -13c253 0 415 132 415 338v5c0 206 -162 339 -415 339s-418 -134 -418 -339v-5c0 -205 165 -338 418 -338zM184 233v9c76 115 124 202 158 294h11v-2c-36 -92 -86 -186 -158 -292h269v-9h-280zM524 122v338h10v-218h152v-9h-152v-111h-10z" />
    <glyph glyph-name="uni277A" unicode="&#x277a;" horiz-adv-x="853" 
d="M428 -13c253 0 415 132 415 338v5c0 206 -162 339 -415 339s-418 -134 -418 -339v-5c0 -205 165 -338 418 -338zM237 526l1 10h353v-10h-354zM450 118v10c96 7 160 51 160 112v19c0 69 -75 114 -191 114c-102 0 -183 -41 -187 -94v-1h-10l12 188h10l-10 -154
c27 43 98 71 185 71c121 0 201 -50 201 -124v-19c0 -67 -68 -115 -170 -122zM390 118c-99 6 -168 45 -168 96v2h10v-2c0 -46 65 -81 158 -86v-10z" />
    <glyph glyph-name="uni277B" unicode="&#x277b;" horiz-adv-x="853" 
d="M428 -13c253 0 415 132 415 338v5c0 206 -162 339 -415 339s-418 -134 -418 -339v-5c0 -205 165 -338 418 -338zM396 118c-105 8 -175 63 -175 141v128c0 88 68 145 175 154v-11c-100 -8 -165 -61 -165 -143v-128c0 -71 66 -123 165 -131v-10zM456 541
c102 -7 169 -52 169 -117v-6h-10v6c0 59 -62 100 -159 107v10zM291 342c35 20 84 32 136 32c136 0 205 -40 205 -118v-12c0 -72 -66 -119 -176 -126v10c103 7 166 50 166 115v13c0 72 -64 108 -195 108c-52 0 -101 -13 -136 -34v12z" />
    <glyph glyph-name="uni277C" unicode="&#x277c;" horiz-adv-x="853" 
d="M428 -13c253 0 415 132 415 338v5c0 206 -162 339 -415 339s-418 -134 -418 -339v-5c0 -205 165 -338 418 -338zM207 525v10h419v-10h-419zM566 465c-111 -113 -179 -235 -179 -336v-7h-10v7c0 103 65 222 176 336h13z" />
    <glyph glyph-name="uni277D" unicode="&#x277d;" horiz-adv-x="853" 
d="M428 -13c253 0 415 132 415 338v5c0 206 -162 339 -415 339s-418 -134 -418 -339v-5c0 -205 165 -338 418 -338zM217 222v8c0 55 48 89 136 101c-73 13 -117 47 -117 97v8c0 61 63 99 160 105v-10c-93 -6 -150 -40 -150 -95v-7c0 -55 57 -88 150 -94v-10
c-111 -5 -169 -38 -169 -96v-7c0 -58 59 -90 169 -95v-10c-117 5 -179 41 -179 105zM456 117v10c111 5 170 37 170 95v7c0 58 -59 91 -170 96v10c93 6 150 39 150 94v7c0 55 -57 89 -150 95v10c98 -6 160 -44 160 -105v-8c0 -50 -43 -84 -116 -97c88 -12 136 -46 136 -101
v-8c0 -65 -62 -100 -180 -105z" />
    <glyph glyph-name="uni277E" unicode="&#x277e;" horiz-adv-x="853" 
d="M425 669c-253 0 -415 -132 -415 -338v-5c0 -206 162 -339 415 -339s418 134 418 339v5c0 205 -165 338 -418 338zM562 315c-35 -20 -83 -33 -136 -33c-136 0 -205 40 -205 118v12c0 73 66 120 176 127v-10c-103 -7 -166 -50 -166 -116v-13c0 -72 64 -108 195 -108
c53 0 102 13 136 34v-11zM457 538c106 -8 175 -63 175 -141v-128c0 -88 -67 -145 -175 -153v10c101 8 165 61 165 143v128c0 71 -66 123 -165 131v10zM397 116c-101 7 -169 52 -169 116v6h10v-6c0 -59 63 -99 159 -106v-10z" />
    <glyph glyph-name="uni24EA" unicode="&#x24ea;" horiz-adv-x="853" 
d="M833 357v1c0 173 -158 301 -405 301s-408 -130 -408 -301v-1h-10v1c0 177 165 311 418 311s415 -133 415 -311v-1h-10zM397 118c-106 10 -176 73 -176 161v99c0 90 69 153 176 162v-10c-101 -9 -166 -68 -166 -152v-99c0 -83 65 -141 166 -151v-10zM457 128
c100 10 164 69 164 151v99c0 84 -65 143 -164 152v10c104 -10 174 -73 174 -162v-99c0 -88 -68 -151 -174 -161v10zM843 297v-1c0 -177 -162 -309 -415 -309s-418 133 -418 309v1h10v-1c0 -170 160 -299 408 -299c247 0 405 128 405 299v1h10z" />
    <glyph glyph-name="uni2460" unicode="&#x2460;" horiz-adv-x="853" 
d="M833 357v1c0 173 -158 301 -405 301s-408 -130 -408 -301v-1h-10v1c0 177 165 311 418 311s415 -133 415 -311v-1h-10zM217 461v10h128c74 0 113 22 113 65h10v-344h-10v307c-17 -25 -54 -38 -113 -38h-128zM843 297v-1c0 -177 -162 -309 -415 -309s-418 133 -418 309v1
h10v-1c0 -170 160 -299 408 -299c247 0 405 128 405 299v1h10zM217 122v10h474v-10h-474z" />
    <glyph glyph-name="uni2461" unicode="&#x2461;" horiz-adv-x="853" 
d="M833 357v1c0 173 -158 301 -405 301s-408 -130 -408 -301v-1h-10v1c0 177 165 311 418 311s415 -133 415 -311v-1h-10zM394 531c-97 -6 -149 -45 -149 -112v-13h-10v13c0 71 58 115 159 122v-10zM454 541c100 -7 157 -52 157 -122v-9c0 -62 -27 -100 -183 -182l-67 -36
h-21l82 43c140 74 179 111 179 175v9c0 66 -52 105 -147 112v10zM843 297v-1c0 -177 -162 -309 -415 -309s-418 133 -418 309v1h10v-1c0 -170 160 -299 408 -299c247 0 405 128 405 299v1h10zM637 132v-10h-411v10h411z" />
    <glyph glyph-name="uni2462" unicode="&#x2462;" horiz-adv-x="853" 
d="M428 669c253 0 415 -133 415 -311v-1h-10v1c0 173 -158 301 -405 301s-408 -130 -408 -301v-1h-10v1c0 177 165 311 418 311zM224 525v10h385v-10h-385zM447 127c105 6 161 45 161 112v9c0 69 -64 106 -184 106h-58v11l140 100h18l-143 -101h43c125 0 194 -41 194 -116
v-9c0 -73 -61 -116 -171 -122v10zM833 296v1h10v-1c0 -177 -162 -309 -415 -309s-418 133 -418 309v1h10v-1c0 -170 160 -299 408 -299c247 0 405 128 405 299zM218 214v7h10v-7c0 -47 65 -81 159 -86v-10c-100 5 -169 44 -169 96z" />
    <glyph glyph-name="uni2463" unicode="&#x2463;" horiz-adv-x="853" 
d="M833 357v1c0 173 -158 301 -405 301s-408 -130 -408 -301v-1h-10v1c0 177 165 311 418 311s415 -133 415 -311v-1h-10zM176 233v9c76 115 124 202 158 294h11v-2c-36 -92 -86 -186 -158 -292h269v-9h-280zM516 122v338h10v-218h152v-9h-152v-111h-10zM843 297v-1
c0 -177 -162 -309 -415 -309s-418 133 -418 309v1h10v-1c0 -170 160 -299 408 -299c247 0 405 128 405 299v1h10z" />
    <glyph glyph-name="uni2464" unicode="&#x2464;" horiz-adv-x="853" 
d="M428 669c253 0 415 -133 415 -311v-1h-10v1c0 173 -158 301 -405 301s-408 -130 -408 -301v-1h-10v1c0 177 165 311 418 311zM591 536v-10h-354l1 10h353zM222 278l12 188h10l-10 -153c27 42 98 70 185 70c121 0 201 -50 201 -124v-19c0 -67 -68 -115 -170 -122v10
c96 7 160 51 160 112v19c0 69 -75 114 -191 114c-101 0 -183 -41 -187 -94v-1h-10zM833 296v1h10v-1c0 -177 -162 -309 -415 -309s-418 133 -418 309v1h10v-1c0 -170 160 -299 408 -299c247 0 405 128 405 299zM222 214v2h10v-2c0 -46 65 -81 158 -86v-10
c-99 6 -168 45 -168 96z" />
    <glyph glyph-name="uni2465" unicode="&#x2465;" horiz-adv-x="853" 
d="M833 357v1c0 173 -158 301 -405 301s-408 -130 -408 -301v-1h-10v1c0 177 165 311 418 311s415 -133 415 -311v-1h-10zM396 118c-105 8 -175 63 -175 141v128c0 88 68 145 175 154v-11c-100 -8 -165 -61 -165 -143v-128c0 -71 66 -123 165 -131v-10zM456 541
c102 -7 169 -52 169 -117v-6h-10v6c0 59 -62 100 -159 107v10zM291 342c35 20 84 32 136 32c136 0 205 -40 205 -118v-12c0 -72 -66 -119 -176 -126v10c103 7 166 50 166 115v13c0 72 -64 108 -195 108c-52 0 -101 -13 -136 -34v12zM843 297v-1c0 -177 -162 -309 -415 -309
s-418 133 -418 309v1h10v-1c0 -170 160 -299 408 -299c247 0 405 128 405 299v1h10z" />
    <glyph glyph-name="uni2466" unicode="&#x2466;" horiz-adv-x="853" 
d="M833 357v1c0 173 -158 301 -405 301s-408 -130 -408 -301v-1h-10v1c0 177 165 311 418 311s415 -133 415 -311v-1h-10zM236 525v10h419v-10h-419zM595 465c-111 -113 -179 -235 -179 -336v-7h-10v7c0 103 65 222 176 336h13zM843 297v-1c0 -177 -162 -309 -415 -309
s-418 133 -418 309v1h10v-1c0 -170 160 -299 408 -299c247 0 405 128 405 299v1h10z" />
    <glyph glyph-name="uni2467" unicode="&#x2467;" horiz-adv-x="853" 
d="M833 357v1c0 173 -158 301 -405 301s-408 -130 -408 -301v-1h-10v1c0 177 165 311 418 311s415 -133 415 -311v-1h-10zM217 222v8c0 55 48 89 136 101c-73 13 -117 47 -117 97v8c0 61 63 99 160 105v-10c-93 -6 -150 -40 -150 -95v-7c0 -55 57 -88 150 -94v-10
c-111 -5 -169 -38 -169 -96v-7c0 -58 59 -90 169 -95v-10c-117 5 -179 41 -179 105zM456 117v10c111 5 170 37 170 95v7c0 58 -59 91 -170 96v10c93 6 150 39 150 94v7c0 55 -57 89 -150 95v10c98 -6 160 -44 160 -105v-8c0 -50 -43 -84 -116 -97c88 -12 136 -46 136 -101
v-8c0 -65 -62 -100 -180 -105zM843 297v-1c0 -177 -162 -309 -415 -309s-418 133 -418 309v1h10v-1c0 -170 160 -299 408 -299c247 0 405 128 405 299v1h10z" />
    <glyph glyph-name="uni2468" unicode="&#x2468;" horiz-adv-x="853" 
d="M10 359v1c0 177 162 309 415 309s418 -133 418 -309v-1h-10v1c0 170 -160 299 -408 299c-247 0 -405 -128 -405 -299v-1h-10zM562 315c-35 -20 -83 -33 -136 -33c-136 0 -205 40 -205 118v12c0 73 66 120 176 127v-10c-103 -7 -166 -50 -166 -116v-13
c0 -72 64 -108 195 -108c53 0 102 13 136 34v-11zM457 538c106 -8 175 -63 175 -141v-128c0 -88 -67 -145 -175 -153v10c101 8 165 61 165 143v128c0 71 -66 123 -165 131v10zM20 299v-1c0 -173 158 -301 405 -301s408 130 408 301v1h10v-1c0 -177 -165 -311 -418 -311
s-415 133 -415 311v1h10zM397 116c-101 7 -169 52 -169 116v6h10v-6c0 -59 63 -99 159 -106v-10z" />
    <glyph glyph-name="three.ss10" horiz-adv-x="793" 
d="M130 482v-10h-10v10c0 103 84 171 223 182v-10c-133 -11 -213 -74 -213 -172zM489 332c117 -14 184 -70 184 -154v-14c0 -103 -84 -163 -241 -172v10c149 9 231 66 231 162v14c0 93 -90 149 -239 149h-165v10h164c144 0 225 53 225 148v14c0 92 -77 146 -216 155v10
c145 -9 226 -67 226 -165v-14c0 -85 -60 -138 -169 -153zM115 174c0 -99 84 -161 228 -171v-11c-149 11 -238 78 -238 182v10h10v-10z" />
    <glyph glyph-name="uni2778.ss10" horiz-adv-x="853" 
d="M428 -13c253 0 415 132 415 338v5c0 206 -162 339 -415 339s-418 -134 -418 -339v-5c0 -205 165 -338 418 -338zM233 420v6c0 66 60 108 157 115v-10c-92 -7 -147 -45 -147 -105v-6h-10zM331 326v10h113c100 0 155 33 155 92v8c0 56 -52 90 -149 95v10
c103 -6 159 -43 159 -105v-8c0 -51 -37 -85 -108 -97c75 -11 118 -45 118 -96v-9c0 -66 -59 -103 -169 -109v10c103 6 159 40 159 99v9c0 57 -61 91 -164 91h-114zM223 233v6h10v-6c0 -61 59 -99 157 -105v-10c-103 6 -167 48 -167 115z" />
    <glyph glyph-name="uni2462.ss10" horiz-adv-x="853" 
d="M833 357v1c0 173 -158 301 -405 301s-408 -130 -408 -301v-1h-10v1c0 177 165 311 418 311s415 -133 415 -311v-1h-10zM233 420v6c0 66 60 108 157 115v-10c-92 -7 -147 -45 -147 -105v-6h-10zM331 326v10h113c100 0 155 33 155 92v8c0 56 -52 90 -149 95v10
c103 -6 159 -43 159 -105v-8c0 -51 -37 -85 -108 -97c75 -11 118 -45 118 -96v-9c0 -66 -59 -103 -169 -109v10c103 6 159 40 159 99v9c0 57 -61 91 -164 91h-114zM843 297v-1c0 -177 -162 -309 -415 -309s-418 133 -418 309v1h10v-1c0 -170 160 -299 408 -299
c247 0 405 128 405 299v1h10zM223 233v6h10v-6c0 -61 59 -99 157 -105v-10c-103 6 -167 48 -167 115z" />
    <glyph glyph-name="zero.tf" horiz-adv-x="816" 
d="M364 653c-148 -15 -246 -109 -246 -244v-162c0 -135 98 -228 246 -244v-10c-154 16 -256 114 -256 254v162c0 141 102 239 256 254v-10zM453 663c154 -16 255 -114 255 -254v-162c0 -140 -101 -238 -255 -254v11c148 15 246 110 246 243v162c0 134 -98 228 -246 244v10z
" />
    <glyph glyph-name="one.tf" horiz-adv-x="816" 
d="M457 611c-22 -46 -81 -69 -168 -69h-189v10h189c108 0 168 35 168 105h10v-558h-10v512zM100 10h697v-10h-697v10z" />
    <glyph glyph-name="two.tf" horiz-adv-x="816" 
d="M359 655c-143 -11 -221 -74 -221 -182v-20h-10v20c0 112 83 181 231 192v-10zM268 99l108 63c229 132 292 196 292 296v14c0 108 -80 172 -220 183v10c146 -11 230 -80 230 -193v-14c0 -105 -64 -171 -289 -300l-101 -59h-20zM716 10v-10h-602v10h602z" />
    <glyph glyph-name="three.tf" horiz-adv-x="816" 
d="M675 656v-10h-564v10h564zM403 384c185 0 285 -66 285 -185v-14c0 -116 -88 -183 -250 -193v10c156 10 240 73 240 183v14c0 113 -96 175 -274 175h-85v10l226 173h15l-226 -173h69zM112 144c0 -76 97 -132 237 -142v-10c-146 10 -247 71 -247 152v10h10v-10z" />
    <glyph glyph-name="four.tf" horiz-adv-x="816" 
d="M313 654c-53 -149 -128 -297 -234 -466h371v-10h-383v10c114 184 185 323 236 469h10v-3zM760 188v-10h-211v-178h-10v536h10v-348h211z" />
    <glyph glyph-name="five.tf" horiz-adv-x="816" 
d="M669 657v-10h-518l1 10h517zM418 414c176 0 294 -79 294 -197v-31c0 -106 -100 -181 -248 -194v11c142 12 238 83 238 183v31c0 113 -112 187 -284 187c-151 0 -272 -67 -278 -154v-2h-11l18 310h10l-14 -263c35 71 142 119 275 119zM139 144c0 -75 98 -132 236 -141v-11
c-144 11 -246 72 -246 152v3h10v-3z" />
    <glyph glyph-name="six.tf" horiz-adv-x="816" 
d="M461 665c148 -11 245 -83 245 -184v-10h-10v10c0 96 -93 163 -235 174v10zM372 -7c-154 14 -256 101 -256 224v204c0 139 98 230 256 243v-10c-151 -13 -246 -100 -246 -233v-204c0 -116 100 -200 246 -214v-10zM461 3c152 10 247 80 247 186v21c0 120 -95 179 -292 179
c-78 0 -150 -21 -201 -55v12c51 33 123 53 201 53c203 0 302 -63 302 -189v-21c0 -113 -98 -186 -257 -197v11z" />
    <glyph glyph-name="seven.tf" horiz-adv-x="816" 
d="M86 646v10h625v-10h-625zM624 557c-173 -183 -276 -381 -276 -547v-10h-10v10c0 168 99 362 273 547h13z" />
    <glyph glyph-name="eight.tf" horiz-adv-x="816" 
d="M130 500c0 96 91 155 234 165v-10c-137 -9 -224 -64 -224 -155v-12c0 -88 85 -144 224 -154v-10c-164 -7 -252 -59 -252 -155v-12c0 -95 88 -147 252 -155v-11c-170 8 -262 65 -262 166v12c0 92 76 146 218 161c-118 18 -190 74 -190 158v12zM496 330
c142 -15 219 -69 219 -161v-12c0 -102 -91 -158 -262 -166v11c163 8 251 60 251 155v12c0 96 -88 148 -251 155v10c138 10 223 66 223 154v12c0 90 -85 145 -223 155v10c143 -10 233 -68 233 -165v-12c0 -84 -71 -140 -190 -158z" />
    <glyph glyph-name="nine.tf" horiz-adv-x="816" 
d="M356 654c-153 -11 -248 -81 -248 -187v-21c0 -120 95 -179 292 -179c79 0 151 22 201 56v-13c-51 -32 -122 -53 -201 -53c-203 0 -302 63 -302 189v21c0 113 98 186 258 197v-10zM445 663c153 -13 255 -101 255 -224v-204c0 -139 -97 -229 -255 -243v10
c151 14 245 101 245 233v204c0 116 -99 201 -245 214v10zM356 -9c-148 12 -246 83 -246 184v10h10v-10c0 -95 94 -162 236 -173v-11z" />
    <glyph glyph-name="three.tf.ss10" horiz-adv-x="816" 
d="M136 483v-10h-10v10c0 103 87 171 229 182v-10c-136 -11 -219 -74 -219 -172zM503 332c119 -14 187 -70 187 -154v-14c0 -103 -86 -163 -246 -173v11c152 9 237 65 237 162v14c0 93 -92 149 -245 149h-168v10h167c148 0 230 54 230 149v14c0 92 -78 147 -221 155v10
c149 -9 231 -67 231 -165v-14c0 -85 -60 -139 -172 -154zM121 174c0 -99 87 -161 234 -171v-11c-152 11 -244 77 -244 182v10h10v-10z" />
    <glyph glyph-name="zero.tf.zero" horiz-adv-x="816" 
d="M454 663c153 -15 255 -115 255 -255v-161c0 -140 -102 -238 -255 -254v11c100 10 178 57 217 128l-529 384c-15 -32 -24 -68 -24 -108v-161c0 -135 98 -228 247 -244v-10c-155 16 -257 114 -257 254v161c0 142 102 240 257 255v-10c-101 -10 -179 -57 -218 -128l529 -384
c16 31 24 67 24 106v161c0 134 -98 230 -246 245v10z" />
    <glyph glyph-name="zero.zero" horiz-adv-x="817" 
d="M454 663c153 -15 255 -115 255 -255v-161c0 -140 -102 -238 -255 -254v11c100 10 178 57 217 128l-529 384c-15 -32 -24 -68 -24 -108v-161c0 -135 98 -228 247 -244v-10c-155 16 -257 114 -257 254v161c0 142 102 240 257 255v-10c-101 -10 -179 -57 -218 -128l529 -384
c16 31 24 67 24 106v161c0 134 -98 230 -246 245v10z" />
    <glyph glyph-name="uni2080" unicode="&#x2080;" 
d="M248 -104c-106 9 -176 72 -176 161v99c0 90 69 153 176 162v-10c-101 -9 -166 -68 -166 -152v-99c0 -84 65 -142 166 -151v-10zM308 -94c100 9 164 68 164 151v99c0 84 -65 143 -164 152v10c104 -10 174 -73 174 -162v-99c0 -89 -68 -151 -174 -161v10z" />
    <glyph glyph-name="uni2081" unicode="&#x2081;" 
d="M68 239v10h128c74 0 113 22 113 65h10v-344h-10v307c-17 -25 -54 -38 -113 -38h-128zM68 -100v10h474v-10h-474z" />
    <glyph glyph-name="uni2082" unicode="&#x2082;" 
d="M245 309c-97 -6 -149 -45 -149 -112v-13h-10v13c0 71 58 115 159 122v-10zM305 319c100 -7 157 -52 157 -122v-9c0 -62 -27 -100 -183 -182l-67 -36h-21l82 43c140 74 179 111 179 175v9c0 66 -52 105 -147 112v10zM488 -90v-10h-411v10h411z" />
    <glyph glyph-name="uni2083" unicode="&#x2083;" 
d="M460 313v-10h-385v10h385zM275 142c125 0 194 -41 194 -116v-9c0 -74 -61 -116 -171 -122v10c105 6 161 44 161 112v9c0 69 -64 106 -184 106h-58v11l140 100h18l-143 -101h43zM79 -8c0 -47 65 -81 159 -87v-10c-100 6 -169 44 -169 97v7h10v-7z" />
    <glyph glyph-name="uni2084" unicode="&#x2084;" 
d="M35 11v9c76 115 124 202 158 294h11v-2c-36 -92 -86 -186 -158 -292h269v-9h-280zM375 -100v338h10v-218h152v-9h-152v-111h-10z" />
    <glyph glyph-name="uni2085" unicode="&#x2085;" 
d="M442 314v-10h-354l1 10h353zM270 161c121 0 201 -50 201 -124v-19c0 -68 -68 -115 -170 -123v10c96 8 160 51 160 113v19c0 69 -75 114 -191 114c-101 0 -183 -41 -187 -94v-1h-10l12 188h10l-10 -153c27 42 98 70 185 70zM83 -8c0 -46 65 -81 158 -87v-10
c-99 6 -168 45 -168 97v2h10v-2z" />
    <glyph glyph-name="uni2086" unicode="&#x2086;" 
d="M253 -104c-105 8 -175 63 -175 141v128c0 88 68 145 175 154v-11c-100 -8 -165 -61 -165 -143v-128c0 -71 66 -123 165 -131v-10zM313 319c102 -7 169 -52 169 -117v-6h-10v6c0 59 -62 100 -159 107v10zM148 120c35 20 84 32 136 32c136 0 205 -40 205 -118v-12
c0 -73 -66 -120 -176 -127v10c103 7 166 50 166 116v13c0 72 -64 108 -195 108c-52 0 -101 -13 -136 -34v12z" />
    <glyph glyph-name="uni2087" unicode="&#x2087;" 
d="M58 303v10h419v-10h-419zM417 243c-111 -113 -179 -235 -179 -336v-7h-10v7c0 103 65 222 176 336h13z" />
    <glyph glyph-name="uni2088" unicode="&#x2088;" 
d="M68 0v8c0 55 48 89 136 101c-73 13 -117 47 -117 97v8c0 61 63 99 160 105v-10c-93 -6 -150 -40 -150 -95v-7c0 -55 57 -88 150 -94v-10c-111 -5 -169 -38 -169 -96v-7c0 -59 59 -91 169 -95v-10c-117 5 -179 40 -179 105zM307 -105v10c111 4 170 36 170 95v7
c0 58 -59 91 -170 96v10c93 6 150 39 150 94v7c0 55 -57 89 -150 95v10c98 -6 160 -44 160 -105v-8c0 -50 -43 -84 -116 -97c88 -12 136 -46 136 -101v-8c0 -66 -62 -100 -180 -105z" />
    <glyph glyph-name="uni2089" unicode="&#x2089;" 
d="M406 95c-35 -20 -83 -33 -136 -33c-136 0 -205 40 -205 118v12c0 73 66 120 176 127v-10c-103 -7 -166 -50 -166 -116v-13c0 -72 64 -108 195 -108c53 0 102 13 136 34v-11zM301 318c106 -8 175 -63 175 -141v-128c0 -88 -67 -145 -175 -154v11c101 8 165 61 165 143v128
c0 71 -66 123 -165 131v10zM241 -105c-101 7 -169 52 -169 117v6h10v-6c0 -59 63 -100 159 -107v-10z" />
    <glyph glyph-name="zero.dnom" 
d="M248 -4c-106 10 -176 73 -176 161v99c0 90 69 153 176 162v-10c-101 -9 -166 -68 -166 -152v-99c0 -83 65 -141 166 -151v-10zM308 6c100 10 164 69 164 151v99c0 84 -65 143 -164 152v10c104 -10 174 -73 174 -162v-99c0 -88 -68 -151 -174 -161v10z" />
    <glyph glyph-name="one.dnom" 
d="M68 339v10h128c74 0 113 22 113 65h10v-344h-10v307c-17 -25 -54 -38 -113 -38h-128zM68 0v10h474v-10h-474z" />
    <glyph glyph-name="two.dnom" 
d="M245 409c-97 -6 -149 -45 -149 -112v-13h-10v13c0 71 58 115 159 122v-10zM305 419c100 -7 157 -52 157 -122v-9c0 -62 -27 -100 -183 -182l-67 -36h-21l82 43c140 74 179 111 179 175v9c0 66 -52 105 -147 112v10zM488 10v-10h-411v10h411z" />
    <glyph glyph-name="three.dnom" 
d="M460 413v-10h-385v10h385zM275 242c125 0 194 -41 194 -116v-9c0 -73 -61 -116 -171 -122v10c105 6 161 45 161 112v9c0 69 -64 106 -184 106h-58v11l140 100h18l-143 -101h43zM79 92c0 -47 65 -81 159 -86v-11c-100 6 -169 45 -169 97v7h10v-7z" />
    <glyph glyph-name="four.dnom" 
d="M35 111v9c76 115 124 202 158 294h11v-2c-36 -92 -86 -186 -158 -292h269v-9h-280zM375 0v338h10v-218h152v-9h-152v-111h-10z" />
    <glyph glyph-name="five.dnom" 
d="M442 414v-10h-354l1 10h353zM270 261c121 0 201 -50 201 -124v-19c0 -67 -68 -115 -170 -123v11c96 7 160 51 160 112v19c0 69 -75 114 -191 114c-101 0 -183 -41 -187 -94v-1h-10l12 188h10l-10 -153c27 42 98 70 185 70zM83 92c0 -46 65 -81 158 -86v-11
c-99 7 -168 46 -168 97v2h10v-2z" />
    <glyph glyph-name="six.dnom" 
d="M253 -4c-105 8 -175 63 -175 141v128c0 88 68 145 175 154v-11c-100 -8 -165 -61 -165 -143v-128c0 -71 66 -123 165 -131v-10zM313 419c102 -7 169 -52 169 -117v-6h-10v6c0 59 -62 100 -159 107v10zM148 220c35 20 84 32 136 32c136 0 205 -40 205 -118v-12
c0 -72 -66 -119 -176 -127v11c103 7 166 50 166 115v13c0 72 -64 108 -195 108c-52 0 -101 -13 -136 -34v12z" />
    <glyph glyph-name="seven.dnom" 
d="M58 403v10h419v-10h-419zM417 343c-111 -113 -179 -235 -179 -336v-7h-10v7c0 103 65 222 176 336h13z" />
    <glyph glyph-name="eight.dnom" 
d="M68 100v8c0 55 48 89 136 101c-73 13 -117 47 -117 97v8c0 61 63 99 160 105v-10c-93 -6 -150 -40 -150 -95v-7c0 -55 57 -88 150 -94v-10c-111 -5 -169 -38 -169 -96v-7c0 -58 59 -90 169 -95v-10c-117 5 -179 41 -179 105zM307 -5v10c111 5 170 37 170 95v7
c0 58 -59 91 -170 96v10c93 6 150 39 150 94v7c0 55 -57 89 -150 95v10c98 -6 160 -44 160 -105v-8c0 -50 -43 -84 -116 -97c88 -12 136 -46 136 -101v-8c0 -65 -62 -100 -180 -105z" />
    <glyph glyph-name="nine.dnom" 
d="M406 195c-35 -20 -83 -33 -136 -33c-136 0 -205 40 -205 118v12c0 73 66 120 176 127v-10c-103 -7 -166 -50 -166 -116v-13c0 -72 64 -108 195 -108c53 0 102 13 136 34v-11zM301 418c106 -8 175 -63 175 -141v-128c0 -88 -67 -145 -175 -154v11c101 8 165 61 165 143
v128c0 71 -66 123 -165 131v10zM241 -5c-101 8 -169 53 -169 117v6h10v-6c0 -59 63 -99 159 -106v-11z" />
    <glyph glyph-name="zero.numr" 
d="M248 239c-106 10 -176 73 -176 161v99c0 90 69 153 176 162v-10c-101 -9 -166 -68 -166 -152v-99c0 -83 65 -141 166 -151v-10zM308 249c100 10 164 69 164 151v99c0 84 -65 143 -164 152v10c104 -10 174 -73 174 -162v-99c0 -88 -68 -151 -174 -161v10z" />
    <glyph glyph-name="one.numr" 
d="M68 582v10h128c74 0 113 22 113 65h10v-344h-10v307c-17 -25 -54 -38 -113 -38h-128zM68 243v10h474v-10h-474z" />
    <glyph glyph-name="two.numr" 
d="M245 652c-97 -6 -149 -45 -149 -112v-13h-10v13c0 71 58 115 159 122v-10zM305 662c100 -7 157 -52 157 -122v-9c0 -62 -27 -100 -183 -182l-67 -36h-21l82 43c140 74 179 111 179 175v9c0 66 -52 105 -147 112v10zM488 253v-10h-411v10h411z" />
    <glyph glyph-name="three.numr" 
d="M460 656v-10h-385v10h385zM275 485c125 0 194 -41 194 -116v-9c0 -73 -61 -116 -171 -122v10c105 6 161 45 161 112v9c0 69 -64 106 -184 106h-58v11l140 100h18l-143 -101h43zM79 335c0 -47 65 -81 159 -86v-10c-100 5 -169 44 -169 96v7h10v-7z" />
    <glyph glyph-name="four.numr" 
d="M35 354v9c76 115 124 202 158 294h11v-2c-36 -92 -86 -186 -158 -292h269v-9h-280zM375 243v338h10v-218h152v-9h-152v-111h-10z" />
    <glyph glyph-name="five.numr" 
d="M442 657v-10h-354l1 10h353zM270 504c121 0 201 -50 201 -124v-19c0 -67 -68 -115 -170 -122v10c96 7 160 51 160 112v19c0 69 -75 114 -191 114c-101 0 -183 -41 -187 -94v-1h-10l12 188h10l-10 -153c27 42 98 70 185 70zM83 335c0 -46 65 -81 158 -86v-10
c-99 6 -168 45 -168 96v2h10v-2z" />
    <glyph glyph-name="six.numr" 
d="M253 239c-105 8 -175 63 -175 141v128c0 88 68 145 175 154v-11c-100 -8 -165 -61 -165 -143v-128c0 -71 66 -123 165 -131v-10zM313 662c102 -7 169 -52 169 -117v-6h-10v6c0 59 -62 100 -159 107v10zM148 463c35 20 84 32 136 32c136 0 205 -40 205 -118v-12
c0 -72 -66 -119 -176 -126v10c103 7 166 50 166 115v13c0 72 -64 108 -195 108c-52 0 -101 -13 -136 -34v12z" />
    <glyph glyph-name="seven.numr" 
d="M58 646v10h419v-10h-419zM417 586c-111 -113 -179 -235 -179 -336v-7h-10v7c0 103 65 222 176 336h13z" />
    <glyph glyph-name="eight.numr" 
d="M68 343v8c0 55 48 89 136 101c-73 13 -117 47 -117 97v8c0 61 63 99 160 105v-10c-93 -6 -150 -40 -150 -95v-7c0 -55 57 -88 150 -94v-10c-111 -5 -169 -38 -169 -96v-7c0 -58 59 -90 169 -95v-10c-117 5 -179 41 -179 105zM307 238v10c111 5 170 37 170 95v7
c0 58 -59 91 -170 96v10c93 6 150 39 150 94v7c0 55 -57 89 -150 95v10c98 -6 160 -44 160 -105v-8c0 -50 -43 -84 -116 -97c88 -12 136 -46 136 -101v-8c0 -65 -62 -100 -180 -105z" />
    </font>
</defs>
</svg>
