<svg width="157" height="94" viewBox="0 0 157 94" fill="none" xmlns="http://www.w3.org/2000/svg">
<g clip-path="url(#clip0)">
<path d="M43.0602 93.8766L38.9824 82.4832C38.9824 82.4832 43.4679 84.7212 43.6718 87.5696C43.6718 87.5696 42.6524 73.3278 40.6135 70.276C40.6135 70.276 43.8757 70.6829 47.5457 86.5523C47.5457 86.5523 48.1573 68.2415 42.6524 62.9517C42.6524 62.9517 50.1962 69.0553 50.8078 82.2798V93.8766H43.0602Z" fill="#F2F2F2"/>
<path d="M119.533 93.8765L118.553 91.1371C118.553 91.1371 119.631 91.6752 119.68 92.3601C119.68 92.3601 119.435 88.9358 118.945 88.202C118.945 88.202 119.729 88.2998 120.612 92.1155C120.612 92.1155 120.759 87.7128 119.435 86.4409C119.435 86.4409 121.249 87.9085 121.396 91.0882V93.8765L119.533 93.8765Z" fill="#F2F2F2"/>
<path d="M101.371 70.3148C111.27 70.3148 119.296 62.3065 119.296 52.4277C119.296 42.5489 111.27 34.5405 101.371 34.5405C91.4707 34.5405 83.4453 42.5489 83.4453 52.4277C83.4453 62.3065 91.4707 70.3148 101.371 70.3148Z" fill="#F2F2F2"/>
<path d="M42.2787 1.35693H0V24.7953H42.2787V1.35693Z" fill="#F2F2F2"/>
<path d="M99.6381 1.35693H57.3594V24.7953H99.6381V1.35693Z" fill="#F2F2F2"/>
<path d="M156.999 1.35693H114.721V24.7953H156.999V1.35693Z" fill="#F2F2F2"/>
<path d="M108.682 93.9406C108.654 93.8943 107.985 92.7797 107.753 90.4653C107.54 88.3419 107.677 84.7628 109.537 79.7702C113.061 70.3121 108.725 62.6808 108.681 62.6048L108.895 62.481C108.906 62.5002 110.025 64.4459 110.686 67.5441C111.559 71.6517 111.241 75.9226 109.769 79.8562C106.251 89.2982 108.866 93.7679 108.893 93.812L108.682 93.9406Z" fill="#3F3D56"/>
<path d="M107.304 62.0496C108.192 62.0496 108.911 61.3316 108.911 60.446C108.911 59.5603 108.192 58.8423 107.304 58.8423C106.417 58.8423 105.697 59.5603 105.697 60.446C105.697 61.3316 106.417 62.0496 107.304 62.0496Z" fill="#43B052"/>
<path d="M112.373 67.9715C113.26 67.9715 113.98 67.2535 113.98 66.3678C113.98 65.4821 113.26 64.7642 112.373 64.7642C111.485 64.7642 110.766 65.4821 110.766 66.3678C110.766 67.2535 111.485 67.9715 112.373 67.9715Z" fill="#3F3D56"/>
<path d="M108.91 71.9188C109.797 71.9188 110.517 71.2008 110.517 70.3151C110.517 69.4294 109.797 68.7114 108.91 68.7114C108.022 68.7114 107.303 69.4294 107.303 70.3151C107.303 71.2008 108.022 71.9188 108.91 71.9188Z" fill="#43B052"/>
<path d="M113.115 75.2493C114.002 75.2493 114.722 74.5313 114.722 73.6457C114.722 72.76 114.002 72.042 113.115 72.042C112.227 72.042 111.508 72.76 111.508 73.6457C111.508 74.5313 112.227 75.2493 113.115 75.2493Z" fill="#43B052"/>
<path d="M107.675 80.4305C108.563 80.4305 109.283 79.7125 109.283 78.8268C109.283 77.9411 108.563 77.2231 107.675 77.2231C106.788 77.2231 106.068 77.9411 106.068 78.8268C106.068 79.7125 106.788 80.4305 107.675 80.4305Z" fill="#3F3D56"/>
<path d="M109.654 93.9999C109.654 93.9999 108.047 90.0524 112.868 87.0918L109.654 93.9999Z" fill="#3F3D56"/>
<path d="M107.676 93.9287C107.676 93.9287 106.944 89.7309 101.283 89.7668L107.676 93.9287Z" fill="#3F3D56"/>
<path d="M42.2176 0H0.0625V2.09711H42.2176V0Z" fill="#3F3D56"/>
<path d="M99.7006 0H57.4219V2.09711H99.7006V0Z" fill="#3F3D56"/>
<path d="M156.938 0H114.783V2.09711H156.938V0Z" fill="#3F3D56"/>
<path d="M10.8775 5.36572H3.21289V10.7935H10.8775V5.36572Z" fill="white"/>
<path d="M39.0651 5.36572H17.9258V5.98252H39.0651V5.36572Z" fill="white"/>
<path d="M39.0651 7.8335H17.9258V8.45029H39.0651V7.8335Z" fill="white"/>
<path d="M39.0651 10.3008H17.9258V10.9176H39.0651V10.3008Z" fill="white"/>
<path d="M68.2388 5.36572H60.5742V10.7935H68.2388V5.36572Z" fill="white"/>
<path d="M96.4265 5.36572H75.2871V5.98252H96.4265V5.36572Z" fill="white"/>
<path d="M96.4265 7.8335H75.2871V8.45029H96.4265V7.8335Z" fill="white"/>
<path d="M96.4265 10.3008H75.2871V10.9176H96.4265V10.3008Z" fill="white"/>
<path d="M125.6 5.36572H117.936V10.7935H125.6V5.36572Z" fill="white"/>
<path d="M153.786 5.36572H132.646V5.98252H153.786V5.36572Z" fill="white"/>
<path d="M153.786 7.8335H132.646V8.45029H153.786V7.8335Z" fill="white"/>
<path d="M153.786 10.3008H132.646V10.9176H153.786V10.3008Z" fill="white"/>
<path d="M7.04666 10.6087C8.41215 10.6087 9.5191 9.5041 9.5191 8.14151C9.5191 6.77892 8.41215 5.67432 7.04666 5.67432C5.68117 5.67432 4.57422 6.77892 4.57422 8.14151C4.57422 9.5041 5.68117 10.6087 7.04666 10.6087Z" fill="#43B052"/>
<path d="M121.767 10.6087C123.133 10.6087 124.24 9.5041 124.24 8.14151C124.24 6.77892 123.133 5.67432 121.767 5.67432C120.402 5.67432 119.295 6.77892 119.295 8.14151C119.295 9.5041 120.402 10.6087 121.767 10.6087Z" fill="#43B052"/>
<path d="M19.7511 24.7954H19.5039V25.5356H19.7511V24.7954Z" fill="#3F3D56"/>
<path d="M19.7511 55.1416H19.5039V53.6613H19.7511V55.1416ZM19.7511 52.181H19.5039V50.7007H19.7511V52.181ZM19.7511 49.2203H19.5039V47.74H19.7511V49.2203ZM19.7511 46.2597H19.5039V44.7794H19.7511V46.2597ZM19.7511 43.2991H19.5039V41.8188H19.7511V43.2991ZM19.7511 40.3385H19.5039V38.8581H19.7511V40.3385ZM19.7511 37.3778H19.5039V35.8975H19.7511V37.3778ZM19.7511 34.4172H19.5039V32.9369H19.7511V34.4172ZM19.7511 31.4566H19.5039V29.9763H19.7511V31.4566ZM19.7511 28.4959H19.5039V27.0156H19.7511V28.4959Z" fill="#3F3D56"/>
<path d="M20.3692 57.4851H19.5039V56.6216H19.7511V57.2383H20.3692V57.4851Z" fill="#3F3D56"/>
<path d="M133.628 57.486H132.138V57.2393H133.628V57.486ZM130.648 57.486H129.158V57.2393H130.648V57.486ZM127.667 57.486H126.177V57.2393H127.667V57.486ZM124.687 57.486H123.197V57.2393H124.687V57.486ZM121.706 57.486H120.216V57.2393H121.706V57.486ZM118.726 57.486H117.236V57.2393H118.726V57.486ZM115.745 57.486H114.255V57.2393H115.745V57.486ZM112.765 57.486H111.275V57.2393H112.765V57.486ZM109.784 57.486H108.294V57.2393H109.784V57.486ZM106.804 57.486H105.314V57.2393H106.804L106.804 57.486ZM103.823 57.486H102.333V57.2393H103.823V57.486ZM100.843 57.486H99.3526V57.2393H100.843V57.486ZM97.8624 57.486H96.372V57.2393H97.8624V57.486ZM94.8818 57.486H93.3916V57.2393H94.8818V57.486ZM91.9013 57.486H90.411V57.2393H91.9013V57.486ZM88.9208 57.486H87.4305V57.2393H88.9208V57.486ZM85.9403 57.486H84.45V57.2393H85.9403V57.486ZM82.9598 57.486H81.4695V57.2393H82.9598V57.486ZM79.9793 57.486H78.489V57.2393H79.9793V57.486ZM76.9988 57.486H75.5085V57.2393H76.9988V57.486ZM74.0183 57.486H72.528V57.2393H74.0183V57.486ZM71.0378 57.486H69.5475V57.2393H71.0378V57.486ZM68.0573 57.486H66.567V57.2393H68.0573V57.486ZM65.0768 57.486H63.5865V57.2393H65.0768V57.486ZM62.0962 57.486H60.606V57.2393H62.0962V57.486ZM59.1157 57.486H57.6254V57.2393H59.1157V57.486ZM56.1352 57.486H54.6449V57.2393H56.1352V57.486ZM53.1547 57.486H51.6644V57.2393H53.1547V57.486ZM50.1742 57.486H48.6839V57.2393H50.1742V57.486ZM47.1937 57.486H45.7034V57.2393H47.1937V57.486ZM44.2132 57.486H42.7229V57.2393H44.2132V57.486ZM41.2327 57.486H39.7424V57.2393H41.2327V57.486ZM38.2522 57.486H36.7619V57.2393H38.2522V57.486ZM35.2716 57.486H33.7814V57.2393H35.2716V57.486ZM32.2911 57.486H30.8009V57.2393H32.2911V57.486ZM29.3106 57.486H27.8204V57.2393H29.3106V57.486ZM26.3301 57.486H24.8399V57.2393H26.3301V57.486ZM23.3496 57.486H21.8594V57.2393H23.3496L23.3496 57.486Z" fill="#3F3D56"/>
<path d="M135.984 57.4851H135.119V57.2383H135.737V56.6216H135.984V57.4851Z" fill="#3F3D56"/>
<path d="M135.986 55.1416H135.738V53.6613H135.986V55.1416ZM135.986 52.181H135.738V50.7007H135.986V52.181ZM135.986 49.2203H135.738V47.74H135.986V49.2203ZM135.986 46.2597H135.738V44.7794H135.986V46.2597ZM135.986 43.2991H135.738V41.8188H135.986V43.2991ZM135.986 40.3385H135.738V38.8581H135.986V40.3385ZM135.986 37.3778H135.738V35.8975H135.986V37.3778ZM135.986 34.4172H135.738V32.9369H135.986V34.4172ZM135.986 31.4566H135.738V29.9763H135.986V31.4566ZM135.986 28.4959H135.738V27.0156H135.986V28.4959Z" fill="#3F3D56"/>
<path d="M135.986 24.7954H135.738V25.5356H135.986V24.7954Z" fill="#3F3D56"/>
<path d="M99.6381 49.9609H57.3594V93.877H99.6381V49.9609Z" fill="#3F3D56"/>
<path d="M68.2388 55.6968H60.5742V61.1246H68.2388V55.6968Z" fill="white"/>
<path d="M96.4265 55.6968H75.2871V56.3136H96.4265V55.6968Z" fill="white"/>
<path d="M96.4265 58.1641H75.2871V58.7809H96.4265V58.1641Z" fill="white"/>
<path d="M96.4265 60.6313H75.2871V61.2482H96.4265V60.6313Z" fill="white"/>
<path d="M68.2388 75.2495H60.5742V80.6773H68.2388V75.2495Z" fill="white"/>
<path d="M96.4265 75.2495H75.2871V75.8663H96.4265V75.2495Z" fill="white"/>
<path d="M96.4265 77.7163H75.2871V78.3331H96.4265V77.7163Z" fill="white"/>
<path d="M96.4265 80.1841H75.2871V80.8009H96.4265V80.1841Z" fill="white"/>
<path d="M64.44 59.7834L61.8164 56.2928L62.4379 55.8277L64.5751 58.6714L70.0229 54.2686L70.5148 54.8685L64.44 59.7834Z" fill="#43B052"/>
<path d="M64.44 79.1512L61.8164 75.6606L62.4379 75.1955L64.5751 78.039L70.0229 73.6362L70.5148 74.2363L64.44 79.1512Z" fill="#43B052"/>
<path d="M153.786 93.7534H1.11328V94.0002H153.786V93.7534Z" fill="#3F3D56"/>
<path d="M83.8223 26.1521C83.8223 26.1521 87.9018 24.3783 89.8179 26.2521C91.7341 28.1259 84.6876 27.5091 83.8223 26.1521Z" fill="#3F3D56"/>
<path d="M90.866 17.74C89.495 15.4285 86.7827 15.3207 86.7827 15.3207C86.7827 15.3207 84.1397 14.9835 82.4442 18.504C80.8639 21.7854 78.6829 24.9537 82.0931 25.7219L82.7091 23.8087L83.0906 25.8643C83.5761 25.8992 84.0632 25.9075 84.5497 25.8892C88.2017 25.7716 91.6798 25.9236 91.5678 24.6159C91.4189 22.8775 92.1851 19.9642 90.866 17.74Z" fill="#2F2E41"/>
<path d="M92.7837 59.644C92.7837 59.644 91.053 62.8514 89.9404 62.8514C88.8278 62.8514 88.9514 64.9485 89.1987 65.442C89.4459 65.9354 90.064 67.0456 89.0751 68.6493C88.7296 69.2095 88.7914 69.8449 89.0181 70.4346C89.6533 72.0871 92.124 71.5864 92.0451 69.8184C92.0443 69.7989 92.0432 69.7793 92.042 69.7595C91.9184 67.7858 92.9073 64.7018 93.8963 63.9616C94.8853 63.2215 95.7506 61.2477 95.7506 61.2477L92.7837 59.644Z" fill="#FFB8B8"/>
<path d="M80.9161 58.9043C80.9161 58.9043 82.6469 62.1116 83.7595 62.1116C84.8721 62.1116 84.7484 64.2087 84.5012 64.7022C84.254 65.1956 83.6358 66.3059 84.6248 67.9095C84.9703 68.4697 84.9085 69.1051 84.6818 69.6949C84.0466 71.3473 81.5759 70.8467 81.6547 69.0786C81.6556 69.0591 81.6566 69.0395 81.6579 69.0198C81.7815 67.046 80.7925 63.962 79.8036 63.2219C78.8146 62.4817 77.9492 60.508 77.9492 60.508L80.9161 58.9043Z" fill="#FFB8B8"/>
<path d="M82.2771 43.1143L81.5353 44.718C81.5353 44.718 70.6566 48.2954 71.6456 52.4896C72.6346 56.6838 77.4558 63.2219 78.1975 62.9752C78.9393 62.7284 82.8952 61.9883 83.0188 59.8912C83.1424 57.7941 80.1755 54.0933 80.1755 54.0933L84.255 50.3925L90.1914 50.2691L95.2574 54.0933C95.2574 54.0933 89.9416 58.7809 92.2904 60.6313C94.6393 62.4817 98.1007 63.7153 98.5952 62.9752C99.0897 62.235 104.653 51.256 103.787 50.2691C102.922 49.2823 94.1448 45.5815 94.1448 45.5815L91.796 42.2508L82.6479 41.7573L82.2771 43.1143Z" fill="#2F2E41"/>
<path d="M84.5013 22.7597C84.5013 22.7597 85.1194 26.8306 83.8831 27.324C82.6469 27.8174 86.3556 29.9145 86.3556 29.9145H88.4572L89.817 27.0773C89.817 27.0773 88.5808 24.8568 89.3225 22.7597C90.0642 20.6626 84.5013 22.7597 84.5013 22.7597Z" fill="#FFB8B8"/>
<path opacity="0.1" d="M84.5013 22.7597C84.5013 22.7597 85.1194 26.8306 83.8831 27.324C82.6469 27.8174 86.3556 29.9145 86.3556 29.9145H88.4572L89.817 27.0773C89.817 27.0773 88.5808 24.8568 89.3225 22.7597C90.0642 20.6626 84.5013 22.7597 84.5013 22.7597Z" fill="black"/>
<path d="M83.6366 26.2144C83.6366 26.2144 84.9965 27.6947 85.2437 27.9414C85.491 28.1881 86.6035 29.5451 88.9524 27.5713C91.3012 25.5976 91.5484 27.9414 91.5484 27.9414V42.7445C91.5484 42.7445 89.5705 41.881 87.9634 42.7445C86.3563 43.6081 83.0185 42.4978 83.0185 42.4978L82.4004 27.2012L83.6366 26.2144Z" fill="white"/>
<path d="M84.5452 26.2139C84.5452 26.2139 83.3899 25.7205 82.4009 26.2139C81.4119 26.7074 77.9505 29.1746 78.1977 30.2848C78.445 31.395 81.6592 39.1667 79.434 42.8675C77.2088 46.5683 76.8379 47.5552 76.8379 47.5552L82.2773 44.7179C82.2773 44.7179 86.4804 42.1273 86.1095 40.5237C85.7387 38.92 84.5452 26.2139 84.5452 26.2139Z" fill="#43B052"/>
<path d="M89.4483 26.2144C89.4483 26.2144 92.0429 26.4611 92.1665 26.7078C92.2902 26.9545 96.0607 28.0031 95.8134 29.1133C95.5662 30.2235 92.1665 40.154 93.65 42.0044C95.1335 43.8548 97.6059 46.4453 96.7406 46.692C95.8752 46.9388 94.3917 46.322 92.9083 46.692C91.4248 47.0621 87.9634 43.9781 88.3343 40.6474C88.7051 37.3167 88.3372 27.0779 89.4483 26.2144Z" fill="#43B052"/>
<path d="M83.2653 49.776V51.0096C83.2653 51.0096 82.6471 53.8469 84.6251 53.7235C86.6031 53.6001 85.3669 50.2694 85.3669 50.2694L85.2432 49.1592L83.2653 49.776Z" fill="#FFB8B8"/>
<path d="M88.827 49.8989C88.827 49.8989 87.4672 52.7362 88.827 52.9829C90.1869 53.2296 91.1758 51.3792 91.1758 50.8858C91.1758 50.3924 88.827 49.8989 88.827 49.8989Z" fill="#FFB8B8"/>
<path d="M90.6203 21.5879C90.7568 21.5879 90.8675 21.367 90.8675 21.0945C90.8675 20.822 90.7568 20.6011 90.6203 20.6011C90.4837 20.6011 90.373 20.822 90.373 21.0945C90.373 21.367 90.4837 21.5879 90.6203 21.5879Z" fill="#FFB8B8"/>
<path d="M83.3273 21.5879C83.4639 21.5879 83.5746 21.367 83.5746 21.0945C83.5746 20.822 83.4639 20.6011 83.3273 20.6011C83.1908 20.6011 83.0801 20.822 83.0801 21.0945C83.0801 21.367 83.1908 21.5879 83.3273 21.5879Z" fill="#FFB8B8"/>
<path d="M92.7844 27.8174C92.7844 27.8174 95.875 27.8174 95.7513 29.051C95.6277 30.2846 91.5482 51.5024 91.5482 51.5024C91.5482 51.5024 89.8175 49.8987 88.334 50.2688L92.7844 27.8174Z" fill="#43B052"/>
<path d="M80.7917 28.1875C80.7917 28.1875 77.7012 28.8043 77.7012 30.6547C77.7012 32.5051 82.1516 50.2689 82.7697 50.2689C83.3878 50.2689 85.7366 49.8988 85.7366 49.282C85.7366 48.6652 80.7917 28.1875 80.7917 28.1875Z" fill="#43B052"/>
<path opacity="0.2" d="M81.4727 31.8267L84.2542 42.6812C84.2542 42.6812 82.9561 33.1836 81.4727 31.8267Z" fill="black"/>
<path opacity="0.2" d="M92.2916 30.3018L89.4785 44.4935C89.4785 44.4935 90.3776 31.1204 92.2916 30.3018Z" fill="black"/>
<path d="M86.9737 24.7335C88.9537 24.7335 90.5588 23.1318 90.5588 21.156C90.5588 19.1803 88.9537 17.5786 86.9737 17.5786C84.9938 17.5786 83.3887 19.1803 83.3887 21.156C83.3887 23.1318 84.9938 24.7335 86.9737 24.7335Z" fill="#FFB8B8"/>
<path d="M90.2609 17.5168L87.5813 16.1162L83.8808 16.6891L83.1152 20.0634L85.0211 19.9903L85.5535 18.7507V19.9699L86.4329 19.9361L86.9433 17.9624L87.2623 20.0634L90.3885 19.9999L90.2609 17.5168Z" fill="#2F2E41"/>
</g>
<defs>
<clipPath id="clip0">
<rect width="157" height="94" fill="white"/>
</clipPath>
</defs>
</svg>
