<svg width="142" height="86" viewBox="0 0 142 86" fill="none" xmlns="http://www.w3.org/2000/svg">
<g clip-path="url(#clip0)">
<path d="M141.935 86.0002H0V85.6411H142L141.935 86.0002Z" fill="#3F3D56"/>
<path d="M123.938 28.8777L120.346 35.9633L109.607 40.8284C108.46 42.7598 104.816 42.9077 104.551 41.6587C104.253 40.2575 108.976 38.0023 108.976 38.0023L117.959 31.9479L118.745 26.7358L123.938 28.8777Z" fill="#A0616A"/>
<path d="M123.514 76.4282L124.177 81.7087L120.335 81.9728L119.938 76.4282H123.514Z" fill="#A0616A"/>
<path d="M122.984 80.9164C123.327 80.5545 123.644 80.1684 123.932 79.7611C124.482 79.0019 124.971 82.8966 124.971 82.8966C124.971 82.8966 125.501 84.4807 125.368 85.2728C125.236 86.0649 122.189 86.0649 121.659 85.9328C121.129 85.8008 118.48 85.9328 118.48 85.9328H114.505C111.061 84.3487 114.505 83.2926 114.505 83.2926C115.565 83.1606 119.142 79.8603 119.142 79.8603L119.937 78.4082C120.467 78.2762 120.997 80.2563 120.997 80.2563L122.984 80.9164Z" fill="#2F2E41"/>
<path d="M133.45 76.4941L134.112 81.7746L130.271 82.0387L129.873 76.4941H133.45Z" fill="#A0616A"/>
<path d="M132.919 80.9828C133.263 80.6209 133.58 80.2348 133.867 79.8275C134.418 79.0683 134.906 82.963 134.906 82.963C134.906 82.963 135.436 84.4151 135.304 85.2072C135.171 85.9992 132.125 85.9992 131.595 85.8672C131.065 85.7352 128.415 85.9992 128.415 85.9992H124.441C120.997 84.4151 124.441 83.359 124.441 83.359C125.501 83.227 129.078 79.9267 129.078 79.9267L129.872 78.4746C130.402 78.3426 130.932 80.3227 130.932 80.3227L132.919 80.9828Z" fill="#2F2E41"/>
<path d="M129.077 42.4354C129.607 43.0955 129.342 45.3397 129.342 45.3397C129.342 45.3397 130.269 52.6003 129.872 53.2604C129.474 53.9205 130.137 54.4485 130.534 55.3726C130.932 56.2967 131.329 58.5409 131.329 58.5409C133.581 60.389 133.449 68.8378 133.449 68.8378L134.244 76.3624C133.979 77.1545 130.269 77.2865 129.739 77.1545C129.21 77.0225 127.62 65.1414 127.62 65.1414L124.043 58.4088C124.043 58.4088 124.308 76.3624 124.308 77.1545C124.308 77.9465 120.731 77.5505 119.936 77.5505C119.141 77.5505 119.141 64.3494 119.141 64.3494L118.347 60.9171L114.107 45.2077V43.3595L114.77 42.4354C114.77 42.4354 128.547 41.7754 129.077 42.4354Z" fill="#2F2E41"/>
<path d="M123.249 12.4684C125.517 12.4684 127.356 10.6362 127.356 8.37605C127.356 6.1159 125.517 4.28369 123.249 4.28369C120.981 4.28369 119.143 6.1159 119.143 8.37605C119.143 10.6362 120.981 12.4684 123.249 12.4684Z" fill="#A0616A"/>
<path d="M121.196 10.2905C122.028 12.1377 121.535 14.7177 119.871 17.5512L126.627 14.3829L125.567 13.4588L125.832 10.8186L121.196 10.2905Z" fill="#A0616A"/>
<path d="M121.195 14.5151C120.31 15.0392 119.781 16.0023 119.477 16.9822C118.915 18.7965 118.576 20.6724 118.469 22.5683L118.148 28.2443L114.174 43.2936C117.618 46.1978 119.605 45.5378 124.242 43.1616C128.878 40.7854 129.408 43.9536 129.408 43.9536C129.408 43.9536 129.806 43.8216 129.408 43.4256C129.011 43.0296 129.408 43.4256 129.806 43.0296C130.203 42.6335 129.806 43.0296 129.673 42.6335C129.541 42.2375 129.673 42.5015 129.806 42.3695C129.938 42.2375 129.276 41.0494 129.276 41.0494L130.336 31.1485L131.66 17.1553C130.071 15.1751 125.567 13.459 125.567 13.459L121.46 16.3632C120.135 16.8913 121.195 14.7791 121.195 14.7791V14.5151Z" fill="#43B052"/>
<path d="M133.846 25.5376L134.376 33.4583L127.62 43.0951C127.62 45.3393 126.428 45.8674 126.428 45.8674C125.976 45.1492 125.578 44.3991 125.235 43.6232C124.573 42.1711 125.633 40.9829 125.633 40.9829L130.269 31.2141L128.282 26.3297L133.846 25.5376Z" fill="#A0616A"/>
<path d="M131.594 17.221C133.847 18.0131 134.244 26.5938 134.244 26.5938C131.594 25.1417 128.415 27.5179 128.415 27.5179C128.415 27.5179 127.753 25.2737 126.958 22.3695C126.718 21.5525 126.689 20.6884 126.874 19.8574C127.06 19.0265 127.453 18.2558 128.018 17.617C128.018 17.617 129.342 16.4289 131.594 17.221Z" fill="#43B052"/>
<path d="M127.023 9.63031C126.5 9.21353 125.787 9.97112 125.787 9.97112L125.369 6.22009C125.369 6.22009 122.755 6.53269 121.082 6.1159C119.409 5.69912 119.148 7.62673 119.148 7.62673C119.061 6.84829 119.044 6.06382 119.095 5.28234C119.2 4.34458 120.559 3.40682 122.964 2.78165C125.369 2.15648 126.624 4.86556 126.624 4.86556C128.297 5.69912 127.546 10.0471 127.023 9.63031Z" fill="#2F2E41"/>
<path d="M6.67578 64.7137C7.12729 66.4998 10.9773 70.5165 14.9499 74.2882C8.82379 59.2095 12.3147 42.707 12.3147 42.707C11.1772 49.1883 26.7668 81.804 26.7668 81.804L23.216 83.8904L22.0165 85.5724C9.99222 80.0692 6.67578 64.7137 6.67578 64.7137Z" fill="#E6E6E6"/>
<path d="M110.276 31.2769H60.0547V41.1577H110.276V31.2769Z" fill="#E6E6E6"/>
<path d="M110.276 15.6641H60.0547V25.5449H110.276V15.6641Z" fill="#E6E6E6"/>
<path d="M110.276 0H60.0547V9.8808H110.276V0Z" fill="#E6E6E6"/>
<path d="M61.125 8.81388H109.205V1.06689H61.125V8.81388Z" fill="white"/>
<path d="M61.125 24.5121H109.205V16.7651H61.125V24.5121Z" fill="white"/>
<path d="M61.125 40.0907H109.205V32.3438H61.125V40.0907Z" fill="white"/>
<path d="M65.3348 7.82762C66.9705 7.82762 68.2966 6.50623 68.2966 4.87621C68.2966 3.24619 66.9705 1.9248 65.3348 1.9248C63.6991 1.9248 62.373 3.24619 62.373 4.87621C62.373 6.50623 63.6991 7.82762 65.3348 7.82762Z" fill="#43B052"/>
<path d="M101.647 3.72119H72.416V4.3628H101.647V3.72119Z" fill="#43B052"/>
<path d="M101.647 5.38965H72.416V6.03126H101.647V5.38965Z" fill="#43B052"/>
<path d="M65.3348 23.6201C66.9705 23.6201 68.2966 22.2987 68.2966 20.6687C68.2966 19.0387 66.9705 17.7173 65.3348 17.7173C63.6991 17.7173 62.373 19.0387 62.373 20.6687C62.373 22.2987 63.6991 23.6201 65.3348 23.6201Z" fill="#CCCCCC"/>
<path d="M101.647 19.5137H72.416V20.1553H101.647V19.5137Z" fill="#CCCCCC"/>
<path d="M101.647 21.1816H72.416V21.8232H101.647V21.1816Z" fill="#CCCCCC"/>
<path d="M65.3348 39.2329C66.9705 39.2329 68.2966 37.9115 68.2966 36.2815C68.2966 34.6515 66.9705 33.3301 65.3348 33.3301C63.6991 33.3301 62.373 34.6515 62.373 36.2815C62.373 37.9115 63.6991 39.2329 65.3348 39.2329Z" fill="#CCCCCC"/>
<path d="M101.647 35.127H72.416V35.7686H101.647V35.127Z" fill="#CCCCCC"/>
<path d="M101.647 36.7949H72.416V37.4365H101.647V36.7949Z" fill="#CCCCCC"/>
<path d="M23.0285 28.5022C23.0285 28.5022 22.336 32.8395 25.2048 32.4452C25.2048 32.4452 36.5808 29.8823 37.1743 30.4737C37.7679 31.0652 41.4578 31.2665 41.2653 28.773C41.0722 26.271 37.3722 27.7136 37.3722 27.7136C37.3722 27.7136 31.6347 28.5022 30.4476 27.9107C29.2606 27.3193 25.8972 27.5164 25.8972 27.5164L23.0285 28.5022Z" fill="#A0616A"/>
<path d="M31.7084 42.647L30.131 57.5611C30.131 57.5611 29.6364 63.4757 28.1526 64.7572C28.1526 64.7572 28.1526 66.6302 27.6579 67.2216L26.9655 75.0092C26.9655 75.0092 27.9547 77.8679 27.8558 78.3608C27.7569 78.8536 28.2515 80.4309 28.1526 80.628C28.0536 80.8252 23.4043 80.628 23.4043 80.628L24.3935 64.7572L27.4601 42.6761L31.7084 42.647Z" fill="#2F2E41"/>
<path d="M23.0432 79.8215C23.0432 79.8215 20.9686 85.0348 22.051 85.664C23.1334 86.2931 34.4985 85.8437 34.4985 85.8437C34.4985 85.8437 36.3927 84.6752 34.2279 83.8663C34.2279 83.8663 32.4239 83.7764 31.2514 83.0573C30.0788 82.3382 28.7258 80.99 28.7258 80.99C28.7258 80.99 28.6356 79.0125 27.914 79.462C27.6981 79.6037 27.5143 79.7889 27.3745 80.0056C27.2347 80.2223 27.142 80.4658 27.1022 80.7203L23.0432 79.8215Z" fill="#2F2E41"/>
<path d="M19.8432 79.1142C19.8432 79.1142 17.568 84.8316 18.7551 85.5216C19.9422 86.2116 32.4064 85.7188 32.4064 85.7188C32.4064 85.7188 34.4837 84.4373 32.1096 83.5501C32.1096 83.5501 30.1312 83.4515 28.8452 82.6629C27.5592 81.8743 26.0754 80.3956 26.0754 80.3956C26.0754 80.3956 25.9764 78.227 25.1851 78.7198C24.9483 78.8753 24.7468 79.0784 24.5934 79.3161C24.4401 79.5537 24.3384 79.8207 24.2948 80.0999L19.8432 79.1142Z" fill="#2F2E41"/>
<path d="M29.0441 42.4443C29.0441 42.4443 27.956 52.5977 27.4614 54.7664C27.1504 56.1945 26.952 57.6447 26.8679 59.1037C26.8679 59.1037 26.7689 62.2582 25.8786 63.1454C25.6181 63.4024 25.4135 63.71 25.2773 64.0492C25.1412 64.3883 25.0765 64.7518 25.0873 65.1169C25.0873 65.1169 24.197 75.0731 24.6916 76.256C25.1862 77.4389 25.8576 78.9758 25.363 79.7644C24.8684 80.553 19.2508 80.0019 19.2508 79.4105C19.2508 78.819 19.2508 78.3261 18.9541 78.0304C18.6573 77.7347 18.9541 75.8617 18.9541 75.8617C18.9541 75.8617 17.767 67.0884 18.8552 64.5254C19.9433 61.9625 20.4379 54.9635 20.4379 54.9635C20.4379 54.9635 19.6465 46.9788 18.6573 45.6974C17.6681 44.4159 18.8552 39.8813 18.8552 39.8813L29.0441 42.4443Z" fill="#2F2E41"/>
<path d="M26.2578 10.9136C26.3728 11.1746 26.6481 11.32 26.8987 11.4576C28.351 12.2549 29.5668 13.4109 30.7645 14.5536C30.4657 13.5443 30.5293 12.4628 30.9446 11.4953C31.0876 11.1652 31.275 10.8105 31.1728 10.4658C31.072 10.2194 30.8967 10.0103 30.6712 9.86772C30.1824 9.49106 29.6716 9.14376 29.1414 8.82767C28.771 8.60685 28.0095 8.01899 27.5845 8.08296C27.5622 8.65525 27.5505 9.1669 27.299 9.70177C27.2394 9.82864 26.3018 11.0134 26.2578 10.9136Z" fill="#A0616A"/>
<path d="M31.3195 12.1809C33.5594 12.1809 35.3753 10.3714 35.3753 8.13929C35.3753 5.90716 33.5594 4.09766 31.3195 4.09766C29.0795 4.09766 27.2637 5.90716 27.2637 8.13929C27.2637 10.3714 29.0795 12.1809 31.3195 12.1809Z" fill="#A0616A"/>
<path d="M31.5173 17.7013C31.5173 17.7013 32.2098 14.2512 30.2314 13.0683C28.2529 11.8853 25.9777 10.5053 25.9777 10.5053C25.9777 10.5053 25.2853 10.4067 24.9885 11.8853C24.9885 11.8853 19.3499 12.9697 18.7564 18.2928C18.1629 23.6159 19.1521 31.4035 19.1521 31.4035C19.1521 31.4035 18.2618 38.2052 17.1736 41.8526C17.1736 41.8526 16.2833 42.6412 20.2402 41.4583C24.1971 40.2753 31.1217 44.8099 31.1217 44.8099C31.1217 44.8099 31.8141 44.1198 31.8141 43.6269C31.8141 43.134 33.2979 28.1504 33.5947 26.7704C33.8915 25.3903 32.4076 17.8985 31.5173 17.7013Z" fill="#E6E6E6"/>
<path d="M30.3634 8.55597C30.6071 8.42139 30.8803 8.34888 31.1589 8.34487C31.4377 8.34071 31.71 8.25986 31.9457 8.11123C32.3288 7.81814 32.3569 7.2517 32.6372 6.85971C33.043 6.2922 33.8525 6.22389 34.5512 6.25229C34.9785 6.26965 35.4387 6.29509 35.7986 6.06476C36.168 5.82831 36.3355 5.38279 36.4601 4.96323C36.6074 4.46707 36.7026 3.86032 36.3376 3.49234C36.0841 3.23682 35.684 3.18627 35.4024 2.96187C35.25 2.84041 33.2355 2.35272 31.3443 1.91421C30.4029 1.69624 29.4139 1.82958 28.5643 2.28902C27.7148 2.74845 27.0637 3.50214 26.734 4.40758C26.2973 5.60413 25.9231 6.72844 25.9617 6.9713C26.1466 8.13355 27.1781 9.05739 27.2491 10.232C27.3169 9.90767 27.4644 9.60514 27.6784 9.35158C27.8923 9.09801 28.1661 8.90135 28.4752 8.77921C28.5527 8.74145 28.6407 8.73081 28.725 8.74901C28.8275 8.78165 28.8874 8.88368 28.9521 8.96935C29.1215 9.19384 29.6538 9.53443 29.9556 9.37518C30.2255 9.23267 30.024 8.78538 30.3634 8.55597Z" fill="#3F3D56"/>
<path d="M32.2173 29.8049C32.1324 29.8879 32.0838 30.0009 32.0821 30.1194C32.0804 30.2378 32.1256 30.3522 32.208 30.4375L35.06 33.379C35.1015 33.4218 35.1511 33.4559 35.2059 33.4794C35.2607 33.5029 35.3197 33.5153 35.3794 33.5159C35.4391 33.5164 35.4983 33.5052 35.5536 33.4827C35.6088 33.4603 35.6591 33.4272 35.7014 33.3852L44.404 24.7505C44.4516 24.7033 44.4879 24.6462 44.5104 24.5832C44.5329 24.5202 44.5411 24.453 44.5342 24.3865C44.5273 24.32 44.5055 24.2559 44.4706 24.1988C44.4356 24.1418 44.3883 24.0932 44.3321 24.0567L40.91 21.8356C40.8244 21.7795 40.7221 21.7544 40.6202 21.7644C40.5182 21.7744 40.4228 21.8189 40.3498 21.8906L32.2173 29.8049Z" fill="#3F3D56"/>
<path d="M44.4635 24.188C44.4463 24.2144 44.4263 24.239 44.4039 24.2612L35.7217 33.059C35.6794 33.101 35.6291 33.1342 35.5739 33.1566C35.5186 33.179 35.4594 33.1903 35.3997 33.1897C35.34 33.1891 35.2811 33.1767 35.2262 33.1532C35.1714 33.1298 35.1218 33.0956 35.0803 33.0529L32.167 29.989C32.1471 29.9685 32.1293 29.9461 32.1137 29.9221C32.0651 30.0051 32.0479 30.1027 32.0651 30.1972C32.0824 30.2918 32.133 30.3771 32.2079 30.4376L35.0599 33.3791C35.1013 33.4219 35.1509 33.456 35.2058 33.4795C35.2606 33.503 35.3196 33.5154 35.3792 33.516C35.4389 33.5165 35.4981 33.5053 35.5534 33.4828C35.6087 33.4604 35.6589 33.4272 35.7012 33.3853L44.4039 24.7506C44.4771 24.6779 44.523 24.5823 44.5339 24.4798C44.5447 24.3774 44.5199 24.2743 44.4635 24.188H44.4635Z" fill="#43B052"/>
<path d="M43.6583 24.2942L43.3041 24.0691C43.3414 24.1354 43.3551 24.2123 43.343 24.2873C43.3309 24.3622 43.2936 24.4309 43.2373 24.4821C43.181 24.5333 43.1089 24.564 43.0329 24.5692C42.9568 24.5743 42.8813 24.5537 42.8185 24.5106L40.5268 22.9406C40.4747 22.9049 40.4337 22.8554 40.4084 22.7977C40.3832 22.74 40.3748 22.6764 40.384 22.6141C40.3933 22.5518 40.42 22.4934 40.461 22.4455C40.502 22.3976 40.5557 22.3621 40.6159 22.3431L40.4335 22.2272C40.4098 22.2122 40.3817 22.2056 40.3538 22.2088C40.3259 22.2119 40.2999 22.2245 40.2801 22.2444L32.5706 29.7943C32.5591 29.8059 32.55 29.8196 32.544 29.8348C32.5379 29.8499 32.5349 29.8661 32.5352 29.8824C32.5355 29.8987 32.539 29.9148 32.5456 29.9297C32.5523 29.9446 32.5618 29.9581 32.5737 29.9693L35.3736 32.6879C35.3968 32.7097 35.4277 32.7217 35.4595 32.7213C35.4914 32.7208 35.5219 32.708 35.5445 32.6856L43.6789 24.484C43.692 24.471 43.7019 24.4553 43.708 24.4381C43.7142 24.4208 43.7163 24.4023 43.7143 24.3841C43.7124 24.3659 43.7063 24.3484 43.6966 24.3328C43.6869 24.3172 43.6738 24.304 43.6583 24.2942Z" fill="white"/>
<path d="M34.7598 28.127L37.1248 30.3492L42.7502 24.8107L39.8952 22.959L34.7598 28.127Z" fill="#E6E6E6"/>
<path d="M42.5317 26.1775C42.5473 26.1923 42.5681 26.2006 42.5896 26.2006C42.6112 26.2006 42.6319 26.1923 42.6475 26.1775L43.1394 25.6873C43.1547 25.672 43.1633 25.6512 43.1633 25.6296C43.1633 25.608 43.1547 25.5872 43.1394 25.5719C43.1238 25.5571 43.1031 25.5488 43.0816 25.5488C43.06 25.5488 43.0393 25.5571 43.0237 25.5719L42.5317 26.0621C42.5164 26.0775 42.5078 26.0982 42.5078 26.1198C42.5078 26.1414 42.5164 26.1622 42.5317 26.1775Z" fill="#3F3D56"/>
<path d="M41.7036 27.0033C41.719 27.0186 41.7398 27.0271 41.7615 27.0271C41.7832 27.0271 41.804 27.0186 41.8194 27.0033L42.3113 26.5131C42.3266 26.4978 42.3351 26.477 42.3351 26.4555C42.3351 26.4339 42.3264 26.4132 42.3111 26.3979C42.2958 26.3826 42.275 26.3741 42.2534 26.374C42.2317 26.374 42.2109 26.3825 42.1956 26.3977L41.7036 26.8879C41.6883 26.9033 41.6797 26.924 41.6797 26.9456C41.6797 26.9672 41.6883 26.988 41.7036 27.0033Z" fill="#3F3D56"/>
<path d="M34.8142 30.5854C35.1193 30.5854 35.3667 30.339 35.3667 30.0349C35.3667 29.7309 35.1193 29.4844 34.8142 29.4844C34.5091 29.4844 34.2617 29.7309 34.2617 30.0349C34.2617 30.339 34.5091 30.5854 34.8142 30.5854Z" fill="#43B052"/>
<path d="M20.1398 26.9675C20.1398 26.9675 19.4474 31.3049 22.3161 30.9106C22.3161 30.9106 33.6921 28.3476 34.2857 28.939C34.8792 29.5305 38.5691 29.7318 38.3767 27.2383C38.1835 24.7363 34.4835 26.1789 34.4835 26.1789C34.4835 26.1789 28.746 26.9675 27.559 26.3761C26.3719 25.7846 23.0086 25.9817 23.0086 25.9817L20.1398 26.9675Z" fill="#A0616A"/>
<path d="M24.1956 13.2656C24.1956 13.2656 19.7441 13.7585 19.7441 20.166V28.3478L25.1849 26.0806C25.1849 26.0806 27.4601 20.7574 27.2622 19.2788C27.0644 17.8001 27.1633 13.4628 24.1956 13.2656Z" fill="#E6E6E6"/>
</g>
<defs>
<clipPath id="clip0">
<rect width="142" height="86" fill="white"/>
</clipPath>
</defs>
</svg>
