<svg width="40" height="40" viewBox="0 0 40 40" fill="none" xmlns="http://www.w3.org/2000/svg">
<path fill-rule="evenodd" clip-rule="evenodd" d="M34.509 14.3078H35.4694C36.7072 14.3078 37.7113 15.3114 37.7114 16.5499V28.2085C37.7114 29.4462 36.7073 30.4503 35.4695 30.4503H34.509V38.4313C34.509 39.2961 33.8051 40 32.9404 40H7.05812C6.19262 40 5.4895 39.296 5.4895 38.4313V30.4503H4.52915C3.29103 30.4503 2.28711 29.4462 2.28711 28.2085V16.5495C2.28711 15.3109 3.29103 14.3075 4.52915 14.3075H5.48942V1.5687C5.48942 0.70392 6.19255 0 7.05805 0H26.0117C26.073 0 26.1335 0.00864196 26.1918 0.02244C26.1994 0.0244356 26.2067 0.0270396 26.214 0.0296518C26.2205 0.0319828 26.227 0.0343204 26.2339 0.0362381C26.2875 0.0522875 26.3395 0.0745097 26.3886 0.101307C26.4062 0.111038 26.4231 0.120479 26.4399 0.131735C26.4966 0.1687 26.5501 0.211401 26.5961 0.262745C26.5971 0.26424 26.5983 0.265123 26.5996 0.266087C26.6005 0.266714 26.6014 0.267376 26.6023 0.268264L34.3145 9.07812C34.4405 9.22133 34.499 9.40209 34.5005 9.58611L34.5022 9.59846C34.5056 9.62357 34.509 9.64857 34.509 9.6734V14.3078ZM25.2274 1.56899H7.05805V14.3083H32.9403V10.3789H26.0117C25.579 10.3789 25.2274 10.0279 25.2274 9.59461V1.56899ZM7.05805 38.0067H32.9403V30.4503H7.05805V38.0067ZM7.92627 23.3184H11.519V21.6045H7.92627V19.478H11.8809V17.7578H5.69824V27H7.92627V23.3184ZM13.96 27H16.1816V17.7578H13.96V27ZM24.8369 25.2861H20.9585V17.7578H18.7305V27H24.8369V25.2861ZM29.0044 23.0835H32.5083V21.4268H29.0044V19.478H33.1558V17.7578H26.7764V27H33.1431V25.2861H29.0044V23.0835Z" fill="#98B1BE"/>
</svg>
