<svg width="60" height="60" viewBox="0 0 60 60" fill="none" xmlns="http://www.w3.org/2000/svg">
<circle cx="30" cy="30" r="29" stroke="#00A7D8" stroke-width="2"/>
<g clip-path="url(#clip0)">
<path d="M38.6267 21.373C36.7961 19.5423 33.8282 19.5423 31.9976 21.3729L28.0798 25.2907C26.1863 27.1843 26.3616 30.2015 28.0798 31.9198C28.3676 32.2075 28.6859 32.4422 29.0221 32.6348L29.7371 31.9198C30.2061 31.4507 30.041 30.9024 30.0326 30.5068C29.9297 30.4338 29.8296 30.3549 29.7371 30.2625C28.8554 29.3808 28.8157 27.8693 29.7371 26.9479C29.874 26.8111 33.5717 23.1133 33.6548 23.0303C34.5688 22.1163 36.0553 22.1163 36.9694 23.0303C37.8834 23.9443 37.8834 25.4308 36.9694 26.3448L34.3798 28.9344C34.4547 29.3488 34.9041 30.3302 34.6729 31.9493C34.6842 31.9382 34.6977 31.9311 34.709 31.9198L38.6267 28.0021C40.4573 26.1715 40.4573 23.2036 38.6267 21.373Z" fill="#00A7D8"/>
<path d="M32.2233 27.7766C31.9356 27.4888 31.6172 27.2542 31.2812 27.0615L30.5661 27.7766C30.0971 28.2455 30.2621 28.7939 30.2706 29.1895C30.3736 29.2625 30.4737 29.3414 30.5661 29.4338C31.4479 30.3155 31.4875 31.827 30.5661 32.7484C30.429 32.8855 26.4249 36.8896 26.3448 36.9697C25.4308 37.8837 23.9442 37.8837 23.0302 36.9697C22.1162 36.0557 22.1162 34.5691 23.0302 33.6551L25.9235 30.7619C25.8486 30.3475 25.3991 29.3661 25.6303 27.747C25.619 27.7581 25.6054 27.7653 25.5942 27.7765L21.3729 31.9979C19.5424 33.8285 19.5424 36.7964 21.3729 38.627C23.2035 40.4576 26.1714 40.4576 28.002 38.627L32.2233 34.4057C34.0818 32.5473 33.9802 29.5334 32.2233 27.7766Z" fill="#00A7D8"/>
</g>
<defs>
<clipPath id="clip0">
<rect width="20" height="20" fill="white" transform="translate(20 20)"/>
</clipPath>
</defs>
</svg>
