<svg width="60" height="60" viewBox="0 0 60 60" fill="none" xmlns="http://www.w3.org/2000/svg">
<circle cx="30" cy="30" r="29" stroke="#00A7D8" stroke-width="2"/>
<g clip-path="url(#clip0)">
<path d="M41.2008 36.1834C41.1372 35.9916 40.7323 35.7092 39.9864 35.3366C39.7844 35.2192 39.4964 35.0596 39.1239 34.8572C38.751 34.6547 38.4126 34.4682 38.1092 34.2977C37.8051 34.1273 37.5203 33.9621 37.2542 33.8026C37.2116 33.7706 37.0785 33.6775 36.8548 33.5227C36.6308 33.3684 36.442 33.2538 36.2872 33.1791C36.1328 33.1048 35.9809 33.0674 35.8317 33.0674C35.6187 33.0674 35.3526 33.2193 35.0331 33.5227C34.7137 33.8265 34.4206 34.1565 34.1544 34.5137C33.8882 34.8708 33.6058 35.2008 33.3078 35.5044C33.0094 35.8082 32.7642 35.9599 32.5726 35.9599C32.4765 35.9599 32.3566 35.9331 32.2129 35.8802C32.0693 35.827 31.96 35.7814 31.885 35.7446C31.8107 35.707 31.6831 35.6327 31.5019 35.5205C31.3203 35.4086 31.2194 35.3473 31.1981 35.3366C29.7387 34.5268 28.487 33.5999 27.4429 32.5562C26.3991 31.5119 25.4721 30.2604 24.6625 28.8008C24.6519 28.7795 24.5905 28.6782 24.4787 28.4972C24.3667 28.316 24.2921 28.1883 24.2549 28.1136C24.2176 28.0391 24.1723 27.9298 24.1191 27.786C24.066 27.6422 24.0393 27.5225 24.0393 27.4265C24.0393 27.2348 24.1911 26.9897 24.4947 26.6914C24.7983 26.3932 25.1287 26.1108 25.4854 25.8446C25.8425 25.5785 26.1725 25.2854 26.4762 24.966C26.7797 24.6463 26.9315 24.3801 26.9315 24.1671C26.9315 24.018 26.8943 23.8661 26.8198 23.7117C26.7452 23.5569 26.6307 23.3681 26.4762 23.1442C26.3216 22.9205 26.2284 22.7875 26.1964 22.7447C26.0367 22.4785 25.8718 22.1936 25.7011 21.8899C25.5305 21.5864 25.3442 21.248 25.1417 20.8751C24.9394 20.5025 24.7797 20.2147 24.6624 20.0124C24.2897 19.2668 24.0075 18.8618 23.8157 18.7981C23.7411 18.7661 23.6291 18.75 23.4801 18.75C23.1923 18.75 22.8169 18.8032 22.3535 18.9099C21.8899 19.0164 21.5252 19.1281 21.2588 19.2455C20.7261 19.4691 20.1616 20.1189 19.5649 21.1947C19.0216 22.1959 18.75 23.1868 18.75 24.1668C18.75 24.4542 18.7686 24.7339 18.8059 25.0058C18.8432 25.2774 18.9098 25.5837 19.0058 25.9247C19.1016 26.2655 19.1789 26.5188 19.2373 26.6836C19.2958 26.8486 19.405 27.1442 19.5649 27.5705C19.7245 27.9967 19.8205 28.2575 19.8524 28.3534C20.2253 29.3975 20.6674 30.3296 21.1787 31.1499C22.0199 32.5135 23.1679 33.9226 24.622 35.3769C26.0762 36.831 27.4851 37.9789 28.8487 38.8205C29.669 39.3317 30.6014 39.7738 31.6453 40.1469C31.7412 40.1787 32.0021 40.2744 32.4281 40.4346C32.8543 40.5944 33.15 40.7036 33.315 40.7622C33.48 40.8208 33.7333 40.8982 34.0739 40.9942C34.4152 41.0901 34.7212 41.1568 34.9928 41.1943C35.2646 41.2311 35.5443 41.2501 35.8318 41.2501C36.8117 41.2501 37.8027 40.9783 38.8041 40.435C39.8798 39.8386 40.5294 39.2739 40.7532 38.7408C40.8708 38.4748 40.9822 38.1099 41.0888 37.6463C41.1956 37.183 41.2487 36.8076 41.2487 36.5199C41.249 36.3703 41.2329 36.2586 41.2008 36.1834Z" fill="#00A7D8"/>
</g>
<defs>
<clipPath id="clip0">
<rect width="22.5" height="22.5" fill="white" transform="translate(18.75 18.75)"/>
</clipPath>
</defs>
</svg>
