<svg width="40" height="40" viewBox="0 0 40 40" fill="none" xmlns="http://www.w3.org/2000/svg">
<path d="M16.2401 19.1387C15.8386 19.1387 15.5668 19.1779 15.4248 19.2161V21.7908C15.5935 21.8302 15.8002 21.8429 16.0847 21.8429C17.1334 21.8429 17.78 21.3121 17.78 20.4189C17.78 19.6176 17.2228 19.1387 16.2401 19.1387Z" fill="#98B1BE"/>
<path d="M35.4715 14.3074H34.511V9.67297C34.511 9.64386 34.5065 9.61497 34.5026 9.58542C34.5011 9.40143 34.4424 9.22065 34.3164 9.07766L26.6044 0.268252C26.602 0.265771 26.5997 0.265042 26.5982 0.26278C26.5522 0.211421 26.4987 0.168524 26.4419 0.131755C26.4251 0.120301 26.4082 0.11089 26.3906 0.101187C26.3416 0.0745589 26.2895 0.0521621 26.2359 0.0360393C26.2213 0.0322457 26.2083 0.0262634 26.1938 0.0223239C26.1355 0.00860857 26.075 0 26.0138 0H7.06003C6.19458 0 5.49145 0.703933 5.49145 1.56866V14.3074H4.53108C3.29298 14.3074 2.28906 15.3109 2.28906 16.5492V28.208C2.28906 29.4458 3.29298 30.4503 4.53108 30.4503H5.49145V38.4314C5.49145 39.2962 6.19458 40 7.06003 40H32.9423C33.8071 40 34.5109 39.2962 34.5109 38.4314V30.4504H35.4714C36.7092 30.4504 37.7132 29.4463 37.7132 28.2085V16.5499C37.7133 15.311 36.7093 14.3074 35.4715 14.3074ZM7.06003 1.56866H25.2295V9.59403C25.2295 10.0274 25.5809 10.3784 26.0138 10.3784H32.9424V14.3077H7.06003V1.56866ZM20.329 19.3725V17.7156H27.0308V19.3725H24.6503V26.436H22.6712V19.3725H20.329ZM19.7318 20.3684C19.7318 21.2217 19.448 21.9458 18.9302 22.4376C18.257 23.0717 17.2605 23.3571 16.0969 23.3571C15.8375 23.3571 15.6045 23.344 15.4237 23.3177V26.4357H13.47V17.8321C14.0781 17.7287 14.9323 17.6506 16.1354 17.6506C17.3523 17.6506 18.2186 17.8836 18.8015 18.3491C19.3578 18.7894 19.7318 19.514 19.7318 20.3684ZM5.95266 26.4357V17.8321C6.56081 17.7287 7.41422 17.6506 8.61738 17.6506C9.83389 17.6506 10.7001 17.8836 11.2828 18.3491C11.8392 18.7895 12.2142 19.514 12.2142 20.3677C12.2142 21.2209 11.9294 21.9454 11.4118 22.4372C10.7385 23.0713 9.74291 23.3563 8.57813 23.3563C8.32017 23.3563 8.08598 23.3432 7.90484 23.3173V26.4353H5.95266V26.4357ZM32.9424 38.0062H7.06003V30.4504H32.9423V38.0062H32.9424ZM32.9065 26.4357L32.1168 24.8572C31.794 24.249 31.586 23.7963 31.3401 23.292H31.3149C31.1341 23.7963 30.9134 24.249 30.6423 24.8572L29.9174 26.4357H27.6666L30.1888 22.0229L27.7574 17.7156H30.021L30.7839 19.3074C31.0433 19.8376 31.2373 20.2647 31.4442 20.7564H31.4701C31.677 20.1995 31.8455 19.8114 32.0654 19.3074L32.8029 17.7156H35.0547L32.596 21.9723L35.1834 26.4357H32.9065Z" fill="#98B1BE"/>
<path d="M10.2609 20.4188C10.2609 19.6171 9.70446 19.1382 8.72097 19.1382C8.32067 19.1382 8.04753 19.1774 7.90527 19.2156V21.7906C8.07416 21.8297 8.28062 21.8428 8.56572 21.8428C9.61429 21.8428 10.2609 21.3123 10.2609 20.4188Z" fill="#98B1BE"/>
</svg>
