<svg width="2633" height="33" viewBox="0 0 2633 33" fill="none" xmlns="http://www.w3.org/2000/svg">
<path d="M17.2328 16.9643V15.3083C14.9288 15.7043 12.5528 15.9203 10.6448 15.9203C4.66881 15.9203 1.86081 13.7243 1.86081 9.04434V2.38434H0.132812V9.15234C0.132812 14.7323 3.62481 17.5403 10.5368 17.5403C12.5168 17.5403 14.9648 17.3243 17.2328 16.9643ZM21.9488 2.38434H20.1848V26.0003H21.9488V2.38434Z" fill="#00A7D8"/>
<path d="M26.1546 9.90834H47.1786V8.36034H26.1546V9.90834ZM37.6386 12.7883H35.9466V26.0003H37.6386V12.7883Z" fill="#00A7D8"/>
<path d="M57.8307 9.62034V8.07234C52.3227 8.57634 48.9387 11.8163 48.9387 16.8563V17.6123C48.9387 22.5443 52.3227 25.7843 57.8307 26.2883V24.7043C53.4027 24.2363 50.6667 21.6443 50.6667 17.5763V16.8563C50.6667 12.7523 53.3307 10.1243 57.8307 9.62034ZM60.7827 8.07234V9.65634C65.1747 10.1243 67.8387 12.8243 67.8387 16.8563V17.5763C67.8387 21.6083 65.1387 24.2723 60.7827 24.7043V26.2883C66.2187 25.7843 69.5667 22.5443 69.5667 17.6123V16.8563C69.5667 11.8523 66.2187 8.57634 60.7827 8.07234Z" fill="#00A7D8"/>
<path d="M73.8965 31.1483H75.5165L78.5405 22.5443V22.2563H76.6325L73.8965 31.1483Z" fill="#00A7D8"/>
<path d="M100.442 26.0003H102.134V8.36034H100.442V26.0003ZM109.658 17.1083L119.486 8.64834V8.36034H117.506L108.146 16.3883H105.086V17.9003H108.218L118.046 26.0003H119.99V25.7123L109.658 17.1083Z" fill="#00A7D8"/>
<path d="M131.194 9.69234V8.07234C126.55 8.50434 123.49 11.0603 123.49 14.5163V14.8043H125.146V14.5163C125.146 11.9603 127.594 10.0883 131.194 9.69234ZM134.146 8.07234V9.69234C138.106 10.0523 140.23 11.9963 140.23 15.3083V22.2563C140.23 24.5963 141.778 26.0003 144.406 26.0003H146.314V24.4883H144.73C142.93 24.4883 141.886 23.5523 141.886 21.9323V15.3083C141.886 11.0963 139.078 8.46834 134.146 8.07234ZM137.386 24.7403L137.278 23.1563C135.694 24.2363 133.498 24.8843 131.014 24.8843C127.054 24.8843 125.074 23.8043 125.074 21.6803C125.074 19.6283 126.694 18.5483 130.294 18.1883L137.278 17.4683V16.0283L129.97 16.7843C125.506 17.2523 123.382 18.8363 123.382 21.6803C123.382 24.7763 126.01 26.3963 131.05 26.3963C133.57 26.3963 135.73 25.8203 137.386 24.7403Z" fill="#00A7D8"/>
<path d="M149.872 26.0003H151.564V8.36034H149.872V26.0003ZM159.088 17.1083L168.916 8.64834V8.36034H166.936L157.576 16.3883H154.516V17.9003H157.648L167.476 26.0003H169.42V25.7123L159.088 17.1083Z" fill="#00A7D8"/>
<path d="M205.921 8.36034L189.001 26.0003H190.765L207.685 8.36034H205.921ZM189.001 21.4283L190.621 19.5923V8.36034H189.001V21.4283ZM207.685 12.9323L206.065 14.7683V26.0003H207.685V12.9323Z" fill="#00A7D8"/>
<path d="M229.079 26.0003H230.771V8.36034H229.079V26.0003ZM238.295 17.1083L248.123 8.64834V8.36034H246.143L236.783 16.3883H233.723V17.9003H236.855L246.683 26.0003H248.627V25.7123L238.295 17.1083Z" fill="#00A7D8"/>
<path d="M259.803 9.62034V8.07234C254.295 8.57634 250.911 11.8163 250.911 16.8563V17.6123C250.911 22.5443 254.295 25.7843 259.803 26.2883V24.7043C255.375 24.2363 252.639 21.6443 252.639 17.5763V16.8563C252.639 12.7523 255.303 10.1243 259.803 9.62034ZM262.755 8.07234V9.65634C267.147 10.1243 269.811 12.8243 269.811 16.8563V17.5763C269.811 21.6083 267.111 24.2723 262.755 24.7043V26.2883C268.191 25.7843 271.539 22.5443 271.539 17.6123V16.8563C271.539 11.8523 268.191 8.57634 262.755 8.07234Z" fill="#00A7D8"/>
<path d="M278.724 26.0003V8.36034H277.032V26.0003H278.724ZM281.676 8.36034V9.90834H291.612V8.36034H281.676Z" fill="#00A7D8"/>
<path d="M308.808 8.36034H296.496L296.316 17.5403C296.244 20.5643 295.452 22.7963 294.228 24.4883H291.564L291.6 30.6083H293.256V26.0003H308.808V24.4883H295.956C297.072 22.7963 297.828 20.6723 297.9 17.5403L298.044 9.87234H308.808V8.36034ZM313.452 24.4883V8.36034H311.76V26.0003H315.468V30.6083H317.124V24.4883H313.452Z" fill="#00A7D8"/>
<path d="M328.526 9.69234V8.07234C323.882 8.50434 320.822 11.0603 320.822 14.5163V14.8043H322.478V14.5163C322.478 11.9603 324.926 10.0883 328.526 9.69234ZM331.478 8.07234V9.69234C335.438 10.0523 337.562 11.9963 337.562 15.3083V22.2563C337.562 24.5963 339.11 26.0003 341.738 26.0003H343.646V24.4883H342.062C340.262 24.4883 339.218 23.5523 339.218 21.9323V15.3083C339.218 11.0963 336.41 8.46834 331.478 8.07234ZM334.718 24.7403L334.61 23.1563C333.026 24.2363 330.83 24.8843 328.346 24.8843C324.386 24.8843 322.406 23.8043 322.406 21.6803C322.406 19.6283 324.026 18.5483 327.626 18.1883L334.61 17.4683V16.0283L327.302 16.7843C322.838 17.2523 320.714 18.8363 320.714 21.6803C320.714 24.7763 323.342 26.3963 328.382 26.3963C330.902 26.3963 333.062 25.8203 334.718 24.7403Z" fill="#00A7D8"/>
<path d="M366.262 23.3363V24.9563C367.666 25.8563 369.538 26.3963 371.518 26.3963C377.674 26.3963 381.67 22.9403 381.67 17.5403V16.8203C381.67 11.3843 377.674 7.96434 371.518 7.96434C369.538 7.96434 367.702 8.46834 366.262 9.40434V11.0243C367.594 10.0883 369.394 9.54834 371.302 9.54834C376.63 9.54834 379.942 12.2843 379.942 16.8203V17.5403C379.942 22.0763 376.63 24.8123 371.302 24.8123C369.394 24.8123 367.594 24.2723 366.262 23.3363ZM361.618 32.1203H363.31V8.36034H361.618V32.1203Z" fill="#00A7D8"/>
<path d="M394.268 9.69234V8.07234C389.624 8.50434 386.564 11.0603 386.564 14.5163V14.8043H388.22V14.5163C388.22 11.9603 390.668 10.0883 394.268 9.69234ZM397.22 8.07234V9.69234C401.18 10.0523 403.304 11.9963 403.304 15.3083V22.2563C403.304 24.5963 404.852 26.0003 407.48 26.0003H409.388V24.4883H407.804C406.004 24.4883 404.96 23.5523 404.96 21.9323V15.3083C404.96 11.0963 402.152 8.46834 397.22 8.07234ZM400.46 24.7403L400.352 23.1563C398.768 24.2363 396.572 24.8843 394.088 24.8843C390.128 24.8843 388.148 23.8043 388.148 21.6803C388.148 19.6283 389.768 18.5483 393.368 18.1883L400.352 17.4683V16.0283L393.044 16.7843C388.58 17.2523 386.456 18.8363 386.456 21.6803C386.456 24.7763 389.084 26.3963 394.124 26.3963C396.644 26.3963 398.804 25.8203 400.46 24.7403Z" fill="#00A7D8"/>
<path d="M423.718 2.78034V4.36434L428.362 4.00434C430.558 3.82434 431.494 3.03234 431.494 1.34034V0.944336H429.694V1.30434C429.694 2.06034 429.226 2.34834 427.966 2.45634L423.718 2.78034ZM420.766 4.68834V3.10434C414.61 4.04034 411.766 7.38834 411.766 13.6523V15.8843C411.766 22.1483 414.934 25.7843 420.766 26.2883V24.7403C415.978 24.2363 413.458 21.3563 413.458 16.2443V13.0763C413.458 8.14434 415.69 5.48034 420.766 4.68834ZM416.41 10.8083V12.3203C417.922 11.1683 419.938 10.4843 422.206 10.4843C427.39 10.4843 430.738 13.1843 430.738 17.3243V18.0803C430.738 21.7523 428.038 24.2723 423.718 24.7403V26.2883C429.046 25.8203 432.466 22.7243 432.466 18.0803V17.2883C432.466 12.2483 428.506 8.93634 422.53 8.93634C420.154 8.93634 417.994 9.58434 416.41 10.8083Z" fill="#00A7D8"/>
<path d="M445.393 9.62034V8.07234C439.885 8.57634 436.501 11.8163 436.501 16.8563V17.6123C436.501 22.5443 439.885 25.7843 445.393 26.2883V24.7043C440.965 24.2363 438.229 21.6443 438.229 17.5763V16.8563C438.229 12.7523 440.893 10.1243 445.393 9.62034ZM448.345 8.07234V9.65634C452.737 10.1243 455.401 12.8243 455.401 16.8563V17.5763C455.401 21.6083 452.701 24.2723 448.345 24.7043V26.2883C453.781 25.7843 457.129 22.5443 457.129 17.6123V16.8563C457.129 11.8523 453.781 8.57634 448.345 8.07234Z" fill="#00A7D8"/>
<path d="M458.858 9.90834H479.882V8.36034H458.858V9.90834ZM470.342 12.7883H468.65V26.0003H470.342V12.7883Z" fill="#00A7D8"/>
<path d="M490.21 9.69234V8.07234C485.566 8.50434 482.506 11.0603 482.506 14.5163V14.8043H484.162V14.5163C484.162 11.9603 486.61 10.0883 490.21 9.69234ZM493.162 8.07234V9.69234C497.122 10.0523 499.246 11.9963 499.246 15.3083V22.2563C499.246 24.5963 500.794 26.0003 503.422 26.0003H505.33V24.4883H503.746C501.946 24.4883 500.902 23.5523 500.902 21.9323V15.3083C500.902 11.0963 498.094 8.46834 493.162 8.07234ZM496.402 24.7403L496.294 23.1563C494.71 24.2363 492.514 24.8843 490.03 24.8843C486.07 24.8843 484.09 23.8043 484.09 21.6803C484.09 19.6283 485.71 18.5483 489.31 18.1883L496.294 17.4683V16.0283L488.986 16.7843C484.522 17.2523 482.398 18.8363 482.398 21.6803C482.398 24.7763 485.026 26.3963 490.066 26.3963C492.586 26.3963 494.746 25.8203 496.402 24.7403Z" fill="#00A7D8"/>
<path d="M519.111 8.07234V9.65634C523.143 10.1243 525.663 12.5723 525.771 16.2803H509.175C509.319 12.5723 511.947 10.1243 516.159 9.65634V8.07234C510.795 8.57634 507.411 11.8523 507.411 16.7843V17.6123C507.411 22.5083 510.759 25.7843 516.159 26.2883V24.7043C511.839 24.2363 509.175 21.6803 509.175 17.7203H527.535V16.6763C527.535 11.7803 524.295 8.57634 519.111 8.07234ZM519.111 24.7403V26.2883C524.115 25.8923 527.391 23.4083 527.535 19.7003H525.735C525.663 22.4363 523.071 24.3803 519.111 24.7403Z" fill="#00A7D8"/>
<path d="M529.276 9.90834H550.3V8.36034H529.276V9.90834ZM540.76 12.7883H539.068V26.0003H540.76V12.7883Z" fill="#00A7D8"/>
<path d="M566.86 26.0003H568.552V8.36034H566.86V26.0003ZM582.916 17.0363C584.932 16.3883 586.084 15.0203 586.084 13.1483V12.7883C586.084 9.98034 583.744 8.36034 579.748 8.36034H571.504V9.72834H579.676C582.664 9.72834 584.356 10.8443 584.356 12.8243V13.1483C584.356 15.2363 582.664 16.4243 579.676 16.4243H571.504V17.7923H580.144C583.132 17.7923 584.824 18.9803 584.824 21.0323V21.3923C584.824 23.4803 583.132 24.6323 580.144 24.6323H571.504V26.0003H580.18C584.212 26.0003 586.552 24.3083 586.552 21.4283V21.0683C586.552 19.0163 585.256 17.6483 582.916 17.0363Z" fill="#00A7D8"/>
<path d="M614.249 9.62034V8.07234C608.741 8.57634 605.357 11.8163 605.357 16.8563V17.6123C605.357 22.5443 608.741 25.7843 614.249 26.2883V24.7043C609.821 24.2363 607.085 21.6443 607.085 17.5763V16.8563C607.085 12.7523 609.749 10.1243 614.249 9.62034ZM617.201 8.07234V9.65634C621.593 10.1243 624.257 12.8243 624.257 16.8563V17.5763C624.257 21.6083 621.557 24.2723 617.201 24.7043V26.2883C622.637 25.7843 625.985 22.5443 625.985 17.6123V16.8563C625.985 11.8523 622.637 8.57634 617.201 8.07234Z" fill="#00A7D8"/>
<path d="M642.565 2.78034V4.36434L647.209 4.00434C649.405 3.82434 650.341 3.03234 650.341 1.34034V0.944336H648.541V1.30434C648.541 2.06034 648.073 2.34834 646.813 2.45634L642.565 2.78034ZM639.613 4.68834V3.10434C633.457 4.04034 630.613 7.38834 630.613 13.6523V15.8843C630.613 22.1483 633.781 25.7843 639.613 26.2883V24.7403C634.825 24.2363 632.305 21.3563 632.305 16.2443V13.0763C632.305 8.14434 634.537 5.48034 639.613 4.68834ZM635.257 10.8083V12.3203C636.769 11.1683 638.785 10.4843 641.053 10.4843C646.237 10.4843 649.585 13.1843 649.585 17.3243V18.0803C649.585 21.7523 646.885 24.2723 642.565 24.7403V26.2883C647.893 25.8203 651.313 22.7243 651.313 18.0803V17.2883C651.313 12.2483 647.353 8.93634 641.377 8.93634C639.001 8.93634 636.841 9.58434 635.257 10.8083Z" fill="#00A7D8"/>
<path d="M661.469 23.3363V24.9563C662.873 25.8563 664.745 26.3963 666.725 26.3963C672.881 26.3963 676.877 22.9403 676.877 17.5403V16.8203C676.877 11.3843 672.881 7.96434 666.725 7.96434C664.745 7.96434 662.909 8.46834 661.469 9.40434V11.0243C662.801 10.0883 664.601 9.54834 666.509 9.54834C671.837 9.54834 675.149 12.2843 675.149 16.8203V17.5403C675.149 22.0763 671.837 24.8123 666.509 24.8123C664.601 24.8123 662.801 24.2723 661.469 23.3363ZM656.825 32.1203H658.517V8.36034H656.825V32.1203Z" fill="#00A7D8"/>
<path d="M689.475 9.69234V8.07234C684.831 8.50434 681.771 11.0603 681.771 14.5163V14.8043H683.427V14.5163C683.427 11.9603 685.875 10.0883 689.475 9.69234ZM692.427 8.07234V9.69234C696.387 10.0523 698.511 11.9963 698.511 15.3083V22.2563C698.511 24.5963 700.059 26.0003 702.687 26.0003H704.595V24.4883H703.011C701.211 24.4883 700.167 23.5523 700.167 21.9323V15.3083C700.167 11.0963 697.359 8.46834 692.427 8.07234ZM695.667 24.7403L695.559 23.1563C693.975 24.2363 691.779 24.8843 689.295 24.8843C685.335 24.8843 683.355 23.8043 683.355 21.6803C683.355 19.6283 684.975 18.5483 688.575 18.1883L695.559 17.4683V16.0283L688.251 16.7843C683.787 17.2523 681.663 18.8363 681.663 21.6803C681.663 24.7763 684.291 26.3963 689.331 26.3963C691.851 26.3963 694.011 25.8203 695.667 24.7403Z" fill="#00A7D8"/>
<path d="M708.585 14.9843C708.585 11.5283 710.745 9.83634 715.353 9.54834V8.03634C709.809 8.39634 706.929 10.7363 706.929 14.9843V15.2003H708.585V14.9843ZM723.345 17.0363C725.289 16.3163 726.441 14.9843 726.441 13.2563V12.9323C726.441 9.94434 723.669 8.25234 718.305 8.03634V9.54834C722.625 9.72834 724.713 10.8443 724.713 12.9683V13.2923C724.713 15.2363 722.985 16.3523 719.925 16.3523H714.309V17.8643H720.357C723.453 17.8643 725.181 18.9443 725.181 20.8883V21.1763C725.181 23.5163 723.021 24.6683 718.305 24.8123V26.3603C724.065 26.1443 726.909 24.4163 726.909 21.2483V20.9243C726.909 19.0883 725.577 17.6843 723.345 17.0363ZM708.585 19.4123V19.1963H706.929V19.4123C706.929 23.6963 709.773 25.9643 715.353 26.3243V24.8123C710.781 24.4883 708.585 22.7963 708.585 19.4123Z" fill="#00A7D8"/>
<path d="M740.178 9.62034V8.07234C734.67 8.57634 731.286 11.8163 731.286 16.8563V17.6123C731.286 22.5443 734.67 25.7843 740.178 26.2883V24.7043C735.75 24.2363 733.014 21.6443 733.014 17.5763V16.8563C733.014 12.7523 735.678 10.1243 740.178 9.62034ZM743.13 8.07234V9.65634C747.522 10.1243 750.186 12.8243 750.186 16.8563V17.5763C750.186 21.6083 747.486 24.2723 743.13 24.7043V26.2883C748.566 25.7843 751.914 22.5443 751.914 17.6123V16.8563C751.914 11.8523 748.566 8.57634 743.13 8.07234Z" fill="#00A7D8"/>
<path d="M757.407 26.0003H759.099V8.36034H757.407V26.0003ZM773.463 17.0363C775.479 16.3883 776.631 15.0203 776.631 13.1483V12.7883C776.631 9.98034 774.291 8.36034 770.295 8.36034H762.051V9.72834H770.223C773.211 9.72834 774.903 10.8443 774.903 12.8243V13.1483C774.903 15.2363 773.211 16.4243 770.223 16.4243H762.051V17.7923H770.691C773.679 17.7923 775.371 18.9803 775.371 21.0323V21.3923C775.371 23.4803 773.679 24.6323 770.691 24.6323H762.051V26.0003H770.727C774.759 26.0003 777.099 24.3083 777.099 21.4283V21.0683C777.099 19.0163 775.803 17.6483 773.463 17.0363Z" fill="#00A7D8"/>
<path d="M790.057 9.69234V8.07234C785.413 8.50434 782.353 11.0603 782.353 14.5163V14.8043H784.009V14.5163C784.009 11.9603 786.457 10.0883 790.057 9.69234ZM793.009 8.07234V9.69234C796.969 10.0523 799.093 11.9963 799.093 15.3083V22.2563C799.093 24.5963 800.641 26.0003 803.269 26.0003H805.177V24.4883H803.593C801.793 24.4883 800.749 23.5523 800.749 21.9323V15.3083C800.749 11.0963 797.941 8.46834 793.009 8.07234ZM796.249 24.7403L796.141 23.1563C794.557 24.2363 792.361 24.8843 789.877 24.8843C785.917 24.8843 783.937 23.8043 783.937 21.6803C783.937 19.6283 785.557 18.5483 789.157 18.1883L796.141 17.4683V16.0283L788.833 16.7843C784.369 17.2523 782.245 18.8363 782.245 21.6803C782.245 24.7763 784.873 26.3963 789.913 26.3963C792.433 26.3963 794.593 25.8203 796.249 24.7403Z" fill="#00A7D8"/>
<path d="M804.584 9.90834H825.608V8.36034H804.584V9.90834ZM816.068 12.7883H814.376V26.0003H816.068V12.7883Z" fill="#00A7D8"/>
<path d="M839.068 8.07234V9.65634C843.1 10.1243 845.62 12.5723 845.728 16.2803H829.132C829.276 12.5723 831.904 10.1243 836.116 9.65634V8.07234C830.752 8.57634 827.368 11.8523 827.368 16.7843V17.6123C827.368 22.5083 830.716 25.7843 836.116 26.2883V24.7043C831.796 24.2363 829.132 21.6803 829.132 17.7203H847.492V16.6763C847.492 11.7803 844.252 8.57634 839.068 8.07234ZM839.068 24.7403V26.2883C844.072 25.8923 847.348 23.4083 847.492 19.7003H845.692C845.62 22.4363 843.028 24.3803 839.068 24.7403Z" fill="#00A7D8"/>
<path d="M866.684 8.36034H854.588L854.12 20.1683C854.012 23.1923 852.968 24.4883 850.556 24.4883H849.26V26.0003H850.88C854.012 26.0003 855.632 24.1643 855.776 20.3123L856.136 9.87234H866.684V8.36034ZM869.636 8.36034V26.0003H871.328V8.36034H869.636Z" fill="#00A7D8"/>
<path d="M878.309 26.0003H880.001V8.36034H878.309V26.0003ZM882.953 14.6963V16.2083H891.413C894.581 16.2083 896.273 17.5763 896.273 20.1323V20.6003C896.273 23.0843 894.545 24.4883 891.413 24.4883H882.953V26.0003H891.521C895.553 26.0003 898.001 23.9843 898.001 20.6003V20.1323C898.001 16.6763 895.625 14.6963 891.521 14.6963H882.953Z" fill="#00A7D8"/>
<path d="M905.349 26.0003V8.36034H903.657V26.0003H905.349ZM908.301 16.4243V17.9363H920.829V26.0003H922.521V8.36034H920.829V16.4243H908.301Z" fill="#00A7D8"/>
<path d="M930.073 26.0003H931.765V8.36034H930.073V26.0003ZM952.717 26.0003H954.409V8.36034H952.717V26.0003ZM934.717 26.0003H942.961C947.281 26.0003 949.441 23.7323 949.441 20.6003V20.1323C949.441 16.9283 947.317 14.6963 942.961 14.6963H934.717V16.2083H942.853C946.309 16.2083 947.713 17.8283 947.713 20.1323V20.6003C947.713 22.8683 946.273 24.4883 942.853 24.4883H934.717V26.0003Z" fill="#00A7D8"/>
<path d="M960.325 8.64834L978.433 26.0003H980.413V25.7123L962.305 8.36034H960.325V8.64834ZM972.457 13.9043L973.573 15.0563L980.197 8.64834V8.36034H978.325L972.457 13.9043ZM968.137 20.3123L967.021 19.1603L960.181 25.7123V26.0003H962.197L968.137 20.3123Z" fill="#00A7D8"/>
<path d="M996.924 9.90834H1017.95V8.36034H996.924V9.90834ZM1008.41 12.7883H1006.72V26.0003H1008.41V12.7883Z" fill="#00A7D8"/>
<path d="M1031.41 8.07234V9.65634C1035.44 10.1243 1037.96 12.5723 1038.07 16.2803H1021.47C1021.62 12.5723 1024.24 10.1243 1028.46 9.65634V8.07234C1023.09 8.57634 1019.71 11.8523 1019.71 16.7843V17.6123C1019.71 22.5083 1023.06 25.7843 1028.46 26.2883V24.7043C1024.14 24.2363 1021.47 21.6803 1021.47 17.7203H1039.83V16.6763C1039.83 11.7803 1036.59 8.57634 1031.41 8.07234ZM1031.41 24.7403V26.2883C1036.41 25.8923 1039.69 23.4083 1039.83 19.7003H1038.03C1037.96 22.4363 1035.37 24.3803 1031.41 24.7403Z" fill="#00A7D8"/>
<path d="M1042.27 8.64834L1060.38 26.0003H1062.36V25.7123L1044.25 8.36034H1042.27V8.64834ZM1054.41 13.9043L1055.52 15.0563L1062.15 8.64834V8.36034H1060.27L1054.41 13.9043ZM1050.09 20.3123L1048.97 19.1603L1042.13 25.7123V26.0003H1044.15L1050.09 20.3123Z" fill="#00A7D8"/>
<path d="M1069.25 26.0003V8.36034H1067.56V26.0003H1069.25ZM1072.2 16.4243V17.9363H1084.73V26.0003H1086.42V8.36034H1084.73V16.4243H1072.2Z" fill="#00A7D8"/>
<path d="M1100.81 9.62034V8.07234C1095.3 8.57634 1091.92 11.8163 1091.92 16.8563V17.6123C1091.92 22.5443 1095.3 25.7843 1100.81 26.2883V24.7043C1096.38 24.2363 1093.65 21.6443 1093.65 17.5763V16.8563C1093.65 12.7523 1096.31 10.1243 1100.81 9.62034ZM1103.76 8.07234V9.65634C1108.16 10.1243 1110.82 12.8243 1110.82 16.8563V17.5763C1110.82 21.6083 1108.12 24.2723 1103.76 24.7043V26.2883C1109.2 25.7843 1112.55 22.5443 1112.55 17.6123V16.8563C1112.55 11.8523 1109.2 8.57634 1103.76 8.07234Z" fill="#00A7D8"/>
<path d="M1131.73 8.36034H1119.63L1119.16 20.1683C1119.06 23.1923 1118.01 24.4883 1115.6 24.4883H1114.3V26.0003H1115.92C1119.06 26.0003 1120.68 24.1643 1120.82 20.3123L1121.18 9.87234H1131.73V8.36034ZM1134.68 8.36034V26.0003H1136.37V8.36034H1134.68Z" fill="#00A7D8"/>
<path d="M1150.77 9.62034V8.07234C1145.26 8.57634 1141.88 11.8163 1141.88 16.8563V17.6123C1141.88 22.5443 1145.26 25.7843 1150.77 26.2883V24.7043C1146.34 24.2363 1143.6 21.6443 1143.6 17.5763V16.8563C1143.6 12.7523 1146.27 10.1243 1150.77 9.62034ZM1153.72 8.07234V9.65634C1158.11 10.1243 1160.78 12.8243 1160.78 16.8563V17.5763C1160.78 21.6083 1158.08 24.2723 1153.72 24.7043V26.2883C1159.16 25.7843 1162.5 22.5443 1162.5 17.6123V16.8563C1162.5 11.8523 1159.16 8.57634 1153.72 8.07234Z" fill="#00A7D8"/>
<path d="M1169.69 26.0003V8.36034H1168V26.0003H1169.69ZM1172.64 8.36034V9.90834H1182.58V8.36034H1172.64Z" fill="#00A7D8"/>
<path d="M1203.37 8.36034L1186.45 26.0003H1188.22L1205.14 8.36034H1203.37ZM1186.45 21.4283L1188.07 19.5923V8.36034H1186.45V21.4283ZM1205.14 12.9323L1203.52 14.7683V26.0003H1205.14V12.9323Z" fill="#00A7D8"/>
<path d="M1210.69 13.8323V14.0843C1210.69 17.3603 1213.21 19.2323 1217.53 19.2323H1219.29L1210.8 25.7483V26.0003H1212.96L1221.78 19.2323H1225.74V17.7923H1217.64C1214.25 17.7923 1212.42 16.4963 1212.42 14.0843V13.8323C1212.42 11.2763 1214.25 9.87234 1217.64 9.87234H1225.74V8.36034H1217.53C1213.21 8.36034 1210.69 10.3763 1210.69 13.8323ZM1228.69 8.36034V26.0003H1230.38V8.36034H1228.69Z" fill="#00A7D8"/>
<path d="M1235.7 8.64834L1253.81 26.0003H1255.79V25.7123L1237.68 8.36034H1235.7V8.64834ZM1247.84 13.9043L1248.95 15.0563L1255.58 8.64834V8.36034H1253.7L1247.84 13.9043ZM1243.52 20.3123L1242.4 19.1603L1235.56 25.7123V26.0003H1237.58L1243.52 20.3123Z" fill="#00A7D8"/>
<path d="M1267.25 3.64434V2.09634C1262.35 2.49234 1259.4 5.04834 1259.4 9.00834V9.76434H1261.06V9.00834C1261.06 5.98434 1263.36 4.04034 1267.25 3.64434ZM1270.2 2.09634V3.64434C1273.8 4.00434 1275.96 5.69634 1275.96 8.28834V8.64834C1275.96 10.3763 1274.95 11.4923 1271.68 13.3643C1268.58 15.1283 1267.61 16.4963 1267.61 19.1243V20.5643H1269.19V19.1243C1269.19 17.0723 1270.06 15.9563 1273.01 14.3003C1276.43 12.3563 1277.69 10.8443 1277.69 8.68434V8.25234C1277.69 4.90434 1274.7 2.52834 1270.2 2.09634ZM1268.4 26.3963C1269.12 26.3963 1269.7 25.8923 1269.7 25.1003C1269.7 24.3443 1269.12 23.8403 1268.4 23.8403C1267.72 23.8403 1267.1 24.3443 1267.1 25.1003C1267.1 25.8923 1267.72 26.3963 1268.4 26.3963Z" fill="#00A7D8"/>
<path d="M1372.54 16.9643V15.3083C1370.24 15.7043 1367.86 15.9203 1365.95 15.9203C1359.98 15.9203 1357.17 13.7243 1357.17 9.04434V2.38434H1355.44V9.15234C1355.44 14.7323 1358.93 17.5403 1365.85 17.5403C1367.83 17.5403 1370.27 17.3243 1372.54 16.9643ZM1377.26 2.38434H1375.49V26.0003H1377.26V2.38434Z" fill="#17118b"/>
<path d="M1381.46 9.90834H1402.49V8.36034H1381.46V9.90834ZM1392.95 12.7883H1391.26V26.0003H1392.95V12.7883Z" fill="#17118b"/>
<path d="M1413.14 9.62034V8.07234C1407.63 8.57634 1404.25 11.8163 1404.25 16.8563V17.6123C1404.25 22.5443 1407.63 25.7843 1413.14 26.2883V24.7043C1408.71 24.2363 1405.98 21.6443 1405.98 17.5763V16.8563C1405.98 12.7523 1408.64 10.1243 1413.14 9.62034ZM1416.09 8.07234V9.65634C1420.48 10.1243 1423.15 12.8243 1423.15 16.8563V17.5763C1423.15 21.6083 1420.45 24.2723 1416.09 24.7043V26.2883C1421.53 25.7843 1424.88 22.5443 1424.88 17.6123V16.8563C1424.88 11.8523 1421.53 8.57634 1416.09 8.07234Z" fill="#17118b"/>
<path d="M1429.21 31.1483H1430.83L1433.85 22.5443V22.2563H1431.94L1429.21 31.1483Z" fill="#17118b"/>
<path d="M1455.75 26.0003H1457.44V8.36034H1455.75V26.0003ZM1464.97 17.1083L1474.79 8.64834V8.36034H1472.81L1463.45 16.3883H1460.39V17.9003H1463.53L1473.35 26.0003H1475.3V25.7123L1464.97 17.1083Z" fill="#17118b"/>
<path d="M1486.5 9.69234V8.07234C1481.86 8.50434 1478.8 11.0603 1478.8 14.5163V14.8043H1480.45V14.5163C1480.45 11.9603 1482.9 10.0883 1486.5 9.69234ZM1489.45 8.07234V9.69234C1493.41 10.0523 1495.54 11.9963 1495.54 15.3083V22.2563C1495.54 24.5963 1497.09 26.0003 1499.71 26.0003H1501.62V24.4883H1500.04C1498.24 24.4883 1497.19 23.5523 1497.19 21.9323V15.3083C1497.19 11.0963 1494.39 8.46834 1489.45 8.07234ZM1492.69 24.7403L1492.59 23.1563C1491 24.2363 1488.81 24.8843 1486.32 24.8843C1482.36 24.8843 1480.38 23.8043 1480.38 21.6803C1480.38 19.6283 1482 18.5483 1485.6 18.1883L1492.59 17.4683V16.0283L1485.28 16.7843C1480.81 17.2523 1478.69 18.8363 1478.69 21.6803C1478.69 24.7763 1481.32 26.3963 1486.36 26.3963C1488.88 26.3963 1491.04 25.8203 1492.69 24.7403Z" fill="#17118b"/>
<path d="M1505.18 26.0003H1506.87V8.36034H1505.18V26.0003ZM1514.4 17.1083L1524.22 8.64834V8.36034H1522.24L1512.88 16.3883H1509.82V17.9003H1512.96L1522.78 26.0003H1524.73V25.7123L1514.4 17.1083Z" fill="#17118b"/>
<path d="M1561.23 8.36034L1544.31 26.0003H1546.07L1562.99 8.36034H1561.23ZM1544.31 21.4283L1545.93 19.5923V8.36034H1544.31V21.4283ZM1562.99 12.9323L1561.37 14.7683V26.0003H1562.99V12.9323Z" fill="#17118b"/>
<path d="M1584.39 26.0003H1586.08V8.36034H1584.39V26.0003ZM1593.6 17.1083L1603.43 8.64834V8.36034H1601.45L1592.09 16.3883H1589.03V17.9003H1592.16L1601.99 26.0003H1603.94V25.7123L1593.6 17.1083Z" fill="#17118b"/>
<path d="M1615.11 9.62034V8.07234C1609.6 8.57634 1606.22 11.8163 1606.22 16.8563V17.6123C1606.22 22.5443 1609.6 25.7843 1615.11 26.2883V24.7043C1610.68 24.2363 1607.95 21.6443 1607.95 17.5763V16.8563C1607.95 12.7523 1610.61 10.1243 1615.11 9.62034ZM1618.06 8.07234V9.65634C1622.46 10.1243 1625.12 12.8243 1625.12 16.8563V17.5763C1625.12 21.6083 1622.42 24.2723 1618.06 24.7043V26.2883C1623.5 25.7843 1626.85 22.5443 1626.85 17.6123V16.8563C1626.85 11.8523 1623.5 8.57634 1618.06 8.07234Z" fill="#17118b"/>
<path d="M1634.03 26.0003V8.36034H1632.34V26.0003H1634.03ZM1636.98 8.36034V9.90834H1646.92V8.36034H1636.98Z" fill="#17118b"/>
<path d="M1664.12 8.36034H1651.8L1651.62 17.5403C1651.55 20.5643 1650.76 22.7963 1649.54 24.4883H1646.87L1646.91 30.6083H1648.56V26.0003H1664.12V24.4883H1651.26C1652.38 22.7963 1653.14 20.6723 1653.21 17.5403L1653.35 9.87234H1664.12V8.36034ZM1668.76 24.4883V8.36034H1667.07V26.0003H1670.78V30.6083H1672.43V24.4883H1668.76Z" fill="#17118b"/>
<path d="M1683.83 9.69234V8.07234C1679.19 8.50434 1676.13 11.0603 1676.13 14.5163V14.8043H1677.79V14.5163C1677.79 11.9603 1680.23 10.0883 1683.83 9.69234ZM1686.79 8.07234V9.69234C1690.75 10.0523 1692.87 11.9963 1692.87 15.3083V22.2563C1692.87 24.5963 1694.42 26.0003 1697.05 26.0003H1698.95V24.4883H1697.37C1695.57 24.4883 1694.53 23.5523 1694.53 21.9323V15.3083C1694.53 11.0963 1691.72 8.46834 1686.79 8.07234ZM1690.03 24.7403L1689.92 23.1563C1688.33 24.2363 1686.14 24.8843 1683.65 24.8843C1679.69 24.8843 1677.71 23.8043 1677.71 21.6803C1677.71 19.6283 1679.33 18.5483 1682.93 18.1883L1689.92 17.4683V16.0283L1682.61 16.7843C1678.15 17.2523 1676.02 18.8363 1676.02 21.6803C1676.02 24.7763 1678.65 26.3963 1683.69 26.3963C1686.21 26.3963 1688.37 25.8203 1690.03 24.7403Z" fill="#17118b"/>
<path d="M1721.57 23.3363V24.9563C1722.97 25.8563 1724.85 26.3963 1726.83 26.3963C1732.98 26.3963 1736.98 22.9403 1736.98 17.5403V16.8203C1736.98 11.3843 1732.98 7.96434 1726.83 7.96434C1724.85 7.96434 1723.01 8.46834 1721.57 9.40434V11.0243C1722.9 10.0883 1724.7 9.54834 1726.61 9.54834C1731.94 9.54834 1735.25 12.2843 1735.25 16.8203V17.5403C1735.25 22.0763 1731.94 24.8123 1726.61 24.8123C1724.7 24.8123 1722.9 24.2723 1721.57 23.3363ZM1716.93 32.1203H1718.62V8.36034H1716.93V32.1203Z" fill="#17118b"/>
<path d="M1749.58 9.69234V8.07234C1744.93 8.50434 1741.87 11.0603 1741.87 14.5163V14.8043H1743.53V14.5163C1743.53 11.9603 1745.98 10.0883 1749.58 9.69234ZM1752.53 8.07234V9.69234C1756.49 10.0523 1758.61 11.9963 1758.61 15.3083V22.2563C1758.61 24.5963 1760.16 26.0003 1762.79 26.0003H1764.7V24.4883H1763.11C1761.31 24.4883 1760.27 23.5523 1760.27 21.9323V15.3083C1760.27 11.0963 1757.46 8.46834 1752.53 8.07234ZM1755.77 24.7403L1755.66 23.1563C1754.08 24.2363 1751.88 24.8843 1749.4 24.8843C1745.44 24.8843 1743.46 23.8043 1743.46 21.6803C1743.46 19.6283 1745.08 18.5483 1748.68 18.1883L1755.66 17.4683V16.0283L1748.35 16.7843C1743.89 17.2523 1741.77 18.8363 1741.77 21.6803C1741.77 24.7763 1744.39 26.3963 1749.43 26.3963C1751.95 26.3963 1754.11 25.8203 1755.77 24.7403Z" fill="#17118b"/>
<path d="M1779.03 2.78034V4.36434L1783.67 4.00434C1785.87 3.82434 1786.8 3.03234 1786.8 1.34034V0.944336H1785V1.30434C1785 2.06034 1784.53 2.34834 1783.27 2.45634L1779.03 2.78034ZM1776.07 4.68834V3.10434C1769.92 4.04034 1767.07 7.38834 1767.07 13.6523V15.8843C1767.07 22.1483 1770.24 25.7843 1776.07 26.2883V24.7403C1771.29 24.2363 1768.77 21.3563 1768.77 16.2443V13.0763C1768.77 8.14434 1771 5.48034 1776.07 4.68834ZM1771.72 10.8083V12.3203C1773.23 11.1683 1775.25 10.4843 1777.51 10.4843C1782.7 10.4843 1786.05 13.1843 1786.05 17.3243V18.0803C1786.05 21.7523 1783.35 24.2723 1779.03 24.7403V26.2883C1784.35 25.8203 1787.77 22.7243 1787.77 18.0803V17.2883C1787.77 12.2483 1783.81 8.93634 1777.84 8.93634C1775.46 8.93634 1773.3 9.58434 1771.72 10.8083Z" fill="#17118b"/>
<path d="M1800.7 9.62034V8.07234C1795.19 8.57634 1791.81 11.8163 1791.81 16.8563V17.6123C1791.81 22.5443 1795.19 25.7843 1800.7 26.2883V24.7043C1796.27 24.2363 1793.54 21.6443 1793.54 17.5763V16.8563C1793.54 12.7523 1796.2 10.1243 1800.7 9.62034ZM1803.65 8.07234V9.65634C1808.05 10.1243 1810.71 12.8243 1810.71 16.8563V17.5763C1810.71 21.6083 1808.01 24.2723 1803.65 24.7043V26.2883C1809.09 25.7843 1812.44 22.5443 1812.44 17.6123V16.8563C1812.44 11.8523 1809.09 8.57634 1803.65 8.07234Z" fill="#17118b"/>
<path d="M1814.17 9.90834H1835.19V8.36034H1814.17V9.90834ZM1825.65 12.7883H1823.96V26.0003H1825.65V12.7883Z" fill="#17118b"/>
<path d="M1845.52 9.69234V8.07234C1840.87 8.50434 1837.81 11.0603 1837.81 14.5163V14.8043H1839.47V14.5163C1839.47 11.9603 1841.92 10.0883 1845.52 9.69234ZM1848.47 8.07234V9.69234C1852.43 10.0523 1854.55 11.9963 1854.55 15.3083V22.2563C1854.55 24.5963 1856.1 26.0003 1858.73 26.0003H1860.64V24.4883H1859.05C1857.25 24.4883 1856.21 23.5523 1856.21 21.9323V15.3083C1856.21 11.0963 1853.4 8.46834 1848.47 8.07234ZM1851.71 24.7403L1851.6 23.1563C1850.02 24.2363 1847.82 24.8843 1845.34 24.8843C1841.38 24.8843 1839.4 23.8043 1839.4 21.6803C1839.4 19.6283 1841.02 18.5483 1844.62 18.1883L1851.6 17.4683V16.0283L1844.29 16.7843C1839.83 17.2523 1837.71 18.8363 1837.71 21.6803C1837.71 24.7763 1840.33 26.3963 1845.37 26.3963C1847.89 26.3963 1850.05 25.8203 1851.71 24.7403Z" fill="#17118b"/>
<path d="M1874.42 8.07234V9.65634C1878.45 10.1243 1880.97 12.5723 1881.08 16.2803H1864.48C1864.63 12.5723 1867.26 10.1243 1871.47 9.65634V8.07234C1866.1 8.57634 1862.72 11.8523 1862.72 16.7843V17.6123C1862.72 22.5083 1866.07 25.7843 1871.47 26.2883V24.7043C1867.15 24.2363 1864.48 21.6803 1864.48 17.7203H1882.84V16.6763C1882.84 11.7803 1879.6 8.57634 1874.42 8.07234ZM1874.42 24.7403V26.2883C1879.42 25.8923 1882.7 23.4083 1882.84 19.7003H1881.04C1880.97 22.4363 1878.38 24.3803 1874.42 24.7403Z" fill="#17118b"/>
<path d="M1884.58 9.90834H1905.61V8.36034H1884.58V9.90834ZM1896.07 12.7883H1894.38V26.0003H1896.07V12.7883Z" fill="#17118b"/>
<path d="M1922.17 26.0003H1923.86V8.36034H1922.17V26.0003ZM1938.22 17.0363C1940.24 16.3883 1941.39 15.0203 1941.39 13.1483V12.7883C1941.39 9.98034 1939.05 8.36034 1935.06 8.36034H1926.81V9.72834H1934.98C1937.97 9.72834 1939.66 10.8443 1939.66 12.8243V13.1483C1939.66 15.2363 1937.97 16.4243 1934.98 16.4243H1926.81V17.7923H1935.45C1938.44 17.7923 1940.13 18.9803 1940.13 21.0323V21.3923C1940.13 23.4803 1938.44 24.6323 1935.45 24.6323H1926.81V26.0003H1935.49C1939.52 26.0003 1941.86 24.3083 1941.86 21.4283V21.0683C1941.86 19.0163 1940.56 17.6483 1938.22 17.0363Z" fill="#17118b"/>
<path d="M1969.56 9.62034V8.07234C1964.05 8.57634 1960.67 11.8163 1960.67 16.8563V17.6123C1960.67 22.5443 1964.05 25.7843 1969.56 26.2883V24.7043C1965.13 24.2363 1962.39 21.6443 1962.39 17.5763V16.8563C1962.39 12.7523 1965.06 10.1243 1969.56 9.62034ZM1972.51 8.07234V9.65634C1976.9 10.1243 1979.57 12.8243 1979.57 16.8563V17.5763C1979.57 21.6083 1976.87 24.2723 1972.51 24.7043V26.2883C1977.95 25.7843 1981.29 22.5443 1981.29 17.6123V16.8563C1981.29 11.8523 1977.95 8.57634 1972.51 8.07234Z" fill="#17118b"/>
<path d="M1997.87 2.78034V4.36434L2002.52 4.00434C2004.71 3.82434 2005.65 3.03234 2005.65 1.34034V0.944336H2003.85V1.30434C2003.85 2.06034 2003.38 2.34834 2002.12 2.45634L1997.87 2.78034ZM1994.92 4.68834V3.10434C1988.77 4.04034 1985.92 7.38834 1985.92 13.6523V15.8843C1985.92 22.1483 1989.09 25.7843 1994.92 26.2883V24.7403C1990.13 24.2363 1987.61 21.3563 1987.61 16.2443V13.0763C1987.61 8.14434 1989.85 5.48034 1994.92 4.68834ZM1990.57 10.8083V12.3203C1992.08 11.1683 1994.09 10.4843 1996.36 10.4843C2001.55 10.4843 2004.89 13.1843 2004.89 17.3243V18.0803C2004.89 21.7523 2002.19 24.2723 1997.87 24.7403V26.2883C2003.2 25.8203 2006.62 22.7243 2006.62 18.0803V17.2883C2006.62 12.2483 2002.66 8.93634 1996.69 8.93634C1994.31 8.93634 1992.15 9.58434 1990.57 10.8083Z" fill="#17118b"/>
<path d="M2016.78 23.3363V24.9563C2018.18 25.8563 2020.05 26.3963 2022.03 26.3963C2028.19 26.3963 2032.19 22.9403 2032.19 17.5403V16.8203C2032.19 11.3843 2028.19 7.96434 2022.03 7.96434C2020.05 7.96434 2018.22 8.46834 2016.78 9.40434V11.0243C2018.11 10.0883 2019.91 9.54834 2021.82 9.54834C2027.15 9.54834 2030.46 12.2843 2030.46 16.8203V17.5403C2030.46 22.0763 2027.15 24.8123 2021.82 24.8123C2019.91 24.8123 2018.11 24.2723 2016.78 23.3363ZM2012.13 32.1203H2013.83V8.36034H2012.13V32.1203Z" fill="#17118b"/>
<path d="M2044.78 9.69234V8.07234C2040.14 8.50434 2037.08 11.0603 2037.08 14.5163V14.8043H2038.74V14.5163C2038.74 11.9603 2041.18 10.0883 2044.78 9.69234ZM2047.74 8.07234V9.69234C2051.7 10.0523 2053.82 11.9963 2053.82 15.3083V22.2563C2053.82 24.5963 2055.37 26.0003 2058 26.0003H2059.9V24.4883H2058.32C2056.52 24.4883 2055.48 23.5523 2055.48 21.9323V15.3083C2055.48 11.0963 2052.67 8.46834 2047.74 8.07234ZM2050.98 24.7403L2050.87 23.1563C2049.28 24.2363 2047.09 24.8843 2044.6 24.8843C2040.64 24.8843 2038.66 23.8043 2038.66 21.6803C2038.66 19.6283 2040.28 18.5483 2043.88 18.1883L2050.87 17.4683V16.0283L2043.56 16.7843C2039.1 17.2523 2036.97 18.8363 2036.97 21.6803C2036.97 24.7763 2039.6 26.3963 2044.64 26.3963C2047.16 26.3963 2049.32 25.8203 2050.98 24.7403Z" fill="#17118b"/>
<path d="M2063.89 14.9843C2063.89 11.5283 2066.05 9.83634 2070.66 9.54834V8.03634C2065.12 8.39634 2062.24 10.7363 2062.24 14.9843V15.2003H2063.89V14.9843ZM2078.65 17.0363C2080.6 16.3163 2081.75 14.9843 2081.75 13.2563V12.9323C2081.75 9.94434 2078.98 8.25234 2073.61 8.03634V9.54834C2077.93 9.72834 2080.02 10.8443 2080.02 12.9683V13.2923C2080.02 15.2363 2078.29 16.3523 2075.23 16.3523H2069.62V17.8643H2075.67C2078.76 17.8643 2080.49 18.9443 2080.49 20.8883V21.1763C2080.49 23.5163 2078.33 24.6683 2073.61 24.8123V26.3603C2079.37 26.1443 2082.22 24.4163 2082.22 21.2483V20.9243C2082.22 19.0883 2080.89 17.6843 2078.65 17.0363ZM2063.89 19.4123V19.1963H2062.24V19.4123C2062.24 23.6963 2065.08 25.9643 2070.66 26.3243V24.8123C2066.09 24.4883 2063.89 22.7963 2063.89 19.4123Z" fill="#17118b"/>
<path d="M2095.49 9.62034V8.07234C2089.98 8.57634 2086.59 11.8163 2086.59 16.8563V17.6123C2086.59 22.5443 2089.98 25.7843 2095.49 26.2883V24.7043C2091.06 24.2363 2088.32 21.6443 2088.32 17.5763V16.8563C2088.32 12.7523 2090.99 10.1243 2095.49 9.62034ZM2098.44 8.07234V9.65634C2102.83 10.1243 2105.49 12.8243 2105.49 16.8563V17.5763C2105.49 21.6083 2102.79 24.2723 2098.44 24.7043V26.2883C2103.87 25.7843 2107.22 22.5443 2107.22 17.6123V16.8563C2107.22 11.8523 2103.87 8.57634 2098.44 8.07234Z" fill="#17118b"/>
<path d="M2112.72 26.0003H2114.41V8.36034H2112.72V26.0003ZM2128.77 17.0363C2130.79 16.3883 2131.94 15.0203 2131.94 13.1483V12.7883C2131.94 9.98034 2129.6 8.36034 2125.6 8.36034H2117.36V9.72834H2125.53C2128.52 9.72834 2130.21 10.8443 2130.21 12.8243V13.1483C2130.21 15.2363 2128.52 16.4243 2125.53 16.4243H2117.36V17.7923H2126C2128.99 17.7923 2130.68 18.9803 2130.68 21.0323V21.3923C2130.68 23.4803 2128.99 24.6323 2126 24.6323H2117.36V26.0003H2126.04C2130.07 26.0003 2132.41 24.3083 2132.41 21.4283V21.0683C2132.41 19.0163 2131.11 17.6483 2128.77 17.0363Z" fill="#17118b"/>
<path d="M2145.37 9.69234V8.07234C2140.72 8.50434 2137.66 11.0603 2137.66 14.5163V14.8043H2139.32V14.5163C2139.32 11.9603 2141.77 10.0883 2145.37 9.69234ZM2148.32 8.07234V9.69234C2152.28 10.0523 2154.4 11.9963 2154.4 15.3083V22.2563C2154.4 24.5963 2155.95 26.0003 2158.58 26.0003H2160.49V24.4883H2158.9C2157.1 24.4883 2156.06 23.5523 2156.06 21.9323V15.3083C2156.06 11.0963 2153.25 8.46834 2148.32 8.07234ZM2151.56 24.7403L2151.45 23.1563C2149.87 24.2363 2147.67 24.8843 2145.19 24.8843C2141.23 24.8843 2139.25 23.8043 2139.25 21.6803C2139.25 19.6283 2140.87 18.5483 2144.47 18.1883L2151.45 17.4683V16.0283L2144.14 16.7843C2139.68 17.2523 2137.55 18.8363 2137.55 21.6803C2137.55 24.7763 2140.18 26.3963 2145.22 26.3963C2147.74 26.3963 2149.9 25.8203 2151.56 24.7403Z" fill="#17118b"/>
<path d="M2159.89 9.90834H2180.92V8.36034H2159.89V9.90834ZM2171.38 12.7883H2169.68V26.0003H2171.38V12.7883Z" fill="#17118b"/>
<path d="M2194.38 8.07234V9.65634C2198.41 10.1243 2200.93 12.5723 2201.04 16.2803H2184.44C2184.58 12.5723 2187.21 10.1243 2191.43 9.65634V8.07234C2186.06 8.57634 2182.68 11.8523 2182.68 16.7843V17.6123C2182.68 22.5083 2186.03 25.7843 2191.43 26.2883V24.7043C2187.11 24.2363 2184.44 21.6803 2184.44 17.7203H2202.8V16.6763C2202.8 11.7803 2199.56 8.57634 2194.38 8.07234ZM2194.38 24.7403V26.2883C2199.38 25.8923 2202.66 23.4083 2202.8 19.7003H2201C2200.93 22.4363 2198.34 24.3803 2194.38 24.7403Z" fill="#17118b"/>
<path d="M2221.99 8.36034H2209.9L2209.43 20.1683C2209.32 23.1923 2208.28 24.4883 2205.86 24.4883H2204.57V26.0003H2206.19C2209.32 26.0003 2210.94 24.1643 2211.08 20.3123L2211.44 9.87234H2221.99V8.36034ZM2224.94 8.36034V26.0003H2226.64V8.36034H2224.94Z" fill="#17118b"/>
<path d="M2233.62 26.0003H2235.31V8.36034H2233.62V26.0003ZM2238.26 14.6963V16.2083H2246.72C2249.89 16.2083 2251.58 17.5763 2251.58 20.1323V20.6003C2251.58 23.0843 2249.85 24.4883 2246.72 24.4883H2238.26V26.0003H2246.83C2250.86 26.0003 2253.31 23.9843 2253.31 20.6003V20.1323C2253.31 16.6763 2250.93 14.6963 2246.83 14.6963H2238.26Z" fill="#17118b"/>
<path d="M2260.66 26.0003V8.36034H2258.97V26.0003H2260.66ZM2263.61 16.4243V17.9363H2276.14V26.0003H2277.83V8.36034H2276.14V16.4243H2263.61Z" fill="#17118b"/>
<path d="M2285.38 26.0003H2287.07V8.36034H2285.38V26.0003ZM2308.03 26.0003H2309.72V8.36034H2308.03V26.0003ZM2290.03 26.0003H2298.27C2302.59 26.0003 2304.75 23.7323 2304.75 20.6003V20.1323C2304.75 16.9283 2302.63 14.6963 2298.27 14.6963H2290.03V16.2083H2298.16C2301.62 16.2083 2303.02 17.8283 2303.02 20.1323V20.6003C2303.02 22.8683 2301.58 24.4883 2298.16 24.4883H2290.03V26.0003Z" fill="#17118b"/>
<path d="M2315.63 8.64834L2333.74 26.0003H2335.72V25.7123L2317.61 8.36034H2315.63V8.64834ZM2327.77 13.9043L2328.88 15.0563L2335.51 8.64834V8.36034H2333.63L2327.77 13.9043ZM2323.45 20.3123L2322.33 19.1603L2315.49 25.7123V26.0003H2317.51L2323.45 20.3123Z" fill="#17118b"/>
<path d="M2352.23 9.90834H2373.26V8.36034H2352.23V9.90834ZM2363.72 12.7883H2362.02V26.0003H2363.72V12.7883Z" fill="#17118b"/>
<path d="M2386.72 8.07234V9.65634C2390.75 10.1243 2393.27 12.5723 2393.38 16.2803H2376.78C2376.92 12.5723 2379.55 10.1243 2383.76 9.65634V8.07234C2378.4 8.57634 2375.02 11.8523 2375.02 16.7843V17.6123C2375.02 22.5083 2378.36 25.7843 2383.76 26.2883V24.7043C2379.44 24.2363 2376.78 21.6803 2376.78 17.7203H2395.14V16.6763C2395.14 11.7803 2391.9 8.57634 2386.72 8.07234ZM2386.72 24.7403V26.2883C2391.72 25.8923 2395 23.4083 2395.14 19.7003H2393.34C2393.27 22.4363 2390.68 24.3803 2386.72 24.7403Z" fill="#17118b"/>
<path d="M2397.58 8.64834L2415.69 26.0003H2417.67V25.7123L2399.56 8.36034H2397.58V8.64834ZM2409.71 13.9043L2410.83 15.0563L2417.45 8.64834V8.36034H2415.58L2409.71 13.9043ZM2405.4 20.3123L2404.28 19.1603L2397.44 25.7123V26.0003H2399.45L2405.4 20.3123Z" fill="#17118b"/>
<path d="M2424.56 26.0003V8.36034H2422.86V26.0003H2424.56ZM2427.51 16.4243V17.9363H2440.04V26.0003H2441.73V8.36034H2440.04V16.4243H2427.51Z" fill="#17118b"/>
<path d="M2456.12 9.62034V8.07234C2450.61 8.57634 2447.23 11.8163 2447.23 16.8563V17.6123C2447.23 22.5443 2450.61 25.7843 2456.12 26.2883V24.7043C2451.69 24.2363 2448.96 21.6443 2448.96 17.5763V16.8563C2448.96 12.7523 2451.62 10.1243 2456.12 9.62034ZM2459.07 8.07234V9.65634C2463.46 10.1243 2466.13 12.8243 2466.13 16.8563V17.5763C2466.13 21.6083 2463.43 24.2723 2459.07 24.7043V26.2883C2464.51 25.7843 2467.86 22.5443 2467.86 17.6123V16.8563C2467.86 11.8523 2464.51 8.57634 2459.07 8.07234Z" fill="#17118b"/>
<path d="M2487.04 8.36034H2474.94L2474.47 20.1683C2474.36 23.1923 2473.32 24.4883 2470.91 24.4883H2469.61V26.0003H2471.23C2474.36 26.0003 2475.98 24.1643 2476.13 20.3123L2476.49 9.87234H2487.04V8.36034ZM2489.99 8.36034V26.0003H2491.68V8.36034H2489.99Z" fill="#17118b"/>
<path d="M2506.08 9.62034V8.07234C2500.57 8.57634 2497.18 11.8163 2497.18 16.8563V17.6123C2497.18 22.5443 2500.57 25.7843 2506.08 26.2883V24.7043C2501.65 24.2363 2498.91 21.6443 2498.91 17.5763V16.8563C2498.91 12.7523 2501.58 10.1243 2506.08 9.62034ZM2509.03 8.07234V9.65634C2513.42 10.1243 2516.08 12.8243 2516.08 16.8563V17.5763C2516.08 21.6083 2513.38 24.2723 2509.03 24.7043V26.2883C2514.46 25.7843 2517.81 22.5443 2517.81 17.6123V16.8563C2517.81 11.8523 2514.46 8.57634 2509.03 8.07234Z" fill="#17118b"/>
<path d="M2525 26.0003V8.36034H2523.31V26.0003H2525ZM2527.95 8.36034V9.90834H2537.89V8.36034H2527.95Z" fill="#17118b"/>
<path d="M2558.68 8.36034L2541.76 26.0003H2543.53L2560.45 8.36034H2558.68ZM2541.76 21.4283L2543.38 19.5923V8.36034H2541.76V21.4283ZM2560.45 12.9323L2558.83 14.7683V26.0003H2560.45V12.9323Z" fill="#17118b"/>
<path d="M2566 13.8323V14.0843C2566 17.3603 2568.52 19.2323 2572.84 19.2323H2574.6L2566.11 25.7483V26.0003H2568.27L2577.09 19.2323H2581.05V17.7923H2572.95C2569.56 17.7923 2567.73 16.4963 2567.73 14.0843V13.8323C2567.73 11.2763 2569.56 9.87234 2572.95 9.87234H2581.05V8.36034H2572.84C2568.52 8.36034 2566 10.3763 2566 13.8323ZM2584 8.36034V26.0003H2585.69V8.36034H2584Z" fill="#17118b"/>
<path d="M2591.01 8.64834L2609.12 26.0003H2611.1V25.7123L2592.99 8.36034H2591.01V8.64834ZM2603.14 13.9043L2604.26 15.0563L2610.88 8.64834V8.36034H2609.01L2603.14 13.9043ZM2598.82 20.3123L2597.71 19.1603L2590.87 25.7123V26.0003H2592.88L2598.82 20.3123Z" fill="#17118b"/>
<path d="M2622.56 3.64434V2.09634C2617.66 2.49234 2614.71 5.04834 2614.71 9.00834V9.76434H2616.37V9.00834C2616.37 5.98434 2618.67 4.04034 2622.56 3.64434ZM2625.51 2.09634V3.64434C2629.11 4.00434 2631.27 5.69634 2631.27 8.28834V8.64834C2631.27 10.3763 2630.26 11.4923 2626.99 13.3643C2623.89 15.1283 2622.92 16.4963 2622.92 19.1243V20.5643H2624.5V19.1243C2624.5 17.0723 2625.37 15.9563 2628.32 14.3003C2631.74 12.3563 2633 10.8443 2633 8.68434V8.25234C2633 4.90434 2630.01 2.52834 2625.51 2.09634ZM2623.71 26.3963C2624.43 26.3963 2625.01 25.8923 2625.01 25.1003C2625.01 24.3443 2624.43 23.8403 2623.71 23.8403C2623.03 23.8403 2622.41 24.3443 2622.41 25.1003C2622.41 25.8923 2623.03 26.3963 2623.71 26.3963Z" fill="#17118b"/>
</svg>
