<svg width="40" height="40" viewBox="0 0 40 40" fill="none" xmlns="http://www.w3.org/2000/svg">
<path d="M35.4699 14.3078H34.5094V9.6734C34.5094 9.6445 34.5048 9.61538 34.5013 9.58589C34.4998 9.40209 34.4408 9.22126 34.3148 9.07812L26.6023 0.268264C26.6 0.266013 26.5977 0.265214 26.5961 0.262745C26.5501 0.211401 26.4966 0.1687 26.4399 0.131735C26.4231 0.120479 26.4062 0.111038 26.3886 0.101089C26.3395 0.0745097 26.2875 0.0520696 26.2339 0.0360203C26.2194 0.0321713 26.2063 0.0262164 26.1918 0.0223674C26.1335 0.00864196 26.073 0 26.0117 0H7.05805C6.19255 0 5.48942 0.70392 5.48942 1.5687V14.3075H4.52915C3.29103 14.3075 2.28711 15.3109 2.28711 16.5495V28.2085C2.28711 29.4458 3.29103 30.4503 4.52915 30.4503H5.4895V38.4313C5.4895 39.296 6.19262 40 7.05812 40H32.9404C33.8051 40 34.509 39.2961 34.509 38.4313V30.4503H35.4695C36.7073 30.4503 37.7114 29.4462 37.7114 28.2085V16.5499C37.7113 15.3109 36.7079 14.3078 35.4699 14.3078ZM7.05805 1.5687H25.2274V9.5941C25.2274 10.0274 25.579 10.3784 26.0117 10.3784H32.9403V14.3078H7.05805V1.5687ZM24.6587 25.733V28.0078H17.1749V16.0279H19.8953V25.733H24.6587ZM5.39139 28.0074L8.85761 21.9466L5.51564 16.0279H8.62624L9.67482 18.2137C10.0306 18.9421 10.2973 19.5293 10.5819 20.2045H10.6169C10.902 19.4399 11.1326 18.9066 11.4346 18.2137L12.4479 16.0279H15.5407L12.1632 21.8757L15.7188 28.0077H12.5902L11.506 25.8394C11.062 25.0037 10.7772 24.3819 10.4397 23.6887H10.4041C10.1549 24.3822 9.85339 25.0045 9.48019 25.8394L8.48448 28.0077H5.39139V28.0074ZM32.9404 38.0067H7.05805V30.4503H32.9403V38.0067H32.9404ZM29.1904 28.1862C27.8224 28.1862 26.471 27.8301 25.7962 27.4571L26.3465 25.2175C27.0756 25.5905 28.1955 25.9643 29.3512 25.9643C30.5959 25.9643 31.253 25.4488 31.253 24.6668C31.253 23.92 30.6843 23.4934 29.2444 22.9779C27.2538 22.2843 25.956 21.1825 25.956 19.4399C25.956 17.3956 27.6624 15.8318 30.4895 15.8318C31.8398 15.8318 32.8355 16.117 33.5464 16.4361L32.942 18.6227C32.4622 18.3913 31.6086 18.0538 30.4359 18.0538C29.2629 18.0538 28.6942 18.5867 28.6942 19.2094C28.6942 19.9737 29.369 20.3118 30.9158 20.8984C33.0309 21.6805 34.0266 22.7819 34.0266 24.4708C34.0257 26.4798 32.4797 28.1862 29.1904 28.1862Z" fill="#98B1BE"/>
</svg>
