<svg width="98" height="28" viewBox="0 0 98 28" fill="none" xmlns="http://www.w3.org/2000/svg">
<path d="M2.08082 17.9915C2.08082 17.9915 3.75335 20.2608 6.71077 20.2608C8.38331 20.2608 9.87664 19.455 9.87664 17.8714C9.87664 14.5861 1.45361 15.1834 1.45361 10.3444C1.45361 7.62593 3.78322 6.28192 6.80037 6.28192C8.32357 6.28192 11.37 6.87926 11.37 9.00041V10.2847H9.4585V9.56788C9.4585 8.46281 7.84571 8.04468 6.86011 8.04468C4.76944 8.04468 3.51504 8.76148 3.51504 10.2249C3.51504 13.6005 11.9381 12.824 11.9381 17.8117C11.9381 20.3205 9.66819 22.0235 6.6809 22.0235C2.76775 22.0235 0.916016 19.3946 0.916016 19.3946L2.08082 17.9915ZM15.6994 3.08681C15.6994 2.66868 15.4605 2.42975 15.0423 2.42975H13.7879V0.666992H15.9085C17.1927 0.666992 17.7309 1.11499 17.7309 2.39926V12.376H19.284C19.8515 12.376 20.5683 12.1968 20.9864 11.6592L24.8392 6.64157H27.3181L22.9869 12.1377C22.2402 13.0635 21.8519 13.2135 21.8519 13.2135V13.2732C21.8519 13.2732 22.2999 13.4823 22.7778 14.3783L25.4963 19.2472C25.7651 19.7543 26.0637 19.9042 26.8701 19.9042H27.6765V21.6664H26.2728C24.7795 21.6664 24.3613 21.4274 23.6744 20.173L20.6871 14.7964C20.3586 14.1991 19.6418 14.1393 19.1042 14.1393H17.7303V21.6664H15.6988V3.08681H15.6994ZM31.1709 26.1153C32.4851 26.1153 33.3811 25.0401 33.9485 23.6656L34.8445 21.6048L29.5575 9.09001C29.3186 8.55241 29.0498 8.40308 28.5122 8.40308H28.2135V6.64095H29.1394C30.4834 6.64095 30.9015 6.93961 31.4391 8.28361L35.2919 17.6624C35.5906 18.409 35.8295 19.2752 35.8295 19.2752H35.8893C35.8893 19.2752 36.0983 18.409 36.397 17.6624L40.1005 8.28361C40.6082 6.93961 41.0562 6.64095 42.4307 6.64095H43.3565V8.40308H43.0579C42.5203 8.40308 42.2216 8.55241 42.0125 9.09001L35.5309 24.8011C34.7537 26.7126 33.2311 27.9377 31.2294 27.9377C29.1388 27.9377 27.9733 26.4737 27.9733 26.4737L28.9291 24.9803C28.9303 25.0108 29.8861 26.1153 31.1709 26.1153ZM52.5256 6.07348C56.8861 6.07348 59.2761 9.26921 59.2761 13.3018C59.2761 13.7498 59.1859 14.7056 59.1859 14.7056H48.6722C48.9709 17.3942 50.9421 18.7979 53.2418 18.7979C55.6915 18.7979 57.5134 17.0955 57.5134 17.0955L59.0963 19.7244C59.0963 19.7244 56.7667 22.0241 52.973 22.0241C47.9249 22.0241 44.7889 18.3804 44.7889 14.0491C44.7889 9.35881 47.9554 6.07348 52.5256 6.07348ZM55.3922 12.0773C55.3325 10.2554 54.0787 9.00104 52.5256 9.00104C50.5837 9.00104 49.2098 10.1658 48.7917 12.0773H55.3922ZM62.9478 10.3145C62.9478 9.86655 62.7089 9.65748 62.2908 9.65748H61.0955V6.43188H64.5905C65.9345 6.43188 66.5916 7.05908 66.5916 8.13428V8.58228C66.5916 8.91081 66.5318 9.23935 66.5318 9.23935H66.5916C67.2486 7.95508 68.8913 6.07348 71.9682 6.07348C75.3437 6.07348 77.2851 7.83561 77.2851 11.8682V17.8123C77.2851 18.2305 77.524 18.47 77.9421 18.47H79.1374V21.6657H75.5229C74.0887 21.6657 73.4914 21.0684 73.4914 19.6342V12.6448C73.4914 10.7924 73.0135 9.53801 71.1021 9.53801C69.0705 9.53801 67.5473 10.8223 67.0097 12.6448C66.8006 13.272 66.7117 13.9589 66.7117 14.6757V21.6651H62.9478V10.3145ZM87.3794 6.07348C90.9043 6.07348 92.0691 8.22388 92.0691 8.22388H92.1288V7.83561C92.1288 7.14868 92.6073 6.43188 93.8013 6.43188H97.3256V9.65748H96.1608C95.7725 9.65748 95.5037 9.86655 95.5037 10.2548V20.7386C95.5037 25.9653 91.4419 27.9371 87.469 27.9371C85.5575 27.9371 83.526 27.3995 82.0625 26.623L83.2279 23.6357C83.2279 23.6357 85.1089 24.6518 87.4397 24.6518C89.7395 24.6518 91.7405 23.6656 91.7405 20.9178V20.201C91.7405 19.8426 91.7704 19.3946 91.7704 19.3946H91.7107C90.8147 20.6789 89.4999 21.3665 87.4696 21.3665C83.1085 21.3665 80.6295 17.8416 80.6295 13.6596C80.6295 9.47766 82.9884 6.07348 87.3794 6.07348ZM91.8301 13.6901C91.8301 10.2249 90.0979 9.29908 88.0365 9.29908C85.7367 9.29908 84.4817 10.9716 84.4817 13.5401C84.4817 16.1989 85.8257 18.1701 88.2754 18.1701C90.0979 18.1707 91.8301 17.1248 91.8301 13.6901Z" fill="white"/>
</svg>
