<svg width="745" height="282" viewBox="0 0 745 282" fill="none" xmlns="http://www.w3.org/2000/svg">
<mask id="mask0" mask-type="alpha" maskUnits="userSpaceOnUse" x="0" y="0" width="745" height="282">
<rect width="745" height="282" fill="#C4C4C4"/>
</mask>
<g mask="url(#mask0)">
<path fill-rule="evenodd" clip-rule="evenodd" d="M118.198 1H165.205C203.636 1 230.315 24.9912 230.315 59.7154C230.315 94.4395 203.636 118.431 165.205 118.431H118.198V1ZM162.981 91.5984C185.849 91.5984 198.871 79.9185 198.871 59.3997C198.871 38.8809 185.849 27.2009 162.981 27.2009H148.371V91.5984H162.981ZM1 220.707C1 184.72 28.9497 159.782 66.4278 159.782C77.5442 159.782 88.0253 161.991 96.9184 166.411V196.084C88.3429 191.033 79.7674 187.561 66.7454 187.561C47.0535 187.561 32.1258 201.451 32.1258 220.707C32.1258 240.278 47.3712 253.852 68.0158 253.852C79.4498 253.852 89.6134 251.643 99.1417 244.382V274.056C89.931 278.791 78.497 281.316 66.7454 281.316C29.2673 281.632 1 256.694 1 220.707ZM119.789 161.994H174.736C201.098 161.994 217.296 177.146 217.296 198.297C217.296 213.449 208.72 225.444 194.428 231.127L230 279.109H195.063L162.032 234.599H149.962V279.425H119.789V161.994ZM173.465 209.976C181.723 209.976 186.805 205.873 186.805 198.928C186.805 191.983 181.723 187.564 173.465 187.564H149.962V209.976H173.465ZM419.607 161.994H393.881V279.109H423.736V214.395L475.824 279.109H500.916V161.994H471.378V226.391L419.607 161.994ZM521.563 220.707C521.563 184.72 549.513 159.782 586.991 159.782C598.108 159.782 608.589 161.991 617.482 166.411V196.084C608.906 191.033 600.331 187.561 587.309 187.561C567.617 187.561 552.689 201.451 552.689 220.707C552.689 240.278 567.935 253.852 588.579 253.852C600.013 253.852 610.177 251.643 619.705 244.382V274.056C610.495 278.791 599.061 281.316 587.309 281.316C549.831 281.632 521.563 256.694 521.563 220.707ZM670.521 161.994H640.03V279.109H670.521V230.495H714.986V279.109H745.159V161.994H714.986V203.663H670.521V161.994ZM292.009 253.855C280.575 253.855 272.555 247.542 272.555 231.758V161.994H242.382V230.18C242.382 263.957 268.314 280.719 296.899 280.719V253.855H292.009ZM342.433 231.758C342.433 247.542 332.588 253.855 321.154 253.855H320.836V281.635C349.421 281.635 372.606 263.957 372.606 230.18V161.994H342.433V231.758ZM8.30566 118.115V1H97.8718V27.5166H38.4787V46.457H97.8718V72.9737H38.4787V91.5984H97.8718V118.115H8.30566Z" fill="#00A7D8"/>
</g>
</svg>
