<svg width="747" height="283" viewBox="0 0 747 283" fill="none" xmlns="http://www.w3.org/2000/svg">
<path d="M118.198 1V0H117.198V1H118.198ZM118.198 118.431H117.198V119.431H118.198V118.431ZM148.371 27.2009V26.2009H147.371V27.2009H148.371ZM148.371 91.5984H147.371V92.5984H148.371V91.5984ZM96.9184 166.411H97.9184V165.791L97.3634 165.515L96.9184 166.411ZM96.9184 196.084L96.4109 196.946L97.9184 197.834V196.084H96.9184ZM99.1417 244.382H100.142V242.363L98.5356 243.587L99.1417 244.382ZM99.1417 274.056L99.5989 274.945L100.142 274.666V274.056H99.1417ZM66.7454 281.316V280.316L66.737 280.316L66.7454 281.316ZM119.789 161.994V160.994H118.789V161.994H119.789ZM194.428 231.127L194.058 230.197L192.85 230.678L193.624 231.722L194.428 231.127ZM230 279.109V280.109H231.986L230.804 278.514L230 279.109ZM195.063 279.109L194.26 279.705L194.56 280.109H195.063V279.109ZM162.032 234.599L162.835 234.003L162.535 233.599H162.032V234.599ZM149.962 234.599V233.599H148.962V234.599H149.962ZM149.962 279.425V280.425H150.962V279.425H149.962ZM119.789 279.425H118.789V280.425H119.789V279.425ZM149.962 187.564V186.564H148.962V187.564H149.962ZM149.962 209.976H148.962V210.976H149.962V209.976ZM393.881 161.994V160.994H392.881V161.994H393.881ZM419.607 161.994L420.387 161.367L420.087 160.994H419.607V161.994ZM393.881 279.109H392.881V280.109H393.881V279.109ZM423.736 279.109V280.109H424.736V279.109H423.736ZM423.736 214.395L424.515 213.768L422.736 211.558V214.395H423.736ZM475.824 279.109L475.045 279.736L475.346 280.109H475.824V279.109ZM500.916 279.109V280.109H501.916V279.109H500.916ZM500.916 161.994H501.916V160.994H500.916V161.994ZM471.378 161.994V160.994H470.378V161.994H471.378ZM471.378 226.391L470.599 227.018L472.378 229.231V226.391H471.378ZM617.482 166.411H618.482V165.791L617.927 165.515L617.482 166.411ZM617.482 196.084L616.974 196.946L618.482 197.834V196.084H617.482ZM619.705 244.382H620.705V242.363L619.099 243.587L619.705 244.382ZM619.705 274.056L620.162 274.945L620.705 274.666V274.056H619.705ZM587.309 281.316V280.316L587.301 280.316L587.309 281.316ZM640.03 161.994V160.994H639.03V161.994H640.03ZM670.521 161.994H671.521V160.994H670.521V161.994ZM640.03 279.109H639.03V280.109H640.03V279.109ZM670.521 279.109V280.109H671.521V279.109H670.521ZM670.521 230.495V229.495H669.521V230.495H670.521ZM714.986 230.495H715.986V229.495H714.986V230.495ZM714.986 279.109H713.986V280.109H714.986V279.109ZM745.159 279.109V280.109H746.159V279.109H745.159ZM745.159 161.994H746.159V160.994H745.159V161.994ZM714.986 161.994V160.994H713.986V161.994H714.986ZM714.986 203.663V204.663H715.986V203.663H714.986ZM670.521 203.663H669.521V204.663H670.521V203.663ZM272.555 161.994H273.555V160.994H272.555V161.994ZM242.382 161.994V160.994H241.382V161.994H242.382ZM296.899 280.719V281.719H297.899V280.719H296.899ZM296.899 253.855H297.899V252.855H296.899V253.855ZM320.836 253.855V252.855H319.836V253.855H320.836ZM320.836 281.635H319.836V282.635H320.836V281.635ZM372.606 161.994H373.606V160.994H372.606V161.994ZM342.433 161.994V160.994H341.433V161.994H342.433ZM8.30566 1V0H7.30566V1H8.30566ZM8.30566 118.115H7.30566V119.115H8.30566V118.115ZM97.8718 1H98.8718V0H97.8718V1ZM97.8718 27.5166V28.5166H98.8718V27.5166H97.8718ZM38.4787 27.5166V26.5166H37.4787V27.5166H38.4787ZM38.4787 46.457H37.4787V47.457H38.4787V46.457ZM97.8718 46.457H98.8718V45.457H97.8718V46.457ZM97.8718 72.9737V73.9737H98.8718V72.9737H97.8718ZM38.4787 72.9737V71.9737H37.4787V72.9737H38.4787ZM38.4787 91.5984H37.4787V92.5984H38.4787V91.5984ZM97.8718 91.5984H98.8718V90.5984H97.8718V91.5984ZM97.8718 118.115V119.115H98.8718V118.115H97.8718ZM165.205 0H118.198V2H165.205V0ZM231.315 59.7154C231.315 42.0825 224.534 27.1294 212.841 16.5932C201.155 6.06429 184.627 0 165.205 0V2C184.213 2 200.24 7.93132 211.502 18.079C222.756 28.2195 229.315 42.6241 229.315 59.7154H231.315ZM165.205 119.431C184.627 119.431 201.155 113.366 212.841 102.837C224.534 92.3013 231.315 77.3482 231.315 59.7154H229.315C229.315 76.8066 222.756 91.2112 211.502 101.352C200.24 111.499 184.213 117.431 165.205 117.431V119.431ZM118.198 119.431H165.205V117.431H118.198V119.431ZM117.198 1V118.431H119.198V1H117.198ZM197.871 59.3997C197.871 69.4398 194.693 77.1934 188.834 82.4492C182.959 87.7194 174.256 90.5984 162.981 90.5984V92.5984C174.575 92.5984 183.816 89.6375 190.17 83.938C196.539 78.2242 199.871 69.8784 199.871 59.3997H197.871ZM162.981 28.2009C174.256 28.2009 182.959 31.0799 188.834 36.3501C194.693 41.606 197.871 49.3596 197.871 59.3997H199.871C199.871 48.921 196.539 40.5752 190.17 34.8614C183.816 29.1619 174.575 26.2009 162.981 26.2009V28.2009ZM148.371 28.2009H162.981V26.2009H148.371V28.2009ZM149.371 91.5984V27.2009H147.371V91.5984H149.371ZM162.981 90.5984H148.371V92.5984H162.981V90.5984ZM66.4278 158.782C28.4781 158.782 0 184.09 0 220.707H2C2 185.349 29.4214 160.782 66.4278 160.782V158.782ZM97.3634 165.515C88.3107 161.016 77.6728 158.782 66.4278 158.782V160.782C77.4155 160.782 87.74 162.966 96.4734 167.306L97.3634 165.515ZM97.9184 196.084V166.411H95.9184V196.084H97.9184ZM66.7454 188.561C79.5448 188.561 87.9461 191.96 96.4109 196.946L97.4259 195.222C88.7397 190.107 79.9901 186.561 66.7454 186.561V188.561ZM33.1258 220.707C33.1258 202.051 47.5562 188.561 66.7454 188.561V186.561C46.5509 186.561 31.1258 200.85 31.1258 220.707H33.1258ZM68.0158 252.852C47.8365 252.852 33.1258 239.643 33.1258 220.707H31.1258C31.1258 240.914 46.9058 254.852 68.0158 254.852V252.852ZM98.5356 243.587C89.2331 250.675 79.3062 252.852 68.0158 252.852V254.852C79.5934 254.852 89.9936 252.61 99.7478 245.178L98.5356 243.587ZM100.142 274.056V244.382H98.1417V274.056H100.142ZM66.7454 282.316C78.6308 282.316 90.2259 279.764 99.5989 274.945L98.6845 273.166C89.6361 277.818 78.3632 280.316 66.7454 280.316V282.316ZM0 220.707C0 257.329 28.8031 282.636 66.7538 282.316L66.737 280.316C29.7316 280.628 2 256.058 2 220.707H0ZM174.736 160.994H119.789V162.994H174.736V160.994ZM218.296 198.297C218.296 187.451 214.135 178.095 206.56 171.462C198.996 164.838 188.105 160.994 174.736 160.994V162.994C187.729 162.994 198.117 166.727 205.243 172.966C212.358 179.197 216.296 187.992 216.296 198.297H218.296ZM194.797 232.056C209.447 226.232 218.296 213.883 218.296 198.297H216.296C216.296 213.015 207.994 224.657 194.058 230.197L194.797 232.056ZM230.804 278.514L195.231 230.531L193.624 231.722L229.197 279.705L230.804 278.514ZM195.063 280.109H230V278.109H195.063V280.109ZM161.229 235.195L194.26 279.705L195.866 278.513L162.835 234.003L161.229 235.195ZM149.962 235.599H162.032V233.599H149.962V235.599ZM150.962 279.425V234.599H148.962V279.425H150.962ZM119.789 280.425H149.962V278.425H119.789V280.425ZM118.789 161.994V279.425H120.789V161.994H118.789ZM185.805 198.928C185.805 202.136 184.643 204.601 182.597 206.284C180.525 207.988 177.441 208.976 173.465 208.976V210.976C177.748 210.976 181.333 209.913 183.867 207.829C186.426 205.724 187.805 202.665 187.805 198.928H185.805ZM173.465 188.564C177.424 188.564 180.506 189.622 182.581 191.401C184.64 193.165 185.805 195.716 185.805 198.928H187.805C187.805 195.194 186.43 192.064 183.883 189.882C181.353 187.715 177.765 186.564 173.465 186.564V188.564ZM149.962 188.564H173.465V186.564H149.962V188.564ZM150.962 209.976V187.564H148.962V209.976H150.962ZM173.465 208.976H149.962V210.976H173.465V208.976ZM393.881 162.994H419.607V160.994H393.881V162.994ZM394.881 279.109V161.994H392.881V279.109H394.881ZM423.736 278.109H393.881V280.109H423.736V278.109ZM422.736 214.395V279.109H424.736V214.395H422.736ZM476.603 278.482L424.515 213.768L422.957 215.022L475.045 279.736L476.603 278.482ZM500.916 278.109H475.824V280.109H500.916V278.109ZM499.916 161.994V279.109H501.916V161.994H499.916ZM471.378 162.994H500.916V160.994H471.378V162.994ZM472.378 226.391V161.994H470.378V226.391H472.378ZM418.828 162.62L470.599 227.018L472.157 225.765L420.387 161.367L418.828 162.62ZM586.991 158.782C549.042 158.782 520.563 184.09 520.563 220.707H522.563C522.563 185.349 549.985 160.782 586.991 160.782V158.782ZM617.927 165.515C608.874 161.016 598.236 158.782 586.991 158.782V160.782C597.979 160.782 608.304 162.966 617.037 167.306L617.927 165.515ZM618.482 196.084V166.411H616.482V196.084H618.482ZM587.309 188.561C600.108 188.561 608.51 191.96 616.974 196.946L617.99 195.222C609.303 190.107 600.554 186.561 587.309 186.561V188.561ZM553.689 220.707C553.689 202.051 568.12 188.561 587.309 188.561V186.561C567.114 186.561 551.689 200.85 551.689 220.707H553.689ZM588.579 252.852C568.4 252.852 553.689 239.643 553.689 220.707H551.689C551.689 240.914 567.469 254.852 588.579 254.852V252.852ZM619.099 243.587C609.797 250.675 599.87 252.852 588.579 252.852V254.852C600.157 254.852 610.557 252.61 620.311 245.178L619.099 243.587ZM620.705 274.056V244.382H618.705V274.056H620.705ZM587.309 282.316C599.194 282.316 610.789 279.764 620.162 274.945L619.248 273.166C610.2 277.818 598.927 280.316 587.309 280.316V282.316ZM520.563 220.707C520.563 257.329 549.367 282.636 587.317 282.316L587.301 280.316C550.295 280.628 522.563 256.058 522.563 220.707H520.563ZM640.03 162.994H670.521V160.994H640.03V162.994ZM641.03 279.109V161.994H639.03V279.109H641.03ZM670.521 278.109H640.03V280.109H670.521V278.109ZM669.521 230.495V279.109H671.521V230.495H669.521ZM714.986 229.495H670.521V231.495H714.986V229.495ZM715.986 279.109V230.495H713.986V279.109H715.986ZM745.159 278.109H714.986V280.109H745.159V278.109ZM744.159 161.994V279.109H746.159V161.994H744.159ZM714.986 162.994H745.159V160.994H714.986V162.994ZM715.986 203.663V161.994H713.986V203.663H715.986ZM670.521 204.663H714.986V202.663H670.521V204.663ZM669.521 161.994V203.663H671.521V161.994H669.521ZM271.555 231.758C271.555 239.809 273.601 245.621 277.275 249.421C280.954 253.225 286.113 254.855 292.009 254.855V252.855C286.47 252.855 281.903 251.329 278.713 248.03C275.518 244.727 273.555 239.491 273.555 231.758H271.555ZM271.555 161.994V231.758H273.555V161.994H271.555ZM242.382 162.994H272.555V160.994H242.382V162.994ZM243.382 230.18V161.994H241.382V230.18H243.382ZM296.899 279.719C282.791 279.719 269.404 275.582 259.563 267.349C249.745 259.135 243.382 246.787 243.382 230.18H241.382C241.382 247.35 247.985 260.271 258.28 268.883C268.551 277.475 282.422 281.719 296.899 281.719V279.719ZM295.899 253.855V280.719H297.899V253.855H295.899ZM292.009 254.855H296.899V252.855H292.009V254.855ZM321.154 254.855C327.044 254.855 332.631 253.229 336.755 249.464C340.897 245.684 343.433 239.867 343.433 231.758H341.433C341.433 239.433 339.047 244.664 335.407 247.987C331.75 251.325 326.697 252.855 321.154 252.855V254.855ZM320.836 254.855H321.154V252.855H320.836V254.855ZM321.836 281.635V253.855H319.836V281.635H321.836ZM371.606 230.18C371.606 246.826 365.901 259.41 356.763 267.839C347.611 276.279 334.927 280.635 320.836 280.635V282.635C335.33 282.635 348.531 278.152 358.119 269.309C367.719 260.454 373.606 247.311 373.606 230.18H371.606ZM371.606 161.994V230.18H373.606V161.994H371.606ZM342.433 162.994H372.606V160.994H342.433V162.994ZM343.433 231.758V161.994H341.433V231.758H343.433ZM7.30566 1V118.115H9.30566V1H7.30566ZM97.8718 0H8.30566V2H97.8718V0ZM98.8718 27.5166V1H96.8718V27.5166H98.8718ZM38.4787 28.5166H97.8718V26.5166H38.4787V28.5166ZM39.4787 46.457V27.5166H37.4787V46.457H39.4787ZM97.8718 45.457H38.4787V47.457H97.8718V45.457ZM98.8718 72.9737V46.457H96.8718V72.9737H98.8718ZM38.4787 73.9737H97.8718V71.9737H38.4787V73.9737ZM39.4787 91.5984V72.9737H37.4787V91.5984H39.4787ZM97.8718 90.5984H38.4787V92.5984H97.8718V90.5984ZM98.8718 118.115V91.5984H96.8718V118.115H98.8718ZM8.30566 119.115H97.8718V117.115H8.30566V119.115Z" fill="#00A7D8"/>
</svg>
