<svg width="112" height="76" viewBox="0 0 112 76" fill="none" xmlns="http://www.w3.org/2000/svg">
<path opacity="0.1" d="M65.0724 11.2385C57.8928 11.0122 51.0538 8.9041 44.5243 6.59846C37.9948 4.29281 31.5254 1.73506 24.5171 0.516234C20.0092 -0.26985 14.8551 -0.377043 11.2227 1.81645C7.72856 3.93054 6.59857 7.58106 5.9915 10.9686C5.5347 13.5164 5.26623 16.1982 6.51743 18.5842C7.38696 20.2398 8.92967 21.6323 9.99655 23.2184C13.7101 28.7388 11.0855 35.5456 7.06139 40.935C5.17407 43.46 2.98522 45.8758 1.52865 48.5666C0.0720915 51.2573 -0.600091 54.3421 0.673149 57.0875C1.93637 59.809 4.94566 61.8516 8.2064 63.2908C14.828 66.2108 22.6318 67.0465 30.2452 67.5199C47.0838 68.571 64.0136 68.1135 80.9063 67.6599C87.1563 67.4912 93.4283 67.3214 99.5821 66.4421C102.996 65.9537 106.521 65.1796 108.999 63.3096C112.146 60.9365 112.926 56.9167 110.817 53.9411C107.281 48.9487 97.5015 47.7081 95.0291 42.3514C93.6657 39.4016 95.0682 36.1153 97.0447 33.3819C101.286 27.515 108.397 22.3648 108.771 15.6612C109.029 11.0549 105.611 6.44164 100.325 4.26204C94.7857 1.97922 87.1022 2.26507 83.016 6.0486C78.8076 9.94031 71.4126 11.439 65.0724 11.2385Z" fill="#EB5757"/>
<path opacity="0.1" d="M80.4305 75.9997C87.5676 75.9997 93.3533 75.0665 93.3533 73.9154C93.3533 72.7642 87.5676 71.8311 80.4305 71.8311C73.2935 71.8311 67.5078 72.7642 67.5078 73.9154C67.5078 75.0665 73.2935 75.9997 80.4305 75.9997Z" fill="#EB5757"/>
<path d="M29.5915 38.6653L29.5595 40.4161L29.297 54.6113L27.0521 59.8211L19.3145 59.9084V39.4712L27.3897 38.838L29.5915 38.6653Z" fill="#5F5D7E"/>
<path opacity="0.1" d="M29.5915 38.6653L29.5595 40.4161L29.297 54.6113L27.0521 59.8211L19.3145 59.9084V39.4712L27.3897 38.838L29.5915 38.6653Z" fill="black"/>
<path d="M29.5922 38.6653L29.5601 40.4161L29.2977 54.6113L27.0527 59.8211L27.6438 40.4499L27.6418 40.4369L27.3903 38.838L29.5922 38.6653Z" fill="#5F5D7E"/>
<path opacity="0.1" d="M27.3897 38.838L29.5915 38.6653L29.5595 40.4161L27.6411 40.437L19.3145 40.5293V39.4712L27.3897 38.838Z" fill="black"/>
<path d="M99.1426 39.471V59.7901H97.3414L90.1348 54.5823V38.8983L96.5731 38.2988L96.9678 38.4785L97.3414 38.6492L99.1426 39.471Z" fill="#5F5D7E"/>
<path opacity="0.1" d="M99.143 38.4783H97.3418V59.7899H99.143V38.4783Z" fill="black"/>
<path opacity="0.1" d="M99.1426 38.4785V39.6467L97.3414 39.6675L90.1348 39.7459V38.8983L96.5731 38.2988L96.9678 38.4785L97.3414 38.6492V38.4785H99.1426Z" fill="black"/>
<path d="M99.1435 37.8152V39.4707L10.6328 40.4493V38.3422L18.9605 36.6737L91.4349 36.1477L99.1435 37.8152Z" fill="#5F5D7E"/>
<path opacity="0.1" d="M99.1435 37.8154V39.471L10.6328 40.4496V38.3425L99.1435 37.8154Z" fill="black"/>
<path opacity="0.1" d="M25.7146 37.4608C27.9183 37.4608 29.7046 37.3475 29.7046 37.2077C29.7046 37.0679 27.9183 36.9546 25.7146 36.9546C23.511 36.9546 21.7246 37.0679 21.7246 37.2077C21.7246 37.3475 23.511 37.4608 25.7146 37.4608Z" fill="black"/>
<path d="M29.0636 27.4227C28.9791 27.5384 28.9116 27.6654 28.8632 27.7999C28.8512 27.8326 28.8392 27.8703 28.8271 27.9061C28.8045 27.8953 28.7806 27.8873 28.756 27.8822C28.653 27.8561 28.5465 27.8467 28.4405 27.8544C28.4405 27.8141 28.4425 27.7714 28.4465 27.7264C28.4595 27.2639 28.4044 26.6187 27.9586 26.8917C27.5319 27.1547 27.8364 27.5924 28.1119 27.8753C28.1359 27.9001 28.16 27.9229 28.183 27.9448C27.9316 28.1234 27.8825 28.5353 27.8414 28.9661C27.8003 29.3968 27.4307 29.8693 27.1863 30.1373L27.1161 30.2117C27.0172 30.1331 26.9025 30.0762 26.7797 30.0449C26.6569 30.0136 26.5288 30.0085 26.4039 30.0301C26.3925 29.9924 26.3815 29.9527 26.3708 29.911C26.1705 29.2013 25.7607 27.9716 25.2348 27.7016L25.3039 27.6152C25.5273 27.3254 25.7788 26.8957 25.4041 26.7855C25.0295 26.6753 25.0034 27.1587 25.0204 27.52C25.0204 27.5656 25.0265 27.6083 25.0305 27.649C24.9567 27.6529 24.8845 27.6715 24.8183 27.7037C24.752 27.7359 24.693 27.7811 24.6448 27.8366C24.6268 27.8147 24.6087 27.7929 24.5877 27.7691C24.2872 27.4167 23.7342 26.8589 23.5669 27.2818C23.4116 27.6788 23.8975 28.185 24.2401 28.4807L24.2611 28.4996C24.0317 29.4226 25.0335 30.175 25.5734 30.5035L25.6425 30.5462C24.8982 31.4147 24.4404 33.0434 24.4404 33.0434L26.5241 33.4126C26.5241 33.4126 27.9055 32.2315 27.7262 31.1219H27.7402C29.1207 30.8479 29.4352 29.3889 29.2198 28.5234L29.2449 28.5135C29.496 28.4108 29.7161 28.2457 29.884 28.0341C30.2707 27.5011 29.4602 26.9006 29.0636 27.4227Z" fill="#EB5757"/>
<path opacity="0.1" d="M29.0636 27.4227C28.9791 27.5384 28.9116 27.6654 28.8632 27.7999C28.8512 27.8326 28.8392 27.8703 28.8271 27.9061C28.8045 27.8953 28.7806 27.8873 28.756 27.8822C28.653 27.8561 28.5465 27.8467 28.4405 27.8544C28.4405 27.8141 28.4425 27.7714 28.4465 27.7264C28.4595 27.2639 28.4044 26.6187 27.9586 26.8917C27.5319 27.1547 27.8364 27.5924 28.1119 27.8753C28.1359 27.9001 28.16 27.9229 28.183 27.9448C27.9316 28.1234 27.8825 28.5353 27.8414 28.9661C27.8003 29.3968 27.4307 29.8693 27.1863 30.1373L27.1161 30.2117C27.0172 30.1331 26.9025 30.0762 26.7797 30.0449C26.6569 30.0136 26.5288 30.0085 26.4039 30.0301C26.3925 29.9924 26.3815 29.9527 26.3708 29.911C26.1705 29.2013 25.7607 27.9716 25.2348 27.7016L25.3039 27.6152C25.5273 27.3254 25.7788 26.8957 25.4041 26.7855C25.0295 26.6753 25.0034 27.1587 25.0204 27.52C25.0204 27.5656 25.0265 27.6083 25.0305 27.649C24.9567 27.6529 24.8845 27.6715 24.8183 27.7037C24.752 27.7359 24.693 27.7811 24.6448 27.8366C24.6268 27.8147 24.6087 27.7929 24.5877 27.7691C24.2872 27.4167 23.7342 26.8589 23.5669 27.2818C23.4116 27.6788 23.8975 28.185 24.2401 28.4807L24.2611 28.4996C24.0317 29.4226 25.0335 30.175 25.5734 30.5035L25.6425 30.5462C24.8982 31.4147 24.4404 33.0434 24.4404 33.0434L26.5241 33.4126C26.5241 33.4126 27.9055 32.2315 27.7262 31.1219H27.7402C29.1207 30.8479 29.4352 29.3889 29.2198 28.5234L29.2449 28.5135C29.496 28.4108 29.7161 28.2457 29.884 28.0341C30.2707 27.5011 29.4602 26.9006 29.0636 27.4227Z" fill="black"/>
<path d="M24.9143 28.0182L24.6709 28.7248C24.6709 28.7248 24.5357 28.6306 24.3644 28.4807C24.0228 28.1829 23.5359 27.6748 23.6922 27.2817C23.8595 26.8589 24.4115 27.4167 24.713 27.769C24.8342 27.91 24.9143 28.0182 24.9143 28.0182Z" fill="#EB5757"/>
<path d="M25.4293 27.6153C25.3551 27.7116 25.2758 27.804 25.1919 27.8922C25.1711 27.7689 25.1568 27.6447 25.1488 27.52C25.1288 27.1587 25.1668 26.6783 25.5325 26.7855C25.8981 26.8927 25.6527 27.3254 25.4293 27.6153Z" fill="#EB5757"/>
<path d="M28.5713 27.7264C28.5643 27.9587 28.5413 28.1443 28.5413 28.1443C28.4348 28.0618 28.3344 27.9719 28.2408 27.8753C27.9653 27.5925 27.6597 27.1547 28.0875 26.8917C28.5293 26.6188 28.5844 27.2639 28.5713 27.7264Z" fill="#EB5757"/>
<path d="M30.0102 28.0312C29.8423 28.2428 29.6221 28.4079 29.371 28.5106C29.3012 28.5404 29.2296 28.5659 29.1566 28.587L28.8691 28.19C28.9 28.0581 28.9398 27.9284 28.9884 27.8019C29.0368 27.6674 29.1042 27.5404 29.1887 27.4247C29.5864 26.9007 30.3968 27.5012 30.0102 28.0312Z" fill="#EB5757"/>
<path opacity="0.1" d="M24.7129 27.7686C24.8341 27.9095 24.9132 28.0177 24.9132 28.0177L24.6698 28.7244C24.6698 28.7244 24.5346 28.6301 24.3633 28.4802C24.4012 28.254 24.4956 28.0408 24.6378 27.8599C24.6628 27.8271 24.6879 27.7963 24.7129 27.7686Z" fill="black"/>
<path opacity="0.1" d="M25.4289 27.6153C25.3547 27.7116 25.2755 27.8041 25.1915 27.8922C25.1708 27.769 25.1564 27.6447 25.1484 27.52C25.2496 27.5222 25.3476 27.5555 25.4289 27.6153Z" fill="black"/>
<path d="M26.628 30.4202L26.022 30.6842C25.9114 30.6295 25.8037 30.5692 25.6994 30.5035C25.0623 30.1155 23.782 29.1388 24.6406 27.9865C25.4991 26.8341 26.2153 28.9006 26.4968 29.911C26.582 30.2127 26.628 30.4202 26.628 30.4202Z" fill="#EB5757"/>
<path opacity="0.1" d="M28.2383 27.8764C28.3261 27.7862 28.4455 27.7329 28.5719 27.7275C28.5649 27.9598 28.5418 28.1454 28.5418 28.1454C28.4343 28.063 28.3329 27.9731 28.2383 27.8764Z" fill="black"/>
<path opacity="0.1" d="M29.371 28.5104C29.3012 28.5403 29.2296 28.5658 29.1566 28.5868L28.8691 28.1898C28.9 28.058 28.9398 27.9283 28.9883 27.8018C29.1737 27.907 29.3099 28.174 29.371 28.5104Z" fill="black"/>
<path d="M27.8664 31.1188C27.833 31.1254 27.7997 31.1314 27.7663 31.1366C25.7357 31.4433 27.0971 30.3565 27.0971 30.3565C27.0971 30.3565 27.1882 30.2731 27.3125 30.1372C27.5569 29.8692 27.9265 29.3997 27.9686 28.966C28.0317 28.3139 28.1059 27.7025 28.8832 27.8821C29.6606 28.0618 29.7898 30.7377 27.8664 31.1188Z" fill="#EB5757"/>
<path d="M27.8291 36.1301H23.9473V37.1415H27.8291V36.1301Z" fill="#474157"/>
<path d="M28.402 32.8438H23.3301V36.3732H28.402V32.8438Z" fill="#474157"/>
<path opacity="0.1" d="M27.792 36.1301H23.9102V37.1415H27.792V36.1301Z" fill="black"/>
<path opacity="0.1" d="M28.3864 32.8438H23.3145V36.3732H28.3864V32.8438Z" fill="black"/>
<path d="M28.0849 36.1301H24.2031V37.1415H28.0849V36.1301Z" fill="#474157"/>
<path opacity="0.1" d="M26.4947 29.9111C26.5798 30.2089 26.6259 30.4203 26.6259 30.4203L26.0198 30.6843C25.9092 30.6296 25.8016 30.5693 25.6973 30.5037C25.9347 30.2059 26.2022 29.9806 26.4947 29.9111Z" fill="black"/>
<path opacity="0.1" d="M27.8664 31.1188C27.833 31.1254 27.7997 31.1314 27.7663 31.1367C25.7357 31.4434 27.0971 30.3566 27.0971 30.3566C27.0971 30.3566 27.1882 30.2732 27.3125 30.1372C27.6891 30.4379 27.8494 30.7764 27.8664 31.1188Z" fill="black"/>
<path d="M24.5645 33.0434C24.5645 33.0434 25.7025 29.0088 27.2973 30.2524C28.8921 31.4961 26.6481 33.4126 26.6481 33.4126L24.5645 33.0434Z" fill="#EB5757"/>
<path opacity="0.1" d="M25.1389 28.7445C25.2092 28.7445 25.2662 28.6881 25.2662 28.6185C25.2662 28.5489 25.2092 28.4924 25.1389 28.4924C25.0687 28.4924 25.0117 28.5489 25.0117 28.6185C25.0117 28.6881 25.0687 28.7445 25.1389 28.7445Z" fill="black"/>
<path opacity="0.1" d="M25.1292 29.3354C25.1994 29.3354 25.2564 29.2789 25.2564 29.2093C25.2564 29.1397 25.1994 29.0833 25.1292 29.0833C25.0589 29.0833 25.002 29.1397 25.002 29.2093C25.002 29.2789 25.0589 29.3354 25.1292 29.3354Z" fill="black"/>
<path opacity="0.1" d="M28.8284 28.8608C28.8987 28.8608 28.9556 28.8043 28.9556 28.7347C28.9556 28.6651 28.8987 28.6086 28.8284 28.6086C28.7581 28.6086 28.7012 28.6651 28.7012 28.7347C28.7012 28.8043 28.7581 28.8608 28.8284 28.8608Z" fill="black"/>
<path opacity="0.1" d="M25.8518 31.8842C25.9221 31.8842 25.9791 31.8277 25.9791 31.7581C25.9791 31.6885 25.9221 31.6321 25.8518 31.6321C25.7816 31.6321 25.7246 31.6885 25.7246 31.7581C25.7246 31.8277 25.7816 31.8842 25.8518 31.8842Z" fill="black"/>
<path opacity="0.1" d="M28.5628 29.8402C28.633 29.8402 28.69 29.7838 28.69 29.7142C28.69 29.6446 28.633 29.5881 28.5628 29.5881C28.4925 29.5881 28.4355 29.6446 28.4355 29.7142C28.4355 29.7838 28.4925 29.8402 28.5628 29.8402Z" fill="black"/>
<path opacity="0.1" d="M27.2444 31.1466C27.3147 31.1466 27.3716 31.0902 27.3716 31.0206C27.3716 30.951 27.3147 30.8945 27.2444 30.8945C27.1741 30.8945 27.1172 30.951 27.1172 31.0206C27.1172 31.0902 27.1741 31.1466 27.2444 31.1466Z" fill="black"/>
<path opacity="0.1" d="M25.5745 28.998C25.6448 28.998 25.7017 28.9415 25.7017 28.8719C25.7017 28.8023 25.6448 28.7458 25.5745 28.7458C25.5042 28.7458 25.4473 28.8023 25.4473 28.8719C25.4473 28.9415 25.5042 28.998 25.5745 28.998Z" fill="black"/>
<path opacity="0.1" d="M28.4768 29.2399C28.5471 29.2399 28.6041 29.1835 28.6041 29.1138C28.6041 29.0442 28.5471 28.9878 28.4768 28.9878C28.4066 28.9878 28.3496 29.0442 28.3496 29.1138C28.3496 29.1835 28.4066 29.2399 28.4768 29.2399Z" fill="black"/>
<path opacity="0.1" d="M28.0413 30.2196C28.1115 30.2196 28.1685 30.1632 28.1685 30.0936C28.1685 30.024 28.1115 29.9675 28.0413 29.9675C27.971 29.9675 27.9141 30.024 27.9141 30.0936C27.9141 30.1632 27.971 30.2196 28.0413 30.2196Z" fill="black"/>
<path opacity="0.1" d="M26.7034 31.7899C26.7737 31.7899 26.8306 31.7335 26.8306 31.6639C26.8306 31.5943 26.7737 31.5378 26.7034 31.5378C26.6331 31.5378 26.5762 31.5943 26.5762 31.6639C26.5762 31.7335 26.6331 31.7899 26.7034 31.7899Z" fill="black"/>
<path opacity="0.1" d="M26.4261 31.1686C26.4963 31.1686 26.5533 31.1122 26.5533 31.0426C26.5533 30.9729 26.4963 30.9165 26.4261 30.9165C26.3558 30.9165 26.2988 30.9729 26.2988 31.0426C26.2988 31.1122 26.3558 31.1686 26.4261 31.1686Z" fill="black"/>
<path opacity="0.1" d="M25.7659 29.7667C25.8362 29.7667 25.8931 29.7103 25.8931 29.6407C25.8931 29.5711 25.8362 29.5146 25.7659 29.5146C25.6956 29.5146 25.6387 29.5711 25.6387 29.6407C25.6387 29.7103 25.6956 29.7667 25.7659 29.7667Z" fill="black"/>
<path opacity="0.1" d="M28.0849 36.1301H24.2031V36.4993H28.0849V36.1301Z" fill="black"/>
<path d="M28.6579 32.8438H23.5859V36.3732H28.6579V32.8438Z" fill="#474157"/>
<path opacity="0.1" d="M26.8714 32.3583C26.9416 32.3583 26.9986 32.3019 26.9986 32.2323C26.9986 32.1626 26.9416 32.1062 26.8714 32.1062C26.8011 32.1062 26.7441 32.1626 26.7441 32.2323C26.7441 32.3019 26.8011 32.3583 26.8714 32.3583Z" fill="black"/>
<path opacity="0.1" d="M26.1057 32.516C26.176 32.516 26.233 32.4596 26.233 32.39C26.233 32.3204 26.176 32.2639 26.1057 32.2639C26.0355 32.2639 25.9785 32.3204 25.9785 32.39C25.9785 32.4596 26.0355 32.516 26.1057 32.516Z" fill="black"/>
<path d="M38.2685 46.3303C38.2685 46.3303 38.9006 47.1492 37.977 48.3859C37.0534 49.6225 36.291 50.6687 36.5986 51.4369C36.5986 51.4369 37.993 49.1402 39.127 49.1084C40.261 49.0767 39.5127 47.7109 38.2685 46.3303Z" fill="#EB5757"/>
<path opacity="0.1" d="M38.2674 46.3303C38.3222 46.4094 38.3657 46.4956 38.3967 46.5864C39.5036 47.8767 40.0937 49.0786 39.0288 49.1084C38.038 49.1362 36.849 50.895 36.5645 51.3356C36.5734 51.3694 36.5845 51.4025 36.5975 51.4349C36.5975 51.4349 37.992 49.1382 39.126 49.1064C40.2599 49.0747 39.5116 47.7109 38.2674 46.3303Z" fill="black"/>
<path d="M39.4392 47.3735C39.4392 47.6623 39.4062 47.8956 39.3661 47.8956C39.326 47.8956 39.293 47.6623 39.293 47.3735C39.293 47.0847 39.334 47.2217 39.3741 47.2217C39.4142 47.2217 39.4392 47.0857 39.4392 47.3735Z" fill="#FFD037"/>
<path d="M39.8426 47.7181C39.5871 47.8561 39.3647 47.9395 39.3417 47.9047C39.3187 47.87 39.514 47.7291 39.7694 47.5911C40.0249 47.4531 39.9237 47.5534 39.9428 47.5911C39.9618 47.6288 40.098 47.5802 39.8426 47.7181Z" fill="#FFD037"/>
<path d="M34.925 46.3303C34.925 46.3303 34.2919 47.1492 35.2165 48.3859C36.1411 49.6225 36.9024 50.6687 36.5939 51.4369C36.5939 51.4369 35.2005 49.1402 34.0655 49.1084C32.9305 49.0767 33.6768 47.7109 34.925 46.3303Z" fill="#EB5757"/>
<path opacity="0.1" d="M34.925 46.3303C34.8697 46.4091 34.8262 46.4953 34.7957 46.5864C33.6878 47.8767 33.0988 49.0786 34.1626 49.1084C35.1544 49.1362 36.3435 50.895 36.628 51.3356C36.6179 51.3704 36.6069 51.4041 36.5939 51.4349C36.5939 51.4349 35.2005 49.1382 34.0655 49.1064C32.9305 49.0747 33.6768 47.7109 34.925 46.3303Z" fill="black"/>
<path d="M33.75 47.3735C33.75 47.6623 33.7831 47.8956 33.8231 47.8956C33.8632 47.8956 33.8963 47.6623 33.8963 47.3735C33.8963 47.0847 33.8552 47.2217 33.8151 47.2217C33.775 47.2217 33.75 47.0857 33.75 47.3735Z" fill="#FFD037"/>
<path d="M33.3468 47.7181C33.6023 47.8561 33.8246 47.9395 33.8477 47.9047C33.8707 47.87 33.6764 47.7291 33.4209 47.5911C33.1655 47.4531 33.2657 47.5534 33.2466 47.5911C33.2276 47.6288 33.0914 47.5802 33.3468 47.7181Z" fill="#FFD037"/>
<path opacity="0.1" d="M36.596 57.7028C40.2464 57.7028 43.2056 57.2526 43.2056 56.6973C43.2056 56.142 40.2464 55.6919 36.596 55.6919C32.9456 55.6919 29.9863 56.142 29.9863 56.6973C29.9863 57.2526 32.9456 57.7028 36.596 57.7028Z" fill="#EB5757"/>
<path d="M39.9967 50.3333L39.9647 50.5894L39.9206 50.9507L39.9026 51.1005L39.8585 51.4628L39.8385 51.6127L39.7944 51.974L39.2885 56.082C39.2434 56.4493 38.6393 56.7351 37.9091 56.7351H35.2804C34.5512 56.7351 33.9471 56.4493 33.902 56.082L33.3951 51.974L33.351 51.6127L33.333 51.4628L33.2869 51.1005L33.2689 50.9507L33.2248 50.5894L33.1928 50.3333C33.1677 50.1259 33.4933 49.9512 33.908 49.9512H39.2825C39.6952 49.9512 40.0228 50.1259 39.9967 50.3333Z" fill="#65617D"/>
<path d="M39.9655 50.5881L39.9204 50.9494H33.2697L33.2246 50.5881H39.9655Z" fill="#9D9CB5"/>
<path d="M39.9018 51.1003L39.8577 51.4616H33.3322L33.2871 51.1003H39.9018Z" fill="#9D9CB5"/>
<path d="M39.84 51.6125L39.7959 51.9738H33.3966L33.3516 51.6125H39.84Z" fill="#9D9CB5"/>
<path d="M56.6467 36.3799V36.5844H50.5449V36.4187C50.9292 36.2778 51.2606 36.0236 51.4946 35.6903C51.7285 35.357 51.8537 34.9606 51.8532 34.5547C51.8533 34.1743 51.743 33.8019 51.5356 33.4819C51.3282 33.1618 51.0323 32.9075 50.6832 32.7493H56.6056C56.2523 32.9088 55.9535 33.1665 55.7453 33.4911C55.5372 33.8157 55.4287 34.1933 55.433 34.5779C55.4374 34.9624 55.5544 35.3375 55.7698 35.6574C55.9853 35.9773 56.2899 36.2283 56.6467 36.3799Z" fill="#C8CAD7"/>
<path opacity="0.1" d="M56.606 32.7493C56.3339 32.8729 56.0932 33.0554 55.9017 33.2833C55.7101 33.5113 55.5725 33.7788 55.4991 34.0664H51.7925C51.7185 33.7788 51.5804 33.5113 51.3886 33.2834C51.1967 33.0555 50.9558 32.873 50.6836 32.7493H56.606Z" fill="black"/>
<path d="M43.5566 31.7075V32.8559C43.5566 33.4891 44.0255 34.0032 44.6025 34.0032H62.5551C63.1321 34.0032 63.6009 33.4891 63.6009 32.8559V31.7075H43.5566Z" fill="#C8CAD7"/>
<path opacity="0.1" d="M56.6467 36.3801V36.5845H50.5449V36.4188C50.7122 36.3571 50.8706 36.2736 51.0158 36.1707H56.273C56.3897 36.2534 56.5149 36.3236 56.6467 36.3801Z" fill="black"/>
<path d="M58.3586 36.2344H48.8348C48.6661 36.2344 48.5293 36.3699 48.5293 36.5371C48.5293 36.7043 48.6661 36.8398 48.8348 36.8398H58.3586C58.5273 36.8398 58.6641 36.7043 58.6641 36.5371C58.6641 36.3699 58.5273 36.2344 58.3586 36.2344Z" fill="#C8CAD7"/>
<path d="M63.6009 19.1331C63.6009 18.997 63.5738 18.8623 63.5213 18.7366C63.4687 18.6109 63.3917 18.4966 63.2946 18.4004C63.1975 18.3042 63.0822 18.2279 62.9553 18.1758C62.8284 18.1237 62.6924 18.0969 62.5551 18.0969H44.6025C44.3251 18.0969 44.0591 18.2061 43.863 18.4004C43.6668 18.5947 43.5566 18.8583 43.5566 19.1331V31.9308H63.6009V19.1331Z" fill="#5F5D7E"/>
<path d="M63.0538 19.5946V30.5919C63.0538 30.7272 62.9996 30.8569 62.903 30.9526C62.8065 31.0483 62.6755 31.102 62.5389 31.102H44.6184C44.4819 31.102 44.3509 31.0483 44.2543 30.9526C44.1578 30.8569 44.1035 30.7272 44.1035 30.5919V19.5946C44.105 19.5049 44.1306 19.4172 44.1776 19.3405C44.2229 19.2631 44.2879 19.1987 44.3661 19.154C44.4444 19.1092 44.5331 19.0856 44.6234 19.0854H62.5389C62.6753 19.0854 62.8061 19.1391 62.9027 19.2345C62.9992 19.33 63.0536 19.4595 63.0538 19.5946Z" fill="#EB5757"/>
<path d="M53.5793 18.8292C53.7126 18.8292 53.8207 18.7221 53.8207 18.59C53.8207 18.4579 53.7126 18.3508 53.5793 18.3508C53.446 18.3508 53.3379 18.4579 53.3379 18.59C53.3379 18.7221 53.446 18.8292 53.5793 18.8292Z" fill="white"/>
<path d="M53.5794 33.4928C53.9081 33.4928 54.1745 33.2289 54.1745 32.9033C54.1745 32.5777 53.9081 32.3137 53.5794 32.3137C53.2508 32.3137 52.9844 32.5777 52.9844 32.9033C52.9844 33.2289 53.2508 33.4928 53.5794 33.4928Z" fill="white"/>
<path d="M63.0538 19.5946H44.1035C44.1035 19.4593 44.1578 19.3296 44.2543 19.2339C44.3509 19.1382 44.4819 19.0845 44.6184 19.0845H62.5389C62.6755 19.0845 62.8065 19.1382 62.903 19.2339C62.9996 19.3296 63.0538 19.4593 63.0538 19.5946Z" fill="white"/>
<path d="M44.6204 19.4665C44.6912 19.4665 44.7486 19.4096 44.7486 19.3394C44.7486 19.2693 44.6912 19.2124 44.6204 19.2124C44.5496 19.2124 44.4922 19.2693 44.4922 19.3394C44.4922 19.4096 44.5496 19.4665 44.6204 19.4665Z" fill="#EDEDF4"/>
<path d="M45.0071 19.4665C45.0779 19.4665 45.1354 19.4096 45.1354 19.3394C45.1354 19.2693 45.0779 19.2124 45.0071 19.2124C44.9363 19.2124 44.8789 19.2693 44.8789 19.3394C44.8789 19.4096 44.9363 19.4665 45.0071 19.4665Z" fill="#EDEDF4"/>
<path d="M45.3919 19.4665C45.4627 19.4665 45.5201 19.4096 45.5201 19.3394C45.5201 19.2693 45.4627 19.2124 45.3919 19.2124C45.3211 19.2124 45.2637 19.2693 45.2637 19.3394C45.2637 19.4096 45.3211 19.4665 45.3919 19.4665Z" fill="#EDEDF4"/>
<path d="M65.8173 41.871C65.8173 41.871 67.0194 42.3553 68.495 42.9359C68.5455 43.1031 68.5843 43.2736 68.6112 43.4461C68.6372 43.7836 69.3124 44.259 69.3124 44.259C69.3124 44.259 70.5646 44.4833 71.5073 44.7463C72.2396 44.9448 72.3407 44.5478 72.2466 44.393L72.466 44.4763C72.515 46.4852 72.5711 47.9502 72.5711 47.9502C72.5711 47.9502 72.8917 47.9502 73.3976 47.974C73.4036 48.0375 73.4096 48.1031 73.4166 48.1725C73.61 50.1576 73.9656 53.4329 74.2411 53.7049C74.6418 54.089 74.4645 56.9197 74.3102 57.4199C74.1559 57.9202 74.3102 61.5201 74.3102 61.5201C74.3102 61.5201 74.9303 63.7195 74.8782 66.1195C74.8261 68.5194 75.5494 69.77 75.5494 69.77L75.8088 69.7888C75.8088 69.8553 75.8008 69.9209 75.7978 69.9874C75.7858 70.2047 75.7768 70.4221 75.7738 70.6196C75.7577 70.9212 75.6532 71.2116 75.4732 71.4553C75.058 72.0434 74.7717 72.7111 74.6328 73.4156C74.6024 73.573 74.581 73.7321 74.5687 73.892C74.5687 73.9317 74.5636 73.9535 74.5636 73.9535C74.5636 73.9535 74.8041 74.6542 77.06 74.8875C79.316 75.1207 78.9894 73.5039 78.9894 73.5039C78.9894 73.5039 79.0004 73.4582 79.0145 73.3748C79.1132 72.8283 79.1162 72.2689 79.0235 71.7213C78.9444 71.2945 79.0125 70.5561 79.1106 69.8792C79.1207 69.8087 79.1317 69.7392 79.1417 69.6707C79.3305 69.6316 79.5076 69.5501 79.6596 69.4325C80.3659 68.7943 79.6596 63.7205 79.6596 63.7205C79.6596 63.7205 78.3854 59.5708 78.6959 58.9703C79.0065 58.3698 79.3671 56.9207 79.3671 56.9207V51.8707C79.868 51.0697 80.0934 49.974 80.1865 48.9765C80.1925 48.91 80.1986 48.8445 80.2036 48.778C80.6213 48.7859 81.022 48.771 81.3856 48.7462L81.4858 48.9447C82.0769 50.0792 82.6779 51.2027 82.8252 51.3685C83.1347 51.7188 82.8763 53.3188 82.8252 54.1188C82.7741 54.9188 83.3932 56.5187 83.3932 56.5187C82.6188 56.9683 82.4635 62.2684 82.4635 62.2684C82.4635 62.2684 83.0315 63.5687 81.8434 65.0187C80.6554 66.4688 81.1202 69.2191 81.2755 69.1189C81.3165 69.0921 81.568 69.1328 81.9256 69.1913C81.8606 69.4289 81.7444 69.6497 81.585 69.8385C81.2013 70.3109 81.0701 71.0513 81.032 71.6429C81.0097 71.9512 81.0097 72.2606 81.032 72.5689L81.8925 73.1644C81.8925 73.1644 82.4265 73.1644 82.4265 73.6319C82.4265 74.0994 83.7348 74.5649 83.7348 74.5649C83.7348 74.5649 85.6802 75.0979 87.1788 74.5649C87.6647 74.3922 87.813 74.0954 87.7559 73.7351C87.6376 72.9818 86.6209 71.9486 85.8876 71.1982C85.3927 70.6891 85.1673 70.0141 85.0671 69.4295C85.0561 69.367 85.0471 69.3055 85.0391 69.2449C85.0995 69.2112 85.1534 69.1672 85.1983 69.1149C85.8184 68.3646 86.4896 66.315 86.4896 66.315C86.4896 66.315 86.1831 64.2207 86.8543 62.3171C87.3551 60.9087 87.9632 57.6075 88.2457 55.9907C88.349 55.4041 88.3678 54.8059 88.3018 54.2141C88.1716 53.0339 87.9712 50.8474 88.0424 49.1164C88.0664 48.5517 88.0494 47.6534 88.0103 46.6004V46.5855C88.3779 45.8977 89.1754 44.7751 90.5057 44.6828C92.4341 44.5488 91.4353 43.4997 91.4353 43.4997C91.4353 43.4997 90.3043 35.626 89.559 34.2285C89.5477 34.2041 89.5346 34.1806 89.52 34.158C89.4098 33.9843 89.2895 33.6369 89.1623 33.1734C88.428 30.4886 87.4884 23.8744 87.4884 23.8744L87.3732 22.2655C88.5232 22.8243 90.657 23.8436 91.5175 24.1414C92.7196 24.5583 94.3925 24.2913 94.8063 22.9246C95.22 21.5578 93.498 18.7917 93.498 18.7917C93.2445 17.811 91.4944 15.7694 90.5838 14.756C90.4957 14.624 90.4085 14.493 90.3234 14.368C90.089 14.0216 89.8776 13.7159 89.7434 13.5362L89.7303 13.561C89.6973 13.5154 89.6662 13.4727 89.6392 13.437L89.6171 13.4806C89.2916 12.8851 88.9259 12.2727 88.6424 11.9442C87.9832 11.1819 85.1082 10.3621 84.8237 10.5874C84.6163 10.7512 85.4768 11.4658 86.0789 11.9045L85.5039 11.5194L84.2186 10.4177L83.6526 10.0385C83.6291 10.0227 83.6043 10.0088 83.5785 9.99685C83.7258 9.42356 83.7436 8.82513 83.6307 8.24423C83.5178 7.66332 83.277 7.11425 82.9254 6.63615C82.8853 6.58156 82.8422 6.52697 82.7991 6.47436C83.3912 5.98604 83.5785 5.17911 83.5785 4.46945V4.44266C83.5347 4.17668 83.4155 3.92851 83.2349 3.72704C83.2439 3.74491 83.2529 3.76476 83.2609 3.78362C83.1573 3.65228 83.0262 3.54478 82.8766 3.46853C82.727 3.39227 82.5625 3.34908 82.3944 3.34194C81.8935 3.334 81.4738 3.65955 81.034 3.88287C80.5816 4.10739 80.0856 4.23249 79.5799 4.24962C79.0742 4.26674 78.5707 4.1755 78.1039 3.98212C77.8324 3.86699 77.5589 3.71414 77.2644 3.73796C76.9699 3.76178 76.7365 3.94937 76.5361 4.1449C76.0544 4.60499 75.6755 5.16023 75.4242 5.77463C75.35 5.95428 75.2839 6.14584 75.1407 6.28082C75.0316 6.36902 74.9134 6.44554 74.788 6.5091C74.5721 6.64543 74.3862 6.82372 74.2418 7.03321C74.0973 7.2427 73.9972 7.47903 73.9476 7.72793C73.8541 8.22343 73.9066 8.73513 74.0988 9.20184C74.215 9.5249 74.4049 9.81702 74.6538 10.0554C74.8411 10.2271 75.0655 10.3532 75.2639 10.515C75.3539 10.5876 75.438 10.6673 75.5153 10.7532C74.6144 10.9507 73.7907 11.4031 73.1441 12.0554C72.6584 12.5204 72.2523 13.0608 71.942 13.6553C71.1036 15.2166 70.5947 16.1883 70.2921 16.8046C70.1409 16.8503 70.0477 16.8721 70.0477 16.8721C70.0477 16.8721 68.9117 17.8716 68.9287 20.738L68.0502 26.4709V29.4038C68.0502 29.4038 66.9192 32.5868 67.1045 35.221C67.1045 35.2567 67.1045 35.2915 67.1115 35.3262L67.0194 35.7738C66.8775 35.9654 66.8067 36.1996 66.819 36.4369C66.8133 36.518 66.8194 36.5996 66.8371 36.679L66.3762 38.9341L66.4634 39.0254L66.226 39.6874C65.3314 41.1037 65.8173 41.871 65.8173 41.871ZM72.4609 25.792C72.518 25.8307 72.5501 25.8505 72.5501 25.8505C72.5501 25.8505 73.051 30.2941 72.7505 32.9362L71.6956 32.8647L71.1947 32.7119L71.374 31.2995C71.374 31.2995 72.0162 27.5785 72.4569 25.792H72.4609ZM76.6062 12.894L76.7064 12.7412C76.6854 12.7958 76.6643 12.8494 76.6423 12.899L76.6062 12.894ZM71.8449 32.9144L72.3908 32.9699L72.7364 33.0414C72.7304 33.0891 72.7244 33.1357 72.7184 33.1814L71.8449 32.9144ZM83.5785 13.703C83.5782 13.6535 83.5749 13.6041 83.5685 13.5551L83.9972 13.8072L84.0233 13.8231C83.875 13.7804 83.7228 13.7427 83.5785 13.7079V13.703ZM86.9064 15.6682C86.8475 15.5767 86.784 15.4882 86.716 15.4032C87.0166 15.4746 87.2029 15.5163 87.2029 15.5163C87.4427 15.475 87.6895 15.4997 87.9161 15.5878C87.9895 15.7357 88.0721 15.8789 88.1636 16.0165L88.955 17.5351C88.955 17.5351 88.7827 17.552 88.4381 17.3852C88.0934 17.2185 86.9064 15.6682 86.9064 15.6682ZM71.8709 44.253L72.1183 44.3523C72.0632 44.3692 71.9751 44.3295 71.8709 44.253Z" fill="url(#paint0_linear)"/>
<path d="M80.4434 11.6274C80.7619 11.813 80.7719 12.6061 80.7228 13.2423C80.6878 13.7078 80.6227 14.0889 80.6227 14.0889L82.6953 19.0813C82.6953 19.0813 83.4637 15.5241 83.4757 13.9361C83.4766 13.8108 83.4573 13.6861 83.4186 13.5668C83.057 12.4225 81.0254 11.7872 80.4434 11.6274Z" fill="#67647E"/>
<path d="M80.293 11.5877C80.293 11.5877 80.3491 11.6006 80.4462 11.6274C80.3996 11.6008 80.3467 11.5871 80.293 11.5877Z" fill="#67647E"/>
<path d="M81.0121 72.3635L81.8466 72.959C81.8466 72.959 82.3645 72.959 82.3645 73.4226C82.3645 73.8861 83.6327 74.3486 83.6327 74.3486C83.6327 74.3486 85.5201 74.8776 86.9726 74.3486C87.4434 74.1769 87.5877 73.8831 87.5326 73.5248C87.4174 72.7774 86.4307 71.7561 85.7204 71.0067C85.2406 70.5015 85.0192 69.8316 84.925 69.2519C84.8556 68.8372 84.8367 68.4156 84.8689 67.9964L81.8135 67.781C81.9885 68.2379 81.9885 68.7425 81.8135 69.1993C81.7468 69.3628 81.6567 69.5158 81.5461 69.6539C81.1734 70.1224 81.0452 70.8579 81.0091 71.4405C80.9882 71.7478 80.9892 72.0563 81.0121 72.3635Z" fill="#67647E"/>
<path d="M74.7324 73.7362C74.7324 73.7362 74.9658 74.4309 77.1537 74.6632C79.3415 74.8954 79.024 73.2895 79.024 73.2895C79.024 73.2895 79.035 73.2439 79.049 73.1615C79.1441 72.6185 79.1468 72.0637 79.057 71.5198C78.9809 71.097 79.047 70.3635 79.1422 69.6916C79.2544 68.8916 79.4076 68.178 79.4076 68.178L76.0177 68.4261C76.0177 68.4261 75.9586 69.11 75.9245 69.8008C75.9135 70.0161 75.9045 70.2315 75.9015 70.428C75.8857 70.7263 75.7842 71.0138 75.609 71.2568C75.2076 71.8435 74.9321 72.5057 74.7995 73.2022C74.7703 73.3584 74.7496 73.5161 74.7374 73.6746C74.7324 73.7143 74.7324 73.7362 74.7324 73.7362Z" fill="#67647E"/>
<path d="M81.0115 72.3632L81.8459 72.9587C81.8459 72.9587 82.3638 72.9587 82.3638 73.4222C82.3638 73.8857 83.6321 74.3482 83.6321 74.3482C83.6321 74.3482 85.5194 74.8773 86.972 74.3482C87.4428 74.1765 87.5871 73.8827 87.532 73.5244C87.4869 73.5244 87.4438 73.5304 87.4077 73.5314C86.8127 73.5502 86.2337 73.709 85.6416 73.7616C85.3043 73.7863 84.9658 73.7916 84.6278 73.7775C84.4602 73.7764 84.2928 73.7635 84.127 73.7388C83.7263 73.6684 83.3546 73.4629 82.997 73.2614C82.9095 73.2208 82.8325 73.161 82.7716 73.0867C82.7234 73.0042 82.6896 72.9143 82.6714 72.8207C82.5452 72.3721 82.1925 72.0128 81.7878 71.7766C81.5415 71.6377 81.2805 71.5262 81.0095 71.4441C80.9884 71.7501 80.9891 72.0572 81.0115 72.3632Z" fill="#67647E"/>
<path d="M74.7324 73.7358C74.7324 73.7358 74.9658 74.4306 77.1537 74.6628C79.3415 74.8951 79.024 73.2892 79.024 73.2892C79.024 73.2892 79.035 73.2435 79.049 73.1611C78.9489 73.2127 78.8637 73.2604 78.8246 73.2822C78.6243 73.3983 78.445 73.5581 78.2366 73.6663C77.7357 73.9274 77.1347 73.8499 76.5697 73.7656C76.3042 73.7259 76.0387 73.6862 75.7743 73.6375C75.5727 73.6101 75.3764 73.5526 75.1922 73.4668C75.0554 73.3878 74.9242 73.2996 74.7995 73.2028C74.7703 73.3591 74.7496 73.5168 74.7374 73.6753C74.7324 73.714 74.7324 73.7358 74.7324 73.7358Z" fill="#67647E"/>
<path opacity="0.1" d="M81.0115 72.3632L81.8459 72.9587C81.8459 72.9587 82.3638 72.9587 82.3638 73.4222C82.3638 73.8857 83.6321 74.3482 83.6321 74.3482C83.6321 74.3482 85.5194 74.8773 86.972 74.3482C87.4428 74.1765 87.5871 73.8827 87.532 73.5244C87.4869 73.5244 87.4438 73.5304 87.4077 73.5314C86.8127 73.5502 86.2337 73.709 85.6416 73.7616C85.3043 73.7863 84.9658 73.7916 84.6278 73.7775C84.4602 73.7764 84.2928 73.7635 84.127 73.7388C83.7263 73.6684 83.3546 73.4629 82.997 73.2614C82.9095 73.2208 82.8325 73.161 82.7716 73.0867C82.7234 73.0042 82.6896 72.9143 82.6714 72.8207C82.5452 72.3721 82.1925 72.0128 81.7878 71.7766C81.5415 71.6377 81.2805 71.5262 81.0095 71.4441C80.9884 71.7501 80.9891 72.0572 81.0115 72.3632Z" fill="black"/>
<path opacity="0.1" d="M74.7324 73.7358C74.7324 73.7358 74.9658 74.4306 77.1537 74.6628C79.3415 74.8951 79.024 73.2892 79.024 73.2892C79.024 73.2892 79.035 73.2435 79.049 73.1611C78.9489 73.2127 78.8637 73.2604 78.8246 73.2822C78.6243 73.3983 78.445 73.5581 78.2366 73.6663C77.7357 73.9274 77.1347 73.8499 76.5697 73.7656C76.3042 73.7259 76.0387 73.6862 75.7743 73.6375C75.5727 73.6101 75.3764 73.5526 75.1922 73.4668C75.0554 73.3878 74.9242 73.2996 74.7995 73.2028C74.7703 73.3591 74.7496 73.5168 74.7374 73.6753C74.7324 73.714 74.7324 73.7358 74.7324 73.7358Z" fill="black"/>
<path opacity="0.1" d="M81.8125 67.781C81.9875 68.2379 81.9875 68.7425 81.8125 69.1993C82.689 69.3472 84.3229 69.646 84.924 69.2519C84.8545 68.8372 84.8357 68.4156 84.8679 67.9964L81.8125 67.781Z" fill="black"/>
<path opacity="0.1" d="M75.9258 69.8008C76.5449 69.8444 78.2108 69.9308 79.1434 69.6916C79.2556 68.8916 79.4089 68.178 79.4089 68.178L76.019 68.4261C76.019 68.4261 75.9598 69.11 75.9258 69.8008Z" fill="black"/>
<path d="M73.4824 46.6566C73.4824 46.6566 73.5345 47.277 73.6177 48.1454C73.805 50.1166 74.1506 53.3711 74.4191 53.6361C74.8037 54.0182 74.6365 56.8271 74.4862 57.3234C74.3359 57.8196 74.4862 61.3927 74.4862 61.3927C74.8643 62.8854 75.0495 64.4195 75.0372 65.9584C74.9871 68.3405 75.6883 69.5811 75.6883 69.5811C75.6883 69.5811 78.9941 69.8789 79.6783 69.2456C80.3625 68.6124 79.6783 63.5763 79.6783 63.5763C79.6783 63.5763 78.4401 59.4603 78.7407 58.8648C79.0412 58.2692 79.3918 56.8301 79.3918 56.8301V51.8178C79.8777 51.0238 80.093 49.932 80.1862 48.9454C80.2604 48.1015 80.2627 47.2528 80.1932 46.4085C80.1932 46.4085 80.8153 47.669 81.4494 48.9156C82.0224 50.0422 82.6055 51.1568 82.7517 51.3215C83.0523 51.6689 82.8018 53.257 82.7517 54.051C82.7016 54.845 83.3027 56.4331 83.3027 56.4331C82.5514 56.8797 82.4011 62.1401 82.4011 62.1401C82.4011 62.1401 82.9521 63.4304 81.8001 64.8696C80.648 66.3087 81.0988 69.0382 81.2491 68.9389C81.3993 68.8397 84.4547 69.6833 85.0558 68.9389C85.6568 68.1945 86.308 66.1599 86.308 66.1599C86.308 66.1599 86.0075 64.0756 86.6586 62.1897C87.1414 60.7923 87.7335 57.5159 88.008 55.911C88.1064 55.3285 88.1229 54.7353 88.0571 54.1483C87.9308 52.9761 87.7365 50.8064 87.8056 49.0864C87.8287 48.5256 87.8126 47.6343 87.7746 46.5892C87.6453 43.0061 87.2546 37.6226 87.2546 37.6226L84.5399 35.8004L82.7477 34.5974L82.3089 34.6639L74.1326 35.9155L73.815 39.9114L73.4824 46.6566Z" fill="#444053"/>
<path opacity="0.1" d="M84.541 35.8025L84.6843 36.5826C84.6843 36.5826 85.8864 42.2897 86.1368 45.2176C86.3873 48.1456 87.4391 47.3019 87.4391 47.3019C87.5308 47.0561 87.6434 46.8183 87.7757 46.5913C87.6465 43.0083 87.2558 37.6248 87.2558 37.6248L84.541 35.8025Z" fill="black"/>
<path d="M75.9531 14.1516C75.9531 14.1516 81.563 18.6011 80.5272 17.7079C79.9602 17.2176 80.3459 15.1273 80.8107 13.3407C81.1934 11.8668 81.6291 10.5984 81.6291 10.5984C81.6291 10.5984 76.7325 6.05954 77.0881 9.77061C77.2134 11.0788 77.1092 12.0088 76.9218 12.6658C76.5782 13.8698 75.9531 14.1516 75.9531 14.1516Z" fill="#EFB7B9"/>
<path opacity="0.1" d="M76.419 12.9685L79.9753 15.7228L81.0101 14.5814C81.0101 14.5814 81.8956 14.2012 81.9618 14.631C82.0279 15.0608 82.2793 17.7078 81.7614 17.956C81.2435 18.2041 80.5763 18.3699 79.9923 18.2875C79.4083 18.2051 78.7561 17.559 78.3224 17.3108C77.8886 17.0627 76.2858 15.7724 76.2858 15.7724L75.4844 14.6647L76.419 12.9685Z" fill="black"/>
<path d="M76.419 13.0674L79.9753 15.8217L81.0101 14.6802C81.0101 14.6802 81.8956 14.3001 81.9618 14.7299C82.0279 15.1596 82.2793 17.8067 81.7614 18.0548C81.2435 18.303 80.5763 18.4687 79.9923 18.3863C79.4083 18.304 78.7561 17.6578 78.3224 17.4097C77.8886 17.1616 76.2858 15.8713 76.2858 15.8713L75.4844 14.7636L76.419 13.0674Z" fill="#A36468"/>
<path opacity="0.1" d="M73.4824 46.6569C73.4824 46.6569 73.5345 47.2772 73.6177 48.1457C74.7196 48.1873 76.8574 48.3164 78.358 48.7054C78.9568 48.8522 79.5704 48.9318 80.1872 48.9427C80.2614 48.0987 80.2637 47.2501 80.1942 46.4057C80.1942 46.4057 80.8163 47.6663 81.4504 48.9129C81.9928 48.8766 82.5325 48.8074 83.0663 48.7054L82.3981 40.1032C82.3981 40.1032 82.4201 37.2159 82.3099 34.6611L74.1326 35.9157L73.815 39.9116L73.4824 46.6569Z" fill="black"/>
<path opacity="0.1" d="M79.6258 15.4912C79.6258 15.4912 77.1966 12.86 76.6205 13.2779C76.0445 13.6957 75.6719 14.7141 75.6719 14.7141L77.6504 16.8639L79.6258 15.4912Z" fill="black"/>
<path d="M79.5243 15.3919C79.5243 15.3919 77.095 12.7607 76.519 13.1785C75.943 13.5964 75.5703 14.6147 75.5703 14.6147L77.5488 16.7645L79.5243 15.3919Z" fill="#A36468"/>
<path opacity="0.1" d="M81.545 17.0785L80.1426 15.3366C80.1426 15.3366 80.363 13.69 80.8759 13.9004C81.3888 14.1108 81.545 14.9535 81.545 14.9535V17.0785Z" fill="black"/>
<path d="M81.6455 16.9633L80.25 15.2214C80.25 15.2214 80.4704 13.5748 80.9833 13.7852C81.4962 13.9956 81.6455 14.8383 81.6455 14.8383V16.9633Z" fill="#A36468"/>
<path opacity="0.1" d="M75.2169 13.8367C75.2169 13.8367 78.093 16.9135 79.81 17.12C79.9653 17.1388 80.1205 17.1646 80.2738 17.1954C80.7226 17.2827 81.7003 17.1954 81.5451 14.6515L81.7614 14.2009L83.0978 15.0118L83.5486 18.6504L84.35 27.9802L85.5351 38.369C85.5351 38.369 81.8957 38.0217 80.8769 38.9318C79.8581 39.842 79.5746 33.9692 79.5746 33.9692L76.7867 22.0588L73.8145 14.3994L75.2169 13.8367Z" fill="black"/>
<path opacity="0.1" d="M73.8145 14.7968L76.7867 22.4562L79.5746 34.3666C79.5746 34.3666 79.8591 40.2384 80.8769 39.3292C81.2095 39.0314 81.8225 38.8687 82.4967 38.7843C83.3258 38.6956 84.1609 38.677 84.9931 38.7287C85.3257 38.7466 85.5351 38.7664 85.5351 38.7664L84.349 28.3776L83.5476 19.0479L83.0968 15.4092L81.7614 14.5983L81.544 15.0489C81.544 15.1154 81.5511 15.181 81.5541 15.2475C81.6482 17.5978 80.7096 17.6811 80.2738 17.5958C80.1195 17.565 79.9653 17.5392 79.809 17.5203C78.5929 17.3725 76.7957 15.7874 75.851 14.8762C75.4613 14.4991 75.2159 14.2371 75.2159 14.2371L73.8145 14.7968Z" fill="black"/>
<path d="M73.8145 14.4988L76.7867 22.1581L79.5746 34.0685C79.5746 34.0685 79.8591 39.9403 80.8769 39.0311C81.2095 38.7334 81.8225 38.5706 82.4967 38.4862C83.3258 38.3975 84.1609 38.3789 84.9931 38.4306C85.3257 38.4485 85.5351 38.4683 85.5351 38.4683L84.349 28.0795L83.5476 18.7498L83.0968 15.1111L81.7614 14.3002L81.544 14.7509C81.544 14.8174 81.5511 14.8829 81.5541 14.9494C81.6482 17.2997 80.7096 17.383 80.2738 17.2977C80.1195 17.2669 79.9653 17.2411 79.809 17.2223C78.5929 17.0744 76.7957 15.4893 75.851 14.5782C75.4613 14.201 75.2159 13.939 75.2159 13.939L73.8145 14.4988Z" fill="#EB5757"/>
<path opacity="0.1" d="M81.5449 14.7511C81.5449 14.8176 81.5519 14.8832 81.5549 14.9497L81.578 14.9655C81.9306 15.1958 82.4966 19.0845 82.4966 19.0845L83.2309 28.993L84.5833 36.3873C84.5833 36.3873 84.7606 37.23 84.993 38.4339C85.3256 38.4518 85.535 38.4716 85.535 38.4716L84.3499 28.0798L83.5485 18.75L83.0977 15.1114L81.7623 14.3005L81.5449 14.7511Z" fill="black"/>
<path d="M80.625 14.0892C80.625 14.0892 81.4264 14.7323 81.779 14.9626C82.1317 15.1929 82.6976 19.0816 82.6976 19.0816L83.4319 28.99L84.7843 36.3844C84.7843 36.3844 85.9864 42.0914 86.2369 45.0194C86.4873 47.9473 87.5392 47.1037 87.5392 47.1037C87.5392 47.1037 88.3245 44.8209 90.1938 44.6889C92.0631 44.5569 91.0954 43.5137 91.0954 43.5137C91.0954 43.5137 90.0005 35.6956 89.2802 34.303C89.269 34.2791 89.2563 34.2559 89.2422 34.2336C89.136 34.0609 89.0188 33.7165 88.8955 33.2559C88.1833 30.592 87.2727 24.0254 87.2727 24.0254L86.7047 15.8866C85.2511 13.5393 80.7432 13.6207 80.7432 13.6207L80.625 14.0892Z" fill="#67647E"/>
<path opacity="0.1" d="M73.8145 14.499L76.7867 22.1584L79.5746 34.0688C79.5746 34.0688 79.8591 39.9406 80.8769 39.0314C81.2095 38.7336 81.8225 38.5709 82.4967 38.4865C82.4847 36.4677 82.4226 32.845 82.1291 31.3224C81.8751 29.9312 81.769 28.5174 81.8125 27.1042L78.1721 19.2463C78.1721 19.2463 75.4343 15.9025 75.4173 15.4241C75.4113 15.2474 75.6056 14.9199 75.852 14.5755C75.4623 14.1983 75.2169 13.9363 75.2169 13.9363L73.8145 14.499Z" fill="black"/>
<path d="M82.9637 48.5099L82.2965 39.9076C82.2965 39.9076 82.3466 33.489 81.9289 31.3223C81.6743 29.9311 81.5678 28.5172 81.6113 27.104L77.9719 19.2461C77.9719 19.2461 75.2341 15.9023 75.2171 15.4239C75.2001 14.9455 76.6506 13.3545 76.6506 13.3545C76.6506 13.3545 73.481 13.7217 73.0633 15.1272C72.6456 16.5326 70.3585 17.0795 70.3585 17.0795C70.3585 17.0795 69.2566 18.072 69.2736 20.9176C69.2907 23.7632 72.7798 25.9954 72.7798 25.9954C72.7798 25.9954 73.3638 31.355 72.8629 33.7708C72.3621 36.1867 72.7958 47.9303 72.7958 47.9303C72.7958 47.9303 76.1517 47.964 78.2554 48.5099C80.3591 49.0558 82.9637 48.5099 82.9637 48.5099Z" fill="#67647E"/>
<path d="M78.0215 34.8628L75.45 44.5062C75.45 44.5062 75.0994 45.3667 73.2962 44.7047C71.493 44.0427 66.2508 41.8929 66.2508 41.8929C66.2508 41.8929 65.783 41.1316 66.6515 39.7262L69.2731 32.1165L78.0215 34.8628Z" fill="#B07473"/>
<path d="M74.6968 39.1264L70.5395 34.5975L67.8848 33.5305L66.7949 38.9765L71.8418 44.4106L74.6968 39.1264Z" fill="#E1E7EF"/>
<path d="M70.2544 40.6392C70.2544 40.6392 71.4905 41.3587 71.8161 41.3836C72.1417 41.4084 73.2917 43.5592 72.8058 43.5423C72.32 43.5254 71.19 42.9468 71.3032 43.2446C71.4164 43.5423 72.1527 44.4356 72.3671 44.3512C72.5814 44.2669 72.6806 45.0063 71.766 44.7482C70.8514 44.4902 69.6373 44.2639 69.6373 44.2639C69.6373 44.2639 68.9861 43.7924 68.9611 43.458C68.936 43.1235 68.373 41.3607 68.373 41.3607L70.2544 40.6392Z" fill="#EFB7B9"/>
<path d="M90.0998 15.2303C90.0998 15.2303 89.03 12.9425 88.3908 12.1852C87.7517 11.4279 84.9638 10.6151 84.6843 10.8384C84.4048 11.0617 86.0868 12.3163 86.3873 12.477C86.6878 12.6378 84.4449 14.1316 84.3998 14.1643C84.3547 14.1971 82.6467 14.0135 83.5233 14.5842C84.3998 15.1549 86.9914 15.7365 86.9914 15.7365C87.1659 15.7065 87.3447 15.712 87.5169 15.7528C87.6892 15.7936 87.8512 15.8688 87.9931 15.9737C88.495 16.335 90.0998 15.2303 90.0998 15.2303Z" fill="#EFB7B9"/>
<path opacity="0.1" d="M67.8428 40.7542C67.9845 41.2143 68.1745 41.6584 68.4098 42.0792C68.6603 41.8549 71.0515 41.0737 71.0515 41.0737L70.786 40.6678L70.3532 40.0068C70.3532 40.0068 68.2215 39.5482 67.8589 40.0068C67.7366 40.1606 67.7587 40.4445 67.8428 40.7542Z" fill="black"/>
<path d="M67.7432 40.655C67.8848 41.1152 68.0749 41.5593 68.3102 41.9801C68.5607 41.7558 70.9519 40.9746 70.9519 40.9746L70.6864 40.5687L70.2536 39.9077C70.2536 39.9077 68.1219 39.4491 67.7592 39.9077C67.637 40.0615 67.6591 40.3454 67.7432 40.655Z" fill="#A36468"/>
<path opacity="0.1" d="M87.6542 15.7476C87.731 15.9179 87.8215 16.0819 87.9247 16.2379C88.3104 16.8404 88.8944 17.551 88.8944 17.551C88.8944 17.551 91.1724 16.5128 91.1724 16.4672C91.1724 16.4215 90.4812 15.3426 89.9192 14.492C89.6918 14.1486 89.4864 13.8449 89.3562 13.6672C89.3562 13.6672 88.5057 15.43 87.6663 15.4419C87.4469 15.4449 87.5641 15.5322 87.6542 15.7476Z" fill="black"/>
<path d="M87.7558 15.8469C87.8326 16.0173 87.923 16.1812 88.0263 16.3373C88.412 16.9397 88.996 17.6504 88.996 17.6504C88.996 17.6504 91.274 16.6122 91.274 16.5665C91.274 16.5209 90.5828 15.442 90.0208 14.5914C89.7934 14.248 89.588 13.9443 89.4578 13.7666C89.4578 13.7666 88.6073 15.5293 87.7678 15.5412C87.5484 15.5442 87.6656 15.6316 87.7558 15.8469Z" fill="#A36468"/>
<path d="M74.9084 34.0518L75.2009 33.1833L71.0957 32.8975L72.6294 33.0592L74.5828 33.4741L74.4326 34.0518H74.9084Z" fill="#B07473"/>
<path opacity="0.1" d="M67.7432 40.655C68.196 40.4436 69.4041 40.0039 70.6864 40.5687L70.2536 39.9077C70.2536 39.9077 68.1219 39.4491 67.7592 39.9077C67.637 40.0615 67.6591 40.3454 67.7432 40.655Z" fill="black"/>
<path d="M67.5032 35.2923C67.5132 35.4362 67.5222 35.5801 67.5313 35.7231C67.5563 36.1608 67.5733 36.5945 67.5844 37.0134C67.6344 38.9528 67.5533 40.5527 67.5533 40.5527C67.5533 40.5527 69.106 39.6267 70.7589 40.4038L70.9252 37.2655V37.2109L71.0945 35.8382L71.6435 31.4046C71.6435 31.4046 72.6783 25.2509 72.9959 25.0196C73.3134 24.7884 70.6417 19.8088 70.6417 19.8088L69.2723 20.9175L68.4208 26.6077V29.5188C68.4208 29.5188 67.3189 32.679 67.5032 35.2923Z" fill="#67647E"/>
<path opacity="0.1" d="M87.707 15.707L88.0276 16.3372C88.4133 16.9397 88.9973 17.6504 88.9973 17.6504C88.9973 17.6504 91.2753 16.6122 91.2753 16.5665C91.2753 16.5209 90.5841 15.442 90.0221 14.5914C89.8488 14.3929 89.7436 14.2837 89.7436 14.2837C90.4118 15.9214 87.707 15.707 87.707 15.707Z" fill="black"/>
<path d="M85.7695 15.424L86.7052 15.8885C86.7052 15.8885 87.8572 17.4269 88.1908 17.5927C88.5244 17.7584 88.6917 17.7415 88.6917 17.7415L87.7069 15.8061C87.7069 15.8061 90.4117 16.0205 89.7435 14.3828C89.7435 14.3828 92.7658 17.6582 93.0994 18.9822C93.0994 18.9822 94.7694 21.7275 94.3687 23.0843C93.968 24.4411 92.3481 24.7051 91.179 24.2922C90.01 23.8793 86.4207 22.059 86.4207 22.059L85.7695 15.424Z" fill="#67647E"/>
<path opacity="0.1" d="M89.125 18.6506C89.125 18.6506 91.6465 21.4466 91.4461 21.8267C91.2457 22.2069 89.2582 19.2134 89.125 18.6506Z" fill="black"/>
<path opacity="0.2" d="M77.7475 11.1244C77.7475 11.1244 74.1993 10.0654 72.1957 13.8866C70.1922 17.7079 70.1251 17.9729 70.2253 18.1545C70.3254 18.3362 74.2153 17.3277 74.4327 17.7744C74.6501 18.221 72.2288 20.0572 72.2288 20.0572L81.6113 27.1042L77.6694 18.8026C77.4043 18.2211 77.0509 17.6832 76.6215 17.2076C75.9734 16.4891 75.0868 15.3883 75.4004 15.0489C75.6769 14.7511 76.1196 13.974 76.7167 13.0797C77.1545 12.4237 77.8497 11.6842 77.7475 11.1244Z" fill="black"/>
<path d="M77.8471 11.0251C77.8471 11.0251 74.2989 9.96603 72.2953 13.7873C70.2918 17.6085 70.2247 17.8735 70.3249 18.0552C70.425 18.2368 74.3149 17.2284 74.5323 17.675C74.7496 18.1217 72.3284 19.9578 72.3284 19.9578L81.6107 27.104L77.769 18.7033C77.5039 18.1218 77.1505 17.5839 76.7211 17.1083C76.073 16.3897 75.1864 15.289 75.5 14.9495C75.7764 14.6518 76.2192 13.8746 76.8163 12.9803C77.254 12.3243 77.9493 11.5849 77.8471 11.0251Z" fill="#67647E"/>
<path opacity="0.1" d="M77.8471 11.0251C77.8471 11.0251 74.2989 9.96603 72.2953 13.7873C70.2918 17.6085 70.2247 17.8735 70.3249 18.0552C70.425 18.2368 74.3149 17.2284 74.5323 17.675C74.7496 18.1217 72.3284 19.9578 72.3284 19.9578L81.6107 27.104L77.5846 18.2993C77.4288 17.957 77.2177 17.6423 76.9595 17.3673C76.3254 16.6904 75.1453 15.3336 75.5 14.9495C75.7764 14.6518 76.2192 13.8746 76.8163 12.9803C77.254 12.3243 77.9493 11.5849 77.8471 11.0251Z" fill="black"/>
<path d="M77.121 28.5422C77.5266 28.5422 77.8553 28.2165 77.8553 27.8147C77.8553 27.4129 77.5266 27.0872 77.121 27.0872C76.7155 27.0872 76.3867 27.4129 76.3867 27.8147C76.3867 28.2165 76.7155 28.5422 77.121 28.5422Z" fill="#444053"/>
<path d="M77.121 33.0583C77.5266 33.0583 77.8553 32.7326 77.8553 32.3308C77.8553 31.929 77.5266 31.6033 77.121 31.6033C76.7155 31.6033 76.3867 31.929 76.3867 32.3308C76.3867 32.7326 76.7155 33.0583 77.121 33.0583Z" fill="#444053"/>
<path d="M67.5846 37.0134C68.0073 37.1127 70.0119 37.068 70.9235 37.2655V37.2109L71.0928 35.8383C70.065 35.7112 67.831 35.47 67.5285 35.7231C67.1368 36.0536 67.0807 36.8993 67.5846 37.0134Z" fill="#67647E"/>
<path opacity="0.1" d="M67.5846 37.1128C68.0073 37.212 70.0119 37.1674 70.9235 37.3649V37.3103L71.0928 35.9376C70.065 35.8106 67.831 35.5694 67.5285 35.8225C67.1368 36.153 67.0807 36.9986 67.5846 37.1128Z" fill="black"/>
<path opacity="0.1" d="M67.5846 37.0134C68.0073 37.1127 70.0119 37.068 70.9235 37.2655V37.2109L71.0928 35.8383C70.065 35.7112 67.831 35.47 67.5285 35.7231C67.1368 36.0536 67.0807 36.8993 67.5846 37.0134Z" fill="black"/>
<path d="M68.0229 36.7893C68.2674 36.7893 68.4656 36.5928 68.4656 36.3506C68.4656 36.1083 68.2674 35.9119 68.0229 35.9119C67.7783 35.9119 67.5801 36.1083 67.5801 36.3506C67.5801 36.5928 67.7783 36.7893 68.0229 36.7893Z" fill="#444053"/>
<path opacity="0.1" d="M76.3868 38.1042L74.5165 44.4237C74.5165 44.4237 74.0156 44.655 74.0156 44.2421C74.0156 43.8292 76.3868 38.1042 76.3868 38.1042Z" fill="white"/>
<path opacity="0.1" d="M77.1048 12.355C77.2229 12.4489 77.3463 12.536 77.4745 12.616C78.1106 13.013 78.6766 13.5529 79.488 13.5529C79.9381 13.5536 80.3851 13.4808 80.8113 13.3376C81.194 11.8637 81.6298 10.5952 81.6298 10.5952C81.6298 10.5952 76.7332 6.05636 77.0888 9.76743C77.214 11.0756 77.2921 11.6979 77.1048 12.355Z" fill="black"/>
<path d="M75.3731 9.27923C75.3731 10.0853 75.6143 10.8732 76.0663 11.5434C76.5183 12.2135 77.1607 12.7359 77.9123 13.0443C78.6639 13.3528 79.4909 13.4335 80.2888 13.2762C81.0867 13.119 81.8196 12.7309 82.3948 12.1609C82.9701 11.591 83.3618 10.8648 83.5205 10.0743C83.6792 9.28375 83.5978 8.46434 83.2865 7.71967C82.9751 6.975 82.4479 6.33852 81.7715 5.89072C81.0951 5.44292 80.2999 5.2039 79.4863 5.2039C78.9455 5.2014 78.4095 5.30511 77.9093 5.50903C77.4091 5.71295 76.9547 6.01304 76.5722 6.39197C76.1898 6.7709 75.8869 7.22115 75.6811 7.71672C75.4752 8.21229 75.3706 8.74335 75.3731 9.27923Z" fill="#EFB7B9"/>
<path d="M81.817 12.6905C81.8549 12.7838 81.9224 12.8622 82.0094 12.9138L82.6625 13.3108L83.8837 14.0463L85.8161 15.2096C85.8615 15.2367 85.9076 15.2615 85.9543 15.284C86.1808 15.398 86.4307 15.4591 86.6848 15.4625C86.9388 15.466 87.1903 15.4117 87.4199 15.3038C87.5933 15.2266 87.7458 15.1096 87.8647 14.9626C87.9837 14.8156 88.0657 14.6427 88.1041 14.4582C88.1555 14.2013 88.1339 13.9353 88.0415 13.69C87.9492 13.4446 87.7898 13.2295 87.5812 13.0687C87.5707 13.0598 87.5584 13.0534 87.5451 13.0498C87.1338 12.9355 86.7469 12.7482 86.4031 12.497L85.187 11.6632L84.1011 10.6797L83.5521 10.3035C83.4716 10.2482 83.3769 10.217 83.279 10.2135C83.1812 10.21 83.0844 10.2343 83.0001 10.2836C82.4371 10.6062 81.3162 11.436 81.817 12.6905Z" fill="#E1E7EF"/>
<path d="M82.6641 13.3048L83.8852 14.0403C84.1397 13.0239 84.7868 12.3063 85.3488 11.7644L84.1026 10.6726C83.1549 11.1381 82.7783 12.6904 82.6641 13.3048Z" fill="#A36468"/>
<path opacity="0.1" d="M85.9531 15.2778C86.1796 15.3919 86.4295 15.4529 86.6836 15.4564C86.9376 15.4598 87.1891 15.4055 87.4187 15.2977C87.5921 15.2204 87.7446 15.1034 87.8635 14.9564C87.9824 14.8094 88.0645 14.6366 88.1029 14.452C88.1543 14.1952 88.1327 13.9292 88.0403 13.6838C87.948 13.4384 87.7886 13.2233 87.58 13.0625C87.2767 13.1897 86.996 13.3643 86.7485 13.5796C86.4033 13.8758 86.1532 14.2657 86.0293 14.7012C85.9802 14.8896 85.9546 15.0833 85.9531 15.2778Z" fill="black"/>
<path opacity="0.1" d="M75.3731 9.27932C75.3722 9.87285 75.5028 10.4593 75.7557 10.9974C76.0039 11.2422 76.1929 11.5394 76.3087 11.8668C76.5872 12.2023 76.6964 12.3919 77.068 12.6241C77.2173 12.4683 77.5539 12.374 77.615 12.1725C77.7703 11.6535 77.6821 11.0986 77.6741 10.5577C77.6741 10.3175 77.7082 10.0336 77.9215 9.91851C78.0989 9.81926 78.3222 9.89072 78.4965 9.98799C78.6709 10.0853 78.8442 10.2113 79.0445 10.2341C79.345 10.2679 79.6195 10.0585 79.7878 9.81231C79.9561 9.56616 80.0533 9.27833 80.2126 9.02622C80.4229 8.69373 80.7335 8.43865 81.039 8.19051C81.3886 7.90467 81.7282 7.58805 82.1009 7.33198C82.3233 7.17813 82.5898 7.10667 82.8091 6.95184L82.8442 6.92603C82.34 6.21989 81.6221 5.691 80.7944 5.41592C79.9667 5.14084 79.0721 5.13382 78.2401 5.39589C77.4081 5.65795 76.6818 6.17551 76.1664 6.87366C75.651 7.57181 75.3731 8.41433 75.3731 9.27932Z" fill="black"/>
<path d="M83.4786 4.774C83.3915 4.2023 82.9136 3.66534 82.3306 3.65542C81.8488 3.64748 81.438 3.97104 81.0113 4.19237C80.5743 4.41552 80.0928 4.54013 79.6015 4.55729C79.1102 4.57445 78.6211 4.48373 78.1693 4.29163C77.9078 4.17749 77.6413 4.02563 77.3558 4.04945C77.0703 4.07327 76.8429 4.25788 76.6446 4.44646C76.1763 4.90616 75.8093 5.45702 75.5667 6.06429C75.4956 6.24294 75.4305 6.43251 75.2922 6.5675C75.186 6.65388 75.0712 6.72936 74.9496 6.7928C74.7402 6.93056 74.5606 7.10836 74.4214 7.31578C74.2823 7.5232 74.1863 7.75606 74.1392 8.00071C74.0489 8.49274 74.0999 9.00001 74.2864 9.46469C74.3993 9.78335 74.5832 10.0727 74.8244 10.3113C75.0067 10.481 75.2251 10.6091 75.4164 10.7669C75.728 11.0296 75.9656 11.3679 76.106 11.7486C76.2464 12.1294 76.285 12.5397 76.2178 12.9395C76.7508 13.0606 77.2617 12.5882 77.42 12.0691C77.5782 11.55 77.4871 10.9962 77.4791 10.4542C77.4791 10.2141 77.5131 9.93118 77.7265 9.81605C77.9038 9.71679 78.1272 9.78826 78.3015 9.88553C78.4758 9.98279 78.6481 10.1079 78.8495 10.1317C79.15 10.1654 79.4245 9.95599 79.5928 9.70985C79.7611 9.4637 79.8572 9.17587 80.0175 8.92376C80.2269 8.59127 80.5384 8.33619 80.844 8.08805C81.1936 7.80221 81.5332 7.48559 81.9049 7.22952C82.1282 7.07567 82.3947 7.00421 82.6141 6.84938C83.2733 6.38189 83.4786 5.52435 83.4786 4.774Z" fill="#585268"/>
<path opacity="0.1" d="M80.293 11.5877C80.293 11.5877 80.3491 11.6006 80.4462 11.6274C80.3996 11.6008 80.3467 11.5871 80.293 11.5877Z" fill="black"/>
<g opacity="0.1">
<path opacity="0.1" d="M77.2147 11.7488C77.3699 11.2297 77.2818 10.6749 77.2738 10.134C77.2738 9.89377 77.3078 9.60991 77.5212 9.49477C77.6985 9.39552 77.9219 9.46698 78.0962 9.56425C78.2705 9.66152 78.4428 9.78757 78.6442 9.8104C78.9447 9.84414 79.2192 9.63571 79.3875 9.38857C79.5558 9.14143 79.6519 8.85459 79.8122 8.60249C80.0216 8.26999 80.3331 8.01491 80.6387 7.76678C80.9883 7.48192 81.3279 7.16431 81.6995 6.90824C81.9229 6.7544 82.1894 6.68293 82.4088 6.5281C83.0719 6.05764 83.2773 5.20009 83.2773 4.45073C83.255 4.30705 83.21 4.16772 83.1441 4.03784C83.3207 4.23959 83.4363 4.48658 83.4777 4.75048C83.4777 5.49984 83.2773 6.35738 82.6091 6.82784C82.3897 6.98268 82.1233 7.05414 81.8999 7.20798C81.5282 7.46405 81.1886 7.78167 80.839 8.06652C80.5335 8.31465 80.2219 8.56973 80.0126 8.90223C79.8523 9.15433 79.7571 9.44217 79.5878 9.68831C79.4185 9.93446 79.143 10.1439 78.8445 10.1101C78.6442 10.0873 78.4739 9.96027 78.2966 9.86399C78.1192 9.76772 77.8958 9.69923 77.7215 9.79452C77.5082 9.90965 77.4701 10.1915 77.4741 10.4337C77.4821 10.9746 77.5743 11.5255 77.415 12.0486C77.2557 12.5716 76.7478 13.0411 76.2129 12.918C76.2297 12.8249 76.2401 12.7307 76.2439 12.6361C76.6897 12.5984 77.0814 12.1945 77.2147 11.7488Z" fill="black"/>
<path opacity="0.1" d="M74.6233 9.99015C74.8056 10.1599 75.024 10.2879 75.2153 10.4457C75.426 10.6216 75.6028 10.8338 75.7373 11.072C75.6418 10.9518 75.534 10.8417 75.4157 10.7435C75.2233 10.5857 75.0059 10.4576 74.8236 10.2879C74.6781 10.1494 74.5551 9.98932 74.459 9.81348C74.5098 9.87588 74.5647 9.93489 74.6233 9.99015Z" fill="black"/>
</g>
<path opacity="0.1" d="M80.1583 45.4191C80.2315 45.6344 80.3356 45.8449 80.3497 46.0721C80.3737 46.4582 80.1353 46.8185 80.1183 47.2056C80.0982 47.6562 80.3747 48.0602 80.6392 48.4264C80.3256 48.4264 79.983 48.3192 79.8238 48.0522C79.7692 47.9495 79.7297 47.8395 79.7065 47.7257C79.4231 46.6051 79.1476 45.3794 79.6404 44.3332C79.716 44.1523 79.8266 43.9877 79.966 43.8489C80.0491 44.3769 79.979 44.896 80.1583 45.4191Z" fill="black"/>
<path opacity="0.1" d="M87.9922 37.5108L88.8247 36.3981C89.025 36.1292 89.2324 35.8493 89.3045 35.5227C89.3826 35.1644 89.2915 34.7932 89.2794 34.431C89.2794 34.3903 89.2794 34.3486 89.2794 34.3069C89.2682 34.283 89.2555 34.2598 89.2414 34.2374C89.1352 34.0647 89.018 33.7203 88.8948 33.2598C88.7734 33.3793 88.6791 33.5231 88.6183 33.6816C88.2306 34.6185 88.5892 35.7183 88.2687 36.679C88.1765 36.955 88.0262 37.219 87.9922 37.5108Z" fill="black"/>
<path opacity="0.1" d="M85.8722 71.1912C85.4609 71.4832 84.9912 71.6847 84.4948 71.7821C83.9985 71.8795 83.4868 71.8706 82.9941 71.7559" fill="black"/>
<path opacity="0.1" d="M78.9767 71.355C78.7661 71.5505 78.5172 71.7011 78.2455 71.7975C77.9738 71.8939 77.6851 71.934 77.3971 71.9154C77.1091 71.8968 76.828 71.8198 76.5713 71.6893C76.3145 71.5588 76.0875 71.3774 75.9043 71.1565" fill="black"/>
<path opacity="0.1" d="M83.3711 56.3923C83.7706 56.4836 84.1891 56.4441 84.5641 56.2799C84.939 56.1156 85.2501 55.8354 85.4508 55.4812" fill="black"/>
<path opacity="0.1" d="M78.6241 58.9007C77.9894 58.9468 77.358 58.775 76.8359 58.4143L78.6241 58.9007Z" fill="black"/>
<path opacity="0.1" d="M81.8652 64.8975C82.3992 65.1128 82.875 65.4473 83.3949 65.6915C83.9148 65.9356 84.5169 66.0964 85.0679 65.9257" fill="black"/>
<path d="M53.027 66.3697C57.7363 66.3697 61.554 65.2787 61.554 63.933C61.554 62.5873 57.7363 61.4963 53.027 61.4963C48.3177 61.4963 44.5 62.5873 44.5 63.933C44.5 65.2787 48.3177 66.3697 53.027 66.3697Z" fill="#5F5D7E"/>
<path opacity="0.1" d="M53.0283 63.6351C53.9704 63.6351 54.7342 63.4169 54.7342 63.1477C54.7342 62.8786 53.9704 62.6604 53.0283 62.6604C52.0861 62.6604 51.3223 62.8786 51.3223 63.1477C51.3223 63.4169 52.0861 63.6351 53.0283 63.6351Z" fill="black"/>
<path d="M53.8312 50.2947H52.0781V63.1479H53.8312V50.2947Z" fill="#5F5D7E"/>
<path opacity="0.1" d="M53.8312 50.9306V52.4194C53.4806 52.3122 52.6802 51.8606 52.0781 51.5053V50.2944H52.4438L53.8312 50.9306Z" fill="black"/>
<path d="M49.7012 44.6988C49.7012 44.6988 55.4894 43.2229 56.9299 42.1182C58.3704 41.0135 64.0274 46.2124 63.2801 48.1726C62.5327 50.1329 59.812 51.5552 59.812 51.5552C59.812 51.5552 52.2867 52.768 51.0065 50.2381C49.7262 47.7081 49.7012 44.6988 49.7012 44.6988Z" fill="#474157"/>
<path opacity="0.1" d="M49.7012 44.6988C49.7012 44.6988 55.4894 43.2229 56.9299 42.1182C58.3704 41.0135 64.0274 46.2124 63.2801 48.1726C62.5327 50.1329 59.812 51.5552 59.812 51.5552C59.812 51.5552 52.2867 52.768 51.0065 50.2381C49.7262 47.7081 49.7012 44.6988 49.7012 44.6988Z" fill="black"/>
<path d="M49.1992 44.103C49.1992 44.103 54.9874 42.6272 56.4279 41.5225C57.8685 40.4178 63.5254 45.6167 62.7781 47.5769C62.0308 49.5372 59.31 50.9594 59.31 50.9594C59.31 50.9594 51.7848 52.1723 50.5045 49.6424C49.2243 47.1124 49.1992 44.103 49.1992 44.103Z" fill="#474157"/>
<path opacity="0.1" d="M61.0973 33.9879C61.0753 33.9879 61.0542 33.983 61.0332 33.979C61.055 33.9767 61.077 33.9798 61.0973 33.9879Z" fill="black"/>
<path d="M43.9493 39.708C43.3712 39.5681 41.7774 39.439 41.0191 41.9591C40.8426 42.5444 40.6177 43.1144 40.3469 43.6633C39.6187 45.1431 38.68 48.1852 42.8123 48.8552L52.7297 51.0884C52.7297 51.0884 58.039 51.7335 58.3896 51.4854C58.7403 51.2373 58.6902 50.6914 58.6902 50.6914C58.6902 50.6914 52.8299 50.6914 51.6778 48.9048C50.5258 47.1183 50.4757 44.6866 50.4757 44.6866C50.4757 44.6866 50.62 40.9318 44.5653 39.841C44.361 39.8043 44.1546 39.7576 43.9493 39.708Z" fill="#474157"/>
<path opacity="0.1" d="M43.9493 39.7246C43.3712 39.5847 41.7774 39.4556 41.0191 41.9757C40.8424 42.5613 40.6176 43.1316 40.3469 43.6808C39.6187 45.1597 38.68 48.2028 42.8123 48.8728L52.7297 51.106C52.7297 51.106 58.039 51.7511 58.3896 51.503C58.7403 51.2548 58.6902 50.7089 58.6902 50.7089C58.6902 50.7089 52.8299 50.7089 51.6778 48.9224C50.5258 47.1358 50.4757 44.7041 50.4757 44.7041C50.4757 44.7041 50.62 40.9494 44.5653 39.8586C44.361 39.8209 44.1546 39.7743 43.9493 39.7246Z" fill="black"/>
<path d="M64.7383 37.1404C64.6809 36.7771 64.4924 36.4467 64.2077 36.2107C63.9231 35.9747 63.5617 35.849 63.1906 35.8571C61.9173 35.8809 58.2819 36.0337 56.066 37.0044C55.5792 37.2178 55.0913 37.4252 54.5904 37.5999C54.1376 37.7597 53.5977 38.0148 53.3302 38.3811C53.0627 38.7473 46.7687 43.5422 55.8346 48.1575C55.8346 48.1575 60.6932 49.5282 62.5965 46.3124C62.5965 46.3124 63.9489 42.8574 63.8487 41.6614C63.7486 40.4654 64.7503 37.2396 64.7503 37.2396C64.7503 37.2396 64.7483 37.2059 64.7383 37.1404Z" fill="#474157"/>
<path opacity="0.1" d="M64.7394 38.0103C64.6252 37.3155 63.958 36.8133 63.1917 36.8262C61.7652 36.85 57.3744 37.0247 55.3348 38.2425C55.3348 38.2425 53.7821 39.1586 53.3313 39.1586C52.8805 39.1586 46.7698 43.9227 55.8357 48.1837C55.8357 48.1837 60.6943 49.4482 62.5976 46.4795C62.5976 46.4795 63.95 43.2905 63.8498 42.1868C63.7497 41.0831 64.7514 38.1045 64.7514 38.1045C64.7514 38.1045 64.7494 38.0698 64.7394 38.0103Z" fill="black"/>
<path d="M59.8919 48.1604H58.2891V51.5419H59.8919V48.1604Z" fill="#5F5D7E"/>
<defs>
<linearGradient id="paint0_linear" x1="80.2787" y1="74.9113" x2="80.2787" y2="3.34392" gradientUnits="userSpaceOnUse">
<stop stop-color="#808080" stop-opacity="0.25"/>
<stop offset="0.54" stop-color="#808080" stop-opacity="0.12"/>
<stop offset="1" stop-color="#808080" stop-opacity="0.1"/>
</linearGradient>
</defs>
</svg>
