<svg width="87" height="71" viewBox="0 0 87 71" fill="none" xmlns="http://www.w3.org/2000/svg">
<g clip-path="url(#clip0)">
<path d="M82.3797 58.0599C83.9013 63.4817 69.2558 75.8691 43.4887 68.9539C22.7425 63.3862 4.59766 61.0281 4.59766 58.0599C4.59766 55.0917 22.0098 58.2052 43.4887 58.2052C64.9676 58.2052 81.5778 55.2023 82.3797 58.0599Z" fill="#3F3D56"/>
<path opacity="0.1" d="M82.3797 58.0599C83.9013 63.4817 69.2558 75.8691 43.4887 68.9539C22.7425 63.3862 4.59766 61.0281 4.59766 58.0599C4.59766 55.0917 22.0098 58.2052 43.4887 58.2052C64.9676 58.2052 81.5778 55.2023 82.3797 58.0599Z" fill="black"/>
<path d="M82.3797 58.0599C83.9013 63.4817 69.2558 70.3494 43.4887 63.4343C22.7425 57.8666 4.59766 61.0281 4.59766 58.0599C4.59766 55.0917 22.0098 52.6855 43.4887 52.6855C64.9676 52.6855 81.5778 55.2023 82.3797 58.0599Z" fill="#3F3D56"/>
<path opacity="0.1" d="M55.9943 61.9536C57.6556 61.9536 59.0023 61.4869 59.0023 60.9113C59.0023 60.3358 57.6556 59.8691 55.9943 59.8691C54.333 59.8691 52.9863 60.3358 52.9863 60.9113C52.9863 61.4869 54.333 61.9536 55.9943 61.9536Z" fill="black"/>
<path opacity="0.1" d="M68.258 61.9536C69.9192 61.9536 71.266 61.4869 71.266 60.9113C71.266 60.3358 69.9192 59.8691 68.258 59.8691C66.5967 59.8691 65.25 60.3358 65.25 60.9113C65.25 61.4869 66.5967 61.9536 68.258 61.9536Z" fill="black"/>
<path opacity="0.1" d="M43.4998 58.9428C48.9308 58.9428 53.3336 57.7503 53.3336 56.2794C53.3336 54.8084 48.9308 53.616 43.4998 53.616C38.0687 53.616 33.666 54.8084 33.666 56.2794C33.666 57.7503 38.0687 58.9428 43.4998 58.9428Z" fill="black"/>
<path d="M87 48.1732V0H0V48.1732H40.1449V54.6128C38.1399 54.8531 36.7899 55.3018 36.7899 55.8161C36.7899 56.5835 39.7941 57.2057 43.5 57.2057C47.2059 57.2057 50.2101 56.5835 50.2101 55.8161C50.2101 55.3018 48.8601 54.8531 46.8551 54.6128V48.1732H87Z" fill="#3F3D56"/>
<path d="M82.4878 1.68774H4.51172V44.8643H82.4878V1.68774Z" fill="#F2F2F2"/>
<path opacity="0.1" d="M82.4878 1.73706C82.4878 1.73706 50.0942 5.09529 44.1939 18.065C38.2936 31.0347 4.51172 44.815 4.51172 44.815H82.4878V1.73706Z" fill="black"/>
<path d="M67.9394 22.3496V25.5513H55.9662V22.5454H55.6191V60.9113H55.9662V54.0429H67.9394V60.9113H68.2864V22.3496H67.9394ZM67.9394 25.8987V31.1801H55.9662V25.8987L67.9394 25.8987ZM55.9662 42.4378V37.1564H67.9394V42.4378H55.9662ZM67.9394 42.7852V48.0666H55.9662V42.7852H67.9394ZM55.9662 36.809V31.5275H67.9394V36.809H55.9662ZM55.9662 53.6955V48.414H67.9394V53.6955H55.9662Z" fill="#2F2E41"/>
<path d="M52.1906 23.1121V23.592C52.1906 23.592 51.8482 23.7291 51.8482 24.2775C51.8482 24.826 51.5742 26.8827 51.5742 26.8827C51.5742 26.8827 52.0537 27.294 52.4646 27.1569C52.6921 27.0878 52.9022 26.9709 53.081 26.8141L53.1495 24.6889L52.8756 24.1404V23.1806L52.1906 23.1121Z" fill="#EB5757"/>
<path d="M65.2926 4.05298C65.2926 4.05298 64.1014 4.1901 64.1014 4.73855C64.1014 5.28701 63.1484 7.34372 63.1484 7.34372C63.1484 7.34372 64.8161 7.75507 66.2455 7.61795C67.6749 7.48084 68.3896 7.27517 68.3896 7.27517L68.6278 5.14989L67.6749 4.60144L65.2926 4.05298Z" fill="#EB5757"/>
<path d="M65.4086 8.85216V7.54957C65.4086 7.54957 63.9702 4.67017 65.1346 4.67017C66.299 4.67017 66.436 7.27534 66.436 7.27534V9.12639L65.4086 8.85216Z" fill="#FFB8B8"/>
<path d="M53.0814 22.4948C53.0814 22.4948 52.328 22.0835 52.191 22.4948C52.054 22.9062 51.643 23.7974 52.191 23.866C52.7389 23.9345 53.2869 23.4546 53.2869 23.4546L53.0814 22.4948Z" fill="#FFB8B8"/>
<path d="M56.7889 25.2719C56.7889 25.2719 56.3765 25.8171 56.9749 31.136C57.5733 36.455 57.2285 40.3279 58.3644 40.2748C58.3644 40.2748 58.0679 41.4282 59.0332 41.4707C59.9985 41.5133 60.4395 41.5803 60.5146 41.3138C60.5897 41.0474 60.7074 39.8147 60.4453 39.827C60.4453 39.827 60.4616 40.1768 60.5711 38.7692C60.6806 37.3616 60.3705 30.7144 60.7666 29.8193L62.3157 32.9902C62.3157 32.9902 62.385 34.477 62.6798 35.1645C62.9746 35.852 63.5991 39.8549 63.5991 39.8549L63.5403 40.4712C63.5403 40.4712 65.6538 40.7231 65.7248 40.3691C65.7959 40.0152 65.7714 39.4904 65.6759 39.3196C65.5804 39.1487 65.5803 39.1487 65.7388 38.7907C65.809 38.6561 65.8494 38.508 65.8575 38.3564C65.8655 38.2048 65.8409 38.0532 65.7854 37.912C65.6858 37.6537 65.4206 31.9685 65.4206 31.9685C65.4206 31.9685 64.9235 25.0671 63.8586 24.7662C62.7938 24.4653 56.7889 25.2719 56.7889 25.2719Z" fill="#2F2E41"/>
<path d="M58.6512 40.7876L58.0093 42.0448C58.0093 42.0448 56.8986 41.7022 57.164 42.6979C58.2301 42.7311 59.297 42.6666 60.3514 42.5051C60.3514 42.5051 60.7964 42.6596 60.8716 42.3931C60.9467 42.1267 60.5981 41.2226 60.3359 41.2348C60.0738 41.2471 58.6512 40.7876 58.6512 40.7876Z" fill="#2F2E41"/>
<path d="M63.7027 40.2006C63.7027 40.2006 63.0771 41.8076 63.3433 41.8829C63.6095 41.9581 65.9851 42.1977 66.164 42.277C66.3428 42.3563 67.2207 42.4029 67.2836 41.874C67.3465 41.3452 66.8141 41.1947 66.8141 41.1947C66.8141 41.1947 65.8447 41.0647 65.5418 40.2023C65.2388 39.3399 63.7027 40.2006 63.7027 40.2006Z" fill="#2F2E41"/>
<path d="M57.771 12.233C58.7814 12.233 59.6006 11.4131 59.6006 10.4016C59.6006 9.39023 58.7814 8.57031 57.771 8.57031C56.7605 8.57031 55.9414 9.39023 55.9414 10.4016C55.9414 11.4131 56.7605 12.233 57.771 12.233Z" fill="#FFB8B8"/>
<path d="M56.8086 11.269C56.8086 11.269 57.2901 13.775 57.0975 14.2569C56.9049 14.7388 59.7937 14.0641 59.7937 14.0641C59.7937 14.0641 59.216 11.5581 59.3122 10.9798C59.4085 10.4015 56.8086 11.269 56.8086 11.269Z" fill="#FFB8B8"/>
<path d="M57.7154 8.13987C57.5633 8.11228 57.4069 8.11919 57.2578 8.1601C57.1384 8.213 57.0285 8.28515 56.9325 8.37366C56.7583 8.51264 56.5722 8.63605 56.3764 8.74246C56.2129 8.81288 56.0656 8.91622 55.9437 9.04606C55.8922 9.11698 55.8511 9.1949 55.8216 9.27745C55.6339 9.75716 55.5835 10.2797 55.6759 10.7865C55.6863 10.8585 55.7079 10.9284 55.7401 10.9937C55.8401 11.1783 56.0612 11.251 56.2474 11.3478C56.6009 11.5315 56.8689 11.8408 57.1589 12.1142C57.2666 12.2218 57.3876 12.3151 57.519 12.392C57.9327 12.6177 58.4383 12.5441 58.9027 12.4642C58.9356 12.4642 58.9682 12.4576 58.9985 12.4449C59.0289 12.4322 59.0564 12.4135 59.0796 12.3901C59.1027 12.3667 59.121 12.3389 59.1333 12.3084C59.1457 12.2779 59.1519 12.2452 59.1516 12.2123L59.5181 10.5621C59.5846 10.3176 59.6162 10.0649 59.6121 9.8116C59.5865 9.41102 59.3698 8.85612 59.0761 8.57158C58.7339 8.24003 58.1628 8.18728 57.7154 8.13987Z" fill="#2F2E41"/>
<path d="M56.3691 14.4055C56.3691 14.4055 56.5061 13.4457 57.328 13.3771C57.7928 13.3332 58.2519 13.2413 58.6978 13.1029C58.7663 13.1029 59.6567 13.1714 60.0677 13.5828C60.0677 13.5828 60.3417 13.9941 60.4787 13.7199C60.6156 13.4457 60.6156 13.3086 60.8896 13.4457C61.1636 13.5828 61.1636 13.0343 61.643 13.1029C62.1225 13.1714 63.3553 16.2565 63.3553 16.2565L62.9444 16.7364C62.9444 16.7364 62.3964 20.4385 63.3553 22.0153C64.3142 23.5921 64.7252 25.3061 63.7663 25.6489C62.8074 25.9916 56.0951 29.0767 56.3691 27.1571C56.6431 25.2375 56.4376 22.221 56.1636 22.1524C55.8897 22.0839 54.3828 16.6679 54.3828 16.6679C54.4434 16.324 54.5875 16.0003 54.8025 15.7254C55.0175 15.4504 55.2968 15.2326 55.6157 15.091C56.7116 14.6111 56.3691 14.4055 56.3691 14.4055Z" fill="#575A88"/>
<path d="M61.3008 13.3768L61.6432 13.1026C61.6432 13.1026 62.2597 13.1026 62.3282 12.9654C62.3967 12.8283 62.7391 12.8283 63.0131 12.6912C63.2871 12.5541 62.9446 12.3484 63.2871 12.2113C63.6295 12.0742 63.6295 12.2113 63.6295 11.8685C63.6295 11.5257 64.5199 11.183 64.5884 10.7716C64.6569 10.3603 65.3418 8.44067 65.3418 8.44067L66.6432 8.85202L66.3007 11.3201C66.3007 11.3201 66.3007 12.5541 65.6843 13.3768C65.0679 14.1995 63.698 16.2562 63.0131 16.3247C62.3282 16.3933 61.3008 13.3768 61.3008 13.3768Z" fill="#575A88"/>
<path d="M54.7926 16.3247L54.3817 16.6675C54.3817 16.6675 54.2447 18.1758 54.2447 18.2443C54.2447 18.3129 54.3817 19.1356 54.2447 19.2041C54.1077 19.2727 53.8337 20.6438 53.9022 20.7124V20.918L52.9434 22.4263V23.866L55.2036 22.4263C55.2036 22.4263 56.5049 22.2892 56.2995 21.1237C56.094 19.9582 54.7926 16.3247 54.7926 16.3247Z" fill="#575A88"/>
<path d="M43.4992 48.1731C44.202 48.1731 44.7718 47.6028 44.7718 46.8993C44.7718 46.1958 44.202 45.6255 43.4992 45.6255C42.7963 45.6255 42.2266 46.1958 42.2266 46.8993C42.2266 47.6028 42.7963 48.1731 43.4992 48.1731Z" fill="#EB5757"/>
</g>
<defs>
<clipPath id="clip0">
<rect width="87" height="71" fill="white"/>
</clipPath>
</defs>
</svg>
