<svg width="91" height="64" viewBox="0 0 91 64" fill="none" xmlns="http://www.w3.org/2000/svg">
<g clip-path="url(#clip0)">
<path opacity="0.1" d="M77.4212 0.741943H60.8108C59.5839 7.5039 59.5839 14.4293 60.8108 21.1913C65.6744 20.3433 71.3264 20.4917 77.4212 21.1913C76.1847 14.2254 76.1282 7.40152 77.4212 0.741943Z" fill="black"/>
<path d="M4.65086 62.9507C4.97091 62.3667 4.60818 61.6512 4.19319 61.1297C3.7782 60.6082 3.27465 60.0698 3.28532 59.4031C3.30133 58.4492 4.32014 57.8863 5.13413 57.3807C5.73854 57.0059 6.29581 56.5607 6.79411 56.0548C7.00261 55.8599 7.17519 55.6303 7.30405 55.3764C7.47261 55.0033 7.46834 54.5793 7.45767 54.1702C7.4214 52.8092 7.35348 51.4497 7.25391 50.0916" stroke="#3F3D56" stroke-width="4" stroke-miterlimit="10"/>
<path d="M8.80245 50.0122C8.79111 49.7631 8.71674 49.5208 8.58622 49.3077C8.45569 49.0947 8.27323 48.9178 8.05568 48.7933L7.72069 49.4515L7.73136 48.6545C7.4279 48.5649 7.10364 48.5734 6.80539 48.6789C6.50714 48.7843 6.25032 48.9812 6.072 49.2411C5.89367 49.5009 5.80307 49.8104 5.81328 50.1247C5.82348 50.4391 5.93395 50.7421 6.12875 50.9901C6.32355 51.238 6.5926 51.418 6.89707 51.5041C7.20154 51.5903 7.52568 51.578 7.8227 51.4692C8.11973 51.3604 8.37428 51.1607 8.54961 50.8988C8.72494 50.6369 8.81199 50.3265 8.79819 50.0122H8.80245Z" fill="#57B894"/>
<path d="M6.13335 60.0801C5.9763 60.3825 5.71939 60.6221 5.40568 60.7588C5.09197 60.8954 4.74053 60.9207 4.41025 60.8305C4.07997 60.7404 3.79093 60.5401 3.59156 60.2634C3.39219 59.9867 3.29462 59.6503 3.3152 59.3106C3.33577 58.9709 3.47324 58.6485 3.70457 58.3975C3.9359 58.1465 4.24703 57.9822 4.58581 57.932C4.92459 57.8818 5.27044 57.9489 5.56539 58.1219C5.86035 58.2949 6.08648 58.5634 6.20589 58.8823L5.27029 59.6381L6.29978 59.4017C6.2994 59.6378 6.24234 59.8703 6.13335 60.0801Z" fill="#57B894"/>
<path d="M5.39376 57.1921C5.02082 57.2197 4.65101 57.1074 4.35742 56.8772C4.06384 56.647 3.86785 56.3158 3.80819 55.949C3.74854 55.5822 3.82956 55.2065 4.03524 54.8962C4.24092 54.5858 4.5563 54.3635 4.91903 54.273L4.91049 54.8867L5.24974 54.22C5.44662 54.2099 5.64357 54.2386 5.82923 54.3045C6.01489 54.3703 6.18558 54.4721 6.33147 54.6038C6.47736 54.7356 6.59555 54.8947 6.67923 55.0721C6.76291 55.2494 6.81043 55.4415 6.81904 55.6371C6.8278 55.8088 6.80613 55.9807 6.75503 56.1449C6.66462 56.4376 6.48526 56.6955 6.24154 56.883C5.99783 57.0705 5.70169 57.1784 5.39376 57.1921Z" fill="#57B894"/>
<path d="M9.02693 54.7893C8.7971 54.7977 8.56842 54.7533 8.35873 54.6594C8.14903 54.5656 7.96398 54.4249 7.81799 54.2483C7.67201 54.0718 7.56903 53.8641 7.5171 53.6415C7.46516 53.4189 7.46567 53.1874 7.51858 52.965C7.57148 52.7427 7.67536 52.5354 7.82212 52.3595C7.96887 52.1836 8.15454 52.0437 8.36465 51.9508C8.57475 51.8578 8.80362 51.8144 9.03341 51.8238C9.2632 51.8331 9.4877 51.8951 9.68942 52.0049L9.42485 52.7256L9.96893 52.2063C10.2605 52.4716 10.4343 52.8409 10.4522 53.2333C10.4593 53.3708 10.4468 53.5085 10.4149 53.6425C10.3403 53.9575 10.1646 54.2398 9.91415 54.4468C9.66373 54.6537 9.35227 54.774 9.02693 54.7893Z" fill="#57B894"/>
<path opacity="0.1" d="M8.60017 50.4075C8.25452 50.4456 7.91847 50.5527 7.57176 50.5739C7.22504 50.5951 6.84418 50.5124 6.62442 50.2453C6.50707 50.1001 6.44732 49.9178 6.34811 49.7609C6.25335 49.6142 6.12364 49.493 5.97046 49.408C5.88012 49.5956 5.83048 49.8 5.82477 50.0079C5.81906 50.2158 5.8574 50.4225 5.93731 50.6148C6.01721 50.807 6.1369 50.9804 6.2886 51.1237C6.4403 51.267 6.62062 51.3771 6.81788 51.4467C7.01514 51.5163 7.22492 51.5439 7.43362 51.5278C7.64232 51.5117 7.84528 51.4521 8.02933 51.353C8.21338 51.2539 8.3744 51.1175 8.50197 50.9526C8.62953 50.7877 8.72078 50.598 8.7698 50.3958C8.71326 50.3979 8.65671 50.4022 8.60017 50.4075Z" fill="black"/>
<path opacity="0.1" d="M9.02822 54.7891C8.77 54.8021 8.51279 54.7483 8.28178 54.6329C8.05076 54.5175 7.85385 54.3446 7.7103 54.1309C7.56676 53.9172 7.4815 53.6702 7.46287 53.414C7.44424 53.1578 7.49287 52.9011 7.60401 52.6692C7.72286 52.7489 7.82503 52.8508 7.90486 52.9692C8.01154 53.1292 8.07661 53.3136 8.20143 53.461C8.43507 53.7334 8.83299 53.8224 9.19464 53.8054C9.5563 53.7885 9.90515 53.6878 10.2615 53.6549C10.3116 53.6549 10.3618 53.6475 10.413 53.6454C10.338 53.9593 10.1624 54.2406 9.91271 54.4468C9.66298 54.6531 9.35258 54.7732 9.02822 54.7891Z" fill="black"/>
<path opacity="0.1" d="M5.39329 57.1919C5.13747 57.2047 4.88261 57.152 4.65322 57.0388C4.42382 56.9255 4.22759 56.7556 4.08339 56.5452C3.93918 56.3349 3.85185 56.0913 3.82977 55.8377C3.8077 55.5842 3.85163 55.3292 3.95735 55.0974C4.08157 55.178 4.19001 55.2804 4.2774 55.3995C4.39368 55.5627 4.46622 55.7503 4.59744 55.9009C4.85028 56.1807 5.27487 56.2792 5.6568 56.2697C6.03872 56.2602 6.38544 56.1711 6.75349 56.1436C6.66333 56.4364 6.48421 56.6943 6.24069 56.882C5.99717 57.0697 5.70117 57.1779 5.39329 57.1919Z" fill="black"/>
<path opacity="0.1" d="M6.13384 60.0804C5.97186 60.44 5.6727 60.7211 5.30218 60.8616C4.93165 61.0021 4.52011 60.9907 4.15809 60.8297C3.79607 60.6688 3.51322 60.3716 3.37178 60.0034C3.23033 59.6353 3.24186 59.2264 3.40385 58.8667C3.52739 58.9466 3.63815 59.0445 3.73243 59.1571C3.87538 59.3299 3.96926 59.5249 4.13355 59.6871C4.43973 59.986 4.93367 60.1111 5.37427 60.1206C5.62803 60.1217 5.88164 60.1082 6.13384 60.0804Z" fill="black"/>
<path d="M2.39258 62.6972C2.39258 62.6972 3.57462 62.2372 3.93094 61.9849C4.28726 61.7326 5.74454 61.4316 5.83628 61.8365C5.92803 62.2414 7.61254 63.8504 6.27902 63.8568C4.94549 63.8631 3.17883 64.0741 2.82251 63.8568C2.46619 63.6395 2.39258 62.6972 2.39258 62.6972Z" fill="#656380"/>
<path opacity="0.2" d="M6.30249 63.7157C4.96789 63.7263 3.2023 63.9277 2.84705 63.7157C2.57607 63.5525 2.46832 62.9642 2.43205 62.6929H2.39258C2.39258 62.6929 2.46726 63.6394 2.81931 63.8588C3.17136 64.0782 4.94122 63.8673 6.27582 63.8588C6.66094 63.8588 6.79322 63.7199 6.78576 63.5175C6.73562 63.6373 6.58946 63.7136 6.30249 63.7157Z" fill="black"/>
<path d="M87.1892 62.483C86.6835 61.5523 87.2575 60.4118 87.9168 59.5819C88.5761 58.752 89.3815 57.886 89.3644 56.8261C89.3399 55.3051 87.7162 54.4084 86.4179 53.6018C85.4555 53.0038 84.5678 52.2947 83.7732 51.4893C83.4532 51.1713 83.147 50.8205 82.9603 50.4082C82.6915 49.8135 82.6989 49.1362 82.716 48.4865C82.7722 46.3165 82.8789 44.1493 83.0361 41.9849" stroke="#3F3D56" stroke-width="4" stroke-miterlimit="10"/>
<path d="M80.5718 41.8704C80.5901 41.4734 80.7087 41.0874 80.9168 40.748C81.1249 40.4086 81.4157 40.1268 81.7624 39.9286L82.2958 40.978L82.2798 39.706C82.7651 39.5634 83.2834 39.5777 83.7599 39.7469C84.2364 39.9161 84.6464 40.2314 84.9308 40.6472C85.2152 41.0631 85.3591 41.558 85.3419 42.0604C85.3247 42.5629 85.1472 43.0469 84.835 43.4426C84.5228 43.8382 84.0921 44.1251 83.6051 44.2616C83.1181 44.3982 82.6 44.3775 82.1257 44.2024C81.6514 44.0273 81.2453 43.7069 80.9662 43.2876C80.6871 42.8682 80.5493 42.3716 80.5729 41.8694L80.5718 41.8704Z" fill="#57B894"/>
<path d="M84.8278 57.9172C85.0781 58.4008 85.4881 58.7842 85.9891 59.003C86.4902 59.2219 87.0517 59.2629 87.5795 59.1192C88.1074 58.9755 88.5695 58.6558 88.8882 58.2138C89.207 57.7717 89.3631 57.2343 89.3303 56.6915C89.2975 56.1487 89.0779 55.6336 88.7082 55.2326C88.3385 54.8316 87.8413 54.5691 87.2999 54.4892C86.7586 54.4092 86.206 54.5166 85.7349 54.7934C85.2638 55.0702 84.9029 55.4995 84.7126 56.0094L86.2061 57.2145L84.5664 56.8361C84.5656 57.212 84.6552 57.5827 84.8278 57.9172Z" fill="#57B894"/>
<path d="M86.005 53.3135C86.5903 53.3404 87.165 53.1523 87.6198 52.7853C88.0745 52.4182 88.3775 51.8978 88.4709 51.3232C88.5644 50.7485 88.4418 50.1598 88.1265 49.6691C87.8113 49.1785 87.3254 48.8202 86.7614 48.6625L86.7742 49.6398L86.2344 48.5799H86.228C85.9136 48.563 85.599 48.6081 85.3022 48.7126C85.0055 48.8171 84.7324 48.9789 84.4989 49.1887C84.2654 49.3985 84.0759 49.6521 83.9414 49.9349C83.807 50.2178 83.7302 50.5243 83.7155 50.8367C83.7008 51.1492 83.7485 51.4615 83.8558 51.7555C83.963 52.0496 84.1279 52.3197 84.3407 52.5502C84.5535 52.7808 84.8101 52.9672 85.0958 53.0987C85.3814 53.2303 85.6904 53.3043 86.005 53.3167V53.3135Z" fill="#57B894"/>
<path d="M80.2145 49.4896C80.5836 49.5067 80.9517 49.4385 81.2897 49.2903C81.6277 49.1421 81.9265 48.9179 82.1625 48.6354C82.3985 48.353 82.5652 48.0199 82.6496 47.6625C82.734 47.3051 82.7337 46.9332 82.6487 46.5759C82.5637 46.2186 82.3965 45.8858 82.16 45.6038C81.9236 45.3217 81.6244 45.098 81.2862 44.9503C80.9479 44.8026 80.5797 44.735 80.2107 44.7528C79.8416 44.7705 79.4818 44.8732 79.1594 45.0527L79.5862 46.2006L78.7188 45.3738C78.3718 45.69 78.1267 46.101 78.0143 46.5553C77.9019 47.0095 77.9273 47.4866 78.0871 47.9266C78.247 48.3665 78.5343 48.7497 78.9129 49.0278C79.2914 49.3059 79.7443 49.4666 80.2145 49.4896Z" fill="#57B894"/>
<path opacity="0.1" d="M80.893 42.5022C81.4445 42.5626 81.9801 42.7333 82.5327 42.7672C83.0853 42.8011 83.6923 42.6697 84.0412 42.2372C84.23 42.0072 84.3239 41.7168 84.4828 41.4656C84.634 41.2325 84.8402 41.0397 85.0834 40.9038C85.2372 41.2043 85.3246 41.534 85.34 41.8707C85.3553 42.2075 85.2982 42.5437 85.1724 42.8568C85.0467 43.1699 84.8552 43.4527 84.6107 43.6865C84.3662 43.9202 84.0744 44.0995 83.7547 44.2123C83.4349 44.3251 83.0946 44.3689 82.7565 44.3408C82.4184 44.3126 82.0902 44.2131 81.7939 44.049C81.4975 43.8848 81.2398 43.6598 81.0379 43.3889C80.836 43.1179 80.6946 42.8073 80.623 42.4778C80.7137 42.4863 80.8033 42.4937 80.893 42.5022Z" fill="black"/>
<path opacity="0.1" d="M80.2137 49.4892C80.6262 49.5088 81.0368 49.4218 81.4054 49.2367C81.774 49.0515 82.088 48.7746 82.3167 48.4329C82.5454 48.0912 82.681 47.6964 82.7103 47.287C82.7396 46.8777 82.6616 46.4678 82.4838 46.0974C82.2941 46.2243 82.131 46.3866 82.0038 46.5754C81.8341 46.8298 81.7307 47.1245 81.5312 47.3587C81.1599 47.7923 80.5241 47.9343 79.948 47.9089C79.3719 47.8834 78.8172 47.7202 78.2411 47.6672C78.1611 47.6608 78.0811 47.6555 78 47.6534C78.1169 48.1574 78.3966 48.6096 78.7962 48.941C79.1959 49.2725 79.6936 49.465 80.2137 49.4892Z" fill="black"/>
<path opacity="0.1" d="M86.0058 53.3138C86.413 53.3327 86.8183 53.2477 87.183 53.0668C87.5478 52.8859 87.8598 52.6153 88.0893 52.2806C88.3189 51.9459 88.4583 51.5584 88.4944 51.155C88.5304 50.7516 88.4619 50.3457 88.2952 49.9761C88.0985 50.1044 87.9273 50.2679 87.7906 50.4583C87.605 50.718 87.4898 51.0169 87.2722 51.2575C86.87 51.7027 86.1936 51.8596 85.5834 51.8447C84.9924 51.832 84.4238 51.6879 83.8359 51.6433C83.9804 52.1099 84.2664 52.5208 84.6548 52.8198C85.0432 53.1188 85.515 53.2913 86.0058 53.3138Z" fill="black"/>
<path opacity="0.1" d="M84.8262 57.9171C85.1049 58.4574 85.5817 58.8708 86.1582 59.0722C86.7346 59.2736 87.3669 59.2477 87.9247 58.9997C88.4825 58.7517 88.9233 58.3005 89.1562 57.7392C89.3891 57.1779 89.3964 56.5492 89.1767 55.9827C88.9799 56.1108 88.8034 56.2673 88.6529 56.4469C88.4256 56.7214 88.2763 57.0331 88.0128 57.2885C87.5252 57.7644 86.7379 57.9605 86.037 57.9785C85.6325 57.9816 85.2282 57.961 84.8262 57.9171Z" fill="black"/>
<path d="M90.7865 61.8357C90.7865 61.8357 88.9036 61.3545 88.3328 60.9528C87.7621 60.5511 85.4353 60.072 85.2945 60.7154C85.1537 61.3588 82.4642 63.9185 84.5904 63.9355C86.7166 63.9524 89.5309 64.0309 90.0973 63.6875C90.6638 63.344 90.7865 61.8357 90.7865 61.8357Z" fill="#656380"/>
<path opacity="0.2" d="M84.5564 63.7115C86.6826 63.7284 89.4968 63.8058 90.0633 63.4635C90.49 63.2016 90.6661 62.2657 90.7237 61.8333H90.7866C90.7866 61.8333 90.6671 63.3426 90.1007 63.685C89.5342 64.0273 86.7199 63.95 84.5937 63.933C83.9803 63.933 83.768 63.7115 83.7798 63.3903C83.8651 63.5864 84.0987 63.7072 84.5564 63.7115Z" fill="black"/>
<path opacity="0.1" d="M25.9659 1.25635H9.35547C10.6495 7.91593 10.5919 14.7398 9.35547 21.7057C15.4502 21.0061 21.1033 20.8578 25.9659 21.7057C27.1927 14.9437 27.1927 8.01831 25.9659 1.25635Z" fill="black"/>
<path d="M42.1414 10.0993C40.5198 10.2138 38.9985 11.3394 38.8875 12.799C38.8267 13.5929 39.1606 14.4026 39.0252 15.1859C38.847 16.2226 37.8911 16.9878 36.8915 17.5083C35.8919 18.0287 34.7867 18.4209 33.9556 19.1374C33.1246 19.8539 32.6381 21.0453 33.2248 21.9791C33.4499 22.3373 33.8052 22.615 34.0932 22.933C34.8763 23.8053 35.1409 25.0253 34.7717 26.0609C34.4357 26.9989 33.6164 27.8257 33.7049 28.822C33.7903 29.776 34.728 30.5497 35.7436 30.8518C36.7592 31.1539 37.8452 31.0829 38.8961 31.0076C40.109 30.9217 41.4693 30.7649 42.1744 29.8915C42.9319 28.9534 42.5937 27.602 42.9969 26.4933C43.8013 24.2844 47.1287 23.747 48.458 21.7703C49.0981 20.8163 49.1952 19.6409 49.1856 18.5088C49.1578 14.9241 47.2226 9.74211 42.1414 10.0993Z" fill="#3F3D56"/>
<path d="M41.8724 17.8304C41.8724 17.8304 42.4058 19.5263 40.5922 20.4803C38.7786 21.4342 42.0858 23.7661 42.0858 23.7661L44.6462 24.72L47.5266 23.4481L46.9932 19.1023C46.9932 19.1023 44.5395 19.9503 44.5395 16.8765L41.8724 17.8304Z" fill="#A0616A"/>
<path opacity="0.1" d="M41.8724 17.8304C41.8724 17.8304 42.4058 19.5263 40.5922 20.4803C38.7786 21.4342 42.0858 23.7661 42.0858 23.7661L44.6462 24.72L47.5266 23.4481L46.9932 19.1023C46.9932 19.1023 44.5395 19.9503 44.5395 16.8765L41.8724 17.8304Z" fill="black"/>
<path d="M45.8195 55.9881C45.8195 55.9881 45.2861 59.5918 45.6062 60.0158C45.9262 60.4398 47.4198 60.2278 47.4198 60.2278C47.4198 60.2278 47.7398 56.624 47.8465 56.2C47.9532 55.7761 45.8195 55.9881 45.8195 55.9881Z" fill="#A0616A"/>
<path d="M47.4743 59.6254C47.4743 59.6254 45.9263 59.3795 45.9263 59.8034C45.9263 59.8034 45.2862 60.1214 45.2862 59.8034C45.2862 59.4855 44.6995 63.1423 45.1262 63.6722C45.553 64.2022 47.1831 63.6213 47.5799 63.8842C47.9 64.0962 50.3003 64.0432 50.407 63.5132C50.5137 62.9833 50.5137 62.5593 49.5535 62.0293C48.5934 61.4993 47.4743 59.6254 47.4743 59.6254Z" fill="#3F3D56"/>
<path opacity="0.1" d="M47.4743 59.6254C47.4743 59.6254 45.9263 59.3795 45.9263 59.8034C45.9263 59.8034 45.2862 60.1214 45.2862 59.8034C45.2862 59.4855 44.6995 63.1423 45.1262 63.6722C45.553 64.2022 47.1831 63.6213 47.5799 63.8842C47.9 64.0962 50.3003 64.0432 50.407 63.5132C50.5137 62.9833 50.5137 62.5593 49.5535 62.0293C48.5934 61.4993 47.4743 59.6254 47.4743 59.6254Z" fill="black"/>
<path d="M42.0859 55.6699C42.0859 55.6699 42.8327 58.8497 42.5127 60.3336L44.753 59.6977C44.753 59.6977 43.3661 55.9879 43.4728 55.6699C43.5795 55.3519 42.0859 55.6699 42.0859 55.6699Z" fill="#A0616A"/>
<path d="M42.9389 59.6974C42.9389 59.6974 44.3258 58.9555 44.7525 59.6974C45.1792 60.4394 46.4594 63.4072 45.7127 63.7252C44.9659 64.0432 42.6189 63.9372 42.5122 62.7712C42.4055 61.6053 42.2988 59.9094 42.2988 59.9094C42.2988 59.9094 42.8322 60.1214 42.9389 59.6974Z" fill="#3F3D56"/>
<path d="M39.0993 32.5635C39.0993 32.5635 37.0724 36.6972 39.6327 43.2688C39.6327 43.2688 40.9129 47.0846 40.2728 49.3105C39.6327 51.5363 41.6597 56.73 41.6597 56.73L44.1134 56.306C44.1134 56.306 43.1532 49.3105 43.4733 48.5685C43.7933 47.8266 43.58 39.877 43.58 39.877C43.58 39.877 46.4604 45.2827 46.0337 49.6284C45.6069 53.9742 45.5003 56.412 45.5003 56.412L48.274 56.306C48.4825 54.8437 48.7674 53.3932 49.1275 51.9603C49.6609 49.9464 49.9809 40.407 48.594 37.5452L48.274 34.0474L39.0993 32.5635Z" fill="#3F3D56"/>
<path d="M42.5135 18.7832C43.9276 18.7832 45.0739 17.6443 45.0739 16.2394C45.0739 14.8345 43.9276 13.6956 42.5135 13.6956C41.0994 13.6956 39.9531 14.8345 39.9531 16.2394C39.9531 17.6443 41.0994 18.7832 42.5135 18.7832Z" fill="#A0616A"/>
<path d="M42.6645 16.2784C44.3008 16.0701 45.5363 15.1952 45.424 14.3243C45.3117 13.4533 43.8942 12.9161 42.2578 13.1244C40.6215 13.3326 39.386 14.2075 39.4983 15.0785C39.6106 15.9495 41.0281 16.4867 42.6645 16.2784Z" fill="#3F3D56"/>
<path opacity="0.1" d="M45.4138 14.2795C45.273 15.0544 44.1336 15.7762 42.6635 15.9627C41.0569 16.1673 39.6615 15.6522 39.5057 14.8095C39.4885 14.8989 39.4856 14.9905 39.4972 15.0809C39.6039 15.9511 41.027 16.4884 42.6635 16.2807C44.3 16.073 45.5354 15.1974 45.4223 14.3262C45.4202 14.3103 45.417 14.2997 45.4138 14.2795Z" fill="black"/>
<path d="M38.9669 20.8974C38.6234 20.7565 38.2287 20.9748 37.9983 21.2642C37.7678 21.5535 37.6356 21.9107 37.4083 22.2022C37.1523 22.5287 36.7906 22.7534 36.4535 22.9982C36.0133 23.3187 35.6069 23.6827 35.2405 24.0847C35.0464 24.2967 34.8575 24.5277 34.6004 24.6697C34.1918 24.8976 33.6755 24.8574 33.2445 24.6697C32.8135 24.4821 32.4519 24.179 32.0987 23.8737C31.049 22.9643 30.0135 22.034 28.9921 21.0829C28.2656 20.4088 27.2191 20.0696 26.2312 19.9615C25.9901 19.935 25.7181 19.934 25.5388 20.0961C25.4207 20.2137 25.3543 20.373 25.3543 20.5392C25.3319 21.0914 25.8045 21.5514 26.3144 21.7751C26.8244 21.9987 27.3898 22.0665 27.9029 22.2785C28.3904 22.4823 28.8174 22.8062 29.1436 23.2198C29.5021 23.6734 29.9363 24.0444 30.2777 24.5097C30.4334 24.7217 30.571 24.9453 30.7204 25.1616C31.0828 25.6641 31.4776 26.1428 31.9024 26.5946C32.3964 27.1405 33.0002 27.7319 33.7363 27.6768C34.0436 27.6545 34.3273 27.5178 34.6036 27.3832C35.4667 26.9592 36.3372 26.5352 37.0936 25.947C37.5363 25.6025 37.9364 25.205 38.4005 24.887C38.8443 24.585 39.351 24.3571 39.7105 23.9575C39.915 23.7261 40.0609 23.4496 40.1363 23.151C40.2116 22.8524 40.2141 22.5402 40.1436 22.2404C40.0648 21.9417 39.9175 21.6651 39.7134 21.4321C39.5093 21.1992 39.2539 21.0162 38.9669 20.8974Z" fill="#A0616A"/>
<path d="M48.7258 19.8376C49.0693 19.6967 49.464 19.915 49.6945 20.2044C49.9249 20.4937 50.0572 20.8509 50.2844 21.1424C50.5404 21.4689 50.9021 21.6936 51.2392 21.9384C51.6794 22.2589 52.0858 22.6229 52.4522 23.0249C52.6464 23.2368 52.8352 23.4679 53.0923 23.6099C53.5009 23.8378 54.0172 23.7976 54.4482 23.6099C54.8792 23.4223 55.2409 23.1192 55.594 22.8139C56.6466 21.901 57.6835 20.9707 58.7048 20.0231C59.4313 19.349 60.4779 19.0098 61.4658 18.9017C61.7069 18.8752 61.9789 18.8741 62.1581 19.0363C62.2763 19.1539 62.3426 19.3132 62.3427 19.4794C62.3651 20.0316 61.8925 20.4916 61.3826 20.7153C60.8726 20.9389 60.3072 21.0067 59.7941 21.2187C59.3066 21.4225 58.8796 21.7464 58.5533 22.1599C58.1949 22.6136 57.7607 22.9846 57.4193 23.4499C57.2636 23.6619 57.1259 23.8855 56.9766 24.1018C56.6128 24.6045 56.2166 25.0832 55.7903 25.5348C55.2963 26.0807 54.6925 26.6721 53.9564 26.617C53.6492 26.5947 53.3654 26.458 53.0891 26.3234C52.226 25.8994 51.3555 25.4754 50.5991 24.8872C50.1564 24.5427 49.7563 24.1452 49.2923 23.8272C48.8485 23.5251 48.3417 23.2973 47.9822 22.8977C47.7778 22.6663 47.6318 22.3898 47.5565 22.0912C47.4812 21.7926 47.4786 21.4804 47.5491 21.1806C47.628 20.8818 47.7752 20.6052 47.9793 20.3723C48.1834 20.1394 48.4389 19.9564 48.7258 19.8376Z" fill="#A0616A"/>
<path d="M44.4327 23.0239C43.8471 22.6394 43.2418 22.2856 42.6191 21.964C41.7656 21.54 40.8055 20.1621 40.8055 20.1621C40.8055 20.1621 37.8184 20.6921 37.8184 21.434C37.8184 22.176 39.0985 24.8258 39.5253 25.0378C39.952 25.2498 40.5921 25.2498 40.4854 25.6738C40.3787 26.0977 40.8055 26.9457 40.8055 26.9457C40.8055 26.9457 41.6589 28.2176 41.1255 28.5356C40.5921 28.8536 38.2451 32.6693 38.5651 33.1993C38.8852 33.7293 41.8723 34.2592 43.3658 35.5312C44.8594 36.8031 49.02 35.4252 49.02 35.1072C49.02 34.7892 48.5933 34.1532 48.5933 34.1532C48.5933 34.1532 48.4866 28.8536 49.02 27.1577C49.5534 25.4618 49.1267 23.0239 48.9133 22.7059C48.9133 22.7059 50.1935 20.4801 49.6601 19.8441C49.1267 19.2081 46.5663 18.8902 46.3529 18.9962L46.1513 20.1504C46.0095 20.9565 45.7616 21.7405 45.4141 22.4823C45.3075 22.7123 45.2146 22.9179 45.1794 23.0218C45.0727 23.3419 44.4327 23.0239 44.4327 23.0239Z" fill="#EB5757"/>
<path d="M60.1701 20.4469C65.0338 19.599 70.6858 19.7473 76.7806 20.4469C75.5441 13.481 75.4876 6.65714 76.7806 -0.00244141H60.1701C58.9433 6.75952 58.9433 13.6849 60.1701 20.4469Z" fill="#F2F2F2"/>
<path d="M73.1302 3.4375H62.8887V4.81542H73.1302V3.4375Z" fill="#EB5757"/>
<path d="M73.1302 6.29956H62.8887V7.67748H73.1302V6.29956Z" fill="#EB5757"/>
<path d="M26.712 20.8578C21.8494 20.0098 16.1963 20.1582 10.1016 20.8578C11.338 13.8919 11.3956 7.06803 10.1016 0.408447H26.712C27.9388 7.1704 27.9388 14.0958 26.712 20.8578Z" fill="#F2F2F2"/>
<path d="M23.9505 4.17944H13.709V5.55736H23.9505V4.17944Z" fill="#EB5757"/>
<path d="M80.5453 63.7776H10.4551V63.9896H80.5453V63.7776Z" fill="#3F3D56"/>
<path d="M90.9994 63.7776H82.4648V63.9896H90.9994V63.7776Z" fill="#3F3D56"/>
<path d="M8.53458 63.7776H0V63.9896H8.53458V63.7776Z" fill="#3F3D56"/>
<path d="M23.9123 34.5367C23.901 34.2876 23.8266 34.0453 23.6961 33.8322C23.5656 33.6192 23.3831 33.4423 23.1656 33.3178L22.8306 33.976L22.8402 33.179C22.6804 33.1317 22.5138 33.1117 22.3473 33.1196C22.0526 33.1341 21.7689 33.235 21.5319 33.4096C21.2949 33.5841 21.1152 33.8245 21.0155 34.1004C20.9159 34.3763 20.9007 34.6754 20.9719 34.9598C21.0431 35.2443 21.1975 35.5014 21.4156 35.6988C21.6337 35.8962 21.9058 36.0249 22.1975 36.0689C22.4892 36.1128 22.7875 36.0699 23.0546 35.9456C23.3218 35.8213 23.546 35.6211 23.6988 35.3704C23.8516 35.1197 23.9263 34.8296 23.9134 34.5367H23.9123Z" fill="#F2F2F2"/>
<path opacity="0.03" d="M23.7115 34.9326C23.3659 34.9708 23.0298 35.0778 22.6831 35.099C22.3364 35.1202 21.9555 35.0375 21.7357 34.7704C21.6184 34.6252 21.5587 34.4429 21.4594 34.2861C21.3647 34.1393 21.235 34.0181 21.0818 33.9331C20.9914 34.1207 20.9418 34.3251 20.9361 34.533C20.9304 34.7409 20.9687 34.9477 21.0486 35.1399C21.1285 35.3321 21.2482 35.5055 21.3999 35.6488C21.5516 35.7921 21.732 35.9022 21.9292 35.9718C22.1265 36.0414 22.3363 36.069 22.545 36.0529C22.7537 36.0368 22.9566 35.9772 23.1407 35.8781C23.3247 35.7791 23.4857 35.6426 23.6133 35.4777C23.7409 35.3128 23.8321 35.1231 23.8811 34.9209C23.8246 34.9231 23.7681 34.9273 23.7115 34.9326Z" fill="black"/>
<path d="M60.4527 48.9258C60.2216 48.8277 59.9694 48.7891 59.7193 48.8135C59.4692 48.838 59.2294 48.9247 59.0221 49.0657L59.4723 49.6529L58.7543 49.2957C58.6422 49.4179 58.5517 49.5581 58.4865 49.7102C58.3709 49.9799 58.3384 50.2776 58.3929 50.5658C58.4475 50.8539 58.5867 51.1195 58.7931 51.3291C58.9994 51.5386 59.2636 51.6828 59.5523 51.7433C59.841 51.8039 60.1413 51.7781 60.4153 51.6692C60.6893 51.5604 60.9247 51.3733 61.0918 51.1317C61.2588 50.89 61.3501 50.6047 61.3541 50.3115C61.3581 50.0184 61.2747 49.7306 61.1142 49.4846C60.9538 49.2385 60.7236 49.0452 60.4527 48.929V48.9258Z" fill="#F2F2F2"/>
<path opacity="0.03" d="M60.7236 49.2777C60.6062 49.6031 60.5571 49.9496 60.4249 50.2697C60.2926 50.5898 60.0515 50.893 59.7133 50.9725C59.5309 51.0149 59.3399 50.9884 59.1543 51.0085C58.9801 51.0292 58.8137 51.0921 58.6699 51.1919C58.8262 51.3975 59.034 51.5587 59.2727 51.6593C59.6092 51.8165 59.9925 51.8433 60.3479 51.7346C60.7032 51.6258 61.0049 51.3893 61.1941 51.0713C61.3832 50.7532 61.4461 50.3765 61.3706 50.0148C61.295 49.6531 61.0864 49.3325 60.7854 49.1155C60.763 49.1717 60.7428 49.2257 60.7236 49.2777Z" fill="black"/>
<path d="M55.1494 2.88615C54.9302 2.7643 54.6836 2.69935 54.4324 2.69732C54.1812 2.69528 53.9336 2.75621 53.7124 2.87449L54.0997 3.50515L53.4222 3.08117C53.1867 3.29101 53.0243 3.56973 52.9585 3.87717C52.8926 4.1846 52.9268 4.50487 53.0559 4.7918C53.1851 5.07873 53.4026 5.3175 53.6771 5.47369C53.9517 5.62989 54.269 5.69544 54.5834 5.6609C54.8979 5.62636 55.1932 5.49351 55.4267 5.2815C55.6603 5.06949 55.82 4.78928 55.883 4.48125C55.9459 4.17321 55.9088 3.85328 55.777 3.56756C55.6451 3.28184 55.4254 3.04509 55.1494 2.89145V2.88615Z" fill="#F2F2F2"/>
<path opacity="0.03" d="M55.382 3.26558C55.2326 3.57614 55.1462 3.91638 54.9819 4.21952C54.8177 4.52266 54.5467 4.80142 54.2021 4.84594C54.0165 4.86926 53.8287 4.82368 53.642 4.82474C53.4665 4.82724 53.2942 4.87275 53.1406 4.95724C53.2744 5.17897 53.4646 5.36176 53.6922 5.4872C54.0099 5.67211 54.3851 5.73389 54.7459 5.6607C55.1066 5.58751 55.4275 5.3845 55.6468 5.09064C55.8661 4.79679 55.9684 4.43281 55.9341 4.06857C55.8998 3.70434 55.7313 3.36553 55.4609 3.11719C55.4332 3.17018 55.4065 3.2147 55.382 3.26558Z" fill="black"/>
</g>
<defs>
<clipPath id="clip0">
<rect width="91" height="64" fill="white"/>
</clipPath>
</defs>
</svg>
