<svg width="16" height="16" viewBox="0 0 16 16" fill="none" xmlns="http://www.w3.org/2000/svg">
<g clip-path="url(#clip0)">
<path d="M15.1472 6.48129L2.42216 0.323671C1.58396 -0.0825835 0.575156 0.267573 0.168869 1.10578C-0.0382936 1.53318 -0.0556203 2.02811 0.121138 2.46898L2.10903 7.437H16C15.8538 7.01789 15.547 6.67409 15.1472 6.48129Z" fill="#00A7D8"/>
<path d="M2.10894 8.56128L0.121047 13.5304C-0.223905 14.398 0.199742 15.3809 1.06729 15.7259C1.26372 15.804 1.47309 15.8446 1.68447 15.8455C1.93989 15.8455 2.19201 15.7879 2.42204 15.6768L15.1471 9.51698C15.5469 9.32415 15.8537 8.98035 15.9999 8.56128H2.10894Z" fill="#00A7D8"/>
</g>
<defs>
<clipPath id="clip0">
<rect width="16" height="16" fill="white"/>
</clipPath>
</defs>
</svg>
