<svg width="60" height="60" viewBox="0 0 60 60" fill="none" xmlns="http://www.w3.org/2000/svg">
<circle cx="30" cy="30" r="30" fill="#17118B"/>
<path d="M30 17C23.3681 17 18 22.3668 18 28.9996C18 31.9074 19.0455 34.6939 20.95 36.8791V41.8491C20.95 42.515 21.7584 42.8515 22.2303 42.3794L24.7955 39.8143C32.7651 43.6486 42 37.8224 42 28.9996C42 22.3679 36.6329 17 30 17V17ZM30 36.5443C29.5872 36.5443 29.2525 36.2097 29.2525 35.7969C29.2525 35.3841 29.5872 35.0494 30 35.0494C30.4129 35.0494 30.7475 35.3841 30.7475 35.7969C30.7475 36.2096 30.4129 36.5443 30 36.5443ZM30.75 31.237V32.7969C30.75 33.2111 30.4142 33.5469 30 33.5469C29.5858 33.5469 29.25 33.2111 29.25 32.7969V30.5495C29.25 30.1353 29.5858 29.7995 30 29.7995C31.6556 29.7995 33.0025 28.4526 33.0025 26.7971C33.0025 25.1416 31.6556 23.7947 30 23.7947C28.3444 23.7947 26.9975 25.1416 26.9975 26.7971C26.9975 27.2113 26.6617 27.5471 26.2475 27.5471C25.8333 27.5471 25.4975 27.2113 25.4975 26.7971C25.4975 24.3145 27.5173 22.2948 30 22.2948C32.4827 22.2948 34.5025 24.3145 34.5025 26.7971C34.5025 29.0243 32.877 30.8789 30.75 31.237Z" fill="white"/>
<path d="M5.19228 28.2918L4.31538 28.1465L5.05936 23.53L5.93626 23.6752L5.65022 25.4649L10.554 26.2575L10.3854 27.3006L5.48157 26.508L5.19228 28.2918Z" fill="#98B1BE"/>
<path d="M11.1761 23.5474L5.81635 21.19L7.35028 17.7014L8.16059 18.0596L7.05645 20.5758L8.51176 21.2146L9.53898 18.8787L10.3552 19.2336L9.32794 21.5695L10.7924 22.211L11.9077 19.6733L12.718 20.0315L11.1761 23.5474Z" fill="#98B1BE"/>
<path d="M9.27807 14.6777L11.7579 15.0203L11.7834 14.9832L10.9235 12.6295L11.685 11.6889L12.8416 14.929L16.2703 15.3389L15.4977 16.3009L13.0217 15.9791L12.9961 16.0162L13.8378 18.3646L13.0678 19.3175L11.9459 16.0431L8.51718 15.6332L9.27807 14.6777Z" fill="#98B1BE"/>
<path d="M16.8943 14.7882L13.566 9.97071L14.4371 9.36822L15.8464 11.4117L18.0767 9.86882L16.6675 7.82538L17.5445 7.21966L20.8727 12.0372L19.9957 12.6429L18.5832 10.5936L16.3529 12.1364L17.7654 14.1857L16.8943 14.7882Z" fill="#98B1BE"/>
<path d="M20.1602 5.93179L21.1627 5.60944L22.3779 9.41485L22.4314 9.4007L23.8351 4.75785L24.7397 4.46644L26.5242 10.0424L25.5126 10.3621L24.3007 6.5626L24.2563 6.57939L22.8375 11.2228L21.9388 11.511L20.1602 5.93179Z" fill="#98B1BE"/>
<path d="M31.3345 3.96006L32.3795 3.95141L32.4329 9.80673L31.3879 9.81538L31.3345 3.96006ZM27.8182 3.98922L28.854 3.97793L28.8733 5.8906C28.8802 6.13964 28.918 6.33337 29.0048 6.4771C29.0917 6.62082 29.2249 6.72364 29.3955 6.78292C29.5661 6.84219 29.7837 6.87557 30.036 6.87451C30.1501 6.87296 30.27 6.86818 30.4076 6.85367C30.5393 6.84241 30.6711 6.83115 30.8054 6.81077C30.9398 6.79039 31.0682 6.77325 31.1935 6.75022C31.3187 6.7272 31.4257 6.69891 31.5236 6.66797L31.531 7.52977C31.4331 7.56071 31.3261 7.58901 31.2041 7.61791C31.0821 7.64681 30.9568 7.66983 30.8251 7.68109C30.6908 7.70147 30.559 7.71273 30.4273 7.724C30.2956 7.73526 30.1665 7.73741 30.0407 7.74543C29.5902 7.74839 29.2032 7.68573 28.8738 7.5607C28.5444 7.43567 28.287 7.23267 28.1081 6.96346C27.9259 6.68837 27.8307 6.33471 27.8251 5.89337L27.8182 3.98922Z" fill="#98B1BE"/>
<path d="M33.7658 10.0298L35.2853 4.37305L38.9655 5.36466L38.7356 6.22691L36.0818 5.51276L35.6715 7.04907L38.1371 7.71366L37.9071 8.57592L35.4415 7.91133L35.0286 9.45675L37.7065 10.1729L37.4766 11.0352L33.7658 10.0298Z" fill="#98B1BE"/>
<path d="M44.8138 10.6105L43.894 10.0674C43.9565 9.90272 43.989 9.73922 43.9857 9.58015C43.9824 9.42108 43.9523 9.26909 43.8954 9.12417C43.8386 8.97925 43.7582 8.84728 43.6452 8.72563C43.5322 8.60398 43.4048 8.49792 43.248 8.40805C42.9742 8.24476 42.6889 8.17204 42.3981 8.18664C42.1074 8.20125 41.8228 8.29671 41.5483 8.4939C41.2706 8.68521 41.0238 8.97441 40.8015 9.34975C40.5765 9.73421 40.4409 10.1001 40.4091 10.4318C40.3714 10.7667 40.4192 11.0622 40.5558 11.3241C40.6924 11.5859 40.8899 11.7913 41.1637 11.9546C41.3114 12.0419 41.4702 12.1076 41.622 12.1466C41.7796 12.1824 41.9334 12.1973 42.0827 12.1763C42.2353 12.1612 42.3808 12.1193 42.5219 12.0416C42.6662 11.9698 42.7944 11.8685 42.9063 11.7379L43.8235 12.2901C43.646 12.5104 43.44 12.6929 43.2023 12.8315C42.9645 12.9702 42.7073 13.0735 42.4268 13.1208C42.1496 13.1739 41.8582 13.1735 41.5585 13.1164C41.2589 13.0592 40.9568 12.9421 40.6615 12.7677C40.2185 12.506 39.8807 12.171 39.654 11.7595C39.4273 11.3481 39.3279 10.8894 39.3558 10.3837C39.3837 9.87792 39.5551 9.35443 39.879 8.81583C40.1997 8.27136 40.574 7.86593 41.002 7.59953C41.4299 7.33314 41.8841 7.19787 42.3528 7.2002C42.8215 7.20252 43.2741 7.32865 43.7171 7.59032C44 7.75626 44.236 7.9481 44.4281 8.17173C44.6262 8.39212 44.7681 8.63577 44.8688 8.90209C44.9695 9.16842 45.0135 9.44301 45.0073 9.73764C45.0122 10.0108 44.9459 10.3078 44.8138 10.6105Z" fill="#98B1BE"/>
<path d="M45.987 17.205L46.5491 14.0526L46.1946 13.6733L44.3207 15.4182L43.6019 14.6418L47.8944 10.6527L48.6132 11.429L46.8493 13.0674L47.0311 13.2584L50.2107 13.1466L51.099 14.1054L47.5654 14.2283L46.8754 18.1638L45.987 17.205Z" fill="#98B1BE"/>
<path d="M47.6219 19.4918L47.1099 18.4789L53.269 17.6835L53.8594 18.8524L49.5625 23.3344L49.0505 22.3215L52.5036 18.8254L52.4809 18.7843L47.6219 19.4918ZM49.6847 18.4933L51.0745 21.2525L50.3117 21.6343L48.922 18.8752L49.6847 18.4933Z" fill="#98B1BE"/>
<path d="M50.513 28.1747L50.3153 27.1342L55.1953 26.2006L55.0129 25.2436C54.9636 24.9873 54.8861 24.7771 54.7752 24.6313C54.6701 24.4823 54.5369 24.3795 54.3695 24.3261C54.2113 24.2753 54.0308 24.2675 53.822 24.3059C53.6192 24.341 53.454 24.4167 53.3291 24.5238C53.2042 24.6309 53.1228 24.7753 53.0818 24.9512C53.044 25.1329 53.0465 25.3461 53.0958 25.6025L53.3646 26.9945L52.497 27.1583L52.2013 25.6201C52.1175 25.1759 52.1202 24.7913 52.2061 24.4605C52.292 24.1296 52.4586 23.8617 52.7025 23.6507C52.9405 23.4429 53.2474 23.3045 53.614 23.2328C53.9806 23.1611 54.3176 23.1747 54.6223 23.2827C54.9296 23.3816 55.1864 23.5696 55.3986 23.8435C55.6108 24.1174 55.7601 24.4719 55.8407 24.9102L56.2541 27.0655L50.513 28.1747ZM52.5494 24.7081L52.769 25.8438L49.8915 24.9463L49.6649 23.7839L52.5494 24.7081Z" fill="#98B1BE"/>
<path d="M12.4888 40.1671L7.48532 42.8562L6.99151 41.9458L11.2424 39.6629L10.0401 37.4371L5.78924 39.72L5.29542 38.8096L10.2989 36.1204L12.4888 40.1671Z" fill="#98B1BE"/>
<path d="M14.6351 46.7776C14.1964 47.2022 13.7387 47.4893 13.2659 47.6207C12.7967 47.7577 12.3357 47.7634 11.8885 47.6342C11.4449 47.5106 11.0513 47.2602 10.7002 46.8958C10.3492 46.5313 10.1165 46.1221 10.0111 45.6702C9.9002 45.2219 9.92008 44.7601 10.0743 44.2906C10.2285 43.821 10.5205 43.373 10.9556 42.9428C11.3944 42.5183 11.8521 42.2312 12.3249 42.0998C12.7977 41.9683 13.255 41.9571 13.7022 42.0863C14.1458 42.2099 14.5395 42.4603 14.8905 42.8247C15.2415 43.1892 15.4743 43.5984 15.5852 44.0467C15.696 44.4951 15.6761 44.9568 15.5219 45.4264C15.3658 45.905 15.0739 46.3531 14.6351 46.7776ZM13.9061 46.0189C14.215 45.7174 14.4297 45.4136 14.5445 45.1112C14.6648 44.8053 14.6925 44.5118 14.6365 44.2328C14.5806 43.9538 14.4392 43.6984 14.225 43.4742C14.0108 43.2499 13.7615 43.1034 13.4862 43.0367C13.2109 42.97 12.9223 42.9906 12.6112 43.0966C12.3 43.2026 11.9918 43.4092 11.6828 43.7107C11.3738 44.0122 11.1592 44.3159 11.0444 44.6184C10.9241 44.9243 10.8964 45.2178 10.9523 45.4968C11.0083 45.7758 11.1496 46.0312 11.3639 46.2554C11.5781 46.4796 11.8273 46.6261 12.1062 46.6984C12.3851 46.7707 12.6702 46.7445 12.9813 46.6385C13.2924 46.5325 13.5971 46.3204 13.9061 46.0189Z" fill="#98B1BE"/>
<path d="M13.5682 51.2852L14.6519 49.3503L14.9861 49.5444C15.1477 49.519 15.3224 49.4536 15.5102 49.3484C15.6979 49.2432 15.9042 49.0708 16.1311 48.8222C16.3562 48.5826 16.6074 48.2396 16.8811 47.8112L18.1887 45.7792L21.3772 47.6148L19.0093 51.8581L19.5639 52.178L18.4857 54.1094L17.6222 53.6106L18.2919 52.415L15.1014 50.5885L14.4298 51.7931L13.5682 51.2852ZM16.0356 50.1517L18.1403 51.3628L20.0905 47.877L18.5839 47.0051L17.7536 48.312C17.5443 48.636 17.3425 48.9236 17.141 49.1637C16.9451 49.4002 16.7512 49.604 16.5703 49.7678C16.3803 49.9296 16.1979 50.0551 16.0356 50.1517Z" fill="#98B1BE"/>
<path d="M20.9422 55.1095L21.4126 52.9319L21.7875 53.021C21.9351 52.9496 22.0811 52.8397 22.2329 52.6789C22.3793 52.5215 22.5262 52.2929 22.6737 51.9931C22.8212 51.6933 22.9603 51.2965 23.0966 50.7991L23.7515 48.4632L27.3198 49.2901L26.2923 54.0635L26.9118 54.2077L26.4469 56.3818L25.4797 56.1546L25.7676 54.8113L22.2138 53.9828L21.924 55.3352L20.9422 55.1095ZM22.965 53.2861L25.316 53.8343L26.1573 49.9133L24.471 49.5195L24.0566 51.0152C23.9503 51.3908 23.8389 51.7226 23.7224 52.0103C23.6058 52.2981 23.4823 52.5509 23.3537 52.7599C23.2287 52.9743 23.093 53.1484 22.965 53.2861Z" fill="#98B1BE"/>
<path d="M28.9007 55.1311L28.6564 49.3817L32.3697 49.2803L32.4047 50.1635L29.7258 50.2361L29.7919 51.7923L32.2747 51.7279L32.3115 52.602L29.8287 52.6664L29.8965 54.2373L32.5989 54.1653L32.6357 55.0394L28.9007 55.1311Z" fill="#98B1BE"/>
<path d="M34.9083 54.7088L33.3488 49.1533L35.4071 48.5986C35.829 48.4842 36.2065 48.4693 36.5361 48.5482C36.8694 48.6327 37.1494 48.7909 37.3708 49.0263C37.5958 49.2672 37.7587 49.556 37.8557 49.9109C37.9528 50.2657 37.9684 50.6022 37.9024 50.9204C37.8329 51.233 37.6746 51.5161 37.4315 51.7516C37.1884 51.9871 36.8531 52.1637 36.4313 52.2781L35.0657 52.6463L34.8344 51.8188L36.069 51.4877C36.3144 51.424 36.5057 51.3244 36.6374 51.1923C36.7691 51.0602 36.8519 50.9123 36.8877 50.7396C36.9235 50.5669 36.9104 50.3784 36.8556 50.1853C36.8009 49.9922 36.7169 49.8258 36.5963 49.6987C36.4811 49.5682 36.3275 49.486 36.1464 49.4452C35.9652 49.4045 35.7492 49.4177 35.4983 49.4849L34.5891 49.7322L35.9101 54.4491L34.9083 54.7088Z" fill="#98B1BE"/>
<path d="M40.9199 53.0079L40.7838 49.4806L37.8638 48.1098L38.9215 47.4202L41.3737 48.7381L43.2959 47.4914L43.0776 44.7259L44.1299 44.0398L44.2177 47.2517L47.3647 48.8306L46.3452 49.4955L43.9489 48.2283L41.7696 49.6407L41.932 52.3556L40.9199 53.0079ZM41.42 45.7942L44.5672 50.6415L43.7193 51.188L40.572 46.3407L41.42 45.7942Z" fill="#98B1BE"/>
<path d="M51.054 44.3898L47.9304 44.2529L47.6117 44.6473L49.5609 46.2421L48.9161 47.0437L44.4495 43.3933L45.0944 42.5917L46.93 44.0943L47.0949 43.8935L46.5252 40.811L47.3185 39.8193L47.9509 43.2394L51.8474 43.3981L51.054 44.3898Z" fill="#98B1BE"/>
<path d="M53.1704 40.9462L52.729 41.9553L48.2958 37.7321L48.8038 36.5619L54.8404 37.0976L54.3989 38.1067L49.6286 37.6134L49.6102 37.6568L53.1704 40.9462ZM51.1347 39.9743L52.3372 37.2145L53.1003 37.5575L51.8978 40.3173L51.1347 39.9743Z" fill="#98B1BE"/>
</svg>
