<svg width="18" height="19" viewBox="0 0 18 19" fill="none" xmlns="http://www.w3.org/2000/svg">
<path d="M9 0.775665C4.16177 0.775665 0.219512 4.71792 0.219512 9.55615C0.219512 14.3944 4.16177 18.3366 9 18.3366C13.8382 18.3366 17.7805 14.3944 17.7805 9.55615C17.7805 4.71792 13.8382 0.775665 9 0.775665ZM14.5012 4.16242C14.4654 4.18034 14.4475 4.19826 14.4116 4.19826C13.8024 4.50289 13.1394 4.75376 12.4405 4.95088C12.0821 3.94739 11.5983 3.01558 11.0249 2.20921C11.007 2.17337 10.9711 2.13754 10.9353 2.1017C12.3151 2.46008 13.5336 3.19478 14.5012 4.16242ZM12.1538 10.0937C12.118 11.0614 11.9746 11.9932 11.7237 12.8892C10.8457 12.71 9.93181 12.6204 9 12.6204C8.06819 12.6204 7.13639 12.71 6.27626 12.8892C6.04331 12.0111 5.88203 11.0793 5.84619 10.0937H12.1538ZM5.84619 9.01857C5.88203 8.05093 6.02539 7.11912 6.27626 6.22315C7.15431 6.40234 8.06819 6.49194 9 6.49194C9.93181 6.49194 10.8636 6.40234 11.7237 6.22315C11.9567 7.1012 12.118 8.03301 12.1538 9.01857H5.84619ZM8.58786 1.86875C8.73121 1.86875 8.85664 1.85083 9 1.85083C9.14335 1.85083 9.26879 1.85083 9.41215 1.86875C9.44798 1.90458 9.4659 1.9225 9.50174 1.95834C10.2902 2.87223 10.9532 3.96531 11.4191 5.21967C10.6486 5.36302 9.84221 5.45262 9.01792 5.45262C8.19363 5.45262 7.38726 5.38094 6.61672 5.21967C7.08263 3.98323 7.72773 2.87223 8.5341 1.95834C8.5341 1.9225 8.56994 1.90458 8.58786 1.86875ZM7.04679 2.1017C7.02887 2.13754 6.99303 2.17337 6.97511 2.20921C6.40169 3.0335 5.93579 3.96531 5.55948 4.9688C4.86063 4.77168 4.19761 4.52081 3.58835 4.21618C3.55251 4.19826 3.53459 4.18034 3.51667 4.18034C4.4664 3.19478 5.68492 2.46008 7.04679 2.1017ZM2.7999 5.00463C2.81782 5.02255 2.85366 5.04047 2.87158 5.04047C3.60627 5.4347 4.39472 5.73933 5.23693 5.9902C4.96814 6.95785 4.82479 7.97925 4.77103 9.03649H1.31259C1.42011 7.53126 1.95769 6.13355 2.7999 5.00463ZM2.7999 14.1077C1.95769 12.9608 1.42011 11.581 1.31259 10.0758H4.77103C4.80687 11.1331 4.96814 12.1545 5.23693 13.1221C4.39472 13.3551 3.60627 13.6776 2.87158 14.0718C2.85366 14.0898 2.81782 14.1077 2.7999 14.1077ZM3.49876 14.9499C3.53459 14.932 3.55251 14.914 3.57043 14.914C4.17969 14.6094 4.84271 14.3585 5.54156 14.1614C5.89995 15.1649 6.38377 16.0967 6.95719 16.921C6.97511 16.9569 7.01095 16.9927 7.04679 17.0285C5.68492 16.6522 4.4664 15.9175 3.49876 14.9499ZM9.41215 17.2436C9.26879 17.2436 9.14335 17.2615 9 17.2615C8.85664 17.2615 8.73121 17.2615 8.58786 17.2436C8.55202 17.2077 8.5341 17.1898 8.49826 17.154C7.70981 16.2401 7.04679 15.147 6.58089 13.8926C7.35142 13.7493 8.15779 13.6597 8.98208 13.6597C9.80637 13.6597 10.6127 13.7314 11.3833 13.8926C10.9174 15.1291 10.2723 16.2401 9.4659 17.154C9.4659 17.1898 9.43007 17.2077 9.41215 17.2436ZM10.9532 17.0106C10.989 16.9748 11.007 16.9389 11.0428 16.9031C11.6162 16.0788 12.0821 15.147 12.4584 14.1614C13.1573 14.3585 13.8203 14.6094 14.4296 14.914C14.4654 14.932 14.4833 14.9499 14.5192 14.9499C13.5336 15.9175 12.3151 16.6522 10.9532 17.0106ZM15.2001 14.1077C15.1822 14.0898 15.1463 14.0718 15.1284 14.0718C14.3937 13.6776 13.6053 13.373 12.7631 13.1221C13.0319 12.1545 13.1752 11.1331 13.229 10.0758H16.6874C16.5799 11.581 16.0423 12.9788 15.2001 14.1077ZM13.229 9.01857C13.1931 7.96133 13.0319 6.93993 12.7631 5.97228C13.6053 5.73933 14.3937 5.41678 15.1284 5.02255C15.1463 5.00463 15.1822 4.98671 15.2001 4.98671C16.0423 6.13355 16.5799 7.51334 16.6695 9.01857H13.229Z" fill="white"/>
<path fill-rule="evenodd" clip-rule="evenodd" d="M0 9.55615C0 4.59669 4.04054 0.556152 9 0.556152C13.9595 0.556152 18 4.59669 18 9.55615C18 14.5156 13.9595 18.5562 9 18.5562C4.04054 18.5562 0 14.5156 0 9.55615ZM9 0.995177C4.283 0.995177 0.439024 4.83916 0.439024 9.55615C0.439024 14.2731 4.283 18.1171 9 18.1171C13.717 18.1171 17.561 14.2731 17.561 9.55615C17.561 4.83916 13.717 0.995177 9 0.995177ZM9.31189 2.07892C9.21222 2.07049 9.1166 2.07034 9 2.07034C8.93673 2.07034 8.8766 2.07427 8.80853 2.07881L8.80587 2.07899C8.77715 2.0809 8.74695 2.08292 8.71546 2.08458L8.69869 2.10358C7.96484 2.93528 7.36533 3.93738 6.91651 5.05459C7.59274 5.17744 8.29716 5.23311 9.01792 5.23311C9.73448 5.23311 10.4387 5.16406 11.1185 5.04995C10.6698 3.92599 10.0582 2.9407 9.34078 2.10782L9.31189 2.07892ZM9.00503 1.63131C9.14531 1.63131 9.28241 1.63131 9.43937 1.65093L9.51411 1.66027L9.66267 1.80883L9.66795 1.81495C10.4732 2.74835 11.1498 3.86404 11.6249 5.14324L11.7157 5.38776L11.4593 5.43548C10.678 5.58083 9.858 5.67213 9.01792 5.67213C8.18111 5.67213 7.35942 5.59938 6.57176 5.43452L6.32096 5.38203L6.41131 5.14226C6.87915 3.90069 7.52616 2.77912 8.3372 1.84991C8.35406 1.81106 8.37579 1.78482 8.38562 1.77302C8.3896 1.76825 8.39381 1.7634 8.39619 1.76066L8.39686 1.75989L8.45219 1.64923H8.58786C8.65112 1.64923 8.71125 1.6453 8.77933 1.64076L8.78199 1.64058C8.84763 1.63621 8.92098 1.63131 9 1.63131L9.00503 1.63131ZM10.2096 1.6864L10.9905 1.88924C12.4107 2.25813 13.6631 3.01387 14.6565 4.00721L14.8718 4.22256L14.5994 4.35876C14.5968 4.36008 14.5938 4.36172 14.5869 4.36572L14.5852 4.36669C14.5792 4.37014 14.5672 4.3771 14.5546 4.3834C14.5333 4.39404 14.5075 4.40445 14.4769 4.41098C13.8631 4.71506 13.1982 4.96524 12.5001 5.16215L12.3028 5.21781L12.2338 5.02471C11.8818 4.03926 11.4072 3.12556 10.846 2.33643L10.8361 2.32258L10.83 2.31029C10.83 2.31029 10.8266 2.30566 10.8216 2.30001C10.8116 2.28859 10.7991 2.27594 10.7801 2.25692L10.2096 1.6864ZM14.1169 4.09743C13.3653 3.40353 12.4751 2.85034 11.486 2.49986C11.9134 3.16612 12.2822 3.90216 12.576 4.68287C13.1171 4.52071 13.6336 4.32545 14.1169 4.09743ZM7.46008 1.76595L7.24313 2.19987C7.23242 2.22127 7.22072 2.23943 7.21144 2.25294C7.20267 2.26569 7.19359 2.27779 7.18739 2.28606L7.18656 2.28716C7.17933 2.29681 7.17539 2.30211 7.17224 2.30669L7.17047 2.30934L7.16436 2.32156L7.15531 2.33457C6.59422 3.14114 6.13621 4.05603 5.76502 5.04587L5.69415 5.23486L5.49989 5.18007C4.78928 4.97963 4.11316 4.72401 3.49018 4.41252C3.48141 4.40813 3.47345 4.40384 3.46638 4.39986H3.0003L3.35861 4.02803C4.33536 3.01441 5.5889 2.25837 6.99092 1.88941L7.46008 1.76595ZM3.88975 4.11847C4.37189 4.34553 4.88705 4.54001 5.42664 4.70159C5.73278 3.91616 6.09571 3.17369 6.52466 2.49226C5.53317 2.84406 4.63579 3.40501 3.88975 4.11847ZM2.92666 4.82096L2.77569 4.66999L2.62396 4.87337C1.7568 6.03573 1.20416 7.47351 1.09364 9.02085L1.07684 9.256H4.97966L4.99026 9.04764C5.04339 8.00271 5.18487 6.99779 5.44844 6.04895L5.50611 5.84134L5.2996 5.77982C4.46791 5.53208 3.69393 5.23262 2.97537 4.84705L2.92666 4.82096ZM15.1322 5.26902C14.4739 5.61429 13.7735 5.90332 13.0311 6.12378C13.2536 6.97988 13.3936 7.87556 13.4395 8.79906H16.4328C16.313 7.49433 15.8459 6.29226 15.1322 5.26902ZM15.0661 4.80158C15.0862 4.79151 15.1379 4.7672 15.2001 4.7672H15.3112L15.377 4.85678C16.2427 6.03554 16.7963 7.45548 16.8886 9.00553L16.9025 9.23808H13.0168L13.0096 9.02601C12.9743 7.98629 12.8158 6.9821 12.5516 6.03103L12.4927 5.81929L12.7045 5.76071C13.5228 5.53438 14.2895 5.22176 15.0048 4.83976C15.0263 4.82323 15.048 4.81062 15.0661 4.80158ZM2.86668 5.28627C2.15464 6.29433 1.68637 7.50943 1.55202 8.81698H4.56358C4.62101 7.89516 4.74829 6.99802 4.97003 6.13836C4.23003 5.90779 3.5284 5.63212 2.86668 5.28627ZM11.8826 5.96583L11.9359 6.16686C12.1723 7.05788 12.3366 8.00603 12.3732 9.0106L12.3814 9.23808H5.6184L5.62683 9.01045C5.66328 8.02623 5.80916 7.07724 6.06487 6.16396L6.11996 5.96722L6.32015 6.00807C7.18306 6.18418 8.0822 6.27243 9 6.27243C9.91826 6.27243 10.835 6.18409 11.679 6.00825L11.8826 5.96583ZM6.43478 6.47786C6.23981 7.22573 6.12014 7.99936 6.07604 8.79906H11.9239C11.8781 7.98941 11.7474 7.21619 11.563 6.47895C10.7451 6.63417 9.87189 6.71145 9 6.71145C8.12542 6.71145 7.26554 6.6337 6.43478 6.47786ZM1.07684 9.8563H4.98323L4.99042 10.0684C5.02566 11.1081 5.18425 12.1123 5.44844 13.0634L5.50725 13.2751L5.29545 13.3337C4.47717 13.56 3.71048 13.8726 2.99522 14.2546C2.97367 14.2712 2.95199 14.2838 2.93391 14.2928C2.91378 14.3029 2.86214 14.3272 2.7999 14.3272H2.68876L2.62297 14.2376C1.75729 13.0588 1.20423 11.6397 1.09364 10.0915L1.07684 9.8563ZM1.55204 10.2953C1.68635 11.6007 2.15443 12.8027 2.86776 13.8254C3.52609 13.4801 4.22651 13.1911 4.96891 12.9706C4.74641 12.1145 4.6064 11.2188 4.56051 10.2953H1.55204ZM13.0203 9.8563H16.9232L16.9064 10.0915C16.7958 11.6388 16.2432 13.0766 15.376 14.2389L15.2243 14.4423L15.0733 14.2913L15.0246 14.2653C14.3061 13.8797 13.5321 13.5802 12.7004 13.3325L12.4939 13.271L12.5516 13.0634C12.8151 12.1145 12.9566 11.1096 13.0097 10.0647L13.0203 9.8563ZM13.4364 10.2953C13.379 11.2171 13.2517 12.1143 13.03 12.974C13.77 13.2045 14.4716 13.4802 15.1333 13.826C15.8454 12.818 16.3136 11.6029 16.448 10.2953H13.4364ZM5.61855 9.87422H12.3816L12.3732 10.1019C12.3367 11.0861 12.1908 12.0351 11.9351 12.9483L11.88 13.1451L11.6798 13.1042C10.8169 12.9281 9.91779 12.8399 9 12.8399C8.08174 12.8399 7.16503 12.9282 6.32103 13.1041L6.11742 13.1465L6.06408 12.9454C5.82769 12.0544 5.66335 11.1063 5.62682 10.1017L5.61855 9.87422ZM6.07613 10.3132C6.12193 11.1229 6.25262 11.8961 6.43701 12.6334C7.2549 12.4781 8.12811 12.4009 9 12.4009C9.87458 12.4009 10.7345 12.4786 11.5652 12.6344C11.7602 11.8866 11.8799 11.1129 11.924 10.3132H6.07613ZM6.88149 14.0623C7.33025 15.1863 7.94181 16.1716 8.65922 17.0045L8.68811 17.0334C8.78778 17.0418 8.8834 17.042 9 17.042C9.06327 17.042 9.1234 17.038 9.19147 17.0335L9.19413 17.0333C9.22285 17.0314 9.25304 17.0294 9.28454 17.0277L9.3013 17.0087C10.0352 16.177 10.6347 15.1749 11.0835 14.0577C10.4073 13.9349 9.70284 13.8792 8.98208 13.8792C8.26552 13.8792 7.56132 13.9482 6.88149 14.0623ZM6.54074 13.6768C7.32202 13.5315 8.142 13.4402 8.98208 13.4402C9.81889 13.4402 10.6406 13.5129 11.4282 13.6778L11.679 13.7303L11.5887 13.97C11.1208 15.2116 10.4738 16.3332 9.6628 17.2624C9.64594 17.3012 9.62421 17.3275 9.61438 17.3393C9.6104 17.3441 9.60618 17.3489 9.6038 17.3516L9.60314 17.3524L9.54781 17.4631H9.41215C9.34888 17.4631 9.28875 17.467 9.22067 17.4715L9.21802 17.4717C9.15237 17.4761 9.07902 17.481 9 17.481H8.99498C8.8547 17.481 8.71759 17.481 8.56063 17.4614L8.48589 17.452L8.33733 17.3035L8.33205 17.2974C7.52677 16.364 6.85024 15.2483 6.37511 13.9691L6.28429 13.7245L6.54074 13.6768ZM5.67932 13.8945L5.74829 14.0876C6.10017 15.0729 6.57508 15.9873 7.13739 16.7957L7.14644 16.8087L7.15208 16.8199C7.15208 16.8199 7.15552 16.8246 7.16047 16.8302C7.17046 16.8416 7.18298 16.8543 7.20201 16.8733L7.79045 17.4618L6.98833 17.2401C5.58822 16.8532 4.33678 16.0983 3.34354 15.1051L3.12818 14.8897L3.40059 14.7535C3.40524 14.7512 3.40682 14.7502 3.41164 14.7472C3.41497 14.7452 3.41986 14.7421 3.42838 14.737C3.43599 14.7324 3.45255 14.7226 3.47314 14.7141C3.47969 14.7114 3.4873 14.7086 3.49586 14.7059C4.1123 14.3998 4.78032 14.1481 5.48197 13.9502L5.67932 13.8945ZM3.87708 15.0093C4.62714 15.7034 5.51534 16.2585 6.49425 16.62C6.06794 15.9454 5.69971 15.2097 5.40605 14.4294C4.86939 14.5903 4.35691 14.7837 3.87708 15.0093ZM12.3249 13.8957L12.518 13.9502C13.2286 14.1506 13.9048 14.4062 14.5277 14.7177C14.5368 14.7222 14.5449 14.7266 14.5516 14.7304H15.0561L14.673 15.1065C13.6628 16.0983 12.4113 16.8539 11.0091 17.2229L10.2239 17.4295L10.798 16.8554C10.8034 16.85 10.8083 16.844 10.8224 16.8251L10.8241 16.8229C10.8346 16.8088 10.8508 16.7872 10.8722 16.764C11.429 15.9606 11.8841 15.0503 12.2534 14.0831L12.3249 13.8957ZM11.4984 16.6119C12.4775 16.2614 13.3688 15.7082 14.1322 15.0136C13.6486 14.7856 13.1317 14.5904 12.5902 14.4283C12.2856 15.1972 11.9247 15.9338 11.4984 16.6119Z" fill="white"/>
</svg>
