<svg width="160" height="116" viewBox="0 0 160 116" fill="none" xmlns="http://www.w3.org/2000/svg">
<path d="M34.8276 56.1794C24.2529 56.1794 15.8046 53.7519 9.48276 48.8969C3.16092 43.9263 0 37.3373 0 29.13V27.2227C0 18.8999 3.10345 12.3109 9.31034 7.45591C15.6322 2.4853 24.1379 0 34.8276 0C45.5172 0 53.908 2.4275 60 7.28251C66.2069 12.1375 69.3103 18.7843 69.3103 27.2227V29.13C69.3103 37.3373 66.1494 43.9263 59.8276 48.8969C53.6207 53.7519 45.2874 56.1794 34.8276 56.1794ZM34.6552 39.1868C38.6782 39.1868 41.8391 38.3199 44.1379 36.5859C46.5517 34.7364 47.7586 32.2511 47.7586 29.13V27.2227C47.7586 24.1016 46.5517 21.6741 44.1379 19.9402C41.8391 18.0907 38.6782 17.1659 34.6552 17.1659C30.6322 17.1659 27.4713 18.0907 25.1724 19.9402C22.8736 21.6741 21.7241 24.1016 21.7241 27.2227V29.13C21.7241 32.1355 22.8736 34.563 25.1724 36.4126C27.5862 38.2621 30.7471 39.1868 34.6552 39.1868ZM125.517 116C114.943 116 106.494 113.572 100.172 108.717C93.8506 103.747 90.6897 97.1579 90.6897 88.9507V87.0433C90.6897 78.7205 93.7931 72.1315 100 67.2765C106.322 62.3059 114.828 59.8206 125.517 59.8206C136.207 59.8206 144.598 62.2481 150.69 67.1031C156.897 71.9581 160 78.6049 160 87.0433V88.9507C160 97.1579 156.839 103.747 150.517 108.717C144.31 113.572 135.977 116 125.517 116ZM125.345 99.0075C129.368 99.0075 132.529 98.1405 134.828 96.4066C137.241 94.557 138.448 92.0717 138.448 88.9507V87.0433C138.448 83.9223 137.241 81.4948 134.828 79.7608C132.529 77.9113 129.368 76.9865 125.345 76.9865C121.322 76.9865 118.161 77.9113 115.862 79.7608C113.563 81.4948 112.414 83.9223 112.414 87.0433V88.9507C112.414 91.9562 113.563 94.3837 115.862 96.2332C118.276 98.0827 121.437 99.0075 125.345 99.0075ZM117.414 1.21376H141.897V5.2018L42.4138 114.96H17.931V111.492L117.414 1.21376Z" fill="white"/>
</svg>
