<svg width="48" height="48" viewBox="0 0 48 48" fill="none" xmlns="http://www.w3.org/2000/svg">
<circle cx="24" cy="24" r="24" fill="#FF9800"/>
<g clip-path="url(#clip0)">
<path d="M19.1473 24.5871C18.7387 25.3904 19.2027 25.7744 20.2613 26.4304C21.1613 26.9864 22.4047 27.1897 23.2033 27.2711C22.876 27.5857 24.376 26.1431 20.056 30.2984C19.14 31.1764 20.6147 32.5851 21.53 31.7257L24.008 29.3357C24.9567 30.2484 25.866 31.1231 26.486 31.7291C27.402 32.5917 28.876 31.1951 27.97 30.3017C27.902 30.2371 24.612 27.0811 24.8127 27.2744C25.6213 27.1931 26.846 26.9777 27.7353 26.4337L27.7347 26.4331C28.7933 25.7737 29.2573 25.3904 28.8547 24.5871C28.6113 24.1311 27.9553 23.7497 27.082 24.4091C27.082 24.4091 25.9027 25.3124 24.0007 25.3124C22.098 25.3124 20.9193 24.4091 20.9193 24.4091C20.0467 23.7464 19.388 24.1311 19.1473 24.5871Z" fill="white"/>
<path d="M23.9998 24.0947C26.3184 24.0947 28.2118 22.2827 28.2118 20.052C28.2118 17.812 26.3184 16 23.9998 16C21.6804 16 19.7871 17.812 19.7871 20.052C19.7871 22.2827 21.6804 24.0947 23.9998 24.0947ZM23.9998 18.0527C25.1391 18.0527 26.0684 18.9467 26.0684 20.052C26.0684 21.148 25.1391 22.042 23.9998 22.042C22.8604 22.042 21.9311 21.148 21.9311 20.052C21.9304 18.946 22.8598 18.0527 23.9998 18.0527Z" fill="white"/>
</g>
<defs>
<clipPath id="clip0">
<rect width="16" height="16" fill="white" transform="translate(16 16)"/>
</clipPath>
</defs>
</svg>
