<svg width="157" height="107" viewBox="0 0 157 107" fill="none" xmlns="http://www.w3.org/2000/svg">
<g clip-path="url(#clip0)">
<path d="M134.787 44.677C136.951 46.9382 139.365 47.299 142.03 45.7594C140.912 43.974 140.646 42.032 140.944 39.9863H135.753C135.983 41.784 135.921 43.4579 134.787 44.677Z" fill="#FFB8B8"/>
<path d="M143.358 103.851L146.134 102.408L147.341 87.1332V79.0748L140.943 78.9546L142.754 87.0129L143.358 103.851Z" fill="#FFB8B8"/>
<path d="M135.31 103.851L132.533 102.408L131.326 87.1332V79.0748L137.724 78.9546L135.913 87.0129L135.31 103.851Z" fill="#FFB8B8"/>
<path d="M131.044 80.7588L137.804 80.1575L138.891 74.0235L140.219 80.0372L147.582 79.5561C147.743 76.6337 147.335 73.6259 146.375 70.5356L130.199 70.1748L131.044 80.7588Z" fill="#2F2E41"/>
<path d="M124.017 57.7222L115.886 51.4835C115.801 51.4188 115.708 51.3657 115.61 51.3257L114.428 50.8466C113.478 50.4618 111.67 49.1818 112.552 47.8639C113.263 46.8013 115.985 48.7048 116.319 49.41C116.425 49.6319 116.599 49.8148 116.815 49.9326L118.468 50.8348C118.508 50.8567 118.549 50.8763 118.592 50.8935L124.883 53.4342C125.058 53.5047 125.247 53.5326 125.434 53.5157C125.621 53.4989 125.802 53.4377 125.961 53.3373L127.102 52.6167C127.264 52.5142 127.449 52.4526 127.641 52.4373C127.832 52.422 128.025 52.4534 128.201 52.5289C128.378 52.6043 128.533 52.7215 128.654 52.8703C128.775 53.0191 128.858 53.1951 128.895 53.3829L129.272 55.2785C129.327 55.5515 129.282 55.8347 129.147 56.0782C129.012 56.3216 128.794 56.5095 128.533 56.6086L125.16 57.8897C124.971 57.9614 124.767 57.9837 124.567 57.9544C124.367 57.9251 124.177 57.8451 124.017 57.7222Z" fill="#FFB8B8"/>
<path d="M125.529 53.1773C127.781 52.5758 127.544 55.7095 129.262 57.2504L132.639 54.594L130.683 45.1582C130.158 45.3076 129.675 45.5766 129.273 45.9438C128.87 46.3111 128.559 46.7666 128.364 47.2743L125.529 53.1773Z" fill="#1482D1"/>
<path d="M129.717 70.7759H146.738C143.983 63.3799 144.251 55.7731 146.597 48.0214C146.636 47.8927 146.629 47.7544 146.577 47.6303C146.525 47.5061 146.431 47.4039 146.312 47.3414L141.426 44.797C139.509 46.0403 137.447 45.6582 135.27 43.9551L129.958 45.3984C131.404 54.0506 131.445 62.5252 129.717 70.7759Z" fill="#1482D1"/>
<path d="M133.971 106.675L126.878 106.975C126.569 106.988 126.266 106.887 126.027 106.691C125.789 106.495 125.632 106.218 125.586 105.913C125.54 105.606 125.611 105.292 125.785 105.033C125.959 104.775 126.223 104.591 126.526 104.517L127.73 104.223L132.458 101.492C133.159 102.215 134.124 102.826 135.303 103.347L135.317 105.267C135.319 105.629 135.18 105.979 134.929 106.242C134.678 106.505 134.335 106.66 133.971 106.675Z" fill="#2F2E41"/>
<path d="M156.929 107H0.0566406V106.614H157L156.929 107Z" fill="#3F3D56"/>
<path d="M144.635 106.569L151.728 106.868C152.037 106.881 152.34 106.78 152.578 106.584C152.817 106.388 152.974 106.111 153.02 105.806C153.066 105.499 152.995 105.185 152.821 104.927C152.647 104.668 152.383 104.484 152.079 104.41L150.876 104.116L146.148 101.385C145.447 102.108 144.482 102.719 143.303 103.24L143.289 105.16C143.286 105.522 143.425 105.872 143.676 106.135C143.927 106.398 144.271 106.553 144.635 106.569Z" fill="#2F2E41"/>
<path d="M138 42C141.314 42 144 39.5376 144 36.5C144 33.4624 141.314 31 138 31C134.686 31 132 33.4624 132 36.5C132 39.5376 134.686 42 138 42Z" fill="#FFB8B8"/>
<path d="M143.84 69.5731L142.564 72.0455C142.452 72.2636 142.387 72.5031 142.374 72.7481C142.36 72.9931 142.4 73.238 142.488 73.4669C142.577 73.6958 142.713 73.9034 142.888 74.076C143.063 74.2486 143.273 74.3824 143.503 74.4685C143.747 74.5597 144.009 74.5953 144.269 74.5726C144.528 74.5499 144.779 74.4696 145.004 74.3375C145.228 74.2055 145.42 74.025 145.565 73.8094C145.71 73.5938 145.805 73.3485 145.843 73.0915L146.376 69.4528L148.307 60.3121L148.186 55.7417H144.323C145.641 59.141 144.987 64.1551 143.84 69.5731Z" fill="#FFB8B8"/>
<path d="M143.719 56.2229H148.91L148.156 50.5511C148.054 49.7819 147.76 49.0505 147.301 48.4235C146.842 47.7966 146.233 47.2941 145.53 46.9619L143.719 56.2229Z" fill="#1482D1"/>
<path d="M143.938 33.4251C144.055 32.6185 144.006 31.7955 143.795 31.0098C143.584 30.2241 143.215 29.4933 142.714 28.865C141.72 27.646 140.053 26.6482 137.289 27.1189C131.257 28.1459 129.518 33.3493 130.109 34.6579C130.7 35.9665 132.511 39 132.511 39C132.511 39 131.182 35.9972 132.624 35.3859C134.067 34.7747 139.651 32.3668 141.599 33.4516C142.151 33.7386 142.62 34.172 142.957 34.7077C143.294 35.2433 143.489 35.8621 143.521 36.5009L143.938 33.4251Z" fill="#2F2E41"/>
<path d="M75.794 20.1643L74.2409 20.9495C72.4519 17.4399 70.0819 14.2559 67.2304 11.5314C53.2272 -1.88138 30.8823 -1.44287 17.4201 12.5089C3.95779 26.4606 4.39793 48.7232 18.4012 62.136C21.0664 64.6939 24.1198 66.8172 27.4488 68.4276L26.689 69.9889C21.4124 67.4362 16.8211 63.6692 13.2946 58.9991C9.76806 54.329 7.4075 48.8899 6.40792 43.1312C5.40835 37.3725 5.79847 31.4595 7.54604 25.8807C9.2936 20.3019 12.3485 15.2174 16.4582 11.0474C20.568 6.87747 25.6146 3.74166 31.1812 1.8991C36.7479 0.0565358 42.6746 -0.439884 48.4719 0.450852C54.2691 1.34159 59.7704 3.59391 64.5213 7.02173C69.2721 10.4496 73.1361 14.9545 75.794 20.1643Z" fill="#C4C4C4"/>
<path d="M23.2482 52.447C20.9637 54.8146 19.7168 57.9893 19.7817 61.2729C19.8466 64.5564 21.2181 67.6798 23.5944 69.9559C25.9707 72.232 29.1572 73.4743 32.4529 73.4097C35.7485 73.345 38.8834 71.9786 41.1679 69.611L43.3076 67.3935L25.3879 50.2295L23.2482 52.447Z" fill="#C4C4C4"/>
<path d="M24.1861 48.9696C23.6776 49.4978 23.4001 50.2054 23.4146 50.9371C23.4291 51.6689 23.7343 52.365 24.2633 52.8729L40.6992 68.6156C41.2289 69.123 41.9393 69.4 42.674 69.3856C43.4087 69.3711 44.1075 69.0665 44.6168 68.5387C45.1261 68.0109 45.4041 67.3032 45.3896 66.5712C45.3752 65.8392 45.0694 65.1429 44.5397 64.6355L28.1038 48.8927C27.5736 48.3861 26.8634 48.1097 26.129 48.1241C25.3945 48.1385 24.6958 48.4426 24.1861 48.9696Z" fill="#535461"/>
<path d="M73.4822 36.1201L75.6219 33.9026C77.9064 31.535 79.1533 28.3602 79.0884 25.0767C79.0235 21.7931 77.652 18.6698 75.2757 16.3937C74.0991 15.2667 72.7112 14.3816 71.1913 13.789C69.6713 13.1964 68.0491 12.9079 66.4173 12.9399C63.1216 13.0046 59.9867 14.371 57.7022 16.7385L55.5625 18.9561L73.4822 36.1201Z" fill="#C4C4C4"/>
<path d="M54.2525 17.8109C53.744 18.3391 53.4665 19.0467 53.481 19.7784C53.4955 20.5102 53.8007 21.2063 54.3297 21.7142L70.7656 37.457C71.2954 37.9638 72.0056 38.2402 72.7399 38.2255C73.4743 38.2109 74.1728 37.9063 74.6818 37.3787C75.1909 36.8512 75.4688 36.1438 75.4546 35.4121C75.4404 34.6805 75.1352 33.9844 74.6061 33.4768L58.1702 17.734C57.64 17.2274 56.9298 16.951 56.1954 16.9654C55.4609 16.9798 54.7622 17.2839 54.2525 17.8109Z" fill="#535461"/>
<path d="M61.1875 54.192V52.9129C61.1875 52.9129 66.7896 49.7734 71.3413 52.9129V54.0757L61.1875 54.192Z" fill="#535461"/>
<path d="M112.189 54.192V52.9129C112.189 52.9129 117.792 49.7734 122.343 52.9129V54.0757L112.189 54.192Z" fill="#535461"/>
<path d="M77.9924 54.0757H72.507C72.507 54.0757 71.1065 52.4478 66.4381 52.5641C61.7697 52.6803 60.836 54.0757 60.836 54.0757C60.836 54.0757 56.226 57.1571 55.1756 60.9944C55.1756 60.9944 49.5151 77.9132 49.3984 91.1692C49.2817 104.425 54.417 106.286 57.1013 106.635C59.7856 106.983 64.5707 106.518 69.2391 94.7739L71.2232 87.9133C71.2232 87.9133 71.5733 83.8435 75.7749 86.4017C79.9765 88.9599 83.7112 85.0063 83.7112 85.0063H99.467C99.467 85.0063 104.719 88.2622 109.504 85.704C109.504 85.704 111.371 83.2621 113.122 91.518C113.122 91.518 118.491 108.495 126.777 106.751C135.064 105.007 134.13 90.8204 134.13 90.8204C134.13 90.8204 133.021 69.134 128.469 61.4595C128.469 61.4595 124.093 53.4943 121.175 53.1455C121.175 53.1455 114.873 51.9827 112.422 53.0292L111.021 54.192L77.9924 54.0757Z" fill="#C4C4C4"/>
<path d="M65.271 75.5878C70.8787 75.5878 75.4247 71.0585 75.4247 65.4714C75.4247 59.8843 70.8787 55.355 65.271 55.355C59.6632 55.355 55.1172 59.8843 55.1172 65.4714C55.1172 71.0585 59.6632 75.5878 65.271 75.5878Z" fill="#535461"/>
<path d="M118.257 75.5878C123.865 75.5878 128.411 71.0585 128.411 65.4714C128.411 59.8843 123.865 55.355 118.257 55.355C112.65 55.355 108.104 59.8843 108.104 65.4714C108.104 71.0585 112.65 75.5878 118.257 75.5878Z" fill="#535461"/>
<path d="M67.0393 63.2154L65.6855 64.4085C65.5708 64.509 65.4233 64.5645 65.2706 64.5645C65.1179 64.5645 64.9703 64.509 64.8557 64.4085L63.4995 63.2154C63.4332 63.1572 63.38 63.0857 63.3434 63.0055C63.3068 62.9253 63.2876 62.8384 63.2871 62.7503V59.4677C63.2874 59.302 63.3537 59.1432 63.4714 59.0261C63.5892 58.909 63.7487 58.8433 63.915 58.8433H66.6285C66.7947 58.843 66.9543 58.9084 67.072 59.0253C67.1898 59.1422 67.2561 59.3009 67.2564 59.4665V62.748C67.2557 62.8368 67.2359 62.9244 67.1985 63.005C67.1611 63.0856 67.1068 63.1574 67.0393 63.2154Z" fill="#C4C4C4"/>
<path d="M67.0393 67.7258L65.6855 66.534C65.5708 66.4334 65.4233 66.3779 65.2706 66.3779C65.1179 66.3779 64.9703 66.4334 64.8557 66.534L63.4995 67.727C63.4332 67.7852 63.38 67.8568 63.3434 67.9369C63.3068 68.0171 63.2876 68.1041 63.2871 68.1921V71.4713C63.2868 71.6369 63.3525 71.7958 63.4699 71.9131C63.5872 72.0304 63.7465 72.0965 63.9127 72.0968H66.6285C66.7947 72.0972 66.9543 72.0317 67.072 71.9148C67.1898 71.7979 67.2561 71.6392 67.2564 71.4736V68.1933C67.2557 68.1045 67.2359 68.0168 67.1985 67.9362C67.1611 67.8556 67.1068 67.7839 67.0393 67.7258Z" fill="#C4C4C4"/>
<path d="M63.0078 67.2363L64.2053 65.8851C64.3062 65.7709 64.3619 65.624 64.3619 65.4718C64.3619 65.3196 64.3062 65.1726 64.2053 65.0584L63.0078 63.7072C62.9494 63.6412 62.8776 63.5882 62.7971 63.5518C62.7167 63.5153 62.6294 63.4962 62.541 63.4956H59.2498C59.0835 63.4959 58.924 63.562 58.8065 63.6792C58.689 63.7965 58.623 63.9555 58.623 64.1212V66.8247C58.6227 66.9903 58.6885 67.1492 58.8058 67.2666C58.9231 67.3839 59.0824 67.45 59.2486 67.4503H62.5422C62.6305 67.4493 62.7177 67.4298 62.798 67.3929C62.8782 67.356 62.9498 67.3027 63.0078 67.2363Z" fill="#C4C4C4"/>
<path d="M67.5357 67.2361L66.3406 65.8837C66.2394 65.7696 66.1836 65.6226 66.1836 65.4703C66.1836 65.3181 66.2394 65.1711 66.3406 65.0569L67.538 63.7058C67.5965 63.6397 67.6683 63.5867 67.7487 63.5502C67.8292 63.5137 67.9165 63.4946 68.0049 63.4941H71.2961C71.4623 63.4938 71.6219 63.5593 71.7396 63.6762C71.8574 63.7931 71.9237 63.9518 71.924 64.1174V66.8233C71.9243 66.9889 71.8586 67.1478 71.7413 67.2651C71.6239 67.3825 71.4647 67.4485 71.2984 67.4489H68.006C67.917 67.4487 67.8289 67.4297 67.7478 67.393C67.6667 67.3563 67.5944 67.3028 67.5357 67.2361Z" fill="#C4C4C4"/>
<path d="M79.0422 83.8437C83.103 83.8437 86.3949 80.5639 86.3949 76.5181C86.3949 72.4722 83.103 69.1924 79.0422 69.1924C74.9814 69.1924 71.6895 72.4722 71.6895 76.5181C71.6895 80.5639 74.9814 83.8437 79.0422 83.8437Z" fill="#535461"/>
<path d="M104.486 83.8437C108.546 83.8437 111.838 80.5639 111.838 76.5181C111.838 72.4722 108.546 69.1924 104.486 69.1924C100.425 69.1924 97.1328 72.4722 97.1328 76.5181C97.1328 80.5639 100.425 83.8437 104.486 83.8437Z" fill="#535461"/>
<path d="M79.0444 81.4013C81.7516 81.4013 83.9462 79.2148 83.9462 76.5176C83.9462 73.8203 81.7516 71.6338 79.0444 71.6338C76.3372 71.6338 74.1426 73.8203 74.1426 76.5176C74.1426 79.2148 76.3372 81.4013 79.0444 81.4013Z" fill="#C4C4C4"/>
<path d="M79.0428 79.8903C78.3734 79.8903 77.719 79.6925 77.1624 79.322C76.6058 78.9514 76.172 78.4248 75.9158 77.8086C75.6597 77.1924 75.5926 76.5144 75.7232 75.8603C75.8538 75.2061 76.1762 74.6053 76.6495 74.1337C77.1229 73.6621 77.7259 73.3409 78.3825 73.2108C79.039 73.0807 79.7196 73.1475 80.338 73.4027C80.9565 73.6579 81.4851 74.0901 81.857 74.6447C82.2289 75.1992 82.4274 75.8512 82.4274 76.5182C82.4263 77.4122 82.0694 78.2693 81.4349 78.9015C80.8004 79.5337 79.9401 79.8893 79.0428 79.8903ZM79.0428 73.3786C78.4196 73.3786 77.8103 73.5627 77.2921 73.9077C76.7739 74.2527 76.37 74.743 76.1315 75.3167C75.893 75.8904 75.8306 76.5216 75.9522 77.1307C76.0738 77.7397 76.3739 78.2991 76.8146 78.7382C77.2553 79.1772 77.8168 79.4763 78.428 79.5974C79.0393 79.7186 79.6729 79.6564 80.2487 79.4187C80.8245 79.1811 81.3166 78.7787 81.6629 78.2624C82.0091 77.7461 82.194 77.1391 82.194 76.5182C82.193 75.6858 81.8607 74.8878 81.27 74.2992C80.6792 73.7106 79.8782 73.3795 79.0428 73.3786Z" fill="#535461"/>
<path d="M104.486 81.4013C107.193 81.4013 109.388 79.2148 109.388 76.5176C109.388 73.8203 107.193 71.6338 104.486 71.6338C101.779 71.6338 99.584 73.8203 99.584 76.5176C99.584 79.2148 101.779 81.4013 104.486 81.4013Z" fill="#C4C4C4"/>
<path d="M104.486 79.8903C103.817 79.8903 103.162 79.6925 102.606 79.322C102.049 78.9514 101.615 78.4248 101.359 77.8086C101.103 77.1924 101.036 76.5144 101.167 75.8603C101.297 75.2061 101.62 74.6053 102.093 74.1337C102.566 73.6621 103.169 73.3409 103.826 73.2108C104.482 73.0807 105.163 73.1475 105.781 73.4027C106.4 73.6579 106.928 74.0901 107.3 74.6447C107.672 75.1992 107.871 75.8512 107.871 76.5182C107.87 77.4122 107.513 78.2693 106.878 78.9015C106.244 79.5337 105.383 79.8893 104.486 79.8903ZM104.486 73.3786C103.863 73.3786 103.254 73.5627 102.735 73.9077C102.217 74.2527 101.813 74.743 101.575 75.3167C101.336 75.8904 101.274 76.5216 101.396 77.1307C101.517 77.7397 101.817 78.2991 102.258 78.7382C102.699 79.1772 103.26 79.4763 103.871 79.5974C104.483 79.7186 105.116 79.6564 105.692 79.4187C106.268 79.1811 106.76 78.7787 107.106 78.2624C107.452 77.7461 107.637 77.1391 107.637 76.5182C107.636 75.6858 107.304 74.8878 106.713 74.2992C106.123 73.7106 105.322 73.3795 104.486 73.3786Z" fill="#535461"/>
<path d="M91.9973 79.4249C93.1575 79.4249 94.0981 78.4878 94.0981 77.3318C94.0981 76.1759 93.1575 75.2388 91.9973 75.2388C90.837 75.2388 89.8965 76.1759 89.8965 77.3318C89.8965 78.4878 90.837 79.4249 91.9973 79.4249Z" fill="#535461"/>
<path d="M88.7868 70.8022C89.0401 70.8022 89.2454 70.5976 89.2454 70.3452C89.2454 70.0928 89.0401 69.8882 88.7868 69.8882C88.5335 69.8882 88.3281 70.0928 88.3281 70.3452C88.3281 70.5976 88.5335 70.8022 88.7868 70.8022Z" fill="#535461"/>
<path d="M90.5055 70.8022C90.7588 70.8022 90.9642 70.5976 90.9642 70.3452C90.9642 70.0928 90.7588 69.8882 90.5055 69.8882C90.2522 69.8882 90.0469 70.0928 90.0469 70.3452C90.0469 70.5976 90.2522 70.8022 90.5055 70.8022Z" fill="#535461"/>
<path d="M90.2771 72.9716C90.5304 72.9716 90.7357 72.767 90.7357 72.5146C90.7357 72.2622 90.5304 72.0576 90.2771 72.0576C90.0237 72.0576 89.8184 72.2622 89.8184 72.5146C89.8184 72.767 90.0237 72.9716 90.2771 72.9716Z" fill="#535461"/>
<path d="M91.8809 73.0294C92.1387 73.0294 92.3477 72.8211 92.3477 72.5642C92.3477 72.3074 92.1387 72.0991 91.8809 72.0991C91.6231 72.0991 91.4141 72.3074 91.4141 72.5642C91.4141 72.8211 91.6231 73.0294 91.8809 73.0294Z" fill="#535461"/>
<path d="M93.4821 72.9716C93.7354 72.9716 93.9408 72.767 93.9408 72.5146C93.9408 72.2622 93.7354 72.0576 93.4821 72.0576C93.2288 72.0576 93.0234 72.2622 93.0234 72.5146C93.0234 72.767 93.2288 72.9716 93.4821 72.9716Z" fill="#535461"/>
<path d="M89.5895 71.9447C89.8428 71.9447 90.0482 71.7401 90.0482 71.4877C90.0482 71.2353 89.8428 71.0308 89.5895 71.0308C89.3362 71.0308 89.1309 71.2353 89.1309 71.4877C89.1309 71.7401 89.3362 71.9447 89.5895 71.9447Z" fill="#535461"/>
<path d="M91.0645 71.983C91.3223 71.983 91.5313 71.7747 91.5313 71.5179C91.5313 71.261 91.3223 71.0527 91.0645 71.0527C90.8067 71.0527 90.5977 71.261 90.5977 71.5179C90.5977 71.7747 90.8067 71.983 91.0645 71.983Z" fill="#535461"/>
<path d="M92.5821 71.983C92.8399 71.983 93.0489 71.7747 93.0489 71.5179C93.0489 71.261 92.8399 71.0527 92.5821 71.0527C92.3242 71.0527 92.1152 71.261 92.1152 71.5179C92.1152 71.7747 92.3242 71.983 92.5821 71.983Z" fill="#535461"/>
<path d="M94.1696 71.9447C94.4229 71.9447 94.6283 71.7401 94.6283 71.4877C94.6283 71.2353 94.4229 71.0308 94.1696 71.0308C93.9163 71.0308 93.7109 71.2353 93.7109 71.4877C93.7109 71.7401 93.9163 71.9447 94.1696 71.9447Z" fill="#535461"/>
<path d="M91.8809 70.8204C92.1387 70.8204 92.3477 70.6121 92.3477 70.3553C92.3477 70.0984 92.1387 69.8901 91.8809 69.8901C91.6231 69.8901 91.4141 70.0984 91.4141 70.3553C91.4141 70.6121 91.6231 70.8204 91.8809 70.8204Z" fill="#535461"/>
<path d="M93.5137 70.8204C93.7715 70.8204 93.9806 70.6121 93.9806 70.3553C93.9806 70.0984 93.7715 69.8901 93.5137 69.8901C93.2559 69.8901 93.0469 70.0984 93.0469 70.3553C93.0469 70.6121 93.2559 70.8204 93.5137 70.8204Z" fill="#535461"/>
<path d="M94.8571 70.8022C95.1104 70.8022 95.3158 70.5976 95.3158 70.3452C95.3158 70.0928 95.1104 69.8882 94.8571 69.8882C94.6038 69.8882 94.3984 70.0928 94.3984 70.3452C94.3984 70.5976 94.6038 70.8022 94.8571 70.8022Z" fill="#535461"/>
<path d="M74.5506 55.0664C74.3347 55.0666 74.1277 55.1522 73.9751 55.3043C73.8224 55.4564 73.7366 55.6626 73.7363 55.8777V58.3196C73.7366 58.5347 73.8224 58.741 73.9751 58.893C74.1277 59.0451 74.3347 59.1307 74.5506 59.1309H75.1342C75.3501 59.1307 75.557 59.0451 75.7097 58.893C75.8624 58.741 75.9482 58.5347 75.9485 58.3196V55.8777C75.9482 55.6626 75.8624 55.4564 75.7097 55.3043C75.557 55.1522 75.3501 55.0666 75.1342 55.0664H74.5506Z" fill="#535461"/>
<path d="M108.629 55.0664C108.413 55.0666 108.206 55.1522 108.053 55.3043C107.901 55.4564 107.815 55.6626 107.814 55.8777V58.3196C107.815 58.5347 107.901 58.741 108.053 58.8931C108.206 59.0452 108.413 59.1307 108.629 59.1309H109.212C109.428 59.1307 109.635 59.0452 109.788 58.8931C109.941 58.741 110.026 58.5347 110.027 58.3196V55.8777C110.026 55.6626 109.941 55.4564 109.788 55.3043C109.635 55.1522 109.428 55.0666 109.212 55.0664H108.629Z" fill="#535461"/>
<path d="M118.373 62.0985C119.92 62.0985 121.174 60.8491 121.174 59.3078C121.174 57.7665 119.92 56.5171 118.373 56.5171C116.826 56.5171 115.572 57.7665 115.572 59.3078C115.572 60.8491 116.826 62.0985 118.373 62.0985Z" fill="#C4C4C4"/>
<path d="M112.422 68.0297C113.969 68.0297 115.223 66.7803 115.223 65.239C115.223 63.6977 113.969 62.4482 112.422 62.4482C110.875 62.4482 109.621 63.6977 109.621 65.239C109.621 66.7803 110.875 68.0297 112.422 68.0297Z" fill="#C4C4C4"/>
<path d="M124.561 67.6806C126.108 67.6806 127.362 66.4311 127.362 64.8899C127.362 63.3486 126.108 62.0991 124.561 62.0991C123.014 62.0991 121.76 63.3486 121.76 64.8899C121.76 66.4311 123.014 67.6806 124.561 67.6806Z" fill="#C4C4C4"/>
<path d="M118.842 73.8437C120.389 73.8437 121.643 72.5942 121.643 71.0529C121.643 69.5117 120.389 68.2622 118.842 68.2622C117.295 68.2622 116.041 69.5117 116.041 71.0529C116.041 72.5942 117.295 73.8437 118.842 73.8437Z" fill="#C4C4C4"/>
<path d="M79.8314 53.4385C79.2055 53.4392 78.6055 53.6872 78.1629 54.1282C77.7204 54.5691 77.4714 55.1669 77.4707 55.7905V66.1976C77.4714 66.8212 77.7204 67.419 78.1629 67.8599C78.6055 68.3009 79.2055 68.5489 79.8314 68.5496H103.815C104.441 68.5489 105.041 68.3009 105.484 67.8599C105.926 67.419 106.175 66.8212 106.176 66.1976V55.7905C106.175 55.1669 105.926 54.5691 105.484 54.1282C105.041 53.6872 104.441 53.4392 103.815 53.4385H79.8314Z" fill="#535461"/>
<path d="M120.277 60.5875H116.479L118.312 57.4556L120.277 60.5875ZM116.885 60.3549H119.856L118.319 57.9053L116.885 60.3549Z" fill="#535461"/>
<path d="M113.999 66.6345H110.848V63.8438H113.999V66.6345ZM111.081 66.4019H113.765V64.0763H111.081V66.4019Z" fill="#535461"/>
<path d="M124.559 66.6344C124.213 66.6344 123.875 66.5321 123.587 66.3404C123.299 66.1488 123.074 65.8764 122.942 65.5577C122.809 65.239 122.775 64.8883 122.842 64.5499C122.91 64.2116 123.077 63.9008 123.321 63.6569C123.566 63.4129 123.878 63.2468 124.218 63.1795C124.557 63.1122 124.909 63.1467 125.229 63.2788C125.549 63.4108 125.822 63.6343 126.015 63.9212C126.207 64.208 126.31 64.5452 126.31 64.8902C126.309 65.3526 126.125 65.796 125.797 66.123C125.468 66.4499 125.023 66.6339 124.559 66.6344ZM124.559 63.3785C124.259 63.3785 123.966 63.4672 123.716 63.6333C123.467 63.7994 123.272 64.0355 123.157 64.3117C123.043 64.5879 123.013 64.8919 123.071 65.1851C123.13 65.4783 123.274 65.7477 123.486 65.9591C123.699 66.1705 123.969 66.3145 124.263 66.3728C124.558 66.4311 124.863 66.4012 125.14 66.2868C125.417 66.1724 125.654 65.9786 125.821 65.73C125.987 65.4814 126.076 65.1892 126.076 64.8902C126.076 64.4894 125.916 64.1052 125.632 63.8218C125.347 63.5384 124.961 63.379 124.559 63.3785Z" fill="#535461"/>
<path d="M117.581 69.6622L117.416 69.8267L120.042 72.443L120.207 72.2786L117.581 69.6622Z" fill="#535461"/>
<path d="M120.102 69.6602L117.418 72.2188L117.579 72.3868L120.263 69.8283L120.102 69.6602Z" fill="#535461"/>
</g>
<defs>
<clipPath id="clip0">
<rect width="157" height="107" fill="white"/>
</clipPath>
</defs>
</svg>
