<svg width="148" height="107" viewBox="0 0 148 107" fill="none" xmlns="http://www.w3.org/2000/svg">
<g clip-path="url(#clip0)">
<path opacity="0.1" d="M1.59961 58.1709C3.94149 68.2095 8.89911 76.887 16.7328 81.0986C33.0167 89.8397 69.7381 85.3305 97.1433 80.1516C110.992 77.5433 123.562 70.337 132.83 59.6929L1.59961 58.1709Z" fill="#1482D1"/>
<path opacity="0.1" d="M145.316 10.9197H130.279C129.934 10.9197 129.604 10.7824 129.36 10.5381C129.117 10.2937 128.98 9.96236 128.98 9.61682C128.98 9.27129 129.117 8.9399 129.36 8.69557C129.604 8.45124 129.934 8.31397 130.279 8.31397H132.878C132.541 8.30307 132.221 8.16096 131.986 7.91769C131.751 7.67442 131.62 7.34907 131.62 7.01045C131.62 6.67183 131.751 6.34648 131.986 6.10321C132.221 5.85994 132.541 5.71783 132.878 5.70692H131.022C130.685 5.69602 130.365 5.55391 130.13 5.31064C129.895 5.06737 129.764 4.74202 129.764 4.4034C129.764 4.06478 129.895 3.73943 130.13 3.49616C130.365 3.25289 130.685 3.11078 131.022 3.09987H138.871C137.129 2.28813 135.094 1.71044 132.748 1.40739C111.347 -1.34848 103.706 0.475235 101.011 2.35442C97.6855 4.66789 93.9757 6.36985 90.0109 7.18971C76.8068 9.92123 52.1132 13.2088 29.7317 6.13715C18.6078 2.61959 10.341 8.56156 5.38477 18.4865H147.927C147.741 15.6021 147.183 12.9396 146.161 10.6072C145.926 10.8097 145.626 10.9206 145.316 10.9197Z" fill="#1482D1"/>
<path opacity="0.1" d="M0.321741 37.2188C-0.255813 43.0567 -0.0598514 48.9457 0.904514 54.7321L132.93 59.5755C136.605 55.3354 139.691 50.6155 142.103 45.5445L0.321741 37.2188ZM52.5393 49.7115H49.9397C50.2843 49.7115 50.6147 49.8488 50.8583 50.0931C51.1019 50.3374 51.2388 50.6688 51.2388 51.0143C51.2388 51.3599 51.1019 51.6913 50.8583 51.9356C50.6147 52.1799 50.2843 52.3172 49.9397 52.3172H34.9023C34.5577 52.3172 34.2273 52.1799 33.9837 51.9356C33.7401 51.6913 33.6032 51.3599 33.6032 51.0143C33.6032 50.6688 33.7401 50.3374 33.9837 50.0931C34.2273 49.8488 34.5577 49.7115 34.9023 49.7115H37.5018C37.1644 49.7006 36.8443 49.5585 36.6095 49.3152C36.3746 49.0719 36.2433 48.7466 36.2433 48.408C36.2433 48.0693 36.3746 47.744 36.6095 47.5007C36.8443 47.2575 37.1644 47.1153 37.5018 47.1044H35.6456C35.3081 47.0935 34.9881 46.9514 34.7532 46.7081C34.5183 46.4649 34.387 46.1395 34.387 45.8009C34.387 45.4623 34.5183 45.1369 34.7532 44.8937C34.9881 44.6504 35.3081 44.5083 35.6456 44.4974H50.683C51.0205 44.5083 51.3405 44.6504 51.5754 44.8937C51.8103 45.1369 51.9416 45.4623 51.9416 45.8009C51.9416 46.1395 51.8103 46.4649 51.5754 46.7081C51.3405 46.9514 51.0205 47.0935 50.683 47.1044H52.5393C52.8767 47.1153 53.1967 47.2575 53.4316 47.5007C53.6665 47.744 53.7978 48.0693 53.7978 48.408C53.7978 48.7466 53.6665 49.0719 53.4316 49.3152C53.1967 49.5585 52.8767 49.7006 52.5393 49.7115Z" fill="#1482D1"/>
<path opacity="0.1" d="M147.932 18.5723L3.79317 22.0898C2.03946 26.6099 0.883354 31.7171 0.34375 37.0164H145.407C146.354 33.905 147.054 30.7234 147.502 27.5014C147.934 24.3884 148.106 21.3768 147.932 18.5723ZM29.6065 30.0936H27.007C27.1776 30.0936 27.3465 30.1273 27.5041 30.1928C27.6617 30.2583 27.8049 30.3542 27.9256 30.4752C28.0462 30.5962 28.1419 30.7398 28.2072 30.8979C28.2724 31.056 28.3061 31.2254 28.3061 31.3965C28.3061 31.5676 28.2724 31.737 28.2072 31.895C28.1419 32.0531 28.0462 32.1967 27.9256 32.3177C27.8049 32.4387 27.6617 32.5347 27.5041 32.6001C27.3465 32.6656 27.1776 32.6993 27.007 32.6993H11.9695C11.625 32.6993 11.2946 32.5621 11.0509 32.3177C10.8073 32.0734 10.6704 31.742 10.6704 31.3965C10.6704 31.0509 10.8073 30.7195 11.0509 30.4752C11.2946 30.2309 11.625 30.0936 11.9695 30.0936H14.5691C14.2316 30.0827 13.9116 29.9406 13.6767 29.6973C13.4418 29.4541 13.3105 29.1287 13.3105 28.7901C13.3105 28.4515 13.4418 28.1261 13.6767 27.8829C13.9116 27.6396 14.2316 27.4975 14.5691 27.4866H12.7128C12.3754 27.4757 12.0553 27.3335 11.8205 27.0903C11.5856 26.847 11.4543 26.5217 11.4543 26.183C11.4543 25.8444 11.5856 25.5191 11.8205 25.2758C12.0553 25.0325 12.3754 24.8904 12.7128 24.8795H27.7503C28.0877 24.8904 28.4077 25.0325 28.6426 25.2758C28.8775 25.5191 29.0088 25.8444 29.0088 26.183C29.0088 26.5217 28.8775 26.847 28.6426 27.0903C28.4077 27.3335 28.0877 27.4757 27.7503 27.4866H29.6065C29.944 27.4975 30.264 27.6396 30.4989 27.8829C30.7337 28.1261 30.8651 28.4515 30.8651 28.7901C30.8651 29.1287 30.7337 29.4541 30.4989 29.6973C30.264 29.9406 29.944 30.0827 29.6065 30.0936Z" fill="#1482D1"/>
<path opacity="0.1" d="M76.0322 107C102.021 107 123.09 105.857 123.09 104.446C123.09 103.035 102.021 101.892 76.0322 101.892C50.043 101.892 28.9746 103.035 28.9746 104.446C28.9746 105.857 50.043 107 76.0322 107Z" fill="#1482D1"/>
<path d="M115.098 85.6636C115.098 85.6636 115.839 86.6363 114.756 88.0988C113.672 89.5613 112.779 90.8046 113.137 91.7205C113.137 91.7205 114.77 88.9944 116.105 88.9566C117.439 88.9187 116.561 87.3033 115.098 85.6636Z" fill="#1482D1"/>
<path opacity="0.1" d="M115.098 85.6636C115.162 85.7577 115.213 85.8601 115.249 85.968C116.547 87.4981 117.238 88.9254 115.991 88.9606C114.828 88.9944 113.435 91.0779 113.102 91.6042C113.112 91.6451 113.125 91.6853 113.141 91.7246C113.141 91.7246 114.774 88.9985 116.109 88.9606C117.443 88.9227 116.56 87.3033 115.098 85.6636Z" fill="black"/>
<path d="M116.476 86.9022C116.476 87.2445 116.438 87.5218 116.391 87.5218C116.344 87.5218 116.305 87.2445 116.305 86.9022C116.305 86.5599 116.353 86.7209 116.4 86.7209C116.448 86.7209 116.476 86.5599 116.476 86.9022Z" fill="#FFD037"/>
<path d="M116.948 87.3109C116.648 87.4747 116.388 87.5734 116.365 87.5315C116.342 87.4895 116.567 87.3231 116.867 87.1594C117.166 86.9957 117.047 87.1148 117.07 87.1594C117.093 87.2041 117.247 87.1472 116.948 87.3109Z" fill="#FFD037"/>
<path d="M111.185 85.6636C111.185 85.6636 110.445 86.6363 111.528 88.0988C112.611 89.5613 113.503 90.8046 113.147 91.7205C113.147 91.7205 111.512 88.9944 110.179 88.9566C108.846 88.9187 109.722 87.3033 111.185 85.6636Z" fill="#1482D1"/>
<path opacity="0.1" d="M111.184 85.6636C111.12 85.7573 111.069 85.8598 111.033 85.968C109.735 87.4981 109.043 88.9254 110.291 88.9606C111.453 88.9944 112.854 91.0779 113.181 91.6042C113.17 91.6448 113.157 91.684 113.142 91.7246C113.142 91.7246 111.507 88.9985 110.174 88.9606C108.841 88.9227 109.721 87.3033 111.184 85.6636Z" fill="black"/>
<path d="M109.807 86.9022C109.807 87.2445 109.844 87.5218 109.892 87.5218C109.939 87.5218 109.978 87.2445 109.978 86.9022C109.978 86.5599 109.929 86.7209 109.882 86.7209C109.835 86.7209 109.807 86.5599 109.807 86.9022Z" fill="#FFD037"/>
<path d="M109.334 87.3109C109.634 87.4747 109.895 87.5734 109.918 87.5315C109.941 87.4895 109.716 87.3231 109.417 87.1594C109.117 86.9957 109.236 87.1148 109.213 87.1594C109.19 87.2041 109.035 87.1472 109.334 87.3109Z" fill="#FFD037"/>
<path d="M110.043 91.5974C110.043 91.5974 112.115 91.5324 112.741 91.0873C113.367 90.6422 115.929 90.1078 116.084 90.8168C116.239 91.5257 119.197 94.3735 116.858 94.3925C114.519 94.4114 111.423 94.0272 110.8 93.647C110.177 93.2669 110.043 91.5974 110.043 91.5974Z" fill="#A8A8A8"/>
<path opacity="0.2" d="M116.899 94.1504C114.56 94.1693 111.464 93.7851 110.841 93.4049C110.366 93.114 110.177 92.0737 110.114 91.5947H110.045C110.045 91.5947 110.18 93.2696 110.799 93.6511C111.418 94.0327 114.518 94.4155 116.857 94.3966C117.532 94.3966 117.767 94.1504 117.753 93.7932C117.659 94.0124 117.401 94.1463 116.899 94.1504Z" fill="black"/>
<path d="M36.3189 92.3575C36.5665 92.1549 36.7471 91.8818 36.8369 91.5742C36.903 91.2644 36.7708 90.8978 36.4754 90.7773C36.1435 90.6502 35.7888 90.8815 35.519 91.1142C35.2492 91.3469 34.9429 91.6134 34.5908 91.5634C34.7719 91.399 34.9074 91.1902 34.984 90.9576C35.0606 90.725 35.0757 90.4764 35.0279 90.2362C35.0126 90.1367 34.9706 90.0431 34.9065 89.9656C34.7217 89.7681 34.3885 89.852 34.1672 90.0075C33.4658 90.5027 33.2702 91.4592 33.2661 92.3183C33.196 92.0085 33.2553 91.6851 33.254 91.3713C33.2526 91.0574 33.1649 90.6948 32.8978 90.5284C32.7321 90.4396 32.5461 90.3958 32.3582 90.4012C32.0426 90.3891 31.6918 90.4215 31.476 90.6515C31.2062 90.9397 31.2777 91.4213 31.5111 91.7338C31.7444 92.0464 32.0979 92.2493 32.423 92.4671C32.6846 92.6231 32.9078 92.8363 33.0759 93.0908C33.095 93.1269 33.1112 93.1644 33.1245 93.2031H35.1008C35.543 92.9776 35.9527 92.6932 36.3189 92.3575Z" fill="#1482D1"/>
<path d="M20.6141 94.4921C20.6141 94.4921 18.7174 88.0374 20.9689 83.2873C21.9274 81.3005 22.2171 79.0554 21.7945 76.8894C21.586 75.8635 21.2839 74.8591 20.892 73.8887" stroke="#535461" stroke-width="2" stroke-miterlimit="10"/>
<path d="M22.2875 70.8853C22.2875 71.6767 20.8602 73.9713 20.8602 73.9713C20.8602 73.9713 19.4316 71.6713 19.4316 70.8853C19.443 70.5131 19.5985 70.16 19.865 69.9008C20.1316 69.6416 20.4883 69.4966 20.8596 69.4966C21.2309 69.4966 21.5876 69.6416 21.8541 69.9008C22.1206 70.16 22.2761 70.5131 22.2875 70.8853Z" fill="#1482D1"/>
<path d="M24.648 75.2676C24.2204 75.9319 21.7773 77.0792 21.7773 77.0792C21.7773 77.0792 21.8219 74.3733 22.2508 73.7104C22.4616 73.4029 22.7837 73.19 23.1486 73.117C23.5135 73.044 23.8924 73.1167 24.2047 73.3196C24.517 73.5224 24.7381 73.8395 24.8209 74.2033C24.9037 74.5671 24.8416 74.949 24.648 75.2676Z" fill="#1482D1"/>
<path d="M24.5444 82.7557C23.8402 83.1115 21.1543 82.8653 21.1543 82.8653C21.1543 82.8653 22.5546 80.5532 23.2588 80.1974C23.4267 80.1082 23.6107 80.0535 23.8 80.0365C23.9893 80.0195 24.18 80.0405 24.3611 80.0984C24.5422 80.1563 24.7099 80.2498 24.8545 80.3734C24.9991 80.4971 25.1176 80.6485 25.2031 80.8187C25.2886 80.9889 25.3395 81.1745 25.3526 81.3646C25.3657 81.5548 25.3408 81.7456 25.2795 81.926C25.2181 82.1064 25.1215 82.2727 24.9953 82.4151C24.8691 82.5576 24.7158 82.6734 24.5444 82.7557Z" fill="#1482D1"/>
<path d="M23.1957 88.4046C22.5616 88.8754 19.873 89.0811 19.873 89.0811C19.873 89.0811 20.8632 86.566 21.4919 86.0952C21.6415 85.9722 21.8146 85.8809 22.0005 85.827C22.1863 85.773 22.3812 85.7575 22.5733 85.7814C22.7653 85.8053 22.9505 85.868 23.1177 85.9659C23.2848 86.0637 23.4304 86.1946 23.5456 86.3506C23.6607 86.5065 23.7431 86.6843 23.7877 86.8732C23.8323 87.062 23.8381 87.258 23.8049 87.4492C23.7717 87.6404 23.7001 87.8229 23.5944 87.9855C23.4888 88.1481 23.3513 88.2874 23.1903 88.3951L23.1957 88.4046Z" fill="#1482D1"/>
<path d="M18.779 77.2319C19.3443 77.7825 21.9802 78.3548 21.9802 78.3548C21.9802 78.3548 21.3341 75.7288 20.7661 75.1768C20.6328 75.0401 20.4735 74.9316 20.2976 74.8576C20.1218 74.7837 19.933 74.7457 19.7423 74.7461C19.5516 74.7465 19.3629 74.7851 19.1874 74.8598C19.0118 74.9344 18.8529 75.0435 18.7201 75.1807C18.5873 75.3179 18.4832 75.4804 18.4139 75.6586C18.3447 75.8368 18.3117 76.0271 18.3169 76.2182C18.3222 76.4094 18.3655 76.5976 18.4444 76.7717C18.5233 76.9457 18.6362 77.1022 18.7763 77.2319H18.779Z" fill="#1482D1"/>
<path d="M17.2834 83.8575C17.9876 84.2134 20.6735 83.9671 20.6735 83.9671C20.6735 83.9671 19.2732 81.6564 18.569 81.2992C18.2318 81.1373 17.8447 81.1144 17.4909 81.2354C17.137 81.3564 16.8446 81.6118 16.6763 81.9466C16.508 82.2815 16.4774 82.6691 16.5909 83.0264C16.7044 83.3837 16.953 83.6821 17.2834 83.8575Z" fill="#1482D1"/>
<path d="M16.7123 90.4975C17.3463 90.967 20.0335 91.174 20.0335 91.174C20.0335 91.174 19.0447 88.6589 18.4147 88.1881C18.1096 87.984 17.738 87.9054 17.3767 87.9685C17.0154 88.0317 16.6922 88.2317 16.4739 88.5273C16.2557 88.8229 16.1591 89.1913 16.2042 89.5563C16.2493 89.9213 16.4327 90.2549 16.7163 90.488L16.7123 90.4975Z" fill="#1482D1"/>
<path d="M22.2875 70.8853C22.2875 71.6767 20.8602 73.9713 20.8602 73.9713C20.8602 73.9713 19.4316 71.6713 19.4316 70.8853C19.443 70.5131 19.5985 70.16 19.865 69.9008C20.1316 69.6416 20.4883 69.4966 20.8596 69.4966C21.2309 69.4966 21.5876 69.6416 21.8541 69.9008C22.1206 70.16 22.2761 70.5131 22.2875 70.8853Z" fill="#1482D1"/>
<path d="M24.648 75.2676C24.2204 75.9319 21.7773 77.0792 21.7773 77.0792C21.7773 77.0792 21.8219 74.3733 22.2508 73.7104C22.4616 73.4029 22.7837 73.19 23.1486 73.117C23.5135 73.044 23.8924 73.1167 24.2047 73.3196C24.517 73.5224 24.7381 73.8395 24.8209 74.2033C24.9037 74.5671 24.8416 74.949 24.648 75.2676Z" fill="#1482D1"/>
<path d="M24.5444 82.7557C23.8402 83.1115 21.1543 82.8653 21.1543 82.8653C21.1543 82.8653 22.5546 80.5532 23.2588 80.1974C23.4267 80.1082 23.6107 80.0535 23.8 80.0365C23.9893 80.0195 24.18 80.0405 24.3611 80.0984C24.5422 80.1563 24.7099 80.2498 24.8545 80.3734C24.9991 80.4971 25.1176 80.6485 25.2031 80.8187C25.2886 80.9889 25.3395 81.1745 25.3526 81.3646C25.3657 81.5548 25.3408 81.7456 25.2795 81.926C25.2181 82.1064 25.1215 82.2727 24.9953 82.4151C24.8691 82.5576 24.7158 82.6734 24.5444 82.7557Z" fill="#1482D1"/>
<path d="M23.1957 88.4046C22.5616 88.8754 19.873 89.0811 19.873 89.0811C19.873 89.0811 20.8632 86.566 21.4919 86.0952C21.6415 85.9722 21.8146 85.8809 22.0005 85.827C22.1863 85.773 22.3812 85.7575 22.5733 85.7814C22.7653 85.8053 22.9505 85.868 23.1177 85.9659C23.2848 86.0637 23.4304 86.1946 23.5456 86.3506C23.6607 86.5065 23.7431 86.6843 23.7877 86.8732C23.8323 87.062 23.8381 87.258 23.8049 87.4492C23.7717 87.6404 23.7001 87.8229 23.5944 87.9855C23.4888 88.1481 23.3513 88.2874 23.1903 88.3951L23.1957 88.4046Z" fill="#1482D1"/>
<path d="M18.779 77.2319C19.3443 77.7825 21.9802 78.3548 21.9802 78.3548C21.9802 78.3548 21.3341 75.7288 20.7661 75.1768C20.6328 75.0401 20.4735 74.9316 20.2976 74.8576C20.1218 74.7837 19.933 74.7457 19.7423 74.7461C19.5516 74.7465 19.3629 74.7851 19.1874 74.8598C19.0118 74.9344 18.8529 75.0435 18.7201 75.1807C18.5873 75.3179 18.4832 75.4804 18.4139 75.6586C18.3447 75.8368 18.3117 76.0271 18.3169 76.2182C18.3222 76.4094 18.3655 76.5976 18.4444 76.7717C18.5233 76.9457 18.6362 77.1022 18.7763 77.2319H18.779Z" fill="#1482D1"/>
<path d="M17.2834 83.8575C17.9876 84.2134 20.6735 83.9671 20.6735 83.9671C20.6735 83.9671 19.2732 81.6564 18.569 81.2992C18.2318 81.1373 17.8447 81.1144 17.4909 81.2354C17.137 81.3564 16.8446 81.6118 16.6763 81.9466C16.508 82.2815 16.4774 82.6691 16.5909 83.0264C16.7044 83.3837 16.953 83.6821 17.2834 83.8575Z" fill="#1482D1"/>
<path d="M16.7123 90.4975C17.3463 90.967 20.0335 91.174 20.0335 91.174C20.0335 91.174 19.0447 88.6589 18.4147 88.1881C18.1096 87.984 17.738 87.9054 17.3767 87.9685C17.0154 88.0317 16.6922 88.2317 16.4739 88.5273C16.2557 88.8229 16.1591 89.1913 16.2042 89.5563C16.2493 89.9213 16.4327 90.2549 16.7163 90.488L16.7123 90.4975Z" fill="#1482D1"/>
<path d="M16.127 94.0865C16.127 94.0865 18.4365 93.6265 19.0516 93.0136C19.6668 92.4008 22.4376 91.3279 22.7452 92.0937C23.0528 92.8594 26.9002 95.4651 24.2831 95.9251C21.666 96.3851 18.1275 96.538 17.3586 96.2308C16.5897 95.9237 16.127 94.0865 16.127 94.0865Z" fill="#A8A8A8"/>
<path opacity="0.2" d="M24.2871 95.6387C21.6714 96.0987 18.1316 96.2516 17.3626 95.9458C16.7772 95.7118 16.3698 94.5929 16.2092 94.0693L16.127 94.0869C16.127 94.0869 16.5897 95.9255 17.3586 96.2313C18.1275 96.5371 21.6673 96.3842 24.2831 95.9255C25.0385 95.7903 25.2544 95.4804 25.1734 95.0867C25.1127 95.3424 24.8497 95.54 24.2871 95.6387Z" fill="black"/>
<path d="M97.7043 35.444C98.4287 34.6322 98.1454 33.3672 98.1454 33.3672C98.1454 33.3672 94.727 24.6302 94.348 24.5341C93.9689 24.4381 93.0178 22.2342 93.0178 22.2342C93.0178 22.2342 83.9026 13.5445 83.5747 13.5445C83.2469 13.5445 79.9189 11.1444 79.4926 11.0971C79.0663 11.0497 78.3999 10.8089 77.6877 10.4206C76.9754 10.0323 69.7582 10.4693 69.4735 10.8048C69.1889 11.1404 67.8547 11.3812 67.8547 11.3812C67.8547 11.3812 65.1486 11.5246 64.7682 12.0049C64.3878 12.4851 61.5886 12.7395 61.5886 12.7395C61.5886 12.7395 60.2112 13.2536 62.081 14.6187C61.482 14.7134 60.7819 14.7864 60.0709 14.8378C59.8929 14.85 59.7121 14.8622 59.5313 14.8717H59.4248C59.3054 14.5096 59.0726 14.196 58.761 13.9774C58.5573 13.8665 58.3469 13.7684 58.1311 13.6838C57.7967 13.5055 57.4836 13.29 57.1975 13.0412C55.8135 11.9374 54.3367 10.956 52.7836 10.1081C52.5438 9.95755 52.2764 9.85679 51.9971 9.8118C51.4184 9.75633 50.9017 10.1636 50.3351 10.3002C49.3395 10.5397 48.3359 9.93085 47.312 9.92138C46.0331 9.90921 44.8689 10.9077 44.4791 12.1388C44.3347 12.5947 44.27 13.1021 43.9583 13.4633C43.5536 13.9355 42.8697 14.0045 42.3152 14.2845C41.9135 14.4947 41.5769 14.8112 41.3419 15.1997C41.1069 15.5883 40.9826 16.034 40.9824 16.4884V16.4992C40.9824 16.5709 40.9824 16.6426 40.9946 16.7143C41.058 17.2934 41.3251 17.8278 41.5207 18.377C41.7217 18.9399 41.8487 19.5266 41.8984 20.1223C41.8991 20.1286 41.8991 20.1349 41.8984 20.1412C41.9065 20.24 41.9132 20.3388 41.9173 20.4389C41.9173 20.4592 41.9173 20.4808 41.9173 20.5025C41.9173 20.5972 41.9173 20.6932 41.9173 20.7893C41.9173 21.3061 41.8997 21.827 41.9011 22.3438V22.3708V22.6049C41.9011 22.6238 41.9011 22.6428 41.9011 22.6617C41.9011 22.7307 41.9011 22.797 41.9092 22.87V22.9431C41.9092 23.0067 41.9186 23.0716 41.9254 23.1352C41.9254 23.1623 41.9254 23.1907 41.9321 23.2177C41.9321 23.28 41.947 23.3409 41.9551 23.4017L41.9672 23.4883C41.9766 23.5492 41.9874 23.6101 41.9982 23.671L42.0144 23.7548C42.0279 23.8198 42.0441 23.8901 42.0603 23.9497C42.067 23.9727 42.0711 23.9943 42.0765 24.0173C42.1008 24.1075 42.1277 24.1941 42.1574 24.2771C42.3594 24.8451 42.6929 25.3571 43.1305 25.7708C43.5681 26.1844 44.0973 26.4881 44.6747 26.6568C44.8921 26.7169 45.117 26.7452 45.3424 26.7407C45.7471 26.7312 46.1343 26.6054 46.3744 26.3281C46.4338 26.3957 46.4918 26.4634 46.5538 26.531C47.4337 27.4907 48.5313 28.2234 49.7536 28.667C50.9759 29.1107 52.2869 29.2522 53.5754 29.0796C54.8638 28.9071 56.0918 28.4254 57.1551 27.6756C58.2185 26.9257 59.0859 25.9298 59.6838 24.7722C59.8254 24.7411 59.9657 24.7127 60.1073 24.6856C60.3529 24.6396 60.5997 24.5964 60.848 24.5504L61.0867 24.5125L61.1812 24.4962C62.3953 24.3041 63.5743 24.1756 64.4188 24.0904L61.0813 24.5057C61.0813 24.5057 60.2719 28.4034 60.0386 28.835C59.8052 29.2666 60.848 29.9863 60.848 29.9863C60.848 29.9863 61.7504 31.0903 61.7504 31.4272C61.7504 31.7641 62.7946 32.7233 63.0792 33.2509C63.1154 33.3178 63.1608 33.3793 63.2141 33.4335C63.0034 33.5153 62.8088 33.6339 62.6394 33.7839C61.9798 34.4103 62.1997 35.5089 61.8975 36.3693C61.7086 36.9105 61.3134 37.3488 60.9329 37.775C60.7963 37.9141 60.6817 38.0734 60.593 38.2472C60.5435 38.3623 60.513 38.4848 60.5026 38.6098C60.4958 38.679 60.4931 38.7486 60.4945 38.8181V38.8425C60.4945 38.8966 60.4945 38.9493 60.5053 39.0021C60.5053 39.0251 60.5053 39.0481 60.5053 39.0711C60.5714 39.6366 60.763 40.1832 60.821 40.7487C60.879 41.3142 60.8088 41.8838 60.9249 42.4344C60.9651 42.6264 61.0275 42.813 61.111 42.9905L59.1792 45.1551C59.1792 45.1551 59.1671 45.262 59.163 45.4379C57.5523 46.7786 55.062 49.3085 55.951 51.5395C56.0482 51.7839 56.1381 52.018 56.2208 52.2416C55.5666 52.6597 55.3507 53.1562 56.3315 53.6514C56.4866 53.7298 56.6363 53.7975 56.7834 53.8584C57.2866 55.3398 57.4835 55.7524 58.3267 54.6606C58.417 54.5416 58.5223 54.3901 58.6369 54.2264C59.8241 54.202 60.5107 53.6514 60.5107 53.6514C60.5107 53.6514 63.8333 53.4593 64.6926 53.9882C65.123 54.2588 66.1347 54.3129 67.0305 54.3062C67.0185 55.274 67.0635 56.2416 67.1654 57.2041C67.1654 57.2041 67.0224 61.2845 67.4028 62.149C67.7832 63.0135 67.9937 64.5017 67.9937 64.5017C67.9937 64.5017 67.3556 65.9412 67.7347 66.7096C68.1137 67.4781 67.4028 68.582 67.4028 68.582V71.4137L67.6726 71.3947C67.6524 71.5855 67.6267 71.7857 67.593 71.9765C67.5148 72.4189 67.3974 72.8153 67.2166 72.9438C66.7418 73.2861 66.6946 75.1085 66.6946 75.1085C66.6946 75.1085 65.9351 77.3178 66.0767 77.702C66.2184 78.0862 65.1756 78.8533 65.413 79.4296C65.6504 80.006 66.1361 83.6534 66.5583 84.706C66.9806 85.7585 65.6977 85.4744 65.6977 85.4744L66.0767 88.21C66.0767 88.21 66.4571 90.9943 66.1725 91.1864C65.8879 91.3785 64.2502 92.7706 65.3766 93.5864C65.4643 93.65 65.5533 93.7082 65.6464 93.7637C65.6514 93.89 65.6483 94.0166 65.6369 94.1425C65.6154 94.3576 65.5614 94.5294 65.4413 94.5484C65.1068 94.5971 64.4417 94.9326 64.3014 94.7892C64.1611 94.6458 63.3571 95.1518 62.5477 95.3168L62.4357 95.3344L61.3849 95.0638C59.8644 94.4829 58.1954 94.4211 56.6363 94.8879C56.6363 94.8879 55.8742 95.007 55.5045 95.5779C55.317 95.8702 55.2347 96.2814 55.402 96.8551C55.9092 98.5516 59.3667 99.1361 59.3667 99.1361C59.3667 99.1361 60.5647 99.3837 62.0041 99.7111C61.9568 99.7111 61.9083 99.7111 61.8597 99.7111C61.4625 99.7083 61.0786 99.855 60.7839 100.122C60.4892 100.389 60.3051 100.758 60.2679 101.154C60.2307 101.551 60.3432 101.947 60.5831 102.265C60.823 102.582 61.1729 102.798 61.5637 102.87C61.9545 102.941 62.3579 102.863 62.6941 102.651C63.0304 102.439 63.2752 102.108 63.3801 101.724C63.4851 101.34 63.4426 100.93 63.261 100.576C63.0794 100.221 62.772 99.948 62.3993 99.8098C64.0181 100.183 65.811 100.638 66.5394 100.958C67.0818 101.163 67.6376 101.331 68.2028 101.459C68.2307 101.795 68.3646 102.113 68.5852 102.367C68.8058 102.621 69.1015 102.798 69.4292 102.872C69.757 102.946 70.0997 102.913 70.4076 102.778C70.7154 102.643 70.9723 102.413 71.1409 102.122C73.3438 102.583 75.4658 102.974 75.4658 102.974L79.0097 103.032H79.034C78.6163 103.035 78.2168 103.204 77.923 103.502C77.6292 103.799 77.465 104.202 77.4664 104.621C77.4679 105.04 77.6348 105.441 77.9306 105.736C78.2265 106.032 78.6271 106.198 79.0448 106.198C79.4624 106.198 79.8631 106.032 80.1589 105.736C80.4548 105.441 80.6217 105.04 80.6231 104.621C80.6245 104.202 80.4604 103.799 80.1665 103.502C79.8727 103.204 79.4732 103.035 79.0556 103.032L84.4206 103.12C84.3562 103.339 84.3396 103.57 84.372 103.796C84.4043 104.022 84.4849 104.238 84.6082 104.43C84.7314 104.622 84.8945 104.785 85.0862 104.908C85.278 105.031 85.4939 105.111 85.7194 105.143C85.9448 105.174 86.1744 105.157 86.3925 105.092C86.6106 105.026 86.8121 104.915 86.9833 104.764C87.1545 104.614 87.2914 104.428 87.3846 104.22C87.4778 104.012 87.5251 103.786 87.5233 103.557C87.523 103.427 87.5067 103.297 87.4747 103.17L92.2071 103.248L93.1514 102.206C93.2041 102.105 93.2358 101.994 93.2445 101.88C93.2728 101.537 93.0961 101.018 91.8874 100.797C91.7983 100.781 89.3323 100.82 87.1537 100.857V99.9992C87.1537 99.9992 87.093 99.5271 87.0552 98.971C87.0444 98.8073 87.035 98.6368 87.0309 98.4691C87.1542 98.5538 87.2911 98.6165 87.4356 98.6544C88.3381 98.7992 89.5725 96.1583 89.5725 96.1583C89.5725 96.1583 89.5724 94.6701 89.8571 93.4701C90.1417 92.2701 90.6665 88.2371 90.6665 88.2371L91.8078 83.3896C91.8078 83.3896 92.2799 73.4999 92.0425 73.1156C91.8051 72.7314 92.3285 72.059 92.3285 72.059C92.3285 72.059 92.7076 69.9471 92.1383 69.2274C91.569 68.5076 92.4701 67.7865 92.4701 67.7865C92.4701 67.7865 92.7076 65.2904 92.0425 64.3312C91.3774 63.372 92.3541 62.6996 92.3541 62.6996L92.5915 58.8114C93.5885 57.8034 94.4896 51.8033 94.5382 50.5072C94.5506 49.7776 94.7122 49.0584 95.013 48.394C95.013 48.394 95.6767 47.3861 95.7725 46.7137C95.8683 46.0413 96.5819 44.6505 96.5819 44.6505L97.8163 40.0411C98.314 38.1822 98.1872 36.8077 97.8567 35.8282C97.8082 35.6902 97.7569 35.5644 97.7043 35.444ZM75.4038 35.7145C76.1633 36.1948 75.9259 36.3382 76.1633 36.6264C76.4007 36.9146 76.2105 36.8659 76.0203 37.3461C75.8301 37.8264 75.9731 37.683 76.0675 38.2106C76.1619 38.7383 76.1161 38.7383 76.1161 38.7383L76.3535 38.7721L76.023 41.0003C75.4834 41.3534 75.2365 42.0299 75.1245 42.728C74.8062 42.3113 74.4851 41.8784 74.1978 41.4752C74.2962 41.2547 74.2774 40.9922 74.2801 40.7446C74.2909 39.9329 74.593 39.1577 74.732 38.3581C74.8739 37.5447 74.8477 36.7108 74.6551 35.908C74.5859 35.6059 74.4794 35.3137 74.3381 35.0381C74.6456 35.2437 75.0355 35.4872 75.4038 35.7199V35.7145ZM76.2577 82.7591C76.2577 82.7591 76.858 82.3533 77.4408 81.9839C77.6364 83.4085 77.8212 84.89 77.9521 86.2293C77.743 85.7639 77.5973 85.4474 77.5973 85.4474C77.3831 85.1892 77.2548 84.8704 77.2304 84.5355C77.2074 84.0133 76.2577 82.7646 76.2577 82.7646V82.7591ZM72.6977 33.4159C72.8326 33.4349 73.0241 33.6067 73.2049 33.8124C73.0376 33.6771 72.869 33.5418 72.6963 33.4146L72.6977 33.4159ZM64.0087 51.1769C63.461 51.3501 61.6048 51.3244 60.5013 51.2594C60.9141 50.5519 61.3242 49.8321 61.6884 49.1868C61.9032 49.2426 62.1219 49.2819 62.3427 49.3045L65.9567 46.1211C67.3161 46.5993 68.7989 46.5897 70.1521 46.094L70.2506 46.2483C70.2924 46.3159 70.3369 46.3836 70.3855 46.4593L70.2951 46.3119C70.2951 46.3119 68.9002 47.1452 69.0419 47.5295C69.1835 47.9137 68.853 48.8729 68.3309 49.9011C68.196 50.1582 68.0787 50.4125 67.9653 50.6682C66.7836 50.7791 64.5564 51.0037 64.0087 51.1769ZM70.8657 95.5306L70.8455 95.1504C71.0748 95.1003 71.2259 95.0544 71.2259 95.0544C71.1785 94.4902 71.0992 93.9292 70.9885 93.374C70.8455 92.7977 70.9197 92.9898 71.4755 92.5623C72.0313 92.1348 71.4755 87.286 71.4755 87.286C71.4755 87.286 71.7453 86.9491 72.1729 87.8136C72.6005 88.6781 73.0295 89.2057 73.1725 89.2531C73.3155 89.3004 72.6019 90.2624 73.1725 91.1742C73.5268 91.7641 73.768 92.4152 73.8835 93.094C73.8835 93.094 73.5044 94.6187 74.0737 95.2965C74.1506 95.3755 74.2422 95.4385 74.3435 95.4819C74.3435 95.6077 74.3435 95.7416 74.3435 95.8674C74.3435 96.1204 74.3435 96.3369 74.3313 96.3829C74.3258 96.4153 74.312 96.4458 74.2913 96.4713C74.2706 96.4968 74.2437 96.5165 74.2131 96.5285C74.1826 96.5404 74.1494 96.5443 74.117 96.5397C74.0845 96.535 74.0538 96.522 74.0278 96.502C73.8808 96.4059 72.9486 96.621 73.012 97.2231C72.7916 97.4843 72.5417 97.719 72.2673 97.9225L70.9736 97.587L70.8657 95.5306Z" fill="url(#paint0_linear)"/>
<path d="M59.2136 45.7954C59.2136 45.7954 58.7617 49.5091 62.3461 49.8893L62.8857 47.3187L61.7565 45.7954L60.1391 45.2461L59.2136 45.7954Z" fill="#1482D1"/>
<path opacity="0.1" d="M60.1391 45.2461L59.2136 45.794C59.2136 45.794 58.7617 49.5077 62.346 49.8879" fill="black"/>
<path d="M65.7187 24.7972C65.7187 24.7972 63.3 24.946 60.8744 25.3492C60.6262 25.3916 60.3794 25.4367 60.1338 25.4845C59.9908 25.5115 59.8505 25.5399 59.7102 25.5711C58.4395 25.8335 57.282 26.1745 56.6075 26.6101C55.7981 27.131 55.5283 25.728 55.5027 23.7785C55.4919 23.0925 55.5148 22.3403 55.5512 21.58C55.5985 20.7006 55.6673 19.8104 55.7401 19.0095C55.9006 17.2345 56.0855 15.8545 56.0855 15.8545C56.0855 15.8545 56.9326 15.8545 58.0644 15.8153L58.4287 15.8017C58.7835 15.7882 59.1598 15.7693 59.5389 15.7463C59.7183 15.7368 59.8991 15.726 60.0785 15.7124C60.7962 15.661 61.5044 15.588 62.102 15.4933C62.7388 15.3904 63.2554 15.2606 63.536 15.0874C64.8176 14.3216 65.7187 24.7972 65.7187 24.7972Z" fill="#F8BDC5"/>
<path d="M76.4959 38.5106L76.0238 41.6534C76.0238 41.6534 74.9945 42.9386 75.1294 43.653C75.2643 44.3673 76.4514 75.936 76.4514 75.936C76.4514 75.936 78.7785 89.2676 77.9704 90.9817C77.1623 92.6958 77.9232 96.6964 77.9232 96.6964L82.7661 95.9347L84.385 37.6528L76.4959 38.5106Z" fill="#474463"/>
<path opacity="0.1" d="M76.4959 38.5106L76.0238 41.6534C76.0238 41.6534 74.9945 42.9386 75.1294 43.653C75.2643 44.3673 76.4514 75.936 76.4514 75.936C76.4514 75.936 78.7785 89.2676 77.9704 90.9817C77.1623 92.6958 77.9232 96.6964 77.9232 96.6964L82.7661 95.9347L84.385 37.6528L76.4959 38.5106Z" fill="black"/>
<path d="M87.1775 97.5053C87.0237 97.761 87.0359 98.5132 87.079 99.1531C87.1168 99.7037 87.1775 100.172 87.1775 100.172V103.409C87.1775 103.409 82.0027 101.601 79.1536 99.6956C77.9786 98.9096 77.6441 98.179 77.7088 97.5945C77.8033 96.7625 78.7071 96.22 79.1536 96.22C79.5799 96.22 80.9262 95.4745 82.0297 94.8157C82.8971 94.3002 83.6175 93.8389 83.6175 93.8389C83.6175 93.8389 87.4622 97.029 87.1775 97.5053Z" fill="#575988"/>
<path opacity="0.1" d="M87.1791 97.5053C87.0253 97.761 87.0374 98.5132 87.0806 99.1531C85.9299 98.6119 82.3672 95.1458 82.0312 94.8157C82.8987 94.3002 83.619 93.8389 83.619 93.8389C83.619 93.8389 87.4637 97.029 87.1791 97.5053Z" fill="black"/>
<path d="M97.813 40.7006L96.5787 45.2721C96.5787 45.2721 95.8664 46.6521 95.7693 47.319C95.6722 47.986 95.0098 48.9858 95.0098 48.9858C94.71 49.6439 94.5484 50.3567 94.5349 51.0801C94.4877 52.3667 93.5906 58.3182 92.5883 59.318L92.3509 63.1751C92.3509 63.1751 91.4066 63.8407 92.0662 64.7986C92.7259 65.7564 92.4939 68.2268 92.4939 68.2268C92.4939 68.2268 91.5914 68.9412 92.162 69.6555C92.7327 70.3698 92.3509 72.4655 92.3509 72.4655C92.3509 72.4655 91.8288 73.1311 92.0662 73.5126C92.3037 73.8942 91.8315 83.7027 91.8315 83.7027L90.6903 88.511C90.6903 88.511 90.1668 92.5115 89.8808 93.702C89.5949 94.8926 89.5962 96.3673 89.5962 96.3673C89.5962 96.3673 88.3619 98.9865 87.4594 98.8444C86.5569 98.7024 82.1901 94.415 82.1901 94.415L82.8066 79.9389C82.8066 79.9389 83.3287 73.7967 82.9968 72.6062C82.665 71.4156 82.4276 65.4642 82.4276 65.4642L81.7625 56.0845L75.1227 45.609C75.1227 45.609 74.6411 42.5609 76.0171 41.6571L76.2666 40.0106L76.4919 38.5143L84.3742 37.6566L96.433 34.5151C96.433 34.5151 97.3625 35.0901 97.8495 36.5256C98.1827 37.4929 98.3108 38.8566 97.813 40.7006Z" fill="#474463"/>
<path d="M76.8339 45.5176C76.8339 45.5176 71.2315 52.4174 71.4689 50.4895C71.6173 49.2786 70.8511 47.7999 70.2548 46.865C69.9027 46.309 69.6113 45.9451 69.6113 45.9451C69.6113 45.9451 73.0297 39.6608 73.2199 40.5172C73.2806 40.7878 73.6759 41.4088 74.1845 42.1177C75.2569 43.6032 76.8339 45.5176 76.8339 45.5176Z" fill="#FFC1C8"/>
<path opacity="0.3" d="M87.1775 102.736V103.412C87.1775 103.412 82.0027 101.604 79.1536 99.6987C77.9786 98.9127 77.6441 98.1821 77.7088 97.5977C79.2818 98.3959 82.2078 99.9179 83.0941 100.604C83.8468 101.186 85.7921 102.107 87.1775 102.736Z" fill="white"/>
<path d="M85.9594 105.304C86.8333 105.304 87.5417 104.594 87.5417 103.717C87.5417 102.841 86.8333 102.13 85.9594 102.13C85.0854 102.13 84.377 102.841 84.377 103.717C84.377 104.594 85.0854 105.304 85.9594 105.304Z" fill="#474463"/>
<path d="M69.7972 103.077C70.6711 103.077 71.3796 102.366 71.3796 101.49C71.3796 100.613 70.6711 99.9028 69.7972 99.9028C68.9233 99.9028 68.2148 100.613 68.2148 101.49C68.2148 102.366 68.9233 103.077 69.7972 103.077Z" fill="#474463"/>
<path d="M93.2697 102.054C93.2608 102.167 93.2292 102.277 93.1767 102.377L92.2323 103.41L79.0336 103.197L75.4844 103.139C75.4844 103.139 68.0136 101.775 66.558 101.139C65.1024 100.504 59.3799 99.34 59.3799 99.34C59.3799 99.34 55.9237 98.7583 55.4165 97.0766C55.2452 96.507 55.3315 96.0998 55.519 95.8103C55.8873 95.2434 56.6509 95.1243 56.6509 95.1243C58.2105 94.6623 59.878 94.7241 61.3994 95.3002L83.5231 101.008L83.8658 101.096C83.8658 101.096 91.7521 100.949 91.9113 100.977C93.1213 101.199 93.2981 101.714 93.2697 102.054Z" fill="#1482D1"/>
<path opacity="0.3" d="M93.2697 102.054C91.9423 101.881 89.6274 101.625 89.0311 101.872C89.0311 101.872 84.8209 101.349 79.0282 103.197L75.4844 103.139C75.4844 103.139 68.0136 101.776 66.558 101.14C65.1024 100.504 59.3799 99.3403 59.3799 99.3403C59.3799 99.3403 55.9237 98.7585 55.4165 97.0769C55.2452 96.5073 55.3315 96.1001 55.519 95.8105C55.7551 96.5005 56.2097 97.5003 56.9355 97.7804C58.0754 98.2201 62.7605 99.1157 62.7605 99.1157L72.0336 101.393C72.0336 101.393 77.3878 102.557 79.4721 101.799C80.326 101.49 81.9286 101.215 83.5191 101L83.8617 101.088C83.8617 101.088 91.748 100.941 91.9072 100.969C93.1213 101.199 93.2981 101.715 93.2697 102.054Z" fill="white"/>
<path d="M80.4631 100.34C80.4519 100.539 80.4271 100.738 80.3889 100.934C80.3889 100.934 75.144 101.122 72.4136 100.716C71.6595 100.604 71.2332 100.361 71.0214 100.072C70.9268 99.9351 70.8682 99.7766 70.851 99.611C70.8338 99.4455 70.8585 99.2783 70.9229 99.1248C70.9531 99.0366 70.9915 98.9515 71.0376 98.8705C71.2413 98.5133 71.5542 98.2603 71.7256 98.2941C72.2004 98.3902 73.0152 97.4134 73.0152 97.4134C72.9505 96.8168 73.8853 96.6017 74.031 96.6991C74.057 96.7191 74.0877 96.7321 74.1202 96.7368C74.1527 96.7414 74.1858 96.7376 74.2163 96.7256C74.2469 96.7136 74.2738 96.6939 74.2945 96.6684C74.3153 96.6429 74.329 96.6124 74.3346 96.58C74.344 96.5354 74.3467 96.3203 74.3467 96.0686C74.3467 95.6492 74.3346 95.1216 74.3346 95.1216L79.6065 95.7642L79.8156 96.7748C80.0071 97.6759 80.2742 98.9138 80.3889 99.3372C80.4686 99.665 80.4937 100.004 80.4631 100.34Z" fill="#474463"/>
<path opacity="0.1" d="M80.4632 100.339C80.452 100.539 80.4272 100.737 80.389 100.933C80.389 100.933 75.1441 101.121 72.4137 100.715C71.6596 100.603 71.2333 100.361 71.0215 100.071C71.7216 100.029 72.6322 100.006 73.1961 100.144C74.0001 100.345 78.8093 100.345 80.4632 100.339Z" fill="black"/>
<path d="M71.0333 98.8676C71.039 98.9164 71.0314 98.9659 71.0112 99.0107C70.991 99.0555 70.959 99.094 70.9186 99.1219C70.2549 99.636 67.0699 99.0773 67.0699 99.0773C67.0699 99.0773 60.5623 98.6714 59.5897 98.0058C59.5019 97.9479 59.4285 97.8706 59.3752 97.7798C58.9705 97.0466 60.4355 95.8154 60.5623 95.8154C60.6891 95.8154 62.4388 95.576 62.5561 95.553C63.3655 95.3893 64.1749 94.886 64.3098 95.0294C64.4447 95.1728 65.1192 94.8386 65.4484 94.7913C65.5685 94.7737 65.6238 94.6032 65.644 94.3854C65.663 94.0907 65.653 93.7948 65.6143 93.502L70.8121 94.9049L70.8579 95.7356L71.0077 98.5009L71.0266 98.8405C71.0298 98.8492 71.0321 98.8583 71.0333 98.8676Z" fill="#474463"/>
<path opacity="0.1" d="M67.0737 99.0772C67.0737 99.0772 60.566 98.6713 59.5934 98.0057C59.5056 97.9479 59.4322 97.8706 59.3789 97.7798C60.6969 97.888 62.8944 98.0707 63.291 98.1721C63.8617 98.3074 67.0683 98.5049 67.0683 98.5049H71.0114L71.0303 98.8445C71.2017 99.8024 67.0737 99.0772 67.0737 99.0772Z" fill="black"/>
<path d="M61.8734 103.077C62.7473 103.077 63.4558 102.366 63.4558 101.49C63.4558 100.613 62.7473 99.9028 61.8734 99.9028C60.9995 99.9028 60.291 100.613 60.291 101.49C60.291 102.366 60.9995 103.077 61.8734 103.077Z" fill="#474463"/>
<path d="M79.059 106.371C79.9329 106.371 80.6414 105.66 80.6414 104.784C80.6414 103.907 79.9329 103.197 79.059 103.197C78.185 103.197 77.4766 103.907 77.4766 104.784C77.4766 105.66 78.185 106.371 79.059 106.371Z" fill="#474463"/>
<path d="M62.9649 47.5101C62.9649 47.5101 62.6654 48.0513 62.2149 48.8549C61.1356 50.7652 59.1944 54.1515 58.3594 55.223C57.1722 56.7464 57.268 55.3191 55.9851 52.1289C55.0327 49.7559 57.9641 47.0407 59.5317 45.8068C60.0713 45.378 60.449 45.1304 60.449 45.1304L62.9649 47.5101Z" fill="#F8BDC5"/>
<path d="M68.7097 51.1768C68.7097 51.1768 64.7693 51.5096 64.0098 51.7477C63.2503 51.9858 59.9749 51.8424 59.693 51.7477C59.411 51.653 53.8045 52.9382 56.369 54.2235C58.9335 55.5088 60.5509 54.2235 60.5509 54.2235C60.5509 54.2235 63.8749 54.0328 64.7329 54.5577C65.5908 55.0826 68.7205 54.7958 68.7205 54.7958L68.7097 51.1768Z" fill="#FFC1C8"/>
<path opacity="0.1" d="M60.5232 22.0357C61.0089 23.2817 60.7053 24.3667 60.1334 25.4802C58.7007 25.7507 57.353 26.1228 56.603 26.6058C54.4662 27.9871 56.0809 15.8448 56.0809 15.8448C56.0809 15.8448 57.1143 15.8448 58.4242 15.792C58.0276 17.6076 59.5304 19.4922 60.5232 22.0357Z" fill="black"/>
<path d="M60.6432 21.7655C60.6407 23.7598 59.9062 25.6833 58.5799 27.1692C57.2536 28.6551 55.4283 29.5994 53.4522 29.8219C51.4761 30.0444 49.4874 29.5295 47.8656 28.3756C46.2438 27.2216 45.1023 25.5093 44.6589 23.5652C44.2155 21.6211 44.5012 19.5814 45.4615 17.8351C46.4218 16.0888 47.9895 14.7581 49.8655 14.0969C51.7416 13.4356 53.7947 13.4902 55.6332 14.25C57.4717 15.0099 58.967 16.422 59.8338 18.2168C60.368 19.323 60.6448 20.5364 60.6432 21.7655Z" fill="#F8BDC5"/>
<path opacity="0.1" d="M97.8522 36.5216C97.5959 36.8957 97.2121 37.1627 96.773 37.2725C94.9208 37.7961 81.8637 40.9389 81.0098 40.7481C80.2557 40.5804 77.0194 40.1136 76.2734 40.0067L76.4987 38.5104L84.381 37.6527L96.4398 34.5112C96.4398 34.5112 97.3652 35.0862 97.8522 36.5216Z" fill="black"/>
<path opacity="0.1" d="M65.7185 24.7974C64.1751 24.8902 62.6375 25.0618 61.1116 25.3115C61.1333 25.2419 61.1304 25.1669 61.1035 25.0991L64.2602 24.7081C64.2602 24.7081 63.7988 17.2671 62.1018 15.484C62.7385 15.3812 63.2552 15.2513 63.5358 15.0781C64.8173 14.3219 65.7185 24.7974 65.7185 24.7974Z" fill="black"/>
<path d="M61.5893 13.6228C61.5893 13.6228 64.3912 13.3698 64.7702 12.8936C65.1493 12.4174 67.8568 12.2753 67.8568 12.2753C67.8568 12.2753 69.1856 12.0372 69.4756 11.703C69.7656 11.3689 76.9761 10.9413 77.6884 11.3229C78.4007 11.7044 79.0657 11.9411 79.4933 11.9898C79.921 12.0385 83.2436 14.4169 83.5755 14.4169C83.9073 14.4169 93.0185 23.0363 93.0185 23.0363C93.0185 23.0363 93.9629 25.2267 94.3487 25.3214C94.7345 25.4161 98.1475 34.0828 98.1475 34.0828C98.1475 34.0828 98.6223 36.1771 96.7715 36.702C94.9207 37.2269 81.8622 40.3684 81.0083 40.1776C80.1544 39.9869 76.1181 39.416 76.1181 39.416C76.1181 39.416 76.1653 39.416 76.0709 38.8924C75.9765 38.3688 75.8335 38.5109 76.0223 38.0346C76.2112 37.5584 76.4028 37.6058 76.1653 37.3203C75.9279 37.0348 76.1653 36.8914 75.4058 36.4152C74.6463 35.939 73.787 35.4154 73.7439 35.2734C73.7007 35.1313 73.0316 34.1775 72.6997 34.1301C72.3679 34.0828 63.061 31.4636 63.061 31.4636L60.877 30.7492C60.877 30.7492 59.8329 30.0349 60.0676 29.6074C60.3023 29.1799 61.1104 25.3119 61.1104 25.3119L64.4492 24.8993C64.4492 24.8993 63.9514 16.8359 62.0817 15.483C60.2119 14.1301 61.5893 13.6228 61.5893 13.6228Z" fill="#1482D1"/>
<path opacity="0.1" d="M62.9645 47.5101C62.9645 47.5101 62.665 48.0513 62.2144 48.8549C62.1443 46.371 60.4122 45.8894 59.5312 45.8068C60.0709 45.378 60.4486 45.1304 60.4486 45.1304L62.9645 47.5101Z" fill="black"/>
<path d="M60.6461 29.4634L60.8755 30.7486C60.8755 30.7486 61.778 31.8445 61.778 32.1773C61.778 32.5101 62.8221 33.4626 63.1081 33.9861C63.3941 34.5097 64.3896 34.6058 64.0092 35.5109C63.6288 36.416 61.4461 43.3198 61.4461 43.3198L59.2148 45.7957C59.2148 45.7957 62.9179 45.4615 62.3472 49.8896L67.143 45.6955L70.8986 38.8431C70.8986 38.8431 67.2428 31.8918 67.1012 31.3209C66.9595 30.75 60.6461 29.4634 60.6461 29.4634Z" fill="#1482D1"/>
<path opacity="0.1" d="M71.748 31.8447C71.748 31.8447 74.786 29.7017 74.786 29.4635C74.786 29.2254 71.748 31.8447 71.748 31.8447Z" fill="black"/>
<path opacity="0.1" d="M76.832 34.511C76.832 34.511 78.4509 34.1295 78.5858 33.2731C78.7207 32.4167 76.832 34.511 76.832 34.511Z" fill="black"/>
<path opacity="0.1" d="M78.1582 36.7014C78.1582 36.7014 80.4381 35.5691 80.3423 35.3729C80.2465 35.1767 78.1582 36.7014 78.1582 36.7014Z" fill="black"/>
<path opacity="0.1" d="M90.3603 29.4487C90.3603 29.4487 89.416 30.067 89.6966 30.6461C89.9772 31.2251 90.3603 29.4487 90.3603 29.4487Z" fill="black"/>
<path opacity="0.1" d="M93.1574 29.7017C93.1574 29.7017 90.4675 32.2722 91.0759 32.3209C91.6843 32.3696 93.1574 29.7017 93.1574 29.7017Z" fill="black"/>
<path opacity="0.1" d="M87.0371 69.5557C87.0371 69.5557 90.5027 70.2226 90.5972 70.4607C90.6916 70.6988 87.0371 69.5557 87.0371 69.5557Z" fill="black"/>
<path opacity="0.1" d="M88.2715 71.8408C88.2715 71.8408 90.1223 72.984 90.1695 73.3168C90.2167 73.6497 88.2715 71.8408 88.2715 71.8408Z" fill="black"/>
<path opacity="0.1" d="M87.8438 74.4131C87.8438 74.4131 88.1284 75.6983 88.6033 75.8891C89.0781 76.0798 87.8438 74.4131 87.8438 74.4131Z" fill="black"/>
<path opacity="0.1" d="M59.8432 18.175C59.8432 18.1886 59.8432 18.2034 59.8364 18.217C59.7717 18.6404 59.599 19.0991 59.2024 19.2398C58.9628 19.3074 58.7067 19.2838 58.4834 19.1735C57.8089 18.8772 57.2085 18.1656 56.4882 18.3374C56.1455 18.4186 55.9054 18.6797 55.7354 19.0003C55.6176 19.2311 55.527 19.4749 55.4656 19.7268C55.3307 20.2572 55.2228 20.8335 55.4292 21.3381C55.4631 21.4207 55.5037 21.5003 55.5506 21.5762C55.7422 21.8833 56.012 22.1445 56.2008 22.4543C56.4356 22.8412 56.4963 23.4216 56.1307 23.6868C56.0389 23.7472 55.935 23.7865 55.8262 23.8017C55.7175 23.8169 55.6068 23.8077 55.502 23.7747C55.2342 23.6903 54.9767 23.576 54.7345 23.4338C54.2569 23.1835 53.6552 23.0279 53.202 23.3174C53.0455 23.4148 52.92 23.5555 52.7703 23.6584C52.459 23.8517 52.0898 23.9288 51.7275 23.8762C50.8695 23.7882 50.5485 23.243 49.8928 22.8209C49.4126 22.5097 48.4089 22.3772 48.1229 23.013C47.9395 23.4189 48.212 23.9303 48.0326 24.3443C47.8531 24.7583 47.2825 24.8854 47.0181 25.2697C46.6701 25.7757 46.9938 26.5076 46.7389 27.069C46.6998 27.156 46.6475 27.2364 46.5837 27.3072C45.1542 25.7623 44.3777 23.7217 44.4175 21.6145C44.4573 19.5073 45.3103 17.4977 46.7972 16.0082C48.2841 14.5188 50.2889 13.6657 52.3901 13.6282C54.4913 13.5908 56.5251 14.372 58.0638 15.8074L58.428 15.7939C58.7828 15.7804 59.1592 15.7614 59.5383 15.7384C59.6279 15.9288 59.698 16.1278 59.7474 16.3324C59.8941 16.9351 59.9266 17.5602 59.8432 18.175Z" fill="black"/>
<path d="M47.9301 22.8237C47.7453 23.2296 48.0178 23.7409 47.8397 24.1536C47.6616 24.5662 47.0869 24.6947 46.8252 25.079C46.4758 25.5863 46.7996 26.3182 46.546 26.8783C46.2546 27.5183 45.375 27.6184 44.7005 27.4317C44.1243 27.2666 43.5955 26.9665 43.1578 26.556C42.7201 26.1455 42.386 25.6364 42.1833 25.0709C41.726 23.7653 42.0214 22.3285 41.9027 20.9499C41.8521 20.3591 41.7252 19.7775 41.525 19.2195C41.3294 18.6784 41.0623 18.1453 40.9988 17.5703C40.9535 17.0825 41.0549 16.5922 41.2901 16.1627C41.5252 15.7332 41.8833 15.3842 42.3182 15.1608C42.874 14.8902 43.5579 14.8131 43.9626 14.3491C44.2729 13.9892 44.339 13.4873 44.4833 13.034C44.8732 11.8164 46.0374 10.8234 47.3163 10.8356C48.3388 10.8437 49.3398 11.4484 50.3394 11.2103C50.9046 11.075 51.4186 10.6692 52.0014 10.7273C52.2805 10.7714 52.548 10.8712 52.7879 11.0209C54.3394 11.8614 55.8158 12.8346 57.2005 13.9297C57.4869 14.1771 57.8006 14.3909 58.1353 14.5669C58.3509 14.6512 58.5613 14.7483 58.7653 14.8578C59.2011 15.1283 59.429 15.6438 59.5532 16.1444C59.7021 16.7468 59.736 17.372 59.653 17.987C59.5936 18.4213 59.4236 18.9084 59.0122 19.0531C58.7718 19.1204 58.5152 19.0958 58.2918 18.9841C57.6173 18.6906 57.0184 17.9789 56.298 18.1494C55.7098 18.2847 55.4265 18.953 55.2727 19.5388C55.1378 20.0692 55.0272 20.6455 55.2363 21.1515C55.409 21.5709 55.7759 21.878 56.0066 22.2663C56.2373 22.6546 56.3034 23.235 55.9365 23.4988C55.5318 23.7924 54.9827 23.4798 54.5389 23.2471C54.064 22.9969 53.4597 22.8413 53.0078 23.1294C52.8526 23.2268 52.7272 23.3675 52.5761 23.4717C52.2646 23.6632 51.8963 23.7397 51.5346 23.6882C50.6753 23.6002 50.3542 23.055 49.7 22.6329C49.2184 22.319 48.2174 22.1865 47.9301 22.8237Z" fill="#474463"/>
<path opacity="0.1" d="M74.1845 42.1108C74.1481 42.3138 73.8702 42.3368 73.8135 42.5343C73.2739 44.4432 72.0868 46.1601 70.2548 46.8636C69.9027 46.3075 69.6113 45.9436 69.6113 45.9436C69.6113 45.9436 73.0297 39.6594 73.2199 40.5157C73.2806 40.7823 73.6759 41.4019 74.1845 42.1108Z" fill="black"/>
<path d="M74.285 40.7955C74.2853 42.0387 73.9179 43.2541 73.2294 44.288C72.5409 45.3218 71.5621 46.1277 70.4169 46.6036C69.2717 47.0796 68.0115 47.2042 66.7956 46.9618C65.5797 46.7195 64.4628 46.1209 63.5862 45.2419C62.7095 44.3629 62.1125 43.2429 61.8705 42.0236C61.6286 40.8043 61.7526 39.5404 62.227 38.3918C62.7013 37.2432 63.5046 36.2614 64.5353 35.5707C65.566 34.88 66.7779 34.5113 68.0175 34.5113C68.8413 34.5082 69.6576 34.6687 70.4192 34.9834C71.1809 35.2981 71.873 35.7609 72.4556 36.345C73.0382 36.9292 73.4997 37.6231 73.8137 38.3869C74.1277 39.1508 74.2879 39.9693 74.285 40.7955Z" fill="#FFC1C8"/>
<path opacity="0.1" d="M70.8208 94.9088L70.8667 95.7395C70.3176 95.8613 69.2735 96.0209 68.6651 95.6475C67.8786 95.1645 66.7171 95.0468 65.6527 94.3893C65.6717 94.0946 65.6618 93.7987 65.623 93.5059L70.8208 94.9088Z" fill="black"/>
<path opacity="0.1" d="M79.8143 96.7773C79.7778 96.9627 79.7441 97.0763 79.7441 97.0763C79.7441 97.0763 75.5554 96.6461 74.3481 96.0657C74.3481 95.6463 74.3359 95.1187 74.3359 95.1187L79.6079 95.7613L79.8143 96.7773Z" fill="black"/>
<path d="M78.8708 77.8881C78.5862 78.6497 78.4432 78.7932 78.7291 79.1733C79.0151 79.5535 78.8708 81.5544 78.4175 81.7438C77.9643 81.9333 76.2591 83.0765 76.2591 83.0765C76.2591 83.0765 77.2034 84.3144 77.2317 84.8352C77.2566 85.168 77.3849 85.4846 77.5987 85.7403C77.5987 85.7403 79.061 88.8831 79.3524 89.8829C79.6438 90.8827 79.9109 92.4535 79.9109 92.4535C79.9109 92.4535 79.3996 93.8821 79.7531 94.6925C80.1065 95.5029 79.7531 96.6921 79.7531 96.6921C79.7531 96.6921 74.6524 96.1685 74.0872 95.4961C73.522 94.8238 73.8983 93.3112 73.8983 93.3112C73.7818 92.6372 73.5402 91.991 73.1861 91.4063C72.6154 90.5012 73.321 89.5501 73.1861 89.5014C73.0512 89.4527 72.6154 88.9305 72.1864 88.0741C71.7574 87.2177 71.4903 87.5492 71.4903 87.5492C71.4903 87.5492 72.0461 92.3588 71.4903 92.7876C70.9346 93.2165 70.859 93.0257 71.002 93.5994C71.1128 94.15 71.1921 94.7065 71.2394 95.2662C71.2394 95.2662 69.5302 95.7897 68.6763 95.2662C67.8224 94.7426 66.5368 94.6465 65.4076 93.8375C64.2785 93.0284 65.9189 91.6471 66.2036 91.4564C66.4882 91.2656 66.1091 88.5043 66.1091 88.5043L65.7287 85.7904C65.7287 85.7904 67.0103 86.0759 66.5894 85.0287C66.1685 83.9816 65.6815 80.3625 65.4441 79.7916C65.2066 79.2207 66.2535 78.4576 66.1091 78.0775C65.9648 77.6973 66.7256 75.5069 66.7256 75.5069C66.7256 75.5069 66.7742 73.6981 67.2477 73.3585C67.4285 73.2313 67.5458 72.8363 67.6241 72.3993C67.7071 71.8836 67.7562 71.3629 67.7711 70.8408C67.7711 70.8408 78.6428 70.0791 80.3992 71.1262C81.1898 71.597 81.1344 72.4642 80.8039 73.3423C80.3992 74.4138 79.5682 75.5069 79.3591 75.9033C78.9666 76.6339 79.1554 77.1264 78.8708 77.8881Z" fill="#575988"/>
<path opacity="0.1" d="M80.7891 73.3423C79.4401 73.7224 77.6432 74.2812 77.3505 74.6018C76.8756 75.1267 75.2608 71.6498 75.2608 71.6498C75.2608 71.6498 75.3566 74.2636 73.2198 73.1705C71.3703 72.2234 68.3849 72.3479 67.6133 72.3993C67.6963 71.8836 67.7454 71.3629 67.7603 70.8408C67.7603 70.8408 78.632 70.0791 80.3884 71.1262C81.179 71.597 81.1237 72.4642 80.7891 73.3423Z" fill="black"/>
<path d="M75.2601 44.5582C75.2601 44.5582 76.2044 43.4149 76.4 43.8438C76.5956 44.2727 77.7099 45.1291 77.7099 45.1291C77.7099 45.1291 78.0296 46.1289 78.5922 46.2723C79.1547 46.4157 83.3798 52.129 83.3798 52.129L81.8595 55.2231L80.6251 62.7466C80.6251 62.7466 80.6791 63.9372 80.3432 64.3701C80.0073 64.8031 78.7244 64.7029 79.3193 65.2265C79.9142 65.7501 80.7681 66.2263 81.243 68.6088C81.7178 70.9913 82.2871 72.3699 82.2871 72.3699C82.2871 72.3699 77.8246 73.5131 77.3497 74.0366C76.8749 74.5602 75.2601 71.0846 75.2601 71.0846C75.2601 71.0846 75.3559 73.6971 73.2191 72.6053C71.0822 71.5135 67.4264 71.8463 67.4264 71.8463V69.0322C67.4264 69.0322 68.1387 67.9364 67.7596 67.1747C67.3805 66.413 68.0186 64.9843 68.0186 64.9843C68.0186 64.9843 67.8068 63.5083 67.4264 62.6519C67.046 61.7955 67.189 57.7476 67.189 57.7476C67.189 57.7476 66.9003 55.1284 67.1634 53.7944C67.3866 52.6382 67.7808 51.5219 68.3329 50.4825C68.855 49.4624 69.1855 48.51 69.0439 48.1285C68.9022 47.747 70.2971 46.9217 70.2971 46.9217L71.0701 48.1758L71.267 48.9253C71.267 48.9253 75.3559 45.9868 75.2601 44.5582Z" fill="#DCE6F2"/>
<path d="M82.0945 51.1768C82.0945 51.1768 84.7534 53.7946 85.038 54.2235C85.3227 54.6524 86.2764 56.882 85.0421 57.5584C83.8077 58.2349 78.9715 59.278 78.4913 58.9181C78.011 58.5582 75.1188 59.324 75.1188 59.324C75.1188 59.324 70.2812 60.5145 71.3253 58.5623C72.3695 56.61 74.8395 56.9388 74.8395 56.9388C74.8395 56.9388 78.8299 56.932 79.2562 56.5329C79.6825 56.1338 82.8985 55.2774 82.17 53.5132C81.4416 51.749 82.0945 51.1768 82.0945 51.1768Z" fill="#FFC1C8"/>
<path opacity="0.1" d="M74.286 62.8901C74.286 62.8901 68.0927 68.2707 68.7092 68.2707C69.3257 68.2707 74.286 62.8901 74.286 62.8901Z" fill="black"/>
<path opacity="0.1" d="M78.4159 65.0801C78.4159 65.0801 76.4477 65.555 76.8281 65.8418C77.2085 66.1286 78.4159 65.0801 78.4159 65.0801Z" fill="black"/>
<path opacity="0.1" d="M71.4766 52.0332C71.4766 52.0332 73.9331 52.2537 73.5 53.0249C73.067 53.796 71.4766 52.0332 71.4766 52.0332Z" fill="black"/>
<path opacity="0.1" d="M69.945 75.1577C69.945 75.1577 69.6118 76.1264 69.945 76.6459C70.2782 77.1654 69.945 78.4047 69.945 78.4047V82.734C69.945 82.734 69.8991 85.8768 71.0363 86.9713L69.945 75.1577Z" fill="black"/>
<path opacity="0.1" d="M66.6914 88.6494C66.6914 88.6494 67.3551 89.6249 67.4509 89.982C67.5467 90.3392 66.6914 88.6494 66.6914 88.6494Z" fill="black"/>
<path opacity="0.1" d="M66.8594 86.697C66.8594 86.697 68.4026 86.4116 68.6401 86.578C68.8775 86.7444 66.8594 86.697 66.8594 86.697Z" fill="black"/>
<path opacity="0.1" d="M66.4081 92.5298C66.4081 92.5298 65.9562 92.5771 66.8586 93.071C67.7611 93.5648 69.5175 94.1898 69.5405 93.9761C69.5634 93.7623 66.4081 92.5298 66.4081 92.5298Z" fill="black"/>
<path opacity="0.1" d="M73.0137 87.791C73.1729 87.791 75.1599 87.672 75.0453 87.9818C74.9306 88.2916 73.0137 87.791 73.0137 87.791Z" fill="black"/>
<path opacity="0.1" d="M75.7129 85.0058C75.7129 85.0058 76.1635 84.2211 76.3294 84.5539C76.4953 84.8867 75.7129 85.0058 75.7129 85.0058Z" fill="black"/>
<path opacity="0.1" d="M74.2856 40.7956C74.2863 41.3799 74.2055 41.9615 74.0455 42.5233C73.7838 42.7614 73.3318 42.7641 73.0094 42.5869C72.6317 42.3785 72.3848 41.9997 72.1393 41.6398C71.8938 41.28 71.6146 40.9201 71.2126 40.7659C70.704 40.5738 70.1239 40.7659 69.6814 41.0852C69.239 41.4044 68.8855 41.8265 68.4673 42.1675C68.0491 42.5084 67.5163 42.7844 66.9834 42.7005C66.6394 42.6478 66.3345 42.4529 66.0391 42.2649C65.6344 42.0092 65.2 41.6114 64.7562 41.4396C64.3124 41.2678 63.9468 41.5749 63.5246 41.5749C63.1886 41.6967 62.8231 41.974 62.8905 42.3244C62.9267 42.4544 62.9851 42.5771 63.0632 42.687C63.1988 42.9548 63.2523 43.2569 63.217 43.5552C63.1817 43.8535 63.0592 44.1347 62.8649 44.3633C62.3057 43.5525 61.9445 42.6213 61.8105 41.6447C61.6765 40.6681 61.7733 39.6736 62.0933 38.7415C62.4132 37.8095 62.9473 36.9659 63.6523 36.279C64.3574 35.5922 65.2136 35.0812 66.1519 34.7875C67.0902 34.4937 68.0842 34.4255 69.0537 34.5881C70.0231 34.7508 70.9408 35.1398 71.7327 35.7239C72.5246 36.3079 73.1683 37.0705 73.612 37.9502C74.0557 38.8298 74.2869 39.8017 74.2869 40.7875L74.2856 40.7956Z" fill="black"/>
<path d="M63.5237 41.3919C63.1878 41.5136 62.8222 41.791 62.8883 42.1427C62.9258 42.2721 62.9846 42.3942 63.0623 42.504C63.4563 43.2088 63.1231 44.2208 62.3878 44.5482C62.2726 44.6084 62.141 44.6293 62.0128 44.6077C61.9112 44.5761 61.8187 44.5204 61.743 44.4454C61.3476 44.091 61.075 43.6195 60.9646 43.0992C60.8486 42.5581 60.9201 41.9845 60.8608 41.4284C60.8014 40.8724 60.6112 40.3244 60.5451 39.7643C60.4983 39.4875 60.5277 39.2031 60.6301 38.9418C60.7191 38.7693 60.8337 38.6115 60.97 38.4737C61.3491 38.0502 61.7444 37.6173 61.9346 37.0802C62.2354 36.2251 62.0169 35.136 62.6752 34.5097C62.9801 34.2228 63.4063 34.116 63.7841 33.9347C64.1397 33.7453 64.4802 33.5286 64.8026 33.2866C66.0234 32.4451 67.5073 31.7984 68.9589 32.0961C69.5388 32.2369 70.0942 32.465 70.606 32.7725C71.5568 33.2981 72.4596 33.9066 73.3041 34.5908C73.6692 34.8617 73.9881 35.1902 74.2484 35.5636C74.4422 35.8832 74.5817 36.233 74.6612 36.5985C74.855 37.3961 74.8817 38.2253 74.7394 39.0338C74.6045 39.8266 74.2983 40.5964 74.2861 41.4013C74.2861 41.6719 74.3077 41.9642 74.1688 42.1969C73.9462 42.5676 73.3945 42.6027 73.0167 42.3971C72.639 42.1914 72.3921 41.8099 72.148 41.4501C71.9038 41.0902 71.6232 40.7303 71.2212 40.5774C70.7126 40.384 70.1325 40.5774 69.6901 40.8954C69.2476 41.2133 68.8955 41.6368 68.4759 41.9777C68.0564 42.3186 67.5316 42.5946 66.992 42.5107C66.648 42.458 66.3431 42.2645 66.0477 42.0764C65.643 41.8194 65.2086 41.4216 64.7662 41.2512C64.3237 41.0807 63.9446 41.3919 63.5237 41.3919Z" fill="#794F6A"/>
<path d="M77.9205 51.1768C77.9205 51.1768 70.9421 57.6518 72.3653 60.8893C73.7885 64.1268 80.0547 58.4135 80.0547 58.4135L82.2886 53.2291L77.9205 51.1768Z" fill="#F8BDC5"/>
<g opacity="0.1">
<path opacity="0.1" d="M62.385 44.164C62.2702 44.2242 62.139 44.2451 62.0113 44.2236C61.9092 44.1922 61.8165 44.136 61.7415 44.0599C61.3461 43.7058 61.073 43.2349 60.9618 42.7151C60.8471 42.1671 60.9186 41.5989 60.8593 41.0429C60.7999 40.4868 60.6083 39.9403 60.5436 39.3788C60.5436 39.3517 60.5436 39.3233 60.5368 39.2949C60.5222 39.4498 60.5245 39.6059 60.5436 39.7603C60.6083 40.3204 60.7999 40.8616 60.8593 41.4244C60.9186 41.9872 60.8471 42.5487 60.9618 43.0952C61.0727 43.6156 61.3457 44.087 61.7415 44.4414C61.817 44.5167 61.9096 44.5724 62.0113 44.6037C62.139 44.6253 62.2702 44.6044 62.385 44.5442C62.965 44.2858 63.2928 43.6053 63.216 42.9829C63.1878 43.2341 63.0969 43.474 62.9516 43.6805C62.8064 43.8869 62.6115 44.0533 62.385 44.164Z" fill="black"/>
<path opacity="0.1" d="M74.7286 38.6508C74.5937 39.4436 74.2875 40.2134 74.2767 41.0184C74.2767 41.2889 74.2983 41.5812 74.158 41.8139C73.9368 42.1846 73.385 42.2197 73.0073 42.0141C72.6296 41.8085 72.3827 41.4283 72.1372 41.0671C71.8917 40.7058 71.6138 40.3473 71.2104 40.1944C70.7032 40.0023 70.1231 40.1944 69.6806 40.5137C69.2382 40.833 68.8847 41.2538 68.4665 41.5961C68.0483 41.9383 67.5155 42.213 66.9826 42.1305C66.6386 42.0763 66.3337 41.8829 66.0383 41.6948C65.6336 41.4378 65.1992 41.0414 64.7568 40.8695C64.3143 40.6977 63.9473 41.0048 63.5251 41.0048C63.1892 41.1279 62.8236 41.4039 62.8884 41.757C62.8966 41.7952 62.9088 41.8324 62.9248 41.868C63.057 41.6371 63.2715 41.465 63.5251 41.3864C63.946 41.3864 64.3183 41.0833 64.7568 41.2511C65.1952 41.4188 65.6377 41.8193 66.0383 42.0763C66.331 42.2644 66.6359 42.4579 66.9826 42.5106C67.5222 42.5945 68.051 42.3226 68.4665 41.9776C68.882 41.6326 69.2395 41.2064 69.6806 40.8953C70.1218 40.5841 70.7032 40.3839 71.2104 40.5773C71.6151 40.7302 71.893 41.0941 72.1372 41.4499C72.3814 41.8058 72.6296 42.1832 73.0073 42.397C73.385 42.6107 73.9368 42.5674 74.158 42.1967C74.2929 41.964 74.2727 41.6732 74.2767 41.4012C74.2875 40.5963 74.5897 39.8265 74.7286 39.0337C74.7998 38.6265 74.8288 38.213 74.815 37.7998C74.8064 38.0852 74.7776 38.3695 74.7286 38.6508Z" fill="black"/>
</g>
<path opacity="0.1" d="M69.5638 18.226C69.5638 18.226 67.0006 22.8922 70.5081 25.2733C74.0155 27.6544 74.3541 27.4163 74.3541 27.4163C74.3541 27.4163 74.3055 27.9872 74.3541 28.1306C74.4027 28.274 75.2984 28.6055 75.2984 28.6055C75.2984 28.6055 76.3897 30.3643 77.9559 31.13C79.5221 31.8957 79.8081 33.7005 79.8081 33.7005C79.8081 33.7005 79.8081 34.3202 80.6175 34.8911C81.4269 35.462 82.0502 37.1288 82.0502 37.1288V38.6535C82.0502 38.8916 82.3348 39.6005 81.7183 39.6763C81.1018 39.7521 81.6226 41.1767 81.6226 41.1767C81.6226 41.1767 80.9588 41.9884 81.1005 42.3672C81.2421 42.7461 80.8159 43.5091 80.8159 43.5091C80.8159 43.5091 80.2938 44.2708 80.341 44.4142C80.3882 44.5576 79.7717 45.0812 79.9134 45.414C80.055 45.7468 79.2024 46.1757 79.3441 46.5572C79.4857 46.9387 78.737 47.1281 78.737 47.1281L76.6852 51.8903C76.6852 51.8903 81.002 52.8374 82.1163 55.2226L87.5582 45.2232C87.5582 45.2232 90.5962 37.7484 90.6919 37.2722C90.7877 36.796 90.0269 35.0818 90.0269 35.0818L86.3239 28.3173L80.7686 20.461C80.7686 20.461 76.3533 11.0366 69.5638 18.226Z" fill="black"/>
<path opacity="0.1" d="M75.0459 20.1943C75.0459 20.1943 68.3764 22.5416 71.8893 24.9227C75.4021 27.3038 75.7353 27.0643 75.7353 27.0643C75.7353 27.0643 75.6881 27.6366 75.7353 27.7787C75.7825 27.9207 76.6796 28.2549 76.6796 28.2549C76.6796 28.2549 77.7723 30.0137 79.3385 30.7794C80.9047 31.5452 81.1907 33.3499 81.1907 33.3499C81.1907 33.3499 81.1907 33.9696 82.0001 34.5405C82.8095 35.1114 83.4246 36.7782 83.4246 36.7782V38.3016C83.4246 38.5397 83.7093 39.2486 83.0914 39.3257C82.4736 39.4028 82.997 40.8261 82.997 40.8261C82.997 40.8261 82.3319 41.6378 82.4749 42.0153C82.6179 42.3928 82.1903 43.1585 82.1903 43.1585C82.1903 43.1585 81.6682 43.9202 81.7154 44.0636C81.7627 44.207 81.1448 44.7306 81.2878 45.0634C81.4308 45.3962 80.5755 45.8251 80.7185 46.2066C80.8615 46.5881 80.1101 46.7775 80.1101 46.7775L78.0596 51.5384C78.0596 51.5384 81.6156 51.7224 82.738 54.109L88.9313 44.8781C88.9313 44.8781 91.9706 37.4033 92.0651 36.927C92.1595 36.4508 91.4027 34.7313 91.4027 34.7313L87.6997 27.9667L79.2522 23.08C79.2522 23.08 81.8355 13.0036 75.0459 20.1943Z" fill="black"/>
<path d="M69.9446 18.2265C69.9446 18.2265 67.3815 22.8926 70.8889 25.2737C74.3963 27.6549 74.7349 27.4167 74.7349 27.4167C74.7349 27.4167 74.6877 27.9877 74.7349 28.1311C74.7822 28.2745 75.6793 28.606 75.6793 28.606C75.6793 28.606 76.7719 30.3647 78.3381 31.1305C79.9043 31.8962 80.1903 33.701 80.1903 33.701C80.1903 33.701 80.1903 34.3206 80.9997 34.8916C81.8092 35.4625 82.431 37.1293 82.431 37.1293V38.654C82.431 38.8921 82.7157 39.601 82.0978 39.6768C81.48 39.7525 82.0034 41.1772 82.0034 41.1772C82.0034 41.1772 81.3383 41.9889 81.4813 42.3677C81.6243 42.7465 81.1967 43.5096 81.1967 43.5096C81.1967 43.5096 80.6746 44.2713 80.7219 44.4147C80.7691 44.5581 80.1512 45.0816 80.2942 45.4145C80.4372 45.7473 79.5819 46.1761 79.7249 46.5577C79.8679 46.9392 79.1165 47.1286 79.1165 47.1286L77.066 51.8908C77.066 51.8908 81.3748 52.8379 82.4958 55.223L87.9377 45.2237C87.9377 45.2237 90.977 37.7489 91.0714 37.2727C91.1659 36.7964 90.4064 35.0823 90.4064 35.0823L86.7034 28.3178L81.1495 20.4642C81.1495 20.4642 76.7328 11.0371 69.9446 18.2265Z" fill="#1482D1"/>
<g opacity="0.1">
<path opacity="0.1" d="M41.9027 20.5695C41.8528 19.9782 41.7259 19.396 41.525 18.8378C41.3294 18.2967 41.0623 17.7636 40.9989 17.1886C40.9989 17.171 40.9989 17.1548 40.9989 17.1372C40.9847 17.2812 40.9847 17.4262 40.9989 17.5701C41.0623 18.1451 41.3294 18.6741 41.525 19.2193C41.7259 19.7771 41.8529 20.3588 41.9027 20.9497C41.9216 21.1716 41.9297 21.3962 41.9324 21.6262C41.9365 21.2676 41.9324 20.9172 41.9027 20.5695Z" fill="black"/>
<path opacity="0.1" d="M46.5458 26.4983C46.2557 27.1369 45.3748 27.2384 44.7003 27.0503C44.1245 26.8848 43.5961 26.5847 43.1585 26.1745C42.7209 25.7643 42.3866 25.2558 42.1831 24.6909C41.9956 24.1095 41.9044 23.5011 41.9133 22.8901C41.9052 23.6356 41.9335 24.3716 42.1831 25.071C42.3865 25.6362 42.7208 26.1449 43.1584 26.5553C43.596 26.9657 44.1244 27.2661 44.7003 27.4319C45.3748 27.6186 46.2557 27.5184 46.5458 26.8785C46.6685 26.6079 46.6564 26.2941 46.651 25.9856C46.6485 26.1616 46.6128 26.3356 46.5458 26.4983Z" fill="black"/>
<path opacity="0.1" d="M59.6529 17.604C59.5949 18.0369 59.4236 18.524 59.0121 18.6687C58.7723 18.7359 58.5162 18.7118 58.2931 18.6011C57.6186 18.3061 57.0183 17.5945 56.2979 17.7663C55.7097 17.9016 55.4278 18.5686 55.2726 19.1558C55.1601 19.5268 55.1113 19.9143 55.1283 20.3017C55.1541 20.0427 55.2024 19.7865 55.2726 19.5359C55.4278 18.9501 55.7097 18.2872 56.2979 18.1465C57.0183 17.976 57.6132 18.6877 58.2931 18.9812C58.5159 19.0929 58.7722 19.1175 59.0121 19.0502C59.4236 18.9055 59.5949 18.4184 59.6529 17.9842C59.69 17.7076 59.7035 17.4283 59.6934 17.1494C59.6866 17.3009 59.6731 17.4538 59.6529 17.604Z" fill="black"/>
<path opacity="0.1" d="M55.9364 23.1157C55.5317 23.4093 54.9827 23.0968 54.5388 22.8627C54.064 22.6124 53.4596 22.4568 53.0077 22.745C52.8526 22.8424 52.7271 22.9831 52.576 23.0873C52.2651 23.2802 51.8963 23.3568 51.5346 23.3038C50.6753 23.2158 50.3542 22.6706 49.6999 22.2485C49.2197 21.9387 48.216 21.8061 47.93 22.442C47.8614 22.6292 47.8424 22.831 47.8747 23.0278C47.8836 22.9574 47.9022 22.8887 47.93 22.8235C48.2173 22.1863 49.2197 22.3189 49.6999 22.63C50.3542 23.0521 50.6753 23.5974 51.5346 23.6853C51.8964 23.7372 52.265 23.6601 52.576 23.4675C52.7271 23.3647 52.8526 23.2239 53.0077 23.1265C53.4637 22.8424 54.064 22.9912 54.5388 23.2442C54.9827 23.4769 55.529 23.7854 55.9364 23.4959C56.1738 23.3254 56.2305 23.0224 56.1779 22.7234C56.1502 22.8802 56.0638 23.0206 55.9364 23.1157Z" fill="black"/>
<path opacity="0.1" d="M47.8391 23.7733C47.6542 24.1981 47.0863 24.3145 46.8246 24.6974C46.629 24.9815 46.6452 25.3359 46.6519 25.6917C46.6494 25.475 46.7094 25.2622 46.8246 25.0789C47.0863 24.696 47.6542 24.5783 47.8391 24.1535C47.9037 23.9686 47.9213 23.7705 47.8903 23.5771C47.882 23.6445 47.8648 23.7105 47.8391 23.7733Z" fill="black"/>
</g>
</g>
<defs>
<linearGradient id="paint0_linear" x1="69.5922" y1="106.248" x2="69.5922" y2="9.81315" gradientUnits="userSpaceOnUse">
<stop stop-color="#808080" stop-opacity="0.25"/>
<stop offset="0.54" stop-color="#808080" stop-opacity="0.12"/>
<stop offset="1" stop-color="#808080" stop-opacity="0.1"/>
</linearGradient>
<clipPath id="clip0">
<rect width="148" height="107" fill="white"/>
</clipPath>
</defs>
</svg>
