<svg width="152" height="102" viewBox="0 0 152 102" fill="none" xmlns="http://www.w3.org/2000/svg">
<g clip-path="url(#clip0)">
<path d="M124.762 61.0675C124.862 61.0375 124.965 61.0155 125.069 61.0016L129.22 52.5498L127.952 50.646L130.569 48.354L133.859 52.3884L127.159 62.1607C127.324 62.5303 127.373 62.9414 127.299 63.3394C127.225 63.7373 127.031 64.1033 126.745 64.3886C126.458 64.6739 126.092 64.865 125.694 64.9365C125.297 65.008 124.887 64.9565 124.519 64.7888C124.151 64.6211 123.843 64.3453 123.636 63.9979C123.428 63.6505 123.331 63.2481 123.358 62.8441C123.384 62.4401 123.533 62.0538 123.783 61.7364C124.034 61.4191 124.375 61.1858 124.762 61.0675V61.0675Z" fill="#A0616A"/>
<path d="M131.847 49.5217C131.791 49.5814 131.726 49.6327 131.654 49.6738L127.408 52.141C127.306 52.2003 127.192 52.2377 127.075 52.2509C126.958 52.2641 126.839 52.2528 126.727 52.2177C126.614 52.1826 126.51 52.1244 126.421 52.0468C126.332 51.9693 126.26 51.8741 126.209 51.7672L124.144 47.3942C124.056 47.2102 124.037 47.0006 124.09 46.8038C124.144 46.6069 124.266 46.4359 124.435 46.3219L127.068 44.5273C127.232 44.4153 127.43 44.3644 127.628 44.3832C127.826 44.4021 128.011 44.4896 128.151 44.6306L131.831 48.331C131.987 48.4885 132.077 48.7008 132.08 48.923C132.083 49.1453 131.999 49.36 131.847 49.5217H131.847Z" fill="#CCCCCC"/>
<path d="M137.811 97.9526L135.569 98.564L132.148 90.1881L135.458 89.2856L137.811 97.9526Z" fill="#A0616A"/>
<path d="M133.793 98.3582L138.117 97.1792L138.858 99.9076L131.811 101.829C131.714 101.471 131.688 101.097 131.735 100.728C131.782 100.36 131.901 100.005 132.085 99.6823C132.269 99.36 132.514 99.0772 132.807 98.85C133.101 98.6228 133.435 98.4557 133.793 98.3582Z" fill="#2F2E41"/>
<path d="M118.642 99.6668L116.318 99.6667L115.213 90.6846L118.642 90.6848L118.642 99.6668Z" fill="#A0616A"/>
<path d="M114.66 99.001H119.141V101.829H111.838C111.838 101.457 111.911 101.09 112.053 100.747C112.194 100.403 112.402 100.092 112.664 99.8292C112.926 99.5666 113.237 99.3583 113.58 99.2162C113.922 99.0741 114.289 99.001 114.66 99.001Z" fill="#2F2E41"/>
<path d="M121.093 41.5453C123.664 41.5453 125.748 39.4566 125.748 36.8801C125.748 34.3035 123.664 32.2148 121.093 32.2148C118.522 32.2148 116.438 34.3035 116.438 36.8801C116.438 39.4566 118.522 41.5453 121.093 41.5453Z" fill="#A0616A"/>
<path d="M118.5 93.2622H115.325C115.108 93.2619 114.899 93.1788 114.741 93.0298C114.582 92.8809 114.487 92.6773 114.473 92.4602C113.526 77.386 114.08 66.5729 116.214 58.431C116.224 58.3954 116.235 58.3604 116.249 58.3262L116.419 57.9002C116.482 57.7412 116.591 57.6049 116.732 57.5091C116.874 57.4132 117.04 57.3622 117.211 57.3628H123.741C123.864 57.3627 123.986 57.3893 124.097 57.4409C124.209 57.4924 124.308 57.5676 124.388 57.6613L125.275 58.6983C125.293 58.7186 125.309 58.7392 125.324 58.7609C129.324 64.3501 132.908 75.2773 137.059 89.9646C137.12 90.178 137.096 90.407 136.991 90.6027C136.887 90.7985 136.71 90.9455 136.498 91.0124L133.086 92.1068C132.89 92.1686 132.678 92.1579 132.49 92.0766C132.301 91.9953 132.148 91.8489 132.058 91.6639L123.202 73.2569C123.14 73.1283 123.038 73.023 122.912 72.9568C122.786 72.8905 122.642 72.8668 122.501 72.8891C122.36 72.9114 122.23 72.9785 122.13 73.0805C122.031 73.1825 121.966 73.3141 121.947 73.4556L119.345 92.5233C119.317 92.7277 119.215 92.915 119.06 93.0507C118.905 93.1865 118.706 93.2616 118.5 93.2622Z" fill="#2F2E41"/>
<path d="M124.919 58.7742C124.91 58.7742 124.901 58.774 124.892 58.7738L116.961 58.5228C116.757 58.5171 116.562 58.4381 116.411 58.3002C116.26 58.1623 116.164 57.9748 116.14 57.7718C115.135 49.6153 117.892 47.4302 119.125 46.8695C119.227 46.8229 119.317 46.7504 119.384 46.6592C119.45 46.5679 119.493 46.4608 119.506 46.3484L119.613 45.4935C119.631 45.3425 119.689 45.1992 119.781 45.0783C121.713 42.5701 124.351 41.7669 125.752 41.5115C125.866 41.491 125.982 41.4939 126.095 41.52C126.207 41.5461 126.313 41.5948 126.406 41.6632C126.499 41.7316 126.577 41.8182 126.636 41.9178C126.695 42.0175 126.733 42.128 126.747 42.2427L126.907 43.4703C126.923 43.5874 126.97 43.6982 127.042 43.7916C131.072 49.0705 126.583 56.8649 125.642 58.3737C125.565 58.4962 125.458 58.5972 125.332 58.6672C125.206 58.7373 125.064 58.774 124.919 58.7742Z" fill="#CCCCCC"/>
<path d="M130.485 37.4059C129.446 35.9405 128.201 34.634 126.788 33.5272C125.613 32.6076 124.305 31.8219 122.862 31.4461C121.419 31.0703 119.826 31.1342 118.51 31.8353C117.193 32.5364 115.833 33.9294 115.824 35.4233C115.822 35.9032 115.943 36.5525 116.415 36.4694L116.551 36.4876C117.689 36.2573 118.827 36.027 119.964 35.7967C120.449 37.4819 120.934 39.1671 121.418 40.8522C121.52 41.2074 121.657 41.6046 121.994 41.756C122.311 41.8987 122.677 41.7643 122.997 41.6302C123.05 41.6081 123.503 40.5889 123.503 40.5889C123.515 40.5571 123.534 40.5289 123.56 40.5072C123.586 40.4855 123.617 40.4711 123.65 40.4655C123.684 40.4599 123.718 40.4633 123.749 40.4754C123.781 40.4875 123.809 40.5078 123.83 40.5342L124.099 40.8712C124.15 40.9357 124.221 40.9815 124.301 41.002C124.381 41.0224 124.465 41.0163 124.541 40.9845C126.396 40.2083 128.251 39.4322 130.107 38.656C130.363 38.5488 130.65 38.4087 130.724 38.1404C130.795 37.8833 130.639 37.6234 130.485 37.4059Z" fill="#2F2E41"/>
<path d="M151.811 102H94.7598C94.7096 102 94.6614 101.98 94.6258 101.945C94.5903 101.909 94.5703 101.861 94.5703 101.811C94.5703 101.76 94.5903 101.712 94.6258 101.676C94.6614 101.641 94.7096 101.621 94.7598 101.621H151.811C151.861 101.621 151.909 101.641 151.945 101.676C151.98 101.712 152 101.76 152 101.811C152 101.861 151.98 101.909 151.945 101.945C151.909 101.98 151.861 102 151.811 102Z" fill="#3F3D56"/>
<path d="M120.882 72.4001C120.753 72.3995 120.628 72.3579 120.524 72.2812L119.662 71.6531C119.59 71.6007 119.504 71.5725 119.415 71.5725C119.326 71.5725 119.24 71.6007 119.168 71.6531L118.306 72.2812C118.202 72.357 118.076 72.3978 117.948 72.3978C117.819 72.3978 117.694 72.357 117.59 72.2813C117.486 72.2055 117.408 72.0987 117.368 71.9761C117.329 71.8535 117.329 71.7215 117.368 71.5989L117.698 70.5825C117.725 70.4981 117.726 70.4071 117.698 70.3226C117.671 70.2381 117.617 70.1645 117.545 70.1125L116.683 69.4842C116.579 69.4084 116.501 69.3016 116.461 69.179C116.422 69.0564 116.422 68.9244 116.461 68.8018C116.501 68.6792 116.579 68.5724 116.683 68.4966C116.787 68.4209 116.912 68.3801 117.041 68.3801H118.107C118.196 68.3802 118.282 68.3522 118.354 68.3C118.426 68.2478 118.479 68.1741 118.506 68.0896L118.836 67.0732C118.875 66.9506 118.953 66.8437 119.057 66.7679C119.161 66.6922 119.286 66.6514 119.415 66.6514C119.544 66.6514 119.669 66.6922 119.773 66.7679C119.877 66.8437 119.954 66.9506 119.994 67.0732L120.324 68.0896C120.351 68.1741 120.404 68.2478 120.476 68.3C120.548 68.3522 120.634 68.3802 120.723 68.3801H121.789C121.918 68.3801 122.043 68.4209 122.147 68.4966C122.251 68.5724 122.329 68.6792 122.368 68.8018C122.408 68.9244 122.408 69.0564 122.368 69.179C122.329 69.3016 122.251 69.4084 122.147 69.4842L121.284 70.1124C121.213 70.1645 121.159 70.2381 121.132 70.3226C121.104 70.407 121.104 70.4981 121.132 70.5825L121.462 71.5989C121.503 71.7214 121.503 71.8539 121.464 71.9768C121.424 72.0997 121.345 72.2065 121.24 72.2812C121.137 72.3579 121.011 72.3995 120.882 72.4001Z" fill="#1482D1"/>
<path d="M124.179 70.3677C124.423 70.1964 124.626 69.9736 124.774 69.7151C124.923 69.4566 125.013 69.1685 125.038 68.8713C125.064 68.5741 125.024 68.2749 124.921 67.9948C124.819 67.7147 124.656 67.4606 124.445 67.2502L125.919 49.4199L121.532 50.0247L121.449 67.3484C121.119 67.7272 120.94 68.2138 120.945 68.716C120.95 69.2182 121.139 69.7012 121.476 70.0733C121.812 70.4455 122.273 70.681 122.771 70.7353C123.27 70.7895 123.77 70.6587 124.179 70.3677Z" fill="#A0616A"/>
<path d="M126.205 51.9874C126.123 51.9874 126.041 51.9755 125.962 51.9521L121.253 50.5641C121.14 50.5307 121.035 50.4742 120.944 50.3981C120.854 50.322 120.781 50.2279 120.728 50.1218C120.676 50.0157 120.647 49.9 120.641 49.7819C120.636 49.6637 120.656 49.5458 120.698 49.4355L122.441 44.9236C122.514 44.7331 122.652 44.575 122.832 44.4784C123.011 44.3818 123.219 44.3529 123.418 44.3972L126.529 45.075C126.723 45.1174 126.896 45.2264 127.019 45.3832C127.141 45.54 127.206 45.7347 127.2 45.9338L127.055 51.1558C127.049 51.378 126.957 51.589 126.798 51.7442C126.639 51.8994 126.427 51.9866 126.205 51.9874H126.205Z" fill="#CCCCCC"/>
<path d="M81.8802 74.2684H1.32676C0.975004 74.2681 0.637766 74.1278 0.389035 73.8786C0.140305 73.6293 0.000394811 73.2914 0 72.9388V48.8159C0.000394811 48.4634 0.140305 48.1255 0.389035 47.8762C0.637766 47.6269 0.975004 47.4867 1.32676 47.4863H81.8802C82.2319 47.4867 82.5692 47.6269 82.8179 47.8762C83.0666 48.1255 83.2065 48.4634 83.2069 48.8159V72.9388C83.2065 73.2914 83.0666 73.6293 82.8179 73.8786C82.5692 74.1278 82.2319 74.2681 81.8802 74.2684ZM1.32676 47.8662C1.07551 47.8665 0.834632 47.9667 0.656969 48.1447C0.479306 48.3227 0.379366 48.5641 0.379075 48.8159V72.9388C0.379366 73.1906 0.479306 73.432 0.656969 73.6101C0.834632 73.7881 1.07551 73.8883 1.32676 73.8886H81.8802C82.1314 73.8883 82.3723 73.7881 82.55 73.6101C82.7276 73.432 82.8276 73.1906 82.8278 72.9388V48.8159C82.8276 48.5641 82.7276 48.3227 82.55 48.1447C82.3723 47.9667 82.1314 47.8665 81.8802 47.8662H1.32676Z" fill="#3F3D56"/>
<path d="M36.5773 84.4262C36.4194 84.4256 36.2658 84.3746 36.1387 84.2807L35.0817 83.5111C34.994 83.447 34.8883 83.4124 34.7797 83.4124C34.6711 83.4124 34.5653 83.447 34.4776 83.5111L33.4207 84.2807C33.2932 84.3735 33.1397 84.4235 32.9821 84.4235C32.8246 84.4235 32.6711 84.3735 32.5436 84.2807C32.4161 84.1879 32.3212 84.057 32.2725 83.9069C32.2238 83.7567 32.2238 83.595 32.2725 83.4448L32.6762 82.1996C32.7099 82.0962 32.71 81.9847 32.6765 81.8812C32.643 81.7777 32.5775 81.6875 32.4895 81.6237L31.4326 80.8542C31.3051 80.7613 31.2102 80.6305 31.1615 80.4803C31.1128 80.3301 31.1128 80.1684 31.1615 80.0182C31.2102 79.868 31.3051 79.7371 31.4326 79.6443C31.56 79.5515 31.7135 79.5015 31.8711 79.5015H33.1776C33.2862 79.5017 33.392 79.4674 33.4798 79.4034C33.5677 79.3395 33.633 79.2492 33.6664 79.1457L34.07 77.9005C34.1187 77.7503 34.2136 77.6194 34.3411 77.5266C34.4686 77.4338 34.6221 77.3838 34.7797 77.3838C34.9373 77.3838 35.0908 77.4338 35.2183 77.5266C35.3457 77.6194 35.4406 77.7503 35.4893 77.9005L35.893 79.1457C35.9264 79.2492 35.9917 79.3395 36.0795 79.4034C36.1673 79.4674 36.2732 79.5017 36.3818 79.5015H37.6882C37.8458 79.5015 37.9993 79.5515 38.1268 79.6443C38.2542 79.7372 38.3491 79.868 38.3978 80.0182C38.4465 80.1684 38.4465 80.3301 38.3978 80.4803C38.3491 80.6305 38.2542 80.7613 38.1268 80.8542L37.0698 81.6237C36.9819 81.6875 36.9164 81.7777 36.8828 81.8812C36.8493 81.9847 36.8494 82.0962 36.8832 82.1996L37.2869 83.4448C37.3373 83.5948 37.3382 83.7571 37.2894 83.9077C37.2406 84.0583 37.1446 84.1891 37.0158 84.2807C36.8887 84.3746 36.7352 84.4256 36.5773 84.4262Z" fill="#1482D1"/>
<path d="M47.2862 84.4262C47.1283 84.4256 46.9747 84.3746 46.8476 84.2807L45.7907 83.5111C45.703 83.447 45.5972 83.4124 45.4886 83.4124C45.38 83.4124 45.2742 83.447 45.1865 83.5111L44.1296 84.2807C44.0021 84.3735 43.8486 84.4235 43.6911 84.4235C43.5335 84.4235 43.38 84.3735 43.2525 84.2807C43.125 84.1879 43.0301 84.057 42.9814 83.9069C42.9327 83.7567 42.9327 83.595 42.9814 83.4448L43.3851 82.1996C43.4189 82.0962 43.419 81.9847 43.3854 81.8812C43.3519 81.7777 43.2864 81.6875 43.1984 81.6237L42.1415 80.8542C42.014 80.7613 41.9192 80.6305 41.8705 80.4803C41.8218 80.3301 41.8218 80.1684 41.8705 80.0182C41.9192 79.868 42.0141 79.7371 42.1416 79.6443C42.269 79.5515 42.4225 79.5015 42.5801 79.5015H43.8865C43.9951 79.5017 44.1009 79.4674 44.1888 79.4034C44.2766 79.3395 44.3419 79.2492 44.3753 79.1457L44.779 77.9005C44.8277 77.7503 44.9226 77.6194 45.05 77.5266C45.1775 77.4338 45.331 77.3838 45.4886 77.3838C45.6462 77.3838 45.7997 77.4338 45.9272 77.5266C46.0547 77.6194 46.1496 77.7503 46.1982 77.9005L46.6019 79.1457C46.6353 79.2492 46.7006 79.3395 46.7885 79.4034C46.8763 79.4674 46.9821 79.5017 47.0907 79.5015H48.3971C48.5547 79.5015 48.7082 79.5515 48.8357 79.6443C48.9632 79.7371 49.058 79.868 49.1067 80.0182C49.1554 80.1684 49.1554 80.3301 49.1067 80.4803C49.0581 80.6305 48.9632 80.7613 48.8357 80.8542L47.7788 81.6237C47.6908 81.6875 47.6253 81.7777 47.5918 81.8812C47.5582 81.9847 47.5583 82.0962 47.5921 82.1996L47.9958 83.4448C48.0463 83.5948 48.0471 83.7571 47.9983 83.9077C47.9495 84.0583 47.8535 84.1891 47.7247 84.2807C47.5977 84.3746 47.4441 84.4256 47.2862 84.4262Z" fill="#1482D1"/>
<path d="M57.9971 84.4262C57.8392 84.4256 57.6857 84.3746 57.5586 84.2807L56.5017 83.5111C56.4139 83.4471 56.3081 83.4126 56.1996 83.4126C56.091 83.4126 55.9852 83.4471 55.8975 83.5111L54.8405 84.2807C54.7131 84.3735 54.5596 84.4235 54.402 84.4235C54.2444 84.4235 54.0909 84.3735 53.9635 84.2807C53.836 84.1879 53.7411 84.057 53.6924 83.9069C53.6437 83.7567 53.6437 83.5949 53.6924 83.4448L54.0961 82.1996C54.1298 82.0962 54.1299 81.9847 54.0964 81.8812C54.0628 81.7777 53.9973 81.6875 53.9094 81.6237L52.8524 80.8542C52.725 80.7613 52.6301 80.6305 52.5814 80.4803C52.5327 80.3301 52.5328 80.1684 52.5814 80.0182C52.6301 79.868 52.725 79.7371 52.8525 79.6443C52.98 79.5515 53.1335 79.5015 53.291 79.5015H54.5975C54.706 79.5017 54.8119 79.4674 54.8997 79.4034C54.9875 79.3395 55.0529 79.2492 55.0862 79.1457L55.4899 77.9005C55.5386 77.7503 55.6335 77.6194 55.761 77.5266C55.8885 77.4338 56.042 77.3838 56.1996 77.3838C56.3571 77.3838 56.5107 77.4338 56.6381 77.5266C56.7656 77.6194 56.8605 77.7503 56.9092 77.9005L57.3129 79.1457C57.3463 79.2492 57.4116 79.3395 57.4994 79.4034C57.5873 79.4674 57.6931 79.5017 57.8017 79.5015H59.1081C59.2657 79.5015 59.4192 79.5515 59.5466 79.6443C59.6741 79.7371 59.769 79.868 59.8177 80.0182C59.8664 80.1684 59.8664 80.3301 59.8177 80.4803C59.769 80.6305 59.6741 80.7613 59.5467 80.8542L58.4897 81.6237C58.4018 81.6875 58.3363 81.7777 58.3028 81.8812C58.2692 81.9847 58.2693 82.0962 58.3031 82.1996L58.7067 83.4448C58.7572 83.5948 58.7581 83.7571 58.7093 83.9077C58.6605 84.0582 58.5645 84.189 58.4357 84.2807C58.3086 84.3746 58.155 84.4256 57.9971 84.4262Z" fill="#1482D1"/>
<path d="M68.7081 84.4252C68.5502 84.4246 68.3966 84.3736 68.2696 84.2797L67.2126 83.5102C67.1249 83.446 67.0191 83.4114 66.9106 83.4114C66.802 83.4114 66.6962 83.446 66.6085 83.5102L65.5515 84.2797C65.4241 84.3725 65.2706 84.4225 65.113 84.4225C64.9554 84.4225 64.8019 84.3725 64.6744 84.2797C64.547 84.1869 64.4521 84.0561 64.4034 83.9059C64.3547 83.7557 64.3547 83.594 64.4033 83.4438L64.8071 82.1986C64.8408 82.0952 64.8409 81.9837 64.8074 81.8802C64.7738 81.7767 64.7083 81.6866 64.6203 81.6228L63.5634 80.8532C63.4359 80.7604 63.341 80.6295 63.2924 80.4793C63.2437 80.3291 63.2437 80.1674 63.2924 80.0172C63.3411 79.867 63.436 79.7362 63.5634 79.6434C63.6909 79.5505 63.8444 79.5006 64.002 79.5005H65.3084C65.417 79.5007 65.5228 79.4664 65.6107 79.4024C65.6985 79.3385 65.7638 79.2482 65.7972 79.1447L66.2009 77.8995C66.2496 77.7494 66.3444 77.6185 66.4719 77.5256C66.5994 77.4328 66.7529 77.3828 66.9105 77.3828C67.0681 77.3828 67.2216 77.4328 67.3491 77.5256C67.4766 77.6185 67.5714 77.7494 67.6201 77.8995L68.0238 79.1447C68.0572 79.2482 68.1225 79.3385 68.2104 79.4024C68.2982 79.4664 68.404 79.5007 68.5126 79.5005H69.819C69.9766 79.5006 70.1301 79.5505 70.2576 79.6434C70.3851 79.7362 70.4799 79.867 70.5286 80.0172C70.5773 80.1674 70.5773 80.3291 70.5286 80.4793C70.48 80.6295 70.3851 80.7604 70.2576 80.8532L69.2007 81.6227C69.1127 81.6865 69.0472 81.7767 69.0137 81.8802C68.9802 81.9837 68.9803 82.0952 69.014 82.1986L69.4177 83.4438C69.4682 83.5938 69.4691 83.7561 69.4203 83.9067C69.3714 84.0573 69.2755 84.1881 69.1467 84.2797C69.0196 84.3736 68.866 84.4246 68.7081 84.4252Z" fill="#1482D1"/>
<path d="M75.8231 84.4994C75.6497 84.4987 75.4811 84.4427 75.3415 84.3396C75.1999 84.239 75.0945 84.0953 75.0409 83.9298C74.9873 83.7644 74.9882 83.5861 75.0436 83.4213L75.4474 82.1761C75.4763 82.0875 75.4764 81.992 75.4477 81.9033C75.4189 81.8146 75.3628 81.7373 75.2874 81.6826L74.2304 80.913C74.0904 80.8111 73.9862 80.6673 73.9327 80.5024C73.8792 80.3374 73.8792 80.1597 73.9327 79.9947C73.9862 79.8298 74.0904 79.686 74.2304 79.5841C74.3705 79.4821 74.5391 79.4272 74.7122 79.4272H76.0186C76.1117 79.4274 76.2024 79.398 76.2777 79.3431C76.353 79.2883 76.4089 79.211 76.4375 79.1222L76.8413 77.8771C76.8948 77.7121 76.999 77.5684 77.139 77.4664C77.279 77.3645 77.4477 77.3096 77.6208 77.3096C77.7938 77.3096 77.9625 77.3645 78.1025 77.4664C78.2425 77.5684 78.3467 77.7121 78.4002 77.8771L78.8039 79.1222C78.8325 79.211 78.8885 79.2883 78.9637 79.3431C79.039 79.398 79.1297 79.4274 79.2228 79.4272H80.5293C80.7023 79.4272 80.871 79.4822 81.011 79.5841C81.151 79.6861 81.2552 79.8298 81.3087 79.9948C81.3622 80.1597 81.3622 80.3374 81.3087 80.5024C81.2552 80.6673 81.151 80.8111 81.011 80.913L79.9541 81.6826C79.8787 81.7373 79.8225 81.8146 79.7938 81.9032C79.765 81.9919 79.7651 82.0875 79.794 82.1761L80.1977 83.4213C80.2512 83.5862 80.2512 83.7639 80.1977 83.9289C80.1442 84.0938 80.04 84.2376 79.9 84.3395C79.76 84.4415 79.5913 84.4964 79.4183 84.4964C79.2452 84.4964 79.0765 84.4415 78.9365 84.3395L77.8796 83.57C77.8044 83.5151 77.7138 83.4854 77.6207 83.4854C77.5276 83.4854 77.437 83.5151 77.3618 83.57L76.3048 84.3395C76.1653 84.4427 75.9966 84.4987 75.8231 84.4994ZM77.6207 83.1054C77.7938 83.1054 77.9625 83.1605 78.1024 83.2627L79.1593 84.0322C79.2346 84.087 79.3252 84.1165 79.4182 84.1166C79.5113 84.1166 79.6019 84.0871 79.6772 84.0323C79.7524 83.9775 79.8085 83.9002 79.8372 83.8115C79.866 83.7229 79.8659 83.6274 79.8372 83.5387L79.4335 82.2936C79.3797 82.1286 79.3795 81.9508 79.433 81.7858C79.4865 81.6208 79.591 81.477 79.7312 81.3753L80.7881 80.6057C80.8634 80.5509 80.9194 80.4736 80.9481 80.385C80.9769 80.2963 80.9769 80.2008 80.9481 80.1122C80.9194 80.0235 80.8634 79.9462 80.7881 79.8914C80.7129 79.8367 80.6223 79.8071 80.5292 79.8071H79.2228C79.0496 79.8075 78.8809 79.7527 78.7408 79.6507C78.6007 79.5487 78.4966 79.4048 78.4434 79.2396L78.0396 77.9945C78.0109 77.9058 77.9549 77.8286 77.8796 77.7738C77.8043 77.719 77.7137 77.6894 77.6207 77.6894C77.5277 77.6894 77.437 77.719 77.3617 77.7738C77.2865 77.8286 77.2305 77.9058 77.2017 77.9945L76.798 79.2396C76.7448 79.4048 76.6407 79.5487 76.5006 79.6507C76.3605 79.7527 76.1918 79.8075 76.0186 79.8071H74.7122C74.6192 79.8071 74.5285 79.8366 74.4533 79.8914C74.378 79.9462 74.322 80.0235 74.2932 80.1121C74.2645 80.2008 74.2645 80.2963 74.2932 80.385C74.322 80.4736 74.378 80.5509 74.4532 80.6057L75.5102 81.3753C75.6505 81.477 75.7549 81.6208 75.8084 81.7858C75.8619 81.9508 75.8617 82.1286 75.8079 82.2936L75.4042 83.5387C75.3754 83.6273 75.3754 83.7229 75.4042 83.8115C75.4329 83.9002 75.4889 83.9774 75.5642 84.0322C75.6395 84.087 75.7301 84.1165 75.8231 84.1165C75.9161 84.1165 76.0068 84.087 76.082 84.0322L77.139 83.2627C77.2789 83.1605 77.4476 83.1054 77.6207 83.1054Z" fill="#3F3D56"/>
<path d="M10.4234 53.1841C10.0967 53.1841 9.78329 53.3142 9.55225 53.5457C9.3212 53.7772 9.19141 54.0913 9.19141 54.4187C9.19141 54.7462 9.3212 55.0602 9.55225 55.2917C9.78329 55.5233 10.0967 55.6534 10.4234 55.6534H72.7812C73.1079 55.6534 73.4213 55.5233 73.6523 55.2917C73.8834 55.0602 74.0132 54.7462 74.0132 54.4187C74.0132 54.0913 73.8834 53.7772 73.6523 53.5457C73.4213 53.3142 73.1079 53.1841 72.7812 53.1841H10.4234Z" fill="#CCCCCC"/>
<path d="M10.4234 59.6426C10.0967 59.6426 9.78329 59.7727 9.55225 60.0042C9.3212 60.2357 9.19141 60.5498 9.19141 60.8772C9.19141 61.2047 9.3212 61.5187 9.55225 61.7502C9.78329 61.9818 10.0967 62.1118 10.4234 62.1118H72.7812C73.1079 62.1118 73.4213 61.9818 73.6523 61.7502C73.8834 61.5187 74.0132 61.2047 74.0132 60.8772C74.0132 60.5498 73.8834 60.2357 73.6523 60.0042C73.4213 59.7727 73.1079 59.6426 72.7812 59.6426H10.4234Z" fill="#CCCCCC"/>
<path d="M10.4234 66.1001C10.0967 66.1001 9.78329 66.2302 9.55225 66.4617C9.3212 66.6933 9.19141 67.0073 9.19141 67.3347C9.19141 67.6622 9.3212 67.9762 9.55225 68.2078C9.78329 68.4393 10.0967 68.5694 10.4234 68.5694H72.7812C73.1079 68.5694 73.4213 68.4393 73.6523 68.2078C73.8834 67.9762 74.0132 67.6622 74.0132 67.3347C74.0132 67.0073 73.8834 66.6933 73.6523 66.4617C73.4213 66.2302 73.1079 66.1001 72.7812 66.1001H10.4234Z" fill="#CCCCCC"/>
<path d="M10.4234 53.1841C10.0967 53.1841 9.78329 53.3142 9.55225 53.5457C9.3212 53.7772 9.19141 54.0913 9.19141 54.4187C9.19141 54.7462 9.3212 55.0602 9.55225 55.2917C9.78329 55.5233 10.0967 55.6534 10.4234 55.6534H72.7812C73.1079 55.6534 73.4213 55.5233 73.6523 55.2917C73.8834 55.0602 74.0132 54.7462 74.0132 54.4187C74.0132 54.0913 73.8834 53.7772 73.6523 53.5457C73.4213 53.3142 73.1079 53.1841 72.7812 53.1841H10.4234Z" fill="#CCCCCC"/>
<path d="M10.4234 59.6426C10.0967 59.6426 9.78329 59.7727 9.55225 60.0042C9.3212 60.2357 9.19141 60.5498 9.19141 60.8772C9.19141 61.2047 9.3212 61.5187 9.55225 61.7502C9.78329 61.9818 10.0967 62.1118 10.4234 62.1118H72.7812C73.1079 62.1118 73.4213 61.9818 73.6523 61.7502C73.8834 61.5187 74.0132 61.2047 74.0132 60.8772C74.0132 60.5498 73.8834 60.2357 73.6523 60.0042C73.4213 59.7727 73.1079 59.6426 72.7812 59.6426H10.4234Z" fill="#CCCCCC"/>
<path d="M10.4234 66.1001C10.0967 66.1001 9.78329 66.2302 9.55225 66.4617C9.3212 66.6933 9.19141 67.0073 9.19141 67.3347C9.19141 67.6622 9.3212 67.9762 9.55225 68.2078C9.78329 68.4393 10.0967 68.5694 10.4234 68.5694H72.7812C73.1079 68.5694 73.4213 68.4393 73.6523 68.2078C73.8834 67.9762 74.0132 67.6622 74.0132 67.3347C74.0132 67.0073 73.8834 66.6933 73.6523 66.4617C73.4213 66.2302 73.1079 66.1001 72.7812 66.1001H10.4234Z" fill="#CCCCCC"/>
<path d="M81.8802 26.7821H1.32676C0.975004 26.7817 0.637766 26.6415 0.389035 26.3923C0.140305 26.143 0.000394811 25.805 0 25.4525V1.32961C0.000394811 0.977096 0.140305 0.639134 0.389035 0.38987C0.637766 0.140606 0.975004 0.000395658 1.32676 0H81.8802C82.2319 0.000395156 82.5692 0.140606 82.8179 0.38987C83.0666 0.639135 83.2065 0.977096 83.2069 1.32961V25.4525C83.2065 25.805 83.0666 26.143 82.8179 26.3923C82.5692 26.6415 82.2319 26.7817 81.8802 26.7821ZM1.32676 0.379888C1.07551 0.38018 0.834632 0.480332 0.656969 0.658376C0.479306 0.83642 0.379366 1.07782 0.379075 1.32961V25.4525C0.379366 25.7043 0.479306 25.9457 0.656969 26.1237C0.834632 26.3018 1.07551 26.4019 1.32676 26.4022H81.8802C82.1314 26.4019 82.3723 26.3018 82.55 26.1238C82.7276 25.9457 82.8276 25.7043 82.8278 25.4525V1.32961C82.8276 1.07782 82.7276 0.836418 82.55 0.658373C82.3723 0.480328 82.1314 0.380176 81.8802 0.379888H1.32676Z" fill="#3F3D56"/>
<path d="M36.5773 36.9394C36.4194 36.9388 36.2658 36.8878 36.1387 36.7939L35.0817 36.0243C34.994 35.9601 34.8883 35.9255 34.7797 35.9255C34.6711 35.9255 34.5653 35.9601 34.4776 36.0243L33.4207 36.7939C33.2932 36.8867 33.1397 36.9367 32.9821 36.9367C32.8246 36.9367 32.6711 36.8867 32.5436 36.7939C32.4161 36.7011 32.3212 36.5702 32.2725 36.4201C32.2238 36.2699 32.2238 36.1081 32.2725 35.958L32.6762 34.7128C32.7099 34.6094 32.71 34.4979 32.6765 34.3944C32.643 34.2909 32.5775 34.2007 32.4895 34.1369L31.4326 33.3673C31.3051 33.2745 31.2102 33.1437 31.1615 32.9935C31.1128 32.8433 31.1128 32.6815 31.1615 32.5314C31.2102 32.3812 31.3051 32.2503 31.4326 32.1575C31.56 32.0647 31.7135 32.0147 31.8711 32.0147H33.1776C33.2862 32.0149 33.392 31.9806 33.4798 31.9166C33.5677 31.8526 33.633 31.7624 33.6664 31.6589L34.07 30.4137C34.1187 30.2635 34.2136 30.1326 34.3411 30.0398C34.4686 29.947 34.6221 29.897 34.7797 29.897C34.9373 29.897 35.0908 29.947 35.2183 30.0398C35.3457 30.1326 35.4406 30.2635 35.4893 30.4137L35.893 31.6589C35.9264 31.7624 35.9917 31.8526 36.0795 31.9166C36.1673 31.9806 36.2732 32.0149 36.3818 32.0147H37.6882C37.8458 32.0147 37.9993 32.0647 38.1268 32.1575C38.2542 32.2503 38.3491 32.3812 38.3978 32.5314C38.4465 32.6816 38.4465 32.8433 38.3978 32.9935C38.3491 33.1437 38.2542 33.2745 38.1268 33.3673L37.0698 34.1369C36.9819 34.2007 36.9164 34.2909 36.8828 34.3944C36.8493 34.4979 36.8494 34.6094 36.8832 34.7128L37.2869 35.958C37.3373 36.108 37.3382 36.2703 37.2894 36.4209C37.2406 36.5714 37.1446 36.7022 37.0158 36.7939C36.8887 36.8878 36.7352 36.9388 36.5773 36.9394Z" fill="#1482D1"/>
<path d="M47.2862 36.9394C47.1283 36.9388 46.9747 36.8878 46.8476 36.7939L45.7907 36.0243C45.703 35.9601 45.5972 35.9255 45.4886 35.9255C45.38 35.9255 45.2742 35.9601 45.1865 36.0243L44.1296 36.7939C44.0021 36.8867 43.8486 36.9367 43.6911 36.9367C43.5335 36.9367 43.38 36.8867 43.2525 36.7939C43.125 36.7011 43.0301 36.5702 42.9814 36.4201C42.9327 36.2699 42.9327 36.1081 42.9814 35.958L43.3851 34.7128C43.4189 34.6094 43.419 34.4979 43.3854 34.3944C43.3519 34.2909 43.2864 34.2007 43.1984 34.1369L42.1415 33.3673C42.014 33.2745 41.9192 33.1436 41.8705 32.9935C41.8218 32.8433 41.8218 32.6815 41.8705 32.5314C41.9192 32.3812 42.0141 32.2503 42.1416 32.1575C42.269 32.0647 42.4225 32.0147 42.5801 32.0147H43.8865C43.9951 32.0149 44.1009 31.9806 44.1888 31.9166C44.2766 31.8526 44.3419 31.7624 44.3753 31.6589L44.779 30.4137C44.8277 30.2635 44.9226 30.1326 45.05 30.0398C45.1775 29.947 45.331 29.897 45.4886 29.897C45.6462 29.897 45.7997 29.947 45.9272 30.0398C46.0547 30.1326 46.1496 30.2635 46.1982 30.4137L46.6019 31.6589C46.6353 31.7624 46.7006 31.8527 46.7885 31.9166C46.8763 31.9806 46.9821 32.0149 47.0907 32.0147H48.3971C48.5547 32.0147 48.7082 32.0647 48.8357 32.1575C48.9632 32.2503 49.058 32.3812 49.1067 32.5314C49.1554 32.6815 49.1554 32.8433 49.1067 32.9935C49.0581 33.1436 48.9632 33.2745 48.8357 33.3673L47.7788 34.1369C47.6908 34.2007 47.6253 34.2908 47.5918 34.3943C47.5582 34.4979 47.5583 34.6094 47.5921 34.7128L47.9958 35.958C48.0463 36.108 48.0471 36.2703 47.9983 36.4209C47.9495 36.5714 47.8535 36.7022 47.7247 36.7939C47.5977 36.8878 47.4441 36.9388 47.2862 36.9394Z" fill="#1482D1"/>
<path d="M57.9971 36.9394C57.8392 36.9388 57.6857 36.8878 57.5586 36.7939L56.5017 36.0243C56.4139 35.9603 56.3081 35.9258 56.1996 35.9258C56.091 35.9258 55.9852 35.9603 55.8975 36.0243L54.8405 36.7939C54.7131 36.8867 54.5596 36.9367 54.402 36.9367C54.2444 36.9367 54.0909 36.8867 53.9635 36.7939C53.836 36.7011 53.7411 36.5702 53.6924 36.4201C53.6437 36.2699 53.6437 36.1081 53.6924 35.958L54.0961 34.7128C54.1298 34.6094 54.1299 34.4979 54.0964 34.3944C54.0628 34.2909 53.9973 34.2007 53.9094 34.1369L52.8524 33.3673C52.725 33.2745 52.6301 33.1436 52.5814 32.9935C52.5327 32.8433 52.5328 32.6815 52.5814 32.5314C52.6301 32.3812 52.725 32.2503 52.8525 32.1575C52.98 32.0647 53.1335 32.0147 53.291 32.0147H54.5975C54.706 32.0149 54.8119 31.9806 54.8997 31.9166C54.9875 31.8526 55.0529 31.7624 55.0862 31.6589L55.4899 30.4137C55.5386 30.2635 55.6335 30.1326 55.761 30.0398C55.8885 29.947 56.042 29.897 56.1996 29.897C56.3571 29.897 56.5107 29.947 56.6381 30.0398C56.7656 30.1326 56.8605 30.2635 56.9092 30.4137L57.3129 31.6589C57.3463 31.7624 57.4116 31.8526 57.4994 31.9166C57.5873 31.9806 57.6931 32.0149 57.8017 32.0147H59.1081C59.2657 32.0147 59.4192 32.0647 59.5466 32.1575C59.6741 32.2503 59.769 32.3812 59.8177 32.5314C59.8664 32.6815 59.8664 32.8433 59.8177 32.9935C59.769 33.1436 59.6741 33.2745 59.5467 33.3673L58.4897 34.1369C58.4018 34.2007 58.3363 34.2909 58.3028 34.3944C58.2692 34.4979 58.2693 34.6094 58.3031 34.7128L58.7067 35.958C58.7572 36.108 58.7581 36.2703 58.7093 36.4209C58.6605 36.5714 58.5645 36.7022 58.4357 36.7939C58.3086 36.8878 58.155 36.9388 57.9971 36.9394Z" fill="#1482D1"/>
<path d="M75.8231 37.013C75.6497 37.0123 75.4811 36.9564 75.3415 36.8533C75.1999 36.7526 75.0945 36.6089 75.0409 36.4435C74.9873 36.2781 74.9882 36.0998 75.0436 35.9349L75.4474 34.6898C75.4763 34.6012 75.4764 34.5056 75.4477 34.417C75.4189 34.3283 75.3628 34.251 75.2874 34.1963L74.2304 33.4267C74.0904 33.3248 73.9862 33.181 73.9327 33.0161C73.8792 32.8511 73.8792 32.6734 73.9327 32.5084C73.9862 32.3435 74.0904 32.1997 74.2304 32.0978C74.3705 31.9958 74.5391 31.9409 74.7122 31.9409H76.0186C76.1117 31.9411 76.2024 31.9116 76.2777 31.8568C76.353 31.802 76.4089 31.7246 76.4375 31.6359L76.8413 30.3908C76.8948 30.2258 76.999 30.082 77.139 29.9801C77.279 29.8782 77.4477 29.8232 77.6208 29.8232C77.7938 29.8232 77.9625 29.8782 78.1025 29.9801C78.2425 30.082 78.3467 30.2258 78.4002 30.3908L78.8039 31.6359C78.8325 31.7246 78.8885 31.802 78.9637 31.8568C79.039 31.9116 79.1297 31.9411 79.2228 31.9409H80.5293C80.7023 31.9409 80.871 31.9958 81.011 32.0978C81.151 32.1997 81.2552 32.3435 81.3087 32.5084C81.3622 32.6734 81.3622 32.8511 81.3087 33.016C81.2552 33.181 81.151 33.3248 81.011 33.4267L79.9541 34.1963C79.8787 34.251 79.8225 34.3282 79.7938 34.4169C79.765 34.5056 79.7651 34.6012 79.794 34.6898L80.1977 35.9349C80.2512 36.0999 80.2512 36.2776 80.1977 36.4426C80.1442 36.6075 80.04 36.7513 79.9 36.8532C79.76 36.9552 79.5913 37.0101 79.4183 37.0101C79.2452 37.0101 79.0765 36.9552 78.9365 36.8532L77.8796 36.0837C77.8044 36.0287 77.7138 35.9991 77.6207 35.9991C77.5276 35.9991 77.437 36.0287 77.3618 36.0837L76.3048 36.8532C76.1653 36.9564 75.9966 37.0124 75.8231 37.013ZM77.6207 35.6191C77.7938 35.6191 77.9625 35.6742 78.1024 35.7764L79.1593 36.5459C79.2346 36.6007 79.3252 36.6302 79.4182 36.6302C79.5113 36.6303 79.6019 36.6008 79.6772 36.546C79.7524 36.4912 79.8085 36.4139 79.8372 36.3252C79.866 36.2365 79.8659 36.141 79.8372 36.0524L79.4335 34.8073C79.3797 34.6423 79.3795 34.4645 79.433 34.2995C79.4865 34.1344 79.591 33.9907 79.7312 33.889L80.7881 33.1194C80.8634 33.0646 80.9194 32.9873 80.9481 32.8987C80.9769 32.81 80.9769 32.7145 80.9481 32.6258C80.9194 32.5372 80.8634 32.4599 80.7881 32.4051C80.7129 32.3503 80.6223 32.3208 80.5292 32.3208H79.2228C79.0496 32.3211 78.8809 32.2664 78.7408 32.1644C78.6007 32.0624 78.4966 31.9184 78.4434 31.7533L78.0396 30.5082C78.0109 30.4195 77.9549 30.3423 77.8796 30.2874C77.8043 30.2326 77.7137 30.2031 77.6207 30.2031C77.5277 30.2031 77.437 30.2326 77.3617 30.2874C77.2865 30.3423 77.2305 30.4195 77.2017 30.5082L76.798 31.7533C76.7448 31.9184 76.6407 32.0624 76.5006 32.1644C76.3605 32.2664 76.1918 32.3211 76.0186 32.3208H74.7122C74.6192 32.3208 74.5285 32.3503 74.4533 32.4051C74.378 32.4599 74.322 32.5372 74.2932 32.6258C74.2645 32.7145 74.2645 32.81 74.2932 32.8986C74.322 32.9873 74.378 33.0646 74.4532 33.1194L75.5102 33.889C75.6505 33.9907 75.7549 34.1345 75.8084 34.2995C75.8619 34.4645 75.8617 34.6423 75.8079 34.8073L75.4042 36.0524C75.3754 36.141 75.3754 36.2365 75.4042 36.3252C75.4329 36.4138 75.4889 36.4911 75.5642 36.5459C75.6395 36.6007 75.7301 36.6302 75.8231 36.6302C75.9161 36.6302 76.0068 36.6007 76.082 36.5459L77.139 35.7764C77.2789 35.6742 77.4476 35.6191 77.6207 35.6191Z" fill="#3F3D56"/>
<path d="M65.0184 36.9832C64.845 36.9825 64.6764 36.9266 64.5368 36.8235C64.3952 36.7228 64.2898 36.5791 64.2362 36.4137C64.1826 36.2483 64.1835 36.07 64.239 35.9051L64.6427 34.66C64.6716 34.5714 64.6717 34.4758 64.643 34.3872C64.6142 34.2985 64.5581 34.2212 64.4827 34.1665L63.4257 33.3969C63.2857 33.295 63.1815 33.1512 63.128 32.9863C63.0745 32.8213 63.0745 32.6436 63.128 32.4786C63.1815 32.3137 63.2857 32.1699 63.4257 32.068C63.5658 31.966 63.7344 31.9111 63.9075 31.9111H65.2139C65.307 31.9113 65.3977 31.8819 65.473 31.827C65.5483 31.7722 65.6042 31.6948 65.6328 31.6061L66.0366 30.361C66.0901 30.196 66.1943 30.0523 66.3343 29.9503C66.4744 29.8484 66.643 29.7935 66.8161 29.7935C66.9891 29.7935 67.1578 29.8484 67.2978 29.9503C67.4378 30.0523 67.542 30.196 67.5955 30.361L67.9992 31.6061C68.0278 31.6948 68.0838 31.7722 68.1591 31.827C68.2343 31.8818 68.3251 31.9113 68.4181 31.9111H69.7246C69.8977 31.9111 70.0663 31.9661 70.2063 32.068C70.3463 32.17 70.4505 32.3137 70.504 32.4787C70.5575 32.6436 70.5575 32.8213 70.504 32.9863C70.4506 33.1512 70.3463 33.295 70.2063 33.3969L69.1494 34.1665C69.074 34.2212 69.0178 34.2984 68.9891 34.3871C68.9603 34.4758 68.9604 34.5714 68.9893 34.66L69.3931 35.9052C69.4465 36.0701 69.4465 36.2478 69.3931 36.4128C69.3396 36.5777 69.2353 36.7215 69.0953 36.8234C68.9553 36.9254 68.7866 36.9803 68.6136 36.9803C68.4405 36.9803 68.2719 36.9254 68.1318 36.8234L67.0749 36.0539C66.9997 35.999 66.9091 35.9693 66.816 35.9693C66.7229 35.9693 66.6323 35.999 66.5571 36.0539L65.5002 36.8234C65.3606 36.9266 65.1919 36.9826 65.0184 36.9832ZM66.816 35.5893C66.9892 35.5893 67.1578 35.6444 67.2977 35.7466L68.3546 36.5161C68.4299 36.5709 68.5205 36.6004 68.6135 36.6004C68.7066 36.6005 68.7972 36.571 68.8725 36.5162C68.9478 36.4614 69.0038 36.3841 69.0325 36.2954C69.0613 36.2067 69.0613 36.1112 69.0325 36.0226L68.6288 34.7775C68.575 34.6125 68.5748 34.4347 68.6283 34.2697C68.6819 34.1046 68.7863 33.9609 68.9266 33.8592L69.9835 33.0896C70.0587 33.0348 70.1147 32.9575 70.1435 32.8689C70.1722 32.7802 70.1722 32.6847 70.1435 32.596C70.1147 32.5074 70.0587 32.4301 69.9834 32.3753C69.9082 32.3205 69.8176 32.291 69.7246 32.291H68.4181C68.2449 32.2913 68.0762 32.2366 67.9361 32.1346C67.796 32.0326 67.6919 31.8886 67.6387 31.7235L67.2349 30.4784C67.2062 30.3897 67.1502 30.3125 67.0749 30.2577C66.9997 30.2028 66.909 30.1733 66.816 30.1733C66.723 30.1733 66.6323 30.2028 66.5571 30.2577C66.4818 30.3125 66.4258 30.3897 66.3971 30.4784L65.9933 31.7235C65.9401 31.8886 65.836 32.0326 65.6959 32.1346C65.5559 32.2366 65.3871 32.2913 65.2139 32.291H63.9075C63.8145 32.291 63.7238 32.3205 63.6486 32.3753C63.5733 32.4301 63.5173 32.5074 63.4886 32.596C63.4598 32.6847 63.4598 32.7802 63.4885 32.8688C63.5173 32.9575 63.5733 33.0348 63.6485 33.0896L64.7055 33.8592C64.8458 33.9609 64.9502 34.1047 65.0037 34.2697C65.0572 34.4347 65.0571 34.6125 65.0033 34.7775L64.5995 36.0226C64.5707 36.1112 64.5707 36.2067 64.5995 36.2954C64.6282 36.384 64.6842 36.4613 64.7595 36.5161C64.8348 36.5709 64.9254 36.6004 65.0184 36.6004C65.1114 36.6004 65.2021 36.5709 65.2773 36.5161L66.3343 35.7466C66.4742 35.6444 66.6429 35.5893 66.816 35.5893Z" fill="#3F3D56"/>
<path d="M10.4234 5.69873C10.0967 5.69873 9.78329 5.82881 9.55225 6.06035C9.3212 6.29189 9.19141 6.60592 9.19141 6.93337C9.19141 7.26081 9.3212 7.57485 9.55225 7.80639C9.78329 8.03793 10.0967 8.168 10.4234 8.168H72.7812C73.1079 8.168 73.4213 8.03793 73.6523 7.80639C73.8834 7.57485 74.0132 7.26081 74.0132 6.93337C74.0132 6.60592 73.8834 6.29189 73.6523 6.06035C73.4213 5.82881 73.1079 5.69873 72.7812 5.69873H10.4234Z" fill="#CCCCCC"/>
<path d="M10.4234 12.1562C10.0967 12.1562 9.78329 12.2863 9.55225 12.5179C9.3212 12.7494 9.19141 13.0634 9.19141 13.3909C9.19141 13.7183 9.3212 14.0324 9.55225 14.2639C9.78329 14.4954 10.0967 14.6255 10.4234 14.6255H72.7812C73.1079 14.6255 73.4213 14.4954 73.6523 14.2639C73.8834 14.0324 74.0132 13.7183 74.0132 13.3909C74.0132 13.0634 73.8834 12.7494 73.6523 12.5179C73.4213 12.2863 73.1079 12.1562 72.7812 12.1562H10.4234Z" fill="#CCCCCC"/>
<path d="M10.4234 18.6147C10.0967 18.6147 9.78329 18.7448 9.55225 18.9764C9.3212 19.2079 9.19141 19.5219 9.19141 19.8494C9.19141 20.1768 9.3212 20.4909 9.55225 20.7224C9.78329 20.9539 10.0967 21.084 10.4234 21.084H72.7812C73.1079 21.084 73.4213 20.9539 73.6523 20.7224C73.8834 20.4909 74.0132 20.1768 74.0132 19.8494C74.0132 19.5219 73.8834 19.2079 73.6523 18.9764C73.4213 18.7448 73.1079 18.6147 72.7812 18.6147H10.4234Z" fill="#CCCCCC"/>
<path d="M10.4234 5.69873C10.0967 5.69873 9.78329 5.82881 9.55225 6.06035C9.3212 6.29189 9.19141 6.60592 9.19141 6.93337C9.19141 7.26081 9.3212 7.57485 9.55225 7.80639C9.78329 8.03793 10.0967 8.168 10.4234 8.168H72.7812C73.1079 8.168 73.4213 8.03793 73.6523 7.80639C73.8834 7.57485 74.0132 7.26081 74.0132 6.93337C74.0132 6.60592 73.8834 6.29189 73.6523 6.06035C73.4213 5.82881 73.1079 5.69873 72.7812 5.69873H10.4234Z" fill="#CCCCCC"/>
<path d="M10.4234 12.1562C10.0967 12.1562 9.78329 12.2863 9.55225 12.5179C9.3212 12.7494 9.19141 13.0634 9.19141 13.3909C9.19141 13.7183 9.3212 14.0324 9.55225 14.2639C9.78329 14.4954 10.0967 14.6255 10.4234 14.6255H72.7812C73.1079 14.6255 73.4213 14.4954 73.6523 14.2639C73.8834 14.0324 74.0132 13.7183 74.0132 13.3909C74.0132 13.0634 73.8834 12.7494 73.6523 12.5179C73.4213 12.2863 73.1079 12.1562 72.7812 12.1562H10.4234Z" fill="#CCCCCC"/>
<path d="M10.4234 18.6147C10.0967 18.6147 9.78329 18.7448 9.55225 18.9764C9.3212 19.2079 9.19141 19.5219 9.19141 19.8494C9.19141 20.1768 9.3212 20.4909 9.55225 20.7224C9.78329 20.9539 10.0967 21.084 10.4234 21.084H72.7812C73.1079 21.084 73.4213 20.9539 73.6523 20.7224C73.8834 20.4909 74.0132 20.1768 74.0132 19.8494C74.0132 19.5219 73.8834 19.2079 73.6523 18.9764C73.4213 18.7448 73.1079 18.6147 72.7812 18.6147H10.4234Z" fill="#CCCCCC"/>
</g>
<defs>
<clipPath id="clip0">
<rect width="152" height="102" fill="white"/>
</clipPath>
</defs>
</svg>
