<svg width="502" height="264" viewBox="0 0 502 264" fill="none" xmlns="http://www.w3.org/2000/svg">
<g clip-path="url(#clip0)">
<path d="M31.0858 263.379C31.0858 263.379 -27.3251 200.629 21.2149 132.699C64.2861 72.4129 114.494 76.5458 151.321 100.994C167.009 111.413 212.233 102.274 250.747 40.9409C303.224 -42.7063 485.225 8.0331 452.044 136.715C435.986 198.999 500.913 201.25 467.829 263.515L31.0858 263.379Z" fill="#EBF3FA"/>
<path d="M261.181 98.627L278.304 125.714L273.999 127.188C273.999 127.188 252.454 106.757 253.831 102.702C255.208 98.6464 261.181 98.627 261.181 98.627Z" fill="#FFB27D"/>
<path d="M229.144 20.1023C229.144 20.1023 217.101 18.453 212.699 31.686C208.297 44.919 204.341 45.3653 203.158 53.437C202.401 58.5983 210.799 65.3312 208.142 70.6088C205.504 75.8865 204.729 92.7867 221.057 92.127C232.053 91.6807 250.883 78.3313 252.919 70.5118C256.43 57.1042 240.974 56.9684 244.367 51.9624C247.761 46.9757 248.944 45.7921 246.287 38.5935C243.669 31.4144 242.525 19.3844 229.144 20.1023Z" fill="#292A66"/>
<path d="M264.615 102.818C264.285 104.002 259.708 109.765 253.638 109.182C250.109 108.853 245.396 92.1852 243.554 78.2149C242.235 68.1834 242.41 59.5296 245.571 59.355C245.571 59.355 249.488 61.5087 251.738 66.5148C253.987 71.5402 264.944 101.654 264.615 102.818Z" fill="#1482D1"/>
<path d="M264.613 102.818C264.284 104.002 261.549 113.994 255.499 113.412C251.969 113.082 245.415 92.1852 243.572 78.2149L246.772 69.27C246.772 69.27 248.323 93.9897 254.762 98.7629C259.261 102.12 264.613 102.818 264.613 102.818Z" fill="#1482D1"/>
<path d="M263.877 254.164H258.447C258.447 254.164 238.182 208.197 239.985 195.1C240.198 193.548 239.752 191.006 238.899 187.766C234.381 170.924 218.323 135.105 223.21 119.175C229.048 100.199 249.119 122.028 249.119 122.028C249.235 121.349 253.793 138.016 254.782 160.834C255.383 174.746 256.197 188.561 257.012 196.866C259.106 218.636 263.877 254.164 263.877 254.164Z" fill="#292A66"/>
<path d="M254.762 160.872L238.879 187.785C234.361 170.943 218.304 135.124 223.191 119.194C229.028 100.218 248.75 120.708 248.75 120.708C248.75 120.708 253.715 138.307 254.762 160.872Z" fill="#292A66"/>
<path d="M210.16 119.835C210.16 119.835 203.392 130.39 213.883 185.592C218.285 208.74 209.462 205.287 221.854 255.502H227.012C227.012 255.502 234.633 172.204 237.891 150.608C241.207 128.702 244.116 120.32 244.116 120.32L210.16 119.835Z" fill="#292A66"/>
<path d="M243.591 68.3388C241.574 70.1045 238.995 71.6567 235.64 72.8209C223.113 77.2448 216.965 66.9223 214.27 59.6655C215.918 58.4625 217.527 58.0551 218.478 57.8416C219.389 57.6282 220.359 57.4536 221.173 57.3177C222.492 56.0565 224.14 51.2833 223.83 44.2012L224.451 44.2982L234.903 45.9281C234.903 45.9281 234.865 46.8788 234.865 48.2564C234.865 49.4206 234.865 50.8759 234.923 52.2923C234.962 53.2431 235.02 54.1744 235.097 54.9894C235.233 56.2312 235.446 57.1819 235.757 57.4924C236.571 57.57 237.056 57.6282 237.056 57.6282C237.211 57.8028 240.682 62.3238 243.591 68.3388Z" fill="#FFB27D"/>
<path d="M235.078 54.9508C229.183 54.8538 225.847 49.5761 224.432 46.6074L234.846 48.2373C234.846 49.4015 234.846 50.8567 234.904 52.2732C234.943 53.2045 235.001 54.1359 235.078 54.9508Z" fill="#ED985F"/>
<path d="M236.261 50.0606C236.261 50.0606 223.191 50.7979 222.861 42.6486C222.531 34.4992 220.611 29.1052 228.931 28.2902C237.27 27.4753 239.015 30.5216 239.791 33.1992C240.566 35.8963 239.655 49.6532 236.261 50.0606Z" fill="#FFB27D"/>
<path d="M278.77 262.662H256.623C256.623 262.662 254.684 258.956 256.216 256.433C257.574 254.202 257.593 251.796 256.604 249.953C257.651 250.38 259.435 251.757 260.929 251.68C262.092 251.621 262.247 250.826 263.314 250.185C264.322 251.33 268.705 256.608 270.043 257.559C271.536 258.665 278.285 258.277 278.77 262.662Z" fill="#233862"/>
<path d="M232.52 45.8501C232.52 45.8501 232.849 46.8979 235.467 46.5293C235.467 46.5293 237.659 46.2188 237.503 45.074C237.523 45.0546 235.312 44.3949 232.52 45.8501Z" fill="white"/>
<path d="M229.455 251.602C229.455 251.602 231.317 256.646 233.004 257.442C234.71 258.218 236.146 259.964 235.758 262.661H220.069C220.069 262.661 219.022 258.587 221.504 251.602C221.504 251.602 224.937 248.943 227.264 249.564C229.591 250.185 229.455 251.602 229.455 251.602Z" fill="#233862"/>
<path d="M209.151 61.1592C209.151 61.1592 187.896 85.7624 187.741 90.0311C187.586 94.2998 208.007 112.17 208.007 112.17L209.713 108.658C209.713 108.658 197.496 89.9535 197.961 89.3714C198.427 88.7893 211.245 77.128 212.641 75.9638C214.038 74.7996 218.963 64.0891 209.151 61.1592Z" fill="#FFB27D"/>
<path d="M245.59 59.355C245.59 59.355 243.127 58.1326 237.037 57.5894C237.212 57.8804 241.983 65.6029 241.672 67.6402C241.343 69.7164 223.346 68.591 222.066 67.5044C221.038 66.6312 219.351 60.9461 218.731 58.7147C218.576 58.1521 218.479 57.8222 218.479 57.8222C218.479 57.8222 214.969 58.3461 211.924 59.6073C211.924 59.6073 207.774 60.558 200.152 70.0462C192.551 79.5344 187.179 85.8986 186.17 90.8658C185.356 94.9017 185.705 107.533 190.825 107.3C195.944 107.068 202.247 97.0361 201.394 95.639C200.54 94.2614 199.047 90.7494 199.396 90.0121C200.114 88.5181 205.563 84.3464 210.78 80.5821C210.838 80.7762 210.877 80.9702 210.935 81.1836C211.866 84.7538 212.99 89.236 214.232 93.9316C214.464 94.8241 214.561 95.7749 214.561 96.7644C214.542 105.127 207.134 116.575 209.674 120.669C209.868 121.251 210.683 121.775 211.943 122.221C220.786 125.307 251.815 124.899 249.759 120.592C249.759 120.592 244.349 108.018 250.768 79.6896C252.455 72.3746 242.913 62.4596 245.59 59.355Z" fill="#1482D1"/>
<path d="M211.982 122.241C210.703 121.795 209.888 121.271 209.714 120.689C207.154 116.595 214.562 105.147 214.6 96.7842C214.6 95.7946 214.504 94.8245 214.271 93.9513C213.03 89.2558 211.905 84.793 210.974 81.2034C210.121 78.3706 217.432 77.0512 219.701 79.9616C222.571 83.6094 221.621 93.6215 221.853 97.6186C222.299 105.826 211.381 120.883 211.982 122.241Z" fill="#1482D1"/>
<path d="M209.151 109.183C209.151 109.183 212.041 106.35 213.127 106.427C214.213 106.505 216.462 110.153 216.462 111.317C216.462 114.033 214.213 113.568 212.797 112.869C212.157 112.559 210.645 111.336 210.625 111.88C210.606 113.141 208.938 112.986 207.697 111.918C206.747 111.084 209.151 109.183 209.151 109.183Z" fill="#FFB27D"/>
<path d="M235.349 28.1546C235.349 28.1546 231.898 36.5174 225.731 38.2637C219.583 40.01 225.692 49.1489 221.891 49.3817C218.09 49.6146 212.447 23.3814 220.863 24.3128C229.299 25.2636 235.349 28.1546 235.349 28.1546Z" fill="#292A66"/>
<path d="M232.52 28.1544C232.52 28.1544 236.03 28.6395 236.864 31.6664C237.678 34.6933 238.958 38.8844 241.052 38.1859C243.147 37.4874 243.573 26.641 232.52 28.1544Z" fill="#292A66"/>
<path d="M177.715 149.987L168.387 154.76L166.525 148.279C166.525 148.279 167.708 146.028 168.251 142.361C168.484 140.809 168.581 139.024 168.445 137.025L176.047 140.925C176.047 140.925 175.873 141.624 175.737 142.672C175.601 143.797 175.543 145.311 175.873 146.746C176.144 147.969 176.707 149.152 177.715 149.987Z" fill="#FFB27D"/>
<path d="M161.056 151.306C161.056 151.306 152.446 140.149 148.257 136.676C148.257 136.676 142.517 122.531 142.052 121.6C141.586 120.668 138.6 122.376 138.6 122.376C138.6 122.376 140.713 136.133 142.924 140.207C145.154 144.282 152.039 157.961 156.887 158.466C161.774 158.97 161.056 151.306 161.056 151.306Z" fill="#FFB27D"/>
<path d="M187.082 256.297C187.082 256.297 188.052 258.198 190.205 258.664C191.562 258.955 192.726 259.673 193.443 260.663C194.064 261.497 193.463 262.68 192.435 262.68H181.497C180.567 262.68 179.83 261.885 179.927 260.954C180.004 260.139 180.101 259.207 180.14 258.47C180.217 256.898 181.808 255.618 181.808 255.618L187.082 256.297Z" fill="#2C3A64"/>
<path d="M187.334 256.782C187.334 256.782 184.716 258.334 180.275 257.403C180.275 257.403 172.731 238.077 172.285 228.996C172.265 228.628 172.265 228.278 172.265 227.949C172.421 219.392 164.528 197.136 166.661 192.557C168.794 187.997 185.996 194.614 185.996 194.614L186.345 210.136L187.334 256.782Z" fill="#292A66"/>
<path d="M186.308 210.117L172.267 228.977C172.248 228.609 172.248 228.259 172.248 227.93C172.403 219.373 164.51 197.117 166.643 192.538C168.777 187.978 185.978 194.595 185.978 194.595L186.308 210.117Z" fill="#292A66"/>
<path d="M178.395 152.276C178.395 152.276 190.825 141.178 191.582 139.664C192.338 138.131 195.867 124.51 195.867 124.51L198.834 124.879C198.834 124.879 198.272 141.216 197.031 144.399C195.79 147.581 181.148 161.105 181.148 161.105L178.395 152.276Z" fill="#FFB27D"/>
<path d="M158.827 256.297C158.827 256.297 159.796 258.198 161.949 258.664C163.306 258.955 164.47 259.673 165.187 260.663C165.808 261.497 165.207 262.68 164.179 262.68H153.242C152.311 262.68 151.574 261.885 151.671 260.954C151.748 260.139 151.845 259.207 151.884 258.47C151.962 256.898 153.552 255.618 153.552 255.618L158.827 256.297Z" fill="#2C3A64"/>
<path d="M175.912 194.964C175.912 194.964 160.708 251.718 160.242 257.267C160.242 257.267 157.275 258.781 152.466 256.103C152.466 256.103 149.673 230.665 152.466 223.719C155.258 216.773 151.903 195.759 159.02 191.005C166.118 186.271 175.912 194.964 175.912 194.964Z" fill="#292A66"/>
<path d="M185.472 158.214C185.53 157.438 190.204 154.275 190.204 154.275C191.193 148.376 187.431 144.127 187.431 144.127L181.807 148.124C180.721 148.182 180.255 148.59 180.255 148.59C179.324 148.337 176.532 148.551 176.532 148.551C176.571 149.89 176.222 151.17 173.875 151.461C170.733 151.869 167.941 149.734 166.525 148.279C166.525 148.279 164.625 148.105 162.239 148.9C162.239 148.9 161.095 148.318 159.854 148.279L155.239 144.127C155.239 144.127 149.847 145.679 148.994 153.829C148.994 153.829 155.045 158.447 155.491 162.094L155.665 163.472L156.247 168.362L157.275 176.938L154.191 194.032C154.172 194.187 154.153 194.323 154.153 194.478C154.153 195.623 154.928 196.651 156.072 196.923C156.072 196.923 156.344 196.962 156.829 197.04C160.087 197.505 173.332 199.077 183.707 196.263C186.034 195.623 187.586 193.392 187.392 190.986L185.2 163.414C185.22 163.394 185.433 158.99 185.472 158.214Z" fill="#1482D1"/>
<path d="M161.056 184.137C160.843 190.093 160.261 195.158 156.848 197.04C156.363 196.981 156.092 196.923 156.092 196.923C154.948 196.652 154.172 195.623 154.172 194.478C154.172 194.323 154.191 194.187 154.211 194.032L157.294 176.938L156.266 168.362C156.324 168.207 156.344 168.129 156.344 168.129C156.344 168.129 161.308 176.492 161.056 184.137Z" fill="#1482D1"/>
<path d="M175.873 146.746C171.549 146.63 168.252 142.361 168.252 142.361L175.738 142.672C175.621 143.797 175.563 145.311 175.873 146.746Z" fill="#EA9C68"/>
<path d="M177.967 144.341C177.967 144.341 169.337 146.611 166.37 139.762C163.151 132.35 166.68 126.955 169.609 126.587C175.446 125.869 178.84 128.081 179.867 130.448C180.895 132.796 182.737 143.118 177.967 144.341Z" fill="#FFB27D"/>
<path d="M174.553 140.46C174.553 140.46 174.921 141.353 177.19 140.848C177.19 140.848 179.11 140.421 178.877 139.432C178.877 139.432 176.899 139.005 174.553 140.46Z" fill="white"/>
<path d="M167.902 142.148C167.902 142.148 166.894 139.179 167.01 137.588C167.01 137.588 164.761 134.717 166.079 133.999C167.398 133.281 168.096 134.988 168.407 134.659C168.697 134.329 169.182 128.682 170.772 128.857C172.363 129.032 178.258 130.855 180.837 128.624C183.417 126.393 177.153 117.681 166.525 121.057C155.898 124.433 158.07 136.25 167.902 142.148Z" fill="#292A66"/>
<path d="M161.29 125.695C161.29 125.695 160.806 124.259 161.329 123.23C161.329 123.23 161.349 124.647 161.911 125.268C162.454 125.908 161.29 125.695 161.29 125.695Z" fill="#2C3A64"/>
<path d="M161.502 124.705C161.502 124.705 160.183 124.55 159.562 125.559C159.562 125.559 160.493 124.938 161.424 125.597L161.502 124.705Z" fill="#2C3A64"/>
<path d="M195.866 124.53C195.866 124.53 195.924 123.249 195.517 122.162C195.11 121.076 195.343 118.282 195.886 118.437C196.409 118.592 196.176 119.601 196.778 119.485C197.379 119.368 198.31 116.109 199.085 116.4C199.861 116.691 200.423 117.797 200.171 120.164C199.939 122.531 198.833 124.898 198.833 124.898L195.866 124.53Z" fill="#FFB27D"/>
<path d="M141.994 121.58C141.994 121.58 141.684 120.164 141.936 118.883C142.188 117.603 141.374 114.537 140.811 114.828C140.249 115.1 140.714 116.167 140.035 116.167C139.357 116.148 137.67 112.713 136.874 113.198C136.079 113.683 135.672 115.003 136.39 117.583C137.107 120.164 138.775 122.57 138.775 122.57L141.994 121.58Z" fill="#FFB27D"/>
<path d="M410.874 174.94C410.564 171.544 400.228 154.489 400.228 154.489L395.166 162.231C395.166 162.231 404.048 176.317 404.358 178.005C404.668 179.674 404.281 193.742 404.281 193.742C404.281 193.742 403.99 194.983 403.292 195.915C402.593 196.846 402.05 199.601 402.613 199.601C403.175 199.601 403.214 198.554 403.757 198.845C404.3 199.116 404.3 202.512 405.134 202.454C405.948 202.376 406.802 201.483 407.228 199.136C407.655 196.788 407.248 194.227 407.248 194.227C407.248 194.227 411.184 178.335 410.874 174.94Z" fill="#FFB27D"/>
<path d="M360.744 135.571C359.987 134.038 356.458 120.417 356.458 120.417C356.458 120.417 356.4 119.136 356.807 118.05C357.214 116.963 356.982 114.169 356.439 114.324C355.915 114.479 356.148 115.488 355.547 115.372C354.945 115.256 354.014 111.996 353.239 112.287C352.463 112.578 351.901 113.684 352.153 116.051C352.385 118.418 353.491 120.786 353.491 120.786C353.491 120.786 354.053 137.123 355.294 140.305C356.536 143.487 371.177 157.011 371.177 157.011L373.911 148.183C373.931 148.183 361.5 137.104 360.744 135.571Z" fill="#FFB27D"/>
<path d="M385.662 229.346L391.267 256.802H396.987C396.987 256.802 401.04 230.976 397.298 227.406C393.555 223.836 385.662 229.346 385.662 229.346Z" fill="#FFB27D"/>
<path d="M368.676 228.105L368.85 256.841L373.815 256.414C373.815 256.414 383.356 232.917 380.447 228.648C377.538 224.36 368.676 228.105 368.676 228.105Z" fill="#FFB27D"/>
<path d="M368.831 256.278C368.831 256.278 367.861 258.18 365.709 258.645C364.351 258.936 363.188 259.654 362.47 260.644C361.85 261.478 362.451 262.662 363.479 262.662H374.416C375.347 262.662 376.084 261.866 375.987 260.935C375.909 260.12 375.812 259.189 375.773 258.451C375.696 256.88 374.106 255.599 374.106 255.599L368.831 256.278Z" fill="#F36F21"/>
<path d="M392.257 227.503C391.947 229.909 391.055 231.674 389.484 232.373C385.121 234.313 380.156 234.158 375.929 233.343C374.998 233.168 374.106 232.955 373.272 232.741C368.986 231.616 365.961 230.064 365.961 230.064L369.646 193.528C373.815 192.674 379.516 194.575 385.043 202.977C390.027 210.583 393.091 221.235 392.257 227.503Z" fill="#1482D1"/>
<path d="M392.257 227.503C391.947 229.909 391.055 231.675 389.484 232.373C385.121 234.314 380.156 234.158 375.929 233.344C374.998 233.169 374.106 232.955 373.272 232.742C372.438 216.696 378.333 201.93 380.098 199.873C385.702 208.41 392.005 220.693 392.257 227.503Z" fill="#2C3A64"/>
<path d="M391.151 256.278C391.151 256.278 390.182 258.18 388.029 258.646C386.672 258.937 385.508 259.655 384.79 260.644C384.17 261.478 384.771 262.662 385.799 262.662H396.736C397.667 262.662 398.404 261.867 398.307 260.935C398.23 260.12 398.133 259.189 398.094 258.452C398.016 256.88 397.221 255.25 397.221 255.25L391.151 256.278Z" fill="#F36F21"/>
<path d="M394.662 121.697C393.363 119.699 391.559 119.602 389.814 117.914C388.165 116.323 385.121 115.275 382.677 115.275C374.881 115.275 368.152 120.048 369.684 128.139C370.169 130.7 369.762 132.738 371.837 135.745C374.435 139.49 377.596 142.498 382.677 142.498C385.373 142.498 387.739 141.877 389.814 139.917C390.938 138.85 392.567 138.714 393.556 137.55C395.573 135.202 395.418 132.097 396.155 128.896C396.853 125.947 396.019 123.774 394.662 121.697Z" fill="#292A66"/>
<path d="M376.725 194.964L381.553 234.857C381.553 234.857 391.793 237.263 403.04 233.732C403.04 233.732 399.685 195.488 396.99 192.713C394.294 189.919 376.725 194.964 376.725 194.964Z" fill="#1482D1"/>
<path d="M375.541 147.873L385.237 152.84L387.177 146.107C387.177 146.107 385.935 143.778 385.373 139.956C385.14 138.346 385.024 136.483 385.179 134.407L377.267 138.462C377.267 138.462 377.461 139.199 377.577 140.266C377.713 141.431 377.771 143.002 377.442 144.496C377.17 145.796 376.608 147.019 375.541 147.873Z" fill="#FFB27D"/>
<path d="M396.795 175.91L397.861 166.984L397.9 166.654C399.626 165.16 406.491 162.619 406.491 162.619C406.491 162.619 402.36 153.344 399.859 150.278C399.141 149.386 397.784 148.668 396.213 148.105C394.913 147.62 393.478 147.251 392.14 146.96C389.464 146.378 387.156 146.126 387.156 146.126C385.682 147.639 382.774 149.871 379.516 149.444C377.072 149.114 376.684 147.853 376.723 146.456C376.374 146.495 376.044 146.572 375.695 146.65L367.822 142.711C367.822 142.711 362.722 150.414 365.941 156.565C365.941 156.565 369.431 158.136 369.839 161.493L369.296 187.202C369.102 189.705 366.794 195.391 369.237 196.05C380.039 198.98 393.808 197.331 397.202 196.865C397.706 196.788 397.977 196.749 397.977 196.749C399.18 196.458 399.975 195.391 399.975 194.207C399.975 194.052 399.956 193.897 399.936 193.741L396.795 175.91Z" fill="#F36F21"/>
<path d="M389.504 181.363C389.639 187.572 393.712 194.848 397.261 196.827C397.765 196.749 398.036 196.711 398.036 196.711C399.239 196.42 400.034 195.352 400.034 194.169C400.034 194.014 400.015 193.858 399.995 193.703L396.795 175.93L397.862 167.004C397.804 166.849 397.784 166.771 397.784 166.771C397.784 166.771 389.251 170.4 389.504 181.363Z" fill="#F36F21"/>
<path d="M377.461 144.516C381.96 144.399 385.393 139.956 385.393 139.956L377.597 140.267C377.732 141.45 377.791 143.022 377.461 144.516Z" fill="#E8945B"/>
<path d="M377.034 141.799C377.034 141.799 386.964 143.002 387.177 135.998C387.39 128.993 383.24 124.453 380.486 124.511C374.979 124.608 374.067 126.839 373.427 129.168C372.787 131.477 372.458 141.295 377.034 141.799Z" fill="#FFB27D"/>
<path d="M379.69 137.764C379.69 137.764 379.477 138.637 377.305 138.482C377.305 138.482 375.482 138.346 375.54 137.376C375.54 137.376 377.325 136.696 379.69 137.764Z" fill="white"/>
<path d="M378.021 124.569C378.021 124.569 386.515 124.569 384.557 130.39C383.335 134.058 387.408 134.64 387.408 134.64L389.366 128.741L388.125 124.143L378.021 124.569Z" fill="#292A66"/>
<path d="M291.901 153.072C291.901 153.072 303.711 160.756 307.512 164.656C307.512 164.656 322.076 169.216 323.045 169.604C324.015 169.992 322.56 173.096 322.56 173.096C322.56 173.096 308.695 172.126 304.448 170.244C300.201 168.362 286.025 162.619 285.113 157.807C284.182 152.995 291.901 153.072 291.901 153.072Z" fill="#EA9C68"/>
<path d="M277.975 242.559L275.338 256.666H270.528L269.287 239.436L277.975 242.559Z" fill="#FFB27D"/>
<path d="M299.637 241.279L302.643 256.821L298.435 256.996L290.426 241.842L299.637 241.279Z" fill="#FFB27D"/>
<path d="M275.435 256.123C275.435 256.123 276.579 258.199 278.732 258.664C280.089 258.955 281.253 259.673 281.971 260.663C282.591 261.497 281.99 262.681 280.962 262.681H270.025C269.094 262.681 268.357 261.885 268.454 260.954C268.531 260.139 268.628 259.208 268.667 258.47C268.745 256.899 270.451 255.463 270.451 255.463C270.451 255.463 271.964 256.317 272.546 256.414C273.787 256.608 275.435 256.123 275.435 256.123Z" fill="#F36F21"/>
<path d="M302.527 256.123C302.527 256.123 303.652 258.199 305.805 258.684C307.162 258.994 308.326 259.693 309.043 260.702C309.644 261.536 309.043 262.72 308.015 262.72L297.078 262.662C296.147 262.662 295.429 261.847 295.526 260.915C295.604 260.1 295.701 259.169 295.74 258.432C295.837 256.86 297.543 255.424 297.543 255.424C297.543 255.424 299.036 256.278 299.618 256.394C300.879 256.608 302.527 256.123 302.527 256.123Z" fill="#F36F21"/>
<path d="M302.139 241.939C302.139 241.939 297.582 243.355 292.559 243.821C287.828 244.248 282.688 243.821 280.517 240.542C279.896 239.591 279.527 237.942 279.392 235.807C278.48 222.768 285.365 191.646 285.365 191.646H293.393C293.393 192.286 302.139 241.939 302.139 241.939Z" fill="#1482D1"/>
<path d="M292.558 243.802C287.826 244.229 282.687 243.802 280.515 240.523C279.895 239.572 279.526 237.923 279.391 235.788C279.391 235.769 279.41 235.749 279.41 235.711C280.69 230.937 284.181 201.328 284.181 201.328C284.181 201.328 296.185 233.014 292.558 243.802Z" fill="#1482D1"/>
<path d="M267.775 193.45C267.775 193.45 264.168 217.685 262.539 243.569C262.539 243.569 273.884 248.225 284.395 244.5L286.315 195.158L267.775 193.45Z" fill="#1482D1"/>
<path d="M273.167 123.153C273.167 123.153 272.43 119.932 269.385 119.776C269.385 119.776 270.355 120.358 270.51 120.979C270.51 120.979 268.745 119.505 266.011 120.494C263.276 121.484 259.204 124.278 261.259 130.759C263.315 137.239 259.126 138.85 257.458 143.041C255.771 147.232 261.492 148.027 260.309 151.307C259.126 154.566 262.656 162.289 271.615 158.913C280.575 155.536 282.611 142.595 278.81 139.432C274.989 136.25 273.167 123.153 273.167 123.153Z" fill="#F36F21"/>
<path d="M275.9 122.978C275.9 122.978 271.867 122.435 269.384 125.054C268.027 126.47 269.423 128.488 269.423 128.488L275.9 122.978Z" fill="#F99F46"/>
<path d="M288.1 129.226C288.023 129.09 284.823 124.045 278.85 123.017C274.002 122.202 269.464 125.617 268.727 130.487C267.97 135.377 268.746 141.702 276.697 143.972L288.1 129.226Z" fill="#F36F21"/>
<path d="M286.644 150.977L277.626 156.332L275.357 149.988C275.357 149.988 276.405 147.679 276.715 143.973C276.851 142.42 276.831 140.616 276.56 138.637L284.394 142.032C284.394 142.032 284.259 142.75 284.2 143.798C284.142 144.923 284.181 146.437 284.588 147.853C284.937 149.076 285.577 150.22 286.644 150.977Z" fill="#FFB27D"/>
<path d="M284.588 147.872C280.264 148.027 276.695 143.992 276.695 143.992L284.2 143.817C284.142 144.942 284.181 146.456 284.588 147.872Z" fill="#EA9C68"/>
<path d="M286.528 145.331C286.528 145.331 278.073 148.144 274.659 141.489C270.994 134.31 274.155 128.702 277.064 128.139C282.843 127.053 286.373 129.051 287.556 131.341C288.719 133.631 291.202 143.817 286.528 145.331Z" fill="#FFB27D"/>
<path d="M282.883 141.683C282.883 141.683 283.29 142.556 285.54 141.897C285.54 141.897 287.421 141.353 287.13 140.364C287.13 140.383 285.132 140.073 282.883 141.683Z" fill="white"/>
<path d="M298.028 157.244L290.852 151.403C289.999 150.666 288.913 150.142 287.536 149.968C287.032 149.909 285.965 149.715 285.364 149.638C285.461 150.977 285.461 152.063 283.134 152.471C280.012 153.014 276.909 151.19 275.435 149.793C272.992 150.259 271.847 150.511 269.908 151.268C268.783 151.714 267.911 152.509 267.348 153.518C266.844 154.43 266.611 155.478 266.747 156.565L269.132 177.19C269.132 177.19 266.282 194.75 266.767 194.789C270.044 195.099 284.375 197.991 294.634 194.711C296.282 194.187 292.307 184.893 293.121 165.859C298.784 162.463 298.028 157.244 298.028 157.244Z" fill="#35488B"/>
<path d="M280.594 128.935C280.594 128.935 280.71 135.59 276.871 137.782C276.871 137.782 278.383 134.658 277.879 132.738C277.879 132.738 276.89 138.675 273.865 139.703C270.84 140.732 269.308 128.682 275.571 126.276C281.835 123.851 288.002 126.723 288.739 130.972C289.476 135.202 288.914 136.094 288.914 136.094C288.914 136.094 285.985 128.003 280.594 128.935Z" fill="#F36F21"/>
<path d="M266.766 194.789C266.282 194.75 269.132 177.19 269.132 177.19L266.747 156.565C266.631 155.478 266.844 154.431 267.348 153.519C267.523 153.538 267.678 153.616 267.833 153.751C272.856 157.981 277.452 175.153 277.452 175.153C277.452 175.153 279.876 189.046 266.766 194.789Z" fill="#2C3A64"/>
<path d="M266.011 158.894C266.011 158.894 261.744 175.018 262.52 177.986C263.296 180.955 271.615 187.824 273.011 188.27L274.02 185.631C274.02 185.631 267.698 176.9 268.241 175.949C269.404 173.912 274.02 162.017 274.02 162.017L266.011 158.894Z" fill="#FFB27D"/>
<path d="M272.798 165.141C272.798 165.141 267.892 165.995 263.102 161.047C263.102 161.047 267.174 149.133 272.236 151.559C277.297 153.965 276.075 162.269 272.798 165.141Z" fill="#35488B"/>
<path d="M274.001 185.631C274.001 185.631 278.189 186.446 278.364 187.804C278.5 188.891 276.599 190.656 275.571 190.288C274.544 189.919 272.992 188.27 272.992 188.27L274.001 185.631Z" fill="#FFB27D"/>
<path d="M438.314 262.681H414.635C413.375 261.614 415.508 259.149 417.758 258.994C418.727 258.917 419.968 259.13 421.365 259.421C421.694 255.094 423.556 235.633 430.557 236.409C438.45 237.282 430.557 244.985 428.327 249.545C426.678 252.921 424.933 257.752 424.138 260.042C424.778 260.178 425.437 260.314 426.116 260.449C427.163 257.248 431.042 246.44 435.987 247.061C441.785 247.799 439.458 252.125 435.347 254.706C432.322 256.588 428.618 259.285 426.853 260.585C428.346 260.837 429.897 260.993 431.488 260.954C435.56 260.837 437.538 262.04 438.314 262.681Z" fill="#82B378"/>
<path d="M69.6776 261.478C68.3783 259.441 64.4609 254.124 59.2443 254.823C53.5622 255.579 65.5275 259.344 69.1927 261.497C68.3783 261.517 67.6801 261.439 67.1565 261.265C64.713 260.391 60.5048 262.06 59.1667 262.662H82.4962C82.341 262.099 81.9144 261.187 80.8284 260.527C80.4405 260.294 79.6842 260.256 78.6758 260.333C80.0721 258.703 81.0223 253.464 77.1632 254.823C74.3512 255.812 74.3512 258.994 74.6227 260.896C74.0215 260.993 73.4204 261.09 72.8192 261.168C71.6556 255.25 67.5444 237.884 59.2249 237.437C50.789 236.972 66.3808 255.444 71.5781 261.342C70.8993 261.4 70.2593 261.459 69.6776 261.478Z" fill="#82B378"/>
<path d="M113.099 121.465C113.099 121.465 105.245 122.512 103.17 127.848C101.114 133.203 98.7288 170.225 103.17 175.114C103.17 175.114 103.461 170.496 103.848 169.526C103.848 169.526 104.721 178.937 109.162 180.858C113.603 182.779 130.591 152.743 130.591 152.743C130.591 152.743 134.76 119.776 113.099 121.465Z" fill="#292A66"/>
<path d="M127.914 235.613C126.751 245.8 125.917 254.629 126.247 257.073L121.554 256.511H121.495C121.495 256.511 121.476 256.472 121.457 256.375C121.166 255.23 119.071 246.887 117.617 239.087C116.667 233.983 115.968 229.094 116.24 226.63C116.957 220.091 110.345 193.159 116.453 190.792C122.562 188.425 132.918 196.982 132.918 196.982C132.918 196.982 129.912 218.247 127.914 235.613Z" fill="#ED985F"/>
<path d="M118.644 236.235C116.899 246.208 115.6 254.803 115.755 257.229L111.043 256.142C111.043 256.142 108.89 244.791 107.901 235.575V235.556C107.455 231.364 107.242 227.62 107.591 225.582C108.715 219.102 103.77 191.821 109.995 189.842C116.24 187.862 126.033 197.04 126.033 197.04C126.033 197.04 121.689 218.752 118.644 236.235Z" fill="#FFB27D"/>
<path d="M128.263 150.647C128.263 150.647 135.419 162.716 136.854 172.553C136.854 172.553 133.383 177.249 131.967 173.95C130.551 170.652 120.409 152.995 128.263 150.647Z" fill="#EA9C68"/>
<path d="M126.907 129.245C126.829 129.11 123.629 124.065 117.656 123.036C112.808 122.221 108.27 125.636 107.533 130.507C106.777 135.396 107.553 141.722 115.504 143.992L126.907 129.245Z" fill="#2C3A64"/>
<path d="M125.453 150.996L116.435 156.351L114.166 150.006C114.166 150.006 115.213 147.697 115.524 143.991C115.659 142.439 115.64 140.634 115.368 138.655L123.203 142.051C123.203 142.051 123.067 142.769 123.009 143.817C122.951 144.942 122.99 146.455 123.397 147.872C123.746 149.094 124.367 150.239 125.453 150.996Z" fill="#FFB27D"/>
<path d="M123.397 147.872C119.072 148.027 115.504 143.991 115.504 143.991L123.009 143.816C122.951 144.942 122.989 146.455 123.397 147.872Z" fill="#EA9C68"/>
<path d="M125.336 145.33C125.336 145.33 116.881 148.144 113.468 141.488C109.803 134.309 112.964 128.702 115.873 128.139C121.652 127.052 125.181 129.051 126.364 131.34C127.528 133.63 130.01 143.817 125.336 145.33Z" fill="#FFB27D"/>
<path d="M121.672 141.702C121.672 141.702 122.079 142.575 124.329 141.915C124.329 141.915 126.21 141.372 125.919 140.382C125.938 140.382 123.921 140.091 121.672 141.702Z" fill="white"/>
<path d="M103.886 219.703C106.33 222.031 124.404 226.882 134.585 223.409C135.613 223.06 135.128 204.859 134.197 187.164C133.48 173.581 132.51 160.29 131.754 155.575C131.269 152.587 128.903 150.278 125.917 149.871C125.412 149.793 124.869 149.735 124.268 149.677C124.385 151.016 123.939 152.277 121.611 152.723C118.509 153.325 115.716 151.307 114.203 149.929C111.779 150.433 110.228 150.686 108.308 151.501C106.194 152.393 104.934 154.586 105.244 156.856L105.826 161.144L109.103 174.493C109.336 176.22 110.286 179.829 110.015 181.556C109.219 186.756 105.593 197.874 104.759 207.518C104.139 214.309 103.751 219.587 103.886 219.703Z" fill="#1482D1"/>
<path d="M104.74 207.517C105.012 207.207 122.136 187.202 122.756 176.569C123.377 165.839 114.165 158.02 114.165 158.02C110.5 157.787 107.785 158.97 105.807 161.163L108.444 174.571C108.968 176.414 109.433 179.169 109.162 180.877C108.386 186.057 105.574 197.893 104.74 207.517Z" fill="#1482D1"/>
<path d="M119.402 128.954C119.402 128.954 120.197 136.89 112.672 139.723C109.686 140.848 108.115 128.702 114.379 126.296C120.643 123.87 126.81 126.742 127.547 130.991C128.284 135.221 127.721 136.114 127.721 136.114C127.721 136.114 124.793 128.023 119.402 128.954Z" fill="#2C3A64"/>
<path d="M114.824 154.935C114.824 154.935 118.276 168.595 118.412 174.047C118.412 174.047 125.994 187.3 126.44 188.231C126.886 189.182 123.706 190.462 123.706 190.462C123.706 190.462 114.204 180.314 112.361 176.046C110.519 171.777 104.022 157.904 106.621 153.771C109.239 149.638 114.824 154.935 114.824 154.935Z" fill="#FFB27D"/>
<path d="M136.873 172.553C136.873 172.553 137.552 181.867 130.92 189.201C130.92 189.201 129.116 187.028 129.349 186.349C129.582 185.67 132.161 175.289 134.061 173.814C135.942 172.34 136.873 172.553 136.873 172.553Z" fill="#EA9C68"/>
<path d="M129.349 186.349C129.349 186.349 125.936 187.921 127.099 189.609C128.263 191.278 130.571 190.288 130.92 189.201C131.269 188.115 129.349 186.349 129.349 186.349Z" fill="#EA9C68"/>
<path d="M117.326 162.153C117.326 162.153 112.885 166.286 106.02 165.646C106.02 165.646 102.646 153.674 108.056 152.2C113.486 150.725 117.966 157.826 117.326 162.153Z" fill="#1482D1"/>
<path d="M126.247 257.074L121.554 256.511C121.515 256.472 121.496 256.414 121.457 256.375C121.166 255.23 119.072 246.887 117.617 239.087C117.695 238.388 117.831 237.865 118.005 237.535C118.005 237.535 123.338 238.059 127.915 235.614C126.751 245.8 125.917 254.629 126.247 257.074Z" fill="#F36F21"/>
<path d="M130.61 152.762L134.527 159.475C134.527 159.475 134.023 162.58 131.095 162.89C128.166 163.201 130.61 152.762 130.61 152.762Z" fill="#1482D1"/>
<path d="M115.774 257.229L111.062 256.142C111.062 256.142 108.909 244.792 107.92 235.575V235.556C107.92 235.556 112.283 238.524 118.663 236.235C116.918 246.208 115.599 254.823 115.774 257.229Z" fill="#F36F21"/>
<path d="M126.189 256.142C126.189 256.142 127.314 258.219 129.467 258.704C130.824 259.014 131.988 259.713 132.705 260.722C133.306 261.556 132.705 262.739 131.677 262.739L120.74 262.681C119.809 262.681 119.092 261.866 119.188 260.935C119.266 260.12 119.363 259.189 119.402 258.451C119.499 256.88 121.205 255.444 121.205 255.444C121.205 255.444 122.699 256.298 123.28 256.414C124.541 256.627 126.189 256.142 126.189 256.142Z" fill="#2C3A64"/>
<path d="M115.89 256.142C115.89 256.142 117.015 258.219 119.168 258.704C120.525 259.014 121.689 259.713 122.406 260.722C123.008 261.556 122.406 262.739 121.379 262.739L110.441 262.681C109.51 262.681 108.793 261.866 108.89 260.935C108.967 260.12 109.064 259.189 109.103 258.451C109.2 256.88 110.906 255.444 110.906 255.444C110.906 255.444 112.4 256.298 112.981 256.414C114.242 256.627 115.89 256.142 115.89 256.142Z" fill="#2C3A64"/>
<path d="M126.442 188.231C126.442 188.231 130.689 188.192 130.921 189.201C131.154 190.19 129.835 193.314 126.732 192.228C123.63 191.141 123.707 190.462 123.707 190.462L126.442 188.231Z" fill="#FFB27D"/>
<path d="M109.608 130.041C109.356 128.973 109.569 128.682 109.918 128.585C110.268 128.508 110.597 128.663 110.849 129.73C111.101 130.797 110.694 131.806 110.694 131.806C110.694 131.806 109.88 131.108 109.608 130.041Z" fill="#F99746"/>
<path d="M112.071 130.118C112.944 129.458 113.313 129.536 113.526 129.827C113.739 130.099 113.72 130.467 112.847 131.146C111.975 131.806 110.869 131.845 110.869 131.845C110.869 131.845 111.199 130.797 112.071 130.118Z" fill="#F99746"/>
<path d="M108.736 130.933C107.65 130.739 107.379 130.991 107.32 131.321C107.262 131.67 107.437 131.981 108.523 132.175C109.609 132.369 110.598 131.884 110.598 131.884C110.598 131.884 109.822 131.127 108.736 130.933Z" fill="#F99746"/>
<path d="M109.162 133.378C108.639 134.348 108.775 134.678 109.085 134.853C109.395 135.028 109.764 134.95 110.287 133.999C110.811 133.029 110.694 131.942 110.694 131.942C110.694 131.942 109.686 132.427 109.162 133.378Z" fill="#F99746"/>
<path d="M112.769 132.505C113.68 133.126 113.719 133.494 113.525 133.786C113.331 134.077 112.982 134.193 112.071 133.572C111.159 132.951 110.771 131.923 110.771 131.923C110.771 131.923 111.857 131.884 112.769 132.505Z" fill="#F99746"/>
<path d="M110.229 131.806C110.229 131.554 110.442 131.341 110.694 131.341C110.946 131.341 111.159 131.554 111.159 131.806C111.159 132.059 110.946 132.272 110.694 132.272C110.422 132.272 110.229 132.078 110.229 131.806Z" fill="#FFB93E"/>
<path d="M325.873 146.766C321.568 148.512 320.482 145.504 319.202 144.67C316.72 143.04 316.642 141.294 317.399 139.509C318.621 136.56 314.723 135.279 315.809 131.321C316.895 127.362 318.136 128.061 318.601 124.762C318.97 122.124 322.538 120.959 324.458 120.862C326.921 120.746 329.694 118.456 332.583 119.077C335.492 119.698 336.035 120.785 337.354 121.018C338.673 121.25 341.407 120.882 345.499 124.976C349.513 128.973 347.942 130.545 348.408 132.582C348.873 134.6 349.145 139.354 347.361 140.363C345.576 141.372 344.626 145.078 342.764 145.175C339.274 145.349 338.867 147.503 336.714 147.872C335.046 148.163 334.309 147.192 331.633 148.551C330.198 149.288 327.793 145.989 325.873 146.766Z" fill="#292A66"/>
<path d="M314.977 196.981C314.977 196.981 322.52 250.476 321.648 257.073L326.399 256.491C326.399 256.491 332.352 233.149 331.635 226.61C330.917 220.071 337.53 193.139 331.422 190.772C325.332 188.424 314.977 196.981 314.977 196.981Z" fill="#A05A2B"/>
<path d="M321.822 197.058C321.822 197.058 332.566 250.592 332.12 257.247L336.832 256.161C336.832 256.161 341.409 232.101 340.284 225.62C339.159 219.139 344.105 191.858 337.879 189.879C331.635 187.861 321.822 197.058 321.822 197.058Z" fill="#BC6E39"/>
<path d="M321.685 256.141C321.685 256.141 320.56 258.218 318.408 258.703C317.05 259.013 315.887 259.712 315.169 260.721C314.568 261.555 315.169 262.738 316.197 262.738L327.134 262.68C328.065 262.68 328.783 261.865 328.686 260.934C328.608 260.119 328.511 259.188 328.472 258.45C328.375 256.879 326.669 255.443 326.669 255.443C326.669 255.443 325.176 256.297 324.594 256.413C323.353 256.626 321.685 256.141 321.685 256.141Z" fill="#2C3A64"/>
<path d="M331.984 256.141C331.984 256.141 330.859 258.218 328.706 258.703C327.349 259.013 326.185 259.712 325.468 260.721C324.867 261.555 325.468 262.738 326.496 262.738L337.433 262.68C338.364 262.68 339.082 261.865 338.985 260.934C338.907 260.119 338.81 259.188 338.771 258.45C338.674 256.879 336.968 255.443 336.968 255.443C336.968 255.443 335.475 256.297 334.893 256.413C333.632 256.626 331.984 256.141 331.984 256.141Z" fill="#35488B"/>
<path d="M319.611 150.646C319.611 150.646 312.455 162.715 311.02 172.553C311.02 172.553 314.491 177.248 315.906 173.95C317.322 170.651 327.484 152.994 319.611 150.646Z" fill="#BC6E39"/>
<path d="M322.443 150.996L331.461 156.351L333.73 150.006C333.73 150.006 332.683 147.697 332.372 143.991C332.237 142.439 332.256 140.634 332.528 138.655L324.693 142.051C324.693 142.051 324.829 142.769 324.887 143.817C324.945 144.942 324.906 146.455 324.499 147.872C324.131 149.094 323.51 150.239 322.443 150.996Z" fill="#BC6E39"/>
<path d="M324.498 147.871C328.823 148.026 332.391 143.991 332.391 143.991L324.886 143.816C324.944 144.941 324.905 146.455 324.498 147.871Z" fill="#A05A2B"/>
<path d="M322.539 145.33C322.539 145.33 330.994 148.143 334.407 141.488C338.073 134.309 334.912 128.701 332.003 128.138C326.224 127.052 322.694 129.05 321.511 131.34C320.367 133.63 317.885 143.816 322.539 145.33Z" fill="#BC6E39"/>
<path d="M326.203 141.702C326.203 141.702 325.796 142.575 323.547 141.915C323.547 141.915 321.665 141.372 321.956 140.382C321.956 140.382 323.954 140.091 326.203 141.702Z" fill="white"/>
<path d="M344.006 219.702C341.563 222.03 323.489 226.881 313.308 223.408C311.485 222.787 314.393 166.46 316.139 155.594C316.624 152.606 318.99 150.297 321.976 149.889C322.48 149.812 323.101 149.754 323.683 149.695C323.566 151.034 323.954 152.295 326.281 152.761C329.384 153.363 332.215 151.403 333.728 150.045C336.152 150.549 337.665 150.743 339.604 151.558C341.718 152.451 342.978 154.643 342.668 156.913L342.086 161.201L340.225 174.881C339.992 176.608 340.011 178.334 340.263 180.061C341.058 185.261 342.3 197.932 343.153 207.575C343.735 214.308 344.123 219.586 344.006 219.702Z" fill="#35488B"/>
<path d="M343.153 207.517C342.882 207.207 325.758 187.202 325.137 176.569C324.517 165.839 333.728 158.02 333.728 158.02C337.394 157.787 340.109 158.97 342.087 161.163L340.225 174.842C339.992 176.569 340.012 178.296 340.264 180.023C341.059 185.223 342.3 197.893 343.153 207.517Z" fill="#2C3A64"/>
<path d="M328.472 128.954C328.472 128.954 327.677 136.89 335.201 139.722C338.188 140.848 339.759 128.701 333.495 126.295C327.231 123.87 321.064 126.742 320.327 130.991C319.59 135.221 320.153 136.113 320.153 136.113C320.153 136.113 323.081 128.022 328.472 128.954Z" fill="#292A66"/>
<path d="M333.05 154.935C333.05 154.935 329.598 168.594 329.462 174.047C329.462 174.047 321.88 187.299 321.434 188.23C320.987 189.181 324.168 190.462 324.168 190.462C324.168 190.462 333.67 180.314 335.513 176.045C337.355 171.777 343.851 157.903 341.253 153.77C338.654 149.637 333.05 154.935 333.05 154.935Z" fill="#BC6E39"/>
<path d="M311.02 172.553C311.02 172.553 310.341 181.866 316.973 189.201C316.973 189.201 318.777 187.028 318.544 186.348C318.311 185.669 315.732 175.289 313.832 173.814C311.931 172.339 311.02 172.553 311.02 172.553Z" fill="#BC6E39"/>
<path d="M321.433 188.231C321.433 188.231 317.187 188.192 316.954 189.201C316.721 190.19 318.04 193.314 321.143 192.228C324.245 191.141 324.168 190.462 324.168 190.462L321.433 188.231Z" fill="#BC6E39"/>
<path d="M318.545 186.348C318.545 186.348 321.958 187.92 320.795 189.608C319.631 191.277 317.323 190.287 316.974 189.2C316.606 188.114 318.545 186.348 318.545 186.348Z" fill="#BC6E39"/>
<path d="M330.548 162.152C330.548 162.152 334.989 166.285 341.854 165.645C341.854 165.645 345.228 153.673 339.818 152.199C334.407 150.724 329.927 157.825 330.548 162.152Z" fill="#35488B"/>
<path d="M317.283 152.761L313.365 159.474C313.365 159.474 313.869 162.579 316.798 162.889C319.726 163.2 317.283 152.761 317.283 152.761Z" fill="#35488B"/>
<path d="M501.418 264H0.562389C0.252105 264 0 263.748 0 263.437V263.243C0 262.933 0.252105 262.681 0.562389 262.681H501.418C501.729 262.681 501.981 262.933 501.981 263.243V263.437C502 263.748 501.729 264 501.418 264Z" fill="#2E3552"/>
</g>
<defs>
<clipPath id="clip0">
<rect width="502" height="264" fill="white"/>
</clipPath>
</defs>
</svg>
