<svg width="133" height="104" viewBox="0 0 133 104" fill="none" xmlns="http://www.w3.org/2000/svg">
<g clip-path="url(#clip0)">
<path opacity="0.1" d="M131.486 74.5757C130.933 75.9815 130.251 77.3331 129.449 78.6132C129.449 78.6232 129.436 78.6343 129.429 78.6443C129.08 79.1815 128.602 79.6222 128.037 79.9258C127.473 80.2293 126.841 80.3858 126.2 80.3808H10.9509C2.53815 80.3808 -2.73302 71.7055 1.48516 64.7754C9.0759 52.3093 16.2482 35.0058 7.56967 23.0806C-6.36634 3.90526 8.64378 0.425935 18.5454 0.0277665C22.3552 -0.124288 26.155 0.516498 29.7036 1.90945C34.2782 3.70555 42.6388 6.45179 53.5313 7.71204C53.889 7.75421 54.2491 7.7939 54.6141 7.83608C60.3798 8.44127 66.1869 8.54959 71.9711 8.15982C72.1413 8.15114 72.3114 8.1375 72.4852 8.12509C78.2122 7.70699 83.8926 6.79731 89.4635 5.40614C89.8248 5.31559 90.1812 5.23 90.5351 5.14441C109.116 0.708746 126.245 15.823 121.962 32.8983C120.379 39.2169 120.781 45.9511 126.06 51.3976C134.696 60.3012 133.649 69.0584 131.486 74.5757Z" fill="#1482D1"/>
<path d="M112.485 76.1069H113.991C114.815 76.1069 115.604 76.4336 116.187 77.0152C116.769 77.5967 117.096 78.3855 117.096 79.2079V83.8111H109.381V79.2079C109.381 78.3855 109.708 77.5967 110.29 77.0152C110.872 76.4336 111.662 76.1069 112.485 76.1069Z" fill="#3F3D56"/>
<path opacity="0.1" d="M112.485 76.1069H113.991C114.815 76.1069 115.604 76.4336 116.187 77.0152C116.769 77.5967 117.096 78.3855 117.096 79.2079V83.8111H109.381V79.2079C109.381 78.3855 109.708 77.5967 110.29 77.0152C110.872 76.4336 111.662 76.1069 112.485 76.1069Z" fill="black"/>
<path d="M112.93 77.8028C113.27 77.8028 113.547 77.5268 113.547 77.1863C113.547 76.8458 113.27 76.5698 112.93 76.5698C112.589 76.5698 112.312 76.8458 112.312 77.1863C112.312 77.5268 112.589 77.8028 112.93 77.8028Z" fill="#3F3D56"/>
<path d="M112.93 77.0323C113.27 77.0323 113.547 76.7563 113.547 76.4158C113.547 76.0753 113.27 75.7993 112.93 75.7993C112.589 75.7993 112.312 76.0753 112.312 76.4158C112.312 76.7563 112.589 77.0323 112.93 77.0323Z" fill="#3F3D56"/>
<path d="M112.93 76.2618C113.27 76.2618 113.547 75.9857 113.547 75.6453C113.547 75.3048 113.27 75.0288 112.93 75.0288C112.589 75.0288 112.312 75.3048 112.312 75.6453C112.312 75.9857 112.589 76.2618 112.93 76.2618Z" fill="#3F3D56"/>
<path d="M112.93 75.4908C113.27 75.4908 113.547 75.2148 113.547 74.8743C113.547 74.5338 113.27 74.2578 112.93 74.2578C112.589 74.2578 112.312 74.5338 112.312 74.8743C112.312 75.2148 112.589 75.4908 112.93 75.4908Z" fill="#3F3D56"/>
<path d="M112.93 74.7207C113.27 74.7207 113.547 74.4447 113.547 74.1043C113.547 73.7638 113.27 73.4878 112.93 73.4878C112.589 73.4878 112.312 73.7638 112.312 74.1043C112.312 74.4447 112.589 74.7207 112.93 74.7207Z" fill="#3F3D56"/>
<path d="M112.93 73.9503C113.27 73.9503 113.547 73.6743 113.547 73.3338C113.547 72.9933 113.27 72.7173 112.93 72.7173C112.589 72.7173 112.312 72.9933 112.312 73.3338C112.312 73.6743 112.589 73.9503 112.93 73.9503Z" fill="#3F3D56"/>
<path d="M112.93 73.1797C113.27 73.1797 113.547 72.9037 113.547 72.5633C113.547 72.2228 113.27 71.9468 112.93 71.9468C112.589 71.9468 112.312 72.2228 112.312 72.5633C112.312 72.9037 112.589 73.1797 112.93 73.1797Z" fill="#3F3D56"/>
<path d="M113.855 73.4888C114.196 73.4888 114.473 73.2128 114.473 72.8723C114.473 72.5319 114.196 72.2559 113.855 72.2559C113.515 72.2559 113.238 72.5319 113.238 72.8723C113.238 73.2128 113.515 73.4888 113.855 73.4888Z" fill="#3F3D56"/>
<path d="M114.473 73.1797C114.813 73.1797 115.09 72.9037 115.09 72.5633C115.09 72.2228 114.813 71.9468 114.473 71.9468C114.132 71.9468 113.855 72.2228 113.855 72.5633C113.855 72.9037 114.132 73.1797 114.473 73.1797Z" fill="#3F3D56"/>
<path d="M115.088 72.8721C115.429 72.8721 115.705 72.5961 115.705 72.2556C115.705 71.9152 115.429 71.6392 115.088 71.6392C114.747 71.6392 114.471 71.9152 114.471 72.2556C114.471 72.5961 114.747 72.8721 115.088 72.8721Z" fill="#3F3D56"/>
<path d="M112.93 72.4092C113.27 72.4092 113.547 72.1332 113.547 71.7927C113.547 71.4523 113.27 71.1763 112.93 71.1763C112.589 71.1763 112.312 71.4523 112.312 71.7927C112.312 72.1332 112.589 72.4092 112.93 72.4092Z" fill="#3F3D56"/>
<path d="M112.93 71.6392C113.27 71.6392 113.547 71.3632 113.547 71.0227C113.547 70.6823 113.27 70.4062 112.93 70.4062C112.589 70.4062 112.312 70.6823 112.312 71.0227C112.312 71.3632 112.589 71.6392 112.93 71.6392Z" fill="#3F3D56"/>
<path d="M112.93 70.8692C113.27 70.8692 113.547 70.5932 113.547 70.2527C113.547 69.9122 113.27 69.6362 112.93 69.6362C112.589 69.6362 112.312 69.9122 112.312 70.2527C112.312 70.5932 112.589 70.8692 112.93 70.8692Z" fill="#3F3D56"/>
<path d="M112.93 70.0982C113.27 70.0982 113.547 69.8222 113.547 69.4817C113.547 69.1412 113.27 68.8652 112.93 68.8652C112.589 68.8652 112.312 69.1412 112.312 69.4817C112.312 69.8222 112.589 70.0982 112.93 70.0982Z" fill="#3F3D56"/>
<path d="M115.487 67.4938C115.334 67.5162 115.18 67.5323 115.026 67.5422C115.17 67.4167 115.303 67.2798 115.425 67.1329C115.339 66.874 115.213 66.63 115.052 66.4097C114.899 66.4956 114.73 66.5488 114.555 66.566C114.403 66.5883 114.249 66.6057 114.095 66.6156C114.302 66.4189 114.498 66.2119 114.684 65.9954C114.239 65.5936 113.669 65.3567 113.069 65.3246C112.47 65.2924 111.877 65.4669 111.391 65.8187C110.905 66.1706 110.555 66.6786 110.399 67.2576C110.243 67.8367 110.29 68.4518 110.534 68.9999C110.777 69.548 111.202 69.9959 111.737 70.2687C112.271 70.5416 112.883 70.6227 113.471 70.4986C114.058 70.3745 114.585 70.0527 114.963 69.5871C115.341 69.1214 115.548 68.5401 115.549 67.9404C115.549 67.7894 115.535 67.6387 115.509 67.4901L115.487 67.4938Z" fill="#1482D1"/>
<path d="M117.549 70.5561C117.391 70.6525 117.214 70.7119 117.03 70.7298C116.877 70.7521 116.723 70.7682 116.569 70.7781C116.733 70.6315 116.886 70.4731 117.026 70.3043C116.654 70.2074 116.259 70.2526 115.919 70.4311C115.578 70.6096 115.317 70.9085 115.185 71.2694C115.053 71.6303 115.061 72.0273 115.207 72.3827C115.353 72.7381 115.626 73.0264 115.974 73.1912C116.321 73.3561 116.717 73.3856 117.085 73.274C117.453 73.1624 117.766 72.9177 117.963 72.5878C118.16 72.2579 118.227 71.8665 118.15 71.49C118.074 71.1136 117.859 70.7793 117.549 70.5524V70.5561Z" fill="#1482D1"/>
<path d="M112.004 73.4888C112.345 73.4888 112.621 73.2128 112.621 72.8723C112.621 72.5319 112.345 72.2559 112.004 72.2559C111.663 72.2559 111.387 72.5319 111.387 72.8723C111.387 73.2128 111.663 73.4888 112.004 73.4888Z" fill="#3F3D56"/>
<path d="M111.387 73.1797C111.728 73.1797 112.004 72.9037 112.004 72.5633C112.004 72.2228 111.728 71.9468 111.387 71.9468C111.046 71.9468 110.77 72.2228 110.77 72.5633C110.77 72.9037 111.046 73.1797 111.387 73.1797Z" fill="#3F3D56"/>
<path d="M110.769 72.8721C111.11 72.8721 111.387 72.5961 111.387 72.2556C111.387 71.9152 111.11 71.6392 110.769 71.6392C110.429 71.6392 110.152 71.9152 110.152 72.2556C110.152 72.5961 110.429 72.8721 110.769 72.8721Z" fill="#3F3D56"/>
<path d="M108.31 70.5561C108.468 70.6527 108.645 70.7121 108.829 70.7298C108.982 70.7521 109.136 70.7682 109.29 70.7781C109.126 70.6318 108.973 70.4734 108.833 70.3043C109.205 70.2074 109.6 70.2526 109.94 70.4311C110.281 70.6096 110.542 70.9085 110.674 71.2694C110.806 71.6303 110.798 72.0273 110.652 72.3827C110.506 72.7381 110.233 73.0264 109.885 73.1912C109.538 73.3561 109.142 73.3856 108.774 73.274C108.406 73.1624 108.093 72.9177 107.896 72.5878C107.699 72.2579 107.632 71.8665 107.709 71.49C107.785 71.1136 108 70.7793 108.31 70.5524V70.5561Z" fill="#1482D1"/>
<path d="M112.485 76.5698H113.991C114.815 76.5698 115.604 76.8965 116.187 77.4781C116.769 78.0596 117.096 78.8484 117.096 79.6708V83.748C117.096 83.8875 117.04 84.0213 116.942 84.1199C116.843 84.2185 116.709 84.2739 116.569 84.2739H109.907C109.768 84.2739 109.634 84.2185 109.535 84.1199C109.436 84.0213 109.381 83.8875 109.381 83.748V79.6708C109.381 78.8484 109.708 78.0596 110.29 77.4781C110.872 76.8965 111.662 76.5698 112.485 76.5698Z" fill="#3F3D56"/>
<g opacity="0.1">
<path opacity="0.1" d="M115.535 67.6626C115.472 67.7293 115.406 67.7922 115.336 67.8511C115.407 67.8511 115.476 67.84 115.547 67.8325C115.549 67.7755 115.541 67.7184 115.535 67.6626Z" fill="black"/>
<path opacity="0.1" d="M114.41 66.9261C114.565 66.9162 114.718 66.9001 114.872 66.8777C115.01 66.8603 115.145 66.8235 115.273 66.7686C115.21 66.6446 115.138 66.5256 115.057 66.4126C114.98 66.4596 114.896 66.4951 114.809 66.518C114.687 66.6644 114.554 66.8009 114.41 66.9261Z" fill="black"/>
<path opacity="0.1" d="M110.616 68.2493C110.615 67.7791 110.742 67.3173 110.981 66.9125C111.221 66.5078 111.566 66.1752 111.979 65.9497C112.392 65.7242 112.858 65.6141 113.329 65.6312C113.799 65.6482 114.256 65.7916 114.652 66.0464L114.692 66.0042C114.434 65.7747 114.132 65.5985 113.806 65.4857C113.479 65.373 113.133 65.3259 112.788 65.3473C112.443 65.3687 112.106 65.458 111.795 65.6102C111.485 65.7624 111.208 65.9744 110.98 66.2341C110.752 66.4937 110.578 66.7959 110.467 67.123C110.357 67.4502 110.312 67.796 110.336 68.1405C110.36 68.485 110.452 68.8214 110.607 69.1302C110.761 69.439 110.976 69.7143 111.237 69.94C110.836 69.4681 110.616 68.8687 110.616 68.2493Z" fill="black"/>
</g>
<g opacity="0.1">
<path opacity="0.1" d="M116.57 71.0861C116.724 71.0762 116.878 71.0601 117.031 71.0377C117.215 71.0204 117.393 70.961 117.55 70.8641C117.724 70.9923 117.87 71.1558 117.977 71.3439C118.084 71.5319 118.15 71.7404 118.171 71.9556C118.177 71.9017 118.18 71.8474 118.18 71.7931C118.181 71.5522 118.125 71.3144 118.017 71.0989C117.909 70.8835 117.752 70.6963 117.559 70.5527C117.401 70.6491 117.224 70.7085 117.04 70.7264L116.916 70.7413C116.81 70.865 116.694 70.9803 116.57 71.0861Z" fill="black"/>
<path opacity="0.1" d="M116.632 70.5601C116.684 70.5607 116.735 70.5644 116.786 70.5712C116.867 70.4856 116.946 70.3939 117.027 70.3045C116.799 70.2436 116.559 70.236 116.328 70.2823C116.096 70.3286 115.878 70.4275 115.691 70.5714C115.504 70.7153 115.352 70.9004 115.248 71.1122C115.143 71.324 115.089 71.557 115.09 71.793C115.09 71.8451 115.09 71.896 115.097 71.9468C115.135 71.5667 115.314 71.2144 115.597 70.9581C115.881 70.7019 116.25 70.56 116.632 70.5601Z" fill="black"/>
</g>
<g opacity="0.1">
<path opacity="0.1" d="M109.289 71.0861C109.135 71.0762 108.981 71.0601 108.828 71.0377C108.644 71.0206 108.467 70.9612 108.309 70.8641C108.135 70.9923 107.99 71.1558 107.883 71.3439C107.776 71.5319 107.709 71.7404 107.688 71.9556C107.682 71.9017 107.679 71.8474 107.68 71.7931C107.679 71.5522 107.734 71.3144 107.842 71.0989C107.95 70.8835 108.107 70.6963 108.301 70.5527C108.458 70.6493 108.636 70.7087 108.82 70.7264L108.944 70.7413C109.049 70.8656 109.165 70.9809 109.289 71.0861Z" fill="black"/>
<path opacity="0.1" d="M109.227 70.5601C109.175 70.5607 109.123 70.5644 109.072 70.5712C108.992 70.4856 108.913 70.3939 108.832 70.3045C109.06 70.2436 109.3 70.236 109.531 70.2823C109.763 70.3286 109.981 70.4275 110.168 70.5714C110.355 70.7153 110.507 70.9004 110.611 71.1122C110.716 71.324 110.77 71.557 110.769 71.793C110.769 71.8451 110.769 71.896 110.762 71.9468C110.724 71.5667 110.545 71.2144 110.262 70.9581C109.978 70.7019 109.609 70.56 109.227 70.5601Z" fill="black"/>
</g>
<path d="M27.2039 83.118H8.32951C8.11676 83.118 7.91273 83.0336 7.76229 82.8833C7.61186 82.733 7.52734 82.5292 7.52734 82.3167V73.397C7.52714 73.2617 7.56126 73.1286 7.62653 73.0101C7.69179 72.8916 7.78607 72.7916 7.90055 72.7193C8.01503 72.6471 8.14597 72.605 8.28114 72.5971C8.41631 72.5891 8.55129 72.6155 8.67347 72.6738C14.0986 75.2439 19.9348 76.1259 26.8438 72.7148C26.9661 72.6538 27.102 72.625 27.2386 72.6311C27.3751 72.6372 27.5079 72.678 27.6243 72.7496C27.7407 72.8213 27.8368 72.9214 27.9036 73.0406C27.9704 73.1597 28.0057 73.2939 28.0061 73.4305V82.3192C28.0054 82.5313 27.9206 82.7344 27.7703 82.8842C27.6199 83.0339 27.4162 83.118 27.2039 83.118Z" fill="#1482D1"/>
<path opacity="0.1" d="M27.2039 83.118H8.32951C8.11676 83.118 7.91273 83.0336 7.76229 82.8833C7.61186 82.733 7.52734 82.5292 7.52734 82.3167V73.397C7.52714 73.2617 7.56126 73.1286 7.62653 73.0101C7.69179 72.8916 7.78607 72.7916 7.90055 72.7193C8.01503 72.6471 8.14597 72.605 8.28114 72.5971C8.41631 72.5891 8.55129 72.6155 8.67347 72.6738C14.0986 75.2439 19.9348 76.1259 26.8438 72.7148C26.9661 72.6538 27.102 72.625 27.2386 72.6311C27.3751 72.6372 27.5079 72.678 27.6243 72.7496C27.7407 72.8213 27.8368 72.9214 27.9036 73.0406C27.9704 73.1597 28.0057 73.2939 28.0061 73.4305V82.3192C28.0054 82.5313 27.9206 82.7344 27.7703 82.8842C27.6199 83.0339 27.4162 83.118 27.2039 83.118Z" fill="black"/>
<path d="M17.6371 76.333C18.2543 76.333 18.7547 75.6788 18.7547 74.8718C18.7547 74.0648 18.2543 73.4106 17.6371 73.4106C17.0199 73.4106 16.5195 74.0648 16.5195 74.8718C16.5195 75.6788 17.0199 76.333 17.6371 76.333Z" fill="#3F3D56"/>
<path d="M17.6371 74.5469C18.2543 74.5469 18.7547 73.8927 18.7547 73.0857C18.7547 72.2787 18.2543 71.6245 17.6371 71.6245C17.0199 71.6245 16.5195 72.2787 16.5195 73.0857C16.5195 73.8927 17.0199 74.5469 17.6371 74.5469Z" fill="#3F3D56"/>
<path d="M17.6371 72.7603C18.2543 72.7603 18.7547 72.1061 18.7547 71.2991C18.7547 70.4921 18.2543 69.8379 17.6371 69.8379C17.0199 69.8379 16.5195 70.4921 16.5195 71.2991C16.5195 72.1061 17.0199 72.7603 17.6371 72.7603Z" fill="#3F3D56"/>
<path d="M17.6371 70.9746C18.2543 70.9746 18.7547 70.3204 18.7547 69.5134C18.7547 68.7064 18.2543 68.0522 17.6371 68.0522C17.0199 68.0522 16.5195 68.7064 16.5195 69.5134C16.5195 70.3204 17.0199 70.9746 17.6371 70.9746Z" fill="#3F3D56"/>
<path d="M17.6371 69.188C18.2543 69.188 18.7547 68.5338 18.7547 67.7268C18.7547 66.9198 18.2543 66.2656 17.6371 66.2656C17.0199 66.2656 16.5195 66.9198 16.5195 67.7268C16.5195 68.5338 17.0199 69.188 17.6371 69.188Z" fill="#3F3D56"/>
<path d="M17.6371 67.4019C18.2543 67.4019 18.7547 66.7477 18.7547 65.9407C18.7547 65.1337 18.2543 64.4795 17.6371 64.4795C17.0199 64.4795 16.5195 65.1337 16.5195 65.9407C16.5195 66.7477 17.0199 67.4019 17.6371 67.4019Z" fill="#3F3D56"/>
<path d="M17.6371 65.6157C18.2543 65.6157 18.7547 64.9615 18.7547 64.1546C18.7547 63.3476 18.2543 62.6934 17.6371 62.6934C17.0199 62.6934 16.5195 63.3476 16.5195 64.1546C16.5195 64.9615 17.0199 65.6157 17.6371 65.6157Z" fill="#3F3D56"/>
<path d="M21.8193 51.9317C21.9721 51.7374 22.1111 51.5327 22.2353 51.319L19.2986 50.8377L22.475 50.8613C22.7792 50.199 22.9451 49.4817 22.9626 48.7532C22.9801 48.0246 22.8489 47.3002 22.5768 46.6241L18.3201 48.832L22.249 45.9468C21.8804 45.3121 21.3851 44.7599 20.7938 44.3247C20.2024 43.8894 19.5277 43.5804 18.8117 43.4168C18.0956 43.2532 17.3536 43.2386 16.6316 43.3738C15.9097 43.5091 15.2233 43.7913 14.6152 44.2029C14.0072 44.6145 13.4904 45.1468 13.0971 45.7665C12.7038 46.3862 12.4424 47.0801 12.3292 47.8051C12.2159 48.53 12.2532 49.2705 12.4388 49.9805C12.6244 50.6904 12.9542 51.3546 13.4078 51.9317C13.1696 52.2338 12.9647 52.5607 12.7969 52.9067L16.609 54.8851L12.5448 53.5207C12.259 54.3635 12.1882 55.2642 12.3389 56.1412C12.4896 57.0182 12.857 57.8438 13.4078 58.5431C12.7868 59.3318 12.4004 60.2793 12.293 61.277C12.1856 62.2747 12.3614 63.2826 12.8003 64.1852C13.2392 65.0879 13.9235 65.8489 14.775 66.3814C15.6265 66.9139 16.6108 67.1962 17.6154 67.1962C18.62 67.1962 19.6043 66.9139 20.4558 66.3814C21.3073 65.8489 21.9917 65.0879 22.4306 64.1852C22.8695 63.2826 23.0453 62.2747 22.9378 61.277C22.8304 60.2793 22.4441 59.3318 21.823 58.5431C22.5647 57.6002 22.9679 56.4359 22.9679 55.2368C22.9679 54.0377 22.5647 52.8733 21.823 51.9305L21.8193 51.9317Z" fill="#1482D1"/>
<path opacity="0.1" d="M12.2578 55.2375C12.2567 56.4372 12.6605 57.6023 13.4039 58.5444C12.7829 59.3332 12.3966 60.2806 12.2891 61.2784C12.1817 62.2761 12.3575 63.2839 12.7964 64.1866C13.2353 65.0892 13.9197 65.8503 14.7712 66.3828C15.6227 66.9152 16.607 67.1976 17.6116 67.1976C18.6162 67.1976 19.6005 66.9152 20.452 66.3828C21.3035 65.8503 21.9878 65.0892 22.4267 64.1866C22.8656 63.2839 23.0414 62.2761 22.934 61.2784C22.8266 60.2806 22.4402 59.3332 21.8192 58.5444C22.5419 57.634 12.2578 54.6372 12.2578 55.2375Z" fill="black"/>
<path d="M27.2039 83.5906H8.32951C8.11665 83.5902 7.91262 83.5055 7.76222 83.3551C7.61182 83.2046 7.52734 83.0007 7.52734 82.788V73.397C7.52714 73.2617 7.56126 73.1286 7.62653 73.0101C7.69179 72.8916 7.78607 72.7916 7.90055 72.7193C8.01503 72.6471 8.14597 72.605 8.28114 72.5971C8.41631 72.5891 8.55129 72.6155 8.67347 72.6738C14.0961 75.2439 18.3963 78.2395 26.8438 72.7123C27.3405 72.3861 28.0061 72.8363 28.0061 73.428V82.788C28.0061 83.0007 27.9216 83.2046 27.7712 83.3551C27.6208 83.5055 27.4168 83.5902 27.2039 83.5906Z" fill="#1482D1"/>
<path d="M35.9902 86.0973L38.6674 90.4598C38.6674 90.4598 45.0065 93.2742 52.7549 86.0973C60.5034 78.9203 52.7549 72.7295 52.7549 72.7295L43.3177 75.1582L35.9902 86.0973Z" fill="#F86D70"/>
<path opacity="0.15" d="M35.9902 86.0973L38.6674 90.4598C38.6674 90.4598 45.0065 93.2742 52.7549 86.0973C60.5034 78.9203 52.7549 72.7295 52.7549 72.7295L43.3177 75.1582L35.9902 86.0973Z" fill="black"/>
<path d="M48.3599 97.5225L44.6744 99.0768C40.8039 100.71 36.9272 102.346 32.9288 103.638C31.8324 103.992 30.505 104.279 29.632 103.529C28.7591 102.778 28.8485 101.398 29.3104 100.354C29.4818 99.9674 29.6953 99.594 29.7798 99.1797C29.8915 98.6339 29.7686 98.0708 29.6867 97.5188C29.5625 96.6741 29.5401 95.7984 29.7736 94.9772C30.007 94.1561 30.5186 93.3895 31.2761 92.9852C31.8336 92.685 32.6109 92.6378 33.0344 93.1092C33.3808 93.4937 33.3759 94.0804 33.6254 94.5344C33.957 95.1348 34.702 95.4114 35.3875 95.3816C36.0729 95.3518 36.7199 95.069 37.3494 94.7924C42.3313 92.6006 47.3342 90.3964 51.9336 87.4865C52.7296 86.9841 53.5144 86.4582 54.3525 86.0302C55.1589 85.6168 56.0095 85.296 56.8882 85.0739C56.9831 85.0366 57.0887 85.0366 57.1837 85.0739C57.2309 85.1119 57.2692 85.1598 57.2958 85.2143C57.3224 85.2687 57.3367 85.3284 57.3377 85.389C57.5277 86.5983 57.7176 87.809 57.8281 89.0283C57.9151 89.9846 58.2416 91.6703 57.8679 92.5783C57.5612 93.3225 55.9506 93.9427 55.2602 94.3273C54.2221 94.8966 53.1567 95.4163 52.0801 95.9088C50.8471 96.4719 49.6041 96.9978 48.3599 97.5225Z" fill="#FBBEBE"/>
<path opacity="0.05" d="M48.3599 97.5225L44.6744 99.0768C40.8039 100.71 36.9272 102.346 32.9288 103.638C31.8324 103.992 30.505 104.279 29.632 103.529C28.7591 102.778 28.8485 101.398 29.3104 100.354C29.4818 99.9674 29.6953 99.594 29.7798 99.1797C29.8915 98.6339 29.7686 98.0708 29.6867 97.5188C29.5625 96.6741 29.5401 95.7984 29.7736 94.9772C30.007 94.1561 30.5186 93.3895 31.2761 92.9852C31.8336 92.685 32.6109 92.6378 33.0344 93.1092C33.3808 93.4937 33.3759 94.0804 33.6254 94.5344C33.957 95.1348 34.702 95.4114 35.3875 95.3816C36.0729 95.3518 36.7199 95.069 37.3494 94.7924C42.3313 92.6006 47.3342 90.3964 51.9336 87.4865C52.7296 86.9841 53.5144 86.4582 54.3525 86.0302C55.1589 85.6168 56.0095 85.296 56.8882 85.0739C56.9831 85.0366 57.0887 85.0366 57.1837 85.0739C57.2309 85.1119 57.2692 85.1598 57.2958 85.2143C57.3224 85.2687 57.3367 85.3284 57.3377 85.389C57.5277 86.5983 57.7176 87.809 57.8281 89.0283C57.9151 89.9846 58.2416 91.6703 57.8679 92.5783C57.5612 93.3225 55.9506 93.9427 55.2602 94.3273C54.2221 94.8966 53.1567 95.4163 52.0801 95.9088C50.8471 96.4719 49.6041 96.9978 48.3599 97.5225Z" fill="black"/>
<path d="M48.1409 90.3433C47.4393 90.9735 46.6744 91.5416 46.0709 92.2647C45.3395 93.1417 44.8776 94.2084 44.4778 95.2776C44.0531 96.4131 43.6868 97.5694 43.3801 98.7421C43.123 99.7195 42.8983 100.734 42.3308 101.57C41.7633 102.406 40.7476 103.034 39.7592 102.811C38.8962 102.621 38.2778 101.855 37.8817 101.065C37.4855 100.275 37.231 99.4082 36.7169 98.6887C36.142 97.8949 35.2455 97.2747 34.9698 96.3233C34.6792 95.3235 35.202 94.2146 36.0166 93.5721C36.8312 92.9296 37.8792 92.648 38.9098 92.4892C39.0231 92.4811 39.1332 92.4485 39.2327 92.3937C39.4599 92.2473 39.481 91.9273 39.4723 91.6569C39.4014 87.8325 39.7895 84.0134 40.6284 80.2812C40.8767 79.1649 41.1723 78.0485 41.7137 77.0562C42.6897 75.2526 44.6727 73.8547 46.7054 74.1363C48.1955 74.3422 49.472 75.4127 50.2307 76.7151C50.9894 78.0175 51.2962 79.5308 51.465 81.0279C51.6339 82.5251 52.0747 84.9402 51.3495 86.3108C50.5208 87.8298 49.4352 89.194 48.1409 90.3433Z" fill="#FBBEBE"/>
<path d="M71.7806 36.3062C71.6565 37.2688 71.5596 38.3243 72.0873 39.1405C72.4089 39.6367 72.923 39.979 73.4309 40.2854C74.1691 40.7297 74.9305 41.1343 75.712 41.4973C75.8026 41.5288 75.8812 41.5878 75.9367 41.666C75.9773 41.775 75.9741 41.8954 75.928 42.0021C75.005 45.1393 73.8696 48.2102 72.5294 51.1935C72.4655 51.3723 72.3594 51.5331 72.2202 51.6623C72.0664 51.7666 71.8896 51.8322 71.7049 51.8534C68.0377 52.5308 64.2491 51.841 61.057 49.9146C60.6707 49.6927 60.3132 49.424 59.9928 49.1146C59.6981 48.8041 59.4474 48.4548 59.2478 48.0764C57.7577 45.3723 57.929 42.0976 58.1389 39.0214C59.0033 39.107 59.876 39.0496 60.7217 38.8515C61.1402 38.7682 61.54 38.6093 61.9014 38.3826C62.6029 37.9088 62.9792 37.0914 63.2871 36.3025C63.7605 35.0845 64.1509 33.8358 64.4556 32.5652C64.5649 32.1112 69.661 33.0241 70.1738 33.1382C70.7388 33.2623 72.0849 33.3479 72.2686 34.0065C72.4301 34.5734 71.8638 35.6984 71.7806 36.3062Z" fill="#FBBEBE"/>
<path opacity="0.05" d="M71.7806 36.3062C71.6565 37.2688 71.5596 38.3243 72.0873 39.1405C72.4089 39.6367 72.923 39.979 73.4309 40.2854C74.1691 40.7297 74.9305 41.1343 75.712 41.4973C75.8026 41.5288 75.8812 41.5878 75.9367 41.666C75.9773 41.775 75.9741 41.8954 75.928 42.0021C75.005 45.1393 73.8696 48.2102 72.5294 51.1935C72.4655 51.3723 72.3594 51.5331 72.2202 51.6623C72.0664 51.7666 71.8896 51.8322 71.7049 51.8534C68.0377 52.5308 64.2491 51.841 61.057 49.9146C60.6707 49.6927 60.3132 49.424 59.9928 49.1146C59.6981 48.8041 59.4474 48.4548 59.2478 48.0764C57.7577 45.3723 57.929 42.0976 58.1389 39.0214C59.0033 39.107 59.876 39.0496 60.7217 38.8515C61.1402 38.7682 61.54 38.6093 61.9014 38.3826C62.6029 37.9088 62.9792 37.0914 63.2871 36.3025C63.7605 35.0845 64.1509 33.8358 64.4556 32.5652C64.5649 32.1112 69.661 33.0241 70.1738 33.1382C70.7388 33.2623 72.0849 33.3479 72.2686 34.0065C72.4301 34.5734 71.8638 35.6984 71.7806 36.3062Z" fill="black"/>
<path d="M52.7852 62.3992C56.0137 62.2429 59.1702 63.3233 62.1938 64.4769C65.2174 65.6305 68.3764 66.7381 71.6049 66.9577C71.8322 66.1303 72.0743 65.2993 72.3785 64.4967C72.6756 63.6908 73.063 62.921 73.5333 62.202C73.9245 61.619 74.3877 61.077 74.6857 60.4431C75.273 59.1916 75.1588 57.744 75.0917 56.3647C75.0247 54.9854 75.7014 50.5745 76.4924 49.4395C75.9324 48.5886 75.3612 49.0228 74.8012 48.1731C74.5031 47.7179 73.3794 48.8913 72.9385 48.5651C72.4754 48.2202 71.9029 48.059 71.3392 47.9275C68.1988 47.1833 64.8995 47.1361 61.8486 46.0855C61.0439 45.8089 60.1797 45.4653 59.3738 45.7295C59.0569 45.851 58.7594 46.0181 58.4909 46.2257L56.5886 47.5715C56.4123 47.6955 56.303 47.6856 56.2161 47.8853C55.7616 48.949 55.475 50.0767 55.3667 51.2282C55.2426 52.5715 55.3556 53.9273 55.2041 55.2669C55.0155 56.7962 54.6204 58.293 54.0294 59.7162C53.6603 60.631 53.245 61.5265 52.7852 62.3992Z" fill="#F86D70"/>
<path d="M69.2367 36.8459C73.5161 36.8459 76.9852 33.3805 76.9852 29.1058C76.9852 24.8311 73.5161 21.3657 69.2367 21.3657C64.9574 21.3657 61.4883 24.8311 61.4883 29.1058C61.4883 33.3805 64.9574 36.8459 69.2367 36.8459Z" fill="#FBBEBE"/>
<path d="M59.0434 38.3803C59.1055 40.6957 59.2371 43.0066 59.4383 45.3129C59.4792 45.7892 59.5438 46.3052 59.8915 46.6376C59.1212 47.1455 58.2443 47.4698 57.3286 47.5853C56.7747 46.0695 56.211 44.4979 56.3153 42.8867C56.3948 41.6363 56.8492 40.448 56.9598 39.2027C56.992 38.8467 56.8989 38.353 57.2702 38.1607C57.4117 38.0876 59.0434 38.3642 59.0434 38.3803Z" fill="#F86D70"/>
<path d="M54.6069 61.2476C54.0742 61.2959 53.6135 61.6197 53.1776 61.9285C47.9983 65.6894 43.4039 70.2925 39.8227 75.599C38.9312 76.92 38.1017 78.2844 37.153 79.5683C34.6348 82.9731 31.3404 85.7206 27.9766 88.2932C28.8545 88.2535 29.8392 88.2783 30.7183 88.2386C31.2026 88.2163 31.6956 88.1952 32.1674 88.3081C32.6393 88.421 33.0975 88.6914 33.3247 89.1193C33.5346 89.5138 33.5905 90.0682 34.0089 90.2258C34.1982 90.276 34.397 90.2786 34.5876 90.2332C36.0009 90.0401 37.4398 90.2698 38.7226 90.8931C38.7698 89.8304 38.9288 88.7757 39.1969 87.7462C39.3459 87.1533 39.5396 86.5728 39.7383 85.9935C40.1841 84.6973 40.6597 83.3998 41.3873 82.2364C42.2101 80.9239 43.3289 79.822 44.6543 79.0188C45.0245 78.7737 45.4399 78.605 45.8762 78.5226C46.9702 78.3626 48.0257 79.1527 48.531 80.1351C49.0364 81.1175 49.1134 82.2562 49.1805 83.3602C49.2633 84.7122 49.346 86.0646 49.4288 87.4175C49.4586 87.9075 49.4971 88.4247 49.7728 88.8316C49.9888 88.4148 50.5079 88.3354 50.9114 88.0948C51.6826 87.637 52.5481 87.162 53.4272 87.3418C54.4069 87.5403 55.0415 88.4793 55.4773 89.3773C56.2409 90.952 56.7349 92.6433 56.9388 94.3811C58.7704 93.4012 59.9612 91.5369 60.3958 89.5063C60.6442 88.359 60.6007 87.1657 60.8155 86.0121C61.0985 84.5011 61.8052 83.1014 62.8532 81.9759C65.1666 79.5013 68.8471 78.6541 71.1232 76.146C71.4225 75.8148 71.7031 75.4365 71.7577 74.9937C71.8223 74.464 71.5491 73.9492 71.5367 73.4159C71.5168 72.5129 72.2147 71.781 72.7784 71.0777C73.3226 70.4049 73.7814 69.6675 74.1444 68.8822C74.3356 68.4667 74.5032 68.0139 74.4635 67.5624C74.4237 67.1109 74.1257 66.6421 73.6762 66.5503C72.8542 66.3828 72.0371 67.462 71.2983 67.0625C71.1108 66.943 70.9583 66.7762 70.8562 66.5788C70.3862 65.8135 70.0569 64.9704 69.884 64.0893C68.0214 63.4108 66.0606 63.1702 64.1409 62.6839C63.3239 62.4768 62.5267 62.2014 61.717 61.9645C59.4285 61.2935 56.9922 61.2835 54.6069 61.2476Z" fill="#F86D70"/>
<path d="M52.7852 62.3995C56.0137 62.2432 59.1702 63.3236 62.1938 64.4771C65.2174 65.6307 68.3764 66.7384 71.6049 66.9579C71.8322 66.1306 72.0743 65.2995 72.3785 64.497C72.0892 64.332 71.7378 64.2154 71.487 64.0951C69.9534 63.3533 68.3779 62.7014 66.7684 62.1427C63.5246 61.0178 60.1616 60.2706 56.7463 59.9162C55.8473 59.8219 54.9433 59.7574 54.0393 59.7202C53.6669 60.6339 53.2483 61.5281 52.7852 62.3995Z" fill="#F86D70"/>
<path opacity="0.15" d="M52.7852 62.3995C56.0137 62.2432 59.1702 63.3236 62.1938 64.4771C65.2174 65.6307 68.3764 66.7384 71.6049 66.9579C71.8322 66.1306 72.0743 65.2995 72.3785 64.497C72.0892 64.332 71.7378 64.2154 71.487 64.0951C69.9534 63.3533 68.3779 62.7014 66.7684 62.1427C63.5246 61.0178 60.1616 60.2706 56.7463 59.9162C55.8473 59.8219 54.9433 59.7574 54.0393 59.7202C53.6669 60.6339 53.2483 61.5281 52.7852 62.3995Z" fill="black"/>
<path d="M75.47 41.7914C77.0287 41.7285 78.5491 42.284 79.6992 43.3367C80.8494 44.3894 81.536 45.8539 81.6091 47.4105C81.6259 48.1709 81.5559 48.9308 81.4005 49.6754C80.6654 53.6757 79.1654 57.7318 80.0582 61.6999C80.3202 62.8708 80.7871 64.002 80.874 65.1978C80.9009 65.7771 80.8831 66.3577 80.8206 66.9343L80.3438 72.6563C81.0144 73.4005 81.9146 74.0728 82.6485 74.765C83.3823 75.4571 84.0504 76.2671 84.2863 77.2458C84.3925 77.7625 84.4251 78.2916 84.3832 78.8174C84.3708 79.0853 84.341 79.3805 84.146 79.5616C83.9511 79.7427 83.5438 79.698 83.5053 79.4376C83.3712 79.7873 82.8161 79.7576 82.569 79.476C82.3219 79.1944 82.2809 78.7938 82.2077 78.4254C82.0863 77.8109 81.8458 77.2261 81.4999 76.7037C81.3422 76.9369 81.3757 77.2433 81.3447 77.5224C81.3136 77.8015 81.1472 78.1252 80.8653 78.124C80.5251 78.124 80.396 77.6861 80.35 77.3487C80.2867 76.8736 80.1861 76.3899 79.9328 75.9843C79.6795 75.5787 79.2449 75.2537 78.7643 75.2487C78.8363 75.2707 78.9011 75.3115 78.9519 75.3669C79.0028 75.4223 79.0379 75.4903 79.0537 75.5638C78.5639 75.7443 78.0365 75.7989 77.5201 75.7226C77.2241 75.6872 76.9404 75.5831 76.6919 75.4187C76.2771 75.1247 76.0561 74.6198 75.9779 74.1175C75.8996 73.6151 75.9406 73.1041 75.9468 72.5955C75.9717 70.4744 75.3458 68.4067 74.7262 66.3774C74.2494 64.817 73.8235 63.2764 73.9687 61.654C74.0383 60.8787 74.2295 60.1208 74.3413 59.3505C74.7424 56.5596 74.0929 53.5926 75.1385 50.9716C75.2477 50.695 75.3794 50.4085 75.3446 50.1133C75.2925 49.8536 75.1721 49.6126 74.9957 49.4149C74.4842 48.7485 73.8814 48.1573 73.2051 47.6585C73.3388 47.4744 73.4381 47.2677 73.4981 47.0483C73.9687 45.2534 74.3139 43.2464 75.47 41.7914Z" fill="#FBBEBE"/>
<path d="M76.2608 42.9906C76.0093 44.0071 75.8186 45.0376 75.6896 46.0767C75.4661 48.2164 75.928 48.0675 75.3643 50.1427C73.9897 49.4208 72.4462 51.0482 71.0716 50.3263C70.9474 50.2581 70.7984 50.1713 70.7735 50.0274C70.7708 49.8965 70.8199 49.7699 70.9101 49.6751C71.7565 48.5213 72.4346 47.2534 72.9242 45.9092C73.3104 44.8462 73.5786 43.7386 74.0716 42.7214C74.3622 42.1198 74.7508 41.5356 75.327 41.197C75.6461 41.0097 76.9413 40.6586 77.0654 41.2788C77.099 41.4587 76.6929 41.8085 76.5998 41.9772C76.4401 42.2976 76.326 42.6387 76.2608 42.9906Z" fill="#F86D70"/>
<path d="M73.0438 53.1137C76.001 53.1137 78.3982 50.7191 78.3982 47.7651C78.3982 44.8112 76.001 42.4165 73.0438 42.4165C70.0867 42.4165 67.6895 44.8112 67.6895 47.7651C67.6895 50.7191 70.0867 53.1137 73.0438 53.1137Z" fill="#1482D1"/>
<path d="M88.8915 53.1137C91.8486 53.1137 94.2458 50.7191 94.2458 47.7651C94.2458 44.8112 91.8486 42.4165 88.8915 42.4165C85.9343 42.4165 83.5371 44.8112 83.5371 47.7651C83.5371 50.7191 85.9343 53.1137 88.8915 53.1137Z" fill="#1482D1"/>
<path opacity="0.1" d="M87.5882 53.114C89.8266 53.114 91.6412 51.0392 91.6412 48.4798C91.6412 45.9205 89.8266 43.8457 87.5882 43.8457C85.3498 43.8457 83.5352 45.9205 83.5352 48.4798C83.5352 51.0392 85.3498 53.114 87.5882 53.114Z" fill="black"/>
<path opacity="0.1" d="M74.348 53.114C76.5864 53.114 78.401 51.0392 78.401 48.4798C78.401 45.9205 76.5864 43.8457 74.348 43.8457C72.1095 43.8457 70.2949 45.9205 70.2949 48.4798C70.2949 51.0392 72.1095 53.114 74.348 53.114Z" fill="black"/>
<path d="M100.037 69.5628C99.8826 71.2274 98.5465 72.8523 96.8726 72.8623C96.1276 72.8623 95.4235 72.5708 94.7617 72.2321C94.188 71.9382 93.6217 71.5983 93.2058 71.1059C93.1449 71.0339 93.089 70.9607 93.0357 70.8851C92.3726 69.9448 92.2335 68.697 91.6561 67.6848C90.6192 65.8652 88.404 65.1284 86.365 64.6434C84.215 64.1311 82.0393 63.7328 79.8472 63.4501C78.3571 63.2566 76.8434 63.1177 75.3508 63.3012C72.1745 63.692 69.3061 65.5129 66.1434 65.9297C66.0366 65.9433 65.9298 65.9557 65.8217 65.9669C64.8284 66.0661 63.8213 66.0165 62.8254 66.1083C61.1677 66.2608 59.5361 66.8066 57.8746 66.6937C56.2132 66.5809 54.4189 65.4992 54.3009 63.8408C54.2177 62.6724 55.0124 61.5796 56.0182 60.978C57.024 60.3764 58.2124 60.1717 59.3709 60.0043C62.4467 59.559 65.6044 59.2762 68.4356 58.006C69.4489 57.552 70.41 56.9752 71.4567 56.6056C71.9224 56.4384 72.4064 56.3272 72.8984 56.2744C73.5142 56.2038 74.138 56.2834 74.7163 56.5063L73.2262 57.072L87.7757 56.0461L88.3493 56.0065C89.0385 55.9581 89.7401 55.9097 90.4143 56.0623C91.5741 56.3252 92.5253 57.1563 93.2592 58.0941C93.993 59.0318 94.5406 60.0973 95.2286 61.071C96.1959 62.4355 97.4215 63.5965 98.4136 64.9411C99.4058 66.2857 100.189 67.8994 100.037 69.5628Z" fill="#1482D1"/>
<path opacity="0.1" d="M93.2556 67.4221C93.2625 68.58 93.1907 69.7371 93.0408 70.8853C92.3777 69.9451 92.2386 68.6972 91.6612 67.6851C90.6243 65.8654 88.4091 65.1286 86.3701 64.6436C84.2201 64.1314 82.0444 63.7331 79.8523 63.4504C78.3622 63.2569 76.8485 63.1179 75.3559 63.3015C72.1796 63.6922 69.3111 65.5131 66.1484 65.9299C66.8364 61.0229 69.3211 57.8797 72.9097 56.2734C74.858 55.4051 77.1316 54.9834 79.6263 54.9834C82.6884 54.9834 85.5133 55.1074 87.7894 56.0452C91.1074 57.4096 93.2556 60.4957 93.2556 67.4221Z" fill="black"/>
<path d="M92.558 67.9172C92.558 70.5382 92.2438 72.5873 91.6701 74.1875C90.262 78.1108 87.3004 79.3401 83.615 79.7097C82.3732 79.8338 81.0557 79.861 79.6849 79.861C77.957 79.8737 76.2365 79.6347 74.5776 79.1515C71.5043 78.2274 68.9823 76.378 67.6996 73.4928C67.008 71.9399 66.6764 70.0879 66.8105 67.9172C67.3246 59.6363 72.5747 55.9697 79.6849 55.9697C86.7951 55.9697 92.558 56.7053 92.558 67.9172Z" fill="#2F2E41"/>
<path opacity="0.1" d="M80.9693 63.4467C86.5194 63.4467 91.0187 58.9523 91.0187 53.4082C91.0187 47.864 86.5194 43.3696 80.9693 43.3696C75.4192 43.3696 70.9199 47.864 70.9199 53.4082C70.9199 58.9523 75.4192 63.4467 80.9693 63.4467Z" fill="black"/>
<path d="M80.9693 62.8598C86.5194 62.8598 91.0187 58.3654 91.0187 52.8213C91.0187 47.2771 86.5194 42.7827 80.9693 42.7827C75.4192 42.7827 70.9199 47.2771 70.9199 52.8213C70.9199 58.3654 75.4192 62.8598 80.9693 62.8598Z" fill="#2F2E41"/>
<path d="M79.684 50.0749C79.9679 50.0749 80.1981 49.845 80.1981 49.5614C80.1981 49.2778 79.9679 49.0479 79.684 49.0479C79.4001 49.0479 79.1699 49.2778 79.1699 49.5614C79.1699 49.845 79.4001 50.0749 79.684 50.0749Z" fill="#FBBEBE"/>
<path d="M82.1781 50.0749C82.4621 50.0749 82.6922 49.845 82.6922 49.5614C82.6922 49.2778 82.4621 49.0479 82.1781 49.0479C81.8942 49.0479 81.6641 49.2778 81.6641 49.5614C81.6641 49.845 81.8942 50.0749 82.1781 50.0749Z" fill="#FBBEBE"/>
<path opacity="0.1" d="M80.9678 57.407C83.8645 57.407 86.2129 55.8954 86.2129 54.0307C86.2129 52.1659 83.8645 50.6543 80.9678 50.6543C78.071 50.6543 75.7227 52.1659 75.7227 54.0307C75.7227 55.8954 78.071 57.407 80.9678 57.407Z" fill="black"/>
<path d="M80.9696 57.2179C83.7046 57.2179 85.9217 55.7907 85.9217 54.0301C85.9217 52.2695 83.7046 50.8423 80.9696 50.8423C78.2347 50.8423 76.0176 52.2695 76.0176 54.0301C76.0176 55.7907 78.2347 57.2179 80.9696 57.2179Z" fill="#1482D1"/>
<path opacity="0.1" d="M74.5772 79.1513C71.5039 78.2272 68.9819 76.3778 67.6992 73.4926C68.1329 73.3425 68.5887 73.2657 69.0478 73.2656C71.6691 73.2656 73.8806 75.7501 74.5772 79.1513Z" fill="black"/>
<path d="M74.5124 81.9498C74.5124 86.4611 71.9346 90.1191 68.7545 90.1191C66.6001 90.1191 64.7226 88.4421 63.7354 85.9563C63.237 84.6795 62.9842 83.3202 62.9903 81.9498C62.9903 77.4372 65.5694 73.7793 68.7495 73.7793C71.6192 73.7793 73.9996 76.7562 74.4354 80.6585C74.4858 81.0871 74.5115 81.5183 74.5124 81.9498Z" fill="#2F2E41"/>
<path opacity="0.1" d="M74.5134 81.9495C74.5134 86.4608 71.9355 90.1188 68.7554 90.1188C66.601 90.1188 64.7235 88.4417 63.7363 85.956C63.8928 82.69 67.1958 80.0802 71.2488 80.0802C72.3412 80.0742 73.4254 80.2684 74.4476 80.6533C74.4944 81.0837 74.5163 81.5165 74.5134 81.9495Z" fill="black"/>
<path d="M71.6886 92.6103C75.8411 92.6103 79.2074 89.8708 79.2074 86.4914C79.2074 83.1121 75.8411 80.3726 71.6886 80.3726C67.5362 80.3726 64.1699 83.1121 64.1699 86.4914C64.1699 89.8708 67.5362 92.6103 71.6886 92.6103Z" fill="#1482D1"/>
<path d="M72.2566 92.6103C76.095 92.6103 79.2066 90.043 79.2066 86.876C79.2066 83.709 76.095 81.1416 72.2566 81.1416C68.4183 81.1416 65.3066 83.709 65.3066 86.876C65.3066 90.043 68.4183 92.6103 72.2566 92.6103Z" fill="#2F2E41"/>
<path opacity="0.1" d="M74.7322 86.1705C75.4008 86.1705 75.9429 85.4941 75.9429 84.6597C75.9429 83.8253 75.4008 83.1489 74.7322 83.1489C74.0635 83.1489 73.5215 83.8253 73.5215 84.6597C73.5215 85.4941 74.0635 86.1705 74.7322 86.1705Z" fill="black"/>
<path d="M74.7339 85.9426C75.3011 85.9426 75.7608 85.3684 75.7608 84.66C75.7608 83.9517 75.3011 83.3774 74.7339 83.3774C74.1668 83.3774 73.707 83.9517 73.707 84.66C73.707 85.3684 74.1668 85.9426 74.7339 85.9426Z" fill="#1482D1"/>
<path opacity="0.1" d="M71.14 87.2984C71.8429 87.2984 72.4128 86.6914 72.4128 85.9427C72.4128 85.1939 71.8429 84.5869 71.14 84.5869C70.437 84.5869 69.8672 85.1939 69.8672 85.9427C69.8672 86.6914 70.437 87.2984 71.14 87.2984Z" fill="black"/>
<path d="M71.1392 87.1149C71.7469 87.1149 72.2394 86.5901 72.2394 85.9427C72.2394 85.2953 71.7469 84.7705 71.1392 84.7705C70.5316 84.7705 70.0391 85.2953 70.0391 85.9427C70.0391 86.5901 70.5316 87.1149 71.1392 87.1149Z" fill="#1482D1"/>
<path opacity="0.1" d="M69.16 90.1209C69.9095 90.1209 70.5172 89.6278 70.5172 89.0194C70.5172 88.4111 69.9095 87.918 69.16 87.918C68.4104 87.918 67.8027 88.4111 67.8027 89.0194C67.8027 89.6278 68.4104 90.1209 69.16 90.1209Z" fill="black"/>
<path d="M69.1578 89.9722C69.8059 89.9722 70.3313 89.5457 70.3313 89.0195C70.3313 88.4934 69.8059 88.0669 69.1578 88.0669C68.5097 88.0669 67.9844 88.4934 67.9844 89.0195C67.9844 89.5457 68.5097 89.9722 69.1578 89.9722Z" fill="#1482D1"/>
<path opacity="0.1" d="M75.4182 91.2563C76.7109 90.1334 77.2824 88.6758 76.6946 88.0007C76.1069 87.3256 74.5826 87.6886 73.2899 88.8115C71.9972 89.9344 71.4257 91.392 72.0134 92.0671C72.6011 92.7423 74.1255 92.3793 75.4182 91.2563Z" fill="black"/>
<path d="M75.3499 91.1758C76.5582 90.1261 77.0927 88.764 76.5437 88.1333C75.9947 87.5026 74.5701 87.8423 73.3617 88.8919C72.1534 89.9416 71.6189 91.3037 72.1679 91.9344C72.7169 92.5651 74.1415 92.2254 75.3499 91.1758Z" fill="#1482D1"/>
<path opacity="0.1" d="M91.6704 74.1874C90.2622 78.1107 87.3007 79.34 83.6152 79.7096C84.2113 76.1001 86.4948 73.4121 89.2204 73.4121C90.0964 73.4194 90.95 73.6895 91.6704 74.1874Z" fill="black"/>
<path d="M95.4182 81.9498C95.4289 83.4422 95.1291 84.9206 94.5378 86.2912C93.5196 88.5909 91.7154 90.1191 89.6603 90.1191C86.4802 90.1191 83.9024 86.4611 83.9024 81.9498C83.9017 81.5251 83.9245 81.1006 83.9707 80.6784C84.4015 76.7699 86.7844 73.7793 89.6603 73.7793C92.8404 73.7793 95.4182 77.4372 95.4182 81.9498Z" fill="#2F2E41"/>
<path opacity="0.1" d="M94.5378 86.272V86.2906C93.5196 88.5903 91.7154 90.1185 89.6603 90.1185C86.4802 90.1185 83.9024 86.4605 83.9024 81.9492C83.9017 81.5245 83.9245 81.1 83.9707 80.6778C84.9489 80.3288 85.9804 80.1525 87.0191 80.1568C91.1715 80.1568 94.5378 82.8919 94.5378 86.272Z" fill="black"/>
<path d="M86.7257 92.6103C90.8782 92.6103 94.2445 89.8708 94.2445 86.4914C94.2445 83.1121 90.8782 80.3726 86.7257 80.3726C82.5733 80.3726 79.207 83.1121 79.207 86.4914C79.207 89.8708 82.5733 92.6103 86.7257 92.6103Z" fill="#1482D1"/>
<path d="M86.0838 92.6103C89.8817 92.6103 92.9605 90.043 92.9605 86.876C92.9605 83.709 89.8817 81.1416 86.0838 81.1416C82.2859 81.1416 79.207 83.709 79.207 86.876C79.207 90.043 82.2859 92.6103 86.0838 92.6103Z" fill="#2F2E41"/>
<path opacity="0.1" d="M83.681 86.1988C84.3613 86.1988 84.9128 85.5096 84.9128 84.6595C84.9128 83.8093 84.3613 83.1201 83.681 83.1201C83.0007 83.1201 82.4492 83.8093 82.4492 84.6595C82.4492 85.5096 83.0007 86.1988 83.681 86.1988Z" fill="black"/>
<path d="M83.6812 85.9426C84.2484 85.9426 84.7081 85.3684 84.7081 84.66C84.7081 83.9517 84.2484 83.3774 83.6812 83.3774C83.1141 83.3774 82.6543 83.9517 82.6543 84.66C82.6543 85.3684 83.1141 85.9426 83.6812 85.9426Z" fill="#1482D1"/>
<path opacity="0.1" d="M87.2767 87.2984C87.9796 87.2984 88.5495 86.6914 88.5495 85.9427C88.5495 85.1939 87.9796 84.5869 87.2767 84.5869C86.5737 84.5869 86.0039 85.1939 86.0039 85.9427C86.0039 86.6914 86.5737 87.2984 87.2767 87.2984Z" fill="black"/>
<path d="M87.276 87.1149C87.8836 87.1149 88.3762 86.5901 88.3762 85.9427C88.3762 85.2953 87.8836 84.7705 87.276 84.7705C86.6684 84.7705 86.1758 85.2953 86.1758 85.9427C86.1758 86.5901 86.6684 87.1149 87.276 87.1149Z" fill="#1482D1"/>
<path opacity="0.1" d="M89.2576 90.1209C90.0072 90.1209 90.6148 89.6278 90.6148 89.0194C90.6148 88.4111 90.0072 87.918 89.2576 87.918C88.508 87.918 87.9004 88.4111 87.9004 89.0194C87.9004 89.6278 88.508 90.1209 89.2576 90.1209Z" fill="black"/>
<path d="M89.2574 89.9722C89.9055 89.9722 90.4309 89.5457 90.4309 89.0195C90.4309 88.4934 89.9055 88.0669 89.2574 88.0669C88.6094 88.0669 88.084 88.4934 88.084 89.0195C88.084 89.5457 88.6094 89.9722 89.2574 89.9722Z" fill="#1482D1"/>
<path opacity="0.1" d="M86.4017 92.0843C86.9894 91.4091 86.4179 89.9515 85.1252 88.8286C83.8325 87.7057 82.3081 87.3427 81.7204 88.0178C81.1327 88.6929 81.7042 90.1505 82.9969 91.2735C84.2896 92.3964 85.814 92.7594 86.4017 92.0843Z" fill="black"/>
<path d="M86.2488 91.9512C86.7978 91.3205 86.2633 89.9583 85.055 88.9087C83.8466 87.8591 82.422 87.5194 81.873 88.1501C81.324 88.7807 81.8585 90.1429 83.0668 91.1925C84.2752 92.2422 85.6998 92.5818 86.2488 91.9512Z" fill="#1482D1"/>
<path d="M57.6209 38.633C56.3758 38.2137 55.0286 38.2063 53.779 38.6119C53.1693 38.8116 52.567 39.1291 52.2045 39.66C51.9139 40.0855 51.8046 40.6064 51.7078 41.1113C51.3998 42.6394 51.101 44.1693 50.8112 45.7008C50.476 47.4683 50.7578 49.2793 51.1453 51.0345C51.5327 52.7896 51.8431 54.5944 52.0641 56.3942C52.1682 57.0787 52.2007 57.7721 52.161 58.4632C52.0939 59.2422 51.8593 60.0212 51.9847 60.7927C52.2156 62.2105 53.5505 63.1395 54.7699 63.9011C55.2206 65.2333 56.6325 65.9478 57.8742 66.604C60.4771 67.9768 62.9652 69.5564 65.3147 71.3274C66.1454 71.9476 66.9662 72.6087 67.9087 73.0491C68.7903 73.4621 69.749 73.6693 70.7001 73.8826L73.6803 74.5351C74.5669 74.411 75.5429 74.163 76.3488 73.771C76.8182 73.539 77.336 73.1161 77.218 72.6075C77.1348 72.2651 76.7933 72.0617 76.4829 71.8967C75.4895 71.372 74.4961 70.8424 73.4096 70.5794C72.8086 70.4331 72.1902 70.3711 71.5805 70.2594C70.9217 70.1446 70.278 69.9552 69.662 69.695C68.1235 69.0289 66.8719 67.853 65.655 66.6995C64.5039 65.6104 63.4881 64.4519 62.3842 63.3157C61.8734 62.8221 61.3358 62.3571 60.7737 61.9227C59.5432 60.909 58.3715 59.826 57.2645 58.679C56.6437 58.0316 57.0311 56.9202 57.087 56.0221C57.1689 54.7197 56.8734 53.4272 56.625 52.1459C56.5009 51.5058 56.3891 50.8559 56.4301 50.2059C56.4922 49.2136 56.9032 48.2857 57.2074 47.3418C57.8724 45.2699 58.0358 43.07 57.6842 40.9227C57.5601 40.1549 57.421 39.3846 57.6209 38.633Z" fill="#FBBEBE"/>
<path d="M75.9113 28.8343C78.0619 28.4324 79.1063 25.7147 78.4841 23.6184C77.862 21.5221 76.1124 19.979 74.3715 18.6568C71.5292 16.4935 68.3242 14.5399 64.7617 14.2782C61.1992 14.0165 57.2641 15.975 56.3179 19.4147C55.7045 21.6412 56.3936 24.0835 55.7069 26.289C54.7136 29.4743 51.1758 31.2592 49.8857 34.3367C48.3546 37.9934 50.4221 42.0544 50.9784 45.979C51.9792 53.0493 47.242 60.5004 40.4062 62.6004C42.9319 62.9489 45.4974 63.2504 48.0243 62.9279C50.5512 62.6053 53.0794 61.5944 54.7694 59.6879C55.5704 58.7837 56.2099 57.6648 57.2914 57.1253C57.9371 56.804 58.671 56.7259 59.375 56.5721C63.4541 55.6839 66.6839 51.8213 66.8342 47.6548C66.9434 44.6295 65.6098 41.7332 65.3639 38.7153C65.0932 35.3823 66.263 32.0977 68.3565 29.5214C71.1331 26.1066 72.4729 29.4768 75.9113 28.8343Z" fill="#2F2E41"/>
<path opacity="0.15" d="M78.4841 23.76C77.8633 21.6638 76.1124 20.1195 74.3715 18.7985C73.421 18.0678 72.4324 17.388 71.41 16.7617C71.6956 16.9689 71.9787 17.1797 72.2581 17.3918C73.9965 18.7153 75.7498 20.2609 76.3719 22.3534C76.9941 24.446 75.9498 27.1674 73.7978 27.5693C70.3607 28.2118 69.0196 24.8404 66.2431 28.2553C64.1495 30.8316 62.9798 34.1161 63.2517 37.4491C63.5001 40.467 64.83 43.3633 64.7207 46.3886C64.5705 50.5551 61.3407 54.4177 57.2628 55.3059C56.5575 55.4597 55.8237 55.5378 55.178 55.8591C54.0964 56.3987 53.4569 57.5175 52.656 58.4218C50.966 60.3283 48.4403 61.3392 45.9121 61.6617C44.859 61.791 43.797 61.8325 42.737 61.7857C41.9911 62.1763 41.2109 62.4977 40.4062 62.7458C42.9319 63.0943 45.4974 63.397 48.0243 63.0745C50.5512 62.752 53.0794 61.7411 54.7694 59.8333C55.5704 58.9291 56.2099 57.8115 57.2914 57.2719C57.9371 56.9494 58.671 56.8725 59.375 56.7187C63.4541 55.8293 66.6839 51.968 66.8342 47.8002C66.9434 44.7749 65.6098 41.8786 65.3639 38.8619C65.0932 35.529 66.263 32.2431 68.3565 29.6681C71.1331 26.2533 72.4729 29.6234 75.9113 28.9821C78.0619 28.574 79.1063 25.8563 78.4841 23.76Z" fill="black"/>
</g>
<defs>
<clipPath id="clip0">
<rect width="133" height="104" fill="white"/>
</clipPath>
</defs>
</svg>
